<svg width="44" height="44" viewBox="0 0 44 44" fill="none" xmlns="http://www.w3.org/2000/svg">
<g id="automated-process 1">
<g id="Group">
<g id="Group_2">
<path id="Vector" d="M4.72502 12.1125H39.2753C39.7303 12.1125 40.1427 12.2975 40.4427 12.5975C40.7401 12.8949 40.9277 13.3099 40.9277 13.7649V36.7568C40.9277 37.0967 40.6502 37.3741 40.3103 37.3741H3.69266C3.3502 37.3741 3.0752 37.0966 3.0752 36.7568V13.7648C3.0752 13.3098 3.26013 12.8949 3.56014 12.5974C3.85766 12.2975 4.27256 12.1125 4.72502 12.1125Z" fill="#4A4D71"/>
</g>
<g id="Group_3">
<path id="Vector_2" d="M39.2748 13.3474H4.72448C4.61198 13.3474 4.50705 13.3949 4.43203 13.4699C4.35701 13.5449 4.30957 13.6498 4.30957 13.7648V35.5219H39.6923V13.7648C39.6923 13.6498 39.6447 13.5448 39.5673 13.4699C39.4923 13.3948 39.3873 13.3474 39.2748 13.3474Z" fill="#E3E1E6"/>
</g>
<g id="Group_4">
<path id="Vector_3" fill-rule="evenodd" clip-rule="evenodd" d="M0.0429688 36.7567H43.957V39.0889C43.957 40.3737 42.9071 41.4235 41.6249 41.4235H2.37763C1.09278 41.4235 0.0429688 40.3737 0.0429688 39.0889V36.7567Z" fill="#B4D2D7"/>
</g>
<g id="Group_5">
<path id="Vector_4" fill-rule="evenodd" clip-rule="evenodd" d="M1.68274 36.7567H0.0429688V39.0889C0.0429688 40.3737 1.09287 41.4235 2.37763 41.4235H41.6249C42.4597 41.4235 43.1972 40.9787 43.6096 40.3137C43.4971 40.3287 43.3821 40.3387 43.2646 40.3387H4.01741C2.73255 40.3387 1.68274 39.2888 1.68274 38.004V36.7567Z" fill="#3A1C86"/>
</g>
<g id="Group_6">
<path id="Vector_5" d="M5.73184 13.3474H4.72448C4.61198 13.3474 4.50705 13.3949 4.43203 13.4699C4.35701 13.5449 4.30957 13.6498 4.30957 13.7648V35.5219H5.31444V13.7648C5.31444 13.6498 5.36196 13.5448 5.4369 13.4699C5.51184 13.3948 5.61685 13.3474 5.73184 13.3474Z" fill="#3A1C86"/>
</g>
<path id="Vector_6" d="M36.4871 14.8603L34.1875 17.4899C34.0706 17.6236 33.9015 17.7005 33.7239 17.7005C33.7238 17.7005 33.7238 17.7005 33.7237 17.7005C33.5461 17.7005 33.3771 17.6238 33.2602 17.4902L30.958 14.8606C30.7339 14.6046 30.7596 14.2153 31.0157 13.9912C31.2715 13.7669 31.661 13.7927 31.8851 14.0488L33.1075 15.4451V6.19963H28.0019C27.6616 6.19963 27.3857 5.92377 27.3857 5.58346C27.3857 5.24314 27.6616 4.96729 28.0019 4.96729H33.7237C34.064 4.96729 34.3399 5.24314 34.3399 5.58346V15.4438L35.5595 14.0491C35.7834 13.7928 36.1728 13.7667 36.4289 13.9909C36.6851 14.2149 36.7111 14.6042 36.4871 14.8603Z" fill="#FF5BA8"/>
<path id="Vector_7" d="M23.3726 30.6439H13.4402V25.369L14.6598 26.7637C14.7817 26.903 14.9523 26.9742 15.1239 26.9742C15.2678 26.9742 15.4124 26.9241 15.5293 26.8219C15.7854 26.5979 15.8115 26.2085 15.5874 25.9525L13.2878 23.3229C13.1708 23.189 13.0018 23.1123 12.824 23.1123C12.6463 23.1123 12.4773 23.189 12.3602 23.3229L10.0605 25.9525C9.83659 26.2085 9.86254 26.5979 10.1187 26.8219C10.3748 27.0458 10.7641 27.0199 10.9882 26.7637L12.2079 25.369V31.26C12.2079 31.6003 12.4837 31.8761 12.824 31.8761H23.3726C23.7129 31.8761 23.9888 31.6003 23.9888 31.26C23.9888 30.9196 23.7129 30.6439 23.3726 30.6439Z" fill="#A1A1F8"/>
<g id="Group_7">
<path id="Vector_8" fill-rule="evenodd" clip-rule="evenodd" d="M20.078 5.42349C20.4879 5.556 20.8829 5.72092 21.2628 5.91591L23.7325 4.35615L26.1871 6.81336L24.6299 9.28294C24.8249 9.66038 24.9898 10.0578 25.1199 10.4678L27.9695 11.1126V14.5847L25.1199 15.2271C24.9898 15.6395 24.8249 16.0344 24.6299 16.4144L26.1872 18.8841L23.7326 21.3387L21.2629 19.7789C20.8855 19.9739 20.488 20.1389 20.0781 20.2713L19.4331 23.1185H15.9611L15.3162 20.2713C14.9063 20.1388 14.5088 19.9739 14.1314 19.7789L11.6617 21.3387L9.20706 18.8841L10.7643 16.4144C10.5693 16.0344 10.4043 15.6395 10.2744 15.2271L7.4248 14.5847V11.1126L10.2744 10.4678C10.4043 10.0553 10.5693 9.66038 10.7643 9.28294L9.20706 6.81327L11.6617 4.35606L14.1314 5.91582C14.5088 5.72083 14.9063 5.55583 15.3162 5.4234L15.9611 2.57629H19.4331L20.078 5.42349Z" fill="#FF5BA8"/>
</g>
<g id="Group_8">
<path id="Vector_9" fill-rule="evenodd" clip-rule="evenodd" d="M19.788 21.5488L19.4331 23.1186H15.9611L15.3162 20.2715C14.9063 20.1389 14.5088 19.974 14.1314 19.779L11.6617 21.3388L9.20706 18.8842L10.7643 16.4145C10.5693 16.0346 10.4043 15.6396 10.2744 15.2272L7.4248 14.5848V11.1128L10.2744 10.4679C10.4043 10.0555 10.5693 9.6605 10.7643 9.28306L9.20706 6.81339L11.6617 4.35618L14.1314 5.91595C14.5088 5.72096 14.9063 5.55595 15.3162 5.42353L15.9611 2.57642H19.4331L19.788 4.14873C15.8261 5.05863 12.8714 8.60811 12.8714 12.8476C12.8714 17.087 15.8261 20.6364 19.788 21.5488Z" fill="#ED4593"/>
</g>
<g id="Group_9">
<path id="Vector_10" fill-rule="evenodd" clip-rule="evenodd" d="M17.6952 18.1018C20.5898 18.1018 22.9495 15.7421 22.9495 12.8475C22.9495 9.95537 20.5898 7.5957 17.6952 7.5957C14.803 7.5957 12.4434 9.95537 12.4434 12.8475C12.4434 15.7421 14.8031 18.1018 17.6952 18.1018Z" fill="#FDFDFF"/>
</g>
<g id="Group_10">
<path id="Vector_11" fill-rule="evenodd" clip-rule="evenodd" d="M13.6432 12.8475C13.6432 10.1504 15.678 7.9257 18.2976 7.62819C18.1001 7.60567 17.9001 7.5957 17.6952 7.5957C15.9154 7.5957 14.3406 8.4806 13.3907 9.8379C12.7933 10.6903 12.4434 11.7277 12.4434 12.8475C12.4434 13.9674 12.7933 15.0047 13.3907 15.8571C14.3406 17.2144 15.9154 18.1018 17.6952 18.1018C17.9001 18.1018 18.1001 18.0894 18.2976 18.0668C15.678 17.7693 13.6432 15.5472 13.6432 12.8475Z" fill="#FDFDFF"/>
</g>
<g id="Group_11">
<path id="Vector_12" fill-rule="evenodd" clip-rule="evenodd" d="M32.6083 21.4639C32.8732 21.5489 33.1282 21.6564 33.3732 21.7813L34.963 20.7765L36.5427 22.3587L35.5404 23.9485C35.6653 24.1909 35.7728 24.4459 35.8578 24.7108L37.6901 25.1257V27.363L35.8553 27.7779C35.7728 28.0403 35.6653 28.2953 35.5404 28.5402L36.5427 30.13L34.963 31.7123L33.3732 30.7074C33.1283 30.8323 32.8733 30.9398 32.6083 31.0248L32.1934 32.8571H29.9586L29.5437 31.0248C29.2788 30.9398 29.0238 30.8323 28.7814 30.7074L27.1915 31.7123L25.6093 30.13L26.6141 28.5402C26.4866 28.2953 26.3817 28.0403 26.2967 27.7779L24.4619 27.363V25.1257L26.2967 24.7108C26.3817 24.4459 26.4867 24.1909 26.6141 23.9485L25.6093 22.3587L27.1915 20.7765L28.7814 21.7813C29.0238 21.6564 29.2788 21.5489 29.5437 21.4639L29.9586 19.6316H32.1934L32.6083 21.4639Z" fill="#A1A1F8"/>
</g>
<g id="Group_12">
<path id="Vector_13" fill-rule="evenodd" clip-rule="evenodd" d="M32.4233 31.8449L32.1934 32.8572H29.9586L29.5437 31.025C29.2788 30.94 29.0238 30.8325 28.7814 30.7075L27.1915 31.7124L25.6093 30.1301L26.6141 28.5403C26.4866 28.2954 26.3817 28.0404 26.2967 27.778L24.4619 27.3631V25.1259L26.2967 24.711C26.3817 24.446 26.4867 24.191 26.6141 23.9486L25.6093 22.3589L27.1915 20.7766L28.7814 21.7814C29.0238 21.6565 29.2788 21.549 29.5437 21.464L29.9586 19.6317H32.1934L32.4233 20.6416C29.8712 21.2289 27.9689 23.5137 27.9689 26.2433C27.9689 28.9729 29.8712 31.26 32.4233 31.8449Z" fill="#9494F7"/>
</g>
<g id="Group_13">
<path id="Vector_14" fill-rule="evenodd" clip-rule="evenodd" d="M31.0764 29.6277C32.9412 29.6277 34.4585 28.1079 34.4585 26.2432C34.4585 24.3809 32.9412 22.8611 31.0764 22.8611C29.2141 22.8611 27.6943 24.3809 27.6943 26.2432C27.6943 28.1079 29.2141 29.6277 31.0764 29.6277Z" fill="#FDFDFF"/>
</g>
<g id="Group_14">
<path id="Vector_15" fill-rule="evenodd" clip-rule="evenodd" d="M28.4667 26.2432C28.4667 24.5059 29.7766 23.0761 31.4638 22.8836C31.3364 22.8686 31.2088 22.8611 31.0764 22.8611C29.9291 22.8611 28.9167 23.4335 28.3042 24.3059C27.9193 24.8558 27.6943 25.5232 27.6943 26.2431C27.6943 26.9655 27.9193 27.6329 28.3042 28.1828C28.9166 29.0551 29.9291 29.6275 31.0764 29.6275C31.2088 29.6275 31.3364 29.6201 31.4638 29.605C29.7766 29.4127 28.4667 27.9805 28.4667 26.2432Z" fill="#FDFDFF"/>
</g>
</g>
</g>
</svg>
