<svg width="44" height="44" viewBox="0 0 44 44" fill="none" xmlns="http://www.w3.org/2000/svg">
<g clip-path="url(#clip0_296_5163)">
<path d="M37.1881 44H6.81189C3.05582 44 0 40.9442 0 37.1881V6.81189C0 3.05582 3.05582 0 6.81189 0H37.1881C40.9442 0 44 3.05582 44 6.81189V37.1881C44 40.9442 40.9442 44 37.1881 44Z" fill="#EFF6FE"/>
<path d="M37.1878 0H22V44H37.1878C40.9442 44 44 40.9442 44 37.1878V6.81223C44 3.05582 40.9442 0 37.1878 0Z" fill="#EFF6FE"/>
<path d="M37.1881 0H6.81189C3.05582 0 0 3.05582 0 6.81189V11.046H44V6.81189C44 3.05582 40.9442 0 37.1881 0Z" fill="#5258E3"/>
<path fill-rule="evenodd" clip-rule="evenodd" d="M6.81152 4.23376C7.52051 4.23376 8.10059 4.81149 8.10059 5.52283C8.10059 6.2345 7.52051 6.81189 6.81152 6.81189C6.10254 6.81189 5.52246 6.2345 5.52246 5.52283C5.52246 4.81149 6.10254 4.23376 6.81152 4.23376Z" fill="#602EDF"/>
<path fill-rule="evenodd" clip-rule="evenodd" d="M12.334 4.23376C13.043 4.23376 13.623 4.81149 13.623 5.52283C13.623 6.2345 13.043 6.81189 12.334 6.81189C11.625 6.81189 11.0449 6.2345 11.0449 5.52283C11.0449 4.81149 11.6253 4.23376 12.334 4.23376Z" fill="#FFE100"/>
<path fill-rule="evenodd" clip-rule="evenodd" d="M17.8574 4.23376C18.5664 4.23376 19.1465 4.81149 19.1465 5.52283C19.1465 6.2345 18.5664 6.81189 17.8574 6.81189C17.1484 6.81189 16.5684 6.2345 16.5684 5.52283C16.5684 4.81149 17.1484 4.23376 17.8574 4.23376Z" fill="#00E1C8"/>
<path d="M13.7155 31.5733C13.3856 31.5733 13.0556 31.4474 12.8038 31.196L7.28098 25.6728C6.77744 25.1696 6.77744 24.3536 7.28098 23.85L12.8038 18.3269C13.3073 17.8237 14.1234 17.8237 14.627 18.3269C15.1305 18.8304 15.1305 19.6465 14.627 20.15L10.0155 24.7614L14.627 29.3729C15.1302 29.8761 15.1302 30.6925 14.627 31.196C14.3752 31.4478 14.0452 31.5733 13.7155 31.5733Z" fill="#602EDF"/>
<path d="M30.2839 31.5733C29.9543 31.5733 29.6243 31.4474 29.3725 31.196C28.8693 30.6925 28.8693 29.8764 29.3725 29.3729L33.9839 24.7614L29.3725 20.15C28.8693 19.6465 28.8693 18.8304 29.3725 18.3269C29.8761 17.8237 30.6921 17.8237 31.1957 18.3269L36.7185 23.85C37.222 24.3532 37.222 25.1696 36.7185 25.6728L31.1957 31.196C30.9439 31.4478 30.6139 31.5733 30.2839 31.5733Z" fill="#602EDF"/>
<path d="M19.2376 31.5737C19.0439 31.5737 18.8472 31.53 18.6622 31.4374C18.0254 31.1191 17.7672 30.3447 18.0855 29.7079L23.6086 18.6619C23.9269 18.0254 24.7013 17.7673 25.3381 18.0855C25.975 18.4037 26.2328 19.1782 25.9145 19.815L20.3917 30.861C20.1658 31.3125 19.7102 31.5737 19.2376 31.5737Z" fill="#602EDF"/>
<path d="M25.9145 19.8146L22 27.6437V21.8798L23.6086 18.6622C23.9269 18.0254 24.701 17.7676 25.3378 18.0855C25.9746 18.4034 26.2324 19.1788 25.9145 19.8146Z" fill="#602EDF"/>
</g>
<defs>
<clipPath id="clip0_296_5163">
<rect width="44" height="44" fill="white"/>
</clipPath>
</defs>
</svg>
