<svg width="147" height="43" viewBox="0 0 147 43" fill="none" xmlns="http://www.w3.org/2000/svg">
<rect x="0.145508" y="2.65381" width="37.32" height="37.32" rx="18.66" fill="url(#paint0_linear_2775_32138)"/>
<path d="M21.0538 17.9308L13.3694 23.0211C12.3521 21.485 12.7709 19.4138 14.309 18.3945L21.9934 13.3042C23.0107 14.8403 22.5899 16.9115 21.0538 17.9308Z" fill="white"/>
<path d="M22.5456 14.9935C22.519 14.4113 22.3393 13.8271 21.9941 13.3042L14.3076 18.3945C13.2597 19.089 12.7307 20.2737 12.8246 21.4462L22.3352 15.1467C22.4067 15.0976 22.4782 15.0466 22.5456 14.9935Z" fill="white"/>
<path d="M23.0846 28.3936L15.4001 33.4859C14.3829 31.9498 14.8016 29.8786 16.3398 28.8593L24.0242 23.769C25.0435 25.3051 24.6227 27.3764 23.0846 28.3936Z" fill="white"/>
<path d="M14.8534 31.4045C14.8023 32.1153 14.976 32.8466 15.3988 33.4859L23.0832 28.3956C24.2496 27.6235 24.7725 26.2427 24.511 24.9497L15.2885 31.0613C15.1312 31.1634 14.9862 31.2799 14.8534 31.4045Z" fill="white"/>
<path d="M21.906 22.3309L12.8713 20.4966C12.5037 22.3023 13.6721 24.0651 15.4778 24.4328L24.5124 26.2671C24.8801 24.4593 23.7117 22.6986 21.906 22.3309Z" fill="white"/>
<path d="M12.8818 21.8833C13.1596 23.1314 14.1442 24.1609 15.476 24.4325L24.5106 26.2668C24.6516 25.5744 24.5658 24.888 24.3043 24.2834C24.0878 24.1874 23.857 24.1118 23.6139 24.0628L12.8818 21.8833Z" fill="white"/>
<circle cx="22.5376" cy="10.4434" r="1.62261" fill="white"/>
<path d="M58.4334 21.2498C57.3785 21.2498 56.4347 21.0694 55.6019 20.7085C54.7829 20.3476 54.1306 19.8202 53.6448 19.1262C53.1729 18.4322 52.923 17.5925 52.8953 16.607H55.8725C55.9003 17.0373 56.0113 17.4259 56.2056 17.7729C56.4138 18.1199 56.7053 18.3975 57.0801 18.6057C57.4548 18.8 57.899 18.8972 58.4126 18.8972C58.8567 18.8972 59.2384 18.8278 59.5577 18.689C59.8908 18.5363 60.1476 18.3281 60.328 18.0644C60.5084 17.8007 60.5987 17.4884 60.5987 17.1275C60.5987 16.6972 60.4946 16.3433 60.2864 16.0657C60.0782 15.7881 59.7936 15.5521 59.4327 15.3578C59.0719 15.1635 58.6555 14.99 58.1835 14.8373C57.7255 14.6707 57.2397 14.5042 56.7261 14.3376C55.6019 13.9628 54.7344 13.4632 54.1236 12.8386C53.5268 12.214 53.2284 11.3881 53.2284 10.361C53.2284 9.48654 53.4366 8.73702 53.853 8.11242C54.2833 7.48782 54.8732 7.00896 55.6227 6.67584C56.3722 6.34272 57.2258 6.17616 58.1835 6.17616C59.169 6.17616 60.0296 6.34966 60.7652 6.69666C61.5147 7.02978 62.1046 7.51558 62.5349 8.15406C62.9791 8.79254 63.2081 9.54206 63.222 10.4026H60.2031C60.2031 10.0834 60.1129 9.78496 59.9324 9.50736C59.7659 9.21588 59.5299 8.98686 59.2245 8.8203C58.9192 8.63986 58.5583 8.54964 58.1419 8.54964C57.781 8.53576 57.4479 8.59128 57.1425 8.7162C56.8511 8.84112 56.6151 9.0285 56.4347 9.27834C56.2681 9.5143 56.1848 9.81272 56.1848 10.1736C56.1848 10.5206 56.2681 10.8121 56.4347 11.048C56.6151 11.284 56.858 11.4922 57.1634 11.6726C57.4687 11.8392 57.8227 11.9988 58.2252 12.1515C58.6416 12.2903 59.0927 12.436 59.5785 12.5887C60.3141 12.8386 60.9804 13.137 61.5772 13.484C62.1879 13.8171 62.6737 14.2543 63.0346 14.7956C63.3955 15.337 63.5759 16.0518 63.5759 16.9401C63.5759 17.7035 63.3747 18.4114 62.9721 19.0637C62.5835 19.7161 62.0075 20.2435 61.2441 20.6461C60.4807 21.0486 59.5438 21.2498 58.4334 21.2498ZM65.9408 21V10.6316H68.7515V21H65.9408ZM67.3565 9.15342C66.843 9.15342 66.4196 9.00074 66.0865 8.69538C65.7673 8.39002 65.6077 8.00832 65.6077 7.55028C65.6077 7.09224 65.7673 6.71748 66.0865 6.426C66.4196 6.12064 66.843 5.96796 67.3565 5.96796C67.8701 5.96796 68.2865 6.12064 68.6057 6.426C68.925 6.71748 69.0846 7.09224 69.0846 7.55028C69.0846 8.00832 68.925 8.39002 68.6057 8.69538C68.2865 9.00074 67.8701 9.15342 67.3565 9.15342ZM71.5301 21V10.6316H74.0077L74.2367 12.0058C74.5699 11.5061 75.0071 11.1105 75.5484 10.819C76.1036 10.5275 76.7421 10.3818 77.4638 10.3818C77.9913 10.3818 78.4632 10.4512 78.8796 10.59C79.3099 10.7149 79.6846 10.9162 80.0039 11.1938C80.337 11.4575 80.6077 11.7837 80.8159 12.1723C81.2184 11.6171 81.7319 11.1799 82.3565 10.8607C82.9811 10.5414 83.6682 10.3818 84.4177 10.3818C85.3199 10.3818 86.0764 10.5622 86.6871 10.9231C87.3117 11.284 87.7836 11.8184 88.1029 12.5263C88.4221 13.2341 88.5817 14.1016 88.5817 15.1288V21H85.7918V15.3786C85.7918 14.5319 85.6253 13.8796 85.2922 13.4215C84.9729 12.9635 84.4663 12.7345 83.7723 12.7345C83.3143 12.7345 82.9117 12.8524 82.5647 13.0884C82.2177 13.3105 81.9471 13.6367 81.7528 14.0669C81.5584 14.4833 81.4613 14.99 81.4613 15.5868V21H78.6714V15.3786C78.6714 14.5319 78.5048 13.8796 78.1717 13.4215C77.8386 12.9635 77.3181 12.7345 76.6102 12.7345C76.1661 12.7345 75.7705 12.8524 75.4235 13.0884C75.0904 13.3105 74.8266 13.6367 74.6323 14.0669C74.438 14.4833 74.3408 14.99 74.3408 15.5868V21H71.5301ZM91.1505 25.5804V10.6316H93.6489L93.9612 12.0682C94.1833 11.7629 94.447 11.4853 94.7524 11.2354C95.0578 10.9717 95.4256 10.7635 95.8559 10.6108C96.2861 10.4581 96.7858 10.3818 97.3549 10.3818C98.3265 10.3818 99.1871 10.6178 99.9366 11.0897C100.7 11.5616 101.304 12.207 101.748 13.0259C102.192 13.8449 102.414 14.7818 102.414 15.8366C102.414 16.8776 102.192 17.8076 101.748 18.6265C101.304 19.4454 100.7 20.0909 99.9366 20.5628C99.1871 21.0208 98.3265 21.2498 97.3549 21.2498C96.5915 21.2498 95.9253 21.111 95.3562 20.8334C94.7871 20.542 94.3221 20.1464 93.9612 19.6467V25.5804H91.1505ZM96.7303 18.7931C97.2716 18.7931 97.7574 18.6682 98.1877 18.4183C98.618 18.1685 98.9511 17.8215 99.1871 17.3773C99.4369 16.9193 99.5618 16.3988 99.5618 15.8158C99.5618 15.2329 99.4369 14.7193 99.1871 14.2751C98.9511 13.8171 98.618 13.4632 98.1877 13.2133C97.7574 12.9496 97.2716 12.8177 96.7303 12.8177C96.1751 12.8177 95.6824 12.9496 95.2521 13.2133C94.8218 13.4632 94.4817 13.8171 94.2319 14.2751C93.9959 14.7193 93.878 15.2329 93.878 15.8158C93.878 16.3988 93.9959 16.9193 94.2319 17.3773C94.4817 17.8215 94.8218 18.1685 95.2521 18.4183C95.6824 18.6682 96.1751 18.7931 96.7303 18.7931ZM104.793 21V6.0096H107.604V21H104.793ZM109.408 21L114.738 6.426H117.923L123.233 21H120.255L116.299 9.63228L112.344 21H109.408ZM111.761 17.6896L112.489 15.5035H119.922L120.651 17.6896H111.761ZM125.107 21V6.426H127.917V21H125.107Z" fill="#171717"/>
<path d="M53.1617 39V32H54.2317L57.2917 37.11H56.7317L59.7417 32H60.8117L60.8217 39H59.5917L59.5817 33.93H59.8417L57.2817 38.2H56.7017L54.1017 33.93H54.4017V39H53.1617ZM65.8825 39V37.92L65.8125 37.69V35.8C65.8125 35.4333 65.7025 35.15 65.4825 34.95C65.2625 34.7433 64.9291 34.64 64.4825 34.64C64.1825 34.64 63.8858 34.6867 63.5925 34.78C63.3058 34.8733 63.0625 35.0033 62.8625 35.17L62.3725 34.26C62.6591 34.04 62.9991 33.8767 63.3925 33.77C63.7925 33.6567 64.2058 33.6 64.6325 33.6C65.4058 33.6 66.0025 33.7867 66.4225 34.16C66.8491 34.5267 67.0625 35.0967 67.0625 35.87V39H65.8825ZM64.2025 39.07C63.8025 39.07 63.4525 39.0033 63.1525 38.87C62.8525 38.73 62.6191 38.54 62.4525 38.3C62.2925 38.0533 62.2125 37.7767 62.2125 37.47C62.2125 37.17 62.2825 36.9 62.4225 36.66C62.5691 36.42 62.8058 36.23 63.1325 36.09C63.4591 35.95 63.8925 35.88 64.4325 35.88H65.9825V36.71H64.5225C64.0958 36.71 63.8091 36.78 63.6625 36.92C63.5158 37.0533 63.4425 37.22 63.4425 37.42C63.4425 37.6467 63.5325 37.8267 63.7125 37.96C63.8925 38.0933 64.1425 38.16 64.4625 38.16C64.7691 38.16 65.0425 38.09 65.2825 37.95C65.5291 37.81 65.7058 37.6033 65.8125 37.33L66.0225 38.08C65.9025 38.3933 65.6858 38.6367 65.3725 38.81C65.0658 38.9833 64.6758 39.07 64.2025 39.07ZM69.6867 37.81L69.7167 36.24L72.5067 33.66H74.0067L71.6367 36.04L70.9767 36.59L69.6867 37.81ZM68.6667 39V31.58H69.9167V39H68.6667ZM72.6967 39L70.7467 36.59L71.5367 35.59L74.2167 39H72.6967ZM75.0241 39V33.66H76.2741V39H75.0241ZM75.6541 32.78C75.4208 32.78 75.2274 32.7067 75.0741 32.56C74.9274 32.4133 74.8541 32.2367 74.8541 32.03C74.8541 31.8167 74.9274 31.64 75.0741 31.5C75.2274 31.3533 75.4208 31.28 75.6541 31.28C75.8874 31.28 76.0774 31.35 76.2241 31.49C76.3774 31.6233 76.4541 31.7933 76.4541 32C76.4541 32.22 76.3808 32.4067 76.2341 32.56C76.0874 32.7067 75.8941 32.78 75.6541 32.78ZM80.9447 33.6C81.3714 33.6 81.7514 33.6833 82.0847 33.85C82.4247 34.0167 82.6914 34.2733 82.8847 34.62C83.0781 34.96 83.1747 35.4 83.1747 35.94V39H81.9247V36.1C81.9247 35.6267 81.8114 35.2733 81.5847 35.04C81.3647 34.8067 81.0547 34.69 80.6547 34.69C80.3614 34.69 80.1014 34.75 79.8747 34.87C79.6481 34.99 79.4714 35.17 79.3447 35.41C79.2247 35.6433 79.1647 35.94 79.1647 36.3V39H77.9147V33.66H79.1047V35.1L78.8947 34.66C79.0814 34.32 79.3514 34.06 79.7047 33.88C80.0647 33.6933 80.4781 33.6 80.9447 33.6ZM87.1902 41.01C86.6969 41.01 86.2135 40.9433 85.7402 40.81C85.2735 40.6833 84.8902 40.4967 84.5902 40.25L85.1502 39.31C85.3835 39.5033 85.6769 39.6567 86.0302 39.77C86.3902 39.89 86.7535 39.95 87.1202 39.95C87.7069 39.95 88.1369 39.8133 88.4102 39.54C88.6835 39.2733 88.8202 38.87 88.8202 38.33V37.38L88.9202 36.17L88.8802 34.96V33.66H90.0702V38.19C90.0702 39.1567 89.8235 39.8667 89.3302 40.32C88.8369 40.78 88.1235 41.01 87.1902 41.01ZM87.0302 38.76C86.5235 38.76 86.0635 38.6533 85.6502 38.44C85.2435 38.22 84.9202 37.9167 84.6802 37.53C84.4469 37.1433 84.3302 36.69 84.3302 36.17C84.3302 35.6567 84.4469 35.2067 84.6802 34.82C84.9202 34.4333 85.2435 34.1333 85.6502 33.92C86.0635 33.7067 86.5235 33.6 87.0302 33.6C87.4835 33.6 87.8902 33.69 88.2502 33.87C88.6102 34.05 88.8969 34.33 89.1102 34.71C89.3302 35.09 89.4402 35.5767 89.4402 36.17C89.4402 36.7633 89.3302 37.2533 89.1102 37.64C88.8969 38.02 88.6102 38.3033 88.2502 38.49C87.8902 38.67 87.4835 38.76 87.0302 38.76ZM87.2202 37.7C87.5335 37.7 87.8135 37.6367 88.0602 37.51C88.3069 37.3767 88.4969 37.1967 88.6302 36.97C88.7702 36.7367 88.8402 36.47 88.8402 36.17C88.8402 35.87 88.7702 35.6067 88.6302 35.38C88.4969 35.1467 88.3069 34.97 88.0602 34.85C87.8135 34.7233 87.5335 34.66 87.2202 34.66C86.9069 34.66 86.6235 34.7233 86.3702 34.85C86.1235 34.97 85.9302 35.1467 85.7902 35.38C85.6569 35.6067 85.5902 35.87 85.5902 36.17C85.5902 36.47 85.6569 36.7367 85.7902 36.97C85.9302 37.1967 86.1235 37.3767 86.3702 37.51C86.6235 37.6367 86.9069 37.7 87.2202 37.7ZM93.6072 39L96.7572 32H98.0372L101.197 39H99.8372L97.1272 32.69H97.6472L94.9472 39H93.6072ZM95.0572 37.38L95.4072 36.36H99.1872L99.5372 37.38H95.0572ZM102.087 39V32H103.387V39H102.087ZM110.214 39.1C109.668 39.1 109.144 39.0233 108.644 38.87C108.144 38.71 107.748 38.5067 107.454 38.26L107.904 37.25C108.184 37.47 108.531 37.6533 108.944 37.8C109.358 37.9467 109.781 38.02 110.214 38.02C110.581 38.02 110.878 37.98 111.104 37.9C111.331 37.82 111.498 37.7133 111.604 37.58C111.711 37.44 111.764 37.2833 111.764 37.11C111.764 36.8967 111.688 36.7267 111.534 36.6C111.381 36.4667 111.181 36.3633 110.934 36.29C110.694 36.21 110.424 36.1367 110.124 36.07C109.831 36.0033 109.534 35.9267 109.234 35.84C108.941 35.7467 108.671 35.63 108.424 35.49C108.184 35.3433 107.988 35.15 107.834 34.91C107.681 34.67 107.604 34.3633 107.604 33.99C107.604 33.61 107.704 33.2633 107.904 32.95C108.111 32.63 108.421 32.3767 108.834 32.19C109.254 31.9967 109.784 31.9 110.424 31.9C110.844 31.9 111.261 31.9533 111.674 32.06C112.088 32.1667 112.448 32.32 112.754 32.52L112.344 33.53C112.031 33.3433 111.708 33.2067 111.374 33.12C111.041 33.0267 110.721 32.98 110.414 32.98C110.054 32.98 109.761 33.0233 109.534 33.11C109.314 33.1967 109.151 33.31 109.044 33.45C108.944 33.59 108.894 33.75 108.894 33.93C108.894 34.1433 108.968 34.3167 109.114 34.45C109.268 34.5767 109.464 34.6767 109.704 34.75C109.951 34.8233 110.224 34.8967 110.524 34.97C110.824 35.0367 111.121 35.1133 111.414 35.2C111.714 35.2867 111.984 35.4 112.224 35.54C112.471 35.68 112.668 35.87 112.814 36.11C112.968 36.35 113.044 36.6533 113.044 37.02C113.044 37.3933 112.941 37.74 112.734 38.06C112.534 38.3733 112.224 38.6267 111.804 38.82C111.384 39.0067 110.854 39.1 110.214 39.1ZM114.214 39V33.66H115.464V39H114.214ZM114.844 32.78C114.61 32.78 114.417 32.7067 114.264 32.56C114.117 32.4133 114.044 32.2367 114.044 32.03C114.044 31.8167 114.117 31.64 114.264 31.5C114.417 31.3533 114.61 31.28 114.844 31.28C115.077 31.28 115.267 31.35 115.414 31.49C115.567 31.6233 115.644 31.7933 115.644 32C115.644 32.22 115.57 32.4067 115.424 32.56C115.277 32.7067 115.084 32.78 114.844 32.78ZM123.844 33.6C124.271 33.6 124.648 33.6833 124.974 33.85C125.308 34.0167 125.568 34.2733 125.754 34.62C125.941 34.96 126.034 35.4 126.034 35.94V39H124.784V36.1C124.784 35.6267 124.681 35.2733 124.474 35.04C124.268 34.8067 123.971 34.69 123.584 34.69C123.311 34.69 123.068 34.75 122.854 34.87C122.648 34.99 122.484 35.1667 122.364 35.4C122.251 35.6333 122.194 35.93 122.194 36.29V39H120.944V36.1C120.944 35.6267 120.841 35.2733 120.634 35.04C120.428 34.8067 120.131 34.69 119.744 34.69C119.471 34.69 119.228 34.75 119.014 34.87C118.808 34.99 118.644 35.1667 118.524 35.4C118.411 35.6333 118.354 35.93 118.354 36.29V39H117.104V33.66H118.294V35.08L118.084 34.66C118.264 34.3133 118.524 34.05 118.864 33.87C119.211 33.69 119.604 33.6 120.044 33.6C120.544 33.6 120.978 33.7233 121.344 33.97C121.718 34.2167 121.964 34.59 122.084 35.09L121.594 34.92C121.768 34.52 122.054 34.2 122.454 33.96C122.854 33.72 123.318 33.6 123.844 33.6ZM130.592 39.07C130.158 39.07 129.762 38.97 129.402 38.77C129.048 38.57 128.765 38.27 128.552 37.87C128.345 37.4633 128.242 36.95 128.242 36.33C128.242 35.7033 128.342 35.19 128.542 34.79C128.748 34.39 129.028 34.0933 129.382 33.9C129.735 33.7 130.138 33.6 130.592 33.6C131.118 33.6 131.582 33.7133 131.982 33.94C132.388 34.1667 132.708 34.4833 132.942 34.89C133.182 35.2967 133.302 35.7767 133.302 36.33C133.302 36.8833 133.182 37.3667 132.942 37.78C132.708 38.1867 132.388 38.5033 131.982 38.73C131.582 38.9567 131.118 39.07 130.592 39.07ZM127.632 40.94V33.66H128.822V34.92L128.782 36.34L128.882 37.76V40.94H127.632ZM130.452 38C130.752 38 131.018 37.9333 131.252 37.8C131.492 37.6667 131.682 37.4733 131.822 37.22C131.962 36.9667 132.032 36.67 132.032 36.33C132.032 35.9833 131.962 35.6867 131.822 35.44C131.682 35.1867 131.492 34.9933 131.252 34.86C131.018 34.7267 130.752 34.66 130.452 34.66C130.152 34.66 129.882 34.7267 129.642 34.86C129.402 34.9933 129.212 35.1867 129.072 35.44C128.932 35.6867 128.862 35.9833 128.862 36.33C128.862 36.67 128.932 36.9667 129.072 37.22C129.212 37.4733 129.402 37.6667 129.642 37.8C129.882 37.9333 130.152 38 130.452 38ZM134.487 39V31.58H135.737V39H134.487ZM139.888 39.07C139.294 39.07 138.774 38.9533 138.328 38.72C137.888 38.48 137.544 38.1533 137.298 37.74C137.058 37.3267 136.938 36.8567 136.938 36.33C136.938 35.7967 137.054 35.3267 137.288 34.92C137.528 34.5067 137.854 34.1833 138.268 33.95C138.688 33.7167 139.164 33.6 139.698 33.6C140.218 33.6 140.681 33.7133 141.088 33.94C141.494 34.1667 141.814 34.4867 142.048 34.9C142.281 35.3133 142.398 35.8 142.398 36.36C142.398 36.4133 142.394 36.4733 142.388 36.54C142.388 36.6067 142.384 36.67 142.378 36.73H137.928V35.9H141.718L141.228 36.16C141.234 35.8533 141.171 35.5833 141.038 35.35C140.904 35.1167 140.721 34.9333 140.488 34.8C140.261 34.6667 139.998 34.6 139.698 34.6C139.391 34.6 139.121 34.6667 138.888 34.8C138.661 34.9333 138.481 35.12 138.348 35.36C138.221 35.5933 138.158 35.87 138.158 36.19V36.39C138.158 36.71 138.231 36.9933 138.378 37.24C138.524 37.4867 138.731 37.6767 138.998 37.81C139.264 37.9433 139.571 38.01 139.918 38.01C140.218 38.01 140.488 37.9633 140.728 37.87C140.968 37.7767 141.181 37.63 141.368 37.43L142.038 38.2C141.798 38.48 141.494 38.6967 141.128 38.85C140.768 38.9967 140.354 39.07 139.888 39.07Z" fill="#602EDF"/>
<defs>
<linearGradient id="paint0_linear_2775_32138" x1="-1.3123" y1="22.7716" x2="41.5474" y2="23.0632" gradientUnits="userSpaceOnUse">
<stop stop-color="#C266E7"/>
<stop offset="1" stop-color="#602EDF"/>
</linearGradient>
</defs>
</svg>
