<svg width="122" height="31" viewBox="0 0 122 31" fill="none" xmlns="http://www.w3.org/2000/svg">
<path d="M50.3943 23.2498C49.3394 23.2498 48.3956 23.0694 47.5628 22.7085C46.7439 22.3476 46.0915 21.8202 45.6057 21.1262C45.1338 20.4322 44.884 19.5925 44.8562 18.607H47.8335C47.8612 19.0373 47.9723 19.4259 48.1666 19.7729C48.3748 20.1199 48.6663 20.3975 49.041 20.6057C49.4158 20.8 49.8599 20.8972 50.3735 20.8972C50.8177 20.8972 51.1994 20.8278 51.5186 20.689C51.8517 20.5363 52.1085 20.3281 52.2889 20.0644C52.4694 19.8007 52.5596 19.4884 52.5596 19.1275C52.5596 18.6972 52.4555 18.3433 52.2473 18.0657C52.0391 17.7881 51.7546 17.5521 51.3937 17.3578C51.0328 17.1635 50.6164 16.99 50.1445 16.8373C49.6864 16.6707 49.2006 16.5042 48.6871 16.3376C47.5628 15.9628 46.6953 15.4632 46.0846 14.8386C45.4877 14.214 45.1893 13.3881 45.1893 12.361C45.1893 11.4865 45.3975 10.737 45.8139 10.1124C46.2442 9.48782 46.8341 9.00896 47.5836 8.67584C48.3331 8.34272 49.1868 8.17616 50.1445 8.17616C51.13 8.17616 51.9905 8.34966 52.7262 8.69666C53.4757 9.02978 54.0656 9.51558 54.4959 10.1541C54.94 10.7925 55.169 11.5421 55.1829 12.4026H52.164C52.164 12.0834 52.0738 11.785 51.8934 11.5074C51.7268 11.2159 51.4908 10.9869 51.1855 10.8203C50.8801 10.6399 50.5192 10.5496 50.1028 10.5496C49.742 10.5358 49.4088 10.5913 49.1035 10.7162C48.812 10.8411 48.576 11.0285 48.3956 11.2783C48.229 11.5143 48.1458 11.8127 48.1458 12.1736C48.1458 12.5206 48.229 12.8121 48.3956 13.048C48.576 13.284 48.8189 13.4922 49.1243 13.6726C49.4297 13.8392 49.7836 13.9988 50.1861 14.1515C50.6025 14.2903 51.0536 14.436 51.5394 14.5887C52.2751 14.8386 52.9413 15.137 53.5381 15.484C54.1489 15.8171 54.6347 16.2543 54.9955 16.7956C55.3564 17.337 55.5369 18.0518 55.5369 18.9401C55.5369 19.7035 55.3356 20.4114 54.9331 21.0637C54.5444 21.7161 53.9684 22.2435 53.205 22.6461C52.4416 23.0486 51.5047 23.2498 50.3943 23.2498ZM57.9017 23V12.6316H60.7124V23H57.9017ZM59.3175 11.1534C58.8039 11.1534 58.3806 11.0007 58.0475 10.6954C57.7282 10.39 57.5686 10.0083 57.5686 9.55028C57.5686 9.09224 57.7282 8.71748 58.0475 8.426C58.3806 8.12064 58.8039 7.96796 59.3175 7.96796C59.831 7.96796 60.2474 8.12064 60.5667 8.426C60.8859 8.71748 61.0455 9.09224 61.0455 9.55028C61.0455 10.0083 60.8859 10.39 60.5667 10.6954C60.2474 11.0007 59.831 11.1534 59.3175 11.1534ZM63.4911 23V12.6316H65.9687L66.1977 14.0058C66.5308 13.5061 66.968 13.1105 67.5093 12.819C68.0645 12.5275 68.703 12.3818 69.4248 12.3818C69.9522 12.3818 70.4241 12.4512 70.8405 12.59C71.2708 12.7149 71.6456 12.9162 71.9648 13.1938C72.2979 13.4575 72.5686 13.7837 72.7768 14.1723C73.1793 13.6171 73.6929 13.1799 74.3175 12.8607C74.9421 12.5414 75.6291 12.3818 76.3787 12.3818C77.2809 12.3818 78.0373 12.5622 78.648 12.9231C79.2726 13.284 79.7446 13.8184 80.0638 14.5263C80.383 15.2341 80.5427 16.1016 80.5427 17.1288V23H77.7528V17.3786C77.7528 16.5319 77.5862 15.8796 77.2531 15.4215C76.9339 14.9635 76.4272 14.7345 75.7332 14.7345C75.2752 14.7345 74.8727 14.8524 74.5257 15.0884C74.1787 15.3105 73.908 15.6367 73.7137 16.0669C73.5194 16.4833 73.4222 16.99 73.4222 17.5868V23H70.6323V17.3786C70.6323 16.5319 70.4658 15.8796 70.1327 15.4215C69.7995 14.9635 69.279 14.7345 68.5712 14.7345C68.127 14.7345 67.7314 14.8524 67.3844 15.0884C67.0513 15.3105 66.7876 15.6367 66.5933 16.0669C66.3989 16.4833 66.3018 16.99 66.3018 17.5868V23H63.4911ZM83.1115 27.5804V12.6316H85.6099L85.9222 14.0682C86.1443 13.7629 86.408 13.4853 86.7133 13.2354C87.0187 12.9717 87.3865 12.7635 87.8168 12.6108C88.2471 12.4581 88.7468 12.3818 89.3158 12.3818C90.2874 12.3818 91.148 12.6178 91.8975 13.0897C92.6609 13.5616 93.2647 14.207 93.7089 15.0259C94.153 15.8449 94.3751 16.7818 94.3751 17.8366C94.3751 18.8776 94.153 19.8076 93.7089 20.6265C93.2647 21.4454 92.6609 22.0909 91.8975 22.5628C91.148 23.0208 90.2874 23.2498 89.3158 23.2498C88.5524 23.2498 87.8862 23.111 87.3171 22.8334C86.748 22.542 86.2831 22.1464 85.9222 21.6467V27.5804H83.1115ZM88.6912 20.7931C89.2326 20.7931 89.7184 20.6682 90.1486 20.4183C90.5789 20.1685 90.912 19.8215 91.148 19.3773C91.3978 18.9193 91.5228 18.3988 91.5228 17.8158C91.5228 17.2329 91.3978 16.7193 91.148 16.2751C90.912 15.8171 90.5789 15.4632 90.1486 15.2133C89.7184 14.9496 89.2326 14.8177 88.6912 14.8177C88.136 14.8177 87.6433 14.9496 87.213 15.2133C86.7827 15.4632 86.4427 15.8171 86.1928 16.2751C85.9569 16.7193 85.8389 17.2329 85.8389 17.8158C85.8389 18.3988 85.9569 18.9193 86.1928 19.3773C86.4427 19.8215 86.7827 20.1685 87.213 20.4183C87.6433 20.6682 88.136 20.7931 88.6912 20.7931ZM96.7543 23V8.0096H99.565V23H96.7543ZM101.369 23L106.699 8.426H109.884L115.193 23H112.216L108.26 11.6323L104.305 23H101.369ZM103.722 19.6896L104.45 17.5035H111.883L112.612 19.6896H103.722ZM117.067 23V8.426H119.878V23H117.067Z" fill="#171717"/>
<rect x="0.645508" y="0.15332" width="30.3209" height="30.3209" rx="15.1604" fill="url(#paint0_linear_25_2062)"/>
<path d="M17.633 12.5636L11.3897 16.6992C10.5633 15.4512 10.9035 13.7684 12.1531 12.9403L18.3964 8.80469C19.2229 10.0527 18.881 11.7355 17.633 12.5636Z" fill="white"/>
<path d="M18.845 10.1771C18.8234 9.70417 18.6774 9.22954 18.3969 8.80469L12.152 12.9403C11.3006 13.5046 10.8708 14.4671 10.9471 15.4197L18.6741 10.3016C18.7321 10.2618 18.7902 10.2203 18.845 10.1771Z" fill="white"/>
<path d="M19.2824 21.0644L13.0391 25.2017C12.2127 23.9537 12.5529 22.2709 13.8025 21.4428L20.0458 17.3071C20.8739 18.5551 20.5321 20.2379 19.2824 21.0644Z" fill="white"/>
<path d="M12.5949 23.5103C12.5534 24.0879 12.6945 24.682 13.038 25.2014L19.2813 21.0658C20.2289 20.4385 20.6538 19.3166 20.4413 18.2661L12.9484 23.2315C12.8206 23.3145 12.7028 23.4091 12.5949 23.5103Z" fill="white"/>
<path d="M18.3249 16.1382L10.9846 14.6479C10.6859 16.115 11.6352 17.5472 13.1022 17.8459L20.4425 19.3362C20.7412 17.8675 19.7919 16.437 18.3249 16.1382Z" fill="white"/>
<path d="M10.9932 15.7749C11.2189 16.7889 12.0188 17.6253 13.1008 17.846L20.441 19.3363C20.5556 18.7737 20.4859 18.2161 20.2734 17.7249C20.0975 17.6469 19.91 17.5855 19.7125 17.5457L10.9932 15.7749Z" fill="white"/>
<circle cx="18.8378" cy="6.48139" r="1.3183" fill="white"/>
<defs>
<linearGradient id="paint0_linear_25_2062" x1="-0.538902" y1="16.4982" x2="34.2827" y2="16.7351" gradientUnits="userSpaceOnUse">
<stop stop-color="#C266E7"/>
<stop offset="1" stop-color="#602EDF"/>
</linearGradient>
</defs>
</svg>
