<svg width="32" height="32" viewBox="0 0 32 32" fill="none" xmlns="http://www.w3.org/2000/svg">
<path d="M25.5846 4.7108V7.04842C25.5846 7.33142 25.4722 7.60286 25.2721 7.80298L23.9155 9.15955C23.7154 9.35967 23.4439 9.47211 23.1609 9.47211H3.50181C3.21881 9.47211 2.94737 9.35967 2.74725 9.15955L1.39069 7.80298C1.19056 7.60286 1.07812 7.33142 1.07812 7.04842V4.7108C1.07812 4.4278 1.19056 4.15636 1.39069 3.95623L2.74725 2.59967C2.94737 2.39955 3.21881 2.28711 3.50181 2.28711H23.1609C23.4439 2.28711 23.7153 2.39955 23.9154 2.59967L25.272 3.95623C25.4722 4.15636 25.5846 4.42773 25.5846 4.7108Z" fill="#BAD0E6"/>
<path d="M25.5846 13.826V16.1637C25.5846 16.4467 25.4722 16.7181 25.2721 16.9182L23.9155 18.2748C23.7154 18.4749 23.4439 18.5873 23.1609 18.5873H3.50181C3.21881 18.5873 2.94737 18.4749 2.74725 18.2748L1.39069 16.9182C1.19056 16.7181 1.07812 16.4467 1.07812 16.1637V13.826C1.07812 13.543 1.19056 13.2716 1.39069 13.0715L2.74725 11.7149C2.94737 11.5148 3.21881 11.4023 3.50181 11.4023H23.1609C23.4439 11.4023 23.7153 11.5148 23.9154 11.7149L25.272 13.0715C25.4722 13.2716 25.5846 13.543 25.5846 13.826Z" fill="white"/>
<path d="M5.65528 5.13252V6.62634C5.65528 6.86834 5.45909 7.06452 5.21709 7.06452H3.72334C3.48134 7.06452 3.28516 6.86834 3.28516 6.62634V5.13252C3.28516 4.89052 3.48134 4.69434 3.72334 4.69434H5.21709C5.45916 4.69434 5.65528 4.89052 5.65528 5.13252Z" fill="white"/>
<path d="M15.7032 6.89563C16.2641 6.89563 16.7189 6.44089 16.7189 5.87995C16.7189 5.319 16.2641 4.86426 15.7032 4.86426C15.1422 4.86426 14.6875 5.319 14.6875 5.87995C14.6875 6.44089 15.1422 6.89563 15.7032 6.89563Z" fill="white"/>
<path d="M19.0352 6.89563C19.5962 6.89563 20.0509 6.44089 20.0509 5.87995C20.0509 5.319 19.5962 4.86426 19.0352 4.86426C18.4743 4.86426 18.0195 5.319 18.0195 5.87995C18.0195 6.44089 18.4743 6.89563 19.0352 6.89563Z" fill="white"/>
<path d="M22.3633 6.89563C22.9243 6.89563 23.379 6.44089 23.379 5.87995C23.379 5.319 22.9243 4.86426 22.3633 4.86426C21.8024 4.86426 21.3477 5.319 21.3477 5.87995C21.3477 6.44089 21.8024 6.89563 22.3633 6.89563Z" fill="white"/>
<path d="M5.65528 14.2478V15.7416C5.65528 15.9836 5.45909 16.1798 5.21709 16.1798H3.72334C3.48134 16.1798 3.28516 15.9836 3.28516 15.7416V14.2478C3.28516 14.0058 3.48134 13.8096 3.72334 13.8096H5.21709C5.45916 13.8096 5.65528 14.0058 5.65528 14.2478Z" fill="#392B9E"/>
<path d="M15.7032 16.0099C16.2641 16.0099 16.7189 15.5552 16.7189 14.9942C16.7189 14.4333 16.2641 13.9785 15.7032 13.9785C15.1422 13.9785 14.6875 14.4333 14.6875 14.9942C14.6875 15.5552 15.1422 16.0099 15.7032 16.0099Z" fill="#392B9E"/>
<path d="M19.0352 16.0099C19.5962 16.0099 20.0509 15.5552 20.0509 14.9942C20.0509 14.4333 19.5962 13.9785 19.0352 13.9785C18.4743 13.9785 18.0195 14.4333 18.0195 14.9942C18.0195 15.5552 18.4743 16.0099 19.0352 16.0099Z" fill="#392B9E"/>
<path d="M22.3633 16.0099C22.9243 16.0099 23.379 15.5552 23.379 14.9942C23.379 14.4333 22.9243 13.9785 22.3633 13.9785C21.8024 13.9785 21.3477 14.4333 21.3477 14.9942C21.3477 15.5552 21.8024 16.0099 22.3633 16.0099Z" fill="#392B9E"/>
<path d="M25.5846 22.9413V25.2789C25.5846 25.5619 25.4722 25.8333 25.2721 26.0335L23.9155 27.39C23.7154 27.5901 23.4439 27.7026 23.1609 27.7026H3.50181C3.21881 27.7026 2.94737 27.5901 2.74725 27.39L1.39069 26.0335C1.19056 25.8333 1.07812 25.5619 1.07812 25.2789V22.9413C1.07812 22.6583 1.19056 22.3868 1.39069 22.1867L2.74725 20.8301C2.94737 20.63 3.21881 20.5176 3.50181 20.5176H23.1609C23.4439 20.5176 23.7153 20.63 23.9154 20.8301L25.272 22.1867C25.4722 22.3868 25.5846 22.6582 25.5846 22.9413Z" fill="#BAD0E6"/>
<path d="M5.65528 23.363V24.8568C5.65528 25.0988 5.45909 25.295 5.21709 25.295H3.72334C3.48134 25.295 3.28516 25.0988 3.28516 24.8568V23.363C3.28516 23.121 3.48134 22.9248 3.72334 22.9248H5.21709C5.45916 22.9248 5.65528 23.121 5.65528 23.363Z" fill="white"/>
<path d="M16.1368 25.1251C16.6977 25.1251 17.1525 24.6704 17.1525 24.1094C17.1525 23.5485 16.6977 23.0938 16.1368 23.0938C15.5758 23.0938 15.1211 23.5485 15.1211 24.1094C15.1211 24.6704 15.5758 25.1251 16.1368 25.1251Z" fill="white"/>
<path d="M31.0936 24.5607C30.9274 25.4454 30.5791 26.2663 30.0899 26.9828C29.6167 26.5893 28.9127 26.6146 28.4694 27.0579C28.0254 27.5019 27.9995 28.2059 28.3937 28.6798C27.6771 29.169 26.8562 29.5173 25.9715 29.6835C25.915 29.07 25.3992 28.5901 24.7711 28.5901C24.1436 28.5901 23.6278 29.07 23.5713 29.6835C22.6867 29.5167 21.8664 29.169 21.1498 28.6791C21.5433 28.2059 21.5181 27.5026 21.0734 27.0579C20.63 26.6146 19.9262 26.5893 19.4529 26.9828C18.9637 26.2663 18.6154 25.4454 18.4492 24.5607C19.0621 24.5042 19.542 23.9884 19.542 23.3603C19.542 22.7334 19.062 22.217 18.4492 22.1605C18.616 21.2758 18.9643 20.4556 19.4536 19.739C19.9268 20.1325 20.6308 20.1066 21.0741 19.6632C21.5175 19.2199 21.5433 18.516 21.1505 18.0427C21.8664 17.5536 22.6867 17.2059 23.5713 17.0391C23.6278 17.6519 24.1437 18.1318 24.7711 18.1318C25.3992 18.1318 25.915 17.6519 25.9715 17.0391C26.8562 17.2052 27.6765 17.5536 28.393 18.0427C27.9995 18.516 28.0255 19.2199 28.4688 19.6632C28.9122 20.1066 29.616 20.1325 30.0893 19.739C30.5785 20.4556 30.9268 21.2757 31.0937 22.1605C30.4808 22.2177 30.0009 22.7334 30.0009 23.3603C30.0008 23.9884 30.4808 24.5036 31.0936 24.5607Z" fill="#392B9E"/>
<path d="M24.7733 26.6033C26.5639 26.6033 28.0154 25.1517 28.0154 23.3612C28.0154 21.5707 26.5639 20.1191 24.7733 20.1191C22.9828 20.1191 21.5312 21.5707 21.5312 23.3612C21.5312 25.1517 22.9828 26.6033 24.7733 26.6033Z" fill="white"/>
<path d="M2.53434 9.37212C2.79259 9.63037 3.13584 9.77268 3.50122 9.77268H4.02766V11.101H3.50103C3.13972 11.101 2.78728 11.2486 2.53528 11.5042L1.18016 12.8593C0.924969 13.1105 0.778594 13.4632 0.778594 13.8265V16.1648C0.778594 16.5294 0.920594 16.8724 1.17859 17.1306L2.53372 18.4857C2.78522 18.7409 3.13772 18.8872 3.50103 18.8872H4.02641V20.2171H3.50109C3.14159 20.2171 2.78966 20.3629 2.53534 20.6172L1.17859 21.9739C0.920656 22.2319 0.778594 22.5759 0.778594 22.9426V25.2778C0.778594 25.6445 0.920594 25.9885 1.17859 26.2464L2.53534 27.6032C2.78966 27.8575 3.14153 28.0033 3.50109 28.0033H18.4915C18.6041 28.0033 18.7073 27.9403 18.7586 27.8401C18.8914 27.5816 18.5822 27.2392 18.3083 27.403H3.50109C3.29972 27.403 3.10241 27.3212 2.95984 27.1787L1.60309 25.822C1.45859 25.6775 1.37897 25.4842 1.37897 25.2778V22.9426C1.37897 22.7362 1.45853 22.5429 1.60309 22.3984L2.95984 21.0416C3.10247 20.8992 3.29972 20.8174 3.50109 20.8174H17.6868C17.8528 20.8174 17.987 20.683 17.987 20.5172C17.987 20.3514 17.8528 20.217 17.6868 20.217H4.62672V18.8874H18.7855C18.9515 18.8874 19.0857 18.753 19.0857 18.5872V18.5871C19.0857 18.4214 18.9515 18.2869 18.7855 18.2869H3.50109C3.29753 18.2869 3.10084 18.2058 2.95984 18.0627L1.60322 16.706C1.45853 16.5613 1.37897 16.3692 1.37897 16.1647V13.8266C1.37897 13.623 1.46003 13.4263 1.60309 13.2854L2.96147 11.9271C3.10278 11.7836 3.29959 11.7014 3.50109 11.7014C23.6092 11.7028 22.4562 11.7014 23.159 11.7014C23.3633 11.7014 23.5565 11.7821 23.7031 11.9287L25.06 13.2856C25.2024 13.4279 25.2842 13.6251 25.2842 13.8266V15.7447C25.2842 15.9104 25.4185 16.0449 25.5844 16.0449C25.7503 16.0449 25.8846 15.9105 25.8846 15.7447V13.8266C25.8846 13.4671 25.7386 13.115 25.4845 12.861L24.1276 11.5042C23.8676 11.2442 23.5237 11.1011 23.1591 11.1011H22.6338V9.77274H23.1602C23.5255 9.77274 23.869 9.63043 24.1273 9.37218L25.4836 8.01574C25.7422 7.75737 25.8843 7.41393 25.8843 7.04887V4.71118C25.8843 4.34605 25.7421 4.00268 25.4836 3.7443L24.1273 2.38787C23.869 2.12962 23.5255 1.9873 23.1602 1.9873H3.50122C3.13584 1.9873 2.79259 2.12962 2.53447 2.38787L1.17791 3.7443C0.919656 4.00255 0.777344 4.34593 0.777344 4.71118V7.04874C0.777344 7.41399 0.919656 7.75737 1.17791 8.01562L2.53434 9.37212ZM22.0334 11.101H4.62803V9.77268H22.0334V11.101ZM1.37766 4.71118C1.37766 4.5063 1.45741 4.31368 1.60234 4.16874L2.95909 2.8123C3.10378 2.66737 3.29634 2.58762 3.50122 2.58762H23.1602C23.365 2.58762 23.5579 2.66737 23.7027 2.8123L25.059 4.16874C25.2042 4.31368 25.2838 4.50643 25.2838 4.71118V7.04874C25.2838 7.25349 25.2041 7.44624 25.059 7.59118L23.7027 8.94762C23.5579 9.09256 23.365 9.1723 23.1602 9.1723C20.7558 9.1723 5.71047 9.1723 3.50122 9.1723C3.29634 9.1723 3.10372 9.09256 2.95891 8.94762L1.60228 7.59118C1.45734 7.44624 1.37759 7.25362 1.37759 7.04874V4.71118H1.37766Z" fill="black"/>
<path d="M3.72275 7.36497H5.21656C5.62375 7.36497 5.95494 7.03372 5.95494 6.62659V5.13278C5.95494 4.72578 5.62369 4.39453 5.21656 4.39453H3.72275C3.31556 4.39453 2.98438 4.72578 2.98438 5.13278V6.62659C2.98438 7.03378 3.31556 7.36497 3.72275 7.36497ZM3.58469 5.13278C3.58469 5.05672 3.64669 4.99484 3.72275 4.99484H5.21656C5.29262 4.99484 5.35463 5.05672 5.35463 5.13278V6.62659C5.35463 6.70266 5.29262 6.76466 5.21656 6.76466H3.72275C3.64669 6.76466 3.58469 6.70266 3.58469 6.62659V5.13278Z" fill="black"/>
<path d="M7.22987 7.36497C7.39562 7.36497 7.53006 7.23059 7.53006 7.06478V4.69472C7.53006 4.52897 7.39569 4.39453 7.22987 4.39453C7.06412 4.39453 6.92969 4.52891 6.92969 4.69472V7.06484C6.92969 7.23059 7.06406 7.36497 7.22987 7.36497Z" fill="black"/>
<path d="M9.88222 7.36497C10.048 7.36497 10.1824 7.23059 10.1824 7.06478V4.69472C10.1824 4.52897 10.048 4.39453 9.88222 4.39453C9.71641 4.39453 9.58203 4.52891 9.58203 4.69472V7.06484C9.58209 7.23059 9.71647 7.36497 9.88222 7.36497Z" fill="black"/>
<path d="M12.5307 7.36497C12.6964 7.36497 12.8308 7.23059 12.8308 7.06478V4.69472C12.8308 4.52897 12.6965 4.39453 12.5307 4.39453C12.3648 4.39453 12.2305 4.52891 12.2305 4.69472V7.06484C12.2305 7.23059 12.3649 7.36497 12.5307 7.36497Z" fill="black"/>
<path d="M15.7026 7.1962C16.4281 7.1962 17.0185 6.60583 17.0185 5.88033C17.0185 5.15483 16.4281 4.56445 15.7026 4.56445C14.9771 4.56445 14.3867 5.15483 14.3867 5.88033C14.3867 6.60583 14.9771 7.1962 15.7026 7.1962ZM15.7026 5.16477C16.0972 5.16477 16.4182 5.48577 16.4182 5.88033C16.4182 6.27489 16.0972 6.59589 15.7026 6.59589C15.308 6.59589 14.987 6.27489 14.987 5.88033C14.987 5.48577 15.308 5.16477 15.7026 5.16477Z" fill="black"/>
<path d="M19.0346 7.1962C19.7601 7.1962 20.3505 6.60583 20.3505 5.88033C20.3505 5.15483 19.7601 4.56445 19.0346 4.56445C18.3091 4.56445 17.7188 5.15483 17.7188 5.88033C17.7188 6.60583 18.3091 7.1962 19.0346 7.1962ZM19.0346 5.16477C19.4292 5.16477 19.7502 5.48577 19.7502 5.88033C19.7502 6.27489 19.4292 6.59589 19.0346 6.59589C18.6401 6.59589 18.3191 6.27489 18.3191 5.88033C18.3191 5.48577 18.6401 5.16477 19.0346 5.16477Z" fill="black"/>
<path d="M22.3628 7.1962C23.0883 7.1962 23.6786 6.60583 23.6786 5.88033C23.6786 5.15483 23.0883 4.56445 22.3628 4.56445C21.6373 4.56445 21.0469 5.15483 21.0469 5.88033C21.0469 6.60583 21.6373 7.1962 22.3628 7.1962ZM22.3628 5.16477C22.7573 5.16477 23.0783 5.48577 23.0783 5.88033C23.0783 6.27489 22.7573 6.59589 22.3628 6.59589C21.9682 6.59589 21.6472 6.27489 21.6472 5.88033C21.6472 5.48577 21.9682 5.16477 22.3628 5.16477Z" fill="black"/>
<path d="M3.72275 13.5098C3.31556 13.5098 2.98438 13.841 2.98438 14.2481V15.742C2.98438 16.149 3.31562 16.4802 3.72275 16.4802H5.21656C5.62375 16.4802 5.95494 16.149 5.95494 15.742V14.2481C5.95494 13.841 5.62369 13.5098 5.21656 13.5098H3.72275ZM5.35463 14.2482V15.742C5.35463 15.8181 5.29262 15.88 5.21656 15.88H3.72275C3.64669 15.88 3.58469 15.8181 3.58469 15.742V14.2482C3.58469 14.1721 3.64669 14.1101 3.72275 14.1101H5.21656C5.29262 14.1101 5.35463 14.1721 5.35463 14.2482Z" fill="black"/>
<path d="M6.92969 13.81V16.1801C6.92969 16.3458 7.06406 16.4803 7.22987 16.4803C7.39562 16.4803 7.53006 16.3459 7.53006 16.1801V13.81C7.53006 13.6442 7.39569 13.5098 7.22987 13.5098C7.06406 13.5098 6.92969 13.6442 6.92969 13.81Z" fill="black"/>
<path d="M9.58203 13.81V16.1801C9.58203 16.3458 9.71641 16.4803 9.88222 16.4803C10.048 16.4803 10.1824 16.3459 10.1824 16.1801V13.81C10.1824 13.6442 10.048 13.5098 9.88222 13.5098C9.71641 13.5098 9.58203 13.6442 9.58203 13.81Z" fill="black"/>
<path d="M12.2305 13.81V16.1801C12.2305 16.3458 12.3648 16.4803 12.5307 16.4803C12.6965 16.4803 12.8308 16.3459 12.8308 16.1801V13.81C12.8308 13.6442 12.6965 13.5098 12.5307 13.5098C12.3648 13.5098 12.2305 13.6442 12.2305 13.81Z" fill="black"/>
<path d="M14.3867 14.9956C14.3867 15.7211 14.9771 16.3114 15.7026 16.3114C16.4281 16.3114 17.0185 15.7211 17.0185 14.9956C17.0185 14.2701 16.4281 13.6797 15.7026 13.6797C14.9771 13.6797 14.3867 14.2701 14.3867 14.9956ZM16.4181 14.9956C16.4181 15.3901 16.0971 15.7111 15.7025 15.7111C15.308 15.7111 14.987 15.3901 14.987 14.9956C14.987 14.601 15.308 14.28 15.7025 14.28C16.0971 14.28 16.4181 14.601 16.4181 14.9956Z" fill="black"/>
<path d="M20.3505 14.9956C20.3505 14.2701 19.7601 13.6797 19.0346 13.6797C18.3091 13.6797 17.7188 14.2701 17.7188 14.9956C17.7188 15.7211 18.3091 16.3114 19.0346 16.3114C19.7601 16.3114 20.3505 15.7211 20.3505 14.9956ZM19.0346 15.7111C18.6401 15.7111 18.3191 15.3901 18.3191 14.9955C18.3191 14.6009 18.6401 14.2799 19.0346 14.2799C19.4292 14.2799 19.7502 14.6009 19.7502 14.9955C19.7502 15.3901 19.4292 15.7111 19.0346 15.7111Z" fill="black"/>
<path d="M23.6786 14.9956C23.6786 14.2701 23.0883 13.6797 22.3628 13.6797C21.6373 13.6797 21.0469 14.2701 21.0469 14.9956C21.0469 15.7211 21.6373 16.3114 22.3628 16.3114C23.0883 16.3114 23.6786 15.7211 23.6786 14.9956ZM21.6472 14.9956C21.6472 14.601 21.9682 14.28 22.3628 14.28C22.7573 14.28 23.0783 14.601 23.0783 14.9956C23.0783 15.3901 22.7573 15.7111 22.3628 15.7111C21.9682 15.7111 21.6472 15.3901 21.6472 14.9956Z" fill="black"/>
<path d="M3.72275 22.625C3.31556 22.625 2.98438 22.9562 2.98438 23.3634V24.8572C2.98438 25.2644 3.31562 25.5956 3.72275 25.5956H5.21656C5.62375 25.5956 5.95494 25.2643 5.95494 24.8572V23.3634C5.95494 22.9562 5.62369 22.625 5.21656 22.625H3.72275ZM5.35463 23.3634V24.8572C5.35463 24.9332 5.29262 24.9953 5.21656 24.9953H3.72275C3.64669 24.9953 3.58469 24.9332 3.58469 24.8572V23.3634C3.58469 23.2873 3.64669 23.2253 3.72275 23.2253H5.21656C5.29262 23.2253 5.35463 23.2873 5.35463 23.3634Z" fill="black"/>
<path d="M6.92969 22.9252V25.2954C6.92969 25.4612 7.06406 25.5956 7.22987 25.5956C7.39562 25.5956 7.53006 25.4613 7.53006 25.2954V22.9252C7.53006 22.7594 7.39569 22.625 7.22987 22.625C7.06406 22.625 6.92969 22.7594 6.92969 22.9252Z" fill="black"/>
<path d="M9.58203 22.9252V25.2954C9.58203 25.4612 9.71641 25.5956 9.88222 25.5956C10.048 25.5956 10.1824 25.4613 10.1824 25.2954V22.9252C10.1824 22.7594 10.048 22.625 9.88222 22.625C9.71641 22.625 9.58203 22.7594 9.58203 22.9252Z" fill="black"/>
<path d="M12.2305 22.9252V25.2954C12.2305 25.4612 12.3648 25.5956 12.5307 25.5956C12.6965 25.5956 12.8308 25.4613 12.8308 25.2954V22.9252C12.8308 22.7594 12.6965 22.625 12.5307 22.625C12.3648 22.625 12.2305 22.7594 12.2305 22.9252Z" fill="black"/>
<path d="M14.8203 24.1098C14.8203 24.8353 15.4107 25.4257 16.1362 25.4257C16.8617 25.4257 17.4521 24.8353 17.4521 24.1098C17.4521 23.3843 16.8617 22.7939 16.1362 22.7939C15.4106 22.7939 14.8203 23.3843 14.8203 24.1098ZM16.8517 24.1098C16.8517 24.5044 16.5307 24.8254 16.1361 24.8254C15.7416 24.8254 15.4206 24.5044 15.4206 24.1098C15.4206 23.7153 15.7416 23.3943 16.1361 23.3943C16.5307 23.3943 16.8517 23.7153 16.8517 24.1098Z" fill="black"/>
<path d="M31.121 22.4597C31.2052 22.452 31.282 22.4091 31.333 22.3415C31.3837 22.2741 31.4039 22.1883 31.3881 22.1054C31.216 21.1929 30.8625 20.34 30.3369 19.5701C30.2892 19.5003 30.2144 19.4538 30.1305 19.4421C30.0473 19.4308 29.9617 19.4547 29.8969 19.5085C29.5364 19.8084 29.0131 19.7839 28.6804 19.4513C28.348 19.1187 28.3234 18.5958 28.6232 18.2349C28.6775 18.17 28.7015 18.0851 28.6898 18.0014C28.678 17.9177 28.6317 17.8429 28.5617 17.7952C27.7913 17.2691 26.9383 16.9156 26.0264 16.7444C25.9428 16.729 25.8575 16.7487 25.7901 16.7997C25.7227 16.8507 25.6799 16.9277 25.672 17.0118C25.6289 17.4794 25.2414 17.8319 24.7706 17.8319C24.3001 17.8319 23.9129 17.4794 23.8698 17.0118C23.8619 16.9276 23.8191 16.8506 23.7517 16.7997C23.6842 16.7487 23.5978 16.7289 23.5151 16.7444C22.602 16.9166 21.749 17.2701 20.9804 17.7952C20.9107 17.8429 20.8644 17.9177 20.8526 18.0014C20.8409 18.0851 20.8649 18.1698 20.9189 18.2349C21.2187 18.5956 21.1938 19.1186 20.8614 19.4513C20.5287 19.7839 20.0055 19.8084 19.6449 19.5085C19.5802 19.4547 19.4951 19.4308 19.4113 19.4421C19.3275 19.4539 19.2527 19.5003 19.2049 19.5701C18.6794 20.34 18.3258 21.1928 18.1537 22.1054C18.1379 22.1883 18.1581 22.2742 18.2091 22.3416C18.2598 22.4092 18.3369 22.452 18.421 22.4597C18.881 22.5021 19.2412 22.8978 19.2412 23.3607C19.2412 23.8316 18.8886 24.2191 18.421 24.2622C18.3369 24.2698 18.2598 24.3127 18.2091 24.3802C18.1581 24.4476 18.1379 24.5334 18.1537 24.6164C18.3252 25.5292 18.6787 26.3826 19.2043 27.1524C19.252 27.2222 19.3268 27.2687 19.4107 27.2804C19.4942 27.2918 19.5789 27.2679 19.644 27.214C20.0054 26.9141 20.528 26.9384 20.8605 27.2706C21.1935 27.6037 21.2184 28.1268 20.9185 28.4875C20.8643 28.5526 20.8403 28.6373 20.852 28.721C20.8637 28.8047 20.91 28.8796 20.9798 28.9274C21.7484 29.4527 22.6011 29.8065 23.5151 29.9788C23.5978 29.9941 23.6842 29.9744 23.7517 29.9236C23.8191 29.8727 23.8619 29.7956 23.8698 29.7115C23.9129 29.2435 24.3001 28.8906 24.7706 28.8906C25.2414 28.8906 25.6289 29.2435 25.672 29.7115C25.6799 29.7956 25.7227 29.8726 25.7901 29.9236C25.8545 29.9721 25.9387 29.9949 26.0264 29.9789C26.9392 29.8074 27.7925 29.4538 28.5622 28.9281C28.6323 28.8804 28.6786 28.8056 28.6904 28.7219C28.7021 28.6382 28.678 28.5533 28.6238 28.4884C28.3236 28.1271 28.3482 27.6036 28.6812 27.2706C29.0134 26.9379 29.5366 26.9138 29.8974 27.214C29.9625 27.2679 30.0472 27.2918 30.131 27.2804C30.2146 27.2686 30.2896 27.2222 30.3374 27.1524C30.863 26.3825 31.2165 25.5292 31.388 24.6164C31.4038 24.5335 31.3836 24.4477 31.3329 24.3803C31.2819 24.3129 31.205 24.2699 31.1209 24.2622C30.6531 24.2185 30.3004 23.831 30.3004 23.3607C30.3006 22.8907 30.6532 22.5034 31.121 22.4597ZM30.737 24.7927C30.5879 25.4209 30.3413 26.0157 30.0016 26.5674C29.432 26.2752 28.7289 26.3741 28.2569 26.8462C27.7844 27.3187 27.6853 28.0224 27.9775 28.5924C27.4259 28.9321 26.8311 29.1785 26.2029 29.3278C26.0065 28.7182 25.439 28.2902 24.7707 28.2902C24.1026 28.2902 23.5354 28.7181 23.339 29.3276C22.7103 29.1777 22.1158 28.9312 21.565 28.5917C21.8567 28.0223 21.7579 27.3188 21.2851 26.8461C20.8132 26.3737 20.1094 26.2756 19.5404 26.5674C19.2007 26.0159 18.9542 25.4211 18.805 24.7929C19.4141 24.5966 19.8418 24.0291 19.8418 23.3607C19.8418 22.6926 19.4144 22.1256 18.805 21.9291C18.9548 21.3012 19.2016 20.7067 19.541 20.1552C20.1106 20.4464 20.8138 20.3481 21.286 19.8758C21.758 19.4036 21.857 18.7005 21.5657 18.1311C22.1165 17.792 22.7109 17.5454 23.3391 17.3958C23.5358 18.0049 24.103 18.4323 24.7707 18.4323C25.4388 18.4323 26.0063 18.0047 26.203 17.3955C26.8306 17.5447 27.425 17.7912 27.977 18.1311C27.6853 18.7006 27.7841 19.4036 28.256 19.8758C28.7285 20.3481 29.4312 20.4462 30.001 20.1552C30.3408 20.7067 30.5873 21.3013 30.7371 21.9294C30.128 22.1264 29.7003 22.6934 29.7003 23.3607C29.7002 24.0283 30.1279 24.5958 30.737 24.7927Z" fill="black"/>
<path d="M24.7727 19.8193C22.8195 19.8193 21.2305 21.4084 21.2305 23.3615C21.2305 25.3146 22.8195 26.9037 24.7727 26.9037C26.7258 26.9037 28.3148 25.3146 28.3148 23.3615C28.3148 21.4084 26.7258 19.8193 24.7727 19.8193ZM24.7727 26.3034C23.1505 26.3034 21.8308 24.9837 21.8308 23.3615C21.8308 21.7393 23.1505 20.4196 24.7727 20.4196C26.3948 20.4196 27.7145 21.7393 27.7145 23.3615C27.7145 24.9837 26.3948 26.3034 24.7727 26.3034Z" fill="black"/>
</svg>
