<svg width="45" height="44" viewBox="0 0 45 44" fill="none" xmlns="http://www.w3.org/2000/svg">
<g clip-path="url(#clip0_812_10091)">
<path fill-rule="evenodd" clip-rule="evenodd" d="M0.544182 16.2715L12.751 2.15566C12.7819 2.1208 12.8252 2.09946 12.8717 2.09625C12.9181 2.09303 12.964 2.1082 12.9994 2.13848L31.0814 17.7741C31.1162 17.8055 31.1375 17.8493 31.1407 17.8961C31.1439 17.9429 31.1288 17.9892 31.0986 18.0251L18.8921 32.1406C18.8608 32.1756 18.8171 32.1971 18.7702 32.2004C18.7233 32.2037 18.6771 32.1885 18.6412 32.1582L0.561713 16.5224C0.543905 16.5071 0.529311 16.4885 0.518785 16.4676C0.508259 16.4467 0.502012 16.4239 0.500412 16.4005C0.498811 16.3772 0.501888 16.3537 0.509463 16.3316C0.517038 16.3094 0.528958 16.289 0.544526 16.2715H0.544182Z" fill="#602EDF"/>
<path fill-rule="evenodd" clip-rule="evenodd" d="M8.6452 9.62618L17.1669 5.7406L31.0822 17.7741C31.117 17.8055 31.1383 17.8493 31.1415 17.8961C31.1447 17.9429 31.1296 17.9891 31.0994 18.025L18.8929 32.1406C18.8616 32.1756 18.8179 32.197 18.771 32.2003C18.7241 32.2036 18.6779 32.1885 18.642 32.1582L17.7766 31.4082L8.284 10.592C8.20416 10.416 8.19732 10.2156 8.26497 10.0346C8.33262 9.85352 8.46925 9.70668 8.64494 9.62618H8.6452Z" fill="#602EDF"/>
<path fill-rule="evenodd" clip-rule="evenodd" d="M8.87302 10.1279L25.8537 2.38636C25.8963 2.36734 25.9447 2.3659 25.9884 2.38234C26.0321 2.39878 26.0675 2.43178 26.087 2.47419L36.0035 24.2238C36.0135 24.2448 36.0193 24.2677 36.0204 24.291C36.0216 24.3143 36.0181 24.3376 36.0101 24.3595C36.0022 24.3814 35.99 24.4016 35.9742 24.4188C35.9585 24.4359 35.9394 24.4498 35.9182 24.4596L18.9375 32.2007C18.8945 32.2196 18.8458 32.2209 18.8018 32.2045C18.7578 32.1881 18.7219 32.1553 18.7017 32.1129L8.78519 10.364C8.76595 10.3211 8.76438 10.2722 8.78081 10.2281C8.79724 10.184 8.83036 10.1481 8.87302 10.1282V10.1279Z" fill="#60B7FF"/>
<path fill-rule="evenodd" clip-rule="evenodd" d="M18.9521 7.46387H28.3622L36.003 24.2238C36.0131 24.2449 36.0188 24.2677 36.02 24.291C36.0211 24.3143 36.0176 24.3376 36.0097 24.3596C36.0017 24.3815 35.9895 24.4016 35.9738 24.4188C35.958 24.436 35.9389 24.4499 35.9178 24.4596L18.937 32.2008C18.894 32.2196 18.8454 32.221 18.8014 32.2046C18.7574 32.1882 18.7215 32.1553 18.7012 32.113L18.2246 31.0645V8.19382C18.2244 8.09811 18.2431 8.00331 18.2795 7.91481C18.316 7.82632 18.3695 7.74588 18.4371 7.67809C18.5046 7.6103 18.5849 7.55649 18.6733 7.51973C18.7616 7.48298 18.8564 7.46399 18.9521 7.46387Z" fill="#56A5E6"/>
<path fill-rule="evenodd" clip-rule="evenodd" d="M18.9529 8.01575H32.8506L37.7925 12.9577V32.0959C37.7923 32.1431 37.7735 32.1883 37.7401 32.2217C37.7068 32.2551 37.6616 32.2739 37.6144 32.2741H18.9529C18.9297 32.274 18.9067 32.2692 18.8853 32.2602C18.8639 32.2512 18.8445 32.238 18.8282 32.2214C18.8119 32.2049 18.799 32.1853 18.7903 32.1638C18.7815 32.1422 18.7772 32.1192 18.7773 32.0959V8.19381C18.7772 8.17058 18.7815 8.14754 18.7903 8.12602C18.799 8.10449 18.8119 8.08489 18.8282 8.06835C18.8445 8.05181 18.8639 8.03865 18.8853 8.02962C18.9067 8.0206 18.9297 8.01588 18.9529 8.01575Z" fill="#EAF6FF"/>
<path fill-rule="evenodd" clip-rule="evenodd" d="M32.8496 8.01575V11.8486C32.8502 12.1424 32.9672 12.424 33.1749 12.6318C33.3827 12.8396 33.6644 12.9566 33.9582 12.9572H37.791L32.8496 8.01575Z" fill="#BEC7CF"/>
<path fill-rule="evenodd" clip-rule="evenodd" d="M23.2267 24.8685H37.8092C38.5484 24.8708 39.2566 25.1654 39.7793 25.688C40.3019 26.2107 40.5965 26.9189 40.5988 27.658V39.1148C40.597 39.8541 40.3025 40.5626 39.7797 41.0853C39.257 41.6081 38.5485 41.9026 37.8092 41.9044H11.9556C11.2165 41.9022 10.5082 41.6075 9.98555 41.0849C9.46289 40.5622 9.16826 39.854 9.16602 39.1148V22.0789C9.16765 21.4715 9.40983 20.8895 9.83955 20.4603C10.2693 20.0311 10.8515 19.7895 11.4589 19.7886H16.328C17.1359 19.7886 17.6853 20.2853 18.2622 20.8472L21.2926 23.8098C21.8696 24.3743 22.419 24.8685 23.2267 24.8685Z" fill="#FFBA57"/>
<path d="M21.8149 12.8899C21.6518 12.888 21.4961 12.8219 21.3815 12.7059C21.2668 12.5899 21.2025 12.4334 21.2025 12.2703C21.2025 12.1072 21.2668 11.9507 21.3815 11.8347C21.4961 11.7187 21.6518 11.6526 21.8149 11.6506H30.008C30.1711 11.6526 30.3269 11.7187 30.4415 11.8347C30.5561 11.9507 30.6204 12.1072 30.6204 12.2703C30.6204 12.4334 30.5561 12.5899 30.4415 12.7059C30.3269 12.8219 30.1711 12.888 30.008 12.8899H21.8149ZM21.8149 21.9306C21.6506 21.9306 21.493 21.8653 21.3768 21.7491C21.2606 21.6329 21.1953 21.4753 21.1953 21.311C21.1953 21.1466 21.2606 20.989 21.3768 20.8728C21.493 20.7566 21.6506 20.6913 21.8149 20.6913H34.7543C34.9186 20.6913 35.0762 20.7566 35.1924 20.8728C35.3086 20.989 35.3739 21.1466 35.3739 21.311C35.3739 21.4753 35.3086 21.6329 35.1924 21.7491C35.0762 21.8653 34.9186 21.9306 34.7543 21.9306H21.8149ZM21.8149 18.9178C21.6518 18.9158 21.4961 18.8497 21.3815 18.7337C21.2668 18.6177 21.2025 18.4612 21.2025 18.2981C21.2025 18.135 21.2668 17.9785 21.3815 17.8625C21.4961 17.7465 21.6518 17.6804 21.8149 17.6785H34.7543C34.8363 17.6775 34.9176 17.6928 34.9937 17.7235C35.0697 17.7542 35.1389 17.7997 35.1972 17.8574C35.2555 17.915 35.3018 17.9836 35.3334 18.0593C35.365 18.1349 35.3813 18.2161 35.3813 18.2981C35.3813 18.3801 35.365 18.4613 35.3334 18.5369C35.3018 18.6126 35.2555 18.6812 35.1972 18.7389C35.1389 18.7965 35.0697 18.842 34.9937 18.8727C34.9176 18.9034 34.8363 18.9187 34.7543 18.9178H21.8149ZM21.8149 15.9049C21.7336 15.9049 21.653 15.8889 21.5778 15.8577C21.5026 15.8266 21.4343 15.7809 21.3768 15.7234C21.3193 15.6659 21.2736 15.5976 21.2425 15.5224C21.2113 15.4472 21.1953 15.3666 21.1953 15.2853C21.1953 15.2039 21.2113 15.1233 21.2425 15.0482C21.2736 14.973 21.3193 14.9047 21.3768 14.8471C21.4343 14.7896 21.5026 14.744 21.5778 14.7128C21.653 14.6817 21.7336 14.6657 21.8149 14.6657H34.7543C34.8356 14.6657 34.9162 14.6817 34.9914 14.7128C35.0666 14.744 35.1349 14.7896 35.1924 14.8471C35.2499 14.9047 35.2956 14.973 35.3267 15.0482C35.3579 15.1233 35.3739 15.2039 35.3739 15.2853C35.3739 15.3666 35.3579 15.4472 35.3267 15.5224C35.2956 15.5976 35.2499 15.6659 35.1924 15.7234C35.1349 15.7809 35.0666 15.8266 34.9914 15.8577C34.9162 15.8889 34.8356 15.9049 34.7543 15.9049H21.8149Z" fill="#BEC7CF"/>
<path d="M13.102 34.4238C12.9377 34.4238 12.7801 34.3585 12.6639 34.2423C12.5477 34.1261 12.4824 33.9685 12.4824 33.8042C12.4824 33.6398 12.5477 33.4822 12.6639 33.366C12.7801 33.2498 12.9377 33.1846 13.102 33.1846H19.1452C19.3096 33.1846 19.4672 33.2498 19.5834 33.366C19.6996 33.4822 19.7649 33.6398 19.7649 33.8042C19.7649 33.9685 19.6996 34.1261 19.5834 34.2423C19.4672 34.3585 19.3096 34.4238 19.1452 34.4238H13.102ZM13.102 38.6558C12.9377 38.6558 12.7801 38.5905 12.6639 38.4743C12.5477 38.3581 12.4824 38.2005 12.4824 38.0362C12.4824 37.8718 12.5477 37.7142 12.6639 37.598C12.7801 37.4818 12.9377 37.4166 13.102 37.4166H36.6627C36.8271 37.4166 36.9847 37.4818 37.1009 37.598C37.2171 37.7142 37.2824 37.8718 37.2824 38.0362C37.2824 38.2005 37.2171 38.3581 37.1009 38.4743C36.9847 38.5905 36.8271 38.6558 36.6627 38.6558H13.102Z" fill="#CF9646"/>
<path fill-rule="evenodd" clip-rule="evenodd" d="M37.7929 25.3376C38.1756 25.5919 38.4896 25.9367 38.7071 26.3414C38.9246 26.7462 39.0389 27.1984 39.0397 27.6579V39.1148C39.0379 39.8541 38.7434 40.5626 38.2206 41.0853C37.6979 41.6081 36.9894 41.9026 36.2501 41.9044H37.8105C38.5498 41.9026 39.2582 41.6081 39.781 41.0853C40.3037 40.5626 40.5982 39.8541 40.6 39.1148V27.658C40.6005 27.292 40.5281 26.9296 40.3868 26.5919C40.1746 26.083 39.817 25.648 39.3587 25.3415C38.9004 25.0349 38.3618 24.8704 37.8105 24.8685H36.2501C36.7995 24.8684 37.3365 25.0317 37.7929 25.3376ZM21.2938 23.8098L18.7777 21.3514L18.2634 20.8472C17.6865 20.2853 17.1371 19.7886 16.3293 19.7886H14.7715C15.5767 19.7886 16.1261 20.2853 16.7031 20.8472L18.7777 22.8742L19.736 23.8098C20.3104 24.3743 20.8598 24.8685 21.6676 24.8685H23.2279C22.4201 24.8685 21.8708 24.3743 21.2938 23.8098Z" fill="#E6A74E"/>
<path fill-rule="evenodd" clip-rule="evenodd" d="M39.2181 33.1043C40.2625 33.1043 41.2835 32.7946 42.1518 32.2144C43.0202 31.6341 43.6971 30.8094 44.0967 29.8445C44.4964 28.8796 44.601 27.8178 44.3972 26.7935C44.1935 25.7692 43.6906 24.8283 42.9521 24.0897C42.2135 23.3512 41.2726 22.8483 40.2483 22.6446C39.224 22.4408 38.1622 22.5454 37.1973 22.9451C36.2324 23.3447 35.4077 24.0216 34.8274 24.8899C34.2472 25.7583 33.9375 26.7793 33.9375 27.8237C33.9401 29.2234 34.4973 30.565 35.487 31.5548C36.4768 32.5445 37.8184 33.1017 39.2181 33.1043Z" fill="#25C73B"/>
<path d="M36.0637 28.5411C36.0047 28.4839 35.9576 28.4156 35.9252 28.34C35.8928 28.2645 35.8757 28.1833 35.875 28.1011C35.8743 28.0189 35.8899 27.9374 35.921 27.8613C35.9521 27.7852 35.998 27.7161 36.056 27.6579C36.1141 27.5997 36.1831 27.5536 36.2591 27.5223C36.3351 27.4911 36.4166 27.4752 36.4988 27.4757C36.581 27.4762 36.6622 27.4931 36.7378 27.5253C36.8135 27.5575 36.8819 27.6044 36.9392 27.6633L38.1283 28.8523L41.497 25.4836C41.6131 25.3675 41.7706 25.3023 41.9348 25.3022C42.0989 25.3022 42.2564 25.3675 42.3725 25.4835C42.4886 25.5996 42.5539 25.7571 42.5539 25.9213C42.5539 26.0855 42.4887 26.2429 42.3726 26.359L38.5648 30.1667C38.4484 30.2823 38.2911 30.3473 38.127 30.3473C37.963 30.3473 37.8056 30.2823 37.6893 30.1667L36.0637 28.5411Z" fill="#EAF6FF"/>
<path fill-rule="evenodd" clip-rule="evenodd" d="M38.7696 22.5606C40.0652 22.6705 41.2748 23.2544 42.1667 24.2005C43.0586 25.1467 43.5701 26.3886 43.6034 27.6884C43.6366 28.9882 43.1892 30.2547 42.3469 31.2452C41.5045 32.2357 40.3264 32.8807 39.0381 33.0566C38.9503 33.0691 38.8599 33.0792 38.7696 33.0867C38.8599 33.0942 38.9478 33.0992 39.0381 33.1018C39.0982 33.1043 39.1584 33.1043 39.2186 33.1043C39.6846 33.1052 40.1486 33.0436 40.5983 32.9212C41.8338 32.5867 42.9058 31.8149 43.6148 30.7493C44.3239 29.6836 44.6218 28.3967 44.4531 27.1279C44.2844 25.8591 43.6606 24.6948 42.6978 23.8514C41.7349 23.0081 40.4985 22.5431 39.2186 22.5431C39.068 22.5431 38.9178 22.5481 38.7695 22.5603L38.7696 22.5606Z" fill="#21B335"/>
<path fill-rule="evenodd" clip-rule="evenodd" d="M36.6641 12.9576V23.2003C37.0211 23.0029 37.3999 22.848 37.7929 22.7387V12.9576H36.6641Z" fill="#D3DDE6"/>
</g>
<defs>
<clipPath id="clip0_812_10091">
<rect width="44" height="44" fill="white" transform="translate(0.5)"/>
</clipPath>
</defs>
</svg>
