<svg width="45" height="44" viewBox="0 0 45 44" fill="none" xmlns="http://www.w3.org/2000/svg">
<g clip-path="url(#clip0_2131_13718)">
<path fill-rule="evenodd" clip-rule="evenodd" d="M0.544182 16.2714L12.751 2.15554C12.7819 2.12068 12.8252 2.09934 12.8717 2.09613C12.9181 2.09291 12.964 2.10808 12.9994 2.13836L31.0814 17.774C31.1162 17.8054 31.1375 17.8492 31.1407 17.896C31.1439 17.9428 31.1288 17.989 31.0986 18.0249L18.8921 32.1405C18.8608 32.1755 18.8171 32.197 18.7702 32.2002C18.7233 32.2035 18.6771 32.1884 18.6412 32.1581L0.561713 16.5222C0.543905 16.507 0.529311 16.4884 0.518785 16.4675C0.508259 16.4466 0.502012 16.4238 0.500412 16.4004C0.498811 16.3771 0.501888 16.3536 0.509463 16.3315C0.517038 16.3093 0.528958 16.2889 0.544526 16.2714H0.544182Z" fill="#602EDF"/>
<path fill-rule="evenodd" clip-rule="evenodd" d="M8.6452 9.62581L17.1669 5.74023L31.0822 17.7737C31.117 17.8051 31.1383 17.8489 31.1415 17.8957C31.1447 17.9425 31.1296 17.9888 31.0994 18.0247L18.8929 32.1402C18.8616 32.1753 18.8179 32.1967 18.771 32.2C18.7241 32.2033 18.6779 32.1881 18.642 32.1578L17.7766 31.4078L8.284 10.5917C8.20416 10.4157 8.19732 10.2152 8.26497 10.0342C8.33262 9.85316 8.46925 9.70631 8.64494 9.62581H8.6452Z" fill="#602EDF"/>
<path fill-rule="evenodd" clip-rule="evenodd" d="M8.86911 10.128L25.8498 2.38648C25.8924 2.36746 25.9408 2.36602 25.9845 2.38246C26.0281 2.3989 26.0636 2.43191 26.0831 2.47431L35.9996 24.2239C36.0096 24.2449 36.0154 24.2678 36.0165 24.2911C36.0177 24.3144 36.0142 24.3377 36.0062 24.3596C35.9983 24.3815 35.9861 24.4017 35.9703 24.4189C35.9545 24.4361 35.9355 24.4499 35.9143 24.4597L18.9336 32.2009C18.8906 32.2197 18.8419 32.221 18.7979 32.2046C18.7539 32.1883 18.718 32.1554 18.6978 32.113L8.78129 10.3641C8.76205 10.3212 8.76047 10.2724 8.7769 10.2283C8.79334 10.1841 8.82645 10.1482 8.86911 10.1283V10.128Z" fill="#60B7FF"/>
<path fill-rule="evenodd" clip-rule="evenodd" d="M18.954 7.46387H28.3642L36.005 24.2238C36.015 24.2449 36.0208 24.2677 36.0219 24.291C36.0231 24.3143 36.0196 24.3376 36.0116 24.3596C36.0037 24.3815 35.9915 24.4016 35.9757 24.4188C35.9599 24.436 35.9409 24.4499 35.9197 24.4596L18.939 32.2008C18.896 32.2196 18.8473 32.221 18.8033 32.2046C18.7593 32.1882 18.7234 32.1553 18.7032 32.113L18.2266 31.0645V8.19382C18.2264 8.09811 18.245 8.00331 18.2815 7.91481C18.3179 7.82632 18.3715 7.74588 18.439 7.67809C18.5066 7.6103 18.5868 7.55649 18.6752 7.51973C18.7636 7.48298 18.8583 7.46399 18.954 7.46387Z" fill="#56A5E6"/>
<path fill-rule="evenodd" clip-rule="evenodd" d="M18.9568 8.01562H32.8545L37.7964 12.9575V32.0958C37.7962 32.143 37.7774 32.1882 37.744 32.2216C37.7107 32.2549 37.6655 32.2738 37.6183 32.274H18.9568C18.9336 32.2738 18.9106 32.2691 18.8892 32.2601C18.8678 32.251 18.8484 32.2379 18.8321 32.2213C18.8158 32.2048 18.8029 32.1852 18.7942 32.1636C18.7855 32.1421 18.7811 32.1191 18.7813 32.0958V8.19369C18.7811 8.17046 18.7855 8.14742 18.7942 8.12589C18.8029 8.10437 18.8158 8.08477 18.8321 8.06823C18.8484 8.05169 18.8678 8.03853 18.8892 8.0295C18.9106 8.02048 18.9336 8.01576 18.9568 8.01562Z" fill="#EAF6FF"/>
<path fill-rule="evenodd" clip-rule="evenodd" d="M32.8516 8.01562V11.8484C32.8521 12.1423 32.9691 12.4239 33.1769 12.6317C33.3847 12.8395 33.6663 12.9565 33.9602 12.957H37.793L32.8516 8.01562Z" fill="#BEC7CF"/>
<path fill-rule="evenodd" clip-rule="evenodd" d="M23.2247 24.869H37.8073C38.5464 24.8712 39.2547 25.1659 39.7773 25.6885C40.3 26.2112 40.5946 26.9194 40.5968 27.6585V39.1153C40.595 39.8546 40.3005 40.5631 39.7778 41.0858C39.255 41.6086 38.5466 41.9031 37.8073 41.9049H11.9537C11.2145 41.9027 10.5063 41.608 9.9836 41.0854C9.46093 40.5627 9.16631 39.8545 9.16406 39.1153V22.0794C9.1657 21.472 9.40788 20.89 9.8376 20.4608C10.2673 20.0315 10.8496 19.79 11.457 19.7891H16.3261C17.1339 19.7891 17.6833 20.2858 18.2602 20.8477L21.2906 23.8103C21.8676 24.3748 22.417 24.869 23.2247 24.869Z" fill="#FFBA57"/>
<path d="M21.8149 12.8897C21.6518 12.8878 21.4961 12.8216 21.3815 12.7056C21.2668 12.5896 21.2025 12.4331 21.2025 12.27C21.2025 12.107 21.2668 11.9504 21.3815 11.8344C21.4961 11.7184 21.6518 11.6523 21.8149 11.6504H30.008C30.1711 11.6523 30.3269 11.7184 30.4415 11.8344C30.5561 11.9504 30.6204 12.107 30.6204 12.27C30.6204 12.4331 30.5561 12.5896 30.4415 12.7056C30.3269 12.8216 30.1711 12.8878 30.008 12.8897H21.8149ZM21.8149 21.9303C21.6506 21.9303 21.493 21.865 21.3768 21.7488C21.2606 21.6326 21.1953 21.475 21.1953 21.3107C21.1953 21.1464 21.2606 20.9888 21.3768 20.8726C21.493 20.7564 21.6506 20.6911 21.8149 20.6911H34.7543C34.9186 20.6911 35.0762 20.7564 35.1924 20.8726C35.3086 20.9888 35.3739 21.1464 35.3739 21.3107C35.3739 21.475 35.3086 21.6326 35.1924 21.7488C35.0762 21.865 34.9186 21.9303 34.7543 21.9303H21.8149ZM21.8149 18.9175C21.6518 18.9156 21.4961 18.8495 21.3815 18.7335C21.2668 18.6175 21.2025 18.461 21.2025 18.2979C21.2025 18.1348 21.2668 17.9783 21.3815 17.8623C21.4961 17.7463 21.6518 17.6801 21.8149 17.6782H34.7543C34.8363 17.6773 34.9176 17.6926 34.9937 17.7233C35.0697 17.754 35.1389 17.7995 35.1972 17.8571C35.2555 17.9147 35.3018 17.9834 35.3334 18.059C35.365 18.1347 35.3813 18.2159 35.3813 18.2979C35.3813 18.3799 35.365 18.461 35.3334 18.5367C35.3018 18.6124 35.2555 18.681 35.1972 18.7386C35.1389 18.7963 35.0697 18.8418 34.9937 18.8725C34.9176 18.9032 34.8363 18.9185 34.7543 18.9175H21.8149ZM21.8149 15.9046C21.7336 15.9046 21.653 15.8886 21.5778 15.8575C21.5026 15.8263 21.4343 15.7807 21.3768 15.7232C21.3193 15.6656 21.2736 15.5973 21.2425 15.5221C21.2113 15.447 21.1953 15.3664 21.1953 15.285C21.1953 15.2037 21.2113 15.1231 21.2425 15.0479C21.2736 14.9727 21.3193 14.9044 21.3768 14.8469C21.4343 14.7894 21.5026 14.7437 21.5778 14.7126C21.653 14.6814 21.7336 14.6654 21.8149 14.6654H34.7543C34.8356 14.6654 34.9162 14.6814 34.9914 14.7126C35.0666 14.7437 35.1349 14.7894 35.1924 14.8469C35.2499 14.9044 35.2956 14.9727 35.3267 15.0479C35.3579 15.1231 35.3739 15.2037 35.3739 15.285C35.3739 15.3664 35.3579 15.447 35.3267 15.5221C35.2956 15.5973 35.2499 15.6656 35.1924 15.7232C35.1349 15.7807 35.0666 15.8263 34.9914 15.8575C34.9162 15.8886 34.8356 15.9046 34.7543 15.9046H21.8149Z" fill="#BEC7CF"/>
<path d="M13.104 34.4238C12.9397 34.4238 12.7821 34.3585 12.6659 34.2423C12.5497 34.1261 12.4844 33.9685 12.4844 33.8042C12.4844 33.6398 12.5497 33.4822 12.6659 33.366C12.7821 33.2498 12.9397 33.1846 13.104 33.1846H19.1472C19.3115 33.1846 19.4691 33.2498 19.5853 33.366C19.7015 33.4822 19.7668 33.6398 19.7668 33.8042C19.7668 33.9685 19.7015 34.1261 19.5853 34.2423C19.4691 34.3585 19.3115 34.4238 19.1472 34.4238H13.104ZM13.104 38.6558C12.9397 38.6558 12.7821 38.5905 12.6659 38.4743C12.5497 38.3581 12.4844 38.2005 12.4844 38.0362C12.4844 37.8718 12.5497 37.7142 12.6659 37.598C12.7821 37.4818 12.9397 37.4166 13.104 37.4166H36.6647C36.829 37.4166 36.9866 37.4818 37.1028 37.598C37.219 37.7142 37.2843 37.8718 37.2843 38.0362C37.2843 38.2005 37.219 38.3581 37.1028 38.4743C36.9866 38.5905 36.829 38.6558 36.6647 38.6558H13.104Z" fill="#CF9646"/>
<path fill-rule="evenodd" clip-rule="evenodd" d="M37.7948 25.338C38.1775 25.5923 38.4916 25.9372 38.7091 26.3419C38.9266 26.7467 39.0408 27.1989 39.0417 27.6584V39.1153C39.0398 39.8546 38.7453 40.5631 38.2226 41.0858C37.6998 41.6086 36.9913 41.9031 36.2521 41.9049H37.8124C38.5517 41.9031 39.2602 41.6086 39.7829 41.0858C40.3057 40.5631 40.6001 39.8546 40.602 39.1153V27.6585C40.6025 27.2925 40.53 26.9301 40.3887 26.5924C40.1766 26.0835 39.8189 25.6485 39.3606 25.3419C38.9023 25.0354 38.3638 24.8709 37.8124 24.869H36.2521C36.8014 24.8689 37.3384 25.0322 37.7948 25.338ZM21.2957 23.8103L18.7797 21.3519L18.2653 20.8477C17.6884 20.2858 17.139 19.7891 16.3312 19.7891H14.7734C15.5787 19.7891 16.1281 20.2858 16.7051 20.8477L18.7797 22.8746L19.738 23.8103C20.3124 24.3748 20.8618 24.869 21.6696 24.869H23.2299C22.422 24.869 21.8727 24.3748 21.2957 23.8103Z" fill="#E6A74E"/>
<path fill-rule="evenodd" clip-rule="evenodd" d="M39.2181 33.1042C40.2625 33.1042 41.2835 32.7945 42.1518 32.2142C43.0202 31.634 43.6971 30.8093 44.0967 29.8444C44.4964 28.8795 44.601 27.8177 44.3972 26.7934C44.1935 25.769 43.6906 24.8281 42.9521 24.0896C42.2135 23.3511 41.2726 22.8482 40.2483 22.6444C39.224 22.4407 38.1622 22.5453 37.1973 22.9449C36.2324 23.3446 35.4077 24.0214 34.8274 24.8898C34.2472 25.7582 33.9375 26.7792 33.9375 27.8236C33.9401 29.2233 34.4973 30.5649 35.487 31.5546C36.4768 32.5444 37.8184 33.1016 39.2181 33.1042Z" fill="#25C73B"/>
<path d="M36.0637 28.5406C36.0047 28.4834 35.9576 28.4151 35.9252 28.3395C35.8928 28.264 35.8757 28.1828 35.875 28.1006C35.8743 28.0184 35.8899 27.9369 35.921 27.8608C35.9521 27.7847 35.998 27.7156 36.056 27.6574C36.1141 27.5992 36.1831 27.5531 36.2591 27.5219C36.3351 27.4906 36.4166 27.4747 36.4988 27.4752C36.581 27.4758 36.6622 27.4926 36.7378 27.5248C36.8135 27.557 36.8819 27.6039 36.9392 27.6628L38.1283 28.8518L41.497 25.4831C41.6131 25.367 41.7706 25.3018 41.9348 25.3018C42.0989 25.3017 42.2564 25.367 42.3725 25.4831C42.4886 25.5991 42.5539 25.7566 42.5539 25.9208C42.5539 26.085 42.4887 26.2424 42.3726 26.3585L38.5648 30.1662C38.4484 30.2819 38.2911 30.3468 38.127 30.3468C37.963 30.3468 37.8056 30.2819 37.6893 30.1662L36.0637 28.5406Z" fill="#EAF6FF"/>
<path fill-rule="evenodd" clip-rule="evenodd" d="M38.7657 22.5605C40.0613 22.6704 41.2709 23.2543 42.1628 24.2004C43.0547 25.1466 43.5662 26.3884 43.5995 27.6883C43.6327 28.9881 43.1853 30.2545 42.343 31.245C41.5006 32.2356 40.3225 32.8805 39.0342 33.0565C38.9464 33.069 38.856 33.0791 38.7657 33.0866C38.856 33.0941 38.9439 33.0991 39.0342 33.1017C39.0943 33.1042 39.1545 33.1042 39.2146 33.1042C39.6807 33.105 40.1447 33.0434 40.5944 32.921C41.8299 32.5866 42.9018 31.8148 43.6109 30.7491C44.32 29.6835 44.6179 28.3966 44.4492 27.1278C44.2805 25.859 43.6567 24.6946 42.6939 23.8513C41.731 23.0079 40.4946 22.543 39.2146 22.543C39.0641 22.543 38.9139 22.548 38.7656 22.5602L38.7657 22.5605Z" fill="#21B335"/>
<path fill-rule="evenodd" clip-rule="evenodd" d="M36.6641 12.958V23.2006C37.0211 23.0033 37.3999 22.8484 37.7929 22.7391V12.958H36.6641Z" fill="#D3DDE6"/>
</g>
<defs>
<clipPath id="clip0_2131_13718">
<rect width="44" height="44" fill="white" transform="translate(0.5)"/>
</clipPath>
</defs>
</svg>
