<svg width="44" height="44" viewBox="0 0 44 44" fill="none" xmlns="http://www.w3.org/2000/svg">
<path fill-rule="evenodd" clip-rule="evenodd" d="M0.0441819 16.2715L12.251 2.15566C12.2819 2.1208 12.3252 2.09946 12.3717 2.09625C12.4181 2.09303 12.464 2.1082 12.4994 2.13848L30.5814 17.7741C30.6162 17.8055 30.6375 17.8493 30.6407 17.8961C30.6439 17.9429 30.6288 17.9892 30.5986 18.0251L18.3921 32.1406C18.3608 32.1756 18.3171 32.1971 18.2702 32.2004C18.2233 32.2037 18.1771 32.1885 18.1412 32.1582L0.0617132 16.5224C0.0439055 16.5071 0.0293111 16.4885 0.0187849 16.4676C0.0082587 16.4467 0.00201233 16.4239 0.000411681 16.4005C-0.00118897 16.3772 0.00188828 16.3537 0.00946319 16.3316C0.0170381 16.3094 0.0289583 16.289 0.0445257 16.2715H0.0441819Z" fill="#602EDF"/>
<path fill-rule="evenodd" clip-rule="evenodd" d="M8.14422 9.62618L16.666 5.7406L30.5812 17.7741C30.6161 17.8055 30.6373 17.8493 30.6406 17.8961C30.6438 17.9429 30.6286 17.9891 30.5984 18.025L18.3919 32.1406C18.3606 32.1756 18.3169 32.197 18.27 32.2003C18.2232 32.2036 18.1769 32.1885 18.141 32.1582L17.2756 31.4082L7.78302 10.592C7.70318 10.416 7.69634 10.2156 7.76399 10.0346C7.83164 9.85352 7.96827 9.70668 8.14396 9.62618H8.14422Z" fill="#602EDF"/>
<path fill-rule="evenodd" clip-rule="evenodd" d="M8.37302 10.1279L25.3537 2.38636C25.3963 2.36734 25.4447 2.3659 25.4884 2.38234C25.5321 2.39878 25.5675 2.43178 25.587 2.47419L35.5035 24.2238C35.5135 24.2448 35.5193 24.2677 35.5204 24.291C35.5216 24.3143 35.5181 24.3376 35.5101 24.3595C35.5022 24.3814 35.49 24.4016 35.4742 24.4188C35.4585 24.4359 35.4394 24.4498 35.4182 24.4596L18.4375 32.2007C18.3945 32.2196 18.3458 32.2209 18.3018 32.2045C18.2578 32.1881 18.2219 32.1553 18.2017 32.1129L8.28519 10.364C8.26595 10.3211 8.26438 10.2722 8.28081 10.2281C8.29724 10.184 8.33036 10.1481 8.37302 10.1282V10.1279Z" fill="#60B7FF"/>
<path fill-rule="evenodd" clip-rule="evenodd" d="M18.4521 7.46387H27.8622L35.503 24.2238C35.5131 24.2449 35.5188 24.2677 35.52 24.291C35.5211 24.3143 35.5176 24.3376 35.5097 24.3596C35.5017 24.3815 35.4895 24.4016 35.4738 24.4188C35.458 24.436 35.4389 24.4499 35.4178 24.4596L18.437 32.2008C18.394 32.2196 18.3454 32.221 18.3014 32.2046C18.2574 32.1882 18.2215 32.1553 18.2012 32.113L17.7246 31.0645V8.19382C17.7244 8.09811 17.7431 8.00331 17.7795 7.91481C17.816 7.82632 17.8695 7.74588 17.9371 7.67809C18.0046 7.6103 18.0849 7.55649 18.1733 7.51973C18.2616 7.48298 18.3564 7.46399 18.4521 7.46387Z" fill="#56A5E6"/>
<path fill-rule="evenodd" clip-rule="evenodd" d="M18.4519 8.01575H32.3496L37.2915 12.9577V32.0959C37.2913 32.1431 37.2725 32.1883 37.2392 32.2217C37.2058 32.2551 37.1606 32.2739 37.1134 32.2741H18.4519C18.4287 32.274 18.4057 32.2692 18.3843 32.2602C18.3629 32.2512 18.3435 32.238 18.3272 32.2214C18.3109 32.2049 18.298 32.1853 18.2893 32.1638C18.2806 32.1422 18.2762 32.1192 18.2764 32.0959V8.19381C18.2762 8.17058 18.2806 8.14754 18.2893 8.12602C18.298 8.10449 18.3109 8.08489 18.3272 8.06835C18.3435 8.05181 18.3629 8.03865 18.3843 8.02962C18.4057 8.0206 18.4287 8.01588 18.4519 8.01575Z" fill="#EAF6FF"/>
<path fill-rule="evenodd" clip-rule="evenodd" d="M32.3496 8.01575V11.8486C32.3502 12.1424 32.4672 12.424 32.6749 12.6318C32.8827 12.8396 33.1644 12.9566 33.4582 12.9572H37.291L32.3496 8.01575Z" fill="#BEC7CF"/>
<path fill-rule="evenodd" clip-rule="evenodd" d="M22.7267 24.8685H37.3092C38.0484 24.8708 38.7566 25.1654 39.2793 25.688C39.8019 26.2107 40.0965 26.9189 40.0988 27.658V39.1148C40.097 39.8541 39.8025 40.5626 39.2797 41.0853C38.757 41.6081 38.0485 41.9026 37.3092 41.9044H11.4556C10.7165 41.9022 10.0082 41.6075 9.48555 41.0849C8.96289 40.5622 8.66826 39.854 8.66602 39.1148V22.0789C8.66765 21.4715 8.90983 20.8895 9.33955 20.4603C9.76927 20.0311 10.3515 19.7895 10.9589 19.7886H15.828C16.6359 19.7886 17.1853 20.2853 17.7622 20.8472L20.7926 23.8098C21.3696 24.3743 21.919 24.8685 22.7267 24.8685Z" fill="#FFBA57"/>
<path d="M21.3149 12.8899C21.1518 12.888 20.9961 12.8219 20.8815 12.7059C20.7668 12.5899 20.7025 12.4334 20.7025 12.2703C20.7025 12.1072 20.7668 11.9507 20.8815 11.8347C20.9961 11.7187 21.1518 11.6526 21.3149 11.6506H29.508C29.6711 11.6526 29.8269 11.7187 29.9415 11.8347C30.0561 11.9507 30.1204 12.1072 30.1204 12.2703C30.1204 12.4334 30.0561 12.5899 29.9415 12.7059C29.8269 12.8219 29.6711 12.888 29.508 12.8899H21.3149ZM21.3149 21.9306C21.1506 21.9306 20.993 21.8653 20.8768 21.7491C20.7606 21.6329 20.6953 21.4753 20.6953 21.311C20.6953 21.1466 20.7606 20.989 20.8768 20.8728C20.993 20.7566 21.1506 20.6913 21.3149 20.6913H34.2543C34.4186 20.6913 34.5762 20.7566 34.6924 20.8728C34.8086 20.989 34.8739 21.1466 34.8739 21.311C34.8739 21.4753 34.8086 21.6329 34.6924 21.7491C34.5762 21.8653 34.4186 21.9306 34.2543 21.9306H21.3149ZM21.3149 18.9178C21.1518 18.9158 20.9961 18.8497 20.8815 18.7337C20.7668 18.6177 20.7025 18.4612 20.7025 18.2981C20.7025 18.135 20.7668 17.9785 20.8815 17.8625C20.9961 17.7465 21.1518 17.6804 21.3149 17.6785H34.2543C34.3363 17.6775 34.4176 17.6928 34.4937 17.7235C34.5697 17.7542 34.6389 17.7997 34.6972 17.8574C34.7555 17.915 34.8018 17.9836 34.8334 18.0593C34.865 18.1349 34.8813 18.2161 34.8813 18.2981C34.8813 18.3801 34.865 18.4613 34.8334 18.5369C34.8018 18.6126 34.7555 18.6812 34.6972 18.7389C34.6389 18.7965 34.5697 18.842 34.4937 18.8727C34.4176 18.9034 34.3363 18.9187 34.2543 18.9178H21.3149ZM21.3149 15.9049C21.2336 15.9049 21.153 15.8889 21.0778 15.8577C21.0026 15.8266 20.9343 15.7809 20.8768 15.7234C20.8193 15.6659 20.7736 15.5976 20.7425 15.5224C20.7113 15.4472 20.6953 15.3666 20.6953 15.2853C20.6953 15.2039 20.7113 15.1233 20.7425 15.0482C20.7736 14.973 20.8193 14.9047 20.8768 14.8471C20.9343 14.7896 21.0026 14.744 21.0778 14.7128C21.153 14.6817 21.2336 14.6657 21.3149 14.6657H34.2543C34.3356 14.6657 34.4162 14.6817 34.4914 14.7128C34.5666 14.744 34.6349 14.7896 34.6924 14.8471C34.7499 14.9047 34.7956 14.973 34.8267 15.0482C34.8579 15.1233 34.8739 15.2039 34.8739 15.2853C34.8739 15.3666 34.8579 15.4472 34.8267 15.5224C34.7956 15.5976 34.7499 15.6659 34.6924 15.7234C34.6349 15.7809 34.5666 15.8266 34.4914 15.8577C34.4162 15.8889 34.3356 15.9049 34.2543 15.9049H21.3149Z" fill="#BEC7CF"/>
<path d="M12.602 34.4238C12.4377 34.4238 12.2801 34.3585 12.1639 34.2423C12.0477 34.1261 11.9824 33.9685 11.9824 33.8042C11.9824 33.6398 12.0477 33.4822 12.1639 33.366C12.2801 33.2498 12.4377 33.1846 12.602 33.1846H18.6452C18.8096 33.1846 18.9672 33.2498 19.0834 33.366C19.1996 33.4822 19.2649 33.6398 19.2649 33.8042C19.2649 33.9685 19.1996 34.1261 19.0834 34.2423C18.9672 34.3585 18.8096 34.4238 18.6452 34.4238H12.602ZM12.602 38.6558C12.4377 38.6558 12.2801 38.5905 12.1639 38.4743C12.0477 38.3581 11.9824 38.2005 11.9824 38.0362C11.9824 37.8718 12.0477 37.7142 12.1639 37.598C12.2801 37.4818 12.4377 37.4166 12.602 37.4166H36.1627C36.3271 37.4166 36.4847 37.4818 36.6009 37.598C36.7171 37.7142 36.7824 37.8718 36.7824 38.0362C36.7824 38.2005 36.7171 38.3581 36.6009 38.4743C36.4847 38.5905 36.3271 38.6558 36.1627 38.6558H12.602Z" fill="#CF9646"/>
<path fill-rule="evenodd" clip-rule="evenodd" d="M37.2919 25.3376C37.6746 25.5919 37.9886 25.9367 38.2061 26.3414C38.4236 26.7462 38.5379 27.1984 38.5387 27.6579V39.1148C38.5369 39.8541 38.2424 40.5626 37.7197 41.0853C37.1969 41.6081 36.4884 41.9026 35.7491 41.9044H37.3095C38.0488 41.9026 38.7572 41.6081 39.28 41.0853C39.8027 40.5626 40.0972 39.8541 40.099 39.1148V27.658C40.0996 27.292 40.0271 26.9296 39.8858 26.5919C39.6736 26.083 39.316 25.648 38.8577 25.3415C38.3994 25.0349 37.8609 24.8704 37.3095 24.8685H35.7491C36.2985 24.8684 36.8355 25.0317 37.2919 25.3376ZM20.7928 23.8098L18.2767 21.3514L17.7624 20.8472C17.1855 20.2853 16.6361 19.7886 15.8283 19.7886H14.2705C15.0757 19.7886 15.6251 20.2853 16.2021 20.8472L18.2767 22.8742L19.235 23.8098C19.8094 24.3743 20.3588 24.8685 21.1666 24.8685H22.7269C21.9191 24.8685 21.3698 24.3743 20.7928 23.8098Z" fill="#E6A74E"/>
<path fill-rule="evenodd" clip-rule="evenodd" d="M38.7191 33.1043C39.7635 33.1043 40.7844 32.7946 41.6528 32.2144C42.5212 31.6341 43.198 30.8094 43.5977 29.8445C43.9974 28.8796 44.102 27.8178 43.8982 26.7935C43.6945 25.7692 43.1915 24.8283 42.453 24.0897C41.7145 23.3512 40.7736 22.8483 39.7493 22.6446C38.7249 22.4408 37.6632 22.5454 36.6983 22.9451C35.7334 23.3447 34.9087 24.0216 34.3284 24.8899C33.7482 25.7583 33.4385 26.7793 33.4385 27.8237C33.4411 29.2234 33.9983 30.565 34.988 31.5548C35.9778 32.5445 37.3194 33.1017 38.7191 33.1043Z" fill="#25C73B"/>
<path d="M35.5637 28.5411C35.5047 28.4839 35.4576 28.4156 35.4252 28.34C35.3928 28.2645 35.3757 28.1833 35.375 28.1011C35.3743 28.0189 35.3899 27.9374 35.421 27.8613C35.4521 27.7852 35.498 27.7161 35.556 27.6579C35.6141 27.5997 35.6831 27.5536 35.7591 27.5223C35.8351 27.4911 35.9166 27.4752 35.9988 27.4757C36.081 27.4762 36.1622 27.4931 36.2378 27.5253C36.3135 27.5575 36.3819 27.6044 36.4392 27.6633L37.6283 28.8523L40.997 25.4836C41.1131 25.3675 41.2706 25.3023 41.4348 25.3022C41.5989 25.3022 41.7564 25.3675 41.8725 25.4835C41.9886 25.5996 42.0539 25.7571 42.0539 25.9213C42.0539 26.0855 41.9887 26.2429 41.8726 26.359L38.0648 30.1667C37.9484 30.2823 37.7911 30.3473 37.627 30.3473C37.463 30.3473 37.3056 30.2823 37.1893 30.1667L35.5637 28.5411Z" fill="#EAF6FF"/>
<path fill-rule="evenodd" clip-rule="evenodd" d="M38.2706 22.5606C39.5662 22.6705 40.7758 23.2544 41.6677 24.2005C42.5596 25.1467 43.0711 26.3886 43.1044 27.6884C43.1376 28.9882 42.6902 30.2547 41.8479 31.2452C41.0055 32.2357 39.8274 32.8807 38.5391 33.0566C38.4512 33.0691 38.3609 33.0792 38.2706 33.0867C38.3609 33.0942 38.4487 33.0992 38.5391 33.1018C38.5992 33.1043 38.6594 33.1043 38.7195 33.1043C39.1856 33.1052 39.6496 33.0436 40.0993 32.9212C41.3348 32.5867 42.4067 31.8149 43.1158 30.7493C43.8249 29.6836 44.1228 28.3967 43.9541 27.1279C43.7854 25.8591 43.1616 24.6948 42.1988 23.8514C41.2359 23.0081 39.9995 22.5431 38.7195 22.5431C38.569 22.5431 38.4188 22.5481 38.2705 22.5603L38.2706 22.5606Z" fill="#21B335"/>
<path fill-rule="evenodd" clip-rule="evenodd" d="M36.1631 12.9576V23.2003C36.5201 23.0029 36.899 22.848 37.292 22.7387V12.9576H36.1631Z" fill="#D3DDE6"/>
</svg>
