<svg width="32" height="32" viewBox="0 0 32 32" fill="none" xmlns="http://www.w3.org/2000/svg">
<g clip-path="url(#clip0_1907_4610)">
<path d="M18.806 29.5041C17.7656 29.5041 16.9353 28.6009 17.0519 27.5334C17.1414 26.7137 17.8027 26.0563 18.6204 25.9723C19.0356 25.9296 19.4249 26.0321 19.7451 26.2345V19.7568H14.9433C14.6944 19.7568 14.5296 20.0067 14.6181 20.2392C14.7276 20.5267 14.7782 20.8433 14.7551 21.1744C14.6797 22.2523 13.8084 23.1248 12.7338 23.198C11.4615 23.2847 10.4026 22.275 10.4026 21.0172C10.4026 20.7422 10.4534 20.4792 10.5459 20.2369C10.6343 20.0055 10.4679 19.7568 10.2201 19.7568H8.33519C8.14144 19.7568 7.98438 19.9139 7.98438 20.1076V30.1903C7.98438 30.9441 8.5935 31.5552 9.34494 31.5552H19.7451V29.2324C19.4731 29.4043 19.1512 29.5041 18.806 29.5041Z" fill="#7A6D79"/>
<path d="M27.9087 19.757C28.2145 19.3106 28.3939 18.7701 28.3939 18.1875C28.3939 16.6551 27.1309 15.3992 25.6035 15.4122C24.0867 15.4251 22.861 16.6626 22.861 18.1874C22.861 18.7701 23.0404 19.3105 23.3462 19.757H19.7471V26.2347C19.4269 26.0323 19.0376 25.9298 18.6224 25.9725C17.8047 26.0566 17.1435 26.7139 17.0539 27.5336C16.9373 28.6011 17.7675 29.5043 18.808 29.5043C19.1532 29.5043 19.475 29.4045 19.7471 29.2326V31.5555H30.1473C30.8987 31.5555 31.5079 30.9444 31.5079 30.1906V19.757H27.9087Z" fill="#FFD15B"/>
<path d="M29.0051 19.7578V30.1913C29.0051 30.9451 28.396 31.5562 27.6445 31.5562H30.1445C30.8959 31.5562 31.5051 30.9451 31.5051 30.1913V19.7578H29.0051Z" fill="#FFC344"/>
<path d="M11.0913 4.22775C11.3317 4.21356 11.5642 4.23875 11.7831 4.29725C12.0077 4.35731 12.2295 4.19494 12.2295 3.96244V0.819562C12.2295 0.625813 12.0724 0.46875 11.8787 0.46875H1.82931C1.07787 0.46875 0.46875 1.07981 0.46875 1.83362V11.9163C0.46875 12.1101 0.625813 12.2671 0.819562 12.2671H3.28612C3.00719 12.6628 2.85538 13.1552 2.89244 13.6847C2.96781 14.7626 3.83906 15.635 4.91369 15.7083C6.186 15.7949 7.24494 14.7852 7.24494 13.5275C7.24494 13.058 7.09687 12.6234 6.84575 12.2671H11.8787C12.0725 12.2671 12.2296 12.1101 12.2296 11.9163V8.85956C12.2296 8.62844 12.0102 8.46131 11.7871 8.52144C11.607 8.56994 11.4178 8.59587 11.2224 8.59587C9.96956 8.59587 8.96369 7.53513 9.04844 6.26C9.12069 5.17113 10.0054 4.29187 11.0913 4.22775Z" fill="#C8EFFE"/>
<path d="M11.091 4.22775C11.3315 4.21356 11.5639 4.23875 11.7828 4.29725C12.0075 4.35731 12.2292 4.19494 12.2292 3.96244V0.819562C12.2292 0.625813 12.0721 0.46875 11.8784 0.46875H9.3784C9.57215 0.46875 9.72915 0.625813 9.72915 0.819562V3.9625C9.72915 4.195 9.5074 4.35738 9.28277 4.29731C9.06383 4.23881 8.8314 4.21362 8.59096 4.22781C7.50508 4.29194 6.62033 5.17119 6.54796 6.26C6.46321 7.53513 7.46908 8.59587 8.72196 8.59587C8.91727 8.59587 9.10652 8.56994 9.28658 8.52144C9.50977 8.46131 9.72908 8.62844 9.72908 8.85956V11.9163C9.72908 12.1101 9.57202 12.2671 9.37833 12.2671H11.8783C12.0721 12.2671 12.2291 12.1101 12.2291 11.9163V8.85956C12.2291 8.62844 12.0098 8.46131 11.7866 8.52144C11.6066 8.56994 11.4173 8.59587 11.222 8.59587C9.96915 8.59587 8.96327 7.53513 9.04802 6.26C9.1204 5.17113 10.0051 4.29187 11.091 4.22775Z" fill="#99E6FC"/>
<path d="M19.7448 8.3098V11.9618C19.4075 11.785 19.0188 11.6937 18.6066 11.718C17.5207 11.7822 16.636 12.6614 16.5636 13.7502C16.4788 15.0254 17.4847 16.0861 18.7376 16.0861C19.101 16.0861 19.4435 15.9964 19.7447 15.8385V19.7574H23.3438C23.038 19.311 22.8586 18.7705 22.8586 18.1879C22.8586 16.6555 24.1216 15.3996 25.6491 15.4126C27.1659 15.4255 28.3915 16.6631 28.3915 18.1878C28.3915 18.7705 28.2122 19.3109 27.9063 19.7574H31.5055V9.32386C31.5055 8.57005 30.8963 7.95898 30.1449 7.95898H20.0956C19.9018 7.95898 19.7448 8.11605 19.7448 8.3098Z" fill="#FD8087"/>
<path d="M30.1445 7.95898H27.6445C28.3959 7.95898 29.0051 8.57005 29.0051 9.32386V19.7573H31.5051V9.32386C31.5051 8.57005 30.896 7.95898 30.1445 7.95898Z" fill="#FE646F"/>
<path d="M10.1581 16.7869C10.8171 16.7869 11.3513 16.2527 11.3513 15.5936C11.3513 14.9346 10.8171 14.4004 10.1581 14.4004C9.49908 14.4004 8.96484 14.9346 8.96484 15.5936C8.96484 16.2527 9.49908 16.7869 10.1581 16.7869Z" fill="#6FD7A3"/>
<path d="M28.4784 5.2615C29.1374 5.2615 29.6717 4.72726 29.6717 4.06825C29.6717 3.40924 29.1374 2.875 28.4784 2.875C27.8194 2.875 27.2852 3.40924 27.2852 4.06825C27.2852 4.72726 27.8194 5.2615 28.4784 5.2615Z" fill="#6FD7A3"/>
<path d="M15.4315 2.85525C16.0905 2.85525 16.6248 2.32101 16.6248 1.662C16.6248 1.00299 16.0905 0.46875 15.4315 0.46875C14.7725 0.46875 14.2383 1.00299 14.2383 1.662C14.2383 2.32101 14.7725 2.85525 15.4315 2.85525Z" fill="#FFD15B"/>
<path d="M0.46875 5.62331V11.9163C0.46875 12.1101 0.625813 12.2671 0.819562 12.2671H3.28612C3.00719 12.6628 2.85537 13.1552 2.89244 13.6847C2.96781 14.7626 3.83906 15.6351 4.91369 15.7083C6.186 15.7949 7.24494 14.7853 7.24494 13.5275C7.24494 13.058 7.09687 12.6234 6.84575 12.2671H11.8787C12.0725 12.2671 12.2296 12.1101 12.2296 11.9163V8.85956C12.2296 8.62844 12.0102 8.46131 11.7871 8.52144C11.607 8.56994 11.4178 8.59587 11.2224 8.59587C9.96956 8.59587 8.96369 7.53513 9.04844 6.26C9.12081 5.17119 10.0056 4.29194 11.0914 4.22781C11.3319 4.21362 11.5643 4.23881 11.7832 4.29731C12.0079 4.35738 12.2296 4.195 12.2296 3.9625V0.819562C12.2296 0.625813 12.0726 0.46875 11.8788 0.46875H1.82931C1.07787 0.46875 0.46875 1.07981 0.46875 1.83362V3.75156" stroke="black" stroke-miterlimit="10" stroke-linecap="round" stroke-linejoin="round"/>
<path d="M18.8294 29.4797C17.789 29.4797 16.9587 28.5765 17.0754 27.509C17.1649 26.6894 17.8262 26.032 18.6439 25.9479C19.0591 25.9052 19.4483 26.0077 19.7686 26.2101V19.7324H14.9667C14.7179 19.7324 14.5531 19.9823 14.6416 20.2148C14.751 20.5023 14.8016 20.8189 14.7785 21.15C14.7031 22.2279 13.8319 23.1004 12.7572 23.1735C11.4849 23.2603 10.426 22.2506 10.426 20.9928C10.426 20.7178 10.4768 20.4548 10.5693 20.2125C10.6577 19.981 10.4914 19.7324 10.2436 19.7324H8.35862C8.16487 19.7324 8.00781 19.8895 8.00781 20.0832V30.1659C8.00781 30.9197 8.61694 31.5308 9.36837 31.5308H19.7686V29.208C19.4966 29.3799 19.1747 29.4797 18.8294 29.4797Z" stroke="black" stroke-miterlimit="10" stroke-linecap="round" stroke-linejoin="round"/>
<path d="M31.5312 25.6649V19.7326H27.9321C28.2379 19.2862 28.4172 18.7457 28.4173 18.163C28.4173 16.6307 27.1543 15.3748 25.6269 15.3878C24.1101 15.4007 22.8845 16.6382 22.8845 18.163C22.8845 18.7457 23.0638 19.2861 23.3697 19.7326H19.7705V26.2103C19.4503 26.0079 19.061 25.9055 18.6458 25.9481C17.8282 26.0321 17.1669 26.6895 17.0773 27.5092C16.9608 28.5767 17.791 29.4799 18.8314 29.4799C19.1767 29.4799 19.4985 29.3801 19.7705 29.2082V31.5309H30.1707C30.9221 31.5309 31.5313 30.9199 31.5313 30.166V27.5356" stroke="black" stroke-miterlimit="10" stroke-linecap="round" stroke-linejoin="round"/>
<path d="M19.7682 8.28532V11.9373C19.431 11.7606 19.0422 11.6692 18.63 11.6936C17.5441 11.7577 16.6594 12.6369 16.587 13.7258C16.5023 15.0009 17.5081 16.0616 18.761 16.0616C19.1245 16.0616 19.4669 15.9719 19.7681 15.814V19.7329H23.3673C23.0615 19.2865 22.8821 18.7461 22.8821 18.1634C22.882 16.631 24.1451 15.3751 25.6725 15.3881C27.1893 15.4011 28.415 16.6386 28.415 18.1633C28.415 18.746 28.2356 19.2864 27.9298 19.7329H31.529V9.29945C31.529 8.54563 30.9198 7.93457 30.1684 7.93457H20.119C19.9253 7.93451 19.7682 8.09157 19.7682 8.28532Z" stroke="black" stroke-miterlimit="10" stroke-linecap="round" stroke-linejoin="round"/>
<path d="M17.5625 9.22967V7.06705L20.5612 4.06836H27.25" stroke="black" stroke-miterlimit="10" stroke-linecap="round" stroke-linejoin="round"/>
<path d="M28.4784 5.2615C29.1374 5.2615 29.6717 4.72726 29.6717 4.06825C29.6717 3.40924 29.1374 2.875 28.4784 2.875C27.8194 2.875 27.2852 3.40924 27.2852 4.06825C27.2852 4.72726 27.8194 5.2615 28.4784 5.2615Z" stroke="black" stroke-miterlimit="10" stroke-linecap="round" stroke-linejoin="round"/>
<path d="M15.4297 9.97949V2.85449" stroke="black" stroke-miterlimit="10" stroke-linecap="round" stroke-linejoin="round"/>
<path d="M15.4315 2.85525C16.0905 2.85525 16.6248 2.32101 16.6248 1.662C16.6248 1.00299 16.0905 0.46875 15.4315 0.46875C14.7725 0.46875 14.2383 1.00299 14.2383 1.662C14.2383 2.32101 14.7725 2.85525 15.4315 2.85525Z" stroke="black" stroke-miterlimit="10" stroke-linecap="round" stroke-linejoin="round"/>
<path d="M12.5625 20.5V18L11 16.4375" stroke="black" stroke-miterlimit="10" stroke-linecap="round" stroke-linejoin="round"/>
<path d="M10.1581 16.7869C10.8171 16.7869 11.3513 16.2527 11.3513 15.5936C11.3513 14.9346 10.8171 14.4004 10.1581 14.4004C9.49908 14.4004 8.96484 14.9346 8.96484 15.5936C8.96484 16.2527 9.49908 16.7869 10.1581 16.7869Z" stroke="black" stroke-miterlimit="10" stroke-linecap="round" stroke-linejoin="round"/>
</g>
<defs>
<clipPath id="clip0_1907_4610">
<rect width="32" height="32" fill="white"/>
</clipPath>
</defs>
</svg>
