<svg width="32" height="32" viewBox="0 0 32 32" fill="none" xmlns="http://www.w3.org/2000/svg">
<g clip-path="url(#clip0_1907_6851)">
<path d="M15.9986 12.6963C13.1002 12.6963 10.7422 15.0543 10.7422 17.9528C10.7422 20.8514 13.1002 23.2097 15.9986 23.2097C18.8971 23.2097 21.2553 20.8514 21.2553 17.9528C21.2552 15.0543 18.8971 12.6963 15.9986 12.6963Z" fill="#E0EBFC"/>
<path d="M23.7777 16.0175H22.2023C22.0859 15.6455 21.9352 15.2826 21.7534 14.9373L22.8683 13.8223C23.0184 13.6721 23.1013 13.4724 23.1013 13.26C23.1013 13.0476 23.0185 12.848 22.8683 12.6978L21.2549 11.0844C21.1048 10.9343 20.905 10.8515 20.6927 10.8515C20.4804 10.8515 20.2807 10.9343 20.1305 11.0844L19.0157 12.1994C18.6703 12.0176 18.3073 11.8669 17.9353 11.7505V10.175C17.9353 9.73651 17.5787 9.37988 17.1402 9.37988H14.8585C14.42 9.37988 14.0634 9.73651 14.0634 10.175V11.7504C13.6917 11.8668 13.3287 12.0175 12.983 12.1993L11.8682 11.0843C11.718 10.9341 11.5183 10.8514 11.306 10.8514C11.0937 10.8514 10.8939 10.9341 10.7437 11.0843L9.13028 12.6976C8.98016 12.8479 8.89728 13.0475 8.89728 13.2599C8.89728 13.4723 8.98003 13.672 9.13028 13.8221L10.2452 14.9371C10.0634 15.2825 9.91266 15.6455 9.79628 16.0174H8.22091C7.78241 16.0174 7.42578 16.374 7.42578 16.8125V19.0941C7.42578 19.5325 7.78241 19.8893 8.22091 19.8893H9.79628C9.91266 20.2613 10.0634 20.6241 10.2452 20.9695L9.13028 22.0844C8.98016 22.2346 8.89728 22.4343 8.89728 22.6466C8.89728 22.8591 8.98003 23.0588 9.13028 23.2089L10.7437 24.8223C10.8938 24.9725 11.0935 25.0551 11.306 25.0551C11.5183 25.0551 11.718 24.9725 11.8682 24.8223L12.983 23.7073C13.3285 23.889 13.6914 24.0399 14.0634 24.1561V25.7315C14.0634 26.1699 14.42 26.5266 14.8585 26.5266H17.1402C17.5787 26.5266 17.9353 26.1699 17.9353 25.7315V24.1564C18.307 24.04 18.67 23.8893 19.0157 23.7075L20.1305 24.8225C20.2807 24.9728 20.4804 25.0554 20.6927 25.0554C20.905 25.0554 21.1048 24.9728 21.2549 24.8225L22.8683 23.2091C23.0184 23.059 23.1013 22.8593 23.1013 22.6469C23.1013 22.4345 23.0185 22.2349 22.8683 22.0848L21.7534 20.9698C21.9352 20.6243 22.0859 20.2614 22.2023 19.8895H23.7777C24.2162 19.8895 24.5728 19.5328 24.5728 19.0944V16.8126C24.5728 16.3741 24.2162 16.0175 23.7777 16.0175ZM15.999 22.333C13.5844 22.333 11.6198 20.3683 11.6198 17.9533C11.6198 15.5385 13.5844 13.5739 15.999 13.5739C18.4139 13.5739 20.3788 15.5385 20.3788 17.9533C20.3788 20.3683 18.4139 22.333 15.999 22.333Z" fill="#F9A7A7"/>
<path d="M17.14 26.7769H14.8584C14.2822 26.7769 13.8133 26.308 13.8133 25.7318V24.3375C13.5465 24.246 13.2847 24.1371 13.0314 24.0126L12.0448 24.9993C11.8474 25.1966 11.585 25.3054 11.3058 25.3054C11.0264 25.3054 10.7639 25.1966 10.5667 24.9993L8.95341 23.386C8.75591 23.1886 8.64728 22.9261 8.64728 22.6469C8.64728 22.3679 8.75603 22.1055 8.95341 21.9079L9.94003 20.9213C9.81566 20.668 9.70691 20.4063 9.61516 20.1394H8.22091C7.64466 20.1394 7.17578 19.6706 7.17578 19.0944V16.8126C7.17578 16.2364 7.64453 15.7675 8.22091 15.7675H9.61528C9.70691 15.5005 9.81578 15.2388 9.94016 14.9856L8.95353 13.9989C8.75603 13.8015 8.64741 13.539 8.64741 13.2599C8.64741 12.9809 8.75616 12.7185 8.95353 12.5209L10.5669 10.9075C10.7644 10.7101 11.0269 10.6015 11.306 10.6015C11.5849 10.6015 11.8474 10.7101 12.0449 10.9074L13.0315 11.8943C13.2852 11.7696 13.5469 11.6609 13.8134 11.5694V10.1749C13.8134 9.59863 14.2823 9.12988 14.8585 9.12988H17.1402C17.7164 9.12988 18.1853 9.59863 18.1853 10.1749V11.5693C18.452 11.6608 18.7139 11.7696 18.9672 11.8941L19.9538 10.9074C20.1514 10.71 20.4138 10.6014 20.6928 10.6014C20.9719 10.6014 21.2344 10.71 21.4318 10.9073L23.0452 12.5208C23.2427 12.7184 23.3513 12.9808 23.3513 13.2598C23.3513 13.5389 23.2425 13.8014 23.0452 13.9988L22.0585 14.9855C22.1829 15.2385 22.2917 15.5004 22.3834 15.7674H23.7778C24.354 15.7674 24.8229 16.2363 24.8229 16.8125V19.0941C24.8229 19.6704 24.3542 20.1391 23.7778 20.1391H22.3834C22.2917 20.4061 22.1829 20.6678 22.0585 20.921L23.0452 21.9078C23.2427 22.1051 23.3513 22.3676 23.3513 22.6466C23.3513 22.9259 23.2425 23.1884 23.0452 23.3858L21.4318 24.999C21.2345 25.1964 20.972 25.3051 20.6927 25.3051C20.4135 25.3051 20.151 25.1964 19.9537 24.999L18.9672 24.0124C18.7138 24.1368 18.452 24.2455 18.1853 24.3373V25.7315C18.1853 26.308 17.7164 26.7769 17.14 26.7769ZM12.983 23.4575C13.0227 23.4575 13.0627 23.4669 13.0994 23.4863C13.431 23.6608 13.7805 23.8059 14.138 23.9176C14.2423 23.9504 14.3134 24.0469 14.3134 24.1563V25.7316C14.3134 26.0323 14.558 26.2768 14.8585 26.2768H17.1402C17.4408 26.2768 17.6853 26.0323 17.6853 25.7316V24.1564C17.6853 24.0471 17.7563 23.9505 17.8607 23.9178C18.218 23.8059 18.5674 23.6608 18.8993 23.4863C18.9964 23.4356 19.1152 23.4534 19.1924 23.5308L20.3073 24.6456C20.4103 24.7486 20.547 24.8053 20.6927 24.8053C20.8384 24.8053 20.9753 24.7486 21.0782 24.6456L22.6915 23.0324C22.7945 22.9294 22.8512 22.7924 22.8512 22.6468C22.8512 22.5013 22.7944 22.3644 22.6915 22.2614L21.5767 21.1464C21.4992 21.069 21.4812 20.9501 21.5322 20.8531C21.7065 20.5219 21.8518 20.1724 21.9638 19.8145C21.9964 19.7103 22.093 19.6393 22.2024 19.6393H23.7778C24.0784 19.6393 24.3229 19.3948 24.3229 19.0943V16.8126C24.3229 16.512 24.0784 16.2675 23.7778 16.2675H22.2024C22.093 16.2675 21.9965 16.1965 21.9638 16.0923C21.8518 15.7344 21.7065 15.3849 21.5322 15.0536C21.4812 14.9568 21.4992 14.8378 21.5767 14.7604L22.6915 13.6454C22.7945 13.5424 22.8512 13.4055 22.8512 13.2599C22.8512 13.1144 22.7944 12.9774 22.6914 12.8744L21.0782 11.261C20.9752 11.1581 20.8383 11.1015 20.6927 11.1015C20.5472 11.1015 20.4103 11.1583 20.3072 11.2611L19.1924 12.376C19.1149 12.4535 18.996 12.4715 18.8993 12.4204C18.5677 12.2459 18.2182 12.1008 17.8607 11.989C17.7564 11.9563 17.6853 11.8598 17.6853 11.7504V10.1749C17.6853 9.87438 17.4407 9.62988 17.1402 9.62988H14.8585C14.5579 9.62988 14.3134 9.87438 14.3134 10.1749V11.7504C14.3134 11.8598 14.2424 11.9563 14.138 11.989C13.7813 12.1005 13.4319 12.2458 13.0995 12.4205C13.0025 12.4715 12.8838 12.4535 12.8064 12.376L11.6915 11.261C11.5885 11.1583 11.4517 11.1015 11.3062 11.1015C11.1605 11.1015 11.0235 11.1581 10.9205 11.2611L9.30728 12.8744C9.20441 12.9774 9.14766 13.1144 9.14766 13.2599C9.14766 13.4055 9.20441 13.5424 9.30728 13.6454L10.4222 14.7604C10.4997 14.8378 10.5177 14.9566 10.4667 15.0536C10.2922 15.3849 10.147 15.7344 10.035 16.0923C10.0024 16.1965 9.90578 16.2675 9.79641 16.2675H8.22091C7.92028 16.2675 7.67578 16.512 7.67578 16.8126V19.0943C7.67578 19.3948 7.92028 19.6393 8.22091 19.6393H9.79628C9.90566 19.6393 10.0022 19.7103 10.0349 19.8145C10.1468 20.172 10.292 20.5215 10.4665 20.8531C10.5175 20.95 10.4995 21.069 10.422 21.1464L9.30716 22.2613C9.20428 22.3643 9.14753 22.5013 9.14753 22.6468C9.14753 22.7924 9.20428 22.9294 9.30716 23.0324L10.9205 24.6456C11.0235 24.7486 11.1603 24.8053 11.306 24.8053C11.4517 24.8053 11.5885 24.7486 11.6914 24.6456L12.8063 23.5308C12.8543 23.4826 12.9183 23.4575 12.983 23.4575Z" fill="#3762CC"/>
<path d="M17.14 26.7769H14.8584C14.2822 26.7769 13.8133 26.308 13.8133 25.7318V24.3375C13.5465 24.246 13.2847 24.1371 13.0314 24.0126L12.0448 24.9993C11.8474 25.1966 11.585 25.3054 11.3058 25.3054C11.0264 25.3054 10.7639 25.1966 10.5667 24.9993L8.95341 23.386C8.75591 23.1886 8.64728 22.9261 8.64728 22.6469C8.64728 22.3679 8.75603 22.1055 8.95341 21.9079L9.94003 20.9213C9.81566 20.668 9.70691 20.4063 9.61516 20.1394H8.22091C7.64466 20.1394 7.17578 19.6706 7.17578 19.0944V16.8126C7.17578 16.2364 7.64453 15.7675 8.22091 15.7675H9.61528C9.70691 15.5005 9.81578 15.2388 9.94016 14.9856L8.95353 13.9989C8.75603 13.8015 8.64741 13.539 8.64741 13.2599C8.64741 12.9809 8.75616 12.7185 8.95353 12.5209L10.5669 10.9075C10.7644 10.7101 11.0269 10.6015 11.306 10.6015C11.5849 10.6015 11.8474 10.7101 12.0449 10.9074L13.0315 11.8943C13.2852 11.7696 13.5469 11.6609 13.8134 11.5694V10.1749C13.8134 9.59863 14.2823 9.12988 14.8585 9.12988H17.1402C17.7164 9.12988 18.1853 9.59863 18.1853 10.1749V11.5693C18.452 11.6608 18.7139 11.7696 18.9672 11.8941L19.9538 10.9074C20.1514 10.71 20.4138 10.6014 20.6928 10.6014C20.9719 10.6014 21.2344 10.71 21.4318 10.9073L23.0452 12.5208C23.2427 12.7184 23.3513 12.9808 23.3513 13.2598C23.3513 13.5389 23.2425 13.8014 23.0452 13.9988L22.0585 14.9855C22.1829 15.2385 22.2917 15.5004 22.3834 15.7674H23.7778C24.354 15.7674 24.8229 16.2363 24.8229 16.8125V19.0941C24.8229 19.6704 24.3542 20.1391 23.7778 20.1391H22.3834C22.2917 20.4061 22.1829 20.6678 22.0585 20.921L23.0452 21.9078C23.2427 22.1051 23.3513 22.3676 23.3513 22.6466C23.3513 22.9259 23.2425 23.1884 23.0452 23.3858L21.4318 24.999C21.2345 25.1964 20.972 25.3051 20.6927 25.3051C20.4135 25.3051 20.151 25.1964 19.9537 24.999L18.9672 24.0124C18.7138 24.1368 18.452 24.2455 18.1853 24.3373V25.7315C18.1853 26.308 17.7164 26.7769 17.14 26.7769ZM12.983 23.4575C13.0227 23.4575 13.0627 23.4669 13.0994 23.4863C13.431 23.6608 13.7805 23.8059 14.138 23.9176C14.2423 23.9504 14.3134 24.0469 14.3134 24.1563V25.7316C14.3134 26.0323 14.558 26.2768 14.8585 26.2768H17.1402C17.4408 26.2768 17.6853 26.0323 17.6853 25.7316V24.1564C17.6853 24.0471 17.7563 23.9505 17.8607 23.9178C18.218 23.8059 18.5674 23.6608 18.8993 23.4863C18.9964 23.4356 19.1152 23.4534 19.1924 23.5308L20.3073 24.6456C20.4103 24.7486 20.547 24.8053 20.6927 24.8053C20.8384 24.8053 20.9753 24.7486 21.0782 24.6456L22.6915 23.0324C22.7945 22.9294 22.8512 22.7924 22.8512 22.6468C22.8512 22.5013 22.7944 22.3644 22.6915 22.2614L21.5767 21.1464C21.4992 21.069 21.4812 20.9501 21.5322 20.8531C21.7065 20.5219 21.8518 20.1724 21.9638 19.8145C21.9964 19.7103 22.093 19.6393 22.2024 19.6393H23.7778C24.0784 19.6393 24.3229 19.3948 24.3229 19.0943V16.8126C24.3229 16.512 24.0784 16.2675 23.7778 16.2675H22.2024C22.093 16.2675 21.9965 16.1965 21.9638 16.0923C21.8518 15.7344 21.7065 15.3849 21.5322 15.0536C21.4812 14.9568 21.4992 14.8378 21.5767 14.7604L22.6915 13.6454C22.7945 13.5424 22.8512 13.4055 22.8512 13.2599C22.8512 13.1144 22.7944 12.9774 22.6914 12.8744L21.0782 11.261C20.9752 11.1581 20.8383 11.1015 20.6927 11.1015C20.5472 11.1015 20.4103 11.1583 20.3072 11.2611L19.1924 12.376C19.1149 12.4535 18.996 12.4715 18.8993 12.4204C18.5677 12.2459 18.2182 12.1008 17.8607 11.989C17.7564 11.9563 17.6853 11.8598 17.6853 11.7504V10.1749C17.6853 9.87438 17.4407 9.62988 17.1402 9.62988H14.8585C14.5579 9.62988 14.3134 9.87438 14.3134 10.1749V11.7504C14.3134 11.8598 14.2424 11.9563 14.138 11.989C13.7813 12.1005 13.4319 12.2458 13.0995 12.4205C13.0025 12.4715 12.8838 12.4535 12.8064 12.376L11.6915 11.261C11.5885 11.1583 11.4517 11.1015 11.3062 11.1015C11.1605 11.1015 11.0235 11.1581 10.9205 11.2611L9.30728 12.8744C9.20441 12.9774 9.14766 13.1144 9.14766 13.2599C9.14766 13.4055 9.20441 13.5424 9.30728 13.6454L10.4222 14.7604C10.4997 14.8378 10.5177 14.9566 10.4667 15.0536C10.2922 15.3849 10.147 15.7344 10.035 16.0923C10.0024 16.1965 9.90578 16.2675 9.79641 16.2675H8.22091C7.92028 16.2675 7.67578 16.512 7.67578 16.8126V19.0943C7.67578 19.3948 7.92028 19.6393 8.22091 19.6393H9.79628C9.90566 19.6393 10.0022 19.7103 10.0349 19.8145C10.1468 20.172 10.292 20.5215 10.4665 20.8531C10.5175 20.95 10.4995 21.069 10.422 21.1464L9.30716 22.2613C9.20428 22.3643 9.14753 22.5013 9.14753 22.6468C9.14753 22.7924 9.20428 22.9294 9.30716 23.0324L10.9205 24.6456C11.0235 24.7486 11.1603 24.8053 11.306 24.8053C11.4517 24.8053 11.5885 24.7486 11.6914 24.6456L12.8063 23.5308C12.8543 23.4826 12.9183 23.4575 12.983 23.4575Z" fill="#3762CC"/>
<path d="M16.0005 22.5832C13.4478 22.5832 11.3711 20.5063 11.3711 17.9536C11.3711 15.401 13.4478 13.3242 16.0005 13.3242C18.5532 13.3242 20.6302 15.401 20.6302 17.9536C20.6301 20.5063 18.5532 22.5832 16.0005 22.5832ZM16.0005 13.8242C13.7236 13.8242 11.8711 15.6766 11.8711 17.9536C11.8711 20.2307 13.7235 22.0832 16.0005 22.0832C18.2776 22.0832 20.1302 20.2307 20.1302 17.9536C20.1301 15.6766 18.2775 13.8242 16.0005 13.8242Z" fill="#3762CC"/>
<path d="M15.9986 12.6963C13.1002 12.6963 10.7422 15.0543 10.7422 17.9528C10.7422 20.8514 13.1002 23.2097 15.9986 23.2097C18.8971 23.2097 21.2553 20.8514 21.2553 17.9528C21.2552 15.0543 18.8971 12.6963 15.9986 12.6963ZM15.9984 22.0259C13.7528 22.0259 11.9257 20.1987 11.9257 17.9528C11.9257 15.707 13.7528 13.8799 15.9984 13.8799C18.2443 13.8799 20.0716 15.707 20.0716 17.9528C20.0716 20.1987 18.2443 22.0259 15.9984 22.0259Z" fill="#F9CFCF"/>
<path d="M14.7494 19.964C14.7209 19.964 14.6923 19.962 14.6637 19.9579C14.4895 19.9329 14.3348 19.8334 14.2398 19.6854L13.1192 17.9366C12.9388 17.6552 13.0208 17.2809 13.3023 17.1005C13.5833 16.9201 13.958 17.0021 14.1384 17.2835L14.8809 18.442L17.5799 16.0921C17.832 15.8726 18.2143 15.8991 18.4337 16.1511C18.6532 16.4032 18.6268 16.7855 18.3747 17.0049L15.1469 19.8151C15.0359 19.9119 14.8945 19.964 14.7494 19.964Z" fill="#6BDDDD"/>
<path d="M15.9986 23.4597C12.9623 23.4597 10.4922 20.9893 10.4922 17.9528C10.4922 14.9165 12.9623 12.4463 15.9986 12.4463C19.0351 12.4463 21.5053 14.9165 21.5053 17.9528C21.5052 20.9893 19.0349 23.4597 15.9986 23.4597ZM15.9986 12.9463C13.2381 12.9463 10.9922 15.1922 10.9922 17.9528C10.9922 20.7135 13.2381 22.9597 15.9986 22.9597C18.7593 22.9597 21.0053 20.7135 21.0053 17.9528C21.0052 15.1922 18.7592 12.9463 15.9986 12.9463ZM15.9986 22.2759C13.6151 22.2759 11.6758 20.3365 11.6758 17.9528C11.6758 15.5692 13.6151 13.6299 15.9986 13.6299C18.3823 13.6299 20.3217 15.5692 20.3217 17.9528C20.3216 20.3365 18.3823 22.2759 15.9986 22.2759ZM15.9986 14.1299C13.8907 14.1299 12.1758 15.8449 12.1758 17.9528C12.1758 20.0608 13.8907 21.7759 15.9986 21.7759C18.1067 21.7759 19.8217 20.0608 19.8217 17.9528C19.8216 15.8449 18.1066 14.1299 15.9986 14.1299Z" fill="#3762CC"/>
<path d="M14.7496 20.2133C14.7086 20.2133 14.6677 20.2104 14.6279 20.2047C14.3821 20.1695 14.1638 20.0292 14.0294 19.8195L12.9088 18.0709C12.7856 17.8785 12.7447 17.6498 12.7936 17.4266C12.8424 17.2035 12.9753 17.0127 13.1677 16.8894C13.3597 16.7663 13.5886 16.725 13.8117 16.7742C14.0349 16.823 14.2258 16.9558 14.3491 17.148L14.9352 18.0627L17.4157 15.9029C17.5879 15.753 17.8081 15.6777 18.0363 15.6948C18.2642 15.7105 18.4722 15.8142 18.6223 15.9864C18.7722 16.1587 18.8462 16.379 18.8304 16.6069C18.8147 16.8348 18.7112 17.0429 18.5389 17.1929L15.3113 20.0033C15.1556 20.1387 14.9561 20.2133 14.7496 20.2133ZM13.6281 17.2542C13.5609 17.2542 13.4952 17.2731 13.4374 17.3103C13.3573 17.3615 13.3022 17.4408 13.2819 17.5334C13.2617 17.626 13.2787 17.7212 13.3298 17.801L14.4504 19.5497C14.5062 19.6367 14.5968 19.695 14.6992 19.7097C14.8049 19.7248 14.9058 19.693 14.9828 19.6259L18.2104 16.8156C18.2819 16.7534 18.3249 16.667 18.3316 16.5724C18.3381 16.4776 18.3074 16.3863 18.2452 16.3147C18.1828 16.243 18.0964 16.2 18.0018 16.1934C17.9067 16.1869 17.8156 16.2175 17.7441 16.2799L15.0452 18.6298C14.9904 18.6774 14.9176 18.6988 14.8456 18.6887C14.7737 18.6784 14.7098 18.6373 14.6706 18.5761L13.9282 17.4177C13.8771 17.3378 13.7978 17.2827 13.7049 17.2624C13.6792 17.2569 13.6536 17.2542 13.6281 17.2542Z" fill="#3762CC"/>
<path d="M16 30.6406H1.75V27.625C1.75 27.4179 1.91788 27.25 2.125 27.25H13.8438C15.0346 27.25 16 28.2154 16 29.4062V30.6406Z" fill="#E0EBFC"/>
<path d="M16 30.6406H30.25V27.625C30.25 27.4179 30.0821 27.25 29.875 27.25H18.1562C16.9654 27.25 16 28.2154 16 29.4062V30.6406Z" fill="#E0EBFC"/>
<path d="M16 30.8906H1.75C1.612 30.8906 1.5 30.7786 1.5 30.6406V27.625C1.5 27.2804 1.78038 27 2.125 27H13.8438C15.1705 27 16.25 28.0795 16.25 29.4062V30.6406C16.25 30.7786 16.138 30.8906 16 30.8906ZM2 30.3906H15.75V29.4062C15.75 28.3551 14.8949 27.5 13.8438 27.5H2.125C2.05612 27.5 2 27.556 2 27.625V30.3906Z" fill="#3762CC"/>
<path d="M30.25 30.8906H16C15.862 30.8906 15.75 30.7786 15.75 30.6406V29.4062C15.75 28.0795 16.8295 27 18.1562 27H29.875C30.2196 27 30.5 27.2804 30.5 27.625V30.6406C30.5 30.7786 30.388 30.8906 30.25 30.8906ZM16.25 30.3906H30V27.625C30 27.556 29.9439 27.5 29.875 27.5H18.1562C17.1051 27.5 16.25 28.3551 16.25 29.4062V30.3906Z" fill="#3762CC"/>
<path d="M16 31.625H1.29688C0.75325 31.625 0.3125 31.1842 0.3125 30.6406C0.3125 30.097 0.75325 29.6562 1.29688 29.6562H16V31.625Z" fill="#4671C6"/>
<path d="M30.7031 31.625H16V29.6562H30.7031C31.2467 29.6562 31.6875 30.097 31.6875 30.6406C31.6875 31.1842 31.2467 31.625 30.7031 31.625Z" fill="#4671C6"/>
<path d="M16 31.875H1.29688C0.61625 31.875 0.0625 31.3212 0.0625 30.6406C0.0625 29.96 0.61625 29.4062 1.29688 29.4062H16C16.138 29.4062 16.25 29.5183 16.25 29.6562V31.625C16.25 31.763 16.138 31.875 16 31.875ZM1.29688 29.9062C0.892 29.9062 0.5625 30.2357 0.5625 30.6406C0.5625 31.0455 0.892 31.375 1.29688 31.375H15.75V29.9062H1.29688Z" fill="#3762CC"/>
<path d="M30.7031 31.875H16C15.862 31.875 15.75 31.763 15.75 31.625V29.6562C15.75 29.5183 15.862 29.4062 16 29.4062H30.7031C31.3837 29.4062 31.9375 29.96 31.9375 30.6406C31.9375 31.3212 31.3837 31.875 30.7031 31.875ZM16.25 31.375H30.7031C31.108 31.375 31.4375 31.0455 31.4375 30.6406C31.4375 30.2357 31.108 29.9062 30.7031 29.9062H16.25V31.375Z" fill="#3762CC"/>
<path d="M11.4739 28.708H1.75C1.612 28.708 1.5 28.596 1.5 28.458C1.5 28.32 1.612 28.208 1.75 28.208H11.4739C11.6119 28.208 11.7239 28.32 11.7239 28.458C11.7239 28.596 11.6119 28.708 11.4739 28.708Z" fill="#3762CC"/>
<path d="M30.2512 28.708H20.5273C20.3893 28.708 20.2773 28.596 20.2773 28.458C20.2773 28.32 20.3893 28.208 20.5273 28.208H30.2512C30.3892 28.208 30.5012 28.32 30.5012 28.458C30.5012 28.596 30.3892 28.708 30.2512 28.708Z" fill="#3762CC"/>
<path d="M7.42575 15.0625H4.8125C4.57088 15.0625 4.375 14.8666 4.375 14.625V5.875C4.375 5.63338 4.57088 5.4375 4.8125 5.4375C5.05413 5.4375 5.25 5.63338 5.25 5.875V14.1875H7.42575C7.66737 14.1875 7.86325 14.3834 7.86325 14.625C7.86325 14.8666 7.66737 15.0625 7.42575 15.0625Z" fill="#6BDDDD"/>
<path d="M16 8.875C15.7584 8.875 15.5625 8.67913 15.5625 8.4375V5.875C15.5625 5.63338 15.7584 5.4375 16 5.4375C16.2416 5.4375 16.4375 5.63338 16.4375 5.875V8.4375C16.4375 8.67913 16.2416 8.875 16 8.875Z" fill="#6BDDDD"/>
<path d="M27.1875 15.0625H24.5742C24.3326 15.0625 24.1367 14.8666 24.1367 14.625C24.1367 14.3834 24.3326 14.1875 24.5742 14.1875H26.75V5.875C26.75 5.63338 26.9458 5.4375 27.1875 5.4375C27.4291 5.4375 27.625 5.63338 27.625 5.875V14.625C27.625 14.8666 27.4291 15.0625 27.1875 15.0625Z" fill="#6BDDDD"/>
<path d="M18.9162 6.74992H13.0859C12.5337 6.74992 12.0859 6.30217 12.0859 5.74992V1.82617C12.0859 1.27392 12.5337 0.826172 13.0859 0.826172H18.9162C19.4684 0.826172 19.9162 1.27392 19.9162 1.82617V5.74992C19.9162 6.30217 19.4684 6.74992 18.9162 6.74992Z" fill="#E0EBFC"/>
<path d="M7.72869 6.74992H1.89844C1.34619 6.74992 0.898438 6.30217 0.898438 5.74992V1.82617C0.898438 1.27392 1.34619 0.826172 1.89844 0.826172H7.72869C8.28094 0.826172 8.72869 1.27392 8.72869 1.82617V5.74992C8.72869 6.30217 8.28094 6.74992 7.72869 6.74992Z" fill="#E0EBFC"/>
<path d="M30.1037 6.74992H24.2734C23.7212 6.74992 23.2734 6.30217 23.2734 5.74992V1.82617C23.2734 1.27392 23.7212 0.826172 24.2734 0.826172H30.1037C30.6559 0.826172 31.1037 1.27392 31.1037 1.82617V5.74992C31.1037 6.30217 30.6559 6.74992 30.1037 6.74992Z" fill="#E0EBFC"/>
<path d="M18.9162 6.99992H13.0859C12.3967 6.99992 11.8359 6.43917 11.8359 5.74992V1.82617C11.8359 1.13692 12.3967 0.576172 13.0859 0.576172H18.9162C19.6054 0.576172 20.1662 1.13692 20.1662 1.82617V5.74992C20.1662 6.43917 19.6054 6.99992 18.9162 6.99992ZM13.0859 1.07617C12.6723 1.07617 12.3359 1.41255 12.3359 1.82617V5.74992C12.3359 6.16355 12.6723 6.49992 13.0859 6.49992H18.9162C19.3298 6.49992 19.6662 6.16355 19.6662 5.74992V1.82617C19.6662 1.41255 19.3298 1.07617 18.9162 1.07617H13.0859Z" fill="#3762CC"/>
<path d="M7.72869 6.99992H1.89844C1.20919 6.99992 0.648438 6.43917 0.648438 5.74992V1.82617C0.648438 1.13692 1.20919 0.576172 1.89844 0.576172H7.72869C8.41794 0.576172 8.97869 1.13692 8.97869 1.82617V5.74992C8.97869 6.43917 8.41794 6.99992 7.72869 6.99992ZM1.89844 1.07617C1.48481 1.07617 1.14844 1.41255 1.14844 1.82617V5.74992C1.14844 6.16355 1.48481 6.49992 1.89844 6.49992H7.72869C8.14231 6.49992 8.47869 6.16355 8.47869 5.74992V1.82617C8.47869 1.41255 8.14231 1.07617 7.72869 1.07617H1.89844Z" fill="#3762CC"/>
<path d="M30.1037 6.99992H24.2734C23.5842 6.99992 23.0234 6.43917 23.0234 5.74992V1.82617C23.0234 1.13692 23.5842 0.576172 24.2734 0.576172H30.1037C30.7929 0.576172 31.3537 1.13692 31.3537 1.82617V5.74992C31.3537 6.43917 30.7929 6.99992 30.1037 6.99992ZM24.2734 1.07617C23.8598 1.07617 23.5234 1.41255 23.5234 1.82617V5.74992C23.5234 6.16355 23.8598 6.49992 24.2734 6.49992H30.1037C30.5173 6.49992 30.8537 6.16355 30.8537 5.74992V1.82617C30.8537 1.41255 30.5173 1.07617 30.1037 1.07617H24.2734Z" fill="#3762CC"/>
<path d="M5.91141 5.34827H3.71628C3.46091 5.34827 3.25391 5.14127 3.25391 4.88589V2.69089C3.25391 2.43552 3.46091 2.22852 3.71628 2.22852H5.91141C6.16678 2.22852 6.37378 2.43552 6.37378 2.69089V4.88602C6.37378 5.14127 6.16678 5.34827 5.91141 5.34827Z" fill="#4671C6"/>
<path d="M16.0013 5.34827C16.8628 5.34827 17.5612 4.64989 17.5612 3.78839C17.5612 2.9269 16.8628 2.22852 16.0013 2.22852C15.1398 2.22852 14.4414 2.9269 14.4414 3.78839C14.4414 4.64989 15.1398 5.34827 16.0013 5.34827Z" fill="#A4C9FF"/>
<path d="M25.86 5.34836H28.5115C28.8085 5.34836 28.9876 4.98236 28.8265 4.70473L27.5008 2.41948C27.353 2.16486 27.0184 2.16486 26.8706 2.41948L25.5449 4.70473C25.3839 4.98248 25.563 5.34836 25.86 5.34836Z" fill="#F9A7A7"/>
<path d="M5.91128 5.59839H3.71628C3.32341 5.59839 3.00391 5.27877 3.00391 4.88602V2.69089C3.00391 2.29802 3.32353 1.97852 3.71628 1.97852H5.91141C6.30428 1.97852 6.62378 2.29814 6.62378 2.69089V4.88602C6.62366 5.27889 6.30416 5.59839 5.91128 5.59839ZM3.71628 2.47852C3.59916 2.47852 3.50391 2.57389 3.50391 2.69089V4.88602C3.50391 5.00314 3.59916 5.09839 3.71628 5.09839H5.91141C6.02853 5.09839 6.12378 5.00302 6.12378 4.88602V2.69089C6.12378 2.57377 6.02853 2.47852 5.91141 2.47852H3.71628Z" fill="#3762CC"/>
<path d="M16.0013 5.59839C15.0033 5.59839 14.1914 4.78652 14.1914 3.78852C14.1914 2.79052 15.0033 1.97852 16.0013 1.97852C16.9993 1.97852 17.8112 2.79039 17.8112 3.78839C17.8112 4.78639 16.9993 5.59839 16.0013 5.59839ZM16.0013 2.47852C15.279 2.47852 14.6914 3.06614 14.6914 3.78839C14.6914 4.51064 15.279 5.09839 16.0013 5.09839C16.7235 5.09839 17.3112 4.51077 17.3112 3.78852C17.3112 3.06627 16.7235 2.47852 16.0013 2.47852Z" fill="#3762CC"/>
<path d="M28.5114 5.59827H25.8599C25.6411 5.59827 25.4422 5.47989 25.3279 5.28152C25.2029 5.06464 25.2032 4.79539 25.3287 4.57914L26.6544 2.29402C26.7691 2.09652 26.9677 1.97852 27.1857 1.97852C27.4038 1.97864 27.6023 2.09652 27.7169 2.29402L29.0427 4.57914C29.1681 4.79539 29.1683 5.06464 29.0434 5.28152C28.9292 5.47989 28.7303 5.59827 28.5114 5.59827ZM27.1857 2.47839C27.1468 2.47839 27.1117 2.50202 27.0868 2.54489L25.7611 4.83002C25.7181 4.90414 25.7328 4.98289 25.7611 5.03189C25.7753 5.05664 25.8072 5.09814 25.8598 5.09814H28.5114C28.5641 5.09814 28.5959 5.05664 28.6102 5.03189C28.6384 4.98277 28.6533 4.90414 28.6102 4.83002L27.2844 2.54489C27.2597 2.50214 27.2246 2.47852 27.1857 2.47839Z" fill="#3762CC"/>
</g>
<defs>
<clipPath id="clip0_1907_6851">
<rect width="32" height="32" fill="white"/>
</clipPath>
</defs>
</svg>
