<svg width="94" height="94" viewBox="0 0 94 94" fill="none" xmlns="http://www.w3.org/2000/svg">
<circle cx="47" cy="47" r="47" fill="#F7F7FF"/>
<path d="M31.8221 55.3324L30.1008 56.7837C29.9996 56.868 29.8646 56.9018 29.738 56.8765C29.6115 56.8512 29.5018 56.7668 29.4427 56.6487C24.8274 47.6121 27.9071 36.4662 36.4543 31.0662L34.5558 27.6152C23.8402 34.2387 20.1952 48.4052 26.4643 59.4162C26.5655 59.5934 26.5233 59.8212 26.3715 59.9562L24.3549 61.6606L32.9021 64.1834L31.8221 55.3324Z" fill="#689AFC"/>
<path d="M33.4057 65.2118C33.5069 65.2118 33.6082 65.1781 33.6841 65.1106C33.7938 65.0177 33.8529 64.8743 33.836 64.7309L32.5872 54.4456C32.5704 54.2937 32.4691 54.1587 32.3172 54.0996C32.1738 54.0406 32.005 54.0659 31.8869 54.1671L29.98 55.7702C25.8541 47.1049 28.9929 36.5665 37.2616 31.5799C37.4557 31.4618 37.5232 31.2087 37.4135 31.0062L35.11 26.8043C35.051 26.7031 34.9582 26.6271 34.8485 26.5934C34.7388 26.5596 34.6207 26.5765 34.5194 26.6356C23.1879 33.3434 19.2138 48.0331 25.5419 59.5249L23.1879 61.5162C23.0697 61.6174 23.0107 61.7777 23.0444 61.9296C23.0782 62.0815 23.1879 62.2081 23.3397 62.2502L33.2791 65.1865C33.2791 65.1865 33.3635 65.2034 33.3972 65.2034L33.4057 65.2118ZM26.3688 59.9552C26.5291 59.8202 26.5713 59.5924 26.4616 59.4152C20.1925 48.4043 23.8375 34.2377 34.5616 27.6143L36.46 31.0652C27.9129 36.4652 24.8332 47.6112 29.4485 56.6477C29.5075 56.7659 29.6172 56.8502 29.7438 56.8756C29.8704 56.9009 30.0054 56.8756 30.1066 56.7827L31.8279 55.3315L32.9079 64.1824L24.3607 61.6596L26.3772 59.9552H26.3688Z" fill="black"/>
<path d="M47.1192 24.0885C46.9083 24.0885 46.7395 23.9366 46.6973 23.7341L46.2164 21.127L39.7617 27.2695L47.963 30.7626L47.5664 28.552C47.5411 28.4254 47.5833 28.2904 47.6677 28.1891C47.752 28.0879 47.8955 28.0288 48.0136 28.0457C58.147 28.5688 66.2639 36.8207 66.6689 46.9204L70.6008 46.9879C70.2127 34.3823 59.7755 24.156 47.1192 24.097V24.0885Z" fill="#7BE250"/>
<path d="M47.4711 23.2355L46.9143 20.198C46.8889 20.0461 46.7708 19.9195 46.6274 19.8689C46.4755 19.8183 46.3152 19.8605 46.1971 19.9702L38.6877 27.1083C38.5865 27.2095 38.5358 27.353 38.5611 27.4964C38.5865 27.6398 38.6793 27.758 38.8143 27.817L48.3486 31.8755C48.4921 31.943 48.6608 31.9177 48.7874 31.8164C48.9139 31.7152 48.973 31.5633 48.9393 31.403L48.5005 28.9477C58.0686 29.7155 65.6286 37.7058 65.8143 47.3583C65.8143 47.5861 66.0083 47.7717 66.2361 47.7802L71.0202 47.8645C71.1299 47.8645 71.2396 47.8223 71.324 47.738C71.4083 47.6536 71.4505 47.5439 71.4505 47.4258C71.2986 34.2717 60.5661 23.497 47.4627 23.2523L47.4711 23.2355ZM66.658 46.9111C66.253 36.8114 58.1361 28.5595 48.0027 28.0364C47.8846 28.0195 47.7496 28.0786 47.6568 28.1798C47.5724 28.2811 47.5302 28.4077 47.5555 28.5427L47.9521 30.7533L39.7508 27.2602L46.2055 21.1177L46.6864 23.7248C46.7202 23.9273 46.8974 24.0792 47.1083 24.0792C59.7646 24.1383 70.2018 34.3645 70.5899 46.9702L66.658 46.9027V46.9111Z" fill="black"/>
<path d="M69.2684 55.7037L68.3066 51.6621L61.1769 57.0199L63.2947 57.7793C63.4213 57.8215 63.5141 57.9227 63.5563 58.0493C63.5984 58.1759 63.5816 58.3109 63.5141 58.4205C57.9959 66.9424 46.7909 69.8449 37.8472 65.1452L35.7969 68.5034C46.9091 74.4855 60.9997 70.5621 67.3869 59.6187C67.4881 59.4415 67.7075 59.3655 67.9016 59.433L70.3906 60.319L69.2853 55.7459C69.2853 55.7459 69.2853 55.7121 69.2853 55.6952L69.2684 55.7037Z" fill="#FC444D"/>
<path d="M70.11 55.5424L68.9878 50.8258C68.954 50.6824 68.8528 50.5727 68.7178 50.5221C68.5828 50.4714 68.4309 50.4968 68.3128 50.5811L60.0187 56.808C59.8922 56.9008 59.8331 57.0611 59.85 57.213C59.8669 57.3649 59.9765 57.4999 60.1284 57.5505L62.474 58.3943C57.0234 66.3002 46.3331 68.8568 37.8872 64.1908C37.6847 64.0811 37.4315 64.1486 37.3134 64.3427L34.8159 68.4349C34.7569 68.5361 34.74 68.6543 34.7653 68.7639C34.7906 68.8736 34.8665 68.9749 34.9678 69.0255C38.7225 71.1433 42.8231 72.1474 46.8815 72.1474C55.2178 72.1474 63.36 67.9118 67.9247 60.3518L70.8272 61.3896C70.979 61.4402 71.1394 61.4064 71.2575 61.3052C71.3756 61.2039 71.4262 61.0352 71.384 60.8833L70.1015 55.5761C70.1015 55.5761 70.1015 55.5424 70.1015 55.5255L70.11 55.5424ZM67.8909 59.4405C67.6969 59.373 67.4775 59.4405 67.3762 59.6261C60.989 70.5611 46.8984 74.4846 35.7862 68.5108L37.8365 65.1527C46.7719 69.8524 57.9769 66.9414 63.5034 58.428C63.5709 58.3183 63.5878 58.1833 63.5456 58.0568C63.5034 57.9302 63.4106 57.8374 63.284 57.7868L61.1662 57.0274L68.2959 51.6696L69.2578 55.7111C69.2578 55.7111 69.2578 55.7449 69.2578 55.7618L70.3631 60.3349L67.8741 59.4489L67.8909 59.4405Z" fill="black"/>
</svg>
