<svg width="32" height="32" viewBox="0 0 32 32" fill="none" xmlns="http://www.w3.org/2000/svg">
<path d="M28.9368 32H10.125C9.98694 32 9.875 31.8881 9.875 31.75V4.81055C9.875 4.67248 9.98694 4.56055 10.125 4.56055H28.9368C29.0748 4.56055 29.1868 4.67248 29.1868 4.81055V31.75C29.1868 31.8881 29.0748 32 28.9368 32Z" fill="#59B6D6"/>
<path d="M25.3024 30.3614H6.49219C6.35412 30.3614 6.24219 30.2494 6.24219 30.1114V3.17188C6.24219 3.03381 6.35412 2.92188 6.49219 2.92188H25.3024C25.4405 2.92188 25.5524 3.03381 25.5524 3.17188V30.1114C25.5524 30.2494 25.4405 30.3614 25.3024 30.3614Z" fill="#C0E8F4"/>
<path d="M16.0962 20.3779H8.86328C8.60441 20.3779 8.39453 20.1681 8.39453 19.9092C8.39453 19.6503 8.60441 19.4404 8.86328 19.4404H16.0962C16.3551 19.4404 16.5649 19.6503 16.5649 19.9092C16.5649 20.1681 16.355 20.3779 16.0962 20.3779Z" fill="#4B596E"/>
<path d="M16.0962 22.9697H8.86328C8.60441 22.9697 8.39453 22.7599 8.39453 22.501C8.39453 22.2421 8.60441 22.0322 8.86328 22.0322H16.0962C16.3551 22.0322 16.5649 22.2421 16.5649 22.501C16.5649 22.7599 16.355 22.9697 16.0962 22.9697Z" fill="#4B596E"/>
<path d="M16.0962 25.5615H8.86328C8.60441 25.5615 8.39453 25.3516 8.39453 25.0928C8.39453 24.8339 8.60441 24.624 8.86328 24.624H16.0962C16.3551 24.624 16.5649 24.8339 16.5649 25.0928C16.5649 25.3516 16.355 25.5615 16.0962 25.5615Z" fill="#4B596E"/>
<path d="M16.0962 28.1533H8.86328C8.60441 28.1533 8.39453 27.9434 8.39453 27.6846C8.39453 27.4257 8.60441 27.2158 8.86328 27.2158H16.0962C16.3551 27.2158 16.5649 27.4257 16.5649 27.6846C16.5649 27.9434 16.355 28.1533 16.0962 28.1533Z" fill="#4B596E"/>
<path d="M22.9937 11.4854H20.4062C20.1473 11.4854 19.9375 11.2755 19.9375 11.0166C19.9375 10.7577 20.1473 10.5479 20.4062 10.5479H22.9937C23.2527 10.5479 23.4625 10.7577 23.4625 11.0166C23.4625 11.2755 23.2527 11.4854 22.9937 11.4854Z" fill="#4B596E"/>
<path d="M22.9937 28.1533H20.4062C20.1473 28.1533 19.9375 27.9434 19.9375 27.6846C19.9375 27.4257 20.1473 27.2158 20.4062 27.2158H22.9937C23.2527 27.2158 23.4625 27.4257 23.4625 27.6846C23.4625 27.9434 23.2527 28.1533 22.9937 28.1533Z" fill="#4B596E"/>
<path d="M22.9937 25.4717H20.4062C20.1473 25.4717 19.9375 25.2618 19.9375 25.0029C19.9375 24.7441 20.1473 24.5342 20.4062 24.5342H22.9937C23.2527 24.5342 23.4625 24.7441 23.4625 25.0029C23.4625 25.2618 23.2527 25.4717 22.9937 25.4717Z" fill="#4B596E"/>
<path d="M22.9937 5.39258H20.4062V9.26183H22.9937V5.39258Z" fill="#FAD06A"/>
<path d="M18.8662 14.7168L17.5158 16.0684L14.3867 12.9365L15.7371 11.585L18.8662 14.7168Z" fill="#2C394B"/>
<path d="M15.6342 2.20181C18.5674 5.13756 18.5674 9.89738 15.6342 12.8331C12.7011 15.7689 7.94555 15.7689 5.01237 12.8331C2.07918 9.89738 2.07924 5.13756 5.01237 2.20181C7.94549 -0.733938 12.7011 -0.733938 15.6342 2.20181Z" fill="#EC7462"/>
<path d="M14.359 3.47859C16.5875 5.70915 16.5875 9.32552 14.359 11.5561C12.1304 13.7866 8.51717 13.7866 6.28861 11.5561C4.06005 9.32552 4.06005 5.70915 6.28861 3.47859C8.51717 1.24802 12.1304 1.24802 14.359 3.47859Z" fill="#59B6D6"/>
<path d="M13.4478 4.38947C15.1739 6.11709 15.1739 8.91822 13.4478 10.6458C11.7217 12.3735 8.92306 12.3735 7.19694 10.6458C5.47081 8.91822 5.47081 6.11709 7.19694 4.38947C8.92306 2.66184 11.7217 2.66184 13.4478 4.38947Z" fill="#C0E8F4"/>
<path d="M27.6389 22.8801L25.6723 24.8485C25.5717 24.9491 25.4086 24.9491 25.308 24.8485L16.4035 15.936C16.303 15.8355 16.303 15.6727 16.4035 15.5722L18.3701 13.6038C18.4706 13.5032 18.6338 13.5032 18.7343 13.6038L27.6389 22.5162C27.7393 22.6167 27.7393 22.7796 27.6389 22.8801Z" fill="#4B596E"/>
<path d="M18.3709 13.6038L17.6562 14.319L26.9247 23.5957L27.6393 22.8805C27.7398 22.7799 27.7398 22.6169 27.6393 22.5162L18.7348 13.6038C18.6343 13.5032 18.4714 13.5032 18.3709 13.6038Z" fill="#2C394B"/>
<path d="M22.8176 17.6886L20.487 20.0213L18.9219 18.4548L21.2525 16.1221L22.8176 17.6886Z" fill="#EC7462"/>
<path d="M22.8173 17.6886L21.9206 18.5861L20.3555 17.0196L21.2522 16.1221L22.8173 17.6886Z" fill="#DB4E40"/>
</svg>
