<svg width="94" height="94" viewBox="0 0 94 94" fill="none" xmlns="http://www.w3.org/2000/svg">
<circle cx="47" cy="47" r="47" fill="#F7F7FF"/>
<path d="M64.0754 24.4393V67.5607C64.0754 69.2304 62.7218 70.584 61.0522 70.584H25.2772C23.6075 70.584 22.2539 69.2304 22.2539 67.5607V31.6144H29.429C31.0987 31.6144 32.4523 30.2608 32.4523 28.5912V21.416H61.0522C62.7218 21.416 64.0754 22.7695 64.0754 24.4393Z" fill="#EDEDED"/>
<path d="M22.2539 31.6144H29.4291C31.0987 31.6144 32.4523 30.2608 32.4523 28.5912V21.416L22.2539 31.6144Z" fill="#2769FD"/>
<path d="M55.7695 57.1299L55.9946 61.9727L56.1015 63.8008C56.1432 64.512 56.9817 64.8674 57.5217 64.4027L58.9098 63.2082L62.6753 60.0566L55.7695 57.1299Z" fill="#F9BB40"/>
<path d="M55.9922 61.9727L56.0991 63.8007C56.1408 64.5119 56.9793 64.8674 57.5193 64.4027L58.9073 63.2081L55.9922 61.9727Z" fill="#386E93"/>
<path d="M71.0961 39.9201L62.6708 60.0596L55.7656 57.1312L64.177 37.0254L71.0961 39.9201Z" fill="#D775FF"/>
<path d="M70.5011 41.3506L71.4522 39.0773C72.2516 37.1666 71.3506 34.9697 69.44 34.1704C67.5293 33.3711 65.3324 34.272 64.5331 36.1827L63.582 38.4561L70.5011 41.3506Z" fill="#386E93"/>
<path d="M25.2786 71.1004H61.0537C63.0059 71.1004 64.5939 69.5123 64.5939 67.5602V56.8066C65.1098 55.5736 70.7146 42.1759 71.9278 39.2759C72.8356 37.1053 71.8083 34.6006 69.638 33.6929C67.8125 32.9288 65.751 33.5218 64.5939 35.0528V24.4387C64.5939 22.4867 63.0059 20.8984 61.0537 20.8984H32.4539C32.3119 20.8984 32.1718 20.9664 32.088 21.0502L21.8901 31.248C21.8047 31.3331 21.7383 31.4716 21.7383 31.6139V67.5601C21.7383 69.5123 23.3263 71.1004 25.2786 71.1004ZM56.5575 62.7736L57.9396 63.3593L57.1826 64.0109C57.0372 64.1364 56.8837 64.0922 56.8249 64.0666C56.7659 64.0417 56.6273 63.9627 56.6158 63.7707L56.5575 62.7736ZM58.8186 62.6089L56.4943 61.6238L56.3228 57.929L61.6904 60.2054L58.8186 62.6089ZM62.3973 59.3782L56.4432 56.8547L63.8579 39.132L69.8232 41.6276L62.3973 59.3782ZM70.2223 40.6735L64.5938 38.319V37.7604L70.4212 40.1981L70.2223 40.6735ZM66.7645 34.638C67.5629 34.3105 68.4416 34.3133 69.2388 34.6467C70.8833 35.3345 71.6618 37.2324 70.9738 38.877L70.8202 39.2442L64.855 36.7487C64.9524 36.5923 65.258 35.2558 66.7645 34.638ZM31.9369 22.6636V28.5907C31.9369 29.9725 30.8127 31.0969 29.4306 31.0969H23.5033L31.9369 22.6636ZM22.7723 32.131H29.4306C31.3829 32.131 32.9709 30.5428 32.9709 28.5907V21.9326H61.0537C62.4357 21.9326 63.5599 23.057 63.5599 24.4388V37.1651C52.3104 64.054 56.6957 53.5723 55.29 56.9323C55.278 56.9609 55.27 56.9904 55.2633 57.0197C55.263 57.0212 55.2623 57.0225 55.2619 57.024C55.2528 57.0668 55.2499 57.1097 55.2517 57.1522C55.2517 57.1528 55.2515 57.1534 55.2515 57.1541L55.477 62.0029L55.5403 63.0875H28.6865C28.4011 63.0875 28.1694 63.3189 28.1694 63.6045C28.1694 63.8901 28.4011 64.1215 28.6865 64.1215H55.635C55.7456 64.5208 56.0279 64.8522 56.4215 65.0189C56.5961 65.0929 56.7796 65.1293 56.9614 65.1293C57.2838 65.1293 57.6012 65.0149 57.857 64.7945L59.2397 63.6047L63.0055 60.4532C63.0103 60.4491 63.0136 60.4436 63.0182 60.4393C63.0318 60.427 63.0428 60.4133 63.055 60.3994C63.0879 60.3627 63.1152 60.3228 63.1362 60.2791C63.1396 60.272 63.1462 60.2672 63.1492 60.2599L63.5598 59.2783V67.5602C63.5598 68.9421 62.4356 70.0665 61.0536 70.0665H25.2786C23.8965 70.0665 22.7723 68.9421 22.7723 67.5602V32.131Z" fill="#332E8E"/>
<path d="M28.685 38.2977H57.6443C57.9297 38.2977 58.1613 38.0663 58.1613 37.7807C58.1613 37.4951 57.9297 37.2637 57.6443 37.2637H28.685C28.3996 37.2637 28.168 37.4951 28.168 37.7807C28.168 38.0663 28.3996 38.2977 28.685 38.2977Z" fill="#332E8E"/>
<path d="M28.685 43.4627H57.6443C57.9297 43.4627 58.1613 43.2313 58.1613 42.9457C58.1613 42.6601 57.9297 42.4287 57.6443 42.4287H28.685C28.3996 42.4287 28.168 42.6601 28.168 42.9457C28.168 43.2313 28.3996 43.4627 28.685 43.4627Z" fill="#332E8E"/>
<path d="M28.685 48.6278H57.6443C57.9297 48.6278 58.1613 48.3964 58.1613 48.1108C58.1613 47.8251 57.9297 47.5938 57.6443 47.5938H28.685C28.3996 47.5938 28.168 47.8251 28.168 48.1108C28.168 48.3964 28.3996 48.6278 28.685 48.6278Z" fill="#332E8E"/>
<path d="M28.685 53.7918H53.7997C54.0851 53.7918 54.3167 53.5604 54.3167 53.2748C54.3167 52.9892 54.0851 52.7578 53.7997 52.7578H28.685C28.3996 52.7578 28.168 52.9892 28.168 53.2748C28.168 53.5604 28.3996 53.7918 28.685 53.7918Z" fill="#332E8E"/>
<path d="M28.685 58.9569H53.7997C54.0851 58.9569 54.3167 58.7255 54.3167 58.4399C54.3167 58.1543 54.0851 57.9229 53.7997 57.9229H28.685C28.3996 57.9229 28.168 58.1543 28.168 58.4399C28.168 58.7255 28.3996 58.9569 28.685 58.9569Z" fill="#332E8E"/>
<path d="M64.0754 24.4393V67.5607C64.0754 69.2304 62.7218 70.584 61.0522 70.584H25.2772C23.6075 70.584 22.2539 69.2304 22.2539 67.5607V31.6144H29.429C31.0987 31.6144 32.4523 30.2608 32.4523 28.5912V21.416H61.0522C62.7218 21.416 64.0754 22.7695 64.0754 24.4393Z" fill="#EDEDED"/>
<path d="M22.2539 31.6144H29.4291C31.0987 31.6144 32.4523 30.2608 32.4523 28.5912V21.416L22.2539 31.6144Z" fill="#D775FF"/>
<path d="M55.7695 57.1299L55.9946 61.9727L56.1015 63.8008C56.1432 64.512 56.9817 64.8674 57.5217 64.4027L58.9098 63.2082L62.6753 60.0566L55.7695 57.1299Z" fill="#F9BB40"/>
<path d="M55.9922 61.9727L56.0991 63.8007C56.1408 64.5119 56.9793 64.8674 57.5193 64.4027L58.9073 63.2081L55.9922 61.9727Z" fill="#386E93"/>
<path d="M71.0961 39.9201L62.6708 60.0596L55.7656 57.1312L64.177 37.0254L71.0961 39.9201Z" fill="#D775FF"/>
<path d="M70.5011 41.3506L71.4522 39.0773C72.2516 37.1666 71.3506 34.9697 69.44 34.1704C67.5293 33.3711 65.3324 34.272 64.5331 36.1827L63.582 38.4561L70.5011 41.3506Z" fill="#386E93"/>
<path d="M25.2786 71.1004H61.0537C63.0059 71.1004 64.5939 69.5123 64.5939 67.5602V56.8066C65.1098 55.5736 70.7146 42.1759 71.9278 39.2759C72.8356 37.1053 71.8083 34.6006 69.638 33.6929C67.8125 32.9288 65.751 33.5218 64.5939 35.0528V24.4387C64.5939 22.4867 63.0059 20.8984 61.0537 20.8984H32.4539C32.3119 20.8984 32.1718 20.9664 32.088 21.0502L21.8901 31.248C21.8047 31.3331 21.7383 31.4716 21.7383 31.6139V67.5601C21.7383 69.5123 23.3263 71.1004 25.2786 71.1004ZM56.5575 62.7736L57.9396 63.3593L57.1826 64.0109C57.0372 64.1364 56.8837 64.0922 56.8249 64.0666C56.7659 64.0417 56.6273 63.9627 56.6158 63.7707L56.5575 62.7736ZM58.8186 62.6089L56.4943 61.6238L56.3228 57.929L61.6904 60.2054L58.8186 62.6089ZM62.3973 59.3782L56.4432 56.8547L63.8579 39.132L69.8232 41.6276L62.3973 59.3782ZM70.2223 40.6735L64.5938 38.319V37.7604L70.4212 40.1981L70.2223 40.6735ZM66.7645 34.638C67.5629 34.3105 68.4416 34.3133 69.2388 34.6467C70.8833 35.3345 71.6618 37.2324 70.9738 38.877L70.8202 39.2442L64.855 36.7487C64.9524 36.5923 65.258 35.2558 66.7645 34.638ZM31.9369 22.6636V28.5907C31.9369 29.9725 30.8127 31.0969 29.4306 31.0969H23.5033L31.9369 22.6636ZM22.7723 32.131H29.4306C31.3829 32.131 32.9709 30.5428 32.9709 28.5907V21.9326H61.0537C62.4357 21.9326 63.5599 23.057 63.5599 24.4388V37.1651C52.3104 64.054 56.6957 53.5723 55.29 56.9323C55.278 56.9609 55.27 56.9904 55.2633 57.0197C55.263 57.0212 55.2623 57.0225 55.2619 57.024C55.2528 57.0668 55.2499 57.1097 55.2517 57.1522C55.2517 57.1528 55.2515 57.1534 55.2515 57.1541L55.477 62.0029L55.5403 63.0875H28.6865C28.4011 63.0875 28.1694 63.3189 28.1694 63.6045C28.1694 63.8901 28.4011 64.1215 28.6865 64.1215H55.635C55.7456 64.5208 56.0279 64.8522 56.4215 65.0189C56.5961 65.0929 56.7796 65.1293 56.9614 65.1293C57.2838 65.1293 57.6012 65.0149 57.857 64.7945L59.2397 63.6047L63.0055 60.4532C63.0103 60.4491 63.0136 60.4436 63.0182 60.4393C63.0318 60.427 63.0428 60.4133 63.055 60.3994C63.0879 60.3627 63.1152 60.3228 63.1362 60.2791C63.1396 60.272 63.1462 60.2672 63.1492 60.2599L63.5598 59.2783V67.5602C63.5598 68.9421 62.4356 70.0665 61.0536 70.0665H25.2786C23.8965 70.0665 22.7723 68.9421 22.7723 67.5602V32.131Z" fill="#332E8E"/>
<path d="M28.685 38.2977H57.6443C57.9297 38.2977 58.1613 38.0663 58.1613 37.7807C58.1613 37.4951 57.9297 37.2637 57.6443 37.2637H28.685C28.3996 37.2637 28.168 37.4951 28.168 37.7807C28.168 38.0663 28.3996 38.2977 28.685 38.2977Z" fill="#332E8E"/>
<path d="M28.685 43.4627H57.6443C57.9297 43.4627 58.1613 43.2313 58.1613 42.9457C58.1613 42.6601 57.9297 42.4287 57.6443 42.4287H28.685C28.3996 42.4287 28.168 42.6601 28.168 42.9457C28.168 43.2313 28.3996 43.4627 28.685 43.4627Z" fill="#332E8E"/>
<path d="M28.685 48.6278H57.6443C57.9297 48.6278 58.1613 48.3964 58.1613 48.1108C58.1613 47.8251 57.9297 47.5938 57.6443 47.5938H28.685C28.3996 47.5938 28.168 47.8251 28.168 48.1108C28.168 48.3964 28.3996 48.6278 28.685 48.6278Z" fill="#332E8E"/>
<path d="M28.685 53.7918H53.7997C54.0851 53.7918 54.3167 53.5604 54.3167 53.2748C54.3167 52.9892 54.0851 52.7578 53.7997 52.7578H28.685C28.3996 52.7578 28.168 52.9892 28.168 53.2748C28.168 53.5604 28.3996 53.7918 28.685 53.7918Z" fill="#332E8E"/>
<path d="M28.685 58.9569H53.7997C54.0851 58.9569 54.3167 58.7255 54.3167 58.4399C54.3167 58.1543 54.0851 57.9229 53.7997 57.9229H28.685C28.3996 57.9229 28.168 58.1543 28.168 58.4399C28.168 58.7255 28.3996 58.9569 28.685 58.9569Z" fill="#332E8E"/>
</svg>
