<svg width="94" height="94" viewBox="0 0 94 94" fill="none" xmlns="http://www.w3.org/2000/svg">
<circle cx="47" cy="47" r="47" fill="#F7F7FF"/>
<path d="M40.504 27.8406C40.504 28.5848 40.3426 29.2914 40.0541 29.929H57.8377V28.615C57.8377 28.1243 57.44 27.7266 56.9494 27.7266H56.1563C55.7667 27.7266 55.4295 27.4705 55.3077 27.1004C55.1705 26.6833 55.0029 26.28 54.8074 25.8932C54.6333 25.5491 54.6899 25.1335 54.9626 24.8609L55.5282 24.2954C55.8751 23.9484 55.8751 23.3859 55.5282 23.039L53.7987 21.3096C53.4518 20.9626 52.8893 20.9626 52.5424 21.3094L51.9768 21.875C51.7041 22.1477 51.2886 22.2044 50.9444 22.0302C50.5576 21.8347 50.1543 21.667 49.7372 21.5298C49.3671 21.4081 49.111 21.0708 49.111 20.6812V19.8884C49.111 19.3977 48.7133 19 48.2227 19H45.7768C45.2862 19 44.8885 19.3977 44.8885 19.8884V20.6813C44.8885 21.0709 44.6324 21.4083 44.2623 21.5299C43.8452 21.6671 43.4419 21.8347 43.0551 22.0303C42.711 22.2044 42.2955 22.1478 42.0228 21.8751L41.4573 21.3096C41.1104 20.9627 40.5479 20.9627 40.2009 21.3097L38.4715 23.0391C38.3173 23.1933 38.2319 23.3902 38.2148 23.5918C39.5929 24.5042 40.504 26.0677 40.504 27.8406Z" fill="#8379C1"/>
<path d="M51.3875 29.838C51.3875 29.8684 51.3858 29.8985 51.3856 29.929H57.836V28.615C57.836 28.1243 57.4382 27.7266 56.9476 27.7266H56.1546C55.765 27.7266 55.4277 27.4705 55.306 27.1004C55.1688 26.6833 55.0012 26.28 54.8056 25.8932C54.6315 25.5491 54.6881 25.1335 54.9609 24.8609L55.5264 24.2954C55.8733 23.9484 55.8733 23.3859 55.5264 23.039L53.7969 21.3096C53.45 20.9626 52.8876 20.9626 52.5406 21.3094L51.9751 21.875C51.7023 22.1477 51.2869 22.2044 50.9426 22.0302C50.5559 21.8347 50.1526 21.667 49.7354 21.5298C49.3653 21.4081 49.1093 21.0708 49.1093 20.6812V19.8884C49.1093 19.3977 48.7115 19 48.2209 19H45.7751C45.2844 19 44.8867 19.3977 44.8867 19.8884V19.9198C48.7124 21.5856 51.3875 25.399 51.3875 29.838Z" fill="#6E61B6"/>
<path d="M50.5829 29.9288C50.5836 29.8984 50.5857 29.8684 50.5857 29.8378C50.5857 27.8574 48.9803 26.252 46.9999 26.252C45.0195 26.252 43.4141 27.8573 43.4141 29.8378C43.4141 29.8684 43.4162 29.8984 43.4169 29.9288H50.5829Z" fill="white"/>
<path d="M44.206 29.9287C44.205 29.8983 44.2031 29.8681 44.2031 29.8377C44.2031 28.2967 45.4568 27.043 46.9978 27.043C48.5388 27.043 49.7927 28.2967 49.7927 29.8377C49.7927 29.8681 49.7909 29.8983 49.7898 29.9287H51.3718C51.3725 29.8983 51.3747 29.8681 51.3747 29.8377C51.3747 27.4243 49.4113 25.4609 46.9978 25.4609C44.5845 25.4609 42.6211 27.4243 42.6211 29.8377C42.6211 29.8681 42.6233 29.8983 42.6239 29.9287H44.206Z" fill="#C2BCE0"/>
<path d="M43.8945 63.5752H50.1073V67.7168H43.8945V63.5752Z" fill="#6E61B6"/>
<path d="M47.3242 63.5752H50.1062V67.7168H47.3242V63.5752Z" fill="#6354B1"/>
<path d="M57.5609 71.5232V70.0964C57.5609 68.7239 56.4483 67.6113 55.0758 67.6113H38.9226C37.5501 67.6113 36.4375 68.7239 36.4375 70.0964V71.5232H57.5609Z" fill="#978ECB"/>
<path d="M53.1021 70.0964V71.5232H57.5615V70.0964C57.5615 68.7239 56.4489 67.6113 55.0764 67.6113H50.6172C51.9895 67.6112 53.1021 68.7239 53.1021 70.0964Z" fill="#8379C1"/>
<path d="M67.4905 30.6143H39.6805C38.771 32.009 37.1981 32.9335 35.4124 32.9335C33.6267 32.9335 32.0539 32.009 31.1443 30.6143H26.5118C25.3382 30.6143 24.3867 31.5657 24.3867 32.7393V58.4475H69.6156V32.7393C69.6157 31.5657 68.6642 30.6143 67.4905 30.6143Z" fill="white"/>
<path d="M67.4867 30.6143H65.3047V58.3404V58.4475H69.6118V32.7393C69.6117 31.5657 68.6603 30.6143 67.4867 30.6143Z" fill="#F3F0F3"/>
<path d="M67.4887 29.8232H39.9859C39.7262 30.4201 39.3532 30.9564 38.894 31.4053H67.4887C68.2243 31.4053 68.8228 32.0038 68.8228 32.7393V57.6563H25.1758V32.7393C25.1758 32.0037 25.7743 31.4053 26.5099 31.4053H31.9269C31.4677 30.9564 31.0947 30.4201 30.8349 29.8232H26.5099C24.9019 29.8232 23.5938 31.1314 23.5938 32.7393V58.4474V60.7644C23.5938 62.3724 24.9019 63.6805 26.5099 63.6805H67.4887C69.0967 63.6805 70.4048 62.3724 70.4048 60.7644V58.4474V32.7393C70.4048 31.1314 69.0967 29.8232 67.4887 29.8232Z" fill="#978ECB"/>
<path d="M67.4867 29.8232H65.3047V31.4053H67.4867C68.2224 31.4053 68.8208 32.0038 68.8208 32.7393V57.6563H65.3047V63.6805H67.4867C69.0947 63.6805 70.4028 62.3724 70.4028 60.7644V32.7393C70.4028 31.1314 69.0947 29.8232 67.4867 29.8232Z" fill="#8379C1"/>
<path d="M69.6138 73H24.3848C23.9478 73 23.5938 72.6459 23.5938 72.209C23.5938 71.772 23.9478 71.418 24.3848 71.418H69.6138C70.0507 71.418 70.4048 71.772 70.4048 72.209C70.4048 72.6459 70.0507 73 69.6138 73Z" fill="#6E61B6"/>
<path d="M62.408 40.5977H31.5928C30.4262 40.5977 29.4805 39.652 29.4805 38.4854C29.4805 37.3188 30.4262 36.373 31.5928 36.373H62.4081C63.5747 36.373 64.5205 37.3188 64.5205 38.4854C64.5203 39.6521 63.5747 40.5977 62.408 40.5977Z" fill="#D8ECFE"/>
<path d="M62.4089 36.373C62.4129 36.4259 62.4169 36.4787 62.4169 36.5326C62.4169 37.6992 61.4711 38.6449 60.3046 38.6449H29.4892C29.4889 38.6449 29.4886 38.6448 29.4883 38.6448C29.5701 39.7367 30.4798 40.5976 31.5926 40.5976H62.4079C63.5745 40.5976 64.5203 39.6519 64.5203 38.4853C64.5203 37.319 63.5749 36.3736 62.4089 36.373Z" fill="#C4E2FF"/>
<path d="M31.5928 36.373C30.4262 36.373 29.4805 37.3188 29.4805 38.4854C29.4805 39.652 30.4262 40.5977 31.5928 40.5977H54.8285V36.373H31.5928Z" fill="#FD8087"/>
<path d="M29.4883 38.6455C29.5701 39.7373 30.4798 40.5982 31.5926 40.5982H54.8283V38.6455H29.4883Z" fill="#FE646F"/>
<path d="M47.3387 46.8359H42.8262C42.3892 46.8359 42.0352 46.4819 42.0352 46.0449C42.0352 45.608 42.3892 45.2539 42.8262 45.2539H47.3387C47.7756 45.2539 48.1297 45.608 48.1297 46.0449C48.1297 46.4819 47.7756 46.8359 47.3387 46.8359Z" fill="#8AC9FE"/>
<path d="M52.8457 50.8125H52.3184C51.8814 50.8125 51.5273 50.4584 51.5273 50.0215C51.5273 49.5845 51.8814 49.2305 52.3184 49.2305H52.8457C53.2827 49.2305 53.6367 49.5845 53.6367 50.0215C53.6367 50.4584 53.2827 50.8125 52.8457 50.8125ZM49.6816 50.8125H49.1543C48.7173 50.8125 48.3633 50.4584 48.3633 50.0215C48.3633 49.5845 48.7173 49.2305 49.1543 49.2305H49.6816C50.1186 49.2305 50.4727 49.5845 50.4727 50.0215C50.4727 50.4584 50.1186 50.8125 49.6816 50.8125ZM46.5176 50.8125H45.9902C45.5533 50.8125 45.1992 50.4584 45.1992 50.0215C45.1992 49.5845 45.5533 49.2305 45.9902 49.2305H46.5176C46.9545 49.2305 47.3086 49.5845 47.3086 50.0215C47.3086 50.4584 46.9545 50.8125 46.5176 50.8125ZM43.3535 50.8125H42.8262C42.3892 50.8125 42.0352 50.4584 42.0352 50.0215C42.0352 49.5845 42.3892 49.2305 42.8262 49.2305H43.3535C43.7905 49.2305 44.1445 49.5845 44.1445 50.0215C44.1445 50.4584 43.7905 50.8125 43.3535 50.8125Z" fill="#8AC9FE"/>
<path d="M63.7247 54.7881H42.8262C42.3892 54.7881 42.0352 54.434 42.0352 53.9971C42.0352 53.5601 42.3892 53.2061 42.8262 53.2061H63.7247C64.1617 53.2061 64.5157 53.5601 64.5157 53.9971C64.5157 54.434 64.1616 54.7881 63.7247 54.7881Z" fill="#8AC9FE"/>
<path d="M35.8498 43.4668H30.8086C30.5152 43.4668 30.2773 43.7046 30.2773 43.998V54.3719C30.2773 54.6654 30.5152 54.9032 30.8086 54.9032H38.0436C38.3371 54.9032 38.5749 54.6654 38.5749 54.3719V46.1919C38.5749 46.051 38.5189 45.9159 38.4193 45.8162L36.2255 43.6224C36.1258 43.5227 35.9907 43.4668 35.8498 43.4668Z" fill="#FFE177"/>
<path d="M38.4198 45.8162L36.2259 43.6224C36.1262 43.5227 35.9911 43.4668 35.8502 43.4668H32.8203C32.9612 43.4668 33.0963 43.5228 33.196 43.6224L35.3898 45.8162C35.4895 45.9159 35.5454 46.051 35.5454 46.1919V54.3719C35.5454 54.6654 35.3076 54.9032 35.0142 54.9032H38.0441C38.3375 54.9032 38.5753 54.6654 38.5753 54.3719V46.1919C38.5754 46.051 38.5194 45.9158 38.4198 45.8162Z" fill="#FFD15B"/>
<path d="M35.1175 47.3711H32.8027C32.3658 47.3711 32.0117 47.017 32.0117 46.5801C32.0117 46.1431 32.3658 45.7891 32.8027 45.7891H35.1175C35.5544 45.7891 35.9085 46.1431 35.9085 46.5801C35.9085 47.017 35.5544 47.3711 35.1175 47.3711Z" fill="white"/>
<path d="M36.0495 49.9766H32.8027C32.3658 49.9766 32.0117 49.6225 32.0117 49.1855C32.0117 48.7486 32.3658 48.3945 32.8027 48.3945H36.0495C36.4864 48.3945 36.8405 48.7486 36.8405 49.1855C36.8405 49.6225 36.4864 49.9766 36.0495 49.9766Z" fill="white"/>
<path d="M36.0495 52.582H32.8027C32.3658 52.582 32.0117 52.228 32.0117 51.791C32.0117 51.3541 32.3658 51 32.8027 51H36.0495C36.4864 51 36.8405 51.3541 36.8405 51.791C36.8405 52.228 36.4864 52.582 36.0495 52.582Z" fill="white"/>
<path d="M63.722 46.8359H50.0488C49.6119 46.8359 49.2578 46.4819 49.2578 46.0449C49.2578 45.608 49.6119 45.2539 50.0488 45.2539H63.722C64.159 45.2539 64.513 45.608 64.513 46.0449C64.513 46.4819 64.1589 46.8359 63.722 46.8359Z" fill="#8AC9FE"/>
<path d="M63.7233 50.8115H55.6816C55.2447 50.8115 54.8906 50.4575 54.8906 50.0205C54.8906 49.5836 55.2447 49.2295 55.6816 49.2295H63.7233C64.1603 49.2295 64.5143 49.5836 64.5143 50.0205C64.5143 50.4575 64.1602 50.8115 63.7233 50.8115Z" fill="#8AC9FE"/>
<path d="M35.4095 32.9343C32.6012 32.9343 30.3164 30.6494 30.3164 27.8411C30.3164 25.0328 32.6012 22.748 35.4095 22.748C38.2178 22.748 40.5026 25.0327 40.5026 27.8411C40.5026 30.6494 38.2178 32.9343 35.4095 32.9343Z" fill="#05E39C"/>
<path d="M35.4113 22.748C34.8268 22.748 34.2655 22.8483 33.7422 23.0304C35.733 23.7231 37.1661 25.6173 37.1661 27.8411C37.1661 30.0649 35.7329 31.9592 33.7422 32.652C34.2655 32.8341 34.8268 32.9343 35.4113 32.9343C38.2197 32.9343 40.5044 30.6494 40.5044 27.8411C40.5044 25.0328 38.2197 22.748 35.4113 22.748Z" fill="#0ED290"/>
<path d="M34.7168 30.4531C34.7128 30.4531 34.7088 30.4531 34.7047 30.453C34.4763 30.4495 34.2606 30.3475 34.1131 30.1732L32.3279 28.0645C32.0457 27.7311 32.0871 27.2319 32.4206 26.9497C32.7539 26.6674 33.2531 26.7088 33.5354 27.0424L34.7351 28.4597L37.1127 25.8193C37.4051 25.4946 37.9054 25.4686 38.2298 25.7608C38.5545 26.053 38.5806 26.5533 38.2884 26.8779L35.3047 30.1915C35.1545 30.358 34.9408 30.4531 34.7168 30.4531Z" fill="white"/>
</svg>
