<svg width="44" height="44" viewBox="0 0 44 44" fill="none" xmlns="http://www.w3.org/2000/svg">
<g clip-path="url(#clip0_298_5209)">
<path d="M39.4385 38.7619H4.5623C3.58295 38.7619 2.78906 37.968 2.78906 36.9887V15.1414C2.78906 14.1621 3.58295 13.3682 4.5623 13.3682H39.4384C40.4177 13.3682 41.2116 14.1621 41.2116 15.1414V36.9887C41.2116 37.968 40.4177 38.7619 39.4385 38.7619Z" fill="#54469C"/>
<path d="M39.4411 13.3682H36.7852C37.763 13.3682 38.5558 14.1632 38.5558 15.144V36.9861C38.5558 37.9668 37.763 38.7619 36.7852 38.7619H39.4411C40.4189 38.7619 41.2117 37.9669 41.2117 36.9861V15.144C41.2117 14.1633 40.419 13.3682 39.4411 13.3682Z" fill="#463B84"/>
<path d="M5.44434 35.8522V16.278C5.44434 16.1421 5.55451 16.0319 5.69046 16.0319H38.3089C38.4449 16.0319 38.555 16.142 38.555 16.278V35.8521C38.555 35.9881 38.4449 36.0983 38.3089 36.0983H5.69046C5.55451 36.0983 5.44434 35.9881 5.44434 35.8522Z" fill="#99E6FC"/>
<path d="M38.3092 16.0319H35.6533C35.789 16.0319 35.899 16.1422 35.899 16.2783V35.8518C35.899 35.9879 35.789 36.0983 35.6533 36.0983H38.3092C38.4449 36.0983 38.5549 35.9879 38.5549 35.8518V16.2783C38.555 16.1422 38.445 16.0319 38.3092 16.0319Z" fill="#8AC9FE"/>
<path d="M42.1672 44H1.83279C0.820531 44 0 43.1794 0 42.1672V39.5256C0 39.063 0.375031 38.688 0.837633 38.688H43.1625C43.6251 38.688 44.0001 39.063 44.0001 39.5256V42.1672C44 43.1794 43.1795 44 42.1672 44Z" fill="#A2AEE6"/>
<path d="M43.1628 38.6881H40.5069C40.9695 38.6881 41.3445 39.0631 41.3445 39.5257V42.1672C41.3445 43.1794 40.524 44 39.5117 44H42.1676C43.1798 44 44.0004 43.1795 44.0004 42.1672V39.5257C44.0004 39.0631 43.6254 38.6881 43.1628 38.6881Z" fill="#8795DE"/>
<path d="M16.2451 38.6881H27.7542V40.1067C27.7542 40.6923 27.2795 41.167 26.6939 41.167H17.3055C16.7199 41.167 16.2452 40.6923 16.2452 40.1067V38.6881H16.2451Z" fill="#6C7FD8"/>
<path d="M13.2664 32.5148H9.72009C9.32563 32.5148 9.00586 32.1951 9.00586 31.8006V22.5079C9.00586 22.1135 9.32563 21.7937 9.72009 21.7937H13.2664C13.6608 21.7937 13.9806 22.1135 13.9806 22.5079V31.8006C13.9805 32.1951 13.6608 32.5148 13.2664 32.5148Z" fill="#E759AA"/>
<path d="M13.2662 21.7937H10.6104C11.0048 21.7937 11.3246 22.1135 11.3246 22.5079V31.8006C11.3246 32.1951 11.0048 32.5148 10.6104 32.5148H13.2662C13.6607 32.5148 13.9805 32.1951 13.9805 31.8006V22.5079C13.9804 22.1135 13.6607 21.7937 13.2662 21.7937Z" fill="#9857BD"/>
<path d="M4.59883 40.819H3.75879C3.40284 40.819 3.11426 41.1075 3.11426 41.4635C3.11426 41.8195 3.40284 42.108 3.75879 42.108H4.59883C4.95478 42.108 5.24336 41.8195 5.24336 41.4635C5.24336 41.1075 4.95478 40.819 4.59883 40.819Z" fill="#E759AA"/>
<path d="M8.13976 40.819H7.2998C6.94385 40.819 6.65527 41.1075 6.65527 41.4635C6.65527 41.8195 6.94385 42.108 7.2998 42.108H8.13976C8.49571 42.108 8.78429 41.8195 8.78429 41.4635C8.78429 41.1075 8.49571 40.819 8.13976 40.819Z" fill="#E759AA"/>
<path d="M17.2344 25.9678H22.2722C22.6282 25.9678 22.9167 25.6792 22.9167 25.3232C22.9167 24.9673 22.6282 24.6787 22.2722 24.6787H17.2344C16.8784 24.6787 16.5898 24.9673 16.5898 25.3232C16.5898 25.6792 16.8784 25.9678 17.2344 25.9678Z" fill="#54469C"/>
<path d="M17.2344 28.4796H26.4598C26.8157 28.4796 27.1043 28.191 27.1043 27.8351C27.1043 27.4791 26.8157 27.1906 26.4598 27.1906H17.2344C16.8784 27.1906 16.5898 27.4791 16.5898 27.8351C16.5898 28.191 16.8784 28.4796 17.2344 28.4796Z" fill="#54469C"/>
<path d="M26.4598 29.4396H17.2344C16.8784 29.4396 16.5898 29.7282 16.5898 30.0841C16.5898 30.4401 16.8784 30.7286 17.2344 30.7286H26.4598C26.8157 30.7286 27.1043 30.4401 27.1043 30.0841C27.1043 29.7282 26.8157 29.4396 26.4598 29.4396Z" fill="#54469C"/>
<path d="M26.4598 31.6886H17.2344C16.8784 31.6886 16.5898 31.9772 16.5898 32.3331C16.5898 32.6891 16.8784 32.9777 17.2344 32.9777H26.4598C26.8157 32.9777 27.1043 32.6891 27.1043 32.3331C27.1043 31.9772 26.8157 31.6886 26.4598 31.6886Z" fill="#54469C"/>
<path d="M34.6392 26.7017C34.3875 26.45 33.9793 26.45 33.7277 26.7017L31.7856 28.6438L30.5211 27.3793C30.2694 27.1276 29.8613 27.1276 29.6097 27.3793C29.358 27.6311 29.358 28.0392 29.6097 28.2908L31.33 30.0111C31.4558 30.1369 31.6208 30.1999 31.7857 30.1999C31.9506 30.1999 32.1156 30.137 32.2414 30.0111L34.6393 27.6133C34.8909 27.3616 34.8909 26.9534 34.6392 26.7017Z" fill="#97DA7B"/>
<path d="M35.6281 1.24188V17.5656C35.6281 18.2515 35.072 18.8075 34.3862 18.8075H24.3294C24.2309 18.8075 24.1402 18.8616 24.0933 18.9482L22.2732 22.3114C22.1556 22.5289 21.8435 22.5289 21.7259 22.3114L19.9058 18.9482C19.8589 18.8615 19.7682 18.8075 19.6696 18.8075H9.61298C8.92711 18.8075 8.37109 18.2515 8.37109 17.5656V1.24188C8.37109 0.556016 8.92711 0 9.61298 0H34.3862C35.072 0 35.6281 0.556016 35.6281 1.24188Z" fill="#EAF6FF"/>
<path d="M34.3864 0H31.7305C32.4163 0 32.9724 0.556016 32.9724 1.24188V17.5657C32.9724 18.2516 32.4163 18.8076 31.7305 18.8076H34.3864C35.0722 18.8076 35.6282 18.2516 35.6282 17.5657V1.24188C35.6282 0.556016 35.0722 0 34.3864 0Z" fill="#D8ECFE"/>
<path d="M24.6924 14.8313V11.6542C24.6924 11.5325 24.791 11.434 24.9126 11.434H32.773C32.8947 11.434 32.9933 11.5326 32.9933 11.6542V14.8313C32.9933 14.953 32.8946 15.0516 32.773 15.0516H24.9126C24.791 15.0516 24.6924 14.9529 24.6924 14.8313Z" fill="#FEF056"/>
<path d="M32.7731 11.434H30.1172C30.2389 11.434 30.3374 11.5326 30.3374 11.6542V14.8313C30.3374 14.953 30.2388 15.0516 30.1172 15.0516H32.7731C32.8948 15.0516 32.9933 14.9529 32.9933 14.8313V11.6542C32.9933 11.5325 32.8947 11.434 32.7731 11.434Z" fill="#FFD15B"/>
<path d="M15.299 5.39256C15.2967 5.38663 15.2944 5.38078 15.292 5.37494C15.1648 5.06556 14.8665 4.86584 14.5321 4.86584H14.5314C14.1966 4.8661 13.8983 5.06651 13.7716 5.37631C13.7696 5.38121 13.7676 5.38611 13.7657 5.39101L10.8305 13.098C10.7038 13.4306 10.8707 13.803 11.2033 13.9297C11.2789 13.9585 11.3564 13.972 11.4326 13.972C11.6923 13.972 11.9372 13.8139 12.035 13.5567L12.608 12.0524H16.4344L17.0015 13.5548C17.1272 13.8878 17.4989 14.056 17.832 13.9303C18.1651 13.8046 18.3332 13.4327 18.2075 13.0997L15.299 5.39256ZM13.099 10.7635L14.5301 7.00612L15.948 10.7635H13.099Z" fill="#54469C"/>
<path d="M20.1504 4.86584C19.7944 4.86584 19.5059 5.15442 19.5059 5.51038V13.3274C19.5059 13.6834 19.7944 13.972 20.1504 13.972C20.5063 13.972 20.7949 13.6834 20.7949 13.3274V5.51038C20.7949 5.15442 20.5063 4.86584 20.1504 4.86584Z" fill="#54469C"/>
<path d="M25.5156 4.29248H29.1717C29.5277 4.29248 29.8163 4.0039 29.8163 3.64795C29.8163 3.292 29.5277 3.00342 29.1717 3.00342H25.5156C25.1597 3.00342 24.8711 3.292 24.8711 3.64795C24.8711 4.0039 25.1597 4.29248 25.5156 4.29248Z" fill="#54469C"/>
<path d="M25.5156 6.80432H32.2108C32.5668 6.80432 32.8554 6.51574 32.8554 6.15979C32.8554 5.80384 32.5668 5.51526 32.2108 5.51526H25.5156C25.1597 5.51526 24.8711 5.80384 24.8711 6.15979C24.8711 6.51574 25.1597 6.80432 25.5156 6.80432Z" fill="#54469C"/>
<path d="M32.2108 7.76428H25.5156C25.1597 7.76428 24.8711 8.05286 24.8711 8.40881C24.8711 8.76477 25.1597 9.05334 25.5156 9.05334H32.2108C32.5668 9.05334 32.8554 8.76477 32.8554 8.40881C32.8554 8.05286 32.5668 7.76428 32.2108 7.76428Z" fill="#54469C"/>
</g>
<defs>
<clipPath id="clip0_298_5209">
<rect width="44" height="44" fill="white"/>
</clipPath>
</defs>
</svg>
