<svg width="33" height="26" viewBox="0 0 33 26" fill="none" xmlns="http://www.w3.org/2000/svg">
<path id="&#226;&#128;&#156;" opacity="0.7" d="M14.4045 0.097168L9.41455 18.2424L7.75124 11.4379C9.91858 11.4379 11.6827 12.068 13.0436 13.328C14.4045 14.5881 15.0849 16.327 15.0849 18.5448C15.0849 20.7121 14.3793 22.4762 12.968 23.8371C11.6071 25.1476 9.89338 25.8029 7.82685 25.8029C5.70991 25.8029 3.94579 25.1476 2.5345 23.8371C1.17361 22.4762 0.493164 20.7121 0.493164 18.5448C0.493164 17.8895 0.543567 17.2595 0.644374 16.6547C0.745181 15.9994 0.946794 15.2434 1.24921 14.3865C1.55163 13.5297 1.98006 12.3956 2.5345 10.9843L6.91959 0.097168H14.4045ZM32.2473 0.097168L27.2573 18.2424L25.594 11.4379C27.7614 11.4379 29.5255 12.068 30.8864 13.328C32.2473 14.5881 32.9277 16.327 32.9277 18.5448C32.9277 20.7121 32.2221 22.4762 30.8108 23.8371C29.4499 25.1476 27.7362 25.8029 25.6696 25.8029C23.5527 25.8029 21.7886 25.1476 20.3773 23.8371C19.0164 22.4762 18.3359 20.7121 18.3359 18.5448C18.3359 17.8895 18.3863 17.2595 18.4872 16.6547C18.588 15.9994 18.7896 15.2434 19.092 14.3865C19.3944 13.5297 19.8228 12.3956 20.3773 10.9843L24.7624 0.097168H32.2473Z" fill="#171717"/>
</svg>
