<svg width="54" height="54" viewBox="0 0 54 54" fill="none" xmlns="http://www.w3.org/2000/svg">
<g id="credibility 1">
<path id="Vector" d="M27 32.9062C29.33 32.9062 31.2188 31.0175 31.2188 28.6875C31.2188 26.3575 29.33 24.4688 27 24.4688C24.67 24.4688 22.7812 26.3575 22.7812 28.6875C22.7812 31.0175 24.67 32.9062 27 32.9062Z" fill="#CFD2D3"/>
<path id="Vector_2" d="M37.125 34.5938L43.875 30.375V33.75L38.8125 37.9688H33.75V51.4688H20.25V37.9688H15.1875L10.125 33.75V30.375L16.875 34.5938H37.125Z" fill="#CFD2D3"/>
<path id="Vector_3" d="M43.0312 27C43.0312 22.7482 41.3422 18.6706 38.3358 15.6642C35.3294 12.6578 31.2518 10.9688 27 10.9688C22.7482 10.9688 18.6706 12.6578 15.6642 15.6642C12.6578 18.6706 10.9688 22.7482 10.9688 27H2.53125C2.53125 20.5105 5.1092 14.2868 9.69798 9.69798C14.2868 5.1092 20.5105 2.53125 27 2.53125C33.4895 2.53125 39.7132 5.1092 44.302 9.69798C48.8908 14.2868 51.4688 20.5105 51.4688 27H43.0312Z" fill="#EFEAFC"/>
<path id="Vector_4" d="M27 2.53128C30.2142 2.52627 33.3977 3.15655 36.3676 4.3859C39.3374 5.61525 42.035 7.41942 44.3053 9.69472L38.3231 15.66C36.8376 14.171 35.0726 12.9901 33.1295 12.1851C31.1863 11.38 29.1033 10.9667 27 10.9688V2.53128Z" fill="#BFABF2"/>
<path id="Vector_5" d="M38.3232 15.6606L44.3054 9.69531C46.5807 11.9656 48.3849 14.6632 49.6143 17.633C50.8436 20.6029 51.4739 23.7864 51.4689 27.0006H43.0314C43.0344 24.8932 42.6199 22.806 41.8118 20.8596C41.0037 18.9132 39.818 17.1462 38.3232 15.6606Z" fill="#602EDF"/>
<path id="Vector_6" d="M26.9996 10.9688C24.8963 10.9667 22.8133 11.38 20.8702 12.1851C18.9271 12.9901 17.1621 14.171 15.6765 15.66L9.69434 9.69472C11.9646 7.41942 14.6622 5.61525 17.6321 4.3859C20.6019 3.15655 23.7854 2.52627 26.9996 2.53128V10.9688Z" fill="#EFC8FF"/>
<path id="Vector_7" d="M32.0625 28.6875C32.0625 27.6862 31.7656 26.7075 31.2093 25.8749C30.653 25.0424 29.8624 24.3935 28.9373 24.0104C28.0123 23.6272 26.9944 23.5269 26.0124 23.7223C25.0303 23.9176 24.1283 24.3998 23.4203 25.1078C22.7123 25.8158 22.2301 26.7178 22.0348 27.6999C21.8394 28.6819 21.9397 29.6998 22.3229 30.6248C22.706 31.5499 23.3549 32.3405 24.1874 32.8968C25.02 33.4531 25.9987 33.75 27 33.75C28.3427 33.75 29.6303 33.2166 30.5797 32.2672C31.5291 31.3178 32.0625 30.0302 32.0625 28.6875ZM27 32.0625C26.3325 32.0625 25.68 31.8646 25.125 31.4937C24.5699 31.1229 24.1374 30.5958 23.8819 29.9791C23.6265 29.3624 23.5596 28.6838 23.6899 28.0291C23.8201 27.3744 24.1415 26.773 24.6135 26.301C25.0855 25.829 25.6869 25.5076 26.3416 25.3774C26.9963 25.2471 27.6749 25.314 28.2916 25.5694C28.9083 25.8249 29.4354 26.2574 29.8062 26.8125C30.1771 27.3675 30.375 28.02 30.375 28.6875C30.375 29.5826 30.0194 30.4411 29.3865 31.074C28.7536 31.7069 27.8951 32.0625 27 32.0625Z" fill="black"/>
<path id="Vector_8" d="M10.5722 29.6576C10.4443 29.5776 10.2974 29.5335 10.1467 29.5296C9.99602 29.5257 9.84702 29.5623 9.71524 29.6355C9.58345 29.7087 9.47369 29.8159 9.39737 29.9459C9.32104 30.0759 9.28095 30.224 9.28125 30.3747V33.7497C9.28105 33.8737 9.30816 33.9962 9.36066 34.1085C9.41316 34.2207 9.48976 34.3201 9.585 34.3994L14.6475 38.6182C14.7993 38.744 14.9904 38.8126 15.1875 38.8122H19.4063V51.4685C19.4063 51.6923 19.4951 51.9069 19.6534 52.0651C19.8116 52.2233 20.0262 52.3122 20.25 52.3122H33.75C33.9738 52.3122 34.1884 52.2233 34.3466 52.0651C34.5049 51.9069 34.5938 51.6923 34.5938 51.4685C34.5938 43.4107 34.5938 40.1454 34.5938 38.8122H38.8125C39.0096 38.8126 39.2007 38.744 39.3525 38.6182L44.415 34.3994C44.5102 34.3201 44.5868 34.2207 44.6393 34.1085C44.6918 33.9962 44.719 33.8737 44.7188 33.7497V30.3747C44.7191 30.224 44.679 30.0759 44.6026 29.9459C44.5263 29.8159 44.4166 29.7087 44.2848 29.6355C44.153 29.5623 44.004 29.5257 43.8533 29.5296C43.7026 29.5335 43.5557 29.5776 43.4278 29.6576L36.8803 33.7497H17.1197L10.5722 29.6576ZM37.125 35.4372C37.283 35.4377 37.4379 35.3939 37.5722 35.3107L43.0313 31.8935V33.3532L38.5088 37.1247H33.75C33.6343 37.1251 33.5199 37.1493 33.414 37.1957C33.308 37.2422 33.2127 37.3099 33.1341 37.3947C33.0558 37.478 32.9952 37.5762 32.9561 37.6835C32.9169 37.7909 32.9 37.905 32.9063 38.0191V50.6247H21.0938V37.9685C21.0938 37.7447 21.0049 37.5301 20.8466 37.3719C20.6884 37.2136 20.4738 37.1247 20.25 37.1247H15.4913L10.9688 33.3532V31.8935L16.4278 35.3107C16.5621 35.3939 16.717 35.4377 16.875 35.4372H37.125Z" fill="black"/>
<path id="Vector_9" d="M5.90625 43.875H7.59375V45.5625H5.90625V43.875Z" fill="#602EDF"/>
<path id="Vector_10" d="M9.28125 43.875H10.9688V45.5625H9.28125V43.875Z" fill="#602EDF"/>
<path id="Vector_11" d="M12.6562 43.875H14.3438V45.5625H12.6562V43.875Z" fill="#602EDF"/>
<path id="Vector_12" d="M2.53125 40.5H4.21875V42.1875H2.53125V40.5Z" fill="#602EDF"/>
<path id="Vector_13" d="M5.90625 40.5H7.59375V42.1875H5.90625V40.5Z" fill="#602EDF"/>
<path id="Vector_14" d="M5.90625 37.125H7.59375V38.8125H5.90625V37.125Z" fill="#602EDF"/>
<path id="Vector_15" d="M9.28125 40.5H10.9688V42.1875H9.28125V40.5Z" fill="#602EDF"/>
<path id="Vector_16" d="M9.28125 37.125H10.9688V38.8125H9.28125V37.125Z" fill="#602EDF"/>
<path id="Vector_17" d="M16.0312 43.875H17.7188V45.5625H16.0312V43.875Z" fill="#602EDF"/>
<path id="Vector_18" d="M16.0312 47.25H17.7188V48.9375H16.0312V47.25Z" fill="#602EDF"/>
<path id="Vector_19" d="M12.6562 40.5H14.3438V42.1875H12.6562V40.5Z" fill="#602EDF"/>
<path id="Vector_20" d="M16.0312 40.5H17.7188V42.1875H16.0312V40.5Z" fill="#602EDF"/>
<path id="Vector_21" d="M46.4062 43.875H48.0938V45.5625H46.4062V43.875Z" fill="#602EDF"/>
<path id="Vector_22" d="M43.0312 43.875H44.7188V45.5625H43.0312V43.875Z" fill="#602EDF"/>
<path id="Vector_23" d="M39.6562 43.875H41.3438V45.5625H39.6562V43.875Z" fill="#602EDF"/>
<path id="Vector_24" d="M49.7812 40.5H51.4688V42.1875H49.7812V40.5Z" fill="#602EDF"/>
<path id="Vector_25" d="M46.4062 40.5H48.0938V42.1875H46.4062V40.5Z" fill="#602EDF"/>
<path id="Vector_26" d="M46.4062 37.125H48.0938V38.8125H46.4062V37.125Z" fill="#602EDF"/>
<path id="Vector_27" d="M43.0312 40.5H44.7188V42.1875H43.0312V40.5Z" fill="#602EDF"/>
<path id="Vector_28" d="M43.0312 37.125H44.7188V38.8125H43.0312V37.125Z" fill="#602EDF"/>
<path id="Vector_29" d="M36.2812 43.875H37.9688V45.5625H36.2812V43.875Z" fill="#602EDF"/>
<path id="Vector_30" d="M36.2812 47.25H37.9688V48.9375H36.2812V47.25Z" fill="#602EDF"/>
<path id="Vector_31" d="M39.6562 40.5H41.3438V42.1875H39.6562V40.5Z" fill="#602EDF"/>
<path id="Vector_32" d="M36.2812 40.5H37.9688V42.1875H36.2812V40.5Z" fill="#602EDF"/>
<path id="Vector_33" d="M27 1.6875C20.2867 1.6875 13.8484 4.35434 9.10136 9.10136C4.35434 13.8484 1.6875 20.2867 1.6875 27C1.6875 27.2238 1.77639 27.4384 1.93463 27.5966C2.09286 27.7549 2.30747 27.8438 2.53125 27.8438H10.9688C11.1925 27.8438 11.4071 27.7549 11.5654 27.5966C11.7236 27.4384 11.8125 27.2238 11.8125 27C11.8125 22.972 13.4126 19.109 16.2608 16.2608C19.109 13.4126 22.972 11.8125 27 11.8125C31.028 11.8125 34.891 13.4126 37.7392 16.2608C40.5874 19.109 42.1875 22.972 42.1875 27C42.1875 27.2238 42.2764 27.4384 42.4346 27.5966C42.5929 27.7549 42.8075 27.8438 43.0312 27.8438H51.4688C51.6925 27.8438 51.9071 27.7549 52.0654 27.5966C52.2236 27.4384 52.3125 27.2238 52.3125 27C52.3125 20.2867 49.6457 13.8484 44.8986 9.10136C40.1516 4.35434 33.7133 1.6875 27 1.6875ZM38.2978 14.4956C35.4177 11.8886 31.7238 10.3591 27.8438 10.1672V3.375C33.5207 3.57463 38.9336 5.82249 43.0819 9.70312L38.2978 14.4956ZM10.9181 9.72C15.0639 5.83321 20.4771 3.57924 26.1562 3.375V10.125C22.2762 10.317 18.5823 11.8464 15.7022 14.4534L10.9181 9.72ZM10.125 26.1562H3.375C3.57262 20.4763 5.82061 15.0602 9.70312 10.9097L14.4872 15.6853C11.8637 18.5647 10.3218 22.2659 10.125 26.1562ZM43.875 26.1562C43.6782 22.2659 42.1363 18.5647 39.5128 15.6853L44.2969 10.9097C48.1794 15.0602 50.4274 20.4763 50.625 26.1562H43.875Z" fill="black"/>
</g>
</svg>
