<svg width="54" height="54" viewBox="0 0 54 54" fill="none" xmlns="http://www.w3.org/2000/svg">
<g id="12222 1">
<g id="Artboard201">
<g id="Group">
<g id="Group_2">
<g id="Group_3">
<path id="Vector" d="M8.44617 13.8982C11.8456 13.8982 14.6013 11.1424 14.6013 7.74304C14.6013 4.34365 11.8456 1.58789 8.44617 1.58789C5.04677 1.58789 2.29102 4.34365 2.29102 7.74304C2.29102 11.1424 5.04677 13.8982 8.44617 13.8982Z" fill="#887ACB"/>
<path id="Vector_2" fill-rule="evenodd" clip-rule="evenodd" d="M7.91699 1.61034C8.09159 1.59551 8.2681 1.58789 8.4464 1.58789C11.8435 1.58789 14.6016 4.34591 14.6016 7.74304C14.6016 11.1402 11.8435 13.8982 8.4464 13.8982C8.2681 13.8982 8.09159 13.8906 7.91699 13.8756C11.0667 13.6068 13.5427 10.9618 13.5427 7.74304C13.5427 4.52422 11.0667 1.87917 7.91699 1.61034Z" fill="#F3D6FF"/>
</g>
<path id="Vector_3" fill-rule="evenodd" clip-rule="evenodd" d="M5.10978 8.50653C4.7789 8.17618 4.77848 7.63946 5.10872 7.30858C5.43908 6.9777 5.97579 6.97727 6.30668 7.30752L7.33278 8.33204L10.6149 5.35611C10.9613 5.04206 11.4975 5.06832 11.8115 5.41466C12.1254 5.761 12.0993 6.29719 11.7529 6.61113L7.87373 10.1284C7.53925 10.4316 7.02572 10.4193 6.70628 10.1004L5.10978 8.50653Z" fill="#ECEFF1"/>
</g>
<g id="Group_4">
<g id="Group_5">
<path id="Vector_4" d="M45.5526 13.8982C48.952 13.8982 51.7078 11.1424 51.7078 7.74304C51.7078 4.34365 48.952 1.58789 45.5526 1.58789C42.1532 1.58789 39.3975 4.34365 39.3975 7.74304C39.3975 11.1424 42.1532 13.8982 45.5526 13.8982Z" fill="#887ACB"/>
<path id="Vector_5" fill-rule="evenodd" clip-rule="evenodd" d="M45.0234 1.61034C45.1979 1.59551 45.3744 1.58789 45.5528 1.58789C48.9499 1.58789 51.7079 4.34591 51.7079 7.74304C51.7079 11.1402 48.9499 13.8982 45.5528 13.8982C45.3744 13.8982 45.1979 13.8906 45.0234 13.8756C48.173 13.6068 50.6491 10.9618 50.6491 7.74304C50.6491 4.52422 48.173 1.87917 45.0234 1.61034Z" fill="#F3D6FF"/>
</g>
<path id="Vector_6" fill-rule="evenodd" clip-rule="evenodd" d="M42.2162 8.50653C41.8853 8.17618 41.8849 7.63946 42.2152 7.30858C42.5455 6.9777 43.0822 6.97727 43.4131 7.30752L44.4393 8.33204L47.7215 5.35611C48.0678 5.04206 48.6039 5.06832 48.9179 5.41466C49.232 5.761 49.2057 6.29719 48.8594 6.61113L44.9802 10.1284C44.6457 10.4316 44.1323 10.4193 43.8127 10.1004L42.2162 8.50653Z" fill="#ECEFF1"/>
</g>
<g id="Group_6">
<g id="Group_7">
<path id="Vector_7" d="M45.5526 52.4119C48.952 52.4119 51.7078 49.6561 51.7078 46.2567C51.7078 42.8573 48.952 40.1016 45.5526 40.1016C42.1532 40.1016 39.3975 42.8573 39.3975 46.2567C39.3975 49.6561 42.1532 52.4119 45.5526 52.4119Z" fill="#887ACB"/>
<path id="Vector_8" fill-rule="evenodd" clip-rule="evenodd" d="M45.0234 40.1241C45.1979 40.1092 45.3744 40.1016 45.5528 40.1016C48.9499 40.1016 51.7079 42.8596 51.7079 46.2567C51.7079 49.6538 48.9499 52.4119 45.5528 52.4119C45.3744 52.4119 45.1979 52.4042 45.0234 52.3894C48.173 52.1206 50.6491 49.4755 50.6491 46.2567C50.6491 43.038 48.173 40.393 45.0234 40.1241Z" fill="#F3D6FF"/>
</g>
<path id="Vector_9" fill-rule="evenodd" clip-rule="evenodd" d="M42.2162 47.0201C41.8853 46.6899 41.8849 46.1531 42.2152 45.8222C42.5455 45.4914 43.0822 45.4909 43.4131 45.8212L44.4393 46.8456L47.7215 43.8697C48.0678 43.5558 48.6039 43.582 48.9179 43.9283C49.232 44.2746 49.2057 44.8108 48.8594 45.1248L44.9802 48.642C44.6457 48.9453 44.1323 48.9329 43.8127 48.614L42.2162 47.0201Z" fill="#ECEFF1"/>
</g>
<g id="Group_8">
<g id="Group_9">
<path id="Vector_10" d="M8.44617 52.4119C11.8456 52.4119 14.6013 49.6561 14.6013 46.2567C14.6013 42.8573 11.8456 40.1016 8.44617 40.1016C5.04677 40.1016 2.29102 42.8573 2.29102 46.2567C2.29102 49.6561 5.04677 52.4119 8.44617 52.4119Z" fill="#887ACB"/>
<path id="Vector_11" fill-rule="evenodd" clip-rule="evenodd" d="M7.91699 40.1241C8.09159 40.1092 8.2681 40.1016 8.4464 40.1016C11.8435 40.1016 14.6016 42.8596 14.6016 46.2567C14.6016 49.6538 11.8435 52.4119 8.4464 52.4119C8.2681 52.4119 8.09159 52.4042 7.91699 52.3894C11.0667 52.1206 13.5427 49.4755 13.5427 46.2567C13.5427 43.038 11.0667 40.393 7.91699 40.1241Z" fill="#F3D6FF"/>
</g>
<path id="Vector_12" fill-rule="evenodd" clip-rule="evenodd" d="M5.10978 47.0201C4.7789 46.6899 4.77848 46.1531 5.10872 45.8222C5.43908 45.4914 5.97579 45.4909 6.30668 45.8212L7.33278 46.8456L10.6149 43.8697C10.9613 43.5558 11.4975 43.582 11.8115 43.9283C12.1254 44.2746 12.0993 44.8108 11.7529 45.1248L7.87373 48.642C7.53925 48.9453 7.02572 48.9329 6.70628 48.614L5.10978 47.0201Z" fill="#ECEFF1"/>
</g>
<path id="Vector_13" fill-rule="evenodd" clip-rule="evenodd" d="M6.38203 36.7735C6.56298 37.2045 6.3598 37.7014 5.92864 37.8823C5.4976 38.0631 5.0008 37.86 4.81984 37.4289C3.62094 34.5713 2.95801 31.434 2.95801 28.1431C2.95801 24.0292 3.99375 20.1552 5.818 16.7678C6.03971 16.3563 6.55388 16.202 6.96544 16.4237C7.37711 16.6453 7.53128 17.1595 7.30956 17.5712C5.61417 20.7193 4.65213 24.3198 4.65213 28.1431C4.65213 31.2017 5.26773 34.1176 6.38203 36.7735ZM35.6615 48.7474C36.0922 48.5658 36.5894 48.7681 36.7709 49.199C36.9525 49.6298 36.7501 50.1269 36.3193 50.3085C33.4527 51.5165 30.3035 52.1846 26.9995 52.1846C23.5369 52.1846 20.2443 51.4508 17.2686 50.1306C16.8413 49.9411 16.6483 49.4403 16.8378 49.0129C17.0274 48.5856 17.5283 48.3926 17.9556 48.5821C20.7212 49.809 23.7814 50.4905 26.9995 50.4905C30.0702 50.4905 32.9971 49.8701 35.6615 48.7474ZM46.6641 17.5242C46.4415 17.113 46.5945 16.5985 47.0055 16.3759C47.4166 16.1532 47.9311 16.3062 48.1538 16.7172C49.995 20.1167 51.0411 24.0087 51.0411 28.1431C51.0411 31.4342 50.3782 34.5718 49.179 37.4294C48.9981 37.8606 48.5013 38.0636 48.0701 37.8828C47.6391 37.702 47.4359 37.205 47.6169 36.774C48.7313 34.1179 49.347 31.2018 49.347 28.1431C49.347 24.3007 48.3753 20.6835 46.6641 17.5242ZM18.5466 7.4521C18.114 7.62924 17.6189 7.42172 17.4418 6.98908C17.2646 6.55645 17.472 6.06145 17.9047 5.8843C20.7109 4.73527 23.7818 4.10156 26.9995 4.10156C30.2845 4.10156 33.4164 4.76206 36.2699 5.95694C36.7011 6.13747 36.9046 6.63416 36.724 7.06542C36.5435 7.49668 36.0468 7.70019 35.6155 7.51955C32.9636 6.40906 30.0526 5.79568 26.9995 5.79568C24.0089 5.79568 21.1547 6.38417 18.5466 7.4521Z" fill="#A79BA7"/>
<g id="Group_10">
<path id="Vector_14" fill-rule="evenodd" clip-rule="evenodd" d="M27.771 10.941L40.8411 16.5421C41.3472 16.7598 41.6561 17.228 41.6561 17.7798V28.6909C41.6561 37.3495 35.4551 44.0364 27.0649 45.4993C18.6745 44.0364 12.4736 37.3495 12.4736 28.6909V17.7798C12.4736 17.228 12.7824 16.7598 13.2886 16.5421L26.3587 10.941C26.8269 10.741 27.3028 10.741 27.771 10.941Z" fill="#8058E5"/>
<path id="Vector_15" fill-rule="evenodd" clip-rule="evenodd" d="M39.6562 16.0332L40.8408 16.542C41.3469 16.7597 41.6557 17.2279 41.6557 17.7796V28.6908C41.6557 31.642 40.9369 34.3627 39.6562 36.7242V16.0332Z" fill="#602EDF"/>
</g>
<g id="Group_11">
<path id="Vector_16" fill-rule="evenodd" clip-rule="evenodd" d="M33.0671 29.5712L30.2891 29.2784V23.3437C30.2891 21.5387 28.8039 20.0534 26.9989 20.0534C25.1939 20.0534 23.7087 21.5387 23.7087 23.3437V29.5712L20.9307 28.8343V23.3437C20.9307 20.006 23.6599 17.2754 26.9989 17.2754C30.3366 17.2754 33.0671 20.006 33.0671 23.3437V29.5712Z" fill="#F8FAFC"/>
<path id="Vector_17" fill-rule="evenodd" clip-rule="evenodd" d="M19.5701 24.9863H34.4281C35.0391 24.9863 35.5372 25.4844 35.5372 26.0954V37.9046C35.5372 38.5144 35.0391 39.0125 34.4281 39.0125H19.5701C18.959 39.0125 18.4609 38.5144 18.4609 37.9046V26.0954C18.4609 25.4844 18.959 24.9863 19.5701 24.9863Z" fill="#F8FAFC"/>
<path id="Vector_18" fill-rule="evenodd" clip-rule="evenodd" d="M33.1953 24.9863H34.4277C35.0387 24.9863 35.5368 25.4844 35.5368 26.0954V37.9046C35.5368 38.5144 35.0387 39.0125 34.4277 39.0125H33.1953C33.8064 39.0125 34.3044 38.5144 34.3044 37.9046V26.0954C34.3044 25.4844 33.8064 24.9863 33.1953 24.9863Z" fill="#F8FAFC"/>
<path id="Vector_19" fill-rule="evenodd" clip-rule="evenodd" d="M26.9984 27.7871C28.191 27.7871 29.1577 28.7537 29.1577 29.9464C29.1577 30.7243 28.7469 31.406 28.1307 31.786V35.0813C28.1307 35.7039 27.621 36.2135 26.9984 36.2135C26.3746 36.2135 25.8648 35.7039 25.8648 35.0813V31.786C25.2487 31.406 24.8379 30.7243 24.8379 29.9464C24.8379 28.7537 25.8045 27.7871 26.9984 27.7871Z" fill="#8058E5"/>
</g>
</g>
</g>
</g>
</svg>
