<svg width="32" height="32" viewBox="0 0 32 32" fill="none" xmlns="http://www.w3.org/2000/svg">
<g id="voice-recognition 1">
<g id="Group">
<path id="Vector" d="M11.2969 14.1172V17.8828C11.2969 20.4761 13.4067 22.5859 16 22.5859L17.2051 16L16 9.41406C13.4067 9.41406 11.2969 11.5239 11.2969 14.1172Z" fill="#6753B8"/>
<path id="Vector_2" d="M16 9.41406V22.5859C18.5933 22.5859 20.7031 20.4761 20.7031 17.8828V14.1172C20.7031 11.5239 18.5933 9.41406 16 9.41406Z" fill="#44388F"/>
<g id="Group_2">
<path id="Vector_3" d="M11.2969 1.88281H13.1719V5.64844H11.2969V1.88281Z" fill="#F949C1"/>
<path id="Vector_4" d="M3.76562 1.88281H5.64062V5.64844H3.76562V1.88281Z" fill="#F949C1"/>
<path id="Vector_5" d="M15.0625 0V7.53125H16L16.4688 3.51006L16 0H15.0625Z" fill="#F949C1"/>
</g>
<path id="Vector_6" d="M16 0H16.9375V7.53125H16V0Z" fill="#DD0096"/>
<path id="Vector_7" d="M7.53125 0H9.40625V7.53125H7.53125V0Z" fill="#F949C1"/>
<path id="Vector_8" d="M18.8281 1.88281H20.7031V5.64844H18.8281V1.88281Z" fill="#DD0096"/>
<path id="Vector_9" d="M22.5938 0H24.4688V7.53125H22.5938V0Z" fill="#DD0096"/>
<path id="Vector_10" d="M26.3594 1.88281H28.2344V5.64844H26.3594V1.88281Z" fill="#DD0096"/>
<path id="Vector_11" d="M12.874 24.8646V32H16.0005L16.9963 28.4323L16.0005 24.8646H12.874Z" fill="#44388F"/>
<path id="Vector_12" d="M16 24.8646H19.1264V32H16V24.8646Z" fill="#2B2066"/>
<path id="Vector_13" d="M9.40625 17.8828V16H7.53125V17.8828C7.53125 22.5525 11.3303 26.3516 16 26.3516L16.9375 25.3381L16 24.4766C12.3642 24.4766 9.40625 21.5186 9.40625 17.8828Z" fill="#6753B8"/>
<path id="Vector_14" d="M22.5938 16V17.8828C22.5938 21.5186 19.6358 24.4766 16 24.4766V26.3516C20.6697 26.3516 24.4688 22.5525 24.4688 17.8828V16H22.5938Z" fill="#44388F"/>
</g>
</g>
</svg>
