<svg width="396" height="367" viewBox="0 0 396 367" fill="none" xmlns="http://www.w3.org/2000/svg">
<g style="mix-blend-mode:hard-light" opacity="0.39">
<path d="M340.378 67.9414H50.3969C46.618 67.9414 43.5547 71.0047 43.5547 74.7836V260.099C43.5547 263.878 46.618 266.941 50.3969 266.941H340.378C344.157 266.941 347.22 263.878 347.22 260.099V74.7836C347.22 71.0047 344.157 67.9414 340.378 67.9414Z" fill="#546774"/>
</g>
<mask id="mask0_43_8854" style="mask-type:luminance" maskUnits="userSpaceOnUse" x="43" y="67" width="305" height="200">
<path d="M340.378 67.9414H50.3969C46.618 67.9414 43.5547 71.0047 43.5547 74.7836V260.099C43.5547 263.878 46.618 266.941 50.3969 266.941H340.378C344.157 266.941 347.22 263.878 347.22 260.099V74.7836C347.22 71.0047 344.157 67.9414 340.378 67.9414Z" fill="white"/>
</mask>
<g mask="url(#mask0_43_8854)">
<g style="mix-blend-mode:hard-light" opacity="0.4">
<path d="M378.665 63.7188H32.2881V82.9629H378.665V63.7188Z" fill="#546774"/>
</g>
</g>
<g style="mix-blend-mode:hard-light" opacity="0.4">
<path d="M348.082 293.303L337.393 323.3L359.495 331.177L370.184 301.18L348.082 293.303ZM348.906 322.952C348.879 323.035 348.778 323.08 348.695 323.053L342.165 320.726C342.082 320.699 342.036 320.598 342.064 320.516L342.284 319.884C342.311 319.801 342.412 319.755 342.494 319.783L349.025 322.109C349.108 322.137 349.153 322.238 349.126 322.32L348.906 322.952ZM359.577 320.974C359.531 321.102 359.394 321.166 359.266 321.12L344.033 315.689C343.905 315.643 343.841 315.505 343.887 315.377L344.033 314.965C344.079 314.837 344.216 314.773 344.345 314.818L359.577 320.25C359.705 320.296 359.769 320.433 359.724 320.561L359.577 320.974ZM360.914 317.227C360.868 317.356 360.731 317.42 360.603 317.374L345.37 311.942C345.242 311.897 345.178 311.759 345.224 311.631L345.37 311.219C345.416 311.091 345.554 311.026 345.682 311.072L360.914 316.504C361.042 316.55 361.107 316.687 361.061 316.815L360.914 317.227ZM362.252 313.472C362.206 313.6 362.068 313.664 361.94 313.619L346.708 308.187C346.58 308.141 346.515 308.004 346.561 307.876L346.708 307.463C346.754 307.335 346.891 307.271 347.019 307.317L362.252 312.748C362.38 312.794 362.444 312.932 362.398 313.06L362.252 313.472ZM363.589 309.717C363.543 309.845 363.406 309.909 363.277 309.863L348.045 304.432C347.917 304.386 347.853 304.248 347.899 304.12L348.045 303.708C348.091 303.58 348.228 303.516 348.357 303.561L363.589 308.993C363.717 309.039 363.781 309.176 363.735 309.304L363.589 309.717ZM364.926 305.961C364.88 306.089 364.743 306.154 364.615 306.108L349.382 300.676C349.254 300.63 349.19 300.493 349.236 300.365L349.382 299.953C349.428 299.824 349.566 299.76 349.694 299.806L364.926 305.238C365.054 305.283 365.118 305.421 365.073 305.549L364.926 305.961Z" fill="#B87C7C"/>
</g>
<g style="mix-blend-mode:hard-light" opacity="0.4">
<path d="M111.647 319.563L135.178 341.033L150.997 323.694L127.466 302.224L111.647 319.563ZM139.309 330.27C139.373 330.334 139.383 330.435 139.318 330.508L134.647 335.628C134.583 335.693 134.482 335.702 134.409 335.638L133.914 335.189C133.85 335.125 133.841 335.024 133.905 334.951L138.576 329.83C138.641 329.766 138.741 329.757 138.815 329.821L139.309 330.27ZM141.617 319.673C141.718 319.764 141.718 319.911 141.636 320.011L130.736 331.955C130.644 332.056 130.498 332.056 130.397 331.974L130.076 331.681C129.976 331.589 129.976 331.443 130.058 331.342L140.958 319.398C141.05 319.297 141.196 319.297 141.297 319.379L141.617 319.673ZM138.668 316.989C138.769 317.08 138.769 317.227 138.686 317.328L127.787 329.272C127.695 329.372 127.548 329.372 127.448 329.29L127.127 328.997C127.026 328.905 127.026 328.759 127.109 328.658L138.009 316.714C138.1 316.613 138.247 316.613 138.348 316.696L138.668 316.989ZM135.728 314.305C135.829 314.397 135.829 314.543 135.746 314.644L124.846 326.588C124.755 326.689 124.608 326.689 124.507 326.606L124.187 326.313C124.086 326.222 124.086 326.075 124.169 325.974L135.068 314.03C135.16 313.93 135.307 313.93 135.407 314.012L135.728 314.305ZM132.788 311.612C132.888 311.704 132.888 311.85 132.806 311.951L121.906 323.895C121.815 323.996 121.668 323.996 121.567 323.913L121.247 323.62C121.146 323.529 121.146 323.382 121.228 323.281L132.128 311.337C132.22 311.237 132.366 311.237 132.467 311.319L132.788 311.612ZM129.838 308.928C129.939 309.02 129.939 309.167 129.857 309.267L118.957 321.211C118.865 321.312 118.719 321.312 118.618 321.23L118.297 320.937C118.197 320.845 118.197 320.698 118.279 320.598L129.179 308.654C129.27 308.553 129.417 308.553 129.518 308.635L129.838 308.928Z" fill="#B87C7C"/>
</g>
<g style="mix-blend-mode:hard-light" opacity="0.4">
<path d="M0.880859 85.8302L24.4117 107.3L40.2302 89.9611L16.6994 68.4912L0.880859 85.8302ZM28.5426 96.5377C28.6068 96.6018 28.6159 96.7026 28.5518 96.7758L23.8804 101.896C23.8163 101.96 23.7156 101.969 23.6423 101.905L23.1477 101.456C23.0835 101.392 23.0744 101.291 23.1385 101.218L27.8099 96.098C27.874 96.0339 27.9747 96.0247 28.048 96.0889L28.5426 96.5377ZM30.8508 85.9401C30.9516 86.0317 30.9516 86.1783 30.8691 86.279L19.9693 98.223C19.8777 98.3238 19.7312 98.3238 19.6304 98.2414L19.3098 97.9482C19.2091 97.8567 19.2091 97.7101 19.2915 97.6093L30.1913 85.6653C30.2829 85.5646 30.4295 85.5646 30.5302 85.647L30.8508 85.9401ZM27.9015 83.2564C28.0022 83.348 28.0022 83.4945 27.9198 83.5953L17.0199 95.5393C16.9283 95.6401 16.7818 95.64 16.681 95.5576L16.3605 95.2645C16.2597 95.1729 16.2597 95.0264 16.3421 94.9256L27.242 82.9816C27.3336 82.8808 27.4801 82.8808 27.5809 82.9633L27.9015 83.2564ZM24.9613 80.5635C25.062 80.6551 25.062 80.8016 24.9796 80.9024L14.0797 92.8464C13.9881 92.9472 13.8416 92.9471 13.7408 92.8647L13.4203 92.5716C13.3195 92.48 13.3195 92.3335 13.4019 92.2327L24.3018 80.2887C24.3934 80.1879 24.5399 80.1879 24.6407 80.2704L24.9613 80.5635ZM22.0211 77.8797C22.1218 77.9713 22.1218 78.1179 22.0394 78.2186L11.1395 90.1627C11.0479 90.2634 10.9014 90.2634 10.8006 90.181L10.4801 89.8879C10.3793 89.7963 10.3793 89.6497 10.4617 89.549L21.3616 77.6049C21.4532 77.5042 21.5997 77.5042 21.7005 77.5866L22.0211 77.8797ZM19.0717 75.196C19.1724 75.2876 19.1724 75.4341 19.09 75.5349L8.19017 87.4789C8.09858 87.5797 7.95203 87.5797 7.85127 87.4972L7.53068 87.2041C7.42993 87.1125 7.42991 86.966 7.51235 86.8652L18.4122 74.9212C18.5038 74.8204 18.6503 74.8204 18.7511 74.9029L19.0717 75.196Z" fill="#B87C7C"/>
</g>
<g style="mix-blend-mode:hard-light" opacity="0.19">
<path d="M151.546 164.208L175.077 185.678L190.895 168.339L167.364 146.869L151.546 164.208ZM179.199 174.916C179.263 174.98 179.272 175.08 179.208 175.154L174.536 180.274C174.472 180.338 174.371 180.347 174.298 180.283L173.804 179.834C173.739 179.77 173.73 179.669 173.794 179.596L178.466 174.476C178.53 174.412 178.631 174.403 178.704 174.467L179.199 174.916ZM181.507 164.318C181.607 164.41 181.607 164.556 181.525 164.657L170.625 176.601C170.534 176.702 170.387 176.702 170.286 176.619L169.966 176.326C169.865 176.235 169.865 176.088 169.947 175.987L180.847 164.043C180.939 163.942 181.085 163.943 181.186 164.025L181.507 164.318ZM178.566 161.634C178.667 161.726 178.667 161.872 178.585 161.973L167.685 173.917C167.593 174.018 167.447 174.018 167.346 173.936L167.026 173.642C166.925 173.551 166.925 173.404 167.007 173.304L177.907 161.36C177.999 161.259 178.145 161.259 178.246 161.341L178.566 161.634ZM175.626 158.951C175.727 159.042 175.727 159.189 175.645 159.289L164.745 171.233C164.653 171.334 164.507 171.334 164.406 171.252L164.085 170.959C163.985 170.867 163.985 170.721 164.067 170.62L174.967 158.676C175.058 158.575 175.205 158.575 175.306 158.657L175.626 158.951ZM172.677 156.258C172.778 156.349 172.778 156.496 172.695 156.597L161.795 168.541C161.704 168.641 161.557 168.641 161.457 168.559L161.136 168.266C161.035 168.174 161.035 168.028 161.118 167.927L172.017 155.983C172.109 155.882 172.256 155.882 172.356 155.965L172.677 156.258ZM169.737 153.574C169.837 153.666 169.837 153.812 169.755 153.913L158.855 165.857C158.764 165.958 158.617 165.958 158.516 165.875L158.196 165.582C158.095 165.49 158.095 165.344 158.177 165.243L169.077 153.299C169.169 153.198 169.315 153.198 169.416 153.281L169.737 153.574Z" fill="#B87C7C"/>
</g>
<g style="mix-blend-mode:hard-light" opacity="0.4">
<path d="M235.749 335.427C234.65 334.173 232.736 334.044 231.481 335.153C230.226 336.252 230.098 338.166 231.206 339.421C232.306 340.676 234.22 340.804 235.475 339.696C236.73 338.597 236.858 336.682 235.749 335.427Z" fill="#B87C7C"/>
<path d="M235.173 329.675L236.684 328.347L234.468 325.819L232.956 327.147L231.179 325.123L221.58 333.541L235.988 349.955L245.587 341.537L235.173 329.666V329.675ZM230.19 340.3C228.596 338.487 228.779 335.73 230.593 334.136C232.407 332.542 235.164 332.725 236.757 334.539C238.351 336.353 238.168 339.11 236.354 340.703C234.541 342.297 231.784 342.114 230.19 340.3Z" fill="#B87C7C"/>
</g>
<g style="mix-blend-mode:hard-light" opacity="0.4">
<path d="M276.18 40.1514C274.522 40.3529 273.341 41.855 273.533 43.5129C273.735 45.1708 275.237 46.3524 276.895 46.16C278.553 45.9585 279.734 44.4564 279.542 42.7985C279.34 41.1406 277.838 39.959 276.18 40.1514Z" fill="#B87C7C"/>
<path d="M271.115 37.3673L270.877 35.3613L267.543 35.7552L267.781 37.7611L265.115 38.0817L266.627 50.7585L288.316 48.1755L286.805 35.4987L271.124 37.3673H271.115ZM277.05 47.4885C274.65 47.7725 272.48 46.0597 272.196 43.669C271.912 41.2692 273.624 39.0984 276.015 38.8145C278.415 38.5305 280.586 40.2434 280.87 42.634C281.154 45.0246 279.441 47.2046 277.05 47.4885Z" fill="#B87C7C"/>
</g>
<g style="mix-blend-mode:hard-light" opacity="0.4">
<path d="M15.692 221.317C14.0342 221.519 12.8526 223.021 13.0449 224.679C13.2464 226.337 14.7486 227.518 16.4065 227.326C18.0644 227.134 19.2459 225.622 19.0536 223.965C18.8521 222.307 17.3499 221.125 15.692 221.317Z" fill="#B87C7C"/>
<path d="M10.6265 218.533L10.3883 216.527L7.05422 216.921L7.29238 218.927L4.62695 219.248L6.13827 231.925L27.828 229.342L26.3167 216.665L10.6356 218.533H10.6265ZM16.5618 228.655C14.162 228.939 11.9912 227.226 11.7073 224.835C11.4233 222.444 13.1361 220.264 15.5268 219.981C17.9174 219.697 20.0974 221.409 20.3813 223.8C20.6653 226.2 18.9525 228.371 16.5618 228.655Z" fill="#B87C7C"/>
</g>
<g style="mix-blend-mode:hard-light" opacity="0.4">
<path d="M365.348 204.419C363.69 204.62 362.508 206.123 362.71 207.78C362.911 209.438 364.414 210.62 366.071 210.418C367.729 210.217 368.911 208.715 368.709 207.057C368.508 205.399 367.006 204.217 365.348 204.419Z" fill="#B87C7C"/>
<path d="M360.283 201.643L360.045 199.646L356.71 200.05L356.949 202.055L354.283 202.376L355.813 215.053L377.493 212.442L375.964 199.766L360.283 201.652V201.643ZM366.236 211.755C363.846 212.048 361.666 210.336 361.382 207.945C361.098 205.554 362.802 203.374 365.192 203.09C367.583 202.797 369.763 204.51 370.047 206.901C370.34 209.291 368.627 211.471 366.236 211.755Z" fill="#B87C7C"/>
</g>
<g style="mix-blend-mode:hard-light" opacity="0.4">
<path d="M304.015 352.152C302.449 352.152 301.175 353.426 301.175 354.992C301.175 355.651 301.404 356.265 301.789 356.75L297.869 361.697C297.448 361.449 296.962 361.312 296.44 361.312C296.376 361.312 296.303 361.312 296.239 361.321L293.903 355.157C294.672 354.644 295.176 353.774 295.176 352.794C295.176 351.227 293.903 349.954 292.337 349.954C290.77 349.954 289.497 351.227 289.497 352.794C289.497 354.36 290.77 355.633 292.337 355.633C292.465 355.633 292.602 355.624 292.721 355.606L295.029 361.697C294.178 362.191 293.601 363.107 293.601 364.161C293.601 365.727 294.874 367 296.44 367C298.006 367 299.279 365.727 299.279 364.161C299.279 363.574 299.096 363.025 298.794 362.567L302.769 357.556C303.145 357.74 303.566 357.85 304.015 357.85C305.581 357.85 306.854 356.576 306.854 355.01C306.854 353.444 305.581 352.171 304.015 352.171V352.152Z" fill="#B87C7C"/>
</g>
<g style="mix-blend-mode:hard-light" opacity="0.4">
<path d="M107.827 285.508C106.261 285.508 104.988 286.781 104.988 288.347C104.988 289.007 105.217 289.62 105.602 290.106L101.681 295.052C101.26 294.805 100.775 294.667 100.252 294.667C100.188 294.667 100.115 294.667 100.051 294.677L97.7153 288.512C98.4847 287.999 98.9885 287.129 98.9885 286.149C98.9885 284.583 97.7153 283.31 96.149 283.31C94.5827 283.31 93.3096 284.583 93.3096 286.149C93.3096 287.715 94.5827 288.988 96.149 288.988C96.2773 288.988 96.4146 288.979 96.5337 288.961L98.8419 295.052C97.9901 295.547 97.413 296.463 97.413 297.516C97.413 299.082 98.6862 300.355 100.252 300.355C101.819 300.355 103.092 299.082 103.092 297.516C103.092 296.93 102.909 296.38 102.606 295.922L106.582 290.912C106.957 291.095 107.379 291.205 107.827 291.205C109.394 291.205 110.667 289.932 110.667 288.366C110.667 286.799 109.394 285.526 107.827 285.526V285.508Z" fill="#B87C7C"/>
</g>
<g style="mix-blend-mode:hard-light" opacity="0.19">
<path d="M238.369 93.6061C238.497 95.1723 239.862 96.3356 241.428 96.2074C242.088 96.1524 242.674 95.8776 243.132 95.4563L248.38 98.9644C248.17 99.404 248.069 99.8987 248.115 100.412C248.115 100.476 248.133 100.54 248.142 100.613L242.179 103.434C241.611 102.711 240.705 102.28 239.715 102.363C238.149 102.491 236.986 103.856 237.114 105.422C237.242 106.988 238.607 108.151 240.173 108.023C241.74 107.895 242.903 106.53 242.775 104.964C242.766 104.836 242.738 104.707 242.711 104.579L248.591 101.795C249.15 102.61 250.111 103.104 251.165 103.022C252.731 102.894 253.894 101.529 253.766 99.9628C253.638 98.3965 252.273 97.2332 250.707 97.3615C250.121 97.4073 249.589 97.6362 249.159 97.9751L243.837 94.4121C243.993 94.0182 244.066 93.5877 244.03 93.1481C243.901 91.5818 242.537 90.4185 240.97 90.5468C239.404 90.675 238.241 92.0398 238.369 93.6061Z" fill="#B87C7C"/>
</g>
<g style="mix-blend-mode:hard-light" opacity="0.4">
<path d="M79.369 30.0762C77.9767 30.7998 77.4363 32.5217 78.1691 33.914C78.4805 34.5002 78.9568 34.9399 79.5247 35.1872L78.334 41.3882C77.8485 41.3698 77.3539 41.4614 76.8959 41.7088C76.8318 41.7362 76.7769 41.7729 76.7219 41.8095L71.8032 37.4221C72.2429 36.616 72.2887 35.6085 71.8307 34.7384C71.1071 33.3461 69.3851 32.8057 67.9929 33.5385C66.6006 34.2621 66.0602 35.9841 66.7929 37.3763C67.5166 38.7685 69.2385 39.309 70.6308 38.5762C70.7499 38.5121 70.8598 38.448 70.9606 38.3655L75.8243 42.698C75.293 43.5315 75.2106 44.6123 75.696 45.5466C76.4196 46.9388 78.1416 47.4793 79.5339 46.7465C80.9261 46.0229 81.4665 44.3009 80.7337 42.9086C80.459 42.3866 80.0468 41.9835 79.5613 41.7179L80.7704 35.4345C81.1917 35.4253 81.6131 35.3246 82.0161 35.1139C83.4084 34.3903 83.9488 32.6683 83.216 31.2761C82.4924 29.8838 80.7704 29.3434 79.3782 30.0762H79.369Z" fill="#B87C7C"/>
</g>
<g style="mix-blend-mode:hard-light" opacity="0.4">
<path d="M321.327 1.85551C321.4 2.79894 322.225 3.49507 323.168 3.42179C323.562 3.38515 323.919 3.22028 324.194 2.97298L327.345 5.07966C327.217 5.34529 327.162 5.6384 327.18 5.94982C327.18 5.98646 327.189 6.03226 327.198 6.06889L323.617 7.7634C323.278 7.33291 322.728 7.06728 322.133 7.11308C321.19 7.18635 320.494 8.01071 320.567 8.95415C320.64 9.89758 321.464 10.5937 322.408 10.5204C323.351 10.4471 324.047 9.62279 323.974 8.67936C323.974 8.59692 323.956 8.52364 323.938 8.45037L327.473 6.77418C327.812 7.25964 328.389 7.5619 329.021 7.5161C329.964 7.44282 330.661 6.61846 330.587 5.67503C330.514 4.7316 329.69 4.03548 328.746 4.10876C328.389 4.13623 328.068 4.27363 327.812 4.47514L324.615 2.33181C324.707 2.09366 324.753 1.8372 324.725 1.57157C324.652 0.628139 323.828 -0.0679844 322.884 0.00529181C321.941 0.078568 321.245 0.90292 321.318 1.84635L321.327 1.85551Z" fill="#B87C7C"/>
</g>
<g style="mix-blend-mode:hard-light" opacity="0.19">
<path d="M307.193 194.554C305.746 195.168 305.078 196.835 305.682 198.282C305.939 198.896 306.387 199.363 306.928 199.665L305.242 205.747C304.757 205.683 304.262 205.747 303.777 205.949C303.713 205.976 303.658 206.003 303.594 206.04L299.042 201.268C299.545 200.499 299.673 199.5 299.289 198.593C298.675 197.146 297.008 196.478 295.561 197.082C294.114 197.696 293.445 199.363 294.05 200.81C294.663 202.257 296.33 202.926 297.777 202.321C297.897 202.266 298.016 202.211 298.126 202.138L302.623 206.846C302.027 207.634 301.853 208.706 302.266 209.676C302.879 211.124 304.546 211.792 305.994 211.188C307.441 210.574 308.109 208.907 307.505 207.46C307.276 206.919 306.891 206.48 306.433 206.187L308.137 200.022C308.558 200.05 308.989 199.977 309.401 199.802C310.848 199.189 311.517 197.522 310.912 196.075C310.299 194.627 308.632 193.959 307.184 194.563L307.193 194.554Z" fill="#B87C7C"/>
</g>
<g style="mix-blend-mode:hard-light" opacity="0.4">
<path d="M177.632 280.141C171.349 280.141 166.256 285.233 166.256 291.517C166.256 297.8 171.349 302.893 177.632 302.893C183.915 302.893 189.008 297.8 189.008 291.517C189.008 285.233 183.915 280.141 177.632 280.141ZM179.592 295.062L173.565 298.542V284.62L179.592 288.1L185.619 291.581L179.592 295.062Z" fill="#B87C7C"/>
</g>
<g style="mix-blend-mode:hard-light" opacity="0.4">
<path d="M337.209 242.596C330.926 242.596 325.833 247.688 325.833 253.972C325.833 260.255 330.926 265.348 337.209 265.348C343.493 265.348 348.585 260.255 348.585 253.972C348.585 247.688 343.493 242.596 337.209 242.596ZM339.169 257.517L333.142 260.997V247.075L339.169 250.555L345.196 254.036L339.169 257.517Z" fill="#B87C7C"/>
</g>
<g style="mix-blend-mode:hard-light" opacity="0.4">
<path d="M353.633 18.2422C347.35 18.2422 342.257 23.3349 342.257 29.6183C342.257 35.9018 347.35 40.9944 353.633 40.9944C359.916 40.9944 365.009 35.9018 365.009 29.6183C365.009 23.3349 359.916 18.2422 353.633 18.2422ZM355.593 33.163L349.566 36.6437V22.7212L355.593 26.2018L361.62 29.6824L355.593 33.163Z" fill="#B87C7C"/>
</g>
<g style="mix-blend-mode:hard-light" opacity="0.19">
<path d="M308.577 83.4854C302.294 83.4854 297.201 88.578 297.201 94.8615C297.201 101.145 302.294 106.238 308.577 106.238C314.861 106.238 319.953 101.145 319.953 94.8615C319.953 88.578 314.861 83.4854 308.577 83.4854ZM310.537 98.4062L304.51 101.887V87.9644L310.537 91.445L316.564 94.9256L310.537 98.4062Z" fill="#B87C7C"/>
</g>
<g style="mix-blend-mode:hard-light" opacity="0.19">
<path d="M272.516 140.521C269.063 140.521 266.26 143.324 266.26 146.777C266.26 150.231 269.063 153.033 272.516 153.033C275.969 153.033 278.772 150.231 278.772 146.777C278.772 143.324 275.969 140.521 272.516 140.521ZM273.597 148.738L270.281 150.652V142.995L273.597 144.909L276.912 146.823L273.597 148.738Z" fill="#B87C7C"/>
</g>
<g style="mix-blend-mode:hard-light" opacity="0.4">
<path d="M181.543 192.786H51.0654V252.396H181.543V192.786Z" fill="white"/>
</g>
<g style="mix-blend-mode:hard-light" opacity="0.4">
<path d="M128.894 94.6953H7.02637V166.359H128.894V94.6953Z" fill="white"/>
</g>
<path d="M128.894 166.359H7.02637V178.239H128.894V166.359Z" fill="url(#paint0_linear_43_8854)"/>
<path d="M83.9637 134.12C86.1593 125.195 80.7036 116.179 71.7781 113.983C62.8526 111.788 53.8372 117.244 51.6415 126.169C49.4459 135.095 54.9016 144.11 63.8271 146.306C72.7526 148.501 81.768 143.046 83.9637 134.12Z" fill="url(#paint1_linear_43_8854)"/>
<path d="M79.4879 130.234L70.6673 135.327L61.8467 140.42V130.234V120.049L70.6673 125.142L79.4879 130.234Z" fill="white"/>
<path d="M18.5036 172.386L16.2137 173.714L13.9238 175.033V172.386V169.739L16.2137 171.067L18.5036 172.386Z" fill="white"/>
<path d="M115.099 172.487H23.8887V172.872H115.099V172.487Z" fill="white"/>
<path d="M48.4185 171.727C49.0505 172.359 49.0505 173.394 48.4185 174.026C47.7865 174.658 46.7515 174.658 46.1195 174.026C45.4875 173.394 45.4875 172.359 46.1195 171.727C46.7515 171.095 47.7865 171.095 48.4185 171.727Z" fill="white"/>
<g style="mix-blend-mode:hard-light" opacity="0.4">
<path d="M288.077 172.14H174.499V296.517H288.077V172.14Z" fill="#697177"/>
</g>
<g style="mix-blend-mode:hard-light" opacity="0.4">
<path d="M262.733 178.304H199.844V212.505H262.733V178.304Z" fill="#697177"/>
</g>
<g style="mix-blend-mode:hard-light" opacity="0.68">
<path d="M276.499 226.474H209.094C208.659 226.474 208.307 226.826 208.307 227.261V228.04C208.307 228.475 208.659 228.828 209.094 228.828H276.499C276.934 228.828 277.287 228.475 277.287 228.04V227.261C277.287 226.826 276.934 226.474 276.499 226.474Z" fill="#697177"/>
</g>
<g style="mix-blend-mode:hard-light" opacity="0.68">
<path d="M242.911 232.831H208.856C208.553 232.831 208.307 233.077 208.307 233.381V234.553C208.307 234.857 208.553 235.103 208.856 235.103H242.911C243.215 235.103 243.461 234.857 243.461 234.553V233.381C243.461 233.077 243.215 232.831 242.911 232.831Z" fill="#697177"/>
</g>
<path d="M200.237 225.164H192.177C191.226 225.164 190.455 225.935 190.455 226.886V234.946C190.455 235.897 191.226 236.668 192.177 236.668H200.237C201.188 236.668 201.959 235.897 201.959 234.946V226.886C201.959 225.935 201.188 225.164 200.237 225.164Z" fill="url(#paint2_linear_43_8854)"/>
<g style="mix-blend-mode:hard-light" opacity="0.68">
<path d="M276.499 250.188H209.094C208.659 250.188 208.307 250.541 208.307 250.976V251.755C208.307 252.19 208.659 252.542 209.094 252.542H276.499C276.934 252.542 277.287 252.19 277.287 251.755V250.976C277.287 250.541 276.934 250.188 276.499 250.188Z" fill="#697177"/>
</g>
<g style="mix-blend-mode:hard-light" opacity="0.68">
<path d="M208.856 256.545H242.911C243.214 256.545 243.461 256.792 243.461 257.094V258.267C243.461 258.569 243.214 258.816 242.911 258.816H208.856C208.554 258.816 208.307 258.569 208.307 258.267V257.094C208.307 256.792 208.554 256.545 208.856 256.545Z" fill="#697177"/>
</g>
<path d="M200.237 249.227H192.177C191.226 249.227 190.455 249.998 190.455 250.949V259.009C190.455 259.96 191.226 260.731 192.177 260.731H200.237C201.188 260.731 201.959 259.96 201.959 259.009V250.949C201.959 249.998 201.188 249.227 200.237 249.227Z" fill="url(#paint3_linear_43_8854)"/>
<g style="mix-blend-mode:hard-light" opacity="0.68">
<path d="M276.499 273.901H209.094C208.659 273.901 208.307 274.254 208.307 274.689V275.468C208.307 275.903 208.659 276.255 209.094 276.255H276.499C276.934 276.255 277.287 275.903 277.287 275.468V274.689C277.287 274.254 276.934 273.901 276.499 273.901Z" fill="#697177"/>
</g>
<g style="mix-blend-mode:hard-light" opacity="0.68">
<path d="M242.911 280.259H208.856C208.553 280.259 208.307 280.505 208.307 280.808V281.981C208.307 282.284 208.553 282.53 208.856 282.53H242.911C243.215 282.53 243.461 282.284 243.461 281.981V280.808C243.461 280.505 243.215 280.259 242.911 280.259Z" fill="#697177"/>
</g>
<path d="M200.237 273.288H192.177C191.226 273.288 190.455 274.059 190.455 275.01V283.07C190.455 284.022 191.226 284.792 192.177 284.792H200.237C201.188 284.792 201.959 284.022 201.959 283.07V275.01C201.959 274.059 201.188 273.288 200.237 273.288Z" fill="url(#paint4_linear_43_8854)"/>
<path d="M240.172 205.599H222.311C221.093 205.599 220.095 204.61 220.095 203.382V187.619C220.095 186.401 221.084 185.402 222.311 185.402H240.172C241.391 185.402 242.389 186.392 242.389 187.619V203.382C242.389 204.601 241.4 205.599 240.172 205.599ZM222.311 186.804C221.862 186.804 221.487 187.17 221.487 187.628V203.392C221.487 203.84 221.853 204.216 222.311 204.216H240.172C240.621 204.216 240.997 203.85 240.997 203.392V187.628C240.997 187.179 240.63 186.804 240.172 186.804H222.311Z" fill="url(#paint5_linear_43_8854)"/>
<path d="M229.822 202.293L222.797 196.751L223.667 195.652L229.868 200.552L252.08 184.844L252.877 185.98L229.822 202.293Z" fill="url(#paint6_linear_43_8854)"/>
<path d="M70.0256 203.815C70.0256 203.815 69.9431 203.861 69.9065 203.889L70.7125 205.382C70.7125 205.382 70.795 205.336 70.8316 205.308C80.5132 200.087 92.6404 203.724 97.8522 213.405C103.073 223.087 99.4368 235.214 89.7552 240.426C80.0736 245.647 67.9464 242.01 62.7346 232.329C62.2125 231.349 61.782 230.35 61.4248 229.334L59.9043 230.149C60.2707 231.156 60.7103 232.155 61.2324 233.126C66.893 243.632 80.0461 247.579 90.5521 241.91C101.058 236.249 105.006 223.096 99.336 212.59C93.6755 202.084 80.5224 198.136 70.0164 203.806L70.0256 203.815Z" fill="#CFCFCF"/>
<path d="M99.8853 213.671C99.8853 213.671 99.8395 213.589 99.8212 213.543L98.2824 214.267C98.2824 214.267 98.3282 214.349 98.3465 214.395C103.018 224.351 98.7221 236.259 88.7656 240.93C78.8092 245.601 66.9019 241.306 62.2305 231.349C57.5591 221.393 61.855 209.485 71.8114 204.814C72.8189 204.347 73.8356 203.971 74.8706 203.678L74.1379 202.121C73.112 202.423 72.0861 202.808 71.0877 203.284C60.2795 208.359 55.6173 221.274 60.6917 232.073C65.7661 242.881 78.681 247.543 89.4801 242.469C100.288 237.394 104.951 224.479 99.8762 213.68L99.8853 213.671Z" fill="url(#paint7_linear_43_8854)"/>
<path d="M134.152 238.052C134.152 238.052 134.216 238.116 134.253 238.153L135.462 236.962C135.462 236.962 135.397 236.898 135.361 236.861C127.649 229.021 127.749 216.371 135.59 208.65C143.43 200.928 156.08 201.038 163.801 208.879C171.513 216.719 171.413 229.378 163.572 237.09C162.784 237.869 161.942 238.565 161.062 239.179L162.272 240.406C163.142 239.774 163.975 239.078 164.763 238.299C173.272 229.927 173.382 216.197 165.01 207.688C156.638 199.179 142.908 199.069 134.399 207.441C125.89 215.813 125.78 229.543 134.152 238.052Z" fill="#CFCFCF"/>
<path d="M135.278 206.616C135.278 206.616 135.214 206.68 135.178 206.717L136.295 207.99C136.295 207.99 136.359 207.926 136.396 207.889C144.649 200.617 157.279 201.423 164.552 209.676C171.825 217.928 171.019 230.559 162.766 237.832C154.513 245.105 141.882 244.299 134.61 236.046C133.877 235.212 133.236 234.333 132.659 233.426L131.367 234.562C131.944 235.469 132.604 236.339 133.337 237.163C141.223 246.121 154.925 246.991 163.884 239.105C172.842 231.219 173.712 217.516 165.825 208.558C157.939 199.6 144.236 198.73 135.278 206.616Z" fill="url(#paint8_linear_43_8854)"/>
<g style="mix-blend-mode:hard-light" opacity="0.4">
<path d="M267.341 208.744C276.243 189.945 268.22 167.487 249.42 158.585C230.62 149.682 208.163 157.705 199.26 176.505C190.358 195.305 198.381 217.762 217.181 226.665C235.981 235.567 258.438 227.544 267.341 208.744Z" fill="white"/>
</g>
<path d="M288.746 243.3L265.123 219.366C278.762 203.154 278.056 178.845 262.879 163.475C246.795 147.171 220.434 146.997 204.139 163.09C187.835 179.184 187.661 205.536 203.754 221.83C218.923 237.2 243.223 238.235 259.618 224.807L283.241 248.741L288.755 243.3H288.746ZM209.268 216.39C196.179 203.127 196.317 181.684 209.58 168.595C222.843 155.506 244.285 155.644 257.374 168.907C270.463 182.17 270.326 203.612 257.063 216.701C243.8 229.79 222.357 229.653 209.268 216.39Z" fill="url(#paint9_linear_43_8854)"/>
<path d="M345.223 296.032L286.547 236.568L276.683 246.305L335.359 305.769C338.051 308.498 342.439 308.526 345.159 305.833C347.88 303.14 347.916 298.752 345.223 296.032Z" fill="url(#paint10_linear_43_8854)"/>
<g style="mix-blend-mode:hard-light" opacity="0.39">
<path d="M234.934 17.4727H110.786C109.167 17.4727 107.854 18.7849 107.854 20.4037V99.7435C107.854 101.362 109.167 102.675 110.786 102.675H234.934C236.553 102.675 237.865 101.362 237.865 99.7435V20.4037C237.865 18.7849 236.553 17.4727 234.934 17.4727Z" fill="#48555E"/>
</g>
<mask id="mask1_43_8854" style="mask-type:luminance" maskUnits="userSpaceOnUse" x="107" y="17" width="131" height="86">
<path d="M234.934 17.4727H110.786C109.167 17.4727 107.854 18.7849 107.854 20.4037V99.7435C107.854 101.362 109.167 102.675 110.786 102.675H234.934C236.553 102.675 237.865 101.362 237.865 99.7435V20.4037C237.865 18.7849 236.553 17.4727 234.934 17.4727Z" fill="white"/>
</mask>
<g mask="url(#mask1_43_8854)">
<g style="mix-blend-mode:hard-light" opacity="0.4">
<path d="M251.32 15.668H103.027V23.9024H251.32V15.668Z" fill="#48555E"/>
</g>
</g>
<path d="M187.881 42.3682H120.549C120.195 42.3682 119.908 42.6552 119.908 43.0093V43.2841C119.908 43.6382 120.195 43.9253 120.549 43.9253H187.881C188.235 43.9253 188.522 43.6382 188.522 43.2841V43.0093C188.522 42.6552 188.235 42.3682 187.881 42.3682Z" fill="url(#paint11_linear_43_8854)"/>
<path d="M165.284 47.0674H120.43C120.142 47.0674 119.908 47.3011 119.908 47.5895V48.1116C119.908 48.3999 120.142 48.6337 120.43 48.6337H165.284C165.573 48.6337 165.807 48.3999 165.807 48.1116V47.5895C165.807 47.3011 165.573 47.0674 165.284 47.0674Z" fill="url(#paint12_linear_43_8854)"/>
<path d="M187.881 51.7656H120.549C120.195 51.7656 119.908 52.0527 119.908 52.4068V52.6816C119.908 53.0357 120.195 53.3227 120.549 53.3227H187.881C188.235 53.3227 188.522 53.0357 188.522 52.6816V52.4068C188.522 52.0527 188.235 51.7656 187.881 51.7656Z" fill="url(#paint13_linear_43_8854)"/>
<path d="M165.284 56.4648H120.43C120.142 56.4648 119.908 56.6986 119.908 56.9869V57.509C119.908 57.7974 120.142 58.0311 120.43 58.0311H165.284C165.573 58.0311 165.807 57.7974 165.807 57.509V56.9869C165.807 56.6986 165.573 56.4648 165.284 56.4648Z" fill="url(#paint14_linear_43_8854)"/>
<path d="M187.89 68.9951H120.54C120.191 68.9951 119.908 69.2781 119.908 69.6271V69.9202C119.908 70.2693 120.191 70.5522 120.54 70.5522H187.89C188.239 70.5522 188.522 70.2693 188.522 69.9202V69.6271C188.522 69.2781 188.239 68.9951 187.89 68.9951Z" fill="url(#paint15_linear_43_8854)"/>
<path d="M165.284 60.3848H120.43C120.142 60.3848 119.908 60.6185 119.908 60.9069V61.429C119.908 61.7173 120.142 61.951 120.43 61.951H165.284C165.573 61.951 165.807 61.7173 165.807 61.429V60.9069C165.807 60.6185 165.573 60.3848 165.284 60.3848Z" fill="url(#paint16_linear_43_8854)"/>
<path d="M187.89 78.3926H120.54C120.191 78.3926 119.908 78.6755 119.908 79.0246V79.3177C119.908 79.6667 120.191 79.9497 120.54 79.9497H187.89C188.239 79.9497 188.522 79.6667 188.522 79.3177V79.0246C188.522 78.6755 188.239 78.3926 187.89 78.3926Z" fill="url(#paint17_linear_43_8854)"/>
<path d="M187.89 73.6934H120.54C120.191 73.6934 119.908 73.9763 119.908 74.3254V74.6185C119.908 74.9675 120.191 75.2505 120.54 75.2505H187.89C188.239 75.2505 188.522 74.9675 188.522 74.6185V74.3254C188.522 73.9763 188.239 73.6934 187.89 73.6934Z" fill="url(#paint18_linear_43_8854)"/>
<path d="M165.284 83.1006H120.43C120.142 83.1006 119.908 83.3343 119.908 83.6227V84.1448C119.908 84.4331 120.142 84.6669 120.43 84.6669H165.284C165.573 84.6669 165.807 84.4331 165.807 84.1448V83.6227C165.807 83.3343 165.573 83.1006 165.284 83.1006Z" fill="url(#paint19_linear_43_8854)"/>
<path d="M165.284 88.5781H120.43C120.142 88.5781 119.908 88.8119 119.908 89.1002V89.6223C119.908 89.9107 120.142 90.1444 120.43 90.1444H165.284C165.573 90.1444 165.807 89.9107 165.807 89.6223V89.1002C165.807 88.8119 165.573 88.5781 165.284 88.5781Z" fill="url(#paint20_linear_43_8854)"/>
<g style="mix-blend-mode:hard-light" opacity="0.4">
<path d="M227.68 40.4082H202.619V62.73H227.68V40.4082Z" fill="white"/>
</g>
<g style="mix-blend-mode:hard-light" opacity="0.4">
<path d="M227.68 70.5615H202.619V92.8833H227.68V70.5615Z" fill="white"/>
</g>
<g style="mix-blend-mode:hard-light" opacity="0.4">
<path d="M227.68 30.2314H119.991V34.1517H227.68V30.2314Z" fill="white"/>
</g>
<path d="M55.81 74.8118C56.4237 75.4255 56.4237 76.4239 55.81 77.0376C55.1964 77.6513 54.198 77.6513 53.5843 77.0376C52.9706 76.4239 52.9706 75.4255 53.5843 74.8118C54.198 74.1981 55.1964 74.1981 55.81 74.8118Z" fill="#D86D93"/>
<path d="M62.7534 74.8118C63.3671 75.4255 63.3671 76.4239 62.7534 77.0376C62.1397 77.6513 61.1413 77.6513 60.5276 77.0376C59.914 76.4239 59.914 75.4255 60.5276 74.8118C61.1413 74.1981 62.1397 74.1981 62.7534 74.8118Z" fill="#EDCF7C"/>
<path d="M69.1919 74.8118C69.8056 75.4255 69.8056 76.4239 69.1919 77.0376C68.5782 77.6513 67.5798 77.6513 66.9661 77.0376C66.3524 76.4239 66.3524 75.4255 66.9661 74.8118C67.5798 74.1981 68.5782 74.1981 69.1919 74.8118Z" fill="#D0E8A3"/>
<g style="mix-blend-mode:hard-light" opacity="0.68">
<path d="M105.253 115.818C102.798 115.818 100.811 117.806 100.811 120.261V129.21C100.811 131.664 102.798 133.652 105.253 133.652H243.021V115.818H105.253Z" fill="white"/>
</g>
<path d="M267.212 115.818H243.021V133.652H267.212C269.667 133.652 271.654 131.664 271.654 129.21V120.261C271.654 117.806 269.667 115.818 267.212 115.818Z" fill="url(#paint21_linear_43_8854)"/>
<path d="M263.236 129.228L260.882 127.524C262.265 125.225 261.688 122.203 259.472 120.6C257.136 118.905 253.866 119.427 252.181 121.763C250.486 124.099 251.008 127.369 253.344 129.063C255.616 130.712 258.776 130.254 260.507 128.074L262.852 129.778L263.246 129.237L263.236 129.228ZM253.729 128.514C251.695 127.039 251.237 124.181 252.712 122.148C254.187 120.114 257.045 119.656 259.078 121.131C261.111 122.606 261.569 125.464 260.095 127.497C258.62 129.53 255.762 129.988 253.729 128.514Z" fill="white"/>
<path d="M122.399 263.663C117.545 268.627 125.596 268.178 126.155 266.475C126.402 265.705 127.345 262.097 128.106 262.335C129.37 262.729 130.331 262.637 131.009 262.417C131.339 262.307 131.302 261.831 130.954 261.803C130.24 261.739 129.37 261.4 128.729 260.329C127.428 258.167 125.321 258.744 125.321 258.744L115.365 236.633L119.569 215.777C117.197 212.864 115.859 208.477 111.591 206.855C112.333 214.559 107.369 229.388 108.779 236.422C111.069 247.854 122.39 259.889 122.39 259.889V263.645L122.399 263.663Z" fill="url(#paint22_linear_43_8854)"/>
<path d="M57.1741 333.34L47.5292 336.17C47.5292 336.17 44.9187 347.336 42.6563 348.966C40.3939 350.596 42.4182 331.948 45.395 330.83L47.4376 331.764L54.8385 326.772L57.165 333.34H57.1741Z" fill="url(#paint23_linear_43_8854)"/>
<mask id="mask2_43_8854" style="mask-type:luminance" maskUnits="userSpaceOnUse" x="41" y="326" width="17" height="24">
<path d="M57.1741 333.34L47.5292 336.17C47.5292 336.17 44.9187 347.336 42.6563 348.966C40.3939 350.596 42.4182 331.948 45.395 330.83L47.4376 331.764L54.8385 326.772L57.165 333.34H57.1741Z" fill="white"/>
</mask>
<g mask="url(#mask2_43_8854)">
<path d="M47.8864 330.17C47.8864 330.17 45.7797 334.796 49.242 338.506C52.7043 342.215 42.4731 352.446 42.4731 352.446L37.5361 351.347L42.2533 330.61L45.1935 328.229L47.8864 330.17Z" fill="#3D365F"/>
<path style="mix-blend-mode:multiply" opacity="0.35" d="M54.032 335.831C53.9587 335.364 50.8262 327.789 50.8262 327.789L54.0778 327.276L56.5875 333.981L54.032 335.822V335.831Z" fill="url(#paint24_linear_43_8854)"/>
</g>
<path d="M27.9007 322.88L18.2557 325.71C18.2557 325.71 15.6453 336.876 13.3829 338.506C11.1205 340.136 13.1447 321.488 16.1216 320.37L18.1641 321.304L25.565 316.312L27.8915 322.88H27.9007Z" fill="url(#paint25_linear_43_8854)"/>
<mask id="mask3_43_8854" style="mask-type:luminance" maskUnits="userSpaceOnUse" x="12" y="316" width="16" height="23">
<path d="M27.9007 322.88L18.2557 325.71C18.2557 325.71 15.6453 336.876 13.3829 338.506C11.1205 340.136 13.1447 321.488 16.1216 320.37L18.1641 321.304L25.565 316.312L27.8915 322.88H27.9007Z" fill="white"/>
</mask>
<g mask="url(#mask3_43_8854)">
<path d="M18.6042 319.71C18.6042 319.71 16.4975 324.327 19.9598 328.046C23.4129 331.764 13.1909 341.986 13.1909 341.986L8.25391 340.887L12.9711 320.15L15.9113 317.769L18.6042 319.71Z" fill="#3D365F"/>
<path style="mix-blend-mode:multiply" opacity="0.35" d="M24.7595 325.371C24.6863 324.904 21.5537 317.329 21.5537 317.329L24.8053 316.816L27.3151 323.521L24.7595 325.362V325.371Z" fill="url(#paint26_linear_43_8854)"/>
</g>
<path d="M68.6606 306.832C57.7333 321.24 26.9573 326.241 26.9573 326.241L22.9912 317.411L52.3841 299.999C52.3841 299.999 56.625 291.096 55.1595 274.279C53.6939 257.462 72.6999 246.159 72.6999 246.159L98.2092 251.49C98.2092 251.49 104.896 296.527 97.5314 317.301C90.1672 338.084 55.9289 337.324 55.9289 337.324L51.056 326.745C51.056 326.745 76.6385 313.115 77.582 307.272C78.0674 304.304 76.7301 298.194 75.3012 292.909C73.8724 297.828 71.7748 302.728 68.6698 306.823L68.6606 306.832Z" fill="url(#paint27_linear_43_8854)"/>
<mask id="mask4_43_8854" style="mask-type:luminance" maskUnits="userSpaceOnUse" x="22" y="246" width="79" height="92">
<path d="M68.6606 306.832C57.7333 321.24 26.9573 326.241 26.9573 326.241L22.9912 317.411L52.3841 299.999C52.3841 299.999 56.625 291.096 55.1595 274.279C53.6939 257.462 72.6999 246.159 72.6999 246.159L98.2092 251.49C98.2092 251.49 104.896 296.527 97.5314 317.301C90.1672 338.084 55.9289 337.324 55.9289 337.324L51.056 326.745C51.056 326.745 76.6385 313.115 77.582 307.272C78.0674 304.304 76.7301 298.194 75.3012 292.909C73.8724 297.828 71.7748 302.728 68.6698 306.823L68.6606 306.832Z" fill="white"/>
</mask>
<g mask="url(#mask4_43_8854)">
<g style="mix-blend-mode:multiply" opacity="0.48">
<path d="M74.2387 302.115L75.1272 292.937C75.1272 292.937 79.4321 278.447 77.2247 270.726C77.2247 270.726 81.8319 275.681 80.0916 285.472C78.3513 295.264 83.1967 298.754 81.3373 301.914C79.4688 305.074 81.8411 310.863 77.2797 312.081C72.7182 313.299 71.9488 316.157 68.743 316.019C65.5371 315.891 67.7171 311.733 67.7171 311.733L74.2387 302.115Z" fill="#DB7A92"/>
</g>
<g style="mix-blend-mode:multiply" opacity="0.48">
<path d="M99.8944 255.154C99.8944 255.154 90.5425 262.985 80.8975 252.837C71.2434 242.688 67.6162 243.75 67.6162 243.75C67.6162 243.75 101.213 236.872 99.9035 255.145L99.8944 255.154Z" fill="#DB7A92"/>
</g>
</g>
<g style="mix-blend-mode:hard-light" opacity="0.39">
<path d="M140.545 167.268C141.269 170.291 143.385 172.379 145.281 171.931C147.167 171.482 148.12 168.661 147.396 165.638C146.673 162.615 144.557 160.527 142.661 160.976C140.774 161.425 139.821 164.246 140.545 167.268Z" fill="white"/>
</g>
<path d="M117.133 175.447C117.133 175.447 123.691 176.913 129.398 184.827C135.104 192.74 127.621 193.327 123.215 193.409C123.215 193.409 123.288 197.219 122.885 199.152C119.066 217.48 112.269 203.246 111.207 197.256C110.621 193.95 108.605 181.254 108.605 181.254L117.142 175.447H117.133Z" fill="url(#paint28_linear_43_8854)"/>
<path d="M121.822 204.593C121.822 204.593 125.504 221.163 118.818 226.668C112.131 232.173 108.871 227.648 105.756 235.736C102.642 243.824 98.2089 251.49 98.2089 251.49C98.2089 251.49 95.3053 260.631 82.8209 253.991C76.336 250.538 73.9728 245.417 72.0859 246.26C72.0859 246.26 84.5429 233.501 86.2374 220.586C87.9319 207.68 113.707 198.42 113.707 198.42L121.822 204.593Z" fill="url(#paint29_linear_43_8854)"/>
<mask id="mask5_43_8854" style="mask-type:luminance" maskUnits="userSpaceOnUse" x="72" y="198" width="51" height="59">
<path d="M121.822 204.593C121.822 204.593 125.504 221.163 118.818 226.668C112.131 232.173 108.871 227.648 105.756 235.736C102.642 243.824 98.2089 251.49 98.2089 251.49C98.2089 251.49 95.3053 260.631 82.8209 253.991C76.336 250.538 73.9728 245.417 72.0859 246.26C72.0859 246.26 84.5429 233.501 86.2374 220.586C87.9319 207.68 113.707 198.42 113.707 198.42L121.822 204.593Z" fill="white"/>
</mask>
<g mask="url(#mask5_43_8854)">
<path style="mix-blend-mode:multiply" opacity="0.22" d="M79.6152 232.777C79.6152 232.777 103.604 234.115 110.016 214.999C110.016 214.999 121.85 226.393 131.577 224.809C141.305 223.224 126.219 197.623 111.921 201.846C97.6229 206.068 81.8135 222.903 79.6152 232.768V232.777Z" fill="url(#paint30_linear_43_8854)"/>
</g>
<path d="M121.576 177.435C121.576 177.435 125.413 169.998 119.89 167.103C114.367 164.209 107.452 176.071 107.452 176.071C107.452 176.071 100.399 171.527 96.973 181.566C93.5473 191.596 98.8965 212.846 84.3695 205.097C69.8425 197.348 60.17 231.138 87.9692 227.254C115.768 223.37 115.173 192.512 115.173 192.512C115.173 192.512 112.196 193.629 111.5 189.315C110.804 185.01 114.889 186.87 114.889 186.87C114.889 186.87 119.56 181.09 117.435 175.75C117.435 175.75 118.901 175.988 121.585 177.435H121.576Z" fill="url(#paint31_linear_43_8854)"/>
<path d="M110.098 205.317C110.098 205.317 112.214 201.782 119.377 204.108C129.315 207.332 130.597 207.616 137.65 212.15C137.65 212.15 148.596 193.236 146.782 185.954L150.904 185.972C150.904 185.972 151.902 213.991 139.674 220.403C139.674 220.403 102.917 219.46 110.098 205.317Z" fill="url(#paint32_linear_43_8854)"/>
<path d="M150.949 186L152.287 179.597C152.287 179.597 148.531 174.028 147.68 174.642C146.828 175.256 144.428 178.022 145.042 178.874C145.655 179.725 146.864 186.348 146.864 186.348L149.713 187.154L150.949 186Z" fill="#ECB8B9"/>
<path d="M140.087 167.378C140.453 168.926 141.186 170.3 142.147 171.234C142.88 171.958 143.686 172.361 144.483 172.443L146.681 183.16L148.064 182.876L145.875 172.214C147.726 171.39 148.587 168.587 147.854 165.519C147.487 163.971 146.755 162.597 145.793 161.663C144.776 160.664 143.631 160.261 142.55 160.518C140.38 161.04 139.299 164.053 140.096 167.378H140.087ZM142.77 161.424C142.77 161.424 142.853 161.406 142.899 161.397C143.613 161.278 144.41 161.608 145.133 162.322C145.967 163.137 146.608 164.356 146.938 165.729C147.588 168.45 146.782 171.079 145.17 171.463C144.428 171.646 143.576 171.326 142.807 170.556C141.973 169.741 141.332 168.523 141.003 167.149C140.352 164.429 141.158 161.8 142.77 161.415V161.424Z" fill="#EDCF7C"/>
<path d="M147.322 187.062C147.322 187.062 145.408 184.049 145.252 183.115C145.106 182.19 145.967 178.718 145.811 177.793C145.811 177.793 147.423 178.956 146.873 181.42C146.873 181.42 151.49 183.527 147.313 187.053L147.322 187.062Z" fill="#ECB8B9"/>
<path d="M326.07 74.042C326.07 74.042 321.252 74.271 319.695 82.9634C317.542 95.0081 317.13 96.4828 317.927 106.284C317.927 106.284 292.353 107.163 285.823 101.264L283.569 105.532C283.569 105.532 311.973 122.029 325.337 112.933C325.337 112.933 344.636 74.4358 326.07 74.0511V74.042Z" fill="url(#paint33_linear_43_8854)"/>
<mask id="mask6_43_8854" style="mask-type:luminance" maskUnits="userSpaceOnUse" x="283" y="74" width="52" height="42">
<path d="M326.07 74.042C326.07 74.042 321.252 74.271 319.695 82.9634C317.542 95.0081 317.13 96.4828 317.927 106.284C317.927 106.284 292.353 107.163 285.823 101.264L283.569 105.532C283.569 105.532 311.973 122.029 325.337 112.933C325.337 112.933 344.636 74.4358 326.07 74.0511V74.042Z" fill="white"/>
</mask>
<g mask="url(#mask6_43_8854)">
<path style="mix-blend-mode:multiply" opacity="0.39" d="M315.774 100.329C315.774 100.329 319.997 97.0412 324.696 100.329C329.386 103.618 332.207 100.797 332.207 100.797L327.041 95.6306L319.997 93.7529L317.68 95.7589L315.774 100.32V100.329Z" fill="url(#paint34_linear_43_8854)"/>
</g>
<path d="M327.095 79.1071C326.628 78.9422 322.534 78.6033 319.328 83.9525C316.113 89.3016 316.021 97.7834 316.021 97.7834C316.021 97.7834 322.955 96.9682 325.135 98.7909C328.057 101.246 331.638 100.934 331.638 100.934C331.638 100.934 336.905 82.4961 327.095 79.1162V79.1071Z" fill="url(#paint35_linear_43_8854)"/>
<mask id="mask7_43_8854" style="mask-type:luminance" maskUnits="userSpaceOnUse" x="316" y="79" width="18" height="22">
<path d="M327.095 79.1071C326.628 78.9422 322.534 78.6033 319.328 83.9525C316.113 89.3016 316.021 97.7834 316.021 97.7834C316.021 97.7834 322.955 96.9682 325.135 98.7909C328.057 101.246 331.638 100.934 331.638 100.934C331.638 100.934 336.905 82.4961 327.095 79.1162V79.1071Z" fill="white"/>
</mask>
<g mask="url(#mask7_43_8854)">
<path style="mix-blend-mode:multiply" opacity="0.27" d="M319.319 83.9521C319.521 84.8406 318.119 98.4517 330.787 104.085C343.464 109.718 334.075 92.3514 334.075 92.3514L326.564 87.6618L319.319 83.9521Z" fill="url(#paint36_linear_43_8854)"/>
</g>
<path d="M368.515 163.704C368.515 163.704 375.055 165.078 376.438 170.592C377.821 176.106 380.917 176.445 380.569 168.87C380.221 161.295 373.809 153.738 372.087 154.773C370.365 155.808 368.515 154.755 368.515 154.755V163.704Z" fill="url(#paint37_linear_43_8854)"/>
<path d="M333.049 221.555C333.049 221.555 333.736 231.887 323.404 233.609C323.404 233.609 319.273 234.983 325.813 236.705C332.353 238.427 334.423 237.053 337.867 233.948C341.311 230.852 345.094 228.434 344.068 227.06C343.033 225.686 335.806 219.485 335.806 219.485L333.049 221.555Z" fill="url(#paint38_linear_43_8854)"/>
<g style="mix-blend-mode:hard-light" opacity="0.39">
<path d="M269.949 84.5104C272.679 86.9286 273.659 90.2718 272.147 91.9755C270.636 93.6791 267.201 93.1021 264.472 90.684C261.742 88.2658 260.762 84.9226 262.273 83.2189C263.785 81.5153 267.219 82.0923 269.949 84.5104Z" fill="white"/>
</g>
<path d="M283.561 105.596L276.215 103.444C276.215 103.444 272.532 96.4919 273.632 95.9424C274.74 95.4019 278.926 94.4494 279.466 95.5485C280.007 96.6568 286.18 101.548 286.18 101.548L285.438 104.937L283.561 105.578V105.596Z" fill="#ECB8B9"/>
<path d="M261.871 82.8534C261.01 83.8244 260.799 85.2349 261.266 86.8378C261.715 88.3492 262.722 89.8513 264.115 91.0879C266.881 93.5426 270.252 94.1929 272.12 92.7366L281.921 100.879L282.974 99.6062L273.118 91.4176C273.476 90.5566 273.503 89.4941 273.164 88.34C272.715 86.8287 271.708 85.3265 270.316 84.09C267.32 81.4337 263.611 80.8841 261.871 82.8443V82.8534ZM269.583 84.9235C270.829 86.0226 271.726 87.3508 272.111 88.6697C272.468 89.888 272.34 90.9413 271.735 91.6099C270.453 93.0572 267.293 92.4435 264.838 90.2727C263.593 89.1735 262.695 87.8454 262.31 86.5264C261.971 85.3723 262.072 84.3831 262.585 83.7053C262.612 83.6686 262.649 83.6228 262.686 83.5862C263.968 82.139 267.128 82.7527 269.583 84.9235Z" fill="#EDCF7C"/>
<path d="M286.666 102.436C286.666 102.436 284.605 98.7902 283.735 98.1216C282.865 97.4529 278.798 96.4362 277.928 95.7676C277.928 95.7676 278.239 98.0758 281.088 98.8727C281.088 98.8727 280.712 104.808 286.666 102.436Z" fill="#ECB8B9"/>
<path d="M367.489 125.481C367.489 126.168 346.88 151.632 343.243 159.39C339.598 167.148 330.988 174.723 333.058 178.515C335.128 182.307 342.703 201.926 341.32 208.127C339.946 214.328 342.007 219.494 339.25 220.181L339.937 223.277L332.71 224.312V221.555C332.71 221.555 326.17 216.737 323.761 203.3C321.352 189.872 314.116 179.193 316.186 171.966C318.256 164.739 321.352 135.117 337.189 128.577C353.026 122.037 357.166 116.871 357.166 116.871L367.498 125.481H367.489Z" fill="url(#paint39_linear_43_8854)"/>
<mask id="mask8_43_8854" style="mask-type:luminance" maskUnits="userSpaceOnUse" x="315" y="116" width="53" height="109">
<path d="M367.489 125.481C367.489 126.168 346.88 151.632 343.243 159.39C339.598 167.148 330.988 174.723 333.058 178.515C335.128 182.307 342.703 201.926 341.32 208.127C339.946 214.328 342.007 219.494 339.25 220.181L339.937 223.277L332.71 224.312V221.555C332.71 221.555 326.17 216.737 323.761 203.3C321.352 189.872 314.116 179.193 316.186 171.966C318.256 164.739 321.352 135.117 337.189 128.577C353.026 122.037 357.166 116.871 357.166 116.871L367.498 125.481H367.489Z" fill="white"/>
</mask>
<g mask="url(#mask8_43_8854)">
<path style="mix-blend-mode:multiply" opacity="0.49" d="M337.363 128.485L322.341 130.363L319.997 142.563L318.586 153.363C318.586 153.363 334.542 156.175 334.075 160.873C333.608 165.563 335.485 165.096 334.075 167.917C332.664 170.729 327.507 174.484 331.73 179.65C335.952 184.816 340.175 193.729 341.586 198.427C342.996 203.117 346.275 167.45 346.275 167.45L355.197 155.717L359.419 146.795L367.479 129.539L359.419 127.084L339.937 126.846L337.354 128.485" fill="url(#paint40_linear_43_8854)"/>
<path style="mix-blend-mode:multiply" opacity="0.49" d="M329.385 219.54C329.385 219.54 335.953 225.64 345.341 216.252L346.275 224.23L332.509 225.723L327.031 224.23L329.376 219.54H329.385Z" fill="url(#paint41_linear_43_8854)"/>
</g>
<path d="M370.585 115.497C370.585 115.497 383.326 138.909 329.266 134.778C329.266 134.778 344.077 138.57 351.652 145.449C359.227 152.328 365.428 154.746 365.428 154.746H368.872L368.524 163.695H363.706C363.706 163.695 361.636 168.861 354.409 164.73C347.182 160.599 331.336 154.059 322.04 152.676C312.743 151.302 293.462 133.395 294.149 127.542C294.836 121.689 337.885 116.175 343.042 115.488C348.199 114.801 353.026 106.191 353.026 106.191L370.585 115.488V115.497Z" fill="url(#paint42_linear_43_8854)"/>
<mask id="mask9_43_8854" style="mask-type:luminance" maskUnits="userSpaceOnUse" x="294" y="106" width="78" height="61">
<path d="M370.585 115.497C370.585 115.497 383.326 138.909 329.266 134.778C329.266 134.778 344.077 138.57 351.652 145.449C359.227 152.328 365.428 154.746 365.428 154.746H368.872L368.524 163.695H363.706C363.706 163.695 361.636 168.861 354.409 164.73C347.182 160.599 331.336 154.059 322.04 152.676C312.743 151.302 293.462 133.395 294.149 127.542C294.836 121.689 337.885 116.175 343.042 115.488C348.199 114.801 353.026 106.191 353.026 106.191L370.585 115.488V115.497Z" fill="white"/>
</mask>
<g mask="url(#mask9_43_8854)">
<path style="mix-blend-mode:multiply" opacity="0.24" d="M344.398 112.53C344.398 112.53 350.966 121.451 359.42 121.919C367.865 122.386 360.812 127.588 364.11 128.504C367.398 129.42 361.765 136.931 367.398 136.464C373.031 135.997 378.197 124.731 378.197 124.731L373.672 115.663L362.708 114.408L350.077 110.46L344.408 112.53H344.398Z" fill="url(#paint43_linear_43_8854)"/>
<path style="mix-blend-mode:multiply" opacity="0.25" d="M335.953 136.473C335.953 136.473 324.22 134.128 319.997 131.783C319.997 131.783 321.06 138.36 326.867 138.122C332.674 137.883 329.862 143.984 336.896 142.106C343.94 140.228 346.917 141.602 349.179 143.498C351.442 145.394 347.686 138.827 347.686 138.827L335.953 136.482" fill="url(#paint44_linear_43_8854)"/>
<path style="mix-blend-mode:multiply" opacity="0.49" d="M362.708 151.019C362.708 151.019 368.341 162.285 360.363 168.852C352.385 175.42 370.218 174.485 370.218 174.485L373.03 162.752L372.096 154.774L368.341 151.019H362.708Z" fill="url(#paint45_linear_43_8854)"/>
</g>
<path d="M323.752 70.0485C323.752 70.0485 326.848 80.3804 319.96 83.8244C319.96 83.8244 320.995 95.5303 330.292 97.9392C339.589 100.348 341.998 104.14 341.659 106.201C341.311 108.271 347.512 105.853 346.138 110.332C344.764 114.811 370.585 121.699 374.716 119.629C378.847 117.559 366.454 62.1255 323.752 70.0393V70.0485Z" fill="url(#paint46_linear_43_8854)"/>
<mask id="mask10_43_8854" style="mask-type:luminance" maskUnits="userSpaceOnUse" x="319" y="69" width="57" height="52">
<path d="M323.752 70.0485C323.752 70.0485 326.848 80.3804 319.96 83.8244C319.96 83.8244 320.995 95.5303 330.292 97.9392C339.589 100.348 341.998 104.14 341.659 106.201C341.311 108.271 347.512 105.853 346.138 110.332C344.764 114.811 370.585 121.699 374.716 119.629C378.847 117.559 366.454 62.1255 323.752 70.0393V70.0485Z" fill="white"/>
</mask>
<g mask="url(#mask10_43_8854)">
<path style="mix-blend-mode:multiply" opacity="0.27" d="M330.328 79.6846C330.328 79.6846 335.018 91.8759 346.751 94.697C358.484 97.509 358.952 95.6313 362.707 97.9853C366.462 100.33 369.751 99.863 370.218 104.086C370.685 108.308 371.628 121.452 373.973 123.33C376.318 125.207 380.541 116.762 380.541 116.762L375.375 93.7628L367.397 87.6625L347.685 81.5623L330.328 79.6937" fill="url(#paint47_linear_43_8854)"/>
<path d="M338.297 102.208C339.231 101.741 344.397 101.741 342.986 104.085C341.576 106.43 350.497 105.963 349.554 107.841C348.62 109.719 352.256 116.423 361.232 118.237C370.209 120.05 345.331 118.164 345.331 118.164L337.353 110.653L335.476 105.487L338.288 102.199L338.297 102.208Z" fill="url(#paint48_linear_43_8854)"/>
</g>
<path d="M325.822 71.0735L314.116 66.5945C314.116 66.5945 305.854 52.1316 298.279 55.2275C290.705 58.3234 282.782 72.0993 302.758 83.4663C302.758 83.4663 306.862 82.4862 309.298 76.9264C310.306 74.6274 322.387 85.8753 322.387 85.8753C322.387 85.8753 332.032 78.3003 325.831 71.0643L325.822 71.0735Z" fill="url(#paint49_linear_43_8854)"/>
<mask id="mask11_43_8854" style="mask-type:luminance" maskUnits="userSpaceOnUse" x="290" y="54" width="38" height="32">
<path d="M325.822 71.0735L314.116 66.5945C314.116 66.5945 305.854 52.1316 298.279 55.2275C290.705 58.3234 282.782 72.0993 302.758 83.4663C302.758 83.4663 306.862 82.4862 309.298 76.9264C310.306 74.6274 322.387 85.8753 322.387 85.8753C322.387 85.8753 332.032 78.3003 325.831 71.0643L325.822 71.0735Z" fill="white"/>
</mask>
<g mask="url(#mask11_43_8854)">
<path style="mix-blend-mode:multiply" opacity="0.39" d="M301.219 60.9064C301.219 60.9064 297.464 74.0503 288.542 69.8277C279.621 65.6052 296.52 58.5615 296.52 58.5615L301.21 60.9064H301.219Z" fill="url(#paint50_linear_43_8854)"/>
</g>
<path d="M330.329 79.6833C330.329 79.6833 327.92 73.8304 334.46 70.3864C341 66.9424 378.197 86.9194 378.197 86.9194C378.197 86.9194 382.291 93.4593 382.529 116.779C382.575 121.579 382.135 126.369 381.338 131.105C380.761 134.494 380.459 138.616 381.989 139.953C384.746 142.362 383.363 144.432 387.842 146.154C392.321 147.876 396.452 145.467 394.73 148.224C393.008 150.981 389.564 151.32 387.842 150.633C386.12 149.946 379.919 147.537 379.919 145.119C379.919 145.119 379.232 148.563 377.51 148.215C375.788 147.867 377.858 138.918 377.858 138.918L369.935 94.8424C369.935 94.8424 348.245 97.2513 330.338 79.6925L330.329 79.6833Z" fill="url(#paint51_linear_43_8854)"/>
<mask id="mask12_43_8854" style="mask-type:luminance" maskUnits="userSpaceOnUse" x="329" y="69" width="67" height="82">
<path d="M330.329 79.6833C330.329 79.6833 327.92 73.8304 334.46 70.3864C341 66.9424 378.197 86.9194 378.197 86.9194C378.197 86.9194 382.291 93.4593 382.529 116.779C382.575 121.579 382.135 126.369 381.338 131.105C380.761 134.494 380.459 138.616 381.989 139.953C384.746 142.362 383.363 144.432 387.842 146.154C392.321 147.876 396.452 145.467 394.73 148.224C393.008 150.981 389.564 151.32 387.842 150.633C386.12 149.946 379.919 147.537 379.919 145.119C379.919 145.119 379.232 148.563 377.51 148.215C375.788 147.867 377.858 138.918 377.858 138.918L369.935 94.8424C369.935 94.8424 348.245 97.2513 330.338 79.6925L330.329 79.6833Z" fill="white"/>
</mask>
<g mask="url(#mask12_43_8854)">
<path style="mix-blend-mode:multiply" opacity="0.39" d="M351.909 93.7617C351.909 93.7617 352.376 87.1943 358.476 82.9626C364.576 78.7401 358.009 69.3516 358.009 69.3516L347.686 80.1507L345.809 87.6615C345.809 87.6615 348.153 93.7617 351.909 93.7617Z" fill="url(#paint52_linear_43_8854)"/>
</g>
<path d="M329.853 72.6398C329.468 73.1803 327.508 78.273 333.141 84.3732C338.774 90.4734 349.564 93.7617 349.564 93.7617C349.564 93.7617 351.112 84.593 354.254 82.4955C358.476 79.6835 359.42 74.9847 359.42 74.9847C359.42 74.9847 337.831 61.3736 329.853 72.6398Z" fill="url(#paint53_linear_43_8854)"/>
<path d="M307.796 67.9413C307.796 67.9413 312.486 67.9413 313.896 66.0636C313.896 66.0636 311.552 62.3082 312.486 59.4962C313.42 56.6843 308.73 49.1735 304.975 51.9854C301.22 54.7974 295.119 47.2958 291.831 52.4526C288.543 57.6094 292.298 60.4305 284.32 61.374C276.342 62.3082 277.277 67.4742 279.631 70.2953C282.653 73.9225 288.076 68.8848 287.141 74.0507C286.207 79.2167 292.463 74.5637 292.463 74.5637C292.463 74.5637 289.926 71.2204 290.173 68.1795C290.173 68.1795 293.242 71.7059 296.521 67.0071C299.8 62.3082 301.211 62.3174 301.211 62.3174C301.211 62.3174 301.211 67.4833 306.376 66.0728" fill="url(#paint54_linear_43_8854)"/>
<path d="M308.117 64.8089C309.307 65.9996 309.61 67.6392 308.776 68.4635C307.943 69.2879 306.321 68.9948 305.122 67.8041C303.931 66.6133 303.628 64.9738 304.462 64.1494C305.286 63.3251 306.917 63.6182 308.117 64.8089Z" fill="url(#paint55_linear_43_8854)"/>
<defs>
<linearGradient id="paint0_linear_43_8854" x1="7.02637" y1="172.295" x2="128.894" y2="172.295" gradientUnits="userSpaceOnUse">
<stop stop-color="#67A3C4"/>
<stop offset="1" stop-color="#3E5B99"/>
</linearGradient>
<linearGradient id="paint1_linear_43_8854" x1="51.1682" y1="130.134" x2="84.4447" y2="130.134" gradientUnits="userSpaceOnUse">
<stop stop-color="#9C4A7A"/>
<stop offset="1" stop-color="#BF677D"/>
</linearGradient>
<linearGradient id="paint2_linear_43_8854" x1="191.774" y1="223.231" x2="199.825" y2="237.181" gradientUnits="userSpaceOnUse">
<stop offset="0.01" stop-color="#D1A290"/>
<stop offset="1" stop-color="#D46A91"/>
</linearGradient>
<linearGradient id="paint3_linear_43_8854" x1="189.154" y1="254.979" x2="201.969" y2="254.979" gradientUnits="userSpaceOnUse">
<stop stop-color="#DA8D2F"/>
<stop offset="1" stop-color="#E8BF4A"/>
</linearGradient>
<linearGradient id="paint4_linear_43_8854" x1="191.774" y1="271.355" x2="199.825" y2="285.305" gradientUnits="userSpaceOnUse">
<stop stop-color="#70B0AD"/>
<stop offset="1" stop-color="#6890C6"/>
</linearGradient>
<linearGradient id="paint5_linear_43_8854" x1="220.095" y1="195.505" x2="242.38" y2="195.505" gradientUnits="userSpaceOnUse">
<stop stop-color="#67A3C4"/>
<stop offset="1" stop-color="#3E5B99"/>
</linearGradient>
<linearGradient id="paint6_linear_43_8854" x1="222.797" y1="193.564" x2="252.877" y2="193.564" gradientUnits="userSpaceOnUse">
<stop stop-color="#67A3C4"/>
<stop offset="1" stop-color="#3E5B99"/>
</linearGradient>
<linearGradient id="paint7_linear_43_8854" x1="60.5046" y1="214.053" x2="98.2745" y2="235.181" gradientUnits="userSpaceOnUse">
<stop stop-color="#E19594"/>
<stop offset="0.48" stop-color="#DD717E"/>
<stop offset="1" stop-color="#DB4F6A"/>
</linearGradient>
<linearGradient id="paint8_linear_43_8854" x1="146.69" y1="244.376" x2="156.434" y2="202.202" gradientUnits="userSpaceOnUse">
<stop stop-color="#E19594"/>
<stop offset="0.48" stop-color="#DD717E"/>
<stop offset="1" stop-color="#DB4F6A"/>
</linearGradient>
<linearGradient id="paint9_linear_43_8854" x1="204.15" y1="163.069" x2="285.993" y2="246.004" gradientUnits="userSpaceOnUse">
<stop stop-color="#70B0AD"/>
<stop offset="1" stop-color="#6890C6"/>
</linearGradient>
<linearGradient id="paint10_linear_43_8854" x1="281.626" y1="241.41" x2="345.171" y2="305.803" gradientUnits="userSpaceOnUse">
<stop stop-color="#CC8396"/>
<stop offset="1" stop-color="#B9496A"/>
</linearGradient>
<linearGradient id="paint11_linear_43_8854" x1="112.113" y1="43.1467" x2="188.522" y2="43.1467" gradientUnits="userSpaceOnUse">
<stop stop-color="#70B0AD"/>
<stop offset="1" stop-color="#6890C6"/>
</linearGradient>
<linearGradient id="paint12_linear_43_8854" x1="114.696" y1="47.8551" x2="165.807" y2="47.8551" gradientUnits="userSpaceOnUse">
<stop stop-color="#70B0AD"/>
<stop offset="1" stop-color="#6890C6"/>
</linearGradient>
<linearGradient id="paint13_linear_43_8854" x1="112.113" y1="52.5442" x2="188.522" y2="52.5442" gradientUnits="userSpaceOnUse">
<stop stop-color="#70B0AD"/>
<stop offset="1" stop-color="#6890C6"/>
</linearGradient>
<linearGradient id="paint14_linear_43_8854" x1="114.696" y1="57.2526" x2="165.807" y2="57.2526" gradientUnits="userSpaceOnUse">
<stop stop-color="#70B0AD"/>
<stop offset="1" stop-color="#6890C6"/>
</linearGradient>
<linearGradient id="paint15_linear_43_8854" x1="112.113" y1="69.7828" x2="188.522" y2="69.7828" gradientUnits="userSpaceOnUse">
<stop stop-color="#70B0AD"/>
<stop offset="1" stop-color="#6890C6"/>
</linearGradient>
<linearGradient id="paint16_linear_43_8854" x1="114.696" y1="61.1633" x2="165.807" y2="61.1633" gradientUnits="userSpaceOnUse">
<stop stop-color="#70B0AD"/>
<stop offset="1" stop-color="#6890C6"/>
</linearGradient>
<linearGradient id="paint17_linear_43_8854" x1="112.113" y1="79.1803" x2="188.522" y2="79.1803" gradientUnits="userSpaceOnUse">
<stop stop-color="#70B0AD"/>
<stop offset="1" stop-color="#6890C6"/>
</linearGradient>
<linearGradient id="paint18_linear_43_8854" x1="112.113" y1="74.4811" x2="188.522" y2="74.4811" gradientUnits="userSpaceOnUse">
<stop stop-color="#70B0AD"/>
<stop offset="1" stop-color="#6890C6"/>
</linearGradient>
<linearGradient id="paint19_linear_43_8854" x1="114.696" y1="83.8791" x2="165.807" y2="83.8791" gradientUnits="userSpaceOnUse">
<stop stop-color="#70B0AD"/>
<stop offset="1" stop-color="#6890C6"/>
</linearGradient>
<linearGradient id="paint20_linear_43_8854" x1="114.696" y1="89.3658" x2="165.807" y2="89.3658" gradientUnits="userSpaceOnUse">
<stop stop-color="#70B0AD"/>
<stop offset="1" stop-color="#6890C6"/>
</linearGradient>
<linearGradient id="paint21_linear_43_8854" x1="245.073" y1="113.767" x2="267.001" y2="135.704" gradientUnits="userSpaceOnUse">
<stop offset="0.01" stop-color="#D1A290"/>
<stop offset="1" stop-color="#D46A91"/>
</linearGradient>
<linearGradient id="paint22_linear_43_8854" x1="112.221" y1="214.048" x2="123.528" y2="264.33" gradientUnits="userSpaceOnUse">
<stop stop-color="#E7B7BD"/>
<stop offset="1" stop-color="#EDD3BF"/>
</linearGradient>
<linearGradient id="paint23_linear_43_8854" x1="57.7023" y1="336.278" x2="40.4156" y2="339.084" gradientUnits="userSpaceOnUse">
<stop stop-color="#E7B7BD"/>
<stop offset="1" stop-color="#EDD3BF"/>
</linearGradient>
<linearGradient id="paint24_linear_43_8854" x1="56.1565" y1="331.045" x2="51.5184" y2="331.798" gradientUnits="userSpaceOnUse">
<stop stop-color="#E7B7BD"/>
<stop offset="1" stop-color="#EDD3BF"/>
</linearGradient>
<linearGradient id="paint25_linear_43_8854" x1="28.427" y1="325.822" x2="11.1402" y2="328.628" gradientUnits="userSpaceOnUse">
<stop stop-color="#E7B7BD"/>
<stop offset="1" stop-color="#EDD3BF"/>
</linearGradient>
<linearGradient id="paint26_linear_43_8854" x1="26.8821" y1="320.588" x2="22.253" y2="321.34" gradientUnits="userSpaceOnUse">
<stop stop-color="#E7B7BD"/>
<stop offset="1" stop-color="#EDD3BF"/>
</linearGradient>
<linearGradient id="paint27_linear_43_8854" x1="42.8577" y1="287.642" x2="104.892" y2="299.026" gradientUnits="userSpaceOnUse">
<stop stop-color="#CC8396"/>
<stop offset="1" stop-color="#B9496A"/>
</linearGradient>
<linearGradient id="paint28_linear_43_8854" x1="110.509" y1="192.83" x2="131.53" y2="189.417" gradientUnits="userSpaceOnUse">
<stop stop-color="#E7B7BD"/>
<stop offset="1" stop-color="#EDD3BF"/>
</linearGradient>
<linearGradient id="paint29_linear_43_8854" x1="78.3032" y1="222.463" x2="132.982" y2="233.64" gradientUnits="userSpaceOnUse">
<stop stop-color="#67A3C4"/>
<stop offset="1" stop-color="#3E5B99"/>
</linearGradient>
<linearGradient id="paint30_linear_43_8854" x1="84.9773" y1="214.244" x2="149.264" y2="227.387" gradientUnits="userSpaceOnUse">
<stop stop-color="#67A3C4"/>
<stop offset="1" stop-color="#3E5B99"/>
</linearGradient>
<linearGradient id="paint31_linear_43_8854" x1="126.392" y1="192.98" x2="67.8686" y2="202.48" gradientUnits="userSpaceOnUse">
<stop stop-color="#3D365F"/>
<stop offset="1" stop-color="#584680"/>
</linearGradient>
<linearGradient id="paint32_linear_43_8854" x1="153.449" y1="201.375" x2="109.111" y2="208.573" gradientUnits="userSpaceOnUse">
<stop stop-color="#E7B7BD"/>
<stop offset="1" stop-color="#EDD3BF"/>
</linearGradient>
<linearGradient id="paint33_linear_43_8854" x1="298.253" y1="116.763" x2="330.157" y2="74.928" gradientUnits="userSpaceOnUse">
<stop stop-color="#E7B7BD"/>
<stop offset="1" stop-color="#EDD3BF"/>
</linearGradient>
<linearGradient id="paint34_linear_43_8854" x1="315.774" y1="97.8381" x2="332.197" y2="97.8381" gradientUnits="userSpaceOnUse">
<stop stop-color="#E7B7BD"/>
<stop offset="1" stop-color="#EDD3BF"/>
</linearGradient>
<linearGradient id="paint35_linear_43_8854" x1="319.979" y1="98.0954" x2="332.538" y2="84.9464" gradientUnits="userSpaceOnUse">
<stop stop-color="#CC8396"/>
<stop offset="1" stop-color="#B9496A"/>
</linearGradient>
<linearGradient id="paint36_linear_43_8854" x1="333.178" y1="103.151" x2="322.104" y2="83.9796" gradientUnits="userSpaceOnUse">
<stop stop-color="#CC8396"/>
<stop offset="1" stop-color="#B9496A"/>
</linearGradient>
<linearGradient id="paint37_linear_43_8854" x1="378.892" y1="171.837" x2="369.504" y2="155.57" gradientUnits="userSpaceOnUse">
<stop stop-color="#3D365F"/>
<stop offset="1" stop-color="#584680"/>
</linearGradient>
<linearGradient id="paint38_linear_43_8854" x1="335.046" y1="234.342" x2="329.184" y2="224.184" gradientUnits="userSpaceOnUse">
<stop stop-color="#3D365F"/>
<stop offset="1" stop-color="#584680"/>
</linearGradient>
<linearGradient id="paint39_linear_43_8854" x1="315.811" y1="170.592" x2="367.489" y2="170.592" gradientUnits="userSpaceOnUse">
<stop stop-color="#67A3C4"/>
<stop offset="1" stop-color="#3E5B99"/>
</linearGradient>
<linearGradient id="paint40_linear_43_8854" x1="318.586" y1="162.843" x2="367.489" y2="162.843" gradientUnits="userSpaceOnUse">
<stop stop-color="#67A3C4"/>
<stop offset="1" stop-color="#3E5B99"/>
</linearGradient>
<linearGradient id="paint41_linear_43_8854" x1="327.031" y1="220.997" x2="346.275" y2="220.997" gradientUnits="userSpaceOnUse">
<stop stop-color="#67A3C4"/>
<stop offset="1" stop-color="#3E5B99"/>
</linearGradient>
<linearGradient id="paint42_linear_43_8854" x1="294.121" y1="136.271" x2="371.895" y2="136.271" gradientUnits="userSpaceOnUse">
<stop stop-color="#67A3C4"/>
<stop offset="1" stop-color="#3E5B99"/>
</linearGradient>
<linearGradient id="paint43_linear_43_8854" x1="344.398" y1="123.476" x2="378.197" y2="123.476" gradientUnits="userSpaceOnUse">
<stop stop-color="#67A3C4"/>
<stop offset="1" stop-color="#3E5B99"/>
</linearGradient>
<linearGradient id="paint44_linear_43_8854" x1="319.997" y1="137.801" x2="349.903" y2="137.801" gradientUnits="userSpaceOnUse">
<stop stop-color="#67A3C4"/>
<stop offset="1" stop-color="#3E5B99"/>
</linearGradient>
<linearGradient id="paint45_linear_43_8854" x1="358.302" y1="162.779" x2="373.03" y2="162.779" gradientUnits="userSpaceOnUse">
<stop stop-color="#67A3C4"/>
<stop offset="1" stop-color="#3E5B99"/>
</linearGradient>
<linearGradient id="paint46_linear_43_8854" x1="360.463" y1="118.768" x2="332.014" y2="69.4806" gradientUnits="userSpaceOnUse">
<stop stop-color="#CC8396"/>
<stop offset="1" stop-color="#B9496A"/>
</linearGradient>
<linearGradient id="paint47_linear_43_8854" x1="370.822" y1="118.072" x2="345.698" y2="74.5278" gradientUnits="userSpaceOnUse">
<stop stop-color="#CC8396"/>
<stop offset="1" stop-color="#B9496A"/>
</linearGradient>
<linearGradient id="paint48_linear_43_8854" x1="353.74" y1="120.737" x2="342.574" y2="101.393" gradientUnits="userSpaceOnUse">
<stop stop-color="#CC8396"/>
<stop offset="1" stop-color="#B9496A"/>
</linearGradient>
<linearGradient id="paint49_linear_43_8854" x1="315.948" y1="84.4555" x2="299.855" y2="56.5831" gradientUnits="userSpaceOnUse">
<stop stop-color="#E7B7BD"/>
<stop offset="1" stop-color="#EDD3BF"/>
</linearGradient>
<linearGradient id="paint50_linear_43_8854" x1="295.87" y1="68.1424" x2="291.977" y2="61.3918" gradientUnits="userSpaceOnUse">
<stop stop-color="#E7B7BD"/>
<stop offset="1" stop-color="#EDD3BF"/>
</linearGradient>
<linearGradient id="paint51_linear_43_8854" x1="387.155" y1="140.292" x2="346.331" y2="69.5621" gradientUnits="userSpaceOnUse">
<stop stop-color="#E7B7BD"/>
<stop offset="1" stop-color="#EDD3BF"/>
</linearGradient>
<linearGradient id="paint52_linear_43_8854" x1="357.432" y1="88.1652" x2="349.912" y2="75.1404" gradientUnits="userSpaceOnUse">
<stop stop-color="#E7B7BD"/>
<stop offset="1" stop-color="#EDD3BF"/>
</linearGradient>
<linearGradient id="paint53_linear_43_8854" x1="351.323" y1="88.8797" x2="339.232" y2="67.9227" gradientUnits="userSpaceOnUse">
<stop stop-color="#CC8396"/>
<stop offset="1" stop-color="#B9496A"/>
</linearGradient>
<linearGradient id="paint54_linear_43_8854" x1="300.304" y1="71.0281" x2="290.512" y2="54.0647" gradientUnits="userSpaceOnUse">
<stop stop-color="#3D365F"/>
<stop offset="1" stop-color="#584680"/>
</linearGradient>
<linearGradient id="paint55_linear_43_8854" x1="308.739" y1="66.8611" x2="304.16" y2="65.637" gradientUnits="userSpaceOnUse">
<stop stop-color="#E7B7BD"/>
<stop offset="1" stop-color="#EDD3BF"/>
</linearGradient>
</defs>
</svg>
