<svg width="515" height="352" viewBox="0 0 515 352" fill="none" xmlns="http://www.w3.org/2000/svg">
<g clip-path="url(#clip0_43_7554)">
<path d="M461.976 346.906C456.157 330.898 468.052 314.198 480.098 302.161C492.154 290.124 506.2 276.751 505.716 259.729C505.1 237.968 481.681 224.794 471.16 205.743C461.484 188.219 463.408 166.6 468.44 147.237C473.473 127.864 481.349 109.032 482.884 89.081C484.42 69.1302 477.918 46.8195 460.697 36.6214C442.973 26.1295 419.876 31.6834 402.039 41.9953C384.211 52.3072 368.99 66.9409 350.413 75.8405C328.927 86.1429 303.526 88.01 280.761 80.968C253.313 72.4759 231.324 52.3261 206.919 37.1521C182.514 21.9876 151.047 11.7232 125.505 24.8879C102.597 36.6877 91.6216 67.3674 101.858 91.024C107.203 103.383 117.088 113.069 125.363 123.694C133.637 134.319 140.669 147.322 138.669 160.629C136.224 176.902 120.87 188.408 105.146 193.28C89.4228 198.152 72.6281 198.199 56.5632 201.791C40.4983 205.383 23.9785 213.847 17.7231 229.068C9.40164 249.313 22.2251 271.643 35.2476 289.233C48.2701 306.824 62.847 325.552 58.0607 346.915H461.976V346.906Z" fill="#F1F3FF"/>
<path d="M49 347L468 347" stroke="#211951" stroke-width="2" stroke-linecap="round" stroke-linejoin="round"/>
<path d="M100.843 346.905H278.144C287.754 346.905 295.545 339.114 295.545 329.504V103.856C295.545 94.2458 287.754 86.4551 278.144 86.4551H119.656C105.515 100.596 97.5823 108.529 83.4414 122.67V329.494C83.4414 339.105 91.2322 346.896 100.843 346.896V346.905Z" fill="white" stroke="#42495F" stroke-width="2" stroke-linecap="round" stroke-linejoin="round"/>
<path d="M119.666 86.4648V114.86C119.666 119.182 116.169 122.68 111.847 122.68H83.4512L119.666 86.4648Z" fill="white" stroke="#42495F" stroke-width="2" stroke-linecap="round" stroke-linejoin="round"/>
<path d="M134.508 136.107H267.036C269.946 136.107 272.297 138.467 272.297 141.368C272.297 144.277 269.937 146.628 267.036 146.628H134.508C131.599 146.628 129.248 144.268 129.248 141.368C129.248 138.458 131.608 136.107 134.508 136.107Z" fill="#16F5BA"/>
<path d="M169.197 127.34L267.729 127.34C270.252 127.34 272.297 125.295 272.297 122.772V121.378C272.297 118.855 270.252 116.81 267.729 116.81L169.197 116.81C166.674 116.81 164.629 118.855 164.629 121.378V122.772C164.629 125.295 166.674 127.34 169.197 127.34Z" fill="#16F5BA"/>
<path d="M272.305 189.736H165.471" stroke="#211951" stroke-width="2" stroke-linecap="round" stroke-linejoin="round"/>
<path d="M144.525 189.736H106.699" stroke="#211951" stroke-width="2" stroke-linecap="round" stroke-linejoin="round"/>
<path d="M272.305 227.316H165.471" stroke="#211951" stroke-width="2" stroke-linecap="round" stroke-linejoin="round"/>
<path d="M144.525 227.316H106.699" stroke="#211951" stroke-width="2" stroke-linecap="round" stroke-linejoin="round"/>
<path d="M272.305 264.906H165.471" stroke="#211951" stroke-width="2" stroke-linecap="round" stroke-linejoin="round"/>
<path d="M144.525 264.906H106.699" stroke="#211951" stroke-width="2" stroke-linecap="round" stroke-linejoin="round"/>
<path d="M272.305 302.484H224.65" stroke="#211951" stroke-width="2" stroke-linecap="round" stroke-linejoin="round"/>
<path d="M203.714 302.484H165.879" stroke="#211951" stroke-width="2" stroke-linecap="round" stroke-linejoin="round"/>
<path d="M97.9109 216.134C112.48 208.148 117.816 189.864 109.83 175.295C101.844 160.726 83.5594 155.39 68.9906 163.376C54.4217 171.362 49.0854 189.646 57.0715 204.215C65.0576 218.784 83.342 224.12 97.9109 216.134Z" fill="#836FFF"/>
<path d="M91.6598 208.423C101.984 203.891 106.679 191.848 102.147 181.524C97.6154 171.2 85.5722 166.504 75.2481 171.036C64.924 175.568 60.2286 187.612 64.7605 197.936C69.2925 208.26 81.3357 212.955 91.6598 208.423Z" fill="white"/>
<path d="M78.9312 197.301L79.5283 193.832C80.2771 194.088 82.9308 194.836 84.4094 194.438C85.7552 194.078 86.1249 193.272 85.9164 192.476C85.651 191.472 84.6558 191.348 82.9403 191.187C79.6326 190.865 77.6043 189.851 76.903 187.245C76.3438 185.159 77.5948 183.188 79.6705 182.089L79.0923 179.928L82.438 179.027L83.0067 181.131C84.9212 180.904 86.6841 181.16 87.7456 181.529L87.0347 184.771C85.9448 184.496 84.1061 184.06 82.6844 184.439C81.6798 184.705 81.1869 185.178 81.3765 185.889C81.604 186.733 82.637 186.998 85.0444 187.245C88.0963 187.576 89.717 188.666 90.3614 191.045C90.9396 193.178 89.9255 195.623 87.2527 196.912L87.9446 199.49L84.5989 200.39L83.8976 197.784C81.8125 198.002 80.0306 197.604 78.9312 197.282V197.301Z" fill="#16F5BA"/>
<path d="M390.286 237.494H202C197.027 237.494 192.996 241.525 192.996 246.498V322.33C192.996 327.303 197.027 331.334 202 331.334H390.286C395.259 331.334 399.29 327.303 399.29 322.33V246.498C399.29 241.525 395.259 237.494 390.286 237.494Z" fill="white" stroke="#231F46" stroke-width="2" stroke-miterlimit="10" stroke-linecap="round"/>
<path d="M378.97 253.02H213.336V263.805H378.97V253.02Z" fill="#FFDA00"/>
<path d="M378.97 279.025H213.336V289.811H378.97V279.025Z" fill="#FFDA00"/>
<path d="M378.97 305.033H213.336V315.819H378.97V305.033Z" fill="#FFDA00"/>
<path d="M277.908 253.02H213.336V263.805H277.908V253.02Z" fill="#211951"/>
<path d="M355.759 279.025H213.336V289.811H355.759V279.025Z" fill="#211951"/>
<path d="M317.421 305.033H213.336V315.819H317.421V305.033Z" fill="#211951"/>
<path d="M286.773 260.49C287.931 255.584 284.892 250.668 279.986 249.51C275.08 248.352 270.165 251.391 269.007 256.297C267.849 261.203 270.887 266.118 275.793 267.276C280.699 268.434 285.615 265.396 286.773 260.49Z" fill="#836FFF"/>
<path d="M359.248 292.852C363.905 290.923 366.117 285.584 364.188 280.927C362.259 276.27 356.919 274.059 352.262 275.988C347.605 277.917 345.394 283.256 347.323 287.913C349.252 292.57 354.591 294.781 359.248 292.852Z" fill="#836FFF"/>
<path d="M323.873 316.884C327.438 313.319 327.438 307.54 323.873 303.976C320.309 300.411 314.53 300.411 310.966 303.976C307.401 307.54 307.401 313.319 310.966 316.884C314.53 320.448 320.309 320.448 323.873 316.884Z" fill="#836FFF"/>
<path d="M120.67 286.797H82.4462C77.3479 286.797 73.2148 290.93 73.2148 296.028V314.036C73.2148 319.134 77.3479 323.267 82.4462 323.267H120.67C125.769 323.267 129.902 319.134 129.902 314.036V296.028C129.902 290.93 125.769 286.797 120.67 286.797Z" fill="#211951"/>
<path d="M88.5125 307.771C90.0253 307.771 91.2516 306.545 91.2516 305.032C91.2516 303.519 90.0253 302.293 88.5125 302.293C86.9998 302.293 85.7734 303.519 85.7734 305.032C85.7734 306.545 86.9998 307.771 88.5125 307.771Z" fill="white"/>
<path d="M101.563 307.771C103.076 307.771 104.302 306.545 104.302 305.032C104.302 303.519 103.076 302.293 101.563 302.293C100.051 302.293 98.8242 303.519 98.8242 305.032C98.8242 306.545 100.051 307.771 101.563 307.771Z" fill="white"/>
<path d="M117.353 305.032C117.353 306.548 116.131 307.771 114.614 307.771C113.098 307.771 111.875 306.548 111.875 305.032C111.875 303.516 113.098 302.293 114.614 302.293C116.131 302.293 117.353 303.516 117.353 305.032Z" fill="white"/>
<path d="M232.254 68.2305H194.03C188.932 68.2305 184.799 72.3635 184.799 77.4619V95.4697C184.799 100.568 188.932 104.701 194.03 104.701H232.254C237.353 104.701 241.486 100.568 241.486 95.4697V77.4619C241.486 72.3635 237.353 68.2305 232.254 68.2305Z" fill="#211951"/>
<path d="M200.096 89.2047C201.609 89.2047 202.836 87.9784 202.836 86.4656C202.836 84.9529 201.609 83.7266 200.096 83.7266C198.584 83.7266 197.357 84.9529 197.357 86.4656C197.357 87.9784 198.584 89.2047 200.096 89.2047Z" fill="white"/>
<path d="M213.147 89.2047C214.66 89.2047 215.886 87.9784 215.886 86.4656C215.886 84.9529 214.66 83.7266 213.147 83.7266C211.635 83.7266 210.408 84.9529 210.408 86.4656C210.408 87.9784 211.635 89.2047 213.147 89.2047Z" fill="white"/>
<path d="M228.937 86.4656C228.937 87.9821 227.715 89.2047 226.198 89.2047C224.682 89.2047 223.459 87.9821 223.459 86.4656C223.459 84.9492 224.682 83.7266 226.198 83.7266C227.715 83.7266 228.937 84.9492 228.937 86.4656Z" fill="white"/>
<path d="M301.111 189.205H291.188C287.602 189.205 284.695 192.112 284.695 195.697V215.43C284.695 219.016 287.602 221.922 291.188 221.922H301.111C304.696 221.922 307.603 219.016 307.603 215.43V195.697C307.603 192.112 304.696 189.205 301.111 189.205Z" fill="#836FFF"/>
<path d="M334.595 165.055H324.672C321.086 165.055 318.18 167.961 318.18 171.547V215.439C318.18 219.024 321.086 221.931 324.672 221.931H334.595C338.181 221.931 341.088 219.024 341.088 215.439V171.547C341.088 167.961 338.181 165.055 334.595 165.055Z" fill="#836FFF"/>
<path d="M358.168 175.604H368.082C371.664 175.604 374.574 178.513 374.574 182.096V215.429C374.574 219.012 371.664 221.922 368.082 221.922H358.168C354.585 221.922 351.676 219.012 351.676 215.429V182.096C351.676 178.513 354.585 175.604 358.168 175.604Z" fill="#836FFF"/>
<path d="M462.706 311.212L445.362 295.754L436.254 305.905L454.338 320.709L462.706 311.212Z" fill="#C4804B"/>
<path d="M455.134 311.838C455.097 311.345 454.822 310.88 454.414 310.615C454.007 310.35 453.466 310.283 453.002 310.444" stroke="#6E3B09" stroke-width="0.5" stroke-miterlimit="10" stroke-linecap="round"/>
<path d="M466.277 313.101L443.131 338.926L444.302 339.976L467.449 314.152L466.277 313.101Z" fill="#FFDA00"/>
<path d="M447.183 314.843C447.183 314.843 445.628 321.156 442.88 326.084C440.131 331.022 437.705 334.064 442.188 338.083C446.386 333.401 465.333 312.256 465.333 312.256L457.333 305.764C457.333 305.764 455.845 305.811 456.736 306.939C457.627 308.067 458.812 309.394 458.812 309.394L454.585 315.554C454.585 315.554 448.671 314.171 447.183 314.843Z" fill="#F8F8F8"/>
<mask id="mask0_43_7554" style="mask-type:luminance" maskUnits="userSpaceOnUse" x="439" y="305" width="27" height="34">
<path d="M447.183 314.843C447.183 314.843 445.628 321.156 442.88 326.084C440.131 331.022 437.705 334.064 442.188 338.083C446.386 333.401 465.333 312.256 465.333 312.256L457.333 305.764C457.333 305.764 455.845 305.811 456.736 306.939C457.627 308.067 458.812 309.394 458.812 309.394L454.585 315.554C454.585 315.554 448.671 314.171 447.183 314.843Z" fill="white"/>
</mask>
<g mask="url(#mask0_43_7554)">
<path d="M445.475 327.994L448.106 325.058C448.379 324.754 448.353 324.287 448.049 324.014L442.608 319.137C442.304 318.865 441.836 318.89 441.564 319.194L438.932 322.13C438.66 322.434 438.685 322.902 438.989 323.174L444.431 328.051C444.735 328.324 445.202 328.298 445.475 327.994Z" stroke="#FF8F00" stroke-miterlimit="10"/>
</g>
<path d="M465.328 312.252L442.182 338.076L443.127 338.924L466.274 313.1L465.328 312.252Z" fill="white"/>
<path d="M435.844 340.373L435.93 317.134L422.291 317.039L423.182 340.392L435.844 340.373Z" fill="#C4804B"/>
<path d="M430.358 335.103C430.699 334.753 430.87 334.241 430.804 333.758C430.737 333.274 430.425 332.829 429.998 332.592" stroke="#6E3B09" stroke-width="0.5" stroke-miterlimit="10" stroke-linecap="round"/>
<path d="M436.798 344.269L402.119 344.033L402.108 345.606L436.787 345.843L436.798 344.269Z" fill="#FFDA00"/>
<path d="M422.832 331.142C422.832 331.142 417.069 334.156 411.563 335.36C406.047 336.573 402.151 336.762 402.113 342.781C408.407 342.828 436.793 343.018 436.793 343.018L436.366 332.725C436.366 332.725 435.342 331.644 435.087 333.057C434.831 334.469 434.622 336.232 434.622 336.232L427.201 337.141C427.201 337.141 424.32 331.796 422.832 331.123V331.142Z" fill="#F8F8F8"/>
<mask id="mask1_43_7554" style="mask-type:luminance" maskUnits="userSpaceOnUse" x="402" y="331" width="35" height="13">
<path d="M422.832 331.142C422.832 331.142 417.069 334.156 411.563 335.36C406.047 336.573 402.151 336.762 402.113 342.781C408.407 342.828 436.793 343.018 436.793 343.018L436.366 332.725C436.366 332.725 435.342 331.644 435.087 333.057C434.831 334.469 434.622 336.232 434.622 336.232L427.201 337.141C427.201 337.141 424.32 331.796 422.832 331.123V331.142Z" fill="white"/>
</mask>
<g mask="url(#mask1_43_7554)">
<path d="M411.84 338.591L415.782 338.618C416.19 338.621 416.524 338.292 416.527 337.884L416.576 330.577C416.579 330.168 416.25 329.835 415.842 329.832L411.899 329.805C411.491 329.803 411.158 330.131 411.155 330.54L411.105 337.847C411.103 338.255 411.431 338.588 411.84 338.591Z" stroke="#FF8F00" stroke-miterlimit="10"/>
</g>
<path d="M436.805 343L402.127 342.764L402.118 344.034L436.797 344.27L436.805 343Z" fill="white"/>
<path d="M452.604 301.098L442.937 311.894L399.689 277.897L414.427 261.244L452.604 301.098Z" fill="#211951"/>
<path d="M415.421 276.764C419.429 272.113 418.909 265.093 414.258 261.085C409.607 257.076 402.588 257.596 398.579 262.247C394.57 266.898 395.091 273.918 399.741 277.926C404.392 281.935 411.412 281.415 415.421 276.764Z" fill="#211951"/>
<path d="M440.756 310.179L442.936 311.895L452.603 301.099L450.689 299.1L440.756 310.179Z" fill="#FFDA00"/>
<path d="M416.455 185.192C417.023 188.898 420.483 191.438 424.188 190.87C427.894 190.301 430.434 186.842 429.866 183.136C429.297 179.43 425.838 176.89 422.132 177.458C418.426 178.027 415.886 181.487 416.455 185.192Z" fill="#C4804B"/>
<path d="M405.167 154.769C405.821 159.053 409.84 162 414.124 161.337C418.408 160.683 421.356 156.664 420.692 152.38C420.038 148.096 416.02 145.149 411.736 145.812C407.452 146.466 404.504 150.485 405.167 154.769Z" fill="#C4804B"/>
<path d="M420.7 152.381L429.856 183.136L416.454 185.193L405.166 154.769L420.7 152.381Z" fill="#C4804B"/>
<path d="M404.512 154.713C404.683 155.803 405.081 156.798 405.659 157.68L410.607 170.399L426.425 168.807L421.269 152.145C420.606 147.851 416.331 144.951 411.697 145.662C407.062 146.373 403.858 150.42 404.512 154.713Z" fill="#16F5BA"/>
<path d="M426.747 166.711L427.837 169.933L409.914 171.336L408.824 168.114L426.747 166.711Z" fill="#FFDA00"/>
<path d="M414.105 166.143L413.432 160.674" stroke="#6E312A" stroke-miterlimit="10" stroke-linecap="round"/>
<path d="M418.538 189.136C421.287 191.685 425.571 191.524 428.12 188.785C430.67 186.037 430.509 181.753 427.77 179.203C425.021 176.654 420.737 176.815 418.188 179.554C415.638 182.302 415.799 186.586 418.538 189.136Z" fill="#C4804B"/>
<path d="M393.545 207.969C395.147 209.457 397.649 209.362 399.137 207.76C400.625 206.159 400.53 203.657 398.928 202.169C397.327 200.681 394.825 200.775 393.337 202.377C391.848 203.979 391.943 206.481 393.545 207.969Z" fill="#C4804B"/>
<path d="M418.187 179.543L393.336 202.375L399.136 207.758L428.129 188.774L418.187 179.543Z" fill="#C4804B"/>
<path d="M404.312 192.274L412.587 184.483C412.587 184.483 414.454 182.474 417.43 182.578" stroke="#6E312A" stroke-miterlimit="10" stroke-linecap="round"/>
<path d="M388.439 205.25C388.079 205.591 389.254 207.013 391.358 209.041C393.282 210.899 394.97 212.33 395.358 212.017L395.548 211.875C395.548 211.875 395.567 211.866 395.576 211.856C395.576 211.856 396.078 211.458 396.334 211.259C399.737 208.548 401.718 205.061 399.073 202.018C396.477 199.033 392.96 200.758 389.804 203.762C389.577 203.98 389.359 204.198 389.16 204.426C389.141 204.444 389.122 204.454 389.103 204.473L388.449 205.26L388.439 205.25Z" fill="#C4804B"/>
<path d="M392.276 200.623C392.978 200.594 395.963 200.158 396.124 200.983L396.39 201.154C396.409 202.12 392.76 204.651 392.058 204.272L389.774 202.935C389.073 202.964 388.229 203.144 388.248 202.452C388.267 201.751 388.826 201.286 389.518 201.106C390.646 200.822 392.276 200.632 392.276 200.632V200.623Z" fill="#C4804B"/>
<path d="M389.679 201.051C390.523 201.325 391.177 202.529 390.76 203.249L390.788 203.448C390.371 204.169 390.333 204.027 389.471 203.818C388.087 203.477 386.533 201.885 386.533 201.885C385.718 201.107 385.329 199.818 385.594 199.373C385.841 198.918 386.429 198.586 386.779 198.71C386.779 198.71 387.452 200.33 389.689 201.051H389.679Z" fill="#C4804B"/>
<path d="M389.443 210.415L392.571 207.724C393.13 207.25 393.187 206.406 392.713 205.857C392.239 205.297 391.395 205.241 390.846 205.714L387.718 208.406C387.159 208.88 387.102 209.724 387.576 210.273C388.05 210.832 388.893 210.889 389.443 210.415Z" fill="#C4804B"/>
<path d="M387.642 208.738L390.77 206.046C391.329 205.572 391.386 204.729 390.912 204.179C390.438 203.62 389.595 203.563 389.045 204.037L385.917 206.728C385.358 207.212 385.301 208.046 385.775 208.596C386.249 209.155 387.092 209.212 387.642 208.738Z" fill="#C4804B"/>
<path d="M391.347 212.177L394.475 209.485C395.034 209.012 395.091 208.168 394.617 207.618C394.143 207.059 393.3 207.002 392.75 207.476L389.622 210.168C389.063 210.642 389.006 211.485 389.48 212.035C389.954 212.594 390.797 212.651 391.347 212.177Z" fill="#C4804B"/>
<path d="M393.423 213.675L396.551 210.984C397.11 210.51 397.167 209.666 396.693 209.116C396.219 208.557 395.376 208.5 394.826 208.974L391.698 211.666C391.139 212.149 391.082 212.983 391.556 213.533C392.03 214.092 392.874 214.149 393.423 213.675Z" fill="#C4804B"/>
<path d="M390.932 203.762C390.932 203.762 394.533 206.709 397.576 204.454" stroke="#6E312A" stroke-miterlimit="10" stroke-linecap="round"/>
<path d="M453.664 201.051H411.611L412.711 145.625L451.466 147.625L453.664 201.051Z" fill="#16F5BA"/>
<path d="M417.365 273.602L396.191 267.091L410.408 214.574L437.003 223.758L417.365 273.602Z" fill="#211951"/>
<path d="M437.132 223.536C439.529 216.137 435.473 208.195 428.074 205.797C420.674 203.4 412.732 207.456 410.335 214.855C407.937 222.255 411.993 230.197 419.393 232.594C426.792 234.992 434.734 230.936 437.132 223.536Z" fill="#211951"/>
<path d="M397.168 274.448C399.964 279.917 406.665 282.087 412.133 279.291C414.598 278.03 416.398 275.974 417.365 273.595C418.55 270.704 418.503 267.33 416.977 264.326C414.181 258.857 407.48 256.686 402.011 259.482C396.542 262.278 394.372 268.979 397.168 274.448Z" fill="#211951"/>
<path d="M409.878 216.774L411.603 201.051H453.656L454.49 216.746C454.566 218.196 453.713 219.523 452.376 220.073L435.8 226.755C432.369 228.138 428.511 228.034 425.156 226.461L411.811 220.186C410.513 219.57 409.736 218.206 409.878 216.784V216.774Z" fill="#211951"/>
<path d="M421.791 148.042C422.445 152.194 425.971 155.217 430.169 155.217C430.615 155.217 431.06 155.179 431.506 155.113C435.61 154.459 438.567 150.971 438.681 146.962L421.706 146.09C421.658 146.725 421.687 147.379 421.791 148.042Z" fill="white"/>
<path d="M423.277 147.805C423.884 151.625 427.466 154.231 431.286 153.625C435.105 153.018 437.712 149.436 437.105 145.616C436.499 141.796 432.916 139.19 429.096 139.797C425.277 140.403 422.671 143.986 423.277 147.805Z" fill="#C4804B"/>
<path d="M437.106 145.626L435.59 136.062L422.207 138.081L423.278 147.806L437.106 145.626Z" fill="#C4804B"/>
<path d="M438.226 131.229C438.226 131.229 442.397 130.366 441.942 134.944C441.487 139.512 436.16 138.204 436.16 138.204L438.236 131.229H438.226Z" fill="#C4804B"/>
<path d="M438.992 133.04C439.722 132.936 440.348 133.201 440.584 133.685C440.66 133.827 440.708 133.988 440.746 134.14C440.831 134.5 440.812 134.869 440.708 135.229C440.613 135.58 440.423 135.912 440.12 136.149C439.817 136.386 439.4 136.518 439.011 136.433" stroke="#FC9EAA" stroke-width="0.5" stroke-miterlimit="10" stroke-linecap="round"/>
<path d="M438.861 134.973C438.595 134.442 439.752 133.542 440.747 134.47" stroke="#FC9EAA" stroke-width="0.5" stroke-miterlimit="10" stroke-linecap="round"/>
<g style="mix-blend-mode:multiply" opacity="0.1">
<path d="M423.06 145.843L422.918 144.526C422.918 144.526 429.941 148.279 434.888 141.521C434.888 142.128 431.675 149.388 423.07 145.843H423.06Z" fill="black"/>
</g>
<path d="M437.259 136.886C437.259 136.886 434.454 144.402 430.284 145.577C426.113 146.752 420.777 145.302 420.777 140.231V129.304C420.777 126.47 422.351 123.835 424.9 122.612C427.071 121.579 430.132 121.058 434.179 122.479C443.505 125.74 437.259 136.876 437.259 136.876V136.886Z" fill="#C4804B"/>
<path d="M428.994 133.048C428.994 133.455 429.231 133.787 429.515 133.787C429.8 133.787 430.037 133.455 430.037 133.048C430.037 132.64 429.8 132.309 429.515 132.309C429.231 132.309 428.994 132.64 428.994 133.048Z" fill="#2E1124"/>
<path d="M423.449 133.048C423.449 133.455 423.686 133.787 423.97 133.787C424.255 133.787 424.492 133.455 424.492 133.048C424.492 132.64 424.255 132.309 423.97 132.309C423.686 132.309 423.449 132.64 423.449 133.048Z" fill="#2E1124"/>
<path d="M425.222 130.951C424.682 130.411 423.45 130.326 422.824 130.951" stroke="#6E3B09" stroke-width="0.75" stroke-miterlimit="10" stroke-linecap="round"/>
<path d="M430.72 130.951C430.18 130.411 428.948 130.326 428.322 130.951" stroke="#6E3B09" stroke-width="0.75" stroke-miterlimit="10" stroke-linecap="round"/>
<path d="M424.777 140.894C424.777 140.894 426.73 142.145 428.322 140.619" stroke="#6E3B09" stroke-miterlimit="10" stroke-linecap="round"/>
<path d="M426.283 133.92C426.283 133.92 424.407 137.408 424.653 137.882C424.9 138.356 425.895 138.109 425.895 138.109" stroke="#6E3B09" stroke-width="0.5" stroke-miterlimit="10" stroke-linecap="round"/>
<path d="M429.127 136.999C429.127 137.88 429.838 138.591 430.719 138.591C431.601 138.591 432.311 137.88 432.311 136.999C432.311 136.117 431.601 135.406 430.719 135.406C429.838 135.406 429.127 136.117 429.127 136.999Z" fill="#B66A45"/>
<path d="M420.947 136.999C420.947 137.88 421.658 138.591 422.54 138.591C423.421 138.591 424.132 137.88 424.132 136.999C424.132 136.117 423.421 135.406 422.54 135.406C421.658 135.406 420.947 136.117 420.947 136.999Z" fill="#B66A45"/>
<path d="M441.94 134.412C441.94 134.412 442.158 132.972 441.475 132.346C439.115 130.204 437.229 132.232 436.945 136.26C436.945 136.26 436.509 136.668 436.49 136.014C436.471 135.256 436.85 133.284 436.556 130.896C436.338 129.095 436.964 127.655 436.955 127.692C436.955 127.692 426.804 129.948 421.932 126.024C420.217 127.323 420.947 132.251 420.776 133.995C419.496 131.758 416.302 128.11 418.615 125.92C416.302 123.977 416.719 120.982 420.947 117.248C423.771 114.755 423.126 109.391 429.495 115.656C432.888 118.992 435.684 113.874 438.338 120.063C440.736 117.817 444.85 121.153 444.47 125.825C443.978 131.882 441.93 134.412 441.93 134.412H441.94Z" fill="#5E2A09"/>
<path d="M414.483 206.121C414.483 206.121 414.568 215.94 412.312 219.826" stroke="white" stroke-miterlimit="10" stroke-linecap="round"/>
<path d="M448.404 187.09C448.072 190.824 450.83 194.113 454.565 194.445C458.299 194.776 461.588 192.018 461.919 188.284C462.251 184.55 459.493 181.261 455.759 180.929C452.025 180.598 448.736 183.356 448.404 187.09Z" fill="#C4804B"/>
<path d="M444.699 154.847C444.319 159.169 447.504 162.979 451.826 163.368C456.148 163.747 459.958 160.562 460.346 156.241C460.726 151.919 457.541 148.109 453.219 147.72C448.897 147.341 445.087 150.526 444.699 154.847Z" fill="#C4804B"/>
<path d="M460.347 156.231L461.92 188.285L448.405 187.091L444.699 154.848L460.347 156.231Z" fill="#C4804B"/>
<path d="M444.643 154.847C444.548 155.947 444.681 157.008 445.003 157.994L446.558 171.5L461.144 173.623L460.291 156.231C460.67 151.909 457.486 148.099 453.154 147.71C448.832 147.331 445.022 150.516 444.634 154.847H444.643Z" fill="#16F5BA"/>
<path d="M461.913 171.671L462.159 175.055L445.725 172.259L445.479 168.875L461.913 171.671Z" fill="#FFDA00"/>
<path d="M446.037 166.922L445.402 161.453" stroke="#6E312A" stroke-miterlimit="10" stroke-linecap="round"/>
<path d="M448.404 188.274C448.727 192.008 452.016 194.766 455.74 194.444C459.475 194.121 462.233 190.833 461.91 187.108C461.588 183.373 458.299 180.615 454.575 180.938C450.84 181.26 448.082 184.549 448.404 188.274Z" fill="#C4804B"/>
<path d="M417.232 185.44C417.422 187.62 419.336 189.231 421.516 189.041C423.696 188.852 425.307 186.937 425.117 184.757C424.928 182.577 423.013 180.966 420.834 181.156C418.654 181.345 417.042 183.26 417.232 185.44Z" fill="#C4804B"/>
<path d="M454.584 180.93L420.834 181.157L421.516 189.043L455.75 194.445L454.584 180.93Z" fill="#C4804B"/>
<path d="M440.453 181.043L451.817 180.825C451.817 180.825 454.547 180.588 456.689 182.673" stroke="#6E312A" stroke-miterlimit="10" stroke-linecap="round"/>
<path d="M412.824 183.992C412.331 183.992 412.265 184.807 412.492 186.105C412.701 187.29 413.014 188.266 413.516 188.295H413.753C413.753 188.295 413.772 188.304 413.781 188.304C413.781 188.304 414.416 188.333 414.748 188.342C419.098 188.513 422.89 188.001 422.927 186.2C422.965 184.447 419.193 183.916 414.843 183.916C414.53 183.916 414.217 183.916 413.924 183.935C413.895 183.935 413.876 183.935 413.848 183.935L412.834 183.982L412.824 183.992Z" fill="#C4804B"/>
<path d="M419.887 182.342C420.427 182.797 422.92 184.484 422.484 185.204L422.569 185.507C421.925 186.237 417.527 185.64 417.271 184.872L416.494 182.342C415.954 181.887 415.214 181.46 415.698 180.948C416.181 180.446 416.911 180.474 417.546 180.816C418.57 181.365 419.906 182.323 419.906 182.323L419.887 182.342Z" fill="#C4804B"/>
<path d="M416.037 180.476C416.928 180.457 417.933 181.376 417.781 182.191L417.876 182.372C417.724 183.196 417.639 183.073 416.748 183.158C415.326 183.291 413.336 182.305 413.336 182.305C412.312 181.841 411.516 180.751 411.621 180.248C411.706 179.737 412.151 179.234 412.521 179.234C412.521 179.234 413.687 180.542 416.037 180.485V180.476Z" fill="#C4804B"/>
<path d="M413.27 186.551L417.165 185.186C417.857 184.94 418.217 184.191 417.98 183.499C417.734 182.807 416.985 182.447 416.293 182.684L412.398 184.049C411.706 184.295 411.346 185.044 411.583 185.736C411.829 186.428 412.578 186.788 413.27 186.551Z" fill="#C4804B"/>
<path d="M407.375 187.365L411.498 187.298C412.228 187.289 412.815 186.682 412.806 185.953C412.797 185.223 412.19 184.635 411.46 184.645L407.337 184.711C406.608 184.72 406.02 185.327 406.029 186.057C406.039 186.787 406.645 187.374 407.375 187.365Z" fill="#C4804B"/>
<path d="M410.17 186.873L414.293 186.806C415.023 186.797 415.61 186.19 415.601 185.46C415.592 184.731 414.985 184.143 414.255 184.152L410.132 184.219C409.402 184.228 408.815 184.835 408.824 185.565C408.834 186.294 409.44 186.882 410.17 186.873Z" fill="#C4804B"/>
<path d="M415.261 186.152C415.839 186.152 416.313 186.625 416.303 187.185C416.303 187.753 415.706 188.312 415.118 188.303L405.261 188.028C404.683 188.028 404.209 187.554 404.219 186.995C404.219 186.426 404.702 185.981 405.29 185.99L415.261 186.152Z" fill="#C4804B"/>
<path d="M414.037 185.68C413.146 186.116 410.777 186.154 409.545 185.992" stroke="#6E312A" stroke-miterlimit="10" stroke-linecap="round"/>
<path d="M418.027 184.285C417.411 184.029 416.823 183.754 416.406 183.508" stroke="#6E312A" stroke-miterlimit="10" stroke-linecap="round"/>
<path d="M436.727 326.111L422.236 326.006L419.061 271.102H441.305L436.727 326.111Z" fill="#211951"/>
<path d="M430.339 282.101C436.479 282.024 441.393 276.985 441.316 270.845C441.239 264.705 436.199 259.791 430.06 259.868C423.92 259.945 419.006 264.985 419.083 271.124C419.16 277.264 424.2 282.178 430.339 282.101Z" fill="#211951"/>
<path d="M422.074 323.238L422.235 326.006L436.727 326.11L436.954 323.343L422.074 323.238Z" fill="#FFDA00"/>
<path d="M440.927 273.963L419.109 270.153L426.654 216.262L454.196 222.062L440.927 273.963Z" fill="#211951"/>
<path d="M428.767 227.086C433.145 233.522 441.903 235.18 448.338 230.811C454.774 226.432 456.432 217.675 452.063 211.239C447.684 204.804 438.927 203.145 432.491 207.515C426.056 211.893 424.397 220.651 428.767 227.086Z" fill="#211951"/>
<path d="M420.995 277.328C424.445 282.408 431.363 283.726 436.443 280.266C438.737 278.702 440.263 276.447 440.926 273.964C441.732 270.95 441.277 267.604 439.382 264.817C435.932 259.737 429.013 258.42 423.933 261.879C418.853 265.329 417.535 272.248 420.995 277.328Z" fill="#211951"/>
<path d="M425.078 234.904L411.705 268.854" stroke="white" stroke-miterlimit="10" stroke-linecap="round"/>
<path d="M449.163 207.125C449.163 207.125 448.168 218.081 453.333 221.162" stroke="white" stroke-miterlimit="10" stroke-linecap="round"/>
<path d="M428.311 212.973C428.311 212.973 427.041 228.185 428.311 229.758C429.581 231.331 430.206 231.881 430.206 231.881" stroke="white" stroke-miterlimit="10" stroke-linecap="round"/>
<path d="M410.834 102.037H334.5C325.903 102.037 318.928 95.061 318.928 86.4646C318.928 77.8682 325.894 70.8926 334.5 70.8926H395.262C403.858 70.8926 410.834 77.8682 410.834 86.4646V102.037Z" fill="white" stroke="#231F46" stroke-width="2" stroke-miterlimit="10" stroke-linecap="round"/>
<path d="M335.182 86.4648H394.589" stroke="#231F46" stroke-width="2" stroke-miterlimit="10" stroke-linecap="round"/>
<path d="M475.861 104.92L479.036 116.454" stroke="#211951" stroke-width="2" stroke-linecap="round" stroke-linejoin="round"/>
<path d="M483.216 109.09L471.682 112.274" stroke="#211951" stroke-width="2" stroke-linecap="round" stroke-linejoin="round"/>
<path d="M163.045 50.9238L166.22 62.4583" stroke="#211951" stroke-width="2" stroke-linecap="round" stroke-linejoin="round"/>
<path d="M170.4 55.1035L158.865 58.2881" stroke="#211951" stroke-width="2" stroke-linecap="round" stroke-linejoin="round"/>
<path d="M464.296 274.201L461.121 285.736" stroke="#211951" stroke-width="2" stroke-linecap="round" stroke-linejoin="round"/>
<path d="M456.941 278.381L468.476 281.556" stroke="#211951" stroke-width="2" stroke-linecap="round" stroke-linejoin="round"/>
<path d="M60.7138 254.137L57.5293 265.681" stroke="#211951" stroke-width="2" stroke-linecap="round" stroke-linejoin="round"/>
<path d="M53.3594 258.316L64.8939 261.501" stroke="#211951" stroke-width="2" stroke-linecap="round" stroke-linejoin="round"/>
<path d="M485.963 263.14C489.79 263.14 492.892 260.038 492.892 256.211C492.892 252.385 489.79 249.283 485.963 249.283C482.137 249.283 479.035 252.385 479.035 256.211C479.035 260.038 482.137 263.14 485.963 263.14Z" stroke="#211951" stroke-width="2" stroke-linecap="round" stroke-linejoin="round"/>
<path d="M456.736 86.4664C459.013 86.4664 460.859 84.6205 460.859 82.3435C460.859 80.0666 459.013 78.2207 456.736 78.2207C454.459 78.2207 452.613 80.0666 452.613 82.3435C452.613 84.6205 454.459 86.4664 456.736 86.4664Z" stroke="#211951" stroke-width="2" stroke-linecap="round" stroke-linejoin="round"/>
<path d="M326.406 133.798C328.191 133.798 329.638 132.351 329.638 130.566C329.638 128.781 328.191 127.334 326.406 127.334C324.621 127.334 323.174 128.781 323.174 130.566C323.174 132.351 324.621 133.798 326.406 133.798Z" stroke="#211951" stroke-width="2" stroke-linecap="round" stroke-linejoin="round"/>
<path d="M45.5684 218.038C45.5684 220.189 47.3123 221.933 49.4637 221.933C51.6152 221.933 53.3591 220.189 53.3591 218.038C53.3591 215.886 51.6152 214.143 49.4637 214.143C47.3123 214.143 45.5684 215.886 45.5684 218.038Z" stroke="#211951" stroke-width="2" stroke-linecap="round" stroke-linejoin="round"/>
</g>
<defs>
<clipPath id="clip0_43_7554">
<rect width="515" height="352" fill="white"/>
</clipPath>
</defs>
</svg>
