<svg width="467" height="293" viewBox="0 0 467 293" fill="none" xmlns="http://www.w3.org/2000/svg">
<path d="M388.145 291.301C388.145 291.301 526.301 -20.0518 272.77 1.02362C164.181 10.0504 184.453 64.8132 136.494 116.052C105.408 149.265 45.6191 122.095 23.214 151.117C0.808873 180.14 27.1385 262.893 36.3746 291.302L388.145 291.301Z" fill="#F1F3FF"/>
<path d="M42.9539 290.583C42.9539 290.583 37.6358 269.369 24.3794 262.823C11.1229 256.276 -3.02601 265.239 0.566725 274.664C3.66476 282.791 16.4036 272.798 26.3152 276.728C36.2267 280.657 37.7891 290.583 37.7891 290.583H42.9539V290.583Z" fill="#40A87B"/>
<path d="M3.12891 269.012C3.12891 269.012 17.3566 260.904 27.9126 268.4C38.4686 275.896 41.8093 290.583 41.8093 290.583" stroke="#6ADB6A" stroke-width="3.0031" stroke-miterlimit="10"/>
<path d="M5.4248 265.22L8.73488 266.663" stroke="#6ADB6A" stroke-width="3.0031" stroke-miterlimit="10"/>
<path d="M10.2051 262.127L16.7984 265.219" stroke="#6ADB6A" stroke-width="3.0031" stroke-miterlimit="10"/>
<path d="M20.1113 262.127L23.5416 266.179" stroke="#6ADB6A" stroke-width="3.0031" stroke-miterlimit="10"/>
<path d="M26.6123 264.842L28.1543 268.573" stroke="#6ADB6A" stroke-width="3.0031" stroke-miterlimit="10"/>
<path d="M7.0791 274.175L12.1609 265.768" stroke="#6ADB6A" stroke-width="3.0031" stroke-miterlimit="10"/>
<path d="M16.0566 272.97L20.7173 265.485" stroke="#6ADB6A" stroke-width="3.0031" stroke-miterlimit="10"/>
<path d="M23.9736 271.824L30.9803 270.953" stroke="#6ADB6A" stroke-width="3.0031" stroke-miterlimit="10"/>
<path d="M32.1309 276.067L36.1471 277.386" stroke="#6ADB6A" stroke-width="3.0031" stroke-miterlimit="10"/>
<path d="M402.061 291.738C402.061 291.738 410.101 259.666 430.143 249.768C450.185 239.87 471.576 253.421 466.144 267.67C461.461 279.957 442.201 264.85 427.216 270.791C412.231 276.732 409.869 291.738 409.869 291.738L402.061 291.738Z" fill="#40A87B"/>
<path d="M462.271 259.126C462.271 259.126 440.76 246.867 424.801 258.201C408.842 269.534 403.791 291.738 403.791 291.738" stroke="#6ADB6A" stroke-width="4.5403" stroke-miterlimit="10"/>
<path d="M458.802 253.393L453.797 255.574" stroke="#6ADB6A" stroke-width="4.5403" stroke-miterlimit="10"/>
<path d="M451.572 248.718L441.604 253.393" stroke="#6ADB6A" stroke-width="4.5403" stroke-miterlimit="10"/>
<path d="M436.596 248.718L431.41 254.844" stroke="#6ADB6A" stroke-width="4.5403" stroke-miterlimit="10"/>
<path d="M426.767 252.823L424.436 258.465" stroke="#6ADB6A" stroke-width="4.5403" stroke-miterlimit="10"/>
<path d="M456.299 266.932L448.616 254.222" stroke="#6ADB6A" stroke-width="4.5403" stroke-miterlimit="10"/>
<path d="M442.725 265.111L435.679 253.795" stroke="#6ADB6A" stroke-width="4.5403" stroke-miterlimit="10"/>
<path d="M430.757 263.376L420.164 262.06" stroke="#6ADB6A" stroke-width="4.5403" stroke-miterlimit="10"/>
<path d="M418.424 269.794L412.352 271.788" stroke="#6ADB6A" stroke-width="4.5403" stroke-miterlimit="10"/>
<path d="M396.192 291.833C396.192 291.833 390.518 184.329 441.866 198.183C493.213 212.036 401.812 269.975 401.89 291.833H396.192Z" fill="#6ADB6A"/>
<path d="M398.267 291.833C398.267 291.833 400.059 235.666 436.662 207.894" stroke="#40A87B" stroke-width="4.5403" stroke-miterlimit="10"/>
<path d="M420.608 224.179L421.523 204.811" stroke="#40A87B" stroke-width="4.5403" stroke-miterlimit="10"/>
<path d="M449.325 216.153L424.585 219.378" stroke="#40A87B" stroke-width="4.5403" stroke-miterlimit="10"/>
<path d="M439.703 232.684L413.545 235.731" stroke="#40A87B" stroke-width="4.5403" stroke-miterlimit="10"/>
<path d="M426.624 249.065L406.42 251.921" stroke="#40A87B" stroke-width="4.5403" stroke-miterlimit="10"/>
<path d="M404.483 233.758L409.114 245.009" stroke="#40A87B" stroke-width="4.5403" stroke-miterlimit="10"/>
<path d="M412.093 215.499L416.041 231.339" stroke="#40A87B" stroke-width="4.5403" stroke-miterlimit="10"/>
<path d="M400.159 252.542L403.849 259.896" stroke="#40A87B" stroke-width="4.5403" stroke-miterlimit="10"/>
<path d="M416.04 264.251L401.562 268.816" stroke="#40A87B" stroke-width="4.5403" stroke-miterlimit="10"/>
<path d="M46.8336 290.644C46.8336 290.644 50.5861 219.538 16.6232 228.701C-17.3397 237.864 43.1162 276.187 43.0647 290.644H46.8336Z" fill="#6ADB6A"/>
<path d="M45.461 290.643C45.461 290.643 44.2751 253.493 20.0654 235.123" stroke="#40A87B" stroke-width="3.0031" stroke-miterlimit="10"/>
<path d="M30.685 245.896L30.0801 233.085" stroke="#40A87B" stroke-width="3.0031" stroke-miterlimit="10"/>
<path d="M11.6895 240.588L28.0533 242.721" stroke="#40A87B" stroke-width="3.0031" stroke-miterlimit="10"/>
<path d="M18.0537 251.521L35.3554 253.537" stroke="#40A87B" stroke-width="3.0031" stroke-miterlimit="10"/>
<path d="M26.7041 262.356L40.0677 264.245" stroke="#40A87B" stroke-width="3.0031" stroke-miterlimit="10"/>
<path d="M41.3499 252.232L38.2871 259.674" stroke="#40A87B" stroke-width="3.0031" stroke-miterlimit="10"/>
<path d="M36.3174 240.154L33.7061 250.632" stroke="#40A87B" stroke-width="3.0031" stroke-miterlimit="10"/>
<path d="M44.2088 264.655L41.7686 269.519" stroke="#40A87B" stroke-width="3.0031" stroke-miterlimit="10"/>
<path d="M33.7061 272.401L43.282 275.421" stroke="#40A87B" stroke-width="3.0031" stroke-miterlimit="10"/>
<path d="M344.248 63.3477H63.4395V268.773H344.248V63.3477Z" fill="#BBDBF3"/>
<path d="M341.645 65.9512H66.0479V266.166H341.645V65.9512Z" fill="white"/>
<path d="M341.643 65.9531H66.0449V84.822H341.643V65.9531Z" fill="#BBDBF3"/>
<path d="M324.222 80.814L335.077 69.959" stroke="white" stroke-width="8.7512" stroke-miterlimit="10" stroke-linecap="round" stroke-linejoin="round"/>
<path d="M335.077 80.814L324.222 69.959" stroke="white" stroke-width="8.7512" stroke-miterlimit="10" stroke-linecap="round" stroke-linejoin="round"/>
<path d="M203.845 136.514V138.369H201.989" stroke="#BBDBF3" stroke-width="3.1092" stroke-linecap="round" stroke-linejoin="round"/>
<path d="M198.237 138.369H80.0791" stroke="#BBDBF3" stroke-width="3.1092" stroke-linecap="round" stroke-linejoin="round" stroke-dasharray="18.86 18.86"/>
<path d="M78.2041 138.369H76.3486V136.514" stroke="#BBDBF3" stroke-width="3.1092" stroke-linecap="round" stroke-linejoin="round"/>
<path d="M76.3486 132.405V126.243" stroke="#BBDBF3" stroke-width="3.1092" stroke-linecap="round" stroke-linejoin="round" stroke-dasharray="20.65 20.65"/>
<path d="M76.3486 124.19V122.335H78.2041" stroke="#BBDBF3" stroke-width="3.1092" stroke-linecap="round" stroke-linejoin="round"/>
<path d="M81.9541 122.335H200.112" stroke="#BBDBF3" stroke-width="3.1092" stroke-linecap="round" stroke-linejoin="round" stroke-dasharray="18.86 18.86"/>
<path d="M201.989 122.335H203.845V124.19" stroke="#BBDBF3" stroke-width="3.1092" stroke-linecap="round" stroke-linejoin="round"/>
<path d="M203.845 128.298V134.459" stroke="#BBDBF3" stroke-width="3.1092" stroke-linecap="round" stroke-linejoin="round" stroke-dasharray="20.65 20.65"/>
<path d="M106.465 94.2705H76.3477V98.8065H106.465V94.2705Z" fill="#E5F0F8"/>
<path d="M146.641 94.2705H116.524V98.8065H146.641V94.2705Z" fill="#E5F0F8"/>
<path d="M186.818 94.2705H156.701V98.8065H186.818V94.2705Z" fill="#E5F0F8"/>
<path d="M226.995 94.2705H196.878V98.8065H226.995V94.2705Z" fill="#E5F0F8"/>
<path d="M267.172 94.2705H237.055V98.8065H267.172V94.2705Z" fill="#E5F0F8"/>
<path d="M331.324 90.7256H303.379V102.349H331.324V90.7256Z" fill="#BBDBF3"/>
<path d="M127.553 235.051H76.3506V266.164H127.553V235.051Z" fill="#E5F0F8"/>
<path d="M125.606 237.105H78.2969V266.164H125.606V237.105Z" fill="white"/>
<path d="M91.6711 257.555L98.6278 266.164H84.5762L91.6711 257.555Z" fill="#E5F0F8"/>
<path d="M122.417 266.164H102.856L114.325 246.813L122.417 266.164Z" fill="#E5F0F8"/>
<path d="M104.275 246.493C104.577 245.206 103.779 243.917 102.491 243.615C101.204 243.312 99.9151 244.111 99.6128 245.398C99.3105 246.686 100.109 247.975 101.396 248.277C102.684 248.579 103.973 247.781 104.275 246.493Z" fill="#E5F0F8"/>
<path d="M331.325 235.051H280.122V266.164H331.325V235.051Z" fill="#E5F0F8"/>
<path d="M329.378 237.105H282.068V266.164H329.378V237.105Z" fill="white"/>
<path d="M295.441 257.555L302.398 266.164H288.346L295.441 257.555Z" fill="#E5F0F8"/>
<path d="M326.188 266.164H306.627L318.095 246.813L326.188 266.164Z" fill="#E5F0F8"/>
<path d="M308.053 246.517C308.357 245.23 307.56 243.941 306.273 243.637C304.986 243.333 303.696 244.13 303.392 245.417C303.088 246.704 303.885 247.993 305.172 248.297C306.459 248.601 307.749 247.804 308.053 246.517Z" fill="#E5F0F8"/>
<path d="M263.397 235.051H212.2V266.164H263.397V235.051Z" fill="#E5F0F8"/>
<path d="M261.456 237.105H214.141V266.164H261.456V237.105Z" fill="white"/>
<path d="M227.521 257.555L234.477 266.164H220.426L227.521 257.555Z" fill="#E5F0F8"/>
<path d="M258.266 266.164H238.705L250.173 246.813L258.266 266.164Z" fill="#E5F0F8"/>
<path d="M239.489 247.625C240.424 246.69 240.424 245.174 239.489 244.239C238.554 243.303 237.037 243.303 236.102 244.239C235.167 245.174 235.167 246.69 236.102 247.625C237.037 248.56 238.554 248.56 239.489 247.625Z" fill="#E5F0F8"/>
<path d="M195.476 235.051H144.273V266.164H195.476V235.051Z" fill="#E5F0F8"/>
<path d="M193.529 237.105H146.22V266.164H193.529V237.105Z" fill="white"/>
<path d="M159.592 257.555L166.549 266.164H152.497L159.592 257.555Z" fill="#E5F0F8"/>
<path d="M190.339 266.164H170.778L182.247 246.813L190.339 266.164Z" fill="#E5F0F8"/>
<path d="M172.247 246.318C172.458 245.013 171.571 243.783 170.266 243.572C168.96 243.361 167.731 244.249 167.52 245.554C167.309 246.86 168.196 248.089 169.501 248.3C170.807 248.511 172.036 247.624 172.247 246.318Z" fill="#E5F0F8"/>
<path d="M136.597 152.976H76.3477V160.428H136.597V152.976Z" fill="#E5F0F8"/>
<path d="M169.484 152.976H141.751V160.428H169.484V152.976Z" fill="#E5F0F8"/>
<path d="M115.323 166.061H76.3477V173.513H115.323V166.061Z" fill="#E5F0F8"/>
<path d="M184.064 166.061H120.479V173.513H184.064V166.061Z" fill="#E5F0F8"/>
<path d="M86.7917 181.086H76.3486V184.378H86.7917V181.086Z" fill="#E5F0F8"/>
<path d="M129.508 181.086H88.2568V184.378H129.508V181.086Z" fill="#E5F0F8"/>
<path d="M166.874 181.086H131.146V184.378H166.874V181.086Z" fill="#E5F0F8"/>
<path d="M205.448 181.086H168.342V184.378H205.448V181.086Z" fill="#E5F0F8"/>
<path d="M98.0102 187.369H76.3486V190.661H98.0102V187.369Z" fill="#E5F0F8"/>
<path d="M138.398 187.369H99.6924V190.661H138.398V187.369Z" fill="#E5F0F8"/>
<path d="M205.448 187.369H140.078V190.661H205.448V187.369Z" fill="#E5F0F8"/>
<path d="M109.573 193.654H76.3486V196.946H109.573V193.654Z" fill="#E5F0F8"/>
<path d="M157.986 193.654H110.953V196.946H157.986V193.654Z" fill="#E5F0F8"/>
<path d="M205.45 193.654H159.8V196.946H205.45V193.654Z" fill="#E5F0F8"/>
<path d="M117.053 199.938H76.3486V203.23H117.053V199.938Z" fill="#E5F0F8"/>
<path d="M323.786 226.234H287.659V229.535H323.786V226.234Z" fill="#E5F0F8"/>
<path d="M255.863 226.234H219.736V229.535H255.863V226.234Z" fill="#E5F0F8"/>
<path d="M187.937 226.234H151.811V229.535H187.937V226.234Z" fill="#E5F0F8"/>
<path d="M120.012 226.234H83.8857V229.535H120.012V226.234Z" fill="#E5F0F8"/>
<path d="M210.388 112.791H82.8926V128.825H210.388V112.791Z" fill="white" stroke="#BBDBF3" stroke-width="4.926" stroke-miterlimit="10"/>
<path d="M210.388 112.791H178.419V128.825H210.388V112.791Z" fill="#BBDBF3" stroke="#BBDBF3" stroke-width="4.313" stroke-miterlimit="10"/>
<path d="M188.877 124.067C191.179 125.353 194.017 124.719 195.605 122.718L204.15 127.492L204.977 126.011L196.434 121.237C197.312 118.834 196.361 116.088 194.055 114.799C191.498 113.371 188.259 114.278 186.83 116.835C185.401 119.393 186.32 122.638 188.877 124.067ZM193.492 115.807C195.484 116.92 196.203 119.459 195.09 121.451C193.971 123.454 191.438 124.161 189.446 123.049C187.443 121.929 186.729 119.407 187.848 117.404C188.961 115.413 191.49 114.688 193.492 115.807Z" fill="white"/>
<path d="M331.324 122.336H213.832V215.953H331.324V122.336Z" stroke="#BBDBF3" stroke-width="3.1092" stroke-miterlimit="10" stroke-linecap="round" stroke-linejoin="round" stroke-dasharray="18.66 18.66"/>
<path d="M353.743 201.202V107.585L236.251 107.585V201.202L353.743 201.202Z" fill="#E5F0F8"/>
<path d="M349.277 112.307H240.717V196.482H349.277V112.307Z" fill="white"/>
<path d="M240.717 196.481L271.408 159.226L292.968 185.921L323.39 134.585L349.277 196.481H240.717Z" fill="#E5F0F8"/>
<path d="M294.997 138.055C298.032 138.055 300.492 135.595 300.492 132.561C300.492 129.526 298.032 127.066 294.997 127.066C291.963 127.066 289.503 129.526 289.503 132.561C289.503 135.595 291.963 138.055 294.997 138.055Z" fill="#E5F0F8"/>
<path d="M395.971 65.3635L394.245 63.3372L392.232 65.078L390.506 63.0519L388.493 64.7926L386.763 62.7661L384.75 64.507L383.019 62.4805L381.006 64.2211L379.281 62.195L377.263 63.9355L375.532 61.909L373.515 63.6493L373.586 62.7076L383.261 48.3896L388.441 40.7266L392.392 49.0866L399.781 64.7071L399.71 65.6487L397.984 63.6226L395.971 65.3635Z" fill="white"/>
<path d="M387.685 223.18L361.49 221.18L373.514 63.6495L375.532 61.9092L377.262 63.9357L379.28 62.1952L381.006 64.2213L383.019 62.4806L384.749 64.5072L386.762 62.7663L388.493 64.7928L390.506 63.0521L392.232 65.0782L394.245 63.3374L395.97 65.3637L397.984 63.6228L399.709 65.6489L387.685 223.18Z" fill="#BBDBF3"/>
<path d="M392.392 49.0866L383.261 48.3896L388.44 40.7266L392.392 49.0866Z" fill="#BBDBF3"/>
<path d="M360.061 224.904L361.226 209.651C361.292 208.776 362.056 208.121 362.931 208.187L388.232 210.119C389.107 210.185 389.762 210.949 389.696 211.824L388.531 227.077C388.464 227.952 387.701 228.607 386.826 228.54L361.525 226.609C360.65 226.542 359.994 225.779 360.061 224.904Z" fill="#ADD0FA"/>
<path d="M395.974 68.8936L385.59 204.944" stroke="#E5F0F8" stroke-width="2.0544" stroke-miterlimit="10"/>
<path d="M387.122 77.6816L378.612 189.17" stroke="#E5F0F8" stroke-width="2.0544" stroke-miterlimit="10"/>
<path d="M378.269 67.542L367.885 203.592" stroke="#E5F0F8" stroke-width="2.0544" stroke-miterlimit="10"/>
<path d="M334.905 55.0879L332.826 53.4266L331.18 55.5181L329.101 53.8568L327.455 55.9486L325.371 54.2879L323.726 56.3794L321.642 54.7187L319.996 56.8102L317.917 55.1489L316.267 57.2411L314.183 55.5804L312.532 57.6725L312.424 56.7343L319.201 40.8387L322.83 32.3311L328.299 39.7876L338.522 53.7194L338.63 54.6576L336.551 52.9963L334.905 55.0879Z" fill="#F9ECB8"/>
<path d="M356.761 211.602L330.664 214.617L312.532 57.6723L314.183 55.5801L316.267 57.2408L317.917 55.1487L319.996 56.81L321.642 54.7185L323.726 56.3792L325.371 54.2876L327.455 55.9483L329.101 53.8566L331.18 55.5179L332.826 53.4263L334.905 55.0876L336.551 52.9961L338.63 54.6574L356.761 211.602Z" fill="#F9E181"/>
<path d="M328.299 39.7876L319.201 40.8387L322.83 32.3311L328.299 39.7876Z" fill="#F9E181"/>
<path d="M329.969 218.544L328.214 203.348C328.113 202.476 328.738 201.688 329.61 201.587L354.817 198.675C355.689 198.574 356.477 199.199 356.578 200.071L358.334 215.267C358.434 216.139 357.809 216.927 356.938 217.028L331.73 219.94C330.858 220.041 330.07 219.416 329.969 218.544Z" fill="#ADD0FA"/>
<path d="M335.58 58.5527L351.239 194.097" stroke="#F2BB16" stroke-width="2.0544" stroke-miterlimit="10"/>
<path d="M328.559 68.8643L341.391 179.938" stroke="#F2BB16" stroke-width="2.0544" stroke-miterlimit="10"/>
<path d="M317.942 60.5898L333.601 196.134" stroke="#F2BB16" stroke-width="2.0544" stroke-miterlimit="10"/>
<path d="M343.412 49.0624L350.451 48.9941L350.335 36.9875L343.295 37.0558L343.412 49.0624Z" fill="#586773"/>
<path d="M365.189 62.4219L366.452 192.418L359.53 192.486L357.475 62.4971L365.189 62.4219Z" fill="#BBDBF3"/>
<path d="M359.529 192.487L352.898 192.551L349.876 62.5718L357.474 62.498L359.529 192.487Z" fill="#93ACBF"/>
<path d="M357.198 27.2621C362.089 27.2148 366.122 31.1699 366.17 36.0789L366.635 83.9384L357.814 84.0242L356.917 27.2792C357.011 27.2755 357.103 27.2631 357.198 27.2621Z" fill="white"/>
<path d="M356.917 27.2793L357.814 84.0242L348.846 84.1114L348.381 36.2518C348.357 33.8062 349.338 31.5616 350.924 29.9276C352.465 28.3733 354.583 27.3764 356.917 27.2793Z" fill="#BBDBF3"/>
<path d="M349.177 85.9716L366.34 85.805C366.886 85.7996 367.325 85.3522 367.32 84.8058L367.303 83.059C367.297 82.5126 366.85 82.0738 366.303 82.0792L349.141 82.2458C348.595 82.2512 348.156 82.6986 348.161 83.245L348.178 84.992C348.183 85.5382 348.631 85.977 349.177 85.9716Z" fill="#93ACBF"/>
<path d="M342.913 86.3756L346.562 86.3402C346.733 86.3386 346.87 86.1983 346.869 86.0271L346.825 81.5239C346.824 81.3527 346.683 81.2152 346.512 81.2168L342.863 81.2522C342.692 81.2538 342.554 81.394 342.556 81.5653L342.599 86.0684C342.601 86.2397 342.741 86.3772 342.913 86.3756Z" fill="#93ACBF"/>
<path d="M344.774 86.3579L343.201 86.3732C342.872 86.3764 342.599 86.1093 342.596 85.7797L342.099 34.5814C342.095 34.2518 342.363 33.9795 342.692 33.9763L344.265 33.961C344.595 33.9578 344.867 34.2249 344.87 34.5545L345.368 85.7528C345.371 86.0824 345.104 86.3545 344.774 86.3579Z" fill="#93ACBF"/>
<path d="M357.742 209.999L359.93 217.843L361.948 209.958L357.742 209.999Z" fill="#7FACE3"/>
<path d="M359.807 209.979L357.743 209.999L352.893 192.554L359.53 192.49L359.807 209.979Z" fill="#7FACE3"/>
<path d="M366.457 192.424L361.946 209.959L359.805 209.98L359.528 192.491L366.457 192.424Z" fill="#A6C9F1"/>
<path d="M352.366 192.555L366.985 192.413C367.362 192.41 367.668 192.098 367.664 191.72L367.658 191.049C367.654 190.671 367.342 190.365 366.965 190.369L352.346 190.511C351.969 190.515 351.663 190.827 351.667 191.204L351.674 191.876C351.677 192.253 351.989 192.559 352.366 192.555Z" fill="#89A5C7"/>
<path d="M381.694 289.68H318.408L316.274 139.39H383.827L381.694 289.68Z" fill="#088CFC"/>
<path d="M396.705 289.679H333.42L331.286 139.389H398.839L396.705 289.679Z" fill="#2EC6FC"/>
<mask id="mask0_43_10569" style="mask-type:luminance" maskUnits="userSpaceOnUse" x="331" y="139" width="68" height="151">
<path d="M396.706 289.676H333.421L331.287 139.386H398.84L396.706 289.676Z" fill="white"/>
</mask>
<g mask="url(#mask0_43_10569)">
<path d="M394.203 126.157C377.247 144.979 351.818 174.545 366.831 187.595C381.47 200.32 406.305 166.686 411.044 147.991" stroke="#088CFC" stroke-width="2.5635" stroke-miterlimit="10"/>
<path d="M369.248 133.836C369.248 133.836 341.908 159.16 349.205 191.72C359.929 239.568 338.837 262.298 327.774 267.749" stroke="#088CFC" stroke-width="2.5635" stroke-miterlimit="10"/>
<path d="M358.322 133.836C358.322 133.836 340.528 146.645 335.958 170.293C331.389 193.942 339.967 219.987 327.843 233.749" stroke="#088CFC" stroke-width="2.5635" stroke-miterlimit="10"/>
<path d="M405.384 191.72C404.725 191.552 373.741 193.483 365.537 226.708C357.333 259.933 350.511 292.082 332.483 302.288" stroke="#088CFC" stroke-width="2.5635" stroke-miterlimit="10"/>
<path d="M405.384 214.691C403.823 214.771 379.587 219.195 372.748 258.701C365.909 298.207 390.861 281.967 392.716 259.851C394.57 237.735 413.082 229.396 413.082 229.396" stroke="#088CFC" stroke-width="2.5635" stroke-miterlimit="10"/>
</g>
<path d="M345.33 151.333L344.835 154.219C344.679 155.13 343.806 155.748 342.895 155.591C341.985 155.435 341.367 154.562 341.523 153.652L342.018 150.765L341.807 151.996L342.903 145.599C343.216 143.778 344.961 142.543 346.783 142.855C348.604 143.167 349.839 144.913 349.527 146.734L348.765 151.178L349.502 146.876L347.517 158.461C347.036 161.263 344.351 163.163 341.549 162.682C338.747 162.202 336.847 159.517 337.327 156.714L340.616 137.524C341.097 134.722 343.782 132.822 346.584 133.303C349.386 133.783 351.286 136.469 350.806 139.271" stroke="#FFF9F5" stroke-width="5.1061" stroke-miterlimit="10"/>
<path d="M201.041 25.3496C201.041 25.3496 201.289 25.3985 201.772 25.4614C204.463 25.8308 214.272 26.8078 225.114 23.2567C229.782 21.7253 234.636 19.3594 239.2 15.7422C253.707 4.23501 290.384 2.25087 300.829 1.91233C302.344 1.86678 303.568 3.12986 303.475 4.6386L302.64 18.1968C302.561 19.5255 303.502 20.7003 304.818 20.8954L315.167 22.4628C316.512 22.6745 317.468 23.8844 317.339 25.2464L316.141 38.3027C316.012 39.6646 314.842 40.692 313.486 40.6399C292.365 39.8733 275.29 38.5496 256.13 51.613C244.301 59.6801 234.035 62.4951 227.983 63.4634C224.318 64.0527 222.205 63.9694 222.205 63.9694L201.69 26.5314L201.041 25.3496Z" fill="#93ACBF"/>
<path d="M224.155 60.8498C223.113 60.9594 222.075 61.0481 220.975 61.0823C220.348 61.1088 219.719 60.7388 219.704 60.2956L219.926 53.5444C219.911 53.1006 220.203 52.7511 220.71 52.7312C221.528 52.7068 222.404 52.6332 223.269 52.5415C223.78 52.4981 224.248 52.7814 224.305 53.2237L225.16 59.9243C225.216 60.3585 224.775 60.7945 224.155 60.8498Z" fill="#BBDBF3"/>
<path d="M233.024 59.2012C232.034 59.4544 231.044 59.7053 230.037 59.902C229.442 60.0269 228.893 59.7757 228.811 59.3415L227.534 52.7082C227.452 52.2739 227.804 51.8334 228.32 51.7248C229.197 51.5557 230.066 51.3331 230.935 51.1109C231.449 50.9818 231.962 51.2241 232.079 51.6438L233.871 58.1567C233.992 58.5886 233.611 59.0532 233.024 59.2012Z" fill="#BBDBF3"/>
<path d="M241.508 56.429C240.567 56.8097 239.62 57.1749 238.652 57.491C238.082 57.6871 237.508 57.5053 237.37 57.0854L235.246 50.6731C235.108 50.2532 235.404 49.772 235.908 49.5992C236.766 49.3213 237.608 48.9951 238.445 48.6551C238.942 48.459 239.481 48.6317 239.65 49.04L242.215 55.2888C242.384 55.6972 242.068 56.208 241.508 56.429Z" fill="#BBDBF3"/>
<path d="M249.578 52.7091L246.873 54.0878C246.339 54.3613 245.734 54.2176 245.551 53.8226L242.693 47.7023C242.504 47.2955 242.757 46.8122 243.233 46.5669L245.656 45.3311C246.137 45.0972 246.682 45.1839 246.897 45.572L250.146 51.4937C250.359 51.8798 250.117 52.4446 249.578 52.7091Z" fill="#BBDBF3"/>
<path d="M257.167 48.1415L254.624 49.7822C254.121 50.1054 253.529 50.0624 253.299 49.6823L249.789 43.9107C249.561 43.5346 249.741 42.9899 250.192 42.6989L252.486 41.2204C252.935 40.9318 253.586 40.9402 253.817 41.3167L257.567 46.9353C257.799 47.3125 257.673 47.8147 257.167 48.1415Z" fill="#BBDBF3"/>
<path d="M263.966 44.047L261.614 45.3612C261.151 45.62 260.589 45.5191 260.362 45.1442L256.891 39.3497C256.66 38.9678 256.904 38.4236 257.432 38.1276L260.106 36.6374C260.642 36.3557 261.253 36.4766 261.447 36.8685L264.47 42.9094C264.668 43.3094 264.435 43.8007 263.966 44.047Z" fill="#BBDBF3"/>
<path d="M271.15 40.9201C270.298 41.1843 269.49 41.5719 268.656 41.8896C268.168 42.0865 267.629 41.917 267.452 41.5119L264.777 35.3096C264.6 34.9044 264.914 34.3903 265.479 34.1621C266.436 33.7935 267.369 33.3579 268.348 33.0486C268.926 32.8553 269.507 33.039 269.647 33.4584L271.802 39.8603C271.942 40.2796 271.65 40.7546 271.15 40.9201Z" fill="#BBDBF3"/>
<path d="M278.702 38.8214C277.823 39.0048 276.939 39.1699 276.083 39.4237C275.573 39.5606 275.064 39.3257 274.947 38.8998L273.165 32.3841C273.047 31.9582 273.427 31.4852 274.015 31.3283C275.001 31.0412 276.003 30.8491 277.002 30.6406C277.595 30.5173 278.142 30.7699 278.224 31.2043L279.493 37.839C279.575 38.2734 279.221 38.7136 278.702 38.8214Z" fill="#BBDBF3"/>
<path d="M286.55 37.6663L283.836 37.9568C283.301 38.0126 282.829 37.7433 282.765 37.2999L281.827 30.6104C281.765 30.1789 282.197 29.7304 282.791 29.6669L285.801 29.3447C286.396 29.2759 286.901 29.622 286.935 30.0562L287.464 36.7903C287.499 37.2371 287.083 37.6031 286.55 37.6663Z" fill="#BBDBF3"/>
<path d="M294.632 37.288C293.695 37.2815 292.775 37.327 291.849 37.3539C291.303 37.3716 290.844 37.0279 290.824 36.5865L290.533 29.8378C290.513 29.3962 290.974 29.0227 291.562 29.0034C292.554 28.9741 293.551 28.927 294.533 28.9332C295.117 28.9298 295.592 29.2854 295.593 29.7274L295.627 36.4822C295.629 36.9244 295.183 37.2851 294.632 37.288Z" fill="#BBDBF3"/>
<path d="M302.882 37.3848L300.044 37.315C299.488 37.3068 299.042 36.9418 299.048 36.5L299.144 29.7458C299.15 29.3038 299.624 28.9525 300.202 28.9611L303.119 29.0329C303.694 29.0492 304.148 29.4208 304.134 29.8624L303.922 36.614C303.908 37.0556 303.442 37.4009 302.882 37.3848Z" fill="#BBDBF3"/>
<path d="M311.261 37.6779L308.381 37.5701C307.817 37.5498 307.372 37.1753 307.388 36.7337L307.635 29.9832C307.651 29.5416 308.126 29.2001 308.696 29.2206L311.567 29.3282C312.134 29.3495 312.58 29.7246 312.564 30.1664L312.319 36.9169C312.303 37.3583 311.829 37.6992 311.261 37.6779Z" fill="#BBDBF3"/>
<path d="M208.065 39.1906C206.995 39.2059 205.931 39.1977 204.805 39.1174C204.483 39.1005 204.16 38.976 203.948 38.8101C203.747 38.6468 203.531 38.4122 203.583 38.1974L204.553 31.5124C204.606 31.2948 204.618 31.0983 204.791 30.9686C204.952 30.8375 205.143 30.7707 205.392 30.7826C206.194 30.8411 207.065 30.8493 207.927 30.8363C208.434 30.8413 208.873 31.1588 208.892 31.6061L209.17 38.3554C209.188 38.7912 208.702 39.1934 208.065 39.1906Z" fill="#BBDBF3"/>
<path d="M217.212 38.1915C216.187 38.3795 215.166 38.5818 214.125 38.7039C213.511 38.7874 212.972 38.4982 212.922 38.059L212.138 31.3498C212.088 30.9106 212.469 30.4966 212.987 30.4264C213.867 30.3264 214.742 30.1487 215.619 29.9894C216.137 29.9027 216.63 30.1603 216.723 30.5863L218.138 37.1916C218.234 37.6288 217.822 38.0869 217.212 38.1915Z" fill="#BBDBF3"/>
<path d="M225.978 35.778C225.001 36.1154 224.033 36.4796 223.03 36.7477C222.439 36.9194 221.865 36.7127 221.747 36.2869L219.923 29.7829C219.805 29.357 220.121 28.8917 220.629 28.7448C221.496 28.5174 222.337 28.1952 223.186 27.9032C223.687 27.7283 224.22 27.9224 224.376 28.336L226.744 34.6624C226.9 35.0755 226.557 35.5753 225.978 35.778Z" fill="#BBDBF3"/>
<path d="M234.28 32.1904L231.498 33.5336C230.952 33.8061 230.354 33.6752 230.174 33.2643L227.447 27.0839C227.272 26.6853 227.524 26.1856 228.001 25.9454L230.441 24.7692C230.911 24.515 231.457 24.6139 231.668 25.0039L234.866 30.9539C235.075 31.3414 234.817 31.9016 234.28 32.1904Z" fill="#BBDBF3"/>
<path d="M241.975 27.58L239.412 29.2222C238.9 29.549 238.299 29.5069 238.071 29.1286L234.564 23.3552C234.335 22.9768 234.516 22.4356 234.968 22.1466L237.288 20.6629C237.788 20.3369 238.391 20.3717 238.634 20.7407L242.364 26.3722C242.607 26.7412 242.433 27.2821 241.975 27.58Z" fill="#BBDBF3"/>
<path d="M248.874 23.3361C248.065 23.7717 247.282 24.2646 246.485 24.7251C246.016 25.0016 245.448 24.9202 245.216 24.5437L241.692 18.7808C241.461 18.4043 241.692 17.8519 242.208 17.5476C243.083 17.0409 243.939 16.5053 244.831 16.0241C245.362 15.7426 245.962 15.8308 246.17 16.2204L249.366 22.1717C249.574 22.5611 249.354 23.0829 248.874 23.3361Z" fill="#BBDBF3"/>
<path d="M256.105 19.8168C255.252 20.1456 254.43 20.5526 253.6 20.9403C253.111 21.1702 252.557 21.0342 252.363 20.6367L249.421 14.5562C249.228 14.1588 249.513 13.6289 250.058 13.3727C250.979 12.9425 251.892 12.4949 252.842 12.1248C253.4 11.8946 253.988 12.0404 254.154 12.45L256.709 18.7031C256.875 19.1129 256.605 19.6116 256.105 19.8168Z" fill="#BBDBF3"/>
<path d="M263.646 17.1006C262.775 17.3749 261.888 17.6025 261.034 17.9303C260.526 18.1115 259.993 17.9208 259.844 17.5048L257.577 11.1417C257.428 10.7257 257.768 10.2243 258.338 10.022C259.291 9.66017 260.278 9.40059 261.251 9.09586C261.829 8.92102 262.395 9.12471 262.515 9.54998L264.364 16.047C264.484 16.4725 264.162 16.9443 263.646 17.1006Z" fill="#BBDBF3"/>
<path d="M271.448 15.206L268.753 15.7566C268.22 15.8576 267.719 15.6392 267.614 15.2024L266.059 8.6288C265.958 8.20631 266.345 7.7152 266.936 7.60122L269.921 6.99156C270.51 6.86684 271.053 7.16401 271.127 7.59306L272.281 14.2486C272.358 14.6904 271.978 15.0926 271.448 15.206Z" fill="#BBDBF3"/>
<path d="M279.465 14.1145C278.537 14.1746 277.625 14.3089 276.707 14.4125C276.165 14.4771 275.677 14.1742 275.618 13.7364L274.729 7.04026C274.67 6.60226 275.103 6.18931 275.697 6.1183C276.699 6.00453 277.701 5.86071 278.702 5.79408C279.295 5.74495 279.805 6.06241 279.84 6.503L280.391 13.2353C280.426 13.6759 280.012 14.0698 279.465 14.1145Z" fill="#BBDBF3"/>
<path d="M287.632 13.6813C286.696 13.7054 285.755 13.7036 284.826 13.7631C284.276 13.7905 283.811 13.4545 283.788 13.0134L283.448 6.26689C283.425 5.82551 283.886 5.444 284.478 5.41476C285.479 5.3525 286.472 5.35271 287.468 5.32745C288.057 5.31551 288.539 5.6642 288.544 6.10618L288.626 12.8606C288.631 13.3026 288.186 13.67 287.632 13.6813Z" fill="#BBDBF3"/>
<path d="M295.899 13.7416L293.062 13.6658C292.506 13.663 292.057 13.3026 292.062 12.8606L292.13 6.106C292.134 5.66402 292.613 5.30836 293.2 5.31154L296.159 5.39031C296.743 5.40603 297.203 5.7768 297.187 6.21858L296.942 12.969C296.925 13.4106 296.459 13.7565 295.899 13.7416Z" fill="#BBDBF3"/>
<path d="M201.772 25.4606C204.463 25.83 214.272 26.807 225.114 23.2559L227.983 63.4625C224.318 64.0519 222.205 63.9686 222.205 63.9686L201.69 26.5305L201.772 25.4606Z" fill="#586773"/>
<path d="M185.79 25.4244C189.822 26.0114 195.194 26.0355 201.039 25.3479C206.884 24.6604 212.103 23.3906 215.889 21.884L222.598 21.0949L222.083 16.7149C221.688 13.3605 211.627 11.7871 199.61 13.2005C187.593 14.614 178.171 18.4793 178.566 21.8337L179.081 26.2137L185.79 25.4244Z" fill="#BBDBF3"/>
<path d="M201.562 29.7387C213.58 28.3255 223.002 24.4603 222.608 21.1057C222.213 17.751 212.151 16.1772 200.134 17.5905C188.116 19.0037 178.694 22.8689 179.088 26.2236C179.483 29.5782 189.545 31.152 201.562 29.7387Z" fill="#E5F0F8"/>
<path d="M188.415 23.4412C191.407 22.3963 195.694 21.3812 200.516 20.8155C203.19 20.5042 205.735 20.3606 208.016 20.3586C210.18 20.3445 212.094 20.4531 213.635 20.66C216.102 20.9637 217.632 21.4914 217.704 22.1079L223.069 67.7645L223.387 70.4619L189.763 74.4139L184.079 26.0702C183.998 25.3877 185.655 24.4025 188.415 23.4412Z" fill="#586773"/>
<path d="M188.415 23.4412C191.406 22.3963 195.693 21.3812 200.515 20.8155C203.19 20.5042 205.735 20.3606 208.015 20.3586C210.18 20.3445 212.094 20.4531 213.634 20.66C216.102 20.9637 217.632 21.4914 217.704 22.1079L223.069 67.7645L194.026 71.1786L188.415 23.4412Z" fill="#93ACBF"/>
<path d="M228.343 69.8803L227.784 65.1285C227.569 63.3061 217.654 62.9747 205.637 64.3881C193.62 65.8016 184.052 68.4248 184.266 70.2473L184.825 74.999L228.343 69.8803Z" fill="#BBDBF3"/>
<path d="M206.979 75.7526C218.997 74.3393 228.565 71.7163 228.351 69.8938C228.137 68.0714 218.221 67.7397 206.203 69.153C194.186 70.5662 184.617 73.1893 184.831 75.0117C185.046 76.8342 194.962 77.1659 206.979 75.7526Z" fill="#E5F0F8"/>
<path d="M208.772 22.5274L206.818 22.5407C206.528 22.5427 206.304 22.7965 206.337 23.0847L206.954 28.328C206.983 28.5746 207.193 28.7598 207.441 28.7582L209.395 28.7451C209.686 28.7431 209.91 28.4893 209.876 28.2011L209.259 22.9578C209.23 22.7111 209.02 22.5258 208.772 22.5274Z" fill="#BBDBF3"/>
<path d="M215.972 23.1996L213.976 22.8521C213.655 22.7962 213.371 23.0654 213.409 23.389L214.021 28.5963C214.046 28.8103 214.209 28.9824 214.421 29.0194L216.418 29.3669C216.739 29.4227 217.023 29.1536 216.985 28.83L216.373 23.6227C216.348 23.4087 216.185 23.2366 215.972 23.1996Z" fill="#BBDBF3"/>
<path d="M192.862 24.3986L194.765 23.958C195.048 23.8926 195.325 24.0875 195.359 24.3757L195.976 29.619C196.005 29.8657 195.844 30.0946 195.602 30.1505L193.698 30.5911C193.415 30.6565 193.138 30.4618 193.105 30.1734L192.488 24.9301C192.459 24.6834 192.62 24.4547 192.862 24.3986Z" fill="#BBDBF3"/>
<path d="M186.014 26.7231L187.876 25.9219C188.175 25.793 188.514 25.9888 188.552 26.3124L189.164 31.5197C189.19 31.7337 189.071 31.9388 188.873 32.0239L187.012 32.8251C186.712 32.954 186.374 32.7583 186.336 32.4347L185.723 27.2274C185.698 27.0135 185.816 26.8083 186.014 26.7231Z" fill="#BBDBF3"/>
<path d="M199.783 22.9813L201.712 22.7544C201.979 22.7229 202.221 22.9141 202.252 23.1812L202.87 28.4305C202.901 28.6976 202.71 28.9397 202.443 28.9711L200.514 29.1981C200.247 29.2295 200.005 29.0383 199.973 28.7712L199.356 23.522C199.324 23.2548 199.516 23.0127 199.783 22.9813Z" fill="#BBDBF3"/>
<path d="M196.73 57.8293L198.834 57.4629C199.056 57.4243 199.264 57.5797 199.291 57.8031L199.93 63.2405C199.954 63.447 199.813 63.6365 199.608 63.6721L197.504 64.0387C197.282 64.0773 197.074 63.922 197.048 63.6986L196.408 58.2612C196.384 58.0545 196.525 57.8649 196.73 57.8293Z" fill="#BBDBF3"/>
<path d="M189.875 59.6623L191.956 59.0978C192.187 59.0351 192.42 59.1925 192.448 59.4302L193.087 64.8603C193.109 65.053 192.987 65.2332 192.8 65.2841L190.719 65.8486C190.488 65.9113 190.255 65.754 190.227 65.5163L189.589 60.0862C189.566 59.8934 189.688 59.7132 189.875 59.6623Z" fill="#BBDBF3"/>
<path d="M212.768 55.9432L210.636 56.075C210.412 56.089 210.245 56.2885 210.271 56.5118L210.911 61.9493C210.935 62.1557 211.116 62.3073 211.324 62.2946L213.456 62.1627C213.681 62.1488 213.848 61.9493 213.821 61.7259L213.182 56.2885C213.157 56.0818 212.976 55.9302 212.768 55.9432Z" fill="#BBDBF3"/>
<path d="M219.861 56.1358L217.706 56.0695C217.466 56.0622 217.276 56.2692 217.305 56.5069L217.943 61.937C217.966 62.1297 218.126 62.2767 218.32 62.2829L220.476 62.3491C220.715 62.3565 220.905 62.1494 220.877 61.9117L220.238 56.4817C220.215 56.2887 220.055 56.1417 219.861 56.1358Z" fill="#BBDBF3"/>
<path d="M203.661 56.7656L205.779 56.5164C205.994 56.4911 206.188 56.6449 206.214 56.8597L206.853 62.2983C206.879 62.5132 206.725 62.7079 206.51 62.7332L204.392 62.9824C204.177 63.0077 203.982 62.8539 203.957 62.6391L203.317 57.2004C203.292 56.9856 203.446 56.7909 203.661 56.7656Z" fill="#BBDBF3"/>
<path d="M176.658 289.678H44.7178C41.8302 289.678 39.4893 287.337 39.4893 284.45V193.888H181.887V284.45C181.887 287.338 179.546 289.678 176.658 289.678Z" fill="#586773"/>
<path d="M39.4902 200.665H181.888L39.4902 214.833V200.665Z" fill="#322A28"/>
<path d="M183.347 181.567H38.0293V200.665H183.347V181.567Z" fill="#586773"/>
<path d="M56.4918 181.567L46.0802 200.665H38.0293V197.581L46.7486 181.567H56.4918Z" fill="white"/>
<path d="M75.2345 181.567L64.8231 200.665H55.0908L65.502 181.567H75.2345Z" fill="white"/>
<path d="M93.9779 181.567L83.5771 200.665H73.834L84.2454 181.567H93.9779Z" fill="white"/>
<path d="M112.73 181.567L102.318 200.665H92.5859L102.986 181.567H112.73Z" fill="white"/>
<path d="M131.473 181.567L121.061 200.665H111.329L121.74 181.567H131.473Z" fill="white"/>
<path d="M150.216 181.567L139.815 200.665H130.072L140.483 181.567H150.216Z" fill="white"/>
<path d="M168.97 181.567L158.558 200.665H148.826L159.227 181.567H168.97Z" fill="white"/>
<path d="M183.346 181.567V189.574L177.3 200.665H167.567L177.979 181.567H183.346Z" fill="white"/>
<path d="M162.998 105.014L30.25 164.114L38.017 181.56L170.765 122.459L162.998 105.014Z" fill="#586773"/>
<path d="M47.1283 156.613L45.3847 178.294L38.0297 181.569L36.7754 178.752L38.2276 160.576L47.1283 156.613Z" fill="white"/>
<path d="M64.2488 148.989L62.5054 170.671L53.6143 174.629L55.3579 152.948L64.2488 148.989Z" fill="white"/>
<path d="M81.3731 141.367L79.6392 163.044L70.7383 167.007L72.4819 145.326L81.3731 141.367Z" fill="white"/>
<path d="M98.5037 133.739L96.7603 155.42L87.8691 159.379L89.6028 137.702L98.5037 133.739Z" fill="white"/>
<path d="M115.626 126.116L113.882 147.797L104.991 151.756L106.735 130.075L115.626 126.116Z" fill="white"/>
<path d="M132.75 118.492L131.016 140.169L122.115 144.132L123.859 122.451L132.75 118.492Z" fill="white"/>
<path d="M149.881 110.865L148.137 132.546L139.246 136.505L140.98 114.828L149.881 110.865Z" fill="white"/>
<path d="M163.015 105.017L166.272 112.331L165.259 124.922L156.368 128.881L158.112 107.2L163.015 105.017Z" fill="white"/>
<path d="M46.3867 225.46H174.989" stroke="white" stroke-width="5.6103" stroke-miterlimit="10"/>
<path d="M46.3867 251.333H174.989" stroke="white" stroke-width="5.6103" stroke-miterlimit="10"/>
<path d="M46.3867 268.582H174.989" stroke="white" stroke-width="5.6103" stroke-miterlimit="10"/>
<path d="M110.688 251.333V284.444" stroke="white" stroke-width="5.6103" stroke-miterlimit="10"/>
<path d="M46.5234 259.956H110.689" stroke="white" stroke-width="5.6103" stroke-miterlimit="10"/>
<path d="M78.5381 225.46V251.333" stroke="white" stroke-width="5.6103" stroke-miterlimit="10"/>
<path d="M110.688 225.46V251.333" stroke="white" stroke-width="5.6103" stroke-miterlimit="10"/>
<path d="M142.838 225.46V251.333" stroke="white" stroke-width="5.6103" stroke-miterlimit="10"/>
<path d="M140.689 69.3335C140.689 69.3335 142.68 67.7915 142.454 67.1067C142.229 66.4216 141.862 66.8423 141.862 66.8423C141.862 66.8423 142.741 65.5042 142.403 64.9668C142.065 64.4295 141.336 65.1114 141.336 65.1114C141.336 65.1114 141.544 64.1027 140.918 63.7898C140.293 63.4769 138.194 65.0068 137.128 65.5488C136.062 66.0908 133.477 67.1566 133.107 66.9682C132.737 66.7799 135.757 64.6215 135.45 63.9211C135.143 63.2205 130.295 65.3879 128.628 66.3824C127.911 66.8101 126.995 67.2153 126.184 67.5387L127.839 73.8251C128.919 73.696 134.062 73.068 136.171 72.5694C138.534 72.0108 141.373 70.2747 141.273 69.7317C141.173 69.1885 140.689 69.3335 140.689 69.3335Z" fill="#FDAE97"/>
<path d="M104.158 82.3926C101.282 83.0182 98.3491 80.8639 97.6404 77.6056C96.9317 74.3472 98.705 71.1694 101.581 70.5439L126.718 66.123L128.813 74.386L104.158 82.3926Z" fill="#F74242"/>
<path d="M71.8731 139.613H94.1543V106.665H71.8731V139.613Z" fill="#E5F0F8"/>
<path d="M106.512 81.6468C103.501 83.3551 99.6399 82.2889 97.9317 79.2776L86.5756 59.259C84.8674 56.2477 85.9335 52.3864 88.9448 50.6782C91.9562 48.9699 95.8174 50.0361 97.5257 53.0474L108.882 73.066C110.59 76.0773 109.524 79.9386 106.512 81.6468Z" fill="#F74242"/>
<path d="M94.1541 88.6885L100.776 126.578C101.114 127.53 101.307 128.551 101.307 129.619C101.307 134.647 97.2311 138.723 92.2032 138.723C87.1753 138.723 83.0994 134.647 83.0994 129.619L72.4424 88.6885H94.1541Z" fill="#0775EF"/>
<path d="M64.086 88.337L85.1119 85.0068L83.4458 115.244L80.8752 121.484L79.8343 130.446L61.6553 130.01L64.086 88.337Z" fill="#088CFF"/>
<path d="M101.207 130.9C101.266 130.48 101.307 130.054 101.307 129.618C101.307 124.591 97.2312 120.515 92.2034 120.515C87.1755 120.515 83.0996 124.591 83.0996 129.618L83.6381 172.631L98.9862 172.622L101.207 130.9Z" fill="#0775EF"/>
<path d="M79.7327 129.165C78.9462 124.199 74.2828 120.811 69.3169 121.598C64.3509 122.384 61.9536 124.887 61.6547 130.011C60.9609 141.907 59.9707 172.443 59.9707 172.443L75.8957 172.402L79.834 130.447C79.8268 130.023 79.8009 129.596 79.7327 129.165Z" fill="#088CFF"/>
<path d="M84.5263 45.8067L94.1538 50.1417V89.23H64.0333L61.6406 50.5032L74.6782 45.0918L84.5263 45.8067Z" fill="white"/>
<path d="M84.5238 39.6984V45.8059C84.5238 45.8059 84.1588 47.1247 81.054 47.1375C77.9554 47.1438 74.6777 45.0889 74.6777 45.0889L75.6381 31.7344L84.5238 39.6984Z" fill="#FDAE97"/>
<path d="M84.5257 44.9689L78.1826 38.3841L84.5257 38.3008V44.9689Z" fill="#E89780"/>
<path d="M86.6503 27.4126C86.6503 27.4126 86.9461 31.1462 87.156 33.7947L87.3294 35.9837C87.4665 37.7132 87.1846 40.3172 85.285 41.0649C83.392 41.812 80.6538 41.2135 78.6298 39.338C76.6055 37.4561 71.7461 28.6447 77.2287 24.8133C82.7179 20.981 86.4456 26.5299 86.6503 27.4126Z" fill="#FDAE97"/>
<path d="M77.7991 24.4491C77.7991 24.4491 84.5028 20.6881 86.2743 22.6692C88.0458 24.6504 85.431 25.598 85.431 25.598C85.431 25.598 88.7184 24.9434 88.7667 27.1909C88.8148 29.4384 80.2692 27.0413 80.2692 27.0413C80.2692 27.0413 83.1216 28.0709 81.6081 29.1866C80.0946 30.3022 78.1719 29.1557 78.1719 29.1557C78.1719 29.1557 76.6646 30.1835 77.2513 34.3093C77.8381 38.4349 75.0584 39.2789 75.0584 39.2789C75.0584 39.2789 75.2346 33.2416 73.8889 31.6596C72.5435 30.0777 73.8305 23.7074 77.7991 24.4491Z" fill="#322A28"/>
<path d="M77.7182 35.24C78.4773 36.2439 78.7166 36.9739 77.9283 37.5696C77.1402 38.1656 75.7464 38.1075 74.9876 37.1036C74.2287 36.0997 74.2524 34.8028 75.0405 34.2068C75.8286 33.6109 76.9594 34.2361 77.7182 35.24Z" fill="#FDAE97"/>
<path d="M75.5449 35.3307C75.5449 35.3307 76.3877 35.136 77.0582 36.1825C77.0582 36.1825 76.5096 36.1015 75.8644 36.2772" stroke="#E89780" stroke-width="0.7712" stroke-miterlimit="10"/>
<path d="M82.0924 32.6923C82.1243 33.0935 82.3604 33.402 82.6199 33.3815C82.8795 33.3611 83.0641 33.0191 83.0323 32.6179C83.0005 32.2167 82.7644 31.9082 82.5048 31.9287C82.2452 31.9492 82.0606 32.2911 82.0924 32.6923Z" fill="#322A28"/>
<path d="M82.5264 37.2119C82.5264 37.2119 83.332 38.5158 85.0722 38.0571" stroke="#332B27" stroke-width="0.9656" stroke-miterlimit="10"/>
<path d="M83.8809 32.7979L84.9691 35.2894C85.0793 35.5418 85.0035 35.837 84.7851 36.0049L84.1007 36.5316" stroke="#332B27" stroke-width="0.9656" stroke-miterlimit="10"/>
<path d="M81.0283 31.5325C81.0283 31.5325 81.9632 30.7619 82.9412 31.1261" stroke="#332B27" stroke-width="0.9656" stroke-miterlimit="10"/>
<path d="M86.9454 32.3084C86.9772 32.7096 86.7926 33.0515 86.533 33.072C86.2735 33.0925 86.0373 32.784 86.0055 32.3828C85.9737 31.9816 86.1583 31.6396 86.4179 31.6191C86.6774 31.5986 86.9137 31.9072 86.9454 32.3084Z" fill="#322A28"/>
<path d="M87.054 31.0144C87.054 31.0144 86.3166 30.4163 85.4082 30.9299" stroke="#332B27" stroke-width="0.9656" stroke-miterlimit="10"/>
<path d="M56.6732 84.6658C53.3211 83.8002 51.2869 80.3493 52.1525 76.9974L57.9072 54.7132C58.7729 51.3612 62.2238 49.3269 65.5757 50.1926C68.9277 51.0582 70.962 54.5092 70.0963 57.861L64.3416 80.1452C63.4759 83.4972 60.025 85.5315 56.6732 84.6658Z" fill="#F74242"/>
<path d="M73.3831 45.6289C73.3831 45.6289 79.1545 58.2373 79.6007 70.1274C80.0469 82.0175 79.6007 103.611 79.6007 103.611H61.6406V50.5028L73.3831 45.6289Z" fill="#F74242"/>
<path d="M82.8201 35.2691C82.7258 35.6474 82.0395 35.8022 81.2872 35.6148C80.535 35.4274 80.0015 34.9688 80.0958 34.5904C80.19 34.2121 80.8763 34.0571 81.6286 34.2447C82.3809 34.4323 82.9143 34.8908 82.8201 35.2691Z" fill="#E89780"/>
<path d="M85.2686 46.1416C85.2686 46.1416 87.8828 69.2123 87.7711 76.2872C87.6591 83.362 88.3308 101.833 88.3308 101.833H97.0218C97.0218 101.833 97.3488 90.8544 97.0218 83.9753C96.6948 77.0961 94.1543 50.1425 94.1543 50.1425L85.2686 46.1416Z" fill="#F74242"/>
<path d="M87.1547 33.7949L87.2675 35.2181C86.6732 35.3359 86.1685 35.2088 86.0607 34.9027C85.9422 34.5397 86.4295 34.045 87.1547 33.7949Z" fill="#E89780"/>
<path d="M84.8398 176.367L84.9882 172.631L97.4454 172.624L97.3424 176.367H84.8398Z" fill="#FDAE97"/>
<path d="M97.3566 175.24L84.9873 172.631L97.4445 172.624L97.3566 175.24Z" fill="#E89780"/>
<path d="M61.1719 176.366V172.442H73.0582L72.658 176.366H61.1719Z" fill="#FDAE97"/>
<path d="M72.812 174.856L61.1719 172.442H73.0582L72.812 174.856Z" fill="#E89780"/>
<path d="M95.4229 62.4014L97.0219 77.8542" stroke="#332B27" stroke-width="1.3238" stroke-miterlimit="10"/>
<path d="M159.925 70.1894C152.164 80.6907 140.151 86.1795 128.024 86.054C120.853 85.9847 114.114 89.5174 109.848 95.2898L106.028 100.458L83.8672 84.0796L87.6865 78.9117C91.9525 73.1393 93.3586 65.665 91.175 58.8318C90.3785 56.3402 89.8397 53.7719 89.5457 51.1731L89.5511 51.166C89.1895 47.8607 89.2499 44.5112 89.7367 41.1872C90.7547 34.283 93.6445 27.5268 98.5241 21.7072C110.996 6.8643 132.835 3.43965 149.238 13.7705C149.6 14.0042 149.968 14.2433 150.324 14.4842C162.082 22.4277 168.081 35.4971 167.55 48.5483C167.251 56.1059 164.755 63.654 159.925 70.1894Z" fill="#F9E181"/>
<path d="M102.699 105.252C102.316 105.77 101.902 106.255 101.458 106.705C99.4705 108.687 96.9533 109.909 94.3052 110.3C91.0705 110.792 87.6429 110.039 84.7996 107.938L83.0795 106.667C77.9187 102.853 76.4519 95.893 79.3757 90.3862C79.6761 89.829 80.0176 89.2916 80.4007 88.7732C80.7836 88.2551 81.1974 87.7705 81.6366 87.3271C83.6237 85.3458 86.1409 84.1235 88.7944 83.725C92.0291 83.2333 95.4569 83.986 98.2928 86.0817L100.013 87.353C105.181 91.1723 106.642 98.1393 103.719 103.646C103.423 104.196 103.082 104.734 102.699 105.252Z" fill="#BBDBF3"/>
<path d="M109.742 100.944C109.261 101.022 108.745 100.908 108.327 100.599C108.817 100.961 109.08 101.523 109.095 102.09C109.105 102.498 108.983 102.92 108.728 103.265C108.419 103.683 107.964 103.937 107.476 104.01C107.001 104.081 106.484 103.967 106.067 103.658C106.513 103.988 106.78 104.485 106.819 105.004C106.874 105.457 106.76 105.928 106.467 106.324C106.153 106.749 105.704 106.996 105.216 107.069C104.74 107.14 104.224 107.026 103.806 106.717L102.374 105.659C102.083 106.022 101.777 106.375 101.456 106.705C99.4685 108.686 96.9513 109.909 94.3032 110.3C91.0685 110.791 87.6409 110.039 84.7977 107.938L83.0775 106.666C79.2411 103.831 77.4475 99.2562 77.9822 94.8436C80.3289 97.1342 83.9668 99.5001 88.9553 99.481C95.9721 99.4583 100.84 91.5156 102.981 87.1885L112.849 94.4811C113.345 94.8481 113.616 95.4154 113.62 95.9972C113.628 96.3927 113.509 96.7945 113.254 97.14C112.94 97.5647 112.486 97.8185 112.003 97.8845C111.522 97.9631 111.006 97.8487 110.588 97.54C111.049 97.8805 111.312 98.3977 111.353 98.929C111.388 99.3779 111.27 99.8247 110.993 100.199C110.685 100.617 110.225 100.878 109.742 100.944Z" fill="#A7ADC7"/>
<path d="M95.6279 85.3807C95.6279 85.3807 127.237 45.1985 113.977 40.7037C100.718 36.2089 126.633 74.4935 139.861 64.0737C153.089 53.654 127.034 53.0586 119.376 63.3672C111.719 73.6756 99.9385 89.669 99.9385 89.669" stroke="white" stroke-width="5.0104" stroke-miterlimit="10"/>
<path d="M109.742 100.944C109.261 101.022 108.745 100.908 108.327 100.599C108.817 100.961 109.08 101.523 109.095 102.09C109.105 102.498 108.983 102.92 108.728 103.265C108.419 103.683 107.964 103.937 107.476 104.01C107.001 104.081 106.484 103.967 106.067 103.658C106.513 103.988 106.78 104.485 106.819 105.004C106.874 105.457 106.76 105.928 106.467 106.324C106.153 106.749 105.704 106.996 105.216 107.069C104.74 107.14 104.224 107.026 103.806 106.717L102.374 105.659C102.083 106.022 101.777 106.375 101.456 106.705C99.4685 108.686 96.9513 109.909 94.3032 110.3C91.0685 110.791 87.6409 110.039 84.7977 107.938L83.0775 106.666C79.2411 103.831 77.4475 99.2562 77.9822 94.8436C80.3289 97.1342 83.9668 99.5001 88.9553 99.481C95.9721 99.4583 100.84 91.5156 102.981 87.1885L112.849 94.4811C113.345 94.8481 113.616 95.4154 113.62 95.9972C113.628 96.3927 113.509 96.7945 113.254 97.14C112.94 97.5647 112.486 97.8185 112.003 97.8845C111.522 97.9631 111.006 97.8487 110.588 97.54C111.049 97.8805 111.312 98.3977 111.353 98.929C111.388 99.3779 111.27 99.8247 110.993 100.199C110.685 100.617 110.225 100.878 109.742 100.944Z" fill="#93ACBF"/>
<path d="M102.697 105.252C102.314 105.77 101.9 106.255 101.456 106.706L79.374 90.3862C79.6744 89.829 80.0159 89.2916 80.399 88.7732C80.7819 88.2551 81.1957 87.7705 81.6349 87.3271L103.717 103.647C103.422 104.196 103.08 104.734 102.697 105.252Z" fill="#93ACBF"/>
<path d="M106.468 106.325C106.154 106.75 105.705 106.996 105.217 107.07C104.741 107.141 104.225 107.026 103.807 106.718L78.5293 88.0367C77.6871 87.4143 77.5086 86.2252 78.131 85.3831C78.4236 84.9872 78.8407 84.739 79.2823 84.6536C79.3128 84.6427 79.3378 84.6389 79.3752 84.6334C79.8562 84.5548 80.3724 84.6692 80.7899 84.9779L106.068 103.659C106.514 103.989 106.781 104.486 106.82 105.005C106.875 105.457 106.76 105.929 106.468 106.325Z" fill="#BBDBF3"/>
<path d="M113.255 97.1399C112.941 97.5646 112.486 97.8184 112.003 97.8844C111.522 97.963 111.006 97.8486 110.589 97.5399L85.311 78.8588C84.4688 78.2364 84.2958 77.0401 84.9179 76.198C85.1731 75.8524 85.5224 75.6209 85.896 75.5073C85.9887 75.4868 86.0746 75.4612 86.1623 75.4483C86.6379 75.3769 87.1543 75.4912 87.5718 75.7999L112.85 94.4811C113.346 94.848 113.617 95.4153 113.621 95.9972C113.629 96.3926 113.51 96.7944 113.255 97.1399Z" fill="#BBDBF3"/>
<path d="M110.994 100.198C110.686 100.615 110.226 100.876 109.743 100.942C109.262 101.021 108.746 100.906 108.328 100.598L83.0503 81.9166C82.2081 81.2942 82.035 80.0979 82.6572 79.2558C82.9339 78.8814 83.3259 78.6371 83.7584 78.5337C83.8085 78.5262 83.8513 78.5134 83.9014 78.5059C84.377 78.4344 84.8934 78.549 85.3109 78.8575L110.589 97.5387C111.049 97.8792 111.313 98.3964 111.354 98.9277C111.389 99.3768 111.271 99.8236 110.994 100.198Z" fill="#BBDBF3"/>
<path d="M113.622 95.997C113.536 96.0226 113.443 96.0429 113.355 96.056C112.874 96.1346 112.358 96.0202 111.94 95.7115L86.6625 77.0306C86.1658 76.6634 85.9005 76.089 85.8965 75.5073C85.9892 75.4868 86.0751 75.4612 86.1628 75.4483C86.6384 75.3769 87.1548 75.4912 87.5723 75.7999L112.85 94.4811C113.346 94.8479 113.617 95.4153 113.622 95.997Z" fill="#93ACBF"/>
<path d="M111.354 98.9296C111.311 98.9423 111.261 98.9499 111.211 98.9575C110.73 99.036 110.214 98.9217 109.796 98.6129L84.5186 79.9318C84.058 79.5913 83.7948 79.0741 83.7588 78.5357C83.8089 78.5281 83.8517 78.5154 83.9018 78.5078C84.3774 78.4364 84.8938 78.551 85.3113 78.8595L110.589 97.5406C111.05 97.8811 111.313 98.3981 111.354 98.9296Z" fill="#93ACBF"/>
<path d="M108.728 103.266C108.42 103.683 107.965 103.937 107.477 104.01C107.001 104.082 106.485 103.967 106.067 103.658L80.7896 84.9773C79.9474 84.355 79.7744 83.1587 80.3914 82.3237C80.6468 81.9782 81.014 81.7377 81.3997 81.6221C81.48 81.6036 81.5604 81.5851 81.6356 81.5738C82.1166 81.4952 82.6329 81.6096 83.0505 81.9183L108.328 100.599C108.818 100.961 109.081 101.523 109.096 102.091C109.106 102.499 108.983 102.92 108.728 103.266Z" fill="#BBDBF3"/>
<path d="M109.097 102.091C109.023 102.114 108.943 102.133 108.855 102.146C108.38 102.217 107.863 102.103 107.446 101.794L82.168 83.1132C81.6787 82.7515 81.4097 82.1966 81.4004 81.6221C81.4808 81.6036 81.5611 81.5851 81.6363 81.5738C82.1173 81.4952 82.6336 81.6096 83.0512 81.9183L108.329 100.599C108.818 100.961 109.082 101.523 109.097 102.091Z" fill="#93ACBF"/>
<path d="M106.82 105.005C106.782 105.011 106.757 105.014 106.732 105.018C106.252 105.097 105.735 104.982 105.318 104.674L80.0399 85.9925C79.5935 85.6627 79.3341 85.1706 79.2822 84.6536C79.3127 84.6427 79.3377 84.6389 79.3751 84.6334C79.8561 84.5548 80.3723 84.6692 80.7898 84.9779L106.068 103.659C106.514 103.989 106.78 104.486 106.82 105.005Z" fill="#93ACBF"/>
<path d="M149.238 13.7705C149.599 14.0043 149.968 14.2434 150.324 14.4842C145.073 13.8197 138.799 13.5452 131.37 13.9754C108.342 15.3193 95.0528 32.5631 89.7363 41.1872C90.7544 34.283 93.6441 27.5268 98.5238 21.7073C110.996 6.86416 132.835 3.4397 149.238 13.7705Z" fill="#F9ECB8"/>
<path d="M98.7221 83.2783L96.7304 84.6964C96.4466 84.8985 96.0587 84.8684 95.8095 84.6248L93.6067 82.4731L97.9581 83.2803C98.2097 83.3271 98.4554 83.1747 98.5254 82.9286L98.6266 82.5726C98.6986 82.3194 98.5604 82.0542 98.3116 81.9683L90.9715 79.4346L86.4467 79.9603L84.6953 88.4779C86.9522 88.7868 92.3056 91.1427 94.2482 92.0221C94.6836 92.2192 95.195 92.1251 95.533 91.7871L98.7637 88.56C99.2685 88.0556 99.5359 87.361 99.4997 86.6485L99.3435 83.5791C99.3278 83.2686 98.9753 83.0979 98.7221 83.2783Z" fill="#FDAE97"/>
<path d="M59.4435 72.7591C56.5611 72.0711 53.5651 74.1797 52.7854 77.4452C52.0058 80.7107 53.7264 83.9456 56.6088 84.6337L84.9284 89.4437L87.1144 78.9347C87.1186 78.9174 59.4435 72.7591 59.4435 72.7591Z" fill="#F74242"/>
<path d="M83.6426 32.665C83.7886 33.4435 83.3991 34.1699 82.7726 34.2875C82.146 34.4051 81.5194 33.8694 81.3734 33.0908C81.2274 32.3123 81.6169 31.5859 82.2435 31.4683C82.87 31.3508 83.4966 31.8866 83.6426 32.665Z" stroke="#F7E7DC" stroke-width="1.0903" stroke-miterlimit="10"/>
<path d="M87.2613 32.3896C87.3991 33.1242 87.0616 33.8041 86.507 33.9083C85.9526 34.0123 85.3913 33.5011 85.2535 32.7665C85.1156 32.032 85.4532 31.3519 86.0077 31.2479C86.5621 31.1436 87.1234 31.6548 87.2613 32.3896Z" stroke="#F7E7DC" stroke-width="1.0903" stroke-miterlimit="10"/>
<path d="M83.6094 32.5231L85.2275 32.3252" stroke="#F7E7DC" stroke-width="1.0903" stroke-miterlimit="10"/>
<path d="M84.4463 181.571H101.894L101.873 180.793C101.873 180.68 101.863 180.567 101.853 180.455C101.628 178.151 99.6924 176.369 97.3375 176.369H84.8356L84.5284 180.455L84.4463 181.571Z" fill="#332B27"/>
<path d="M84.4463 181.569H101.894L101.873 180.791C101.873 180.678 101.863 180.566 101.853 180.453H84.5284L84.4463 181.569Z" fill="white"/>
<path d="M96.8896 177.658C96.8896 177.658 97.2698 175.995 98.208 176.447C99.1465 176.898 96.9489 177.718 96.9489 177.718L98.2556 178.62" stroke="white" stroke-width="0.5315" stroke-miterlimit="10" stroke-linecap="round" stroke-linejoin="round"/>
<path d="M96.8894 177.658C96.8894 177.658 96.5092 175.995 95.571 176.447C94.6327 176.898 96.8301 177.718 96.8301 177.718L95.5234 178.62" stroke="white" stroke-width="0.5315" stroke-miterlimit="10" stroke-linecap="round" stroke-linejoin="round"/>
<path d="M56.2178 181.571H72.3033L72.3853 180.455L72.6617 176.369H61.1732C58.7569 176.369 56.7194 178.12 56.3302 180.455C56.2892 180.618 56.2687 180.793 56.2587 180.967L56.2178 181.571Z" fill="#332B27"/>
<path d="M56.2178 181.569H72.3033L72.3853 180.453H56.3302C56.2892 180.617 56.2687 180.791 56.2587 180.965L56.2178 181.569Z" fill="white"/>
<path d="M60.2549 177.658C60.2549 177.658 60.635 175.995 61.5733 176.447C62.5115 176.898 60.3142 177.718 60.3142 177.718L61.6208 178.62" stroke="white" stroke-width="0.5315" stroke-miterlimit="10" stroke-linecap="round" stroke-linejoin="round"/>
<path d="M60.2536 177.658C60.2536 177.658 59.8735 175.995 58.9352 176.447C57.997 176.898 60.1943 177.718 60.1943 177.718L58.8877 178.62" stroke="white" stroke-width="0.5315" stroke-miterlimit="10" stroke-linecap="round" stroke-linejoin="round"/>
<path d="M42.6057 100.282C40.5786 97.3858 37.143 95.5572 33.3092 95.7766C33.1931 95.7831 33.0745 95.7921 32.9584 95.8012C27.733 96.2691 23.5946 100.589 23.3458 105.83C23.2505 107.883 23.737 109.812 24.6506 111.465C25.0912 112.26 25.6277 112.991 26.2479 113.643V113.645C26.7376 114.156 27.2751 114.621 27.8551 115.026C29.2652 116.012 30.1495 117.569 30.353 119.262L29.8635 119.269C29.7231 119.271 29.5932 119.332 29.5025 119.425C29.4858 119.442 29.4714 119.462 29.4549 119.481C29.3931 119.567 29.3561 119.674 29.3579 119.79C29.362 120.074 29.5956 120.303 29.879 120.299C29.7386 120.301 29.6087 120.361 29.518 120.454C29.5084 120.464 29.5013 120.474 29.4917 120.484C29.4155 120.577 29.3714 120.694 29.3732 120.82C29.3774 121.103 29.6109 121.332 29.8943 121.328C29.7539 121.33 29.624 121.39 29.5333 121.486C29.519 121.501 29.5047 121.518 29.4905 121.535C29.4265 121.623 29.3869 121.735 29.3887 121.851C29.3929 122.132 29.6264 122.361 29.9098 122.357C29.7694 122.359 29.6395 122.42 29.5488 122.515C29.5417 122.523 29.5369 122.528 29.5321 122.535C29.4512 122.626 29.402 122.748 29.404 122.881C29.4082 123.164 29.6417 123.391 29.9252 123.387L30.4557 123.379C30.4624 123.505 30.4732 123.63 30.4927 123.754C30.5631 124.182 30.713 124.582 30.9247 124.941C30.9645 125.009 31.0068 125.075 31.0512 125.14C31.0733 125.172 31.0969 125.203 31.1202 125.235C31.151 125.277 31.1827 125.319 31.2155 125.359C31.2396 125.389 31.2636 125.418 31.2887 125.448C31.3283 125.493 31.3694 125.538 31.4114 125.582C31.4309 125.602 31.4496 125.623 31.4695 125.643C31.5302 125.704 31.5936 125.761 31.6587 125.817C31.6813 125.837 31.7048 125.855 31.7279 125.874C31.7762 125.913 31.8254 125.951 31.8757 125.988C31.9013 126.006 31.9268 126.025 31.9531 126.043C32.0127 126.084 32.0738 126.123 32.1361 126.16C32.1516 126.169 32.1663 126.179 32.1818 126.188C32.2586 126.233 32.3377 126.274 32.4181 126.312C32.443 126.324 32.4684 126.335 32.4937 126.346C32.554 126.373 32.6152 126.399 32.6773 126.422C32.7047 126.433 32.732 126.443 32.7596 126.453C32.8374 126.481 32.9164 126.506 32.9967 126.528C33.0059 126.53 33.0148 126.533 33.0242 126.536C33.1133 126.559 33.2042 126.578 33.2959 126.595C33.3228 126.6 33.35 126.603 33.3771 126.608C33.4465 126.618 33.5165 126.627 33.5873 126.633C33.6154 126.636 33.6434 126.639 33.6716 126.641C33.7673 126.647 33.8636 126.651 33.9613 126.65L34.5401 126.641C35.4969 126.627 36.3579 126.226 36.9736 125.59C37.4794 125.071 37.8205 124.395 37.9232 123.643C37.9311 123.578 37.9369 123.513 37.9411 123.447C37.9452 123.388 37.9476 123.329 37.9488 123.269C37.9488 123.269 37.949 123.268 37.949 123.267L38.431 123.26C38.5714 123.258 38.7013 123.197 38.792 123.104C38.8851 123.008 38.9414 122.881 38.9392 122.739C38.9372 122.605 38.8845 122.485 38.7984 122.397C38.7047 122.291 38.5659 122.228 38.4155 122.23C38.5559 122.228 38.6858 122.168 38.7765 122.075C38.8696 121.979 38.9257 121.85 38.9237 121.709C38.9219 121.593 38.8791 121.482 38.8101 121.396C38.7138 121.276 38.5649 121.199 38.4002 121.201C38.5406 121.199 38.6705 121.139 38.7612 121.043C38.8543 120.95 38.9104 120.818 38.9084 120.677C38.9066 120.552 38.8586 120.436 38.7775 120.345C38.6814 120.237 38.54 120.169 38.3848 120.172C38.5253 120.17 38.6552 120.109 38.7459 120.014C38.839 119.92 38.8952 119.791 38.8931 119.648C38.8913 119.532 38.8509 119.426 38.7843 119.342C38.688 119.218 38.5364 119.14 38.3693 119.142L37.8824 119.15C38.0358 117.451 38.875 115.868 40.2528 114.839C42.8834 112.876 44.5682 109.724 44.5157 106.19C44.4827 103.991 43.7813 101.957 42.6057 100.282Z" fill="#E5F0F8"/>
<path d="M58.1192 14.1536C57.1815 13.4966 56.1516 13.0158 55.078 12.7111C54.8869 13.8679 53.8519 14.7203 52.6539 14.6592C51.4559 14.5981 50.516 13.6477 50.4436 12.4775C49.3476 12.6687 48.2741 13.042 47.2744 13.6002C47.9554 14.5544 47.8301 15.8871 46.9384 16.6921C46.0467 17.4971 44.7082 17.4861 43.8282 16.7116C43.1712 17.6492 42.6905 18.6792 42.3887 19.7499C43.5456 19.9411 44.3951 20.973 44.3341 22.1711C44.273 23.3691 43.3196 24.3118 42.1494 24.3842C42.3434 25.4831 42.7167 26.5567 43.2749 27.5564C44.2264 26.8721 45.5621 26.9951 46.3697 27.8896C47.1747 28.7813 47.1636 30.1253 46.386 31.0023C47.3237 31.6593 48.3536 32.1401 49.4244 32.4418C49.6155 31.285 50.6505 30.4326 51.8485 30.4937C53.0466 30.555 53.9864 31.5052 54.0588 32.6754C55.1548 32.4842 56.2283 32.1109 57.2281 31.5527C56.547 30.5985 56.6725 29.2658 57.564 28.4608C58.4557 27.6558 59.7942 27.6666 60.674 28.4415C61.331 27.5039 61.8118 26.4739 62.1135 25.403C60.9566 25.2118 60.1071 24.1799 60.1682 22.9818C60.2292 21.7838 61.1826 20.8411 62.3528 20.7687C62.1617 19.6727 61.7883 18.5992 61.2301 17.5995C60.2728 18.2834 58.9403 18.1578 58.1351 17.2661C57.3277 16.3718 57.3387 15.0332 58.1192 14.1536ZM55.9365 19.2517C57.7723 21.2849 57.6149 24.4233 55.5787 26.2619C53.5424 28.1004 50.4042 27.9373 48.5685 25.904C46.7299 23.8678 46.8873 20.7294 48.9235 18.8908C50.9598 17.0523 54.098 17.2154 55.9365 19.2517Z" fill="#E5F0F8"/>
<path d="M47.8369 45.1853C46.4919 47.9007 43.1995 49.0151 40.4802 47.6681C37.7609 46.3211 36.6523 43.0267 37.9974 40.3114C39.3444 37.5921 42.6368 36.4774 45.3561 37.8244C48.0754 39.1714 49.1837 42.466 47.8369 45.1853ZM53.9687 45.3572C54.2633 44.1253 54.3389 42.8702 54.2158 41.6421C52.9479 41.9158 51.6504 41.198 51.2259 39.9408C50.8017 38.6837 51.3968 37.3303 52.5712 36.7797C51.9289 35.7301 51.1082 34.7775 50.1273 33.9761C49.4228 35.0649 48.0008 35.4777 46.8101 34.8879C45.6194 34.2981 45.0862 32.9169 45.5253 31.6966C44.2935 31.402 43.0386 31.3264 41.8143 31.4515C42.088 32.7194 41.3721 34.0129 40.115 34.4372C38.8576 34.8614 37.5003 34.2643 36.9499 33.0897C35.8983 33.7362 34.9457 34.5567 34.1443 35.5375C35.2351 36.2381 35.652 37.6619 35.06 38.8568C34.4703 40.0474 33.0829 40.5827 31.8645 40.1395C31.5699 41.3714 31.4944 42.6263 31.6195 43.8506C32.8873 43.5769 34.1848 44.2948 34.6093 45.5519C35.0336 46.809 34.4384 48.1624 33.2641 48.713C33.9064 49.7627 34.7271 50.7152 35.7079 51.5167C36.4126 50.4278 37.8344 50.0151 39.0251 50.6049C40.2158 51.1946 40.7491 52.5759 40.3099 53.7962C41.5418 54.0908 42.7967 54.1664 44.021 54.0412C43.7473 52.7734 44.4632 51.4799 45.7203 51.0556C46.9774 50.6313 48.335 51.2284 48.8854 52.403C49.935 51.7607 50.8876 50.94 51.689 49.9592C50.5962 49.2527 50.1832 47.8306 50.7732 46.64C51.3652 45.4453 52.7466 44.912 53.9687 45.3572Z" fill="#E5F0F8"/>
<path d="M399.852 137.74C401.463 141.54 405.58 143.481 409.466 142.531L415.447 156.635L417.891 155.598L411.911 141.496C415.303 139.369 416.763 135.059 415.149 131.253C413.359 127.032 408.484 125.045 404.263 126.835C400.042 128.625 398.062 133.519 399.852 137.74ZM413.487 131.958C414.881 135.246 413.332 139.076 410.045 140.47C406.739 141.872 402.927 140.315 401.533 137.028C400.131 133.722 401.669 129.918 404.975 128.516C408.263 127.122 412.085 128.652 413.487 131.958Z" fill="white"/>
<path d="M264.484 124.273C267.166 125.716 270.541 124.703 271.984 122.021L282.833 101.864C284.276 99.1826 283.263 95.8079 280.581 94.3646C277.9 92.9213 274.525 93.9345 273.081 96.6162L262.233 116.773C260.789 119.455 261.803 122.83 264.484 124.273Z" fill="#F74242"/>
<path d="M269.632 125.016C272.388 123.686 273.683 120.608 272.51 118.175L259.6 98.5562C259.313 97.8075 259.017 96.9379 258.859 96.188C258.493 94.4443 256.939 89.8256 256.276 90.0543C255.612 90.2831 256.035 93.6634 255.678 93.5309C255.321 93.3986 254.431 90.9914 254.133 89.935C253.836 88.8786 253.562 86.5111 252.962 86.2838C252.362 86.0564 251.811 86.8242 251.811 86.8242C251.811 86.8242 251.817 85.908 251.245 86.0145C250.672 86.1209 250.316 87.5463 250.316 87.5463C250.316 87.5463 250.371 87.0369 249.769 87.3112C249.167 87.5853 249.365 89.8877 249.365 89.8877C249.365 89.8877 249.162 89.4709 248.734 89.7413C248.305 90.0116 248.9 93.007 249.993 94.9484C250.969 96.6813 253.745 100.542 254.33 101.351L262.488 123.01C263.661 125.442 266.876 126.345 269.632 125.016Z" fill="#FDAE97"/>
<path d="M292.069 78.4316C292.069 78.4316 294.947 80.5304 294.322 84.8632C293.698 89.1961 293.348 91.5411 296.087 91.7648C298.826 91.9886 304.313 90.3554 304.757 94.0209C305.201 97.6862 302.616 100.128 306.475 100.804C310.334 101.48 310.861 106.449 310.861 106.449C310.861 106.449 297.081 115.126 283.98 107.158C270.88 99.1894 284.841 93.6935 284.841 93.6935L292.069 78.4316Z" fill="#322A28"/>
<path d="M300.437 198.803H255.521V201.184H300.437V198.803Z" fill="#322A28"/>
<path d="M304.938 230.047H260.021V232.428H304.938V230.047Z" fill="#322A28"/>
<path d="M308.402 261.294H264.858V263.675H308.402V261.294Z" fill="#322A28"/>
<path d="M269.557 291.98H267.018L252.179 176.903H254.718L269.557 291.98Z" fill="#322A28"/>
<path d="M312.923 291.98H310.384L295.545 176.903H298.084L312.923 291.98Z" fill="#322A28"/>
<path d="M280.693 291.98H283.233L298.072 176.903H295.533L280.693 291.98Z" fill="#322A28"/>
<path d="M237.327 291.98H239.867L254.706 176.903H252.166L237.327 291.98Z" fill="#322A28"/>
<path d="M297.676 176.903H252.759V179.284H297.676V176.903Z" fill="#322A28"/>
<path d="M291.816 145C287.547 149.176 277.946 151.731 267.143 150.729C256.34 149.726 249.328 149.801 249.328 149.801C244.384 149.801 240.376 145.793 240.376 140.849C240.376 135.905 244.384 131.897 249.328 131.897L290.05 130.61L291.816 145Z" fill="#0775EF"/>
<path d="M289.939 92.0693L299.629 96.4579C299.629 96.4579 297.475 121.403 297.252 124.131C297.029 126.86 297.865 130.981 297.865 130.981H274.643C274.643 130.981 274.922 117.616 273.362 113.885C272.306 111.357 271.58 109.82 272.193 106.924C272.806 104.028 277.288 98.9091 276.564 93.8973L281.619 92.2784L289.939 92.0693Z" fill="#F74242"/>
<path d="M302.162 129.267C305.156 128.71 307.15 125.805 306.593 122.811L302.406 100.306C301.849 97.3115 298.944 95.3176 295.95 95.8746C292.956 96.4315 290.962 99.3368 291.519 102.331L295.705 124.836C296.262 127.83 299.168 129.824 302.162 129.267Z" fill="#F74242"/>
<path d="M279.894 78.6877C279.894 78.6877 278.403 75.5199 281.514 74.3682L279.894 78.6877Z" fill="#322A28"/>
<path d="M289.981 92.0669L289.975 92.0734C289.871 92.2556 288.113 95.2176 284.787 94.9702C281.844 94.7488 281.623 92.2751 281.623 92.2751V81.0068H288.784L289.981 92.0669Z" fill="#FDAE97"/>
<path d="M281.623 90.9932L286.619 85.5605L281.62 87.4385L281.623 90.9932Z" fill="#E89780"/>
<path d="M286.506 87.4932C284.248 88.9944 281.496 89.1412 279.776 88.1144C278.055 87.0942 278.19 84.5215 278.597 82.8709C278.598 82.8646 278.598 82.8646 278.599 82.8582C278.684 82.5169 278.805 82.0367 278.939 81.4929C279.461 79.3608 280.231 76.2032 280.231 76.2032C280.552 74.5394 285.055 70.5918 289.768 75.1675C294.479 79.7496 288.763 85.992 286.506 87.4932Z" fill="#FDAE97"/>
<path d="M280.344 75.5314C280.344 75.5314 280.511 77.4954 283.338 78.661C286.165 79.8266 288.89 81.6954 288.717 84.6188C288.544 87.5422 289.629 89.1275 289.629 89.1275C289.629 89.1275 289.844 85.4845 291.504 82.3194C292.148 81.0917 292.633 78.5488 291.34 76.4491C289.299 73.1359 284.367 70.8015 280.344 75.5314Z" fill="#322A28"/>
<path d="M288.212 84.0203C287.667 84.9283 287.532 85.5605 288.245 85.9887C288.958 86.417 290.119 86.2437 290.664 85.3357C291.209 84.4277 291.074 83.3446 290.361 82.9163C289.648 82.4881 288.757 83.1123 288.212 84.0203Z" fill="#FDAE97"/>
<path d="M289.797 84.5899C289.205 84.34 288.716 84.6195 288.716 84.6195C289.061 83.5987 290.282 83.9378 290.282 83.9378" stroke="#E89780" stroke-width="0.6613" stroke-miterlimit="10" stroke-linecap="round" stroke-linejoin="round"/>
<path d="M283.969 81.5665C283.88 81.9661 283.599 82.2438 283.341 82.1869C283.082 82.1298 282.944 81.7596 283.032 81.3602C283.121 80.9606 283.402 80.6829 283.66 80.7398C283.918 80.7967 284.057 81.1669 283.969 81.5665Z" fill="#322A28"/>
<path d="M280.622 80.5032C280.534 80.9028 280.253 81.1805 279.994 81.1234C279.736 81.0663 279.598 80.6964 279.686 80.2967C279.774 79.8971 280.055 79.6194 280.313 79.6763C280.572 79.7334 280.71 80.1036 280.622 80.5032Z" fill="#322A28"/>
<path d="M285.055 80.9644C285.055 80.9644 284.472 79.7916 283.458 79.9456" stroke="#2C3447" stroke-width="0.9818" stroke-miterlimit="10"/>
<path d="M273.65 114.751C273.65 114.751 271.947 111.024 272 108.222C272.053 105.42 273.97 102.978 273.97 102.978" stroke="white" stroke-width="1.3226" stroke-miterlimit="10"/>
<path d="M255.115 188.66H270.125L258.234 140.907L258.22 140.741C257.902 136.102 254.031 132.438 249.308 132.438C244.372 132.438 240.376 136.434 240.376 141.37C240.376 141.646 240.39 141.916 240.418 142.179L255.115 188.66Z" fill="#0775EF"/>
<path d="M253.45 197.212L251.687 198.802H269.429L269.024 197.212L267.816 192.186L266.717 188.66H257.28L259.022 192.186L253.45 197.212Z" fill="#FDAE97"/>
<path d="M269.431 198.804H251.692C251.715 198.325 251.784 197.857 251.898 197.412C252.686 194.387 255.425 192.184 258.655 192.184H267.821L269.02 197.217L269.065 197.412L269.431 198.804Z" fill="#088CFF"/>
<path d="M261.193 194.136H258.222" stroke="white" stroke-width="0.8689" stroke-miterlimit="10"/>
<path d="M260.251 195.29H257.279" stroke="white" stroke-width="0.8689" stroke-miterlimit="10"/>
<path d="M264.62 196.163C265.315 196.163 265.878 195.6 265.878 194.905C265.878 194.21 265.315 193.646 264.62 193.646C263.925 193.646 263.361 194.21 263.361 194.905C263.361 195.6 263.925 196.163 264.62 196.163Z" fill="white"/>
<path d="M280.841 79.1809C280.841 79.1809 280.282 78.9438 279.522 79.4379" stroke="#2C3447" stroke-width="0.9818" stroke-miterlimit="10"/>
<path d="M296.467 219.905H311.477L306.714 172.152L306.7 171.986C306.382 167.347 302.51 163.683 297.788 163.683C292.852 163.683 288.855 167.679 288.855 172.615C288.855 172.892 288.869 173.161 288.897 173.424L296.467 219.905Z" fill="#088CFF"/>
<path d="M269.431 198.804H251.692C251.715 198.324 251.784 197.856 251.898 197.411H269.065L269.431 198.804Z" fill="white"/>
<path d="M281.817 80.8271C281.817 80.8271 281.334 82.797 280.119 82.7828C280.119 82.7828 280.415 83.2008 280.847 83.4414" stroke="#2C3447" stroke-width="0.9818" stroke-miterlimit="10"/>
<path d="M297.866 130.981C302.466 134.79 305.606 142.919 305.738 153.767C305.87 164.616 306.677 171.582 306.677 171.582C307.194 176.499 303.627 180.904 298.71 181.42C293.793 181.937 289.389 178.37 288.872 173.453L281.925 130.98L297.866 130.981Z" fill="#088CFF"/>
<path d="M239.815 89.6641L293.545 153.652L305.468 143.64L251.739 79.6523C252.716 80.8166 252.846 82.3259 252.023 83.0171C251.2 83.7083 249.735 83.3195 248.758 82.1552C249.735 83.3195 249.865 84.8288 249.042 85.52C248.218 86.2112 246.754 85.8224 245.777 84.6581C246.754 85.8224 246.884 87.3317 246.061 88.0229C245.238 88.7141 243.774 88.3253 242.796 87.161C243.773 88.3253 243.903 89.8346 243.08 90.5258C242.257 91.2172 240.793 90.8282 239.815 89.6641Z" fill="#6ADB6A"/>
<path d="M239.816 89.6639C240.752 90.778 242.182 91.1258 243.005 90.4346C243.828 89.7434 243.733 88.2749 242.797 87.161C243.733 88.2751 245.162 88.623 245.986 87.9317C246.809 87.2405 246.714 85.772 245.778 84.6581C246.714 85.7722 248.143 86.1201 248.966 85.4288C249.79 84.7376 249.694 83.2691 248.759 82.1552C249.694 83.2693 251.124 83.6172 251.947 82.9259C252.77 82.2347 252.675 80.7662 251.739 79.6523C251.68 79.5816 251.621 79.516 251.558 79.4537L249.941 78.5567L236.563 71.1504L232.586 68.9473L234.068 73.2459L239.048 87.7026L239.652 89.4508C239.703 89.5238 239.757 89.5932 239.816 89.6639Z" fill="#F9D6AF"/>
<path d="M234.068 73.2459C234.608 73.093 235.107 72.8342 235.543 72.4686C235.978 72.103 236.319 71.656 236.563 71.1504L232.586 68.9473L234.068 73.2459Z" fill="#6ADB6A"/>
<path d="M307.275 159.615L308.967 158.195C311.792 155.822 312.16 151.609 309.787 148.783L309.088 147.951L297.165 157.963L297.864 158.795C300.236 161.62 304.45 161.988 307.275 159.615Z" fill="#E7888B"/>
<path d="M297.351 158.061L309.152 148.152C309.48 147.877 309.522 147.388 309.247 147.06L304.361 141.241C304.086 140.914 303.597 140.871 303.27 141.146L291.469 151.055C291.141 151.33 291.099 151.819 291.374 152.147L296.26 157.966C296.535 158.293 297.024 158.336 297.351 158.061Z" fill="#93ACBF"/>
<path d="M304.158 143.306L296.206 149.982" stroke="#BBDBF3" stroke-width="1.0746" stroke-miterlimit="10" stroke-linecap="round" stroke-linejoin="round"/>
<path d="M304.571 146.437L294.81 154.633" stroke="#BBDBF3" stroke-width="1.0746" stroke-miterlimit="10" stroke-linecap="round" stroke-linejoin="round"/>
<path d="M307.202 147.707L299.021 154.576" stroke="#BBDBF3" stroke-width="1.0746" stroke-miterlimit="10" stroke-linecap="round" stroke-linejoin="round"/>
<path d="M250.862 84.4424L294.598 136.528" stroke="#40A87B" stroke-width="1.4398" stroke-miterlimit="10" stroke-linecap="round" stroke-linejoin="round"/>
<path d="M247.135 86.2744L295.225 143.547" stroke="#40A87B" stroke-width="1.4398" stroke-miterlimit="10" stroke-linecap="round" stroke-linejoin="round"/>
<path d="M244.974 90.2109L251.071 97.4728" stroke="#40A87B" stroke-width="1.4398" stroke-miterlimit="10" stroke-linecap="round" stroke-linejoin="round"/>
<path d="M252.06 98.6494L286.096 139.185" stroke="#40A87B" stroke-width="1.4398" stroke-miterlimit="10" stroke-linecap="round" stroke-linejoin="round"/>
<path d="M280.286 85.0469C280.286 85.0469 281.457 85.876 282.7 84.6572" stroke="#2C3447" stroke-width="0.9818" stroke-miterlimit="10"/>
<path d="M285.738 83.2771C285.773 83.7022 285.126 84.102 284.292 84.1702C283.459 84.2385 282.755 83.949 282.72 83.5242C282.685 83.0991 283.333 82.6993 284.166 82.6311C285 82.5628 285.703 82.852 285.738 83.2771Z" fill="#E89780"/>
<path d="M279.469 82.6091C279.347 82.8428 279.01 82.9251 278.599 82.8585C278.684 82.5172 278.804 82.037 278.939 81.4932C279.399 81.8691 279.63 82.3171 279.469 82.6091Z" fill="#E89780"/>
<path d="M263.559 114.407C263.838 113.896 264.544 114.48 264.544 114.48C264.544 114.48 264.297 113.567 264.852 113.246C265.408 112.924 267.416 114.207 268.423 114.644C269.43 115.08 271.858 115.911 272.186 115.718C272.515 115.525 269.627 113.717 269.868 113.059C270.11 112.4 274.672 114.113 276.256 114.93C276.936 115.281 277.798 115.601 278.559 115.852L301.923 118.236C304.551 118.863 306.119 121.811 305.409 124.788C304.698 127.764 301.968 129.687 299.34 129.06L277.396 121.703C276.399 121.645 271.654 121.359 269.694 121.021C267.498 120.642 264.8 119.211 264.861 118.708C264.922 118.205 265.374 118.311 265.374 118.311C265.374 118.311 263.464 117.01 263.632 116.37C263.8 115.73 264.159 116.095 264.159 116.095C264.159 116.095 263.279 114.918 263.559 114.407Z" fill="#FDAE97"/>
<path d="M295.431 79.2756C296.792 78.2496 296.652 75.7673 295.118 73.7311C293.583 71.695 291.236 70.8761 289.874 71.9021C288.513 72.9281 288.653 75.4104 290.187 77.4465C291.722 79.4827 294.069 80.3016 295.431 79.2756Z" fill="#322A28"/>
<path d="M287.921 86.0039C287.844 86.3719 288.079 86.7329 288.447 86.8103C288.815 86.8877 289.176 86.652 289.254 86.284C289.331 85.916 289.095 85.555 288.727 85.4776C288.359 85.4002 287.998 85.6359 287.921 86.0039Z" stroke="white" stroke-width="0.8689" stroke-miterlimit="10"/>
<path d="M294.852 228.457L293.089 230.048H309.543L309.467 228.457L309.218 223.431L309.046 219.905H299.608L300.424 223.431L294.852 228.457Z" fill="#FDAE97"/>
<path d="M309.541 230.046H293.093L293.241 229.304C293.287 229.087 293.344 228.87 293.412 228.653C293.835 227.226 294.679 225.993 295.787 225.092C297.054 224.053 298.675 223.437 300.421 223.437H309.222L309.462 228.459L309.473 228.653L309.541 230.046Z" fill="#088CFC"/>
<path d="M302.595 225.383H299.624" stroke="white" stroke-width="0.8689" stroke-miterlimit="10"/>
<path d="M301.653 226.535H298.682" stroke="white" stroke-width="0.8689" stroke-miterlimit="10"/>
<path d="M304.764 226.152C304.764 226.847 305.327 227.411 306.022 227.411C306.717 227.411 307.281 226.847 307.281 226.152C307.281 225.457 306.717 224.894 306.022 224.894C305.327 224.894 304.764 225.457 304.764 226.152Z" fill="white"/>
<path d="M294.406 118.027L292.595 108.238" stroke="white" stroke-width="1.3226" stroke-miterlimit="10"/>
<path d="M309.541 230.046H293.093L293.241 229.304C293.287 229.087 293.344 228.87 293.412 228.653H309.473L309.541 230.046Z" fill="white"/>
<path d="M417.711 291.809H26.9123C24.6188 291.809 22.7598 291.286 22.7598 290.641V290.538C22.7598 289.893 24.619 289.37 26.9123 289.37H417.711C420.004 289.37 421.863 289.893 421.863 290.538V290.641C421.863 291.286 420.004 291.809 417.711 291.809Z" fill="#0775EF"/>
</svg>
