<svg width="392" height="335" viewBox="0 0 392 335" fill="none" xmlns="http://www.w3.org/2000/svg">
<path d="M361.234 207.284H189.492C184.498 207.284 180.449 203.236 180.449 198.242V26.4999C180.449 21.5057 184.498 17.457 189.492 17.457H361.234C366.228 17.457 370.277 21.5057 370.277 26.4999V198.242C370.276 203.236 366.228 207.284 361.234 207.284Z" fill="#FAFAFF"/>
<path d="M201.66 242.488H29.9188C24.9246 242.488 20.876 238.439 20.876 233.445V61.703C20.876 56.7088 24.9246 52.6602 29.9188 52.6602H201.66C206.655 52.6602 210.703 56.7088 210.703 61.703V233.445C210.703 238.439 206.655 242.488 201.66 242.488Z" fill="#F0F0FF"/>
<path d="M112.074 170.017H99.5547V192.683H112.074V170.017Z" fill="#3F4D79"/>
<path d="M153.994 174.941H57.6363C56.7547 174.941 56.04 174.226 56.04 173.345V115.784C56.04 114.902 56.7547 114.188 57.6363 114.188H153.994C154.875 114.188 155.59 114.902 155.59 115.784V173.345C155.59 174.226 154.875 174.941 153.994 174.941Z" fill="white"/>
<path d="M151.216 118.394H60.4531V166.44H151.216V118.394Z" fill="white"/>
<path d="M151.405 166.629H60.2666V118.207H151.405V166.629ZM60.642 166.254H151.03V118.583H60.642V166.254Z" fill="#3F4D79"/>
<path d="M105.421 173.648C106.976 173.648 108.237 172.388 108.237 170.832C108.237 169.277 106.976 168.017 105.421 168.017C103.866 168.017 102.605 169.277 102.605 170.832C102.605 172.388 103.866 173.648 105.421 173.648Z" fill="#3F4D79"/>
<path d="M131.52 190.793H79.3232V192.683H131.52V190.793Z" fill="#3F4D79"/>
<path d="M307.879 192.625H56.5547V197.618H307.879V192.625Z" fill="#FFB7D5"/>
<path d="M301.876 197.618H61.5361V320.658H301.876V197.618Z" fill="#E6E6FF"/>
<path d="M289.93 226.53H224.328V206.933H289.93V226.53ZM225.127 225.732H289.131V207.731H225.127V225.732Z" fill="#3F4D79"/>
<path d="M259.293 218.426C260.49 217.228 260.49 215.287 259.293 214.09C258.095 212.893 256.154 212.893 254.957 214.09C253.76 215.287 253.76 217.228 254.957 218.426C256.154 219.623 258.095 219.623 259.293 218.426Z" fill="#3F4D79"/>
<path d="M289.93 249.718H224.328V230.12H289.93V249.718ZM225.127 248.919H289.131V230.919H225.127V248.919Z" fill="#3F4D79"/>
<path d="M260.112 240.176C260.501 238.529 259.481 236.877 257.833 236.488C256.185 236.099 254.534 237.12 254.145 238.767C253.756 240.415 254.776 242.066 256.424 242.456C258.072 242.845 259.723 241.824 260.112 240.176Z" fill="#3F4D79"/>
<path d="M289.93 272.905H224.328V253.308H289.93V272.905ZM225.127 272.107H289.131V254.106H225.127V272.107Z" fill="#3F4D79"/>
<path d="M260.112 263.364C260.501 261.716 259.481 260.065 257.833 259.676C256.185 259.287 254.534 260.307 254.145 261.955C253.756 263.603 254.776 265.254 256.424 265.643C258.072 266.032 259.723 265.012 260.112 263.364Z" fill="#3F4D79"/>
<path d="M151.516 230.185H70.1436V206.933H151.516V230.185ZM70.9423 229.386H150.717V207.731H70.9423V229.386Z" fill="#3F4D79"/>
<path d="M119.307 209.196H102.354V212.262H119.307V209.196Z" fill="#3F4D79"/>
<path d="M151.516 256.821H70.1436V233.568H151.516V256.821ZM70.9423 256.022H150.717V234.367H70.9423V256.022Z" fill="#3F4D79"/>
<path d="M119.307 235.832H102.354V238.898H119.307V235.832Z" fill="#3F4D79"/>
<path d="M109.48 263.107H70.543V315.29H109.48V263.107Z" fill="#FFB7D5"/>
<path d="M151.117 263.107H112.18V315.29H151.117V263.107Z" fill="#FFB7D5"/>
<path d="M104.233 290.312C105.541 289.765 106.158 288.262 105.611 286.954C105.065 285.646 103.561 285.029 102.253 285.575C100.945 286.122 100.328 287.626 100.875 288.934C101.422 290.242 102.925 290.859 104.233 290.312Z" fill="#3F4D79"/>
<path d="M119.162 290.381C120.507 289.932 121.233 288.478 120.784 287.133C120.335 285.788 118.881 285.062 117.536 285.511C116.192 285.96 115.466 287.414 115.915 288.759C116.364 290.104 117.818 290.83 119.162 290.381Z" fill="#3F4D79"/>
<path d="M323.343 320.602H37.0771V325.24H323.343V320.602Z" fill="#E6E6FF"/>
<path d="M159.112 320.289H37.0771V320.913H159.112V320.289Z" fill="#3F4D79"/>
<path d="M323.343 320.289H215.005V320.913H323.343V320.289Z" fill="#3F4D79"/>
<path d="M325.208 118.498H237.868C234.564 118.498 231.886 115.82 231.886 112.516V55.519C231.886 52.2153 234.564 49.5371 237.868 49.5371H325.208C328.512 49.5371 331.19 52.2153 331.19 55.519V112.516C331.19 115.82 328.512 118.498 325.208 118.498Z" fill="white"/>
<path d="M325.208 118.699H237.867C234.459 118.699 231.686 115.925 231.686 112.517V55.5194C231.686 52.111 234.459 49.3379 237.867 49.3379H325.208C328.616 49.3379 331.389 52.111 331.389 55.5194V112.517C331.389 115.925 328.616 118.699 325.208 118.699ZM237.867 49.7373C234.679 49.7373 232.085 52.3312 232.085 55.5194V112.517C232.085 115.705 234.679 118.299 237.867 118.299H325.208C328.396 118.299 330.99 115.705 330.99 112.517V55.5194C330.99 52.3312 328.396 49.7373 325.208 49.7373H237.867Z" fill="#3F4D79"/>
<path d="M331.19 58.6719H231.886V59.0713H331.19V58.6719Z" fill="#3F4D79"/>
<path d="M241.151 56.4448C242.227 56.4448 243.1 55.5722 243.1 54.4958C243.1 53.4195 242.227 52.5469 241.151 52.5469C240.075 52.5469 239.202 53.4195 239.202 54.4958C239.202 55.5722 240.075 56.4448 241.151 56.4448Z" fill="#FFB000"/>
<path d="M246.301 56.4448C247.377 56.4448 248.249 55.5722 248.249 54.4958C248.249 53.4195 247.377 52.5469 246.301 52.5469C245.224 52.5469 244.352 53.4195 244.352 54.4958C244.352 55.5722 245.224 56.4448 246.301 56.4448Z" fill="#3F4D79"/>
<path d="M251.305 56.4448C252.382 56.4448 253.254 55.5722 253.254 54.4958C253.254 53.4195 252.382 52.5469 251.305 52.5469C250.229 52.5469 249.356 53.4195 249.356 54.4958C249.356 55.5722 250.229 56.4448 251.305 56.4448Z" fill="#3F4D79"/>
<path d="M281.747 93.0755C289.49 93.0755 295.767 86.7987 295.767 79.0558C295.767 71.313 289.49 65.0361 281.747 65.0361C274.004 65.0361 267.728 71.313 267.728 79.0558C267.728 86.7987 274.004 93.0755 281.747 93.0755Z" fill="#FFB7D5"/>
<path d="M299.679 79.2557H281.337V62.3735C281.337 62.2633 281.426 62.1738 281.537 62.1738C281.647 62.1738 281.736 62.2633 281.736 62.3735V78.8564H299.679C299.79 78.8564 299.879 78.9458 299.879 79.056C299.879 79.1663 299.789 79.2557 299.679 79.2557Z" fill="#3F4D79"/>
<path d="M267.351 87.1588C267.281 87.1588 267.213 87.1218 267.177 87.0561C267.123 86.9599 267.158 86.8381 267.254 86.7845L281.413 78.8963L294.984 64.8975C295.061 64.8183 295.187 64.8167 295.266 64.8931C295.345 64.97 295.347 65.0964 295.27 65.1755L281.659 79.2164L267.448 87.1332C267.418 87.1506 267.384 87.1588 267.351 87.1588Z" fill="#3F4D79"/>
<path d="M106.755 142.094H19.4145C16.1108 142.094 13.4326 139.416 13.4326 136.112V79.1147C13.4326 75.811 16.1108 73.1328 19.4145 73.1328H106.755C110.058 73.1328 112.737 75.811 112.737 79.1147V136.112C112.737 139.416 110.059 142.094 106.755 142.094Z" fill="white"/>
<path d="M106.754 142.293H19.414C16.0055 142.293 13.2324 139.52 13.2324 136.111V79.1142C13.2324 75.7057 16.0055 72.9326 19.414 72.9326H106.754C110.163 72.9326 112.936 75.7057 112.936 79.1142V136.112C112.936 139.52 110.163 142.293 106.754 142.293ZM19.414 73.3318C16.2257 73.3318 13.6318 75.9257 13.6318 79.114V136.111C13.6318 139.3 16.2257 141.894 19.414 141.894H106.754C109.943 141.894 112.536 139.3 112.536 136.111V79.1142C112.536 75.9257 109.943 73.332 106.754 73.332H19.414V73.3318Z" fill="#3F4D79"/>
<path d="M112.737 82.2666H13.4326V82.666H112.737V82.2666Z" fill="#3F4D79"/>
<path d="M24.0459 79.5037C24.8234 78.7593 24.8502 77.5255 24.1057 76.7481C23.3613 75.9706 22.1276 75.9438 21.3501 76.6882C20.5726 77.4327 20.5459 78.6664 21.2903 79.4439C22.0347 80.2213 23.2684 80.2481 24.0459 79.5037Z" fill="#FFB000"/>
<path d="M29.7464 78.5346C29.9927 77.4867 29.3429 76.4376 28.295 76.1913C27.2472 75.9451 26.1981 76.5949 25.9518 77.6427C25.7055 78.6906 26.3553 79.7397 27.4032 79.986C28.451 80.2322 29.5001 79.5824 29.7464 78.5346Z" fill="#3F4D79"/>
<path d="M34.3583 79.3264C35.0434 78.4962 34.9258 77.2678 34.0956 76.5827C33.2654 75.8976 32.037 76.0152 31.3518 76.8454C30.6667 77.6756 30.7843 78.904 31.6146 79.5891C32.4448 80.2743 33.6732 80.1566 34.3583 79.3264Z" fill="#3F4D79"/>
<path d="M58.5778 92.6973H24.6475V134.147H58.5778V92.6973Z" fill="#FFB7D5"/>
<path d="M89.2771 103.465H37.4746V103.864H89.2771V103.465Z" fill="#3F4D79"/>
<path d="M89.2771 108.771H37.4746V109.17H89.2771V108.771Z" fill="#3F4D79"/>
<path d="M89.2771 114.076H37.4746V114.476H89.2771V114.076Z" fill="#3F4D79"/>
<path d="M97.9273 118.942H63.084V119.342H97.9273V118.942Z" fill="#3F4D79"/>
<path d="M97.9273 124.248H63.084V124.647H97.9273V124.248Z" fill="#3F4D79"/>
<path d="M97.9273 129.554H63.084V129.953H97.9273V129.554Z" fill="#3F4D79"/>
<path d="M112.365 251.303H25.0248C21.7212 251.303 19.043 248.625 19.043 245.321V188.324C19.043 185.02 21.7212 182.342 25.0248 182.342H112.365C115.669 182.342 118.347 185.02 118.347 188.324V245.321C118.347 248.625 115.669 251.303 112.365 251.303Z" fill="white"/>
<path d="M112.365 251.502H25.0245C21.616 251.502 18.8428 248.729 18.8428 245.321V188.323C18.8428 184.915 21.6158 182.142 25.0245 182.142H112.365C115.774 182.142 118.547 184.915 118.547 188.323V245.321C118.547 248.729 115.774 251.502 112.365 251.502ZM25.0245 182.541C21.8361 182.541 19.2421 185.135 19.2421 188.323V245.321C19.2421 248.509 21.8361 251.103 25.0245 251.103H112.365C115.553 251.103 118.147 248.509 118.147 245.321V188.323C118.147 185.135 115.553 182.541 112.365 182.541H25.0245Z" fill="#3F4D79"/>
<path d="M118.347 191.475H19.043V191.874H118.347V191.475Z" fill="#3F4D79"/>
<path d="M30.2122 187.746C30.4585 186.698 29.8087 185.649 28.7608 185.402C27.713 185.156 26.6639 185.806 26.4176 186.854C26.1713 187.902 26.8211 188.951 27.869 189.197C28.9168 189.443 29.9659 188.793 30.2122 187.746Z" fill="#FFB000"/>
<path d="M34.8345 188.676C35.5956 187.915 35.5956 186.681 34.8345 185.92C34.0734 185.159 32.8394 185.159 32.0783 185.92C31.3172 186.681 31.3172 187.915 32.0783 188.676C32.8394 189.437 34.0734 189.437 34.8345 188.676Z" fill="#3F4D79"/>
<path d="M39.7474 188.768C40.5566 188.059 40.6373 186.827 39.9275 186.018C39.2177 185.209 37.9864 185.128 37.1771 185.838C36.3679 186.548 36.2873 187.779 36.997 188.588C37.7068 189.397 38.9382 189.478 39.7474 188.768Z" fill="#3F4D79"/>
<path d="M89.2794 204.707H48.5771V231.797H89.2794V204.707Z" fill="#FFB7D5"/>
<path d="M63.9791 222.456C63.9454 222.456 63.911 222.447 63.8795 222.429L56.8127 218.349C56.7508 218.313 56.7129 218.248 56.7129 218.176C56.7129 218.105 56.7508 218.039 56.8127 218.003L63.8795 213.923C63.9749 213.868 64.097 213.901 64.1523 213.996C64.2074 214.092 64.1746 214.214 64.0792 214.269L57.312 218.176L64.0792 222.083C64.1748 222.138 64.2074 222.26 64.1523 222.356C64.1153 222.42 64.0482 222.456 63.9791 222.456Z" fill="#3F4D79"/>
<path d="M72.699 222.532C72.6299 222.532 72.5628 222.496 72.5258 222.432C72.4707 222.336 72.5035 222.214 72.5989 222.159L79.3661 218.252L72.5989 214.346C72.5033 214.29 72.4707 214.168 72.5258 214.073C72.5809 213.977 72.703 213.944 72.7986 214L79.8654 218.08C79.9273 218.115 79.9652 218.181 79.9652 218.253C79.9652 218.324 79.9273 218.39 79.8654 218.426L72.7986 222.506C72.7673 222.523 72.7329 222.532 72.699 222.532Z" fill="#3F4D79"/>
<path d="M67.5194 226.773C67.5084 226.773 67.4974 226.773 67.486 226.771C67.3772 226.752 67.3039 226.649 67.3221 226.54L70.1427 209.745C70.1609 209.636 70.2627 209.562 70.3727 209.581C70.4816 209.6 70.5548 209.702 70.5367 209.811L67.7161 226.607C67.6999 226.704 67.6152 226.773 67.5194 226.773Z" fill="#3F4D79"/>
<path d="M358.707 168.627H271.367C268.063 168.627 265.385 165.949 265.385 162.645V105.648C265.385 102.344 268.063 99.666 271.367 99.666H358.707C362.011 99.666 364.689 102.344 364.689 105.648V162.645C364.689 165.949 362.011 168.627 358.707 168.627Z" fill="white"/>
<path d="M358.707 168.827H271.366C267.958 168.827 265.185 166.054 265.185 162.646V105.648C265.185 102.24 267.958 99.4668 271.366 99.4668H358.707C362.115 99.4668 364.888 102.24 364.888 105.648V162.646C364.888 166.054 362.115 168.827 358.707 168.827ZM271.367 99.8662C268.178 99.8662 265.584 102.46 265.584 105.648V162.646C265.584 165.834 268.178 168.428 271.367 168.428H358.707C361.895 168.428 364.489 165.834 364.489 162.646V105.648C364.489 102.46 361.895 99.8662 358.707 99.8662H271.367Z" fill="#3F4D79"/>
<path d="M364.689 108.801H265.385V109.2H364.689V108.801Z" fill="#3F4D79"/>
<path d="M276.555 105.092C276.802 104.044 276.153 102.995 275.106 102.747C274.058 102.5 273.009 103.149 272.761 104.196C272.514 105.244 273.163 106.293 274.21 106.541C275.258 106.788 276.307 106.139 276.555 105.092Z" fill="#FFB000"/>
<path d="M281.174 106.003C281.935 105.242 281.935 104.008 281.174 103.247C280.413 102.486 279.179 102.486 278.418 103.247C277.657 104.008 277.657 105.242 278.418 106.003C279.179 106.764 280.413 106.764 281.174 106.003Z" fill="#3F4D79"/>
<path d="M286.179 106.003C286.94 105.242 286.94 104.008 286.179 103.247C285.418 102.486 284.184 102.486 283.423 103.247C282.662 104.008 282.662 105.242 283.423 106.003C284.184 106.764 285.418 106.764 286.179 106.003Z" fill="#3F4D79"/>
<path d="M336.497 123.207H297.062V147.822H336.497V123.207Z" fill="#FFB000"/>
<path d="M336.497 123.207L316.779 135.515L297.062 123.207H336.497Z" fill="#3F4D79"/>
<path d="M341.252 123.352C341.751 121.241 340.444 119.127 338.334 118.628C336.223 118.13 334.109 119.437 333.61 121.547C333.112 123.657 334.419 125.772 336.529 126.27C338.639 126.769 340.754 125.462 341.252 123.352Z" fill="#3F4D79"/>
<path d="M337.358 120.838H337.346L336.607 121.237L336.496 120.8L337.424 120.303H337.913V124.549H337.358L337.358 120.838Z" fill="#FFB000"/>
<path d="M352.704 302.968H265.364C262.06 302.968 259.382 300.29 259.382 296.986V239.989C259.382 236.685 262.06 234.007 265.364 234.007H352.704C356.008 234.007 358.686 236.685 358.686 239.989V296.986C358.686 300.29 356.008 302.968 352.704 302.968Z" fill="white"/>
<path d="M352.703 303.167H265.363C261.955 303.167 259.182 300.394 259.182 296.986V239.988C259.182 236.58 261.955 233.807 265.363 233.807H352.703C356.112 233.807 358.885 236.58 358.885 239.988V296.986C358.885 300.394 356.112 303.167 352.703 303.167ZM265.363 234.206C262.175 234.206 259.581 236.8 259.581 239.988V296.986C259.581 300.174 262.175 302.768 265.363 302.768H352.703C355.892 302.768 358.486 300.174 358.486 296.986V239.988C358.486 236.8 355.892 234.206 352.703 234.206H265.363Z" fill="#3F4D79"/>
<path d="M358.686 243.141H259.382V243.54H358.686V243.141Z" fill="#3F4D79"/>
<path d="M268.647 240.914C269.724 240.914 270.596 240.041 270.596 238.965C270.596 237.888 269.724 237.016 268.647 237.016C267.571 237.016 266.698 237.888 266.698 238.965C266.698 240.041 267.571 240.914 268.647 240.914Z" fill="#FFB000"/>
<path d="M273.797 240.914C274.873 240.914 275.746 240.041 275.746 238.965C275.746 237.888 274.873 237.016 273.797 237.016C272.72 237.016 271.848 237.888 271.848 238.965C271.848 240.041 272.72 240.914 273.797 240.914Z" fill="#3F4D79"/>
<path d="M278.801 240.914C279.878 240.914 280.75 240.041 280.75 238.965C280.75 237.888 279.878 237.016 278.801 237.016C277.725 237.016 276.853 237.888 276.853 238.965C276.853 240.041 277.725 240.914 278.801 240.914Z" fill="#3F4D79"/>
<path d="M326.537 254.912H268.647V292.491H326.537V254.912Z" fill="#F0F0FF"/>
<path d="M291.243 266.764V279.284C291.243 281.145 293.283 282.285 294.868 281.31L305.568 274.728C307.118 273.775 307.067 271.506 305.476 270.623L294.776 264.684C293.191 263.804 291.243 264.951 291.243 266.764Z" fill="#FFB7D5"/>
<path d="M354.028 254.912H334.892V266.309H354.028V254.912Z" fill="#F0F0FF"/>
<path d="M354.028 268.003H334.892V279.4H354.028V268.003Z" fill="#F0F0FF"/>
<path d="M354.028 281.094H334.892V292.491H354.028V281.094Z" fill="#F0F0FF"/>
<path d="M162.017 90.9251H74.6762C71.3726 90.9251 68.6943 88.2469 68.6943 84.9432V27.9457C68.6943 24.6421 71.3726 21.9639 74.6762 21.9639H162.017C165.32 21.9639 167.998 24.6421 167.998 27.9457V84.9432C167.998 88.2469 165.32 90.9251 162.017 90.9251Z" fill="white"/>
<path d="M162.016 91.1243H74.6759C71.2674 91.1243 68.4941 88.3512 68.4941 84.9426V27.9452C68.4941 24.5367 71.2672 21.7637 74.6759 21.7637H162.016C165.425 21.7637 168.198 24.5367 168.198 27.9452V84.9428C168.198 88.3512 165.425 91.1243 162.016 91.1243ZM74.6759 22.163C71.4875 22.163 68.8935 24.757 68.8935 27.9452V84.9428C68.8935 88.1312 71.4875 90.7251 74.6759 90.7251H162.016C165.205 90.7251 167.799 88.1312 167.799 84.9428V27.9452C167.799 24.757 165.205 22.163 162.016 22.163H74.6759Z" fill="#3F4D79"/>
<path d="M167.999 31.0977H68.6943V31.497H167.999V31.0977Z" fill="#3F4D79"/>
<path d="M79.3384 28.3C80.0995 27.5389 80.0995 26.3049 79.3384 25.5438C78.5773 24.7827 77.3433 24.7827 76.5822 25.5438C75.8211 26.3049 75.8211 27.5389 76.5822 28.3C77.3433 29.0611 78.5773 29.0611 79.3384 28.3Z" fill="#FFB000"/>
<path d="M85.0081 27.3637C85.2544 26.3158 84.6046 25.2667 83.5567 25.0204C82.5089 24.7742 81.4598 25.424 81.2135 26.4718C80.9672 27.5197 81.617 28.5688 82.6649 28.8151C83.7127 29.0613 84.7618 28.4115 85.0081 27.3637Z" fill="#3F4D79"/>
<path d="M90.013 27.3637C90.2593 26.3158 89.6095 25.2667 88.5616 25.0205C87.5138 24.7742 86.4647 25.424 86.2184 26.4718C85.9721 27.5197 86.6219 28.5688 87.6698 28.8151C88.7176 29.0613 89.7667 28.4115 90.013 27.3637Z" fill="#3F4D79"/>
<path d="M110.657 43.625L95.0566 53.1936C97.3033 54.3387 98.1965 57.0882 97.0515 59.3349L95.6693 62.0468L100.246 64.3792L104.822 66.7115L106.205 63.9996C107.35 61.7529 110.099 60.8597 112.346 62.0049L110.657 43.625Z" fill="white"/>
<path d="M104.822 66.911C104.791 66.911 104.76 66.9036 104.731 66.8893L95.5781 62.2243C95.4798 62.1742 95.4409 62.054 95.4908 61.9558L96.8728 59.2438C97.9661 57.0987 97.1105 54.4643 94.9654 53.3712C94.9011 53.3382 94.8594 53.2733 94.8566 53.201C94.8538 53.1288 94.8901 53.0607 94.9518 53.0229L110.552 43.4543C110.611 43.4181 110.684 43.4151 110.746 43.4459C110.807 43.4768 110.849 43.5373 110.855 43.6062L112.544 61.9861C112.551 62.0586 112.518 62.1289 112.457 62.1696C112.397 62.2104 112.32 62.2154 112.255 62.1822C110.11 61.0891 107.475 61.9448 106.382 64.0898L105 66.8018C104.976 66.8489 104.934 66.8847 104.884 66.901C104.863 66.9078 104.843 66.911 104.822 66.911ZM95.9375 61.9592L104.735 66.4427L106.026 63.9087C107.166 61.6734 109.838 60.7209 112.115 61.6776L110.487 43.9631L95.4519 53.1851C97.5674 54.4643 98.3689 57.1886 97.2291 59.4253L95.9375 61.9592Z" fill="#3F4D79"/>
<path d="M104.27 67.5673L94.8271 62.7549L91.5867 69.1131L101.029 73.9255L104.27 67.5673Z" fill="white"/>
<path d="M101.027 74.1183C100.997 74.1183 100.966 74.1113 100.937 74.0966L91.4948 69.2845C91.3966 69.2344 91.3575 69.1141 91.4076 69.0159L94.6479 62.6578C94.6721 62.6107 94.7138 62.575 94.7641 62.5586C94.8144 62.5422 94.8692 62.5466 94.9165 62.5706L104.359 67.3826C104.406 67.4068 104.442 67.4485 104.458 67.4989C104.474 67.5492 104.47 67.6041 104.446 67.6512L101.206 74.0093C101.17 74.0784 101.1 74.1183 101.027 74.1183ZM91.8541 69.0191L100.94 73.6499L103.999 67.6476L94.9131 63.0169L91.8541 69.0191Z" fill="#3F4D79"/>
<path d="M107.286 66.5438L94.0996 59.8232L92.605 62.7559L105.791 69.4765L107.286 66.5438Z" fill="#FFB000"/>
<path d="M103.778 57.3228C103.747 57.3228 103.716 57.3158 103.687 57.3011C103.589 57.2509 103.55 57.1307 103.6 57.0325L110.32 43.8465C110.37 43.7482 110.49 43.7089 110.589 43.7592C110.687 43.8093 110.726 43.9296 110.676 44.0278L103.956 57.2138C103.92 57.2829 103.85 57.3228 103.778 57.3228Z" fill="#3F4D79"/>
<path d="M103.355 59.7012C103.156 60.0924 102.677 60.248 102.286 60.0487C101.895 59.8492 101.739 59.3706 101.938 58.9792C102.138 58.588 102.616 58.4324 103.008 58.6317C103.399 58.8312 103.555 59.3099 103.355 59.7012Z" fill="#FFB000"/>
<path d="M133.883 300.502H61.9858C59.2663 300.502 57.0615 298.297 57.0615 295.577V248.658C57.0615 245.938 59.2661 243.733 61.9858 243.733H133.883C136.603 243.733 138.808 245.938 138.808 248.658V295.577C138.808 298.297 136.603 300.502 133.883 300.502Z" fill="white"/>
<path d="M133.883 300.701H61.9853C59.1599 300.701 56.8613 298.403 56.8613 295.578V248.658C56.8613 245.833 59.1599 243.534 61.9853 243.534H133.883C136.708 243.534 139.007 245.833 139.007 248.658V295.578C139.007 298.403 136.708 300.701 133.883 300.701ZM61.9853 243.934C59.3802 243.934 57.2607 246.053 57.2607 248.658V295.578C57.2607 298.183 59.3802 300.302 61.9853 300.302H133.883C136.488 300.302 138.607 298.183 138.607 295.578V248.658C138.607 246.053 136.488 243.934 133.883 243.934H61.9853Z" fill="#3F4D79"/>
<path d="M138.808 251.218H57.0615V251.617H138.808V251.218Z" fill="#3F4D79"/>
<path d="M64.6893 249.42C65.5753 249.42 66.2935 248.701 66.2935 247.815C66.2935 246.929 65.5753 246.211 64.6893 246.211C63.8032 246.211 63.085 246.929 63.085 247.815C63.085 248.701 63.8032 249.42 64.6893 249.42Z" fill="#FFB000"/>
<path d="M68.9275 249.42C69.8136 249.42 70.5318 248.701 70.5318 247.815C70.5318 246.929 69.8136 246.211 68.9275 246.211C68.0415 246.211 67.3232 246.929 67.3232 247.815C67.3232 248.701 68.0415 249.42 68.9275 249.42Z" fill="#3F4D79"/>
<path d="M73.0467 249.42C73.9327 249.42 74.651 248.701 74.651 247.815C74.651 246.929 73.9327 246.211 73.0467 246.211C72.1606 246.211 71.4424 246.929 71.4424 247.815C71.4424 248.701 72.1606 249.42 73.0467 249.42Z" fill="#3F4D79"/>
<path d="M77.7021 268.07V258.442C77.7021 257.191 78.7162 256.177 79.9672 256.177H86.3816C87.6326 256.177 88.6467 257.191 88.6467 258.442C88.6467 259.567 89.5586 260.479 90.6835 260.479H103.07C104.678 260.479 105.981 261.782 105.981 263.389V268.07H77.7021Z" fill="#3F4D79"/>
<path d="M113.887 290.607H80.4546C78.9344 290.607 77.7021 289.374 77.7021 287.854V265.475C77.7021 263.955 78.9344 262.723 80.4546 262.723H113.887C115.407 262.723 116.639 263.955 116.639 265.475V287.854C116.639 289.374 115.407 290.607 113.887 290.607Z" fill="#FFB000"/>
<path d="M104.798 275.576H98.2588V269.036H96.0814V275.576H89.542V277.753H96.0814V284.292H98.2588V277.753H104.798V275.576Z" fill="white"/>
<path d="M204.733 98.5503H132.759C130.036 98.5503 127.829 96.3433 127.829 93.6208V46.6512C127.829 43.9286 130.036 41.7217 132.759 41.7217H204.733C207.455 41.7217 209.662 43.9286 209.662 46.6512V93.6206C209.662 96.3431 207.455 98.5503 204.733 98.5503Z" fill="white"/>
<path d="M204.732 98.7493H132.758C129.93 98.7493 127.629 96.4485 127.629 93.6203V46.6507C127.629 43.8223 129.93 41.5215 132.758 41.5215H204.732C207.56 41.5215 209.861 43.8223 209.861 46.6507V93.6201C209.861 96.4485 207.56 98.7493 204.732 98.7493ZM132.758 41.9209C130.15 41.9209 128.028 44.0425 128.028 46.6507V93.6201C128.028 96.228 130.15 98.3497 132.758 98.3497H204.732C207.34 98.3497 209.462 96.228 209.462 93.6201V46.6507C209.462 44.0425 207.34 41.9209 204.732 41.9209H132.758Z" fill="#3F4D79"/>
<path d="M209.662 49.2129H127.829V49.6123H209.662V49.2129Z" fill="#3F4D79"/>
<path d="M135.465 47.4134C136.352 47.4134 137.072 46.6943 137.072 45.8073C137.072 44.9202 136.352 44.2012 135.465 44.2012C134.578 44.2012 133.859 44.9202 133.859 45.8073C133.859 46.6943 134.578 47.4134 135.465 47.4134Z" fill="#FFB000"/>
<path d="M139.707 47.4134C140.594 47.4134 141.313 46.6943 141.313 45.8073C141.313 44.9202 140.594 44.2012 139.707 44.2012C138.82 44.2012 138.101 44.9202 138.101 45.8073C138.101 46.6943 138.82 47.4134 139.707 47.4134Z" fill="#3F4D79"/>
<path d="M143.832 47.4134C144.719 47.4134 145.438 46.6943 145.438 45.8073C145.438 44.9202 144.719 44.2012 143.832 44.2012C142.945 44.2012 142.226 44.9202 142.226 45.8073C142.226 46.6943 142.945 47.4134 143.832 47.4134Z" fill="#3F4D79"/>
<path d="M163.377 80.301H146.316V55.7158H159.539L163.377 59.3873V80.301Z" fill="#3F4D79"/>
<path d="M161.267 60.0547H148.426V61.4433H161.267V60.0547Z" fill="white"/>
<path d="M161.267 62.7842H148.426V64.1728H161.267V62.7842Z" fill="white"/>
<path d="M161.267 65.5137H148.426V66.9023H161.267V65.5137Z" fill="white"/>
<path d="M161.267 68.0078H148.426V69.3964H161.267V68.0078Z" fill="white"/>
<path d="M161.267 70.5049H148.426V71.8935H161.267V70.5049Z" fill="white"/>
<path d="M161.267 73H148.426V74.3886H161.267V73Z" fill="white"/>
<path d="M161.267 75.4941H148.426V76.8828H161.267V75.4941Z" fill="white"/>
<path d="M153.371 86.8655H136.312V62.2803H149.534L153.371 65.9517V86.8655Z" fill="#FFB000"/>
<path d="M151.262 66.6191H138.421V68.0078H151.262V66.6191Z" fill="white"/>
<path d="M151.262 69.3486H138.421V70.7373H151.262V69.3486Z" fill="white"/>
<path d="M151.262 72.0781H138.421V73.4668H151.262V72.0781Z" fill="white"/>
<path d="M151.262 74.5723H138.421V75.9609H151.262V74.5723Z" fill="white"/>
<path d="M151.262 77.0693H138.421V78.458H151.262V77.0693Z" fill="white"/>
<path d="M151.262 79.5645H138.421V80.9531H151.262V79.5645Z" fill="white"/>
<path d="M151.262 82.0586H138.421V83.4472H151.262V82.0586Z" fill="white"/>
<path d="M350.985 217.598H279.087C276.368 217.598 274.163 215.393 274.163 212.674V165.754C274.163 163.035 276.368 160.83 279.087 160.83H350.985C353.704 160.83 355.909 163.035 355.909 165.754V212.674C355.909 215.393 353.704 217.598 350.985 217.598Z" fill="white"/>
<path d="M350.985 217.798H279.088C276.262 217.798 273.964 215.5 273.964 212.675V165.755C273.964 162.929 276.262 160.631 279.088 160.631H350.985C353.81 160.631 356.109 162.929 356.109 165.755V212.675C356.109 215.5 353.811 217.798 350.985 217.798ZM279.088 161.03C276.483 161.03 274.363 163.15 274.363 165.755V212.675C274.363 215.28 276.483 217.399 279.088 217.399H350.985C353.591 217.399 355.71 215.28 355.71 212.675V165.755C355.71 163.15 353.591 161.03 350.985 161.03H279.088Z" fill="#3F4D79"/>
<path d="M355.909 168.314H274.163V168.714H355.909V168.314Z" fill="#3F4D79"/>
<path d="M281.792 166.516C282.678 166.516 283.396 165.798 283.396 164.912C283.396 164.026 282.678 163.308 281.792 163.308C280.906 163.308 280.188 164.026 280.188 164.912C280.188 165.798 280.906 166.516 281.792 166.516Z" fill="#FFB000"/>
<path d="M286.03 166.516C286.916 166.516 287.634 165.798 287.634 164.912C287.634 164.026 286.916 163.308 286.03 163.308C285.144 163.308 284.426 164.026 284.426 164.912C284.426 165.798 285.144 166.516 286.03 166.516Z" fill="#3F4D79"/>
<path d="M290.149 166.516C291.035 166.516 291.754 165.798 291.754 164.912C291.754 164.026 291.035 163.308 290.149 163.308C289.263 163.308 288.545 164.026 288.545 164.912C288.545 165.798 289.263 166.516 290.149 166.516Z" fill="#3F4D79"/>
<path d="M347.706 188.265H284.426V192.159H347.706V188.265Z" fill="#F0F0FF"/>
<path d="M320.707 188.265H284.426V192.159H320.707V188.265Z" fill="#FFB000"/>
<path d="M320.707 195.013H284.426V195.412H320.707V195.013Z" fill="#3F4D79"/>
<path d="M320.707 197.509H284.426V197.908H320.707V197.509Z" fill="#3F4D79"/>
<path d="M320.707 200.006H284.426V200.405H320.707V200.006Z" fill="#3F4D79"/>
<path d="M320.707 202.502H284.426V202.901H320.707V202.502Z" fill="#3F4D79"/>
<path d="M320.707 204.999H284.426V205.398H320.707V204.999Z" fill="#3F4D79"/>
<path d="M188.035 309.653L189.341 312.924L184.046 316.326L189.994 319.373L198.626 317.487L197.538 306.824L188.035 309.653Z" fill="#E57281"/>
<path d="M206.753 305.463H194.69V320.383H206.753V305.463Z" fill="#E57281"/>
<path d="M196.028 317.208C192.55 317.787 186.912 318.159 183.559 315.422L166.05 323.378C163.555 324.512 161.953 327 161.953 329.74H199.076V319.782C199.077 318.165 197.623 316.943 196.028 317.208Z" fill="#3C4564"/>
<path d="M175.956 316.81L174.468 317.527L177.285 323.372L178.773 322.655L175.956 316.81Z" fill="#F1921B"/>
<path d="M171.6 318.911L170.112 319.628L172.93 325.473L174.417 324.756L171.6 318.911Z" fill="#F1921B"/>
<path d="M209.066 332.234H192.491V323.862C192.491 320.959 194.844 318.606 197.747 318.606H203.81C206.713 318.606 209.066 320.959 209.066 323.862V332.234H209.066Z" fill="#3F4D79"/>
<path d="M204.463 320.204H197.094V321.746H204.463V320.204Z" fill="#FFB000"/>
<path d="M204.463 322.58H197.094V324.122H204.463V322.58Z" fill="#FFB000"/>
<path d="M205.933 156.523C205.765 155.124 204.577 154.071 203.168 154.071H198.791H170.241H165.882C164.469 154.071 163.277 155.129 163.117 156.532C163.116 156.54 163.115 156.549 163.114 156.557C163.012 157.447 162.916 158.338 162.822 159.229C162.695 160.434 162.575 161.639 162.459 162.844C162.314 164.358 162.177 165.872 162.045 167.387C161.888 169.205 161.74 171.024 161.6 172.844C161.437 174.961 161.284 177.079 161.141 179.198C160.979 181.609 160.829 184.021 160.69 186.434C160.534 189.135 160.392 191.836 160.263 194.539C160.121 197.524 159.994 200.509 159.882 203.495C159.76 206.76 159.654 210.024 159.565 213.29C159.469 216.828 159.391 220.367 159.332 223.906C159.253 228.602 159.216 233.438 159.197 238.188C159.179 242.78 158.623 247.808 159.973 252.264C160.683 254.608 161.895 256.752 162.927 258.962C164.515 262.359 166.044 265.784 167.616 269.189C169.233 272.69 170.861 276.186 172.502 279.675C174.21 283.308 175.932 286.935 177.67 290.554C179.447 294.251 181.24 297.939 183.054 301.618C184.219 303.98 185.393 306.337 186.576 308.69C187.243 310.016 188.834 310.583 190.191 309.984L192.981 308.751C193.403 308.565 193.869 308.733 194.095 309.089C194.532 309.777 195.623 310.295 196.438 310.295H205.055C206.539 310.295 207.762 309.131 207.838 307.649C212.401 218.411 207.293 167.851 205.933 156.523ZM180.554 246.983L183.629 213.567C183.728 212.487 185.305 212.487 185.404 213.567L190.86 272.861C190.956 273.914 189.464 274.229 189.127 273.227L180.688 248.125C180.564 247.758 180.519 247.369 180.554 246.983Z" fill="#3F4D79"/>
<path d="M190.86 272.86L194.689 305.464L189.127 273.226L190.86 272.86Z" fill="#3C4564"/>
<path d="M211.678 80.4776C211.145 77.8064 208.802 75.9493 207.215 73.7347C206.929 73.335 206.659 72.9032 206.582 72.4176C206.513 71.9851 206.603 71.5454 206.667 71.1124C206.953 69.1936 206.677 67.0686 205.369 65.6358C203.966 64.0984 201.721 63.6872 199.641 63.6086C199.136 63.5896 198.615 63.5818 198.15 63.3841C197.458 63.0906 197.002 62.4314 196.406 61.9757C195.236 61.0827 193.534 61.0568 192.23 61.7401C190.927 62.4234 190.014 63.7266 189.601 65.1392C189.243 66.3625 189.244 67.668 189.384 68.9712C186.197 67.9082 182.731 67.7689 179.367 68.049C177.382 68.2144 175.304 68.5632 173.754 69.8141C172.046 71.1923 171.357 73.3837 171.199 75.5012C171.161 76.01 171.062 76.7818 171.102 77.4501C171.027 77.9995 171.018 78.6055 171.039 79.2585C171.123 81.8301 171.874 84.3825 173.23 86.5717C173.434 86.9008 173.655 87.2263 173.951 87.4745C174.238 87.7139 174.584 87.8719 174.941 87.9835C175.471 88.1494 176.031 88.2173 176.586 88.1808C177.789 88.1015 178.891 87.546 179.94 86.9277C180.429 87.5394 180.925 88.1438 181.448 88.7219C183.93 91.4664 187.492 93.8008 191.119 93.0667C193.276 92.6302 195.122 91.1306 196.31 89.2783C196.907 88.3471 197.352 87.3325 197.684 86.2765C198.434 87.0072 199.243 87.6668 200.147 88.2033C201.382 88.9366 202.752 89.416 204.14 89.7861C205.755 90.217 207.561 90.485 209.032 89.6908C210.147 89.0896 210.894 87.9505 211.281 86.745C211.669 85.5395 211.737 84.2577 211.786 82.9925C211.818 82.1518 211.843 81.3023 211.678 80.4776Z" fill="#3F4D79"/>
<path d="M189.342 68.9548C189.342 68.9548 196.524 73.6404 198.465 79.1191L199.1 79.1606C199.1 79.1606 198.133 70.4988 189.249 67.5693L189.342 68.9548Z" fill="#E6E6FF"/>
<path d="M188.614 84.7835C188.359 84.7927 188.12 84.8524 187.893 84.9356L187.888 84.8096C184.697 84.3418 182.554 83.4905 181.112 82.5374C182.031 83.3669 183.268 84.2361 184.946 85.076C185.101 85.1535 185.163 85.3416 185.086 85.4962C185.033 85.6024 184.928 85.6651 184.817 85.6691C184.766 85.6709 184.714 85.6603 184.666 85.6361C180.774 83.6882 179.108 81.5659 178.396 80.0557C178.119 80.5367 177.791 80.99 177.446 81.4257C176.872 82.1494 176.255 82.8501 175.509 83.3932C175.099 83.6914 174.644 83.9322 174.166 84.0989L173.467 93.8483C173.453 94.046 173.453 94.2461 173.489 94.441C173.727 95.7154 174.966 96.594 176.284 96.341L178.323 95.9494L178.719 106.991L190.399 106.572L188.227 89.4338C188.407 89.4706 188.591 89.4933 188.783 89.4863C190.082 89.4398 191.096 88.3493 191.05 87.0505C191.003 85.752 189.913 84.7369 188.614 84.7835Z" fill="#E57281"/>
<path d="M176.305 85.6547C176.325 86.2208 176.18 86.6855 175.98 86.6927C175.78 86.6998 175.601 86.2468 175.581 85.6806C175.561 85.1145 175.706 84.6498 175.906 84.6427C176.106 84.6357 176.285 85.0886 176.305 85.6547Z" fill="#2F3A5B"/>
<path d="M180.169 85.517C180.19 86.0831 180.044 86.5478 179.844 86.555C179.644 86.5621 179.466 86.1091 179.445 85.5429C179.425 84.9768 179.571 84.5122 179.771 84.505C179.97 84.498 180.149 84.9511 180.169 85.517Z" fill="#2F3A5B"/>
<path d="M177.631 85.372L176.325 90.004C176.226 90.3566 176.499 90.7041 176.865 90.6909L177.282 90.6759C177.508 90.6677 177.688 90.4844 177.692 90.2586L177.778 85.3938C177.78 85.3059 177.655 85.2875 177.631 85.372Z" fill="#2F3A5B"/>
<path d="M178.321 95.9488L182.455 94.9238L178.439 99.2331L178.321 95.9488Z" fill="#2F3A5B"/>
<path d="M188.16 88.6413C188.275 88.6371 188.365 88.5404 188.361 88.4252L188.287 86.3638C188.283 86.2574 188.367 86.1675 188.473 86.1637L189.163 86.139C189.278 86.1348 189.368 86.0381 189.364 85.9229C189.36 85.8077 189.263 85.7176 189.148 85.7218L188.458 85.7466C188.122 85.7586 187.858 86.0423 187.87 86.3788L187.943 88.4402C187.948 88.5552 188.044 88.6453 188.16 88.6413Z" fill="#2F3A5B"/>
<path d="M175.487 93.7361C175.409 93.7361 175.334 93.6938 175.296 93.6199C175.242 93.5149 175.283 93.3857 175.389 93.3316C175.47 93.2896 177.392 92.3152 178.694 93.0147C178.799 93.0706 178.838 93.2004 178.782 93.3046C178.726 93.4088 178.596 93.4482 178.492 93.3921C177.389 92.8 175.603 93.7036 175.585 93.7126C175.553 93.7285 175.52 93.7361 175.487 93.7361Z" fill="#2F3A5B"/>
<path d="M229.473 130.426L207.593 108.29C204.088 104.744 199.31 102.748 194.324 102.748H177.112C172.122 102.748 167.34 104.747 163.834 108.298L141.99 130.426L160.679 149.165C160.343 154.684 160.386 153.972 160.05 159.491C159.836 162.993 159.623 166.495 159.41 169.997C159.336 171.2 158.83 173.012 159.097 174.117C159.694 176.584 163.141 178.065 165.329 178.51C168.171 179.089 171.115 178.808 173.998 179.123C179.289 179.7 184.14 182.242 189.261 183.693C194.797 185.26 200.693 185.535 206.35 184.492C207.243 184.327 208.164 184.114 208.874 183.549C209.898 182.735 210.276 181.365 210.501 180.076C210.877 177.919 210.974 175.716 210.821 173.531C210.908 173.531 210.995 173.531 211.081 173.531L210.728 149.895L229.473 130.426Z" fill="#FFB000"/>
<path d="M210.809 143.882C210.584 143.882 210.395 143.707 210.381 143.48L209.268 125.081C209.254 124.845 209.434 124.642 209.67 124.628C209.904 124.615 210.109 124.793 210.123 125.029L211.237 143.428C211.251 143.664 211.071 143.867 210.835 143.881C210.826 143.882 210.817 143.882 210.809 143.882Z" fill="#3F4D79"/>
<path d="M160.68 149.593C160.668 149.593 160.656 149.592 160.644 149.591C160.408 149.572 160.233 149.365 160.252 149.129L162.145 126.39C162.165 126.154 162.373 125.981 162.608 125.998C162.843 126.018 163.019 126.225 162.999 126.461L161.106 149.2C161.088 149.424 160.9 149.593 160.68 149.593Z" fill="#3F4D79"/>
<path d="M238.529 188.271L235.784 188.886L221.23 138.988L210.728 149.895L229.524 191.207C229.904 192.042 230.736 192.578 231.654 192.578H247.557C248.095 192.578 248.281 191.862 247.812 191.6L243.026 188.926C241.659 188.162 240.058 187.929 238.529 188.271Z" fill="#E57281"/>
<path d="M243.509 192.792C243.465 192.792 243.42 192.779 243.382 192.751C243.287 192.68 243.267 192.546 243.337 192.451L243.815 191.804L241.743 190.659C240.809 190.144 239.714 189.939 238.657 190.08L236.571 190.361C236.453 190.378 236.346 190.294 236.33 190.177C236.314 190.06 236.397 189.952 236.514 189.936L238.601 189.656C239.746 189.502 240.936 189.725 241.95 190.285L244.236 191.547C244.29 191.577 244.328 191.628 244.342 191.689C244.355 191.749 244.341 191.812 244.304 191.862L243.681 192.705C243.639 192.763 243.575 192.792 243.509 192.792Z" fill="#3F4D79"/>
<path d="M204.105 150.757H182.263C181.297 150.757 180.515 149.974 180.515 149.009H205.853C205.853 149.974 205.07 150.757 204.105 150.757Z" fill="#3F4D79"/>
<path d="M199.319 139.855C197.737 139.855 196.454 141.138 196.454 142.72C196.454 141.138 195.172 139.855 193.59 139.855C192.008 139.855 190.725 141.138 190.725 142.72C190.725 141.138 189.443 139.855 187.861 139.855C186.279 139.855 184.996 141.138 184.996 142.72V149.009H190.725H196.454H202.183V142.72C202.183 141.138 200.901 139.855 199.319 139.855Z" fill="white"/>
<path d="M189.435 150.863C188.81 150.626 186.084 149.593 184.278 148.94L190.176 148.284C190.484 148.25 190.746 148.044 190.852 147.753L191.086 147.113C191.119 147.021 191.054 146.924 190.957 146.92L182.616 146.59C182.375 146.581 182.133 146.588 181.892 146.612L153.303 149.477L157.227 145.704L147.267 135.717L134.477 153.657L134.043 154.267C131.338 158.061 134.698 163.203 139.26 162.249L180.133 153.26C180.607 153.156 181.095 153.138 181.574 153.208L187.534 154.07C187.534 154.07 194.03 153.756 194.033 153.756C195.135 153.703 195.987 153.02 196.454 152.055C194.421 151.573 192.291 151.361 190.229 151.022C190.053 150.993 189.876 150.964 189.7 150.935C189.61 150.92 189.521 150.896 189.435 150.863Z" fill="#E57281"/>
<path d="M195.145 153.676C195.138 153.676 195.131 153.676 195.124 153.675L188.824 153.048C188.809 153.046 188.795 153.043 188.781 153.039L182.197 150.961C182.084 150.926 182.021 150.805 182.057 150.693C182.092 150.58 182.213 150.518 182.326 150.553L188.889 152.624L195.166 153.249C195.284 153.261 195.37 153.365 195.358 153.483C195.347 153.594 195.254 153.676 195.145 153.676Z" fill="#3F4D79"/>
</svg>
