<svg width="473" height="316" viewBox="0 0 473 316" fill="none" xmlns="http://www.w3.org/2000/svg">
<path d="M455.095 268.112C389.192 244.008 339.062 244.98 339.062 244.98C200.626 247.664 200.503 234.23 133.984 247.204C88.0339 256.167 38.0121 272.346 39.2298 281.013C40.4494 289.694 91.5313 279.858 174.021 297.918C211.034 306.021 216.383 311.424 239.414 310.819C281.509 309.711 293.745 290.87 330.609 295.693C359.497 299.473 358.936 311.953 387.106 314.822C430.147 319.206 474.469 294.45 472.963 280.568C472.347 274.898 464.128 271.416 455.095 268.112Z" fill="#F4F7FA"/>
<path d="M128.18 264.12C119.186 265.086 88.7243 268.327 88.7178 272.702C88.7147 274.816 95.8233 276.421 140.748 284.226C159.845 287.543 178.812 290.762 193.478 293.305C231.27 299.858 229.028 300.432 236.429 300.987C262.756 302.963 272.876 296.318 304.872 290.861C329.238 286.704 325.227 290.241 384.839 286.321C417.605 284.166 467.486 280.886 467.599 275.496C467.649 273.064 457.556 270.997 451.885 269.909C315.923 243.824 128.18 264.12 128.18 264.12Z" fill="#D8DEE8"/>
<path d="M416.268 297.845C399.218 296.754 376.435 298.371 376.11 302.384C375.836 305.761 391.464 310.767 405.792 311.464C423.689 312.334 441.644 306.585 441.41 303.083C441.167 299.438 421.212 298.161 416.268 297.845Z" fill="#D8DEE8"/>
<path d="M309.696 166.943C307.741 166.943 305.88 166.224 304.546 164.945C303.278 163.728 302.58 162.109 302.58 160.387V99.0883C302.58 95.3169 305.912 92.249 310.007 92.249H454.396C457.869 92.249 460.694 95.065 460.694 98.5262V154.49C460.694 157.943 457.876 160.867 454.412 161.01L310.023 166.937C309.914 166.941 309.804 166.943 309.696 166.943ZM310.008 93.0088C306.331 93.0088 303.34 95.7361 303.34 99.0882V160.387C303.34 161.9 303.955 163.324 305.073 164.396C306.332 165.605 308.128 166.251 309.992 166.177L454.381 160.251C457.443 160.124 459.935 157.54 459.935 154.49V98.5261C459.935 95.4837 457.45 93.0088 454.396 93.0088H310.008Z" fill="#BFC8D6"/>
<path d="M456.868 104.05L307.098 105.144L307.103 105.903L456.873 104.81L456.868 104.05Z" fill="#BFC8D6"/>
<path d="M435.955 98.7879C435.955 100.125 434.854 101.215 433.494 101.222C432.132 101.229 431.026 100.147 431.026 98.806C431.026 97.4647 432.132 96.3752 433.494 96.3721C434.854 96.369 435.955 97.4506 435.955 98.7879Z" fill="#BFC8D6"/>
<path d="M444.416 98.7561C444.416 100.087 443.326 101.171 441.98 101.178C440.632 101.185 439.537 100.108 439.537 98.7741C439.537 97.4397 440.632 96.3555 441.98 96.3525C443.326 96.3494 444.416 97.4255 444.416 98.7561Z" fill="#BFC8D6"/>
<path d="M452.789 98.7255C452.789 100.049 451.71 101.128 450.377 101.135C449.043 101.142 447.959 100.071 447.959 98.7433C447.959 97.4156 449.043 96.3369 450.377 96.334C451.71 96.3309 452.789 97.4016 452.789 98.7255Z" fill="#BFC8D6"/>
<path d="M456.855 121.975L382.511 123.295V113.69L456.855 112.784V121.975Z" fill="url(#paint0_linear_43_8686)"/>
<path d="M456.855 134.074L382.511 135.937V126.332L456.855 124.883V134.074Z" fill="url(#paint1_linear_43_8686)"/>
<path d="M456.855 146.168L382.511 148.574V138.97L456.855 136.977V146.168Z" fill="url(#paint2_linear_43_8686)"/>
<path d="M107.136 120.143C102.916 120.143 99.4472 116.845 99.3852 112.756L98.1307 30.1475C98.1011 28.181 98.8512 26.3374 100.243 24.9562C101.699 23.5122 103.661 22.7378 105.785 22.7928L246.012 26.0381C249.881 26.1279 253.058 29.3996 253.092 33.3308L253.777 111.591C253.811 115.503 250.698 118.716 246.837 118.754L107.217 120.142C107.19 120.143 107.163 120.143 107.136 120.143ZM105.596 23.5504C103.752 23.5504 102.047 24.2376 100.779 25.4957C99.5344 26.73 98.8639 28.3782 98.8906 30.1359L100.145 112.744C100.201 116.419 103.33 119.383 107.136 119.383C107.161 119.383 107.185 119.383 107.21 119.382L246.829 117.994C250.272 117.96 253.048 115.091 253.017 111.598L252.332 33.3375C252.301 29.8121 249.458 26.8782 245.994 26.798L105.768 23.5527C105.71 23.5511 105.653 23.5504 105.596 23.5504Z" fill="#BFC8D6"/>
<path d="M112.751 31.8296C112.775 33.4632 111.429 34.7609 109.743 34.7285C108.056 34.6961 106.666 33.3429 106.642 31.7059C106.618 30.0688 107.968 28.7705 109.656 28.8064C111.342 28.8424 112.727 30.1959 112.751 31.8296Z" fill="#BFC8D6"/>
<path d="M122.172 32.0196C122.195 33.6478 120.858 34.9416 119.183 34.9093C117.506 34.8771 116.126 33.5284 116.103 31.897C116.079 30.2651 117.421 28.9711 119.099 29.0066C120.774 29.0421 122.149 30.3913 122.172 32.0196Z" fill="#BFC8D6"/>
<path d="M131.533 32.21C131.555 33.8329 130.226 35.1225 128.562 35.0906C126.896 35.0585 125.525 33.7143 125.502 32.088C125.479 30.4616 126.813 29.1714 128.48 29.2068C130.144 29.2421 131.51 30.5868 131.533 32.21Z" fill="#BFC8D6"/>
<path d="M101.782 39.5664L101.769 40.3262L249.982 42.9056L249.995 42.1458L101.782 39.5664Z" fill="#BFC8D6"/>
<path d="M162.296 57.3254L110.066 56.7157L109.95 48.835L162.199 49.5861L162.296 57.3254Z" fill="url(#paint3_linear_43_8686)"/>
<path d="M162.441 68.7813L110.239 68.381L110.123 60.5078L162.344 61.0494L162.441 68.7813Z" fill="url(#paint4_linear_43_8686)"/>
<path d="M162.585 80.2279L110.411 80.0363L110.295 72.1709L162.488 72.5035L162.585 80.2279Z" fill="url(#paint5_linear_43_8686)"/>
<path d="M104.941 218.382C101.985 227.101 106.542 235.017 110.659 240.232C111.499 240.147 112.011 240.327 112.881 240.443C120.731 241.484 124.218 240.152 132.056 239.881C133.743 239.822 138.583 238.042 140.511 237.176L144.079 235.501C144.079 235.501 148.488 214.591 137.557 210.118C126.626 205.646 128.426 185.113 128.116 174.054C127.276 144.047 95.4112 150.2 91.2489 111.726C90.142 101.493 91.4524 81.6077 81.95 74.3817C71.1242 66.1492 64.9249 76.0285 57.7717 68.9407C46.5914 57.8625 30.0936 55.2275 21.8775 68.7434C13.7685 82.0829 27.8598 105.395 58.4623 122.064C79.0622 136.51 79.8852 141.408 79.6901 153.571C79.5535 162.09 73.8818 184.854 86.2324 192.376C98.5833 199.899 108.319 208.415 104.941 218.382Z" fill="url(#paint6_linear_43_8686)"/>
<mask id="mask0_43_8686" style="mask-type:luminance" maskUnits="userSpaceOnUse" x="19" y="59" width="126" height="188">
<path d="M116.357 246.5L143.537 236.303C143.537 236.303 148.491 214.592 137.56 210.12C126.629 205.647 128.429 185.114 128.119 174.055C127.279 144.048 95.414 150.201 91.2518 111.727C90.1447 101.494 91.4553 81.6087 81.9529 74.3828C71.1271 66.1503 64.9278 76.0296 57.7745 68.9416C46.5943 57.8634 30.0965 55.2286 21.8804 68.7443C13.7715 82.0838 27.8626 105.396 58.4652 122.065C79.0651 136.511 79.8881 141.409 79.693 153.572C79.5563 162.091 73.8846 184.855 86.2352 192.377C98.5858 199.9 108.322 208.416 104.943 218.383C99.8022 233.55 116.357 246.5 116.357 246.5Z" fill="white"/>
</mask>
<g mask="url(#mask0_43_8686)">
<g opacity="0.5">
<path d="M128.04 240.629L128.601 240.497C127.816 237.159 126.983 233.802 126.126 230.52C119.778 206.218 111.39 183.388 101.196 162.664C92.5587 145.104 82.5066 128.807 71.3192 114.225C62.3223 102.499 52.5456 91.8134 42.2605 82.4654C35.0301 75.894 27.6254 70.0464 20.2514 65.0855C18.9665 64.2206 17.6042 63.4082 16.2865 62.6224C14.531 61.5756 12.7156 60.4931 11.07 59.2783L10.7285 59.7415C12.3967 60.973 14.2242 62.0629 15.9917 63.1169C17.3028 63.8987 18.6584 64.7072 19.9304 65.5631C27.2811 70.5083 34.6639 76.3386 41.8737 82.8915C52.1332 92.2162 61.8865 102.877 70.8629 114.576C82.0272 129.128 92.0593 145.392 100.68 162.918C110.857 183.607 119.231 206.401 125.57 230.665C126.426 233.943 127.257 237.295 128.04 240.629Z" fill="#FCFDFE"/>
<path d="M83.7398 132.878L84.2319 132.579C71.4147 111.462 76.1704 69.3997 76.2202 68.9774L75.6485 68.9102C75.5987 69.3347 70.8201 111.592 83.7398 132.878Z" fill="#FCFDFE"/>
<path d="M114.415 195.092L114.938 194.853C107.907 179.483 76.7443 170.378 76.4304 170.288L76.2715 170.842C76.5829 170.931 107.493 179.962 114.415 195.092Z" fill="#FCFDFE"/>
<path d="M117.651 204.16L118.208 204.016C115.465 193.33 117.434 177.29 123.752 158.853C124.07 157.925 124.07 157.925 124.044 157.819L123.485 157.956L123.765 157.888L123.481 157.846C123.467 157.91 123.347 158.26 123.208 158.666C116.853 177.209 114.88 193.365 117.651 204.16Z" fill="#FCFDFE"/>
<path d="M126.523 234.559L127.016 234.263C120.752 223.849 102.896 221.389 102.717 221.365L102.642 221.936C102.819 221.959 120.402 224.384 126.523 234.559Z" fill="#FCFDFE"/>
<path d="M128.911 240.582C130.049 230.849 134.018 221.124 141.046 210.852L140.571 210.526C133.489 220.878 129.488 230.687 128.34 240.515L128.911 240.582Z" fill="#FCFDFE"/>
<path d="M47.8423 88.4975L48.3167 88.172C40.5362 76.8286 34.9916 63.108 33.1698 58.5992C32.7287 57.5078 32.5722 57.1242 32.4945 57L32.0068 57.3055C32.0649 57.4011 32.317 58.0249 32.6361 58.815C34.464 63.3379 40.0263 77.1023 47.8423 88.4975Z" fill="#FCFDFE"/>
<path d="M63.2202 105.071L63.5778 104.62C53.4726 96.603 27.8551 99.6414 26.7695 99.7746L26.8398 100.346C27.1031 100.314 53.3036 97.2038 63.2202 105.071Z" fill="#FCFDFE"/>
</g>
</g>
<mask id="mask1_43_8686" style="mask-type:luminance" maskUnits="userSpaceOnUse" x="0" y="124" width="133" height="135">
<path d="M130.516 245.438L107.526 258.885C107.526 258.885 96.3009 249.623 97.0669 238.005C98.6297 214.301 77.7598 214.586 69.0008 213.398C55.7914 211.606 44.9322 204.267 55.6582 192.033C66.3842 179.799 40.9181 166.981 19.168 167.162C-2.11599 167.339 -14.7123 129.607 31.319 124.994C58.8088 122.239 68.8589 147.215 76.9325 158.621C85.0063 170.027 103.461 160.568 105.93 178.826C108.04 194.422 103.46 209.372 116.079 213.562C128.697 217.752 135.135 226.959 130.516 245.438Z" fill="white"/>
</mask>
<g mask="url(#mask1_43_8686)">
<path d="M130.516 245.438L107.526 258.885C107.526 258.885 96.3009 249.623 97.0669 238.005C98.6297 214.301 77.7598 214.586 69.0008 213.398C55.7914 211.606 46.439 204.779 53.8596 192.462C62.2555 178.525 40.9181 166.981 19.168 167.162C-2.11599 167.339 -14.7123 129.607 31.319 124.994C58.8088 122.239 68.8589 147.215 76.9325 158.621C85.0063 170.027 103.461 160.568 105.93 178.826C108.04 194.422 103.46 209.372 116.079 213.562C128.697 217.752 135.135 226.959 130.516 245.438Z" fill="url(#paint7_linear_43_8686)"/>
</g>
<mask id="mask2_43_8686" style="mask-type:luminance" maskUnits="userSpaceOnUse" x="0" y="124" width="133" height="135">
<path d="M130.516 245.438L107.526 258.885C107.526 258.885 96.3009 249.623 97.0669 238.005C98.6297 214.301 77.7598 214.586 69.0008 213.398C55.7914 211.606 44.9322 204.267 55.6582 192.033C66.3842 179.799 40.9181 166.981 19.168 167.162C-2.11599 167.339 -14.7123 129.607 31.319 124.994C58.8088 122.239 68.8589 147.215 76.9325 158.621C85.0063 170.027 103.461 160.568 105.93 178.826C108.04 194.422 103.46 209.372 116.079 213.562C128.697 217.752 135.135 226.959 130.516 245.438Z" fill="white"/>
</mask>
<g mask="url(#mask2_43_8686)">
<g opacity="0.5">
<path d="M121.812 253.392L121.284 253.583C121.165 253.256 109.159 220.522 87.4723 191.661C67.4934 165.072 34.9705 136.425 -6.50956 150.944L-6.69531 150.413C11.7696 143.95 30.0244 145.355 47.5621 154.589C61.5717 161.966 75.1531 174.328 87.9288 191.333C109.663 220.261 121.693 253.064 121.812 253.392Z" fill="#BEB8F2"/>
<path d="M54.724 158.766L54.207 158.987C46.8272 141.79 27.4024 122.592 27.207 122.4L27.6009 121.999C27.7972 122.192 47.3007 141.468 54.724 158.766Z" fill="#BEB8F2"/>
<path d="M42.8709 152.933C20.5796 152.31 8.17181 166.122 8.04929 166.262L7.62695 165.891C7.75136 165.749 20.322 151.74 42.8866 152.371L42.8709 152.933Z" fill="#BEB8F2"/>
<path d="M100.621 211.302C81.8111 191.594 47.4074 204.184 47.0826 204.335L46.8135 203.842C47.1183 203.664 82.0509 191.031 101.028 210.914L100.621 211.302Z" fill="#BEB8F2"/>
<path d="M95.1006 201.521L94.5673 201.7C89.03 185.221 99.0541 165.79 99.156 165.596L99.654 165.857C99.5532 166.049 89.6401 185.272 95.1006 201.521Z" fill="#BEB8F2"/>
<path d="M119.281 248.476C113.372 239.979 96.5323 240.364 96.3629 240.369L96.3467 239.807C97.0506 239.787 113.66 239.407 119.743 248.155L119.281 248.476Z" fill="#BEB8F2"/>
<path d="M116.543 240.685L116.016 240.883C113.133 233.224 119.121 219.312 121.089 214.74C121.367 214.094 121.607 213.537 121.63 213.429L122.181 213.539C122.151 213.692 121.992 214.063 121.605 214.962C119.66 219.483 113.739 233.239 116.543 240.685Z" fill="#BEB8F2"/>
</g>
</g>
<path d="M101.285 267.221C101.288 267.221 101.291 267.227 101.296 267.236C102.972 270.817 106.973 272.628 110.524 270.888C114.619 268.881 119.626 266.664 123.556 265.657L128.179 264.119C128.391 260.038 127.861 256.118 122.698 256.083C114.68 256.028 110.717 243.109 111.4 237.931C112.246 231.521 113.909 216.557 101.514 216.277C91.1951 216.044 84.489 218.003 80.2794 206.033C76.07 194.062 67.2172 188.411 56.3973 192.352C45.0111 196.499 30.9846 183.823 22.982 191.766C9.0379 205.605 31.8696 228.031 54.288 229.918C76.7063 231.804 67.2642 242.438 69.624 252.551C72.8458 266.357 90.3704 258.095 96.7803 262.018C98.9516 263.346 100.365 265.218 101.285 267.221Z" fill="url(#paint8_linear_43_8686)"/>
<mask id="mask3_43_8686" style="mask-type:luminance" maskUnits="userSpaceOnUse" x="18" y="189" width="111" height="86">
<path d="M102.933 274.869L128.168 267.293C128.566 263.279 128.464 256.125 122.697 256.086C114.678 256.031 110.716 243.112 111.399 237.934C112.245 231.524 113.908 216.56 101.513 216.28C91.194 216.047 84.4879 218.006 80.2783 206.036C76.0688 194.066 67.216 188.414 56.3963 192.355C45.01 196.502 30.9836 183.826 22.9811 191.769C9.03693 205.608 31.8687 228.034 54.287 229.92C76.7053 231.807 67.2632 242.441 69.6231 252.554C72.8448 266.36 90.3695 258.097 96.7794 262.02C101.804 265.096 102.783 271.077 102.933 274.869Z" fill="white"/>
</mask>
<g mask="url(#mask3_43_8686)">
<g opacity="0.5">
<path d="M113.625 267.331L114.13 267.064C94.6298 230.156 57.3132 202.892 16.7422 195.913L16.6455 196.476C57.0456 203.426 94.2059 230.576 113.625 267.331Z" fill="#FCFDFE"/>
<path d="M101.269 248.12L101.816 247.958C97.1682 232.226 107.013 215.983 107.113 215.821L106.627 215.521C106.526 215.686 96.5475 232.139 101.269 248.12Z" fill="#FCFDFE"/>
<path d="M109.851 260.639L110.256 260.236C98.5358 248.436 68.9683 255.012 68.6709 255.08L68.7979 255.637C69.092 255.569 98.3535 249.063 109.851 260.639Z" fill="#FCFDFE"/>
<path d="M71.7538 219.785L72.192 219.419C63.727 209.299 66.0261 189.199 66.0502 188.997L65.4834 188.929C65.4588 189.133 63.1324 209.478 71.7538 219.785Z" fill="#FCFDFE"/>
<path d="M48.829 206.47L48.978 205.919C34.4646 201.999 16.6723 211.79 16.4941 211.89L16.7724 212.388C16.9484 212.29 34.5418 202.611 48.829 206.47Z" fill="#FCFDFE"/>
</g>
</g>
<path d="M460.169 265.622L120.348 262.685V271.376C120.348 273.735 121.83 275.74 123.837 276.098L219.929 293.212C221.069 293.416 222.225 293.469 223.376 293.373L456.476 273.86C458.557 273.686 460.169 271.673 460.169 269.25L460.169 265.622Z" fill="#BFC8D6"/>
<path d="M330.177 99.8473L127.439 94.8924L122.349 92.7344H119.13C115.266 92.7344 112.123 95.9887 112.123 100.003V260.84C112.123 264.855 115.266 267.878 119.13 267.594L335.114 251.694C338.298 251.459 340.873 248.328 340.873 244.699V99.3052C340.873 95.6761 333.361 99.8473 330.177 99.8473Z" fill="#BFC8D6"/>
<path d="M338.559 251.694L122.575 267.594C118.71 267.878 115.567 264.855 115.567 260.841V100.003C115.567 95.9889 118.71 92.7344 122.575 92.7344H338.559C341.743 92.7344 344.317 95.6763 344.317 99.3054V244.699C344.317 248.328 341.743 251.46 338.559 251.694Z" fill="url(#paint9_linear_43_8686)"/>
<path d="M331.83 241.445L130.664 255.256C127.519 255.472 124.963 252.991 124.963 249.713V108.9C124.963 105.623 127.519 102.955 130.664 102.942L331.83 102.074C334.457 102.063 336.582 104.474 336.582 107.459V235.714C336.582 238.699 334.457 241.265 331.83 241.445Z" fill="#D8DEE8"/>
<path d="M238.194 97.135C238.194 98.6294 237.082 99.8444 235.709 99.8487C234.335 99.853 233.22 98.6424 233.22 97.1446C233.22 95.6469 234.335 94.4317 235.709 94.4307C237.082 94.4296 238.194 95.6405 238.194 97.135Z" fill="white"/>
<path opacity="0.48" d="M122.574 267.594L337.465 251.774L338.559 251.694C340.02 251.586 341.348 250.864 342.363 249.769C326.899 248.923 317.294 243.435 311.098 237.765C298.656 226.377 300.814 215.148 287.396 207.661C270.66 198.322 257.501 210.155 244.802 198.48C237.102 191.402 240.882 186.124 231.408 175.546C220.915 163.831 214.084 167.769 203.539 157.225C190.205 143.893 196.874 133.52 185.388 123.948C171.455 112.336 156.428 123.084 143.165 111.947C137.444 107.144 134.305 100.161 132.666 92.7344H122.575C118.71 92.7344 115.567 95.9889 115.567 100.003V260.841C115.568 264.854 118.709 267.878 122.574 267.594Z" fill="white"/>
<path d="M348.735 250.813L120.348 267.549L219.929 285.285C221.069 285.488 222.225 285.542 223.376 285.445L460.169 265.623L352.367 250.927C351.162 250.763 349.946 250.724 348.735 250.813Z" fill="url(#paint10_linear_43_8686)"/>
<path d="M153.674 267.693L343.813 253.553L402.659 261.51L214.158 276.626L153.674 267.693Z" fill="#D8DEE8"/>
<path d="M145.922 216.743C143.964 216.743 142.134 216.027 140.736 214.706C139.308 213.358 138.507 211.532 138.48 209.565L137.352 126.632C137.325 124.648 138.082 122.766 139.482 121.332C140.926 119.853 142.874 119.027 144.965 119.007L284.363 117.62C284.386 117.62 284.409 117.62 284.432 117.62C286.241 117.62 287.951 118.324 289.256 119.607C290.627 120.954 291.389 122.769 291.403 124.719L291.967 203.271C291.995 207.189 288.902 210.512 285.071 210.68L146.274 216.735C146.156 216.74 146.038 216.743 145.922 216.743ZM284.37 118.38L144.972 119.766C143.084 119.785 141.328 120.53 140.025 121.863C138.767 123.151 138.088 124.841 138.112 126.622L139.24 209.555C139.264 211.314 139.981 212.948 141.258 214.154C142.589 215.411 144.359 216.056 146.241 215.976L285.038 209.921C288.465 209.771 291.232 206.791 291.207 203.277L290.643 124.725C290.631 122.978 289.949 121.353 288.724 120.148C287.547 118.992 286.01 118.352 284.37 118.38Z" fill="white"/>
<path d="M151.893 127.849C151.914 129.489 150.574 130.837 148.897 130.861C147.219 130.884 145.839 129.571 145.818 127.928C145.796 126.284 147.141 124.935 148.819 124.915C150.496 124.895 151.872 126.209 151.893 127.849Z" fill="#BFC8D6"/>
<path d="M161.26 127.729C161.281 129.364 159.949 130.708 158.284 130.731C156.616 130.754 155.246 129.445 155.225 127.807C155.204 126.169 156.54 124.825 158.208 124.805C159.874 124.785 161.24 126.095 161.26 127.729Z" fill="#BFC8D6"/>
<path d="M170.569 127.61C170.589 129.239 169.265 130.578 167.61 130.601C165.954 130.624 164.593 129.32 164.572 127.687C164.552 126.054 165.88 124.714 167.537 124.695C169.193 124.675 170.549 125.98 170.569 127.61Z" fill="#BFC8D6"/>
<path d="M288.304 133.671L140.955 135.97L140.967 136.73L288.316 134.431L288.304 133.671Z" fill="white"/>
<path d="M201.121 151.813L149.188 152.936L149.084 145.024L201.036 144.044L201.121 151.813Z" fill="white"/>
<path d="M201.245 163.315L149.339 164.649L149.235 156.745L201.16 155.554L201.245 163.315Z" fill="white"/>
<path d="M201.373 174.804L149.495 176.348L149.392 168.452L201.288 167.05L201.373 174.804Z" fill="white"/>
<path d="M201.623 197.75L149.801 199.714L149.697 191.833L201.538 190.011L201.623 197.75Z" fill="white"/>
<path d="M203.99 49.5805C196.844 49.4763 191.091 55.2007 191.172 62.3631L193.074 230.265C193.154 237.323 198.987 242.732 206.07 242.351L328.385 235.774L327.345 51.3801L203.99 49.5805Z" fill="url(#paint11_linear_43_8686)"/>
<path d="M184.523 71.551C179.921 71.52 176.223 75.2046 176.278 79.7795L176.55 102.553C176.605 107.117 180.384 110.79 184.978 110.757L206.632 110.605L206.215 71.6976L184.523 71.551Z" fill="url(#paint12_linear_43_8686)"/>
<path d="M359.771 118.399L235.054 119.692C231.449 119.73 228.549 122.712 228.584 126.353L229.225 191.806C229.261 195.425 232.208 198.246 235.801 198.108L360.093 193.325C363.364 193.199 365.998 190.306 365.984 186.863L365.732 124.607C365.718 121.145 363.052 118.365 359.771 118.399Z" fill="url(#paint13_linear_43_8686)"/>
<path d="M365.73 123.907L365.698 115.996C365.684 112.531 363.017 109.74 359.734 109.764L234.969 110.654C231.362 110.679 228.461 113.655 228.496 117.298L228.578 125.617L365.73 123.907Z" fill="url(#paint14_linear_43_8686)"/>
<path d="M241.155 118.177C241.169 119.687 239.97 120.924 238.475 120.941C236.978 120.957 235.752 119.743 235.737 118.23C235.723 116.717 236.926 115.479 238.423 115.466C239.919 115.453 241.141 116.667 241.155 118.177Z" fill="url(#paint15_linear_43_8686)"/>
<path d="M299.199 160.132C298.974 160.077 298.75 160.041 298.526 160.016C298.54 157.613 298.202 155.262 297.546 153.031C297.753 152.933 297.958 152.827 298.157 152.702C300.832 151.022 301.711 147.446 300.124 144.708C298.536 141.966 295.072 141.095 292.386 142.77C292.185 142.895 291.998 143.033 291.818 143.178C290.214 141.525 288.355 140.105 286.283 138.984C286.365 138.765 286.44 138.54 286.497 138.306C287.271 135.171 285.43 132.004 282.378 131.229C279.32 130.453 276.204 132.373 275.425 135.521C275.367 135.755 275.328 135.99 275.299 136.224C272.925 136.231 270.594 136.605 268.373 137.311C268.28 137.095 268.177 136.883 268.055 136.675C266.425 133.895 262.876 133.003 260.128 134.69C257.374 136.38 256.471 140.014 258.115 142.8C258.237 143.007 258.373 143.2 258.516 143.387C256.853 145.077 255.422 147.029 254.288 149.197C254.07 149.115 253.847 149.04 253.615 148.983C250.493 148.22 247.315 150.178 246.524 153.36C245.733 156.543 247.631 159.733 250.758 160.484C250.991 160.54 251.224 160.576 251.456 160.602C251.445 163.046 251.799 165.434 252.481 167.698C252.268 167.798 252.056 167.908 251.85 168.036C249.084 169.76 248.178 173.406 249.83 176.174C251.48 178.937 255.051 179.77 257.805 178.041C258.01 177.912 258.201 177.77 258.385 177.621C260.027 179.268 261.924 180.671 264.03 181.766C263.947 181.988 263.872 182.215 263.813 182.451C263.03 185.615 264.901 188.759 267.985 189.47C271.062 190.18 274.182 188.199 274.96 185.048C275.018 184.813 275.057 184.579 275.086 184.346C277.452 184.297 279.767 183.885 281.966 183.148C282.058 183.36 282.16 183.569 282.28 183.772C283.887 186.497 287.373 187.31 290.064 185.595C292.75 183.882 293.633 180.294 292.038 177.574C291.919 177.371 291.786 177.183 291.647 177.001C293.268 175.317 294.662 173.382 295.765 171.239C295.977 171.319 296.192 171.39 296.418 171.444C299.433 172.168 302.493 170.225 303.259 167.107C304.024 163.99 302.209 160.868 299.199 160.132ZM272.574 170.902C266.856 169.541 263.382 163.67 264.837 157.797C266.29 151.928 272.108 148.316 277.808 149.721C283.484 151.12 286.904 156.971 285.468 162.796C284.031 168.625 278.267 172.258 272.574 170.902Z" fill="url(#paint16_linear_43_8686)"/>
<path d="M300.574 158.669C300.349 158.614 300.125 158.578 299.901 158.552C299.916 156.15 299.578 153.8 298.923 151.569C299.13 151.472 299.334 151.366 299.534 151.241C302.205 149.563 303.084 145.989 301.499 143.251C299.912 140.509 296.452 139.637 293.768 141.309C293.568 141.434 293.381 141.573 293.201 141.717C291.598 140.064 289.741 138.644 287.671 137.522C287.753 137.303 287.828 137.078 287.885 136.845C288.658 133.711 286.819 130.544 283.771 129.768C280.715 128.99 277.602 130.908 276.824 134.054C276.766 134.288 276.727 134.523 276.698 134.757C274.326 134.762 271.997 135.135 269.779 135.839C269.685 135.624 269.582 135.411 269.461 135.204C267.832 132.424 264.287 131.53 261.541 133.215C258.79 134.903 257.888 138.536 259.53 141.321C259.652 141.528 259.788 141.722 259.93 141.908C258.27 143.597 256.84 145.547 255.706 147.714C255.489 147.631 255.266 147.557 255.034 147.5C251.915 146.735 248.741 148.69 247.95 151.871C247.159 155.052 249.055 158.242 252.179 158.994C252.412 159.05 252.644 159.086 252.876 159.113C252.866 161.555 253.219 163.943 253.901 166.206C253.687 166.306 253.476 166.416 253.27 166.544C250.507 168.266 249.602 171.91 251.252 174.677C252.899 177.44 256.467 178.275 259.218 176.548C259.423 176.419 259.614 176.277 259.798 176.129C261.439 177.775 263.333 179.179 265.438 180.275C265.354 180.497 265.279 180.723 265.221 180.959C264.438 184.121 266.307 187.265 269.388 187.978C272.462 188.69 275.579 186.711 276.356 183.562C276.414 183.327 276.453 183.093 276.482 182.859C278.846 182.812 281.16 182.401 283.356 181.666C283.448 181.877 283.55 182.087 283.669 182.29C285.275 185.014 288.758 185.829 291.446 184.116C294.13 182.406 295.011 178.82 293.418 176.1C293.299 175.897 293.167 175.708 293.028 175.527C294.648 173.844 296.04 171.91 297.143 169.77C297.354 169.849 297.569 169.921 297.794 169.975C300.806 170.7 303.864 168.76 304.629 165.643C305.394 162.528 303.581 159.406 300.574 158.669ZM273.973 169.421C268.261 168.057 264.791 162.186 266.245 156.316C267.697 150.45 273.509 146.843 279.204 148.251C284.875 149.653 288.291 155.502 286.856 161.324C285.419 167.15 279.661 170.779 273.973 169.421Z" fill="url(#paint17_linear_43_8686)"/>
<path d="M337.304 147.343C337.177 147.311 337.05 147.29 336.923 147.274C336.934 145.896 336.745 144.547 336.376 143.266C336.493 143.211 336.609 143.15 336.722 143.079C338.235 142.121 338.735 140.071 337.84 138.498C336.945 136.924 334.989 136.422 333.472 137.378C333.359 137.449 333.254 137.528 333.152 137.611C332.249 136.663 331.203 135.848 330.037 135.205C330.084 135.08 330.126 134.951 330.159 134.818C330.597 133.024 329.564 131.212 327.849 130.769C326.131 130.325 324.381 131.421 323.94 133.219C323.907 133.353 323.885 133.487 323.869 133.62C322.538 133.623 321.231 133.835 319.987 134.236C319.935 134.113 319.877 133.992 319.809 133.874C318.9 132.287 316.918 131.778 315.381 132.738C313.842 133.699 313.334 135.768 314.247 137.357C314.315 137.475 314.391 137.585 314.47 137.691C313.541 138.652 312.74 139.762 312.105 140.995C311.984 140.947 311.86 140.905 311.73 140.872C309.992 140.432 308.222 141.541 307.778 143.349C307.333 145.158 308.385 146.978 310.124 147.413C310.254 147.446 310.383 147.467 310.512 147.483C310.503 148.874 310.697 150.235 311.075 151.527C310.955 151.583 310.837 151.645 310.722 151.717C309.18 152.69 308.671 154.762 309.587 156.345C310.502 157.926 312.492 158.416 314.031 157.442C314.145 157.37 314.252 157.289 314.355 157.206C315.27 158.152 316.328 158.961 317.505 159.596C317.458 159.722 317.415 159.851 317.383 159.985C316.941 161.788 317.984 163.593 319.709 164.016C321.433 164.438 323.185 163.322 323.625 161.523C323.658 161.389 323.68 161.255 323.697 161.122C325.025 161.106 326.327 160.881 327.564 160.469C327.616 160.591 327.673 160.711 327.74 160.828C328.641 162.397 330.604 162.88 332.123 161.911C333.64 160.942 334.141 158.888 333.244 157.322C333.177 157.205 333.102 157.096 333.024 156.991C333.94 156.032 334.729 154.928 335.354 153.703C335.473 153.75 335.595 153.791 335.722 153.823C337.426 154.25 339.159 153.146 339.595 151.358C340.031 149.571 339.006 147.773 337.304 147.343ZM322.302 153.426C319.1 152.627 317.164 149.265 317.984 145.918C318.804 142.573 322.066 140.522 325.262 141.334C328.451 142.145 330.37 145.5 329.555 148.831C328.74 152.163 325.496 154.222 322.302 153.426Z" fill="url(#paint18_linear_43_8686)"/>
<path d="M338.083 146.506C337.956 146.474 337.829 146.453 337.702 146.438C337.713 145.06 337.524 143.711 337.155 142.43C337.272 142.375 337.388 142.314 337.501 142.243C339.013 141.286 339.513 139.237 338.619 137.664C337.724 136.09 335.769 135.587 334.253 136.542C334.14 136.614 334.035 136.693 333.933 136.776C333.031 135.827 331.985 135.012 330.82 134.369C330.867 134.244 330.909 134.115 330.942 133.982C331.38 132.189 330.347 130.377 328.633 129.933C326.917 129.488 325.167 130.584 324.726 132.381C324.694 132.515 324.672 132.649 324.655 132.782C323.324 132.785 322.018 132.997 320.775 133.397C320.723 133.274 320.666 133.153 320.598 133.035C319.689 131.448 317.708 130.938 316.172 131.898C314.634 132.859 314.126 134.927 315.039 136.515C315.107 136.633 315.182 136.744 315.262 136.85C314.333 137.811 313.533 138.92 312.898 140.152C312.776 140.105 312.652 140.062 312.523 140.029C310.786 139.589 309.017 140.697 308.573 142.505C308.128 144.313 309.179 146.133 310.918 146.569C311.047 146.601 311.177 146.622 311.306 146.638C311.297 148.029 311.49 149.39 311.867 150.682C311.748 150.738 311.63 150.8 311.515 150.872C309.974 151.844 309.465 153.916 310.38 155.498C311.295 157.079 313.284 157.57 314.821 156.597C314.936 156.524 315.043 156.444 315.146 156.36C316.06 157.306 317.118 158.116 318.294 158.751C318.247 158.877 318.205 159.006 318.172 159.14C317.73 160.942 318.772 162.747 320.497 163.17C322.22 163.593 323.971 162.478 324.411 160.68C324.444 160.546 324.466 160.412 324.482 160.278C325.81 160.263 327.111 160.038 328.347 159.627C328.399 159.749 328.456 159.869 328.523 159.986C329.424 161.555 331.386 162.039 332.904 161.07C334.42 160.102 334.921 158.049 334.024 156.482C333.957 156.365 333.883 156.256 333.805 156.152C334.721 155.193 335.509 154.089 336.134 152.865C336.253 152.912 336.374 152.953 336.502 152.985C338.204 153.412 339.936 152.309 340.372 150.522C340.808 148.735 339.784 146.938 338.083 146.506ZM323.089 152.583C319.889 151.784 317.954 148.422 318.774 145.076C319.593 141.732 322.853 139.682 326.048 140.495C329.234 141.307 331.152 144.662 330.338 147.992C329.524 151.323 326.281 153.38 323.089 152.583Z" fill="url(#paint19_linear_43_8686)"/>
<path d="M308.419 34.3833L281.125 5.57541L228.659 4.36147L228.677 3.60156L281.459 4.82292L308.97 33.8609L308.419 34.3833Z" fill="#3C3C6C"/>
<path d="M296.396 40.9219L274.659 18.1132L249.232 17.6173L249.247 16.8574L274.991 17.3602L296.946 40.398L296.396 40.9219Z" fill="#3C3C6C"/>
<path d="M367.525 38.9763L343.807 38.6469L343.817 37.887L367.203 38.2121L383.577 20.9375L383.745 20.9404L455.063 22.301L455.049 23.0609L383.898 21.7033L367.525 38.9763Z" fill="#3C3C6C"/>
<path d="M384.64 57.3797L349.848 57.0833L349.854 56.3234L384.314 56.6169L404.962 34.6367L440.536 35.1743L440.524 35.9342L405.286 35.4018L384.64 57.3797Z" fill="#3C3C6C"/>
<path d="M375.558 49.9482L349.813 49.6728L349.822 48.9129L375.234 49.1845L389.678 33.873L390.231 34.3948L375.558 49.9482Z" fill="#3C3C6C"/>
<path d="M354.18 71.0028L354.177 71.7627L409.074 71.9933L409.077 71.2334L354.18 71.0028Z" fill="#3C3C6C"/>
<path d="M397.675 62.4264L397.12 61.9078L408.949 49.2568L409.116 49.2591L467.375 49.9885L467.365 50.7484L409.274 50.021L397.675 62.4264Z" fill="#3C3C6C"/>
<path d="M412.355 81.7046L412.189 81.7042L346.907 81.6174L346.908 80.8575L412.024 80.944L423.435 68.6348L451.207 68.774L451.204 69.5337L423.765 69.3962L412.355 81.7046Z" fill="#3C3C6C"/>
<path d="M348.501 23.4233L294.866 22.4439C289.764 22.3507 285.644 26.5937 285.678 31.9201L286.041 88.7495C286.075 94.0541 290.239 98.3384 295.328 98.3199L348.825 98.1264C353.744 98.1087 357.705 93.8837 357.684 88.6881L357.459 33.0319C357.438 27.8158 353.433 23.5134 348.501 23.4233Z" fill="url(#paint20_linear_43_8686)"/>
<path opacity="0.74" d="M348.125 29.5102L295.317 28.6401C293.27 28.6064 291.62 30.3104 291.633 32.4462L291.979 88.3156C291.992 90.443 293.66 92.1642 295.703 92.1605L348.397 92.0633C350.376 92.0597 351.971 90.3622 351.962 88.2717L351.73 33.3695C351.721 31.2705 350.108 29.5427 348.125 29.5102Z" fill="white"/>
<path d="M310.282 66.775L306.883 77.7178L302.425 77.7075L313.556 42.9258L318.728 42.9901L330.176 77.7721L325.631 77.7616L322.047 66.8398L310.282 66.775ZM321.145 63.3319L317.849 53.3027C317.099 51.0245 316.595 48.9542 316.092 46.9347L315.993 46.9335C315.512 48.9941 314.981 51.1064 314.352 53.2179L311.151 63.2665L321.145 63.3319Z" fill="url(#paint21_linear_43_8686)"/>
<path d="M339.07 43.243L339.231 77.7934L335.002 77.7836L334.836 43.1904L339.07 43.243Z" fill="url(#paint22_linear_43_8686)"/>
<path d="M454.642 69.17C454.643 71.2398 453.107 72.9116 451.208 72.9042C449.307 72.8968 447.763 71.2097 447.761 69.1355C447.759 67.061 449.3 65.3887 451.201 65.4005C453.1 65.412 454.64 67.0998 454.642 69.17Z" fill="url(#paint23_linear_43_8686)"/>
<path d="M412.609 71.6366C412.614 73.7325 411.041 75.4263 409.094 75.4203C407.144 75.4143 405.558 73.707 405.553 71.6068C405.548 69.5063 407.126 67.8118 409.076 67.8223C411.023 67.8327 412.604 69.5406 412.609 71.6366Z" fill="url(#paint24_linear_43_8686)"/>
<path d="M472.03 50.4195C472.03 52.475 470.517 54.1266 468.647 54.1085C466.776 54.0904 465.257 52.4062 465.257 50.3464C465.256 48.2862 466.775 46.6341 468.647 46.6565C470.516 46.6787 472.03 48.3636 472.03 50.4195Z" fill="url(#paint25_linear_43_8686)"/>
<path d="M402.925 60.9965C402.93 63.0998 401.348 64.7948 399.389 64.7826C397.428 64.7703 395.831 63.052 395.825 60.9443C395.819 58.8362 397.407 57.1406 399.368 57.1573C401.328 57.1739 402.92 58.8929 402.925 60.9965Z" fill="url(#paint26_linear_43_8686)"/>
<path d="M442.283 35.5824C442.286 37.6645 440.738 39.3304 438.823 39.3037C436.905 39.2768 435.347 37.564 435.344 35.4775C435.341 33.3907 436.894 31.7241 438.812 31.7553C440.728 31.7865 442.281 33.5 442.283 35.5824Z" fill="url(#paint27_linear_43_8686)"/>
<path d="M458.49 22.7464C458.492 24.8202 456.957 26.4734 455.06 26.4394C453.16 26.4053 451.617 24.6934 451.615 22.6153C451.613 20.537 453.153 18.8831 455.053 18.9216C456.951 18.96 458.489 20.6724 458.49 22.7464Z" fill="url(#paint28_linear_43_8686)"/>
<path d="M393.522 34.1862C393.529 36.299 391.937 37.989 389.965 37.9609C387.991 37.933 386.384 36.194 386.377 34.0768C386.37 31.9592 387.967 30.2687 389.942 30.3012C391.914 30.3336 393.516 32.0731 393.522 34.1862Z" fill="url(#paint29_linear_43_8686)"/>
<path d="M234.234 4.11084C234.252 6.32748 232.514 8.08577 230.349 8.03804C228.182 7.99031 226.408 6.15086 226.39 3.92922C226.371 1.70724 228.116 -0.0515727 230.283 0.00115525C232.449 0.0537109 234.216 1.89368 234.234 4.11084Z" fill="url(#paint30_linear_43_8686)"/>
<path d="M253.115 17.3137C253.131 19.5167 251.411 21.2705 249.271 21.2312C247.128 21.1919 245.374 19.3702 245.358 17.1624C245.34 14.9542 247.067 13.1997 249.21 13.244C251.351 13.2881 253.099 15.1103 253.115 17.3137Z" fill="url(#paint31_linear_43_8686)"/>
<path d="M396.246 302.713C396.246 302.713 388.962 306.023 388.843 306.552C388.724 307.08 393.528 306.375 395.489 306.451C397.45 306.527 399.063 305.948 398.885 305.117C398.708 304.286 398.021 302.197 398.021 302.197L396.246 302.713Z" fill="url(#paint32_linear_43_8686)"/>
<path d="M395.98 300.026L396.423 303.306C396.423 303.306 397.577 303.716 398.351 303.231L398.682 299.634L395.98 300.026Z" fill="url(#paint33_linear_43_8686)"/>
<path d="M391.973 234.135C391.589 243.918 391.573 254.547 392.136 265.902C392.77 278.689 394.044 290.507 395.649 301.22C396.245 301.239 396.873 301.242 397.528 301.224C397.97 301.212 398.398 301.19 398.813 301.162C399.646 298.94 400.63 296.019 401.512 292.53C402.439 288.86 402.998 285.569 403.396 282.422C404.799 271.341 403.155 270.375 404.294 262.163C405.302 254.89 406.736 254.606 408.419 244.28C410.245 233.076 408.886 231.395 408.224 230.787C405.41 228.202 398.798 229.962 391.973 234.135Z" fill="url(#paint34_linear_43_8686)"/>
<path opacity="0.3" d="M408.224 230.788C405.54 228.322 399.401 229.815 392.917 233.578C400.376 241.637 401.189 246.865 400.295 250.257C399.285 254.091 396.212 255.195 396.224 259.387C396.238 264.539 400.887 265.904 400.789 271.355C400.723 274.96 398.68 274.923 398.198 279.375C397.627 284.643 400.296 286.458 399.431 290.356C399.059 292.033 397.998 294.224 394.974 296.481C395.192 298.081 395.416 299.666 395.649 301.22C396.245 301.239 396.873 301.243 397.528 301.224C397.97 301.212 398.399 301.19 398.813 301.162C399.646 298.94 400.63 296.019 401.512 292.53C402.439 288.861 402.998 285.569 403.396 282.422C404.799 271.341 403.155 270.375 404.294 262.163C405.302 254.89 406.736 254.605 408.419 244.279C410.245 233.076 408.885 231.395 408.224 230.788Z" fill="url(#paint35_linear_43_8686)"/>
<path d="M430.289 300.104L431.137 301.465C431.374 301.845 431.444 302.303 431.33 302.737C431.034 303.868 430.443 306.072 430.184 306.647C429.833 307.43 425.119 307.895 425.119 307.895C425.119 307.895 424.699 307.303 425.677 306.589C426.656 305.874 427.285 305.762 427.631 304.708C427.976 303.653 428.206 300.671 428.206 300.671L430.289 300.104Z" fill="url(#paint36_linear_43_8686)"/>
<path d="M426.763 296.648C427.072 296.895 428.586 301.491 428.586 301.491C428.586 301.491 429.076 302.117 430.007 301.192C430.938 300.268 430.429 300.778 430.429 300.778L430.254 296.258L426.763 296.648Z" fill="url(#paint37_linear_43_8686)"/>
<path d="M397.107 233.972C403.53 243.369 410.458 255.065 416.653 269.065C421.335 279.644 424.73 289.577 427.223 298.43C427.561 298.586 428.356 298.898 429.373 298.763C430.76 298.58 431.592 297.694 431.809 297.447C432.824 291.101 432.712 285.727 432.367 281.848C432.147 279.364 431.757 275.228 430.174 270.122C428.401 264.403 427.181 264.082 424.868 258.031C422.467 251.751 423.049 250.183 420.75 242.324C419.805 239.095 418.224 234.29 415.615 228.543C409.445 230.352 403.276 232.162 397.107 233.972Z" fill="url(#paint38_linear_43_8686)"/>
<path d="M394.887 193.138C387.795 188.995 384.756 189.473 382.7 185.752C380.667 182.072 380.671 176.233 384.037 173.139C384.284 172.912 386.847 170.63 390.316 171.021C395.562 171.612 395.948 177.54 401.833 180.256C406.82 182.557 412.257 180.939 415.937 179.843C424.798 177.205 426.114 172.216 430.709 173.011C436.466 174.008 436.975 182.287 442.711 182.797C446.544 183.138 447.457 179.541 452.497 178.551C458.419 177.387 464.917 180.828 468.561 185.013C475.222 192.662 473.468 204.079 469.3 211.049C465.876 216.774 458.514 223.36 452.312 221.943C447.413 220.824 445.818 215.3 441.603 215.85C438.606 216.241 438.498 219.152 434.956 220.651C429.139 223.111 421.958 218.421 419.999 217.142C414.416 213.495 415.305 211.163 408.106 203.853C405.263 200.965 401.167 196.806 394.887 193.138Z" fill="url(#paint39_linear_43_8686)"/>
<path d="M339.041 175.46C339.041 175.46 337.668 173.743 336.798 172.467C335.927 171.19 331.862 167.604 331.862 167.604C331.862 167.604 331.552 168.173 332.427 169.084C333.302 169.994 335.144 171.555 334.721 172.215C334.297 172.875 333.105 173.457 333.965 174.704C334.826 175.95 336.321 175.099 337.086 176.099C337.851 177.099 338.634 178.189 338.634 178.189L339.041 175.46Z" fill="url(#paint40_linear_43_8686)"/>
<path d="M339.576 174.341C338.65 175.741 337.725 177.141 336.799 178.542C337.763 181.357 339.424 185.266 342.334 189.39C343.618 191.209 347.598 196.547 354.336 200.839C363.509 206.681 380.22 212.132 385.112 205.914C389.478 200.367 382.432 188.07 381.134 185.863C378.508 187.094 374.193 188.727 368.646 189.113C366.828 189.24 362.097 189.528 356.766 187.891C346.901 184.86 341.424 177.212 339.576 174.341Z" fill="url(#paint41_linear_43_8686)"/>
<path d="M371.509 192.437C371.912 194.249 378.212 193.277 379.512 196.566C380.21 198.33 378.728 199.451 378.666 202.448C378.597 205.803 380.385 207.708 381.756 210.348C383.765 214.213 383.773 218.003 383.788 225.581C383.809 236.369 381.142 238.538 383.418 242.015C386.382 246.54 393.497 246.829 395.421 246.908C401.998 247.175 402.778 244.05 409.915 243.677C418.066 243.25 419.227 247.213 425.056 245.523C430.381 243.979 432.173 239.872 436.32 240.723C438.911 241.254 439.599 243.143 442.044 242.938C444.501 242.733 447.041 240.555 447.214 238.322C447.429 235.546 444.037 232.049 438.72 232.044C436.608 232.786 433.106 233.645 429.211 232.69C422.829 231.126 419.51 225.699 415.824 219.673C413.274 215.504 408.586 207.84 408.53 197.792C408.507 193.648 409.291 192.436 408.161 190.221C404.494 183.029 390.267 184.102 389.062 184.206C379.367 185.042 371.022 190.249 371.509 192.437Z" fill="url(#paint42_linear_43_8686)"/>
<path opacity="0.3" d="M438.721 232.044C436.608 232.785 433.106 233.645 429.211 232.69C422.83 231.125 419.511 225.699 415.825 219.672C413.274 215.503 408.587 207.84 408.531 197.792C408.508 193.648 409.291 192.436 408.162 190.221C407.982 189.869 407.77 189.541 407.543 189.228C404.757 191.111 403.677 192.996 403.361 194.652C402.593 198.683 406.216 201.978 404.33 205.454C402.525 208.784 398.06 207.863 397.129 210.717C396.125 213.796 401.066 215.653 401.284 220.411C401.545 226.12 394.68 228.917 395.883 232.736C396.926 236.046 402.671 235.807 402.668 237.583C402.665 239.694 394.537 243.09 387.574 240.491C385.463 239.703 383.84 238.505 382.633 237.354C382.373 239.214 382.42 240.489 383.419 242.014C386.382 246.54 393.498 246.829 395.421 246.907C401.999 247.175 402.779 244.049 409.916 243.676C418.067 243.25 419.228 247.212 425.057 245.523C430.382 243.979 432.174 239.872 436.321 240.722C438.912 241.253 439.6 243.142 442.045 242.938C444.502 242.732 447.042 240.554 447.215 238.321C447.43 235.546 444.037 232.049 438.721 232.044Z" fill="url(#paint43_linear_43_8686)"/>
<path d="M368.329 201.486L386.199 202.183C386.396 202.19 386.567 202.316 386.634 202.501L395.052 225.855C395.173 226.19 394.794 227.028 394.44 226.99L376.772 224.586C376.593 224.567 376.439 224.448 376.374 224.28L367.615 202.482C367.491 202.159 367.983 201.472 368.329 201.486Z" fill="url(#paint44_linear_43_8686)"/>
<path d="M368.052 202.057L385.922 202.754C386.119 202.762 386.291 202.888 386.357 203.072L394.775 226.426C394.896 226.761 394.624 227.107 394.271 227.069L376.496 225.158C376.316 225.138 376.162 225.02 376.097 224.851L367.583 202.711C367.459 202.389 367.706 202.044 368.052 202.057Z" fill="url(#paint45_linear_43_8686)"/>
<path d="M372.938 202.927L372.25 201.065C372.187 200.897 372.312 200.719 372.491 200.719H378.996C379.108 200.719 379.207 200.791 379.241 200.898L379.895 202.958C379.949 203.127 379.819 203.298 379.642 203.293L373.172 203.095C373.067 203.092 372.975 203.025 372.938 202.927Z" fill="url(#paint46_linear_43_8686)"/>
<path opacity="0.3" d="M383.939 221.418C382.778 217.654 384.689 215.203 382.739 212.278C379.981 208.14 374.056 209.891 372.214 206.553C371.717 205.653 371.48 204.312 372.15 202.219L368.052 202.059C367.706 202.046 367.459 202.39 367.583 202.713L376.097 224.853C376.162 225.022 376.316 225.14 376.496 225.16L387.298 226.321C385.375 224.643 384.411 222.948 383.939 221.418Z" fill="url(#paint47_linear_43_8686)"/>
<path d="M396.988 218.62C396.988 218.62 394.287 218.083 393.246 217.427C392.204 216.772 391.1 215.718 389.564 215.776C388.029 215.834 386.484 216.614 387.193 216.793C387.902 216.972 389.227 218.38 390.24 218.934C391.252 219.487 393.565 219.537 393.996 219.507C394.426 219.477 396.127 220.5 396.127 220.5L396.988 218.62Z" fill="url(#paint48_linear_43_8686)"/>
<path d="M396.919 217.501C396.089 218.978 395.258 220.455 394.427 221.933C395.708 222.56 409.404 229.04 419.331 222.625C420.559 221.832 423.821 219.724 425.579 215.596C427.517 211.046 426.43 206.816 425.724 204.068C423.979 197.267 419.042 190.132 412.038 187.265C409.362 186.17 406.185 185.616 403.198 185.096C400.664 184.654 396.681 184.112 396.596 184.496C396.555 184.683 397.48 184.922 398.123 185.286C402.07 187.518 397.059 196.738 401.697 201.16C406.141 205.396 411.908 204.696 412.837 208.535C413.269 210.32 412.375 211.925 411.976 212.64C409.753 216.631 403.769 218.417 396.919 217.501Z" fill="url(#paint49_linear_43_8686)"/>
<path d="M387.624 177.576C387.624 177.576 389.232 182.252 391.235 182.98C393.238 183.708 396.405 184.544 396.803 184.868C397.2 185.191 386.16 188.776 379.97 187.126C381.734 186.354 382.205 186.108 382.205 186.108C382.676 185.861 383.555 185.402 384.379 184.672C384.94 184.175 385.819 183.251 386.48 181.714L385.901 179.06L387.624 177.576Z" fill="url(#paint50_linear_43_8686)"/>
<path d="M388.252 179.219C388.252 179.219 387.429 181.047 385.478 180.767C383.731 180.515 383.82 176.121 385.007 175.373C385.403 175.124 386.206 175.029 386.802 175.247C387.221 175.4 388.469 176.422 388.191 177.919C388.576 177.714 388.959 177.746 389.092 177.93C389.261 178.164 388.987 178.587 388.925 178.683C388.711 179.016 388.398 179.162 388.252 179.219Z" fill="url(#paint51_linear_43_8686)"/>
<defs>
<linearGradient id="paint0_linear_43_8686" x1="459.458" y1="84.0117" x2="369.569" y2="160.446" gradientUnits="userSpaceOnUse">
<stop offset="0.494" stop-color="#EBEFF2"/>
<stop offset="1" stop-color="white"/>
</linearGradient>
<linearGradient id="paint1_linear_43_8686" x1="466.021" y1="90.801" x2="375.634" y2="167.659" gradientUnits="userSpaceOnUse">
<stop offset="0.494" stop-color="#EBEFF2"/>
<stop offset="1" stop-color="white"/>
</linearGradient>
<linearGradient id="paint2_linear_43_8686" x1="472.655" y1="97.526" x2="381.768" y2="174.808" gradientUnits="userSpaceOnUse">
<stop offset="0.494" stop-color="#EBEFF2"/>
<stop offset="1" stop-color="white"/>
</linearGradient>
<linearGradient id="paint3_linear_43_8686" x1="150.646" y1="33.0107" x2="69.8842" y2="144.619" gradientUnits="userSpaceOnUse">
<stop offset="0.494" stop-color="#EBEFF2"/>
<stop offset="1" stop-color="white"/>
</linearGradient>
<linearGradient id="paint4_linear_43_8686" x1="156.393" y1="36.8527" x2="75.3041" y2="148.913" gradientUnits="userSpaceOnUse">
<stop offset="0.494" stop-color="#EBEFF2"/>
<stop offset="1" stop-color="white"/>
</linearGradient>
<linearGradient id="paint5_linear_43_8686" x1="162.183" y1="40.624" x2="80.7683" y2="153.134" gradientUnits="userSpaceOnUse">
<stop offset="0.494" stop-color="#EBEFF2"/>
<stop offset="1" stop-color="white"/>
</linearGradient>
<linearGradient id="paint6_linear_43_8686" x1="36.2571" y1="55.531" x2="161.392" y2="266.288" gradientUnits="userSpaceOnUse">
<stop stop-color="#AA80F9"/>
<stop offset="0.9964" stop-color="#6165D7"/>
</linearGradient>
<linearGradient id="paint7_linear_43_8686" x1="11.5691" y1="135.432" x2="133.418" y2="238.736" gradientUnits="userSpaceOnUse">
<stop offset="0.0036" stop-color="#E38DDD"/>
<stop offset="1" stop-color="#9571F6"/>
</linearGradient>
<linearGradient id="paint8_linear_43_8686" x1="27.8682" y1="168.913" x2="176.959" y2="353.862" gradientUnits="userSpaceOnUse">
<stop stop-color="#FF9085"/>
<stop offset="1" stop-color="#FB6FBB"/>
</linearGradient>
<linearGradient id="paint9_linear_43_8686" x1="405.213" y1="-58.5525" x2="202.128" y2="209.02" gradientUnits="userSpaceOnUse">
<stop offset="0.2733" stop-color="#EBEFF2"/>
<stop offset="1" stop-color="white"/>
</linearGradient>
<linearGradient id="paint10_linear_43_8686" x1="120.348" y1="268.129" x2="460.169" y2="268.129" gradientUnits="userSpaceOnUse">
<stop offset="0.494" stop-color="#EBEFF2"/>
<stop offset="1" stop-color="white"/>
</linearGradient>
<linearGradient id="paint11_linear_43_8686" x1="363.902" y1="53.1045" x2="102.843" y2="286.391" gradientUnits="userSpaceOnUse">
<stop stop-color="#FFC444"/>
<stop offset="0.9964" stop-color="#F36F56"/>
</linearGradient>
<linearGradient id="paint12_linear_43_8686" x1="303.969" y1="-7.21939" x2="45.0996" y2="224.11" gradientUnits="userSpaceOnUse">
<stop stop-color="#FFC444"/>
<stop offset="0.9964" stop-color="#F36F56"/>
</linearGradient>
<linearGradient id="paint13_linear_43_8686" x1="314.342" y1="128.448" x2="251.316" y2="232.422" gradientUnits="userSpaceOnUse">
<stop stop-color="#AA80F9"/>
<stop offset="0.9964" stop-color="#6165D7"/>
</linearGradient>
<linearGradient id="paint14_linear_43_8686" x1="228.496" y1="117.69" x2="365.73" y2="117.69" gradientUnits="userSpaceOnUse">
<stop stop-color="#40447E"/>
<stop offset="0.9964" stop-color="#3C3B6B"/>
</linearGradient>
<linearGradient id="paint15_linear_43_8686" x1="235.737" y1="118.203" x2="241.155" y2="118.203" gradientUnits="userSpaceOnUse">
<stop stop-color="#FF9085"/>
<stop offset="1" stop-color="#FB6FBB"/>
</linearGradient>
<linearGradient id="paint16_linear_43_8686" x1="246.344" y1="160.335" x2="303.434" y2="160.335" gradientUnits="userSpaceOnUse">
<stop stop-color="#893976"/>
<stop offset="1" stop-color="#311944"/>
</linearGradient>
<linearGradient id="paint17_linear_43_8686" x1="248.494" y1="200.651" x2="289.69" y2="138.566" gradientUnits="userSpaceOnUse">
<stop offset="0.2733" stop-color="#EBEFF2"/>
<stop offset="1" stop-color="white"/>
</linearGradient>
<linearGradient id="paint18_linear_43_8686" x1="307.676" y1="147.387" x2="339.695" y2="147.387" gradientUnits="userSpaceOnUse">
<stop stop-color="#893976"/>
<stop offset="1" stop-color="#311944"/>
</linearGradient>
<linearGradient id="paint19_linear_43_8686" x1="308.628" y1="170.392" x2="332.101" y2="135.018" gradientUnits="userSpaceOnUse">
<stop offset="0.2733" stop-color="#EBEFF2"/>
<stop offset="1" stop-color="white"/>
</linearGradient>
<linearGradient id="paint20_linear_43_8686" x1="354.928" y1="17.0149" x2="188.824" y2="233.245" gradientUnits="userSpaceOnUse">
<stop offset="0.0036" stop-color="#E38DDD"/>
<stop offset="1" stop-color="#9571F6"/>
</linearGradient>
<linearGradient id="paint21_linear_43_8686" x1="299.663" y1="76.2423" x2="368.521" y2="26.9518" gradientUnits="userSpaceOnUse">
<stop stop-color="#AA80F9"/>
<stop offset="0.7157" stop-color="#6165D7"/>
</linearGradient>
<linearGradient id="paint22_linear_43_8686" x1="304.205" y1="83.9913" x2="373.276" y2="34.5484" gradientUnits="userSpaceOnUse">
<stop stop-color="#AA80F9"/>
<stop offset="0.9964" stop-color="#6165D7"/>
</linearGradient>
<linearGradient id="paint23_linear_43_8686" x1="475.801" y1="33.7787" x2="424.99" y2="106.844" gradientUnits="userSpaceOnUse">
<stop offset="0.0036" stop-color="#E38DDD"/>
<stop offset="1" stop-color="#9571F6"/>
</linearGradient>
<linearGradient id="paint24_linear_43_8686" x1="434.072" y1="35.6844" x2="382.452" y2="109.913" gradientUnits="userSpaceOnUse">
<stop offset="0.0036" stop-color="#E38DDD"/>
<stop offset="1" stop-color="#9571F6"/>
</linearGradient>
<linearGradient id="paint25_linear_43_8686" x1="492.967" y1="15.4072" x2="442.727" y2="87.6495" gradientUnits="userSpaceOnUse">
<stop offset="0.0036" stop-color="#E38DDD"/>
<stop offset="1" stop-color="#9571F6"/>
</linearGradient>
<linearGradient id="paint26_linear_43_8686" x1="424.437" y1="24.9312" x2="372.67" y2="99.3697" gradientUnits="userSpaceOnUse">
<stop offset="0.0036" stop-color="#E38DDD"/>
<stop offset="1" stop-color="#9571F6"/>
</linearGradient>
<linearGradient id="paint27_linear_43_8686" x1="463.47" y1="0.0751883" x2="412.542" y2="73.3066" gradientUnits="userSpaceOnUse">
<stop offset="0.0036" stop-color="#E38DDD"/>
<stop offset="1" stop-color="#9571F6"/>
</linearGradient>
<linearGradient id="paint28_linear_43_8686" x1="479.539" y1="-12.5302" x2="428.962" y2="60.1981" gradientUnits="userSpaceOnUse">
<stop offset="0.0036" stop-color="#E38DDD"/>
<stop offset="1" stop-color="#9571F6"/>
</linearGradient>
<linearGradient id="paint29_linear_43_8686" x1="415.051" y1="-1.96415" x2="363.203" y2="72.5915" gradientUnits="userSpaceOnUse">
<stop offset="0.0036" stop-color="#E38DDD"/>
<stop offset="1" stop-color="#9571F6"/>
</linearGradient>
<linearGradient id="paint30_linear_43_8686" x1="256.845" y1="-34.1337" x2="202.04" y2="44.6727" gradientUnits="userSpaceOnUse">
<stop offset="0.0036" stop-color="#E38DDD"/>
<stop offset="1" stop-color="#9571F6"/>
</linearGradient>
<linearGradient id="paint31_linear_43_8686" x1="275.617" y1="-20.6968" x2="221.127" y2="57.6573" gradientUnits="userSpaceOnUse">
<stop offset="0.0036" stop-color="#E38DDD"/>
<stop offset="1" stop-color="#9571F6"/>
</linearGradient>
<linearGradient id="paint32_linear_43_8686" x1="392.717" y1="291.227" x2="394.527" y2="314.258" gradientUnits="userSpaceOnUse">
<stop offset="0.0036" stop-color="#26264F"/>
<stop offset="1" stop-color="#444B8C"/>
</linearGradient>
<linearGradient id="paint33_linear_43_8686" x1="397.389" y1="304.049" x2="397.06" y2="280.195" gradientUnits="userSpaceOnUse">
<stop stop-color="#893976"/>
<stop offset="1" stop-color="#311944"/>
</linearGradient>
<linearGradient id="paint34_linear_43_8686" x1="391.697" y1="265.407" x2="409.334" y2="265.407" gradientUnits="userSpaceOnUse">
<stop stop-color="#FF9085"/>
<stop offset="1" stop-color="#FB6FBB"/>
</linearGradient>
<linearGradient id="paint35_linear_43_8686" x1="392.917" y1="265.408" x2="409.334" y2="265.408" gradientUnits="userSpaceOnUse">
<stop stop-color="#FF9085"/>
<stop offset="1" stop-color="#FB6FBB"/>
</linearGradient>
<linearGradient id="paint36_linear_43_8686" x1="426.919" y1="288.54" x2="428.729" y2="311.571" gradientUnits="userSpaceOnUse">
<stop offset="0.0036" stop-color="#26264F"/>
<stop offset="1" stop-color="#444B8C"/>
</linearGradient>
<linearGradient id="paint37_linear_43_8686" x1="428.734" y1="303.617" x2="428.405" y2="279.763" gradientUnits="userSpaceOnUse">
<stop stop-color="#893976"/>
<stop offset="1" stop-color="#311944"/>
</linearGradient>
<linearGradient id="paint38_linear_43_8686" x1="397.107" y1="263.67" x2="432.612" y2="263.67" gradientUnits="userSpaceOnUse">
<stop stop-color="#FF9085"/>
<stop offset="1" stop-color="#FB6FBB"/>
</linearGradient>
<linearGradient id="paint39_linear_43_8686" x1="421.784" y1="182.051" x2="454.466" y2="211.964" gradientUnits="userSpaceOnUse">
<stop offset="0.0036" stop-color="#26264F"/>
<stop offset="1" stop-color="#444B8C"/>
</linearGradient>
<linearGradient id="paint40_linear_43_8686" x1="331.809" y1="172.897" x2="339.041" y2="172.897" gradientUnits="userSpaceOnUse">
<stop stop-color="#893976"/>
<stop offset="1" stop-color="#311944"/>
</linearGradient>
<linearGradient id="paint41_linear_43_8686" x1="364.801" y1="193.908" x2="406.716" y2="274.968" gradientUnits="userSpaceOnUse">
<stop stop-color="#FFC444"/>
<stop offset="0.9964" stop-color="#F36F56"/>
</linearGradient>
<linearGradient id="paint42_linear_43_8686" x1="385.99" y1="182.891" x2="427.905" y2="263.951" gradientUnits="userSpaceOnUse">
<stop stop-color="#FFC444"/>
<stop offset="0.9964" stop-color="#F36F56"/>
</linearGradient>
<linearGradient id="paint43_linear_43_8686" x1="385.991" y1="182.89" x2="427.906" y2="263.951" gradientUnits="userSpaceOnUse">
<stop stop-color="#FFC444"/>
<stop offset="0.9964" stop-color="#F36F56"/>
</linearGradient>
<linearGradient id="paint44_linear_43_8686" x1="383.832" y1="210.113" x2="373.723" y2="226.869" gradientUnits="userSpaceOnUse">
<stop offset="0.0036" stop-color="#6165D7"/>
<stop offset="1" stop-color="#AA80F9"/>
</linearGradient>
<linearGradient id="paint45_linear_43_8686" x1="390.96" y1="209.358" x2="365.202" y2="223.068" gradientUnits="userSpaceOnUse">
<stop stop-color="#AA80F9"/>
<stop offset="0.9964" stop-color="#6165D7"/>
</linearGradient>
<linearGradient id="paint46_linear_43_8686" x1="378.947" y1="192.591" x2="375.901" y2="202.562" gradientUnits="userSpaceOnUse">
<stop offset="0.0036" stop-color="#26264F"/>
<stop offset="1" stop-color="#444B8C"/>
</linearGradient>
<linearGradient id="paint47_linear_43_8686" x1="390.016" y1="207.585" x2="364.257" y2="221.295" gradientUnits="userSpaceOnUse">
<stop stop-color="#AA80F9"/>
<stop offset="0.9964" stop-color="#6165D7"/>
</linearGradient>
<linearGradient id="paint48_linear_43_8686" x1="387.016" y1="218.137" x2="396.988" y2="218.137" gradientUnits="userSpaceOnUse">
<stop stop-color="#893976"/>
<stop offset="1" stop-color="#311944"/>
</linearGradient>
<linearGradient id="paint49_linear_43_8686" x1="396.379" y1="181.074" x2="439.889" y2="281.202" gradientUnits="userSpaceOnUse">
<stop stop-color="#FFC444"/>
<stop offset="0.2466" stop-color="#FCAF48"/>
<stop offset="0.9964" stop-color="#F36F56"/>
</linearGradient>
<linearGradient id="paint50_linear_43_8686" x1="387.968" y1="187.022" x2="395.947" y2="167.956" gradientUnits="userSpaceOnUse">
<stop stop-color="#893976"/>
<stop offset="1" stop-color="#311944"/>
</linearGradient>
<linearGradient id="paint51_linear_43_8686" x1="385.156" y1="178.79" x2="401.002" y2="164.063" gradientUnits="userSpaceOnUse">
<stop stop-color="#893976"/>
<stop offset="1" stop-color="#311944"/>
</linearGradient>
</defs>
</svg>
