<svg width="386" height="301" viewBox="0 0 386 301" fill="none" xmlns="http://www.w3.org/2000/svg">
<g clip-path="url(#clip0_43_11646)">
<path d="M86.5867 271.422C86.5867 271.422 37.3223 244.315 25.0162 173.369C15.603 119.103 39.5085 114.641 71.8594 71.4611C104.211 28.2825 101.796 9.47393 154.421 0.653005C189.27 -5.18819 241.875 29.7016 302.722 43.8208C337.536 51.8997 388.828 98.3986 385.877 163.618C382.784 231.982 283.525 291.494 222.937 289.312C170.728 287.43 86.5867 271.421 86.5867 271.421V271.422Z" fill="#F0EEFF"/>
<path d="M109.333 271.253C109.333 271.253 110.194 221.507 73.2236 194.936C36.2527 168.368 28.0281 139.184 25.3252 128.797" stroke="#788CD0" stroke-width="14.15" stroke-linejoin="round"/>
<path d="M25.9927 130.96C21.317 132.077 8.0307 120.473 9.83765 108.339C10.9553 100.828 22.8864 96.3292 29.1265 102.546C34.5582 107.957 33.3447 129.205 25.9935 130.96H25.9927Z" fill="#BDBDFB"/>
<path d="M32.8972 147.841C29.215 144.752 30.6327 127.178 41.4653 121.402C48.1705 117.827 58.8913 124.725 57.6086 133.435C56.4926 141.019 38.6856 152.697 32.8972 147.84V147.841Z" fill="#BDBDFB"/>
<path d="M46.3147 169.326C42.9925 165.853 46.3239 148.54 57.7232 143.981C64.7793 141.159 74.6809 149.187 72.4538 157.705C70.5152 165.122 51.538 174.785 46.3147 169.326Z" fill="#BDBDFB"/>
<path d="M63.834 187.761C60.5877 184.219 64.2899 166.98 75.7834 162.666C82.8979 159.996 92.6261 168.234 90.2165 176.704C88.1187 184.075 68.939 193.329 63.834 187.761Z" fill="#BDBDFB"/>
<path d="M86.085 206.037C82.7803 202.549 86.1967 185.251 97.6177 180.749C104.687 177.96 114.549 186.038 112.281 194.545C110.305 201.949 91.2817 211.522 86.085 206.037Z" fill="#BDBDFB"/>
<path d="M101.045 229.825C98.0462 226.07 102.913 209.124 114.673 205.6C121.953 203.42 131.098 212.3 128.118 220.585C125.523 227.797 105.758 235.728 101.044 229.824L101.045 229.825Z" fill="#BDBDFB"/>
<path d="M31.8412 148.688C31.652 143.888 16.8788 134.247 5.67623 139.268C-1.2582 142.375 -2.36504 155.067 5.312 159.388C11.9947 163.15 32.1387 156.235 31.842 148.688H31.8412Z" fill="#BDBDFB"/>
<path d="M46.2648 170.124C44.6471 165.601 27.6627 160.818 18.4771 168.958C12.7912 173.997 15.5375 186.439 24.1572 188.267C31.6609 189.857 48.8094 177.234 46.2657 170.124H46.2648Z" fill="#BDBDFB"/>
<path d="M63.8748 188.733C62.1604 184.245 45.0768 179.83 36.0679 188.164C30.4912 193.323 33.5042 205.705 42.1605 207.347C49.6967 208.774 66.5702 195.788 63.8748 188.733Z" fill="#BDBDFB"/>
<path d="M86.0084 207.672C84.3682 203.158 67.3605 198.459 58.2149 206.644C52.5532 211.71 55.3603 224.14 63.9891 225.924C71.5003 227.478 88.5872 214.772 86.0084 207.672Z" fill="#BDBDFB"/>
<path d="M100.13 229.558C98.1137 225.196 80.7702 221.951 72.3488 230.878C67.1364 236.403 70.9836 248.553 79.7317 249.602C87.347 250.516 103.3 236.413 100.13 229.558Z" fill="#BDBDFB"/>
<path d="M116.329 268.929C116.329 268.929 160.028 153.715 118.002 119.155C75.9751 84.5953 57.5572 54.1734 59.7133 33.6893C61.8703 13.2051 23.3243 98.2431 49.5484 137.515C75.7725 176.786 106.719 224.822 113.396 270.449L116.329 268.929Z" fill="#DADAFF"/>
<path d="M71.0006 107.192C71.9074 106.814 102.797 152.578 110.626 168.216C124.632 196.191 122.065 238.925 119.182 260.761C117.498 265.782 116.333 268.93 116.333 268.93L116.277 268.956C116.263 261.389 116.769 247.494 117.222 234.961C118.048 212.09 109.387 179.847 106.303 173.601C103.21 167.336 96.1838 154.642 86.4055 138.47C78.5426 125.464 70.2105 107.522 71.0015 107.193L71.0006 107.192Z" fill="#BDBDFB"/>
<path d="M40.373 271.253C40.373 254.823 113.843 241.506 204.473 241.506C295.103 241.506 368.573 254.823 368.573 271.253C368.573 287.683 295.102 301 204.473 301C113.844 301 40.373 287.683 40.373 271.253Z" fill="#D4CFF5"/>
<path d="M109.598 48.3877H333.248C339.566 48.3877 344.686 53.5035 344.686 59.8144V202.627C344.686 208.937 339.566 214.052 333.248 214.052H109.598C103.282 214.052 98.1621 208.937 98.1621 202.627V59.8153C98.1621 53.5044 103.282 48.3885 109.598 48.3885V48.3877Z" fill="url(#paint0_linear_43_11646)"/>
<path d="M109.6 57.3457C108.242 57.3457 107.124 58.4475 107.124 59.8133V202.626C107.124 203.984 108.233 205.094 109.6 205.094H333.248C334.606 205.094 335.723 203.992 335.723 202.626V59.8133C335.723 58.4558 334.615 57.3457 333.248 57.3457H109.6Z" fill="url(#paint1_linear_43_11646)"/>
<path d="M194.388 214.053H248.461L264.327 246.553H178.521L194.388 214.053Z" fill="url(#paint2_linear_43_11646)"/>
<path d="M178.521 246.553H264.328L289.629 261.779H153.219L178.521 246.553Z" fill="url(#paint3_linear_43_11646)"/>
<path d="M153.219 261.779H289.629V264.611H153.219V261.779Z" fill="url(#paint4_linear_43_11646)"/>
<path opacity="0.54" d="M200.177 57.3457H245.841L190.298 205.094H144.633L200.177 57.3457Z" fill="white"/>
<path opacity="0.54" d="M272.817 57.3457H297.654L242.11 205.094H217.272L272.817 57.3457Z" fill="white"/>
<path d="M182.758 178.549C179.607 178.485 176.396 178.96 173.244 180.04C169.212 181.42 165.708 183.647 162.86 186.445H104.975C102.208 183.752 98.8345 181.591 94.9539 180.216C80.5933 175.127 64.8233 182.636 59.73 196.983L44.08 241.071C38.9867 255.421 46.4979 271.178 60.8585 276.268C75.2191 281.357 90.9891 273.853 96.0824 259.503L105.023 234.312H162.703L171.283 259.309C176.226 273.709 191.918 281.383 206.33 276.443C220.744 271.504 228.424 255.826 223.48 241.424L208.289 197.174C204.427 185.924 194.006 178.781 182.759 178.548L182.758 178.549Z" fill="#5456A3"/>
<path d="M190.685 178.633C187.537 178.569 184.325 179.042 181.172 180.123C177.141 181.505 173.637 183.732 170.788 186.53H112.903C110.136 183.834 106.763 181.674 102.883 180.298C88.5221 175.209 72.7521 182.718 67.6588 197.068L52.0089 241.156C46.9155 255.504 54.4259 271.262 68.7865 276.352C83.1471 281.442 98.9171 273.935 104.011 259.588L112.951 234.396H170.631L179.211 259.392C184.153 273.794 199.846 281.466 214.258 276.528C228.672 271.589 236.35 255.908 231.408 241.508L216.217 197.259C212.355 186.007 201.934 178.863 190.685 178.633Z" fill="#7172BC"/>
<path d="M75.3704 199.507C78.9709 189.364 90.1194 184.058 100.271 187.656C110.423 191.253 115.733 202.391 112.133 212.537C108.532 222.68 97.3838 227.986 87.2322 224.388C77.0806 220.791 71.7698 209.651 75.3704 199.507Z" fill="url(#paint5_linear_43_11646)"/>
<path d="M93.9172 191.616L92.2469 196.321C91.8952 197.312 91.8435 198.936 92.1319 199.947L93.1145 203.392C93.2754 203.958 94.2106 204.522 94.6498 204.617C94.9957 204.693 94.8173 204.395 95.1966 204.129L98.1295 202.073C98.9913 201.468 99.9748 200.174 100.327 199.182L101.998 194.478C102.349 193.487 101.83 192.398 100.838 192.046L96.3509 190.456C95.3582 190.104 94.2689 190.623 93.9172 191.615V191.616Z" fill="#9043B2"/>
<path d="M94.6281 191.869L92.9579 196.574C92.6061 197.564 92.5545 199.189 92.8428 200.2L93.8247 203.645C94.113 204.656 95.0457 204.987 95.9075 204.383L98.8405 202.327C99.7023 201.722 100.687 200.428 101.038 199.436L102.709 194.732C103.06 193.74 102.542 192.652 101.549 192.3L97.0618 190.71C96.07 190.358 94.9798 190.877 94.6281 191.868V191.869Z" fill="url(#paint6_linear_43_11646)"/>
<path d="M79.3352 206.014L84.0617 207.63C85.0577 207.972 86.683 208.006 87.6923 207.706L91.1295 206.687C91.6938 206.518 92.2489 205.579 92.3397 205.138C92.4105 204.794 92.1155 204.974 91.8446 204.598L89.7543 201.691C89.14 200.836 87.8348 199.866 86.8388 199.525L82.1123 197.91C81.1163 197.569 80.0328 198.1 79.691 199.095L78.1491 203.594C77.8082 204.591 78.3392 205.674 79.3352 206.014Z" fill="#9043B2"/>
<path d="M79.5792 205.301L84.3057 206.919C85.3017 207.259 86.927 207.293 87.9363 206.993L91.3727 205.974C92.382 205.675 92.7021 204.739 92.0878 203.885L89.9975 200.978C89.3832 200.123 88.078 199.155 87.082 198.815L82.3554 197.197C81.3594 196.856 80.2759 197.388 79.9342 198.382L78.3923 202.884C78.0514 203.878 78.5823 204.961 79.5783 205.302L79.5792 205.301Z" fill="url(#paint7_linear_43_11646)"/>
<path d="M84.7967 217.309L86.4669 212.604C86.8186 211.612 87.803 210.32 88.6648 209.715L91.6002 207.659C92.0828 207.321 93.1647 207.471 93.5655 207.673C93.8814 207.832 93.5555 207.951 93.6822 208.397L94.6624 211.84C94.9508 212.851 94.8983 214.476 94.5465 215.468L92.8763 220.173C92.5245 221.163 91.4352 221.681 90.4426 221.331L85.956 219.74C84.9634 219.39 84.4449 218.3 84.7967 217.308V217.309Z" fill="#9043B2"/>
<path d="M85.5075 217.561L87.1777 212.857C87.5294 211.865 88.5138 210.572 89.3756 209.968L92.311 207.912C93.1728 207.307 94.1055 207.638 94.393 208.65L95.3732 212.092C95.6616 213.103 95.6099 214.729 95.2573 215.718L93.5871 220.424C93.2353 221.415 92.1452 221.933 91.1534 221.583L86.666 219.991C85.6733 219.639 85.1549 218.551 85.5066 217.56L85.5075 217.561Z" fill="url(#paint8_linear_43_11646)"/>
<path d="M105.148 214.844L100.422 213.228C99.4257 212.886 98.1205 211.917 97.507 211.063L95.4167 208.153C95.0733 207.675 95.2108 206.592 95.41 206.19C95.5659 205.871 95.6884 206.198 96.1327 206.064L99.5682 205.048C100.578 204.749 102.203 204.782 103.2 205.124L107.926 206.74C108.922 207.08 109.453 208.163 109.112 209.16L107.57 213.659C107.229 214.654 106.146 215.184 105.149 214.845L105.148 214.844Z" fill="#9043B2"/>
<path d="M105.392 214.132L100.666 212.514C99.6696 212.174 98.3644 211.206 97.7509 210.351L95.6606 207.439C95.0463 206.585 95.3672 205.649 96.3766 205.352L99.8121 204.334C100.821 204.036 102.447 204.07 103.444 204.409L108.17 206.028C109.166 206.368 109.697 207.451 109.356 208.445L107.814 212.947C107.473 213.942 106.389 214.472 105.393 214.132H105.392Z" fill="url(#paint9_linear_43_11646)"/>
<path d="M208.481 199.618C204.985 189.436 193.892 184.014 183.705 187.504C173.516 190.997 168.088 202.08 171.582 212.26C175.077 222.441 186.17 227.864 196.357 224.373C206.547 220.881 211.974 209.797 208.481 199.618Z" fill="url(#paint10_linear_43_11646)"/>
<path d="M182.274 198.384C181.479 196.18 182.622 193.751 184.825 192.954C187.03 192.159 189.464 193.301 190.259 195.505C191.054 197.708 189.911 200.137 187.706 200.932C185.501 201.726 183.069 200.587 182.274 198.384Z" fill="#9043B2"/>
<path d="M183.188 198.053C182.393 195.85 183.536 193.42 185.741 192.626C187.944 191.831 190.378 192.971 191.173 195.174C191.968 197.378 190.825 199.807 188.62 200.602C186.417 201.399 183.984 200.257 183.188 198.053Z" fill="url(#paint11_linear_43_11646)"/>
<path d="M176.549 210.802C175.753 208.598 176.896 206.166 179.1 205.372C181.305 204.577 183.739 205.719 184.534 207.923C185.329 210.126 184.186 212.555 181.981 213.35C179.776 214.144 177.344 213.003 176.549 210.802Z" fill="#9043B2"/>
<path d="M177.464 210.471C176.668 208.268 177.811 205.838 180.015 205.044C182.219 204.249 184.653 205.389 185.448 207.592C186.243 209.796 185.1 212.225 182.895 213.02C180.691 213.814 178.259 212.675 177.463 210.471H177.464Z" fill="url(#paint12_linear_43_11646)"/>
<path d="M194.617 204.288C193.819 202.086 194.959 199.655 197.165 198.858C199.367 198.061 201.801 199.2 202.599 201.404C203.396 203.605 202.256 206.036 200.051 206.833C197.848 207.63 195.414 206.491 194.617 204.288Z" fill="#9043B2"/>
<path d="M195.532 203.957C194.734 201.756 195.874 199.325 198.08 198.528C200.283 197.731 202.716 198.87 203.514 201.074C204.311 203.275 203.171 205.706 200.966 206.503C198.763 207.3 196.329 206.161 195.532 203.957Z" fill="url(#paint13_linear_43_11646)"/>
<path d="M188.89 216.704C188.094 214.5 189.237 212.069 191.442 211.274C193.648 210.48 196.079 211.621 196.874 213.825C197.669 216.029 196.527 218.458 194.324 219.252C192.118 220.047 189.687 218.905 188.89 216.704Z" fill="#9043B2"/>
<path d="M189.807 216.374C189.012 214.17 190.152 211.741 192.357 210.946C194.563 210.152 196.994 211.291 197.789 213.495C198.584 215.698 197.444 218.127 195.239 218.922C193.033 219.716 190.602 218.577 189.807 216.374Z" fill="url(#paint14_linear_43_11646)"/>
<path d="M121.256 186.529V202.909C121.256 205.669 123.496 207.909 126.261 207.909H157.52C160.285 207.909 162.525 205.669 162.525 202.909V186.529H121.256Z" fill="#6768AD"/>
<path d="M123.493 218.096C117.838 218.096 113.259 222.679 113.259 228.327C113.259 233.976 117.84 238.552 123.493 238.552C129.146 238.552 133.731 233.974 133.731 228.327C133.731 222.681 129.146 218.096 123.493 218.096Z" fill="url(#paint15_linear_43_11646)"/>
<path d="M114.964 228.326C114.964 223.619 118.783 219.803 123.494 219.803C128.206 219.803 132.025 223.619 132.025 228.326C132.025 233.032 128.206 236.851 123.494 236.851C118.783 236.851 114.964 233.034 114.964 228.326Z" fill="url(#paint16_linear_43_11646)"/>
<path d="M123.493 222.309C120.17 222.309 117.474 225.004 117.474 228.329C117.474 231.653 120.167 234.342 123.493 234.342C126.819 234.342 129.516 231.651 129.516 228.329C129.516 225.007 126.819 222.309 123.493 222.309Z" fill="url(#paint17_linear_43_11646)"/>
<path d="M160.283 218.096C154.629 218.096 150.049 222.679 150.049 228.327C150.049 233.976 154.63 238.552 160.283 238.552C165.936 238.552 170.521 233.974 170.521 228.327C170.521 222.681 165.936 218.096 160.283 218.096Z" fill="url(#paint18_linear_43_11646)"/>
<path d="M151.754 228.326C151.754 223.619 155.573 219.803 160.284 219.803C164.996 219.803 168.815 223.619 168.815 228.326C168.815 233.032 164.996 236.851 160.284 236.851C155.573 236.851 151.754 233.034 151.754 228.326Z" fill="url(#paint19_linear_43_11646)"/>
<path d="M160.283 222.309C156.96 222.309 154.264 225.004 154.264 228.329C154.264 231.653 156.957 234.342 160.283 234.342C163.608 234.342 166.306 231.651 166.306 228.329C166.306 225.007 163.608 222.309 160.283 222.309Z" fill="url(#paint20_linear_43_11646)"/>
<path d="M64.2191 206.756L52.0089 241.155C46.9155 255.503 54.4259 271.261 68.7865 276.351C75.4875 278.726 82.4945 278.355 88.5813 275.83C89.899 262.76 83.3496 245.086 73.7656 235.287C66.6128 227.973 64.66 216.535 64.2191 206.756Z" fill="#6364B4"/>
<path d="M177.617 241.13C176.033 241.099 174.504 241.221 173.034 241.399L179.211 259.392C183.458 271.765 195.636 279.163 208.121 277.871C203.976 273.949 200.089 267.802 197.617 257.856C194.353 244.722 185.577 241.286 177.616 241.131L177.617 241.13Z" fill="#6364B4"/>
<path d="M114.817 200.592C114.817 200.592 114.769 201.327 113.478 203.645C112.72 205.006 109.852 205.719 109.385 207.05C108.918 208.383 111.804 210.279 112.208 212.168C112.612 214.058 112.758 215.345 112.707 217.801C112.656 220.257 117.579 222.323 118.135 221.37C118.588 220.592 116.732 218.115 116.711 215.931C116.69 213.747 116.679 209.152 117.112 207.862C117.981 205.271 119.126 203.636 119.773 202.882C120.422 202.127 114.817 200.593 114.817 200.593L114.817 200.592Z" fill="#FBDCBD"/>
<path d="M112.678 204.488C111.531 205.362 109.746 206.026 109.386 207.053C109.093 207.891 110.112 208.96 111.019 210.101C111.441 207.994 112.323 205.478 112.678 204.488Z" fill="#84501C"/>
<path d="M116.958 217.407C115.635 217.573 113.772 217.109 112.706 216.781C112.708 217.112 112.714 217.422 112.706 217.802C112.656 220.256 117.58 222.323 118.136 221.372C118.489 220.767 117.449 219.131 116.958 217.408V217.407Z" fill="#84501C"/>
<path d="M107.895 167.806C107.895 167.806 132.119 170.38 134.054 180.024C134.486 182.173 129.96 188.024 126.728 193.008C123.538 197.931 120.436 204.408 118.869 204.629C117.301 204.85 112.747 203.335 113.821 200.557C114.548 198.673 117.281 191.806 119.637 186.586C120.752 184.113 123.032 183.212 122.664 181.158C122.235 178.765 104.417 179.029 100.345 176.702C94.7895 173.526 96.8806 174.842 94.8078 171.367C91.2148 165.347 107.896 167.805 107.896 167.805L107.895 167.806Z" fill="#7196BC"/>
<path d="M113.283 200.825L119.901 204.068C120.247 204.237 120.39 204.656 120.22 205.001L119.647 206.169C119.477 206.514 119.059 206.657 118.713 206.488L112.095 203.245C111.749 203.076 111.606 202.657 111.776 202.312L112.349 201.144C112.519 200.799 112.937 200.656 113.283 200.825Z" fill="#5983AF"/>
<path d="M105.516 207.786C105.516 207.786 105.68 208.541 105.05 211.251C104.68 212.838 101.997 214.387 101.912 215.862C101.827 217.335 105.281 218.415 106.234 220.2C107.188 221.987 107.706 223.243 108.365 225.73C109.024 228.216 114.58 228.88 114.865 227.757C115.097 226.843 112.51 224.883 111.858 222.688C111.206 220.497 109.866 215.871 109.929 214.446C110.055 211.586 110.735 209.609 111.17 208.662C111.605 207.715 105.515 207.786 105.515 207.786H105.516Z" fill="#FBDCBD"/>
<path d="M104.487 212.328C103.585 213.539 101.98 214.722 101.914 215.862C101.86 216.789 103.196 217.572 104.44 218.46C104.255 216.216 104.417 213.427 104.488 212.328H104.487Z" fill="#84501C"/>
<path d="M112.534 224.106C111.249 224.656 109.24 224.728 108.071 224.703C108.169 225.037 108.264 225.345 108.366 225.731C109.025 228.218 114.581 228.879 114.867 227.758C115.047 227.047 113.527 225.7 112.534 224.105V224.106Z" fill="#84501C"/>
<path d="M96.9093 172.675C96.9093 172.675 114.21 172.361 118.947 181.517C120.003 183.558 117.136 190.756 115.321 196.712C113.531 202.589 112.28 210.008 110.765 210.684C109.25 211.359 104.225 211.148 104.503 208.04C104.781 204.933 107.716 188.512 108.281 186.938C108.846 185.364 102.982 185.979 98.2078 184.811C91.6943 183.217 86.2693 181.629 83.1763 178.729C77.8171 173.701 96.9101 172.675 96.9101 172.675H96.9093Z" fill="#87AED7"/>
<path d="M104.039 208.463L111.642 209.819C112.04 209.891 112.305 210.271 112.233 210.669L111.993 212.009C111.922 212.406 111.542 212.672 111.145 212.601L103.54 211.244C103.143 211.172 102.878 210.792 102.949 210.395L103.189 209.053C103.26 208.658 103.64 208.392 104.038 208.463H104.039Z" fill="#5983AF"/>
<path d="M105.752 147.453C105.752 147.453 107.365 146.877 107.16 149.407C106.955 151.936 107.294 155.395 107.336 157.271C107.372 158.86 113.939 163.588 115.75 165.268C117.562 166.948 116.25 166.612 116.257 169.27C116.265 171.93 114.769 168.054 113.224 166.629C111.68 165.205 111.278 165.942 111.511 167.032C111.745 168.122 110.744 167.224 110.26 164.681C109.775 162.135 106.786 163.034 105.065 160.726C103.344 158.42 105.752 147.454 105.752 147.454V147.453Z" fill="#FBDCBD"/>
<path d="M89.783 138.673C89.783 138.673 84.9847 139.717 83.1544 142.475C81.3242 145.231 81.2141 148.674 80.1106 150.29C79.0071 151.903 86.2774 150.614 87.576 154.111C88.8753 157.611 87.2126 159.969 85.7949 165.159C84.4371 170.134 81.9743 174.531 82.0468 177.765C82.1193 181.001 88.6453 178.376 91.3957 176.507C93.2494 175.246 95.5064 172.676 100.443 172.676C105.38 172.676 108.283 170.86 109.334 168.262C110.224 166.063 105.965 166.439 105.853 161.172C105.65 151.602 108.531 149.974 107.827 147.645C107.122 145.318 106.346 140.588 102.95 140.138C99.5537 139.688 100.866 140.573 98.2402 141.428C95.6147 142.285 93.3235 138.519 89.7838 138.675L89.783 138.673Z" fill="#FFA540"/>
<path d="M86.2156 163.735C86.0756 164.192 85.9339 164.654 85.7956 165.16C85.4972 166.254 85.2497 167.187 85.0088 168.075C89.7454 168.917 95.6813 169.536 98.7418 169.336C103.82 169.005 104.459 169.974 107.153 170.735C109.847 171.498 107.807 165.655 103.691 165.747C102.582 165.771 100.649 166.637 98.6743 166.333C93.9177 165.597 88.3668 164.734 86.2156 163.734V163.735Z" fill="#EEA937"/>
<path d="M103.983 131.832C103.983 131.832 105.806 133.845 106.559 135.404C107.313 136.962 106.507 138.94 106.509 138.804C106.53 136.656 106.069 136.277 105.689 135.536C105.172 134.524 104.075 133.246 103.752 133.114C103.43 132.981 103.983 131.832 103.983 131.832Z" fill="#101010"/>
<path d="M103.357 129.901C103.357 129.901 103.138 132.924 104.577 134.733C106.016 136.543 106.544 137.421 105.731 139.471C104.918 141.522 103.975 141.958 104.057 142.78C104.138 143.604 100.671 142.062 99.5485 141.579C98.4249 141.096 98.535 134.614 99.2776 133.74C100.021 132.866 103.356 129.901 103.356 129.901H103.357Z" fill="#101010"/>
<path d="M93.7039 133.716C93.8848 135.069 93.9548 137.94 92.768 138.757C92.3962 139.014 92.3904 139.304 92.6371 139.597C93.4197 140.527 98.6681 144.599 99.7999 144.589C100.932 144.581 101.379 141.36 101.013 140.482C100.87 140.142 100.768 139.799 100.686 139.459C100.369 138.144 100.454 136.885 100.596 136.029C98.6472 136.277 95.9293 134.91 93.7048 133.716H93.7039Z" fill="#FBDCBD"/>
<path d="M93.703 133.716C95.6491 134.761 97.9753 135.939 99.8315 136.051C100.096 136.067 100.351 136.058 100.594 136.028C100.539 136.36 100.502 136.767 100.484 137.201C100.483 137.225 100.481 137.246 100.48 137.271C100.48 137.274 100.48 137.274 100.48 137.277C98.6254 137.491 95.9408 136.053 93.7963 134.933C93.7822 134.473 93.7463 134.047 93.7021 133.716H93.703Z" fill="#EBC6A1"/>
<path d="M104.806 122.336C107.296 129.732 103.196 136.176 100.817 136.496C97.7877 136.902 92.2027 133.759 90.8458 130.186C88.7038 124.546 90.9392 121.083 93.4646 118.96C95.9908 116.837 102.317 114.941 104.806 122.336Z" fill="#FBDCBD"/>
<path d="M96.7108 125.067C96.7108 125.067 99.883 123.464 100.786 124.806C101.362 125.66 100.156 125.526 99.2229 125.197C98.2594 124.857 96.71 125.067 96.71 125.067H96.7108Z" fill="#101010"/>
<path d="M105.763 125.446C105.763 125.446 103.551 123.779 102.897 124.93C102.481 125.662 103.331 125.624 103.992 125.391C104.675 125.15 105.763 125.446 105.763 125.446H105.763Z" fill="#101010"/>
<path d="M101.245 127.784C101.245 127.784 101.928 130.396 101.964 131.167C102 131.938 101.13 131.563 100.306 131.241C99.4834 130.919 100.292 130.98 100.881 130.822C101.47 130.665 101.245 127.784 101.245 127.784H101.245Z" fill="#EBC29A"/>
<path d="M98.583 132.119C98.583 132.119 99.9057 132.79 100.748 132.924C101.589 133.058 102.236 132.639 102.301 132.898C102.374 133.189 101.214 133.708 100.621 133.589C98.773 133.217 98.583 132.119 98.583 132.119Z" fill="#EBC29A"/>
<path d="M99.9404 134.02C99.9404 134.02 100.848 133.815 101 134.174C101.074 134.35 100.841 134.194 100.577 134.155C100.312 134.117 99.9554 134.144 99.9413 134.019L99.9404 134.02Z" fill="#EBC29A"/>
<path d="M98.4997 126.145C97.9271 126.07 97.3979 126.509 97.317 127.125C97.317 127.125 97.207 127.831 97.207 128.222C97.207 128.614 97.3179 128.656 97.3179 128.694C97.6513 128.656 97.8371 128.63 98.2389 128.683C98.6406 128.736 99.3365 128.882 99.3415 128.843L99.5282 127.415C99.6091 126.799 99.2098 126.238 98.6372 126.163L98.4997 126.146V126.145Z" fill="#D5AA7F"/>
<path d="M98.6774 126.361C98.1048 126.287 97.5797 126.69 97.5047 127.262L97.3314 128.588C97.3264 128.624 97.3272 128.66 97.3272 128.696C97.6598 128.663 98.0381 128.667 98.4399 128.719C98.8416 128.772 99.2067 128.866 99.5192 128.982C99.5284 128.948 99.5375 128.914 99.5425 128.878L99.7159 127.552C99.7909 126.979 99.3875 126.455 98.8149 126.38L98.6774 126.361Z" fill="#FFF5EB"/>
<path d="M98.6769 126.36C98.5468 126.344 98.4202 126.355 98.2993 126.384C98.1701 126.603 98.0718 126.883 98.0301 127.2C97.9309 127.957 98.1876 128.615 98.601 128.669C99.0152 128.723 99.4303 128.153 99.5295 127.396C99.5562 127.195 99.5553 127.002 99.5353 126.823C99.3728 126.589 99.1186 126.419 98.8135 126.379L98.676 126.36H98.6769Z" fill="#37291B"/>
<path opacity="0.43" d="M98.6774 126.361C98.1048 126.286 97.5797 126.689 97.5047 127.261L97.3314 128.587C97.3264 128.623 97.3272 128.659 97.3272 128.695C97.373 128.691 97.4264 128.693 97.4739 128.69L97.6239 127.545C97.6989 126.973 98.224 126.57 98.7966 126.644L98.9341 126.663C99.265 126.706 99.5359 126.903 99.6942 127.17C99.5951 126.763 99.2567 126.436 98.8158 126.379L98.6782 126.361H98.6774Z" fill="#9C8CBD"/>
<path d="M98.3831 127.736C98.4589 127.385 98.7065 127.14 98.9365 127.19C99.1666 127.239 99.2916 127.564 99.2166 127.915C99.1407 128.265 98.8932 128.51 98.6631 128.46C98.4331 128.411 98.3081 128.086 98.3831 127.736Z" fill="black"/>
<path opacity="0.43" d="M98.7429 128.14C98.7762 127.984 98.8863 127.876 98.988 127.897C99.0896 127.919 99.1455 128.063 99.1113 128.219C99.078 128.374 98.9679 128.483 98.8663 128.461C98.7646 128.439 98.7087 128.295 98.7421 128.14H98.7429Z" fill="white"/>
<path d="M98.8069 127.819C98.8277 127.724 98.8944 127.657 98.9569 127.671C99.0194 127.684 99.0536 127.772 99.0328 127.868C99.0119 127.964 98.9453 128.03 98.8827 128.016C98.8202 128.003 98.7861 127.915 98.8069 127.819Z" fill="white"/>
<path d="M103.989 126.712C103.424 126.597 102.863 126.996 102.738 127.604C102.738 127.604 102.577 128.3 102.549 128.691C102.52 129.082 102.628 129.132 102.625 129.17C102.96 129.156 103.147 129.144 103.544 129.226C103.941 129.307 104.624 129.504 104.632 129.465L104.923 128.053C105.048 127.444 104.692 126.856 104.126 126.741L103.99 126.712H103.989Z" fill="#D5AA7F"/>
<path d="M104.151 126.942C103.585 126.825 103.032 127.189 102.915 127.754L102.645 129.064C102.638 129.1 102.636 129.135 102.633 129.171C102.967 129.163 103.344 129.194 103.74 129.275C104.137 129.357 104.495 129.477 104.798 129.616C104.81 129.582 104.821 129.549 104.829 129.513L105.099 128.203C105.215 127.638 104.851 127.086 104.286 126.969L104.15 126.942H104.151Z" fill="#FFF5EB"/>
<path d="M104.15 126.941C104.022 126.914 103.894 126.916 103.772 126.936C103.627 127.145 103.509 127.417 103.444 127.73C103.29 128.478 103.499 129.153 103.907 129.237C104.316 129.321 104.772 128.783 104.925 128.035C104.966 127.836 104.98 127.643 104.973 127.465C104.828 127.219 104.587 127.031 104.285 126.969L104.15 126.942L104.15 126.941Z" fill="#37291B"/>
<path opacity="0.43" d="M104.151 126.941C103.586 126.824 103.032 127.188 102.916 127.753L102.646 129.063C102.639 129.099 102.637 129.134 102.634 129.17C102.68 129.169 102.733 129.176 102.78 129.176L103.013 128.045C103.129 127.48 103.682 127.116 104.247 127.232L104.383 127.26C104.71 127.328 104.966 127.544 105.104 127.822C105.035 127.408 104.721 127.058 104.286 126.969L104.15 126.942L104.151 126.941Z" fill="#9C8CBD"/>
<path d="M103.757 128.291C103.858 127.946 104.123 127.72 104.349 127.787C104.575 127.853 104.675 128.186 104.575 128.53C104.474 128.875 104.209 129.1 103.983 129.034C103.757 128.968 103.656 128.635 103.757 128.291Z" fill="black"/>
<path opacity="0.43" d="M104.087 128.718C104.131 128.566 104.248 128.465 104.349 128.494C104.449 128.523 104.493 128.671 104.449 128.824C104.404 128.976 104.287 129.076 104.187 129.047C104.087 129.018 104.042 128.871 104.087 128.718Z" fill="white"/>
<path d="M104.173 128.405C104.2 128.311 104.272 128.25 104.334 128.268C104.395 128.285 104.423 128.376 104.395 128.47C104.368 128.563 104.296 128.625 104.235 128.607C104.174 128.59 104.146 128.499 104.174 128.405H104.173Z" fill="white"/>
<path d="M104.75 119.481C105.057 120.526 105.332 121.134 102.717 122.456C100.102 123.779 102.415 121.803 102.401 121.17C102.387 120.539 98.1088 123.335 98.1088 123.335C98.1088 123.335 98.6055 122.405 98.503 121.688C98.4005 120.972 95.7559 124.823 94.4407 125.169C93.1263 125.514 92.3345 126.106 92.3812 126.938C92.4087 127.428 91.7711 125.608 90.8893 126.305C90.0075 127 90.4909 128.305 90.0308 128.035C88.9131 127.38 89.7683 123.37 91.0368 120.792C92.0111 118.813 93.8914 116.792 97.5612 116.482C101.262 116.17 104.001 116.936 104.75 119.482V119.481Z" fill="#13110F"/>
<path d="M93.6571 116.339C91.4909 116.293 90.4982 116.961 88.918 118.414C87.1119 120.073 85.6933 123.12 85.9167 124.576C85.9958 125.092 85.8575 125.929 85.4858 127.105C85.1132 128.281 80.5967 131.518 81.1284 135.207C81.5527 138.148 83.1054 139.457 84.7407 139.421C85.4274 139.404 84.0022 139.149 83.1012 137.922C82.3453 136.891 82.0911 135.512 82.0744 135.164C81.9702 132.979 83.6972 130.487 85.3908 129.221C85.2549 129.536 85.1007 129.832 84.9107 130.072C83.8597 131.398 81.3368 133.274 82.882 136.922C84.3081 140.287 88.0212 139.194 89.5406 138.938C91.0608 138.683 91.015 142.326 92.3085 141.862C92.8944 141.65 92.8711 140.541 93.8263 139.218C94.7822 137.894 94.6014 135.505 93.7029 133.715C92.8053 131.925 91.4684 130.996 90.4357 128.464C89.7439 126.767 91.8843 124.341 91.8843 124.341C91.8843 124.341 97.5627 116.686 94.6639 116.401C94.3013 116.365 93.9663 116.346 93.6571 116.34V116.339Z" fill="#101010"/>
<path d="M89.1975 125.359C89.1975 125.359 91.2354 120.991 94.6267 118.753C96.7429 117.357 100.954 116.765 102.278 116.973C103.601 117.181 99.4892 112.663 93.3449 116.457C90.7303 118.071 88.4049 121.424 89.1975 125.359Z" fill="#FFA540"/>
<path d="M80.9776 151.148C80.9042 151.557 79.564 159.052 78.7564 163.549C78.5005 164.972 77.8237 165.631 78.1021 166.209C78.3805 166.785 79.4531 166.794 80.3641 167.056C81.586 167.408 83.2187 167.756 85.009 168.074C89.7456 168.916 95.6815 169.535 98.742 169.335C103.82 169.005 104.46 169.973 107.153 170.734C107.279 170.77 107.384 170.777 107.489 170.787C106.83 169.863 106.027 169.252 105.571 168.919C105.023 168.514 106.729 168.691 107.743 170.777C108.023 170.732 108.209 170.572 108.298 170.322C107.833 169.325 107.198 168.616 106.837 168.224C106.442 167.793 107.694 168.362 108.353 169.718C108.217 168.214 106.412 165.684 103.689 165.746C102.58 165.77 100.647 166.636 98.6728 166.331C93.9163 165.596 88.3654 164.732 86.2142 163.733C85.8233 163.552 85.5058 163.369 85.3674 163.176C84.4481 161.908 86.4568 156.602 87.5261 154.013C86.5376 151.64 82.7678 151.545 80.9759 151.146L80.9776 151.148Z" fill="#FBDCBD"/>
<path d="M92.5418 151.419C92.5318 150.984 92.8677 150.622 93.2911 150.612C93.7154 150.603 94.0663 150.948 94.0763 151.384C94.0863 151.819 93.7504 152.181 93.3261 152.191C92.9019 152.2 92.551 151.855 92.541 151.419H92.5418Z" fill="white"/>
<path d="M83.4739 148.819C83.4638 148.384 83.7997 148.025 84.224 148.015C84.6482 148.006 84.9991 148.35 85.0091 148.786C85.0191 149.222 84.6832 149.58 84.259 149.59C83.8347 149.6 83.4839 149.255 83.4739 148.819Z" fill="white"/>
<path d="M87.5061 143.035C87.4961 142.599 87.832 142.238 88.2562 142.228C88.6804 142.22 89.0313 142.566 89.0413 143.001C89.0513 143.437 88.7154 143.796 88.292 143.806C87.8678 143.815 87.5169 143.47 87.5069 143.035H87.5061Z" fill="white"/>
<path d="M89.9856 147.244C89.9756 146.808 90.3115 146.447 90.7357 146.437C91.1599 146.428 91.5108 146.772 91.5208 147.208C91.5308 147.643 91.1949 148.005 90.7707 148.015C90.3465 148.024 89.9956 147.679 89.9856 147.244Z" fill="white"/>
<path d="M96.7033 146.817C96.6933 146.382 97.0292 146.023 97.4535 146.013C97.8777 146.004 98.2286 146.348 98.2386 146.784C98.2486 147.22 97.9127 147.579 97.4893 147.589C97.0651 147.598 96.7142 147.253 96.7042 146.817H96.7033Z" fill="white"/>
<path d="M100.728 157.418C100.718 156.982 101.054 156.623 101.478 156.613C101.902 156.604 102.253 156.949 102.263 157.385C102.272 157.82 101.937 158.179 101.513 158.189C101.089 158.198 100.738 157.853 100.728 157.418Z" fill="white"/>
<path d="M103.026 150.396C103.016 149.961 103.351 149.602 103.776 149.592C104.2 149.583 104.551 149.928 104.561 150.363C104.571 150.799 104.235 151.158 103.811 151.168C103.386 151.177 103.036 150.832 103.026 150.396Z" fill="white"/>
<path d="M103.692 145.873C103.682 145.437 104.017 145.079 104.442 145.069C104.866 145.059 105.217 145.404 105.227 145.84C105.237 146.275 104.901 146.634 104.477 146.644C104.052 146.654 103.702 146.309 103.692 145.873Z" fill="white"/>
<path d="M90.2658 160.268C90.2558 159.833 90.5917 159.471 91.016 159.461C91.4402 159.452 91.7911 159.797 91.8011 160.232C91.8102 160.668 91.4752 161.029 91.051 161.039C90.6267 161.049 90.2758 160.704 90.2658 160.268Z" fill="white"/>
<path d="M96.2932 162.836C96.2832 162.401 96.6191 162.04 97.0433 162.03C97.4675 162.02 97.8184 162.365 97.8284 162.801C97.8384 163.236 97.5025 163.598 97.0783 163.608C96.6541 163.617 96.3032 163.27 96.2932 162.836Z" fill="white"/>
<path d="M95.3885 171.428C95.3785 170.992 95.7144 170.633 96.1378 170.623C96.562 170.614 96.9129 170.959 96.9229 171.394C96.9329 171.83 96.5971 172.189 96.1728 172.199C95.7486 172.208 95.3977 171.863 95.3877 171.428H95.3885Z" fill="white"/>
<path d="M89.7326 170.766C89.7226 170.33 90.0585 169.971 90.4828 169.961C90.9062 169.952 91.2579 170.297 91.2679 170.732C91.2779 171.168 90.942 171.527 90.5178 171.537C90.0944 171.546 89.7426 171.201 89.7326 170.766Z" fill="white"/>
<path d="M95.3889 156.75C95.3789 156.314 95.7148 155.953 96.139 155.943C96.5632 155.933 96.9141 156.278 96.9241 156.714C96.9341 157.149 96.5983 157.511 96.1749 157.521C95.7515 157.531 95.3997 157.185 95.3897 156.75H95.3889Z" fill="white"/>
<path d="M103.318 163.467C103.308 163.031 103.644 162.672 104.068 162.662C104.492 162.653 104.843 162.998 104.853 163.433C104.863 163.869 104.527 164.228 104.103 164.238C103.678 164.247 103.327 163.902 103.317 163.467H103.318Z" fill="white"/>
<path d="M96.277 173.442L109.187 173.937C109.456 173.946 109.665 174.172 109.654 174.441L109.637 174.903C109.627 175.169 109.401 175.378 109.132 175.369L96.222 174.874C95.9536 174.865 95.7445 174.639 95.7553 174.37L95.7728 173.908C95.7828 173.639 96.0087 173.43 96.277 173.442Z" fill="#7667B7"/>
<path d="M113.274 158.577L136.525 159.469C137.007 159.485 137.274 159.871 137.122 160.33L132.397 174.492C132.244 174.95 131.73 175.306 131.248 175.287L107.997 174.395C107.515 174.378 107.248 173.993 107.4 173.534L112.125 159.371C112.278 158.914 112.792 158.558 113.274 158.577Z" fill="#E5E0FF"/>
<path d="M113.805 158.599L137.056 159.489C137.538 159.508 137.805 159.894 137.652 160.35L132.927 174.515C132.774 174.972 132.26 175.326 131.778 175.309L108.527 174.418C108.046 174.398 107.778 174.013 107.931 173.556L112.655 159.391C112.808 158.934 113.322 158.58 113.804 158.599L113.805 158.599Z" fill="#C7BBFC"/>
<path d="M108.618 174.418L131.577 175.298C131.748 175.306 131.881 175.446 131.875 175.612L131.862 175.936C131.856 176.103 131.712 176.233 131.541 176.227L108.582 175.347C108.411 175.339 108.278 175.199 108.284 175.035L108.297 174.709C108.304 174.543 108.447 174.415 108.618 174.419V174.418Z" fill="#44367F"/>
<path d="M120.433 166.737C120.563 166.11 120.998 165.669 121.408 165.752C121.817 165.838 122.044 166.414 121.915 167.042C121.786 167.67 121.35 168.111 120.941 168.027C120.532 167.942 120.305 167.366 120.433 166.737Z" fill="#EEEBFF"/>
<path d="M123.357 166.849C123.486 166.221 123.922 165.78 124.331 165.864C124.741 165.949 124.968 166.525 124.839 167.154C124.71 167.782 124.274 168.222 123.865 168.139C123.456 168.056 123.229 167.478 123.357 166.849Z" fill="#EEEBFF"/>
<path d="M126.281 166.962C126.41 166.337 126.846 165.894 127.255 165.979C127.665 166.063 127.892 166.638 127.763 167.267C127.634 167.895 127.198 168.335 126.789 168.252C126.379 168.169 126.153 167.591 126.281 166.962Z" fill="#EEEBFF"/>
<path opacity="0.23" d="M170.183 30.5918C168.455 30.5918 166.892 31.293 165.76 32.4256C164.627 33.5574 163.931 35.1238 163.931 36.8511V158.115C163.931 161.571 166.732 164.369 170.189 164.369H279.542C282.998 164.369 285.801 161.571 285.801 158.115V36.8511C285.801 35.5561 285.406 34.3519 284.729 33.3542C283.605 31.6902 281.703 30.5918 279.542 30.5918H170.183Z" fill="#8E8E8E"/>
<path d="M163.485 22.9775H275.975C279.53 22.9775 282.414 25.8582 282.414 29.4109V154.154C282.414 157.707 279.53 160.588 275.975 160.588H163.485C159.93 160.588 157.047 157.707 157.047 154.154V29.4109C157.047 25.8582 159.93 22.9775 163.485 22.9775Z" fill="white"/>
<path d="M163.483 22.9756C159.928 22.9756 157.049 25.857 157.049 29.4106V35.191H282.411V29.4106C282.411 25.8579 279.527 22.9756 275.972 22.9756H163.483Z" fill="url(#paint21_linear_43_11646)"/>
<path d="M248.356 29.0831C248.356 27.4375 249.692 26.1025 251.338 26.1025C252.983 26.1025 254.322 27.4367 254.322 29.0831C254.322 30.7295 252.986 32.0637 251.338 32.0637C249.69 32.0637 248.356 30.7295 248.356 29.0831Z" fill="white"/>
<path d="M259.117 29.0831C259.117 27.4375 260.453 26.1025 262.098 26.1025C263.744 26.1025 265.082 27.4367 265.082 29.0831C265.082 30.7295 263.746 32.0637 262.098 32.0637C260.451 32.0637 259.117 30.7295 259.117 29.0831Z" fill="white"/>
<path d="M269.878 29.0831C269.878 27.4375 271.214 26.1025 272.859 26.1025C274.504 26.1025 275.843 27.4367 275.843 29.0831C275.843 30.7295 274.507 32.0637 272.859 32.0637C271.211 32.0637 269.878 30.7295 269.878 29.0831Z" fill="white"/>
<path d="M188.602 59.8311H290.708V82.0932H188.602V59.8311Z" fill="#EFBEFF"/>
<path d="M190.328 61.5498V80.3684H288.986V61.5498H190.328Z" fill="white"/>
<path d="M200.822 68.7539H278.487" stroke="#5B4780" stroke-width="10.8" stroke-linecap="round" stroke-linejoin="round"/>
<path d="M200.822 73.1709H246.144" stroke="#5B4780" stroke-width="10.8" stroke-linecap="round" stroke-linejoin="round"/>
<path opacity="0.35" d="M154.275 72.0611C154.275 60.1256 163.959 50.4502 175.904 50.4502C187.849 50.4502 197.533 60.1256 197.533 72.0611C197.533 83.9967 187.848 93.6721 175.904 93.6721C163.959 93.6721 154.275 83.9967 154.275 72.0611Z" fill="#6B6B6B"/>
<path d="M152.14 69.8639C152.14 57.9283 161.823 48.2529 173.768 48.2529C185.713 48.2529 195.397 57.9283 195.397 69.8639C195.397 81.7994 185.712 91.4748 173.768 91.4748C161.824 91.4748 152.14 81.7994 152.14 69.8639Z" fill="#EFBEFF"/>
<path d="M157.309 69.8639C157.309 60.7807 164.677 53.418 173.768 53.418C182.858 53.418 190.227 60.7807 190.227 69.8639C190.227 78.9472 182.857 86.3099 173.768 86.3099C164.679 86.3099 157.309 78.9472 157.309 69.8639Z" stroke="#5B4780" stroke-width="10.8" stroke-linejoin="round"/>
<path d="M164.663 104.291H227.731V143.6H164.663V104.291Z" fill="#EFBEFF"/>
<path d="M166.674 106.305V141.593H225.722V106.305H166.674Z" fill="white"/>
<path d="M166.674 141.592L183.672 119.145L196.198 135.033L207.698 125.57L225.722 141.592H166.674Z" fill="#EFBEFF"/>
<path d="M202.223 115.51C202.223 112.336 204.876 109.764 208.148 109.764C211.42 109.764 214.07 112.336 214.07 115.51C214.07 118.684 211.417 121.256 208.148 121.256C204.878 121.256 202.223 118.684 202.223 115.51Z" fill="#EFBEFF"/>
<path d="M232.022 109.515H251.833" stroke="#5B4780" stroke-width="13.94" stroke-linecap="round" stroke-linejoin="round"/>
<path d="M232.022 115.287H273.837" stroke="#5B4780" stroke-width="13.94" stroke-linecap="round" stroke-linejoin="round"/>
<path d="M232.022 121.061H273.837" stroke="#5B4780" stroke-width="13.94" stroke-linecap="round" stroke-linejoin="round"/>
<path d="M232.022 126.832H273.837" stroke="#5B4780" stroke-width="13.94" stroke-linecap="round" stroke-linejoin="round"/>
<path d="M232.022 132.604H273.837" stroke="#5B4780" stroke-width="13.94" stroke-linecap="round" stroke-linejoin="round"/>
<path d="M232.022 138.376H273.837" stroke="#5B4780" stroke-width="13.94" stroke-linecap="round" stroke-linejoin="round"/>
<path d="M187.728 148.657C187.728 147.819 188.406 147.139 189.244 147.139C190.083 147.139 190.764 147.819 190.764 148.657C190.764 149.495 190.083 150.173 189.244 150.173C188.406 150.173 187.728 149.495 187.728 148.657Z" fill="#4B434D"/>
<path d="M194.682 148.657C194.682 147.819 195.36 147.139 196.199 147.139C197.037 147.139 197.715 147.819 197.715 148.657C197.715 149.495 197.037 150.173 196.199 150.173C195.36 150.173 194.682 149.495 194.682 148.657Z" fill="#B0AEB0"/>
<path d="M201.633 148.657C201.633 147.819 202.311 147.139 203.15 147.139C203.988 147.139 204.669 147.819 204.669 148.657C204.669 149.495 203.988 150.173 203.15 150.173C202.311 150.173 201.633 149.495 201.633 148.657Z" fill="#B0AEB0"/>
<path opacity="0.27" d="M276.875 81.4912H364.365C365.522 81.4912 366.46 82.4298 366.46 83.5848V135.459C366.46 136.615 365.521 137.553 364.364 137.553H276.875C275.718 137.553 274.779 136.615 274.779 135.459V83.5857C274.779 82.4298 275.719 81.4912 276.875 81.4912Z" fill="#474747"/>
<path d="M271.453 75.7998H359.764C360.695 75.7998 361.448 76.5535 361.448 77.4837V130.178C361.448 131.108 360.695 131.862 359.764 131.862H271.453C270.522 131.862 269.767 131.108 269.767 130.178V77.4837C269.767 76.5535 270.522 75.7998 271.453 75.7998Z" fill="#D7B7FF"/>
<path d="M302.231 103.83C302.231 96.4483 308.221 90.4639 315.608 90.4639C322.995 90.4639 328.986 96.4483 328.986 103.83C328.986 111.212 322.996 117.196 315.608 117.196C308.219 117.196 302.231 111.212 302.231 103.83Z" fill="#8A62BB"/>
<path d="M320.339 104.161L311.354 109.427C310.978 109.648 310.67 109.473 310.665 109.036L310.594 98.6289C310.591 98.1925 310.896 98.0134 311.277 98.2291L320.334 103.371C320.712 103.586 320.715 103.94 320.339 104.16V104.161Z" fill="white"/>
<path d="M341.468 214.514C342.44 214.514 343.227 215.299 343.227 216.272V220.7C344.073 220.992 344.897 221.33 345.699 221.708L348.802 218.549C349.486 217.856 350.6 217.846 351.294 218.527L360.367 227.424C361.062 228.104 361.072 229.217 360.391 229.91L357.285 233.075C357.75 234.013 358.16 234.979 358.505 235.978L362.936 235.983C363.911 235.983 364.698 236.768 364.696 237.741L364.688 250.447C364.686 251.418 363.896 252.205 362.924 252.205L358.492 252.2C358.15 253.185 357.745 254.141 357.285 255.065L360.39 258.224C361.071 258.919 361.062 260.032 360.366 260.714L351.293 269.61C350.6 270.291 349.485 270.282 348.802 269.589L345.694 266.424C344.891 266.802 344.072 267.145 343.227 267.438V271.866C343.227 272.839 342.438 273.624 341.467 273.624H328.751C327.777 273.624 326.992 272.838 326.992 271.866V267.438C326.146 267.145 325.325 266.802 324.524 266.424L321.415 269.589C320.734 270.281 319.62 270.291 318.926 269.61L309.85 260.714C309.158 260.033 309.148 258.92 309.829 258.224L312.934 255.065C312.468 254.127 312.06 253.159 311.712 252.159L307.281 252.154C306.309 252.154 305.521 251.369 305.521 250.396L305.536 237.69C305.536 236.719 306.322 235.932 307.295 235.932L311.727 235.937C312.069 234.955 312.474 233.998 312.934 233.075L309.829 229.91C309.148 229.218 309.157 228.104 309.85 227.424L318.926 218.527C319.619 217.846 320.734 217.856 321.415 218.549L324.524 221.713C325.325 221.335 326.146 220.997 326.992 220.705V216.272C326.992 215.298 327.777 214.514 328.751 214.514H341.467H341.468ZM335.112 227.389C325.88 227.389 318.395 234.867 318.395 244.092C318.395 253.317 325.88 260.79 335.112 260.79C344.344 260.79 351.824 253.314 351.824 244.092C351.824 234.87 344.342 227.389 335.112 227.389Z" fill="#164366"/>
<path d="M339.732 214.514C340.704 214.514 341.491 215.299 341.491 216.272V220.7C342.336 220.992 343.161 221.33 343.963 221.708L347.066 218.549C347.747 217.856 348.864 217.846 349.558 218.527L358.631 227.424C359.326 228.104 359.336 229.217 358.652 229.91L355.549 233.075C356.014 234.013 356.424 234.979 356.769 235.978L361.2 235.983C362.174 235.983 362.962 236.768 362.96 237.741L362.95 250.447C362.95 251.418 362.159 252.205 361.188 252.205L356.757 252.2C356.414 253.185 356.009 254.141 355.549 255.065L358.652 258.224C359.336 258.919 359.327 260.032 358.631 260.714L349.558 269.61C348.865 270.291 347.748 270.282 347.066 269.589L343.958 266.424C343.156 266.802 342.336 267.145 341.491 267.438V271.866C341.491 272.839 340.703 273.624 339.732 273.624H327.016C326.041 273.624 325.256 272.838 325.256 271.866V267.438C324.411 267.145 323.589 266.802 322.789 266.424L319.679 269.589C318.999 270.281 317.884 270.291 317.188 269.61L308.115 260.714C307.423 260.033 307.413 258.92 308.093 258.224L311.199 255.065C310.732 254.127 310.325 253.159 309.977 252.159L305.546 252.154C304.574 252.154 303.786 251.369 303.786 250.396L303.8 237.69C303.8 236.719 304.586 235.932 305.56 235.932L309.991 235.937C310.334 234.955 310.739 233.998 311.199 233.075L308.093 229.91C307.413 229.218 307.422 228.104 308.115 227.424L317.188 218.527C317.883 217.846 318.998 217.856 319.679 218.549L322.789 221.713C323.589 221.335 324.411 220.997 325.256 220.705V216.272C325.256 215.298 326.042 214.514 327.016 214.514H339.732ZM333.376 227.389C324.143 227.389 316.659 234.867 316.659 244.092C316.659 253.317 324.143 260.79 333.376 260.79C342.608 260.79 350.088 253.314 350.088 244.092C350.088 234.87 342.606 227.389 333.376 227.389Z" fill="#216396"/>
<path d="M297.537 232.824C298.209 232.824 298.752 233.366 298.752 234.038V237.093C299.335 237.298 299.907 237.529 300.459 237.793L302.602 235.611C303.071 235.133 303.841 235.125 304.319 235.594L310.582 241.735C311.06 242.206 311.068 242.975 310.596 243.453L308.455 245.638C308.777 246.282 309.057 246.951 309.296 247.639L312.355 247.644C313.027 247.644 313.57 248.186 313.57 248.857L313.562 257.627C313.562 258.296 313.017 258.841 312.345 258.838L309.287 258.836C309.049 259.516 308.771 260.176 308.454 260.815L310.595 262.995C311.067 263.473 311.059 264.241 310.581 264.713L304.318 270.854C303.84 271.323 303.071 271.315 302.601 270.837L300.454 268.653C299.901 268.914 299.334 269.15 298.751 269.355V272.41C298.751 273.081 298.208 273.624 297.536 273.624H288.761C288.089 273.624 287.547 273.081 287.547 272.41V269.355C286.961 269.15 286.396 268.914 285.841 268.653L283.696 270.837C283.227 271.315 282.457 271.323 281.979 270.854L275.716 264.713C275.238 264.241 275.23 263.473 275.7 262.995L277.843 260.815C277.521 260.168 277.24 259.499 277 258.809L273.942 258.804C273.27 258.804 272.728 258.262 272.728 257.591L272.737 248.82C272.737 248.152 273.279 247.607 273.951 247.61L277.009 247.612C277.247 246.932 277.526 246.272 277.843 245.638L275.7 243.453C275.23 242.975 275.238 242.206 275.716 241.735L281.979 235.594C282.457 235.125 283.227 235.133 283.696 235.611L285.841 237.795C286.394 237.534 286.963 237.3 287.547 237.098V234.038C287.547 233.367 288.089 232.825 288.761 232.825H297.536L297.537 232.824ZM293.151 241.712C286.778 241.712 281.613 246.873 281.613 253.24C281.613 259.608 286.781 264.766 293.151 264.766C299.521 264.766 304.686 259.608 304.686 253.24C304.686 246.873 299.523 241.712 293.151 241.712Z" fill="#731D1D"/>
<path d="M296.339 232.824C297.011 232.824 297.554 233.366 297.554 234.038V237.093C298.137 237.298 298.706 237.529 299.261 237.793L301.403 235.611C301.874 235.133 302.644 235.125 303.122 235.594L309.385 241.735C309.863 242.206 309.871 242.975 309.399 243.453L307.256 245.638C307.578 246.282 307.861 246.951 308.099 247.639L311.158 247.644C311.83 247.644 312.373 248.186 312.373 248.857L312.365 257.627C312.365 258.296 311.82 258.841 311.148 258.838L308.089 258.836C307.853 259.516 307.574 260.176 307.255 260.815L309.398 262.995C309.87 263.473 309.862 264.241 309.384 264.713L303.121 270.854C302.643 271.323 301.874 271.315 301.402 270.837L299.256 268.653C298.704 268.914 298.137 269.15 297.554 269.355V272.41C297.554 273.081 297.011 273.624 296.339 273.624H287.562C286.89 273.624 286.348 273.081 286.348 272.41V269.355C285.764 269.15 285.198 268.914 284.645 268.653L282.5 270.837C282.03 271.315 281.259 271.323 280.78 270.854L274.52 264.713C274.039 264.241 274.034 263.473 274.503 262.995L276.646 260.815C276.324 260.168 276.044 259.499 275.804 258.809L272.746 258.804C272.074 258.804 271.531 258.262 271.531 257.591L271.54 248.82C271.54 248.152 272.083 247.607 272.755 247.61L275.813 247.612C276.049 246.932 276.329 246.272 276.646 245.638L274.503 243.453C274.034 242.975 274.039 242.206 274.52 241.735L280.78 235.594C281.259 235.125 282.03 235.133 282.5 235.611L284.645 237.795C285.198 237.534 285.764 237.3 286.348 237.098V234.038C286.348 233.367 286.89 232.825 287.562 232.825H296.339V232.824ZM291.953 241.712C285.58 241.712 280.415 246.873 280.415 253.24C280.415 259.608 285.58 264.766 291.953 264.766C298.325 264.766 303.488 259.608 303.488 253.24C303.488 246.873 298.323 241.712 291.953 241.712Z" fill="#EE5B5B"/>
</g>
<defs>
<linearGradient id="paint0_linear_43_11646" x1="108.863" y1="59.6199" x2="342.268" y2="211.161" gradientUnits="userSpaceOnUse">
<stop stop-color="#A897FF"/>
<stop offset="1" stop-color="#2B0F73"/>
</linearGradient>
<linearGradient id="paint1_linear_43_11646" x1="332.32" y1="201.331" x2="105.723" y2="60.7106" gradientUnits="userSpaceOnUse">
<stop stop-color="#FFF2E0"/>
<stop offset="1" stop-color="#FFF7EF"/>
</linearGradient>
<linearGradient id="paint2_linear_43_11646" x1="220.459" y1="247.32" x2="220.192" y2="215.745" gradientUnits="userSpaceOnUse">
<stop stop-color="#A897FF"/>
<stop offset="1" stop-color="#2B0F73"/>
</linearGradient>
<linearGradient id="paint3_linear_43_11646" x1="152.55" y1="254.354" x2="288.355" y2="254.354" gradientUnits="userSpaceOnUse">
<stop stop-color="#A897FF"/>
<stop offset="1" stop-color="#2B0F73"/>
</linearGradient>
<linearGradient id="paint4_linear_43_11646" x1="220.455" y1="262.2" x2="220.449" y2="265.427" gradientUnits="userSpaceOnUse">
<stop stop-color="#A897FF"/>
<stop offset="1" stop-color="#2B0F73"/>
</linearGradient>
<linearGradient id="paint5_linear_43_11646" x1="76.4336" y1="212.372" x2="110.99" y2="199.678" gradientUnits="userSpaceOnUse">
<stop stop-color="#5855A0"/>
<stop offset="1" stop-color="#8E91DC"/>
</linearGradient>
<linearGradient id="paint6_linear_43_11646" x1="94.7754" y1="204.594" x2="99.5352" y2="191.597" gradientUnits="userSpaceOnUse">
<stop stop-color="#C48EDC"/>
<stop offset="1" stop-color="#9D63C4"/>
</linearGradient>
<linearGradient id="paint7_linear_43_11646" x1="91.7206" y1="204.86" x2="78.666" y2="200.236" gradientUnits="userSpaceOnUse">
<stop stop-color="#C48EDC"/>
<stop offset="1" stop-color="#9D63C4"/>
</linearGradient>
<linearGradient id="paint8_linear_43_11646" x1="93.4371" y1="208.387" x2="88.9492" y2="221.48" gradientUnits="userSpaceOnUse">
<stop stop-color="#C48EDC"/>
<stop offset="1" stop-color="#9D63C4"/>
</linearGradient>
<linearGradient id="paint9_linear_43_11646" x1="95.5238" y1="206.151" x2="108.673" y2="210.501" gradientUnits="userSpaceOnUse">
<stop stop-color="#C48EDC"/>
<stop offset="1" stop-color="#9D63C4"/>
</linearGradient>
<linearGradient id="paint10_linear_43_11646" x1="207.791" y1="212.475" x2="173.369" y2="199.419" gradientUnits="userSpaceOnUse">
<stop stop-color="#5855A0"/>
<stop offset="1" stop-color="#8E91DC"/>
</linearGradient>
<linearGradient id="paint11_linear_43_11646" x1="182.385" y1="197.871" x2="190.313" y2="195.007" gradientUnits="userSpaceOnUse">
<stop stop-color="#C48EDC"/>
<stop offset="1" stop-color="#9D63C4"/>
</linearGradient>
<linearGradient id="paint12_linear_43_11646" x1="176.72" y1="210.324" x2="184.647" y2="207.46" gradientUnits="userSpaceOnUse">
<stop stop-color="#C48EDC"/>
<stop offset="1" stop-color="#9D63C4"/>
</linearGradient>
<linearGradient id="paint13_linear_43_11646" x1="194.711" y1="203.858" x2="202.635" y2="200.989" gradientUnits="userSpaceOnUse">
<stop stop-color="#C48EDC"/>
<stop offset="1" stop-color="#9D63C4"/>
</linearGradient>
<linearGradient id="paint14_linear_43_11646" x1="189.04" y1="216.289" x2="196.965" y2="213.425" gradientUnits="userSpaceOnUse">
<stop stop-color="#C48EDC"/>
<stop offset="1" stop-color="#9D63C4"/>
</linearGradient>
<linearGradient id="paint15_linear_43_11646" x1="113.177" y1="228.38" x2="133.612" y2="228.38" gradientUnits="userSpaceOnUse">
<stop stop-color="#BBBCED"/>
<stop offset="1" stop-color="#9694E1"/>
</linearGradient>
<linearGradient id="paint16_linear_43_11646" x1="114.879" y1="228.383" x2="131.908" y2="228.383" gradientUnits="userSpaceOnUse">
<stop stop-color="#56579F"/>
<stop offset="1" stop-color="#232172"/>
</linearGradient>
<linearGradient id="paint17_linear_43_11646" x1="117.384" y1="228.381" x2="129.404" y2="228.381" gradientUnits="userSpaceOnUse">
<stop stop-color="#56579F"/>
<stop offset="1" stop-color="#9694E1"/>
</linearGradient>
<linearGradient id="paint18_linear_43_11646" x1="149.923" y1="259.65" x2="170.358" y2="259.65" gradientUnits="userSpaceOnUse">
<stop stop-color="#BBBCED"/>
<stop offset="1" stop-color="#9694E1"/>
</linearGradient>
<linearGradient id="paint19_linear_43_11646" x1="151.625" y1="259.651" x2="168.654" y2="259.651" gradientUnits="userSpaceOnUse">
<stop stop-color="#56579F"/>
<stop offset="1" stop-color="#232172"/>
</linearGradient>
<linearGradient id="paint20_linear_43_11646" x1="154.13" y1="259.651" x2="166.151" y2="259.651" gradientUnits="userSpaceOnUse">
<stop stop-color="#56579F"/>
<stop offset="1" stop-color="#9694E1"/>
</linearGradient>
<linearGradient id="paint21_linear_43_11646" x1="219.926" y1="23.3681" x2="219.926" y2="35.7468" gradientUnits="userSpaceOnUse">
<stop stop-color="#8078FF"/>
<stop offset="1" stop-color="#4526C8"/>
</linearGradient>
<clipPath id="clip0_43_11646">
<rect width="386" height="301" fill="white"/>
</clipPath>
</defs>
</svg>
