<svg width="529" height="350" viewBox="0 0 529 350" fill="none" xmlns="http://www.w3.org/2000/svg">
<mask id="mask0_43_8351" style="mask-type:luminance" maskUnits="userSpaceOnUse" x="-1" y="0" width="520" height="346">
<path d="M518.453 0H-0.109375V346H518.453V0Z" fill="white"/>
</mask>
<g mask="url(#mask0_43_8351)">
<path d="M70.4454 321.449C71.813 294.252 48.8697 271.543 45.0586 244.581C41.8297 221.737 54.2669 197.502 74.7004 186.821C88.3635 179.68 104.94 178.137 116.878 168.378C130.624 157.139 134.656 138.011 136.443 120.337C138.229 102.663 138.952 83.9196 148.65 69.0416C162.896 47.1855 196.414 41.1243 217.401 56.6098C235.198 69.7419 242.346 93.7322 260.017 107.035C276.532 119.466 299.306 120.151 319.441 115.497C339.576 110.843 358.314 101.525 378.069 95.458C393.779 90.6341 410.661 87.8979 426.63 91.7718C442.601 95.6463 457.438 107.237 461.521 123.168C469.722 155.17 433.813 184.506 437.434 217.345C440.326 243.564 466.377 259.825 482.116 280.983C502.726 308.69 505.073 348.774 487.837 378.701C485.925 382.019 444.187 377.42 438.745 377.28C422.379 376.858 406.012 376.489 389.645 376.172C356.048 375.521 322.447 375.09 288.845 374.878C221.64 374.454 154.428 374.896 87.2358 376.245C76.767 376.455 50.9993 379.341 52.4644 362.027C52.9567 356.205 60.9357 349.333 63.6833 344.146C67.4308 337.071 70.0402 329.501 70.4454 321.449Z" fill="#DEE4FF"/>
<path d="M113.311 135.859C117.444 126.678 119.464 115.768 115.194 106.65C110.925 97.5319 98.6087 91.9786 90.2004 97.5091C83.9113 101.646 82.0071 109.79 79.4046 116.858C75.6668 127.01 69.4959 136.256 61.5564 143.598C55.0729 149.595 45.241 157.016 49.5153 167.139C52.9047 175.166 62.4455 178.769 70.3138 176.65C87.862 171.921 106.13 151.814 113.311 135.859Z" fill="#DEE4FF"/>
<path d="M456.953 207.337C453.673 212.431 453.147 218.968 454.549 224.864C455.951 230.76 459.118 236.095 462.772 240.928C466.96 246.465 471.842 251.475 477.269 255.802C479.624 257.68 482.505 259.526 485.438 258.846C488.8 258.068 490.552 254.384 491.427 251.044C494.717 238.497 491.766 224.69 484.372 214.139C477.611 204.492 466.278 192.857 456.953 207.337Z" fill="#DEE4FF"/>
</g>
<path d="M487.104 326.06C487.104 326.06 484.321 322.596 478.295 323.36C473.323 323.99 470.982 328.005 466.762 326.328C466.762 326.328 479.735 337.332 487.104 326.06Z" fill="#8F83ED"/>
<path d="M494.253 336.909C494.253 336.909 491.646 333.174 485.62 333.937C480.648 334.566 476.758 336.748 472.537 335.071C472.537 335.071 486.885 348.181 494.253 336.909Z" fill="#8F83ED"/>
<path d="M479.395 317.953C479.395 317.953 477.007 314.858 471.66 315.683C467.247 316.363 465.09 320.07 461.393 318.634C461.393 318.634 472.634 328.376 479.395 317.953Z" fill="#8F83ED"/>
<path d="M471.892 311.076C471.892 311.076 469.774 308.394 465.122 309.04C461.283 309.572 459.446 312.726 456.205 311.452C456.205 311.452 466.118 319.938 471.892 311.076Z" fill="#8F83ED"/>
<path d="M474.181 307.211C474.181 307.211 471.605 307.134 470.413 304.132C469.43 301.655 470.201 299.072 469.082 297.645C469.082 297.645 477.538 300.997 474.181 307.211Z" fill="#8F83ED"/>
<path d="M483.176 312.409C483.176 312.409 480.511 312.158 479.736 308.866C479.096 306.15 480.295 303.435 479.354 301.834C479.354 301.834 487.623 305.978 483.176 312.409Z" fill="#8F83ED"/>
<path d="M490.62 322.076C490.62 322.076 487.223 320.159 487.905 315.353C488.394 311.905 490.117 309.745 489.543 307.281C489.543 307.281 497.608 316.207 490.62 322.076Z" fill="#8F83ED"/>
<path d="M498.571 334.18C498.571 334.18 496.048 331.415 496.29 326.567C496.506 322.224 498.377 318.429 497.803 315.965C497.803 315.965 505.56 328.31 498.571 334.18Z" fill="#8F83ED"/>
<path d="M466.223 304.765C466.223 304.765 462.768 307.356 458.21 306.225C454.448 305.292 449.903 300.439 446.547 301.366C446.547 301.366 461.412 295.345 466.223 304.765Z" fill="#8F83ED"/>
<path d="M502.848 347.01C502.848 347.01 489.501 312.571 462.268 303.191" stroke="#5A58AE" stroke-width="0.897462" stroke-miterlimit="10" stroke-linecap="round"/>
<path d="M475.728 310.418L471.893 311.076" stroke="#5A58AE" stroke-width="0.897462" stroke-miterlimit="10" stroke-linecap="round"/>
<path d="M474.18 307.211L475.091 309.954" stroke="#5A58AE" stroke-width="0.897462" stroke-miterlimit="10" stroke-linecap="round"/>
<path d="M483.722 317.609L479.395 317.955" stroke="#5A58AE" stroke-width="0.897462" stroke-miterlimit="10" stroke-linecap="round"/>
<path d="M483.176 312.41L483.303 317.055" stroke="#5A58AE" stroke-width="0.897462" stroke-miterlimit="10" stroke-linecap="round"/>
<path d="M490.337 325.246L487.104 326.062" stroke="#5A58AE" stroke-width="0.897462" stroke-miterlimit="10" stroke-linecap="round"/>
<path d="M490.62 322.074L490.096 324.924" stroke="#5A58AE" stroke-width="0.897462" stroke-miterlimit="10" stroke-linecap="round"/>
<path d="M494.254 336.908L497.774 336.643" stroke="#5A58AE" stroke-width="0.897462" stroke-miterlimit="10" stroke-linecap="round"/>
<path d="M498.57 334.178L497.977 337.008" stroke="#5A58AE" stroke-width="0.897462" stroke-miterlimit="10" stroke-linecap="round"/>
<path d="M504.025 296.449C504.025 296.449 521.16 291.288 516.931 285.379C512.583 279.304 504.025 296.449 504.025 296.449Z" fill="#9598FF"/>
<path d="M504.026 296.449C504.026 296.449 487.665 303.701 487.029 296.46C486.376 289.016 504.026 296.449 504.026 296.449Z" fill="#9598FF"/>
<path d="M507.617 308.877C507.617 308.877 525.307 303.549 520.941 297.448C516.452 291.176 507.617 308.877 507.617 308.877Z" fill="#9598FF"/>
<path d="M507.615 308.877C507.615 308.877 490.588 316.051 490.07 308.564C489.538 300.867 507.615 308.877 507.615 308.877Z" fill="#9598FF"/>
<path d="M500.201 286.249C500.201 286.249 516.243 279.494 512.014 273.585C507.666 267.51 500.201 286.249 500.201 286.249Z" fill="#9598FF"/>
<path d="M500.199 286.247C500.199 286.247 483.685 291.744 482.977 284.51C482.248 277.073 500.199 286.247 500.199 286.247Z" fill="#9598FF"/>
<path d="M495.383 275.505C495.383 275.505 509.485 265.861 504.543 260.578C499.441 255.123 495.383 275.505 495.383 275.505Z" fill="#9598FF"/>
<path d="M495.381 275.506C495.381 275.506 479.213 281.015 477.953 273.888C476.653 266.53 495.381 275.506 495.381 275.506Z" fill="#9598FF"/>
<path d="M490.132 265.451C490.132 265.451 500.014 254.165 494.5 251.476C488.485 248.544 490.132 265.451 490.132 265.451Z" fill="#9598FF"/>
<path d="M490.132 265.464C490.132 265.464 475.238 267.189 476.16 261.121C477.167 254.501 490.132 265.464 490.132 265.464Z" fill="#9598FF"/>
<path d="M485.671 257.837C485.671 257.837 485.242 242.699 479.353 244.413C472.928 246.283 485.671 257.837 485.671 257.837Z" fill="#9598FF"/>
<path d="M509.518 342.81C509.518 342.81 517.85 309.288 484.455 255.871" stroke="#5A58AE" stroke-width="1.02914" stroke-miterlimit="10" stroke-linecap="round"/>
<path d="M55.7168 277.654C55.7168 277.654 36.9716 265.325 41.5064 257.372C46.1686 249.197 55.7168 277.654 55.7168 277.654Z" fill="#8F83ED"/>
<path d="M55.7168 277.655C55.7168 277.655 77.681 288.224 80.0706 278.601C82.5272 268.709 55.7168 277.655 55.7168 277.655Z" fill="#8F83ED"/>
<path d="M49.3778 293.773C49.3778 293.773 29.6694 281.009 34.4732 272.721C39.412 264.202 49.3778 293.773 49.3778 293.773Z" fill="#8F83ED"/>
<path d="M44.3554 313.501C44.3554 313.501 18.9136 300.158 25.6797 290.622C32.635 280.818 44.3554 313.501 44.3554 313.501Z" fill="#8F83ED"/>
<path d="M44.3555 313.501C44.3555 313.501 72.4823 319.33 73.2923 307.662C74.1249 295.667 44.3555 313.501 44.3555 313.501Z" fill="#8F83ED"/>
<path d="M42.9667 332.118C42.9667 332.118 12.1163 326.261 16.1628 314.133C20.3224 301.664 42.9667 332.118 42.9667 332.118Z" fill="#8F83ED"/>
<path d="M42.9668 332.118C42.9668 332.118 72.2125 343.56 75.2224 331.135C78.3172 318.36 42.9668 332.118 42.9668 332.118Z" fill="#8F83ED"/>
<path d="M49.377 293.774C49.377 293.774 72.3185 303.617 74.8291 293.771C77.4098 283.649 49.377 293.774 49.377 293.774Z" fill="#8F83ED"/>
<path d="M62.0871 264.532C62.0871 264.532 44.0478 249.928 48.7511 241.853C53.5864 233.551 62.0871 264.532 62.0871 264.532Z" fill="#8F83ED"/>
<path d="M62.0859 264.532C62.0859 264.532 84.4632 272.691 86.9326 263.181C89.4715 253.404 62.0859 264.532 62.0859 264.532Z" fill="#8F83ED"/>
<path d="M70.0032 250.779C70.0032 250.779 55.5586 235.701 60.9163 229.785C66.449 223.677 70.0032 250.779 70.0032 250.779Z" fill="#8F83ED"/>
<path d="M69.8164 250.67C69.8164 250.67 90.6244 256.93 93.7726 249.374C97.0225 241.571 69.8164 250.67 69.8164 250.67Z" fill="#8F83ED"/>
<path d="M78.1055 238.068C78.1055 238.068 66.34 221.788 74.0249 218.894C82.4099 215.736 78.1055 238.068 78.1055 238.068Z" fill="#8F83ED"/>
<path d="M78.0605 238.001C78.0605 238.001 97.4215 240.441 97.4903 233.102C97.565 225.094 78.0605 238.001 78.0605 238.001Z" fill="#8F83ED"/>
<path d="M84.9961 228.476C84.9961 228.476 87.4571 208.351 95.0932 211.371C103.425 214.667 84.9961 228.476 84.9961 228.476Z" fill="#8F83ED"/>
<path d="M42.6051 338.767C42.6051 338.767 35.6801 293.04 86.8623 226.006" stroke="#5A58AE" stroke-width="0.955521" stroke-miterlimit="10" stroke-linecap="round"/>
<path d="M85.1292 313.485C85.1292 313.485 73.134 303.139 78.6783 299.886C84.379 296.543 85.1292 313.485 85.1292 313.485Z" fill="#9598FF"/>
<path d="M85.127 313.482C85.127 313.482 95.7439 325.24 98.8619 319.615C102.068 313.833 85.127 313.482 85.127 313.482Z" fill="#9598FF"/>
<path d="M77.7545 322.238C77.7545 322.238 65.3707 311.558 71.0951 308.199C76.9791 304.747 77.7545 322.238 77.7545 322.238Z" fill="#9598FF"/>
<path d="M77.7539 322.236C77.7539 322.236 88.9377 334.169 92.0486 328.304C95.247 322.274 77.7539 322.236 77.7539 322.236Z" fill="#9598FF"/>
<path d="M71.5571 331.734C71.5571 331.734 57.5332 323.327 62.5995 319.041C67.8085 314.633 71.5571 331.734 71.5571 331.734Z" fill="#9598FF"/>
<path d="M71.5566 331.733C71.5566 331.733 84.6121 341.579 86.6768 335.268C88.7995 328.78 71.5566 331.733 71.5566 331.733Z" fill="#9598FF"/>
<path d="M66.6869 341.037C66.6869 341.037 52.2114 333.435 57.0287 328.868C61.9804 324.174 66.6869 341.037 66.6869 341.037Z" fill="#9598FF"/>
<path d="M66.6875 341.038C66.6875 341.038 80.277 350.131 81.9827 343.714C83.7367 337.116 66.6875 341.038 66.6875 341.038Z" fill="#9598FF"/>
<path d="M91.8872 306.618C91.8872 306.618 81.3487 295.378 86.893 292.125C92.593 288.781 91.8872 306.618 91.8872 306.618Z" fill="#9598FF"/>
<path d="M91.8887 306.617C91.8887 306.617 103.261 317.011 106.436 311.418C109.699 305.669 91.8887 306.617 91.8887 306.617Z" fill="#9598FF"/>
<path d="M99.6472 299.67C99.6472 299.67 91.7158 286.793 97.6114 284.303C103.698 281.732 99.6472 299.67 99.6472 299.67Z" fill="#9598FF"/>
<path d="M99.6465 299.671C99.6465 299.671 110.735 309.949 114.316 304.642C118.014 299.162 99.6465 299.671 99.6465 299.671Z" fill="#9598FF"/>
<path d="M107.508 293.433C107.508 293.433 103.579 280.75 109.003 280.563C114.921 280.359 107.508 293.433 107.508 293.433Z" fill="#9598FF"/>
<path d="M107.502 293.443C107.502 293.443 118.921 300.204 120.358 294.966C121.926 289.252 107.502 293.443 107.502 293.443Z" fill="#9598FF"/>
<path d="M113.85 288.885C113.85 288.885 119.642 276.803 123.785 280.31C128.306 284.137 113.85 288.885 113.85 288.885Z" fill="#9598FF"/>
<path d="M64.0098 348.979C64.0098 348.979 69.3314 318.88 115.541 287.732" stroke="#5A58AE" stroke-width="0.631534" stroke-miterlimit="10" stroke-linecap="round"/>
<path d="M313.833 34.076C313.833 34.4261 313.549 34.7105 313.198 34.7105C312.849 34.7105 312.564 34.4268 312.564 34.076C312.564 33.7258 312.848 33.4414 313.198 33.4414C313.548 33.4421 313.833 33.7258 313.833 34.076Z" fill="#B2AEFF"/>
<path d="M324.723 34.076C324.723 34.4261 324.44 34.7105 324.089 34.7105C323.739 34.7105 323.455 34.4268 323.455 34.076C323.455 33.7258 323.739 33.4414 324.089 33.4414C324.439 33.4421 324.723 33.7258 324.723 34.076Z" fill="#B2AEFF"/>
<path d="M335.612 34.076C335.612 34.4261 335.328 34.7105 334.978 34.7105C334.628 34.7105 334.344 34.4268 334.344 34.076C334.344 33.7258 334.627 33.4414 334.978 33.4414C335.328 33.4421 335.612 33.7258 335.612 34.076Z" fill="#B2AEFF"/>
<path d="M346.502 34.076C346.502 34.4261 346.219 34.7105 345.868 34.7105C345.519 34.7105 345.234 34.4268 345.234 34.076C345.234 33.7258 345.518 33.4414 345.868 33.4414C346.218 33.4421 346.502 33.7258 346.502 34.076Z" fill="#B2AEFF"/>
<path d="M357.391 34.076C357.391 34.4261 357.108 34.7105 356.757 34.7105C356.407 34.7105 356.123 34.4268 356.123 34.076C356.123 33.7258 356.407 33.4414 356.757 33.4414C357.107 33.4421 357.391 33.7258 357.391 34.076Z" fill="#B2AEFF"/>
<path d="M313.833 44.9744C313.833 45.3246 313.549 45.609 313.198 45.609C312.849 45.609 312.564 45.3253 312.564 44.9744C312.564 44.6243 312.848 44.3398 313.198 44.3398C313.548 44.3398 313.833 44.6243 313.833 44.9744Z" fill="#B2AEFF"/>
<path d="M324.723 44.9744C324.723 45.3246 324.44 45.609 324.089 45.609C323.739 45.609 323.455 45.3253 323.455 44.9744C323.455 44.6243 323.739 44.3398 324.089 44.3398C324.439 44.3398 324.723 44.6243 324.723 44.9744Z" fill="#B2AEFF"/>
<path d="M335.612 44.9744C335.612 45.3246 335.328 45.609 334.978 45.609C334.628 45.609 334.344 45.3253 334.344 44.9744C334.344 44.6243 334.627 44.3398 334.978 44.3398C335.328 44.3398 335.612 44.6243 335.612 44.9744Z" fill="#B2AEFF"/>
<path d="M346.502 44.9744C346.502 45.3246 346.219 45.609 345.868 45.609C345.519 45.609 345.234 45.3253 345.234 44.9744C345.234 44.6243 345.518 44.3398 345.868 44.3398C346.218 44.3398 346.502 44.6243 346.502 44.9744Z" fill="#B2AEFF"/>
<path d="M357.391 44.9744C357.391 45.3246 357.108 45.609 356.757 45.609C356.407 45.609 356.123 45.3253 356.123 44.9744C356.123 44.6243 356.407 44.3398 356.757 44.3398C357.107 44.3398 357.391 44.6243 357.391 44.9744Z" fill="#B2AEFF"/>
<path d="M313.833 55.8748C313.833 56.225 313.549 56.5094 313.198 56.5094C312.849 56.5094 312.564 56.2256 312.564 55.8748C312.564 55.5246 312.848 55.2402 313.198 55.2402C313.548 55.2402 313.833 55.5246 313.833 55.8748Z" fill="#B2AEFF"/>
<path d="M324.723 55.8748C324.723 56.225 324.44 56.5094 324.089 56.5094C323.739 56.5094 323.455 56.2256 323.455 55.8748C323.455 55.5246 323.739 55.2402 324.089 55.2402C324.439 55.2402 324.723 55.5246 324.723 55.8748Z" fill="#B2AEFF"/>
<path d="M335.612 55.8748C335.612 56.225 335.328 56.5094 334.978 56.5094C334.628 56.5094 334.344 56.2256 334.344 55.8748C334.344 55.5246 334.627 55.2402 334.978 55.2402C335.328 55.2402 335.612 55.5246 335.612 55.8748Z" fill="#B2AEFF"/>
<path d="M346.502 55.8748C346.502 56.225 346.219 56.5094 345.868 56.5094C345.519 56.5094 345.234 56.2256 345.234 55.8748C345.234 55.5246 345.518 55.2402 345.868 55.2402C346.218 55.2402 346.502 55.5246 346.502 55.8748Z" fill="#B2AEFF"/>
<path d="M357.391 55.8748C357.391 56.225 357.108 56.5094 356.757 56.5094C356.407 56.5094 356.123 56.2256 356.123 55.8748C356.123 55.5246 356.407 55.2402 356.757 55.2402C357.107 55.2402 357.391 55.5246 357.391 55.8748Z" fill="#B2AEFF"/>
<path d="M485.143 151.148C485.143 151.498 484.86 151.783 484.509 151.783C484.159 151.783 483.875 151.499 483.875 151.148C483.875 150.798 484.159 150.514 484.509 150.514C484.86 150.514 485.143 150.798 485.143 151.148Z" fill="#B2AEFF"/>
<path d="M496.034 151.148C496.034 151.498 495.75 151.783 495.4 151.783C495.05 151.783 494.766 151.499 494.766 151.148C494.766 150.798 495.049 150.514 495.4 150.514C495.75 150.514 496.034 150.798 496.034 151.148Z" fill="#B2AEFF"/>
<path d="M506.922 151.148C506.922 151.498 506.639 151.783 506.288 151.783C505.939 151.783 505.654 151.499 505.654 151.148C505.654 150.798 505.938 150.514 506.288 150.514C506.639 150.514 506.922 150.798 506.922 151.148Z" fill="#B2AEFF"/>
<path d="M485.143 162.047C485.143 162.397 484.86 162.681 484.509 162.681C484.159 162.681 483.875 162.398 483.875 162.047C483.875 161.697 484.159 161.412 484.509 161.412C484.86 161.413 485.143 161.697 485.143 162.047Z" fill="#B2AEFF"/>
<path d="M496.034 162.047C496.034 162.397 495.75 162.681 495.4 162.681C495.05 162.681 494.766 162.398 494.766 162.047C494.766 161.697 495.049 161.412 495.4 161.412C495.75 161.413 496.034 161.697 496.034 162.047Z" fill="#B2AEFF"/>
<path d="M506.922 162.047C506.922 162.397 506.639 162.681 506.288 162.681C505.939 162.681 505.654 162.398 505.654 162.047C505.654 161.697 505.938 161.412 506.288 161.412C506.639 161.413 506.922 161.697 506.922 162.047Z" fill="#B2AEFF"/>
<path d="M46.0161 102.137C46.0161 102.487 45.7326 102.771 45.3821 102.771C45.0322 102.771 44.748 102.487 44.748 102.137C44.748 101.786 45.0315 101.502 45.3821 101.502C45.7326 101.502 46.0161 101.786 46.0161 102.137Z" fill="#B2AEFF"/>
<path d="M56.9067 102.137C56.9067 102.487 56.6232 102.771 56.2727 102.771C55.9228 102.771 55.6387 102.487 55.6387 102.137C55.6387 101.786 55.9222 101.502 56.2727 101.502C56.6232 101.502 56.9067 101.786 56.9067 102.137Z" fill="#B2AEFF"/>
<path d="M46.0161 113.035C46.0161 113.385 45.7326 113.67 45.3821 113.67C45.0322 113.67 44.748 113.386 44.748 113.035C44.748 112.685 45.0315 112.4 45.3821 112.4C45.7326 112.4 46.0161 112.684 46.0161 113.035Z" fill="#B2AEFF"/>
<path d="M56.9067 113.035C56.9067 113.385 56.6232 113.67 56.2727 113.67C55.9228 113.67 55.6387 113.386 55.6387 113.035C55.6387 112.685 55.9222 112.4 56.2727 112.4C56.6232 112.4 56.9067 112.684 56.9067 113.035Z" fill="#B2AEFF"/>
<path d="M46.0161 123.935C46.0161 124.286 45.7326 124.57 45.3821 124.57C45.0322 124.57 44.748 124.286 44.748 123.935C44.748 123.585 45.0315 123.301 45.3821 123.301C45.7326 123.301 46.0161 123.585 46.0161 123.935Z" fill="#B2AEFF"/>
<path d="M56.9067 123.935C56.9067 124.286 56.6232 124.57 56.2727 124.57C55.9228 124.57 55.6387 124.286 55.6387 123.935C55.6387 123.585 55.9222 123.301 56.2727 123.301C56.6232 123.301 56.9067 123.585 56.9067 123.935Z" fill="#B2AEFF"/>
<path d="M378.14 286.511C377.79 286.511 377.506 286.227 377.506 285.877C377.506 285.527 377.789 285.242 378.14 285.242C378.49 285.242 378.774 285.526 378.774 285.877C378.773 286.228 378.49 286.511 378.14 286.511Z" fill="#B2AEFF"/>
<path d="M378.14 297.41C377.79 297.41 377.506 297.125 377.506 296.775C377.506 296.425 377.789 296.141 378.14 296.141C378.49 296.141 378.774 296.424 378.774 296.775C378.773 297.126 378.49 297.41 378.14 297.41Z" fill="#B2AEFF"/>
<path d="M367.251 286.511C366.901 286.511 366.617 286.227 366.617 285.877C366.617 285.527 366.901 285.242 367.251 285.242C367.601 285.242 367.885 285.526 367.885 285.877C367.885 286.228 367.601 286.511 367.251 286.511Z" fill="#B2AEFF"/>
<path d="M367.251 297.41C366.901 297.41 366.617 297.125 366.617 296.775C366.617 296.425 366.901 296.141 367.251 296.141C367.601 296.141 367.885 296.424 367.885 296.775C367.885 297.126 367.601 297.41 367.251 297.41Z" fill="#B2AEFF"/>
<path d="M356.361 286.511C356.011 286.511 355.727 286.227 355.727 285.877C355.727 285.527 356.01 285.242 356.361 285.242C356.71 285.242 356.995 285.526 356.995 285.877C356.994 286.228 356.71 286.511 356.361 286.511Z" fill="#B2AEFF"/>
<path d="M356.361 297.41C356.011 297.41 355.727 297.125 355.727 296.775C355.727 296.425 356.01 296.141 356.361 296.141C356.71 296.141 356.995 296.424 356.995 296.775C356.994 297.126 356.71 297.41 356.361 297.41Z" fill="#B2AEFF"/>
<path d="M114.595 199.099C114.245 199.099 113.961 198.815 113.961 198.465C113.961 198.114 114.244 197.83 114.595 197.83C114.945 197.83 115.229 198.114 115.229 198.465C115.228 198.815 114.945 199.099 114.595 199.099Z" fill="#B2AEFF"/>
<path d="M114.595 209.998C114.245 209.998 113.961 209.714 113.961 209.363C113.961 209.013 114.244 208.729 114.595 208.729C114.945 208.729 115.229 209.012 115.229 209.363C115.228 209.714 114.945 209.998 114.595 209.998Z" fill="#B2AEFF"/>
<path d="M103.704 199.099C103.354 199.099 103.07 198.815 103.07 198.465C103.07 198.114 103.354 197.83 103.704 197.83C104.054 197.83 104.338 198.114 104.338 198.465C104.338 198.815 104.054 199.099 103.704 199.099Z" fill="#B2AEFF"/>
<path d="M103.704 209.998C103.354 209.998 103.07 209.714 103.07 209.363C103.07 209.013 103.354 208.729 103.704 208.729C104.054 208.729 104.338 209.012 104.338 209.363C104.338 209.714 104.054 209.998 103.704 209.998Z" fill="#B2AEFF"/>
<path d="M466.593 61.234C466.943 61.234 467.227 60.9499 467.227 60.5994C467.227 60.2489 466.943 59.9648 466.593 59.9648C466.243 59.9648 465.959 60.2489 465.959 60.5994C465.959 60.9499 466.243 61.234 466.593 61.234Z" fill="#B2AEFF"/>
<path d="M466.593 72.1324C466.943 72.1324 467.227 71.8483 467.227 71.4978C467.227 71.1474 466.943 70.8633 466.593 70.8633C466.243 70.8633 465.959 71.1474 465.959 71.4978C465.959 71.8483 466.243 72.1324 466.593 72.1324Z" fill="#B2AEFF"/>
<path d="M455.702 61.234C456.053 61.234 456.336 60.9499 456.336 60.5994C456.336 60.2489 456.053 59.9648 455.702 59.9648C455.352 59.9648 455.068 60.2489 455.068 60.5994C455.068 60.9499 455.352 61.234 455.702 61.234Z" fill="#B2AEFF"/>
<path d="M455.702 72.1324C456.053 72.1324 456.336 71.8483 456.336 71.4978C456.336 71.1474 456.053 70.8633 455.702 70.8633C455.352 70.8633 455.068 71.1474 455.068 71.4978C455.068 71.8483 455.352 72.1324 455.702 72.1324Z" fill="#B2AEFF"/>
<path d="M82.1731 310.671C81.8232 310.671 81.5391 310.388 81.5391 310.037C81.5391 309.687 81.8225 309.402 82.1731 309.402C82.5229 309.402 82.8071 309.686 82.8071 310.037C82.8064 310.387 82.5229 310.671 82.1731 310.671Z" fill="#B2AEFF"/>
<path d="M82.1731 321.57C81.8232 321.57 81.5391 321.286 81.5391 320.935C81.5391 320.585 81.8225 320.301 82.1731 320.301C82.5229 320.301 82.8071 320.584 82.8071 320.935C82.8064 321.285 82.5229 321.57 82.1731 321.57Z" fill="#B2AEFF"/>
<path d="M71.2825 310.671C70.9326 310.671 70.6484 310.388 70.6484 310.037C70.6484 309.687 70.9319 309.402 71.2825 309.402C71.6323 309.402 71.9165 309.686 71.9165 310.037C71.9158 310.387 71.6323 310.671 71.2825 310.671Z" fill="#B2AEFF"/>
<path d="M71.2825 321.57C70.9326 321.57 70.6484 321.286 70.6484 320.935C70.6484 320.585 70.9319 320.301 71.2825 320.301C71.6323 320.301 71.9165 320.584 71.9165 320.935C71.9158 321.285 71.6323 321.57 71.2825 321.57Z" fill="#B2AEFF"/>
<g opacity="0.14">
<path d="M167.758 162.541L167.467 159.928C167.407 159.381 166.914 158.986 166.367 159.047L164.765 159.225C164.351 159.271 163.946 159.058 163.765 158.683C163.481 158.094 163.133 157.541 162.729 157.03C162.47 156.703 162.455 156.245 162.677 155.892L163.538 154.526C163.831 154.061 163.692 153.445 163.226 153.151L161.005 151.749C160.539 151.455 159.924 151.594 159.63 152.061L158.769 153.428C158.547 153.78 158.127 153.964 157.72 153.871C157.407 153.8 157.087 153.744 156.761 153.707C156.434 153.67 156.11 153.651 155.789 153.65C155.372 153.649 155.004 153.376 154.866 152.982L154.335 151.457C154.154 150.936 153.586 150.662 153.067 150.843L150.586 151.707C150.066 151.889 149.792 152.457 149.973 152.977L150.503 154.502C150.64 154.896 150.522 155.339 150.196 155.599C149.688 156.005 149.225 156.466 148.815 156.975C148.554 157.3 148.112 157.416 147.719 157.278L146.199 156.743C145.679 156.56 145.11 156.834 144.928 157.353L144.057 159.833C143.874 160.352 144.147 160.922 144.666 161.105L146.189 161.64C146.582 161.779 146.855 162.147 146.855 162.563C146.854 163.226 146.927 163.875 147.067 164.501C147.158 164.908 146.974 165.327 146.62 165.549L145.254 166.405C144.787 166.697 144.646 167.313 144.938 167.78L146.332 170.007C146.625 170.474 147.239 170.615 147.706 170.323L149.072 169.467C149.425 169.246 149.883 169.263 150.209 169.523C150.714 169.927 151.267 170.276 151.858 170.564C152.233 170.746 152.444 171.152 152.397 171.566L152.214 173.168C152.152 173.716 152.544 174.21 153.091 174.273L155.701 174.571C156.248 174.633 156.741 174.24 156.804 173.693L156.987 172.091C157.034 171.677 157.332 171.329 157.738 171.235C158.378 171.089 158.995 170.873 159.578 170.594C159.954 170.414 160.405 170.501 160.699 170.796L161.837 171.938C162.226 172.328 162.857 172.329 163.247 171.94L165.107 170.084C165.497 169.695 165.497 169.063 165.109 168.674L163.971 167.531C163.676 167.236 163.592 166.786 163.772 166.409C164.049 165.831 164.266 165.215 164.415 164.569C164.509 164.163 164.858 163.866 165.272 163.821L166.876 163.642C167.424 163.581 167.819 163.088 167.758 162.541ZM155.188 167.488C152.464 167.176 150.51 164.718 150.821 161.99C151.133 159.263 153.589 157.308 156.314 157.62C159.039 157.931 160.992 160.39 160.681 163.117C160.37 165.844 157.913 167.799 155.188 167.488Z" fill="#95A1FF"/>
<path d="M300.708 94.1641L300.916 93.2195C300.96 93.0216 300.835 92.8257 300.637 92.7821L300.058 92.6541C299.909 92.6209 299.793 92.4991 299.774 92.3469C299.745 92.1081 299.689 91.8735 299.609 91.6486C299.557 91.504 299.606 91.3428 299.726 91.2459L300.187 90.8722C300.344 90.7449 300.369 90.5137 300.241 90.356L299.634 89.6045C299.506 89.4467 299.275 89.4225 299.118 89.5498L298.656 89.9235C298.536 90.0204 298.369 90.0342 298.238 89.9532C298.137 89.8909 298.033 89.8342 297.924 89.7823C297.814 89.7304 297.704 89.6854 297.592 89.6474C297.447 89.5975 297.35 89.4584 297.35 89.3048L297.346 88.7104C297.344 88.5076 297.179 88.3443 296.976 88.3457L296.011 88.3526C295.808 88.354 295.645 88.5194 295.647 88.7222L295.651 89.3166C295.652 89.4702 295.558 89.61 295.415 89.6619C295.19 89.7429 294.973 89.8487 294.771 89.9774C294.642 90.0591 294.473 90.0473 294.353 89.9525L293.887 89.5858C293.728 89.4605 293.497 89.4882 293.372 89.6474L292.775 90.4079C292.65 90.567 292.678 90.7982 292.837 90.9234L293.304 91.2909C293.424 91.3857 293.476 91.5462 293.426 91.6915C293.347 91.922 293.296 92.1572 293.27 92.3918C293.254 92.5448 293.14 92.6686 292.991 92.7039L292.414 92.8403C292.217 92.8866 292.094 93.0845 292.141 93.2818L292.363 94.2229C292.409 94.4201 292.607 94.5426 292.804 94.4962L293.381 94.3599C293.53 94.3246 293.688 94.3848 293.77 94.5142C293.899 94.7142 294.05 94.9017 294.221 95.072C294.33 95.1799 294.355 95.3467 294.29 95.4851L294.037 96.0214C293.95 96.2048 294.028 96.4234 294.211 96.5099L295.085 96.9231C295.268 97.0096 295.486 96.9314 295.573 96.748L295.826 96.2117C295.892 96.0733 296.036 95.9875 296.189 96.0027C296.43 96.0276 296.669 96.0255 296.906 95.9978C297.058 95.9799 297.205 96.0636 297.272 96.2013L297.533 96.7341C297.622 96.9161 297.842 96.9916 298.024 96.9023L298.892 96.4767C299.074 96.3874 299.149 96.1674 299.06 95.9854L298.798 95.4526C298.731 95.3148 298.755 95.1481 298.862 95.038C299.027 94.8692 299.176 94.681 299.304 94.4734C299.385 94.3433 299.541 94.281 299.691 94.3142L300.271 94.4422C300.469 94.4872 300.664 94.362 300.708 94.1641ZM295.744 94.3966C294.832 93.9648 294.443 92.8769 294.875 91.9642C295.306 91.0514 296.393 90.6618 297.305 91.0936C298.217 91.5255 298.606 92.6133 298.175 93.526C297.743 94.4388 296.656 94.8284 295.744 94.3966Z" fill="#95A1FF"/>
<path d="M457.853 137.299L459.124 131.535C459.391 130.327 458.629 129.132 457.421 128.865L453.887 128.085C452.974 127.883 452.268 127.137 452.153 126.209C451.974 124.753 451.635 123.322 451.147 121.946C450.834 121.064 451.132 120.079 451.859 119.489L454.675 117.209C455.636 116.431 455.785 115.02 455.007 114.059L451.297 109.47C450.519 108.508 449.11 108.36 448.149 109.138L445.332 111.419C444.604 112.009 443.579 112.094 442.781 111.603C442.167 111.224 441.527 110.875 440.859 110.559C440.192 110.244 439.516 109.97 438.833 109.735C437.948 109.43 437.363 108.583 437.356 107.646L437.331 104.019C437.322 102.782 436.313 101.787 435.077 101.795L429.179 101.837C427.943 101.846 426.949 102.856 426.957 104.093L426.982 107.719C426.989 108.655 426.418 109.511 425.537 109.829C424.164 110.325 422.845 110.97 421.606 111.756C420.817 112.257 419.792 112.183 419.058 111.605L416.212 109.368C415.24 108.603 413.834 108.772 413.07 109.745L409.426 114.385C408.662 115.358 408.831 116.766 409.803 117.53L412.652 119.772C413.387 120.35 413.702 121.33 413.401 122.216C412.921 123.624 412.608 125.057 412.452 126.489C412.351 127.42 411.657 128.179 410.746 128.394L407.223 129.225C406.02 129.509 405.275 130.715 405.558 131.919L406.911 137.664C407.195 138.868 408.4 139.614 409.603 139.33L413.125 138.499C414.036 138.284 414.997 138.652 415.502 139.441C416.286 140.664 417.207 141.808 418.256 142.846C418.921 143.504 419.077 144.521 418.677 145.367L417.13 148.641C416.602 149.759 417.079 151.094 418.197 151.623L423.529 154.146C424.646 154.675 425.981 154.197 426.509 153.078L428.056 149.805C428.455 148.959 429.339 148.434 430.269 148.531C431.737 148.683 433.205 148.67 434.646 148.5C435.576 148.391 436.47 148.9 436.882 149.742L438.475 152.993C439.019 154.104 440.36 154.563 441.47 154.018L446.765 151.419C447.875 150.874 448.333 149.533 447.789 148.422L446.196 145.17C445.783 144.328 445.929 143.31 446.584 142.641C447.592 141.611 448.499 140.46 449.282 139.195C449.774 138.4 450.731 138.022 451.645 138.223L455.184 139.005C456.392 139.27 457.586 138.507 457.853 137.299ZM427.557 138.717C421.99 136.082 419.614 129.441 422.247 123.868C424.879 118.296 431.515 115.919 437.083 118.554C442.65 121.188 445.025 127.829 442.393 133.402C439.761 138.974 433.125 141.352 427.557 138.717Z" fill="#95A1FF"/>
</g>
<path opacity="0.37" d="M241.432 102.486C243.678 102.486 245.499 100.664 245.499 98.416C245.499 96.1681 243.678 94.3457 241.432 94.3457C239.186 94.3457 237.365 96.1681 237.365 98.416C237.365 100.664 239.186 102.486 241.432 102.486Z" stroke="#736AF8" stroke-width="2.202" stroke-miterlimit="10" stroke-linecap="round" stroke-linejoin="round"/>
<path opacity="0.37" d="M505.784 89.4141C505.784 91.6624 503.963 93.4844 501.717 93.4844C499.471 93.4844 497.65 91.6617 497.65 89.4141C497.65 87.1658 499.472 85.3438 501.717 85.3438C503.963 85.3431 505.784 87.1658 505.784 89.4141Z" stroke="#736AF8" stroke-width="2.202" stroke-miterlimit="10" stroke-linecap="round" stroke-linejoin="round"/>
<path opacity="0.37" d="M431.198 307.83C431.198 310.078 429.377 311.9 427.131 311.9C424.885 311.9 423.064 310.078 423.064 307.83C423.064 305.582 424.886 303.76 427.131 303.76C429.377 303.759 431.198 305.582 431.198 307.83Z" stroke="#736AF8" stroke-width="2.202" stroke-miterlimit="10" stroke-linecap="round" stroke-linejoin="round"/>
<path opacity="0.37" d="M189.826 143.454C190.592 143.454 191.213 142.833 191.213 142.066C191.213 141.299 190.592 140.678 189.826 140.678C189.06 140.678 188.439 141.299 188.439 142.066C188.439 142.833 189.06 143.454 189.826 143.454Z" stroke="#736AF8" stroke-width="0.750809" stroke-miterlimit="10" stroke-linecap="round" stroke-linejoin="round"/>
<path opacity="0.37" d="M380.631 126.564C380.631 127.331 380.011 127.952 379.244 127.952C378.478 127.952 377.857 127.331 377.857 126.564C377.857 125.797 378.478 125.176 379.244 125.176C380.011 125.176 380.631 125.797 380.631 126.564Z" stroke="#736AF8" stroke-width="0.750809" stroke-miterlimit="10" stroke-linecap="round" stroke-linejoin="round"/>
<path opacity="0.37" d="M294.938 165.531C294.938 166.297 294.317 166.919 293.551 166.919C292.785 166.919 292.164 166.297 292.164 165.531C292.164 164.764 292.785 164.143 293.551 164.143C294.317 164.143 294.938 164.764 294.938 165.531Z" stroke="#736AF8" stroke-width="0.750809" stroke-miterlimit="10" stroke-linecap="round" stroke-linejoin="round"/>
<path opacity="0.37" d="M286.885 284.849C287.651 284.849 288.272 284.227 288.272 283.46C288.272 282.694 287.651 282.072 286.885 282.072C286.119 282.072 285.498 282.694 285.498 283.46C285.498 284.227 286.119 284.849 286.885 284.849Z" stroke="#736AF8" stroke-width="0.750809" stroke-miterlimit="10" stroke-linecap="round" stroke-linejoin="round"/>
<path opacity="0.37" d="M128.715 90.8017C129.481 90.8017 130.102 90.1802 130.102 89.4135C130.102 88.6469 129.481 88.0254 128.715 88.0254C127.949 88.0254 127.328 88.6469 127.328 89.4135C127.328 90.1802 127.949 90.8017 128.715 90.8017Z" stroke="#736AF8" stroke-width="0.750809" stroke-miterlimit="10" stroke-linecap="round" stroke-linejoin="round"/>
<path opacity="0.37" d="M457.721 33.2221C457.721 33.9889 457.1 34.6103 456.334 34.6103C455.568 34.6103 454.947 33.9889 454.947 33.2221C454.947 32.4554 455.568 31.834 456.334 31.834C457.1 31.8347 457.721 32.4554 457.721 33.2221Z" stroke="#736AF8" stroke-width="0.750809" stroke-miterlimit="10" stroke-linecap="round" stroke-linejoin="round"/>
<path opacity="0.37" d="M39.0701 159.946C40.6018 159.946 41.8434 158.703 41.8434 157.17C41.8434 155.637 40.6018 154.395 39.0701 154.395C37.5385 154.395 36.2969 155.637 36.2969 157.17C36.2969 158.703 37.5385 159.946 39.0701 159.946Z" stroke="#736AF8" stroke-width="1.50154" stroke-miterlimit="10" stroke-linecap="round" stroke-linejoin="round"/>
<path opacity="0.37" d="M383.406 72.883C383.406 74.4158 382.164 75.6586 380.633 75.6586C379.101 75.6586 377.859 74.4158 377.859 72.883C377.859 71.3503 379.101 70.1074 380.633 70.1074C382.164 70.1074 383.406 71.3503 383.406 72.883Z" stroke="#736AF8" stroke-width="1.50154" stroke-miterlimit="10" stroke-linecap="round" stroke-linejoin="round"/>
<path d="M426.435 251.669C432.329 251.669 437.106 251.323 437.106 250.896C437.106 250.469 432.329 250.123 426.435 250.123C420.541 250.123 415.764 250.469 415.764 250.896C415.764 251.323 420.541 251.669 426.435 251.669Z" fill="#000067"/>
<path d="M420.665 255.857C420.665 255.857 418.025 223.561 452.785 222.836C452.785 222.836 458.217 244.436 420.665 255.857Z" fill="#6234FB"/>
<path d="M452.784 222.836C452.784 222.836 439.368 231.037 420.664 255.857" stroke="#F0F5FF" stroke-width="0.323621" stroke-miterlimit="10"/>
<path d="M420.664 255.857C420.664 255.857 408.942 225.56 433.097 209.166C433.097 209.166 447.205 231.685 420.664 255.857Z" fill="#7D6AFF"/>
<path d="M420.664 255.857C420.664 255.857 424.676 229.821 433.097 209.166" stroke="#F0F5FF" stroke-width="0.323621" stroke-miterlimit="10"/>
<path d="M437.157 250.896H437.108C437.108 251.323 432.331 251.669 426.436 251.669C420.543 251.669 415.764 251.323 415.764 250.896H415.716C415.716 250.896 409.342 254.956 409.342 260.176C409.342 265.395 415.619 268.102 415.619 268.102H426.436H437.252C437.252 268.102 443.53 265.395 443.53 260.176C443.53 254.956 437.157 250.896 437.157 250.896Z" fill="#B8B2FF"/>
<path d="M442.321 263.98C440.497 266.701 437.252 268.101 437.252 268.101H415.619C415.619 268.101 409.338 265.395 409.338 260.175C409.338 257.515 410.999 255.157 412.621 253.486C412.653 254.159 412.83 254.816 413.186 255.443C414.229 257.299 416.206 258.412 418.153 259.27C425.709 262.611 434.015 263.547 442.321 263.98Z" fill="#F6E2E0"/>
<path d="M442.321 263.98C440.497 266.701 437.252 268.101 437.252 268.101H415.619C415.619 268.101 409.338 265.395 409.338 260.175C409.338 257.515 410.999 255.157 412.621 253.486C412.653 254.159 412.83 254.816 413.186 255.443C414.229 257.299 416.206 258.412 418.153 259.27C425.709 262.611 434.015 263.547 442.321 263.98Z" fill="#968CF4"/>
<path d="M453.377 271.49H87.099C86.1628 271.49 85.4043 270.731 85.4043 269.794C85.4043 268.857 86.1628 268.098 87.099 268.098H453.377C454.313 268.098 455.072 268.857 455.072 269.794C455.072 270.731 454.313 271.49 453.377 271.49Z" fill="#000067"/>
<path d="M358.032 202.187C357.878 199.998 356.058 198.301 353.865 198.301H329.733C329.205 198.301 328.777 198.729 328.777 199.257C328.777 199.785 329.205 200.213 329.733 200.213H331.088C331.531 200.213 331.898 200.556 331.929 200.998L336.068 259.732C336.273 262.634 333.976 265.101 331.069 265.101H317.218C316.374 265.101 315.689 265.786 315.689 266.631C315.689 267.476 316.374 268.161 317.218 268.161H336.662H356.542H358.199C360.622 268.161 362.536 266.105 362.366 263.686L358.032 202.187Z" fill="#4F46C6"/>
<path opacity="0.33" d="M360.575 238.254H334.557L334.996 244.482H361.014L360.575 238.254Z" fill="#000067"/>
<path d="M391.925 239.604H276.536C271.528 239.604 267.822 234.942 268.949 230.057L287.504 149.619C288.32 146.083 291.466 143.578 295.091 143.578H410.479C415.487 143.578 419.193 148.241 418.066 153.125L399.512 233.564C398.696 237.1 395.55 239.604 391.925 239.604Z" fill="#4F46C6"/>
<path d="M387.45 239.604H272.061C267.054 239.604 263.348 234.942 264.475 230.057L283.029 149.619C283.845 146.083 286.991 143.578 290.616 143.578H406.004C411.012 143.578 414.718 148.241 413.591 153.125L395.036 233.564C394.221 237.1 391.075 239.604 387.45 239.604Z" fill="#000067"/>
<path d="M272.063 235.654C270.885 235.654 269.789 235.125 269.055 234.203C268.322 233.28 268.054 232.093 268.318 230.944L286.874 150.505C287.279 148.75 288.818 147.523 290.618 147.523H406.005C407.184 147.523 408.28 148.053 409.012 148.975C409.746 149.898 410.014 151.087 409.749 152.235L391.195 232.673C390.79 234.428 389.25 235.654 387.451 235.654H272.063Z" fill="#E8EDFE"/>
<path d="M272.063 235.654C270.885 235.654 269.789 235.125 269.055 234.203C268.322 233.28 268.054 232.093 268.318 230.944L286.874 150.505C287.279 148.75 288.818 147.523 290.618 147.523H406.005C407.184 147.523 408.28 148.053 409.012 148.975C409.746 149.898 410.014 151.087 409.749 152.235L391.195 232.673C390.79 234.428 389.25 235.654 387.451 235.654H272.063Z" fill="#E8EDFE"/>
<path d="M268.951 262.221H349.896C350.958 262.221 351.819 262.81 351.819 263.536V266.782C351.819 267.508 350.958 268.097 349.896 268.097H268.951C267.888 268.097 267.027 267.508 267.027 266.782V263.536C267.027 262.81 267.888 262.221 268.951 262.221Z" fill="#572A44"/>
<path d="M318.897 262.221H351.055C351.476 262.221 351.819 262.81 351.819 263.536V266.782C351.819 267.508 351.476 268.097 351.055 268.097H318.897C318.475 268.097 318.133 267.508 318.133 266.782V263.536C318.132 262.81 318.474 262.221 318.897 262.221Z" fill="#000067"/>
<path d="M166.342 184.75C166.342 184.75 144.795 189.058 141.223 209.247C137.365 231.057 152.286 269.792 152.286 269.792H180.024L166.342 184.75Z" fill="#887AFE"/>
<path d="M291.579 344.158H203.969C182.632 336.443 182.1 303.061 182.1 303.061C182.1 303.061 206.417 303.061 241.368 303.061C276.312 303.061 300.083 307.226 300.74 318.734C301.272 328.056 294.268 339.965 291.579 344.158Z" fill="#000067"/>
<path d="M276.395 338.768L273.021 344.158H203.969C182.632 336.443 182.1 303.061 182.1 303.061C182.1 303.061 191.634 303.061 207.343 303.061C207.343 303.061 207.599 334.962 233.873 337.038C260.147 339.114 276.395 338.768 276.395 338.768Z" fill="#00004C"/>
<path d="M184.552 127.929C184.552 127.929 182.525 120.363 186.469 115.484C186.469 115.484 184.169 120.254 186.469 125.572L184.552 127.929Z" fill="#000067"/>
<path d="M185.902 125.657C185.902 125.657 184.289 123.143 180.023 124.722C180.023 124.722 183.416 124.312 184.35 126.367L185.902 125.657Z" fill="#000067"/>
<path d="M182.963 158.023C182.963 158.023 180.485 173.647 174.076 183.515C174.076 183.515 196.26 185.489 200.204 189.601L200.862 166.741L182.963 158.023Z" fill="#FFBBA5"/>
<path d="M218.28 129.735C219.43 133.024 223.21 144.372 222.224 146.511C221.238 148.649 222.552 152.76 223.21 156.543C223.867 160.326 221.073 159.339 220.745 161.148C220.416 162.957 221.566 173.812 214.665 176.772C207.763 179.733 198.396 176.114 191.824 169.7C185.25 163.286 176.706 145.195 189.852 132.367C202.998 119.538 218.28 129.735 218.28 129.735Z" fill="#FFBBA5"/>
<path d="M200.08 150.047C200.08 150.047 201.833 157.208 206.79 157.163L201.568 146.66L200.08 150.047Z" fill="#FF9E7C"/>
<path d="M201.512 150.213C201.512 150.213 199.465 163.983 187.469 163.983C182.057 163.983 179.457 161.314 176.992 153.091C174.951 146.281 170.117 140.325 170.748 135C171.898 125.297 183.197 124.31 184.593 125.379C184.593 125.379 184.511 116.169 196.178 113.455C207.845 110.741 212.857 122.089 221.32 118.554C229.783 115.018 229.921 130.653 219.253 132.621C208.585 134.589 217.13 145.854 208.667 147.91C200.204 149.965 201.512 150.213 201.512 150.213Z" fill="#000067"/>
<path d="M210.044 149.235C210.459 153.392 209.002 156.942 206.79 157.164C204.577 157.385 201.852 153.794 201.437 149.636C201.021 145.479 203.073 142.33 205.286 142.109C207.498 141.886 209.628 145.077 210.044 149.235Z" fill="#FFBBA5"/>
<path d="M172.338 182.376L176.093 176.551C177.034 175.091 178.675 174.248 180.409 174.316C182.603 174.402 186 174.707 190.445 175.622C197.306 177.035 201.127 178.569 202.981 179.483C203.887 179.93 204.511 180.801 204.666 181.8L206.284 192.233C206.284 192.233 201.234 187.865 193.213 185.552C185.192 183.241 172.338 182.376 172.338 182.376Z" fill="#A695FF"/>
<path d="M173.184 181.121C173.184 181.121 182.424 180.235 191.386 182.421C200.348 184.607 217.855 191.082 222.237 194.591C226.619 198.099 222.093 214.105 224.032 231.54C226.007 249.308 237.216 304.076 229.648 303.215C229.648 303.215 218.554 305.658 193.358 305.658C168.161 305.658 156.11 308.071 156.987 293.597C157.864 279.124 141.602 220.204 144.45 204.635C147.299 189.066 161.571 185.178 173.184 181.121Z" fill="#B8B2FF"/>
<path d="M229.647 303.214C237.215 304.075 226.007 249.307 224.031 231.539C223.307 225.032 223.485 218.725 223.763 213.191H208.502C208.502 213.191 213.157 251.229 218.56 275.218C221.306 287.413 221.259 297.499 220.551 304.476C226.743 303.852 229.647 303.214 229.647 303.214Z" fill="#ABA5FF"/>
<path d="M298.223 255.374L309.656 258.367L323.904 253.086L337.624 255.727L345.715 266.114C345.715 266.114 345.012 268.666 342.197 266.994C342.197 266.994 340.878 269.01 338.328 267.562C335.777 266.114 336.305 262.768 333.666 262.417C331.028 262.065 331.467 268.086 325.135 268.086C318.802 268.086 300.773 268.086 300.773 268.086L298.223 255.374Z" fill="#FFBBA5"/>
<path d="M305.998 268.084C311.829 268.084 320.989 268.084 325.135 268.084C331.467 268.084 331.027 262.063 333.666 262.415C336.305 262.767 335.777 266.112 338.328 267.56C340.879 269.009 342.198 266.992 342.198 266.992C342.198 266.992 339.776 264.031 337.471 261.84C335.166 259.649 333.207 258.957 328.943 262.532C324.679 266.108 317.535 266.338 315.231 266.551C312.926 266.763 306.979 266.551 306.979 266.551L305.998 268.084Z" fill="#FFA17C"/>
<path d="M200.862 171.799L200.666 175.792C200.666 175.792 208.091 179.57 214.024 177.027C214.024 177.027 205.216 178.624 200.862 171.799Z" fill="#FF9E7C"/>
<path d="M220.903 193.672C227.591 197.556 237.835 211.136 245.282 220.355C253.608 230.662 265.658 246.012 266.316 246.669C266.974 247.327 304.658 255.879 304.658 255.879C304.658 255.879 307.726 260.703 306.85 268.159H253.462C253.462 268.159 226.946 249.021 218.558 240.387C207.055 228.546 202.498 201.566 220.903 193.672Z" fill="#A695FF"/>
<path d="M208.053 148.543C208.911 145.808 209.381 142.843 209.381 139.747C209.381 127.041 201.475 116.553 191.252 114.998" stroke="#E7EDFD" stroke-width="1.25558" stroke-miterlimit="10" stroke-linecap="round" stroke-linejoin="round"/>
<path d="M207.127 157.277C207.127 157.277 209.006 168.198 222.216 169.631" stroke="#000067" stroke-width="1.08764" stroke-miterlimit="10"/>
<path d="M223.71 169.772C223.636 170.962 222.278 171.845 220.676 171.746C219.074 171.646 217.836 170.601 217.909 169.411C217.983 168.221 219.341 167.338 220.943 167.437C222.545 167.538 223.784 168.583 223.71 169.772Z" fill="#000067"/>
<path d="M209.074 160.617C213.55 160.617 217.178 155.668 217.178 149.563C217.178 143.457 213.55 138.508 209.074 138.508C204.597 138.508 200.969 143.457 200.969 149.563C200.969 155.668 204.597 160.617 209.074 160.617Z" fill="#7D6AFE"/>
<path d="M210.895 157.469C214.097 157.469 216.693 153.929 216.693 149.562C216.693 145.195 214.097 141.654 210.895 141.654C207.693 141.654 205.098 145.195 205.098 149.562C205.098 153.929 207.693 157.469 210.895 157.469Z" fill="#E7EDFD"/>
<path d="M211.227 157.014C214.245 157.014 216.691 153.677 216.691 149.562C216.691 145.446 214.245 142.109 211.227 142.109C208.21 142.109 205.764 145.446 205.764 149.562C205.764 153.677 208.21 157.014 211.227 157.014Z" fill="#B8B2FF"/>
<path opacity="0.56" d="M257.755 262.222C251.676 260.025 219.237 245.696 210.205 225.574C211.942 231.311 214.896 236.619 218.559 240.39C226.946 249.025 253.462 268.163 253.462 268.163H306.85C306.915 267.61 306.952 267.076 306.976 266.553C293.781 266.192 262.142 263.807 257.755 262.222Z" fill="#887AFE"/>
<path d="M271.278 235.658C268.965 234.98 267.865 232.908 268.316 230.948L286.872 150.508C287.277 148.754 288.816 147.527 290.616 147.527H406.774C409.096 148.197 410.201 150.276 409.748 152.239L391.194 232.677C390.789 234.432 389.249 235.658 387.45 235.658H271.278Z" fill="#E8EDFE"/>
<path d="M301.635 183.089H295.758C293.514 183.089 292.115 181.269 292.633 179.024L293.99 173.142C294.508 170.896 296.746 169.076 298.989 169.076H304.866C307.11 169.076 308.509 170.896 307.991 173.142L306.634 179.024C306.117 181.269 303.878 183.089 301.635 183.089Z" fill="#6E65F1"/>
<path d="M340.495 174.439H315.819C314.864 174.439 314.269 173.664 314.489 172.709C314.71 171.753 315.662 170.979 316.617 170.979H341.293C342.248 170.979 342.843 171.753 342.622 172.709C342.402 173.664 341.45 174.439 340.495 174.439Z" fill="#D0D1F7"/>
<path d="M384.268 181.184H312.879C312.688 181.184 312.569 181.029 312.613 180.838C312.657 180.647 312.847 180.492 313.038 180.492H384.427C384.617 180.492 384.736 180.647 384.692 180.838C384.649 181.029 384.458 181.184 384.268 181.184Z" fill="#D0D1F7"/>
<path d="M297.006 203.156H291.129C288.885 203.156 287.486 201.336 288.004 199.09L289.361 193.208C289.879 190.963 292.117 189.143 294.36 189.143H300.237C302.481 189.143 303.88 190.963 303.362 193.208L302.005 199.09C301.488 201.336 299.249 203.156 297.006 203.156Z" fill="#FF456F"/>
<path d="M359.924 194.507H311.188C310.233 194.507 309.638 193.733 309.858 192.777C310.079 191.821 311.031 191.047 311.986 191.047H360.722C361.677 191.047 362.272 191.821 362.051 192.777C361.832 193.733 360.879 194.507 359.924 194.507Z" fill="#D0D1F7"/>
<path d="M379.638 201.253H308.249C308.059 201.253 307.94 201.098 307.984 200.907C308.028 200.716 308.218 200.561 308.409 200.561H379.798C379.989 200.561 380.108 200.716 380.064 200.907C380.02 201.098 379.829 201.253 379.638 201.253Z" fill="#D0D1F7"/>
<path d="M292.377 223.226H286.5C284.256 223.226 282.857 221.406 283.375 219.16L284.732 213.278C285.25 211.033 287.489 209.213 289.732 209.213H295.609C297.852 209.213 299.251 211.033 298.733 213.278L297.377 219.16C296.859 221.406 294.621 223.226 292.377 223.226Z" fill="#6E65F1"/>
<path d="M327.824 214.575H306.557C305.602 214.575 305.007 213.801 305.228 212.845C305.448 211.89 306.4 211.115 307.355 211.115H328.622C329.576 211.115 330.172 211.89 329.951 212.845C329.731 213.801 328.779 214.575 327.824 214.575Z" fill="#D0D1F7"/>
<path d="M374.355 214.575H363.471C362.516 214.575 361.921 213.801 362.142 212.845C362.362 211.89 363.315 211.115 364.269 211.115H375.153C376.108 211.115 376.703 211.89 376.482 212.845C376.262 213.801 375.31 214.575 374.355 214.575Z" fill="#D0D1F7"/>
<path d="M375.008 221.321H303.619C303.428 221.321 303.309 221.166 303.353 220.975C303.397 220.784 303.587 220.629 303.778 220.629H375.167C375.358 220.629 375.477 220.784 375.433 220.975C375.389 221.166 375.199 221.321 375.008 221.321Z" fill="#D0D1F7"/>
<path d="M348.327 163.886H298.084C297.002 163.886 296.328 163.008 296.577 161.925C296.827 160.842 297.907 159.965 298.988 159.965H349.232C350.314 159.965 350.988 160.842 350.738 161.925C350.488 163.008 349.409 163.886 348.327 163.886Z" fill="#D0D1F7"/>
<path d="M302.272 173.823C302.088 174.617 301.297 175.261 300.503 175.261C299.709 175.261 299.214 174.617 299.397 173.823C299.581 173.028 300.372 172.385 301.166 172.385C301.96 172.384 302.455 173.028 302.272 173.823Z" fill="#E8EDFE"/>
<path d="M300.287 176.197C298.999 176.197 297.712 176.879 296.846 177.901C296.152 178.72 296.509 179.779 297.471 179.779H301.451C302.413 179.779 303.258 178.72 302.942 177.901C302.547 176.879 301.575 176.197 300.287 176.197Z" fill="#E8EDFE"/>
<path d="M297.643 193.892C297.46 194.686 296.668 195.33 295.874 195.33C295.08 195.33 294.585 194.686 294.769 193.892C294.952 193.097 295.743 192.453 296.537 192.453C297.331 192.453 297.826 193.097 297.643 193.892Z" fill="#E8EDFE"/>
<path d="M295.658 196.266C294.37 196.266 293.083 196.947 292.217 197.969C291.523 198.789 291.88 199.847 292.842 199.847H296.822C297.784 199.847 298.629 198.789 298.313 197.969C297.918 196.947 296.946 196.266 295.658 196.266Z" fill="#E8EDFE"/>
<path d="M293.012 213.96C292.829 214.755 292.037 215.398 291.243 215.398C290.45 215.398 289.954 214.754 290.138 213.96C290.321 213.166 291.113 212.521 291.906 212.521C292.7 212.521 293.195 213.166 293.012 213.96Z" fill="#E8EDFE"/>
<path d="M291.027 216.334C289.739 216.334 288.452 217.016 287.587 218.038C286.892 218.857 287.249 219.916 288.211 219.916H292.191C293.153 219.916 293.998 218.857 293.682 218.038C293.287 217.016 292.315 216.334 291.027 216.334Z" fill="#E8EDFE"/>
<mask id="mask1_43_8351" style="mask-type:luminance" maskUnits="userSpaceOnUse" x="85" y="233" width="131" height="112">
<path d="M215.29 233.234H85.4004V344.164H215.29V233.234Z" fill="white"/>
</mask>
<g mask="url(#mask1_43_8351)">
<path d="M146.675 378.185C146.675 378.185 120.892 370.531 118.892 341.834C116.891 313.137 123.485 310.403 109.574 279.588C95.6634 248.773 105.081 238.277 128.125 236.263C151.169 234.25 188.693 235.967 197.661 262.269C206.629 288.572 196.23 352.236 233.203 357.772C270.176 363.308 288.725 357.242 289.866 361.187C291.007 365.132 295.98 375.764 268.635 378.186C241.29 380.608 146.675 378.185 146.675 378.185Z" fill="#4231BC"/>
<path d="M140.107 378.185C140.107 378.185 114.323 370.531 112.323 341.834C110.323 313.137 116.916 310.403 103.006 279.588C89.095 248.773 98.5128 238.277 121.556 236.263C144.601 234.25 182.125 235.967 191.092 262.269C200.061 288.572 189.662 352.236 226.634 357.772C263.608 363.308 282.157 357.242 283.297 361.187C284.439 365.132 289.412 375.764 262.067 378.186C234.722 380.608 140.107 378.185 140.107 378.185Z" fill="#5B3FDA"/>
<path d="M203.938 379.21C203.259 378.784 202.573 378.37 201.878 377.982C194.481 373.847 186.249 371.502 178.309 368.542C170.37 365.581 162.447 361.822 156.736 355.557C148.683 346.723 146.118 334.192 139.431 324.282C134.013 316.254 126.139 310.289 118.974 303.778C115.321 300.458 111.806 296.916 108.904 292.909C108.529 292.391 108.175 291.859 107.828 291.322C115.192 311.728 110.612 317.273 112.323 341.834C114.323 370.531 140.107 378.185 140.107 378.185C140.107 378.185 171.89 378.998 203.938 379.21Z" fill="#4231BC"/>
</g>
<path d="M351.531 231.804H331.59C329.732 231.804 328.574 230.297 329.003 228.438L333.762 207.811C334.19 205.952 336.044 204.445 337.901 204.445H357.842C359.699 204.445 360.857 205.952 360.428 207.811L355.67 228.438C355.241 230.297 353.388 231.804 351.531 231.804Z" fill="#9B93FD"/>
<path d="M336.672 213.672L337.443 214.628L340.359 212.258" stroke="#E8EDFE" stroke-width="0.935703" stroke-miterlimit="10" stroke-linecap="round" stroke-linejoin="round"/>
<path d="M343.41 210.895H354.832" stroke="#E8EDFE" stroke-width="0.935703" stroke-miterlimit="10" stroke-linecap="round" stroke-linejoin="round"/>
<path d="M342.822 213.443H349.028" stroke="#E8EDFE" stroke-width="0.935703" stroke-miterlimit="10" stroke-linecap="round" stroke-linejoin="round"/>
<path d="M351.275 213.443H354.244" stroke="#E8EDFE" stroke-width="0.935703" stroke-miterlimit="10" stroke-linecap="round" stroke-linejoin="round"/>
<path d="M342.295 215.721H345.27" stroke="#E8EDFE" stroke-width="0.935703" stroke-miterlimit="10" stroke-linecap="round" stroke-linejoin="round"/>
<path d="M348.605 223.312L349.376 224.267L352.292 221.896" stroke="#E8EDFE" stroke-width="0.935703" stroke-miterlimit="10" stroke-linecap="round" stroke-linejoin="round"/>
<path d="M346.509 220.533H335.088" stroke="#E8EDFE" stroke-width="0.935703" stroke-miterlimit="10" stroke-linecap="round" stroke-linejoin="round"/>
<path d="M345.925 223.082H339.719" stroke="#E8EDFE" stroke-width="0.935703" stroke-miterlimit="10" stroke-linecap="round" stroke-linejoin="round"/>
<path d="M337.47 223.082H334.502" stroke="#E8EDFE" stroke-width="0.935703" stroke-miterlimit="10" stroke-linecap="round" stroke-linejoin="round"/>
<path d="M345.396 225.359H342.422" stroke="#E8EDFE" stroke-width="0.935703" stroke-miterlimit="10" stroke-linecap="round" stroke-linejoin="round"/>
<path d="M278.544 131.919H303.397C305.807 131.919 308.212 129.963 308.768 127.551L310.92 118.223C311.477 115.811 309.974 113.855 307.564 113.855H282.712C280.301 113.855 277.897 115.811 277.34 118.223L275.188 127.551C274.631 129.963 276.134 131.919 278.544 131.919Z" fill="#FF4173"/>
<path d="M294.742 131.92L300.557 136.713L300.747 131.92H294.742Z" fill="#FF4173"/>
<path d="M296.693 126.31C295.087 125.916 295.618 125.003 296.054 123.687C296.49 122.372 293.137 122.39 293.137 122.39C293.137 122.39 289.785 122.408 289.629 123.721C289.473 125.034 289.593 125.944 287.805 126.357C286.121 126.746 285.094 126.727 284.874 126.373C284.653 126.018 284.887 125.135 285.037 124.498C285.188 123.861 286.573 119.922 293.702 119.883C300.831 119.845 300.443 123.779 300.306 124.416C300.169 125.052 300.005 125.935 299.624 126.293C299.243 126.652 298.205 126.681 296.693 126.31Z" fill="#E8EDFE"/>
<path d="M250.408 168.373H293.275C295.948 168.373 298.616 166.204 299.233 163.529L301.574 153.379C302.19 150.704 300.524 148.535 297.851 148.535H254.983C252.31 148.535 249.643 150.704 249.026 153.379L246.685 163.529C246.068 166.204 247.735 168.373 250.408 168.373Z" fill="#5B40DB"/>
<path d="M280.982 167.938L289.015 174.286L288.683 167.758L280.982 167.938Z" fill="#5B40DB"/>
<path d="M293.119 161.568H275.834" stroke="#E8EDFE" stroke-width="1.468" stroke-miterlimit="10" stroke-linecap="round"/>
<path d="M271.626 161.568H266.844" stroke="#E8EDFE" stroke-width="1.468" stroke-miterlimit="10" stroke-linecap="round"/>
<path d="M294.555 155.34H264.479" stroke="#E8EDFE" stroke-width="1.468" stroke-miterlimit="10" stroke-linecap="round"/>
<path d="M259.927 155.34H255.145" stroke="#E8EDFE" stroke-width="1.468" stroke-miterlimit="10" stroke-linecap="round"/>
<path d="M387.53 117.316H328.798C325.601 117.316 323.607 114.722 324.345 111.522L326.565 101.898C327.304 98.6978 330.494 96.1035 333.691 96.1035H392.422C395.619 96.1035 397.613 98.6978 396.875 101.898L394.655 111.522C393.917 114.722 390.727 117.316 387.53 117.316Z" fill="#736AF8"/>
<path d="M346.173 116.851L331.9 123.639L335.969 116.658L346.173 116.851Z" fill="#736AF8"/>
<path d="M331.711 110.039H356.507" stroke="#E8EDFE" stroke-width="1.468" stroke-miterlimit="10" stroke-linecap="round"/>
<path d="M362.541 110.039H369.401" stroke="#E8EDFE" stroke-width="1.468" stroke-miterlimit="10" stroke-linecap="round"/>
<path d="M333.248 103.379H376.392" stroke="#E8EDFE" stroke-width="1.468" stroke-miterlimit="10" stroke-linecap="round"/>
<path d="M382.922 103.379H389.782" stroke="#E8EDFE" stroke-width="1.468" stroke-miterlimit="10" stroke-linecap="round"/>
<path d="M422.192 212.919H386.216C382.912 212.919 380.853 210.239 381.616 206.932L389.07 174.617C389.833 171.311 393.129 168.631 396.432 168.631H432.408C435.712 168.631 437.771 171.311 437.008 174.617L429.554 206.932C428.79 210.239 425.494 212.919 422.192 212.919Z" fill="#FF4173"/>
<path d="M397.011 181.214L397.14 178.722C398.679 178.299 400.164 178.087 401.594 178.087C402.166 178.087 402.637 178.103 403.007 178.137C403.388 178.17 403.77 178.254 404.151 178.388C404.532 178.522 404.815 178.706 405.002 178.94C405.428 179.475 405.513 180.294 405.259 181.398C405.004 182.502 404.496 183.316 403.734 183.84C402.973 184.364 401.484 184.966 399.267 185.646L399.159 186.114H403.999L403.382 188.79H394.578L395.06 186.7C395.204 186.075 395.461 185.479 395.833 184.91C396.056 184.587 396.507 184.197 397.184 183.74C397.552 183.483 398.021 183.238 398.59 183.004C399.17 182.77 399.712 182.552 400.216 182.351C400.734 182.14 401.151 181.967 401.468 181.833L401.677 180.93C401.175 180.874 400.706 180.846 400.271 180.846C399.219 180.846 398.132 180.969 397.011 181.214ZM395.493 206.33L395.879 204.657H390.592L391.074 202.567L395.26 195.877H401.336L399.975 201.781H401.09L400.427 204.657H399.311L398.925 206.33H395.493ZM397.153 198.386L394.843 201.781H396.542L397.325 198.386H397.153Z" fill="white"/>
<path d="M419.401 185.716L410.102 197.088C410.019 197.199 409.95 197.277 409.894 197.322C409.74 197.445 409.531 197.506 409.268 197.506H408.049L417.348 186.134C417.431 186.022 417.501 185.944 417.557 185.899C417.711 185.777 417.92 185.716 418.183 185.716H419.401Z" fill="white"/>
<path d="M423.933 193.502L418.692 201.864H414.813L419.625 194.322L415.494 194.372L415.92 191.412H424.415L423.933 193.502Z" fill="white"/>
<path d="M417.105 155.627H370.78C365.434 155.627 362.101 151.289 363.335 145.939L365.038 138.557C366.272 133.207 371.606 128.869 376.952 128.869H423.277C428.623 128.869 431.957 133.207 430.723 138.557L429.02 145.939C427.785 151.289 422.45 155.627 417.105 155.627Z" fill="#00B4FF"/>
<path d="M421.157 139.143L419.965 140.788C419.887 140.896 419.767 140.971 419.644 140.988L417.769 141.252C417.46 141.296 417.256 141.664 417.424 141.875L418.441 143.156C418.508 143.24 418.52 143.361 418.472 143.479L417.744 145.288C417.625 145.586 417.885 145.814 418.185 145.673L420.005 144.819C420.124 144.763 420.251 144.763 420.344 144.819L421.77 145.673C422.005 145.814 422.37 145.586 422.388 145.288L422.495 143.479C422.502 143.361 422.569 143.24 422.674 143.156L424.282 141.875C424.548 141.664 424.513 141.296 424.224 141.252L422.47 140.988C422.355 140.971 422.27 140.896 422.241 140.788L421.809 139.143C421.739 138.872 421.353 138.872 421.157 139.143Z" fill="#E8EDFE"/>
<path d="M409.287 139.143L408.096 140.788C408.018 140.896 407.898 140.971 407.775 140.988L405.9 141.252C405.591 141.296 405.386 141.664 405.554 141.875L406.572 143.156C406.639 143.24 406.65 143.361 406.603 143.479L405.875 145.288C405.756 145.586 406.016 145.814 406.316 145.673L408.136 144.819C408.254 144.763 408.382 144.763 408.475 144.819L409.901 145.673C410.136 145.814 410.501 145.586 410.519 145.288L410.626 143.479C410.633 143.361 410.7 143.24 410.806 143.156L412.414 141.875C412.679 141.664 412.645 141.296 412.355 141.252L410.602 140.988C410.487 140.971 410.401 140.896 410.373 140.788L409.941 139.143C409.871 138.872 409.484 138.872 409.287 139.143Z" fill="#E8EDFE"/>
<path d="M397.418 139.143L396.227 140.788C396.149 140.896 396.029 140.971 395.906 140.988L394.031 141.252C393.722 141.296 393.517 141.664 393.685 141.875L394.702 143.156C394.769 143.24 394.781 143.361 394.733 143.479L394.005 145.288C393.885 145.586 394.146 145.814 394.446 145.673L396.266 144.819C396.385 144.763 396.512 144.763 396.605 144.819L398.031 145.673C398.266 145.814 398.631 145.586 398.649 145.288L398.756 143.479C398.763 143.361 398.83 143.24 398.936 143.156L400.544 141.875C400.81 141.664 400.775 141.296 400.485 141.252L398.732 140.988C398.617 140.971 398.531 140.896 398.503 140.788L398.071 139.143C398.001 138.872 397.615 138.872 397.418 139.143Z" fill="#E8EDFE"/>
<path d="M385.549 139.143L384.358 140.788C384.28 140.896 384.16 140.971 384.037 140.988L382.162 141.252C381.853 141.296 381.648 141.664 381.816 141.875L382.834 143.156C382.9 143.24 382.912 143.361 382.864 143.479L382.137 145.288C382.017 145.586 382.277 145.814 382.577 145.673L384.397 144.819C384.516 144.763 384.643 144.763 384.737 144.819L386.162 145.673C386.398 145.814 386.763 145.586 386.781 145.288L386.888 143.479C386.895 143.361 386.962 143.24 387.067 143.156L388.675 141.875C388.941 141.664 388.906 141.296 388.616 141.252L386.863 140.988C386.748 140.971 386.662 140.896 386.634 140.788L386.202 139.143C386.132 138.872 385.746 138.872 385.549 139.143Z" fill="#E8EDFE"/>
<path d="M373.68 139.143L372.489 140.788C372.411 140.896 372.291 140.971 372.168 140.988L370.293 141.252C369.984 141.296 369.779 141.664 369.947 141.875L370.965 143.156C371.031 143.24 371.043 143.361 370.995 143.479L370.268 145.288C370.148 145.586 370.408 145.814 370.708 145.673L372.528 144.819C372.647 144.763 372.774 144.763 372.868 144.819L374.293 145.673C374.528 145.814 374.893 145.586 374.911 145.288L375.019 143.479C375.025 143.361 375.093 143.24 375.198 143.156L376.807 141.875C377.072 141.664 377.038 141.296 376.748 141.252L374.994 140.988C374.88 140.971 374.794 140.896 374.766 140.788L374.333 139.143C374.264 138.872 373.877 138.872 373.68 139.143Z" fill="#E8EDFE"/>
<path d="M371.247 154.344L365.447 161.225L385.351 154.42L371.247 154.344Z" fill="#00B4FF"/>
</svg>
