<svg width="43" height="44" viewBox="0 0 43 44" fill="none" xmlns="http://www.w3.org/2000/svg">
<g clip-path="url(#clip0_1712_103666)">
<path d="M16.971 7.82219L16.6117 9.91047C16.4897 10.6198 16.7748 11.3225 17.3569 11.7455C17.9376 12.1698 18.6973 12.2242 19.3364 11.89L21.2126 10.9022L23.0913 11.8914C23.3671 12.0345 23.6668 12.1075 23.9638 12.1075C24.3523 12.1075 24.7381 11.9842 25.0682 11.7455C25.649 11.3239 25.9341 10.6198 25.8134 9.91047L25.4541 7.82219L26.9736 6.34117C27.4893 5.83865 27.6696 5.10146 27.4482 4.41862C27.2255 3.73313 26.6461 3.24388 25.9327 3.14046L23.8338 2.8355L22.8964 0.934174C22.5769 0.287138 21.9325 -0.113281 21.2126 -0.113281C20.4926 -0.113281 19.8482 0.288464 19.53 0.932848L18.5899 2.8355L16.491 3.14046C15.779 3.24388 15.1983 3.73313 14.9756 4.41862C14.7541 5.10278 14.9358 5.83865 15.4502 6.34117L16.971 7.82219ZM19.1998 5.15714C19.8098 5.06831 20.3375 4.68513 20.6106 4.1309L21.2126 2.91506L21.8132 4.1309C22.0863 4.68513 22.614 5.06831 23.2239 5.15714L24.5671 5.35205L23.6005 6.29609C23.1537 6.72833 22.9508 7.35282 23.0582 7.96008L23.2876 9.29658L22.0823 8.66148C21.8092 8.52093 21.5135 8.45199 21.2139 8.45199C20.9142 8.45199 20.6146 8.52359 20.3388 8.66546L19.1389 9.29791L19.3682 7.96538C19.4756 7.35415 19.2728 6.72965 18.8286 6.30006L17.858 5.35338L19.1998 5.15714Z" fill="#602EDF"/>
<path d="M12.3892 13.1683L12.0299 11.0787L13.5493 9.59765C14.0651 9.09381 14.2454 8.35662 14.0227 7.67246C13.7999 6.98829 13.2192 6.50037 12.5059 6.39695L10.411 6.09199L9.47223 4.19066C9.15268 3.54495 8.5083 3.14453 7.78834 3.14453C7.06971 3.14453 6.42532 3.54495 6.10578 4.19066L5.16838 6.09199L3.06949 6.39695C2.35748 6.50037 1.77674 6.98962 1.55532 7.67378C1.33124 8.35794 1.51289 9.09514 2.02866 9.59898L3.54814 11.0787L3.18882 13.1683C3.06684 13.8776 3.35323 14.5804 3.9353 15.0046C4.26412 15.2433 4.64863 15.364 5.03579 15.364C5.33544 15.364 5.63376 15.291 5.91088 15.1465L7.78701 14.16L9.66315 15.1452C10.3009 15.4806 11.0567 15.4263 11.6401 15.0046C12.2248 14.5817 12.5112 13.8776 12.3892 13.1683ZM10.1696 9.56053C9.73077 9.99144 9.53056 10.6106 9.63398 11.2192L9.86336 12.5544L8.66343 11.9233C8.11849 11.6369 7.46482 11.6342 6.91723 11.9233L5.7173 12.5544L5.948 11.2152C6.0501 10.6106 5.84989 9.99144 5.40704 9.55655L4.43648 8.60986L5.77961 8.41628C6.39085 8.32745 6.91856 7.94426 7.19169 7.39004L7.79099 6.1742L8.39162 7.39004C8.66476 7.94426 9.19246 8.32745 9.80502 8.41628L11.1468 8.60986L10.1696 9.56053Z" fill="#602EDF"/>
<path d="M40.8761 7.67378C40.6546 6.98962 40.0739 6.50037 39.3606 6.39695L37.263 6.09332L36.3243 4.19066C36.0061 3.54495 35.3604 3.14453 34.6417 3.14453C33.9218 3.14453 33.2774 3.54495 32.9578 4.19066L32.0204 6.09199L29.9229 6.39562C29.2109 6.49904 28.6288 6.98697 28.406 7.67113C28.1833 8.35662 28.3649 9.09249 28.8807 9.59765L30.4002 11.0773L30.0409 13.167C29.9189 13.8763 30.2053 14.579 30.7873 15.0033C31.1162 15.242 31.5007 15.3626 31.8878 15.3626C32.1875 15.3626 32.4858 15.2897 32.7629 15.1452L34.6391 14.1587L36.5152 15.1439C37.153 15.4793 37.91 15.425 38.4921 15.0033C39.0742 14.5804 39.3606 13.8763 39.2386 13.167L38.8793 11.0773L40.3987 9.59633C40.9185 9.09514 41.1001 8.35662 40.8761 7.67378ZM37.023 9.56053C36.5842 9.99144 36.3839 10.6106 36.4874 11.2192L36.7167 12.5544L35.5168 11.9233C35.2437 11.7801 34.9427 11.7085 34.643 11.7085C34.3434 11.7085 34.0437 11.7801 33.7706 11.9233L32.5707 12.5544L32.8014 11.2152C32.9035 10.6106 32.7033 9.99144 32.2604 9.55655L31.2899 8.60986L32.633 8.41628C33.2442 8.32745 33.7719 7.94426 34.0451 7.39004L34.6444 6.1742L35.245 7.39004C35.5181 7.94426 36.0458 8.32745 36.6584 8.41628L38.0002 8.60986L37.023 9.56053Z" fill="#602EDF"/>
<path d="M36.9029 30.2915C38.3634 29.0899 39.3015 27.3586 39.3015 25.4126C39.3015 21.7978 36.124 18.8574 32.2176 18.8574C28.3112 18.8574 25.1337 21.7978 25.1337 25.4126C25.1337 27.3586 26.0732 29.0899 27.5324 30.2915C24.7477 31.3894 22.7891 33.9475 22.7891 36.9203V37.7884C22.7891 38.9738 23.7002 39.9968 24.9542 40.2191C27.3393 40.6438 29.7825 40.8574 32.2176 40.8574C34.6527 40.8574 37.0959 40.6426 39.4811 40.2191C40.7351 39.9956 41.6462 38.9738 41.6462 37.7884V36.9203C41.6449 33.9475 39.6876 31.3894 36.9029 30.2915ZM32.2176 21.107C34.7837 21.107 36.8705 23.0381 36.8705 25.4126C36.8705 27.7871 34.7837 29.7182 32.2176 29.7182C29.6516 29.7182 27.5648 27.7871 27.5648 25.4126C27.5648 23.0381 29.6516 21.107 32.2176 21.107ZM39.2152 37.7884C39.2152 37.8996 39.1355 37.9908 39.0235 38.012C34.5542 38.8052 29.8797 38.8052 25.4131 38.012C25.2997 37.9908 25.2201 37.8996 25.2201 37.7884V36.9203C25.2201 34.1886 27.6201 31.9677 30.5722 31.9677H33.8631C36.8152 31.9677 39.2152 34.1886 39.2152 36.9203V37.7884Z" fill="#F98A17"/>
<path d="M15.6841 30.2915C17.1447 29.0899 18.0828 27.3586 18.0828 25.4126C18.0828 21.7978 14.9053 18.8574 10.9989 18.8574C7.09247 18.8574 3.91497 21.7978 3.91497 25.4126C3.91497 27.3586 4.85445 29.0899 6.31362 30.2915C3.52892 31.3894 1.57031 33.9475 1.57031 36.9203V37.7884C1.57031 38.9738 2.48145 39.9968 3.73544 40.2191C6.12059 40.6438 8.56379 40.8574 10.9989 40.8574C13.434 40.8574 15.8772 40.6426 18.2623 40.2191C19.5163 39.9956 20.4275 38.9738 20.4275 37.7884V36.9203C20.4261 33.9475 18.4688 31.3894 15.6841 30.2915ZM10.9989 21.107C13.5649 21.107 15.6518 23.0381 15.6518 25.4126C15.6518 27.7871 13.5649 29.7182 10.9989 29.7182C8.43285 29.7182 6.34601 27.7871 6.34601 25.4126C6.34601 23.0381 8.43285 21.107 10.9989 21.107ZM17.9964 37.7884C17.9964 37.8996 17.9168 37.9908 17.8047 38.012C13.3354 38.8052 8.66097 38.8052 4.19438 38.012C4.081 37.9908 4.00136 37.8996 4.00136 37.7884V36.9203C4.00136 34.1886 6.40136 31.9677 9.35344 31.9677H12.6443C15.5964 31.9677 17.9964 34.1886 17.9964 36.9203V37.7884Z" fill="#F98A17"/>
</g>
<defs>
<clipPath id="clip0_1712_103666">
<rect width="42.4286" height="44" fill="white"/>
</clipPath>
</defs>
</svg>
