<svg width="44" height="44" viewBox="0 0 44 44" fill="none" xmlns="http://www.w3.org/2000/svg">
<path d="M30.25 10.1613V4.125H31.625C32.3813 4.125 33 3.50625 33 2.75C33 1.99375 32.3813 1.375 31.625 1.375H20.625C19.8687 1.375 19.25 1.99375 19.25 2.75C19.25 3.50625 19.8687 4.125 20.625 4.125H22V10.1613C14.8912 12.0037 9.625 18.4525 9.625 26.125C9.625 35.2275 17.0225 42.625 26.125 42.625C35.2275 42.625 42.625 35.2275 42.625 26.125C42.625 18.4525 37.3587 12.0037 30.25 10.1613ZM24.75 4.125H27.5V9.69375C27.0462 9.6525 26.5925 9.625 26.125 9.625C25.6575 9.625 25.2037 9.6525 24.75 9.69375V4.125ZM26.125 39.875C18.5487 39.875 12.375 33.7013 12.375 26.125C12.375 18.5487 18.5487 12.375 26.125 12.375C33.7013 12.375 39.875 18.5487 39.875 26.125C39.875 33.7013 33.7013 39.875 26.125 39.875Z" fill="#011839"/>
<path d="M2.75 20.625H8.15375C8.91 20.625 9.52875 20.0062 9.52875 19.25C9.52875 18.4937 8.91 17.875 8.15375 17.875H2.75C1.99375 17.875 1.375 18.4937 1.375 19.25C1.375 20.0062 1.99375 20.625 2.75 20.625Z" fill="#011839"/>
<path d="M8.305 27.5C8.305 26.7437 7.68625 26.125 6.93 26.125H2.75C1.99375 26.125 1.375 26.7437 1.375 27.5C1.375 28.2562 1.99375 28.875 2.75 28.875H6.93C7.68625 28.875 8.305 28.2562 8.305 27.5Z" fill="#011839"/>
<path d="M9.625 12.375H14.2313C14.9875 12.375 15.6063 11.7562 15.6063 11C15.6063 10.2437 14.9875 9.625 14.2313 9.625H9.625C8.86875 9.625 8.25 10.2437 8.25 11C8.25 11.7562 8.86875 12.375 9.625 12.375Z" fill="#011839"/>
<path d="M4.125 12.375H4.8125C5.56875 12.375 6.1875 11.7562 6.1875 11C6.1875 10.2437 5.56875 9.625 4.8125 9.625H4.125C3.36875 9.625 2.75 10.2437 2.75 11C2.75 11.7562 3.36875 12.375 4.125 12.375Z" fill="#011839"/>
<path d="M9.46 34.375H5.5C4.74375 34.375 4.125 34.9937 4.125 35.75C4.125 36.5062 4.74375 37.125 5.5 37.125H9.46C10.2163 37.125 10.835 36.5062 10.835 35.75C10.835 34.9937 10.2163 34.375 9.46 34.375Z" fill="#011839"/>
<path d="M27.502 15.8125C27.502 15.0562 26.8833 14.4375 26.127 14.4375C21.5758 14.4375 17.3958 17.1188 15.4983 21.2713C15.182 21.9588 15.4983 22.7837 16.172 23.1C16.3645 23.1825 16.557 23.2237 16.7495 23.2237C17.272 23.2237 17.767 22.9212 18.0008 22.4262C19.4583 19.25 22.6483 17.2013 26.127 17.2013C26.8833 17.2013 27.502 16.5825 27.502 15.8263V15.8125Z" fill="#602EDF"/>
<path d="M15.9106 24.2013C15.1544 24.16 14.5081 24.7375 14.4669 25.4938C14.4669 25.7 14.4531 25.92 14.4531 26.1263C14.4531 26.8825 15.0719 27.5013 15.8281 27.5013C16.5844 27.5013 17.2031 26.8825 17.2031 26.1263C17.2031 25.9613 17.2031 25.81 17.2031 25.645C17.2444 24.8888 16.6669 24.2425 15.9106 24.2013Z" fill="#602EDF"/>
<path d="M26.125 29.5625C28.0235 29.5625 29.5625 28.0235 29.5625 26.125C29.5625 24.2265 28.0235 22.6875 26.125 22.6875C24.2265 22.6875 22.6875 24.2265 22.6875 26.125C22.6875 28.0235 24.2265 29.5625 26.125 29.5625Z" fill="#602EDF"/>
<path d="M33.9791 32.0247L31.3528 29.3984C30.8578 30.1822 30.1978 30.8422 29.4141 31.3372L32.0403 33.9634C32.3153 34.2384 32.6591 34.3622 33.0166 34.3622C33.3741 34.3622 33.7178 34.2247 33.9928 33.9634C34.5291 33.4272 34.5291 32.5609 33.9928 32.0247H33.9791Z" fill="#602EDF"/>
</svg>
