<svg width="367" height="367" viewBox="0 0 367 367" fill="none" xmlns="http://www.w3.org/2000/svg">
<path d="M183.5 315.618C123.892 315.618 75.5711 311.581 75.5711 306.601C75.5711 301.622 123.892 297.585 183.5 297.585C243.107 297.585 291.429 301.622 291.429 306.601C291.429 311.581 243.107 315.618 183.5 315.618Z" fill="#EBF4FA"/>
<path d="M137.262 291.27C137.262 291.27 120.83 295.93 113.039 296.247L103.709 300.503C102.469 301.069 102.119 302.667 103.008 303.7C103.508 304.28 104.291 304.533 105.036 304.354L113.347 302.357L134.263 302.517L137.262 291.27Z" fill="#F2C7C4"/>
<path d="M142.766 301.138C141.863 306.201 130.343 304.358 126.35 304.358C123.334 304.358 117.605 304.236 114.979 304.177C114.149 304.158 113.422 303.626 113.15 302.842C112.745 301.673 113.497 300.421 114.719 300.23L124.052 298.77L138.303 290.995L142.766 301.138Z" fill="#F2C7C4"/>
<path d="M132.304 292.781L113.039 295.027L107.18 300.634C106.447 301.335 106.371 302.48 107.005 303.272C107.643 304.07 108.787 304.244 109.633 303.672L114.72 300.23L132.306 300.65V292.781H132.304Z" fill="#F2C7C4"/>
<path d="M143.728 192.111C136.304 221.421 133.054 280.602 133.054 280.602L154.849 279.573L157.124 197.701L143.728 192.111Z" fill="#F2C7C4"/>
<path d="M212.067 189.5C222.962 219.65 219.863 248.652 234.214 295.01L221.45 301.137C204.138 270.653 194.794 198.39 194.794 198.39L212.067 189.5Z" fill="#F2C7C4"/>
<path d="M226.954 291.27C226.954 291.27 243.386 295.93 251.177 296.247L260.507 300.503C261.747 301.069 262.097 302.667 261.208 303.7C260.708 304.28 259.925 304.533 259.18 304.354L250.869 302.357L229.953 302.517L226.954 291.27Z" fill="#F2C7C4"/>
<path d="M221.45 301.138C222.353 306.201 233.872 304.358 237.866 304.358C240.881 304.358 246.611 304.236 249.237 304.177C250.066 304.158 250.795 303.626 251.065 302.842C251.471 301.673 250.718 300.421 249.496 300.23L240.163 298.77L225.913 290.995L221.45 301.138Z" fill="#F2C7C4"/>
<path d="M231.911 292.781L251.176 295.027L257.035 300.634C257.768 301.335 257.844 302.48 257.211 303.272C256.573 304.07 255.429 304.244 254.582 303.672L249.497 300.23L231.911 300.65V292.781Z" fill="#F2C7C4"/>
<path d="M204.129 242.854L214.333 277.079C214.333 277.079 216.049 304.372 182.621 303.757C149.193 303.143 143.728 282.76 143.728 282.76L158.18 242.854H204.129Z" fill="#345870"/>
<path d="M210.391 264.828C210.848 267.165 211.108 268.204 211.108 268.204C211.108 268.204 185.607 280.687 146.3 267.511L146.678 263.01L149.292 232.228L149.276 232.22L147.82 231.716L147.545 231.621L131.323 225.97C131.961 223.586 132.583 221.311 133.188 219.146C138.186 201.241 141.996 190.718 145.9 187.27C149.236 184.327 154.691 184.996 162.444 188.207C166.891 190.041 172.085 192.717 178.075 196.022C178.075 196.022 184.215 191.953 191.432 188.68C198.028 185.681 205.52 183.343 210.022 185.39C215.909 188.058 221.025 207.506 223.394 217.966C224.284 221.917 224.787 224.585 224.787 224.585L207.653 229.095L205.724 229.599L205.496 229.662L205.418 229.685C207.558 248.96 209.423 259.837 210.391 264.828Z" fill="#69A0E1"/>
<path d="M211.108 268.204C211.108 268.204 185.608 280.687 146.301 267.511L146.679 263.01C166.513 266.693 197.13 265.56 210.392 264.828C210.849 267.165 211.108 268.204 211.108 268.204Z" fill="#5186C7"/>
<path d="M148.679 226.088L147.821 231.715L147.545 231.621L131.324 225.97C131.962 223.585 132.584 221.31 133.189 219.146L148.679 226.088Z" fill="#5186C7"/>
<path d="M192.179 193.402C192.179 201.87 185.323 208.726 176.862 208.726C168.402 208.726 161.538 201.87 161.538 193.402C161.538 191.575 161.861 189.828 162.443 188.207C166.889 190.041 172.084 192.717 178.074 196.023C178.074 196.023 184.213 191.953 191.431 188.68C191.919 190.167 192.179 191.757 192.179 193.402Z" fill="#5186C7"/>
<path d="M190.121 246.761C189.028 246.088 187.31 246.298 186.051 246.188C184.702 246.071 183.356 245.915 182.014 245.727C179.302 245.348 176.621 244.805 173.962 244.152C168.621 242.84 163.436 241.057 158.507 238.609C157.304 238.012 156.266 239.791 157.468 240.438C162.471 243.135 167.754 245.398 173.228 246.948C175.969 247.724 178.775 248.309 181.589 248.749C182.952 248.962 184.324 249.129 185.697 249.266C187.093 249.405 188.829 249.821 190.122 249.188C191.12 248.7 190.975 247.285 190.121 246.761Z" fill="#5186C7"/>
<path d="M190.073 238.751C188.899 238.315 187.369 238.858 186.152 238.974C184.802 239.104 183.442 239.175 182.087 239.176C179.43 239.178 176.751 238.938 174.153 238.383C172.91 238.117 172.421 239.935 173.651 240.298C176.415 241.115 179.209 241.666 182.087 241.869C183.492 241.968 184.896 241.988 186.302 241.915C187.757 241.839 189.491 241.898 190.666 240.944C191.516 240.255 190.897 239.057 190.073 238.751Z" fill="#5186C7"/>
<path d="M189.007 271.426C194.285 264.511 227.882 231.859 238.065 247.73C248.249 263.602 235.29 286.868 212.012 298.084C188.733 309.3 168.754 297.961 189.007 271.426Z" fill="#345870"/>
<path d="M239.328 260.159C235.95 267.937 230.376 274.498 224.215 280.221C220.971 283.236 217.512 286.008 213.973 288.668C210.568 291.227 207.129 293.778 203.593 296.154C200.058 298.531 196.267 300.461 191.929 300.627C190.974 300.663 191.083 301.994 191.982 302.069C195.906 302.395 199.672 300.598 202.925 298.578C206.54 296.333 209.956 293.718 213.375 291.188C220.521 285.901 227.484 280.221 232.854 273.072C235.777 269.18 238.168 264.998 239.835 260.42C239.957 260.086 239.478 259.814 239.328 260.159Z" fill="#3A6885"/>
<path d="M199.407 260.587C193.311 265.243 187.958 271.03 184.247 277.783C183.198 279.692 182.264 281.662 181.441 283.679C181.035 284.674 182.567 285.365 182.969 284.363C185.773 277.373 189.874 270.915 195.047 265.442C196.517 263.885 198.071 262.393 199.723 261.03C199.992 260.809 199.688 260.373 199.407 260.587Z" fill="#3A6885"/>
<path d="M138.767 317.173L128.939 291.867C132.388 290.845 135.369 290.547 135.369 290.547L148.141 314.78C140.571 317.779 138.767 317.173 138.767 317.173Z" fill="white"/>
<path d="M145.15 312.933C146.076 313.662 147.07 314.287 148.137 314.791C149.518 314.241 151.314 313.464 153.522 312.525C155.573 311.65 157.983 310.607 160.726 309.438C163.699 308.169 167.075 306.746 170.84 305.205C170.928 300.575 170.34 295.454 168.867 291.024L168.858 291.023C161.25 292.532 149.109 290.7 140.362 290.386C138.109 290.299 136.336 290.33 135.372 290.551C134.349 291.802 136.743 306.346 145.15 312.933Z" fill="#3A6885"/>
<path d="M183.328 286.158C184.454 285.631 185.651 285.057 186.943 284.401C185.652 285.056 184.453 285.64 183.328 286.158Z" fill="#E0954A"/>
<path d="M194.733 280.332L194.732 280.342C194.31 280.567 193.897 280.785 193.494 281.004C193.9 280.776 194.311 280.558 194.733 280.332Z" fill="#E0954A"/>
<path d="M168.866 291.024C170.339 295.454 170.927 300.575 170.839 305.205C177.275 302.561 185.658 301.78 194.173 298.62L194.735 280.343C194.313 280.569 193.901 280.786 193.498 281.006C192.683 281.442 191.89 281.854 191.137 282.252C190.392 282.651 189.67 283.025 188.968 283.383C188.968 283.383 188.968 283.383 188.96 283.382C188.267 283.74 187.596 284.084 186.955 284.403C186.946 284.401 186.946 284.401 186.946 284.401C185.654 285.057 184.455 285.64 183.33 286.158C181.357 287.081 179.624 287.819 177.999 288.44C177.547 288.615 177.094 288.781 176.653 288.939C176.428 289.012 176.202 289.095 175.978 289.16C175.546 289.319 175.117 289.45 174.688 289.582C174.473 289.648 174.259 289.713 174.035 289.778C173.617 289.901 173.198 290.024 172.772 290.137C171.493 290.467 170.22 290.76 168.866 291.024Z" fill="#F2C7C4"/>
<path d="M194.171 298.618L194.733 280.342L194.734 280.332L194.743 280.333L194.171 298.618Z" fill="#F2C7C4"/>
<path d="M153.418 312.583C155.532 311.678 158.01 310.608 160.828 309.41C158.529 308.633 154.409 309.507 153.418 312.583Z" fill="white"/>
<path d="M135.366 290.552C133.163 293.792 135.654 307.939 145.143 312.934C148.562 302.934 144.763 289.992 135.366 290.552Z" fill="white"/>
<path d="M168.237 284.674C169.194 284.748 169.872 285.509 170.081 286.507C170.539 288.692 168.942 291.404 167.644 293.094C166.354 294.775 164.779 296.094 163.015 296.975C164.438 297.046 165.816 297.377 167.097 298.023C168.949 298.957 170.761 300.517 171.674 302.562C172.496 304.402 172.197 307.314 170.055 308.22C167.928 309.119 165.863 307.2 164.549 305.788C163.012 304.136 161.612 301.864 161.039 299.43C161.165 301.043 161.108 302.689 160.925 304.328C160.896 304.588 160.561 304.567 160.568 304.315C160.622 302.485 160.464 300.686 160.2 298.915C160.07 298.042 159.903 297.179 159.685 296.335C159.478 295.534 159.088 294.709 158.998 293.872C158.955 293.465 159.471 293.135 159.7 293.48C160.08 294.055 160.254 294.852 160.416 295.579C160.743 291.823 162.832 287.882 165.684 285.686C166.43 285.113 167.349 284.606 168.237 284.674ZM164.167 303.721C165.238 305.225 166.827 307.104 168.684 307.398C169.615 307.546 170.504 307.078 170.944 306.071C171.408 305.007 171.223 303.864 170.768 302.936C169.913 301.188 168.34 299.869 166.731 299.027C165.164 298.206 163.397 297.819 161.599 297.841C161.604 297.853 161.612 297.86 161.616 297.874C162.279 299.989 162.917 301.965 164.167 303.721ZM165.828 286.737C164.445 287.965 163.304 289.551 162.518 291.288C161.725 293.044 161.336 294.922 161.181 296.806C161.208 296.79 161.231 296.768 161.262 296.757C163.058 296.083 164.742 294.894 166.12 293.396C167.421 291.98 168.653 290.052 169.087 288.118C169.312 287.114 169.13 285.769 168.051 285.675C167.261 285.605 166.449 286.185 165.828 286.737Z" fill="white"/>
<path d="M156.836 294.971C157.91 298.287 157.838 302.166 156.911 305.716C156.838 305.997 156.407 305.919 156.467 305.632C156.829 303.902 156.988 302.131 156.94 300.398C156.891 298.642 156.579 296.998 156.15 295.354C156.11 295.199 156.119 294.974 156.27 294.86C156.328 294.816 156.376 294.779 156.444 294.763C156.599 294.725 156.782 294.806 156.836 294.971Z" fill="white"/>
<path d="M152.458 294.909C153.881 298.088 154.532 301.849 154.593 305.503C154.6 305.928 154.011 306.098 153.982 305.658C153.864 303.875 153.615 302.106 153.248 300.391C152.871 298.631 152.295 296.99 151.699 295.332C151.509 294.806 152.233 294.408 152.458 294.909Z" fill="white"/>
<path d="M148.602 295.017C148.641 295.025 148.681 295.033 148.721 295.041C148.859 295.069 148.926 295.221 148.957 295.355C149.167 296.254 149.475 297.112 149.673 298.019C149.871 298.923 150.028 299.842 150.148 300.77C150.384 302.6 150.454 304.446 150.357 306.327C150.338 306.693 149.771 306.762 149.77 306.391C149.762 304.566 149.651 302.738 149.401 300.959C149.281 300.099 149.127 299.247 148.942 298.409C148.738 297.486 148.553 296.514 148.21 295.655C148.156 295.519 148.18 295.351 148.263 295.221C148.284 295.189 148.305 295.158 148.324 295.126C148.394 295.018 148.501 294.996 148.602 295.017Z" fill="white"/>
<path d="M194.933 300.363L183.107 303.209L177.578 286.508L197.462 274.885L194.933 300.363Z" fill="#345870"/>
<path d="M136.37 258.36C144.762 260.654 187.642 279.529 176.756 294.928C165.871 310.326 139.441 307.055 120.304 289.692C101.166 272.329 104.172 249.554 136.37 258.36Z" fill="#345870"/>
<path d="M215.337 320.082L226.061 295.143C222.65 293.997 219.682 293.594 219.682 293.594L206.056 317.357C213.514 320.624 215.337 320.082 215.337 320.082Z" fill="white"/>
<path d="M186.191 292.877C184.561 297.252 183.791 302.348 183.713 306.978C187.422 308.652 190.745 310.195 193.67 311.569C196.371 312.835 198.742 313.963 200.76 314.911C202.934 315.927 204.7 316.768 206.061 317.367C207.145 316.901 208.162 316.312 209.112 315.617C217.748 309.334 220.659 294.884 219.68 293.597C218.725 293.342 216.954 293.247 214.699 293.254C205.948 293.257 193.749 294.655 186.2 292.876L186.191 292.877Z" fill="#3A6885"/>
<path d="M171.91 287.499C170.803 286.932 169.627 286.316 168.359 285.615C169.627 286.315 170.804 286.942 171.91 287.499Z" fill="#E0954A"/>
<path d="M160.718 281.272L160.719 281.281C161.133 281.522 161.537 281.755 161.932 281.987C161.537 281.745 161.132 281.513 160.718 281.272Z" fill="#E0954A"/>
<path d="M160.63 299.568C169.027 303.028 177.377 304.107 183.714 306.979C183.791 302.349 184.561 297.253 186.191 292.877C184.848 292.565 183.586 292.228 182.32 291.853C181.898 291.725 181.484 291.586 181.071 291.448C180.85 291.375 180.638 291.303 180.426 291.229C180.002 291.083 179.578 290.937 179.152 290.762C178.931 290.689 178.708 290.599 178.485 290.517C178.049 290.343 177.604 290.161 177.157 289.971C175.555 289.292 173.848 288.492 171.91 287.5C170.805 286.942 169.627 286.317 168.359 285.616C168.359 285.616 168.351 285.626 168.349 285.616C167.721 285.275 167.062 284.908 166.382 284.524C166.373 284.525 166.373 284.525 166.373 284.525C165.685 284.143 164.977 283.743 164.247 283.318C163.508 282.893 162.731 282.454 161.932 281.988C161.537 281.755 161.133 281.523 160.719 281.282L160.63 299.568Z" fill="#F2C7C4"/>
<path d="M160.63 299.567L160.719 281.281L160.718 281.272L160.708 281.273L160.63 299.567Z" fill="#F2C7C4"/>
<path d="M200.859 314.973C198.778 313.993 196.341 312.836 193.566 311.538C195.892 310.844 199.979 311.863 200.859 314.973Z" fill="white"/>
<path d="M219.685 293.598C221.771 296.915 218.778 310.964 209.118 315.618C206.056 305.503 210.313 292.704 219.685 293.598Z" fill="white"/>
<path d="M189.559 287.658C192.331 289.954 194.278 293.967 194.471 297.731C194.659 297.011 194.862 296.22 195.262 295.659C195.502 295.322 196.007 295.671 195.95 296.076C195.831 296.909 195.411 297.72 195.175 298.514C194.928 299.349 194.73 300.206 194.569 301.074C194.242 302.835 194.021 304.627 194.009 306.458C194.007 306.709 193.671 306.719 193.651 306.457C193.527 304.813 193.528 303.166 193.712 301.558C193.053 303.97 191.572 306.191 189.978 307.786C188.614 309.151 186.482 310.996 184.388 310.022C182.28 309.04 182.084 306.119 182.972 304.309C183.957 302.298 185.823 300.804 187.708 299.936C189.011 299.336 190.4 299.054 191.825 299.034C190.094 298.092 188.566 296.716 187.336 294.991C186.099 293.256 184.6 290.488 185.136 288.322C185.38 287.332 186.085 286.595 187.044 286.556C187.934 286.518 188.834 287.057 189.559 287.658ZM193.191 299.981C193.196 299.968 193.204 299.961 193.21 299.95C191.414 299.862 189.634 300.187 188.039 300.951C186.402 301.735 184.782 302.997 183.864 304.714C183.378 305.626 183.151 306.761 183.577 307.841C183.981 308.863 184.852 309.361 185.789 309.247C187.655 309.02 189.309 307.199 190.434 305.733C191.745 304.023 192.453 302.072 193.191 299.981ZM187.194 287.56C186.112 287.615 185.882 288.954 186.071 289.965C186.436 291.914 187.599 293.885 188.849 295.344C190.172 296.891 191.814 298.14 193.584 298.876C193.615 298.89 193.638 298.912 193.664 298.929C193.575 297.041 193.254 295.15 192.524 293.367C191.801 291.603 190.718 289.977 189.379 288.701C188.777 288.128 187.986 287.519 187.194 287.56Z" fill="white"/>
<path d="M198.072 297.251C196.88 300.527 196.813 304.406 197.614 307.987C197.678 308.271 198.111 308.208 198.061 307.919C197.761 306.177 197.665 304.401 197.775 302.672C197.886 300.919 198.257 299.287 198.744 297.659C198.79 297.504 198.788 297.279 198.642 297.161C198.585 297.115 198.539 297.077 198.471 297.057C198.317 297.013 198.131 297.088 198.072 297.251Z" fill="white"/>
<path d="M202.449 297.345C200.914 300.472 200.129 304.207 199.938 307.856C199.916 308.281 200.498 308.471 200.543 308.032C200.724 306.255 201.036 304.497 201.464 302.795C201.903 301.05 202.538 299.431 203.193 297.795C203.401 297.276 202.692 296.851 202.449 297.345Z" fill="white"/>
<path d="M206.298 297.59C206.258 297.596 206.218 297.603 206.178 297.61C206.039 297.632 205.967 297.783 205.931 297.915C205.689 298.806 205.35 299.653 205.121 300.551C204.891 301.448 204.701 302.361 204.549 303.284C204.247 305.105 204.111 306.947 204.141 308.83C204.147 309.196 204.712 309.286 204.726 308.915C204.798 307.091 204.974 305.268 205.287 303.499C205.438 302.643 205.621 301.798 205.837 300.966C206.074 300.052 206.293 299.087 206.667 298.24C206.727 298.106 206.708 297.938 206.629 297.805C206.61 297.772 206.59 297.74 206.571 297.708C206.505 297.599 206.399 297.573 206.298 297.59Z" fill="white"/>
<path d="M160.472 278.651C160.936 278.792 182.473 290.048 182.473 290.048L176.253 305.786L155.362 301.341L160.472 278.651Z" fill="#345870"/>
<path d="M182.045 289.898C179.46 288.381 176.738 287.138 173.974 285.987C173.988 285.627 173.991 285.267 173.973 284.906C173.796 281.471 172.233 278.184 169.808 275.766C169.584 275.543 169.233 275.877 169.452 276.106C171.719 278.48 172.919 281.698 172.798 284.975C172.746 286.413 172.456 287.85 171.92 289.187C171.661 289.831 171.356 290.457 171.005 291.054C170.621 291.705 170.018 292.303 169.766 293.013C169.552 293.614 170.32 294.213 170.856 293.876C171.544 293.443 171.987 292.573 172.368 291.87C172.762 291.142 173.1 290.374 173.345 289.583C173.584 288.813 173.761 288.022 173.869 287.223C176.372 288.404 178.784 289.773 181.16 291.189C179.736 295.51 178.064 299.754 176.204 303.905C173.21 302.486 169.769 301.666 166.454 301.838C166.887 301.358 167.277 300.841 167.595 300.278C168.315 299.006 168.659 297.637 168.783 296.189C168.806 295.923 168.361 295.854 168.313 296.122C168.083 297.408 167.445 298.633 166.646 299.658C166.355 300.031 166.02 300.372 165.672 300.697C165.581 300.663 165.482 300.637 165.364 300.639C157.02 300.738 148.72 299.103 140.979 296.007C133.286 292.929 126.145 288.538 120.045 282.923C116.593 279.745 113.388 276.208 110.742 272.326C110.533 272.019 110.025 272.289 110.23 272.607C112.534 276.166 115.105 279.53 118.069 282.567C121.041 285.611 124.334 288.352 127.832 290.77C134.815 295.598 142.721 299.019 151.016 300.824C155.134 301.721 159.34 302.221 163.553 302.294C163.369 302.53 163.317 302.85 163.473 303.135C163.676 303.505 164.148 303.633 164.515 303.439C164.816 303.28 165.108 303.079 165.388 302.859C165.479 303.046 165.657 303.187 165.944 303.185C167.736 303.172 169.471 303.255 171.226 303.651C172.958 304.042 174.617 304.657 176.19 305.479C176.504 305.642 177.004 305.602 177.172 305.233C179.276 300.621 180.961 295.854 182.283 290.962C182.492 290.626 182.484 290.156 182.045 289.898Z" fill="#3A6885"/>
<path d="M203.977 217.423C200.542 217.036 197.079 217.661 193.636 217.868C190.24 218.072 186.838 218.167 183.437 218.154C176.601 218.127 169.763 217.648 162.978 216.822C159.121 216.352 155.254 215.865 151.383 215.545C150.06 215.435 150.138 217.324 151.196 217.683C157.768 219.914 164.8 220.816 171.694 221.346C178.603 221.878 185.546 221.961 192.465 221.592C194.352 221.491 196.238 221.357 198.12 221.189C200.187 221.005 202.135 220.817 204.086 220.085C205.25 219.649 205.46 217.59 203.977 217.423Z" fill="#EBF4FA"/>
<path d="M204.957 225.799C197.749 226.694 190.595 227.803 183.329 228.224C176.147 228.64 168.938 228.548 161.762 228.127C157.633 227.886 153.494 227.784 149.394 227.245C148.183 227.086 147.78 228.809 149.002 229.053C152.576 229.765 156.134 230.637 159.756 231.096C163.47 231.568 167.209 231.857 170.955 231.982C178.34 232.23 185.77 231.993 193.114 231.142C197.311 230.655 201.477 230.052 205.559 228.988C207.403 228.51 206.89 225.56 204.957 225.799Z" fill="#EBF4FA"/>
<path d="M150.913 214.999C151.04 215.314 150.945 215.605 150.764 215.826C150.756 215.889 150.756 215.952 150.748 216.014C150.552 218.792 150.363 221.579 150.135 224.357C150.017 225.71 149.906 227.072 149.788 228.434C149.686 229.694 149.655 231 149.277 232.22L147.545 231.622C147.482 230.559 147.616 229.505 147.71 228.434C147.837 227.01 147.962 225.585 148.088 224.16C148.325 221.445 148.608 218.729 148.883 216.014C148.899 215.865 148.915 215.716 148.93 215.566C148.466 214.881 148.127 214.086 147.812 213.339C147.458 212.489 147.136 211.623 146.852 210.741C146.278 208.963 145.884 207.121 145.632 205.263C145.585 204.902 145.727 204.524 146.129 204.429C146.467 204.342 146.908 204.547 146.97 204.917C147.262 206.712 147.742 208.458 148.427 210.143C148.687 210.781 148.993 211.403 149.308 212.016C149.773 207.782 150.292 203.555 150.773 199.321C150.836 198.723 151.764 198.691 151.733 199.321C151.426 204.484 151.181 209.655 150.828 214.818C150.858 214.881 150.89 214.936 150.913 214.999Z" fill="#5186C7"/>
<path d="M208.991 209.065C208.574 210.836 208.204 212.614 207.779 214.385C207.566 215.259 207.362 216.125 207.142 216.99C206.969 217.714 206.898 218.706 206.386 219.288C206.56 220.988 206.74 222.688 206.945 224.381C207.126 225.947 207.44 227.522 207.653 229.095L205.497 229.662C205.197 227.914 205.08 226.097 204.891 224.381C204.639 222.036 204.489 219.69 204.442 217.329C204.34 212.465 204.387 207.656 204.749 202.807C204.796 202.154 205.788 202.139 205.772 202.807C205.67 206.805 205.717 210.867 206 214.873C206.087 214.581 206.174 214.283 206.268 213.991C206.795 212.244 207.386 210.52 207.921 208.781C208.133 208.104 209.157 208.372 208.991 209.065Z" fill="#5186C7"/>
<path d="M224.787 224.585L207.653 229.095L205.724 229.598L204.89 224.38L223.394 217.966C224.284 221.917 224.787 224.585 224.787 224.585Z" fill="#5186C7"/>
<path d="M156.909 174.322L162.163 175.59C164.91 176.253 167.675 174.563 168.337 171.816L169.912 165.288C170.575 162.541 168.884 159.777 166.138 159.115L160.884 157.847C158.136 157.184 155.372 158.874 154.71 161.621L153.136 168.149C152.472 170.895 154.162 173.66 156.909 174.322Z" fill="white"/>
<path d="M163.482 175.398C165.608 175.398 167.443 173.952 167.943 171.881L169.591 165.049C170.185 162.587 168.665 160.1 166.203 159.507L164.274 159.041C163.919 158.955 163.555 158.912 163.192 158.912C161.066 158.912 159.231 160.359 158.731 162.429L157.084 169.261C156.795 170.454 156.989 171.687 157.629 172.734C158.269 173.781 159.278 174.515 160.471 174.803L162.4 175.269C162.756 175.355 163.12 175.398 163.482 175.398Z" fill="#D9DADE"/>
<path d="M163.192 159.28C161.235 159.28 159.547 160.611 159.087 162.517L157.439 169.348C156.893 171.614 158.292 173.901 160.557 174.448L162.486 174.913C162.813 174.993 163.148 175.032 163.481 175.032C165.438 175.032 167.126 173.702 167.586 171.796L169.233 164.964C169.498 163.867 169.319 162.732 168.731 161.769C168.142 160.806 167.213 160.129 166.115 159.865L164.186 159.4C163.86 159.32 163.525 159.28 163.192 159.28ZM163.193 158.546C163.578 158.546 163.969 158.591 164.36 158.685L166.289 159.151C168.951 159.793 170.59 162.473 169.948 165.136L168.3 171.968C167.751 174.24 165.72 175.766 163.482 175.766C163.096 175.766 162.705 175.721 162.314 175.627L160.385 175.161C157.722 174.519 156.084 171.839 156.726 169.176L158.374 162.344C158.922 160.072 160.954 158.545 163.193 158.546Z" fill="#5186C7"/>
<path d="M196.664 173.843C200.389 169.694 202.664 163.159 202.664 163.159C204.727 163.758 206.866 161.739 205.235 159.451C208.849 159.377 203.149 147.677 195.646 150.144L189.588 171.67L196.664 173.843Z" fill="#345870"/>
<path d="M166.332 145.566C159.981 153.494 160.837 164.345 160.837 164.345L171.202 148.392L166.332 145.566Z" fill="#345870"/>
<path d="M168.138 172.332L167.959 179.685L167.75 188.143L167.537 192.566C167.3 197.449 170.906 201.672 175.765 202.206C180.662 202.743 185.121 199.348 185.905 194.484L190.076 168.606L168.138 172.332Z" fill="#F2C7C4"/>
<path d="M167.91 178.127L167.697 189.215C177.067 190.153 183.498 183.368 185.207 178.263C181.18 176.905 167.91 178.127 167.91 178.127Z" fill="#345870"/>
<path d="M194.828 171.735C196.766 171.537 198.926 172.323 199.811 174.059C200.549 175.505 200.27 177.271 199.662 178.776C198.879 180.717 197.542 182.471 195.742 183.539C193.942 184.608 191.661 184.93 189.706 184.181C187.751 183.433 186.221 181.546 186.109 179.456C185.894 175.445 191.344 172.091 194.828 171.735Z" fill="#F2C7C4"/>
<path d="M190.624 178.088C192.51 176.778 194.496 176.855 196.627 177.407C196.942 177.489 196.872 178.029 196.535 177.985C194.789 177.758 192.76 178.761 191.514 179.675C191.337 179.805 191.011 179.813 190.812 179.754C190.602 179.691 190.376 179.525 190.275 179.326C190.036 178.85 190.205 178.379 190.624 178.088Z" fill="#345870"/>
<path d="M168.153 149.719C170.074 148.187 172.474 147.505 175.027 147.456C181.539 147.317 189.065 151.305 192.228 156.016C196.852 162.899 195.377 171.13 190.762 177.271C188.654 180.103 185.873 182.497 182.717 184.101C177.19 186.922 170.067 187.532 165.071 183.851C161.463 181.202 159.515 176.68 159.24 172.204C158.771 164.639 162.058 154.589 168.153 149.719Z" fill="#F2C7C4"/>
<path d="M165.261 163.06C164.859 163.919 165.032 164.878 165.646 165.201C166.26 165.524 167.085 165.09 167.487 164.232C167.889 163.373 167.717 162.414 167.102 162.091C166.487 161.767 165.664 162.201 165.261 163.06Z" fill="#345870"/>
<path d="M174.832 167.157C174.43 168.015 174.601 168.974 175.216 169.298C175.831 169.621 176.655 169.187 177.057 168.328C177.459 167.469 177.287 166.511 176.673 166.187C176.058 165.864 175.234 166.298 174.832 167.157Z" fill="#345870"/>
<path d="M167.067 167.138C168.631 165.313 170.279 163.583 171.951 161.86C172.113 161.693 172.393 161.902 172.24 162.089C170.996 163.599 169.749 165.081 168.437 166.535C167.803 167.239 167.004 167.957 166.667 168.864C166.385 169.622 166.694 170.367 167.11 170.997C167.218 171.16 167.096 171.41 166.884 171.37C166.151 171.232 165.749 170.419 165.778 169.725C165.819 168.728 166.443 167.866 167.067 167.138Z" fill="#345870"/>
<path d="M164.773 153.943C165.705 152.655 169.819 154.308 170.019 155.894C170.28 157.957 163.169 156.159 164.773 153.943Z" fill="#345870"/>
<path d="M179.297 160.398C180.525 158.999 185.079 161.327 185.142 163.196C185.252 166.445 177.791 162.113 179.297 160.398Z" fill="#345870"/>
<path d="M172.66 174.562C172.595 174.13 168.898 173.807 168.477 174.235C168.209 174.507 168.868 176.097 170.451 176.194C171.758 176.275 172.735 175.064 172.66 174.562Z" fill="white"/>
<path d="M190.407 156.019C186.744 161.765 185.914 174.852 190.371 173.294C194.828 171.736 196.428 171.794 196.428 171.794C211.868 156.705 200.662 144.354 190.407 156.019Z" fill="#345870"/>
<path d="M189.674 157.51C186.41 149.001 181.993 147.543 172.411 151.994C169.581 153.31 161.833 153.031 161.424 149.792C161.155 147.662 163.685 147.003 163.685 147.003C158.718 145.545 160.871 140.967 164.742 143.105C158.322 137.662 163.339 133.241 167.438 136.748C170.596 139.45 173.1 140.595 177.574 139.418C184.232 137.667 195.639 140.643 196.552 151.652L189.674 157.51Z" fill="#345870"/>
<path d="M182.323 171.725L161.032 166.388C156.851 165.335 154.365 160.892 155.48 156.466C156.595 152.04 160.889 149.306 165.071 150.359L186.361 155.697C190.543 156.75 193.028 161.193 191.913 165.619C190.798 170.045 186.504 172.779 182.323 171.725Z" fill="white"/>
<path d="M163.08 150.805C159.94 150.805 157.043 153.261 156.191 156.646C155.177 160.672 157.284 164.687 160.888 165.595L177.228 169.685C177.715 169.808 178.216 169.87 178.716 169.87C181.855 169.87 184.753 167.414 185.605 164.03C186.619 160.003 184.512 155.988 180.908 155.08L164.569 150.99C164.081 150.867 163.58 150.805 163.08 150.805ZM163.08 150.071C163.633 150.071 164.192 150.138 164.747 150.278L181.085 154.368C185.089 155.377 187.431 159.783 186.316 164.209C185.356 168.02 182.145 170.604 178.715 170.604C178.162 170.604 177.603 170.537 177.048 170.397L160.71 166.307C156.706 165.298 154.364 160.892 155.479 156.466C156.439 152.655 159.65 150.071 163.08 150.071Z" fill="#5186C7"/>
<path d="M161.773 163.465L168.571 165.168L170.84 165.736L171.804 165.982L175.775 166.974L175.992 167.03C176.285 167.103 176.584 167.154 176.875 167.176C179.383 167.371 181.741 165.737 182.378 163.213C183.088 160.39 181.383 157.531 178.561 156.82L171.362 155.02L167.397 154.027L166.427 153.781L164.342 153.26C164.282 153.245 164.222 153.235 164.163 153.224C163.924 153.167 163.689 153.133 163.459 153.114C160.95 152.92 158.592 154.554 157.955 157.078C157.245 159.895 158.95 162.755 161.773 163.465Z" fill="#D9DADE"/>
<path d="M166.975 153.097L172.054 166.872L176.629 168.016L171.544 154.24L166.975 153.097Z" fill="white"/>
<path d="M163.247 152.171L168.327 165.933L170.942 166.588L165.857 152.812L163.454 152.213C163.385 152.194 163.316 152.183 163.247 152.171Z" fill="white"/>
<path d="M163.077 159.646L174.892 162.596C175.614 162.777 176.345 162.337 176.526 161.615C176.706 160.892 176.267 160.161 175.545 159.981L163.73 157.031C163.008 156.85 162.277 157.29 162.096 158.012C161.916 158.734 162.355 159.466 163.077 159.646Z" fill="#E47272"/>
<path d="M187.935 183.378L193.068 185.072C195.751 185.958 198.645 184.502 199.531 181.819L201.637 175.442C202.523 172.759 201.067 169.865 198.383 168.979L193.252 167.284C190.568 166.398 187.675 167.854 186.788 170.538L184.682 176.914C183.795 179.597 185.252 182.492 187.935 183.378Z" fill="white"/>
<path d="M196.854 171.917L196.272 171.726C194.515 171.145 192.621 172.099 192.04 173.857L190.877 177.379C190.297 179.136 191.25 181.031 193.007 181.611L193.588 181.804C195.345 182.384 197.24 181.43 197.819 179.673L198.983 176.151C199.564 174.392 198.611 172.497 196.854 171.917Z" fill="#D9DADE"/>
<path d="M195.09 168.888C193.263 168.888 191.651 170.055 191.077 171.791L188.874 178.463C188.143 180.676 189.349 183.071 191.562 183.802L193.446 184.425C193.877 184.567 194.323 184.639 194.772 184.639C196.598 184.639 198.211 183.473 198.784 181.737L200.989 175.063C201.342 173.992 201.258 172.846 200.75 171.838C200.242 170.829 199.372 170.079 198.301 169.725L196.416 169.103C195.985 168.96 195.539 168.888 195.09 168.888ZM195.09 168.154C195.605 168.154 196.13 168.235 196.646 168.406L198.53 169.028C201.132 169.887 202.544 172.693 201.685 175.294L199.481 181.967C198.792 184.053 196.854 185.373 194.772 185.373C194.256 185.373 193.731 185.292 193.215 185.121L191.331 184.499C188.729 183.639 187.317 180.834 188.176 178.233L190.379 171.56C191.069 169.475 193.008 168.154 195.09 168.154Z" fill="#5186C7"/>
<path d="M252.843 239.237C255.19 239.237 255.191 242.879 252.843 242.879C250.497 242.879 250.496 239.237 252.843 239.237Z" fill="#E8F0F8"/>
<path d="M177.795 319.61C180.142 319.61 180.143 323.252 177.795 323.252C175.449 323.252 175.448 319.61 177.795 319.61Z" fill="#E8F0F8"/>
<path d="M90.1597 231.006C92.5063 231.006 92.507 234.647 90.1597 234.647C87.8138 234.647 87.8124 231.006 90.1597 231.006Z" fill="#E8F0F8"/>
<path d="M34.9634 152.569C37.31 152.569 37.3107 156.211 34.9634 156.211C32.6175 156.211 32.6161 152.569 34.9634 152.569Z" fill="#E8F0F8"/>
<path d="M314.817 185.978C317.164 185.978 317.164 189.619 314.817 189.619C312.471 189.619 312.47 185.978 314.817 185.978Z" fill="#E8F0F8"/>
<path d="M344.351 173.145C347.636 173.145 347.638 178.242 344.351 178.242C341.067 178.243 341.065 173.145 344.351 173.145Z" fill="#E8F0F8"/>
<path d="M49.4901 211.879C52.7747 211.879 52.7762 216.977 49.4901 216.977C46.2047 216.977 46.2032 211.879 49.4901 211.879Z" fill="#E8F0F8"/>
<path d="M87.6773 270.745L87.0329 266.874L86.3415 270.736C86.1271 271.935 85.181 272.869 83.9802 273.069L80.1091 273.713L83.9714 274.406C85.17 274.621 86.1044 275.566 86.304 276.767L86.9485 280.638L87.6407 276.776C87.8557 275.577 88.8011 274.643 90.0027 274.443L93.873 273.799L90.0107 273.106C88.8114 272.892 87.877 271.947 87.6773 270.745Z" fill="#E6BC7A"/>
<path d="M292.954 228.202L292.358 224.623L291.718 228.195C291.52 229.303 290.645 230.167 289.535 230.352L285.956 230.947L289.527 231.587C290.636 231.786 291.5 232.66 291.685 233.771L292.281 237.35L292.92 233.778C293.119 232.67 293.993 231.806 295.104 231.621L298.683 231.026L295.111 230.386C294.003 230.187 293.139 229.313 292.954 228.202Z" fill="#E6BC7A"/>
<path opacity="0.4" d="M297.191 99.9621L303.286 96.3193L305.913 100.715C307.152 100.356 308.415 100.173 309.675 100.163L310.926 95.1963L317.811 96.93L316.56 101.898C317.665 102.503 318.691 103.263 319.613 104.166L324.008 101.539L327.651 107.633L323.255 110.26C323.614 111.499 323.797 112.762 323.807 114.023L328.774 115.273L327.041 122.158L322.074 120.908C321.468 122.013 320.708 123.039 319.806 123.96L322.433 128.355L316.338 131.998L313.711 127.602C312.472 127.961 311.208 128.144 309.948 128.154L308.697 133.121L301.812 131.387L303.063 126.42C301.958 125.814 300.932 125.055 300.01 124.152L295.615 126.779L291.972 120.684L296.368 118.057C296.009 116.818 295.826 115.555 295.816 114.295L290.849 113.044L292.582 106.159L297.549 107.41C298.155 106.305 298.915 105.279 299.817 104.357L297.191 99.9621ZM306.978 109.418C304.363 110.98 303.508 114.378 305.071 116.992C306.633 119.607 310.032 120.463 312.645 118.9C315.26 117.337 316.116 113.94 314.553 111.324C312.99 108.71 309.592 107.855 306.978 109.418Z" fill="url(#paint0_linear_43_7989)"/>
<path opacity="0.4" d="M95.4362 39.7338L101.811 38.875L102.43 43.472C103.59 43.6152 104.707 43.9146 105.761 44.3558L108.575 40.6652L113.69 44.5657L110.876 48.2562C111.58 49.1547 112.164 50.1536 112.609 51.2341L117.207 50.6146L118.065 56.9894L113.468 57.6089C113.325 58.7686 113.026 59.8858 112.585 60.939L116.275 63.7532L112.375 68.8684L108.684 66.0543C107.786 66.7582 106.787 67.3425 105.706 67.7873L106.326 72.385L99.9511 73.2438L99.3315 68.6468C98.1718 68.5036 97.0547 68.2049 96.0014 67.7638L93.1872 71.4543L88.072 67.5538L90.8854 63.8633C90.1815 62.9649 89.5972 61.9659 89.1524 60.8855L84.5547 61.505L83.6959 55.1302L88.2937 54.5107C88.4368 53.3509 88.7355 52.2331 89.1767 51.1805L85.4861 48.3664L89.3866 43.2518L93.0764 46.0653C93.9756 45.3606 94.9738 44.7771 96.0542 44.3323L95.4362 39.7338ZM100.013 49.623C96.4645 50.1008 93.9667 53.3774 94.4446 56.9263C94.9224 60.4751 98.199 62.9737 101.747 62.4951C105.296 62.0173 107.795 58.7407 107.316 55.1918C106.839 51.6429 103.562 49.1451 100.013 49.623Z" fill="url(#paint1_linear_43_7989)"/>
<g opacity="0.4">
<path d="M136.174 47.7407V100.3C147.973 98.7574 160.776 97.914 174.147 97.914C194.139 97.914 212.85 99.7938 228.876 103.077V50.5101C212.85 47.2343 194.139 45.3545 174.147 45.3545C160.776 45.3552 147.972 46.1986 136.174 47.7407Z" fill="url(#paint2_linear_43_7989)"/>
</g>
<g opacity="0.4">
<path d="M175.965 51.0654C164.72 51.13 153.727 51.8171 143.227 53.1082C142.664 53.1772 142.249 53.6594 142.253 54.2268C142.253 54.2349 142.253 54.2422 142.253 54.2503C142.257 54.9175 142.832 55.4283 143.494 55.3469C153.911 54.066 164.821 53.3856 175.983 53.3218C176.592 53.3181 177.086 52.83 177.092 52.2215C177.092 52.2134 177.092 52.2054 177.092 52.1973C177.097 51.5726 176.589 51.0618 175.965 51.0654Z" fill="url(#paint3_linear_43_7989)"/>
<path d="M175.915 56.0586C164.689 56.1254 153.713 56.8117 143.228 58.1006C142.667 58.1696 142.249 58.6489 142.249 59.2141C142.249 59.2214 142.249 59.2295 142.249 59.2376C142.249 59.907 142.831 60.4208 143.495 60.3393C153.897 59.0607 164.789 58.381 175.933 58.3149C176.542 58.3113 177.035 57.8231 177.041 57.2147C177.041 57.2066 177.041 57.1985 177.041 57.1904C177.049 56.5658 176.539 56.0549 175.915 56.0586Z" fill="url(#paint4_linear_43_7989)"/>
<path d="M175.881 61.0518C164.668 61.1193 153.705 61.8056 143.233 63.0923C142.672 63.1613 142.253 63.6406 142.254 64.2058C142.254 64.2138 142.254 64.2212 142.254 64.2293C142.255 64.8987 142.836 65.4132 143.5 65.331C153.889 64.0538 164.769 63.3749 175.9 63.3074C176.511 63.3037 177.007 62.8112 177.008 62.1998C177.008 62.1917 177.008 62.1836 177.008 62.1755C177.01 61.5546 176.503 61.0481 175.881 61.0518Z" fill="url(#paint5_linear_43_7989)"/>
<path d="M154.382 66.9627C150.615 67.2643 146.895 67.6372 143.238 68.0864C142.677 68.1554 142.258 68.6347 142.259 69.1999C142.259 69.208 142.259 69.2153 142.259 69.2234C142.26 69.8928 142.841 70.4066 143.505 70.3251C147.135 69.8796 150.825 69.5096 154.564 69.2102C155.139 69.1639 155.587 68.689 155.593 68.1121C155.593 68.1048 155.593 68.0967 155.593 68.0894C155.599 67.4332 155.036 66.9098 154.382 66.9627Z" fill="url(#paint6_linear_43_7989)"/>
</g>
<g opacity="0.4">
<path d="M188.664 74.5674C199.909 74.6327 210.902 75.319 221.402 76.6101C221.965 76.6791 222.379 77.1614 222.376 77.7287C222.376 77.7368 222.376 77.7442 222.376 77.7522C222.371 78.4194 221.797 78.9303 221.135 78.8488C210.718 77.568 199.807 76.8876 188.645 76.8237C188.037 76.8201 187.543 76.3319 187.537 75.7235C187.537 75.7154 187.537 75.7073 187.537 75.6992C187.532 75.0746 188.04 74.5637 188.664 74.5674Z" fill="url(#paint7_linear_43_7989)"/>
<path d="M188.713 79.5615C199.939 79.6283 210.916 80.3146 221.4 81.6035C221.961 81.6725 222.379 82.1518 222.379 82.717C222.379 82.7244 222.379 82.7324 222.379 82.7405C222.379 83.4099 221.797 83.9237 221.133 83.8422C210.732 82.5636 199.839 81.8839 188.695 81.8179C188.087 81.8142 187.594 81.3253 187.587 80.7176C187.587 80.7095 187.587 80.7014 187.587 80.6934C187.58 80.0687 188.089 79.5579 188.713 79.5615Z" fill="url(#paint8_linear_43_7989)"/>
<path d="M188.747 84.5547C199.96 84.6222 210.922 85.3085 221.395 86.5952C221.956 86.6642 222.375 87.1435 222.374 87.7087C222.374 87.7168 222.374 87.7241 222.374 87.7322C222.374 88.4016 221.792 88.9161 221.128 88.8339C210.739 87.5568 199.859 86.8778 188.728 86.8103C188.117 86.8066 187.622 86.3141 187.62 85.7027C187.62 85.6946 187.62 85.6865 187.62 85.6785C187.619 85.0575 188.125 84.5503 188.747 84.5547Z" fill="url(#paint9_linear_43_7989)"/>
<path d="M210.247 90.4645C214.014 90.7662 217.733 91.1391 221.39 91.5883C221.951 91.6573 222.37 92.1366 222.369 92.7018C222.369 92.7091 222.369 92.7172 222.369 92.7252C222.368 93.3947 221.787 93.9085 221.123 93.827C217.493 93.3814 213.803 93.0115 210.064 92.712C209.489 92.6658 209.041 92.1909 209.035 91.614C209.035 91.6066 209.035 91.5993 209.035 91.5912C209.029 90.935 209.592 90.4124 210.247 90.4645Z" fill="url(#paint10_linear_43_7989)"/>
</g>
<path opacity="0.4" d="M58.0596 83.0049V134.757C59.1598 134.862 60.2388 134.974 61.3038 135.093C65.6697 135.548 69.7551 136.039 73.5815 136.571C75.9853 136.894 78.2769 137.237 80.4774 137.595C86.7421 138.604 92.1876 139.711 96.897 140.902C115.839 145.688 122.805 151.848 122.805 158.561V106.802C122.804 96.6771 106.96 87.8126 58.0596 83.0049Z" fill="url(#paint11_linear_43_7989)"/>
<path d="M65.3721 93.9545C65.3721 94.7721 65.996 95.4555 66.8092 95.5384C109.06 99.8404 122.805 107.629 122.805 116.512V113.304C122.805 104.444 109.129 96.6717 67.1271 92.3698C66.189 92.2736 65.3721 93.012 65.3721 93.9545Z" fill="url(#paint12_linear_43_7989)"/>
<path d="M65.3721 100.413C65.3721 101.231 65.996 101.915 66.8092 101.997C109.06 106.299 122.805 114.088 122.805 122.97V119.762C122.805 110.902 109.129 103.13 67.1271 98.8278C66.189 98.7316 65.3721 99.47 65.3721 100.413Z" fill="url(#paint13_linear_43_7989)"/>
<path d="M65.3721 106.872C65.3721 107.69 65.996 108.373 66.8092 108.456C109.06 112.758 122.805 120.546 122.805 129.429V126.221C122.805 117.361 109.129 109.589 67.1271 105.287C66.189 105.191 65.3721 105.93 65.3721 106.872Z" fill="url(#paint14_linear_43_7989)"/>
<path d="M65.3721 113.332C65.3721 114.149 65.996 114.833 66.8092 114.916C109.06 119.217 122.805 127.006 122.805 135.889V132.681C122.805 123.821 109.129 116.05 67.1271 111.747C66.189 111.65 65.3721 112.388 65.3721 113.332Z" fill="url(#paint15_linear_43_7989)"/>
<path d="M65.3721 119.789C65.3721 120.607 65.996 121.291 66.8092 121.373C109.06 125.675 122.805 133.464 122.805 142.347V139.139C122.805 130.279 109.129 122.507 67.1271 118.205C66.189 118.109 65.3721 118.847 65.3721 119.789Z" fill="url(#paint16_linear_43_7989)"/>
<path d="M97.2052 131.273C97.1934 130.263 98.1432 129.516 99.1246 129.758C116.454 134.031 122.805 139.562 122.805 145.598V148.806C122.805 142.685 116.278 137.084 98.3957 132.785C97.708 132.62 97.2147 132.012 97.2059 131.304C97.2052 131.294 97.2052 131.284 97.2052 131.273Z" fill="url(#paint17_linear_43_7989)"/>
<path d="M108.721 122.565V174.324C117.601 169.881 122.803 164.495 122.803 158.69V106.931C122.803 112.73 117.601 118.115 108.721 122.565Z" fill="#9BC3EA"/>
<path d="M165.091 52.913C164.893 53.666 164.648 54.4294 164.35 55.2096C161.653 62.3067 156.031 66.0105 149.967 66.9169C138.717 68.622 125.936 60.7433 127.407 47.1276C127.548 45.8196 127.836 44.5329 128.267 43.2976C129.978 38.2733 133.866 33.986 138.785 31.9514C141.328 30.9054 143.99 30.4048 146.604 30.3975C158.039 30.3747 168.634 39.676 165.091 52.913Z" fill="#5186C7"/>
<path d="M146.603 30.3985C146.552 30.5497 146.507 30.7009 146.47 30.8536C146.063 32.4478 146.138 34.0589 146.764 35.5813C147.316 36.934 148.31 38.0247 149.082 39.2498C149.54 39.9625 150.147 41.0679 149.558 41.857C149.013 42.5836 147.7 43.1774 146.974 43.9386C144.868 46.1406 144.977 49.47 146.738 51.8379C148.67 54.4377 152.131 55.0389 155.169 54.7086C158.118 54.3922 160.878 52.9506 163.859 52.8376C164.253 52.8237 164.675 52.842 165.091 52.9117C168.633 39.6755 158.039 30.3743 146.603 30.3985ZM145.835 59.1823C144.882 58.6744 143.892 58.245 142.92 57.7649C142.559 57.5888 142.333 57.4706 141.906 57.199C141.738 57.0933 141.571 56.981 141.411 56.8614C141.328 56.8012 141.055 56.5524 141.012 56.5333C141.005 56.5252 141.005 56.5252 141.005 56.5252C140.485 55.9923 140.219 55.5284 140.245 54.633C140.282 53.5599 140.768 52.5227 141.159 51.5509C142.035 49.3937 142.931 46.9634 141.843 44.6975C140.755 42.4317 138.183 41.3967 135.776 41.4092C133.109 41.4261 130.795 42.7099 128.265 43.2971C127.835 44.5324 127.547 45.8191 127.405 47.1271C125.934 60.742 138.715 68.6215 149.965 66.9165C150.093 65.9711 150.149 65.011 149.957 64.0722C149.504 61.7865 147.827 60.2363 145.835 59.1823Z" fill="#69A0E1"/>
<path d="M165.297 52.0793C165.234 52.3553 165.162 52.6306 165.09 52.9131C164.892 53.6662 164.647 54.4296 164.349 55.2098C161.652 62.3069 156.03 66.0106 149.966 66.9171C138.716 68.6222 125.935 60.7435 127.406 47.1278C127.547 45.8198 127.835 44.5331 128.266 43.2977C128.721 41.9685 129.329 40.6832 130.075 39.4854C129.988 39.9294 129.922 40.3838 129.87 40.8388C128.399 54.4538 141.18 62.3333 152.43 60.6282C157.522 59.8663 162.3 57.1351 165.297 52.0793Z" fill="#3A6885"/>
<path d="M175.402 35.5483C175.163 36.6831 174.416 37.6578 173.719 38.5643C171.455 41.5392 168.716 44.0833 165.724 46.3183C162.799 48.5049 159.65 50.3869 156.457 52.0963C149.143 56.0122 141.495 59.3299 133.661 62.0567C133.517 62.1044 133.374 62.1595 133.23 62.2072C131.471 62.8186 129.703 63.3955 127.925 63.9387C125.9 64.5597 123.727 65.4397 121.584 65.2812C119.733 65.1395 117.918 63.902 117.576 62.0002C117.223 60.0573 118.504 58.4154 119.795 57.1331C122.144 54.8063 124.655 52.6417 127.349 50.7076C127.418 51.5899 127.556 52.445 127.741 53.2678C125.468 55.1718 123.264 57.2182 121.359 59.4635C120.643 60.3083 119.776 61.6809 121.275 62.2131C122.731 62.7416 124.659 61.8196 126.054 61.4013C127.688 60.8992 129.32 60.3766 130.936 59.8268C132.846 59.1809 134.746 58.4939 136.629 57.7797C143.342 55.2136 149.958 52.2608 156.219 48.7192C159.296 46.9774 162.291 45.0316 165.012 42.7709C167.247 40.919 169.302 38.8513 171.072 36.5179C171.47 35.9894 171.841 35.4712 172.092 34.8782C172.086 34.8789 172.086 34.8789 172.078 34.8796C171.907 34.8591 171.782 34.793 171.532 34.7651C169.983 34.6183 168.075 35.0455 166.484 35.3178C164.719 35.6129 162.961 35.9843 161.224 36.4394C160.354 35.5072 159.364 34.6771 158.3 33.9519C161.629 32.7665 165.07 31.9583 168.61 31.5656C170.481 31.3528 172.783 31.0041 174.351 32.3268C175.281 33.1129 175.652 34.371 175.402 35.5483Z" fill="#5186C7"/>
<path d="M150.493 24.2225C151.026 25.5466 152.572 26.4846 154.097 26.3863C155.623 26.2879 156.981 25.1429 157.187 23.7556C157.433 22.099 155.669 19.7201 153.708 19.7957C151.326 19.8867 149.656 22.1423 150.493 24.2225Z" fill="#E47272"/>
<path d="M127.97 80.4916C129.804 81.8752 132.49 82.011 134.453 80.8183C139.209 77.93 136.979 70.5423 131.665 70.1371C126.142 69.7165 123.628 77.2151 127.97 80.4916Z" fill="white"/>
<path d="M68.8699 75.3297L82.686 79.7946L79.6692 65.519L65.7988 60.9932L68.8699 75.3297Z" fill="#3A6885"/>
<path d="M82.6857 79.7945L93.5144 70.1226L90.4433 55.7861L79.6689 65.5197L82.6857 79.7945Z" fill="#5186C7"/>
<path d="M65.7988 60.9936L79.6692 65.5187L90.4436 55.7859L76.5725 51.2607L65.7988 60.9936Z" fill="white"/>
<path d="M91.9434 83.0128V67.5342" stroke="#5186C7" stroke-width="2" stroke-miterlimit="10"/>
<path d="M91.9434 84.6123V86.8341" stroke="#5186C7" stroke-width="2" stroke-miterlimit="10"/>
<path d="M88.209 79.9396V72.3633" stroke="#5186C7" stroke-width="2" stroke-miterlimit="10"/>
<path opacity="0.4" d="M117.24 160.527V141.596C126.121 146.039 131.323 151.425 131.323 157.23V176.161C131.323 170.362 126.121 164.976 117.24 160.527Z" fill="url(#paint18_linear_43_7989)"/>
<path d="M105.416 175.017C101.93 175.898 98.0391 176.734 93.7129 177.518C93.732 183.825 93.7511 190.132 93.7694 196.439C121.571 191.398 131.323 184.232 131.323 176.289V157.357C131.324 164.071 124.358 170.23 105.416 175.017Z" fill="#9BC3EA"/>
<path opacity="0.4" d="M121.319 150.981C121.319 150.995 121.319 151.009 121.319 151.022C121.327 151.524 121.59 151.986 122.011 152.259C127.948 156.115 131.323 160.509 131.323 165.174V161.498C131.323 157.295 128.587 153.313 123.708 149.748C122.708 149.017 121.299 149.743 121.319 150.981Z" fill="url(#paint19_linear_43_7989)"/>
<path opacity="0.4" d="M121.371 157.255C121.371 157.267 121.371 157.279 121.371 157.291C121.375 157.797 121.639 158.264 122.063 158.54C127.969 162.388 131.323 166.771 131.323 171.422V167.746C131.323 163.558 128.609 159.591 123.766 156.037C122.77 155.307 121.363 156.021 121.371 157.255Z" fill="url(#paint20_linear_43_7989)"/>
<path d="M125.826 153.736C125.826 153.736 136.442 146.032 150.66 139.794L128.746 107.19L109.033 124.793C109.033 124.793 92.2878 133.462 78.413 128.44L76.8555 133.404L97.8442 163.828C97.8442 163.828 114.692 163.592 125.826 153.736Z" fill="#5186C7"/>
<path d="M108.074 123.094L124.201 151.675C124.201 151.675 111.694 162.015 98.5694 159.3L78.8828 126.94C96.7748 130.854 96.9862 117.211 108.074 123.094Z" fill="#F5F9FD"/>
<path d="M108.074 123.094C107.305 113.913 124.202 104.595 124.202 104.595L146.069 137.768C146.069 137.768 132.899 138.373 124.202 151.676L108.074 123.094Z" fill="#F5F9FD"/>
<path d="M108.074 123.095L124.202 151.675" stroke="#5186C7" stroke-miterlimit="10"/>
<path d="M96.2407 133.207C95.4568 131.743 94.6979 130.246 93.7738 128.867C93.671 128.713 93.4479 128.567 93.2519 128.646C91.3956 129.398 89.4432 129.871 87.5304 130.464C87.3314 130.421 87.1142 130.515 86.9821 130.678C86.6921 130.925 86.7824 131.418 87.087 131.566C87.5406 132.444 87.9942 133.322 88.4479 134.2C88.6938 134.675 88.9316 135.159 89.198 135.624C89.4131 135.999 89.7008 136.352 90.1412 136.45C90.6066 136.554 91.1049 136.339 91.5211 136.156C92.0195 135.936 92.5062 135.69 92.9957 135.452C94.0006 134.963 95.0076 134.482 96.0206 134.01C96.3127 133.872 96.3809 133.469 96.2407 133.207ZM92.9018 134.296C92.4893 134.504 92.076 134.713 91.6635 134.921C91.4448 135.031 91.229 135.145 91.0139 135.263C90.8649 135.343 90.6425 135.51 90.47 135.479C90.1669 135.425 89.9995 134.849 89.885 134.622C89.6736 134.202 89.4527 133.787 89.2354 133.37C88.8802 132.69 88.5242 132.009 88.1682 131.328C89.8102 130.748 91.4338 130.11 93.1132 129.653C93.649 130.882 94.2883 132.07 94.9269 133.251C94.2531 133.602 93.58 133.954 92.9018 134.296Z" fill="#CFE1EF"/>
<path d="M105.433 124.277C102.285 123.273 99.9285 126.44 97.1356 127.142C96.635 127.267 96.8383 128.02 97.3382 127.913C98.7232 127.617 99.902 126.831 101.123 126.154C102.365 125.466 103.722 124.941 105.131 125.428C105.85 125.677 106.165 124.51 105.433 124.277Z" fill="#CFE1EF"/>
<path d="M106.35 127.271C105.707 127.207 105.007 127.307 104.369 127.4C103.706 127.496 103.053 127.662 102.423 127.891C101.159 128.352 100.01 129.039 99.014 129.945C98.5501 130.367 99.2268 131.02 99.6958 130.627C100.607 129.862 101.676 129.274 102.81 128.914C103.365 128.738 103.938 128.606 104.516 128.537C105.137 128.463 105.73 128.517 106.35 128.531C106.691 128.538 106.98 128.236 106.98 127.901C106.98 127.534 106.69 127.306 106.35 127.271Z" fill="#CFE1EF"/>
<path d="M108.563 131.468C102.393 132.069 97.8382 136.857 91.9522 138.302C91.3408 138.452 91.5904 139.365 92.1981 139.241C95.1253 138.642 97.7508 137.202 100.364 135.815C102.937 134.449 105.61 133.077 108.563 132.837C109.441 132.766 109.438 131.382 108.563 131.468Z" fill="#CFE1EF"/>
<path d="M99.5341 138.81C99.0438 138.926 98.6004 139.181 98.1417 139.381C97.7387 139.558 97.3269 139.714 96.9086 139.85C96.0241 140.136 95.0963 140.346 94.1722 140.458C93.905 140.49 93.6738 140.664 93.6738 140.957C93.6738 141.217 93.9021 141.466 94.1722 141.455C95.2013 141.412 96.2105 141.25 97.1985 140.957C97.6859 140.813 98.1622 140.639 98.629 140.439C99.1216 140.228 99.617 140.005 99.9972 139.618C100.336 139.271 99.9972 138.7 99.5341 138.81Z" fill="#CFE1EF"/>
<path d="M116.514 143.379C115.775 140.854 114.041 137.785 111.019 137.914C109.272 137.989 107.752 138.999 106.34 139.93C104.868 140.899 103.345 141.788 101.771 142.583C99.9645 143.496 98.117 144.34 96.2255 145.063C95.9399 145.172 95.8709 145.464 95.9531 145.683C95.5289 145.67 95.1215 146.067 95.3916 146.561C96.119 147.893 96.9962 149.155 97.8094 150.437C97.9893 150.72 98.3651 150.855 98.6697 150.674C101.322 149.1 104.104 147.75 106.99 146.662C108.429 146.119 109.891 145.638 111.371 145.22C112.845 144.804 114.363 144.384 115.886 144.191C116.282 144.142 116.643 143.821 116.514 143.379ZM111.062 144.046C109.552 144.469 108.06 144.957 106.592 145.509C103.825 146.55 101.148 147.817 98.5794 149.282C97.8946 148.161 97.2237 147.02 96.4603 145.955C96.4523 145.944 96.442 145.94 96.4339 145.929C96.4405 145.928 96.4464 145.929 96.453 145.927C99.5953 145.002 102.58 143.692 105.408 142.039C107.593 140.761 110.891 137.757 113.31 140.16C114.133 140.977 114.57 142.032 114.999 143.084C113.684 143.399 112.364 143.681 111.062 144.046Z" fill="#CFE1EF"/>
<path d="M115.638 145.36C114.306 145.735 113 146.322 111.699 146.798C110.386 147.278 109.073 147.758 107.76 148.238C105.132 149.2 102.515 150.19 99.9058 151.202C99.2892 151.442 99.5255 152.439 100.171 152.216C102.845 151.295 105.51 150.351 108.165 149.378C109.477 148.896 110.79 148.415 112.103 147.934C113.422 147.45 114.81 147.046 116.088 146.464C116.714 146.18 116.283 145.178 115.638 145.36Z" fill="#CFE1EF"/>
<path d="M107.957 151.421C107.629 151.394 107.315 151.577 107.028 151.72C106.792 151.838 106.554 151.952 106.313 152.061C105.83 152.28 105.339 152.481 104.839 152.659C103.789 153.033 102.71 153.317 101.614 153.513C101.321 153.565 101.15 153.913 101.221 154.184C101.304 154.5 101.597 154.617 101.893 154.577C103.034 154.418 104.16 154.166 105.258 153.814C105.814 153.635 106.359 153.43 106.897 153.204C107.412 152.987 108.152 152.769 108.443 152.257C108.664 151.868 108.366 151.454 107.957 151.421Z" fill="#CFE1EF"/>
<path d="M121.938 110.553C121.297 110.57 120.618 111.02 120.06 111.313C119.498 111.608 118.95 111.928 118.416 112.271C117.284 113.001 116.213 113.833 115.227 114.751C113.275 116.568 111.668 118.755 110.495 121.148C110.212 121.727 111.073 122.229 111.373 121.647C112.543 119.376 114.105 117.349 115.982 115.618C116.917 114.757 117.927 113.981 119.001 113.302C119.516 112.977 120.043 112.674 120.583 112.394C121.133 112.109 121.878 111.912 122.321 111.478C122.654 111.157 122.41 110.54 121.938 110.553Z" fill="#CFE1EF"/>
<path d="M116.185 118.854C116.059 118.728 115.823 118.679 115.668 118.784C115.272 119.054 114.979 119.392 114.671 119.755C114.367 120.113 114.077 120.481 113.782 120.846C113.202 121.567 112.621 122.288 112.041 123.008C111.875 123.213 111.84 123.498 112.041 123.699C112.217 123.875 112.559 123.9 112.732 123.699C113.334 123.001 113.936 122.301 114.538 121.602C114.835 121.258 115.136 120.917 115.424 120.565C115.733 120.187 116.056 119.822 116.256 119.372C116.334 119.195 116.329 118.998 116.185 118.854Z" fill="#CFE1EF"/>
<path d="M130.954 120.747C130.186 119.374 129.281 117.872 127.77 117.227C126.048 116.492 124.247 117.209 122.714 118.058C121.153 118.923 119.682 119.957 118.319 121.107C116.938 122.273 115.586 123.612 114.586 125.127C114.562 125.163 114.553 125.199 114.542 125.235C114.105 125.223 113.658 125.717 113.95 126.166C114.898 127.625 116.079 128.962 117.142 130.34C117.365 130.629 117.81 130.539 118.046 130.34C121.973 127.014 126.222 124.086 130.723 121.589C131.015 121.426 131.116 121.037 130.954 120.747ZM115.188 125.718C115.219 125.7 115.251 125.684 115.279 125.656C116.414 124.495 117.497 123.313 118.73 122.251C119.939 121.209 121.243 120.282 122.621 119.477C123.924 118.715 125.63 117.666 127.186 118.269C128.3 118.7 129.009 119.791 129.586 120.823C125.389 123.182 121.416 125.916 117.706 128.984C116.885 127.886 116.083 126.752 115.188 125.718Z" fill="#CFE1EF"/>
<path d="M132.073 123.186C131.645 122.996 131.303 123.199 130.9 123.37C130.549 123.519 130.204 123.68 129.865 123.853C129.168 124.207 128.496 124.611 127.856 125.06C126.575 125.957 125.439 127.015 124.459 128.234C124.084 128.702 124.722 129.374 125.133 128.907C126.093 127.814 127.193 126.831 128.398 126.015C128.998 125.609 129.624 125.242 130.271 124.917C130.595 124.755 130.925 124.602 131.259 124.462C131.609 124.315 132.086 124.24 132.26 123.87C132.368 123.644 132.335 123.302 132.073 123.186Z" fill="#CFE1EF"/>
<path d="M133.734 125.764C133.603 125.592 133.413 125.547 133.206 125.579C133.04 125.604 132.894 125.721 132.753 125.808C132.646 125.875 132.538 125.941 132.431 126.007C132.21 126.146 131.991 126.289 131.771 126.43C131.323 126.718 130.876 127.004 130.442 127.315C130.257 127.447 130.143 127.696 130.278 127.911C130.409 128.119 130.656 128.186 130.874 128.075C131.356 127.83 131.822 127.561 132.29 127.291C132.525 127.157 132.759 127.025 132.991 126.886C133.099 126.821 133.208 126.757 133.316 126.692C133.377 126.655 133.441 126.62 133.501 126.581C133.62 126.506 133.692 126.429 133.774 126.317C133.891 126.16 133.842 125.907 133.734 125.764Z" fill="#CFE1EF"/>
<path d="M134.693 128.991C134.066 129.01 133.406 129.383 132.833 129.626C132.265 129.867 131.705 130.126 131.154 130.403C129.976 130.994 128.839 131.668 127.753 132.413C125.605 133.888 123.677 135.658 122.005 137.655C121.616 138.118 122.268 138.791 122.678 138.328C124.337 136.45 126.231 134.794 128.309 133.393C129.332 132.703 130.399 132.079 131.501 131.524C132.052 131.247 132.612 130.988 133.181 130.746C133.738 130.509 134.481 130.37 134.961 130.006C135.355 129.708 135.295 128.972 134.693 128.991Z" fill="#CFE1EF"/>
<path d="M123.621 130.495C122.967 129.67 121.856 129.358 120.866 129.715C119.663 130.147 118.956 131.271 118.705 132.48C118.665 132.677 118.745 132.829 118.869 132.921C119.211 133.953 120.133 134.654 121.211 134.781C122.262 134.906 123.276 134.349 123.832 133.467C124.424 132.528 124.298 131.349 123.621 130.495ZM122.938 132.118C122.938 132.126 122.934 132.167 122.933 132.192C122.928 132.216 122.922 132.256 122.919 132.264C122.911 132.304 122.9 132.344 122.889 132.384C122.878 132.424 122.865 132.463 122.851 132.502C122.848 132.513 122.848 132.514 122.848 132.515C122.845 132.521 122.841 132.526 122.831 132.543C122.785 132.625 122.744 132.706 122.692 132.784C122.686 132.792 122.663 132.823 122.648 132.842C122.633 132.86 122.614 132.88 122.609 132.886C122.553 132.948 122.494 133.006 122.431 133.061C122.425 133.067 122.402 133.086 122.384 133.102C122.356 133.12 122.29 133.167 122.277 133.175C122.208 133.22 122.136 133.262 122.061 133.299C122.053 133.302 122.023 133.315 122.001 133.326C121.979 133.335 121.946 133.346 121.938 133.349C121.859 133.375 121.779 133.392 121.697 133.411C121.687 133.413 121.69 133.413 121.685 133.415C121.622 133.42 121.559 133.423 121.496 133.422C121.454 133.422 121.412 133.419 121.369 133.417C121.354 133.416 121.352 133.417 121.352 133.418C121.344 133.417 121.342 133.416 121.325 133.412C121.22 133.391 121.12 133.364 121.018 133.334C121.01 133.332 120.992 133.325 120.977 133.319C120.928 133.298 120.88 133.275 120.834 133.251C120.75 133.206 120.667 133.158 120.587 133.106C120.58 133.101 120.557 133.086 120.537 133.072C120.514 133.053 120.461 133.012 120.453 133.004C120.373 132.934 120.301 132.857 120.229 132.777C120.202 132.746 120.174 132.714 120.146 132.682C120.141 132.676 120.092 132.61 120.079 132.594C120.026 132.514 119.977 132.433 119.933 132.348C119.885 132.256 119.82 132.193 119.748 132.145C119.972 131.632 120.311 131.172 120.815 130.9C121.12 130.735 121.474 130.643 121.821 130.695C121.858 130.701 121.947 130.724 122.003 130.741C122.122 130.777 122.086 130.766 122.178 130.815C122.357 130.909 122.371 130.917 122.52 131.069C122.55 131.099 122.576 131.13 122.605 131.16C122.621 131.179 122.624 131.179 122.632 131.188C122.633 131.191 122.63 131.189 122.64 131.202C122.688 131.27 122.732 131.341 122.771 131.414C122.79 131.451 122.809 131.489 122.826 131.526C122.832 131.538 122.831 131.536 122.834 131.541C122.836 131.545 122.834 131.543 122.837 131.549C122.869 131.637 122.895 131.726 122.915 131.818C122.913 131.809 122.926 131.898 122.932 131.928C122.933 131.953 122.935 131.989 122.936 131.996C122.94 132.035 122.94 132.077 122.938 132.118Z" fill="#CFE1EF"/>
<path d="M127.33 137.12C127.182 136.926 126.844 136.808 126.625 136.972C125.605 137.735 124.684 138.634 123.737 139.485C123.535 139.666 123.538 140.035 123.737 140.216C123.961 140.421 124.244 140.401 124.469 140.216C124.944 139.826 125.42 139.435 125.894 139.045C126.369 138.655 126.847 138.271 127.285 137.839C127.481 137.647 127.493 137.334 127.33 137.12Z" fill="#CFE1EF"/>
<path d="M137.847 133.567C136.659 133.958 135.502 134.549 134.398 135.131C133.253 135.734 132.141 136.402 131.074 137.135C128.965 138.584 127.046 140.288 125.336 142.189C124.919 142.654 125.584 143.333 126.028 142.88C127.765 141.106 129.687 139.53 131.754 138.156C132.76 137.487 133.8 136.871 134.873 136.313C136.001 135.727 137.176 135.273 138.33 134.747C138.989 134.446 138.537 133.339 137.847 133.567Z" fill="#CFE1EF"/>
<path opacity="0.4" d="M301.741 61.1504V112.903C300.641 113.007 299.562 113.12 298.496 113.239C294.131 113.695 290.045 114.185 286.219 114.718C283.815 115.04 281.523 115.383 279.323 115.741C273.058 116.75 267.613 117.857 262.904 119.048C243.962 123.835 236.996 129.994 236.996 136.708V84.9481C236.996 74.8226 252.84 65.9574 301.741 61.1504Z" fill="url(#paint21_linear_43_7989)"/>
<path d="M294.429 72.0997C294.429 72.9174 293.805 73.6008 292.991 73.6837C250.74 77.9857 236.996 85.7742 236.996 94.6563V91.4487C236.996 82.5886 250.671 74.8163 292.674 70.5143C293.612 70.4181 294.429 71.1565 294.429 72.0997Z" fill="url(#paint22_linear_43_7989)"/>
<path d="M294.429 78.5586C294.429 79.3763 293.805 80.0604 292.991 80.1426C250.74 84.4445 236.996 92.233 236.996 101.115V97.9076C236.996 89.0475 250.671 81.2759 292.674 76.9732C293.612 76.8777 294.429 77.6161 294.429 78.5586Z" fill="url(#paint23_linear_43_7989)"/>
<path d="M294.429 85.0177C294.429 85.8354 293.805 86.5187 292.991 86.6017C250.74 90.9036 236.996 98.6921 236.996 107.574V104.367C236.996 95.5066 250.671 87.735 292.674 83.4323C293.612 83.3361 294.429 84.0745 294.429 85.0177Z" fill="url(#paint24_linear_43_7989)"/>
<path d="M294.429 91.4759C294.429 92.2936 293.805 92.977 292.991 93.0599C250.74 97.3619 236.996 105.15 236.996 114.033V110.826C236.996 101.966 250.671 94.194 292.674 89.8912C293.612 89.7951 294.429 90.5335 294.429 91.4759Z" fill="url(#paint25_linear_43_7989)"/>
<path d="M294.429 97.9351C294.429 98.7527 293.805 99.4361 292.991 99.519C250.74 103.821 236.996 111.609 236.996 120.492V117.285C236.996 108.425 250.671 100.652 292.674 96.3504C293.612 96.2535 294.429 96.9919 294.429 97.9351Z" fill="url(#paint26_linear_43_7989)"/>
<path d="M262.595 109.417C262.607 108.407 261.657 107.66 260.676 107.902C243.347 112.176 236.996 117.706 236.996 123.744V126.951C236.996 120.83 243.523 115.229 261.405 110.93C262.093 110.765 262.587 110.157 262.595 109.45C262.595 109.439 262.595 109.428 262.595 109.417Z" fill="url(#paint27_linear_43_7989)"/>
<path d="M251.079 100.71V152.47C242.198 148.027 236.996 142.641 236.996 136.836V85.0762C236.997 90.8755 242.199 96.2616 251.079 100.71Z" fill="#9BC3EA"/>
<path d="M231.549 102.122C233.524 98.0615 231.834 93.1689 227.774 91.1936C223.714 89.2182 218.822 90.9082 216.846 94.9681C214.871 99.0281 216.561 103.921 220.621 105.896C224.681 107.871 229.573 106.181 231.549 102.122Z" fill="#345870"/>
<path d="M214.356 101.506C215.655 105.83 213.202 110.389 208.878 111.688C204.554 112.987 199.995 110.534 198.696 106.209C197.398 101.885 199.85 97.3261 204.175 96.0269C208.5 94.7292 213.058 97.1815 214.356 101.506Z" fill="#345870"/>
<path d="M231.891 76.2638L188.67 89.2453C183.894 90.6796 181.185 95.7141 182.619 100.49L183.956 104.94C185.448 109.907 190.684 112.725 195.651 111.233L238.179 98.4593C243.146 96.967 245.963 91.7314 244.472 86.7644L243.135 82.3142C241.701 77.538 236.667 74.8296 231.891 76.2638Z" fill="#345870"/>
<path d="M231.256 72.8849L187.337 86.0757C182.754 87.4519 180.154 92.2838 181.531 96.8669L182.788 101.054C184.165 105.637 188.996 108.237 193.579 106.86L237.498 93.6689C242.081 92.2926 244.681 87.4607 243.304 82.8776L242.047 78.6909C240.671 74.1085 235.839 71.5087 231.256 72.8849Z" fill="#69A0E1"/>
<path d="M212.104 99.8113C213.059 102.99 211.256 106.34 208.078 107.294C204.899 108.249 201.549 106.447 200.595 103.268C199.64 100.09 201.442 96.7395 204.621 95.7853C207.799 94.8297 211.149 96.6324 212.104 99.8113Z" fill="#5186C7"/>
<path d="M228.582 94.8618C229.536 98.04 227.734 101.391 224.555 102.345C221.377 103.3 218.026 101.497 217.072 98.3189C216.118 95.1407 217.92 91.79 221.099 90.8358C224.277 89.8808 227.627 91.6835 228.582 94.8618Z" fill="#5186C7"/>
<path d="M226.529 95.1847C227.136 97.2061 225.99 99.3376 223.968 99.9447C221.947 100.552 219.815 99.4052 219.208 97.3837C218.601 95.3623 219.748 93.2308 221.769 92.6237C223.791 92.016 225.922 93.1625 226.529 95.1847Z" fill="white"/>
<path d="M210.095 100.121C210.702 102.143 209.555 104.274 207.534 104.881C205.512 105.488 203.381 104.342 202.774 102.32C202.167 100.299 203.313 98.1673 205.335 97.5603C207.356 96.9525 209.488 98.099 210.095 100.121Z" fill="white"/>
<path d="M200.822 97.0451C200.156 101.612 195.914 104.775 191.347 104.109C186.78 103.443 183.617 99.2009 184.283 94.6339C184.949 90.067 189.19 86.9042 193.758 87.5699C198.325 88.2357 201.488 92.4775 200.822 97.0451Z" fill="#5186C7"/>
<path d="M240.678 85.0744C240.012 89.6414 235.769 92.8042 231.202 92.1384C226.635 91.4727 223.473 87.2302 224.138 82.6632C224.804 78.0963 229.046 74.9335 233.613 75.5992C238.18 76.265 241.343 80.5075 240.678 85.0744Z" fill="#5186C7"/>
<path d="M220.642 89.651L205.051 94.3339C203.962 94.6605 202.814 94.0432 202.487 92.9547L199.803 84.0197C199.477 82.9312 200.094 81.7832 201.182 81.4559L216.774 76.7729C217.863 76.4463 219.011 77.0636 219.338 78.1521L222.021 87.0871C222.349 88.1764 221.731 89.3236 220.642 89.651Z" fill="#345870"/>
<path d="M219.992 88.1158L204.748 92.6945C203.564 93.0505 202.314 92.3781 201.958 91.1934L199.463 82.8868C199.107 81.7021 199.78 80.4528 200.964 80.0968L216.208 75.5181C217.393 75.1622 218.642 75.8345 218.998 77.0192L221.493 85.3259C221.849 86.5105 221.177 87.7598 219.992 88.1158Z" fill="#5186C7"/>
<path d="M216.828 78.4728L218.721 84.7742C218.974 85.6169 218.497 86.5079 217.651 86.7619L206.121 90.2249C205.85 90.3064 205.573 90.3108 205.313 90.2506C204.772 90.1317 204.304 89.7273 204.133 89.1555L202.24 82.8541C202.098 82.3836 202.366 81.8881 202.836 81.7465L215.72 77.8768C216.191 77.7352 216.687 78.0023 216.828 78.4728Z" fill="#D9DADE"/>
<path d="M214.586 78.2168L211.929 88.4803L206.405 90.1392L209.063 79.8756L214.586 78.2168Z" fill="white"/>
<path d="M207.91 80.2227L205.313 90.2506C204.772 90.1317 204.305 89.7272 204.133 89.1554L203.364 86.5945L204.768 81.1658L207.91 80.2227Z" fill="white"/>
<path d="M217.04 79.1787L217.936 82.161L216.668 87.0567L214.862 87.5999L217.04 79.1787Z" fill="white"/>
<path d="M211.233 94.4412C211.324 94.7459 211.151 95.0666 210.847 95.1584C210.543 95.2501 210.222 95.0769 210.13 94.773C210.038 94.4684 210.212 94.1476 210.515 94.0559C210.82 93.9641 211.141 94.1366 211.233 94.4412Z" fill="url(#paint28_linear_43_7989)"/>
<path d="M212.664 95.713C212.756 96.0176 212.583 96.3383 212.279 96.4301C211.974 96.5218 211.653 96.3486 211.562 96.0447C211.47 95.7401 211.643 95.4194 211.947 95.3284C212.252 95.2366 212.572 95.4091 212.664 95.713Z" fill="url(#paint29_linear_43_7989)"/>
<path d="M213.164 93.8611C213.256 94.1657 213.083 94.4865 212.779 94.5782C212.474 94.67 212.153 94.4967 212.062 94.1929C211.97 93.8883 212.143 93.5675 212.447 93.4757C212.752 93.384 213.072 93.5572 213.164 93.8611Z" fill="url(#paint30_linear_43_7989)"/>
<path d="M214.596 95.134C214.688 95.4386 214.515 95.7594 214.211 95.8504C213.906 95.9422 213.585 95.7689 213.494 95.4651C213.403 95.1604 213.576 94.8397 213.88 94.7479C214.184 94.6569 214.505 94.8294 214.596 95.134Z" fill="url(#paint31_linear_43_7989)"/>
<path d="M215.096 93.2811C215.187 93.5857 215.014 93.9065 214.71 93.9982C214.406 94.0892 214.085 93.9167 213.993 93.6121C213.902 93.3075 214.075 92.9867 214.378 92.8957C214.684 92.804 215.005 92.9765 215.096 93.2811Z" fill="url(#paint32_linear_43_7989)"/>
<path d="M216.528 94.5535C216.619 94.8582 216.446 95.1789 216.142 95.2707C215.838 95.3617 215.517 95.1892 215.426 94.8853C215.334 94.5807 215.507 94.2599 215.811 94.1682C216.115 94.0764 216.436 94.2489 216.528 94.5535Z" fill="url(#paint33_linear_43_7989)"/>
<path d="M217.027 92.7004C217.118 93.005 216.946 93.3257 216.642 93.4168C216.337 93.5085 216.017 93.3353 215.925 93.0314C215.833 92.7268 216.006 92.406 216.31 92.3143C216.615 92.2233 216.936 92.3965 217.027 92.7004Z" fill="url(#paint34_linear_43_7989)"/>
<path d="M193.164 92.8017L192.352 93.7889C192.24 93.9254 192.071 93.976 191.902 93.9239L190.68 93.5474C190.495 93.4909 190.34 93.3191 190.274 93.1019L189.743 91.3336C189.645 91.007 189.778 90.6789 190.04 90.6004L192.073 89.9897C192.335 89.9112 192.628 90.1115 192.726 90.4382L193.257 92.2064C193.323 92.4244 193.287 92.6526 193.164 92.8017Z" fill="white"/>
<path d="M192.025 98.0203L192.837 97.0331C192.949 96.8966 193.118 96.8459 193.287 96.898L194.509 97.2746C194.694 97.3318 194.849 97.5028 194.914 97.7201L195.446 99.4883C195.544 99.8149 195.411 100.143 195.149 100.222L193.115 100.832C192.853 100.911 192.561 100.71 192.463 100.384L191.932 98.6156C191.866 98.3983 191.902 98.1701 192.025 98.0203Z" fill="white"/>
<path d="M189.691 95.2837L190.632 95.9399C190.761 96.0309 190.805 96.1741 190.746 96.3216L190.323 97.3874C190.259 97.5481 190.084 97.6898 189.867 97.7551L188.098 98.2865C187.772 98.3841 187.453 98.2836 187.387 98.0619L186.87 96.34C186.803 96.1175 187.014 95.8585 187.34 95.7601L189.108 95.2294C189.325 95.1633 189.549 95.1846 189.691 95.2837Z" fill="white"/>
<path d="M195.579 95.8078L194.638 95.1516C194.508 95.0606 194.465 94.9175 194.524 94.7699L194.947 93.7041C195.01 93.5427 195.186 93.4017 195.403 93.3364L197.171 92.805C197.498 92.7074 197.817 92.8072 197.883 93.0296L198.4 94.7516C198.467 94.974 198.256 95.2331 197.93 95.3314L196.161 95.8628C195.946 95.9282 195.721 95.9076 195.579 95.8078Z" fill="white"/>
<path d="M197.93 87.5709C197.345 87.747 196.727 87.4145 196.552 86.8295L196.335 86.1095C196.159 85.5245 196.492 84.9072 197.077 84.7318C197.662 84.5556 198.279 84.8881 198.454 85.4731L198.67 86.1931C198.847 86.7781 198.515 87.3954 197.93 87.5709Z" fill="#210042"/>
<path d="M198.455 85.4728C198.631 86.0578 198.299 86.6751 197.714 86.8505C197.129 87.0267 196.512 86.6942 196.336 86.1092C196.16 85.5242 196.493 84.9069 197.078 84.7315C197.663 84.5561 198.279 84.8878 198.455 85.4728Z" fill="white"/>
<path d="M223.241 79.9683C222.656 80.1445 222.038 79.812 221.863 79.227L221.647 78.5069C221.471 77.9219 221.803 77.3046 222.388 77.1292C222.973 76.9531 223.59 77.2856 223.766 77.8706L223.982 78.5906C224.158 79.1756 223.827 79.7922 223.241 79.9683Z" fill="#210042"/>
<path d="M223.767 77.8706C223.942 78.4556 223.61 79.0729 223.025 79.2483C222.44 79.4245 221.823 79.092 221.648 78.507C221.472 77.922 221.804 77.3047 222.389 77.1293C222.974 76.9531 223.59 77.2849 223.767 77.8706Z" fill="white"/>
<path d="M231.138 81.6493C232.246 81.6493 233.144 80.7508 233.144 79.6425C233.144 78.5342 232.246 77.6357 231.138 77.6357C230.029 77.6357 229.131 78.5342 229.131 79.6425C229.131 80.7508 230.029 81.6493 231.138 81.6493Z" fill="white"/>
<path d="M235.456 89.035C235.977 88.057 235.607 86.8414 234.629 86.3198C233.651 85.7983 232.436 86.1683 231.914 87.1462C231.393 88.1242 231.763 89.3398 232.74 89.8614C233.718 90.3829 234.934 90.0129 235.456 89.035Z" fill="white"/>
<path d="M230.103 84.5611C230.422 85.6225 229.82 86.7418 228.758 87.0604C227.697 87.3789 226.578 86.7771 226.259 85.7157C225.941 84.6543 226.542 83.535 227.604 83.2164C228.665 82.8971 229.784 83.499 230.103 84.5611Z" fill="white"/>
<path d="M238.556 82.022C238.875 83.0834 238.273 84.2027 237.211 84.5213C236.15 84.8398 235.031 84.2379 234.712 83.1766C234.394 82.1152 234.996 80.9959 236.057 80.6773C237.118 80.358 238.237 80.9606 238.556 82.022Z" fill="white"/>
<path d="M228.649 84.2515L227.282 84.6621L227.693 86.0294L229.06 85.6188L228.649 84.2515Z" fill="#69A0E1"/>
<path d="M231.607 78.7562L230.239 79.167L230.65 80.5349L232.018 80.1241L231.607 78.7562Z" fill="#E47272"/>
<path d="M234.158 87.2494L232.79 87.6602L233.201 89.0274L234.569 88.6166L234.158 87.2494Z" fill="#E05C5C"/>
<path d="M237.113 81.7574L235.746 82.168L236.157 83.5359L237.524 83.1253L237.113 81.7574Z" fill="#5186C7"/>
<path d="M240.545 81.9545C239.524 79.1653 237.043 77.0096 233.899 76.5523C229.333 75.8866 225.09 79.0501 224.423 83.6178C224.266 84.688 224.321 85.7427 224.555 86.7358C224.094 85.4755 223.928 84.0853 224.137 82.6636C224.804 78.0944 229.047 74.9331 233.613 75.5981C237.107 76.1082 239.781 78.7125 240.545 81.9545Z" fill="#345870"/>
<path d="M200.689 93.9262C199.668 91.137 197.189 88.9813 194.044 88.524C189.477 87.8582 185.235 91.0218 184.568 95.5895C184.411 96.6596 184.466 97.7144 184.7 98.7075C184.238 97.4472 184.073 96.057 184.281 94.6353C184.949 90.0661 189.191 86.9048 193.757 87.5698C197.251 88.0792 199.925 90.6841 200.689 93.9262Z" fill="#345870"/>
<path d="M278.359 144.691V178.86C278.359 180.965 277.004 182.961 275.307 183.324L222.86 194.548C220.114 195.136 217.842 193.396 217.842 190.65V146.062C217.842 143.317 220.113 141.082 222.86 141.073L275.307 140.891C277.004 140.885 278.359 142.586 278.359 144.691Z" fill="#F5F9FD"/>
<path d="M278.359 144.691V145.165L217.842 146.681V146.062C217.842 143.317 220.113 141.082 222.86 141.073L275.307 140.891C277.004 140.885 278.359 142.586 278.359 144.691Z" fill="#69A0E1"/>
<path d="M225.767 143.772C225.767 144.582 225.111 145.251 224.296 145.268C223.476 145.284 222.808 144.633 222.808 143.814C222.808 142.995 223.476 142.326 224.296 142.318C225.111 142.313 225.767 142.963 225.767 143.772Z" fill="white"/>
<path d="M230.802 143.7C230.802 144.494 230.172 145.149 229.39 145.165C228.603 145.181 227.962 144.544 227.962 143.741C227.962 142.939 228.603 142.283 229.39 142.276C230.172 142.27 230.802 142.908 230.802 143.7Z" fill="white"/>
<path d="M235.639 143.631C235.639 144.409 235.033 145.052 234.282 145.067C233.526 145.082 232.909 144.457 232.909 143.67C232.909 142.883 233.526 142.241 234.282 142.234C235.033 142.229 235.639 142.854 235.639 143.631Z" fill="white"/>
<path d="M248.654 157.104L257.942 161.997C258.813 162.455 258.813 163.892 257.942 164.534L248.654 171.385C247.74 172.059 246.617 171.482 246.617 170.329V158.589C246.617 157.436 247.74 156.623 248.654 157.104Z" fill="#E47272"/>
<path d="M275.082 183.372L223.217 194.472C220.276 195.101 217.842 193.234 217.842 190.289V186.493L278.359 175.675V178.584C278.359 180.841 276.905 182.983 275.082 183.372Z" fill="#69A0E1"/>
<path d="M257.598 183.712C257.604 183.298 257.591 182.883 257.564 182.469L229.906 187.9C229.487 187.983 229.214 188.39 229.296 188.809C229.369 189.178 229.692 189.434 230.054 189.434C230.103 189.434 230.153 189.429 230.204 189.419L257.588 184.041C257.591 183.932 257.597 183.822 257.598 183.712Z" fill="#E47272"/>
<path d="M275.278 178.99L258.612 182.263C258.675 182.691 258.719 183.123 258.758 183.555C258.766 183.639 258.769 183.723 258.776 183.808L275.577 180.508C275.996 180.426 276.269 180.019 276.186 179.6C276.104 179.181 275.698 178.909 275.278 178.99Z" fill="#FFFFFD"/>
<path d="M222.563 190.905C222.201 190.905 221.876 190.649 221.804 190.28C221.721 189.861 221.995 189.454 222.414 189.372L236.295 186.645C236.715 186.562 237.122 186.836 237.204 187.255C237.286 187.674 237.013 188.081 236.594 188.163L222.712 190.89C222.662 190.9 222.613 190.905 222.563 190.905Z" fill="#E47272"/>
<path d="M260.098 182.735C260.098 184.255 258.928 185.731 257.469 186.034C255.992 186.342 254.781 185.333 254.781 183.779C254.781 182.225 255.992 180.741 257.469 180.468C258.928 180.198 260.098 181.215 260.098 182.735Z" fill="#E47272"/>
<path d="M258.77 182.995C258.77 183.748 258.189 184.476 257.468 184.622C256.743 184.769 256.151 184.271 256.151 183.51C256.151 182.749 256.742 182.018 257.468 181.88C258.189 181.742 258.77 182.242 258.77 182.995Z" fill="#FFFFFD"/>
<path opacity="0.4" d="M229.422 172.873C229.423 172.885 229.423 172.902 229.43 172.919L230.018 192.515C229.841 186.614 239.38 180.963 255.064 176.534L254.474 156.893C238.785 161.322 229.245 166.973 229.422 172.873Z" fill="url(#paint35_linear_43_7989)"/>
<path opacity="0.4" d="M248.233 165.261C238.013 168.733 231.349 172.788 229.638 177.047C229.671 177.927 229.699 178.808 229.72 179.69C231.625 175.39 238.556 171.304 249.093 167.828C249.664 167.639 250.048 167.1 250.03 166.5C250.001 165.588 249.096 164.968 248.233 165.261Z" fill="url(#paint36_linear_43_7989)"/>
<path opacity="0.4" d="M248.234 170.559C238.259 173.947 231.685 177.893 229.784 182.041C229.789 182.969 229.789 183.897 229.786 184.825C231.792 180.584 238.688 176.558 249.093 173.125C249.663 172.937 250.049 172.399 250.03 171.798V171.797C250.001 170.887 249.096 170.266 248.234 170.559Z" fill="url(#paint37_linear_43_7989)"/>
<path d="M229.395 171.881L229.984 191.525C230.285 201.559 258.63 209.189 297.188 210.726L296.597 191.077C258.041 189.545 229.696 181.915 229.395 171.881Z" fill="#9BC3EA"/>
<path d="M167.766 116.243C169.205 116.243 170.576 115.725 171.663 114.764L169.612 112.446C169.052 112.942 168.34 113.194 167.587 113.143C166.841 113.097 166.157 112.764 165.663 112.204C165.167 111.644 164.92 110.926 164.965 110.179C165.012 109.433 165.345 108.75 165.904 108.254L163.853 105.937C162.675 106.98 161.972 108.419 161.876 109.99C161.779 111.561 162.301 113.075 163.344 114.254C164.387 115.433 165.826 116.135 167.398 116.232C167.521 116.24 167.644 116.243 167.766 116.243Z" fill="#CFE1EF"/>
<path d="M40.3155 116.285C41.0855 116.285 41.8547 116.133 42.5865 115.827C44.0384 115.22 45.168 114.084 45.7662 112.628C46.3637 111.172 46.3593 109.571 45.7523 108.118C45.1452 106.666 44.009 105.537 42.5535 104.938L41.3776 107.801C42.069 108.085 42.6085 108.621 42.8962 109.311C43.184 110 43.1862 110.761 42.9029 111.453C42.6188 112.144 42.0823 112.684 41.393 112.972C40.7031 113.261 39.9434 113.261 39.2519 112.979L38.0761 115.841C38.7991 116.137 39.5573 116.285 40.3155 116.285Z" fill="#E6BC7A"/>
<path d="M261.942 49.6914C262.712 49.6914 263.482 49.5387 264.214 49.2326C265.666 48.6256 266.795 47.4901 267.393 46.0339C268.627 43.0274 267.186 39.5776 264.181 38.3438L263.005 41.2064C264.432 41.7921 265.117 43.4304 264.531 44.858C263.944 46.2849 262.308 46.969 260.88 46.3833L259.704 49.2459C260.426 49.5431 261.185 49.6914 261.942 49.6914Z" fill="#E6BC7A"/>
<path d="M345.984 138.937C347.561 138.937 349.134 138.31 350.293 137.069L348.031 134.956C346.978 136.083 345.205 136.144 344.076 135.092C342.949 134.039 342.888 132.265 343.941 131.138L341.679 129.025C339.461 131.4 339.589 135.137 341.964 137.354C343.098 138.413 344.542 138.937 345.984 138.937Z" fill="#CFE1EF"/>
<path d="M245.474 125.781C248.936 125.781 248.938 131.155 245.474 131.155C242.011 131.155 242.01 125.781 245.474 125.781Z" fill="white"/>
<path d="M46.975 81.1787C50.4373 81.1787 50.4388 86.5523 46.975 86.5523C43.512 86.5523 43.5105 81.1787 46.975 81.1787Z" fill="white"/>
<path d="M112.835 206.912C116.298 206.912 116.299 212.286 112.835 212.286C109.372 212.286 109.371 206.912 112.835 206.912Z" fill="white"/>
<path d="M304.715 61.79C308.178 61.79 308.179 67.1637 304.715 67.1637C301.253 67.1637 301.251 61.79 304.715 61.79Z" fill="white"/>
<path d="M183.258 31.2949C185.237 31.2949 185.237 34.3652 183.258 34.3652C181.28 34.3652 181.278 31.2949 183.258 31.2949Z" fill="white"/>
<path d="M196.658 125.667C198.637 125.667 198.638 128.737 196.658 128.737C194.679 128.737 194.679 125.667 196.658 125.667Z" fill="white"/>
<path d="M135.359 113.121C137.338 113.121 137.339 116.191 135.359 116.191C133.381 116.192 133.38 113.121 135.359 113.121Z" fill="white"/>
<path d="M121.104 69.5C123.083 69.5 123.084 72.5703 121.104 72.5703C119.126 72.5703 119.125 69.5 121.104 69.5Z" fill="white"/>
<path d="M70.6396 35.5713C72.6185 35.5713 72.6192 38.6416 70.6396 38.6416C68.6607 38.6423 68.66 35.5713 70.6396 35.5713Z" fill="white"/>
<path d="M81.1884 158.739C83.1673 158.739 83.168 161.81 81.1884 161.81C79.2096 161.81 79.2088 158.739 81.1884 158.739Z" fill="white"/>
<path d="M139.351 169.573C141.329 169.573 141.33 172.644 139.351 172.644C137.372 172.644 137.372 169.573 139.351 169.573Z" fill="white"/>
<path d="M234.578 218.328C236.557 218.328 236.558 221.398 234.578 221.398C232.6 221.398 232.599 218.328 234.578 218.328Z" fill="white"/>
<path d="M301.294 156.173C303.273 156.173 303.273 159.243 301.294 159.243C299.315 159.243 299.314 156.173 301.294 156.173Z" fill="white"/>
<path d="M340.354 102.003C342.333 102.003 342.334 105.073 340.354 105.073C338.376 105.073 338.375 102.003 340.354 102.003Z" fill="white"/>
<path d="M241.136 44.9805C243.115 44.9805 243.115 48.0508 241.136 48.0508C239.158 48.0508 239.157 44.9805 241.136 44.9805Z" fill="white"/>
<path d="M47.2597 132.794C49.2386 132.794 49.2393 135.864 47.2597 135.864C45.2809 135.865 45.2801 132.794 47.2597 132.794Z" fill="white"/>
<defs>
<linearGradient id="paint0_linear_43_7989" x1="329.621" y1="85.2431" x2="304.552" y2="121.837" gradientUnits="userSpaceOnUse">
<stop stop-color="#9BC3EA"/>
<stop offset="1" stop-color="#EBF4FA"/>
</linearGradient>
<linearGradient id="paint1_linear_43_7989" x1="111.813" y1="32.8101" x2="98.1856" y2="61.7922" gradientUnits="userSpaceOnUse">
<stop stop-color="#9BC3EA"/>
<stop offset="1" stop-color="#EBF4FA"/>
</linearGradient>
<linearGradient id="paint2_linear_43_7989" x1="174.454" y1="37.958" x2="191.722" y2="118.078" gradientUnits="userSpaceOnUse">
<stop stop-color="#9BC3EA"/>
<stop offset="0.1927" stop-color="#A2C7EB"/>
<stop offset="0.464" stop-color="#B4D2EF"/>
<stop offset="0.7805" stop-color="#D2E5F5"/>
<stop offset="1" stop-color="#EBF4FA"/>
</linearGradient>
<linearGradient id="paint3_linear_43_7989" x1="142.252" y1="53.2099" x2="177.091" y2="53.2099" gradientUnits="userSpaceOnUse">
<stop stop-color="#9BC3EA"/>
<stop offset="0.1927" stop-color="#A2C7EB"/>
<stop offset="0.464" stop-color="#B4D2EF"/>
<stop offset="0.7805" stop-color="#D2E5F5"/>
<stop offset="1" stop-color="#EBF4FA"/>
</linearGradient>
<linearGradient id="paint4_linear_43_7989" x1="142.249" y1="58.2031" x2="177.042" y2="58.2031" gradientUnits="userSpaceOnUse">
<stop stop-color="#9BC3EA"/>
<stop offset="0.1927" stop-color="#A2C7EB"/>
<stop offset="0.464" stop-color="#B4D2EF"/>
<stop offset="0.7805" stop-color="#D2E5F5"/>
<stop offset="1" stop-color="#EBF4FA"/>
</linearGradient>
<linearGradient id="paint5_linear_43_7989" x1="142.254" y1="63.1957" x2="177.008" y2="63.1957" gradientUnits="userSpaceOnUse">
<stop stop-color="#9BC3EA"/>
<stop offset="0.1927" stop-color="#A2C7EB"/>
<stop offset="0.464" stop-color="#B4D2EF"/>
<stop offset="0.7805" stop-color="#D2E5F5"/>
<stop offset="1" stop-color="#EBF4FA"/>
</linearGradient>
<linearGradient id="paint6_linear_43_7989" x1="142.259" y1="68.6459" x2="155.592" y2="68.6459" gradientUnits="userSpaceOnUse">
<stop stop-color="#9BC3EA"/>
<stop offset="0.1927" stop-color="#A2C7EB"/>
<stop offset="0.464" stop-color="#B4D2EF"/>
<stop offset="0.7805" stop-color="#D2E5F5"/>
<stop offset="1" stop-color="#EBF4FA"/>
</linearGradient>
<linearGradient id="paint7_linear_43_7989" x1="187.538" y1="76.7122" x2="222.376" y2="76.7122" gradientUnits="userSpaceOnUse">
<stop stop-color="#9BC3EA"/>
<stop offset="0.1927" stop-color="#A2C7EB"/>
<stop offset="0.464" stop-color="#B4D2EF"/>
<stop offset="0.7805" stop-color="#D2E5F5"/>
<stop offset="1" stop-color="#EBF4FA"/>
</linearGradient>
<linearGradient id="paint8_linear_43_7989" x1="187.586" y1="81.7056" x2="222.379" y2="81.7056" gradientUnits="userSpaceOnUse">
<stop stop-color="#9BC3EA"/>
<stop offset="0.1927" stop-color="#A2C7EB"/>
<stop offset="0.464" stop-color="#B4D2EF"/>
<stop offset="0.7805" stop-color="#D2E5F5"/>
<stop offset="1" stop-color="#EBF4FA"/>
</linearGradient>
<linearGradient id="paint9_linear_43_7989" x1="187.62" y1="86.6982" x2="222.374" y2="86.6982" gradientUnits="userSpaceOnUse">
<stop stop-color="#9BC3EA"/>
<stop offset="0.1927" stop-color="#A2C7EB"/>
<stop offset="0.464" stop-color="#B4D2EF"/>
<stop offset="0.7805" stop-color="#D2E5F5"/>
<stop offset="1" stop-color="#EBF4FA"/>
</linearGradient>
<linearGradient id="paint10_linear_43_7989" x1="209.036" y1="92.1481" x2="222.37" y2="92.1481" gradientUnits="userSpaceOnUse">
<stop stop-color="#9BC3EA"/>
<stop offset="0.1927" stop-color="#A2C7EB"/>
<stop offset="0.464" stop-color="#B4D2EF"/>
<stop offset="0.7805" stop-color="#D2E5F5"/>
<stop offset="1" stop-color="#EBF4FA"/>
</linearGradient>
<linearGradient id="paint11_linear_43_7989" x1="58.0596" y1="120.784" x2="122.804" y2="120.784" gradientUnits="userSpaceOnUse">
<stop stop-color="#9BC3EA"/>
<stop offset="0.1927" stop-color="#A2C7EB"/>
<stop offset="0.464" stop-color="#B4D2EF"/>
<stop offset="0.7805" stop-color="#D2E5F5"/>
<stop offset="1" stop-color="#EBF4FA"/>
</linearGradient>
<linearGradient id="paint12_linear_43_7989" x1="37.6349" y1="79.6891" x2="124.891" y2="111.787" gradientUnits="userSpaceOnUse">
<stop stop-color="#9BC3EA"/>
<stop offset="0.1927" stop-color="#A2C7EB"/>
<stop offset="0.464" stop-color="#B4D2EF"/>
<stop offset="0.7805" stop-color="#D2E5F5"/>
<stop offset="1" stop-color="#EBF4FA"/>
</linearGradient>
<linearGradient id="paint13_linear_43_7989" x1="35.5422" y1="85.3777" x2="122.798" y2="117.475" gradientUnits="userSpaceOnUse">
<stop stop-color="#9BC3EA"/>
<stop offset="0.1927" stop-color="#A2C7EB"/>
<stop offset="0.464" stop-color="#B4D2EF"/>
<stop offset="0.7805" stop-color="#D2E5F5"/>
<stop offset="1" stop-color="#EBF4FA"/>
</linearGradient>
<linearGradient id="paint14_linear_43_7989" x1="33.4495" y1="91.0671" x2="120.705" y2="123.165" gradientUnits="userSpaceOnUse">
<stop stop-color="#9BC3EA"/>
<stop offset="0.1927" stop-color="#A2C7EB"/>
<stop offset="0.464" stop-color="#B4D2EF"/>
<stop offset="0.7805" stop-color="#D2E5F5"/>
<stop offset="1" stop-color="#EBF4FA"/>
</linearGradient>
<linearGradient id="paint15_linear_43_7989" x1="31.3567" y1="96.7564" x2="118.612" y2="128.854" gradientUnits="userSpaceOnUse">
<stop stop-color="#9BC3EA"/>
<stop offset="0.1927" stop-color="#A2C7EB"/>
<stop offset="0.464" stop-color="#B4D2EF"/>
<stop offset="0.7805" stop-color="#D2E5F5"/>
<stop offset="1" stop-color="#EBF4FA"/>
</linearGradient>
<linearGradient id="paint16_linear_43_7989" x1="29.264" y1="102.445" x2="116.52" y2="134.542" gradientUnits="userSpaceOnUse">
<stop stop-color="#9BC3EA"/>
<stop offset="0.1927" stop-color="#A2C7EB"/>
<stop offset="0.464" stop-color="#B4D2EF"/>
<stop offset="0.7805" stop-color="#D2E5F5"/>
<stop offset="1" stop-color="#EBF4FA"/>
</linearGradient>
<linearGradient id="paint17_linear_43_7989" x1="27.1705" y1="108.135" x2="114.426" y2="140.233" gradientUnits="userSpaceOnUse">
<stop stop-color="#9BC3EA"/>
<stop offset="0.1927" stop-color="#A2C7EB"/>
<stop offset="0.464" stop-color="#B4D2EF"/>
<stop offset="0.7805" stop-color="#D2E5F5"/>
<stop offset="1" stop-color="#EBF4FA"/>
</linearGradient>
<linearGradient id="paint18_linear_43_7989" x1="117.24" y1="158.878" x2="131.323" y2="158.878" gradientUnits="userSpaceOnUse">
<stop stop-color="#9BC3EA"/>
<stop offset="0.1927" stop-color="#A2C7EB"/>
<stop offset="0.464" stop-color="#B4D2EF"/>
<stop offset="0.7805" stop-color="#D2E5F5"/>
<stop offset="1" stop-color="#EBF4FA"/>
</linearGradient>
<linearGradient id="paint19_linear_43_7989" x1="117.326" y1="157.315" x2="131.323" y2="157.315" gradientUnits="userSpaceOnUse">
<stop stop-color="#9BC3EA"/>
<stop offset="0.1927" stop-color="#A2C7EB"/>
<stop offset="0.464" stop-color="#B4D2EF"/>
<stop offset="0.7805" stop-color="#D2E5F5"/>
<stop offset="1" stop-color="#EBF4FA"/>
</linearGradient>
<linearGradient id="paint20_linear_43_7989" x1="117.268" y1="163.583" x2="131.323" y2="163.583" gradientUnits="userSpaceOnUse">
<stop stop-color="#9BC3EA"/>
<stop offset="0.1927" stop-color="#A2C7EB"/>
<stop offset="0.464" stop-color="#B4D2EF"/>
<stop offset="0.7805" stop-color="#D2E5F5"/>
<stop offset="1" stop-color="#EBF4FA"/>
</linearGradient>
<linearGradient id="paint21_linear_43_7989" x1="236.996" y1="98.9289" x2="301.74" y2="98.9289" gradientUnits="userSpaceOnUse">
<stop stop-color="#9BC3EA"/>
<stop offset="0.1927" stop-color="#A2C7EB"/>
<stop offset="0.464" stop-color="#B4D2EF"/>
<stop offset="0.7805" stop-color="#D2E5F5"/>
<stop offset="1" stop-color="#EBF4FA"/>
</linearGradient>
<linearGradient id="paint22_linear_43_7989" x1="223.195" y1="93.4622" x2="304.005" y2="66.672" gradientUnits="userSpaceOnUse">
<stop stop-color="#9BC3EA"/>
<stop offset="0.1927" stop-color="#A2C7EB"/>
<stop offset="0.464" stop-color="#B4D2EF"/>
<stop offset="0.7805" stop-color="#D2E5F5"/>
<stop offset="1" stop-color="#EBF4FA"/>
</linearGradient>
<linearGradient id="paint23_linear_43_7989" x1="225.124" y1="99.2819" x2="305.934" y2="72.4917" gradientUnits="userSpaceOnUse">
<stop stop-color="#9BC3EA"/>
<stop offset="0.1927" stop-color="#A2C7EB"/>
<stop offset="0.464" stop-color="#B4D2EF"/>
<stop offset="0.7805" stop-color="#D2E5F5"/>
<stop offset="1" stop-color="#EBF4FA"/>
</linearGradient>
<linearGradient id="paint24_linear_43_7989" x1="227.053" y1="105.101" x2="307.863" y2="78.3109" gradientUnits="userSpaceOnUse">
<stop stop-color="#9BC3EA"/>
<stop offset="0.1927" stop-color="#A2C7EB"/>
<stop offset="0.464" stop-color="#B4D2EF"/>
<stop offset="0.7805" stop-color="#D2E5F5"/>
<stop offset="1" stop-color="#EBF4FA"/>
</linearGradient>
<linearGradient id="paint25_linear_43_7989" x1="228.983" y1="110.92" x2="309.792" y2="84.1299" gradientUnits="userSpaceOnUse">
<stop stop-color="#9BC3EA"/>
<stop offset="0.1927" stop-color="#A2C7EB"/>
<stop offset="0.464" stop-color="#B4D2EF"/>
<stop offset="0.7805" stop-color="#D2E5F5"/>
<stop offset="1" stop-color="#EBF4FA"/>
</linearGradient>
<linearGradient id="paint26_linear_43_7989" x1="230.912" y1="116.739" x2="311.722" y2="89.9491" gradientUnits="userSpaceOnUse">
<stop stop-color="#9BC3EA"/>
<stop offset="0.1927" stop-color="#A2C7EB"/>
<stop offset="0.464" stop-color="#B4D2EF"/>
<stop offset="0.7805" stop-color="#D2E5F5"/>
<stop offset="1" stop-color="#EBF4FA"/>
</linearGradient>
<linearGradient id="paint27_linear_43_7989" x1="232.841" y1="122.559" x2="313.651" y2="95.7692" gradientUnits="userSpaceOnUse">
<stop stop-color="#9BC3EA"/>
<stop offset="0.1927" stop-color="#A2C7EB"/>
<stop offset="0.464" stop-color="#B4D2EF"/>
<stop offset="0.7805" stop-color="#D2E5F5"/>
<stop offset="1" stop-color="#EBF4FA"/>
</linearGradient>
<linearGradient id="paint28_linear_43_7989" x1="219.355" y1="88.478" x2="207.919" y2="96.558" gradientUnits="userSpaceOnUse">
<stop stop-color="#1C0035"/>
<stop offset="1" stop-color="#46008D"/>
</linearGradient>
<linearGradient id="paint29_linear_43_7989" x1="220.431" y1="90.0014" x2="208.996" y2="98.0814" gradientUnits="userSpaceOnUse">
<stop stop-color="#1C0035"/>
<stop offset="1" stop-color="#46008D"/>
</linearGradient>
<linearGradient id="paint30_linear_43_7989" x1="219.724" y1="89.0018" x2="208.289" y2="97.0819" gradientUnits="userSpaceOnUse">
<stop stop-color="#1C0035"/>
<stop offset="1" stop-color="#46008D"/>
</linearGradient>
<linearGradient id="paint31_linear_43_7989" x1="220.801" y1="90.5257" x2="209.366" y2="98.6057" gradientUnits="userSpaceOnUse">
<stop stop-color="#1C0035"/>
<stop offset="1" stop-color="#46008D"/>
</linearGradient>
<linearGradient id="paint32_linear_43_7989" x1="220.095" y1="89.525" x2="208.659" y2="97.6052" gradientUnits="userSpaceOnUse">
<stop stop-color="#1C0035"/>
<stop offset="1" stop-color="#46008D"/>
</linearGradient>
<linearGradient id="paint33_linear_43_7989" x1="221.171" y1="91.0485" x2="209.736" y2="99.1286" gradientUnits="userSpaceOnUse">
<stop stop-color="#1C0035"/>
<stop offset="1" stop-color="#46008D"/>
</linearGradient>
<linearGradient id="paint34_linear_43_7989" x1="220.464" y1="90.0483" x2="209.029" y2="98.1284" gradientUnits="userSpaceOnUse">
<stop stop-color="#1C0035"/>
<stop offset="1" stop-color="#46008D"/>
</linearGradient>
<linearGradient id="paint35_linear_43_7989" x1="229.751" y1="169.101" x2="255.593" y2="180.688" gradientUnits="userSpaceOnUse">
<stop stop-color="#9BC3EA"/>
<stop offset="0.1927" stop-color="#A2C7EB"/>
<stop offset="0.464" stop-color="#B4D2EF"/>
<stop offset="0.7805" stop-color="#D2E5F5"/>
<stop offset="1" stop-color="#EBF4FA"/>
</linearGradient>
<linearGradient id="paint36_linear_43_7989" x1="226.044" y1="171.677" x2="248.489" y2="172.975" gradientUnits="userSpaceOnUse">
<stop stop-color="#9BC3EA"/>
<stop offset="0.1927" stop-color="#A2C7EB"/>
<stop offset="0.464" stop-color="#B4D2EF"/>
<stop offset="0.7805" stop-color="#D2E5F5"/>
<stop offset="1" stop-color="#EBF4FA"/>
</linearGradient>
<linearGradient id="paint37_linear_43_7989" x1="225.744" y1="176.874" x2="248.189" y2="178.172" gradientUnits="userSpaceOnUse">
<stop stop-color="#9BC3EA"/>
<stop offset="0.1927" stop-color="#A2C7EB"/>
<stop offset="0.464" stop-color="#B4D2EF"/>
<stop offset="0.7805" stop-color="#D2E5F5"/>
<stop offset="1" stop-color="#EBF4FA"/>
</linearGradient>
</defs>
</svg>
