<svg width="443" height="367" viewBox="0 0 443 367" fill="none" xmlns="http://www.w3.org/2000/svg">
<g clip-path="url(#clip0_43_9248)">
<path d="M395.21 329.727H363.961V329.962H395.21V329.727Z" fill="#EBEBEB"/>
<path d="M283.241 332.287H275.04V332.523H283.241V332.287Z" fill="#EBEBEB"/>
<path d="M363.017 320.967H344.91V321.203H363.017V320.967Z" fill="#EBEBEB"/>
<path d="M60.9953 322.551H20.2451V322.787H60.9953V322.551Z" fill="#EBEBEB"/>
<path d="M75.3713 322.551H69.3965V322.787H75.3713V322.551Z" fill="#EBEBEB"/>
<path d="M183.166 326.535H94.7881V326.771H183.166V326.535Z" fill="#EBEBEB"/>
<path d="M194.362 272.466H12.184C9.21499 272.466 6.79883 270.05 6.79883 267.081V10.9994C6.79883 8.03042 9.21499 5.61426 12.184 5.61426H194.362C197.33 5.61426 199.746 8.03042 199.746 10.9994V267.081C199.746 270.05 197.33 272.466 194.362 272.466ZM12.184 5.85106C9.34424 5.85106 7.03469 8.16061 7.03469 11.0004V267.081C7.03469 269.921 9.34424 272.231 12.184 272.231H194.362C197.201 272.231 199.511 269.921 199.511 267.081V10.9994C199.511 8.16062 197.201 5.85012 194.362 5.85012L12.184 5.85106Z" fill="#EBEBEB"/>
<path d="M398.427 272.466H216.249C213.28 272.466 210.865 270.05 210.865 267.081V10.9994C210.865 8.03042 213.281 5.61426 216.249 5.61426H398.427C401.397 5.61426 403.812 8.03042 403.812 10.9994V267.081C403.813 270.05 401.397 272.466 398.427 272.466ZM216.249 5.85106C213.411 5.85106 211.101 8.16061 211.101 11.0004V267.081C211.101 269.921 213.411 272.231 216.249 272.231H398.427C401.267 272.231 403.576 269.921 403.576 267.081V10.9994C403.576 8.16062 401.267 5.85012 398.427 5.85012L216.249 5.85106Z" fill="#EBEBEB"/>
<path d="M442.475 314.541H-29.2471V314.777H442.475V314.541Z" fill="#EBEBEB"/>
<path d="M51.7526 124.312V105.938H50.3374V124.312C49.427 124.611 48.7656 125.458 48.7656 126.469V132.287C48.7656 133.547 49.7864 134.567 51.045 134.567C52.3045 134.567 53.3253 133.547 53.3253 132.287V126.469C53.3253 125.458 52.6639 124.611 51.7526 124.312Z" fill="#E0E0E0"/>
<path d="M58.6549 105.938H55.8359V312.796H58.6549V105.938Z" fill="#EBEBEB"/>
<path d="M75.643 313.647H38.8486C38.8486 311.746 40.3893 310.205 42.2903 310.205H72.2003C74.1023 310.205 75.643 311.746 75.643 313.647Z" fill="#E0E0E0"/>
<path d="M55.8359 120.568L58.6549 119.64V105.938H55.8359V120.568Z" fill="#E0E0E0"/>
<path d="M74.1327 63.0225H40.3574L29.9795 107.836H84.5106L74.1327 63.0225Z" fill="#F0F0F0"/>
<path d="M222.328 75.6494V67.6037C221.337 67.6037 221.335 66.0631 222.328 66.0631C225.395 66.0631 228.464 66.0423 231.532 66.0244V77.191C228.464 77.191 225.396 77.191 222.328 77.191C221.337 77.1901 221.336 75.6494 222.328 75.6494Z" fill="#EBEBEB"/>
<path d="M229.478 67.6035H222.328V75.6379H229.478V67.6035Z" fill="#F5F5F5"/>
<path d="M227.979 76.4213H252.764C254.468 76.4213 255.849 74.2749 255.849 71.6276C255.849 68.9803 254.468 66.834 252.764 66.834H227.979V76.4213Z" fill="#FAFAFA"/>
<path d="M227.977 66.064C236.092 66.064 244.22 65.9178 252.332 66.064C257.89 66.164 258.188 76.8174 252.738 77.191C248.938 77.4514 245.029 77.191 241.222 77.191C236.807 77.191 232.393 77.191 227.977 77.191C226.986 77.191 226.985 75.6504 227.977 75.6504C235.668 75.6504 243.359 75.6504 251.05 75.6504C252.831 75.6504 254.103 75.6305 254.791 73.5304C255.386 71.7134 255.199 68.0056 252.763 67.6047C252.5 67.5613 252.191 67.6047 251.928 67.6047C247.734 67.6047 243.541 67.6047 239.348 67.6047C235.557 67.6047 231.767 67.6047 227.977 67.6047C226.986 67.6047 226.985 66.064 227.977 66.064Z" fill="#E6E6E6"/>
<path d="M222.245 64.7857V57.6353C221.364 57.6353 221.363 56.2664 222.245 56.2664C224.971 56.2664 227.697 56.2475 230.424 56.2314V66.1546C227.697 66.1546 224.971 66.1546 222.245 66.1546C221.365 66.1546 221.363 64.7857 222.245 64.7857Z" fill="#EBEBEB"/>
<path d="M228.598 57.6348H222.245V64.7747H228.598V57.6348Z" fill="#F5F5F5"/>
<path d="M227.267 65.4705H249.293C250.807 65.4705 252.035 63.5638 252.035 61.2108C252.035 58.8579 250.807 56.9512 249.293 56.9512H227.267V65.4705Z" fill="#FAFAFA"/>
<path d="M227.267 56.2668C234.479 56.2668 241.702 56.1367 248.911 56.2668C253.85 56.3565 254.116 65.823 249.272 66.1551C245.895 66.3872 242.421 66.1551 239.038 66.1551C235.114 66.1551 231.192 66.1551 227.268 66.1551C226.387 66.1551 226.386 64.7862 227.268 64.7862C234.103 64.7862 240.937 64.7862 247.773 64.7862C249.355 64.7862 250.486 64.7682 251.097 62.9021C251.627 61.2879 251.46 57.9924 249.294 57.6358C249.061 57.5971 248.787 57.6358 248.553 57.6358C244.826 57.6358 241.1 57.6358 237.374 57.6358C234.006 57.6358 230.637 57.6358 227.269 57.6358C226.386 57.6358 226.384 56.2668 227.267 56.2668Z" fill="#E6E6E6"/>
<path d="M222.328 86.586V78.5403C221.337 78.5403 221.335 76.9996 222.328 76.9996C225.395 76.9996 228.464 76.9789 231.532 76.9609V88.1275C228.464 88.1275 225.396 88.1275 222.328 88.1275C221.337 88.1266 221.336 86.586 222.328 86.586Z" fill="#EBEBEB"/>
<path d="M229.478 78.54H222.328V86.5744H229.478V78.54Z" fill="#F5F5F5"/>
<path d="M227.979 87.3588H252.764C254.468 87.3588 255.849 85.2125 255.849 82.5652C255.849 79.9179 254.468 77.7725 252.764 77.7725H227.979V87.3588Z" fill="#FAFAFA"/>
<path d="M227.977 77.0005C236.092 77.0005 244.22 76.8543 252.332 77.0005C257.89 77.1005 258.188 87.7539 252.738 88.1275C248.938 88.3879 245.029 88.1275 241.222 88.1275C236.807 88.1275 232.393 88.1275 227.977 88.1275C226.986 88.1275 226.985 86.5869 227.977 86.5869C235.668 86.5869 243.359 86.5869 251.05 86.5869C252.831 86.5869 254.103 86.5671 254.791 84.467C255.386 82.6499 255.199 78.9421 252.763 78.5412C252.5 78.4978 252.191 78.5412 251.928 78.5412C247.734 78.5412 243.541 78.5412 239.348 78.5412C235.557 78.5412 231.767 78.5412 227.977 78.5412C226.986 78.5412 226.985 77.0005 227.977 77.0005Z" fill="#E6E6E6"/>
<path d="M283.222 86.8799H284.951H335.016V93.5264H284.951H283.222H116.275V86.8799H283.222Z" fill="#F5F5F5"/>
<path d="M322.638 109.687V93.5264H330.717L322.638 109.687Z" fill="#E0E0E0"/>
<path d="M326.678 109.687L334.757 93.5264H330.717L322.638 109.687H326.678Z" fill="#F5F5F5"/>
<path d="M128.395 109.687V93.5264H120.314L128.395 109.687Z" fill="#E0E0E0"/>
<path d="M124.355 109.687L116.275 93.5264H120.315L128.396 109.687H124.355Z" fill="#F5F5F5"/>
<path d="M270.204 70.6935C270.204 80.4015 278.074 88.2718 287.782 88.2718C297.49 88.2718 305.361 80.4025 305.361 70.6935V70.0812C305.361 60.3731 297.49 52.5029 287.782 52.5029C278.074 52.5029 270.204 60.3731 270.204 70.0812V70.6935Z" fill="#E6E6E6"/>
<path d="M270.204 68.1652C270.204 77.8732 278.074 85.7434 287.782 85.7434C297.49 85.7434 305.361 77.8732 305.361 68.1652V67.5529C305.361 57.8448 297.49 49.9746 287.782 49.9746C278.074 49.9746 270.204 57.8448 270.204 67.5529V68.1652Z" fill="#F0F0F0"/>
<path d="M274.048 67.5531C274.048 75.1374 280.196 81.2859 287.781 81.2859C295.365 81.2859 301.513 75.1374 301.513 67.5531C301.513 59.9687 295.365 53.8203 287.781 53.8203C280.196 53.8203 274.048 59.9687 274.048 67.5531Z" fill="#FAFAFA"/>
<path d="M287.781 55.9883C280.562 55.9883 274.656 61.5613 274.103 68.6371C274.074 68.2786 274.048 67.9192 274.048 67.5531C274.048 59.9687 280.196 53.8203 287.781 53.8203C295.365 53.8203 301.513 59.9687 301.513 67.5531C301.513 67.9192 301.487 68.2786 301.459 68.6371C300.905 61.5603 294.999 55.9883 287.781 55.9883Z" fill="#E6E6E6"/>
<path d="M279.109 67.5461C279.521 67.5461 283.955 67.5461 286.329 67.5461C286.329 65.1687 286.329 60.7279 286.329 60.326C286.329 59.5231 286.98 58.873 287.782 58.873C288.584 58.873 289.235 59.524 289.235 60.326C289.235 60.8694 289.235 68.4556 289.235 68.999C289.235 69.801 288.584 70.4519 287.782 70.4519C287.25 70.4519 279.64 70.4519 279.109 70.4519C278.307 70.4519 277.656 69.801 277.656 68.999C277.656 68.1962 278.307 67.5461 279.109 67.5461Z" fill="#E0E0E0"/>
<path d="M279.109 69.0054C278.307 69.0054 277.656 68.3544 277.656 67.5525C277.656 66.7496 278.306 66.0996 279.109 66.0996C279.653 66.0996 287.239 66.0996 287.783 66.0996C288.585 66.0996 289.236 66.7496 289.236 67.5525C289.236 68.3544 288.585 69.0054 287.783 69.0054C287.25 69.0054 279.641 69.0054 279.109 69.0054Z" fill="#F5F5F5"/>
<path d="M286.329 58.8797C286.329 58.0768 286.98 57.4268 287.782 57.4268C288.584 57.4268 289.235 58.0777 289.235 58.8797C289.235 59.4231 289.235 67.0093 289.235 67.5528C289.235 68.3547 288.584 69.0057 287.782 69.0057C286.979 69.0057 286.329 68.3556 286.329 67.5528C286.329 67.0216 286.329 59.4118 286.329 58.8797Z" fill="#EBEBEB"/>
<path d="M177.321 87.1025H187.915V43.0956H177.321V87.1025Z" fill="#E0E0E0"/>
<path d="M182.619 80.9665C184.419 80.9665 185.879 79.5071 185.879 77.7069C185.879 75.9066 184.419 74.4473 182.619 74.4473C180.819 74.4473 179.359 75.9066 179.359 77.7069C179.359 79.5071 180.819 80.9665 182.619 80.9665Z" fill="#FAFAFA"/>
<path opacity="0.6" d="M179.36 68.54H185.879V47.3522H179.36V68.54Z" fill="#F0F0F0"/>
<path opacity="0.6" d="M179.36 50.3398H185.879V47.352H179.36V50.3398Z" fill="#FAFAFA"/>
<path d="M169.371 87.1084H177.927V51.5651H169.371V87.1084Z" fill="#E6E6E6"/>
<path d="M171.018 79.5208C171.018 80.9747 172.196 82.154 173.65 82.154C175.104 82.154 176.283 80.9756 176.283 79.5208C176.283 78.0661 175.105 76.8877 173.65 76.8877C172.195 76.8877 171.018 78.067 171.018 79.5208Z" fill="#FAFAFA"/>
<path opacity="0.6" d="M171.016 72.1152H176.281V55.0021H171.016V72.1152Z" fill="#F0F0F0"/>
<path opacity="0.6" d="M171.016 57.416H176.281V55.0027H171.016V57.416Z" fill="#FAFAFA"/>
<path d="M194.758 87.1025H205.352V43.0956H194.758V87.1025Z" fill="#EBEBEB"/>
<path d="M200.055 80.9665C201.856 80.9665 203.315 79.5071 203.315 77.7069C203.315 75.9066 201.856 74.4473 200.055 74.4473C198.255 74.4473 196.796 75.9066 196.796 77.7069C196.796 79.5071 198.255 80.9665 200.055 80.9665Z" fill="#E0E0E0"/>
<path opacity="0.6" d="M196.796 68.54H203.315V47.3522H196.796V68.54Z" fill="#FAFAFA"/>
<path opacity="0.6" d="M196.796 50.3398H203.315V47.352H196.796V50.3398Z" fill="#FAFAFA"/>
<path d="M159.535 87.1025H170.129V43.0956H159.535V87.1025Z" fill="#E0E0E0"/>
<path d="M164.833 80.9665C166.633 80.9665 168.092 79.5071 168.092 77.7069C168.092 75.9066 166.633 74.4473 164.833 74.4473C163.033 74.4473 161.573 75.9066 161.573 77.7069C161.573 79.5071 163.033 80.9665 164.833 80.9665Z" fill="#FAFAFA"/>
<path opacity="0.6" d="M161.572 68.54H168.091V47.3522H161.572V68.54Z" fill="#F0F0F0"/>
<path opacity="0.6" d="M161.572 50.3398H168.091V47.352H161.572V50.3398Z" fill="#FAFAFA"/>
<path d="M144.427 86.4418L154.963 87.5488L159.562 43.7839L149.026 42.6768L144.427 86.4418Z" fill="#EBEBEB"/>
<path d="M147.433 77.3019C147.245 79.0926 148.544 80.6965 150.334 80.8842C152.125 81.0729 153.729 79.7738 153.917 77.9831C154.104 76.1925 152.806 74.5886 151.016 74.4009C149.225 74.2131 147.621 75.5122 147.433 77.3019Z" fill="#E0E0E0"/>
<path opacity="0.6" d="M148.393 68.1918L154.876 68.873L157.09 47.8026L150.607 47.1214L148.393 68.1918Z" fill="#F5F5F5"/>
<path opacity="0.6" d="M150.294 50.0912L156.777 50.7725L157.09 47.801L150.606 47.1197L150.294 50.0912Z" fill="#FAFAFA"/>
<path d="M187.159 87.1084H195.715V51.5651H187.159V87.1084Z" fill="#E6E6E6"/>
<path d="M188.806 79.5208C188.806 80.9747 189.984 82.154 191.439 82.154C192.893 82.154 194.072 80.9756 194.072 79.5208C194.072 78.0661 192.894 76.8877 191.439 76.8877C189.984 76.8877 188.806 78.067 188.806 79.5208Z" fill="#FAFAFA"/>
<path opacity="0.6" d="M188.804 72.1152H194.069V55.0021H188.804V72.1152Z" fill="#F0F0F0"/>
<path opacity="0.6" d="M188.804 57.416H194.069V55.0027H188.804V57.416Z" fill="#FAFAFA"/>
<path d="M202.065 353.522C303.091 353.522 384.989 348.74 384.989 342.84C384.989 336.94 303.091 332.157 202.065 332.157C101.039 332.157 19.1416 336.94 19.1416 342.84C19.1416 348.74 101.039 353.522 202.065 353.522Z" fill="#F5F5F5"/>
<path d="M206.074 213.034H188.394L196.885 186.148H214.565L206.074 213.034Z" fill="#407BFF"/>
<path opacity="0.2" d="M194.406 193.998H212.086L214.565 186.148H196.885L194.406 193.998Z" fill="black"/>
<path d="M220.07 211.324H186.234V215.412H220.07V211.324Z" fill="#407BFF"/>
<path opacity="0.5" d="M220.07 211.324H186.234V215.412H220.07V211.324Z" fill="white"/>
<path opacity="0.6" d="M203.152 211.324H186.234V215.412H203.152V211.324Z" fill="white"/>
<path d="M351.162 180.308L345 109.89L248.567 118.392H151.394L53.4719 109.89L51.585 111.777L57.7457 182.195L155.665 190.698H252.842L349.275 182.195L351.162 180.308Z" fill="#407BFF"/>
<path opacity="0.2" d="M351.162 180.308L345 109.89L248.567 118.392H151.394L53.4717 109.89L59.6324 180.308L157.552 188.811H254.729L351.162 180.308Z" fill="white"/>
<path opacity="0.8" d="M342.451 112.983L251.629 120.933L257.297 185.691L348.12 177.741L342.451 112.983Z" fill="white"/>
<path opacity="0.5" d="M268.665 127.496C268.113 127.544 267.626 127.133 267.577 126.577C267.528 126.021 267.937 125.531 268.489 125.482L291.329 123.469C291.881 123.42 292.368 123.832 292.417 124.388C292.466 124.944 292.058 125.435 291.506 125.483L268.665 127.496Z" fill="#263238"/>
<g opacity="0.5">
<path opacity="0.5" d="M268.665 127.496C268.113 127.544 267.626 127.133 267.577 126.577C267.528 126.021 267.937 125.531 268.489 125.482L291.329 123.469C291.881 123.42 292.368 123.832 292.417 124.388C292.466 124.944 292.058 125.435 291.506 125.483L268.665 127.496Z" fill="white"/>
</g>
<path opacity="0.5" d="M305.822 124.22C305.27 124.269 304.784 123.857 304.734 123.301C304.685 122.744 305.094 122.254 305.646 122.206L328.487 120.192C329.039 120.143 329.525 120.556 329.574 121.111C329.623 121.668 329.215 122.159 328.663 122.207L305.822 124.22Z" fill="#263238"/>
<g opacity="0.5">
<path opacity="0.5" d="M305.822 124.22C305.27 124.269 304.784 123.857 304.734 123.301C304.685 122.744 305.094 122.254 305.646 122.206L328.487 120.192C329.039 120.143 329.525 120.556 329.574 121.111C329.623 121.668 329.215 122.159 328.663 122.207L305.822 124.22Z" fill="white"/>
</g>
<path d="M292.916 139.781C293.481 146.225 288.754 151.905 282.359 152.469C275.965 153.033 270.325 148.266 269.761 141.822C269.196 135.379 273.924 129.698 280.318 129.134C286.711 128.571 292.352 133.337 292.916 139.781Z" fill="#407BFF"/>
<g opacity="0.9">
<path d="M276.303 146.854L274.983 146.97C274.643 147 274.342 146.745 274.311 146.402L273.765 140.16C273.735 139.817 273.987 139.514 274.328 139.484L275.648 139.368C275.989 139.337 276.29 139.592 276.32 139.936L276.866 146.177C276.896 146.521 276.645 146.824 276.303 146.854Z" fill="white"/>
<path d="M278.031 138.906C278.881 138.061 281.012 135.687 281.001 133.128C280.996 131.872 282.728 131.34 283.357 132.425C283.829 133.238 283.94 134.797 283.089 137.707L286.35 137.419C287.222 137.343 288.056 137.794 288.474 138.568C288.719 139.02 288.798 139.545 288.701 140.049L287.748 144.976C287.535 146.072 286.546 146.837 285.439 146.76L279.2 146.32C278.683 146.284 278.269 145.874 278.224 145.353L277.733 139.745C277.705 139.432 277.81 139.126 278.031 138.906Z" fill="white"/>
</g>
<path opacity="0.9" d="M330.074 136.506C329.509 130.063 323.87 125.296 317.475 125.86C311.08 126.424 306.354 132.104 306.918 138.548C307.482 144.992 313.122 149.758 319.517 149.195C325.911 148.631 330.638 142.95 330.074 136.506Z" fill="white"/>
<path d="M312.489 132.447L311.169 132.563C310.829 132.593 310.576 132.896 310.606 133.239L311.152 139.481C311.182 139.824 311.483 140.079 311.824 140.049L313.144 139.933C313.485 139.903 313.737 139.6 313.707 139.256L313.161 133.015C313.131 132.671 312.83 132.417 312.489 132.447Z" fill="#407BFF"/>
<path d="M315.571 139.971C316.555 140.655 319.065 142.619 319.499 145.14C319.712 146.377 321.509 146.598 321.94 145.42C322.263 144.537 322.102 142.982 320.76 140.267L324.021 139.98C324.893 139.902 325.636 139.312 325.912 138.477C326.074 137.989 326.062 137.459 325.878 136.978L324.085 132.294C323.686 131.252 322.578 130.671 321.501 130.942L315.434 132.467C314.931 132.593 314.595 133.07 314.64 133.59L315.13 139.198C315.157 139.51 315.314 139.794 315.571 139.971Z" fill="#407BFF"/>
<path d="M278.318 170.211L271.43 170.818L272.132 178.787L279.021 178.179L278.318 170.211Z" fill="#407BFF"/>
<path opacity="0.9" d="M285.357 171.346L278.469 171.953L279.018 178.184L285.906 177.577L285.357 171.346Z" fill="white"/>
<path opacity="0.9" d="M298.426 162.031L291.537 162.639L292.8 176.964L299.688 176.357L298.426 162.031Z" fill="white"/>
<path opacity="0.9" d="M312.052 159.113L305.163 159.72L306.576 175.75L313.465 175.143L312.052 159.113Z" fill="white"/>
<path opacity="0.9" d="M326.14 161.473L319.252 162.08L320.35 174.541L327.239 173.934L326.14 161.473Z" fill="white"/>
<path d="M291.65 163.925L284.762 164.532L285.911 177.571L292.799 176.963L291.65 163.925Z" fill="#407BFF"/>
<path d="M305.011 158.01L298.122 158.617L299.686 176.361L306.575 175.754L305.011 158.01Z" fill="#407BFF"/>
<path d="M319.091 160.21L312.202 160.817L313.465 175.143L320.353 174.536L319.091 160.21Z" fill="#407BFF"/>
<path d="M332.17 151.066L325.281 151.673L327.243 173.929L334.131 173.322L332.17 151.066Z" fill="#407BFF"/>
<path opacity="0.8" d="M56.5713 112.969L62.2367 177.727L154.454 185.733L148.788 120.976L56.5713 112.969Z" fill="white"/>
<path d="M122.432 142.951L72.9413 138.654C70.8563 138.472 69.0194 136.649 68.8383 134.58L68.2146 127.448C68.0335 125.379 69.577 123.849 71.662 124.03L121.152 128.328C123.237 128.509 125.074 130.332 125.254 132.401L125.878 139.533C126.06 141.601 124.517 143.132 122.432 142.951Z" fill="white"/>
<path d="M81.122 132.11C81.339 134.585 79.4927 136.416 76.9982 136.199C74.5047 135.983 72.3074 133.801 72.0904 131.325C71.8744 128.85 73.7198 127.019 76.2142 127.236C78.7087 127.453 80.906 129.635 81.122 132.11Z" fill="#407BFF"/>
<path d="M86.9019 130.096C86.3604 130.048 85.884 129.575 85.8368 129.037C85.7896 128.499 86.1906 128.102 86.7321 128.149L117.064 130.782C117.605 130.83 118.083 131.303 118.129 131.84C118.176 132.378 117.775 132.775 117.234 132.728L86.9019 130.096Z" fill="#263238"/>
<path d="M87.5152 137.112C86.9737 137.065 86.4972 136.591 86.4501 136.054C86.4029 135.516 86.8038 135.119 87.3454 135.166L105.111 136.708C105.653 136.756 106.129 137.229 106.177 137.767C106.224 138.305 105.823 138.702 105.281 138.655L87.5152 137.112Z" fill="#263238"/>
<path d="M87.2076 133.605C86.6661 133.558 86.1896 133.085 86.1424 132.548C86.0953 132.01 86.4962 131.613 87.0378 131.66L112.766 133.894C113.307 133.941 113.784 134.415 113.831 134.952C113.878 135.489 113.477 135.887 112.935 135.84L87.2076 133.605Z" fill="#263238"/>
<g opacity="0.5">
<path d="M86.9019 130.096C86.3604 130.048 85.884 129.575 85.8368 129.037C85.7896 128.499 86.1906 128.102 86.7321 128.149L117.064 130.782C117.605 130.83 118.083 131.303 118.129 131.84C118.176 132.378 117.775 132.775 117.234 132.728L86.9019 130.096Z" fill="white"/>
<path d="M87.5152 137.112C86.9737 137.065 86.4972 136.591 86.4501 136.054C86.4029 135.516 86.8038 135.119 87.3454 135.166L105.111 136.708C105.653 136.756 106.129 137.229 106.177 137.767C106.224 138.305 105.823 138.702 105.281 138.655L87.5152 137.112Z" fill="white"/>
<path d="M87.2076 133.605C86.6661 133.558 86.1896 133.085 86.1424 132.548C86.0953 132.01 86.4962 131.613 87.0378 131.66L112.766 133.894C113.307 133.941 113.784 134.415 113.831 134.952C113.878 135.489 113.477 135.887 112.935 135.84L87.2076 133.605Z" fill="white"/>
</g>
<path d="M125.017 121.564L119.231 121.123C118.436 121.063 117.854 121.655 117.932 122.445L118.405 127.259C118.483 128.047 119.188 128.737 119.982 128.799L121.657 128.932L122.477 130.107C122.756 130.505 123.314 130.545 123.513 130.18L124.102 129.098L125.767 129.23C126.564 129.294 127.149 128.701 127.071 127.909L126.598 123.105C126.52 122.314 125.812 121.624 125.017 121.564Z" fill="#407BFF"/>
<g opacity="0.9">
<path d="M120.566 125.476C120.068 124.988 119.825 124.481 119.786 124.043C119.721 123.294 120.18 122.84 120.942 122.906C121.653 122.967 121.923 123.315 122.381 123.824C122.755 123.387 122.97 123.081 123.68 123.144C124.442 123.21 124.989 123.752 125.054 124.5C125.092 124.939 124.936 125.412 124.516 125.819L122.711 127.599L120.566 125.476Z" fill="white"/>
</g>
<path d="M135.959 161.268L86.4686 156.971C84.3836 156.79 82.5467 154.966 82.3656 152.897L81.742 145.766C81.5608 143.697 83.1043 142.166 85.1893 142.348L134.68 146.645C136.765 146.826 138.602 148.65 138.782 150.719L139.405 157.85C139.586 159.918 138.043 161.449 135.959 161.268Z" fill="white"/>
<path d="M94.6494 150.427C94.8654 152.902 93.02 154.733 90.5256 154.516C88.0311 154.299 85.8348 152.118 85.6178 149.642C85.4017 147.168 87.2471 145.337 89.7416 145.554C92.2351 145.771 94.4324 147.953 94.6494 150.427Z" fill="#407BFF"/>
<path d="M100.429 148.413C99.8877 148.366 99.4104 147.892 99.3641 147.354C99.3169 146.817 99.7179 146.42 100.259 146.467L130.591 149.1C131.133 149.147 131.61 149.621 131.656 150.158C131.704 150.696 131.303 151.093 130.761 151.046L100.429 148.413Z" fill="#263238"/>
<path d="M101.043 155.43C100.501 155.382 100.024 154.909 99.9774 154.371C99.9302 153.833 100.331 153.436 100.873 153.483L118.638 155.026C119.179 155.073 119.657 155.547 119.703 156.084C119.75 156.621 119.349 157.019 118.808 156.972L101.043 155.43Z" fill="#263238"/>
<path d="M100.735 151.922C100.193 151.875 99.717 151.401 99.6698 150.863C99.6226 150.326 100.024 149.928 100.565 149.975L126.293 152.21C126.834 152.257 127.311 152.73 127.358 153.267C127.405 153.805 127.004 154.202 126.463 154.155L100.735 151.922Z" fill="#263238"/>
<g opacity="0.5">
<path d="M100.429 148.413C99.8877 148.366 99.4104 147.892 99.3641 147.354C99.3169 146.817 99.7179 146.42 100.259 146.467L130.591 149.1C131.133 149.147 131.61 149.621 131.656 150.158C131.704 150.696 131.303 151.093 130.761 151.046L100.429 148.413Z" fill="white"/>
<path d="M101.043 155.43C100.501 155.382 100.024 154.909 99.9774 154.371C99.9302 153.833 100.331 153.436 100.873 153.483L118.638 155.026C119.179 155.073 119.657 155.547 119.703 156.084C119.75 156.621 119.349 157.019 118.808 156.972L101.043 155.43Z" fill="white"/>
<path d="M100.735 151.922C100.193 151.875 99.717 151.401 99.6698 150.863C99.6226 150.326 100.024 149.928 100.565 149.975L126.293 152.21C126.834 152.257 127.311 152.73 127.358 153.267C127.405 153.805 127.004 154.202 126.463 154.155L100.735 151.922Z" fill="white"/>
</g>
<path d="M138.543 139.881L132.756 139.441C131.961 139.38 131.379 139.972 131.457 140.763L131.931 145.576C132.008 146.365 132.713 147.054 133.507 147.117L135.182 147.25L136.003 148.424C136.281 148.822 136.84 148.862 137.039 148.497L137.627 147.416L139.293 147.548C140.09 147.611 140.675 147.019 140.596 146.226L140.124 141.422C140.045 140.631 139.338 139.942 138.543 139.881Z" fill="#407BFF"/>
<g opacity="0.9">
<path d="M134.093 143.791C133.595 143.304 133.352 142.797 133.314 142.358C133.249 141.61 133.707 141.155 134.469 141.221C135.18 141.283 135.451 141.631 135.908 142.139C136.283 141.702 136.497 141.397 137.207 141.459C137.97 141.525 138.516 142.067 138.581 142.816C138.62 143.253 138.463 143.727 138.043 144.134L136.238 145.914L134.093 143.791Z" fill="white"/>
</g>
<path d="M129.491 179.016L80.0009 174.72C77.9159 174.539 76.079 172.715 75.8978 170.646L75.2742 163.515C75.0931 161.446 76.6365 159.915 78.7216 160.097L128.212 164.393C130.297 164.574 132.134 166.398 132.314 168.467L132.938 175.598C133.12 177.667 131.576 179.198 129.491 179.016Z" fill="white"/>
<path d="M88.1816 168.173C88.3986 170.647 86.5523 172.478 84.0578 172.262C81.5633 172.045 79.3661 169.864 79.15 167.389C78.934 164.914 80.7793 163.083 83.2738 163.3C85.7683 163.516 87.9656 165.698 88.1816 168.173Z" fill="#407BFF"/>
<path d="M93.9615 166.158C93.42 166.111 92.9426 165.637 92.8963 165.101C92.8492 164.563 93.2501 164.166 93.7917 164.213L124.123 166.846C124.665 166.893 125.141 167.367 125.189 167.904C125.236 168.441 124.835 168.838 124.293 168.791L93.9615 166.158Z" fill="#263238"/>
<path d="M94.5748 173.175C94.0332 173.128 93.5568 172.654 93.5096 172.117C93.4625 171.579 93.8634 171.182 94.405 171.229L118.825 173.349C119.367 173.396 119.843 173.87 119.89 174.407C119.937 174.945 119.536 175.342 118.995 175.295L94.5748 173.175Z" fill="#263238"/>
<path d="M94.2691 169.667C93.7276 169.62 93.2502 169.146 93.204 168.609C93.1568 168.072 93.5578 167.674 94.0993 167.722L116.024 169.625C116.566 169.673 117.042 170.146 117.089 170.683C117.136 171.221 116.735 171.618 116.194 171.571L94.2691 169.667Z" fill="#263238"/>
<g opacity="0.5">
<path d="M93.9615 166.158C93.42 166.111 92.9426 165.637 92.8963 165.101C92.8492 164.563 93.2501 164.166 93.7917 164.213L124.123 166.846C124.665 166.893 125.141 167.367 125.189 167.904C125.236 168.441 124.835 168.838 124.293 168.791L93.9615 166.158Z" fill="white"/>
<path d="M94.5748 173.175C94.0332 173.128 93.5568 172.654 93.5096 172.117C93.4625 171.579 93.8634 171.182 94.405 171.229L118.825 173.349C119.367 173.396 119.843 173.87 119.89 174.407C119.937 174.945 119.536 175.342 118.995 175.295L94.5748 173.175Z" fill="white"/>
<path d="M94.2691 169.667C93.7276 169.62 93.2502 169.146 93.204 168.609C93.1568 168.072 93.5578 167.674 94.0993 167.722L116.024 169.625C116.566 169.673 117.042 170.146 117.089 170.683C117.136 171.221 116.735 171.618 116.194 171.571L94.2691 169.667Z" fill="white"/>
</g>
<path d="M132.243 159.53L126.457 159.089C125.661 159.029 125.079 159.62 125.157 160.411L125.631 165.224C125.708 166.013 126.413 166.703 127.208 166.765L128.882 166.898L129.703 168.073C129.981 168.471 130.54 168.51 130.739 168.145L131.328 167.064L132.993 167.196C133.79 167.259 134.375 166.667 134.297 165.874L133.824 161.07C133.746 160.281 133.038 159.59 132.243 159.53Z" fill="#407BFF"/>
<path opacity="0.9" d="M127.828 164.929C127.592 164.908 127.384 164.701 127.363 164.467L127.221 162.847C127.201 162.612 127.376 162.44 127.612 162.46C127.848 162.48 128.056 162.687 128.077 162.921L128.219 164.541C128.239 164.776 128.065 164.948 127.828 164.929Z" fill="white"/>
<path opacity="0.9" d="M128.632 162.466C128.917 162.24 129.631 161.592 129.629 160.761C129.628 160.354 130.209 160.28 130.419 160.669C130.576 160.96 130.613 161.473 130.326 162.369L131.419 162.464C131.71 162.49 131.99 162.684 132.129 162.959C132.211 163.121 132.238 163.295 132.205 163.454L131.883 164.999C131.811 165.343 131.479 165.534 131.11 165.445L129.021 164.942C128.847 164.901 128.709 164.743 128.694 164.572L128.532 162.722C128.522 162.618 128.557 162.524 128.632 162.466Z" fill="white"/>
<path opacity="0.8" d="M154.47 121.222L160.135 185.98H251.652L245.987 121.222H154.47Z" fill="white"/>
<g opacity="0.2">
<path d="M157.281 185.679C156.891 185.679 156.546 185.362 156.511 184.971L154.727 164.582C154.693 164.191 154.982 163.874 155.373 163.874C155.763 163.874 156.108 164.191 156.142 164.582L157.927 184.971C157.961 185.362 157.672 185.679 157.281 185.679Z" fill="black"/>
</g>
<g opacity="0.2">
<path d="M155.166 161.515C154.776 161.515 154.431 161.198 154.396 160.807L151.865 131.875C151.831 131.484 152.12 131.167 152.51 131.167C152.901 131.167 153.245 131.484 153.28 131.875L155.811 160.807C155.846 161.198 155.558 161.515 155.166 161.515Z" fill="black"/>
</g>
<g opacity="0.2">
<path d="M152.319 128.966C151.928 128.966 151.584 128.649 151.549 128.259L151.021 122.232C150.987 121.841 151.276 121.524 151.667 121.524C152.057 121.524 152.402 121.841 152.436 122.232L152.964 128.259C152.999 128.649 152.709 128.966 152.319 128.966Z" fill="black"/>
</g>
<g opacity="0.2">
<path d="M254.452 185.679C254.061 185.679 253.717 185.362 253.682 184.972L251.087 155.304C251.053 154.914 251.341 154.597 251.732 154.597C252.123 154.597 252.467 154.914 252.502 155.304L255.097 184.972C255.131 185.362 254.843 185.679 254.452 185.679Z" fill="black"/>
</g>
<g opacity="0.2">
<path d="M251.555 152.551C251.165 152.551 250.82 152.234 250.785 151.843L248.763 128.729C248.729 128.338 249.018 128.021 249.409 128.021C249.799 128.021 250.144 128.338 250.179 128.729L252.2 151.843C252.234 152.235 251.946 152.551 251.555 152.551Z" fill="black"/>
</g>
<g opacity="0.2">
<path d="M249.166 125.245C248.775 125.245 248.431 124.928 248.396 124.538L248.194 122.232C248.16 121.841 248.449 121.524 248.839 121.524C249.23 121.524 249.574 121.841 249.609 122.232L249.811 124.538C249.845 124.928 249.556 125.245 249.166 125.245Z" fill="black"/>
</g>
<path d="M235.313 149.731C235.266 149.194 235.663 148.759 236.201 148.759C236.739 148.759 237.213 149.195 237.26 149.731L238.379 162.527C238.426 163.065 238.029 163.5 237.491 163.5C236.954 163.5 236.479 163.064 236.433 162.527L235.313 149.731Z" fill="#407BFF"/>
<path d="M161.355 126.669C160.818 126.669 160.344 126.233 160.297 125.696C160.25 125.159 160.648 124.724 161.185 124.724H183.415C183.953 124.724 184.426 125.16 184.473 125.696C184.52 126.234 184.123 126.669 183.585 126.669H161.355Z" fill="#263238"/>
<path d="M161.97 133.686C161.433 133.686 160.958 133.25 160.912 132.713C160.865 132.175 161.262 131.74 161.8 131.74H180.256C180.793 131.74 181.268 132.176 181.314 132.713C181.361 133.251 180.963 133.686 180.426 133.686H161.97Z" fill="#263238"/>
<path d="M161.663 130.178C161.125 130.178 160.652 129.742 160.604 129.205C160.557 128.667 160.955 128.232 161.492 128.232H176.175C176.713 128.232 177.186 128.668 177.234 129.205C177.281 129.743 176.883 130.178 176.346 130.178H161.663Z" fill="#263238"/>
<g opacity="0.5">
<path d="M161.355 126.669C160.818 126.669 160.344 126.233 160.297 125.696C160.25 125.159 160.648 124.724 161.185 124.724H183.415C183.953 124.724 184.426 125.16 184.473 125.696C184.52 126.234 184.123 126.669 183.585 126.669H161.355Z" fill="white"/>
<path d="M161.97 133.686C161.433 133.686 160.958 133.25 160.912 132.713C160.865 132.175 161.262 131.74 161.8 131.74H180.256C180.793 131.74 181.268 132.176 181.314 132.713C181.361 133.251 180.963 133.686 180.426 133.686H161.97Z" fill="white"/>
<path d="M161.663 130.178C161.125 130.178 160.652 129.742 160.604 129.205C160.557 128.667 160.955 128.232 161.492 128.232H176.175C176.713 128.232 177.186 128.668 177.234 129.205C177.281 129.743 176.883 130.178 176.346 130.178H161.663Z" fill="white"/>
</g>
<path d="M240.624 141.758C240.868 144.538 238.811 146.793 236.03 146.793C233.248 146.793 230.797 144.539 230.555 141.758C230.311 138.977 232.368 136.723 235.149 136.723C237.93 136.724 240.381 138.977 240.624 141.758Z" fill="#407BFF"/>
<path d="M233.111 144.161C232.804 144.161 232.534 143.912 232.507 143.605L232.321 141.485C232.295 141.179 232.521 140.93 232.828 140.93C233.135 140.93 233.405 141.179 233.432 141.485L233.618 143.605C233.645 143.913 233.418 144.161 233.111 144.161Z" fill="white"/>
<path d="M234.153 140.822C234.523 140.492 235.451 139.556 235.447 138.46C235.445 137.923 236.198 137.76 236.471 138.248C236.676 138.614 236.724 139.286 236.353 140.499H237.771C238.151 140.499 238.513 140.724 238.694 141.072C238.8 141.275 238.835 141.502 238.792 141.715L238.376 143.789C238.284 144.25 237.853 144.541 237.371 144.465L234.658 144.042C234.434 144.007 234.253 143.815 234.234 143.591L234.022 141.17C234.011 141.035 234.057 140.908 234.153 140.822Z" fill="white"/>
<path d="M243.14 170.5C242.896 167.72 240.445 165.465 237.665 165.465C234.885 165.465 232.827 167.719 233.07 170.5C233.314 173.28 235.765 175.535 238.545 175.535C241.325 175.535 243.383 173.28 243.14 170.5Z" fill="#407BFF"/>
<path d="M235.207 168.099C234.9 168.099 234.673 168.348 234.7 168.654L234.886 170.774C234.914 171.081 235.183 171.33 235.49 171.33C235.797 171.33 236.024 171.081 235.997 170.774L235.811 168.654C235.784 168.348 235.514 168.099 235.207 168.099Z" fill="white"/>
<path d="M236.831 171.436C237.259 171.766 238.349 172.702 238.538 173.797C238.631 174.335 239.412 174.497 239.599 174.01C239.74 173.643 239.67 172.972 239.087 171.758H240.505C240.884 171.758 241.207 171.534 241.328 171.186C241.399 170.983 241.393 170.756 241.314 170.543L240.535 168.47C240.362 168.008 239.881 167.718 239.413 167.793L236.774 168.217C236.555 168.252 236.409 168.443 236.429 168.668L236.64 171.088C236.652 171.223 236.72 171.35 236.831 171.436Z" fill="white"/>
<path d="M222.762 174.974C232.275 165.036 231.194 148.562 220.347 138.18C209.501 127.797 192.996 127.437 183.483 137.375C173.97 147.314 175.051 163.787 185.897 174.169C196.744 184.552 213.249 184.912 222.762 174.974Z" fill="#407BFF"/>
<path opacity="0.6" d="M219.909 137.769C214.788 133.059 208.027 130.146 200.841 130.146C186.468 130.146 175.837 141.798 177.094 156.17H203.117L219.909 137.769Z" fill="white"/>
<path opacity="0.2" d="M183.105 137.769L203.117 156.17L200.84 130.146C193.654 130.146 187.403 133.06 183.105 137.769Z" fill="black"/>
<path d="M183.105 137.769L203.117 156.17L200.84 130.146C193.654 130.146 187.403 133.06 183.105 137.769Z" fill="#407BFF"/>
<path opacity="0.3" d="M183.105 137.769L203.117 156.17L200.84 130.146C193.654 130.146 187.403 133.06 183.105 137.769Z" fill="black"/>
<path opacity="0.3" d="M205.392 182.193C219.765 182.193 230.396 170.541 229.139 156.17H203.116L186.324 174.571C191.445 179.281 198.206 182.193 205.392 182.193Z" fill="white"/>
<path d="M222.423 177.746C222.729 181.239 220.145 184.072 216.651 184.072C213.158 184.072 210.078 181.239 209.773 177.746C209.467 174.252 212.051 171.42 215.545 171.42C219.037 171.42 222.117 174.252 222.423 177.746Z" fill="#263238"/>
<path d="M213.901 178.797C213.324 178.275 213.043 177.702 212.998 177.191C212.922 176.317 213.453 175.735 214.336 175.735C215.159 175.735 215.474 176.117 216.003 176.668C216.437 176.117 216.685 175.735 217.507 175.735C218.39 175.735 219.023 176.317 219.1 177.191C219.144 177.702 218.964 178.275 218.477 178.797L216.388 181.075L213.901 178.797Z" fill="#407BFF"/>
<path d="M186.737 146.048C187.042 149.542 184.458 152.374 180.965 152.374C177.471 152.374 174.392 149.542 174.086 146.048C173.78 142.555 176.364 139.723 179.858 139.723C183.352 139.723 186.431 142.555 186.737 146.048Z" fill="#263238"/>
<path d="M184.396 146.049C184.588 148.249 182.961 150.033 180.76 150.033C178.56 150.033 176.62 148.249 176.427 146.049C176.234 143.848 177.862 142.064 180.063 142.064C182.264 142.064 184.203 143.848 184.396 146.049Z" fill="#407BFF"/>
<path opacity="0.5" d="M184.396 146.049C184.588 148.249 182.961 150.033 180.76 150.033C178.56 150.033 176.62 148.249 176.427 146.049C176.234 143.848 177.862 142.064 180.063 142.064C182.264 142.064 184.203 143.848 184.396 146.049Z" fill="white"/>
<path d="M181.872 146.891C181.126 147.639 179.978 147.641 179.101 146.891C178.751 146.593 178.307 147.076 178.659 147.375C179.837 148.38 181.397 148.38 182.399 147.375C182.697 147.076 182.17 146.593 181.872 146.891Z" fill="#407BFF"/>
<path d="M179.347 144.751C179.385 145.184 179.265 145.536 179.079 145.536C178.892 145.536 178.71 145.185 178.672 144.751C178.634 144.317 178.755 143.966 178.941 143.966C179.128 143.966 179.31 144.317 179.347 144.751Z" fill="#407BFF"/>
<path d="M181.928 144.751C181.965 145.184 181.845 145.536 181.659 145.536C181.472 145.536 181.29 145.185 181.252 144.751C181.214 144.317 181.335 143.966 181.521 143.966C181.708 143.966 181.89 144.317 181.928 144.751Z" fill="#407BFF"/>
<path d="M225.361 140.297C225.666 143.791 223.082 146.623 219.589 146.623C216.095 146.623 213.016 143.791 212.71 140.297C212.404 136.804 214.989 133.972 218.482 133.972C221.976 133.972 225.055 136.804 225.361 140.297Z" fill="#263238"/>
<path d="M223.021 140.298C223.213 142.498 221.586 144.282 219.385 144.282C217.185 144.282 215.244 142.498 215.053 140.298C214.86 138.098 216.488 136.313 218.689 136.313C220.888 136.313 222.828 138.098 223.021 140.298Z" fill="#407BFF"/>
<path opacity="0.5" d="M223.021 140.298C223.213 142.498 221.586 144.282 219.385 144.282C217.185 144.282 215.244 142.498 215.053 140.298C214.86 138.098 216.488 136.313 218.689 136.313C220.888 136.313 222.828 138.098 223.021 140.298Z" fill="white"/>
<path d="M217.826 142.286C218.571 141.539 219.719 141.537 220.597 142.286C220.947 142.585 221.39 142.101 221.038 141.802C219.861 140.798 218.3 140.798 217.298 141.802C217 142.101 217.528 142.585 217.826 142.286Z" fill="#407BFF"/>
<path d="M217.971 139C218.009 139.434 217.888 139.785 217.703 139.785C217.516 139.785 217.334 139.434 217.296 139C217.258 138.567 217.379 138.215 217.565 138.215C217.752 138.215 217.934 138.566 217.971 139Z" fill="#407BFF"/>
<path d="M220.552 139C220.589 139.434 220.469 139.785 220.283 139.785C220.096 139.785 219.914 139.434 219.876 139C219.838 138.567 219.958 138.215 220.145 138.215C220.332 138.215 220.514 138.566 220.552 139Z" fill="#407BFF"/>
<path d="M187.262 165.464C187.568 168.958 184.984 171.79 181.49 171.79C177.997 171.79 174.917 168.958 174.611 165.464C174.306 161.971 176.89 159.139 180.383 159.139C183.876 159.14 186.956 161.971 187.262 165.464Z" fill="#263238"/>
<path d="M184.92 165.465C185.113 167.665 183.485 169.449 181.284 169.449C179.084 169.449 177.143 167.665 176.952 165.465C176.76 163.265 178.387 161.48 180.588 161.48C182.788 161.48 184.728 163.265 184.92 165.465Z" fill="#407BFF"/>
<path opacity="0.5" d="M184.92 165.465C185.113 167.665 183.485 169.449 181.284 169.449C179.084 169.449 177.143 167.665 176.952 165.465C176.76 163.265 178.387 161.48 180.588 161.48C182.788 161.48 184.728 163.265 184.92 165.465Z" fill="white"/>
<path d="M179.07 166.728C180.258 167.819 182.028 167.819 183.024 166.728L182.966 166.062H179.012L179.07 166.728Z" fill="#407BFF"/>
<path d="M180.41 164.27C179.831 163.811 179.174 163.811 178.675 164.27C178.442 164.484 178.839 164.846 179.071 164.633C179.366 164.361 179.737 164.361 180.079 164.633C180.348 164.845 180.681 164.484 180.41 164.27Z" fill="#407BFF"/>
<path d="M182.99 164.27C182.411 163.811 181.754 163.811 181.255 164.27C181.022 164.484 181.419 164.846 181.651 164.633C181.946 164.361 182.317 164.361 182.659 164.633C182.928 164.845 183.261 164.484 182.99 164.27Z" fill="#407BFF"/>
<path d="M252.732 210.656H223.473V215.412H281.991V213.457L252.732 210.656Z" fill="#407BFF"/>
<path opacity="0.6" d="M252.732 210.656H223.473V215.412H281.991V213.457L252.732 210.656Z" fill="white"/>
<path opacity="0.6" d="M252.732 215.412H223.473V210.656L252.732 213.457V215.412Z" fill="white"/>
<g opacity="0.5">
<path d="M346.465 158.978L342.44 112.969L336.992 113.449L313.654 180.764L339.708 178.466L346.465 158.978Z" fill="white"/>
</g>
<g opacity="0.5">
<path d="M222.568 185.98L245.02 121.222H219.763L197.311 185.98H222.568Z" fill="white"/>
</g>
<path opacity="0.5" d="M131.204 183.715L149.628 130.571L148.789 120.976L128.314 119.197L106.685 181.585L131.204 183.715Z" fill="white"/>
<path d="M298.859 224.712H114.122C113.223 224.712 112.496 223.985 112.496 223.087V219.076H300.483V223.087C300.483 223.985 299.756 224.712 298.859 224.712Z" fill="#407BFF"/>
<path opacity="0.2" d="M298.859 224.712H114.122C113.223 224.712 112.496 223.985 112.496 223.087V219.076H300.483V223.087C300.483 223.985 299.756 224.712 298.859 224.712Z" fill="black"/>
<path opacity="0.3" d="M197.595 224.712H114.122C113.223 224.712 112.496 223.985 112.496 223.087V219.076H197.595V224.712Z" fill="white"/>
<path d="M304.312 220.128H108.668C107.61 220.128 106.751 219.27 106.751 218.211V217.328C106.751 216.27 107.61 215.411 108.668 215.411H304.312C305.371 215.411 306.229 216.27 306.229 217.328V218.211C306.229 219.27 305.371 220.128 304.312 220.128Z" fill="#407BFF"/>
<path opacity="0.4" d="M197.595 220.128H108.668C107.61 220.128 106.751 219.27 106.751 218.211V217.328C106.751 216.27 107.61 215.411 108.668 215.411H197.595V220.128Z" fill="white"/>
<path d="M187.67 338.138H122.421C118.509 338.138 115.327 334.956 115.327 331.043V231.818C115.327 227.907 118.509 224.726 122.421 224.726H187.67C191.582 224.726 194.765 227.908 194.765 231.818V331.043C194.765 334.955 191.583 338.138 187.67 338.138ZM122.421 228.499C120.591 228.499 119.101 229.988 119.101 231.818V331.043C119.101 332.874 120.591 334.364 122.421 334.364H187.67C189.502 334.364 190.991 332.875 190.991 331.043V231.818C190.991 229.988 189.502 228.499 187.67 228.499H122.421Z" fill="#263238"/>
<g opacity="0.4">
<path opacity="0.2" d="M187.67 338.138H122.421C118.509 338.138 115.327 334.956 115.327 331.043V231.818C115.327 227.907 118.509 224.726 122.421 224.726H187.67C191.582 224.726 194.765 227.908 194.765 231.818V331.043C194.765 334.955 191.583 338.138 187.67 338.138ZM122.421 228.499C120.591 228.499 119.101 229.988 119.101 231.818V331.043C119.101 332.874 120.591 334.364 122.421 334.364H187.67C189.502 334.364 190.991 332.875 190.991 331.043V231.818C190.991 229.988 189.502 228.499 187.67 228.499H122.421Z" fill="white"/>
</g>
<path opacity="0.2" d="M187.671 224.726H122.421C118.752 224.726 115.725 227.527 115.364 231.102H119.184C119.514 229.616 120.838 228.499 122.421 228.499H187.671C189.255 228.499 190.579 229.615 190.909 231.102H194.729C194.368 227.526 191.341 224.726 187.671 224.726Z" fill="black"/>
<path d="M289.238 338.138H223.988C220.077 338.138 216.895 334.956 216.895 331.043V231.818C216.895 227.907 220.077 224.726 223.988 224.726H289.238C293.149 224.726 296.333 227.908 296.333 231.818V331.043C296.333 334.955 293.15 338.138 289.238 338.138ZM223.988 228.499C222.158 228.499 220.668 229.988 220.668 231.818V331.043C220.668 332.874 222.158 334.364 223.988 334.364H289.238C291.069 334.364 292.559 332.875 292.559 331.043V231.818C292.559 229.988 291.069 228.499 289.238 228.499H223.988Z" fill="#263238"/>
<path opacity="0.1" d="M289.238 338.138H223.988C220.077 338.138 216.895 334.956 216.895 331.043V231.818C216.895 227.907 220.077 224.726 223.988 224.726H289.238C293.149 224.726 296.333 227.908 296.333 231.818V331.043C296.333 334.955 293.15 338.138 289.238 338.138ZM223.988 228.499C222.158 228.499 220.668 229.988 220.668 231.818V331.043C220.668 332.874 222.158 334.364 223.988 334.364H289.238C291.069 334.364 292.559 332.875 292.559 331.043V231.818C292.559 229.988 291.069 228.499 289.238 228.499H223.988Z" fill="white"/>
<path opacity="0.2" d="M289.238 224.726H223.989C220.32 224.726 217.292 227.527 216.932 231.102H220.752C221.081 229.616 222.405 228.499 223.989 228.499H289.238C290.822 228.499 292.147 229.615 292.476 231.102H296.296C295.936 227.526 292.908 224.726 289.238 224.726Z" fill="black"/>
<path d="M171.903 248.039H98.93C94.5411 248.039 90.9834 251.597 90.9834 255.986V330.558C90.9834 334.947 94.5411 338.505 98.93 338.505H171.903C176.292 338.505 179.849 334.947 179.849 330.558V255.986C179.849 251.597 176.292 248.039 171.903 248.039Z" fill="#407BFF"/>
<path opacity="0.4" d="M171.903 248.039H98.93C94.5411 248.039 90.9834 251.597 90.9834 255.986V330.558C90.9834 334.947 94.5411 338.505 98.93 338.505H171.903C176.292 338.505 179.849 334.947 179.849 330.558V255.986C179.849 251.597 176.292 248.039 171.903 248.039Z" fill="white"/>
<path opacity="0.1" d="M90.9834 330.495V330.558C90.9834 334.947 94.5411 338.505 98.93 338.505H171.903C176.292 338.505 179.849 334.947 179.849 330.558V330.495H90.9834Z" fill="black"/>
<path d="M171.903 338.505H151.672C147.283 338.505 143.726 334.947 143.726 330.558V255.986C143.726 251.597 147.283 248.039 151.672 248.039H171.903C176.291 248.039 179.849 251.597 179.849 255.986V330.558C179.849 334.947 176.291 338.505 171.903 338.505Z" fill="#407BFF"/>
<path opacity="0.3" d="M171.903 334.259C173.944 334.259 175.604 332.599 175.604 330.558V255.985C175.604 253.945 173.944 252.284 171.903 252.284H151.673C149.632 252.284 147.972 253.945 147.972 255.985V330.558C147.972 332.599 149.632 334.259 151.673 334.259H171.903Z" fill="white"/>
<path opacity="0.7" d="M172.873 258.183H150.702V264.079H172.873V258.183Z" fill="white"/>
<path opacity="0.7" d="M172.873 265.259H150.702V271.155H172.873V265.259Z" fill="white"/>
<path d="M161.788 297.891C164.339 297.891 166.406 295.823 166.406 293.272C166.406 290.722 164.339 288.654 161.788 288.654C159.238 288.654 157.17 290.722 157.17 293.272C157.17 295.823 159.238 297.891 161.788 297.891Z" fill="#407BFF"/>
<g opacity="0.9">
<path d="M162.862 292.359C163.747 293.319 163.152 294.945 161.788 294.951C160.421 294.957 159.835 293.313 160.715 292.359C161.155 291.882 160.442 291.165 160 291.645C158.532 293.237 159.517 295.962 161.787 295.962C164.059 295.962 165.043 293.237 163.575 291.645C163.135 291.166 162.42 291.882 162.862 292.359Z" fill="white"/>
<path d="M161.282 290.58C161.282 291.347 161.282 292.115 161.282 292.882C161.282 293.532 162.293 293.533 162.293 292.882C162.293 292.115 162.293 291.347 162.293 290.58C162.293 289.93 161.282 289.929 161.282 290.58Z" fill="white"/>
</g>
<path d="M153.042 308.342C153.824 308.342 154.457 307.708 154.457 306.927C154.457 306.145 153.824 305.512 153.042 305.512C152.261 305.512 151.627 306.145 151.627 306.927C151.627 307.708 152.261 308.342 153.042 308.342Z" fill="#407BFF"/>
<path d="M158.872 308.342C159.654 308.342 160.287 307.708 160.287 306.927C160.287 306.145 159.654 305.512 158.872 305.512C158.091 305.512 157.457 306.145 157.457 306.927C157.457 307.708 158.091 308.342 158.872 308.342Z" fill="#407BFF"/>
<path d="M164.702 308.342C165.484 308.342 166.117 307.708 166.117 306.927C166.117 306.145 165.484 305.512 164.702 305.512C163.921 305.512 163.287 306.145 163.287 306.927C163.287 307.708 163.921 308.342 164.702 308.342Z" fill="#407BFF"/>
<path d="M170.532 308.342C171.314 308.342 171.948 307.708 171.948 306.927C171.948 306.145 171.314 305.512 170.532 305.512C169.751 305.512 169.117 306.145 169.117 306.927C169.117 307.708 169.751 308.342 170.532 308.342Z" fill="#407BFF"/>
<path d="M155.957 313.374C156.739 313.374 157.372 312.741 157.372 311.959C157.372 311.178 156.739 310.544 155.957 310.544C155.176 310.544 154.542 311.178 154.542 311.959C154.542 312.741 155.176 313.374 155.957 313.374Z" fill="#407BFF"/>
<path d="M161.787 313.374C162.569 313.374 163.202 312.741 163.202 311.959C163.202 311.178 162.569 310.544 161.787 310.544C161.006 310.544 160.372 311.178 160.372 311.959C160.372 312.741 161.006 313.374 161.787 313.374Z" fill="#407BFF"/>
<path d="M167.617 313.374C168.399 313.374 169.032 312.741 169.032 311.959C169.032 311.178 168.399 310.544 167.617 310.544C166.836 310.544 166.202 311.178 166.202 311.959C166.202 312.741 166.836 313.374 167.617 313.374Z" fill="#407BFF"/>
<path d="M153.042 318.947C153.824 318.947 154.457 318.313 154.457 317.531C154.457 316.75 153.824 316.116 153.042 316.116C152.261 316.116 151.627 316.75 151.627 317.531C151.627 318.313 152.261 318.947 153.042 318.947Z" fill="#407BFF"/>
<path d="M158.872 318.947C159.654 318.947 160.287 318.313 160.287 317.531C160.287 316.75 159.654 316.116 158.872 316.116C158.091 316.116 157.457 316.75 157.457 317.531C157.457 318.313 158.091 318.947 158.872 318.947Z" fill="#407BFF"/>
<path d="M164.702 318.947C165.484 318.947 166.117 318.313 166.117 317.531C166.117 316.75 165.484 316.116 164.702 316.116C163.921 316.116 163.287 316.75 163.287 317.531C163.287 318.313 163.921 318.947 164.702 318.947Z" fill="#407BFF"/>
<path d="M170.532 318.947C171.314 318.947 171.948 318.313 171.948 317.531C171.948 316.75 171.314 316.116 170.532 316.116C169.751 316.116 169.117 316.75 169.117 317.531C169.117 318.313 169.751 318.947 170.532 318.947Z" fill="#407BFF"/>
<path d="M155.957 323.979C156.739 323.979 157.372 323.345 157.372 322.564C157.372 321.782 156.739 321.148 155.957 321.148C155.176 321.148 154.542 321.782 154.542 322.564C154.542 323.345 155.176 323.979 155.957 323.979Z" fill="#407BFF"/>
<path d="M161.787 323.979C162.569 323.979 163.202 323.345 163.202 322.564C163.202 321.782 162.569 321.148 161.787 321.148C161.006 321.148 160.372 321.782 160.372 322.564C160.372 323.345 161.006 323.979 161.787 323.979Z" fill="#407BFF"/>
<path d="M167.617 323.979C168.399 323.979 169.032 323.345 169.032 322.564C169.032 321.782 168.399 321.148 167.617 321.148C166.836 321.148 166.202 321.782 166.202 322.564C166.202 323.345 166.836 323.979 167.617 323.979Z" fill="#407BFF"/>
<path d="M153.042 329.553C153.824 329.553 154.457 328.919 154.457 328.138C154.457 327.356 153.824 326.723 153.042 326.723C152.261 326.723 151.627 327.356 151.627 328.138C151.627 328.919 152.261 329.553 153.042 329.553Z" fill="#407BFF"/>
<path d="M158.872 329.553C159.654 329.553 160.287 328.919 160.287 328.138C160.287 327.356 159.654 326.723 158.872 326.723C158.091 326.723 157.457 327.356 157.457 328.138C157.457 328.919 158.091 329.553 158.872 329.553Z" fill="#407BFF"/>
<path d="M164.702 329.553C165.484 329.553 166.117 328.919 166.117 328.138C166.117 327.356 165.484 326.723 164.702 326.723C163.921 326.723 163.287 327.356 163.287 328.138C163.287 328.919 163.921 329.553 164.702 329.553Z" fill="#407BFF"/>
<path d="M170.532 329.553C171.314 329.553 171.948 328.919 171.948 328.138C171.948 327.356 171.314 326.723 170.532 326.723C169.751 326.723 169.117 327.356 169.117 328.138C169.117 328.919 169.751 329.553 170.532 329.553Z" fill="#407BFF"/>
<path d="M282.21 206.266L276.511 203.697L268.521 207.03V211.007C268.521 211.007 280.925 210.593 280.922 210.613C280.922 210.613 294.912 215.271 300.079 214.555C305.246 213.838 321.7 190.907 321.7 190.907L313.433 183.67L297.695 206.099L282.21 206.266Z" fill="#FCC1BB"/>
<path opacity="0.1" d="M282.21 206.266L276.511 203.697L268.521 207.03V211.007C268.521 211.007 280.925 210.593 280.922 210.613C280.922 210.613 281.272 210.73 281.881 210.922L285.884 206.227L282.21 206.266Z" fill="black"/>
<path d="M307.868 190.189C307.868 190.189 313.591 180.013 317.248 176.788C319.468 174.83 322.561 174.221 324.65 174.044C325.963 173.933 327.087 174.975 327.097 176.293C327.127 180.314 326.079 189.065 317.805 198.071L307.868 190.189Z" fill="#263238"/>
<path d="M307.868 188.272C307.868 188.272 314.836 191.551 318.917 198L316.691 199.72C316.691 199.72 312.153 193.996 306.477 190.709L307.868 188.272Z" fill="#407BFF"/>
<path d="M293.884 151.535L291.061 155.973C291.061 155.973 292.532 157.059 294.592 156.32L293.884 151.535Z" fill="#EB827E"/>
<path d="M293.403 154.342C291.67 154.342 290.261 152.835 290.261 150.981C290.261 149.128 291.671 147.619 293.403 147.619C295.136 147.619 296.546 149.127 296.546 150.981C296.546 152.835 295.136 154.342 293.403 154.342ZM293.403 148.328C292.061 148.328 290.968 149.518 290.968 150.982C290.968 152.445 292.061 153.635 293.403 153.635C294.746 153.635 295.838 152.445 295.838 150.982C295.838 149.518 294.746 148.328 293.403 148.328Z" fill="#407BFF"/>
<path d="M292.183 150.917C292.177 151.49 292.468 151.96 292.843 151.964C293.219 151.969 293.553 151.485 293.543 150.928C293.534 150.372 293.258 149.887 292.882 149.888C292.505 149.888 292.195 150.345 292.183 150.917Z" fill="#1A2E35"/>
<path d="M314.283 147.339C314.535 154.951 314.807 158.174 311.353 162.421C305.886 166.929 296.737 167.46 294.217 160.069C291.945 153.42 291.915 142.115 299.043 138.358C304.124 135.682 310.412 137.632 313.089 142.713C313.84 144.141 314.248 145.725 314.283 147.339Z" fill="#FCC1BB"/>
<path opacity="0.2" d="M303.59 165.662L303.535 165.29C303.414 164.465 302.599 163.933 301.795 164.154L298.7 165.002C300.188 165.625 301.869 165.826 303.59 165.662Z" fill="#1A2E35"/>
<path d="M294.244 148.323C294.144 148.334 294.044 148.296 293.978 148.219C293.506 147.626 292.777 147.295 292.019 147.333C291.857 147.353 291.708 147.239 291.685 147.077C291.667 146.912 291.784 146.763 291.947 146.741C292.905 146.673 293.836 147.079 294.437 147.829C294.544 147.956 294.529 148.146 294.403 148.253L294.403 148.254C294.356 148.29 294.302 148.314 294.244 148.323Z" fill="#1A2E35"/>
<path d="M303.307 163.739L304.975 175.047L314.418 173.092L311.393 161.519L303.307 163.739Z" fill="#FCC1BB"/>
<path d="M293.847 141.167C297.059 147.285 299.285 141.689 298.696 146.621C298.105 151.551 299.877 153.149 299.877 153.149L306.345 162.796C306.688 163.306 307.344 163.474 307.907 163.228C309.585 162.492 310.674 162.653 311.272 162.897C311.692 163.068 312.163 163.018 312.503 162.717C313.964 161.424 317.43 157.72 318.494 150.927C320.58 137.617 310.352 135.588 310.352 135.588C304.669 134.407 306.125 128.383 302.747 128.384C300.171 128.385 300.93 132.624 300.93 132.624C300.93 132.624 298.171 130.557 296.572 131.261C294.506 132.17 296.338 136.41 296.338 136.41C296.338 136.41 290.697 135.169 293.847 141.167Z" fill="#1A2E35"/>
<path d="M300.498 149.566H291.061L291.515 148.622H300.498V149.566Z" fill="#407BFF"/>
<path d="M298.561 150.732C298.287 152.264 298.635 153.842 299.529 155.116C300.726 156.798 302.633 156.048 303.394 154.252C304.085 152.625 304.28 149.804 302.547 148.753C300.815 147.701 298.917 148.862 298.561 150.732Z" fill="#FFC3BD"/>
<path d="M300.761 170.91C300.761 170.91 306.823 165.18 313.183 165.643C317.507 165.957 318.844 171.382 318.844 171.382L300.761 170.91Z" fill="#263238"/>
<path opacity="0.2" d="M300.761 170.91C300.761 170.91 306.823 165.18 313.183 165.643C317.507 165.957 318.844 171.382 318.844 171.382L300.761 170.91Z" fill="white"/>
<path d="M304.855 240.255L291.569 175.387C291.037 172.79 292.792 170.405 295.399 170.188C303.733 169.492 320.537 168.821 326.156 173.978C339.254 186.003 340.293 241.199 340.293 241.199L304.855 240.255Z" fill="#263238"/>
<path opacity="0.5" d="M295.336 174.371C295.336 174.371 293.222 175.181 291.814 176.584L296.185 197.923C300.089 189.178 299.821 174.371 299.821 174.371H295.336Z" fill="black"/>
<path d="M255.726 205.454L250.089 202.636L242.188 206.292V210.655C242.188 210.655 254.455 210.201 254.452 210.223C254.452 210.223 268.29 215.334 273.399 214.547C278.51 213.761 294.785 188.602 294.785 188.602L286.608 180.661L271.041 205.269L255.726 205.454Z" fill="#FCC1BB"/>
<path d="M281.106 187.815C281.106 187.815 286.767 176.651 290.383 173.113C294 169.575 299.964 170.051 299.964 170.051C299.964 170.051 302.087 182.998 290.933 196.463L281.106 187.815Z" fill="#263238"/>
<path d="M281.105 185.712C281.105 185.712 287.997 189.309 292.033 196.385L289.832 198.272C289.832 198.272 285.343 191.992 279.729 188.386L281.105 185.712Z" fill="#263238"/>
<path opacity="0.2" d="M281.105 185.712C281.105 185.712 287.997 189.309 292.033 196.385L289.832 198.272C289.832 198.272 285.343 191.992 279.729 188.386L281.105 185.712Z" fill="white"/>
<path d="M301.035 311.073L304.268 326.737L310.646 325.794L309.113 310.543L301.035 311.073Z" fill="#FCC1BB"/>
<path opacity="0.2" d="M310.123 320.591L309.113 310.543L301.035 311.073L303.056 320.865L310.123 320.591Z" fill="black"/>
<path d="M338.879 239.784C338.879 239.784 342.118 256.766 331.032 256.766C319.947 256.766 305.202 260.39 305.202 260.39C305.202 260.39 309.448 264.422 310.391 315.812L301.193 316.203C301.193 316.203 285.914 258.201 288.928 251.827C293.173 242.85 315.157 239.784 315.157 239.784H338.879Z" fill="#407BFF"/>
<path opacity="0.2" d="M338.879 239.784C338.879 239.784 342.118 256.766 331.032 256.766C319.947 256.766 305.202 260.39 305.202 260.39C305.202 260.39 309.448 264.422 310.391 315.812L301.193 316.203C301.193 316.203 285.914 258.201 288.928 251.827C293.173 242.85 315.157 239.784 315.157 239.784H338.879Z" fill="black"/>
<path d="M299.242 313.451L311.748 313.137L311.349 318.326L300.856 318.775L299.242 313.451Z" fill="#407BFF"/>
<path opacity="0.5" d="M299.242 313.451L311.748 313.137L311.349 318.326L300.856 318.775L299.242 313.451Z" fill="white"/>
<path d="M301.399 327.724C300.573 327.823 299.702 327.775 299.386 327.452C299.219 327.261 299.191 326.987 299.316 326.766C299.404 326.57 299.567 326.417 299.767 326.339C300.839 325.9 303.316 326.946 303.424 326.992C303.486 327.019 303.524 327.08 303.52 327.147C303.515 327.213 303.471 327.27 303.408 327.292C302.753 327.494 302.08 327.639 301.399 327.724ZM300.187 326.558C300.086 326.569 299.986 326.594 299.891 326.634C299.763 326.672 299.659 326.767 299.609 326.891C299.516 327.101 299.569 327.191 299.62 327.239C299.98 327.634 301.656 327.443 302.874 327.142C302.022 326.779 301.111 326.582 300.187 326.558Z" fill="#407BFF"/>
<path d="M303.384 327.291C303.363 327.3 303.339 327.301 303.318 327.293C302.481 327.037 300.712 325.788 300.764 325.023C300.758 324.841 300.868 324.605 301.296 324.51C301.608 324.438 301.937 324.498 302.204 324.673C303.134 325.268 303.526 327.038 303.545 327.12C303.556 327.176 303.536 327.234 303.491 327.271C303.458 327.291 303.421 327.298 303.384 327.291ZM301.437 324.796L301.345 324.799C301.065 324.856 301.06 324.973 301.053 325.015C301.067 325.471 302.249 326.472 303.131 326.859C302.962 326.116 302.569 325.441 302.004 324.929C301.837 324.817 301.636 324.771 301.437 324.796Z" fill="#407BFF"/>
<path d="M303.975 326.279L311.226 325.41C311.5 325.377 311.759 325.538 311.851 325.797L313.87 331.539C314.053 332.047 313.789 332.607 313.281 332.79C313.216 332.814 313.148 332.83 313.08 332.839C310.461 333.107 308.119 333.243 304.865 333.638C301.026 334.101 302.055 334.443 297.547 335.049C294.831 335.411 293.962 332.379 295.097 332.088C300.296 330.79 300.654 329.13 302.463 326.996C302.862 326.579 303.399 326.325 303.975 326.279Z" fill="#407BFF"/>
<path d="M282.374 315.27L288.388 329.873L294.245 328.704L290.217 313.078L282.374 315.27Z" fill="#FCC1BB"/>
<path opacity="0.2" d="M292.905 323.502L290.217 313.078L282.374 315.27L286.285 324.764L292.905 323.502Z" fill="black"/>
<path d="M338.878 239.784C338.878 239.784 345.727 257.497 323.088 256.766C314.418 256.486 276.868 265.257 276.868 265.257C276.868 265.257 283.64 268.795 292.131 316.203L282.519 318.385C282.519 318.385 255.273 264.555 258.288 258.181C262.533 249.204 307.212 239.784 307.212 239.784H338.878Z" fill="#407BFF"/>
<path d="M281.341 317.776L292.74 315.339L293.92 320.056L282.992 322.572L281.341 317.776Z" fill="#407BFF"/>
<path opacity="0.5" d="M281.341 317.776L292.74 315.339L293.92 320.056L282.992 322.572L281.341 317.776Z" fill="white"/>
<path d="M284.769 330.541C283.943 330.64 283.072 330.591 282.756 330.269C282.589 330.078 282.561 329.804 282.686 329.583C282.775 329.387 282.937 329.234 283.137 329.156C284.21 328.718 286.686 329.763 286.795 329.81C286.856 329.836 286.895 329.897 286.891 329.964C286.886 330.03 286.842 330.087 286.779 330.109C286.123 330.311 285.45 330.456 284.769 330.541ZM283.558 329.375C283.456 329.385 283.356 329.41 283.261 329.45C283.133 329.488 283.029 329.583 282.979 329.708C282.886 329.917 282.939 330.007 282.99 330.056C283.35 330.451 285.027 330.26 286.245 329.96C285.394 329.596 284.482 329.398 283.558 329.375Z" fill="#407BFF"/>
<path d="M286.754 330.109C286.733 330.117 286.71 330.118 286.688 330.111C285.851 329.854 284.082 328.605 284.134 327.841C284.128 327.659 284.238 327.424 284.666 327.328C284.978 327.256 285.307 327.315 285.575 327.491C286.504 328.084 286.896 329.855 286.915 329.937C286.927 329.994 286.906 330.051 286.861 330.088C286.829 330.109 286.791 330.116 286.754 330.109ZM284.807 327.614L284.715 327.617C284.435 327.675 284.43 327.792 284.424 327.833C284.437 328.289 285.619 329.29 286.501 329.678C286.332 328.934 285.939 328.26 285.375 327.747C285.208 327.635 285.006 327.588 284.807 327.614Z" fill="#407BFF"/>
<path d="M287.345 329.096L294.596 328.225C294.87 328.192 295.129 328.353 295.221 328.613L297.24 334.355C297.423 334.863 297.159 335.423 296.651 335.606C296.586 335.629 296.518 335.645 296.45 335.655C293.831 335.923 291.49 336.058 288.236 336.454C284.396 336.916 285.425 337.258 280.917 337.864C278.201 338.226 277.332 335.194 278.467 334.904C283.667 333.605 284.024 331.946 285.834 329.812C286.232 329.397 286.77 329.142 287.345 329.096Z" fill="#407BFF"/>
<path d="M359.603 319.953C353.836 319.005 345.284 317.664 341.475 317.383C340.639 317.321 339.589 317.275 338.435 317.244V287.664H331.193V317.244C330.038 317.275 328.989 317.32 328.153 317.383C324.344 317.663 315.792 319.005 310.026 319.953C306.704 320.5 304.271 323.372 304.271 326.738V328.232H311.295L312.239 326.13C312.239 326.13 325.442 323.843 329.892 323.515C332.346 323.334 337.284 323.334 339.739 323.515C344.189 323.842 357.391 326.13 357.391 326.13L358.335 328.232H365.36V326.738C365.359 323.372 362.925 320.5 359.603 319.953Z" fill="#263238"/>
<path opacity="0.1" d="M359.603 319.953C353.836 319.005 345.284 317.664 341.475 317.383C340.639 317.321 339.589 317.275 338.435 317.244V287.664H331.193V317.244C330.038 317.275 328.989 317.32 328.153 317.383C324.344 317.663 315.792 319.005 310.026 319.953C306.704 320.5 304.271 323.372 304.271 326.738V328.232H311.295L312.239 326.13C312.239 326.13 325.442 323.843 329.892 323.515C332.346 323.334 337.284 323.334 339.739 323.515C344.189 323.842 357.391 326.13 357.391 326.13L358.335 328.232H365.36V326.738C365.359 323.372 362.925 320.5 359.603 319.953Z" fill="white"/>
<path d="M337.264 291.912H332.363C330.506 291.912 328.999 290.407 328.999 288.548V263.546H340.628V288.548C340.628 290.406 339.121 291.912 337.264 291.912Z" fill="#263238"/>
<path opacity="0.2" d="M340.628 263.544H328.999V270.447H340.628V263.544Z" fill="black"/>
<path d="M362.414 338.141C365.15 338.141 367.367 335.923 367.367 333.187C367.367 330.452 365.15 328.234 362.414 328.234C359.679 328.234 357.461 330.452 357.461 333.187C357.461 335.923 359.679 338.141 362.414 338.141Z" fill="#263238"/>
<path d="M307.213 338.141C309.948 338.141 312.166 335.923 312.166 333.187C312.166 330.452 309.948 328.234 307.213 328.234C304.477 328.234 302.26 330.452 302.26 333.187C302.26 335.923 304.477 338.141 307.213 338.141Z" fill="#263238"/>
<path d="M374.129 257.655C367.191 255.887 360.062 254.913 352.912 254.734C345.545 254.549 317.968 254.706 311.42 254.703C303.449 254.701 295.476 255.683 287.742 257.655C282.881 258.895 284.379 265.912 288.77 265.993C289.158 266 372.522 265.975 372.828 265.989C377.421 266.197 379.097 258.923 374.129 257.655Z" fill="#407BFF"/>
<path opacity="0.3" d="M374.129 257.655C367.191 255.887 360.062 254.913 352.912 254.734C345.545 254.549 317.968 254.706 311.42 254.703C303.449 254.701 295.476 255.683 287.742 257.655C282.881 258.895 284.379 265.912 288.77 265.993C289.158 266 372.522 265.975 372.828 265.989C377.421 266.197 379.097 258.923 374.129 257.655Z" fill="black"/>
<path d="M289.999 265.844C304.003 262.273 318.836 262.273 332.839 265.844C338.137 267.195 340.396 259.008 335.097 257.656C319.629 253.711 303.211 253.711 287.743 257.656C282.451 259.006 284.693 267.197 289.999 265.844Z" fill="#407BFF"/>
<g opacity="0.4">
<path d="M289.999 265.844C304.003 262.273 318.836 262.273 332.839 265.844C338.137 267.195 340.396 259.008 335.097 257.656C319.629 253.711 303.211 253.711 287.743 257.656C282.451 259.006 284.693 267.197 289.999 265.844Z" fill="white"/>
</g>
<path d="M351.833 196.898C350.956 196.881 350.075 197.273 349.488 198.249C338.256 216.926 334.267 239.378 338.141 260.799C338.384 262.142 339.304 262.767 340.324 262.837C342.024 262.953 372.289 262.846 373.388 262.844C375.039 262.84 376.852 261.438 376.464 259.295C372.863 239.389 376.828 218.42 387.24 201.106C388.534 198.954 386.626 196.935 384.697 196.898C383.819 196.881 353.762 196.935 351.833 196.898Z" fill="#407BFF"/>
<path opacity="0.2" d="M351.833 196.898C350.956 196.881 350.075 197.273 349.488 198.249C338.256 216.926 334.267 239.378 338.141 260.799C338.384 262.142 339.304 262.767 340.324 262.837C342.024 262.953 372.289 262.846 373.388 262.844C375.039 262.84 376.852 261.438 376.464 259.295C372.863 239.389 376.828 218.42 387.24 201.106C388.534 198.954 386.626 196.935 384.697 196.898C383.819 196.881 353.762 196.935 351.833 196.898Z" fill="black"/>
<path d="M343.6 259.296C339.999 239.39 343.964 218.421 354.376 201.107C356.258 197.977 351.366 195.128 349.488 198.25C338.256 216.927 334.267 239.38 338.141 260.8C338.79 264.38 344.245 262.863 343.6 259.296Z" fill="#407BFF"/>
<g opacity="0.4">
<path d="M343.6 259.296C339.999 239.39 343.964 218.421 354.376 201.107C356.258 197.977 351.366 195.128 349.488 198.25C338.256 216.927 334.267 239.38 338.141 260.8C338.79 264.38 344.245 262.863 343.6 259.296Z" fill="white"/>
</g>
<path d="M306.533 234.681C316.254 243.573 325.977 252.465 335.698 261.356C337.711 263.197 340.721 260.203 338.7 258.354C328.979 249.462 319.256 240.57 309.535 231.678C307.522 229.837 304.511 232.832 306.533 234.681Z" fill="#263238"/>
<g opacity="0.5">
<path d="M306.533 234.681C316.254 243.573 325.977 252.465 335.698 261.356C337.711 263.197 340.721 260.203 338.7 258.354C328.979 249.462 319.256 240.57 309.535 231.678C307.522 229.837 304.511 232.832 306.533 234.681Z" fill="white"/>
</g>
<path opacity="0.2" d="M309.535 231.678C307.522 229.837 304.512 232.831 306.533 234.68C308.392 236.381 310.253 238.082 312.112 239.783H318.397C315.442 237.081 312.488 234.379 309.535 231.678Z" fill="black"/>
<path d="M291.326 236.01C306.237 236.01 316.432 236.01 331.343 236.01C334.985 236.01 334.991 230.35 331.343 230.35C316.432 230.35 306.237 230.35 291.326 230.35C287.684 230.35 287.677 236.01 291.326 236.01Z" fill="#407BFF"/>
<g opacity="0.3">
<path d="M291.326 236.01C306.237 236.01 316.432 236.01 331.343 236.01C334.985 236.01 334.991 230.35 331.343 230.35C316.432 230.35 306.237 230.35 291.326 230.35C287.684 230.35 287.677 236.01 291.326 236.01Z" fill="white"/>
</g>
</g>
<defs>
<clipPath id="clip0_43_9248">
<rect width="442.476" height="367" fill="white"/>
</clipPath>
</defs>
</svg>
