<svg width="355" height="355" viewBox="0 0 355 355" fill="none" xmlns="http://www.w3.org/2000/svg">
<path d="M21.3912 53.1971C-17.7355 97.6934 44.2554 124.259 50.2407 165.082C56.2267 205.905 -5.46665 248.613 15.0382 293.392C35.543 338.171 88.886 335.143 126.444 312.979C164.001 290.817 199.924 281.563 236.393 300.069C272.862 318.575 331.646 310.956 331.102 266.866C330.557 222.778 283.202 189.03 316.406 143.853C349.61 98.6761 360.413 53.927 322.419 40.0146C281.025 24.8561 252.723 92.4863 205.912 87.2451C160.359 82.1452 86.9008 -21.3016 21.3912 53.1971Z" fill="#E1E7FF"/>
<path d="M198.293 211.89C181.963 172.156 148.216 144.397 125.355 109.016C110.596 85.0829 109.779 61.08 114.317 36.9145C106.595 33.6038 98.816 29.7293 90.7291 28.3242C76.1237 47.5489 67.0691 70.0437 75.2788 96.4969C84.5322 126.979 103.582 153.105 117.734 181.408C127.532 202.636 133.519 225.498 126.444 248.902C120.455 267.953 105.216 278.295 90.519 291.36C81.2662 300.067 71.469 310.953 70.9244 324.562C70.8264 325.939 70.8562 327.298 70.9436 328.647C89.7025 328.953 109.649 322.888 126.444 312.978C146.985 300.858 167.035 292.612 186.955 290.643C203.961 265.934 210.69 241.855 198.293 211.89Z" fill="#E1E7FF"/>
<path d="M48.9386 72.9383C48.9386 74.3696 47.7792 75.5269 46.3507 75.5269H28.6717C27.2417 75.5269 26.083 74.3689 26.083 72.9383C26.083 71.5083 27.2424 70.3496 28.6717 70.3496H46.3507C47.7792 70.3496 48.9386 71.5083 48.9386 72.9383Z" fill="white"/>
<path d="M323.889 70.8852C323.889 67.3835 321.052 64.5449 317.55 64.5449C314.049 64.5449 311.21 67.3842 311.21 70.8852C311.21 74.3869 314.049 77.2255 317.55 77.2255C321.052 77.2255 323.889 74.3862 323.889 70.8852Z" fill="white"/>
<path d="M138.762 100.247H97.1545C96.5148 100.247 95.9951 99.7269 95.9951 99.0872C95.9951 98.4482 96.5148 97.9277 97.1545 97.9277H138.762C139.401 97.9277 139.921 98.4482 139.921 99.0872C139.921 99.7269 139.401 100.247 138.762 100.247ZM97.1545 98.2827C96.7115 98.2827 96.3501 98.6441 96.3501 99.0872C96.3501 99.5309 96.7115 99.8916 97.1545 99.8916H138.762C139.206 99.8916 139.566 99.5309 139.566 99.0872C139.566 98.6441 139.205 98.2827 138.762 98.2827H97.1545Z" fill="#90B4FE"/>
<path d="M72.5114 64.3657H41.26C40.621 64.3657 40.1006 63.846 40.1006 63.2063C40.1006 62.5673 40.6203 62.0469 41.26 62.0469H72.5114C73.1504 62.0469 73.6708 62.5666 73.6708 63.2063C73.6708 63.8453 73.1504 64.3657 72.5114 64.3657ZM41.26 62.4019C40.8163 62.4019 40.4556 62.7626 40.4556 63.2063C40.4556 63.6501 40.8163 64.0122 41.26 64.0122H72.5114C72.9551 64.0122 73.3158 63.6501 73.3158 63.2063C73.3158 62.7626 72.9551 62.4019 72.5114 62.4019H41.26Z" fill="#90B4FE"/>
<path d="M268.411 319.684H237.161C236.522 319.684 236 319.164 236 318.525C236 317.886 236.521 317.365 237.161 317.365H268.411C269.05 317.365 269.57 317.885 269.57 318.525C269.57 319.164 269.05 319.684 268.411 319.684ZM237.161 317.719C236.717 317.719 236.355 318.081 236.355 318.525C236.355 318.968 236.717 319.329 237.161 319.329H268.411C268.855 319.329 269.217 318.968 269.217 318.525C269.217 318.081 268.855 317.719 268.411 317.719H237.161Z" fill="#90B4FE"/>
<path d="M282.428 297.403C282.428 298.833 281.268 299.991 279.838 299.991H262.161C260.731 299.991 259.571 298.832 259.571 297.403C259.571 295.971 260.731 294.812 262.161 294.812H279.838C281.268 294.813 282.428 295.971 282.428 297.403Z" fill="white"/>
<path d="M309.703 315.929H292.025C290.403 315.929 289.081 314.609 289.081 312.985C289.081 311.36 290.402 310.041 292.025 310.041H309.703C311.327 310.041 312.647 311.361 312.647 312.985C312.647 314.608 311.327 315.929 309.703 315.929ZM292.025 310.751C290.794 310.751 289.791 311.754 289.791 312.985C289.791 314.217 290.794 315.219 292.025 315.219H309.703C310.936 315.219 311.937 314.218 311.937 312.985C311.937 311.754 310.936 310.751 309.703 310.751H292.025Z" fill="#90B4FE"/>
<path d="M288.449 280.989H286.754V279.293C286.754 278.998 286.514 278.758 286.217 278.758C285.922 278.758 285.682 278.998 285.682 279.293V280.989H283.985C283.689 280.989 283.449 281.229 283.449 281.526C283.449 281.821 283.689 282.061 283.985 282.061H285.682V283.759C285.682 284.054 285.922 284.294 286.217 284.294C286.514 284.294 286.754 284.054 286.754 283.759V282.061H288.449C288.746 282.061 288.986 281.821 288.986 281.526C288.985 281.229 288.746 280.989 288.449 280.989Z" fill="#90B4FE"/>
<path d="M80.5005 136.765H78.8043V135.068C78.8043 134.772 78.5644 134.533 78.269 134.533C77.9744 134.533 77.7344 134.772 77.7344 135.068V136.765H76.0361C75.74 136.765 75.5 137.005 75.5 137.301C75.5 137.596 75.7407 137.836 76.0361 137.836H77.7344V139.534C77.7344 139.828 77.9744 140.068 78.269 140.068C78.5644 140.068 78.8043 139.828 78.8043 139.534V137.836H80.5005C80.7959 137.836 81.0359 137.596 81.0359 137.301C81.0359 137.005 80.7959 136.765 80.5005 136.765Z" fill="#90B4FE"/>
<path d="M243.634 294.991H241.938V293.294C241.938 292.998 241.698 292.76 241.403 292.76C241.107 292.76 240.867 292.998 240.867 293.294V294.991H239.168C238.873 294.991 238.633 295.231 238.633 295.527C238.633 295.822 238.873 296.062 239.168 296.062H240.867V297.76C240.867 298.055 241.107 298.295 241.403 298.295C241.698 298.295 241.938 298.055 241.938 297.76V296.062H243.634C243.929 296.062 244.169 295.822 244.169 295.527C244.169 295.231 243.929 294.991 243.634 294.991Z" fill="#90B4FE"/>
<path d="M61.3074 75.3487H59.6127V73.6525C59.6127 73.3572 59.3727 73.1172 59.0773 73.1172C58.782 73.1172 58.542 73.3572 58.542 73.6525V75.3487H56.843C56.5476 75.3487 56.3076 75.5887 56.3076 75.8855C56.3076 76.1808 56.5476 76.4208 56.843 76.4208H58.542V78.1184C58.542 78.4138 58.782 78.6538 59.0773 78.6538C59.3727 78.6538 59.6127 78.4138 59.6127 78.1184V76.4208H61.3074C61.6042 76.4208 61.8442 76.1808 61.8442 75.8855C61.8442 75.5887 61.6042 75.3487 61.3074 75.3487Z" fill="#90B4FE"/>
<path d="M59.8772 48.1827H58.181V46.4865C58.181 46.1911 57.941 45.9512 57.6457 45.9512C57.3503 45.9512 57.1103 46.1911 57.1103 46.4865V48.1827H55.4113C55.116 48.1827 54.876 48.4227 54.876 48.7195C54.876 49.0148 55.116 49.2548 55.4113 49.2548H57.1103V50.9524C57.1103 51.2478 57.3503 51.4877 57.6457 51.4877C57.941 51.4877 58.181 51.2478 58.181 50.9524V49.2548H59.8772C60.1726 49.2548 60.4126 49.0148 60.4126 48.7195C60.4126 48.4227 60.1726 48.1827 59.8772 48.1827Z" fill="#90B4FE"/>
<path d="M315.597 286.422C314.021 286.422 312.74 285.141 312.74 283.567C312.74 281.994 314.022 280.711 315.597 280.711C317.172 280.711 318.453 281.994 318.453 283.567C318.453 285.141 317.172 286.422 315.597 286.422ZM315.597 281.065C314.217 281.065 313.095 282.188 313.095 283.567C313.095 284.945 314.217 286.066 315.597 286.066C316.975 286.066 318.098 284.945 318.098 283.567C318.098 282.188 316.975 281.065 315.597 281.065Z" fill="#90B4FE"/>
<path d="M97.1073 137.479C95.5318 137.479 94.251 136.197 94.251 134.623C94.251 133.048 95.5325 131.768 97.1073 131.768C98.6821 131.768 99.9636 133.048 99.9636 134.623C99.9636 136.197 98.6821 137.479 97.1073 137.479ZM97.1073 132.122C95.7278 132.122 94.606 133.244 94.606 134.622C94.606 136.001 95.7278 137.123 97.1073 137.123C98.4861 137.123 99.6079 136.001 99.6079 134.622C99.6079 133.244 98.4861 132.122 97.1073 132.122Z" fill="#90B4FE"/>
<path d="M214.796 308.024C213.22 308.024 211.939 306.743 211.939 305.168C211.939 303.594 213.221 302.312 214.796 302.312C216.371 302.312 217.652 303.594 217.652 305.168C217.653 306.743 216.371 308.024 214.796 308.024ZM214.796 302.667C213.416 302.667 212.294 303.789 212.294 305.168C212.294 306.548 213.416 307.669 214.796 307.669C216.174 307.669 217.296 306.548 217.296 305.168C217.296 303.789 216.175 302.667 214.796 302.667Z" fill="#90B4FE"/>
<path d="M65.5907 123.373C65.5907 129.586 60.5533 134.623 54.3401 134.623C48.1269 134.623 43.0908 129.586 43.0908 123.373C43.0908 117.16 48.1276 112.123 54.3401 112.123C60.554 112.122 65.5907 117.16 65.5907 123.373Z" fill="#90B4FE"/>
<path d="M316.311 306.644C316.311 310.146 313.472 312.985 309.971 312.985C306.469 312.985 303.632 310.146 303.632 306.644C303.632 303.143 306.469 300.303 309.971 300.303C313.472 300.303 316.311 303.143 316.311 306.644Z" fill="#90B4FE"/>
<path d="M176.586 127.588C176.586 129.018 175.427 130.177 173.998 130.177H156.32C154.89 130.177 153.731 129.017 153.731 127.588C153.731 126.157 154.891 124.998 156.32 124.998H173.998C175.427 124.997 176.586 126.157 176.586 127.588Z" fill="white"/>
<path d="M221.286 132.809H203.608C201.986 132.809 200.664 131.489 200.664 129.866C200.664 128.242 201.985 126.922 203.608 126.922H221.286C222.91 126.922 224.23 128.242 224.23 129.866C224.23 131.489 222.91 132.809 221.286 132.809ZM203.608 127.631C202.377 127.631 201.373 128.634 201.373 129.865C201.373 131.097 202.376 132.098 203.608 132.098H221.285C222.518 132.098 223.52 131.097 223.52 129.865C223.52 128.634 222.519 127.631 221.285 127.631H203.608Z" fill="#90B4FE"/>
<path d="M178.142 111.173H176.448V109.477C176.448 109.181 176.208 108.941 175.911 108.941C175.615 108.941 175.376 109.181 175.376 109.477V111.173H173.678C173.383 111.173 173.143 111.413 173.143 111.71C173.143 112.005 173.383 112.245 173.678 112.245H175.376V113.943C175.376 114.238 175.615 114.478 175.911 114.478C176.208 114.478 176.448 114.238 176.448 113.943V112.245H178.142C178.439 112.245 178.679 112.005 178.679 111.71C178.679 111.413 178.439 111.173 178.142 111.173Z" fill="#90B4FE"/>
<path d="M227.894 123.525C227.894 127.027 225.055 129.866 221.554 129.866C218.052 129.866 215.215 127.027 215.215 123.525C215.215 120.024 218.052 117.184 221.554 117.184C225.055 117.184 227.894 120.024 227.894 123.525Z" fill="#90B4FE"/>
<path d="M269.125 90.479H237.875C237.236 90.479 236.716 89.9586 236.716 89.3196C236.716 88.6799 237.236 88.1602 237.875 88.1602H269.125C269.764 88.1602 270.286 88.6799 270.286 89.3196C270.286 89.9586 269.764 90.479 269.125 90.479ZM237.875 88.5152C237.431 88.5152 237.071 88.8758 237.071 89.3196C237.071 89.7633 237.431 90.1247 237.875 90.1247H269.125C269.569 90.1247 269.931 89.7633 269.931 89.3196C269.931 88.8758 269.569 88.5152 269.125 88.5152H237.875Z" fill="#90B4FE"/>
<path d="M317.55 73.4734C317.55 72.0435 316.39 70.8848 314.96 70.8848H297.281C295.851 70.8848 294.693 72.0442 294.693 73.4734C294.693 74.9034 295.851 76.0628 297.281 76.0628H314.96C316.39 76.0628 317.55 74.9041 317.55 73.4734Z" fill="#90B4FE"/>
<path d="M315.981 104.007H314.285V105.704C314.285 105.999 314.045 106.239 313.748 106.239C313.452 106.239 313.212 105.999 313.212 105.704V104.007H311.515C311.219 104.007 310.979 103.767 310.979 103.471C310.979 103.176 311.219 102.936 311.515 102.936H313.212V101.238C313.212 100.943 313.452 100.703 313.748 100.703C314.045 100.703 314.285 100.943 314.285 101.238V102.936H315.981C316.276 102.936 316.516 103.176 316.516 103.471C316.516 103.767 316.276 104.007 315.981 104.007Z" fill="#90B4FE"/>
<path d="M213.72 80.5282H212.024V82.2251C212.024 82.5205 211.784 82.7605 211.488 82.7605C211.193 82.7605 210.953 82.5205 210.953 82.2251V80.5282H209.255C208.959 80.5282 208.719 80.2883 208.719 79.9922C208.719 79.6975 208.959 79.4576 209.255 79.4576H210.953V77.76C210.953 77.4646 211.193 77.2246 211.488 77.2246C211.784 77.2246 212.024 77.4646 212.024 77.76V79.4576H213.72C214.014 79.4576 214.255 79.6975 214.255 79.9922C214.255 80.2883 214.014 80.5282 213.72 80.5282Z" fill="#90B4FE"/>
<path d="M320.229 95.0296C318.654 95.0296 317.373 93.7488 317.373 92.174C317.373 90.5992 318.655 89.3184 320.229 89.3184C321.805 89.3184 323.086 90.5992 323.086 92.174C323.086 93.7488 321.805 95.0296 320.229 95.0296ZM320.229 89.6734C318.85 89.6734 317.728 90.7952 317.728 92.174C317.728 93.5528 318.85 94.6746 320.229 94.6746C321.607 94.6746 322.729 93.5528 322.729 92.174C322.73 90.7952 321.608 89.6734 320.229 89.6734Z" fill="#90B4FE"/>
<path d="M157.223 78.9183C155.647 78.9183 154.366 77.6367 154.366 76.0626C154.366 74.4886 155.648 73.207 157.223 73.207C158.798 73.207 160.079 74.4886 160.079 76.0626C160.08 77.6374 158.798 78.9183 157.223 78.9183ZM157.223 73.562C155.843 73.562 154.721 74.6838 154.721 76.0626C154.721 77.4415 155.843 78.5633 157.223 78.5633C158.602 78.5633 159.724 77.4415 159.724 76.0626C159.725 74.6838 158.603 73.562 157.223 73.562Z" fill="#90B4FE"/>
<path d="M80.0543 117.39C80.0543 118.819 78.8949 119.979 77.4649 119.979H59.7866C58.3567 119.979 57.1973 118.819 57.1973 117.39C57.1973 115.96 58.3567 114.801 59.7866 114.801H77.4649C78.8949 114.801 80.0543 115.96 80.0543 117.39Z" fill="white"/>
<path d="M230.693 302.563H172.148L179.255 260.764H223.587L230.693 302.563Z" fill="#3652CD"/>
<path d="M179.256 260.764L176.178 278.867H226.665L223.588 260.764H179.256Z" fill="#5758FF"/>
<path d="M244.579 305.13C244.579 307.379 242.756 309.204 240.505 309.204H162.337C160.088 309.204 158.264 307.379 158.264 305.13C158.264 302.879 160.088 301.055 162.337 301.055H240.504C242.755 301.054 244.579 302.879 244.579 305.13Z" fill="#3652CD"/>
<path d="M318.069 267.095C318.069 271.015 314.89 274.194 310.969 274.194H91.8727C87.9521 274.194 84.7734 271.015 84.7734 267.095V147.293C84.7734 143.372 87.9521 140.193 91.8727 140.193H310.969C314.89 140.193 318.069 143.372 318.069 147.293V267.095Z" fill="#3652CD"/>
<path d="M311.43 249.891C311.43 253.811 308.25 256.991 304.33 256.991H98.5131C94.5925 256.991 91.4131 253.811 91.4131 249.891V151.927C91.4131 148.007 94.5925 144.828 98.5131 144.828H304.329C308.249 144.828 311.429 148.007 311.429 151.927V249.891H311.43Z" fill="#080E3F"/>
<path d="M207.004 266.346C207.004 269.431 204.504 271.931 201.422 271.931C198.337 271.931 195.839 269.431 195.839 266.346C195.839 263.264 198.338 260.764 201.422 260.764C204.504 260.764 207.004 263.264 207.004 266.346Z" fill="#080E3F"/>
<path d="M332.571 186.592C332.571 188.553 330.982 190.14 329.021 190.14H251.918C249.957 190.14 248.368 188.553 248.368 186.592V109.788C248.368 107.827 249.957 106.238 251.918 106.238H329.021C330.982 106.238 332.571 107.828 332.571 109.788V186.592Z" fill="#BBD2FE"/>
<path d="M330.059 122.857V184.392C330.059 186.353 328.47 187.942 326.509 187.942H254.432C252.472 187.942 250.882 186.353 250.882 184.392V122.857H330.059Z" fill="white"/>
<path d="M254.589 114.327C254.589 115.351 253.76 116.181 252.736 116.181C251.713 116.181 250.882 115.351 250.882 114.327C250.882 113.303 251.713 112.473 252.736 112.473C253.76 112.473 254.589 113.303 254.589 114.327Z" stroke="white" stroke-miterlimit="10"/>
<path d="M267.199 114.327C267.199 115.351 266.37 116.181 265.345 116.181C264.322 116.181 263.491 115.351 263.491 114.327C263.491 113.303 264.322 112.473 265.345 112.473C266.37 112.473 267.199 113.303 267.199 114.327Z" stroke="white" stroke-miterlimit="10"/>
<path d="M330.059 114.327C330.059 115.351 329.228 116.181 328.205 116.181H290.378C289.354 116.181 288.524 115.351 288.524 114.327C288.524 113.303 289.354 112.473 290.378 112.473H328.205C329.228 112.473 330.059 113.303 330.059 114.327Z" fill="white"/>
<path d="M260.895 114.327C260.895 115.351 260.064 116.181 259.041 116.181C258.017 116.181 257.188 115.351 257.188 114.327C257.188 113.303 258.017 112.473 259.041 112.473C260.064 112.473 260.895 113.303 260.895 114.327Z" stroke="white" stroke-miterlimit="10"/>
<path d="M326.466 182.397H253.86V141.19C253.86 140.85 254.135 140.576 254.474 140.576C254.813 140.576 255.087 140.851 255.087 141.19V181.169H326.466C326.806 181.169 327.08 181.444 327.08 181.783C327.081 182.12 326.806 182.397 326.466 182.397Z" fill="#8FB3FF"/>
<path d="M258.036 172.624C258.036 172.624 267.238 163.483 273.131 164.633C279.026 165.784 284.488 176.997 290.382 174.985C296.277 172.972 300.302 150.833 306.051 151.839C311.802 152.845 320.141 163.196 322.728 159.171C325.314 155.145 326.464 146.232 326.464 146.232V178.634H258.036V172.624Z" fill="#E1E7FF"/>
<path d="M258.222 164.742C260.906 160.511 264.5 156.223 269.632 155.113C271.918 154.618 274.279 154.978 276.46 155.74C277.717 156.179 278.906 156.797 280.052 157.471C281.172 158.131 282.195 158.96 283.408 159.453C285.002 160.1 286.602 160.178 288.16 159.4C289.769 158.595 290.967 157.056 292.062 155.681C293.417 153.982 294.709 152.234 296.317 150.758C298.411 148.835 301.144 147.952 303.938 147.854C306.079 147.778 308.22 147.986 310.363 147.886C312.239 147.799 314.075 146.972 315.678 146.051C319.38 143.922 322.36 140.559 326.521 139.253C326.786 139.17 326.674 138.753 326.407 138.837C321.748 140.301 318.496 144.254 314.175 146.363C309.51 148.638 304.223 146.393 299.463 148.3C295.164 150.023 293.086 154.185 290.048 157.367C288.675 158.807 286.986 159.818 284.938 159.475C283.768 159.282 282.696 158.671 281.719 158.03C280.516 157.243 279.307 156.509 278.002 155.906C274.648 154.355 270.786 153.901 267.325 155.378C263.174 157.148 260.209 160.806 257.849 164.524C257.7 164.761 258.073 164.977 258.222 164.742Z" fill="#90B4FE"/>
<path d="M258.22 178.747L257.853 178.521L276.048 148.785L294.459 163.764L301.379 156.343L313.534 159.346L322.525 134.615L322.93 134.762L313.806 159.857L301.522 156.823L294.499 164.352L276.158 149.43L258.22 178.747Z" fill="#3652CD"/>
<path d="M292.692 267.686C292.692 269.647 291.103 271.236 289.142 271.236H222.05C220.089 271.236 218.5 269.647 218.5 267.686V198.841C218.5 196.881 220.089 195.291 222.05 195.291H289.142C291.103 195.291 292.692 196.881 292.692 198.841V267.686Z" fill="#BBD2FE"/>
<path d="M290.323 211.912V265.912C290.323 267.873 288.733 269.462 286.773 269.462H224.418C222.459 269.462 220.868 267.873 220.868 265.912V211.912H290.323Z" fill="white"/>
<path d="M224.578 203.381C224.578 204.404 223.749 205.234 222.723 205.234C221.701 205.234 220.869 204.404 220.869 203.381C220.869 202.356 221.701 201.525 222.723 201.525C223.749 201.525 224.578 202.356 224.578 203.381Z" stroke="white" stroke-miterlimit="10"/>
<path d="M237.188 203.381C237.188 204.404 236.357 205.234 235.332 205.234C234.309 205.234 233.479 204.404 233.479 203.381C233.479 202.356 234.309 201.525 235.332 201.525C236.357 201.525 237.188 202.356 237.188 203.381Z" stroke="white" stroke-miterlimit="10"/>
<path d="M290.324 203.381C290.324 204.404 289.493 205.234 288.47 205.234H250.643C249.617 205.234 248.788 204.404 248.788 203.381C248.788 202.356 249.617 201.525 250.643 201.525H288.47C289.493 201.525 290.324 202.356 290.324 203.381Z" fill="white"/>
<path d="M230.882 203.381C230.882 204.404 230.052 205.234 229.029 205.234C228.006 205.234 227.175 204.404 227.175 203.381C227.175 202.356 228.006 201.525 229.029 201.525C230.052 201.525 230.882 202.356 230.882 203.381Z" stroke="white" stroke-miterlimit="10"/>
<path d="M281.458 267.328H225.067V227.554C225.067 227.29 225.281 227.078 225.545 227.078C225.806 227.078 226.02 227.29 226.02 227.554V266.377H281.458C281.72 266.377 281.934 266.589 281.934 266.851C281.934 267.114 281.72 267.328 281.458 267.328Z" fill="#8FB3FF"/>
<path d="M285.583 235.721C285.58 235.705 285.57 235.692 285.565 235.677C285.558 235.657 285.552 235.634 285.54 235.616C285.529 235.597 285.512 235.583 285.497 235.567C285.484 235.554 285.478 235.539 285.463 235.529C285.461 235.526 285.458 235.526 285.455 235.525C285.454 235.523 285.452 235.519 285.449 235.518C285.432 235.506 285.412 235.503 285.394 235.494C285.378 235.487 285.361 235.477 285.343 235.472C285.324 235.468 285.304 235.471 285.283 235.469C285.263 235.468 285.241 235.465 285.221 235.468C285.218 235.469 285.214 235.468 285.211 235.468L281.742 236.13C281.571 236.162 281.458 236.328 281.49 236.501C281.523 236.673 281.688 236.786 281.861 236.753L284.509 236.248L273.995 249.963L266.413 243.488C266.281 243.377 266.088 243.388 265.973 243.514L255.338 255.129L241.79 247.773C241.675 247.711 241.535 247.726 241.435 247.811L227.669 259.417C227.535 259.531 227.518 259.73 227.63 259.865C227.694 259.94 227.784 259.979 227.874 259.979C227.946 259.979 228.018 259.954 228.078 259.904L241.678 248.438L255.254 255.807C255.382 255.878 255.541 255.851 255.64 255.743L266.235 244.172L273.838 250.665C273.905 250.722 273.992 250.748 274.078 250.739C274.165 250.729 274.244 250.685 274.297 250.616L285.09 236.538L285.618 239.308C285.647 239.461 285.781 239.566 285.929 239.566C285.95 239.566 285.97 239.565 285.99 239.56C286.162 239.528 286.276 239.362 286.242 239.189L285.583 235.721Z" fill="#3652CD"/>
<path d="M233.737 264.587C233.648 264.587 233.577 264.517 233.577 264.429V248.918C233.577 248.831 233.648 248.76 233.737 248.76C233.824 248.76 233.897 248.831 233.897 248.918V264.429C233.897 264.518 233.824 264.587 233.737 264.587Z" fill="#BBD2FE"/>
<path d="M241.87 264.52C241.783 264.52 241.712 264.447 241.712 264.361V235.714C241.712 235.627 241.783 235.555 241.87 235.555C241.959 235.555 242.03 235.627 242.03 235.714V264.361C242.03 264.447 241.959 264.52 241.87 264.52Z" fill="#BBD2FE"/>
<path d="M255.406 264.52C255.319 264.52 255.248 264.448 255.248 264.362V246.701C255.248 246.613 255.319 246.541 255.406 246.541C255.495 246.541 255.566 246.613 255.566 246.701V264.362C255.565 264.448 255.495 264.52 255.406 264.52Z" fill="#BBD2FE"/>
<path d="M266.208 264.519C266.12 264.519 266.048 264.447 266.048 264.361V227.555C266.048 227.467 266.12 227.396 266.208 227.396C266.295 227.396 266.366 227.467 266.366 227.555V264.361C266.366 264.447 266.295 264.519 266.208 264.519Z" fill="#BBD2FE"/>
<path d="M274.045 264.587C273.958 264.587 273.886 264.517 273.886 264.428V236.42C273.886 236.331 273.958 236.26 274.045 236.26C274.133 236.26 274.204 236.331 274.204 236.42V264.428C274.203 264.518 274.133 264.587 274.045 264.587Z" fill="#BBD2FE"/>
<path d="M208.719 250.874C208.719 252.835 207.13 254.424 205.169 254.424H102.59C100.629 254.424 99.04 252.835 99.04 250.874V158.372C99.04 156.412 100.629 154.822 102.59 154.822H205.169C207.13 154.822 208.719 156.412 208.719 158.372V250.874Z" fill="#BBD2FE"/>
<path d="M206.118 171.441V248.279C206.118 250.24 204.529 251.829 202.57 251.829H105.191C103.231 251.829 101.642 250.24 101.642 248.279V171.441H206.118Z" fill="white"/>
<path d="M105.35 162.911C105.35 163.935 104.52 164.765 103.496 164.765C102.472 164.765 101.642 163.935 101.642 162.911C101.642 161.888 102.472 161.057 103.496 161.057C104.521 161.057 105.35 161.888 105.35 162.911Z" stroke="white" stroke-miterlimit="10"/>
<path d="M117.959 162.911C117.959 163.935 117.129 164.765 116.105 164.765C115.082 164.765 114.251 163.935 114.251 162.911C114.251 161.888 115.082 161.057 116.105 161.057C117.129 161.057 117.959 161.888 117.959 162.911Z" stroke="white" stroke-miterlimit="10"/>
<path d="M206.118 162.911C206.118 163.935 205.288 164.765 204.264 164.765H166.437C165.413 164.765 164.582 163.935 164.582 162.911C164.582 161.888 165.413 161.057 166.437 161.057H204.264C205.288 161.057 206.118 161.888 206.118 162.911Z" fill="white"/>
<path d="M111.654 162.911C111.654 163.935 110.824 164.765 109.8 164.765C108.776 164.765 107.945 163.935 107.945 162.911C107.945 161.888 108.776 161.057 109.8 161.057C110.824 161.057 111.654 161.888 111.654 162.911Z" stroke="white" stroke-miterlimit="10"/>
<path d="M130.28 228.85H117.595V239.078H130.28V228.85Z" fill="#BBD2FE"/>
<path d="M144.82 208.021H132.136V239.077H144.82V208.021Z" fill="#E1E7FF"/>
<path d="M159.361 216.266H146.676V239.079H159.361V216.266Z" fill="#BBD2FE"/>
<path d="M173.901 197.375H161.216V239.077H173.901V197.375Z" fill="#E1E7FF"/>
<path d="M188.443 183.67H175.757V239.078H188.443V183.67Z" fill="#BBD2FE"/>
<path d="M105.325 231.207C105.16 231.207 104.995 231.142 104.873 231.013C104.637 230.763 104.648 230.37 104.899 230.134L126.95 209.302C127.129 209.134 127.391 209.085 127.616 209.18L143.409 215.765L159.331 197.648C159.522 197.432 159.836 197.375 160.09 197.51L181.592 208.944L203.668 177.276C203.863 176.995 204.25 176.925 204.534 177.122C204.816 177.317 204.884 177.705 204.689 177.987L182.298 210.107C182.118 210.365 181.775 210.448 181.495 210.301L159.941 198.838L144.049 216.92C143.873 217.121 143.588 217.185 143.342 217.083L127.51 210.481L105.752 231.036C105.631 231.151 105.478 231.207 105.325 231.207Z" fill="#90B4FE"/>
<path d="M129.724 209.791C129.724 210.959 128.777 211.905 127.61 211.905C126.442 211.905 125.496 210.959 125.496 209.791C125.496 208.623 126.443 207.678 127.61 207.678C128.777 207.678 129.724 208.623 129.724 209.791Z" fill="#90B4FE"/>
<path d="M145.329 216.599C145.329 217.766 144.382 218.713 143.215 218.713C142.047 218.713 141.101 217.766 141.101 216.599C141.101 215.432 142.047 214.484 143.215 214.484C144.381 214.485 145.329 215.432 145.329 216.599Z" fill="#90B4FE"/>
<path d="M162.053 198.118C162.053 199.286 161.106 200.232 159.938 200.232C158.771 200.232 157.824 199.286 157.824 198.118C157.824 196.95 158.771 196.004 159.938 196.004C161.106 196.004 162.053 196.95 162.053 198.118Z" fill="#90B4FE"/>
<path d="M183.9 209.754C183.9 210.922 182.953 211.867 181.785 211.867C180.618 211.867 179.672 210.922 179.672 209.754C179.672 208.586 180.618 207.639 181.785 207.639C182.953 207.639 183.9 208.586 183.9 209.754Z" fill="#90B4FE"/>
<path d="M196.659 242.628C196.659 241.785 192.277 241.102 186.871 241.102C181.464 241.102 177.081 241.785 177.081 242.628C177.081 242.842 177.081 243.611 177.081 243.822C177.081 244.667 181.463 245.352 186.871 245.352C192.278 245.352 196.659 244.666 196.659 243.822C196.659 243.611 196.659 242.841 196.659 242.628Z" fill="#FF7268"/>
<path d="M196.659 242.628C196.659 243.472 192.277 244.157 186.871 244.157C181.464 244.157 177.081 243.472 177.081 242.628C177.081 241.785 181.463 241.102 186.871 241.102C192.278 241.102 196.659 241.785 196.659 242.628Z" fill="#F99EA3"/>
<path d="M186.87 243.711C183.898 243.711 179.478 243.423 179.478 242.628C179.478 241.835 183.899 241.547 186.87 241.547C189.841 241.547 194.263 241.835 194.263 242.628C194.263 243.423 189.842 243.711 186.87 243.711ZM186.87 241.757C182.42 241.757 179.687 242.265 179.687 242.628C179.687 242.993 182.42 243.501 186.87 243.501C191.322 243.501 194.054 242.992 194.054 242.628C194.054 242.265 191.322 241.757 186.87 241.757Z" fill="#FF7268"/>
<path d="M196.129 241.215C196.129 240.371 191.748 239.688 186.341 239.688C180.936 239.688 176.552 240.371 176.552 241.215C176.552 241.428 176.552 242.197 176.552 242.41C176.552 243.253 180.935 243.938 186.341 243.938C191.748 243.938 196.129 243.252 196.129 242.41C196.129 242.197 196.129 241.428 196.129 241.215Z" fill="#FF7268"/>
<path d="M196.129 241.215C196.129 242.059 191.748 242.743 186.341 242.743C180.936 242.743 176.552 242.058 176.552 241.215C176.552 240.371 180.935 239.688 186.341 239.688C191.748 239.688 196.129 240.371 196.129 241.215Z" fill="#F99EA3"/>
<path d="M186.341 242.297C183.37 242.297 178.947 242.009 178.947 241.216C178.947 240.421 183.37 240.133 186.341 240.133C189.313 240.133 193.734 240.421 193.734 241.216C193.734 242.008 189.313 242.297 186.341 242.297ZM186.341 240.342C181.891 240.342 179.158 240.851 179.158 241.215C179.158 241.579 181.892 242.087 186.341 242.087C190.791 242.087 193.525 241.58 193.525 241.215C193.525 240.85 190.791 240.342 186.341 240.342Z" fill="#FF7268"/>
<path d="M196.33 239.905C196.33 239.061 191.949 238.377 186.542 238.377C181.137 238.377 176.753 239.061 176.753 239.905C176.753 240.117 176.753 240.887 176.753 241.099C176.753 241.943 181.136 242.627 186.542 242.627C191.949 242.627 196.33 241.943 196.33 241.099C196.33 240.887 196.33 240.117 196.33 239.905Z" fill="#FF7268"/>
<path d="M196.33 239.905C196.33 240.75 191.949 241.433 186.542 241.433C181.137 241.433 176.753 240.749 176.753 239.905C176.753 239.061 181.136 238.377 186.542 238.377C191.95 238.377 196.33 239.061 196.33 239.905Z" fill="#F99EA3"/>
<path d="M186.542 240.988C183.57 240.988 179.148 240.7 179.148 239.906C179.148 239.112 183.571 238.824 186.542 238.824C189.514 238.824 193.936 239.112 193.936 239.906C193.936 240.7 189.514 240.988 186.542 240.988ZM186.542 239.033C182.092 239.033 179.359 239.541 179.359 239.905C179.359 240.269 182.093 240.777 186.542 240.777C190.993 240.777 193.726 240.27 193.726 239.905C193.726 239.54 190.993 239.033 186.542 239.033Z" fill="#FF7268"/>
<path d="M197.139 238.491C197.139 237.647 192.756 236.963 187.35 236.963C181.944 236.963 177.562 237.648 177.562 238.491C177.562 238.703 177.562 239.474 177.562 239.686C177.562 240.53 181.944 241.214 187.35 241.214C192.756 241.214 197.139 240.529 197.139 239.686C197.139 239.474 197.139 238.703 197.139 238.491Z" fill="#FF7268"/>
<path d="M197.139 238.491C197.139 239.335 192.756 240.02 187.35 240.02C181.944 240.02 177.562 239.335 177.562 238.491C177.562 237.647 181.944 236.963 187.35 236.963C192.756 236.963 197.139 237.648 197.139 238.491Z" fill="#F99EA3"/>
<path d="M187.35 239.574C184.377 239.574 179.957 239.286 179.957 238.491C179.957 237.698 184.378 237.41 187.35 237.41C190.322 237.41 194.743 237.698 194.743 238.491C194.743 239.285 190.322 239.574 187.35 239.574ZM187.35 237.619C182.899 237.619 180.166 238.127 180.166 238.491C180.166 238.856 182.9 239.365 187.35 239.365C191.801 239.365 194.533 238.856 194.533 238.491C194.533 238.127 191.801 237.619 187.35 237.619Z" fill="#FF7268"/>
<path d="M197.098 237.184C197.098 236.339 192.716 235.654 187.31 235.654C181.905 235.654 177.521 236.339 177.521 237.184C177.521 237.396 177.521 238.166 177.521 238.378C177.521 239.222 181.904 239.906 187.31 239.906C192.716 239.906 197.098 239.222 197.098 238.378C197.098 238.165 197.098 237.395 197.098 237.184Z" fill="#FF7268"/>
<path d="M197.098 237.184C197.098 238.027 192.716 238.712 187.31 238.712C181.905 238.712 177.521 238.026 177.521 237.184C177.521 236.339 181.904 235.654 187.31 235.654C192.716 235.654 197.098 236.339 197.098 237.184Z" fill="#F99EA3"/>
<path d="M187.309 238.264C184.337 238.264 179.915 237.976 179.915 237.183C179.915 236.388 184.337 236.102 187.309 236.102C190.282 236.102 194.702 236.388 194.702 237.183C194.703 237.976 190.282 238.264 187.309 238.264ZM187.309 236.31C182.859 236.31 180.126 236.818 180.126 237.183C180.126 237.548 182.859 238.055 187.309 238.055C191.761 238.055 194.493 237.547 194.493 237.183C194.493 236.819 191.761 236.31 187.309 236.31Z" fill="#FF7268"/>
<path d="M196.659 235.987C196.659 235.143 192.277 234.459 186.871 234.459C181.464 234.459 177.081 235.143 177.081 235.987C177.081 236.199 177.081 236.97 177.081 237.183C177.081 238.026 181.463 238.71 186.871 238.71C192.278 238.71 196.659 238.025 196.659 237.183C196.659 236.97 196.659 236.199 196.659 235.987Z" fill="#FF7268"/>
<path d="M196.659 235.987C196.659 236.831 192.277 237.515 186.871 237.515C181.464 237.515 177.081 236.831 177.081 235.987C177.081 235.143 181.463 234.459 186.871 234.459C192.278 234.459 196.659 235.142 196.659 235.987Z" fill="#F99EA3"/>
<path d="M186.87 237.07C183.898 237.07 179.478 236.782 179.478 235.988C179.478 235.195 183.899 234.906 186.87 234.906C189.841 234.906 194.263 235.195 194.263 235.988C194.263 236.782 189.842 237.07 186.87 237.07ZM186.87 235.115C182.42 235.115 179.687 235.623 179.687 235.988C179.687 236.353 182.42 236.859 186.87 236.859C191.322 236.859 194.054 236.352 194.054 235.988C194.054 235.623 191.322 235.115 186.87 235.115Z" fill="#FF7268"/>
<path d="M196.432 234.46C196.432 233.617 192.051 232.934 186.644 232.934C181.239 232.934 176.854 233.617 176.854 234.46C176.854 234.672 176.854 235.442 176.854 235.654C176.854 236.498 181.238 237.184 186.644 237.184C192.051 237.184 196.432 236.498 196.432 235.654C196.432 235.441 196.432 234.672 196.432 234.46Z" fill="#FF7268"/>
<path d="M196.432 234.46C196.432 235.304 192.051 235.988 186.644 235.988C181.239 235.988 176.854 235.304 176.854 234.46C176.854 233.617 181.238 232.934 186.644 232.934C192.051 232.933 196.432 233.617 196.432 234.46Z" fill="#F99EA3"/>
<path d="M186.644 235.543C183.672 235.543 179.25 235.255 179.25 234.46C179.25 233.667 183.673 233.379 186.644 233.379C189.617 233.379 194.039 233.667 194.039 234.46C194.039 235.255 189.617 235.543 186.644 235.543ZM186.644 233.589C182.194 233.589 179.461 234.097 179.461 234.46C179.461 234.825 182.194 235.334 186.644 235.334C191.096 235.334 193.828 234.824 193.828 234.46C193.828 234.097 191.095 233.589 186.644 233.589Z" fill="#FF7268"/>
<path d="M196.432 233.045C196.432 232.2 192.051 231.516 186.644 231.516C181.239 231.516 176.854 232.201 176.854 233.045C176.854 233.256 176.854 234.027 176.854 234.239C176.854 235.083 181.238 235.767 186.644 235.767C192.051 235.767 196.432 235.082 196.432 234.239C196.432 234.027 196.432 233.256 196.432 233.045Z" fill="#FF7268"/>
<path d="M196.432 233.045C196.432 233.888 192.051 234.571 186.644 234.571C181.239 234.571 176.854 233.888 176.854 233.045C176.854 232.2 181.238 231.516 186.644 231.516C192.051 231.516 196.432 232.201 196.432 233.045Z" fill="#F99EA3"/>
<path d="M186.644 234.127C183.672 234.127 179.25 233.839 179.25 233.046C179.25 232.251 183.673 231.963 186.644 231.963C189.617 231.963 194.039 232.251 194.039 233.046C194.039 233.839 189.617 234.127 186.644 234.127ZM186.644 232.172C182.194 232.172 179.461 232.681 179.461 233.045C179.461 233.408 182.194 233.917 186.644 233.917C191.096 233.917 193.828 233.408 193.828 233.045C193.828 232.681 191.095 232.172 186.644 232.172Z" fill="#FF7268"/>
<path d="M196.33 231.631C196.33 230.787 191.949 230.104 186.542 230.104C181.137 230.104 176.753 230.787 176.753 231.631C176.753 231.842 176.753 232.613 176.753 232.826C176.753 233.669 181.136 234.354 186.542 234.354C191.949 234.354 196.33 233.668 196.33 232.826C196.33 232.613 196.33 231.842 196.33 231.631Z" fill="#FF7268"/>
<path d="M196.33 231.631C196.33 232.476 191.949 233.159 186.542 233.159C181.137 233.159 176.753 232.476 176.753 231.631C176.753 230.787 181.136 230.104 186.542 230.104C191.95 230.104 196.33 230.787 196.33 231.631Z" fill="#F99EA3"/>
<path d="M186.542 232.713C183.57 232.713 179.148 232.425 179.148 231.632C179.148 230.838 183.571 230.551 186.542 230.551C189.514 230.551 193.936 230.838 193.936 231.632C193.936 232.424 189.514 232.713 186.542 232.713ZM186.542 230.76C182.092 230.76 179.359 231.267 179.359 231.632C179.359 231.997 182.093 232.504 186.542 232.504C190.993 232.504 193.726 231.996 193.726 231.632C193.727 231.267 190.993 230.76 186.542 230.76Z" fill="#FF7268"/>
<path d="M197.139 230.092C197.139 229.247 192.756 228.564 187.35 228.564C181.944 228.564 177.562 229.248 177.562 230.092C177.562 230.305 177.562 231.074 177.562 231.287C177.562 232.131 181.944 232.816 187.35 232.816C192.756 232.816 197.139 232.131 197.139 231.287C197.139 231.074 197.139 230.305 197.139 230.092Z" fill="#FF7268"/>
<path d="M197.139 230.092C197.139 230.937 192.756 231.62 187.35 231.62C181.944 231.62 177.562 230.937 177.562 230.092C177.562 229.247 181.944 228.564 187.35 228.564C192.756 228.564 197.139 229.248 197.139 230.092Z" fill="#F99EA3"/>
<path d="M187.35 231.176C184.377 231.176 179.957 230.888 179.957 230.093C179.957 229.3 184.378 229.012 187.35 229.012C190.322 229.012 194.743 229.3 194.743 230.093C194.743 230.887 190.322 231.176 187.35 231.176ZM187.35 229.22C182.899 229.22 180.166 229.728 180.166 230.093C180.166 230.458 182.9 230.966 187.35 230.966C191.801 230.966 194.533 230.457 194.533 230.093C194.533 229.729 191.801 229.22 187.35 229.22Z" fill="#FF7268"/>
<path d="M197.593 228.794C197.593 227.949 193.211 227.266 187.805 227.266C182.398 227.266 178.016 227.949 178.016 228.794C178.016 229.006 178.016 229.777 178.016 229.988C178.016 230.832 182.398 231.516 187.805 231.516C193.211 231.516 197.593 230.832 197.593 229.988C197.593 229.777 197.593 229.006 197.593 228.794Z" fill="#FF7268"/>
<path d="M197.593 228.794C197.593 229.637 193.211 230.321 187.805 230.321C182.398 230.321 178.016 229.636 178.016 228.794C178.016 227.949 182.398 227.266 187.805 227.266C193.211 227.266 197.593 227.949 197.593 228.794Z" fill="#F99EA3"/>
<path d="M187.805 229.877C184.832 229.877 180.411 229.589 180.411 228.794C180.411 228 184.832 227.713 187.805 227.713C190.777 227.713 195.198 228 195.198 228.794C195.198 229.589 190.776 229.877 187.805 229.877ZM187.805 227.922C183.353 227.922 180.621 228.43 180.621 228.795C180.621 229.16 183.354 229.667 187.805 229.667C192.255 229.667 194.987 229.159 194.987 228.795C194.987 228.431 192.255 227.922 187.805 227.922Z" fill="#FF7268"/>
<path d="M196.432 227.114C196.432 226.27 192.051 225.586 186.644 225.586C181.239 225.586 176.854 226.27 176.854 227.114C176.854 227.326 176.854 228.096 176.854 228.308C176.854 229.152 181.238 229.837 186.644 229.837C192.051 229.837 196.432 229.152 196.432 228.308C196.432 228.096 196.432 227.326 196.432 227.114Z" fill="#FF7268"/>
<path d="M196.432 227.114C196.432 227.958 192.051 228.642 186.644 228.642C181.239 228.642 176.854 227.958 176.854 227.114C176.854 226.27 181.238 225.586 186.644 225.586C192.051 225.585 196.432 226.269 196.432 227.114Z" fill="#F99EA3"/>
<path d="M186.644 228.197C183.672 228.197 179.25 227.909 179.25 227.115C179.25 226.321 183.673 226.033 186.644 226.033C189.617 226.033 194.039 226.321 194.039 227.115C194.039 227.909 189.617 228.197 186.644 228.197ZM186.644 226.242C182.194 226.242 179.461 226.75 179.461 227.114C179.461 227.479 182.194 227.987 186.644 227.987C191.096 227.987 193.828 227.478 193.828 227.114C193.828 226.75 191.095 226.242 186.644 226.242Z" fill="#FF7268"/>
<path d="M175.884 227.042C175.159 226.613 172.334 230.032 169.575 234.682C166.818 239.332 165.173 243.452 165.898 243.881C166.079 243.989 166.742 244.383 166.924 244.49C167.65 244.921 170.475 241.5 173.232 236.85C175.99 232.2 177.636 228.082 176.911 227.651C176.729 227.543 176.066 227.151 175.884 227.042Z" fill="#FF7268"/>
<path d="M175.884 227.042C176.61 227.472 174.963 231.592 172.205 236.242C169.448 240.892 166.623 244.311 165.898 243.881C165.173 243.451 166.818 239.332 169.575 234.682C172.334 230.032 175.159 226.613 175.884 227.042Z" fill="#F99EA3"/>
<path d="M171.821 236.012C170.306 238.57 167.801 242.225 167.119 241.822C166.435 241.417 168.443 237.466 169.961 234.909C171.476 232.353 173.979 228.697 174.661 229.101C175.345 229.507 173.337 233.456 171.821 236.012ZM170.139 235.016C167.87 238.845 166.912 241.454 167.226 241.64C167.539 241.827 169.371 239.734 171.642 235.906C173.912 232.078 174.869 229.469 174.556 229.283C174.242 229.097 172.41 231.188 170.139 235.016Z" fill="#FF7268"/>
<path d="M158.651 244.809C158.373 244.809 157.275 244.809 156.997 244.809C149.335 244.809 143.124 251.02 143.124 258.683C143.124 266.343 149.335 272.555 156.997 272.555C157.275 272.555 158.373 272.555 158.651 272.555C166.312 272.555 172.523 266.343 172.523 258.683C172.523 251.02 166.313 244.809 158.651 244.809Z" fill="#F99EA3"/>
<path d="M172.523 258.683C172.523 266.343 166.312 272.555 158.651 272.555C150.989 272.555 144.778 266.343 144.778 258.683C144.778 251.02 150.989 244.809 158.651 244.809C166.313 244.809 172.523 251.02 172.523 258.683Z" fill="#FF7268"/>
<path d="M158.651 270.233C152.281 270.233 147.1 265.051 147.1 258.683C147.1 252.312 152.281 247.131 158.651 247.131C165.02 247.131 170.202 252.312 170.202 258.683C170.202 265.051 165.02 270.233 158.651 270.233ZM158.651 247.825C152.664 247.825 147.793 252.695 147.793 258.683C147.793 264.669 152.664 269.54 158.651 269.54C164.637 269.54 169.509 264.669 169.509 258.683C169.509 252.695 164.637 247.825 158.651 247.825Z" fill="#F99EA3"/>
<path d="M164.446 286.218C164.446 286.218 168.746 297.712 160.06 300.168L154.971 308.678L141.372 300.431L145.758 293.06C145.758 293.06 141.724 286.217 143.039 282.706C144.355 279.198 146.636 278.934 146.636 278.934C146.636 278.934 144.532 270.749 148.392 264.97C152.251 259.191 157.437 255.193 166.554 256.56C168.309 256.823 169.536 261.473 165.677 261.825C161.816 262.175 154.885 264.003 153.042 271.915C153.042 271.915 156.462 267.177 161.464 270.511C161.464 270.511 165.505 267.88 168.222 271.564C168.222 271.564 172.344 271.036 173.748 277.178C175.151 283.322 167.781 287.884 164.446 286.218Z" fill="#F6A9A3"/>
<path d="M164.446 286.482C164.37 286.482 164.295 286.448 164.243 286.385C164.167 286.294 162.397 284.136 163.058 282.389C163.675 280.761 165.763 278.622 168.279 279.203C168.421 279.234 168.51 279.378 168.478 279.52C168.445 279.662 168.305 279.75 168.16 279.717C166.05 279.233 164.126 281.066 163.554 282.578C163.002 284.033 164.633 286.027 164.65 286.047C164.743 286.159 164.728 286.327 164.615 286.419C164.565 286.462 164.506 286.482 164.446 286.482Z" fill="#F48B78"/>
<path d="M160.849 278.497C160.824 278.497 160.798 278.494 160.773 278.486C160.632 278.445 160.554 278.297 160.595 278.157C162.467 271.916 168.139 271.308 168.196 271.301C168.348 271.292 168.472 271.394 168.486 271.54C168.5 271.686 168.393 271.815 168.248 271.829C168.029 271.85 162.871 272.419 161.103 278.308C161.069 278.423 160.964 278.497 160.849 278.497Z" fill="#F48B78"/>
<path d="M154.884 277.356C154.874 277.356 154.866 277.356 154.857 277.356C154.711 277.341 154.605 277.211 154.62 277.067C154.98 273.452 161.086 270.403 161.346 270.276C161.478 270.21 161.636 270.265 161.7 270.396C161.765 270.527 161.712 270.686 161.58 270.75C161.519 270.78 155.479 273.796 155.146 277.119C155.134 277.255 155.018 277.356 154.884 277.356Z" fill="#F48B78"/>
<path d="M146.898 280.867C146.779 280.867 146.67 280.785 146.641 280.664C146.637 280.647 146.212 278.865 146.034 277.119C146.019 276.974 146.125 276.845 146.27 276.829C146.413 276.818 146.546 276.92 146.56 277.065C146.735 278.776 147.153 280.522 147.157 280.539C147.19 280.681 147.104 280.825 146.962 280.86C146.94 280.864 146.919 280.867 146.898 280.867Z" fill="#F48B78"/>
<path d="M87.7008 354.998C87.7008 354.998 88.261 271.13 86.775 264.971C86.775 264.971 71.2302 249.004 49.1705 249.981C27.1115 250.958 13.9481 274.315 10.5508 305.737C7.15343 337.162 6.94043 354.998 6.94043 354.998H87.7008Z" fill="#080E3F"/>
<path d="M143.705 297.126C143.705 297.126 154.173 292.168 158.358 307.275C158.358 307.275 141.555 332.064 130.513 337.374C119.472 342.683 106.406 335.25 79.2053 307.86C79.2053 307.86 71.6999 273.251 86.7746 264.971L128.391 311.046L143.705 297.126Z" fill="#080E3F"/>
<path d="M77.3372 238.998L73.5458 255.63C73.5458 255.63 57.9073 263.71 44.5742 251.068C44.5742 251.068 51.4974 240.578 54.9388 232.488L77.3372 238.998Z" fill="#F6A9A3"/>
<path d="M95.7185 213.981C97.867 216.187 99.446 224.373 98.4676 226.002C97.4885 227.632 93.4742 227.123 92.488 226.489C91.5018 225.855 94.3049 212.53 95.7185 213.981Z" fill="#F48B78"/>
<path d="M46.3692 209.574C43.1841 223.842 51.5458 237.861 65.0457 240.889C78.5471 243.915 92.0733 234.804 95.2598 220.537C98.4455 206.269 90.0832 192.251 76.5825 189.223C63.0819 186.197 49.5549 195.307 46.3692 209.574Z" fill="#F6A9A3"/>
<path d="M96.7705 193.75C96.7705 193.75 93.2006 207.449 76.3154 207.772C76.3154 207.772 72.7697 233.967 57.0915 237.504C57.0915 237.504 47.4326 235.129 42.2546 222.117C36.9999 208.92 43.4779 187.258 60.5527 185.629C71.6614 177.655 89.1153 177.534 96.7705 193.75Z" fill="#080E3F"/>
<path d="M63.182 222.006C62.1596 226.586 65.0344 231.13 69.6061 232.156C74.1771 233.179 78.7111 230.298 79.7342 225.718C80.7566 221.137 77.8804 216.593 73.3095 215.569C68.7392 214.543 64.2058 217.424 63.182 222.006Z" fill="#F6A9A3"/>
<path d="M74.7835 227.809C74.7387 227.799 74.6947 227.778 74.6592 227.741C74.5549 227.64 74.5506 227.473 74.6507 227.37C75.4374 226.549 75.8811 225.47 75.9031 224.334C75.9493 221.851 73.9677 219.793 71.4933 219.747C69.0154 219.702 66.9607 221.684 66.9153 224.167C66.9124 224.313 66.7917 224.429 66.6469 224.427C66.5013 224.427 66.3856 224.304 66.3877 224.158C66.4403 221.382 68.7343 219.168 71.5033 219.22C74.2723 219.27 76.4818 221.57 76.4293 224.344C76.4072 225.614 75.9095 226.818 75.032 227.735C74.9638 227.805 74.8694 227.828 74.7835 227.809Z" fill="#F48B78"/>
<path d="M71.9465 228.869C70.5336 228.551 69.5276 227.267 69.5552 225.816C69.5865 224.125 70.9866 222.772 72.6764 222.803C72.8837 222.807 73.0896 222.832 73.2898 222.876C74.7035 223.193 75.7095 224.479 75.6833 225.932C75.6513 227.624 74.2505 228.976 72.5628 228.943C72.3541 228.938 72.1467 228.914 71.9465 228.869ZM73.1748 223.392C73.0087 223.354 72.8383 223.333 72.6665 223.33C71.2678 223.305 70.1076 224.425 70.0806 225.826C70.0586 227.028 70.8915 228.091 72.0608 228.355C72.2277 228.391 72.3995 228.412 72.5713 228.417C73.97 228.442 75.1287 227.323 75.1557 225.922C75.177 224.717 74.3442 223.655 73.1748 223.392Z" fill="#F48B78"/>
<path d="M54.848 197.276C53.4408 200.31 50.3359 201.861 47.9106 200.737C45.4859 199.612 44.6616 196.242 46.0681 193.206C47.4754 190.17 50.5816 188.619 53.0055 189.743C55.4309 190.867 56.2552 194.24 54.848 197.276Z" fill="#5758FF"/>
<path d="M92.9453 214.685C92.4469 216.267 91.3223 218.088 89.4045 217.244C87.6366 216.466 86.3686 214.58 85.562 212.896C85.2837 212.313 86.1343 211.763 86.4169 212.352C87.0104 213.597 87.7943 214.747 88.8202 215.674C90.3268 217.042 91.416 216.191 91.9591 214.462C92.1537 213.844 93.142 214.06 92.9453 214.685Z" fill="#222221"/>
<path d="M47.8917 198.583C47.8917 198.583 41.5167 195.2 40.223 204.134C38.9294 213.072 40.8997 231.799 31.468 239.672C22.0399 247.539 6.9432 241.176 4.91686 232.668C3.71625 227.626 4.10249 222.452 8.78423 219.248C12.8057 216.393 16.9471 217.175 20.8038 219.766C18.3359 210.187 22.1045 187.372 31.2273 182.942C38.4424 179.437 47.7781 185.786 51.1514 189.83C51.1514 189.83 52.9796 192.084 51.1201 196.005C49.845 198.693 47.8917 198.583 47.8917 198.583Z" fill="#080E3F"/>
<path d="M78.8602 307.935C78.8453 307.866 77.3621 300.946 77.044 292.664C76.6152 281.504 78.3916 273.317 82.3215 268.334L82.8767 268.77C73.739 280.359 79.49 307.512 79.5503 307.784L78.8602 307.935Z" fill="#5758FF"/>
</svg>
