<svg width="44" height="44" viewBox="0 0 44 44" fill="none" xmlns="http://www.w3.org/2000/svg">
<path d="M16.1043 37.6482C16.1024 37.8711 16.1277 39.4587 16.0535 39.7551C15.6616 41.3515 13.3653 42.1411 11.7212 42.2767C11.222 42.319 10.7058 42.319 10.2066 42.2767C8.4903 42.1174 6.23537 41.3284 5.84891 39.7551C5.80661 39.6028 5.78967 39.459 5.78967 39.3067V37.5467C5.78595 37.3948 5.79891 37.2434 5.84044 37.0982C6.2428 35.489 8.5059 34.7355 10.1728 34.5766C10.672 34.5343 11.1797 34.5343 11.6874 34.5766C13.3849 34.7411 15.5879 35.4664 16.0535 37.0982C16.1043 37.2759 16.1212 37.4621 16.1043 37.6482Z" fill="#F9A83D"/>
<path d="M16.1004 37.5502C16.0944 38.2146 16.1316 39.4111 16.0477 39.7596C15.6675 41.3147 13.4594 42.1303 11.7166 42.2755C11.2161 42.3177 10.705 42.3203 10.2018 42.2755C8.4913 42.1275 6.25184 41.336 5.84184 39.757C5.80231 39.6068 5.78125 39.4567 5.78125 39.3039L5.78387 37.5449C5.78387 37.6872 5.80495 37.8321 5.84184 37.9743C6.25031 39.5475 8.49707 40.3482 10.2018 40.4902C10.705 40.535 11.2161 40.535 11.7193 40.4902C13.3645 40.3527 15.6544 39.5832 16.0477 37.9743C16.0819 37.8347 16.1004 37.6924 16.1004 37.5502Z" fill="#FFD475"/>
<path d="M16.0417 37.0971C16.1171 37.3884 16.1188 37.6837 16.0467 37.975C15.6561 39.5688 13.3958 40.3499 11.7169 40.4912C11.2142 40.5339 10.7029 40.5349 10.2013 40.4912C8.50635 40.347 6.25559 39.5579 5.83991 37.9731C5.76284 37.6827 5.76284 37.3866 5.83329 37.0962C6.22153 35.5312 8.43583 34.7254 10.1664 34.5781C10.6674 34.5363 11.1771 34.5363 11.6803 34.579C13.3387 34.7218 15.6242 35.4868 16.0417 37.0971Z" fill="#F9A83D"/>
<path d="M16.0467 37.9771C15.6807 39.5262 13.4658 40.3242 11.7998 40.4843C11.7743 40.4843 11.7487 40.4928 11.7231 40.4928C11.1904 40.5295 10.7489 40.5472 10.2051 40.4928C8.51934 40.345 6.27526 39.577 5.83883 37.9771C5.76206 37.6871 5.76206 37.3887 5.83883 37.0987C6.20071 35.5399 8.4417 34.7288 10.171 34.5745C10.6268 34.545 11.2283 34.5327 11.6804 34.583C11.7231 34.583 11.7572 34.5915 11.7998 34.6C13.4223 34.725 15.6324 35.5515 16.0467 37.0987C16.1235 37.3887 16.1235 37.6871 16.0467 37.9771Z" fill="#F9A83D"/>
<path d="M10.2505 40.0681C8.75432 39.9372 6.63089 39.2505 6.25393 37.8645C6.19647 37.6484 6.19647 37.4264 6.25476 37.2078C6.57715 35.8172 8.73972 35.1298 10.2127 34.9988C10.6382 34.9713 11.2118 34.9594 11.6376 35.0063L11.7704 35.0246C13.1841 35.1332 15.2793 35.8672 15.6384 37.2086C15.6962 37.4264 15.6962 37.6484 15.6379 37.867C15.3195 39.2167 13.2368 39.9174 11.7625 40.0593C11.2853 40.0974 10.8185 40.1248 10.2505 40.0681Z" fill="#FFD475"/>
<path d="M13.1367 37.9997C13.223 37.8585 13.2387 37.7173 13.1994 37.584C13.1524 37.4506 13.0426 37.333 12.8778 37.2388C12.666 37.1133 12.4464 37.0427 12.2111 37.027C11.9836 37.0192 11.764 37.0349 11.5443 37.0819C11.356 37.129 11.1442 37.1918 10.9011 37.278L9.97546 36.7447C10.1873 36.6348 10.4147 36.5485 10.6501 36.4858L10.7599 36.4466C10.8383 36.3995 10.8697 36.3446 10.8619 36.2897C10.854 36.2348 10.8226 36.1877 10.7599 36.1485C10.6422 36.0857 10.4932 36.0701 10.3442 36.1093C10.0539 36.1877 9.75585 36.2975 9.47347 36.4466L9.2303 36.3054C9.16754 36.274 9.10477 36.2583 9.0185 36.2583C8.94003 36.2583 8.86946 36.274 8.81454 36.3054C8.75963 36.3367 8.72827 36.3838 8.72827 36.4231C8.72827 36.4701 8.75963 36.5093 8.82239 36.5485L9.06556 36.6897C8.89296 36.8153 8.77533 36.9408 8.72042 37.0741C8.6498 37.2153 8.6498 37.3565 8.69686 37.482C8.75963 37.6153 8.87731 37.7252 9.0342 37.8193C9.2303 37.9291 9.43421 37.9919 9.66958 38.0075C9.88134 38.0233 10.1088 38.0075 10.3206 37.9526C10.5011 37.9213 10.7207 37.8585 10.9481 37.7801L11.8424 38.2978C11.5914 38.4155 11.3168 38.5174 11.0187 38.5802C10.9638 38.5959 10.9246 38.6116 10.8854 38.6351C10.8148 38.6743 10.7677 38.7292 10.7756 38.7841C10.7756 38.839 10.8148 38.8861 10.8854 38.9253C10.9403 38.9567 11.003 38.9802 11.0815 38.9881L11.2933 38.9724C11.6698 38.8861 12.0306 38.7606 12.3601 38.6037L12.6033 38.7449C12.666 38.7763 12.7445 38.7998 12.815 38.7998C12.8935 38.792 12.9641 38.7763 13.019 38.7449C13.0739 38.7135 13.1053 38.6665 13.1053 38.6273C13.1053 38.5802 13.0739 38.5409 13.019 38.5096L12.768 38.3605C12.9406 38.2507 13.0661 38.1252 13.1367 37.9997ZM9.55189 37.4899C9.44206 37.4192 9.38715 37.3487 9.41071 37.2545C9.42641 37.1682 9.48913 37.0819 9.5911 36.9957L10.3912 37.4584C10.2108 37.5134 10.0461 37.5448 9.92055 37.5604C9.77151 37.5761 9.66172 37.5448 9.55189 37.4899ZM12.2424 38.0625L11.4659 37.6075C11.662 37.5448 11.8424 37.4977 11.9758 37.482C12.1169 37.4584 12.2189 37.4742 12.3052 37.5291C12.4699 37.6232 12.6346 37.7801 12.2424 38.0625Z" fill="#F9A83D"/>
<path d="M16.1043 35.4412C16.0987 36.0965 16.1271 37.244 16.0535 37.5565C15.6553 39.1501 13.3509 39.9353 11.7212 40.0696C11.222 40.1119 10.7058 40.1119 10.2066 40.0696C8.5054 39.9118 6.2371 39.1284 5.84891 37.5481C5.80661 37.3958 5.78967 37.2519 5.78967 37.0996V35.3396C5.78595 35.1877 5.79891 35.0364 5.84044 34.8911C5.86585 34.7727 5.90814 34.6542 5.96738 34.5358C6.60505 33.154 8.63914 32.5122 10.1728 32.3696C10.672 32.3273 11.1797 32.3273 11.6874 32.3696C13.3573 32.531 15.4752 33.2596 15.9943 34.7135C16.0197 34.7727 16.0366 34.8319 16.0535 34.8911C16.1043 35.0688 16.1212 35.255 16.1043 35.4412Z" fill="#F9A83D"/>
<path d="M16.1004 35.3432C16.0944 36.0075 16.1316 37.2041 16.0477 37.5526C15.6571 39.1503 13.3575 39.9318 11.7166 40.0685C11.2161 40.1107 10.705 40.1133 10.2018 40.0685C8.54191 39.9249 6.25844 39.1544 5.84184 37.55C5.80231 37.3998 5.78125 37.2496 5.78125 37.0969L5.78387 35.3379C5.78387 35.4802 5.80495 35.6251 5.84184 35.7673C6.25747 37.368 8.55429 38.1459 10.2018 38.2832C10.705 38.328 11.2161 38.328 11.7193 38.2832C13.3741 38.1449 15.6572 37.3648 16.0477 35.7673C16.0819 35.6277 16.1004 35.4854 16.1004 35.3432Z" fill="#FFD475"/>
<path d="M16.0417 34.8901C16.1171 35.1814 16.1188 35.4766 16.0467 35.768C15.6549 37.3668 13.3668 38.1453 11.7169 38.2841C11.2142 38.3269 10.7029 38.3278 10.2013 38.2841C8.54193 38.143 6.2604 37.3692 5.83991 35.7661C5.76284 35.4757 5.76284 35.1795 5.83329 34.8892C6.22961 33.2915 8.50346 32.5127 10.1664 32.371C10.6674 32.3293 11.1771 32.3293 11.6803 32.372C13.3279 32.5138 15.6251 33.2832 16.0417 34.8901Z" fill="#F9A83D"/>
<path d="M16.0467 35.7701C15.6566 37.421 12.9546 38.2858 11.7231 38.2858C11.1904 38.3225 10.7489 38.3401 10.2051 38.2858C8.48757 38.1352 6.27576 37.3718 5.83883 35.7701C5.76206 35.4801 5.76206 35.1816 5.83883 34.8917C6.20122 33.3307 8.44488 32.5215 10.171 32.3674C10.6268 32.338 11.2283 32.3257 11.6804 32.376C11.7231 32.376 11.7572 32.3845 11.7998 32.393C13.4298 32.5185 15.6339 33.3502 16.0467 34.8917C16.1235 35.1816 16.1235 35.4801 16.0467 35.7701Z" fill="#F9A83D"/>
<path d="M10.2505 37.861C8.7296 37.728 6.63346 37.053 6.25393 35.6574C6.19647 35.4413 6.19647 35.2194 6.25476 35.0008C6.57715 33.6101 8.73972 32.9228 10.2127 32.7918C10.6382 32.7643 11.2118 32.7523 11.6376 32.7993L11.7704 32.8176C13.1823 32.926 15.2786 33.6573 15.6384 35.0016C15.6962 35.2194 15.6962 35.4413 15.6379 35.6599C15.3179 37.0165 13.2303 37.711 11.7625 37.8523C11.2853 37.8904 10.8185 37.9177 10.2505 37.861Z" fill="#FFD475"/>
<path d="M13.1367 35.7927C13.223 35.6515 13.2387 35.5103 13.1994 35.3769C13.1524 35.2436 13.0426 35.1259 12.8778 35.0318C12.666 34.9063 12.4464 34.8357 12.2111 34.82C11.9836 34.8121 11.764 34.8278 11.5443 34.8749C11.356 34.922 11.1442 34.9847 10.9011 35.071L9.97546 34.5376C10.1873 34.4278 10.4147 34.3415 10.6501 34.2787L10.7599 34.2395C10.8383 34.1925 10.8697 34.1376 10.8619 34.0826C10.854 34.0277 10.8226 33.9807 10.7599 33.9415C10.6422 33.8787 10.4932 33.863 10.3442 33.9022C10.0539 33.9807 9.75585 34.0905 9.47347 34.2395L9.2303 34.0983C9.16754 34.067 9.10477 34.0513 9.0185 34.0513C8.94003 34.0513 8.86946 34.067 8.81454 34.0983C8.75963 34.1297 8.72827 34.1768 8.72827 34.216C8.72827 34.2631 8.75963 34.3023 8.82239 34.3415L9.06556 34.4827C8.89296 34.6082 8.77533 34.7337 8.72042 34.8671C8.6498 35.0083 8.6498 35.1495 8.69686 35.275C8.75963 35.4083 8.87731 35.5181 9.0342 35.6123C9.2303 35.7221 9.43421 35.7849 9.66958 35.8005C9.88134 35.8162 10.1088 35.8005 10.3206 35.7456C10.5011 35.7142 10.7207 35.6515 10.9481 35.5731L11.8424 36.0907C11.5914 36.2084 11.3168 36.3104 11.0187 36.3732C10.9638 36.3888 10.9246 36.4045 10.8854 36.428C10.8148 36.4673 10.7677 36.5222 10.7756 36.5771C10.7756 36.632 10.8148 36.6791 10.8854 36.7183C10.9403 36.7497 11.003 36.7732 11.0815 36.781L11.2933 36.7654C11.6698 36.6791 12.0306 36.5536 12.3601 36.3967L12.6033 36.5379C12.666 36.5693 12.7445 36.5928 12.815 36.5928C12.8935 36.5849 12.9641 36.5693 13.019 36.5379C13.0739 36.5065 13.1053 36.4594 13.1053 36.4202C13.1053 36.3732 13.0739 36.3339 13.019 36.3026L12.768 36.1535C12.9406 36.0437 13.0661 35.9182 13.1367 35.7927ZM9.55189 35.2828C9.44206 35.2122 9.38715 35.1416 9.41071 35.0475C9.42641 34.9612 9.48913 34.8749 9.5911 34.7886L10.3912 35.2514C10.2108 35.3063 10.0461 35.3377 9.92055 35.3534C9.77151 35.3691 9.66172 35.3377 9.55189 35.2828ZM12.2424 35.8554L11.4659 35.4005C11.662 35.3377 11.8424 35.2907 11.9758 35.275C12.1169 35.2514 12.2189 35.2671 12.3052 35.322C12.4699 35.4162 12.6346 35.5731 12.2424 35.8554Z" fill="#F9A83D"/>
<g opacity="0.3">
<path d="M16.1043 33.2322C16.0987 33.8876 16.1271 35.0351 16.0535 35.3476C15.6552 36.9413 13.3509 37.7262 11.7212 37.8606C11.222 37.9029 10.7058 37.9029 10.2066 37.8606C8.56992 37.7256 6.24 36.9314 5.84889 35.3391C5.80659 35.1952 5.78965 35.0429 5.78965 34.8906V33.1307C5.74433 31.2788 8.3175 30.3331 10.1728 30.1607C10.672 30.1183 11.1796 30.1183 11.6874 30.1607C13.3289 30.3194 15.4626 31.0159 15.9943 32.5045C16.0197 32.5637 16.0366 32.623 16.0535 32.6822C16.1043 32.8599 16.1212 33.046 16.1043 33.2322Z" fill="#F9A83D"/>
</g>
<path d="M16.1004 33.1361L16.1034 34.5736C16.1034 34.7159 16.0819 35.2033 16.0477 35.3456C15.6571 36.9433 13.3575 37.7247 11.7166 37.8615C11.2161 37.9036 10.705 37.9062 10.2018 37.8615C8.54191 37.7178 6.25844 36.9474 5.84184 35.3429C5.80231 35.1928 5.78125 35.0426 5.78125 34.8898L5.78387 33.1309C5.78387 33.2731 5.80495 33.418 5.84184 33.5603C6.25747 35.161 8.55429 35.9389 10.2018 36.0762C10.705 36.121 11.2161 36.121 11.7193 36.0762C13.3741 35.9378 15.6572 35.1578 16.0477 33.5603C16.0819 33.4207 16.1004 33.2784 16.1004 33.1361Z" fill="#FFD475"/>
<path d="M16.0417 32.6831C16.1171 32.9744 16.1188 33.2696 16.0467 33.5609C15.6549 35.1598 13.3668 35.9383 11.7169 36.0771C11.2142 36.1198 10.7029 36.1208 10.2013 36.0771C8.54193 35.936 6.2604 35.1622 5.83991 33.559C5.76284 33.2687 5.76284 32.9725 5.83329 32.6821C6.22153 31.1171 8.43583 30.3114 10.1664 30.164C10.6674 30.1223 11.1771 30.1223 11.6803 30.165C13.3279 30.3068 15.6251 31.0762 16.0417 32.6831Z" fill="#F9A83D"/>
<path d="M16.0467 33.563C15.7617 34.7692 14.3098 35.5206 13.0961 35.8399C12.6782 35.9508 12.2433 36.0276 11.7998 36.0702C11.7743 36.0702 11.7487 36.0787 11.7231 36.0787C11.4758 36.0958 11.2285 36.1128 10.9726 36.1128C10.7168 36.1128 10.4609 36.1043 10.2051 36.0787C9.71901 36.0361 9.24145 35.9593 8.7895 35.8314C7.59084 35.5399 6.16093 34.7438 5.83883 33.563C5.76206 33.273 5.76206 32.9746 5.83883 32.6846C6.11305 31.5034 7.60644 30.6879 8.7895 30.4077C9.23292 30.2798 9.69346 30.203 10.171 30.1604C10.4354 30.1433 10.7083 30.1348 10.9726 30.1348C11.2029 30.1348 11.4502 30.1433 11.6804 30.1689C11.7231 30.1689 11.7572 30.1774 11.7998 30.1859C12.2433 30.2201 12.6782 30.2968 13.0961 30.4162C14.2761 30.7033 15.7285 31.4963 16.0467 32.6846C16.1235 32.9746 16.1235 33.273 16.0467 33.563Z" fill="#F9A83D"/>
<path d="M10.9763 35.686C10.7344 35.686 10.4925 35.6781 10.2505 35.654C9.74587 35.6098 9.30865 35.5336 8.90932 35.4208C7.87881 35.1697 6.5324 34.4743 6.25393 33.4504C6.19647 33.2343 6.19647 33.0123 6.25476 32.7937C6.49058 31.7765 7.87107 31.0636 8.89142 30.8225C9.3049 30.7034 9.73046 30.6276 10.2127 30.5847C10.4575 30.5689 10.7211 30.5605 10.9763 30.5605C11.1912 30.5605 11.4223 30.5685 11.6376 30.5922L11.7704 30.6105C12.1881 30.6426 12.5957 30.715 12.9821 30.8258C14.0106 31.0774 15.3642 31.7701 15.6384 32.7945C15.6962 33.0123 15.6962 33.2343 15.6379 33.4529C15.3925 34.4933 14.0462 35.1511 12.9917 35.4266C12.5991 35.5311 12.1864 35.6044 11.7625 35.6452C11.4598 35.6694 11.222 35.686 10.9763 35.686Z" fill="#FFD475"/>
<path d="M13.1367 33.5856C13.223 33.4444 13.2387 33.3033 13.1994 33.1699C13.1524 33.0366 13.0426 32.9189 12.8778 32.8248C12.666 32.6992 12.4464 32.6287 12.2111 32.613C11.9836 32.6051 11.764 32.6208 11.5443 32.6679C11.356 32.7149 11.1442 32.7777 10.9011 32.864L9.97546 32.3306C10.1873 32.2208 10.4147 32.1345 10.6501 32.0717L10.7599 32.0325C10.8383 31.9854 10.8697 31.9305 10.8619 31.8756C10.854 31.8207 10.8226 31.7736 10.7599 31.7344C10.6422 31.6717 10.4932 31.656 10.3442 31.6952C10.0539 31.7736 9.75585 31.8835 9.47347 32.0325L9.2303 31.8913C9.16754 31.86 9.10477 31.8443 9.0185 31.8443C8.94003 31.8443 8.86946 31.86 8.81454 31.8913C8.75963 31.9227 8.72827 31.9697 8.72827 32.009C8.72827 32.0561 8.75963 32.0953 8.82239 32.1345L9.06556 32.2757C8.89296 32.4012 8.77533 32.5267 8.72042 32.66C8.6498 32.8012 8.6498 32.9425 8.69686 33.0679C8.75963 33.2013 8.87731 33.3111 9.0342 33.4052C9.2303 33.5151 9.43421 33.5778 9.66958 33.5935C9.88134 33.6092 10.1088 33.5935 10.3206 33.5386C10.5011 33.5072 10.7207 33.4444 10.9481 33.366L11.8424 33.8837C11.5914 34.0014 11.3168 34.1034 11.0187 34.1661C10.9638 34.1818 10.9246 34.1975 10.8854 34.221C10.8148 34.2603 10.7677 34.3152 10.7756 34.3701C10.7756 34.425 10.8148 34.472 10.8854 34.5113C10.9403 34.5426 11.003 34.5662 11.0815 34.574L11.2933 34.5583C11.6698 34.472 12.0306 34.3465 12.3601 34.1896L12.6033 34.3308C12.666 34.3622 12.7445 34.3858 12.815 34.3858C12.8935 34.3779 12.9641 34.3622 13.019 34.3308C13.0739 34.2995 13.1053 34.2524 13.1053 34.2132C13.1053 34.1661 13.0739 34.1269 13.019 34.0955L12.768 33.9465C12.9406 33.8367 13.0661 33.7112 13.1367 33.5856ZM9.55189 33.0758C9.44206 33.0052 9.38715 32.9346 9.41071 32.8405C9.42641 32.7542 9.48913 32.6679 9.5911 32.5816L10.3912 33.0444C10.2108 33.0993 10.0461 33.1307 9.92055 33.1464C9.77151 33.1621 9.66172 33.1307 9.55189 33.0758ZM12.2424 33.6484L11.4659 33.1934C11.662 33.1307 11.8424 33.0836 11.9758 33.0679C12.1169 33.0444 12.2189 33.0601 12.3052 33.115C12.4699 33.2091 12.6346 33.366 12.2424 33.6484Z" fill="#F9A83D"/>
<g opacity="0.3">
<path d="M10.9722 30.1348V36.1128C10.7163 36.1128 10.4605 36.1043 10.2047 36.0787C9.71857 36.0361 9.24101 35.9593 8.78906 35.8314V30.4077C9.23248 30.2798 9.69302 30.203 10.1706 30.1604C10.4349 30.1433 10.7078 30.1348 10.9722 30.1348Z" fill="white"/>
<path d="M13.0931 30.4158V35.8395C12.6753 35.9504 12.2403 36.0272 11.7969 36.0698V30.1855C12.2403 30.2197 12.6753 30.2964 13.0931 30.4158Z" fill="white"/>
</g>
<path d="M27.3738 30.9936C27.3679 31.6579 27.405 32.8545 27.3211 33.203C26.941 34.7581 24.7329 35.5736 22.9901 35.7189C22.4895 35.761 21.9785 35.7637 21.4753 35.7189C19.8153 35.5753 17.5319 34.8048 17.1153 33.2004C17.0758 33.0502 17.0547 32.9 17.0547 32.7472L17.0573 30.9883C17.0573 31.1306 17.0784 31.2754 17.1153 31.4177C17.5237 32.9909 19.7705 33.7916 21.4753 33.9336C21.9784 33.9784 22.4895 33.9784 22.9927 33.9336C24.7093 33.7901 26.9386 32.9824 27.3211 31.4177C27.3553 31.2781 27.3738 31.1358 27.3738 30.9936Z" fill="#FFD475"/>
<path d="M27.3152 30.5405C27.3906 30.8318 27.3922 31.127 27.3201 31.4184C26.9379 32.978 24.7314 33.788 22.9904 33.9345C22.4876 33.9773 21.9763 33.9782 21.4748 33.9345C19.7798 33.7904 17.529 33.0013 17.1133 31.4165C17.0363 31.1261 17.0363 30.8299 17.1067 30.5395C17.4938 28.9793 19.6932 28.1702 21.4398 28.0214C21.9409 27.9797 22.4505 27.9797 22.9537 28.0224C24.6317 28.1668 26.9009 28.9429 27.3152 30.5405Z" fill="#F9A83D"/>
<path d="M27.3201 31.4205C26.9594 32.9474 24.802 33.7615 23.0733 33.9277C23.0477 33.9277 23.0221 33.9362 22.9965 33.9362C22.4639 33.9728 22.0224 33.9905 21.4785 33.9362C19.8011 33.7891 17.5497 33.0239 17.1123 31.4205C17.0355 31.1305 17.0355 30.832 17.1123 30.5421C17.4736 28.9856 19.7401 28.17 21.4445 28.0178C21.9002 27.9884 22.5018 27.9761 22.9539 28.0264C22.9965 28.0264 23.0306 28.0349 23.0733 28.0434C24.707 28.1692 26.9078 29.0023 27.3201 30.5421C27.3969 30.832 27.3969 31.1305 27.3201 31.4205Z" fill="#F9A83D"/>
<path d="M21.524 33.5114C20.0318 33.3809 17.9056 32.6985 17.5274 31.3078C17.4699 31.0917 17.4699 30.8698 17.5282 30.6512C17.8416 29.2991 19.969 28.5771 21.4861 28.4422C21.9116 28.4147 22.4852 28.4027 22.911 28.4497L23.0439 28.468C24.4576 28.5765 26.5528 29.3105 26.9118 30.652C26.9697 30.8698 26.9697 31.0917 26.9114 31.3103C26.5974 32.6413 24.558 33.3562 23.0359 33.5027C22.5588 33.5408 22.0919 33.5681 21.524 33.5114Z" fill="#FFD475"/>
<path d="M24.4101 31.4431C24.4964 31.3019 24.5121 31.1607 24.4729 31.0273C24.4258 30.894 24.316 30.7763 24.1512 30.6822C23.9394 30.5567 23.7198 30.4861 23.4845 30.4704C23.257 30.4625 23.0374 30.4782 22.8177 30.5253C22.6295 30.5724 22.4177 30.6351 22.1745 30.7214L21.2489 30.188C21.4607 30.0782 21.6882 29.9919 21.9235 29.9291L22.0333 29.8899C22.1118 29.8429 22.1431 29.7879 22.1353 29.733C22.1274 29.6781 22.0961 29.6311 22.0333 29.5918C21.9157 29.5291 21.7666 29.5134 21.6176 29.5526C21.3274 29.6311 21.0293 29.7409 20.7469 29.8899L20.5037 29.7487C20.441 29.7174 20.3782 29.7017 20.2919 29.7017C20.2135 29.7017 20.1429 29.7174 20.088 29.7487C20.0331 29.7801 20.0017 29.8272 20.0017 29.8664C20.0017 29.9135 20.0331 29.9527 20.0958 29.9919L20.339 30.1331C20.1664 30.2586 20.0488 30.3841 19.9939 30.5174C19.9232 30.6586 19.9232 30.7999 19.9703 30.9254C20.0331 31.0587 20.1507 31.1685 20.3076 31.2627C20.5037 31.3725 20.7077 31.4353 20.943 31.4509C21.1548 31.4666 21.3823 31.4509 21.594 31.396C21.7745 31.3646 21.9941 31.3019 22.2216 31.2234L23.1158 31.7411C22.8648 31.8588 22.5903 31.9608 22.2922 32.0236C22.2373 32.0392 22.1981 32.0549 22.1588 32.0784C22.0882 32.1177 22.0412 32.1726 22.049 32.2275C22.049 32.2824 22.0882 32.3294 22.1588 32.3687C22.2138 32.4001 22.2765 32.4236 22.355 32.4314L22.5667 32.4158C22.9433 32.3294 23.3041 32.204 23.6336 32.0471L23.8767 32.1883C23.9394 32.2197 24.0179 32.2432 24.0885 32.2432C24.1669 32.2353 24.2375 32.2197 24.2924 32.1883C24.3473 32.1569 24.3787 32.1098 24.3787 32.0706C24.3787 32.0236 24.3473 31.9843 24.2924 31.9529L24.0414 31.8039C24.214 31.6941 24.3395 31.5686 24.4101 31.4431ZM20.8253 30.9332C20.7155 30.8626 20.6606 30.792 20.6841 30.6979C20.6998 30.6116 20.7626 30.5253 20.8645 30.439L21.6647 30.9018C21.4843 30.9567 21.3195 30.9881 21.194 31.0038C21.0449 31.0195 20.9352 30.9881 20.8253 30.9332ZM23.5159 31.5058L22.7393 31.0508C22.9354 30.9881 23.1158 30.9411 23.2492 30.9254C23.3904 30.9018 23.4924 30.9175 23.5786 30.9724C23.7433 31.0666 23.9081 31.2234 23.5159 31.5058Z" fill="#F9A83D"/>
<path d="M27.3738 28.7865C27.3679 29.4509 27.405 30.6475 27.3211 30.996C26.9317 32.5888 24.6714 33.3717 22.9901 33.5119C22.4895 33.554 21.9785 33.5566 21.4753 33.5119C19.7722 33.3645 17.5261 32.5756 17.1153 30.9933C17.0758 30.8432 17.0547 30.693 17.0547 30.5402L17.0573 28.7812C17.0573 28.9235 17.0784 29.0684 17.1153 29.2107C17.5292 30.8049 19.789 31.5861 21.4753 31.7266C21.9784 31.7713 22.4895 31.7713 22.9927 31.7266C24.6731 31.5861 26.9321 30.8022 27.3211 29.2107C27.3553 29.071 27.3738 28.9288 27.3738 28.7865Z" fill="#FFD475"/>
<path d="M27.3152 28.3334C27.3906 28.6248 27.3922 28.92 27.3201 29.2113C26.9299 30.8038 24.6721 31.586 22.9904 31.7275C22.4876 31.7702 21.9763 31.7712 21.4748 31.7275C19.8081 31.5857 17.5354 30.8185 17.1133 29.2094C17.0363 28.9191 17.0363 28.6229 17.1067 28.3325C17.4938 26.7723 19.6932 25.9631 21.4398 25.8144C21.9409 25.7726 22.4505 25.7726 22.9537 25.8154C24.6081 25.9578 26.8971 26.7212 27.3152 28.3334Z" fill="#F9A83D"/>
<path d="M27.3201 29.2134C26.9544 30.7613 24.7445 31.56 23.0733 31.7206C23.0477 31.7206 23.0221 31.7292 22.9965 31.7292C22.4639 31.7658 22.0224 31.7835 21.4785 31.7292C19.764 31.5788 17.5484 30.8124 17.1123 29.2134C17.0355 28.9235 17.0355 28.625 17.1123 28.335C17.4736 26.7786 19.7401 25.9629 21.4445 25.8108C21.9002 25.7814 22.5018 25.769 22.9539 25.8193C22.9965 25.8193 23.0306 25.8278 23.0733 25.8364C24.7089 25.9623 26.9071 26.7928 27.3201 28.335C27.3969 28.625 27.3969 28.9235 27.3201 29.2134Z" fill="#F9A83D"/>
<path d="M21.524 31.3044C20.0042 31.1715 17.9063 30.4939 17.5274 29.1008C17.4699 28.8847 17.4699 28.6627 17.5282 28.4441C17.8416 27.092 19.969 26.3701 21.4861 26.2351C21.9116 26.2076 22.4852 26.1957 22.911 26.2426L23.0439 26.2609C24.4666 26.3702 26.5539 27.1077 26.9118 28.445C26.9697 28.6627 26.9697 28.8847 26.9114 29.1033C26.5928 30.4536 24.5083 31.1539 23.0359 31.2957C22.5588 31.3337 22.0919 31.3611 21.524 31.3044Z" fill="#FFD475"/>
<path d="M24.4101 29.236C24.4964 29.0948 24.5121 28.9536 24.4729 28.8203C24.4258 28.687 24.316 28.5693 24.1512 28.4752C23.9394 28.3496 23.7198 28.2791 23.4845 28.2634C23.257 28.2555 23.0374 28.2712 22.8177 28.3183C22.6295 28.3653 22.4177 28.4281 22.1745 28.5144L21.2489 27.981C21.4607 27.8712 21.6882 27.7849 21.9235 27.7221L22.0333 27.6829C22.1118 27.6358 22.1431 27.5809 22.1353 27.526C22.1274 27.4711 22.0961 27.424 22.0333 27.3848C21.9157 27.322 21.7666 27.3064 21.6176 27.3456C21.3274 27.424 21.0293 27.5339 20.7469 27.6829L20.5037 27.5417C20.441 27.5103 20.3782 27.4946 20.2919 27.4946C20.2135 27.4946 20.1429 27.5103 20.088 27.5417C20.0331 27.5731 20.0017 27.6201 20.0017 27.6594C20.0017 27.7065 20.0331 27.7457 20.0958 27.7849L20.339 27.9261C20.1664 28.0516 20.0488 28.1771 19.9939 28.3104C19.9232 28.4516 19.9232 28.5928 19.9703 28.7183C20.0331 28.8517 20.1507 28.9615 20.3076 29.0556C20.5037 29.1655 20.7077 29.2282 20.943 29.2439C21.1548 29.2596 21.3823 29.2439 21.594 29.189C21.7745 29.1576 21.9941 29.0948 22.2216 29.0164L23.1158 29.5341C22.8648 29.6518 22.5903 29.7538 22.2922 29.8165C22.2373 29.8322 22.1981 29.8479 22.1588 29.8714C22.0882 29.9107 22.0412 29.9656 22.049 30.0204C22.049 30.0754 22.0882 30.1224 22.1588 30.1617C22.2138 30.193 22.2765 30.2165 22.355 30.2244L22.5667 30.2087C22.9433 30.1224 23.3041 29.9969 23.6336 29.84L23.8767 29.9812C23.9394 30.0126 24.0179 30.0361 24.0885 30.0361C24.1669 30.0283 24.2375 30.0126 24.2924 29.9812C24.3473 29.9499 24.3787 29.9028 24.3787 29.8636C24.3787 29.8165 24.3473 29.7773 24.2924 29.7459L24.0414 29.5969C24.214 29.487 24.3395 29.3616 24.4101 29.236ZM20.8253 28.7262C20.7155 28.6556 20.6606 28.585 20.6841 28.4909C20.6998 28.4045 20.7626 28.3183 20.8645 28.232L21.6647 28.6948C21.4843 28.7497 21.3195 28.7811 21.194 28.7968C21.0449 28.8125 20.9352 28.7811 20.8253 28.7262ZM23.5159 29.2988L22.7393 28.8438C22.9354 28.7811 23.1158 28.734 23.2492 28.7183C23.3904 28.6948 23.4924 28.7105 23.5786 28.7654C23.7433 28.8595 23.9081 29.0164 23.5159 29.2988Z" fill="#F9A83D"/>
<path d="M27.3738 26.5795L27.3769 28.017C27.3769 28.1592 27.3553 28.6467 27.3211 28.7889C26.9305 30.3867 24.6309 31.1681 22.9901 31.3048C22.4895 31.347 21.9785 31.3496 21.4753 31.3048C19.8153 31.1612 17.5319 30.3908 17.1153 28.7863C17.0758 28.6361 17.0547 28.486 17.0547 28.3332L17.0573 26.5742C17.0573 26.7165 17.0784 26.8614 17.1153 27.0036C17.5237 28.5768 19.7705 29.3775 21.4753 29.5195C21.9784 29.5643 22.4895 29.5643 22.9927 29.5195C24.1383 29.4238 25.4737 29.0596 26.3674 28.3446C26.8864 27.9415 27.2052 27.4778 27.3211 27.0036C27.3553 26.864 27.3738 26.7217 27.3738 26.5795Z" fill="#FFD475"/>
<path d="M27.3152 26.1264C27.3906 26.4177 27.3922 26.713 27.3201 27.0043C27.2037 27.4792 26.8861 27.9404 26.367 28.3435C25.4887 29.0542 24.1415 29.4236 22.9904 29.5205C22.4876 29.5632 21.9763 29.5642 21.4748 29.5205C19.7798 29.3763 17.529 28.5872 17.1133 27.0024C17.0363 26.712 17.0363 26.4159 17.1067 26.1255C17.5024 24.5305 19.7755 23.7491 21.4398 23.6074C21.9409 23.5656 22.4505 23.5656 22.9537 23.6083C24.6081 23.7507 26.8971 24.5142 27.3152 26.1264Z" fill="#F9A83D"/>
<path d="M27.3201 27.0064C27.2093 27.4754 26.8853 27.9444 26.365 28.3453C25.532 29.0314 24.2026 29.405 23.0733 29.5136C23.0477 29.5136 23.0221 29.5221 22.9965 29.5221C22.4639 29.5588 22.0224 29.5765 21.4785 29.5221C19.8011 29.375 17.5497 28.6098 17.1123 27.0064C17.0355 26.7164 17.0355 26.418 17.1123 26.128C17.4763 24.5598 19.731 23.7567 21.4445 23.6038C21.9002 23.5743 22.5018 23.562 22.9539 23.6123C22.9965 23.6123 23.0306 23.6208 23.0733 23.6293C24.7089 23.7553 26.9071 24.5858 27.3201 26.128C27.3969 26.418 27.3969 26.7164 27.3201 27.0064Z" fill="#F9A83D"/>
<path d="M21.524 29.0974C20.0318 28.9669 17.9056 28.2844 17.5274 26.8938C17.4699 26.6777 17.4699 26.4557 17.5282 26.2371C17.8428 24.8801 19.9407 24.1656 21.4861 24.0281C21.9116 24.0006 22.4852 23.9887 22.911 24.0356L23.0439 24.0539C24.4666 24.1631 26.5539 24.9007 26.9118 26.2379C26.9697 26.4557 26.9697 26.6777 26.9114 26.8963C26.5974 28.2273 24.558 28.9421 23.0359 29.0886C22.5588 29.1267 22.0919 29.1541 21.524 29.0974Z" fill="#FFD475"/>
<path d="M24.4101 27.029C24.4964 26.8878 24.5121 26.7466 24.4729 26.6133C24.4258 26.4799 24.316 26.3623 24.1512 26.2681C23.9394 26.1426 23.7198 26.072 23.4845 26.0563C23.257 26.0485 23.0374 26.0642 22.8177 26.1112C22.6295 26.1583 22.4177 26.2211 22.1745 26.3073L21.2489 25.7739C21.4607 25.6641 21.6882 25.5778 21.9235 25.5151L22.0333 25.4759C22.1118 25.4288 22.1431 25.3739 22.1353 25.319C22.1274 25.2641 22.0961 25.217 22.0333 25.1778C21.9157 25.115 21.7666 25.0994 21.6176 25.1386C21.3274 25.217 21.0293 25.3268 20.7469 25.4759L20.5037 25.3347C20.441 25.3033 20.3782 25.2876 20.2919 25.2876C20.2135 25.2876 20.1429 25.3033 20.088 25.3347C20.0331 25.366 20.0017 25.4131 20.0017 25.4524C20.0017 25.4994 20.0331 25.5386 20.0958 25.5778L20.339 25.719C20.1664 25.8446 20.0488 25.97 19.9939 26.1034C19.9232 26.2446 19.9232 26.3858 19.9703 26.5113C20.0331 26.6446 20.1507 26.7545 20.3076 26.8486C20.5037 26.9584 20.7077 27.0212 20.943 27.0368C21.1548 27.0525 21.3823 27.0368 21.594 26.9819C21.7745 26.9506 21.9941 26.8878 22.2216 26.8094L23.1158 27.3271C22.8648 27.4448 22.5903 27.5467 22.2922 27.6095C22.2373 27.6252 22.1981 27.6409 22.1588 27.6644C22.0882 27.7036 22.0412 27.7585 22.049 27.8134C22.049 27.8683 22.0882 27.9154 22.1588 27.9546C22.2138 27.986 22.2765 28.0095 22.355 28.0174L22.5667 28.0017C22.9433 27.9154 23.3041 27.7899 23.6336 27.633L23.8767 27.7742C23.9394 27.8056 24.0179 27.8291 24.0885 27.8291C24.1669 27.8213 24.2375 27.8056 24.2924 27.7742C24.3473 27.7428 24.3787 27.6958 24.3787 27.6566C24.3787 27.6095 24.3473 27.5702 24.2924 27.5389L24.0414 27.3898C24.214 27.28 24.3395 27.1545 24.4101 27.029ZM20.8253 26.5192C20.7155 26.4485 20.6606 26.378 20.6841 26.2838C20.6998 26.1975 20.7626 26.1112 20.8645 26.025L21.6647 26.4877C21.4843 26.5427 21.3195 26.5741 21.194 26.5897C21.0449 26.6054 20.9352 26.5741 20.8253 26.5192ZM23.5159 27.0918L22.7393 26.6368C22.9354 26.5741 23.1158 26.527 23.2492 26.5113C23.3904 26.4877 23.4924 26.5034 23.5786 26.5584C23.7433 26.6525 23.9081 26.8094 23.5159 27.0918Z" fill="#F9A83D"/>
<path d="M27.3778 25.8115C27.3778 25.9469 27.3524 26.4377 27.3185 26.5815C26.9496 28.1707 24.6351 28.96 22.9862 29.0946C22.487 29.1369 21.9793 29.1369 21.4716 29.0946C20.2956 28.9976 19.0108 28.6436 18.0786 27.9185C17.5624 27.5208 17.2409 27.0554 17.1139 26.5815C17.0716 26.4292 17.0547 26.2769 17.0547 26.1246V24.3646C17.0547 24.2885 17.0632 24.2123 17.0716 24.1277C17.0716 24.0515 17.0886 23.9838 17.1055 23.9162C17.1393 23.7977 17.1732 23.6792 17.2324 23.5607C17.9268 22.1719 19.8792 21.5201 21.4462 21.3946C21.5224 21.3862 21.5985 21.3862 21.6747 21.3862C22.1026 21.3658 22.5255 21.3557 22.9524 21.4031C22.9947 21.4031 23.0285 21.4115 23.0709 21.42C24.468 21.5416 25.8003 22.1022 26.3455 22.5792C26.8701 22.9854 27.1916 23.4423 27.3185 23.9162C27.3693 24.1023 27.3862 24.28 27.3693 24.4577L27.3778 25.8115Z" fill="#F9A83D"/>
<path d="M27.3738 24.3705C27.3679 25.0349 27.405 26.2315 27.3211 26.5799C26.9305 28.1777 24.6309 28.9591 22.9901 29.0958C22.4895 29.138 21.9785 29.1406 21.4753 29.0958C19.8153 28.9522 17.5319 28.1818 17.1153 26.5773C17.0758 26.4271 17.0547 26.277 17.0547 26.1242L17.0573 24.3652C17.0573 24.5075 17.0784 24.6524 17.1153 24.7946C17.529 26.3878 19.8159 27.1723 21.4753 27.3105C21.9784 27.3553 22.4895 27.3553 22.9927 27.3105C24.6475 27.1722 26.9306 26.3921 27.3211 24.7946C27.3553 24.655 27.3738 24.5128 27.3738 24.3705Z" fill="#FFD475"/>
<path d="M27.3152 23.9174C27.3906 24.2088 27.3922 24.504 27.3201 24.7953C26.9284 26.3941 24.6403 27.1726 22.9904 27.3115C22.4876 27.3542 21.9763 27.3552 21.4748 27.3115C19.8004 27.1691 17.5308 26.3851 17.1133 24.7934C17.0363 24.5031 17.0363 24.2069 17.1067 23.9165C17.495 22.3515 19.7093 21.5458 21.4398 21.3984C21.9409 21.3566 22.4505 21.3566 22.9537 21.3994C24.6122 21.5421 26.8976 22.3072 27.3152 23.9174Z" fill="#F9A83D"/>
<path d="M27.3201 24.7974C26.9501 26.3634 24.709 27.1474 23.0733 27.3046C23.0477 27.3046 23.0221 27.3131 22.9965 27.3131C22.4639 27.3498 22.0224 27.3675 21.4785 27.3131C19.8038 27.1663 17.5496 26.4007 17.1123 24.7974C17.0355 24.5074 17.0355 24.209 17.1123 23.919C17.4741 22.3602 19.7151 21.5491 21.4445 21.3948C21.9002 21.3654 22.5018 21.353 22.9539 21.4033C22.9965 21.4033 23.0306 21.4118 23.0733 21.4203C24.6957 21.5453 26.9058 22.3719 27.3201 23.919C27.3969 24.209 27.3969 24.5074 27.3201 24.7974Z" fill="#F9A83D"/>
<path d="M21.524 26.8884C20.0641 26.7607 17.9091 26.0885 17.5274 24.6848C17.4699 24.4687 17.4699 24.2467 17.5282 24.0281C17.8506 22.6375 20.0132 21.9501 21.4861 21.8191C21.9116 21.7916 22.4852 21.7797 22.911 21.8266L23.0439 21.8449C24.4576 21.9535 26.5528 22.6875 26.9118 24.029C26.9697 24.2467 26.9697 24.4687 26.9114 24.6873C26.5913 26.0438 24.5037 26.7383 23.0359 26.8796C22.5588 26.9177 22.0919 26.9451 21.524 26.8884Z" fill="#FFD475"/>
<path d="M24.4101 24.82C24.4964 24.6788 24.5121 24.5376 24.4729 24.4043C24.4258 24.271 24.316 24.1533 24.1512 24.0591C23.9394 23.9336 23.7198 23.863 23.4845 23.8473C23.257 23.8395 23.0374 23.8552 22.8177 23.9023C22.6295 23.9493 22.4177 24.0121 22.1745 24.0984L21.2489 23.565C21.4607 23.4551 21.6882 23.3689 21.9235 23.3061L22.0333 23.2669C22.1118 23.2198 22.1431 23.1649 22.1353 23.11C22.1274 23.0551 22.0961 23.008 22.0333 22.9688C21.9157 22.906 21.7666 22.8904 21.6176 22.9296C21.3274 23.008 21.0293 23.1178 20.7469 23.2669L20.5037 23.1257C20.441 23.0943 20.3782 23.0786 20.2919 23.0786C20.2135 23.0786 20.1429 23.0943 20.088 23.1257C20.0331 23.1571 20.0017 23.2041 20.0017 23.2434C20.0017 23.2904 20.0331 23.3296 20.0958 23.3689L20.339 23.51C20.1664 23.6356 20.0488 23.7611 19.9939 23.8944C19.9232 24.0356 19.9232 24.1768 19.9703 24.3023C20.0331 24.4357 20.1507 24.5455 20.3076 24.6396C20.5037 24.7494 20.7077 24.8122 20.943 24.8279C21.1548 24.8436 21.3823 24.8279 21.594 24.7729C21.7745 24.7416 21.9941 24.6788 22.2216 24.6004L23.1158 25.1181C22.8648 25.2358 22.5903 25.3377 22.2922 25.4005C22.2373 25.4162 22.1981 25.4319 22.1588 25.4554C22.0882 25.4946 22.0412 25.5496 22.049 25.6044C22.049 25.6593 22.0882 25.7064 22.1588 25.7457C22.2138 25.777 22.2765 25.8005 22.355 25.8084L22.5667 25.7927C22.9433 25.7064 23.3041 25.5809 23.6336 25.424L23.8767 25.5652C23.9394 25.5966 24.0179 25.6201 24.0885 25.6201C24.1669 25.6123 24.2375 25.5966 24.2924 25.5652C24.3473 25.5339 24.3787 25.4868 24.3787 25.4476C24.3787 25.4005 24.3473 25.3613 24.2924 25.3299L24.0414 25.1809C24.214 25.071 24.3395 24.9455 24.4101 24.82ZM20.8253 24.3102C20.7155 24.2395 20.6606 24.169 20.6841 24.0749C20.6998 23.9885 20.7626 23.9023 20.8645 23.816L21.6647 24.2788C21.4843 24.3337 21.3195 24.3651 21.194 24.3807C21.0449 24.3964 20.9352 24.3651 20.8253 24.3102ZM23.5159 24.8828L22.7393 24.4278C22.9354 24.3651 23.1158 24.318 23.2492 24.3023C23.3904 24.2788 23.4924 24.2945 23.5786 24.3494C23.7433 24.4435 23.9081 24.6004 23.5159 24.8828Z" fill="#F9A83D"/>
<path d="M27.3778 23.6036C27.3778 23.7474 27.3524 24.2297 27.3185 24.3736C26.9495 25.9632 24.6338 26.7521 22.9862 26.8867C22.487 26.929 21.9793 26.9374 21.4716 26.8867C19.6189 26.7338 17.0547 25.7737 17.0547 23.9167V22.1567C17.0547 22.0805 17.0632 22.0043 17.0716 21.9198C17.0716 21.8436 17.0886 21.7759 17.1055 21.7082C17.5599 20.119 19.7566 19.3219 21.4462 19.1866C21.541 19.1761 22.4303 19.1372 22.9524 19.1951C24.28 19.1951 26.8809 20.0737 27.3185 21.7082C27.3693 21.8943 27.3862 22.0721 27.3693 22.2497L27.3778 23.6036Z" fill="#F9A83D"/>
<path d="M27.3738 22.1635C27.0507 22.704 28.7623 26.4078 22.9901 26.8888C22.4895 26.931 21.9785 26.9336 21.4753 26.8888C19.8153 26.7452 17.5319 25.9747 17.1153 24.3703C17.0758 24.2201 17.0547 24.0699 17.0547 23.9172L17.0573 22.1582C17.0573 22.3005 17.0784 22.4454 17.1153 22.5876C17.5222 24.1547 19.7584 24.9605 21.4753 25.1035C21.9784 25.1483 22.4895 25.1483 22.9927 25.1035C24.638 24.966 26.9278 24.1965 27.3211 22.5876C27.3553 22.448 27.3738 22.3057 27.3738 22.1635Z" fill="#FFD475"/>
<path d="M27.3152 21.7104C27.3906 22.0017 27.3922 22.2969 27.3201 22.5883C26.9296 24.1821 24.6692 24.9632 22.9904 25.1044C22.4876 25.1472 21.9763 25.1481 21.4748 25.1045C19.768 24.9593 17.5269 24.163 17.1133 22.5864C17.0363 22.296 17.0363 21.9998 17.1067 21.7095C17.4938 20.1492 19.6932 19.3401 21.4398 19.1914C21.9409 19.1496 22.4505 19.1496 22.9537 19.1923C24.6014 19.3341 26.8985 20.1035 27.3152 21.7104Z" fill="#F9A83D"/>
<path d="M27.3201 22.5904C26.9541 24.1394 24.7393 24.9374 23.0733 25.0976C23.0477 25.0976 23.0221 25.1061 22.9965 25.1061C22.4639 25.1428 22.0224 25.1604 21.4785 25.1061C19.7491 24.9544 17.5466 24.1825 17.1123 22.5904C17.0355 22.3004 17.0355 22.0019 17.1123 21.712C17.4735 20.1558 19.7373 19.3401 21.4445 19.1878C21.9002 19.1583 22.5018 19.146 22.9539 19.1963C22.9965 19.1963 23.0306 19.2048 23.0733 19.2133C24.7032 19.3388 26.9073 20.1705 27.3201 21.712C27.3969 22.0019 27.3969 22.3004 27.3201 22.5904Z" fill="#F9A83D"/>
<path d="M21.524 24.6814C19.9733 24.5457 17.9023 23.8563 17.5274 22.4778C17.4699 22.2616 17.4699 22.0397 17.5282 21.8211C17.8417 20.4686 19.9685 19.7471 21.4861 19.6121C21.9116 19.5846 22.4852 19.5726 22.911 19.6196L23.0439 19.6379C24.4618 19.7468 26.5535 20.4834 26.9118 21.8219C26.9697 22.0397 26.9697 22.2616 26.9114 22.4803C26.593 23.83 24.5103 24.5307 23.0359 24.6726C22.5588 24.7107 22.0919 24.738 21.524 24.6814Z" fill="#FFD475"/>
<path d="M24.4101 22.613C24.4964 22.4718 24.5121 22.3306 24.4729 22.1973C24.4258 22.0639 24.316 21.9462 24.1512 21.8521C23.9394 21.7266 23.7198 21.656 23.4845 21.6403C23.257 21.6325 23.0374 21.6482 22.8177 21.6952C22.6295 21.7423 22.4177 21.8051 22.1745 21.8913L21.2489 21.3579C21.4607 21.2481 21.6882 21.1618 21.9235 21.0991L22.0333 21.0598C22.1118 21.0128 22.1431 20.9579 22.1353 20.903C22.1274 20.848 22.0961 20.801 22.0333 20.7618C21.9157 20.699 21.7666 20.6833 21.6176 20.7226C21.3274 20.801 21.0293 20.9108 20.7469 21.0598L20.5037 20.9187C20.2723 20.803 20.0017 20.911 20.0017 21.0363C20.0017 21.0834 20.0331 21.1226 20.0958 21.1618L20.339 21.303C20.1664 21.4285 20.0488 21.554 19.9939 21.6874C19.9232 21.8286 19.9232 21.9698 19.9703 22.0953C20.0331 22.2286 20.1507 22.3385 20.3076 22.4326C20.5037 22.5424 20.7077 22.6052 20.943 22.6208C21.1548 22.6365 21.3823 22.6208 21.594 22.5659C21.7745 22.5346 21.9941 22.4718 22.2216 22.3934L23.1158 22.9111C22.8648 23.0287 22.5903 23.1307 22.2922 23.1935C22.2373 23.2091 22.1981 23.2248 22.1588 23.2484C22.0882 23.2876 22.0412 23.3425 22.049 23.3974C22.049 23.4523 22.0882 23.4994 22.1588 23.5386C22.2138 23.57 22.2765 23.5935 22.355 23.6013L22.5667 23.5857C22.9433 23.4994 23.3041 23.3739 23.6336 23.217L23.8767 23.3582C23.9394 23.3896 24.0179 23.4131 24.0885 23.4131C24.1669 23.4052 24.2375 23.3896 24.2924 23.3582C24.3473 23.3268 24.3787 23.2798 24.3787 23.2405C24.3787 23.1935 24.3473 23.1542 24.2924 23.1229L24.0414 22.9738C24.214 22.864 24.3395 22.7385 24.4101 22.613ZM20.8253 22.1031C20.7155 22.0325 20.6606 21.9619 20.6841 21.8678C20.6998 21.7815 20.7626 21.6952 20.8645 21.609L21.6647 22.0717C21.4843 22.1266 21.3195 22.158 21.194 22.1737C21.0449 22.1894 20.9352 22.158 20.8253 22.1031ZM23.5159 22.6757L22.7393 22.2208C22.9354 22.158 23.1158 22.111 23.2492 22.0953C23.3904 22.0717 23.4924 22.0874 23.5786 22.1423C23.7433 22.2365 23.9081 22.3934 23.5159 22.6757Z" fill="#F9A83D"/>
<path d="M38.6472 24.4389C38.6413 25.1032 38.6784 26.2998 38.5945 26.6483C38.204 28.246 35.9044 29.0275 34.2635 29.1642C33.763 29.2064 33.2519 29.209 32.7487 29.1642C31.0888 29.0206 28.8053 28.2501 28.3887 26.6457C28.3492 26.4955 28.3281 26.3453 28.3281 26.1926L28.3307 24.4336C28.3307 24.5759 28.3518 24.7208 28.3887 24.863C28.7972 26.4362 31.0439 27.2369 32.7487 27.3789C33.2519 27.4237 33.763 27.4237 34.2661 27.3789C35.9827 27.2354 38.212 26.4277 38.5945 24.863C38.6288 24.7234 38.6472 24.5811 38.6472 24.4389Z" fill="#FFD475"/>
<path d="M38.5886 23.9858C38.664 24.2771 38.6657 24.5723 38.5935 24.8637C38.2114 26.4233 36.0048 27.2333 34.2638 27.3798C33.7611 27.4226 33.2497 27.4235 32.7482 27.3798C31.0532 27.2357 28.8025 26.4466 28.3868 24.8618C28.3097 24.5714 28.3097 24.2752 28.3802 23.9849C28.7757 22.3904 31.0247 21.6105 32.7133 21.4667C33.2143 21.425 33.724 21.425 34.2272 21.4677C35.9476 21.6158 38.1805 22.4119 38.5886 23.9858Z" fill="#F9A83D"/>
<path d="M38.5936 24.8658C38.2328 26.3927 36.0755 27.2068 34.3467 27.373C34.3211 27.373 34.2955 27.3815 34.27 27.3815C33.7373 27.4182 33.2958 27.4358 32.752 27.3815C31.0745 27.2344 28.8231 26.4692 28.3857 24.8658C28.3089 24.5758 28.3089 24.2773 28.3857 23.9874C28.7489 22.4228 30.9992 21.6166 32.7179 21.4631C33.1737 21.4337 33.7752 21.4214 34.2273 21.4717C34.27 21.4717 34.3041 21.4802 34.3467 21.4887C35.9626 21.6131 38.1781 22.436 38.5936 23.9874C38.6703 24.2773 38.6703 24.5758 38.5936 24.8658Z" fill="#F9A83D"/>
<path d="M32.7974 26.9567C31.3052 26.8262 29.179 26.1438 28.8008 24.7531C28.7433 24.537 28.7433 24.3151 28.8016 24.0965C29.1247 22.7027 31.2909 22.0181 32.7595 21.8875C33.1851 21.86 33.7587 21.848 34.1845 21.895L34.3173 21.9133C35.7416 22.0226 37.826 22.7552 38.1852 24.0973C38.2431 24.3151 38.2431 24.537 38.1848 24.7556C37.8708 26.0866 35.8314 26.8015 34.3094 26.948C33.8322 26.9861 33.3654 27.0134 32.7974 26.9567Z" fill="#FFD475"/>
<path d="M35.6836 24.8884C35.7698 24.7472 35.7855 24.606 35.7463 24.4727C35.6993 24.3393 35.5894 24.2216 35.4247 24.1275C35.2129 24.002 34.9933 23.9314 34.7579 23.9157C34.5304 23.9078 34.3108 23.9236 34.0912 23.9706C33.9029 24.0177 33.6911 24.0804 33.4479 24.1667L32.5223 23.6333C32.7341 23.5235 32.9616 23.4372 33.197 23.3745L33.3068 23.3352C33.3852 23.2882 33.4166 23.2333 33.4087 23.1783C33.4009 23.1234 33.3695 23.0764 33.3068 23.0372C33.1891 22.9744 33.0401 22.9587 32.891 22.9979C32.6008 23.0764 32.3027 23.1862 32.0203 23.3352L31.7772 23.1941C31.7144 23.1627 31.6516 23.147 31.5654 23.147C31.4869 23.147 31.4163 23.1627 31.3614 23.1941C31.3065 23.2254 31.2751 23.2725 31.2751 23.3117C31.2751 23.3588 31.3065 23.398 31.3693 23.4372L31.6124 23.5784C31.4398 23.7039 31.3222 23.8294 31.2673 23.9628C31.1967 24.104 31.1967 24.2452 31.2437 24.3707C31.3065 24.504 31.4242 24.6138 31.5811 24.708C31.7772 24.8178 31.9811 24.8806 32.2165 24.8962C32.4282 24.9119 32.6557 24.8962 32.8675 24.8413C33.0479 24.8099 33.2675 24.7472 33.495 24.6688L34.3892 25.1864C34.1382 25.3041 33.8637 25.4061 33.5656 25.4689C33.5107 25.4845 33.4715 25.5002 33.4323 25.5237C33.3617 25.563 33.3146 25.6179 33.3225 25.6728C33.3225 25.7277 33.3617 25.7748 33.4323 25.814C33.4872 25.8454 33.5499 25.8689 33.6284 25.8767L33.8401 25.8611C34.2167 25.7748 34.5775 25.6493 34.907 25.4924L35.1502 25.6336C35.2129 25.665 35.2913 25.6885 35.3619 25.6885C35.4404 25.6806 35.511 25.665 35.5659 25.6336C35.6208 25.6022 35.6521 25.5551 35.6521 25.5159C35.6521 25.4689 35.6208 25.4296 35.5659 25.3983L35.3149 25.2492C35.4875 25.1394 35.6129 25.0139 35.6836 24.8884ZM32.0988 24.3785C31.9889 24.3079 31.934 24.2373 31.9576 24.1432C31.9733 24.0569 32.036 23.9706 32.138 23.8843L32.9381 24.3471C32.7577 24.402 32.593 24.4334 32.4674 24.4491C32.3184 24.4648 32.2086 24.4334 32.0988 24.3785ZM34.7893 24.9511L34.0127 24.4962C34.2088 24.4334 34.3892 24.3864 34.5226 24.3707C34.6638 24.3471 34.7658 24.3628 34.8521 24.4177C35.0168 24.5119 35.1815 24.6688 34.7893 24.9511Z" fill="#F9A83D"/>
<path d="M38.6472 22.2299L38.6503 23.6674C38.6503 23.8096 38.6288 24.2971 38.5945 24.4393C38.2144 25.9944 36.0063 26.81 34.2635 26.9552C33.763 26.9974 33.2519 27 32.7487 26.9552C31.0382 26.8072 28.7987 26.0157 28.3887 24.4367C28.3492 24.2865 28.3281 24.1364 28.3281 23.9836L28.3307 22.2246C28.3307 22.3669 28.3518 22.5118 28.3887 22.654C28.8027 24.2483 31.0624 25.0294 32.7487 25.1699C33.2519 25.2147 33.763 25.2147 34.2661 25.1699C35.9827 25.0264 38.212 24.2187 38.5945 22.654C38.6288 22.5144 38.6472 22.3721 38.6472 22.2299Z" fill="#FFD475"/>
<path d="M38.5886 21.7768C38.664 22.0681 38.6657 22.3633 38.5935 22.6547C38.2114 24.2144 36.0048 25.0244 34.2638 25.1709C33.7611 25.2136 33.2497 25.2146 32.7482 25.1709C31.0815 25.0291 28.8088 24.2619 28.3868 22.6528C28.3097 22.3624 28.3097 22.0662 28.3802 21.7759C28.7672 20.2157 30.9666 19.4065 32.7133 19.2578C33.2143 19.216 33.724 19.216 34.2272 19.2587C35.8816 19.4011 38.1706 20.1646 38.5886 21.7768Z" fill="#F9A83D"/>
<path d="M38.5936 22.6568C38.2328 24.1837 36.0755 24.9978 34.3467 25.164C34.3211 25.164 34.2955 25.1725 34.27 25.1725C33.7373 25.2092 33.2958 25.2268 32.752 25.1725C31.0374 25.0222 28.8219 24.2558 28.3857 22.6568C28.3089 22.3668 28.3089 22.0684 28.3857 21.7784C28.747 20.2219 31.0136 19.4063 32.7179 19.2542C33.1737 19.2247 33.7752 19.2124 34.2273 19.2627C34.27 19.2627 34.3041 19.2712 34.3467 19.2797C35.9823 19.4056 38.1806 20.2362 38.5936 21.7784C38.6703 22.0684 38.6703 22.3668 38.5936 22.6568Z" fill="#F9A83D"/>
<path d="M32.7974 24.7478C31.2776 24.6148 29.1797 23.9373 28.8008 22.5442C28.7433 22.3281 28.7433 22.1061 28.8016 21.8875C29.1151 20.5354 31.2424 19.8134 32.7595 19.6785C33.1851 19.651 33.7587 19.639 34.1845 19.686L34.3173 19.7043C35.7401 19.8135 37.8273 20.5511 38.1852 21.8883C38.2431 22.1061 38.2431 22.3281 38.1848 22.5467C37.8708 23.8777 35.8314 24.5925 34.3094 24.739C33.8322 24.7771 33.3654 24.8045 32.7974 24.7478Z" fill="#FFD475"/>
<path d="M35.6836 22.6794C35.7698 22.5382 35.7855 22.397 35.7463 22.2637C35.6993 22.1303 35.5894 22.0126 35.4247 21.9185C35.2129 21.793 34.9933 21.7224 34.7579 21.7067C34.5304 21.6989 34.3108 21.7146 34.0912 21.7616C33.9029 21.8087 33.6911 21.8715 33.4479 21.9577L32.5223 21.4243C32.7341 21.3145 32.9616 21.2282 33.197 21.1655L33.3068 21.1263C33.3852 21.0792 33.4166 21.0243 33.4087 20.9694C33.4009 20.9144 33.3695 20.8674 33.3068 20.8282C33.1891 20.7654 33.0401 20.7498 32.891 20.789C32.6008 20.8674 32.3027 20.9772 32.0203 21.1263L31.7772 20.9851C31.7144 20.9537 31.6516 20.938 31.5654 20.938C31.4869 20.938 31.4163 20.9537 31.3614 20.9851C31.3065 21.0164 31.2751 21.0635 31.2751 21.1027C31.2751 21.1498 31.3065 21.189 31.3693 21.2282L31.6124 21.3694C31.4398 21.495 31.3222 21.6204 31.2673 21.7538C31.1967 21.895 31.1967 22.0362 31.2437 22.1617C31.3065 22.295 31.4242 22.4049 31.5811 22.499C31.7772 22.6088 31.9811 22.6716 32.2165 22.6872C32.4282 22.7029 32.6557 22.6872 32.8675 22.6323C33.0479 22.601 33.2675 22.5382 33.495 22.4598L34.3892 22.9775C34.1382 23.0951 33.8637 23.1971 33.5656 23.2599C33.5107 23.2755 33.4715 23.2913 33.4323 23.3148C33.3617 23.354 33.3146 23.4089 33.3225 23.4638C33.3225 23.5187 33.3617 23.5658 33.4323 23.605C33.4872 23.6364 33.5499 23.6599 33.6284 23.6678L33.8401 23.6521C34.2167 23.5658 34.5775 23.4403 34.907 23.2834L35.1502 23.4246C35.2129 23.456 35.2913 23.4795 35.3619 23.4795C35.4404 23.4717 35.511 23.456 35.5659 23.4246C35.6208 23.3932 35.6521 23.3462 35.6521 23.307C35.6521 23.2599 35.6208 23.2206 35.5659 23.1893L35.3149 23.0402C35.4875 22.9304 35.6129 22.8049 35.6836 22.6794ZM32.0988 22.1695C31.9889 22.0989 31.934 22.0284 31.9576 21.9342C31.9733 21.8479 32.036 21.7616 32.138 21.6754L32.9381 22.1381C32.7577 22.193 32.593 22.2245 32.4674 22.2401C32.3184 22.2558 32.2086 22.2245 32.0988 22.1695ZM34.7893 22.7421L34.0127 22.2872C34.2088 22.2245 34.3892 22.1774 34.5226 22.1617C34.6638 22.1381 34.7658 22.1538 34.8521 22.2088C35.0168 22.3029 35.1815 22.4598 34.7893 22.7421Z" fill="#F9A83D"/>
<path d="M38.6472 20.0209C38.6413 20.6853 38.6784 21.8818 38.5945 22.2303C38.2144 23.7854 36.0063 24.601 34.2635 24.7462C33.763 24.7884 33.2519 24.791 32.7487 24.7462C31.0382 24.5982 28.7987 23.8067 28.3887 22.2277C28.3492 22.0775 28.3281 21.9274 28.3281 21.7746L28.3307 20.0156C28.3307 20.1579 28.3518 20.3028 28.3887 20.445C28.8027 22.0393 31.0624 22.8204 32.7487 22.9609C33.2519 23.0057 33.763 23.0057 34.2661 22.9609C35.9827 22.8174 38.212 22.0097 38.5945 20.445C38.6288 20.3054 38.6472 20.1632 38.6472 20.0209Z" fill="#FFD475"/>
<path d="M38.5886 19.5678C38.664 19.8591 38.6657 20.1544 38.5935 20.4457C38.2114 22.0054 36.0048 22.8154 34.2638 22.9619C33.7611 23.0046 33.2497 23.0056 32.7482 22.9619C31.0815 22.8201 28.8088 22.0529 28.3868 20.4438C28.3097 20.1534 28.3097 19.8573 28.3802 19.5669C28.7672 18.0067 30.9666 17.1975 32.7133 17.0488C33.2143 17.007 33.724 17.007 34.2272 17.0497C35.8856 17.1925 38.1711 17.9575 38.5886 19.5678Z" fill="#F9A83D"/>
<path d="M38.5936 20.4478C38.2328 21.9747 36.0755 22.7888 34.3467 22.955C34.3211 22.955 34.2955 22.9635 34.27 22.9635C33.7373 23.0002 33.2958 23.0179 32.752 22.9635C31.0374 22.8132 28.8219 22.0468 28.3857 20.4478C28.3089 20.1578 28.3089 19.8594 28.3857 19.5694C28.747 18.013 31.0136 17.1973 32.7179 17.0452C33.1737 17.0157 33.7752 17.0034 34.2273 17.0537C34.27 17.0537 34.3041 17.0622 34.3467 17.0707C35.9691 17.1957 38.1793 18.0222 38.5936 19.5694C38.6703 19.8594 38.6703 20.1578 38.5936 20.4478Z" fill="#F9A83D"/>
<path d="M32.7974 22.5388C31.2776 22.4059 29.1797 21.7283 28.8008 20.3352C28.7433 20.1191 28.7433 19.8971 28.8016 19.6785C29.1151 18.3264 31.2424 17.6044 32.7595 17.4695C33.1851 17.442 33.7587 17.4301 34.1845 17.477L34.3173 17.4953C35.731 17.6039 37.8262 18.3379 38.1852 19.6793C38.2431 19.8971 38.2431 20.1191 38.1848 20.3377C37.8708 21.6687 35.8314 22.3835 34.3094 22.53C33.8322 22.5681 33.3654 22.5955 32.7974 22.5388Z" fill="#FFD475"/>
<path d="M35.6836 20.4704C35.7698 20.3292 35.7855 20.188 35.7463 20.0547C35.6993 19.9213 35.5894 19.8037 35.4247 19.7095C35.2129 19.584 34.9933 19.5134 34.7579 19.4977C34.5304 19.4899 34.3108 19.5056 34.0912 19.5526C33.9029 19.5997 33.6911 19.6625 33.4479 19.7488L32.5223 19.2154C32.7341 19.1055 32.9616 19.0192 33.197 18.9565L33.3068 18.9173C33.3852 18.8702 33.4166 18.8153 33.4087 18.7604C33.4009 18.7055 33.3695 18.6584 33.3068 18.6192C33.1891 18.5564 33.0401 18.5408 32.891 18.58C32.6008 18.6584 32.3027 18.7682 32.0203 18.9173L31.7772 18.7761C31.7144 18.7447 31.6516 18.729 31.5654 18.729C31.4869 18.729 31.4163 18.7447 31.3614 18.7761C31.3065 18.8074 31.2751 18.8545 31.2751 18.8938C31.2751 18.9408 31.3065 18.98 31.3693 19.0192L31.6124 19.1604C31.4398 19.286 31.3222 19.4115 31.2673 19.5448C31.1967 19.686 31.1967 19.8272 31.2437 19.9527C31.3065 20.086 31.4242 20.1959 31.5811 20.29C31.7772 20.3998 31.9811 20.4626 32.2165 20.4783C32.4282 20.494 32.6557 20.4783 32.8675 20.4233C33.0479 20.392 33.2675 20.3292 33.495 20.2508L34.3892 20.7685C34.1382 20.8862 33.8637 20.9881 33.5656 21.0509C33.5107 21.0666 33.4715 21.0823 33.4323 21.1058C33.3617 21.145 33.3146 21.1999 33.3225 21.2548C33.3225 21.3097 33.3617 21.3568 33.4323 21.3961C33.4872 21.4274 33.5499 21.4509 33.6284 21.4588L33.8401 21.4431C34.2167 21.3568 34.5775 21.2313 34.907 21.0744L35.1502 21.2156C35.2129 21.247 35.2913 21.2705 35.3619 21.2705C35.4404 21.2627 35.511 21.247 35.5659 21.2156C35.6208 21.1842 35.6521 21.1372 35.6521 21.098C35.6521 21.0509 35.6208 21.0116 35.5659 20.9803L35.3149 20.8312C35.4875 20.7214 35.6129 20.5959 35.6836 20.4704ZM32.0988 19.9606C31.9889 19.8899 31.934 19.8194 31.9576 19.7252C31.9733 19.6389 32.036 19.5526 32.138 19.4664L32.9381 19.9291C32.7577 19.9841 32.593 20.0155 32.4674 20.0311C32.3184 20.0468 32.2086 20.0155 32.0988 19.9606ZM34.7893 20.5332L34.0127 20.0782C34.2088 20.0155 34.3892 19.9684 34.5226 19.9527C34.6638 19.9291 34.7658 19.9449 34.8521 19.9998C35.0168 20.0939 35.1815 20.2508 34.7893 20.5332Z" fill="#F9A83D"/>
<path d="M38.6472 17.8139L38.6503 19.2514C38.6503 19.3936 38.6288 19.8811 38.5945 20.0233C38.2116 21.5899 35.9888 22.3954 34.2635 22.5392C33.763 22.5814 33.2519 22.584 32.7487 22.5392C31.0457 22.3918 28.7995 21.6029 28.3887 20.0207C28.3492 19.8705 28.3281 19.7203 28.3281 19.5676L28.3307 17.8086C28.3307 17.9509 28.3518 18.0958 28.3887 18.238C28.8027 19.8323 31.0624 20.6134 32.7487 20.7539C33.2519 20.7987 33.763 20.7987 34.2661 20.7539C35.9063 20.6168 38.2024 19.8421 38.5945 18.238C38.6288 18.0984 38.6472 17.9561 38.6472 17.8139Z" fill="#FFD475"/>
<path d="M38.5886 17.3608C38.664 17.6521 38.6657 17.9473 38.5935 18.2387C38.2023 19.8354 35.9182 20.6156 34.2638 20.7548C33.7611 20.7976 33.2497 20.7985 32.7482 20.7548C31.0815 20.6131 28.8088 19.8459 28.3868 18.2368C28.3097 17.9464 28.3097 17.6502 28.3802 17.3599C28.7672 15.7996 30.9666 14.9905 32.7133 14.8417C33.2143 14.8 33.724 14.8 34.2272 14.8427C35.8816 14.9851 38.1706 15.7486 38.5886 17.3608Z" fill="#F9A83D"/>
<path d="M38.5936 18.2408C38.2207 19.819 35.9608 20.5928 34.3467 20.748C34.3211 20.748 34.2955 20.7565 34.27 20.7565C33.7373 20.7932 33.2958 20.8108 32.752 20.7565C31.0374 20.6061 28.8219 19.8398 28.3857 18.2408C28.3089 17.9508 28.3089 17.6523 28.3857 17.3624C28.747 15.8059 31.0136 14.9903 32.7179 14.8381C33.1737 14.8087 33.7752 14.7964 34.2273 14.8467C34.27 14.8467 34.3041 14.8552 34.3467 14.8637C35.9823 14.9896 38.1806 15.8202 38.5936 17.3624C38.6703 17.6523 38.6703 17.9508 38.5936 18.2408Z" fill="#F9A83D"/>
<path d="M32.7974 20.3317C31.2776 20.1988 29.1797 19.5213 28.8008 18.1281C28.7433 17.912 28.7433 17.6901 28.8016 17.4715C29.1151 16.1194 31.2424 15.3974 32.7595 15.2625C33.1851 15.235 33.7587 15.223 34.1845 15.27L34.3173 15.2883C35.7401 15.3975 37.8273 16.1351 38.1852 17.4723C38.2431 17.6901 38.2431 17.912 38.1848 18.1306C37.8708 19.4616 35.8314 20.1765 34.3094 20.323C33.8322 20.3611 33.3654 20.3884 32.7974 20.3317Z" fill="#FFD475"/>
<path d="M35.6836 18.2634C35.7698 18.1222 35.7855 17.981 35.7463 17.8477C35.6993 17.7143 35.5894 17.5966 35.4247 17.5025C35.2129 17.377 34.9933 17.3064 34.7579 17.2907C34.5304 17.2828 34.3108 17.2986 34.0912 17.3456C33.9029 17.3927 33.6911 17.4554 33.4479 17.5417L32.5223 17.0083C32.7341 16.8985 32.9616 16.8122 33.197 16.7495L33.3068 16.7102C33.3852 16.6632 33.4166 16.6083 33.4087 16.5533C33.4009 16.4984 33.3695 16.4514 33.3068 16.4122C33.1891 16.3494 33.0401 16.3337 32.891 16.3729C32.6008 16.4514 32.3027 16.5612 32.0203 16.7102L31.7772 16.5691C31.7144 16.5377 31.6516 16.522 31.5654 16.522C31.4869 16.522 31.4163 16.5377 31.3614 16.5691C31.3065 16.6004 31.2751 16.6475 31.2751 16.6867C31.2751 16.7338 31.3065 16.773 31.3693 16.8122L31.6124 16.9534C31.4398 17.0789 31.3222 17.2044 31.2673 17.3378C31.1967 17.479 31.1967 17.6202 31.2437 17.7457C31.3065 17.879 31.4242 17.9888 31.5811 18.083C31.7772 18.1928 31.9811 18.2556 32.2165 18.2712C32.4282 18.2869 32.6557 18.2712 32.8675 18.2163C33.0479 18.1849 33.2675 18.1222 33.495 18.0438L34.3892 18.5614C34.1382 18.6791 33.8637 18.7811 33.5656 18.8439C33.5107 18.8595 33.4715 18.8752 33.4323 18.8987C33.3617 18.938 33.3146 18.9929 33.3225 19.0478C33.3225 19.1027 33.3617 19.1498 33.4323 19.189C33.4872 19.2204 33.5499 19.2439 33.6284 19.2517L33.8401 19.2361C34.2167 19.1498 34.5775 19.0243 34.907 18.8674L35.1502 19.0086C35.2129 19.04 35.2913 19.0635 35.3619 19.0635C35.4404 19.0556 35.511 19.04 35.5659 19.0086C35.6208 18.9772 35.6521 18.9302 35.6521 18.8909C35.6521 18.8439 35.6208 18.8046 35.5659 18.7733L35.3149 18.6242C35.4875 18.5144 35.6129 18.3889 35.6836 18.2634ZM32.0988 17.7535C31.9889 17.6829 31.934 17.6123 31.9576 17.5182C31.9733 17.4319 32.036 17.3456 32.138 17.2593L32.9381 17.7221C32.7577 17.777 32.593 17.8084 32.4674 17.8241C32.3184 17.8398 32.2086 17.8084 32.0988 17.7535ZM34.7893 18.3261L34.0127 17.8712C34.2088 17.8084 34.3892 17.7614 34.5226 17.7457C34.6638 17.7221 34.7658 17.7378 34.8521 17.7927C35.0168 17.8869 35.1815 18.0438 34.7893 18.3261Z" fill="#F9A83D"/>
<path d="M38.6472 15.6068C38.6413 16.2712 38.6784 17.4678 38.5945 17.8163C38.2116 19.3829 35.9888 20.1884 34.2635 20.3322C33.763 20.3743 33.2519 20.3769 32.7487 20.3322C31.0457 20.1848 28.7995 19.3959 28.3887 17.8136C28.3492 17.6635 28.3281 17.5133 28.3281 17.3605L28.3307 15.6016C28.3307 15.7438 28.3518 15.8887 28.3887 16.031C28.8027 17.6252 31.0624 18.4064 32.7487 18.5469C33.2519 18.5917 33.763 18.5917 34.2661 18.5469C35.9827 18.4034 38.212 17.5957 38.5945 16.031C38.6288 15.8914 38.6472 15.7491 38.6472 15.6068Z" fill="#FFD475"/>
<path d="M38.5886 15.1538C38.664 15.4451 38.6657 15.7403 38.5935 16.0316C38.2114 17.5913 36.0048 18.4013 34.2638 18.5478C33.7611 18.5905 33.2497 18.5915 32.7482 18.5478C31.0815 18.406 28.8088 17.6388 28.3868 16.0297C28.3097 15.7394 28.3097 15.4432 28.3802 15.1528C28.7672 13.5926 30.9666 12.7835 32.7133 12.6347C33.2143 12.593 33.724 12.593 34.2272 12.6357C35.8816 12.7781 38.1706 13.5416 38.5886 15.1538Z" fill="#F9A83D"/>
<path d="M38.5936 16.0337C38.2328 17.5606 36.0755 18.3748 34.3467 18.5409C34.3211 18.5409 34.2955 18.5495 34.27 18.5495C33.7373 18.5861 33.2958 18.6038 32.752 18.5495C31.0374 18.3991 28.8219 17.6327 28.3857 16.0337C28.3089 15.7438 28.3089 15.4453 28.3857 15.1553C28.747 13.5989 31.0136 12.7832 32.7179 12.6311C33.1737 12.6017 33.7752 12.5894 34.2273 12.6396C34.27 12.6396 34.3041 12.6481 34.3467 12.6567C35.9823 12.7826 38.1806 13.6131 38.5936 15.1553C38.6703 15.4453 38.6703 15.7438 38.5936 16.0337Z" fill="#F9A83D"/>
<path d="M32.7974 18.1247C31.2776 17.9918 29.1797 17.3142 28.8008 15.9211C28.7433 15.705 28.7433 15.4831 28.8016 15.2645C29.1151 13.9124 31.2424 13.1904 32.7595 13.0554C33.1851 13.0279 33.7587 13.016 34.1845 13.0629L34.3173 13.0813C35.7401 13.1905 37.8273 13.9281 38.1852 15.2653C38.2431 15.4831 38.2431 15.705 38.1848 15.9236C37.8708 17.2546 35.8314 17.9694 34.3094 18.116C33.8322 18.154 33.3654 18.1814 32.7974 18.1247Z" fill="#FFD475"/>
<path d="M35.6836 16.0563C35.7698 15.9151 35.7855 15.774 35.7463 15.6406C35.6993 15.5073 35.5894 15.3896 35.4247 15.2955C35.2129 15.1699 34.9933 15.0994 34.7579 15.0837C34.5304 15.0758 34.3108 15.0915 34.0912 15.1386C33.9029 15.1856 33.6911 15.2484 33.4479 15.3347L32.5223 14.8013C32.7341 14.6915 32.9616 14.6052 33.197 14.5424L33.3068 14.5032C33.3852 14.4561 33.4166 14.4012 33.4087 14.3463C33.4009 14.2914 33.3695 14.2443 33.3068 14.2051C33.1891 14.1424 33.0401 14.1267 32.891 14.1659C32.6008 14.2443 32.3027 14.3542 32.0203 14.5032L31.7772 14.362C31.7144 14.3307 31.6516 14.315 31.5654 14.315C31.4869 14.315 31.4163 14.3307 31.3614 14.362C31.3065 14.3934 31.2751 14.4404 31.2751 14.4797C31.2751 14.5268 31.3065 14.566 31.3693 14.6052L31.6124 14.7464C31.4398 14.8719 31.3222 14.9974 31.2673 15.1307C31.1967 15.2719 31.1967 15.4132 31.2437 15.5386C31.3065 15.672 31.4242 15.7818 31.5811 15.8759C31.7772 15.9858 31.9811 16.0485 32.2165 16.0642C32.4282 16.0799 32.6557 16.0642 32.8675 16.0093C33.0479 15.9779 33.2675 15.9151 33.495 15.8367L34.3892 16.3544C34.1382 16.4721 33.8637 16.5741 33.5656 16.6368C33.5107 16.6525 33.4715 16.6682 33.4323 16.6917C33.3617 16.731 33.3146 16.7859 33.3225 16.8408C33.3225 16.8957 33.3617 16.9427 33.4323 16.982C33.4872 17.0133 33.5499 17.0369 33.6284 17.0447L33.8401 17.0291C34.2167 16.9427 34.5775 16.8172 34.907 16.6604L35.1502 16.8015C35.2129 16.8329 35.2913 16.8565 35.3619 16.8565C35.4404 16.8486 35.511 16.8329 35.5659 16.8015C35.6208 16.7702 35.6521 16.7231 35.6521 16.6839C35.6521 16.6368 35.6208 16.5976 35.5659 16.5662L35.3149 16.4172C35.4875 16.3074 35.6129 16.1819 35.6836 16.0563ZM32.0988 15.5465C31.9889 15.4759 31.934 15.4053 31.9576 15.3112C31.9733 15.2249 32.036 15.1386 32.138 15.0523L32.9381 15.5151C32.7577 15.57 32.593 15.6014 32.4674 15.6171C32.3184 15.6328 32.2086 15.6014 32.0988 15.5465ZM34.7893 16.1191L34.0127 15.6641C34.2088 15.6014 34.3892 15.5543 34.5226 15.5386C34.6638 15.5151 34.7658 15.5308 34.8521 15.5857C35.0168 15.6798 35.1815 15.8367 34.7893 16.1191Z" fill="#F9A83D"/>
<path d="M38.6472 13.3979L38.6503 14.8353C38.6503 14.9776 38.6288 15.465 38.5945 15.6073C38.2013 17.2159 35.9128 17.9857 34.2635 18.1232C33.763 18.1653 33.2519 18.168 32.7487 18.1232C31.0382 17.9752 28.7987 17.1837 28.3887 15.6047C28.3492 15.4545 28.3281 15.3043 28.3281 15.1515L28.3307 13.3926C28.3307 13.5348 28.3518 13.6797 28.3887 13.822C28.8062 15.43 31.091 16.1998 32.7487 16.3379C33.2519 16.3827 33.763 16.3827 34.2661 16.3379C35.9466 16.1974 38.2055 15.4135 38.5945 13.822C38.6288 13.6824 38.6472 13.5401 38.6472 13.3979Z" fill="#FFD475"/>
<path d="M38.5886 12.9448C38.664 13.2361 38.6657 13.5313 38.5935 13.8227C38.2034 15.4151 35.9456 16.1973 34.2638 16.3388C33.7611 16.3816 33.2497 16.3825 32.7482 16.3388C31.0776 16.1967 28.8083 15.4279 28.3868 13.8208C28.3097 13.5304 28.3097 13.2342 28.3802 12.9438C28.7672 11.3836 30.9666 10.5745 32.7133 10.4257C33.2143 10.384 33.724 10.384 34.2272 10.4267C35.8816 10.5691 38.1706 11.3326 38.5886 12.9448Z" fill="#F9A83D"/>
<path d="M38.5936 13.8248C38.2279 15.3727 36.018 16.1713 34.3467 16.332C34.3211 16.332 34.2955 16.3405 34.27 16.3405C33.7373 16.3771 33.2958 16.3948 32.752 16.3405C31.0413 16.1905 28.8226 15.4266 28.3857 13.8248C28.3089 13.5348 28.3089 13.2363 28.3857 12.9464C28.747 11.3899 31.0136 10.5743 32.7179 10.4221C33.1737 10.3927 33.7752 10.3804 34.2273 10.4307C34.27 10.4307 34.3041 10.4391 34.3467 10.4477C35.9823 10.5736 38.1806 11.4042 38.5936 12.9464C38.6703 13.2363 38.6703 13.5348 38.5936 13.8248Z" fill="#F9A83D"/>
<path d="M32.7974 15.9157C31.2781 15.7828 29.1799 15.1062 28.8008 13.7121C28.7433 13.496 28.7433 13.2741 28.8016 13.0555C29.1151 11.7034 31.2424 10.9814 32.7595 10.8465C33.1851 10.819 33.7587 10.807 34.1845 10.854L34.3173 10.8723C35.7401 10.9815 37.8273 11.7191 38.1852 13.0563C38.2431 13.2741 38.2431 13.496 38.1848 13.7146C37.8663 15.065 35.7818 15.7652 34.3094 15.907C33.8322 15.9451 33.3654 15.9724 32.7974 15.9157Z" fill="#FFD475"/>
<path d="M35.6836 13.8474C35.7698 13.7062 35.7855 13.565 35.7463 13.4316C35.6993 13.2983 35.5894 13.1806 35.4247 13.0865C35.2129 12.961 34.9933 12.8904 34.7579 12.8747C34.5304 12.8668 34.3108 12.8825 34.0912 12.9296C33.9029 12.9767 33.6911 13.0394 33.4479 13.1257L32.5223 12.5923C32.7341 12.4825 32.9616 12.3962 33.197 12.3334L33.3068 12.2942C33.3852 12.2472 33.4166 12.1922 33.4087 12.1373C33.4009 12.0824 33.3695 12.0354 33.3068 11.9961C33.1891 11.9334 33.0401 11.9177 32.891 11.9569C32.6008 12.0354 32.3027 12.1452 32.0203 12.2942L31.7772 12.153C31.7144 12.1217 31.6516 12.106 31.5654 12.106C31.4869 12.106 31.4163 12.1217 31.3614 12.153C31.3065 12.1844 31.2751 12.2315 31.2751 12.2707C31.2751 12.3178 31.3065 12.357 31.3693 12.3962L31.6124 12.5374C31.4398 12.6629 31.3222 12.7884 31.2673 12.9217C31.1967 13.0629 31.1967 13.2042 31.2437 13.3297C31.3065 13.463 31.4242 13.5728 31.5811 13.667C31.7772 13.7768 31.9811 13.8395 32.2165 13.8552C32.4282 13.8709 32.6557 13.8552 32.8675 13.8003C33.0479 13.7689 33.2675 13.7062 33.495 13.6277L34.3892 14.1454C34.1382 14.2631 33.8637 14.3651 33.5656 14.4279C33.5107 14.4435 33.4715 14.4592 33.4323 14.4827C33.3617 14.522 33.3146 14.5769 33.3225 14.6318C33.3225 14.6867 33.3617 14.7337 33.4323 14.773C33.4872 14.8044 33.5499 14.8279 33.6284 14.8357L33.8401 14.8201C34.2167 14.7337 34.5775 14.6083 34.907 14.4514L35.1502 14.5926C35.2129 14.624 35.2913 14.6475 35.3619 14.6475C35.4404 14.6396 35.511 14.624 35.5659 14.5926C35.6208 14.5612 35.6521 14.5141 35.6521 14.4749C35.6521 14.4279 35.6208 14.3886 35.5659 14.3572L35.3149 14.2082C35.4875 14.0984 35.6129 13.9729 35.6836 13.8474ZM32.0988 13.3375C31.9889 13.2669 31.934 13.1963 31.9576 13.1022C31.9733 13.0159 32.036 12.9296 32.138 12.8433L32.9381 13.3061C32.7577 13.361 32.593 13.3924 32.4674 13.4081C32.3184 13.4238 32.2086 13.3924 32.0988 13.3375ZM34.7893 13.9101L34.0127 13.4551C34.2088 13.3924 34.3892 13.3454 34.5226 13.3297C34.6638 13.3061 34.7658 13.3218 34.8521 13.3767C35.0168 13.4708 35.1815 13.6277 34.7893 13.9101Z" fill="#F9A83D"/>
<path d="M38.6472 11.1908C38.6413 11.8552 38.6784 13.0518 38.5945 13.4003C38.2144 14.9554 36.0063 15.7709 34.2635 15.9161C33.763 15.9583 33.2519 15.9609 32.7487 15.9161C31.0382 15.7681 28.7987 14.9766 28.3887 13.3976C28.3492 13.2475 28.3281 13.0973 28.3281 12.9445L28.3307 11.1855C28.3307 11.3278 28.3518 11.4727 28.3887 11.615C28.7956 13.182 31.0319 13.9878 32.7487 14.1308C33.2519 14.1756 33.763 14.1756 34.2661 14.1308C35.9466 13.9904 38.2055 13.2065 38.5945 11.615C38.6288 11.4753 38.6472 11.3331 38.6472 11.1908Z" fill="#FFD475"/>
<path d="M38.5886 10.7377C38.664 11.0291 38.6657 11.3243 38.5935 11.6156C38.2034 13.2081 35.9456 13.9903 34.2638 14.1318C33.7611 14.1745 33.2497 14.1755 32.7482 14.1318C31.0415 13.9866 28.8003 13.1904 28.3868 11.6137C28.3097 11.3234 28.3097 11.0272 28.3802 10.7368C28.7796 9.12663 31.0584 8.35963 32.7133 8.2187C33.2143 8.17694 33.724 8.17694 34.2272 8.21967C35.9519 8.36811 38.1818 9.16889 38.5886 10.7377Z" fill="#F9A83D"/>
<path d="M38.5936 11.6177C38.3084 12.8247 36.8522 13.5765 35.643 13.8946C35.2251 14.0055 34.7902 14.0823 34.3467 14.1249C34.3211 14.1249 34.2955 14.1334 34.27 14.1334C34.0226 14.1504 33.7753 14.1675 33.5195 14.1675C33.2636 14.1675 33.0078 14.159 32.752 14.1334C32.2659 14.0908 31.7883 14.014 31.3364 13.8861C30.1416 13.5956 28.7088 12.8022 28.3857 11.6177C28.3089 11.3277 28.3089 11.0293 28.3857 10.7393C28.6603 9.55649 30.1542 8.74242 31.3364 8.46235C31.7798 8.33446 32.2403 8.25769 32.7179 8.21506C32.9823 8.19799 33.2552 8.18945 33.5195 8.18945C33.7497 8.18945 33.9971 8.19799 34.2273 8.2236C34.27 8.2236 34.3041 8.23208 34.3467 8.24062C34.7902 8.27476 35.2251 8.35149 35.643 8.47089C36.83 8.75973 38.2761 9.55379 38.5936 10.7393C38.6703 11.0293 38.6703 11.3277 38.5936 11.6177Z" fill="#F9A83D"/>
<path d="M33.5232 13.7407C33.2813 13.7407 33.0394 13.7328 32.7974 13.7087C32.2927 13.6645 31.8555 13.5883 31.4562 13.4755C30.4284 13.2251 29.0796 12.5302 28.8008 11.5051C28.7433 11.2889 28.7433 11.067 28.8016 10.8484C29.0379 9.82914 30.4246 9.11672 31.4383 8.87715C31.8518 8.75806 32.2773 8.68227 32.7595 8.63938C33.0044 8.62356 33.268 8.61523 33.5232 8.61523C33.7381 8.61523 33.9692 8.62315 34.1845 8.64688L34.3173 8.6652C34.7349 8.69727 35.1426 8.76972 35.529 8.88048C36.5609 9.13294 37.9129 9.83173 38.1852 10.8492C38.2431 11.067 38.2431 11.2889 38.1848 11.5076C37.9401 12.545 36.5862 13.2076 35.5386 13.4813C35.1459 13.5858 34.7333 13.6591 34.3094 13.6999C34.0067 13.7241 33.7689 13.7407 33.5232 13.7407Z" fill="#FFD475"/>
<path d="M35.6836 11.6403C35.7698 11.4991 35.7855 11.3579 35.7463 11.2246C35.6993 11.0913 35.5894 10.9736 35.4247 10.8795C35.2129 10.7539 34.9933 10.6834 34.7579 10.6677C34.5304 10.6598 34.3108 10.6755 34.0912 10.7226C33.9029 10.7696 33.6911 10.8324 33.4479 10.9187L32.5223 10.3853C32.7341 10.2754 32.9616 10.1892 33.197 10.1264L33.3068 10.0872C33.3852 10.0401 33.4166 9.98522 33.4087 9.9303C33.4009 9.87539 33.3695 9.82832 33.3068 9.78911C33.1891 9.72635 33.0401 9.71069 32.891 9.7499C32.6008 9.82832 32.3027 9.93815 32.0203 10.0872L31.7772 9.946C31.7144 9.91464 31.6516 9.89894 31.5654 9.89894C31.4869 9.89894 31.4163 9.91464 31.3614 9.946C31.3065 9.97736 31.2751 10.0244 31.2751 10.0637C31.2751 10.1107 31.3065 10.15 31.3693 10.1892L31.6124 10.3304C31.4398 10.4559 31.3222 10.5814 31.2673 10.7147C31.1967 10.8559 31.1967 10.9971 31.2437 11.1226C31.3065 11.256 31.4242 11.3658 31.5811 11.4599C31.7772 11.5698 31.9811 11.6325 32.2165 11.6482C32.4282 11.6639 32.6557 11.6482 32.8675 11.5933C33.0479 11.5619 33.2675 11.4991 33.495 11.4207L34.3892 11.9384C34.1382 12.0561 33.8637 12.1581 33.5656 12.2208C33.5107 12.2365 33.4715 12.2522 33.4323 12.2757C33.3617 12.315 33.3146 12.3699 33.3225 12.4247C33.3225 12.4797 33.3617 12.5267 33.4323 12.566C33.4872 12.5973 33.5499 12.6208 33.6284 12.6287L33.8401 12.613C34.2167 12.5267 34.5775 12.4012 34.907 12.2443L35.1502 12.3855C35.2129 12.4169 35.2913 12.4404 35.3619 12.4404C35.4404 12.4326 35.511 12.4169 35.5659 12.3855C35.6208 12.3542 35.6521 12.3071 35.6521 12.2679C35.6521 12.2208 35.6208 12.1816 35.5659 12.1502L35.3149 12.0012C35.4875 11.8913 35.6129 11.7659 35.6836 11.6403ZM32.0988 11.1305C31.9889 11.0599 31.934 10.9893 31.9576 10.8952C31.9733 10.8088 32.036 10.7226 32.138 10.6363L32.9381 11.0991C32.7577 11.154 32.593 11.1854 32.4674 11.201C32.3184 11.2168 32.2086 11.1854 32.0988 11.1305ZM34.7893 11.7031L34.0127 11.2481C34.2088 11.1854 34.3892 11.1383 34.5226 11.1226C34.6638 11.0991 34.7658 11.1148 34.8521 11.1697C35.0168 11.2638 35.1815 11.4207 34.7893 11.7031Z" fill="#F9A83D"/>
<g opacity="0.3">
<path d="M33.5191 8.18945V14.1675C33.2632 14.1675 33.0074 14.159 32.7515 14.1334C32.2654 14.0908 31.7879 14.014 31.3359 13.8861V8.46235C31.7794 8.33446 32.2399 8.25769 32.7175 8.21506C32.9818 8.19799 33.2547 8.18945 33.5191 8.18945Z" fill="white"/>
<path d="M35.64 8.4705V13.8942C35.2221 14.0051 34.7872 14.0819 34.3438 14.1245V8.24023C34.7872 8.27438 35.2221 8.3511 35.64 8.4705Z" fill="white"/>
</g>
<path d="M39.2939 1.69531V2.93072L36.9839 10.9268L33.7685 9.07375V9.10763L26.1954 13.4822L26.2123 19.3545L17.9454 24.1269L17.9623 30.0076L8.59541 35.4145L4.71159 33.1638L4.70312 31.8776L12.9616 27.1138L12.9447 21.2246L21.2031 16.4607L21.1862 10.5884L28.7847 6.19686L26.6185 4.94451V3.70916L29.8508 5.57071L26.6185 3.70069L39.2939 1.69531Z" fill="#7E5AF2"/>
<path d="M39.2947 1.69141L39.2927 2.9296L36.9844 10.923L36.9864 9.68479L39.2947 1.69141Z" fill="#7E5AF2"/>
<path d="M36.9921 9.68311L36.99 10.9213L26.625 4.94132L26.6271 3.70312L36.9921 9.68311Z" fill="#986FF9"/>
<path d="M39.2984 1.69531L36.9855 9.68547L33.7614 7.8242L25.0704 12.8395L21.1875 10.5882L29.8629 5.57295L26.6233 3.70389L39.2984 1.69531Z" fill="#B28AFD"/>
<path d="M25.0927 18.7125L21.2074 16.4545L21.1875 10.582L25.0729 12.84L25.0927 18.7125Z" fill="#986FF9"/>
<path d="M16.8395 29.3659L12.9542 27.1079L12.9375 21.2266L16.8229 23.4845L16.8395 29.3659Z" fill="#986FF9"/>
<path d="M16.8229 23.4853L12.9375 21.2274L21.2 16.457L25.0854 18.715L16.8229 23.4853Z" fill="#B28AFD"/>
<path d="M8.58848 34.1311L4.70312 31.8732L12.9576 27.1074L16.843 29.3653L8.58848 34.1311Z" fill="#B28AFD"/>
<path d="M8.59212 35.4173L4.70677 33.1594L4.70312 31.875L8.58848 34.1329L8.59212 35.4173Z" fill="#6D4EEA"/>
<path d="M33.7592 7.82227L33.7628 9.10665L26.1878 13.4801L26.2077 19.348L17.9411 24.1207L17.9578 30.0067L8.58958 35.4154L8.58594 34.131L16.8404 29.3653L16.8238 23.4839L25.0863 18.7135L25.0664 12.841L33.7592 7.82227Z" fill="#7E5AF2"/>
</svg>
