<svg width="474" height="367" viewBox="0 0 474 367" fill="none" xmlns="http://www.w3.org/2000/svg">
<path d="M272.561 78.1699C272.561 78.1699 277.51 58.0652 303.419 54.7905C303.419 54.7905 294.547 84.4475 272.561 78.1699Z" fill="#3F9896"/>
<path d="M267.406 86.44C267.406 86.44 246.062 57.8781 270.023 19.8203C270.023 19.8203 299.791 64.0431 267.406 86.44Z" fill="#7FC6A6"/>
<path d="M102.375 367.002C69.178 366.189 38.6949 349.283 21.9863 322.169C8.61385 300.468 -1.80829 269.197 0.263342 225.107C5.5103 113.444 107.14 36.5307 170.654 32.8404C248.134 28.3385 230.585 73.459 315.756 80.8567C355.573 84.3151 405.967 102.742 437.868 159.918C457.463 195.036 473.217 242 435.126 316.001C419.059 347.216 385.509 367.001 348.771 367.001H102.375V367.002Z" fill="#F8FAFC"/>
<path d="M112.749 252.8C111.155 251.817 109.437 251.118 107.665 250.709L106.837 246.279L103.756 246.287L100.675 246.295L99.8702 250.728C98.0997 251.147 96.3851 251.854 94.7969 252.845L91.0794 250.298L88.9063 252.482L86.7332 254.666L89.299 258.371C88.3157 259.964 87.6176 261.682 87.2076 263.455L82.7783 264.282L82.7861 267.363L82.7939 270.444L87.2274 271.249C87.6462 273.02 88.353 274.734 89.3443 276.322L86.797 280.04L88.981 282.213L91.165 284.386L94.8697 281.82C96.4629 282.804 98.1812 283.502 99.9535 283.912L100.781 288.341L103.862 288.333L106.943 288.325L107.748 283.892C109.519 283.473 111.233 282.766 112.822 281.775L116.539 284.322L118.712 282.138L120.885 279.954L118.319 276.25C119.303 274.656 120.001 272.938 120.411 271.166L124.84 270.338L124.832 267.257L124.824 264.176L120.391 263.371C119.972 261.601 119.266 259.886 118.274 258.298L120.821 254.58L118.637 252.407L116.453 250.234L112.749 252.8ZM112.003 275.463C107.501 279.988 100.182 280.007 95.6568 275.504C91.1316 271.001 91.113 263.683 95.6156 259.158C100.118 254.632 107.437 254.614 111.962 259.116C116.487 263.619 116.506 270.937 112.003 275.463Z" fill="#FECC86"/>
<path d="M23.4965 182.081H90.3683C92.5044 182.081 94.2359 183.813 94.2359 185.949V218.339C94.2359 220.475 92.5044 222.207 90.3683 222.207H84.6729L87.2679 229.293L77.0188 222.207H23.4965C21.3604 222.207 19.6289 220.475 19.6289 218.339V185.949C19.6289 183.813 21.3604 182.081 23.4965 182.081Z" fill="white"/>
<path d="M26.635 207.354H88.8457C89.2763 207.354 89.6253 207.005 89.6253 206.574C89.6253 206.144 89.2763 205.795 88.8457 205.795H26.635C26.2044 205.795 25.8555 206.144 25.8555 206.574C25.8555 207.005 26.2044 207.354 26.635 207.354Z" fill="#B1E8FC"/>
<path d="M48.4261 189.641H88.8474C89.278 189.641 89.627 189.292 89.627 188.862C89.627 188.431 89.278 188.082 88.8474 188.082H48.4261C47.9954 188.082 47.6465 188.431 47.6465 188.862C47.6465 189.292 47.9954 189.641 48.4261 189.641Z" fill="#B1E8FC"/>
<path d="M71.3655 216.205H88.8429C89.2736 216.205 89.6225 215.856 89.6225 215.426C89.6225 214.995 89.2736 214.646 88.8429 214.646H71.3655C70.9349 214.646 70.5859 214.995 70.5859 215.426C70.5861 215.856 70.9349 216.205 71.3655 216.205Z" fill="#B1E8FC"/>
<path d="M26.635 216.205H65.9018C66.3324 216.205 66.6813 215.856 66.6813 215.426C66.6813 214.995 66.3324 214.646 65.9018 214.646H26.635C26.2044 214.646 25.8555 214.995 25.8555 215.426C25.8555 215.856 26.2044 216.205 26.635 216.205Z" fill="#B1E8FC"/>
<path d="M26.1712 189.641H42.3014C42.732 189.641 43.081 189.292 43.081 188.862C43.081 188.431 42.732 188.082 42.3014 188.082H26.1712C25.7406 188.082 25.3916 188.431 25.3916 188.862C25.3916 189.292 25.7403 189.641 26.1712 189.641Z" fill="#B1E8FC"/>
<path d="M63.4387 198.497H88.8464C89.277 198.497 89.626 198.148 89.626 197.717C89.626 197.286 89.277 196.938 88.8464 196.938H63.4387C63.0081 196.938 62.6592 197.286 62.6592 197.717C62.6592 198.148 63.0081 198.497 63.4387 198.497Z" fill="#B1E8FC"/>
<path d="M26.1712 198.497H57.7384C58.169 198.497 58.5179 198.148 58.5179 197.717C58.5179 197.286 58.169 196.938 57.7384 196.938H26.1712C25.7406 196.938 25.3916 197.286 25.3916 197.717C25.3916 198.148 25.7403 198.497 26.1712 198.497Z" fill="#B1E8FC"/>
<path d="M32.255 83.9243H89.0233C90.8367 83.9243 92.3066 85.3944 92.3066 87.2076V114.704C92.3066 116.517 90.8367 117.987 89.0233 117.987H84.1885L86.3914 124.003L77.6907 117.987H32.255C30.4416 117.987 28.9717 116.517 28.9717 114.704V87.2076C28.9717 85.3944 30.4418 83.9243 32.255 83.9243Z" fill="#AAC9F8"/>
<path d="M34.9234 105.38H87.7348C88.1004 105.38 88.3965 105.084 88.3965 104.718C88.3965 104.353 88.1004 104.057 87.7348 104.057H34.9234C34.5578 104.057 34.2617 104.353 34.2617 104.718C34.2617 105.084 34.5578 105.38 34.9234 105.38Z" fill="white"/>
<path d="M53.4185 90.3469H87.7325C88.0981 90.3469 88.3943 90.0507 88.3943 89.6851C88.3943 89.3196 88.0981 89.0234 87.7325 89.0234H53.4185C53.053 89.0234 52.7568 89.3198 52.7568 89.6851C52.7568 90.0507 53.053 90.3469 53.4185 90.3469Z" fill="white"/>
<path d="M72.898 112.893H87.7347C88.1003 112.893 88.3965 112.597 88.3965 112.232C88.3965 111.866 88.1003 111.57 87.7347 111.57H72.898C72.5325 111.57 72.2363 111.866 72.2363 112.232C72.2363 112.597 72.5325 112.893 72.898 112.893Z" fill="white"/>
<path d="M34.9234 112.893H68.2575C68.6231 112.893 68.9192 112.597 68.9192 112.232C68.9192 111.866 68.6231 111.57 68.2575 111.57H34.9234C34.5578 111.57 34.2617 111.866 34.2617 112.232C34.2617 112.597 34.5578 112.893 34.9234 112.893Z" fill="white"/>
<path d="M34.5328 90.3469H48.2258C48.5914 90.3469 48.8875 90.0507 48.8875 89.6851C48.8875 89.3196 48.5914 89.0234 48.2258 89.0234H34.5328C34.1672 89.0234 33.8711 89.3198 33.8711 89.6851C33.8711 90.0507 34.1672 90.3469 34.5328 90.3469Z" fill="white"/>
<path d="M66.1676 97.8615H87.7365C88.1021 97.8615 88.3982 97.5654 88.3982 97.1998C88.3982 96.8342 88.1021 96.5381 87.7365 96.5381H66.1676C65.802 96.5381 65.5059 96.8342 65.5059 97.1998C65.5056 97.5652 65.802 97.8615 66.1676 97.8615Z" fill="white"/>
<path d="M34.5328 97.8615H61.3306C61.6962 97.8615 61.9923 97.5654 61.9923 97.1998C61.9923 96.8342 61.696 96.5381 61.3306 96.5381H34.5328C34.1672 96.5381 33.8711 96.8342 33.8711 97.1998C33.8711 97.5652 34.1672 97.8615 34.5328 97.8615Z" fill="white"/>
<path d="M351.786 68.0601H301.548C299.943 68.0601 298.643 69.361 298.643 70.9656V95.2988C298.643 96.9036 299.943 98.2045 301.548 98.2045H305.827L303.877 103.528L311.577 98.2045H351.786C353.391 98.2045 354.692 96.9036 354.692 95.2988V70.9656C354.692 69.361 353.391 68.0601 351.786 68.0601Z" fill="#AAC9F8"/>
<path d="M349.428 87.0443H302.692C302.369 87.0443 302.106 86.7821 302.106 86.4586C302.106 86.1351 302.368 85.873 302.692 85.873H349.428C349.752 85.873 350.014 86.1351 350.014 86.4586C350.014 86.7821 349.752 87.0443 349.428 87.0443Z" fill="white"/>
<path d="M333.059 73.7428H302.692C302.369 73.7428 302.106 73.4805 302.106 73.157C302.106 72.8335 302.368 72.5713 302.692 72.5713H333.059C333.382 72.5713 333.645 72.8335 333.645 73.157C333.644 73.4807 333.382 73.7428 333.059 73.7428Z" fill="white"/>
<path d="M315.822 93.6988H302.692C302.369 93.6988 302.106 93.4368 302.106 93.1131C302.106 92.7894 302.368 92.5273 302.692 92.5273H315.822C316.146 92.5273 316.408 92.7894 316.408 93.1131C316.408 93.4368 316.146 93.6988 315.822 93.6988Z" fill="white"/>
<path d="M349.431 93.6988H319.931C319.608 93.6988 319.346 93.4368 319.346 93.1131C319.346 92.7894 319.608 92.5273 319.931 92.5273H349.431C349.754 92.5273 350.016 92.7894 350.016 93.1131C350.016 93.4368 349.754 93.6988 349.431 93.6988Z" fill="white"/>
<path d="M349.776 73.7428H337.658C337.335 73.7428 337.072 73.4805 337.072 73.157C337.072 72.8335 337.334 72.5713 337.658 72.5713H349.776C350.099 72.5713 350.362 72.8335 350.362 73.157C350.362 73.4807 350.099 73.7428 349.776 73.7428Z" fill="white"/>
<path d="M321.78 80.3924H302.692C302.369 80.3924 302.106 80.1304 302.106 79.8069C302.106 79.4834 302.368 79.2212 302.692 79.2212H321.78C322.103 79.2212 322.366 79.4832 322.366 79.8069C322.366 80.1304 322.103 80.3924 321.78 80.3924Z" fill="white"/>
<path d="M349.778 80.3934H326.063C325.74 80.3934 325.478 80.1314 325.478 79.8079C325.478 79.4844 325.74 79.2222 326.063 79.2222H349.778C350.102 79.2222 350.364 79.4842 350.364 79.8079C350.364 80.1314 350.102 80.3934 349.778 80.3934Z" fill="white"/>
<path opacity="0.5" d="M151.986 332.683C180.679 332.683 203.939 331.088 203.939 329.12C203.939 327.152 180.679 325.557 151.986 325.557C123.294 325.557 100.034 327.152 100.034 329.12C100.034 331.088 123.294 332.683 151.986 332.683Z" fill="#FECC86"/>
<path opacity="0.5" d="M315.757 332.683C344.449 332.683 367.709 331.088 367.709 329.12C367.709 327.152 344.449 325.557 315.757 325.557C287.064 325.557 263.805 327.152 263.805 329.12C263.805 331.088 287.064 332.683 315.757 332.683Z" fill="#FECC86"/>
<path d="M188.347 129.57L114.1 121.408C108.869 120.869 104.582 125.099 104.582 130.23V301.219C104.582 306.35 108.869 310.538 114.1 310L188.347 301.879C192.713 301.429 196.219 297.325 196.219 292.705V138.744C196.218 134.124 192.713 130.019 188.347 129.57ZM192.996 291.516C192.996 294.035 191.079 296.262 188.705 296.491L113.677 303.74C110.839 304.014 110.655 301.988 110.655 299.213V130.69C110.655 127.593 111.105 125.34 114.268 125.653L188.205 132.967C190.857 133.23 192.996 135.718 192.996 138.53L192.996 291.516Z" fill="#5780BC"/>
<path d="M197.169 136.763C197.167 136.713 197.165 136.662 197.162 136.612C197.068 134.901 195.791 133.415 194.19 133.156C194.143 133.147 194.094 133.14 194.047 133.133C194.031 133.131 194.016 133.128 194 133.126L116.517 125.462C116.498 125.46 116.48 125.46 116.461 125.458C116.403 125.455 116.347 125.451 116.29 125.45C114.368 125.371 112.825 126.716 112.712 128.579C112.706 128.635 112.705 128.689 112.703 128.745C112.701 128.764 112.699 128.781 112.699 128.801V300.994C112.699 302.786 114.195 304.092 116.029 303.915L140.728 301.528L140.98 301.504L141.041 301.499L159.365 299.729L159.474 299.718L159.636 299.703L159.793 299.687L177.683 297.959L177.784 297.949L177.995 297.929L194.407 296.343C195.935 296.195 197.171 294.759 197.171 293.132V136.814C197.171 136.797 197.169 136.781 197.169 136.763ZM112.761 137.903V132.702L118.304 133.203C118.465 133.289 118.639 133.343 118.823 133.36C119.008 133.378 119.184 133.353 119.342 133.297L122.212 133.558C122.367 133.641 122.542 133.697 122.727 133.713C122.911 133.731 123.086 133.706 123.243 133.652L126.087 133.909C126.24 133.992 126.415 134.047 126.597 134.064C126.781 134.08 126.953 134.057 127.109 134.001L183.053 139.071V139.172L191.57 139.943V139.843L197.143 140.348V145.07L112.761 137.903Z" fill="#D8ECFE"/>
<path d="M189.43 296.823L189.271 296.838C189.289 296.908 189.308 296.979 189.328 297.047C189.443 297.023 189.502 297.011 189.502 297.011C189.478 296.952 189.454 296.888 189.43 296.823Z" fill="#49263E"/>
<path d="M193.951 133.123L116.572 125.468C114.437 125.257 112.698 126.773 112.698 128.857V137.899L112.758 137.904L197.142 145.071L197.169 145.074V136.865C197.169 134.974 195.731 133.299 193.951 133.123Z" fill="#273359"/>
<path d="M120.086 132.239C120.086 132.741 119.781 133.145 119.34 133.298C119.183 133.354 119.006 133.377 118.821 133.36C118.637 133.344 118.462 133.289 118.302 133.204C117.861 132.972 117.552 132.51 117.552 132.007C117.552 131.322 118.122 130.821 118.821 130.886C119.52 130.951 120.086 131.557 120.086 132.239Z" fill="white"/>
<path d="M123.982 132.598C123.982 133.097 123.679 133.5 123.242 133.652C123.086 133.708 122.911 133.731 122.727 133.715C122.543 133.698 122.367 133.643 122.211 133.559C121.773 133.327 121.469 132.868 121.469 132.367C121.469 131.685 122.032 131.185 122.727 131.25C123.421 131.315 123.982 131.918 123.982 132.598Z" fill="white"/>
<path d="M127.838 132.951C127.838 133.449 127.538 133.85 127.105 134.002C126.95 134.057 126.776 134.08 126.594 134.064C126.411 134.047 126.238 133.993 126.083 133.909C125.648 133.678 125.347 133.221 125.347 132.722C125.347 132.044 125.905 131.546 126.594 131.61C127.282 131.674 127.838 132.274 127.838 132.951Z" fill="white"/>
<path d="M182.609 136.761V139.949L191.162 140.283V139.294L191.608 139.31V137.901L191.162 137.884V137.063L182.609 136.761ZM190.866 140.009L182.9 139.7V137.033L190.866 137.316V140.009Z" fill="white"/>
<path d="M183.376 139.287L184.215 139.319V137.493L183.376 137.462V139.287Z" fill="white"/>
<path d="M184.789 139.34L185.631 139.372V137.543L184.789 137.513V139.34Z" fill="white"/>
<path d="M186.237 139.395L187.082 139.427V137.595L186.237 137.565V139.395Z" fill="white"/>
<path d="M105.588 164.745L103.574 164.633V148.603L105.588 148.75V164.745Z" fill="#5780BC"/>
<path d="M105.588 184.044L103.574 183.975V167.945L105.588 168.049V184.044Z" fill="#5780BC"/>
<path d="M108.757 130.231V301.22C108.757 306.351 113.044 310.067 118.274 309.527L137.043 307.595L137.64 307.533L191.456 301.99L191.543 301.981L192.521 301.88C196.888 301.43 200.393 297.326 200.393 292.706V138.744C200.393 134.125 196.888 130.02 192.521 129.571L118.274 121.923C113.044 121.383 108.757 125.099 108.757 130.231ZM112.7 130.691C112.7 127.594 115.279 125.341 118.442 125.653L192.38 132.968C195.032 133.23 197.17 135.719 197.17 138.53V291.517C197.17 294.036 195.254 296.263 192.88 296.492L191.455 296.629L191.367 296.639L189.742 296.794L189.431 296.825C189.455 296.89 189.479 296.954 189.504 297.013C189.504 297.013 189.445 297.025 189.33 297.049C189.31 296.981 189.29 296.91 189.272 296.84L129.648 302.602L128.559 302.707L120.345 303.5L117.852 303.741C115.013 304.015 112.7 301.989 112.7 299.214V130.691H112.7Z" fill="#5780BC"/>
<path d="M189.577 297.171L189.48 296.82L189.2 296.847L189.242 297.183L189.577 297.171Z" fill="#49263E"/>
<path d="M191.842 296.592L129.648 302.602V308.356L192.996 301.815L191.842 296.592Z" fill="#5780BC"/>
<path d="M82.4093 310.887C82.9441 309.569 83.2493 308.193 83.3316 306.814L86.5444 305.633L86.1481 303.326L85.7518 301.019L82.3291 300.978C81.7912 299.705 81.0444 298.51 80.1005 297.446L81.5374 294.339L79.6261 292.988L77.7148 291.637L75.265 294.028C73.947 293.494 72.5716 293.188 71.192 293.106L70.0111 289.893L67.7044 290.289L65.3976 290.686L65.3564 294.109C64.0835 294.646 62.8887 295.393 61.8245 296.337L58.7172 294.9L57.3662 296.811L56.0152 298.723L58.4065 301.172C57.8719 302.49 57.5666 303.866 57.4843 305.245L54.2715 306.426L54.6676 308.733L55.0637 311.04L58.4865 311.081C59.0245 312.354 59.7712 313.549 60.7149 314.613L59.2781 317.72L61.1893 319.071L63.1006 320.422L65.5504 318.031C66.8684 318.566 68.2438 318.871 69.6234 318.953L70.8045 322.166L73.1113 321.77L75.418 321.374L75.4593 317.951C76.7322 317.413 77.927 316.666 78.9911 315.722L82.0984 317.159L83.4494 315.248L84.8004 313.337L82.4093 310.887ZM65.3398 313.2C61.3796 310.4 60.4384 304.921 63.2376 300.961C66.0368 297.001 71.5161 296.06 75.4763 298.859C79.4365 301.658 80.3775 307.137 77.5785 311.097C74.7792 315.058 69.2999 315.999 65.3398 313.2Z" fill="#FEEFDC"/>
<path d="M185.108 49.3999C185.559 33.5999 173.118 20.4252 157.32 19.9734C141.521 19.5215 128.348 31.9635 127.896 47.7635C127.672 55.6005 130.621 62.7905 135.577 68.1035L135.576 68.1037C135.576 68.1037 143.968 77.6101 146.603 87.7854C146.603 87.7854 151.552 89.6259 155.322 89.8282C159.097 89.8417 164.144 88.2871 164.144 88.2871C167.356 78.2792 176.278 69.268 176.278 69.268L176.277 69.2678C181.528 64.2467 184.883 57.2369 185.108 49.3999Z" fill="#FECC86"/>
<path d="M154.882 104.84C152.426 104.77 150.492 102.723 150.562 100.267L159.455 100.521C159.385 102.977 157.337 104.911 154.882 104.84Z" fill="#4CB7D8"/>
<path d="M154.98 101.615C149.714 101.464 145.566 97.0725 145.717 91.8057L145.898 85.4795L164.97 86.025L164.789 92.351C164.638 97.6178 160.247 101.765 154.98 101.615Z" fill="#4CB7D8"/>
<g opacity="0.3">
<path d="M185.105 49.3997C185.273 43.5462 183.67 38.0534 180.783 33.4341C171.827 53.8113 158.087 67.2962 138.713 72.1243C141.043 75.3689 144.115 80.2425 145.906 85.4825L164.965 86.0276V86.0287C168.657 76.963 176.275 69.2677 176.275 69.2677L176.274 69.2674C181.526 64.2465 184.881 57.2367 185.105 49.3997Z" fill="#FECC86"/>
</g>
<path d="M160.106 85.9985L159.294 85.7514C159.323 85.6544 162.272 75.9209 164.409 65.9262C168.119 48.5841 166.378 44.8338 165.011 44.1418C163.612 43.4344 162.495 43.5219 161.688 44.4025C161.629 44.4667 161.572 44.5343 161.518 44.605C163.484 45.8415 163.916 47.6669 164.01 48.4037C164.269 50.4369 163.306 52.4315 161.863 52.8503C161.514 52.9515 160.846 52.9888 160.295 52.1012C159.42 50.6917 159.233 47.2251 160.323 44.9481C159.351 44.5177 158.16 44.2693 156.789 44.2302L155.963 44.2066C154.592 44.1675 153.389 44.3472 152.393 44.7212C153.352 47.0568 152.967 50.5072 152.013 51.8643C151.412 52.7185 150.748 52.6438 150.404 52.5222C148.988 52.0217 148.14 49.9753 148.515 47.9603C148.651 47.2302 149.187 45.4324 151.22 44.3104C151.17 44.2367 151.117 44.166 151.062 44.0986C150.307 43.1734 149.196 43.0217 147.76 43.6482C146.355 44.2609 144.403 47.9058 147.115 65.4316C148.678 75.5322 151.065 85.4183 151.089 85.517L150.264 85.7171C150.24 85.6182 147.845 75.7018 146.277 65.5661C144.111 51.5742 144.485 44.1502 147.421 42.8701C149.698 41.8771 151.016 42.6984 151.72 43.5617C151.819 43.683 151.911 43.8115 151.997 43.9471C153.01 43.5499 154.312 43.31 155.987 43.3578L156.813 43.3814C158.488 43.4293 159.775 43.7436 160.763 44.1978C160.856 44.0675 160.956 43.9444 161.062 43.8288C161.814 43.0067 163.177 42.2625 165.394 43.3841C168.251 44.8298 168.2 52.2631 165.239 66.1083C163.093 76.1377 160.136 85.9011 160.106 85.9985ZM151.62 45.0735C150.394 45.7436 149.598 46.7804 149.35 48.1158C149.022 49.8745 149.777 51.4002 150.687 51.7218C150.772 51.7517 150.997 51.832 151.318 51.3758C152.135 50.2138 152.432 47.0913 151.62 45.0735ZM161.075 45.344C160.15 47.312 160.267 50.4463 161.016 51.6529C161.311 52.1267 161.54 52.0594 161.626 52.0345C162.554 51.7655 163.394 50.2855 163.168 48.5111C162.996 47.1637 162.261 46.0831 161.075 45.344Z" fill="#F99247"/>
<path d="M145.755 85.6726C145.545 85.0138 145.449 84.772 145.239 84.2425L145.124 83.9531C141.791 75.5097 135.483 68.3103 135.42 68.2387L135.4 68.2162C130.208 62.6369 127.469 55.3707 127.687 47.752C128.141 31.8602 141.439 19.3012 157.329 19.7556C167.085 20.0347 175.965 25.1724 181.083 33.4989L180.721 33.7214C175.679 25.5172 166.929 20.455 157.317 20.1801C141.661 19.7322 128.559 32.1065 128.111 47.7642C127.896 55.2828 130.604 62.4525 135.735 67.9533L136.004 68.2412L135.984 68.2448C137.19 69.6728 142.536 76.2398 145.519 83.7975L145.633 84.0861C145.847 84.6253 145.945 84.8713 146.159 85.5444L145.755 85.6726Z" fill="#21111D"/>
<path d="M136.904 34.7984L136.5 34.6686C136.523 34.5983 138.839 27.6173 146.031 25.1733L146.167 25.5753C139.183 27.9488 136.926 34.73 136.904 34.7984Z" fill="#21111D"/>
<path d="M138.138 37.3805L137.734 37.2506C137.757 37.1803 140.073 30.1993 147.265 27.7554L147.402 28.1574C140.417 30.531 138.16 37.3123 138.138 37.3805Z" fill="#21111D"/>
<path d="M156.01 101.857L153.931 101.798C149.129 101.661 145.334 97.6415 145.471 92.8392L145.688 85.2622L164.972 85.8138L164.96 86.2384L146.1 85.6989L145.896 92.8517C145.765 97.4201 149.375 101.243 153.943 101.374L156.022 101.433C158.21 101.496 160.297 100.71 161.9 99.2206L162.188 99.5317C160.504 101.097 158.309 101.923 156.01 101.857Z" fill="#21111D"/>
<path d="M155.001 105.059C150.867 104.941 150.385 100.914 150.381 100.873L150.803 100.827C150.82 100.981 151.268 104.615 155.151 104.637L155.148 105.061C155.099 105.061 155.049 105.06 155.001 105.059Z" fill="#21111D"/>
<path d="M175.658 65.1539L175.415 64.8058C179.271 62.1124 179.999 57.4525 180.006 57.4058L180.426 57.4674C180.418 57.5158 179.668 62.353 175.658 65.1539Z" fill="#21111D"/>
<path d="M174.881 63.094L174.638 62.7459C177.448 60.7828 177.98 57.3842 177.985 57.3501L178.405 57.4118C178.384 57.5582 177.845 61.0234 174.881 63.094Z" fill="#21111D"/>
<path d="M144.911 89.2678L144.918 88.8433C145.08 88.846 161.167 89.0975 166.314 87.3447L166.451 87.7465C161.234 89.5233 145.575 89.2789 144.911 89.2678Z" fill="#21111D"/>
<path d="M144.812 92.8474L144.816 92.4227C144.992 92.4244 162.453 92.5776 165.765 90.9233L165.955 91.3032C162.552 93.0032 145.534 92.8546 144.812 92.8474Z" fill="#21111D"/>
<path d="M145.579 96.5569L145.588 96.1324C145.745 96.1354 161.41 96.4185 165.666 94.3706L165.85 94.7532C161.503 96.8449 146.227 96.5698 145.579 96.5569Z" fill="#21111D"/>
<path d="M120.728 43.0503C120.71 43.0497 120.692 43.0484 120.674 43.0465L110.576 41.8955C110.226 41.8557 109.975 41.54 110.015 41.1906C110.054 40.8412 110.37 40.5912 110.72 40.6299L120.818 41.781C121.168 41.8208 121.419 42.1365 121.379 42.4858C121.341 42.8169 121.055 43.0598 120.728 43.0503Z" fill="#F99247"/>
<path d="M126.425 27.0651C126.301 27.0615 126.177 27.022 126.069 26.9435L117.848 20.966C117.564 20.7591 117.501 20.3607 117.708 20.0763C117.914 19.792 118.312 19.7289 118.597 19.9357L126.818 25.9132C127.102 26.1201 127.165 26.5183 126.958 26.8029C126.83 26.9797 126.628 27.0708 126.425 27.0651Z" fill="#F99247"/>
<path d="M141.909 15.9284C141.658 15.9213 141.424 15.7645 141.33 15.5145L137.776 5.99164C137.653 5.66226 137.82 5.29542 138.15 5.17229C138.479 5.04917 138.846 5.21649 138.969 5.54629L142.524 15.0691C142.647 15.3985 142.479 15.7653 142.15 15.8885C142.07 15.9179 141.989 15.9308 141.909 15.9284Z" fill="#F99247"/>
<path d="M191.962 46.9247C191.629 46.9152 191.357 46.649 191.344 46.3118C191.331 45.9604 191.605 45.6646 191.957 45.6516L202.114 45.2719C202.462 45.2591 202.76 45.5331 202.774 45.8846C202.787 46.2361 202.512 46.5316 202.161 46.5448L192.004 46.9245C191.99 46.9249 191.976 46.9249 191.962 46.9247Z" fill="#F99247"/>
<path d="M187.504 30.5509C187.297 30.545 187.096 30.4381 186.98 30.2485C186.795 29.9492 186.888 29.5567 187.188 29.3721L195.839 24.0372C196.138 23.8526 196.531 23.9458 196.715 24.2449C196.9 24.5442 196.807 24.9367 196.507 25.1213L187.856 30.4562C187.746 30.524 187.624 30.5545 187.504 30.5509Z" fill="#F99247"/>
<path d="M174.911 16.8363C174.828 16.834 174.743 16.8148 174.662 16.7773C174.343 16.6296 174.204 16.2512 174.352 15.9319L178.621 6.7071C178.768 6.38803 179.147 6.24954 179.466 6.39666C179.785 6.54441 179.924 6.92283 179.776 7.24211L175.508 16.4669C175.398 16.7054 175.158 16.8434 174.911 16.8363Z" fill="#F99247"/>
<path d="M158.733 11.4284C158.73 11.4284 158.727 11.4282 158.723 11.428C158.372 11.4124 158.1 11.1151 158.115 10.7638L158.562 0.608935C158.577 0.260821 158.869 -0.00962907 159.216 0.000262905C159.22 0.000262905 159.223 0.000473141 159.226 0.000683609C159.578 0.0162582 159.85 0.31344 159.835 0.664921L159.388 10.8198C159.372 11.1679 159.08 11.4383 158.733 11.4284Z" fill="#F99247"/>
<g opacity="0.5">
<path d="M176.093 35.3306C175.047 36.8561 171.61 36.3173 168.416 34.1272C165.222 31.937 163.481 28.9248 164.527 27.3994C165.572 25.8739 169.009 26.4125 172.204 28.6028C175.397 30.7929 177.139 33.8051 176.093 35.3306Z" fill="#F3FFFE"/>
</g>
<path d="M235.9 86.7505C226.651 86.7505 219.153 94.2484 219.153 103.497C219.153 112.746 226.651 120.244 235.9 120.244C245.149 120.244 252.647 112.746 252.647 103.497C252.647 94.2484 245.149 86.7505 235.9 86.7505ZM235.9 118.96C227.36 118.96 220.437 112.037 220.437 103.497C220.437 94.9573 227.36 88.0343 235.9 88.0343C244.44 88.0343 251.363 94.9575 251.363 103.497C251.363 112.037 244.44 118.96 235.9 118.96Z" fill="#FDBA68"/>
<path d="M237.667 110.48C237.136 111.2 236.059 111.202 235.526 110.483L226.332 98.0785C225.418 96.8449 225.677 95.1035 226.91 94.1892C228.144 93.2749 229.885 93.5336 230.799 94.7674L236.586 102.575L248.189 86.8382C249.101 85.6021 250.841 85.3389 252.077 86.2504C253.313 87.1617 253.576 88.9023 252.665 90.1381L237.667 110.48Z" fill="white"/>
<path d="M301.518 323.701L314.004 323.869L314.197 310.794L301.761 309.091L301.518 323.701Z" fill="#FE9F73"/>
<path d="M341.133 320.281L353.63 317.795L351.019 304.975L338.243 305.95L341.133 320.281Z" fill="#FE9F73"/>
<path d="M323.292 210.53C322.83 224.032 320.821 276.849 316.572 311.406C316.293 313.683 314.335 315.403 312.007 315.397C309.431 315.391 305.847 315.089 301.875 313.895C299.956 313.318 298.622 311.597 298.589 309.619L296.827 204.475C296.823 204.22 296.84 203.964 296.879 203.712L296.96 203.193C297.406 200.33 300.419 198.605 303.161 199.643L320.34 206.142C322.173 206.836 323.358 208.596 323.292 210.53Z" fill="#102E5B"/>
<path d="M338.939 204.421C338.939 204.421 339.179 231.247 343.029 260.831C345.166 277.256 351.266 294.313 352.256 308.621C352.388 310.518 351.093 312.215 349.21 312.629C346.545 313.213 342.437 313.765 337.634 313.211C336.005 313.023 334.668 311.85 334.295 310.275L320.891 265.005L312.763 219.231L304.056 194.34L338.939 204.421Z" fill="#133671"/>
<path d="M333.802 308.837C333.82 308.837 333.839 308.835 333.857 308.829C333.962 308.799 334.022 308.691 333.991 308.589L321.075 264.968L315.016 230.845C314.997 230.739 314.895 230.67 314.788 230.687C314.681 230.705 314.609 230.806 314.628 230.911L320.691 265.056L320.694 265.066L333.613 308.698C333.638 308.782 333.717 308.837 333.802 308.837Z" fill="black"/>
<path d="M347.292 282.46C347.306 282.46 347.321 282.458 347.336 282.455C347.443 282.431 347.509 282.326 347.484 282.221C346.008 275.922 343.87 263.545 342.727 256.727C342.694 256.53 342.671 256.396 342.649 256.305C342.649 256.304 342.648 256.304 342.648 256.303C342.648 256.214 342.637 256.089 342.622 255.908L339.651 220.484C339.642 220.377 339.546 220.295 339.438 220.306C339.329 220.315 339.248 220.409 339.258 220.516C339.287 220.871 342.229 255.909 342.262 256.336C342.262 256.34 342.262 256.344 342.263 256.348L342.285 256.539L342.295 256.538C342.306 256.604 342.32 256.689 342.337 256.791C343.481 263.612 345.62 275.999 347.099 282.309C347.12 282.399 347.202 282.46 347.292 282.46Z" fill="black"/>
<path d="M298.521 306.235C298.522 306.235 298.523 306.235 298.524 306.235C298.633 306.234 298.72 306.145 298.718 306.038L297.29 220.813C297.288 220.705 297.204 220.616 297.089 220.621C296.98 220.623 296.893 220.711 296.895 220.819L298.323 306.044C298.325 306.15 298.413 306.235 298.521 306.235Z" fill="black"/>
<path d="M314.28 325.442L303.33 325.445L298.889 320.679L290.77 325.449L289.021 325.449C288.419 325.449 287.866 325.851 287.753 326.435C287.601 327.22 288.207 327.906 288.976 327.906L314.437 327.898C314.625 327.898 314.776 327.749 314.776 327.564L314.776 325.929C314.775 325.66 314.554 325.442 314.28 325.442Z" fill="#EF3A4C"/>
<path d="M314.182 325.457L314.181 321.026C314.181 321.026 312.336 318.579 309.528 319.829C309.528 319.829 305.282 322.801 301.537 319.208L292.242 323.276C292.242 323.276 289.693 324.117 289.003 325.465L314.182 325.457Z" fill="#49263E"/>
<path d="M314.281 321.027H314.095V325.436H314.281V321.027Z" fill="black"/>
<path d="M305.73 321.083C305.374 321.083 305.159 321.053 305.152 321.052L305.18 320.87C305.202 320.873 307.396 321.176 309.483 319.76L309.588 319.911C308.094 320.926 306.543 321.083 305.73 321.083Z" fill="black"/>
<path d="M311.924 324.628L311.82 324.475L313.008 323.686L313.112 323.838L311.924 324.628Z" fill="black"/>
<path d="M311.075 324.404L310.971 324.252L312.158 323.462L312.262 323.614L311.075 324.404Z" fill="black"/>
<path d="M288.111 327.697C287.81 327.445 287.638 327.078 287.638 326.69C287.637 325.962 288.238 325.369 288.977 325.369L314.152 325.362C314.548 325.362 314.87 325.679 314.87 326.07L314.871 327.295H314.684L314.684 326.07C314.684 325.78 314.445 325.546 314.152 325.546L288.977 325.553C288.341 325.553 287.824 326.063 287.824 326.69C287.824 327.024 287.973 327.34 288.231 327.557L288.111 327.697Z" fill="black"/>
<path d="M289.066 325.499L288.897 325.42C288.918 325.377 289.428 324.346 291.331 323.546C293.2 322.759 301.425 319.16 301.507 319.124L301.583 319.292C301.5 319.328 293.275 322.928 291.404 323.715C289.573 324.485 289.071 325.489 289.066 325.499Z" fill="black"/>
<path d="M354.225 318.581L343.703 321.57L338.097 318.201L331.634 324.999L329.953 325.476C329.374 325.641 328.956 326.178 329.011 326.769C329.084 327.565 329.86 328.06 330.599 327.85L355.065 320.9C355.244 320.849 355.348 320.663 355.296 320.486L354.837 318.915C354.762 318.656 354.487 318.507 354.225 318.581Z" fill="#EF3A4C"/>
<path d="M354.141 318.617L352.897 314.359C352.897 314.359 350.437 312.511 348.09 314.478C348.09 314.478 344.843 318.491 340.236 316.059L332.445 322.504C332.445 322.504 330.231 324.007 329.946 325.491L354.141 318.617Z" fill="#49263E"/>
<path d="M344.786 316.716C344.444 316.813 344.23 316.843 344.223 316.844L344.198 316.662C344.22 316.658 346.414 316.351 348.022 314.421L348.166 314.538C347.014 315.92 345.567 316.494 344.786 316.716Z" fill="black"/>
<path d="M329.708 327.892C329.349 327.732 329.08 327.427 328.971 327.053C328.766 326.354 329.177 325.62 329.887 325.419L354.078 318.547C354.458 318.439 354.857 318.656 354.966 319.031L355.31 320.208L355.131 320.259L354.787 319.082C354.706 318.804 354.411 318.643 354.129 318.723L329.938 325.596C329.327 325.769 328.973 326.4 329.15 327.003C329.243 327.324 329.475 327.587 329.784 327.724L329.708 327.892Z" fill="black"/>
<path d="M330.008 325.517L329.824 325.487C329.832 325.44 330.033 324.311 331.637 323.022C333.213 321.756 340.106 316.055 340.175 315.998L340.295 316.139C340.226 316.196 333.331 321.898 331.754 323.165C330.211 324.404 330.01 325.506 330.008 325.517Z" fill="black"/>
<path d="M262.238 182.141C262.31 181.564 262.231 180.865 261.957 180.646L258.089 175.645C257.669 175.307 257.055 175.374 256.717 175.795C256.464 176.11 256.439 176.534 256.619 176.869C256.982 177.543 257.251 178.263 257.503 178.986L258.111 180.722C257.666 180.773 255.46 181.595 253.952 181.658V185.539L253.736 185.505C253.824 186.328 253.912 187.19 253.957 187.964C254.009 188.853 253.762 189.625 254.488 190.084C254.908 190.349 257.11 190.347 257.893 190.288L263.561 190.234C263.416 188.682 263.299 187.801 262.238 182.141Z" fill="#FE9F73"/>
<path d="M311.14 169.24C311.14 169.24 304.852 182.866 302.038 185.542C299.224 188.218 266.333 190.325 266.333 190.325L265.464 180.189L291.929 174.134L298.869 161.01L311.14 169.24Z" fill="#FE9F73"/>
<path d="M296.892 178.198C296.826 178.192 296.76 178.168 296.702 178.126L291.674 174.499C291.499 174.373 291.459 174.128 291.586 173.953C291.712 173.778 291.957 173.738 292.132 173.865L297.16 177.492C297.336 177.618 297.375 177.863 297.249 178.038C297.164 178.155 297.027 178.212 296.892 178.198Z" fill="#F07162"/>
<path d="M252.357 184.9C252.501 185.544 253.047 185.944 253.193 185.911L258.09 184.832C258.64 184.711 259.029 184.19 258.943 183.633C258.85 183.023 258.263 182.628 257.67 182.758L252.648 183.865C252.648 183.865 252.214 184.256 252.357 184.9Z" fill="#FE9F73"/>
<path d="M252.824 186.935C252.956 187.581 253.493 187.992 253.64 187.962L258.557 186.977C259.109 186.867 259.508 186.353 259.433 185.795C259.351 185.183 258.772 184.776 258.177 184.896L253.135 185.906C253.135 185.906 252.693 186.288 252.824 186.935Z" fill="#FE9F73"/>
<path d="M253.43 188.783C253.546 189.387 254.042 189.775 254.179 189.749L258.77 188.886C259.285 188.789 259.663 188.315 259.599 187.793C259.529 187.222 258.995 186.838 258.438 186.943L253.731 187.828C253.731 187.828 253.315 188.179 253.43 188.783Z" fill="#FE9F73"/>
<path d="M253.19 186.094C253.098 186.094 253.016 186.031 252.996 185.938C252.972 185.83 253.041 185.724 253.148 185.701L258.045 184.64C258.505 184.538 258.813 184.111 258.744 183.665C258.707 183.427 258.579 183.221 258.381 183.085C258.183 182.95 257.945 182.903 257.71 182.955L253.233 183.942C253.126 183.964 253.02 183.897 252.996 183.79C252.972 183.683 253.04 183.577 253.148 183.553L257.625 182.566C257.962 182.492 258.32 182.561 258.606 182.757C258.895 182.955 259.084 183.257 259.138 183.605C259.238 184.257 258.795 184.882 258.13 185.029L253.233 186.09C253.218 186.093 253.204 186.094 253.19 186.094Z" fill="#F07162"/>
<path d="M252.355 182.772C252.492 183.387 253.013 183.768 253.152 183.738L257.824 182.708C258.349 182.592 258.72 182.095 258.638 181.564C258.549 180.982 257.989 180.605 257.423 180.729L252.633 181.785C252.633 181.785 252.218 182.158 252.355 182.772Z" fill="#FE9F73"/>
<path d="M253.155 183.909C253.067 183.909 252.989 183.849 252.97 183.76C252.947 183.657 253.012 183.556 253.115 183.534L257.786 182.522C258.226 182.425 258.519 182.017 258.454 181.592C258.419 181.364 258.296 181.168 258.107 181.038C257.918 180.909 257.691 180.865 257.467 180.914L253.196 181.855C253.093 181.877 252.992 181.813 252.969 181.711C252.947 181.609 253.011 181.507 253.114 181.485L257.385 180.543C257.707 180.472 258.048 180.539 258.321 180.725C258.597 180.915 258.778 181.202 258.829 181.535C258.924 182.156 258.502 182.753 257.867 182.893L253.195 183.905C253.182 183.908 253.168 183.909 253.155 183.909Z" fill="#F07162"/>
<path d="M253.77 188.024C253.676 188.024 253.592 187.957 253.575 187.861C253.555 187.753 253.626 187.65 253.734 187.629L258.538 186.736C259.003 186.643 259.289 186.267 259.229 185.824C259.198 185.585 259.072 185.376 258.877 185.237C258.682 185.097 258.446 185.046 258.209 185.094L253.168 186.104C253.06 186.126 252.955 186.055 252.934 185.948C252.912 185.84 252.982 185.735 253.09 185.714L258.131 184.704C258.47 184.635 258.827 184.712 259.109 184.913C259.394 185.117 259.577 185.422 259.624 185.771C259.711 186.422 259.286 186.992 258.614 187.127L253.806 188.021C253.794 188.023 253.782 188.024 253.77 188.024Z" fill="#F07162"/>
<path d="M254.181 189.95C254.088 189.95 254.004 189.884 253.986 189.788C253.966 189.68 254.037 189.576 254.145 189.556L258.735 188.692C259.16 188.612 259.453 188.229 259.404 187.819C259.377 187.6 259.265 187.408 259.087 187.278C258.91 187.148 258.693 187.099 258.477 187.14L253.77 188.026C253.663 188.046 253.558 187.975 253.538 187.867C253.517 187.759 253.588 187.655 253.696 187.635L258.403 186.749C258.724 186.688 259.059 186.764 259.322 186.957C259.589 187.152 259.758 187.442 259.798 187.771C259.874 188.388 259.439 188.964 258.808 189.083L254.218 189.946C254.206 189.949 254.194 189.95 254.181 189.95Z" fill="#F07162"/>
<path d="M259.988 179.409C259.988 179.409 262.547 180.541 263.254 180.497C263.962 180.453 266.876 179.86 266.876 179.86L268.298 190.185C268.298 190.185 266.128 190.442 262.37 190.245C258.612 190.047 259.988 179.409 259.988 179.409Z" fill="#FE9F73"/>
<path d="M318.317 146.807C318.317 146.807 300.704 139.933 296.665 146.151C292.626 152.369 285.953 169.334 286.054 169.772C287.152 174.544 292.93 179.672 296.471 181.559C299.776 183.321 300.811 182.101 302.981 179.441C306.693 174.89 308.314 154.882 308.367 155.04C308.415 155.184 318.317 146.807 318.317 146.807Z" fill="#7FC6A6"/>
<path d="M339.153 147.069C340.453 148.913 341.997 154.143 343.943 159.763C346.522 167.212 349.403 175.174 349.403 175.174C349.403 175.174 349.846 177.421 339.3 178.407L340.005 214.357C340.005 214.357 319.741 221.271 295.925 214.279C295.925 214.279 294.863 150.431 298.143 145.46C301.423 140.49 333.66 139.281 339.153 147.069Z" fill="#7FC6A6"/>
<path d="M311.471 124.421L311.199 134.764C311.199 134.764 310.974 138.085 313.872 138.577L313.213 142.999C312.967 144.643 313.912 146.247 315.483 146.79C316.251 147.056 317.17 147.259 318.219 147.287C321.544 147.374 323.41 144.928 323.72 143.688C324.03 142.448 323.355 136.469 323.355 136.469L323.533 133.545L323.452 122.192L311.471 124.421Z" fill="#FE9F73"/>
<path d="M320.683 135.938C320.683 135.938 320.342 141.498 313.378 141.847L313.864 138.585C313.864 138.585 318.348 139.609 320.683 135.938Z" fill="#F07162"/>
<path d="M319.347 130.058C319.382 130.059 319.417 130.047 319.444 130.022C319.501 129.97 319.505 129.883 319.454 129.826C319.435 129.806 317.581 127.807 315.803 129.164C315.742 129.21 315.73 129.297 315.776 129.358C315.823 129.419 315.91 129.431 315.971 129.384C317.546 128.182 319.18 129.938 319.249 130.013C319.275 130.042 319.311 130.057 319.347 130.058Z" fill="black"/>
<path d="M324.171 128.738L321.165 129.282L320.609 129.828C320.609 129.828 321 124.822 321.589 123.852C322.178 122.881 324.171 128.738 324.171 128.738Z" fill="black"/>
<path d="M313.677 129.089C313.716 129.09 313.755 129.075 313.783 129.044C313.835 128.987 313.831 128.9 313.774 128.848C313.72 128.798 312.428 127.633 311.574 128.328C311.514 128.376 311.505 128.463 311.553 128.523C311.602 128.582 311.689 128.591 311.748 128.543C312.418 127.999 313.576 129.042 313.587 129.053C313.613 129.076 313.645 129.088 313.677 129.089Z" fill="black"/>
<path d="M316.55 130.545C316.544 130.775 316.725 130.966 316.955 130.972C317.184 130.978 317.375 130.797 317.381 130.567C317.387 130.338 317.206 130.147 316.976 130.141C316.747 130.135 316.556 130.316 316.55 130.545Z" fill="black"/>
<path d="M312.135 130.011C312.129 130.241 312.31 130.432 312.54 130.438C312.769 130.444 312.96 130.263 312.966 130.033C312.972 129.803 312.791 129.612 312.562 129.607C312.332 129.6 312.141 129.782 312.135 130.011Z" fill="black"/>
<path d="M319.969 130.489C319.932 131.866 321.02 133.012 322.397 133.048C323.774 133.084 324.92 131.997 324.956 130.62C324.992 129.242 323.905 128.096 322.528 128.06C321.15 128.024 320.005 129.112 319.969 130.489Z" fill="#FE9F73"/>
<path d="M322.863 131.954C323.381 131.967 323.737 131.587 323.862 131.201C324.009 130.744 323.866 130.293 323.498 130.051C322.955 129.694 322.449 129.901 322.188 130.063C322.303 129.783 322.477 129.581 322.707 129.462C323.206 129.204 323.81 129.417 323.816 129.419C323.852 129.433 323.892 129.414 323.905 129.378C323.918 129.342 323.899 129.302 323.863 129.289C323.836 129.279 323.198 129.053 322.645 129.338C322.326 129.503 322.103 129.803 321.985 130.23L321.918 130.47L322.099 130.299C322.125 130.275 322.733 129.714 323.422 130.167C323.804 130.418 323.826 130.858 323.73 131.158C323.629 131.47 323.344 131.828 322.868 131.815C322.863 131.815 322.858 131.814 322.853 131.815C322.816 131.814 322.784 131.843 322.782 131.881C322.781 131.919 322.811 131.952 322.849 131.953C322.853 131.953 322.858 131.954 322.863 131.954Z" fill="#F07162"/>
<path d="M314.995 133.309C315.024 133.309 315.052 133.291 315.062 133.263C315.075 133.227 315.056 133.187 315.02 133.174L313.644 132.678L314.168 129.422C314.174 129.384 314.149 129.349 314.111 129.342C314.073 129.335 314.037 129.362 314.031 129.4L313.488 132.77L314.973 133.304C314.98 133.307 314.988 133.308 314.995 133.309Z" fill="#F07162"/>
<path d="M316.044 134.683C316.001 134.673 313.303 134.539 313.303 134.539C313.303 134.539 313.612 135.665 314.615 135.717C315.618 135.77 316.044 134.683 316.044 134.683Z" fill="#FBFDFC"/>
<path d="M324.167 128.734C324.167 128.734 325.137 123.901 323.697 122.052C322.258 120.203 313.809 116.812 312.751 117.689C311.693 118.567 312.698 119.693 312.698 119.693C312.698 119.693 309.301 118.504 308.446 121.522C307.59 124.54 314.925 126.026 319.358 124.719C319.358 124.719 322.243 125.644 324.167 128.734Z" fill="black"/>
<path d="M306.043 191.428C306.455 191.506 324.342 193.82 336.12 189.892C340.22 188.525 344.038 185.34 345.918 182.769C348.771 178.867 346.907 171.385 344.258 166.032L337.973 172.786C337.27 173.542 336.461 174.191 335.571 174.712C332.295 176.628 324.654 180.928 316.96 181.551L306.043 191.428Z" fill="#FE9F73"/>
<path d="M349.401 175.172C349.401 175.172 349.206 175.492 348.214 176.153C347.048 176.93 344.714 178.088 339.299 178.405C339.299 178.405 333.542 178.505 326.737 175.172C319.931 171.839 334.927 159.247 334.927 159.247L342.079 161.919L345.309 164.572L349.401 175.172Z" fill="#7FC6A6"/>
<path d="M291.027 177.618C291.081 177.618 291.134 177.594 291.171 177.549C291.234 177.47 291.221 177.354 291.142 177.291C287.077 174.04 286.31 170.18 286.24 169.78C287.632 164.2 295.701 146.753 298.011 145.033C300.372 143.276 312.587 141.675 312.71 141.659C312.811 141.646 312.882 141.554 312.869 141.454C312.856 141.353 312.763 141.283 312.663 141.295C312.157 141.361 300.229 142.925 297.792 144.739C295.273 146.613 287.118 164.685 285.875 169.728L285.866 169.763L285.871 169.798C285.878 169.84 286.53 174.072 290.913 177.578C290.947 177.605 290.987 177.618 291.027 177.618Z" fill="black"/>
<path d="M309.38 217.12C301.289 216.235 295.92 214.47 295.866 214.453L295.751 214.414L295.741 214.293C294.473 197.848 296.629 152.784 296.651 152.331C296.656 152.229 296.743 152.148 296.843 152.156C296.944 152.161 297.022 152.247 297.017 152.348C296.996 152.8 294.851 197.618 296.098 214.141C296.917 214.4 302.02 215.946 309.42 216.755C316.853 217.568 328.183 217.78 339.951 214.181C340.048 214.151 340.151 214.205 340.18 214.302C340.21 214.399 340.155 214.502 340.059 214.531C332.367 216.884 324.863 217.617 318.502 217.617C315.081 217.617 311.991 217.405 309.38 217.12Z" fill="black"/>
<path d="M340.048 178.362C343.513 178.362 347.178 177.673 349.531 175.302L349.612 175.221L349.574 175.112L340.064 148.272C340.02 148.124 338.858 144.432 332.847 143.168C326.935 141.924 324.559 141.636 324.536 141.634C324.437 141.622 324.344 141.693 324.332 141.794C324.32 141.894 324.392 141.986 324.493 141.998C324.516 142 326.879 142.287 332.772 143.526C338.571 144.746 339.704 148.349 339.715 148.385L349.189 175.125C344.087 180.109 332.413 177.095 331.066 176.725C330.889 172.617 328.001 154.321 327.971 154.134C327.956 154.034 327.86 153.965 327.762 153.982C327.662 153.998 327.593 154.092 327.609 154.192C327.639 154.38 330.59 173.071 330.704 176.871L330.708 177.004L330.836 177.042C331.143 177.132 335.417 178.362 340.048 178.362Z" fill="black"/>
<path d="M328.577 159.433C328.618 159.433 328.659 159.419 328.693 159.391C328.771 159.327 328.783 159.212 328.719 159.133L326.879 156.873C326.815 156.795 326.7 156.783 326.621 156.847C326.543 156.911 326.531 157.026 326.595 157.105L328.435 159.365C328.471 159.409 328.524 159.433 328.577 159.433Z" fill="black"/>
<path d="M331.141 210.239C331.184 210.239 331.228 210.224 331.263 210.192L335.952 205.981C336.028 205.914 336.034 205.798 335.966 205.722C335.898 205.647 335.783 205.641 335.707 205.708L331.018 209.919C330.943 209.987 330.936 210.103 331.004 210.178C331.04 210.218 331.09 210.239 331.141 210.239Z" fill="black"/>
<path d="M332.377 212.525C332.424 212.525 332.47 212.507 332.506 212.471L335.959 209.049C336.03 208.977 336.031 208.861 335.96 208.789C335.889 208.717 335.773 208.717 335.7 208.788L332.248 212.211C332.176 212.282 332.175 212.398 332.247 212.47C332.282 212.506 332.33 212.525 332.377 212.525Z" fill="black"/>
<path d="M307.384 191.182H300.737C300.064 191.182 299.519 190.554 299.519 189.781V182.426V174.421C299.519 173.647 300.064 173.02 300.737 173.02H307.384C308.057 173.02 308.603 173.647 308.603 174.421V189.781C308.603 190.554 308.057 191.182 307.384 191.182Z" fill="#C2FBFF"/>
<path d="M307.389 191.418C307.256 191.418 307.147 191.31 307.147 191.177C307.147 191.043 307.255 190.936 307.389 190.936C307.928 190.936 308.366 190.415 308.366 189.775V174.416C308.366 173.776 307.928 173.256 307.389 173.256H300.742C300.609 173.256 300.501 173.148 300.501 173.015C300.501 172.881 300.609 172.773 300.742 172.773H307.389C308.194 172.773 308.848 173.51 308.848 174.416V189.775C308.848 190.681 308.194 191.418 307.389 191.418Z" fill="#21111D"/>
<path d="M298.973 183.176C298.184 181.948 299.387 180.852 299.387 180.852C299.338 179.236 299.892 178.649 299.892 178.649C299.892 178.649 303.848 180.791 306.059 182.185C307.454 182.268 308.072 181.708 308.072 181.708L308.095 181.771C308.369 180.605 308.711 179.145 308.746 178.98C308.805 178.7 309.347 178.347 309.859 179.38C310.371 180.413 311.029 182.39 311.029 182.39L319.347 181.246L315.915 192.195C315.915 192.195 307.183 191.604 305.859 191.422C304.534 191.24 300.218 189.21 299.103 187.807C297.987 186.403 298.49 185.463 298.49 185.463C297.742 184.043 298.973 183.176 298.973 183.176Z" fill="#FE9F73"/>
<path d="M301.94 182.97C302.006 182.984 302.077 182.954 302.113 182.892C302.157 182.815 302.13 182.717 302.053 182.673C300.974 182.054 299.509 180.747 299.495 180.734C299.428 180.675 299.327 180.68 299.267 180.746C299.208 180.813 299.214 180.914 299.28 180.973C299.341 181.028 300.785 182.316 301.893 182.952C301.909 182.961 301.924 182.966 301.94 182.97Z" fill="#F07162"/>
<path d="M301.525 184.954C301.599 184.969 301.676 184.931 301.706 184.858C301.74 184.776 301.701 184.682 301.619 184.648C300.22 184.069 299.098 183.06 299.087 183.05C299.021 182.99 298.919 182.995 298.86 183.061C298.8 183.127 298.805 183.228 298.871 183.288C298.918 183.331 300.044 184.344 301.497 184.945C301.506 184.949 301.515 184.952 301.525 184.954Z" fill="#F07162"/>
<path d="M300.692 187.161C300.765 187.177 300.841 187.14 300.872 187.07C300.908 186.989 300.872 186.894 300.791 186.857C299.598 186.323 298.616 185.361 298.606 185.351C298.543 185.289 298.441 185.289 298.378 185.353C298.316 185.416 298.317 185.518 298.38 185.58C298.421 185.621 299.414 186.593 300.66 187.151C300.671 187.156 300.681 187.159 300.692 187.161Z" fill="#F07162"/>
<g opacity="0.3">
<path d="M300.266 175.389C300.266 175.998 300.759 176.492 301.368 176.492C301.977 176.492 302.471 175.998 302.471 175.389C302.471 174.78 301.977 174.287 301.368 174.287C300.759 174.287 300.266 174.78 300.266 175.389Z" fill="white"/>
</g>
<path d="M419.683 140.712H370.375C368.8 140.712 367.523 141.989 367.523 143.564V167.447C367.523 169.022 368.8 170.299 370.375 170.299H374.575L372.661 175.523L380.218 170.299H419.683C421.258 170.299 422.535 169.022 422.535 167.447V143.564C422.535 141.989 421.258 140.712 419.683 140.712Z" fill="white"/>
<path d="M417.369 159.345H371.498C371.18 159.345 370.923 159.088 370.923 158.771C370.923 158.453 371.18 158.196 371.498 158.196H417.369C417.686 158.196 417.944 158.453 417.944 158.771C417.944 159.088 417.686 159.345 417.369 159.345Z" fill="#B1E8FC"/>
<path d="M401.302 146.285H371.498C371.18 146.285 370.923 146.028 370.923 145.71C370.923 145.392 371.18 145.135 371.498 145.135H401.302C401.62 145.135 401.877 145.392 401.877 145.71C401.877 146.028 401.62 146.285 401.302 146.285Z" fill="#B1E8FC"/>
<path d="M384.385 165.872H371.498C371.18 165.872 370.923 165.615 370.923 165.297C370.923 164.979 371.18 164.722 371.498 164.722H384.385C384.702 164.722 384.959 164.98 384.959 165.297C384.959 165.614 384.702 165.872 384.385 165.872Z" fill="#B1E8FC"/>
<path d="M417.367 165.872H388.414C388.096 165.872 387.839 165.615 387.839 165.297C387.839 164.98 388.096 164.723 388.414 164.723H417.367C417.685 164.723 417.942 164.98 417.942 165.297C417.942 165.615 417.684 165.872 417.367 165.872Z" fill="#B1E8FC"/>
<path d="M417.709 146.285H405.815C405.497 146.285 405.24 146.028 405.24 145.71C405.24 145.392 405.497 145.135 405.815 145.135H417.709C418.026 145.135 418.283 145.392 418.283 145.71C418.283 146.028 418.026 146.285 417.709 146.285Z" fill="#B1E8FC"/>
<path d="M390.23 152.813H371.496C371.178 152.813 370.921 152.556 370.921 152.238C370.921 151.921 371.178 151.664 371.496 151.664H390.23C390.548 151.664 390.805 151.921 390.805 152.238C390.805 152.556 390.548 152.813 390.23 152.813Z" fill="#B1E8FC"/>
<path d="M417.708 152.813H394.431C394.114 152.813 393.856 152.556 393.856 152.238C393.856 151.921 394.114 151.664 394.431 151.664H417.708C418.025 151.664 418.282 151.921 418.282 152.238C418.282 152.556 418.025 152.813 417.708 152.813Z" fill="#B1E8FC"/>
<path d="M391.314 221.387V251.302C391.314 254.063 393.553 256.303 396.316 256.303H468.641C471.404 256.303 473.643 254.063 473.643 251.302V221.354C473.643 218.782 471.704 216.666 469.209 216.385H396.316C393.553 216.385 391.314 218.624 391.314 221.387Z" fill="#AAC9F8"/>
<path d="M418.081 254.13C417.979 254.386 405.809 266.404 405.797 265.997C405.786 265.591 405.786 265.589 408.97 251.732L418.081 254.13Z" fill="#AAC9F8"/>
<path d="M416.912 235.809C416.912 239.738 414.639 243.137 411.336 244.764C410.009 245.418 408.513 245.784 406.935 245.784C405.955 245.784 405.007 245.643 404.113 245.379C399.978 244.163 396.959 240.338 396.959 235.809C396.959 230.3 401.426 225.833 406.935 225.833C412.445 225.833 416.912 230.3 416.912 235.809Z" fill="white"/>
<path d="M416.23 235.81C416.23 239.416 414.176 242.543 411.174 244.083C411.129 244.107 411.082 244.131 411.035 244.154C409.799 244.763 408.405 245.104 406.934 245.104C406.053 245.104 405.199 244.982 404.392 244.75C404.363 244.744 404.335 244.735 404.306 244.726C400.453 243.593 397.64 240.03 397.64 235.81C397.64 230.677 401.801 226.515 406.934 226.515C412.069 226.515 416.23 230.677 416.23 235.81Z" fill="#8CD2F9"/>
<path d="M411.179 244.088C411.134 244.112 411.088 244.136 411.041 244.159C409.804 244.767 408.411 245.109 406.94 245.109C406.059 245.109 405.205 244.986 404.398 244.755L404.47 244.272L404.784 242.166C402.913 241.849 403.057 239.705 403.057 239.705L403.23 233.148L403.233 233.027L410.969 231.587L410.991 234.605L410.994 235.188L410.998 235.518L410.999 235.885L411.018 238.444L411.022 238.917L410.906 240.805C410.907 240.806 411.119 242.68 411.179 244.088Z" fill="#FE9F73"/>
<path d="M409.181 240.448C409.181 240.448 408.961 244.038 404.464 244.263L404.778 242.157C404.778 242.157 407.673 242.818 409.181 240.448Z" fill="#F07162"/>
<path d="M411.431 235.797L409.49 236.148L409.132 236.501C409.132 236.501 409.384 233.269 409.764 232.642C410.144 232.015 411.431 235.797 411.431 235.797Z" fill="black"/>
<path d="M408.712 236.938C408.688 237.827 409.39 238.567 410.279 238.591C411.168 238.614 411.908 237.912 411.932 237.023C411.955 236.133 411.253 235.394 410.364 235.37C409.474 235.347 408.735 236.049 408.712 236.938Z" fill="#FE9F73"/>
<path d="M411.422 235.8C411.422 235.8 412.048 232.679 411.118 231.485C410.189 230.292 404.734 228.102 404.051 228.669C403.367 229.235 404.017 229.962 404.017 229.962C404.017 229.962 401.823 229.195 401.271 231.143C400.719 233.092 405.455 234.051 408.317 233.208C408.317 233.208 410.18 233.804 411.422 235.8Z" fill="black"/>
<path d="M421.558 222.445L422.659 224.676L425.121 225.034L423.34 226.771L423.76 229.223L421.558 228.065L419.355 229.223L419.776 226.771L417.994 225.034L420.456 224.676L421.558 222.445Z" fill="white"/>
<path d="M432.277 222.445L433.378 224.676L435.84 225.034L434.058 226.771L434.479 229.223L432.277 228.065L430.074 229.223L430.495 226.771L428.713 225.034L431.175 224.676L432.277 222.445Z" fill="white"/>
<path d="M442.995 222.445L444.096 224.676L446.559 225.034L444.777 226.771L445.198 229.223L442.995 228.065L440.793 229.223L441.213 226.771L439.432 225.034L441.894 224.676L442.995 222.445Z" fill="white"/>
<path d="M453.714 222.445L454.815 224.676L457.278 225.034L455.496 226.771L455.917 229.223L453.714 228.065L451.512 229.223L451.932 226.771L450.15 225.034L452.613 224.676L453.714 222.445Z" fill="white"/>
<path d="M464.434 222.445L465.535 224.676L467.997 225.034L466.216 226.771L466.636 229.223L464.434 228.065L462.231 229.223L462.652 226.771L460.87 225.034L463.333 224.676L464.434 222.445Z" fill="white"/>
<path d="M460.219 232.577H420.213V233.541H460.219V232.577Z" fill="white"/>
<path d="M467.33 236.896H420.213V237.859H467.33V236.896Z" fill="white"/>
<path d="M467.33 241.214H420.213V242.178H467.33V241.214Z" fill="white"/>
<path d="M176.396 218.563L177.42 214.862C177.501 214.884 185.669 217.044 193.933 213.406L195.481 216.921C185.924 221.128 176.781 218.67 176.396 218.563Z" fill="#223749"/>
<path d="M219.359 199.991C218.899 200.557 218.068 200.644 217.502 200.184C216.936 199.725 216.849 198.894 217.309 198.328L220.297 194.645C220.756 194.078 221.588 193.992 222.154 194.451C222.72 194.91 222.806 195.742 222.347 196.308L219.359 199.991Z" fill="#374169"/>
<path d="M218.514 195.401C217.979 196.146 216.942 196.317 216.197 195.782C215.451 195.248 215.281 194.21 215.815 193.465L219.293 188.617C219.828 187.872 220.865 187.701 221.61 188.236C222.356 188.77 222.526 189.808 221.992 190.553L218.514 195.401Z" fill="#374169"/>
<path d="M212.782 193.395C211.981 192.949 211.693 191.938 212.139 191.137L215.04 185.924C215.486 185.122 216.498 184.834 217.299 185.28C218.1 185.726 218.388 186.737 217.942 187.539L215.041 192.752C214.594 193.553 213.583 193.841 212.782 193.395Z" fill="#374169"/>
<path d="M207.441 194.017C206.64 193.571 206.352 192.56 206.798 191.759L209.7 186.545C210.146 185.744 211.157 185.456 211.958 185.902C212.759 186.348 213.048 187.36 212.602 188.161L209.7 193.374C209.254 194.175 208.243 194.463 207.441 194.017Z" fill="#374169"/>
<path d="M204.488 198.574C203.451 198.795 202.431 198.134 202.209 197.097L200.768 190.351C200.547 189.314 201.208 188.294 202.245 188.073C203.282 187.851 204.302 188.512 204.524 189.549L205.965 196.295C206.186 197.332 205.525 198.352 204.488 198.574Z" fill="#374169"/>
<path d="M195.594 219.561C195.594 219.561 191.608 212.497 193.339 209.762C195.07 207.027 202.501 196.577 203.573 194.465C204.645 192.353 211.238 189.772 216.001 193.1C220.765 196.429 221.271 199.263 214.411 207.374C207.552 215.485 196.475 221.303 195.594 219.561Z" fill="#8CD2F9"/>
<path d="M214.527 207.475C218.446 202.841 219.99 199.879 219.69 197.571C219.481 195.968 218.404 194.594 216.088 192.976C215.853 192.811 215.609 192.659 215.357 192.519C213.229 191.334 210.561 191.034 207.897 191.702C205.776 192.233 203.982 193.317 203.435 194.397C202.908 195.434 200.763 198.601 198.953 201.244C198.329 202.154 197.692 203.08 197.076 203.975C195.431 206.365 193.878 208.621 193.208 209.681C191.453 212.453 195.272 219.305 195.458 219.635C195.567 219.848 195.787 219.975 196.109 220.013C198.788 220.328 208.504 214.597 214.527 207.475ZM214.293 207.277C207.933 214.796 198.461 219.98 196.145 219.708C196.031 219.695 195.938 219.668 195.867 219.629C195.804 219.594 195.758 219.548 195.73 219.493L195.727 219.487C195.688 219.417 191.806 212.472 193.468 209.846C194.135 208.791 195.687 206.537 197.329 204.15C197.945 203.254 198.583 202.328 199.206 201.418C201.135 198.602 203.178 195.583 203.709 194.536C204.211 193.546 205.964 192.503 207.972 192C210.864 191.275 213.759 191.723 215.912 193.228C218.15 194.792 219.189 196.102 219.385 197.611C219.673 199.824 218.15 202.715 214.293 207.277Z" fill="#1D1D1B"/>
<path d="M210.512 201.276C208.758 199.005 205.745 197.844 201.558 197.825L201.559 197.518C204.301 197.53 206.555 198.026 208.298 198.996C209.281 199.543 210.102 200.242 210.757 201.089C213.551 204.709 212.272 209.85 212.259 209.902L211.961 209.826C211.974 209.776 213.215 204.775 210.512 201.276Z" fill="#1D1D1B"/>
<path d="M151.717 201.571H141.59V205.401H151.717H152.059H162.186V201.571H152.059H151.717Z" fill="#111E28"/>
<path d="M135.535 247.437C135.535 249.054 136.316 250.394 137.339 250.64H148.343C149.366 250.394 150.147 249.054 150.147 247.437V241.9H135.535V247.437Z" fill="#223749"/>
<path d="M153.628 247.437C153.628 249.054 154.409 250.394 155.432 250.64H166.436C167.458 250.394 168.24 249.054 168.24 247.437V241.9H153.628V247.437Z" fill="#374169"/>
<path d="M171.308 210.66L171.15 209.176C170.585 207.003 168.609 205.4 166.26 205.4H152.059H151.717H137.516C135.167 205.4 133.192 207.003 132.627 209.176L132.468 210.66L129.799 235.553L129.657 236.875V236.881C129.726 239.611 131.961 241.803 134.708 241.803H151.717H152.059H169.069C171.815 241.803 174.051 239.611 174.12 236.881V236.875L173.978 235.553L171.308 210.66Z" fill="#49B3E2"/>
<path d="M138.593 209.794C138.322 208.678 137.141 208.046 136.062 208.441C132.922 209.591 126.815 212.458 122.231 218.511L125.293 220.83C129.277 215.568 134.722 213.039 137.397 212.05C138.311 211.713 138.823 210.741 138.593 209.794Z" fill="#223749"/>
<path d="M111.13 243.842C110.411 243.716 109.727 244.196 109.601 244.914L108.782 249.585C108.656 250.303 109.136 250.987 109.854 251.114C110.572 251.24 111.256 250.76 111.382 250.042L112.201 245.37C112.328 244.652 111.848 243.968 111.13 243.842Z" fill="#374169"/>
<path d="M114.411 247.054C113.5 246.949 112.676 247.603 112.572 248.514L111.891 254.442C111.786 255.353 112.44 256.176 113.351 256.281C114.262 256.385 115.086 255.732 115.19 254.82L115.871 248.893C115.976 247.982 115.322 247.159 114.411 247.054Z" fill="#374169"/>
<path d="M118.555 247.479C117.638 247.479 116.895 248.222 116.895 249.139V255.105C116.895 256.022 117.638 256.766 118.555 256.766C119.472 256.766 120.216 256.022 120.216 255.105V249.139C120.216 248.222 119.472 247.479 118.555 247.479Z" fill="#374169"/>
<path d="M122.919 244.338C122.002 244.338 121.259 245.082 121.259 245.999V251.965C121.259 252.882 122.002 253.626 122.919 253.626C123.837 253.626 124.58 252.882 124.58 251.965V245.999C124.58 245.082 123.837 244.338 122.919 244.338Z" fill="#374169"/>
<path d="M125.991 239.102C125.294 238.303 124.081 238.222 123.282 238.92C122.484 239.618 122.403 240.831 123.1 241.629L127.641 246.823C128.339 247.621 129.552 247.702 130.35 247.004C131.148 246.307 131.23 245.094 130.532 244.295L125.991 239.102Z" fill="#374169"/>
<path d="M120.846 216.256C119.229 215.162 112.38 225.632 110.332 236.055C108.284 246.479 110.105 248.709 115.885 249.301C121.666 249.893 126.172 244.43 126.081 242.064C125.99 239.697 127.401 226.952 127.583 223.72C127.765 220.489 120.846 216.256 120.846 216.256Z" fill="#8CD2F9"/>
<path d="M146.389 250.64H139.698V263.315H146.389V250.64Z" fill="#223749"/>
<path d="M173.375 250.64H166.684V263.315H173.375V250.64Z" fill="#223749"/>
<path d="M161.016 201.571H150.889V205.401H161.016H161.358H171.485V201.571H161.358H161.016Z" fill="#374169"/>
<path d="M144.834 247.437C144.834 249.054 145.615 250.394 146.638 250.64H157.642C158.664 250.394 159.446 249.054 159.446 247.437V241.9H144.834L144.834 247.437Z" fill="#374169"/>
<path d="M151.921 278.541V268.508C151.921 263.7 147.476 260.097 142.783 261.141C140.01 261.758 137.568 263.096 137.105 265.842C135.945 272.738 135.535 287.212 135.535 287.212H159.022C159.022 287.212 159.295 280.657 151.921 278.541Z" fill="#8CD2F9"/>
<path d="M160.022 287.211H134.897V289.26H160.022V287.211Z" fill="#223749"/>
<path d="M162.928 247.437C162.928 249.054 163.709 250.394 164.732 250.64H175.735C176.758 250.394 177.539 249.054 177.539 247.437V241.9H162.928V247.437Z" fill="#374169"/>
<path d="M180.606 210.66L180.448 209.176C179.882 207.003 177.907 205.4 175.558 205.4H161.357H161.015H146.814C144.465 205.4 142.49 207.003 141.925 209.176L141.766 210.66L139.097 235.553L138.955 236.875V236.881C139.024 239.611 141.259 241.803 144.006 241.803H161.015H161.357H178.366C181.113 241.803 183.348 239.611 183.417 236.881V236.875L183.276 235.553L180.606 210.66Z" fill="#8CD2F9"/>
<path d="M178.904 278.541V268.508C178.904 263.7 174.458 260.097 169.765 261.141C166.993 261.758 164.55 263.096 164.088 265.842C162.927 272.738 162.518 287.212 162.518 287.212H186.004C186.004 287.212 186.277 280.657 178.904 278.541Z" fill="#8CD2F9"/>
<path d="M187.006 287.211H161.881V289.26H187.006V287.211Z" fill="#223749"/>
<path d="M185.36 164.946H184.416V178.902H185.36V164.946Z" fill="#111E28"/>
<path d="M189.657 184.39C188.911 184.39 188.306 184.995 188.306 185.741C188.306 186.487 188.911 187.092 189.657 187.092C190.403 187.092 191.008 186.487 191.008 185.741C191.008 184.995 190.403 184.39 189.657 184.39Z" fill="#374169"/>
<path d="M189.658 182.736H187.927V188.744H189.658V182.736Z" fill="#111E28"/>
<path d="M185.465 177.28H181.21V194.28H185.465C186.708 194.28 187.737 193.371 187.926 192.181V179.379C187.737 178.189 186.708 177.28 185.465 177.28Z" fill="#374169"/>
<path d="M187.202 165.291C187.48 164.002 186.66 162.732 185.371 162.454C184.083 162.176 182.812 162.995 182.535 164.284C182.257 165.573 183.076 166.843 184.365 167.121C185.654 167.399 186.924 166.579 187.202 165.291Z" fill="#374169"/>
<path d="M171.284 164.584C168.999 163.192 154.766 163.307 153.262 163.323C151.757 163.307 137.525 163.192 135.239 164.584C132.826 166.053 129.887 183.262 129.573 187.354C129.259 191.431 129.78 202.174 153.131 203.292V203.304C153.175 203.302 153.218 203.3 153.262 203.298C153.306 203.3 153.349 203.302 153.393 203.304V203.292C176.744 202.174 177.264 191.431 176.951 187.354C176.636 183.262 173.698 166.053 171.284 164.584Z" fill="#49B3E2"/>
<path d="M178.431 164.584C176.146 163.192 161.913 163.307 160.409 163.323C158.904 163.307 144.672 163.192 142.386 164.584C139.973 166.053 137.035 183.262 136.72 187.354C136.406 191.431 133.296 202.413 156.647 203.531H162.13C185.48 202.413 184.411 191.431 184.098 187.354C183.783 183.262 180.845 166.053 178.431 164.584Z" fill="#8CD2F9"/>
<path d="M130.811 166.279H130.316V177.311H130.811V166.279Z" fill="#111E28"/>
<path d="M132.468 177.28H129.421C128.217 177.28 127.213 178.134 126.98 179.27C126.965 179.342 126.96 179.416 126.96 179.49V192.069C126.96 192.143 126.965 192.217 126.98 192.289C127.213 193.425 128.216 194.279 129.421 194.279H132.468C133.135 194.279 133.676 193.738 133.676 193.071V178.487C133.676 177.82 133.135 177.28 132.468 177.28Z" fill="#111E28"/>
<path d="M131.756 164.946H130.812V178.902H131.756V164.946Z" fill="#111E28"/>
<path d="M125.989 184.389C125.243 184.389 124.638 184.994 124.638 185.74C124.638 186.486 125.243 187.091 125.989 187.091C126.735 187.091 127.34 186.486 127.34 185.74C127.34 184.994 126.735 184.389 125.989 184.389Z" fill="#374169"/>
<path d="M127.719 182.736H125.988V188.743H127.719V182.736Z" fill="#111E28"/>
<path d="M133.752 177.28H130.705C129.501 177.28 128.496 178.134 128.264 179.27C128.249 179.342 128.244 179.416 128.244 179.49V192.069C128.244 192.143 128.249 192.217 128.264 192.289C128.497 193.425 129.501 194.279 130.705 194.279H133.752C134.419 194.279 134.96 193.738 134.96 193.071V178.487C134.96 177.82 134.419 177.28 133.752 177.28Z" fill="#374169"/>
<path d="M133.351 166.001C134.021 164.866 133.644 163.402 132.509 162.731C131.374 162.061 129.91 162.438 129.239 163.573C128.569 164.709 128.946 166.172 130.081 166.843C131.216 167.513 132.68 167.136 133.351 166.001Z" fill="#374169"/>
<path d="M173.944 169.213C172.24 168.175 161.706 168.25 160.409 168.263C159.112 168.25 148.578 168.175 146.873 169.213C145.056 170.319 142.844 183.274 142.608 186.355C142.372 189.42 142.764 197.49 160.278 198.349V198.363C160.322 198.361 160.365 198.358 160.409 198.356C160.453 198.358 160.496 198.361 160.54 198.363V198.349C178.053 197.49 178.446 189.42 178.21 186.355C177.973 183.274 175.761 170.318 173.944 169.213Z" fill="#374169"/>
<path d="M150.466 186.101C152.008 186.101 153.258 184.851 153.258 183.309C153.258 181.767 152.008 180.517 150.466 180.517C148.924 180.517 147.674 181.767 147.674 183.309C147.674 184.851 148.924 186.101 150.466 186.101Z" fill="white"/>
<path d="M170.352 180.516C168.81 180.516 167.56 181.766 167.56 183.308C167.56 184.85 168.81 186.1 170.352 186.1C171.894 186.1 173.144 184.85 173.144 183.308C173.144 181.766 171.894 180.516 170.352 180.516Z" fill="white"/>
<path d="M155.724 188.411C158.377 193.18 163.368 193 165.859 188.044H155.52L155.724 188.411Z" fill="white"/>
<path d="M169.848 213.645L169.838 213.57C169.522 211.825 168.348 210.606 166.985 210.606H154.397C153.034 210.606 151.86 211.825 151.544 213.57L150.234 231.026L150.231 231.057L150.232 231.096C150.269 233.226 151.559 234.895 153.167 234.895H168.215C169.823 234.895 171.112 233.226 171.15 231.096V231.053L169.917 214.576L169.848 213.645ZM168.215 233.449H153.167C152.387 233.449 151.708 232.372 151.678 231.101L152.907 214.683L152.973 213.792C153.167 212.782 153.762 212.052 154.396 212.052H166.985C167.62 212.052 168.214 212.782 168.409 213.792L169.704 231.1C169.671 232.376 168.994 233.449 168.215 233.449Z" fill="#49B3E2"/>
<path d="M152.075 278.426V268.508C152.075 266.158 151.023 263.966 149.189 262.494C147.368 261.034 145.021 260.486 142.75 260.991C139.315 261.755 137.365 263.379 136.955 265.816C135.806 272.644 135.387 287.063 135.382 287.208L135.378 287.366H159.17L159.176 287.219C159.179 287.152 159.367 280.585 152.075 278.426ZM158.869 287.058H135.694C135.743 285.463 136.177 272.288 137.258 265.867C137.645 263.565 139.515 262.026 142.817 261.291C144.997 260.806 147.249 261.332 148.996 262.734C150.758 264.147 151.768 266.251 151.768 268.508V278.657L151.879 278.689C155.625 279.764 157.325 282.018 158.091 283.721C158.779 285.248 158.862 286.618 158.869 287.058Z" fill="#1D1D1B"/>
<path d="M135.411 287.119L135.656 287.304C141.144 280.071 151.831 278.706 151.938 278.693L151.901 278.388C151.792 278.401 140.979 279.78 135.411 287.119Z" fill="#1D1D1B"/>
<path d="M179.058 278.426V268.508C179.058 266.158 178.006 263.966 176.171 262.494C174.35 261.034 172.004 260.486 169.733 260.991C166.297 261.755 164.348 263.379 163.937 265.816C162.788 272.644 162.369 287.063 162.365 287.208L162.36 287.366H186.152L186.158 287.219C186.161 287.152 186.35 280.585 179.058 278.426ZM185.852 287.058H162.677C162.726 285.463 163.159 272.288 164.24 265.867C164.628 263.565 166.498 262.026 169.8 261.291C171.979 260.806 174.231 261.332 175.979 262.734C177.741 264.147 178.751 266.251 178.751 268.508V278.657L178.862 278.689C182.608 279.764 184.307 282.018 185.074 283.721C185.762 285.248 185.844 286.618 185.852 287.058Z" fill="#1D1D1B"/>
<path d="M162.396 287.119L162.64 287.304C168.129 280.071 178.815 278.706 178.922 278.693L178.885 278.388C178.777 278.401 167.964 279.78 162.396 287.119Z" fill="#1D1D1B"/>
<path d="M177.385 247.042C177.385 250.164 175.857 250.466 175.724 250.486H137.339V250.793H175.744L175.752 250.792C175.831 250.783 177.692 250.53 177.692 247.042V241.9H177.385L177.385 247.042Z" fill="#1D1D1B"/>
<path d="M133.98 241.607L133.979 241.915L178.837 242.067L178.838 241.76L133.98 241.607Z" fill="#1D1D1B"/>
<path d="M141.426 212.289L139.008 234.869L139.313 234.901L141.732 212.322L141.426 212.289Z" fill="#1D1D1B"/>
<path d="M177.398 234.002L175.499 236.642L175.748 236.821L177.648 234.182L177.398 234.002Z" fill="#1D1D1B"/>
<path d="M179.317 235.701L177.418 238.341L177.667 238.52L179.567 235.881L179.317 235.701Z" fill="#1D1D1B"/>
<path d="M120.929 216.126C120.729 215.993 120.476 215.989 120.176 216.112C117.682 217.14 111.979 226.873 110.181 236.026C109.011 241.981 109.102 245.32 110.487 247.19C111.449 248.489 113.058 249.166 115.869 249.454C116.155 249.483 116.442 249.497 116.73 249.497C119.165 249.497 121.643 248.462 123.645 246.584C125.24 245.087 126.28 243.268 126.234 242.058C126.189 240.897 126.524 237.086 126.82 233.896C126.922 232.794 127.029 231.671 127.132 230.586C127.406 227.703 127.665 224.98 127.736 223.729C127.92 220.454 121.253 216.325 120.929 216.126ZM127.429 223.712C127.359 224.957 127.1 227.677 126.826 230.557C126.723 231.642 126.616 232.765 126.514 233.867C126.198 237.265 125.882 240.897 125.927 242.07C125.969 243.179 124.945 244.943 123.435 246.36C121.261 248.399 118.516 249.417 115.9 249.148C113.184 248.87 111.639 248.23 110.734 247.008C109.406 245.214 109.33 241.947 110.483 236.085C112.381 226.422 118.137 217.286 120.293 216.397C120.399 216.353 120.493 216.331 120.574 216.331C120.647 216.331 120.709 216.349 120.76 216.383L120.766 216.387C120.834 216.429 127.604 220.609 127.429 223.712Z" fill="#1D1D1B"/>
<path d="M116.705 239.489C112.642 237.746 111.294 232.773 111.281 232.723L110.983 232.801C110.997 232.852 112.38 237.967 116.582 239.77C117.566 240.193 118.623 240.404 119.748 240.404C121.744 240.404 123.954 239.74 126.355 238.417L126.207 238.148C122.54 240.169 119.343 240.62 116.705 239.489Z" fill="#1D1D1B"/>
<path d="M184.214 187.346C183.912 183.413 180.991 166.005 178.492 164.484C176.184 163.079 162.015 163.189 160.409 163.206C158.801 163.188 144.632 163.079 142.324 164.484C139.825 166.005 136.904 183.413 136.601 187.346C136.578 187.644 136.54 187.986 136.499 188.348C136.22 190.81 135.798 194.53 138.525 197.735C141.497 201.227 147.591 203.217 156.646 203.65H162.134C171.683 203.193 178.235 201.022 181.61 197.196C184.705 193.687 184.392 189.637 184.223 187.461L184.214 187.346ZM181.433 197.04C178.102 200.815 171.605 202.96 162.129 203.414H156.652C147.671 202.984 141.632 201.022 138.705 197.582C136.044 194.455 136.459 190.796 136.733 188.374C136.774 188.01 136.813 187.666 136.837 187.364C137.162 183.14 140.117 166.103 142.447 164.685C144.296 163.56 154.142 163.432 158.49 163.432C159.436 163.432 160.123 163.439 160.409 163.441C162.011 163.424 176.118 163.314 178.369 164.685C180.699 166.104 183.654 183.14 183.979 187.364L183.988 187.479C184.154 189.62 184.462 193.605 181.433 197.04Z" fill="#1D1D1B"/>
<path d="M135.067 178.314C134.937 177.287 133.776 177.165 133.765 177.164L133.759 177.163L130.317 177.194L130.319 177.43L133.748 177.399C133.836 177.409 134.725 177.529 134.832 178.336L134.843 192.478L135.08 192.478L135.068 178.328L135.067 178.314Z" fill="#1D1D1B"/>
<path d="M185.659 177.164L182.511 177.162V177.398H185.624C185.77 177.431 187.38 177.819 187.768 179.196L187.995 179.132C187.551 177.555 185.736 177.179 185.659 177.164Z" fill="#1D1D1B"/>
<path d="M188.038 179.37L187.802 179.373L187.935 191.35L188.171 191.348L188.038 179.37Z" fill="#1D1D1B"/>
<path d="M170.72 196.406C167.851 197.5 164.329 198.131 160.535 198.231C152.873 198.43 146.469 194.52 146.405 194.48L146.28 194.681C146.343 194.72 152.481 198.475 159.96 198.475C160.152 198.475 160.347 198.472 160.541 198.467C168.357 198.261 174.63 195.875 176.91 192.239L176.71 192.114C175.627 193.84 173.556 195.324 170.72 196.406Z" fill="#1D1D1B"/>
<path d="M148.871 168.586L148.881 168.822C149.039 168.816 164.769 168.198 170.983 168.71L171.002 168.475C164.774 167.961 149.029 168.58 148.871 168.586Z" fill="#1D1D1B"/>
<path d="M112.762 185.298H105.591V270.828H112.762V185.298Z" fill="#5780BC"/>
</svg>
