<svg width="423" height="296" viewBox="0 0 423 296" fill="none" xmlns="http://www.w3.org/2000/svg">
<path opacity="0.7" d="M423 262.35L380.218 229.441V247.771H374.975H333.59H89.7158V277.222H359.68H374.975H380.218V295.259L423 262.35Z" fill="#5C81FE"/>
<path opacity="0.7" d="M358.404 19.8496L329.027 26.1676L342.627 52.9079L347.467 42.7673C369.217 53.1028 378.485 79.1683 368.128 100.872C357.77 122.575 331.648 131.823 309.898 121.488C288.148 111.152 278.88 85.0869 289.237 63.3834L276.433 57.299C262.713 86.0476 274.99 120.575 303.8 134.265C332.611 147.956 367.213 135.705 380.933 106.956C394.653 78.2077 382.375 43.6807 353.565 29.9902L358.404 19.8496Z" fill="url(#paint0_linear_43_11263)"/>
<path opacity="0.6" d="M170.64 277.222C151.894 277.222 133.701 273.555 116.566 266.324C100.023 259.341 85.1687 249.349 72.4162 236.624C59.6637 223.899 49.6496 209.077 42.6527 192.569C35.4053 175.471 31.7305 157.317 31.7305 138.611C31.7305 119.905 35.4053 101.751 42.6527 84.653C49.6498 68.1454 59.6638 53.3233 72.4162 40.5982C85.1685 27.8731 100.023 17.8809 116.566 10.8989C133.701 3.66693 151.894 0 170.64 0C189.387 0 207.58 3.66693 224.715 10.8989C241.258 17.8809 256.112 27.8733 268.864 40.5982C281.617 53.3233 291.631 68.1454 298.628 84.653C305.875 101.751 309.55 119.905 309.55 138.611C309.55 157.317 305.876 175.471 298.628 192.569C291.631 209.077 281.617 223.899 268.864 236.624C256.112 249.349 241.258 259.341 224.715 266.324C207.58 273.555 189.387 277.222 170.64 277.222ZM170.64 29.4515C110.32 29.4515 61.2454 78.4202 61.2454 138.611C61.2454 198.802 110.32 247.771 170.64 247.771C230.961 247.771 280.035 198.802 280.035 138.611C280.035 78.4204 230.961 29.4515 170.64 29.4515Z" fill="url(#paint1_linear_43_11263)"/>
<path opacity="0.7" d="M276.035 197.927H66.6094V239.271H276.035V197.927Z" fill="url(#paint2_linear_43_11263)"/>
<path opacity="0.7" d="M170.641 247.769H0V277.221H170.641V247.769Z" fill="url(#paint3_linear_43_11263)"/>
<path d="M127.514 90.3965H93.4893V93.8728H127.514V90.3965Z" fill="#E0E0E0"/>
<path d="M161.602 116.572H137.036V120.049H161.602V116.572Z" fill="#E0E0E0"/>
<path d="M181.731 116.572H165.429V120.049H181.731V116.572Z" fill="#1487E3"/>
<path d="M215.035 221.664H198.733V225.14H215.035V221.664Z" fill="#1487E3"/>
<path d="M110.177 182.399H93.875V185.876H110.177V182.399Z" fill="#1487E3"/>
<path d="M224.311 116.572H184.951V120.049H224.311V116.572Z" fill="#E0E0E0"/>
<path d="M119.166 169.215H93.875V172.691H119.166V169.215Z" fill="#E0E0E0"/>
<path d="M187.124 195.488H161.833V198.964H187.124V195.488Z" fill="#E0E0E0"/>
<path d="M144.569 195.488H129.13V198.964H144.569V195.488Z" fill="#E0E0E0"/>
<path d="M124.465 195.488H93.875V198.964H124.465V195.488Z" fill="#1487E3"/>
<path d="M110.747 208.576H93.875V212.052H110.747V208.576Z" fill="#E0E0E0"/>
<path d="M158.287 90.3965H134.133V93.8728H158.287V90.3965Z" fill="#78C2FF"/>
<path d="M158.287 129.661H134.133V133.137H158.287V129.661Z" fill="#1487E3"/>
<path d="M132.376 142.749H122.056V146.225H132.376V142.749Z" fill="#E0E0E0"/>
<path d="M134.916 156.03H111.735V159.507H134.916V156.03Z" fill="#78C2FF"/>
<path d="M170.422 156.03H138.421V159.507H170.422V156.03Z" fill="#1487E3"/>
<path d="M118.029 142.846H93.875V146.322H118.029V142.846Z" fill="#1487E3"/>
<path d="M108.207 156.03H93.875V159.507H108.207V156.03Z" fill="#1487E3"/>
<path d="M150.763 142.846H137.242V146.322H150.763V142.846Z" fill="#FF8761"/>
<path d="M107.802 221.664H94.2803V225.14H107.802V221.664Z" fill="#FF8761"/>
<path d="M117.932 116.572H93.7783V120.049H117.932V116.572Z" fill="#78C2FF"/>
<path d="M139.292 182.399H115.139V185.876H139.292V182.399Z" fill="#78C2FF"/>
<path d="M139.59 208.576H115.437V212.052H139.59V208.576Z" fill="#78C2FF"/>
<path d="M182.499 208.576H158.345V212.052H182.499V208.576Z" fill="#78C2FF"/>
<path d="M128.21 129.661H93.7783V133.137H128.21V129.661Z" fill="#78C2FF"/>
<path d="M193.234 221.664H169.08V225.14H193.234V221.664Z" fill="#78C2FF"/>
<path d="M195.563 90.3965H164.79V93.8728H195.563V90.3965Z" fill="#1487E3"/>
<path d="M143.679 221.664H112.906V225.14H143.679V221.664Z" fill="#1487E3"/>
<path d="M250.983 221.664H220.21V225.14H250.983V221.664Z" fill="#1487E3"/>
<path d="M246.247 195.488H215.474V198.964H246.247V195.488Z" fill="#1487E3"/>
<path d="M237.658 129.661H206.885V133.137H237.658V129.661Z" fill="#1487E3"/>
<path d="M156.037 195.488H149.403V198.964H156.037V195.488Z" fill="#FF8761"/>
<path d="M249.096 90.3965H218.323V93.8728H249.096V90.3965Z" fill="#FF8761"/>
<path d="M201.253 129.661H183.209V133.137H201.253V129.661Z" fill="#FF8761"/>
<path d="M187.124 182.593H169.08V186.069H187.124V182.593Z" fill="#FF8761"/>
<path d="M212.517 90.3965H201.253V93.8728H212.517V90.3965Z" fill="#E0E0E0"/>
<path d="M176.054 129.661H164.79V133.137H176.054V129.661Z" fill="#E0E0E0"/>
<path d="M111.111 103.484H93.4893V106.961H111.111V103.484Z" fill="#1487E3"/>
<path d="M154.421 169.312H140.508V172.788H154.421V169.312Z" fill="#1487E3"/>
<path d="M121.126 103.484H115.437V106.961H121.126V103.484Z" fill="#1487E3"/>
<path d="M234.154 208.576H187.124V212.052H234.154V208.576Z" fill="#E0E0E0"/>
<path d="M131.114 103.484H125.308V106.961H131.114V103.484Z" fill="#FF8761"/>
<path d="M227.903 103.484H212.517V106.961H227.903V103.484Z" fill="#1487E3"/>
<path d="M243.29 116.572H227.903V120.049H243.29V116.572Z" fill="#FF8761"/>
<path d="M208.946 195.488H193.56V198.964H208.946V195.488Z" fill="#FF8761"/>
<path d="M164.171 221.664H148.784V225.14H164.171V221.664Z" fill="#FF8761"/>
<path d="M208.443 103.484H175.705V106.961H208.443V103.484Z" fill="#1487E3"/>
<path d="M164.36 182.593H145.232V186.069H164.36V182.593Z" fill="#1487E3"/>
<path d="M153.566 208.576H144.002V212.052H153.566V208.576Z" fill="#1487E3"/>
<path d="M171.061 103.484H159.797V106.961H171.061V103.484Z" fill="#78C2FF"/>
<path d="M133.146 116.572H121.882V120.049H133.146V116.572Z" fill="#FF8761"/>
<path d="M135.391 169.312H124.127V172.788H135.391V169.312Z" fill="#FF8761"/>
<path d="M155.5 103.484H135.875V106.961H155.5V103.484Z" fill="#1487E3"/>
<path d="M89.1773 235.226C89.1732 235.224 89.1683 235.223 89.1621 235.224C89.226 235.252 89.2351 235.255 89.1773 235.226Z" fill="#323657"/>
<path d="M228.757 62.0988H234.349L232.637 58.5566H227.046L228.757 62.0988Z" fill="url(#paint4_linear_43_11263)"/>
<path d="M226.141 62.0988H227.474L225.762 58.5566H224.43L226.141 62.0988Z" fill="url(#paint5_linear_43_11263)"/>
<path d="M206.823 57.8794H229.464L228.713 56.1084H206.071L206.823 57.8794Z" fill="url(#paint6_linear_43_11263)"/>
<path d="M321.659 150.882H339.467V149.636H321.659V150.882Z" fill="#FFD770"/>
<path d="M321.659 157.221H339.467V151.984H321.659V157.221Z" fill="#FFD770"/>
<path d="M313.294 159.765H323.8V158.982H313.294V159.765Z" fill="#FFD770"/>
<path d="M313.294 162.226H323.8V160.106H313.294V162.226Z" fill="#FFD770"/>
<path d="M318.62 156.312H319.404V141.639H318.62V156.312Z" fill="#FFD770"/>
<path d="M90.9215 44.1982H104.948V41.6627H90.9215V44.1982Z" fill="white"/>
<path d="M90.9215 40.9561H104.948V40.4789H90.9215V40.9561Z" fill="white"/>
<path d="M230.011 91.6211L248.227 73.4437H323.068V72.5166H247.842L229.354 90.9655L230.011 91.6211Z" fill="#FF8761"/>
<path opacity="0.7" d="M276.035 238.634H66.6094V279.978H276.035V238.634Z" fill="url(#paint7_linear_43_11263)"/>
<path d="M114.236 133.166L114.893 132.51L80.0813 97.7734H14.1973V98.7005H79.6963L114.236 133.166Z" fill="#78C2FF"/>
<path d="M183.601 91.3802L184.258 90.7247L154.877 61.4072H113.556V62.3343H154.493L183.601 91.3802Z" fill="#1487E3"/>
<path d="M276.035 279.978V238.634H199.82L158.855 279.511L276.035 279.978Z" fill="url(#paint8_linear_43_11263)"/>
<path d="M289.074 48.5469H282.467V68.5715H289.074V48.5469Z" fill="#609AE8"/>
<path d="M311.394 58.1935H260.146C258.543 58.1935 257.244 56.8973 257.244 55.298V20.9287C257.244 19.3295 258.543 18.0332 260.146 18.0332H311.394C312.997 18.0332 314.296 19.3295 314.296 20.9287V55.298C314.296 56.8973 312.997 58.1935 311.394 58.1935Z" fill="#9CC7FF"/>
<path d="M312.061 20.3242H259.479V51.8996H312.061V20.3242Z" fill="white"/>
<path d="M270.908 69.3281H300.632V67.8167H270.908V69.3281Z" fill="#9CC7FF"/>
<path d="M292.371 49.4023H309.271V29.9073L292.371 29.9073V49.4023Z" fill="#D7D7E6"/>
<path d="M272.346 32.3379H289.759V29.9076L272.346 29.9076V32.3379Z" fill="#D7D7E6"/>
<path d="M272.346 37.3271H289.759V34.8969H272.346V37.3271Z" fill="#D7D7E6"/>
<path d="M272.346 49.4023H289.759V39.3775H272.346V49.4023Z" fill="#D7D7E6"/>
<path d="M262.498 49.4023H269.886V29.3528H262.498V49.4023Z" fill="#D7D7E6"/>
<path d="M262.669 27.7627L309.442 27.7627V22.7561L262.669 22.7561V27.7627Z" fill="#D7D7E6"/>
<path d="M122.247 57.0531H145.66C147.193 57.0531 148.436 55.8129 148.436 54.2828V18.9629C148.436 17.4328 147.193 16.1924 145.66 16.1924H122.247C120.714 16.1924 119.471 17.4328 119.471 18.9629V54.2826C119.471 55.8127 120.714 57.0531 122.247 57.0531Z" fill="#9CC7FF"/>
<path d="M121.071 51.6143H146.835V18.0812H121.071V51.6143Z" fill="white"/>
<path d="M122.802 24.957L145.226 24.957V20.4933L122.802 20.4933V24.957Z" fill="#D7D7E6"/>
<path d="M135.996 48.5674H145.226V26.6871H135.996V48.5674Z" fill="#D7D7E6"/>
<path d="M122.803 29.2217H134.282V26.6876H122.803V29.2217Z" fill="#D7D7E6"/>
<path d="M122.803 33.6025H134.282V31.0685H122.803V33.6025Z" fill="#D7D7E6"/>
<path d="M122.803 37.9824H134.282V35.4483H122.803V37.9824Z" fill="#D7D7E6"/>
<path d="M122.803 48.5674H134.282V39.8289H122.803V48.5674Z" fill="#D7D7E6"/>
<path d="M24.6318 92.1838H69.7854V63.6198C69.7854 62.4987 68.8744 61.5898 67.7511 61.5898H26.6662C25.5426 61.5898 24.6318 62.4987 24.6318 63.6198V92.1838Z" fill="#609AE8"/>
<path d="M25.892 90.5557H68.5254V63.2183H25.892V90.5557Z" fill="white"/>
<path d="M22.4541 92.1836H71.9633V92.6582C71.9633 93.6376 71.1674 94.4315 70.1862 94.4315H24.2312C23.2498 94.4315 22.4543 93.6376 22.4543 92.6582V92.1836H22.4541Z" fill="#9CC7FF"/>
<path d="M27.6746 69.0059H66.6982V65.2046H27.6746V69.0059Z" fill="#D7D7E6"/>
<path d="M53.3187 88.5684H66.6982V71.153H53.3187V88.5684Z" fill="#D7D7E6"/>
<path d="M38.2249 88.5684H51.6045V71.153H38.2249V88.5684Z" fill="#D7D7E6"/>
<path d="M27.6743 73.6416H35.833V71.1531H27.6743V73.6416Z" fill="#D7D7E6"/>
<path d="M27.6743 77.4883H35.833V75H27.6743V77.4883Z" fill="#D7D7E6"/>
<path d="M27.6743 88.5684H35.833V78.8469H27.6743V88.5684Z" fill="#D7D7E6"/>
<path d="M41.734 136.01L31.6852 130.221V134.038H16.7461V137.982H31.6852V141.799L41.734 136.01Z" fill="#2A6993"/>
<path d="M16.7461 123.311L26.7949 129.101V125.284H41.734V121.34H26.7949V117.522L16.7461 123.311Z" fill="#2A6993"/>
<path d="M188.569 53.5107L181.038 49.1719V52.0327H169.842V54.9886H181.038V57.8493L188.569 53.5107Z" fill="#2A6993"/>
<path d="M169.842 43.9939L177.373 48.3327V45.4718H188.569V42.5161H177.373V39.6553L169.842 43.9939Z" fill="#2A6993"/>
<path d="M290.304 122.378C289.305 122.302 288.376 121.931 287.659 121.316C286.845 120.618 286.399 119.69 286.401 118.702C286.263 116.756 285.656 114.745 285.155 113.367C282.767 111.467 281.482 108.532 281.713 105.494C282.096 100.448 286.523 96.6538 291.58 97.0363C296.637 97.419 300.439 101.836 300.056 106.882C299.847 109.629 298.436 112.104 296.179 113.691C295.492 115.553 295.08 117.257 294.954 118.759C294.931 120.779 293.005 122.408 290.653 122.392C290.536 122.392 290.419 122.387 290.304 122.378ZM291.523 97.785C286.88 97.4338 282.815 100.917 282.463 105.551C282.249 108.374 283.46 111.099 285.703 112.842L285.788 112.908L285.825 113.009C286.35 114.437 287.007 116.578 287.153 118.663L287.154 118.692C287.149 119.461 287.502 120.191 288.15 120.747C288.814 121.317 289.706 121.636 290.658 121.641C292.601 121.654 294.191 120.352 294.202 118.739V118.725L294.203 118.71C294.336 117.108 294.777 115.294 295.514 113.319L295.556 113.208L295.654 113.14C297.78 111.686 299.111 109.384 299.306 106.825C299.658 102.192 296.166 98.1363 291.523 97.785Z" fill="white"/>
<path d="M288.599 119.248L287.395 109.246L289.484 110.971L290.78 109.536L291.9 110.882L293.853 109.231L292.666 119.249L291.918 119.161L292.881 111.037L291.807 111.946L290.757 110.684L289.561 112.009L288.366 111.023L289.346 119.159L288.599 119.248Z" fill="white"/>
<path d="M293.924 121.498L287.4 121.454L287.383 124.077L293.907 124.121L293.924 121.498Z" fill="white"/>
<path d="M294.991 118.825L286.369 118.768L286.341 122.99L294.963 123.048L294.991 118.825Z" fill="white"/>
<path d="M311.118 273.518C310.927 274.852 302.897 280.463 301.315 281.585C300.046 282.485 298.943 282.898 297.024 283.617C297.023 283.617 297.023 283.617 297.022 283.617C292.663 284.761 265.306 292.907 265.306 292.907C265.234 292.629 265.195 292.388 265.034 292.077C264.013 292.483 262.962 292.746 262.295 292.954C261.276 293.272 253.192 293.526 251.537 293.844C249.882 294.161 246.572 294.669 245.235 293.399C243.898 292.129 246.062 289.397 247.908 288.699C249.754 288 256.502 287.81 257.711 287.682C258.921 287.555 260.512 287.111 261.276 287.365C261.518 287.445 262.584 287.132 263.931 286.668C263.898 286.173 263.89 285.861 263.89 285.861L271.073 283.795L269.743 271.104C269.743 271.104 272.867 259.353 285.354 268.317C285.354 268.317 288.139 269.135 289.094 269.389C289.162 269.407 289.269 269.409 289.413 269.398C291.318 269.255 299.503 266.785 302.462 266.785C305.645 266.785 306.663 266.594 307.809 267.166C308.954 267.738 311.309 272.184 311.118 273.518Z" fill="#5B83C2"/>
<path d="M298.327 293.399C296.991 294.669 293.681 294.161 292.025 293.843C290.37 293.526 282.286 293.272 281.267 292.954C280.249 292.636 278.339 292.192 277.003 291.303C276.895 291.231 276.649 291.124 276.288 290.989C276.288 290.989 276.288 290.99 276.287 290.991L274.265 292.446L246.157 283.518C244.473 283.057 243.136 282.356 242.246 281.584C240.783 280.314 232.635 274.851 232.444 273.517C232.253 272.183 234.608 267.737 235.754 267.165C236.9 266.594 237.918 266.784 241.101 266.784C244.283 266.784 253.513 269.643 254.468 269.389C254.903 269.273 255.801 268.816 256.653 268.352C257.674 267.796 258.627 267.229 258.627 267.229C272.299 261.139 273.82 271.104 273.82 271.104L273.011 283.405C273.011 283.405 274.15 283.969 275.632 284.672L282.408 286.583L281.521 287.222C281.904 287.345 282.176 287.401 282.286 287.365C283.05 287.111 284.641 287.555 285.851 287.682C287.06 287.809 293.807 288 295.654 288.699C297.5 289.397 299.664 292.128 298.327 293.399Z" fill="#5B83C2"/>
<path d="M256.654 268.353C257.596 268.419 263.966 272.1 265.478 272.98C263.181 271.783 254.469 269.389 254.469 269.389C254.903 269.273 255.802 268.817 256.654 268.353Z" fill="#5478B3"/>
<path d="M289.413 269.398C289.413 269.398 278.439 272.055 276.431 273.168C276.522 273.101 282.214 268.785 285.203 268.21C285.203 268.21 288.138 269.135 289.093 269.389C289.161 269.407 289.268 269.409 289.413 269.398C289.413 269.398 289.413 269.398 289.413 269.398Z" fill="#5478B3"/>
<path d="M298.327 293.399C296.99 294.669 293.68 294.161 292.025 293.844C290.37 293.526 282.286 293.272 281.267 292.954C280.974 292.863 280.608 292.761 280.203 292.642C280.203 292.641 280.202 292.641 280.202 292.641C279.198 292.345 277.955 291.936 277.002 291.303C276.895 291.231 276.649 291.125 276.288 290.99L281.375 287.327L281.521 287.222C281.904 287.345 282.176 287.401 282.286 287.365C283.05 287.111 284.641 287.555 285.851 287.682C287.06 287.809 293.807 288 295.653 288.699C297.499 289.397 299.664 292.129 298.327 293.399Z" fill="#EEA886"/>
<path d="M298.327 293.399C296.99 294.669 293.68 294.161 292.025 293.844C290.37 293.526 282.286 293.272 281.267 292.954C280.974 292.863 280.609 292.761 280.203 292.642C280.203 292.641 280.202 292.641 280.202 292.641C280.202 292.641 280.201 292.641 280.201 292.641C280.201 292.641 282.427 290.443 281.375 287.327L281.521 287.222C281.904 287.345 282.176 287.401 282.286 287.365C283.05 287.111 284.641 287.555 285.851 287.682C287.06 287.809 293.807 288 295.653 288.699C297.499 289.397 299.664 292.129 298.327 293.399Z" fill="#C5CDDB"/>
<path d="M259.444 271.156C259.459 271.19 259.455 271.215 259.434 271.232C259.306 271.327 259.327 271.286 259.444 271.156Z" fill="#E55353"/>
<path d="M296.233 256.304C296.127 256.09 290.328 246.988 288.758 242.838C287.187 238.688 283.41 236.783 281.628 236.19C280.992 235.978 279.859 235.61 278.664 235.225C276.512 234.53 274.16 233.776 274.16 233.776H266.733C266.733 233.776 264.16 234.636 261.428 235.592C261.426 235.593 261.425 235.594 261.425 235.594C258.907 236.475 256.255 237.437 255.36 237.884C253.492 238.815 250.352 245.464 249.716 246.226C249.079 246.988 244.184 256.042 243.478 259.522C242.929 262.225 259.005 270.142 259.444 271.157C259.953 270.593 262.294 268.353 262.294 268.353C262.294 268.353 261.544 267.882 260.488 267.189C264.795 267.386 275.317 267.015 276.827 267.091C277.131 267.106 277.461 267.097 277.8 267.07C277.799 267.071 277.798 267.072 277.798 267.072C278.266 267.41 281.279 270.066 281.279 270.066C281.279 270.066 288.705 266.99 292.121 263.546C296.971 258.655 296.767 257.384 296.233 256.304ZM254.007 262.327C252.415 260.421 250.225 259.268 250.776 258.422C251.328 257.575 255.996 249.529 255.996 249.529C255.996 249.529 258.415 254.822 259.094 257.575C259.773 260.327 259.72 261.587 259.433 262.444C259.177 263.212 258.97 263.734 258.74 266.021C256.836 264.724 254.736 263.2 254.007 262.327ZM286.842 261.417C286.218 262.125 283.748 263.69 281.528 264.979C281.36 263.443 281.104 261.026 281.076 260.157C281.034 258.845 281.585 255.076 282.265 253.637C282.944 252.197 283.41 248.258 283.41 248.258C283.41 248.258 289.033 255.881 289.924 256.686C290.815 257.49 288.951 259.027 286.842 261.417Z" fill="#DCE6FA"/>
<path d="M271.332 213.408C271.332 213.408 277.14 214.321 276.255 223.389C275.371 232.456 270.245 231.713 269.902 231.703C269.56 231.694 264.757 231.869 264.382 220.798C264.382 220.798 264.219 212.612 271.332 213.408Z" fill="#EEA886"/>
<path d="M276.344 220.827C276.344 220.827 276.98 220.149 277.214 220.835C277.447 221.522 276.346 224.582 276.307 224.726C276.307 224.726 276.19 224.992 276.038 224.845C275.885 224.699 276.344 220.827 276.344 220.827Z" fill="#EEA886"/>
<path d="M264.538 220.712C264.538 220.712 263.915 220.022 263.669 220.704C263.422 221.386 264.454 224.466 264.501 224.611C264.501 224.611 264.611 224.879 264.767 224.736C264.922 224.592 264.538 220.712 264.538 220.712Z" fill="#EEA886"/>
<path d="M276.342 222.218L275.511 223.327C275.511 223.327 275.534 220.895 275.401 220.514C275.267 220.133 275.063 218.968 274.952 218.693C274.84 218.419 269.965 217.055 265.658 219.091C265.658 219.091 265.847 220.84 265.434 220.996C265.022 221.151 265.224 223.843 265.224 223.843L264.54 223.074C264.54 223.074 263.494 216.098 263.752 215.371C264.01 214.644 264.834 210.272 273.67 212.867C273.67 212.867 276.424 212.285 276.977 214.183C277.53 216.08 276.342 222.218 276.342 222.218Z" fill="#434343"/>
<path d="M262.786 280.2C262.786 280.2 253.896 274.884 250.013 274.047C246.343 273.257 245.005 271.888 245.005 271.888C245.005 271.888 250.84 271.888 254.723 274.64C257.36 276.509 262.786 280.2 262.786 280.2Z" fill="#49699C"/>
<path d="M270.685 283.907C270.685 283.907 286.148 275.805 292.462 274.047C296.077 273.041 297.469 271.888 297.469 271.888C297.469 271.888 287.909 272.819 282.095 276.313C279.324 277.978 270.685 283.907 270.685 283.907Z" fill="#49699C"/>
<path d="M265.034 292.077C264.013 292.483 262.962 292.746 262.295 292.954C261.276 293.272 253.192 293.526 251.537 293.844C249.882 294.161 246.572 294.669 245.235 293.399C243.898 292.129 246.062 289.397 247.908 288.699C249.754 288 256.502 287.81 257.711 287.682C258.921 287.555 260.512 287.111 261.276 287.365C261.518 287.445 262.584 287.132 263.931 286.668C263.972 287.474 265.034 292.077 265.034 292.077Z" fill="#EEA886"/>
<path d="M270.685 291.309L285.886 286.82L282.88 285.904C282.88 285.904 270.732 290.299 270.685 291.309Z" fill="#5B83C2"/>
<path d="M270.685 291.309L277.799 289.144L272.866 292.002L270.685 291.309Z" fill="#49699C"/>
<path d="M265.798 273.168C265.784 273.16 265.67 273.093 265.478 272.98C265.605 273.047 265.713 273.109 265.798 273.168Z" fill="#525252"/>
<path d="M262.295 292.955C261.276 293.272 253.192 293.526 251.537 293.844C249.882 294.162 246.572 294.67 245.235 293.399C243.898 292.129 246.062 289.398 247.908 288.699C249.754 288 256.502 287.81 257.711 287.683C258.921 287.556 260.512 287.111 261.276 287.365C261.276 287.365 259.235 290.478 262.295 292.955Z" fill="#C5CDDB"/>
<path d="M278.665 235.225C278.665 235.225 276.229 245.903 270.429 245.903C264.629 245.903 261.425 235.594 261.425 235.594C261.425 235.594 261.426 235.593 261.428 235.592C264.16 234.636 266.733 233.776 266.733 233.776H274.16C274.16 233.776 276.512 234.53 278.665 235.225Z" fill="#DCE6FA"/>
<path d="M257.269 271.887L254.927 258.59L285.214 257.892L283.263 270.977C283.263 270.977 273.596 274.508 270.315 276.567C270.315 276.567 262.022 273.167 257.269 271.887Z" fill="#525252"/>
<path d="M272.098 266.61C272.098 267.709 271.338 268.6 270.401 268.6C269.463 268.6 268.703 267.709 268.703 266.61C268.703 265.51 269.463 264.619 270.401 264.619C271.338 264.619 272.098 265.51 272.098 266.61Z" fill="#6E6E6E"/>
<path d="M274.236 233.801C274.233 233.793 274.231 233.784 274.228 233.776C273.866 232.969 274.043 229.033 274.043 229.033C274.043 229.033 266.646 227.154 266.857 228.591C267.068 230.027 266.22 233.949 266.22 233.949L262.425 235.245C262.425 235.245 266.468 246.078 271.115 244.681C275.761 243.283 277.516 234.855 277.516 234.855L274.236 233.801Z" fill="#EEA886"/>
<path d="M266.845 230.05C266.845 230.05 268.155 231.722 270.224 231.722C271.584 231.722 272.658 231.248 274.013 229.929C274.013 229.929 273.329 232.527 270.232 232.76C270.232 232.76 267.869 232.908 266.845 230.05Z" fill="#A77860"/>
<path d="M247.633 151.004H217.232V172.991V177.622L221.874 172.991H247.633V151.004Z" fill="#78C2FF"/>
<path d="M202.212 278.636C202.212 278.636 202.528 281.214 202.948 282.351C203.367 283.488 205.647 286.113 204.684 288.635C203.64 291.369 199.083 288.734 197.224 287.899C195.365 287.065 195.788 285.551 195.59 283.697C195.392 281.843 194.485 281.793 194.819 280.49C195.154 279.186 197.187 276.69 197.187 276.69L202.212 278.636Z" fill="#35527A"/>
<path d="M198.065 275.342C198.065 275.342 196.898 276.971 196.93 277.016C196.962 277.06 201.928 280.077 202.273 279.098C202.548 278.321 202.663 277.195 202.663 277.195L198.065 275.342Z" fill="#EEA886"/>
<path d="M181.234 280.459C181.234 280.459 179.72 281.784 178.359 283.82C176.999 285.856 173.389 285.964 173.234 288.743C173.079 291.522 178.143 291.608 180.802 290.703C183.46 289.798 183.862 287.084 185.47 286.405C187.077 285.727 187.912 285.177 187.788 283.853C187.665 282.528 186.775 280.377 186.775 280.377C186.775 280.377 185.776 280.695 185.189 280.76C184.602 280.824 182.626 280.847 181.234 280.459Z" fill="#35527A"/>
<path d="M199.458 205.164C199.458 205.164 198.439 211.21 197.617 215.204C197.617 215.204 197.617 215.204 197.617 215.204C197.284 216.824 196.984 218.106 196.797 218.509C196.562 219.017 194.65 221.067 192.309 223.471C188.202 227.69 182.775 233.003 182.775 233.003L180.654 228.985C180.654 228.985 185.474 223.347 188.741 219.584C190.254 217.843 191.434 216.505 191.65 216.312C192.333 215.702 193.126 209.693 194.24 204.742C195.355 199.792 197.588 197.056 197.588 197.056L199.458 205.164Z" fill="#FFD670"/>
<path d="M192.308 223.471C188.201 227.69 182.774 233.003 182.774 233.003L180.653 228.985C180.653 228.985 185.473 223.346 188.741 219.584C189.742 220.074 191.581 221.243 192.308 223.471Z" fill="#EEA886"/>
<path d="M181.472 278.607L181.234 280.459C181.234 280.459 183.871 281.388 186.775 280.376L186.834 278.73L181.472 278.607Z" fill="#EEA886"/>
<path d="M218.895 232.185C219.046 232.723 190.973 232.185 190.973 232.185C190.973 232.185 198.738 226.545 199.242 225.038C199.745 223.531 197.264 214.491 196.941 211.549C196.682 209.195 196.033 198.664 197.588 197.055C199.213 195.374 205.066 193.611 205.066 193.611L213.599 193.927C213.599 193.927 215.007 194.221 216.014 194.688C217.02 195.154 222.777 197.2 223.712 200.07C224.647 202.94 217.968 212.168 217.968 212.168C217.968 212.168 217.955 212.582 217.935 213.262C217.935 213.262 217.935 213.262 217.935 213.262C217.909 214.169 217.871 215.546 217.836 217.04C217.791 218.974 217.752 221.105 217.752 222.661C217.752 226.32 218.744 231.647 218.895 232.185Z" fill="#FFD670"/>
<path d="M218.895 232.186C218.895 232.186 222.713 237.782 222.767 241.603C222.821 245.424 215.991 258.22 214.957 260.051C211.85 265.554 203.328 277.425 203.328 277.425C203.328 277.425 201.859 277.388 197.275 275.612C197.275 275.612 202.944 259.932 203.663 258.304C206.711 251.4 208.412 246.503 207.387 245.319C206.362 244.135 203.569 242.949 202.76 242.249C201.951 241.549 187.859 244.906 186.383 245.288C182.56 246.277 184.302 252.916 185.148 255.892C186.563 260.871 187.8 278.852 187.8 278.852C187.8 278.852 185.077 280.01 180.515 279.032C180.515 279.032 171.558 246.565 171.27 243.336C170.983 240.107 170.841 234.783 192.915 230.736L218.895 232.186Z" fill="#293F5E"/>
<path d="M207.408 175.112C207.408 175.112 200.001 173.445 201.693 182.747C203.385 192.048 205.166 192.779 209.635 190.854C214.103 188.929 213.703 182.97 213.928 180.048C214.153 177.125 209.77 175.214 207.408 175.112Z" fill="#EEA886"/>
<path d="M205.447 195.999C205.447 195.999 208.728 199.47 213.912 196.316C213.912 196.316 212.753 188.795 213.363 185.132C213.973 181.469 206.599 190.808 206.599 190.808C206.696 190.859 206.76 191.208 206.775 191.706C206.787 192.127 206.765 192.655 206.697 193.196C206.545 194.414 206.165 195.7 205.447 195.999Z" fill="#EEA886"/>
<path d="M213.566 184.821C213.566 184.821 213.375 181.89 212.303 181.799C211.23 181.707 211.065 182.887 211.065 182.887L209.981 183.091C209.981 183.091 210.324 180.523 209.253 180.074C208.182 179.625 202.313 181.488 201.453 180.734C200.593 179.98 200.998 174.77 202.553 174.057C204.108 173.344 208.402 171.746 211.549 173.871C211.549 173.871 214.001 173.592 214.365 175.567C214.729 177.542 214.233 183.352 213.566 184.821Z" fill="#3A3F47"/>
<path d="M206.697 193.195C212.046 191.55 212.449 188.336 212.454 188.286C210.693 191.306 206.775 191.705 206.775 191.705C206.787 192.126 206.765 192.654 206.697 193.195Z" fill="#A77860"/>
<path d="M216.102 194.728C216.102 194.728 212.185 202.509 205.857 202.006C199.529 201.504 204.778 193.684 205.066 193.612C205.382 193.532 211.556 191.997 216.102 194.728Z" fill="#EEA886"/>
<path d="M187.761 231.792C187.761 231.792 207.148 234.177 218.894 232.186L196.45 229.388C196.45 229.388 196.318 229.959 187.761 231.792Z" fill="#FFD670"/>
<path d="M202.261 228.507L200.817 229.237C200.817 229.237 201.146 231.526 201.937 232.22L203.558 231.807C203.558 231.807 203.22 229.296 202.261 228.507Z" fill="#EEA886"/>
<path d="M224.696 223.819C224.408 224.153 220.596 225.682 216.29 227.337L216.29 227.338C210.407 229.599 203.772 231.738 203.772 231.738L202.262 228.507C202.262 228.507 209.21 224.739 213.906 222.097C216.124 220.849 217.839 219.852 218.081 219.622C218.836 218.904 219.032 217.754 218.477 215.747C217.921 213.741 216.643 204.518 216.499 203.442C216.355 202.366 216.859 199.496 219.555 199.352C222.252 199.208 223.624 199.968 223.624 199.968C223.624 199.968 224.301 200.249 224.805 206.778C225.307 213.307 225.379 223.03 224.696 223.819Z" fill="#FFD670"/>
<path d="M217.935 213.262C217.935 213.263 217.935 213.263 217.935 213.263C217.909 214.169 217.871 215.546 217.836 217.04C215.204 210.603 216.724 205.466 216.75 205.38C216.466 207.127 217.914 213.177 217.935 213.262Z" fill="#A88D4A"/>
<path d="M197.617 215.203C197.617 215.203 197.617 215.203 197.617 215.204C197.284 216.823 196.983 218.105 196.796 218.509C195.897 214.168 196.706 208.61 196.706 208.61C196.829 211.265 197.617 215.203 197.617 215.203Z" fill="#A88D4A"/>
<path d="M216.29 227.337L216.29 227.337C210.407 229.599 203.558 231.807 203.558 231.807L202.262 228.507C202.262 228.507 209.21 224.739 213.906 222.097C213.906 222.097 215.614 222.927 216.29 227.337Z" fill="#EEA886"/>
<path d="M201.844 231.998L174.287 231.594L188.2 238.643L201.844 231.998Z" fill="#444C94"/>
<path d="M188.2 238.643L201.843 233.369V231.998L187.121 237.297L188.2 238.643Z" fill="#303669"/>
<path d="M201.13 229.286C201.13 229.286 199.408 229.019 198.218 228.742C197.298 228.529 195.009 228.823 194.426 229.413C193.843 230.002 191.988 234.11 191.637 234.361C191.287 234.612 191.817 235.192 192.433 234.901C192.433 234.901 192.998 236.698 194.394 236.025C195.79 235.352 196.737 233.883 197.468 233.624C198.199 233.365 202.455 232.06 202.455 232.06C202.455 232.06 202.226 228.849 201.13 229.286Z" fill="#EEA886"/>
<path d="M194.845 229.144C194.845 229.144 193.74 229.677 193.451 229.914C193.162 230.152 191.992 231.026 191.709 231.231C191.425 231.437 192.136 232.021 194.228 231.117C196.32 230.213 194.845 229.144 194.845 229.144Z" fill="#EEA886"/>
<path d="M188.2 238.643L180.003 216.312L153.579 216.742L161.391 237.321L188.2 238.643Z" fill="#303669"/>
<path d="M171.548 226.19C172.354 227.799 172.111 229.551 171.004 230.103C169.897 230.655 168.347 229.799 167.54 228.191C166.734 226.582 166.977 224.831 168.084 224.278C169.191 223.726 170.742 224.582 171.548 226.19Z" fill="#518AFA"/>
<path d="M211.088 181.645C211.185 180.824 212.811 180.524 212.942 181.754C213.073 182.984 212.203 185.143 211.586 184.931C210.969 184.719 210.953 182.776 211.088 181.645Z" fill="#EEA886"/>
<path d="M93.6542 187.797C93.6542 187.797 92.6917 201.266 95.3291 202.877C96.9811 203.887 103.568 207.293 103.373 207.932C103.178 208.57 99.6539 213.615 99.6539 213.615C99.6539 213.615 87.0007 205.3 86.5928 202.68C86.1943 200.12 87.2157 182.959 88.9544 182.169C90.2571 181.577 90.9448 182.066 92.5864 183.283C94.8902 184.989 93.6542 187.797 93.6542 187.797Z" fill="#323657"/>
<path d="M116.715 191.642L117.83 191.23C117.83 191.23 116.44 187.973 115.833 188.052C115.133 188.144 114.261 188.374 114.261 188.374L116.715 191.642Z" fill="#EAD8CF"/>
<path d="M116.97 192.204C116.827 192.098 114.599 187.833 114.599 187.833L109.839 188.478L112.411 193.53L116.97 192.204Z" fill="#DA9B5B"/>
<path d="M92.1838 285.812C92.1838 285.812 91.7904 288.538 91.7413 288.947C91.6922 289.357 87.3641 288.706 87.3641 288.706L87.0137 285.462C87.0137 285.462 91.6429 285.428 92.1838 285.812Z" fill="#424773"/>
<path d="M91.787 288.601C91.787 288.601 93.1581 290.243 94.4845 290.958C95.8106 291.674 97.8948 291.958 98.6789 292.699C99.2451 293.234 100.741 295.536 95.2327 295.49C89.7245 295.443 87.0688 295.815 86.4786 294.932C85.8885 294.049 87.3326 288.416 87.3326 288.416C87.3326 288.416 88.6371 288.884 91.787 288.601Z" fill="#292C47"/>
<path d="M113.843 285.812C113.843 285.812 113.45 288.538 113.4 288.947C113.351 289.357 109.023 288.706 109.023 288.706L108.673 285.462C108.673 285.462 113.302 285.428 113.843 285.812Z" fill="#424773"/>
<path d="M113.446 288.601C113.446 288.601 114.817 290.243 116.143 290.958C117.47 291.674 122.35 292.262 123.134 293.003C123.701 293.538 124.642 295.691 116.892 295.49C111.385 295.347 108.728 295.815 108.138 294.932C107.548 294.049 108.992 288.416 108.992 288.416C108.992 288.416 110.221 288.916 113.446 288.601Z" fill="#292C47"/>
<path d="M93.7359 215.787C93.7359 215.787 89.6696 222.234 89.9729 228.062C90.2762 233.889 89.6105 240.114 88.9996 246.202C88.3187 252.989 86.4633 267.113 86.3623 270.743C86.2612 274.373 86.495 288.033 86.495 288.033L93.549 287.981C93.549 287.981 96.0524 260.384 97.266 257.519C98.4793 254.652 103.46 233.92 103.663 231.627C103.865 229.334 93.7359 215.787 93.7359 215.787Z" fill="#292C47"/>
<path d="M115.143 216.661C115.143 216.661 116.749 232.504 117.154 236.071C117.558 239.637 117.281 255.092 117.483 257.322C117.686 259.551 116.132 283.129 115.748 287.619L107.996 287.57C107.996 287.57 107.461 268.497 107.461 259.23C107.461 249.963 105.078 239.175 102.348 233.061C99.6176 226.947 93.3678 226.802 91.6895 215.458C91.6893 215.457 112.87 213.063 115.143 216.661Z" fill="#292C47"/>
<path d="M98.0325 161.43C98.0325 161.43 102.877 158.201 106.28 161.66C109.683 165.119 111.355 173.254 108.911 174.877C106.468 176.5 102.323 176.927 100.355 174.724C98.3879 172.521 96.2879 169.162 95.7711 166.708C95.2544 164.255 96.8038 162.462 98.0325 161.43Z" fill="#EEA886"/>
<path d="M107.264 175.425C107.264 175.425 107.2 178.823 107.576 179.548C107.951 180.272 100.504 180.291 100.504 180.291C100.504 180.291 99.8998 176.351 98.7537 173.022C97.6077 169.693 107.264 175.425 107.264 175.425Z" fill="#EEA886"/>
<path d="M98.9398 172.967C98.9398 172.967 99.6345 173.673 101.601 172.873C103.568 172.074 105.419 168.777 106.201 168.279C106.983 167.78 106.874 167.279 106.874 167.279L107.591 167.932L108.51 167.776C108.51 167.776 107.112 165.545 108.124 164.263C109.136 162.981 104.977 156.717 98.9672 160.541C98.9672 160.541 94.264 163.108 95.1209 165.919C95.9784 168.731 97.4785 171.81 98.9398 172.967Z" fill="#754836"/>
<path d="M108.018 179.461C108.018 179.461 107.994 178.077 107.366 177.944C106.737 177.811 100.426 177.206 99.6543 177.509V179.121C99.6543 179.121 101.141 180.034 108.018 179.461Z" fill="#E2D2CA"/>
<path d="M106.493 166.272C106.266 165.82 104.722 164.739 104.601 166.314C104.48 167.889 106.118 169.583 106.733 169.261C107.348 168.938 107.07 167.418 106.493 166.272Z" fill="#EEA886"/>
<path d="M133.064 195.814C133.061 195.813 133.058 195.812 133.054 195.813C133.099 195.833 133.106 195.835 133.064 195.814Z" fill="#323657"/>
<path d="M117.235 181.379C112.745 180.591 108.018 179.46 108.018 179.46L99.6538 179.12C99.6538 179.12 91.9779 180.806 88.9549 182.169C88.6683 182.298 88.6669 189.002 87.8799 190.76L90.3863 196.036C90.3863 196.036 91.8342 206.488 92.1346 211.136C92.2725 213.27 89.1486 231.145 89.1486 231.145C89.1486 231.145 92.4959 232.129 98.204 232.757C103.912 233.384 118.175 232.53 118.264 231.857C118.355 231.184 115.502 206.807 115.376 205.544C115.182 203.607 115.937 194.654 115.937 194.654C117.012 196.095 122.126 202.362 124.984 205.46C126.665 207.282 132.847 210.446 134.28 211.085C137.379 212.466 142.344 215.638 142.526 215.307C142.671 215.107 146.005 209.482 145.614 209.352C145.272 209.238 134.887 202.9 131.923 201.331C130.839 200.757 126.616 193.53 126.616 193.53C126.616 193.53 119.713 182.49 117.235 181.379Z" fill="#323657"/>
<path d="M96.6312 162.263C96.6312 162.263 89.7011 164.117 98.6587 172.7L96.6312 162.263Z" fill="#754836"/>
<path d="M149.558 216.557C149.558 216.557 148.948 216.572 148.678 216.449C148.678 216.449 148.204 216.187 147.856 216.022C147.745 215.969 147.648 215.926 147.582 215.905C147.306 215.816 146.675 215.703 146.074 215.304C145.473 214.906 143.492 213.284 143.492 213.284L144.578 211.355L145.016 209.486C145.016 209.486 149.396 209.636 150 209.943C150.058 209.973 150.115 210.005 150.166 210.039C150.652 210.348 150.883 210.782 151.119 210.973C151.205 211.043 152.016 211.804 151.995 212.135C151.967 212.595 151.76 212.902 151.485 213.059C151.485 213.059 151.39 213.956 150.956 214.383C150.956 214.383 150.894 215.214 150.203 215.591C150.203 215.591 150.046 216.427 149.558 216.557Z" fill="#EFAA88"/>
<path d="M47.5642 171.092C48.243 173.312 47.3751 175.544 45.625 176.077C43.8751 176.61 41.9061 175.242 41.2271 173.022C40.5482 170.801 41.4165 168.57 43.1662 168.037C44.9163 167.504 46.8852 168.872 47.5642 171.092Z" fill="#E8734D"/>
<path d="M56.1357 183.025C56.1357 183.025 58.61 183.799 60.0228 185.738C61.4356 187.677 61.6565 190.384 61.7197 191.769C61.7827 193.155 62.1612 198.507 62.1612 198.507L57.965 199.681L56.1357 183.025Z" fill="#323657"/>
<path d="M73.9205 290.563C73.9205 290.563 77.0676 294.791 76.636 295.461C76.2043 296.131 72.8948 296.227 70.8804 295.461C68.8658 294.695 68.8178 289.741 67.9064 287.612C67.5251 286.72 68.3414 284.09 69.4893 283.899C70.6374 283.708 71.886 284.269 71.886 284.269C71.886 284.269 70.695 287.267 73.9205 290.563Z" fill="#292C47"/>
<path d="M71.906 284.235C71.906 284.235 72.5681 286.035 72.81 287.754C73.0107 289.18 75.0521 292.207 74.9563 292.589C74.8602 292.972 72.2701 293.319 71.2149 292.332C70.1597 291.345 69.4807 288.474 69.2483 286.757C69.0319 285.158 68.7588 284.368 68.7588 284.368C68.7588 284.368 70.8988 283.182 71.906 284.235Z" fill="#EEA886"/>
<path d="M46.5274 290.633C46.5274 290.633 49.5611 294.791 49.1294 295.461C48.6977 296.131 45.3882 296.227 43.3736 295.461C41.359 294.695 41.311 289.74 40.3997 287.611C40.0181 286.72 40.8346 284.09 41.9825 283.899C43.1304 283.708 44.4767 284.309 44.4767 284.309C44.4767 284.309 43.3021 287.337 46.5274 290.633Z" fill="#292C47"/>
<path d="M44.4768 284.31C44.4768 284.31 44.7168 286.272 45.1003 287.66C45.484 289.048 47.5466 292.207 47.4507 292.59C47.3547 292.972 44.7646 293.319 43.7094 292.332C42.6541 291.345 41.8387 288.487 41.7428 286.757C41.6469 285.028 41.9828 283.899 41.9828 283.899C41.9828 283.899 43.4696 283.257 44.4768 284.31Z" fill="#EEA886"/>
<path d="M59.636 215.482C59.636 215.482 62.3365 228.018 62.9566 231.174C63.5769 234.33 65.3135 249.617 65.4995 252.216C65.6856 254.816 68.3177 264.61 68.1937 265.538C68.0697 266.466 72.0957 285.115 72.0957 285.115C72.0957 285.115 70.7208 286.219 69.2711 285.215C68.5256 284.698 60.4375 267.756 60.4375 263.115C60.4375 256.698 55.6827 248.323 55.0692 246.888C49.37 233.553 50.4921 229.476 49.7478 228.609C49.0035 227.743 48.939 229.144 48.5049 231.063C48.0709 232.982 47.141 249.568 46.5828 251.672C46.0246 253.776 46.4581 260.893 46.1481 264.483C45.838 268.073 44.4764 284.309 44.4764 284.309C44.4764 284.309 43.4219 285.958 41.9426 284.352C41.6242 284.007 39.3885 266.265 39.3264 261.995C39.2643 257.724 39.1981 251.835 39.0784 249.988C37.9292 232.293 35.1053 229.765 39.5532 217.241C47.8812 193.792 59.636 215.482 59.636 215.482Z" fill="#EEA886"/>
<path d="M41.5004 211.978C41.5004 211.978 33.8067 222.722 37.1192 245.578C37.1192 245.578 55.3676 248.055 65.144 242.713C65.144 242.713 61.1013 219.148 59.6364 215.481C58.1715 211.814 41.5004 211.978 41.5004 211.978Z" fill="#323657"/>
<path d="M67.8213 287.24V291.666H68.3968V288.245L67.8213 287.24Z" fill="#292C47"/>
<path d="M40.3154 287.24V291.666H40.8911V288.245L40.3154 287.24Z" fill="#292C47"/>
<path d="M51.8251 181.447C51.8251 181.447 55.1516 182.83 56.1357 183.026C57.1198 183.223 60.4463 188.125 61.1157 189.932C61.7849 191.739 61.1157 194.449 59.7378 197.631C58.36 200.813 59.6591 201.874 59.0292 205.056C58.3993 208.237 60.4329 215.022 60.5511 216.79C60.6692 218.558 42.0435 218.843 38.3824 215.622C38.3824 215.622 42.062 210.123 42.5345 209.337C43.0068 208.552 42.6131 204.27 42.1801 203.17C41.7471 202.07 38.865 192.716 38.865 192.716C38.865 192.716 36.5071 185.533 38.6371 183.882C40.4873 182.448 45.5301 181.937 46.4356 181.623C47.3409 181.309 49.9747 181.172 51.8251 181.447Z" fill="#323657"/>
<path d="M53.1784 178.183C53.1784 178.183 53.1009 178.892 53.0091 179.872C52.9692 180.307 52.9256 180.795 52.8851 181.299C52.7696 182.727 52.6759 184.274 52.7309 185.06C52.7309 185.06 49.7852 188.006 46.4355 181.623C46.4355 181.623 47.845 178.992 46.7839 175.407C45.7227 171.823 53.1784 178.183 53.1784 178.183Z" fill="#EEA886"/>
<path d="M60.5865 201.878L61.0797 203.077L60.0234 202.322L60.5865 201.878Z" fill="#EEA886"/>
<path d="M54.1832 161.881C54.1832 161.881 60.7874 163.952 57.2024 175.324C53.6174 186.697 44.598 174.006 45.5414 167.078C46.4847 160.149 54.1832 161.881 54.1832 161.881Z" fill="#EEA987"/>
<path d="M57.877 168.516C57.877 168.516 54.5955 171.73 49.1039 172.131C49.1039 172.131 46.9934 174.601 46.8313 175.57C46.8313 175.57 41.0846 165.993 47.9543 162.24C55.2328 158.264 60.0908 166.458 57.877 168.516Z" fill="#E8734D"/>
<path d="M49.0612 172.067C49.0188 171.239 48.5077 169.356 47.275 169.883C46.0422 170.41 47.3504 174.246 48.1682 174.01C48.1682 174.01 49.1618 174.025 49.0612 172.067Z" fill="#EEA987"/>
<path d="M53.0091 179.872C52.9693 180.306 52.9257 180.795 52.8851 181.298H52.8841C49.0658 179.417 48.4809 176.704 48.4639 176.62C51.3788 179.875 53.0091 179.872 53.0091 179.872Z" fill="#A77860"/>
<path d="M61.4602 191.691C61.4602 191.691 61.6409 195.696 60.7417 197.991L59.915 197.563C59.915 197.563 61.4445 193.557 61.4602 191.691Z" fill="#1D3B54"/>
<path d="M47.1353 204.712C47.1353 204.712 48.66 203.704 48.8976 203.557C49.1353 203.411 49.968 203.458 50.825 203.728C51.6577 203.99 52.5956 204.352 52.8549 204.498C52.9901 204.574 53.1252 204.598 53.0664 204.991C53.0077 205.383 52.742 205.683 52.742 205.683C52.742 205.683 52.8978 206.201 52.542 206.546C52.542 206.546 52.6662 207.039 52.198 207.365C52.198 207.365 52.3061 207.85 51.9461 208.058C51.9461 208.058 51.1673 208.165 50.8729 208.103C50.4566 208.015 48.2766 207.514 46.7476 207.112C46.7476 207.113 46.1149 206.736 47.1353 204.712Z" fill="#EEA886"/>
<path d="M52.3922 204.373C52.3922 204.373 56.3422 205.238 56.2939 205.544C56.2236 205.988 55.2445 206.151 52.2453 205.327C49.3293 204.525 52.3922 204.373 52.3922 204.373Z" fill="#EEA886"/>
<path d="M42.6573 183.22C41.7608 182.679 38.7703 182.739 37.6017 185.54C36.4334 188.341 35.4779 191.531 34.6587 192.995C33.8394 194.458 31.0552 201.143 31.8822 201.945C32.7091 202.748 34.4079 203.703 36.966 204.303C39.6072 204.923 47.2638 207.77 47.2638 207.77L48.2414 203.633C48.2414 203.633 44.874 202.029 42.9307 201.251C41.201 200.559 41.4155 200.377 38.5639 199.369C38.5639 199.369 40.2 195.208 40.9363 194.096C41.6724 192.985 46.6901 185.654 42.6573 183.22Z" fill="#323657"/>
<path d="M53.0828 211.762L63.3304 210.936C63.7915 210.899 64.2074 210.645 64.4501 210.252L75.0704 193.063C75.6633 192.103 74.9792 190.865 73.8494 190.853L62.869 190.737C62.3314 190.732 61.8346 191.023 61.5779 191.494L51.6899 209.624C51.1385 210.635 51.9324 211.854 53.0828 211.762Z" fill="#857B77"/>
<path d="M67.4307 205.443C67.4307 205.443 68.075 204.846 68.6494 204.01C69.2239 203.173 71.102 199.982 70.9302 199.781C70.7583 199.581 67.9692 199.513 67.464 199.967C66.9584 200.422 67.9615 200.6 67.9615 200.6C67.9615 200.6 66.4367 200.757 66.5454 201.186C66.6542 201.615 67.5725 201.497 67.5725 201.497C67.5725 201.497 66.3452 201.731 66.5311 202.109C66.717 202.486 67.3076 202.482 67.3076 202.482C67.3076 202.482 66.2197 202.618 66.3543 203.03C66.4888 203.442 68.2097 203.831 67.9797 204.173C67.7495 204.515 67.4307 205.443 67.4307 205.443Z" fill="#EEA886"/>
<path d="M45.9492 181.744C45.9492 181.744 49.6484 187.754 52.5825 187.684C55.5168 187.613 53.5148 182.124 53.5148 182.124C53.5148 182.124 51.2633 180.326 45.9492 181.744Z" fill="#EEA886"/>
<path d="M65.2196 201.915C64.2286 202.904 62.8896 203.171 62.2293 202.512C61.569 201.853 61.8369 200.517 62.8279 199.528C63.8189 198.539 65.1577 198.272 65.8182 198.931C66.4785 199.59 66.2106 200.926 65.2196 201.915Z" fill="#918682"/>
<path d="M58.4131 166.937C58.4131 166.937 58.826 168.514 58.1298 171.275C58.1298 171.275 58.2379 168.676 57.6938 167.968C57.1494 167.26 58.4131 166.937 58.4131 166.937Z" fill="#E8734D"/>
<defs>
<linearGradient id="paint0_linear_43_11263" x1="397.677" y1="41.131" x2="296.508" y2="108.722" gradientUnits="userSpaceOnUse">
<stop stop-color="#40D5E6"/>
<stop offset="1" stop-color="#4B69E0"/>
</linearGradient>
<linearGradient id="paint1_linear_43_11263" x1="31.7304" y1="138.611" x2="309.55" y2="138.611" gradientUnits="userSpaceOnUse">
<stop stop-color="#40D5E6"/>
<stop offset="1" stop-color="#5577FF"/>
</linearGradient>
<linearGradient id="paint2_linear_43_11263" x1="171.322" y1="204.695" x2="171.322" y2="263.341" gradientUnits="userSpaceOnUse">
<stop stop-color="#40D5E6"/>
<stop offset="1" stop-color="#5577FF"/>
</linearGradient>
<linearGradient id="paint3_linear_43_11263" x1="-5.33667e-05" y1="262.495" x2="170.641" y2="262.495" gradientUnits="userSpaceOnUse">
<stop stop-color="#40D5E6"/>
<stop offset="1" stop-color="#5577FF"/>
</linearGradient>
<linearGradient id="paint4_linear_43_11263" x1="227.046" y1="60.3277" x2="234.349" y2="60.3277" gradientUnits="userSpaceOnUse">
<stop stop-color="#FFAE70"/>
<stop offset="1" stop-color="#FFD970"/>
</linearGradient>
<linearGradient id="paint5_linear_43_11263" x1="224.43" y1="60.3277" x2="227.474" y2="60.3277" gradientUnits="userSpaceOnUse">
<stop stop-color="#FFAE70"/>
<stop offset="1" stop-color="#FFD970"/>
</linearGradient>
<linearGradient id="paint6_linear_43_11263" x1="206.071" y1="56.9938" x2="229.464" y2="56.9938" gradientUnits="userSpaceOnUse">
<stop stop-color="#FFAE70"/>
<stop offset="1" stop-color="#FFD970"/>
</linearGradient>
<linearGradient id="paint7_linear_43_11263" x1="171.322" y1="204.189" x2="171.322" y2="272.465" gradientUnits="userSpaceOnUse">
<stop stop-color="#40D5E6"/>
<stop offset="1" stop-color="#4B69E0"/>
</linearGradient>
<linearGradient id="paint8_linear_43_11263" x1="217.445" y1="201.662" x2="217.445" y2="257.945" gradientUnits="userSpaceOnUse">
<stop stop-color="#40D5E6"/>
<stop offset="1" stop-color="#4B69E0"/>
</linearGradient>
</defs>
</svg>
