<svg width="36" height="44" viewBox="0 0 36 44" fill="none" xmlns="http://www.w3.org/2000/svg">
<g id="Group">
<g id="Group_2">
<path id="Vector" d="M31.5493 18.0833C31.5493 24.0233 27.7213 29.0393 22.4413 30.8873V33.3072H13.5973V30.8873C8.27331 29.0393 4.44531 24.0233 4.44531 18.0833C4.44531 10.6033 10.5173 4.53125 17.9973 4.53125C25.4773 4.53125 31.5493 10.6033 31.5493 18.0833Z" fill="#FDFDFF"/>
</g>
<g id="Group_3">
<path id="Vector_2" d="M12.32 9.15125C12.188 9.15125 12.056 9.10725 11.968 8.97525C11.792 8.79925 11.836 8.49125 12.056 8.35925C12.628 7.96325 13.244 7.61125 13.86 7.30325C14.08 7.21525 14.344 7.30325 14.432 7.52325C14.52 7.74325 14.432 8.00725 14.212 8.09525C13.64 8.35925 13.068 8.71125 12.54 9.06325C12.496 9.15125 12.408 9.15125 12.32 9.15125Z" fill="white"/>
</g>
<g id="Group_4">
<path id="Vector_3" d="M10.5164 10.7799C10.4284 10.7799 10.2964 10.7359 10.2084 10.6479C10.0324 10.4719 10.0324 10.2079 10.1644 10.0319C10.2964 9.89991 10.3844 9.76791 10.5164 9.63591C10.6924 9.45991 10.9564 9.45991 11.1324 9.63591C11.3084 9.81191 11.3084 10.0759 11.1324 10.2519C11.0004 10.3839 10.9124 10.4719 10.8244 10.6039C10.7364 10.7359 10.6484 10.7799 10.5164 10.7799Z" fill="white"/>
</g>
<g id="Group_5">
<path id="Vector_4" d="M31.5536 18.0822C31.5536 24.0222 27.7256 29.0382 22.4456 30.8862V33.3062H13.6016V31.6782H17.2096C18.1336 31.6782 18.8816 30.9302 18.8816 30.0062C18.8816 29.3462 19.2776 28.7302 19.8936 28.4662C24.6456 26.3542 27.9896 21.6022 27.9896 16.0582C27.9896 11.7462 25.9656 7.87416 22.7976 5.41016C27.9016 7.34616 31.5536 12.2742 31.5536 18.0822Z" fill="#FDFDFF"/>
</g>
<g id="Group_6">
<path id="Vector_5" d="M21.73 40.1719L21.114 41.8879C20.938 42.3719 20.498 42.6799 20.014 42.6799H15.966C15.482 42.6799 14.998 42.3719 14.866 41.8879L14.25 40.1719H21.73Z" fill="#A04747"/>
</g>
<g id="Group_7">
<path id="Vector_6" d="M21.7411 40.1719L21.1251 41.8879C20.9491 42.3719 20.5091 42.6799 20.0251 42.6799H15.9771C15.4931 42.6799 15.0091 42.3719 14.8771 41.8879L14.7891 41.5799C14.9211 41.6239 15.0971 41.6679 15.2731 41.6679H19.3211C19.8051 41.6679 20.2891 41.3599 20.4211 40.8759L20.6851 40.1719H21.7411Z" fill="#7F3939"/>
</g>
<g id="Group_8">
<g id="Group_9">
<path id="Vector_7" d="M25.5167 35.0246C25.5167 35.9926 24.7247 36.7406 23.8007 36.7406H12.1847C11.2167 36.7406 10.4688 35.9486 10.4688 35.0246C10.4688 34.0566 11.2607 33.3086 12.1847 33.3086H23.7567C24.7247 33.3086 25.5167 34.0566 25.5167 35.0246Z" fill="#FAAD14"/>
</g>
<g id="Group_10">
<path id="Vector_8" d="M25.5167 38.4582C25.5167 39.4262 24.7247 40.1742 23.8007 40.1742H12.1847C11.2167 40.1742 10.4688 39.3822 10.4688 38.4582C10.4688 37.4902 11.2607 36.7422 12.1847 36.7422H23.7567C24.7247 36.7422 25.5167 37.5342 25.5167 38.4582Z" fill="#FAAD14"/>
</g>
<g id="Group_11">
<path id="Vector_9" d="M25.5167 38.4561C25.5167 39.4241 24.7247 40.1721 23.8007 40.1721H12.1847C11.3487 40.1721 10.6007 39.5561 10.4688 38.7201C10.6887 38.8081 10.9087 38.8521 11.1287 38.8521H22.7007C23.6687 38.8521 24.4167 38.0601 24.4167 37.1361C24.4167 37.0481 24.4167 36.9161 24.3727 36.8281C25.0767 37.1361 25.5167 37.7521 25.5167 38.4561Z" fill="#FAAD14"/>
</g>
<g id="Group_12">
<path id="Vector_10" d="M25.5167 34.9366C25.5167 35.9046 24.7247 36.6526 23.8007 36.6526H12.1847C11.3487 36.6526 10.6007 36.0366 10.4688 35.2006C10.6887 35.2886 10.9087 35.3326 11.1287 35.3326H22.7007C23.6687 35.3326 24.4167 34.5406 24.4167 33.6166C24.4167 33.5286 24.4167 33.3966 24.3727 33.3086C25.0767 33.6166 25.5167 34.2326 25.5167 34.9366Z" fill="#FAAD14"/>
</g>
</g>
<g id="Group_13">
<g id="Group_14">
<path id="Vector_11" d="M16.8971 22.8365C16.8971 24.0685 15.9731 25.0365 14.7851 25.0805C13.5531 25.0805 12.5851 24.1125 12.5411 22.9245C12.5411 22.8805 12.5411 22.7925 12.5411 22.7485C11.3531 22.7045 10.4291 21.7805 10.3851 20.5925C10.3851 20.5485 10.3851 20.5045 10.3851 20.4605C9.06514 20.1965 8.00914 19.0085 8.00914 17.5565C7.96514 16.1045 9.02114 14.8285 10.4291 14.5645C10.4291 14.5205 10.4291 14.5205 10.4291 14.4765C10.4291 13.2885 11.3531 12.3205 12.4971 12.2325C12.4971 12.1885 12.4971 12.1005 12.4971 12.0565C12.4971 10.8245 13.4651 9.8565 14.6531 9.8125C15.8851 9.8125 16.8531 10.7805 16.8971 11.9685V22.8365Z" fill="#FDFDFF"/>
</g>
<g id="Group_15">
<path id="Vector_12" d="M16.8959 12.0133V22.7933C16.8959 24.0253 15.9719 24.9933 14.7839 25.0373C13.8159 25.0373 12.9799 24.4653 12.6719 23.5853C12.8479 23.6293 12.9799 23.6293 13.1559 23.6293C14.3879 23.6293 15.3119 22.6173 15.2679 21.3853V10.6493C15.2679 10.3853 15.2239 10.1653 15.1359 9.94531C16.1039 10.1213 16.8519 11.0013 16.8959 12.0133Z" fill="#FDFDFF"/>
</g>
<g id="Group_16">
<path id="Vector_13" d="M19.0938 22.8365C19.0938 24.0685 20.0177 25.0365 21.2057 25.0805C22.4377 25.0805 23.4058 24.1125 23.4498 22.9245C23.4498 22.8805 23.4498 22.7925 23.4498 22.7485C24.6378 22.7045 25.5618 21.7805 25.6058 20.5925C25.6058 20.5485 25.6058 20.5045 25.6058 20.4605C26.9258 20.1965 27.9817 19.0085 27.9817 17.5565C28.0257 16.1045 26.9697 14.8285 25.5617 14.5645C25.5617 14.5205 25.5617 14.5205 25.5617 14.4765C25.5617 13.2885 24.6378 12.3205 23.4938 12.2325C23.4938 12.1885 23.4938 12.1005 23.4938 12.0565C23.4938 10.8245 22.5257 9.8565 21.3377 9.8125C20.1057 9.8125 19.1378 10.7805 19.0938 11.9685V22.8365Z" fill="#FDFDFF"/>
</g>
<g id="Group_17">
<path id="Vector_14" d="M25.6115 20.4607V20.5927C25.6115 21.7807 24.6435 22.7047 23.4555 22.7487V22.9247C23.4555 24.1567 22.4435 25.1247 21.2115 25.0807C20.2435 25.0807 19.4515 24.4207 19.1875 23.5407C19.4955 23.7167 19.8475 23.8487 20.2435 23.8487C21.4755 23.8487 22.4435 22.8807 22.4875 21.6927C22.4875 21.6487 22.4875 21.5607 22.4875 21.5167C23.6755 21.4727 24.5995 20.5487 24.6435 19.3607C24.6435 19.3167 24.6435 19.2727 24.6435 19.2287C25.9635 18.9647 26.9755 17.7767 27.0195 16.3247C27.0195 15.8847 26.9315 15.4887 26.7995 15.1367C27.5475 15.7087 27.9875 16.5887 27.9875 17.5567C27.9435 19.0087 26.9315 20.1967 25.6115 20.4607Z" fill="#FDFDFF"/>
</g>
</g>
<g id="Group_18">
<path id="Vector_15" d="M17.9947 2.94691C18.2587 2.94691 18.4347 2.77091 18.4347 2.50691V1.31891C18.4347 1.05491 18.2587 0.878906 17.9947 0.878906C17.7307 0.878906 17.5547 1.05491 17.5547 1.31891V2.50691C17.5547 2.77091 17.7307 2.94691 17.9947 2.94691Z" fill="#1B1B1B"/>
<path id="Vector_16" d="M9.68193 4.88246C9.81393 5.10246 10.0779 5.14646 10.2979 5.05846C10.5179 4.92646 10.5619 4.66246 10.4739 4.44246L9.85793 3.38646C9.72593 3.16646 9.46193 3.12246 9.24193 3.21046C9.02193 3.34246 8.97793 3.60646 9.06593 3.82646L9.68193 4.88246Z" fill="#1B1B1B"/>
<path id="Vector_17" d="M2.95287 10.2505L4.00887 10.8665C4.22887 10.9985 4.49287 10.9105 4.62487 10.6905C4.75687 10.4705 4.66887 10.2065 4.44887 10.0745L3.39287 9.4585C3.17287 9.3265 2.90887 9.4145 2.77687 9.6345C2.68887 9.8545 2.73287 10.1185 2.95287 10.2505Z" fill="#1B1B1B"/>
<path id="Vector_18" d="M32.9996 26.5745L31.9436 25.9585C31.7236 25.8265 31.4596 25.9145 31.3276 26.1345C31.1956 26.3545 31.2836 26.6185 31.5036 26.7505L32.5596 27.3665C32.7796 27.4985 33.0436 27.4105 33.1756 27.1905C33.3076 26.9705 33.2196 26.7065 32.9996 26.5745Z" fill="#1B1B1B"/>
<path id="Vector_19" d="M35.1124 17.9941H33.9244C33.6604 17.9941 33.4844 18.1701 33.4844 18.4341C33.4844 18.6981 33.6604 18.8741 33.9244 18.8741H35.1124C35.3764 18.8741 35.5524 18.6981 35.5524 18.4341C35.5524 18.1701 35.3324 17.9941 35.1124 17.9941Z" fill="#1B1B1B"/>
<path id="Vector_20" d="M32.5636 9.50343L31.5076 10.1194C31.2876 10.2514 31.2436 10.5154 31.3316 10.7354C31.4636 10.9554 31.7276 10.9994 31.9476 10.9114L33.0036 10.2954C33.2236 10.1634 33.2676 9.89943 33.1796 9.67943C33.0476 9.45943 32.7836 9.37143 32.5636 9.50343Z" fill="#1B1B1B"/>
<path id="Vector_21" d="M25.6949 5.05846C25.9149 5.19046 26.1789 5.10246 26.3109 4.88246L26.9269 3.82646C27.0589 3.60646 26.9709 3.34246 26.7509 3.21046C26.5309 3.07846 26.2669 3.16646 26.1349 3.38646L25.5189 4.44246C25.4309 4.66246 25.5189 4.92646 25.6949 5.05846Z" fill="#1B1B1B"/>
<path id="Vector_22" d="M4.00887 26.0034L2.95287 26.6194C2.73287 26.7514 2.68887 27.0154 2.77687 27.2354C2.90887 27.4554 3.17287 27.4994 3.39287 27.4114L4.44887 26.7954C4.66887 26.6634 4.71287 26.3994 4.62487 26.1794C4.49287 25.9594 4.22887 25.8714 4.00887 26.0034Z" fill="#1B1B1B"/>
<path id="Vector_23" d="M2.11237 17.9941H0.924375C0.660375 17.9941 0.484375 18.1701 0.484375 18.4341C0.484375 18.6981 0.660375 18.8741 0.924375 18.8741H2.11237C2.37637 18.8741 2.55237 18.6981 2.55237 18.4341C2.55237 18.1701 2.33237 17.9941 2.11237 17.9941Z" fill="#1B1B1B"/>
<path id="Vector_24" d="M31.9918 18.0818C31.9918 10.3818 25.6998 4.08984 17.9998 4.08984C10.2998 4.08984 4.00781 10.3818 4.00781 18.0818C4.00781 23.9338 7.65981 29.1698 13.1158 31.1938V32.8658H12.1918C11.0038 32.8658 10.0358 33.8338 10.0358 35.0218C10.0358 35.7258 10.3878 36.3418 10.9158 36.7378C10.3878 37.1338 10.0358 37.7498 10.0358 38.4538C10.0358 39.6418 11.0038 40.6098 12.1918 40.6098H13.9078L14.3918 42.0178C14.6118 42.6778 15.2278 43.0738 15.9318 43.0738H19.9798C20.6838 43.0738 21.2998 42.6338 21.5198 42.0178L22.0478 40.6098H23.7638C24.9518 40.6098 25.9198 39.6418 25.9198 38.4538C25.9198 37.7498 25.5678 37.1338 25.0398 36.7378C25.5678 36.3418 25.9198 35.7258 25.9198 35.0218C25.9198 33.8338 24.9518 32.8658 23.7638 32.8658H22.8398V31.1938C28.3398 29.1698 31.9918 23.9338 31.9918 18.0818ZM20.7278 41.7538C20.6398 42.0618 20.3318 42.2378 20.0238 42.2378H15.9758C15.6678 42.2378 15.3598 42.0618 15.2718 41.7538L14.8758 40.6538H21.1238L20.7278 41.7538ZM23.7638 39.7298H12.1918C11.4878 39.7298 10.9158 39.1578 10.9158 38.4538C10.9158 37.7498 11.4878 37.1778 12.1918 37.1778H23.7638C24.4678 37.1778 25.0398 37.7498 25.0398 38.4538C25.0838 39.1578 24.4678 39.7298 23.7638 39.7298ZM23.7638 33.7018C24.4678 33.7018 25.0398 34.2738 25.0398 34.9778C25.0398 35.6818 24.4678 36.2538 23.7638 36.2538H12.1918C11.8398 36.2538 11.5318 36.1218 11.2678 35.8578C11.0478 35.6378 10.8718 35.2858 10.8718 34.9338C10.8718 34.2298 11.4438 33.6578 12.1478 33.6578C12.1918 33.7018 23.7638 33.7018 23.7638 33.7018ZM22.2678 30.4458C22.0918 30.4898 21.9598 30.6658 21.9598 30.8418V32.8218H19.9798V30.7098C19.9798 29.1698 20.3758 27.6298 21.0798 26.2658L21.5198 25.4738C22.8398 25.3418 23.7638 24.3298 23.8958 23.0978C25.0398 22.8778 25.9198 21.9538 26.0078 20.7658C27.3718 20.3258 28.3838 19.0058 28.3838 17.5538C28.4278 16.0138 27.4158 14.6938 25.9638 14.2098C25.8758 13.0658 25.0398 12.0978 23.8958 11.8778C23.8078 10.5138 22.6638 9.45784 21.2998 9.41384H21.2558C19.8038 9.41384 18.6598 10.5578 18.6158 12.0098V17.1578V22.7898C18.6158 24.0658 19.4078 25.0778 20.5078 25.3858L20.2438 25.8698C19.4518 27.3658 19.0558 29.0378 19.0558 30.7098V32.8218H16.8558V30.7098C16.8558 29.0378 16.4158 27.3218 15.6238 25.8258L15.3598 25.3418C16.4598 25.0338 17.2518 24.0218 17.2518 22.7458V18.7858V12.0098C17.2518 10.5578 16.0638 9.41384 14.6118 9.41384H14.5678C13.2038 9.45784 12.0598 10.5138 11.9718 11.8778C10.8718 12.0978 9.99181 13.0658 9.90381 14.2098C8.45181 14.6498 7.48381 16.0138 7.48381 17.5538C7.52781 19.0498 8.49581 20.3258 9.85981 20.7658C9.99181 21.9538 10.8718 22.8778 12.0158 23.0978C12.1478 24.3298 13.0718 25.3418 14.3918 25.4738L14.8318 26.2658C15.5358 27.6298 15.9318 29.1698 15.9318 30.7098V32.8218H14.0398V30.8418C14.0398 30.6658 13.9078 30.4898 13.7318 30.4018C8.45181 28.5978 4.93181 23.6258 4.93181 18.0378C4.93181 10.8218 10.8278 4.92584 18.0438 4.92584C25.2598 4.92584 31.1558 10.8218 31.1558 18.0378C31.1118 23.6698 27.5478 28.6418 22.2678 30.4458ZM21.1678 14.6938C20.5518 14.6938 19.9798 14.9138 19.5398 15.3098V12.0538C19.5398 11.0858 20.3318 10.3378 21.2998 10.3378H21.3438C22.3118 10.3378 23.1038 11.1738 23.0598 12.1418C23.0598 12.5378 22.9278 12.8898 22.7078 13.1978C22.5758 13.3738 22.5758 13.6818 22.7958 13.8138C23.0158 13.9898 23.2798 13.9458 23.4118 13.7258C23.6318 13.4618 23.7638 13.1538 23.8518 12.8458C24.5998 13.0658 25.1278 13.7258 25.1278 14.5178C25.1278 15.0018 24.9078 15.4418 24.5558 15.7938C24.3798 15.9698 24.3798 16.2338 24.5558 16.4098C24.7318 16.5858 24.9958 16.5858 25.1718 16.4538C25.5678 16.1018 25.7878 15.6618 25.9198 15.2218C26.8878 15.6178 27.5478 16.5418 27.5478 17.6418C27.5478 18.6538 26.8878 19.5778 25.9638 19.9738C25.8318 19.4018 25.4358 18.8298 24.9518 18.4778C24.7758 18.3458 24.4678 18.3898 24.3358 18.5658C24.2038 18.7418 24.2478 19.0498 24.4238 19.1818C24.9078 19.5338 25.1718 20.0618 25.1718 20.6338C25.1718 21.4258 24.5998 22.1298 23.8518 22.3058C23.7198 21.7338 23.3678 21.2058 22.8838 20.8538C22.7078 20.7218 22.3998 20.7218 22.2678 20.9418C22.1358 21.1178 22.1358 21.4258 22.3558 21.5578C22.7958 21.9098 23.0598 22.3938 23.0598 22.9658V22.8778C23.0598 23.8458 22.2678 24.6378 21.2558 24.5938C20.3318 24.5938 19.5838 23.8018 19.5838 22.7898V17.2018C19.5838 16.3218 20.3318 15.5738 21.2118 15.5738C21.4758 15.5738 21.6518 15.3538 21.6518 15.1338C21.6078 14.9138 21.4318 14.6938 21.1678 14.6938ZM13.7318 20.8538C13.5998 20.6778 13.2918 20.6338 13.1158 20.7658C12.6318 21.1178 12.3238 21.6458 12.1478 22.2178C11.3998 22.0418 10.8278 21.3378 10.8278 20.5018C10.8278 19.9298 11.0918 19.4018 11.5758 19.0938C11.7518 18.9618 11.7958 18.6538 11.6638 18.4778C11.5318 18.3018 11.2238 18.2578 11.0478 18.3898C10.5198 18.7418 10.1678 19.2698 10.0358 19.8858C9.11181 19.4898 8.49581 18.5658 8.45181 17.5538C8.45181 16.4538 9.06781 15.5298 10.0798 15.1338C10.2118 15.6178 10.4758 16.0578 10.8278 16.3658C11.0038 16.5418 11.3118 16.4978 11.4438 16.3218C11.6198 16.1458 11.5758 15.8818 11.3998 15.7058C11.0478 15.3538 10.8278 14.9138 10.8278 14.4298C10.8278 13.5938 11.3558 12.9338 12.1038 12.7138C12.1918 13.0218 12.3238 13.3298 12.5438 13.5938C12.6758 13.7698 12.9398 13.8578 13.1598 13.6818C13.3358 13.5498 13.3798 13.2418 13.2478 13.0658C13.0278 12.7578 12.8958 12.4058 12.8958 12.0098C12.8958 11.0418 13.6438 10.2498 14.6118 10.2058H14.6558C15.6238 10.2058 16.4158 10.9978 16.4158 11.9218V18.2138C15.8438 18.0378 15.4478 17.5098 15.4478 16.8498C15.4478 16.5858 15.2278 16.4098 15.0078 16.4098C14.7438 16.4098 14.5678 16.5858 14.5678 16.8498C14.5678 17.9498 15.3598 18.9178 16.4158 19.0938V22.7018C16.4158 23.7138 15.6678 24.4618 14.7438 24.5058C13.8198 24.5058 12.9838 23.7578 12.9838 22.7898V22.8778C12.9838 22.3058 13.2478 21.8218 13.6878 21.4698C13.8638 21.2938 13.9078 21.0298 13.7318 20.8538Z" fill="#602EDF"/>
</g>
</g>
</svg>
