<svg width="353" height="271" viewBox="0 0 353 271" fill="none" xmlns="http://www.w3.org/2000/svg">
<path d="M56.6042 104.29C58.44 103.355 60.685 103.937 61.8335 105.647L75.3745 125.407L65.341 127.397L54.9569 110.006C53.7484 107.983 54.5048 105.36 56.6042 104.29Z" fill="#B76D89"/>
<path d="M144.149 123.108C133.226 124.554 124.208 132.355 121.206 142.957L109.226 185.267L86.6934 202.646L87.8985 206.639C90.9303 216.684 100.512 223.293 110.98 222.558C118.792 222.009 125.754 217.431 129.355 210.476L145.725 178.855L144.149 123.108Z" fill="#0050B3"/>
<path d="M116.203 206.594L109.22 185.261L112.891 172.296C114.328 172.296 115.213 174.363 115.503 175.771C115.791 177.179 115.551 178.641 115.213 180.038C114.875 181.436 114.438 182.82 114.332 184.254C113.979 188.971 117.178 193.227 117.818 197.914C118.19 200.639 117.536 204.189 116.203 206.594Z" fill="#E4E4E0"/>
<path d="M145.725 178.846L144.823 146.938C137.834 157.584 137.513 171.051 144.263 181.669L145.725 178.846Z" fill="#E4E4E0"/>
<path d="M104.688 176.839C106.009 176.155 107.719 176.818 108.642 177.985C109.565 179.152 109.866 180.686 110.022 182.165C110.177 183.644 110.223 185.161 110.74 186.556C111.367 188.246 112.63 189.609 113.608 191.124C114.585 192.639 115.292 194.544 114.645 196.227C113.985 197.939 112.159 198.862 110.451 199.533C102.943 202.481 94.7087 203.559 86.6948 202.642C85.5186 202.508 84.2264 202.264 83.5023 201.327C82.5165 200.052 83.0733 198.239 83.1497 196.629C83.2769 193.957 81.9492 191.469 80.9423 188.991C79.9348 186.513 79.2561 183.578 80.5858 181.258C84.6343 174.195 96.6288 175.679 104.688 176.839Z" fill="#F2F2F2"/>
<path d="M83.6892 184.275L74.7937 144.492L55.4507 134.061C53.0384 132.759 51.1222 130.699 49.9981 128.199L45.1411 117.393L44.127 108.267C43.9207 106.412 45.3724 104.791 47.2378 104.791C48.7441 104.791 50.0369 105.864 50.3143 107.344L51.8121 115.334L58.8956 124.559L55.9304 115.004L55.2754 104.88C55.1397 102.78 56.8061 101.002 58.9108 101.002C60.8434 101.002 62.4393 102.511 62.5481 104.441L63.0956 114.181L68.3671 125.959L65.9785 114.181L66.2671 105.748C66.3343 103.786 68.0172 102.272 69.9762 102.411C71.8357 102.545 73.257 104.125 73.1918 105.989L72.8972 114.345L76.7685 125.959L77.0979 116.652L78.5021 110.98C78.9113 109.328 80.5698 108.309 82.2284 108.69C83.933 109.081 84.9827 110.798 84.5544 112.493L83.11 118.217L84.2631 127.359C93.7353 129.583 93.7353 142.639 93.7353 142.639L106.639 180.321C98.4058 186.252 83.6892 184.275 83.6892 184.275Z" fill="#EBA4B9"/>
<path d="M242.818 120.465C254.348 120.923 263.946 129.468 265.733 140.867L274.039 193.826L284.489 231.79C276.753 242.093 259.14 240.61 252.627 226.938C246.113 213.265 240.825 175.857 240.825 175.857L242.818 120.465Z" fill="#0050B3"/>
<path d="M270.401 170.673C266.449 178.086 260.743 188.218 256.79 195.632C255.895 197.311 255.156 199.505 255.442 201.387C255.729 203.269 256.321 205.174 255.937 207.039C255.625 208.555 254.7 209.867 254.155 211.316C253.417 213.272 253.401 215.491 254.11 217.458C254.818 219.425 256.245 221.123 258.061 222.16L255.746 223.945C257.968 232.819 271.682 239.339 284.483 231.797L274.032 193.833L270.401 170.673Z" fill="#E4E4E0"/>
<path d="M240.825 175.86L241.866 146.943C253.251 161.103 241.519 180.446 241.519 180.446L240.825 175.86Z" fill="#E4E4E0"/>
<path d="M285.161 207.213C286.967 208.307 287.97 210.418 288.21 212.516C288.451 214.614 288.03 216.728 287.555 218.785C287.079 220.843 286.543 222.912 286.548 225.024C286.553 226.757 286.9 228.607 286.086 230.136C285.223 231.757 283.32 232.498 281.533 232.919C274.122 234.663 265.97 232.941 259.897 228.349C258.276 227.122 256.781 225.683 255.755 223.928C254.728 222.174 254.198 220.077 254.568 218.078C255.028 215.588 256.806 213.478 257.177 210.973C257.383 209.59 257.143 208.185 257.036 206.791C256.93 205.397 256.975 203.919 257.681 202.712C258.387 201.505 259.936 200.695 261.227 201.231C268.472 204.238 278.452 203.15 285.161 207.213Z" fill="#F2F2F2"/>
<path d="M275.273 155.272L259.129 206.34C262.259 218.2 281.862 217.377 285.98 215.894C293.064 178.17 295.453 155.272 295.453 155.272H275.273Z" fill="#DD89AC"/>
<path d="M279.801 129.736L273.788 139.538H264.563L258.538 135.738C256.795 134.638 254.494 135.105 253.317 136.798C251.96 138.751 252.678 141.455 254.825 142.478L265.085 147.363C266.952 152.387 273.541 155.764 273.541 155.764C276.794 159.287 287.007 160.764 290.756 159.882C294.505 159.001 295.451 146.869 295.451 146.869L288.45 129.736H279.801Z" fill="#B76D89"/>
<path d="M267.716 129.508L276.797 122.597C278.46 121.332 280.597 120.866 282.636 121.323L286.831 122.266C288.865 122.722 290.594 124.053 291.557 125.902L295.703 133.859C298.218 138.685 299.195 144.165 298.505 149.562L298.022 153.338C297.848 154.705 297.255 155.985 296.327 157.003L292.647 161.039L285.102 165.503C283.793 166.278 282.107 165.886 281.274 164.613C280.446 163.348 280.753 161.657 281.972 160.763L288.446 156.015L291.164 151.238L284.822 155.521L275.67 159.816C274.021 160.591 272.054 159.92 271.221 158.299C270.364 156.63 271.027 154.583 272.701 153.734L281.033 149.508L286.716 145.225L287.21 140.777L270.573 148.202C268.714 149.032 266.528 148.292 265.556 146.502C264.512 144.58 265.252 142.177 267.195 141.174L276.421 136.412L285.082 132.649L283.518 131.82C281.592 130.8 279.268 130.889 277.426 132.052L271.904 135.539C270.342 136.525 268.291 136.198 267.113 134.776C265.779 133.167 266.054 130.773 267.716 129.508Z" fill="#EBA4B9"/>
<path d="M173.194 119.274L144.147 123.118L146.576 209.049C146.823 217.789 146.416 226.535 145.357 235.215L141.054 270.501H243.502L240.137 231.944C239.511 224.781 239.327 217.586 239.586 210.4L242.822 120.482L212.401 119.274H173.194Z" fill="#0050B3"/>
<path d="M176.819 112.021H208.778L196.477 123.112H189.119L176.819 112.021Z" fill="#E4E4E0"/>
<path d="M180.057 104.723V119.631L189.117 123.118L192.412 132.316L190.929 139.482L194.354 144.506L196.942 139.646L195.377 131.163L196.475 123.118L207.155 117.819V92.8623L180.057 104.723Z" fill="#EBA4B9"/>
<path d="M190.339 112.02C195.18 110.736 199.386 107.462 202.178 103.306C204.194 100.304 205.489 96.8668 206.157 93.3066L180.059 104.73V111.786C183.376 112.811 186.981 112.911 190.339 112.02Z" fill="#2A335A"/>
<path d="M189.123 123.118V132.343L184.62 141.787L173.199 119.274L189.123 123.118Z" fill="#E4E4E0"/>
<path d="M196.479 123.118L197.394 131.794L202.19 141.787L212.404 119.274L196.479 123.118Z" fill="#E4E4E0"/>
<path d="M194.35 144.496L196.471 152.98L193.602 162.699L195.036 245.066L191.748 162.315L194.713 153.199L194.35 144.496Z" fill="#E4E4E0"/>
<path d="M200.961 144.95C200.961 145.936 200.162 146.735 199.177 146.735C198.191 146.735 197.393 145.935 197.393 144.95C197.393 143.965 198.192 143.166 199.177 143.166C200.163 143.166 200.961 143.965 200.961 144.95Z" fill="#E4E4E0"/>
<path d="M199.17 163.704C199.17 164.69 198.371 165.489 197.386 165.489C196.4 165.489 195.602 164.689 195.602 163.704C195.602 162.719 196.4 161.92 197.386 161.92C198.371 161.919 199.17 162.719 199.17 163.704Z" fill="#E4E4E0"/>
<path d="M200.05 187.796C200.05 188.782 199.251 189.58 198.266 189.58C197.28 189.58 196.481 188.781 196.481 187.796C196.481 186.81 197.281 186.012 198.266 186.012C199.251 186.011 200.05 186.81 200.05 187.796Z" fill="#E4E4E0"/>
<path d="M200.913 211.9C200.913 212.885 200.113 213.684 199.128 213.684C198.142 213.684 197.344 212.885 197.344 211.9C197.344 210.914 198.143 210.115 199.128 210.115C200.113 210.115 200.913 210.914 200.913 211.9Z" fill="#E4E4E0"/>
<path d="M201.789 236.002C201.789 236.988 200.989 237.787 200.004 237.787C199.018 237.787 198.22 236.988 198.22 236.002C198.22 235.016 199.019 234.218 200.004 234.218C200.989 234.217 201.789 235.016 201.789 236.002Z" fill="#E4E4E0"/>
<path d="M176.823 112.021L189.123 123.112L183.72 138.268L173.199 119.269L176.823 112.021Z" fill="#0050B3"/>
<path d="M208.78 112.021L196.479 123.112L201.883 138.268L212.404 119.269L208.78 112.021Z" fill="#0050B3"/>
<path d="M156.078 70.353L158.892 85.7028C161.433 99.5667 174.324 109.059 188.318 107.37C202.774 105.626 213.158 92.6077 211.646 78.1251L210.025 62.6039C208.434 47.3681 194.609 36.4312 179.416 38.3902C163.914 40.3887 153.261 54.9801 156.078 70.353Z" fill="#EBA4B9"/>
<path d="M211.307 82.7248C208.816 81.1559 207.416 78.25 206.984 75.3375C206.553 72.4257 206.964 69.4618 207.375 66.5474C204.061 64.6701 201.456 61.8255 200.144 58.2501C198.832 54.6747 198.832 50.6342 200.145 47.0595C192.724 46.1521 184.95 48.2778 177.948 50.8951C170.945 53.5124 163.946 56.527 156.498 57.1734C152.999 57.4772 149.315 57.2057 146.267 55.4622C141.344 52.6472 139.108 46.3524 139.991 40.7509C140.874 35.1493 144.386 30.2495 148.63 26.4896C148.908 28.4427 150.377 30.3272 152.313 30.7094C154.249 31.0909 156.266 30.5183 158.004 29.5833C159.742 28.6483 161.262 27.366 162.849 26.1944C166.75 23.3149 171.117 21.0679 175.727 19.5675C180.883 17.8899 186.448 17.1532 191.758 18.2536C197.067 19.3547 202.091 22.4438 204.825 27.1268C204.521 23.05 206.277 19.3178 209.057 16.3203C210.751 19.9036 210.827 24.5438 209.164 28.1415C212.835 25.0683 217.839 23.6351 222.612 24.0074C220.572 27.7824 216.773 30.7839 212.619 31.8612C228.649 36.1298 225.855 52.6808 222.63 60.3561L211.307 82.7248Z" fill="#293056"/>
<path d="M144.461 41.6935C146.539 44.7121 150.333 46.169 153.994 46.3436C159.959 46.6282 165.694 43.9872 170.683 40.7031C175.672 37.419 180.2 33.4364 185.404 30.5055C190.607 27.5746 197.836 25.0884 204.817 27.1206C202.083 22.4376 197.059 19.3478 191.749 18.2474C186.44 17.1463 180.874 17.8837 175.718 19.5613C171.108 21.0611 166.741 23.3087 162.841 26.1882C161.253 27.3598 159.732 28.6421 157.996 29.5771C156.258 30.5121 154.24 31.0847 152.304 30.7032C150.368 30.321 148.9 28.4371 148.622 26.4834C146.614 28.2619 144.775 30.2979 143.296 32.5403C143.263 32.6543 143.222 32.7643 143.191 32.879C142.412 35.8402 142.725 39.1705 144.461 41.6935Z" fill="#383E6E"/>
<path d="M212.624 31.8633C209.349 34.0154 206.783 37.8148 206.276 41.7005C205.769 45.5862 207.034 49.6683 209.648 52.588C211.033 54.1358 212.801 55.3726 214.793 55.9637C216.785 56.5548 219.004 56.4684 220.869 55.5545C222.745 54.636 224.112 52.959 224.985 51.0388C225.734 43.4097 223.564 34.7764 212.624 31.8633Z" fill="#383E6E"/>
<path d="M193.327 56.4496L181.094 58.34C184.473 57.8182 187.636 60.1343 188.158 63.5133L190.277 77.2237C190.799 80.6027 188.482 83.7656 185.103 84.2881L197.337 82.3976C200.716 81.8757 203.033 78.7129 202.51 75.3332L200.392 61.6228C199.87 58.2432 196.707 55.927 193.327 56.4496Z" fill="#4E5687"/>
<path d="M181.088 58.3353L161.255 61.4L149.021 63.2905C145.641 63.8123 143.326 66.9752 143.848 70.3549L145.966 84.0653C146.489 87.4443 149.651 89.7604 153.031 89.2385L165.264 87.3481L185.098 84.2834C188.477 83.7615 190.793 80.5986 190.271 77.219L188.152 63.5086C187.631 60.1289 184.468 57.8128 181.088 58.3353Z" fill="#8B93C2"/>
<path d="M150.484 72.0552C149.076 72.2726 147.758 71.308 147.54 69.8998C147.323 68.4917 148.288 67.1738 149.696 66.9564C151.104 66.7389 152.422 67.7036 152.639 69.1117C152.857 70.5199 151.891 71.8377 150.484 72.0552Z" fill="#0050B3"/>
<path d="M152.614 85.8327C151.206 86.0501 149.888 85.0854 149.671 83.6773L148.585 76.6518C148.368 75.2436 149.333 73.9258 150.741 73.7083C152.149 73.4909 153.467 74.4556 153.684 75.8637L154.769 82.8892C154.987 84.2974 154.022 85.6152 152.614 85.8327Z" fill="#0050B3"/>
<path d="M197.675 64.8406L198.993 72.5507L223.612 68.3151L222.626 60.3486L197.675 64.8406Z" fill="#8B93C2"/>
<path d="M216.212 69.8393C217.959 68.443 220.196 67.336 222.376 67.8361C224.424 68.3066 225.96 70.1575 226.509 72.1857C227.059 74.2139 226.758 76.3838 226.162 78.3988C225.556 80.4487 224.63 82.4341 223.225 84.0452C221.819 85.6562 219.901 86.872 217.786 87.1889C215.672 87.5059 213.376 86.845 211.933 85.2675C207.417 80.3321 212.025 73.1853 216.212 69.8393Z" fill="#EBA4B9"/>
<path d="M222.997 72.5509C220.199 72.5377 217.42 73.8272 215.624 75.9727C214.859 76.886 214.253 77.9956 214.222 79.187C214.191 80.3783 214.856 81.6362 215.983 82.025C216.891 82.338 217.92 82.0434 218.704 81.4886C219.443 80.9648 220.028 80.1925 220.217 79.3062C220.406 78.4206 220.16 77.427 219.5 76.8076C218.839 76.1882 217.76 76.0202 216.992 76.4999C218.256 74.5771 220.723 72.91 222.997 72.5509Z" fill="#B76D89"/>
<path d="M193.913 90.3096C186.363 91.7105 178.813 93.1113 171.263 94.5129C172.816 97.3647 175.291 99.98 178.214 101.393C180.614 102.553 183.351 103.086 185.985 102.676C188.619 102.265 191.129 100.866 192.683 98.6997C194.236 96.5332 194.853 92.8036 193.913 90.3096Z" fill="#0050B3"/>
<path d="M159.485 88.2549L197.323 82.4082C185.565 90.1342 167.976 90.9512 159.485 88.2549Z" fill="#B76D89"/>
<g opacity="0.7">
<g opacity="0.7">
<path d="M102.632 101.65H43.5473C39.908 101.65 36.958 98.6998 36.958 95.0605V61.1967C36.958 57.5575 39.908 54.6074 43.5473 54.6074H102.632C106.271 54.6074 109.221 57.5575 109.221 61.1967V95.0605C109.221 98.6998 106.271 101.65 102.632 101.65Z" fill="#EBF2FF"/>
<path d="M102.629 102.307H43.5451C39.5487 102.307 36.2969 99.0548 36.2969 95.0583V61.1945C36.2969 57.1981 39.5487 53.9463 43.5451 53.9463H102.629C106.626 53.9463 109.877 57.1981 109.877 61.1945V95.0583C109.877 99.0554 106.626 102.307 102.629 102.307ZM43.5451 55.2642C40.2755 55.2642 37.6147 57.9249 37.6147 61.1945V95.0583C37.6147 98.328 40.2755 100.989 43.5451 100.989H102.629C105.898 100.989 108.559 98.328 108.559 95.0583V61.1945C108.559 57.9249 105.898 55.2642 102.629 55.2642H43.5451Z" fill="#EBF2FF"/>
</g>
<path d="M63.6017 60.3789H44.8018V65.6504H63.6017V60.3789Z" fill="#67BBC1"/>
<path d="M101.348 60.3789H63.5986V65.6504H101.348V60.3789Z" fill="#97E3ED"/>
<path d="M84.0286 70.4619H44.8018V75.7334H84.0286V70.4619Z" fill="#67BBC1"/>
<path d="M101.347 70.4619H84.0254V75.7334H101.347V70.4619Z" fill="#97E3ED"/>
<path d="M73.0758 80.5498H44.8018V85.8213H73.0758V80.5498Z" fill="#67BBC1"/>
<path d="M101.354 80.5498H73.0801V85.8213H101.354V80.5498Z" fill="#97E3ED"/>
<path d="M90.9474 90.6104H44.8018V95.8818H90.9474V90.6104Z" fill="#67BBC1"/>
<path d="M101.349 90.6104H90.9453V95.8818H101.349V90.6104Z" fill="#97E3ED"/>
<g opacity="0.5">
<path d="M33.378 62.3065C26.7169 62.3065 21.2979 56.8868 21.2979 50.2264C21.2979 43.5652 26.7169 38.1455 33.378 38.1455C40.0392 38.1455 45.4582 43.5652 45.4582 50.2264C45.4589 56.8868 40.0392 62.3065 33.378 62.3065ZM33.378 39.4634C27.4437 39.4634 22.6157 44.2914 22.6157 50.2264C22.6157 56.1607 27.4437 60.9887 33.378 60.9887C39.3124 60.9887 44.1404 56.1607 44.1404 50.2264C44.141 44.2914 39.313 39.4634 33.378 39.4634Z" fill="#0050B3"/>
<path d="M28.916 57.0822V43.3633L40.7972 50.2228L28.916 57.0822ZM30.2339 45.6458V54.8004L38.1615 50.2234L30.2339 45.6458Z" fill="#D055AB"/>
</g>
<g opacity="0.7">
<path d="M54.364 161.922H7.25045C3.61117 161.922 0.661133 158.972 0.661133 155.333V132.082C0.661133 128.443 3.61117 125.493 7.25045 125.493H54.364C58.0033 125.493 60.9534 128.443 60.9534 132.082V155.333C60.9527 158.972 58.0027 161.922 54.364 161.922Z" fill="#D6E4FF"/>
<path d="M54.3618 162.578H7.24825C3.25183 162.578 0 159.326 0 155.33V132.08C0 128.083 3.25183 124.832 7.24825 124.832H54.3618C58.3583 124.832 61.6101 128.084 61.6101 132.08V155.33C61.6094 159.327 58.3583 162.578 54.3618 162.578ZM7.24825 126.15C3.97863 126.15 1.31786 128.81 1.31786 132.08V155.33C1.31786 158.6 3.97863 161.26 7.24825 161.26H54.3618C57.6315 161.26 60.2922 158.6 60.2922 155.33V132.08C60.2922 128.81 57.6315 126.15 54.3618 126.15H7.24825Z" fill="#D6E4FF"/>
<path d="M125.037 161.922H77.9233C74.284 161.922 71.334 158.972 71.334 155.333V132.082C71.334 128.443 74.284 125.493 77.9233 125.493H125.037C128.676 125.493 131.626 128.443 131.626 132.082V155.333C131.626 158.972 128.676 161.922 125.037 161.922Z" fill="#D6E4FF"/>
<path d="M125.035 162.578H77.9211C73.9247 162.578 70.6729 159.326 70.6729 155.33V132.08C70.6729 128.083 73.9247 124.832 77.9211 124.832H125.035C129.032 124.832 132.283 128.084 132.283 132.08V155.33C132.283 159.327 129.032 162.578 125.035 162.578ZM77.9211 126.15C74.6515 126.15 71.9907 128.81 71.9907 132.08V155.33C71.9907 158.6 74.6515 161.26 77.9211 161.26H125.035C128.304 161.26 130.965 158.6 130.965 155.33V132.08C130.965 128.81 128.304 126.15 125.035 126.15H77.9211Z" fill="#D6E4FF"/>
<path d="M54.364 207.139H7.25045C3.61117 207.139 0.661133 204.189 0.661133 200.55V177.299C0.661133 173.66 3.61117 170.71 7.25045 170.71H54.364C58.0033 170.71 60.9534 173.66 60.9534 177.299V200.55C60.9527 204.188 58.0027 207.139 54.364 207.139Z" fill="#D6E4FF"/>
<path d="M54.3618 207.795H7.24825C3.25183 207.795 0 204.543 0 200.547V177.297C0 173.3 3.25183 170.049 7.24825 170.049H54.3618C58.3583 170.049 61.6101 173.3 61.6101 177.297V200.547C61.6094 204.544 58.3583 207.795 54.3618 207.795ZM7.24825 171.367C3.97863 171.367 1.31786 174.027 1.31786 177.297V200.547C1.31786 203.817 3.97863 206.477 7.24825 206.477H54.3618C57.6315 206.477 60.2922 203.817 60.2922 200.547V177.297C60.2922 174.027 57.6315 171.367 54.3618 171.367H7.24825Z" fill="#D6E4FF"/>
<path d="M125.037 207.139H77.9233C74.284 207.139 71.334 204.189 71.334 200.55V177.299C71.334 173.66 74.284 170.71 77.9233 170.71H125.037C128.676 170.71 131.626 173.66 131.626 177.299V200.55C131.626 204.188 128.676 207.139 125.037 207.139Z" fill="#D6E4FF"/>
<path d="M125.035 207.795H77.9211C73.9247 207.795 70.6729 204.543 70.6729 200.547V177.297C70.6729 173.3 73.9247 170.049 77.9211 170.049H125.035C129.032 170.049 132.283 173.3 132.283 177.297V200.547C132.283 204.544 129.032 207.795 125.035 207.795ZM77.9211 171.367C74.6515 171.367 71.9907 174.027 71.9907 177.297V200.547C71.9907 203.817 74.6515 206.477 77.9211 206.477H125.035C128.304 206.477 130.965 203.817 130.965 200.547V177.297C130.965 174.027 128.304 171.367 125.035 171.367H77.9211Z" fill="#D6E4FF"/>
</g>
<path d="M118.56 220.565H76.1689V223.86H118.56V220.565Z" fill="#0050B3"/>
<path d="M106.641 229.136H76.1689V232.43H106.641V229.136Z" fill="#0050B3"/>
<path d="M118.566 229.136H111.537V232.43H118.566V229.136Z" fill="#0050B3"/>
<path d="M49.1967 220.565H6.80566V223.86H49.1967V220.565Z" fill="#0050B3"/>
<path d="M28.9899 229.136H6.80566V232.43H28.9899V229.136Z" fill="#0050B3"/>
<path d="M55.1824 237.705H6.80566V241H55.1824V237.705Z" fill="#0050B3"/>
<path d="M31.7904 246.268H6.80566V249.562H31.7904V246.268Z" fill="#0050B3"/>
<path d="M44.0993 246.268H36.7041V249.562H44.0993V246.268Z" fill="#0050B3"/>
<g opacity="0.8">
<path d="M335.578 263.651H200.278C196.639 263.651 193.688 260.701 193.688 257.061V164.811C193.688 161.172 196.639 158.222 200.278 158.222H335.578C339.217 158.222 342.168 161.172 342.168 164.811V257.061C342.168 260.701 339.217 263.651 335.578 263.651Z" fill="#0050B3"/>
<path d="M335.576 264.307H200.276C196.279 264.307 193.027 261.056 193.027 257.059V164.809C193.027 160.812 196.279 157.561 200.276 157.561H335.576C339.572 157.561 342.824 160.812 342.824 164.809V257.059C342.824 261.056 339.572 264.307 335.576 264.307ZM200.276 158.878C197.005 158.878 194.345 161.539 194.345 164.809V257.059C194.345 260.329 197.005 262.99 200.276 262.99H335.576C338.846 262.99 341.506 260.329 341.506 257.059V164.809C341.506 161.539 338.846 158.878 335.576 158.878H200.276Z" fill="#EBF2FF"/>
</g>
<path d="M238.673 169.689H205.076V172.984H238.673V169.689Z" fill="#67BBC1"/>
<path d="M246.342 178.254H205.076V181.549H246.342V178.254Z" fill="#67BBC1"/>
<path d="M233.603 186.82H205.076V190.115H233.603V186.82Z" fill="#67BBC1"/>
<path d="M233.603 195.383H205.076V198.677H233.603V195.383Z" fill="#67BBC1"/>
<path d="M245.913 195.383H238.518V198.677H245.913V195.383Z" fill="#67BBC1"/>
<path d="M304.563 216.676H270.966V219.97H304.563V216.676Z" fill="#67BBC1"/>
<path d="M319.205 216.676H311.802V219.97H319.205V216.676Z" fill="#67BBC1"/>
<path d="M299.492 225.241H270.966V228.536H299.492V225.241Z" fill="#67BBC1"/>
<path d="M331.779 225.241H306.521V228.536H331.779V225.241Z" fill="#67BBC1"/>
<path d="M291.599 233.812H270.966V237.106H291.599V233.812Z" fill="#67BBC1"/>
<path d="M331.785 233.812H297.793V237.106H331.785V233.812Z" fill="#67BBC1"/>
<path d="M299.492 242.381H270.966V245.676H299.492V242.381Z" fill="#67BBC1"/>
<path d="M311.802 242.381H304.407V245.676H311.802V242.381Z" fill="#67BBC1"/>
<path d="M328.494 207.399H274.901C273.082 207.399 271.606 205.923 271.606 204.104V172.603C271.606 170.784 273.082 169.309 274.901 169.309H328.494C330.313 169.309 331.789 170.784 331.789 172.603V204.104C331.789 205.923 330.314 207.399 328.494 207.399Z" fill="#BAE7FF"/>
<path d="M328.492 208.056H274.899C272.718 208.056 270.945 206.283 270.945 204.103V172.601C270.945 170.421 272.718 168.647 274.899 168.647H328.492C330.672 168.647 332.445 170.421 332.445 172.601V204.103C332.445 206.283 330.672 208.056 328.492 208.056ZM274.899 169.965C273.445 169.965 272.263 171.147 272.263 172.601V204.103C272.263 205.556 273.445 206.738 274.899 206.738H328.492C329.945 206.738 331.127 205.556 331.127 204.103V172.601C331.127 171.147 329.945 169.965 328.492 169.965H274.899Z" fill="#BAE7FF"/>
<path d="M314.094 184.584L306.557 194.197L293.935 178.099L278.24 198.114H303.485H309.628H324.703L314.094 184.584Z" fill="#BAE7FF"/>
<path d="M305.663 183.516C307.854 183.516 309.629 181.741 309.629 179.55C309.629 177.36 307.854 175.584 305.663 175.584C303.473 175.584 301.697 177.36 301.697 179.55C301.697 181.741 303.473 183.516 305.663 183.516Z" fill="#BAE7FF"/>
<path d="M251.17 252.557H207.351C205.532 252.557 204.057 251.081 204.057 249.262V219.977C204.057 218.158 205.532 216.683 207.351 216.683H251.17C252.99 216.683 254.465 218.158 254.465 219.977V249.262C254.465 251.081 252.99 252.557 251.17 252.557Z" fill="#BAE7FF"/>
<path d="M251.17 253.214H207.351C205.171 253.214 203.397 251.44 203.397 249.26V219.975C203.397 217.795 205.171 216.021 207.351 216.021H251.17C253.35 216.021 255.124 217.795 255.124 219.975V249.26C255.124 251.44 253.35 253.214 251.17 253.214ZM207.351 217.339C205.897 217.339 204.715 218.521 204.715 219.975V249.26C204.715 250.714 205.897 251.896 207.351 251.896H251.17C252.624 251.896 253.806 250.714 253.806 249.26V219.975C253.806 218.521 252.624 217.339 251.17 217.339H207.351Z" fill="#BAE7FF"/>
<path d="M239.65 232.277L233.337 240.328L222.764 226.845L209.619 243.609H230.764H235.91H248.536L239.65 232.277Z" fill="#BAE7FF"/>
<path d="M232.585 231.377C234.42 231.377 235.907 229.89 235.907 228.055C235.907 226.221 234.42 224.733 232.585 224.733C230.751 224.733 229.264 226.221 229.264 228.055C229.264 229.89 230.751 231.377 232.585 231.377Z" fill="#BAE7FF"/>
<g opacity="0.8">
<path d="M306.033 63.3406C308.123 67.5149 309.306 72.219 309.306 77.1959C309.306 94.3268 295.37 108.263 278.239 108.263C261.108 108.263 247.172 94.3268 247.172 77.1959C247.172 60.0657 261.108 46.1286 278.239 46.1286V40.1982C257.838 40.1982 241.241 56.7954 241.241 77.1959C241.241 97.5964 257.839 114.194 278.239 114.194C298.639 114.194 315.237 97.5964 315.237 77.1959C315.237 71.2866 313.836 65.7009 311.363 60.7411L306.033 63.3406Z" fill="#0050B3"/>
<path d="M278.246 46.1273C290.399 46.1273 300.938 53.1456 306.04 63.3386L311.37 60.7391C305.302 48.5753 292.738 40.1963 278.247 40.1963L278.246 46.1273Z" fill="#0050B3"/>
<path d="M305.855 77.1842C305.855 61.9543 293.465 49.5645 278.235 49.5645V55.4948C290.195 55.4948 299.925 65.2246 299.925 77.1849C299.925 85.554 295.157 92.8253 288.199 96.4408L290.89 101.723C299.769 97.1242 305.855 87.8543 305.855 77.1842Z" fill="#0050B3"/>
<path d="M278.239 98.873C266.279 98.873 256.549 89.1432 256.549 77.1829C256.549 65.2233 266.278 55.4935 278.239 55.4929V49.5625C263.009 49.5625 250.618 61.9531 250.618 77.1823C250.618 92.4122 263.009 104.803 278.239 104.803C282.798 104.803 287.099 103.685 290.893 101.72L288.202 96.4382C285.217 97.99 281.83 98.873 278.239 98.873Z" fill="#0050B3"/>
<path d="M278.229 58.7285V64.6589C285.141 64.6589 290.765 70.2829 290.765 77.1957C290.765 84.1086 285.141 89.7326 278.229 89.7326C273.9 89.7326 270.078 87.5271 267.824 84.1817L262.968 87.5818C266.296 92.4559 271.894 95.6629 278.229 95.6629C288.411 95.6629 296.695 87.3789 296.695 77.1957C296.696 67.0126 288.412 58.7285 278.229 58.7285Z" fill="#0050B3"/>
<path d="M265.7 77.1957C265.7 70.2835 271.324 64.6589 278.237 64.6589V58.7285C268.054 58.7285 259.77 67.0126 259.77 77.1957C259.77 81.0445 260.954 84.6206 262.977 87.5818L267.833 84.1817C266.487 82.1838 265.7 79.7801 265.7 77.1957Z" fill="#0050B3"/>
</g>
<g opacity="0.5">
<path d="M12.0814 116.287H3.9541V48.8633H12.0814V50.1811H5.27262V114.969H12.0814V116.287Z" fill="#0050B3"/>
<path d="M76.8179 44.0975H75.5V25.4609H278.891V32.0509H277.573V26.7788H76.8179V44.0975Z" fill="#0050B3"/>
<path d="M329.337 151.551H328.019V83.064H321.885V81.7461H329.337V151.551Z" fill="#0050B3"/>
</g>
</g>
<path opacity="0.3" d="M58.7151 3.11523H44.0986V17.7317H58.7151V3.11523Z" fill="#0050B3"/>
<path opacity="0.3" d="M62.8098 11.4248H52.4863V21.7483H62.8098V11.4248Z" fill="#0050B3"/>
<path opacity="0.3" d="M84.3575 11.4248H78.0469V17.7354H84.3575V11.4248Z" fill="#0050B3"/>
<path opacity="0.3" d="M69.5414 34.7881H60.9443V43.3852H69.5414V34.7881Z" fill="#0050B3"/>
<path opacity="0.3" d="M128.421 103.85H119.926V112.345H128.421V103.85Z" fill="#0050B3"/>
<path opacity="0.3" d="M124.34 108.104H114.878V117.566H124.34V108.104Z" fill="#0050B3"/>
<path opacity="0.3" d="M108.55 109.058H103.938V113.67H108.55V109.058Z" fill="#0050B3"/>
<path opacity="0.3" d="M31.8162 106.743H24.0547V114.505H31.8162V106.743Z" fill="#0050B3"/>
<path opacity="0.3" d="M26.6102 94.0615H22.5742V98.0975H26.6102V94.0615Z" fill="#0050B3"/>
<path opacity="0.3" d="M11.4049 101.659H8.00879V105.055H11.4049V101.659Z" fill="#0050B3"/>
<path opacity="0.3" d="M238.486 101.659H232.585V107.561H238.486V101.659Z" fill="#0050B3"/>
<path opacity="0.3" d="M317.895 21.5283H304.64V34.7834H317.895V21.5283Z" fill="#0050B3"/>
<path opacity="0.3" d="M322.189 29.874H313.208V38.8553H322.189V29.874Z" fill="#0050B3"/>
<path opacity="0.3" d="M332.469 16.3184H324.188V24.5985H332.469V16.3184Z" fill="#0050B3"/>
<path opacity="0.3" d="M305.855 9.21973H301.568V13.5067H305.855V9.21973Z" fill="#0050B3"/>
<path opacity="0.3" d="M274.018 0H262.649V11.3685H274.018V0Z" fill="#0050B3"/>
<path opacity="0.3" d="M266.577 6.7373H253.705V19.6089H266.577V6.7373Z" fill="#0050B3"/>
<path opacity="0.3" d="M247.69 2.85547H240.818V9.72746H247.69V2.85547Z" fill="#0050B3"/>
<path opacity="0.3" d="M149.417 2.85547H142.545V9.72746H149.417V2.85547Z" fill="#0050B3"/>
<path opacity="0.3" d="M324.696 121.163H314.784V131.075H324.696V121.163Z" fill="#0050B3"/>
<path opacity="0.3" d="M332.442 127.011H320.896V138.556H332.442V127.011Z" fill="#0050B3"/>
<path opacity="0.3" d="M343.09 117.782H331.122V129.75H343.09V117.782Z" fill="#0050B3"/>
<path opacity="0.3" d="M352.834 122.562H348.386V127.01H352.834V122.562Z" fill="#0050B3"/>
<path opacity="0.3" d="M347.526 143.541H340.827V150.24H347.526V143.541Z" fill="#0050B3"/>
<path opacity="0.3" d="M331.148 51.7598H324.188V58.7194H331.148V51.7598Z" fill="#0050B3"/>
<path opacity="0.3" d="M19.2977 13.1807H6.80566V25.6727H19.2977V13.1807Z" fill="#0050B3"/>
<path opacity="0.3" d="M22.8474 20.6416H14.2812V29.2077H22.8474V20.6416Z" fill="#0050B3"/>
<path opacity="0.3" d="M76.1642 239.348H64.8721V250.64H76.1642V239.348Z" fill="#0050B3"/>
<path opacity="0.3" d="M91.3986 251.897H86.6826V256.613H91.3986V251.897Z" fill="#0050B3"/>
<path opacity="0.3" d="M111.354 240.996H102.788V249.562H111.354V240.996Z" fill="#0050B3"/>
<path opacity="0.3" d="M115.8 247.511H109.057V254.254H115.8V247.511Z" fill="#0050B3"/>
<path opacity="0.3" d="M122.922 241.829H118.557V246.195H122.922V241.829Z" fill="#0050B3"/>
<path opacity="0.3" d="M102.053 235.979H99.1699V238.861H102.053V235.979Z" fill="#0050B3"/>
</svg>
