<svg width="54" height="54" viewBox="0 0 54 54" fill="none" xmlns="http://www.w3.org/2000/svg">
<g clip-path="url(#clip0_37_1111)">
<path d="M52.3125 0.84375H20.25C19.784 0.84375 19.4062 1.22151 19.4062 1.6875V23.625C19.4062 24.091 19.784 24.4688 20.25 24.4688H52.3125C52.7785 24.4688 53.1562 24.091 53.1562 23.625V1.6875C53.1562 1.22151 52.7785 0.84375 52.3125 0.84375Z" fill="#602EDF"/>
<path d="M37.9688 13.5H10.9688C10.5028 13.5 10.125 13.8778 10.125 14.3438V32.9062C10.125 33.3722 10.5028 33.75 10.9688 33.75H37.9688C38.4347 33.75 38.8125 33.3722 38.8125 32.9062V14.3438C38.8125 13.8778 38.4347 13.5 37.9688 13.5Z" fill="#458AE6"/>
<path d="M25.3125 23.625H1.6875C1.22151 23.625 0.84375 24.0028 0.84375 24.4688V41.3438C0.84375 41.8097 1.22151 42.1875 1.6875 42.1875H25.3125C25.7785 42.1875 26.1562 41.8097 26.1562 41.3438V24.4688C26.1562 24.0028 25.7785 23.625 25.3125 23.625Z" fill="#602EDF"/>
<path d="M52.7749 47.3505L52.3327 47.1067C52.2054 47.0406 52.1013 46.9373 52.0342 46.8105C51.9671 46.6837 51.9403 46.5395 51.9573 46.3971C52.0372 45.8436 52.0372 45.2816 51.9573 44.7281C51.9403 44.5857 51.9671 44.4415 52.0342 44.3147C52.1013 44.1879 52.2054 44.0846 52.3327 44.0185L52.7749 43.7747C52.8605 43.7295 52.9361 43.6674 52.9969 43.592C53.0577 43.5167 53.1026 43.4298 53.1287 43.3365C53.1549 43.2433 53.1617 43.1457 53.1489 43.0497C53.1361 42.9537 53.1038 42.8614 53.0542 42.7782L51.8307 40.7532C51.7241 40.584 51.5566 40.462 51.3628 40.4124C51.169 40.3628 50.9635 40.3894 50.7887 40.4866L50.3415 40.733C50.2051 40.8052 50.0509 40.8369 49.897 40.8244C49.7432 40.8118 49.5962 40.7555 49.4733 40.6621C49.0327 40.3389 48.553 40.0727 48.0457 39.8698C47.9038 39.8189 47.7805 39.7265 47.6919 39.6046C47.6033 39.4828 47.5534 39.337 47.5487 39.1864V38.6979C47.544 38.5007 47.4616 38.3134 47.3193 38.1768C47.177 38.0402 46.9865 37.9655 46.7893 37.9689H44.3424C44.1452 37.9655 43.9547 38.0402 43.8124 38.1768C43.6702 38.3134 43.5877 38.5007 43.5831 38.6979V39.1864C43.5784 39.337 43.5285 39.4828 43.4398 39.6046C43.3512 39.7265 43.2279 39.8189 43.0861 39.8698C42.5787 40.0727 42.0991 40.3389 41.6585 40.6621C41.5356 40.7555 41.3885 40.8118 41.2347 40.8244C41.0809 40.8369 40.9267 40.8052 40.7903 40.733L40.3431 40.4866C40.1682 40.3894 39.9628 40.3628 39.7689 40.4124C39.5751 40.462 39.4077 40.584 39.301 40.7532L38.0776 42.7782C38.0279 42.8614 37.9957 42.9537 37.9828 43.0497C37.97 43.1457 37.9769 43.2433 38.003 43.3365C38.0291 43.4298 38.074 43.5167 38.1348 43.592C38.1957 43.6674 38.2712 43.7295 38.3569 43.7747L38.799 44.0185C38.9263 44.0846 39.0304 44.1879 39.0975 44.3147C39.1646 44.4415 39.1915 44.5857 39.1745 44.7281C39.0946 45.2816 39.0946 45.8436 39.1745 46.3971C39.1915 46.5395 39.1646 46.6837 39.0975 46.8105C39.0304 46.9373 38.9263 47.0406 38.799 47.1067L38.3569 47.3505C38.2712 47.3957 38.1957 47.4579 38.1348 47.5332C38.074 47.6085 38.0291 47.6955 38.003 47.7887C37.9769 47.882 37.97 47.9795 37.9828 48.0755C37.9957 48.1715 38.0279 48.2639 38.0776 48.347L39.301 50.372C39.4077 50.5413 39.5751 50.6633 39.7689 50.7128C39.9628 50.7624 40.1682 50.7359 40.3431 50.6386L40.7903 50.3922C40.9267 50.32 41.0809 50.2883 41.2347 50.3009C41.3885 50.3134 41.5356 50.3697 41.6585 50.4631C42.0991 50.7863 42.5787 51.0525 43.0861 51.2554C43.2279 51.3063 43.3512 51.3987 43.4398 51.5206C43.5285 51.6425 43.5784 51.7882 43.5831 51.9388V52.4274C43.5877 52.6245 43.6702 52.8118 43.8124 52.9484C43.9547 53.085 44.1452 53.1598 44.3424 53.1564H46.7893C46.9865 53.1598 47.177 53.085 47.3193 52.9484C47.4616 52.8118 47.544 52.6245 47.5487 52.4274V51.9388C47.5534 51.7882 47.6033 51.6425 47.6919 51.5206C47.7805 51.3987 47.9038 51.3063 48.0457 51.2554C48.553 51.0525 49.0327 50.7863 49.4733 50.4631C49.5962 50.3697 49.7432 50.3134 49.897 50.3009C50.0509 50.2883 50.2051 50.32 50.3415 50.3922L50.7887 50.6386C50.9635 50.7359 51.169 50.7624 51.3628 50.7128C51.5566 50.6633 51.7241 50.5413 51.8307 50.372L53.0542 48.347C53.1038 48.2639 53.1361 48.1715 53.1489 48.0755C53.1617 47.9795 53.1549 47.882 53.1287 47.7887C53.1026 47.6955 53.0577 47.6085 52.9969 47.5332C52.9361 47.4579 52.8605 47.3957 52.7749 47.3505ZM45.5625 48.4103C44.9993 48.4103 44.4487 48.2433 43.9804 47.9304C43.5121 47.6174 43.1471 47.1727 42.9316 46.6524C42.7161 46.132 42.6597 45.5595 42.7696 45.0071C42.8794 44.4547 43.1506 43.9473 43.5489 43.549C43.9472 43.1508 44.4546 42.8795 45.007 42.7697C45.5593 42.6598 46.1319 42.7162 46.6523 42.9317C47.1726 43.1473 47.6173 43.5122 47.9302 43.9805C48.2431 44.4488 48.4102 44.9994 48.4102 45.5626C48.4102 46.3179 48.1101 47.0422 47.5761 47.5762C47.0421 48.1102 46.3177 48.4103 45.5625 48.4103Z" fill="#596C80"/>
<path d="M35.4375 50.625H14.3438C14.12 50.625 13.9054 50.5361 13.7471 50.3779C13.5889 50.2196 13.5 50.005 13.5 49.7812V44.7188H15.1875V48.9375H35.4375V50.625Z" fill="#7A8899"/>
<path d="M35.4375 43.875H31.2188C30.995 43.875 30.7804 43.7861 30.6221 43.6279C30.4639 43.4696 30.375 43.255 30.375 43.0312V36.2812H32.0625V42.1875H35.4375V43.875Z" fill="#7A8899"/>
<path d="M45.5625 27H47.25V35.4375H45.5625V27Z" fill="#7A8899"/>
<path d="M49.7812 2.53125H51.4688V4.21875H49.7812V2.53125Z" fill="#F2F2F2"/>
<path d="M46.4062 2.53125H48.0938V4.21875H46.4062V2.53125Z" fill="#F2F2F2"/>
<path d="M35.4375 15.1875H37.125V16.875H35.4375V15.1875Z" fill="#F2F2F2"/>
<path d="M32.0625 15.1875H33.75V16.875H32.0625V15.1875Z" fill="#F2F2F2"/>
<path d="M22.7812 25.3125H24.4688V27H22.7812V25.3125Z" fill="#F2F2F2"/>
<path d="M19.4062 25.3125H21.0938V27H19.4062V25.3125Z" fill="#F2F2F2"/>
</g>
<defs>
<clipPath id="clip0_37_1111">
<rect width="54" height="54" fill="white"/>
</clipPath>
</defs>
</svg>
