<svg width="44" height="44" viewBox="0 0 44 44" fill="none" xmlns="http://www.w3.org/2000/svg">
<path fill-rule="evenodd" clip-rule="evenodd" d="M18.4303 17.9199H21.8615C22.2749 17.9199 22.6121 18.2571 22.6121 18.6705V36.7665C22.6121 37.1799 22.2749 37.517 21.8615 37.517H18.4303C18.0169 37.517 17.6797 37.1799 17.6797 36.7665V18.6705C17.6797 18.2571 18.0168 17.9199 18.4303 17.9199Z" fill="#6CF5C2"/>
<path fill-rule="evenodd" clip-rule="evenodd" d="M18.4303 17.9199H19.9315C19.5181 17.9199 19.1809 18.2571 19.1809 18.6705V36.7664C19.1809 37.1799 19.5181 37.517 19.9315 37.517H18.4303C18.0169 37.517 17.6797 37.1799 17.6797 36.7664V18.6705C17.6797 18.2571 18.0168 17.9199 18.4303 17.9199Z" fill="#00E499"/>
<path fill-rule="evenodd" clip-rule="evenodd" d="M27.5865 23.0957H31.0178C31.4313 23.0957 31.7684 23.4329 31.7684 23.8464V36.7654C31.7684 37.1789 31.4313 37.516 31.0178 37.516C29.8741 37.516 28.7303 37.516 27.5865 37.516C27.1731 37.516 26.8359 37.1788 26.8359 36.7654C26.8359 32.1928 26.8359 28.419 26.8359 23.8464C26.8359 23.4329 27.1731 23.0957 27.5865 23.0957Z" fill="#FFE177"/>
<path fill-rule="evenodd" clip-rule="evenodd" d="M27.5865 23.0957H29.0877C28.6742 23.0957 28.3371 23.4329 28.3371 23.8463V36.7654C28.3371 37.1788 28.6742 37.5159 29.0877 37.5159H27.5865C27.1731 37.5159 26.8359 37.1787 26.8359 36.7654C26.8359 32.1927 26.8359 28.4189 26.8359 23.8463C26.8359 23.4328 27.1731 23.0957 27.5865 23.0957Z" fill="#FFD064"/>
<path fill-rule="evenodd" clip-rule="evenodd" d="M40.1779 28.0547H36.7467C36.3333 28.0547 35.9961 28.3918 35.9961 28.8053V36.7666C35.9961 37.18 36.3332 37.5172 36.7467 37.5172H40.1779C40.5913 37.5172 40.9285 37.18 40.9285 36.7666V28.8052C40.9285 28.3918 40.5913 28.0547 40.1779 28.0547Z" fill="#FE646F"/>
<path fill-rule="evenodd" clip-rule="evenodd" d="M38.2479 28.0547H36.7467C36.3333 28.0547 35.9961 28.3918 35.9961 28.8053V36.7666C35.9961 37.18 36.3332 37.5172 36.7467 37.5172H38.2479C37.8346 37.5172 37.4973 37.18 37.4973 36.7666V28.8052C37.4973 28.3918 37.8346 28.0547 38.2479 28.0547Z" fill="#FD4755"/>
<path fill-rule="evenodd" clip-rule="evenodd" d="M42.5584 36.9805H6.88991C6.47724 36.9805 6.14062 37.3171 6.14062 37.7298V38.0905C6.14062 38.5033 6.47724 38.8398 6.88991 38.8398H42.5584C42.9711 38.8398 43.3076 38.5032 43.3076 38.0905V37.7298C43.3077 37.3171 42.9711 36.9805 42.5584 36.9805Z" fill="#A79BA7"/>
<path fill-rule="evenodd" clip-rule="evenodd" d="M6.14062 37.9102V38.0905C6.14062 38.5033 6.47724 38.8398 6.88991 38.8398H42.5584C42.9711 38.8398 43.3076 38.5032 43.3076 38.0905V37.9102H6.14062Z" fill="#837683"/>
<path fill-rule="evenodd" clip-rule="evenodd" d="M35.3885 18.3775C31.8909 18.2709 28.1576 17.209 24.6785 15.1314C19.5093 12.0445 16.048 7.40042 14.8828 2.70703C16.6323 5.79605 19.1189 8.48934 22.909 10.7526C26.346 12.805 31.7236 14.4059 35.6485 14.5125L35.7943 12.3441C35.8003 12.2554 35.853 12.1827 35.9354 12.1492C36.0179 12.1159 36.1064 12.1315 36.1724 12.1911L41.019 16.5664C41.0721 16.6143 41.0979 16.6776 41.0933 16.749C41.0888 16.8204 41.0553 16.8799 40.9966 16.9207L35.6034 20.6708C35.5302 20.7217 35.44 20.7259 35.3623 20.6819C35.2847 20.638 35.2419 20.5585 35.2479 20.4695L35.3885 18.3775Z" fill="#FFE177"/>
<path fill-rule="evenodd" clip-rule="evenodd" d="M35.3885 18.3775C31.8909 18.2709 28.1576 17.209 24.6785 15.1314C19.5093 12.0445 16.048 7.40042 14.8828 2.70703C14.9089 2.75309 14.9351 2.7989 14.9614 2.8447L14.9633 2.84788L14.9651 2.85106L14.9653 2.85149L14.9669 2.85433L14.9688 2.85751L15.0001 2.91182C16.4568 7.11339 20.3122 11.5031 24.3778 13.9309C28.4434 16.3587 31.8911 17.0888 35.3888 17.1954L35.3885 18.3775ZM40.3489 15.9617L35.3157 19.4616L35.2479 20.4696C35.2418 20.5587 35.2846 20.6381 35.3623 20.6821C35.4399 20.7261 35.5301 20.7219 35.6034 20.671L40.9965 16.9209C41.0552 16.8801 41.0888 16.8205 41.0932 16.7492C41.0978 16.6778 41.072 16.6146 41.0189 16.5666L40.3489 15.9617Z" fill="#FFD064"/>
<path fill-rule="evenodd" clip-rule="evenodd" d="M12.951 16.4288L13.9494 19.4107C16.5519 22.2015 18.448 24.566 19.6375 26.6546C23.4399 33.331 18.0307 40.112 10.7864 39.99C3.54213 40.1121 -1.86703 33.3311 1.93527 26.6546C3.12482 24.566 5.02094 22.2016 7.62339 19.4107L8.62525 16.432L6.18669 13.9936C5.59148 13.3984 5.59148 12.4244 6.18669 11.8291C6.69294 11.3229 7.4944 11.2373 8.09673 11.624C8.32051 11.7676 8.57755 11.7906 8.82308 11.6889C9.0686 11.5871 9.23412 11.3893 9.29083 11.1295C9.4408 10.4425 10.0559 9.92391 10.7864 9.92383C11.5036 9.92383 12.1292 10.4294 12.2821 11.1295C12.3389 11.3893 12.5043 11.5871 12.7498 11.6889C12.9954 11.7906 13.2524 11.7677 13.4761 11.624C14.0678 11.2442 14.8696 11.3127 15.3862 11.8291V11.8291C15.9814 12.4244 15.9814 13.3984 15.3862 13.9936L12.951 16.4288Z" fill="#BFABF2"/>
<path fill-rule="evenodd" clip-rule="evenodd" d="M12.9511 16.4288L13.9495 19.4107C16.552 22.2015 18.4481 24.5659 19.6376 26.6546C23.44 33.331 18.0308 40.112 10.7865 39.99C10.6446 39.9924 10.5038 39.9912 10.3634 39.9884C17.3926 39.8457 22.5194 33.2003 18.7915 26.6547C17.602 24.5661 15.7058 22.2017 13.1034 19.4108L12.105 16.4289L14.5402 13.9937C15.1354 13.3985 15.1354 12.4244 14.5402 11.8292V11.8291C14.3507 11.6397 14.1227 11.5106 13.8808 11.4417C14.3986 11.2943 14.9805 11.4234 15.3862 11.8291V11.8292C15.9814 12.4244 15.9814 13.3985 15.3862 13.9937L12.9511 16.4288ZM6.84766 11.4419C7.26093 11.3245 7.71829 11.3809 8.09702 11.624L8.10011 11.6259C8.06178 11.6498 8.02079 11.6709 7.97731 11.6888C7.7317 11.7905 7.47474 11.7676 7.25096 11.6239C7.12377 11.5425 6.98782 11.482 6.84766 11.4419ZM10.3632 9.98381C10.8924 10.1373 11.3143 10.5716 11.4361 11.1295C11.4928 11.3893 11.6583 11.5871 11.9038 11.6889C12.1484 11.7902 12.4041 11.7678 12.627 11.6259C12.4491 11.515 12.3288 11.3433 12.2823 11.1295C12.1294 10.4293 11.5037 9.92383 10.7865 9.92383C10.6399 9.92383 10.4978 9.9448 10.3632 9.98381Z" fill="#F5B829"/>
<path fill-rule="evenodd" clip-rule="evenodd" d="M7.46595 19.4103H14.1105C14.9297 19.4103 15.5998 18.7401 15.5998 17.921C15.5998 17.1018 14.9297 16.4316 14.1105 16.4316H7.46595C6.6467 16.4316 5.97656 17.1018 5.97656 17.9209C5.97656 18.7402 6.6467 19.4103 7.46595 19.4103Z" fill="#837683"/>
<path fill-rule="evenodd" clip-rule="evenodd" d="M13.2617 19.4103H14.1079C14.9271 19.4103 15.5972 18.74 15.5972 17.921C15.5972 17.1018 14.927 16.4316 14.1079 16.4316H13.2617C14.081 16.4316 14.7511 17.1018 14.7511 17.921C14.7511 18.74 14.081 19.4103 13.2617 19.4103Z" fill="#685E68"/>
<path fill-rule="evenodd" clip-rule="evenodd" d="M14.0112 31.5249C14.0923 32.1943 13.9127 32.807 13.4898 33.2959C13.0308 33.8262 12.2909 34.1906 11.4452 34.3188V34.8207C11.4452 35.2002 11.1374 35.508 10.758 35.508C10.3781 35.508 10.0704 35.2002 10.0704 34.8207V34.3082C8.78842 34.0816 7.80083 33.239 7.50529 32.0548C7.41325 31.6863 7.63746 31.3133 8.00639 31.2212C8.37498 31.1304 8.74795 31.3538 8.83999 31.7223C9.07107 32.6516 9.99387 32.9848 10.7529 32.9933C10.7597 32.9941 10.7666 32.9941 10.7735 32.9941C10.7982 32.9941 10.8226 32.9933 10.8465 32.9933C11.5211 32.9771 12.15 32.7424 12.45 32.3962C12.6182 32.2012 12.6815 31.9765 12.6458 31.6899C12.5894 31.2188 12.3109 30.6423 10.654 30.3706C8.33974 29.9899 7.80006 28.7947 7.75468 27.8586C7.69186 26.5628 8.59231 25.4791 9.99473 25.1604C10.0198 25.1552 10.0446 25.1499 10.0705 25.1446V24.6216C10.0705 24.2417 10.3783 23.934 10.7581 23.934C11.1376 23.934 11.4453 24.2417 11.4453 24.6216V25.1385C12.3875 25.3193 13.2973 25.895 13.7639 27.0071C13.9107 27.357 13.7469 27.7596 13.3962 27.9068C13.0464 28.0536 12.6433 27.8886 12.4965 27.5391C12.1714 26.7647 11.4736 26.4492 10.7982 26.4468C10.6736 26.4459 10.4389 26.4699 10.299 26.5015C9.7083 26.6349 9.09161 27.0448 9.1277 27.7916C9.14025 28.0495 9.17394 28.7335 10.8764 29.0137C11.5907 29.1304 13.7638 29.4872 14.0112 31.5249ZM42.6206 38.1728H18.1709C18.3566 38.0184 18.5362 37.8558 18.7106 37.6883H42.6207L42.6206 38.1728ZM10.7742 39.3226C10.7819 39.3226 10.9177 39.3247 10.9777 39.3247C14.4231 39.3247 17.5424 37.658 19.1488 34.946C20.5986 32.5008 20.5597 29.6839 19.0393 27.0149C17.9524 25.107 16.2361 22.9103 13.6495 20.1193H7.92269C5.33606 22.9103 3.61903 25.107 2.53286 27.0149C1.01246 29.6839 0.973955 32.5008 2.4226 34.946C4.05808 37.7054 7.25899 39.3794 10.7742 39.3226ZM7.46378 17.1397H14.1085C14.5504 17.1397 14.9104 17.4997 14.9104 17.9424C14.9104 18.384 14.5504 18.7444 14.1085 18.7444H7.46378C7.02224 18.7444 6.66181 18.384 6.66181 17.9417C6.66181 17.4997 7.02224 17.1397 7.46378 17.1397ZM6.42746 12.932C6.42746 12.7054 6.51426 12.4937 6.6723 12.3356C6.95082 12.0575 7.39314 12.0101 7.72478 12.2233C8.13753 12.4876 8.63339 12.5318 9.08542 12.3441C9.53832 12.1568 9.85783 11.7753 9.96199 11.2964C10.0463 10.9117 10.3925 10.6316 10.7862 10.6316C11.1795 10.6316 11.5261 10.9117 11.6101 11.2964C11.7143 11.7753 12.0338 12.1568 12.4859 12.3441C12.9388 12.5318 13.4345 12.4876 13.8473 12.2233C14.1789 12.01 14.6213 12.0574 14.8998 12.3356C15.2281 12.6648 15.2281 13.1992 14.8998 13.5276L12.6622 15.7648H8.90908L6.67238 13.5276C6.51426 13.3695 6.42746 13.1583 6.42746 12.932ZM18.3789 18.6394H21.9281V36.3131H19.8972C20.0501 36.0974 20.196 35.8768 20.3322 35.6474C22.0188 32.8 21.9835 29.4065 20.2341 26.3349C19.7415 25.4693 19.1289 24.5518 18.3788 23.5572L18.3789 18.6394ZM27.5214 23.8075H31.0706V36.3131H27.5214V23.8075ZM36.6653 28.7574H40.2144V36.3131H36.6653V28.7574ZM43.3083 36.3131H41.5896V28.0702C41.5896 27.6903 41.2819 27.3826 40.9021 27.3826H35.9777C35.5982 27.3826 35.2904 27.6903 35.2904 28.0702V36.3131H32.4459V23.1202C32.4459 22.7403 32.1382 22.4327 31.7583 22.4327H26.8343C26.4552 22.4327 26.1467 22.7404 26.1467 23.1202V36.3131H23.3029V17.9517C23.3029 17.5718 22.9952 17.2641 22.6153 17.2641H17.6913C17.3114 17.2641 17.0037 17.5719 17.0037 17.9517V21.8342C16.4656 21.1923 15.8762 20.5177 15.2291 19.807C15.8616 19.4255 16.2853 18.7322 16.2853 17.9424C16.2853 16.8964 15.5437 16.0207 14.5597 15.8126L15.8717 14.5006C16.7365 13.6351 16.7365 12.2286 15.8717 11.3638C15.1399 10.6316 13.9763 10.5059 13.1039 11.0658C13.0694 11.088 13.05 11.0897 13.0126 11.0743C12.975 11.0585 12.9619 11.0431 12.9534 11.0037C12.7324 9.99132 11.821 9.25672 10.7864 9.25672C9.75135 9.25672 8.8399 9.99132 8.61896 11.0037C8.61045 11.0431 8.59747 11.0585 8.55974 11.0743C8.52159 11.0897 8.50217 11.088 8.4677 11.0658C7.59604 10.5059 6.43245 10.6316 5.7006 11.3638C5.2826 11.7814 5.05272 12.3384 5.05272 12.932C5.05272 13.5252 5.2826 14.0826 5.7006 14.5006L7.01261 15.8126C6.02777 16.0206 5.28707 16.8964 5.28707 17.9416C5.28707 18.7322 5.71074 19.4254 6.34239 19.807C3.99612 22.3888 2.39424 24.4796 1.3373 26.3349C-0.411357 29.4065 -0.446592 32.8 1.24036 35.6474C3.09481 38.7761 6.66465 40.6995 10.5946 40.6995H10.9777C12.7843 40.6995 14.5151 40.2912 16.0387 39.5481H43.3083C43.6882 39.5481 43.9959 39.2403 43.9959 38.8605V37.0007C43.9959 36.6216 43.6882 36.3131 43.3083 36.3131ZM22.4892 11.258C20.7146 10.1978 19.1634 9.0075 17.8157 7.66671C19.5243 10.3033 21.9718 12.6426 24.9493 14.4209C28.192 16.3568 31.7505 17.4361 35.2405 17.5427C35.427 17.5488 35.603 17.6303 35.7286 17.7677C35.8539 17.9063 35.9175 18.0901 35.9054 18.2766L35.8336 19.3493L39.98 16.3276L36.2476 13.1842L36.1633 14.4431C36.1385 14.8109 35.8239 15.0927 35.4586 15.0841C31.4749 14.9759 26.021 13.3663 22.4892 11.258ZM24.2447 15.6006C19.1221 12.542 15.4654 7.8953 14.2143 2.85335C14.1307 2.52008 14.3079 2.17625 14.6266 2.04897C14.9457 1.9217 15.3097 2.04975 15.4792 2.34898C17.2769 5.52274 19.8007 8.05102 23.1946 10.0773C26.3554 11.9655 31.1363 13.4307 34.8367 13.678L34.9672 11.7377C34.9842 11.479 35.146 11.2519 35.384 11.1514C35.6228 11.0501 35.8981 11.0914 36.0956 11.258L41.5361 15.8411C41.6979 15.9777 41.7871 16.1809 41.7802 16.3913C41.7724 16.6025 41.6687 16.7983 41.4976 16.9232L35.4534 21.3274C35.3333 21.415 35.1914 21.4588 35.0479 21.4588C34.9344 21.4588 34.8201 21.4312 34.7163 21.3741C34.4824 21.2452 34.3449 20.9926 34.3624 20.7258L34.4868 18.8834C30.9944 18.654 27.4683 17.5264 24.2447 15.6006Z" fill="black"/>
</svg>
