<svg width="54" height="54" viewBox="0 0 54 54" fill="none" xmlns="http://www.w3.org/2000/svg">
<g clip-path="url(#clip0_37_1159)">
<path fill-rule="evenodd" clip-rule="evenodd" d="M22.6301 22.7891H26.8412C27.3485 22.7891 27.7624 23.2028 27.7624 23.7102V45.919C27.7624 46.4263 27.3485 46.8401 26.8412 46.8401H22.6301C22.1228 46.8401 21.709 46.4263 21.709 45.919V23.7102C21.709 23.2028 22.1227 22.7891 22.6301 22.7891Z" fill="#6CF5C2"/>
<path fill-rule="evenodd" clip-rule="evenodd" d="M22.6301 22.7891H24.4726C23.9652 22.7891 23.5514 23.2028 23.5514 23.7102V45.9189C23.5514 46.4263 23.9652 46.8401 24.4726 46.8401H22.6301C22.1228 46.8401 21.709 46.4263 21.709 45.9189V23.7102C21.709 23.2028 22.1227 22.7891 22.6301 22.7891Z" fill="#00E499"/>
<path fill-rule="evenodd" clip-rule="evenodd" d="M33.8704 29.1426H38.0815C38.5889 29.1426 39.0027 29.5564 39.0027 30.0638V45.9191C39.0027 46.4265 38.5889 46.8402 38.0815 46.8402C36.6779 46.8402 35.2742 46.8402 33.8704 46.8402C33.363 46.8402 32.9492 46.4264 32.9492 45.9191C32.9492 40.3072 32.9492 35.6757 32.9492 30.0638C32.9491 29.5564 33.363 29.1426 33.8704 29.1426Z" fill="#FFE177"/>
<path fill-rule="evenodd" clip-rule="evenodd" d="M33.8704 29.1426H35.7127C35.2053 29.1426 34.7915 29.5564 34.7915 30.0637V45.919C34.7915 46.4264 35.2053 46.8401 35.7127 46.8401H33.8704C33.363 46.8401 32.9492 46.4263 32.9492 45.919C32.9492 40.3071 32.9492 35.6756 32.9492 30.0637C32.9491 29.5563 33.363 29.1426 33.8704 29.1426Z" fill="#FFD064"/>
<path fill-rule="evenodd" clip-rule="evenodd" d="M49.3217 35.2266H45.1106C44.6033 35.2266 44.1895 35.6403 44.1895 36.1477V45.9185C44.1895 46.4259 44.6032 46.8396 45.1106 46.8396H49.3217C49.829 46.8396 50.2428 46.4259 50.2428 45.9185V36.1476C50.2428 35.6403 49.829 35.2266 49.3217 35.2266Z" fill="#FE646F"/>
<path fill-rule="evenodd" clip-rule="evenodd" d="M46.9531 35.2266H45.1106C44.6033 35.2266 44.1895 35.6403 44.1895 36.1477V45.9185C44.1895 46.4259 44.6032 46.8396 45.1106 46.8396H46.9531C46.4457 46.8396 46.0319 46.4259 46.0319 45.9185V36.1476C46.0319 35.6403 46.4457 35.2266 46.9531 35.2266Z" fill="#FD4755"/>
<path fill-rule="evenodd" clip-rule="evenodd" d="M52.2434 46.1836H8.46841C7.96195 46.1836 7.54883 46.5967 7.54883 47.1032V47.5459C7.54883 48.0525 7.96195 48.4655 8.46841 48.4655H52.2433C52.7499 48.4655 53.1629 48.0524 53.1629 47.5459V47.1032C53.163 46.5967 52.7499 46.1836 52.2434 46.1836Z" fill="#A79BA7"/>
<path fill-rule="evenodd" clip-rule="evenodd" d="M7.54883 47.3242V47.5456C7.54883 48.0522 7.96195 48.4652 8.46841 48.4652H52.2433C52.7499 48.4652 53.1629 48.0521 53.1629 47.5456V47.3242H7.54883Z" fill="#837683"/>
<path fill-rule="evenodd" clip-rule="evenodd" d="M43.4415 23.3511C39.1489 23.2203 34.5671 21.917 30.2974 19.3672C23.9534 15.5787 19.7054 9.87921 18.2754 4.11914C20.4225 7.91021 23.4743 11.2156 28.1257 13.9932C32.3439 16.5121 38.9436 18.4768 43.7605 18.6077L43.9395 15.9465C43.9468 15.8376 44.0116 15.7483 44.1127 15.7073C44.2138 15.6664 44.3225 15.6856 44.4035 15.7587L50.3516 21.1284C50.4168 21.1871 50.4484 21.2649 50.4428 21.3525C50.4372 21.4401 50.3961 21.5132 50.3241 21.5632L43.7052 26.1656C43.6153 26.228 43.5047 26.2332 43.4093 26.1792C43.3141 26.1253 43.2616 26.0277 43.2688 25.9185L43.4415 23.3511Z" fill="#FFE177"/>
<path fill-rule="evenodd" clip-rule="evenodd" d="M43.4415 23.3511C39.1489 23.2203 34.5671 21.917 30.2974 19.3672C23.9534 15.5787 19.7054 9.87921 18.2754 4.11914C18.3073 4.17567 18.3395 4.23189 18.3719 4.2881L18.3741 4.292L18.3763 4.29591L18.3766 4.29643L18.3786 4.29991L18.3809 4.30382L18.4194 4.37047C20.2072 9.52695 24.9387 14.9143 29.9283 17.8939C34.9179 20.8735 39.1492 21.7695 43.4418 21.9003L43.4415 23.3511ZM49.5293 20.3862L43.3521 24.6815L43.2688 25.9187C43.2615 26.028 43.314 26.1254 43.4093 26.1794C43.5046 26.2334 43.6152 26.2282 43.7052 26.1658L50.324 21.5635C50.396 21.5134 50.4372 21.4403 50.4427 21.3527C50.4483 21.2651 50.4167 21.1875 50.3515 21.1286L49.5293 20.3862Z" fill="#FFD064"/>
<path fill-rule="evenodd" clip-rule="evenodd" d="M15.9051 20.9599L17.1304 24.6196C20.3243 28.0447 22.6514 30.9465 24.1113 33.5097C28.7778 41.7035 22.1392 50.0257 13.2485 49.876C4.35781 50.0258 -2.28071 41.7036 2.38576 33.5097C3.84566 30.9465 6.17272 28.0448 9.36663 24.6196L10.5962 20.9639L7.6034 17.9712C6.87293 17.2408 6.87293 16.0454 7.6034 15.3149C8.22472 14.6936 9.20832 14.5885 9.94755 15.0632C10.2222 15.2394 10.5377 15.2676 10.839 15.1428C11.1403 15.0179 11.3434 14.7751 11.413 14.4563C11.5971 13.6131 12.352 12.9767 13.2485 12.9766C14.1288 12.9766 14.8965 13.597 15.0842 14.4563C15.1538 14.7751 15.3568 15.0179 15.6582 15.1428C15.9596 15.2677 16.2749 15.2395 16.5495 15.0632C17.2757 14.597 18.2598 14.681 18.8937 15.3148V15.3149C19.6242 16.0454 19.6242 17.2408 18.8937 17.9712L15.9051 20.9599Z" fill="#BFABF2"/>
<path fill-rule="evenodd" clip-rule="evenodd" d="M15.9047 20.9599L17.13 24.6196C20.3239 28.0447 22.651 30.9464 24.1109 33.5097C28.7774 41.7035 22.1388 50.0257 13.2481 49.876C13.074 49.8789 12.9011 49.8774 12.7289 49.874C21.3556 49.6989 27.6476 41.5432 23.0724 33.5099C21.6125 30.9466 19.2855 28.0449 16.0916 24.6197L14.8662 20.96L17.8549 17.9714C18.5854 17.2409 18.5854 16.0455 17.8549 15.315V15.3149C17.6223 15.0824 17.3425 14.9239 17.0456 14.8395C17.6811 14.6585 18.3953 14.817 18.8932 15.3149V15.315C19.6237 16.0455 19.6237 17.2409 18.8932 17.9714L15.9047 20.9599ZM8.41406 14.8397C8.92126 14.6956 9.48257 14.7648 9.94737 15.0632L9.95116 15.0655C9.90413 15.0948 9.85382 15.1206 9.80045 15.1427C9.49902 15.2674 9.18367 15.2394 8.90903 15.0631C8.75293 14.9631 8.58608 14.8888 8.41406 14.8397ZM12.7286 13.0502C13.3781 13.2385 13.8959 13.7716 14.0454 14.4563C14.115 14.7751 14.318 15.0179 14.6193 15.1428C14.9195 15.2671 15.2334 15.2396 15.5069 15.0655C15.2886 14.9294 15.141 14.7186 15.0838 14.4563C14.8962 13.5969 14.1284 12.9766 13.2481 12.9766C13.0682 12.9766 12.8937 13.0023 12.7286 13.0502Z" fill="#F5B829"/>
<path fill-rule="evenodd" clip-rule="evenodd" d="M9.17163 24.6205H17.3263C18.3317 24.6205 19.1541 23.7979 19.1541 22.7927C19.1541 21.7873 18.3317 20.9648 17.3263 20.9648H9.17163C8.1662 20.9648 7.34375 21.7873 7.34375 22.7926C7.34375 23.7981 8.1662 24.6205 9.17163 24.6205Z" fill="#837683"/>
<path fill-rule="evenodd" clip-rule="evenodd" d="M16.2871 24.6205H17.3256C18.331 24.6205 19.1534 23.7978 19.1534 22.7927C19.1534 21.7873 18.3309 20.9648 17.3256 20.9648H16.2871C17.2925 20.9648 18.115 21.7873 18.115 22.7927C18.115 23.7978 17.2925 24.6205 16.2871 24.6205Z" fill="#685E68"/>
<path fill-rule="evenodd" clip-rule="evenodd" d="M17.2034 39.4871C17.3029 40.3086 17.0825 41.0605 16.5635 41.6605C16.0002 42.3113 15.0921 42.7586 14.0542 42.9159V43.5319C14.0542 43.9977 13.6765 44.3754 13.2108 44.3754C12.7446 44.3754 12.367 43.9977 12.367 43.5319V42.9029C10.7936 42.6248 9.58156 41.5908 9.21885 40.1374C9.1059 39.6852 9.38106 39.2273 9.83384 39.1144C10.2862 39.0029 10.7439 39.2771 10.8569 39.7294C11.1405 40.8698 12.273 41.2788 13.2045 41.2892C13.213 41.2902 13.2214 41.2902 13.2298 41.2902C13.2602 41.2902 13.2901 41.2892 13.3194 41.2892C14.1474 41.2693 14.9191 40.9813 15.2873 40.5563C15.4938 40.317 15.5714 40.0413 15.5277 39.6896C15.4585 39.1114 15.1167 38.4038 13.0831 38.0704C10.243 37.6032 9.58061 36.1364 9.52492 34.9875C9.44782 33.3972 10.5529 32.0672 12.2741 31.6761C12.3049 31.6697 12.3352 31.6632 12.3671 31.6567V31.0148C12.3671 30.5486 12.7448 30.1709 13.2109 30.1709C13.6767 30.1709 14.0543 30.5486 14.0543 31.0148V31.6492C15.2106 31.8711 16.3272 32.5776 16.8999 33.9425C17.0801 34.3719 16.879 34.866 16.4486 35.0467C16.0193 35.2268 15.5246 35.0243 15.3445 34.5954C14.9455 33.645 14.0891 33.2578 13.2601 33.2548C13.1073 33.2538 12.8192 33.2832 12.6475 33.322C11.9225 33.4857 11.1657 33.9888 11.21 34.9053C11.2254 35.2218 11.2667 36.0613 13.3561 36.4051C14.2327 36.5483 16.8997 36.9862 17.2034 39.4871ZM52.315 47.6458H22.3085C22.5364 47.4563 22.7568 47.2568 22.9708 47.0512H52.3151V47.6458H52.315ZM13.2307 49.057C13.2402 49.057 13.4068 49.0596 13.4804 49.0596C17.7089 49.0596 21.5372 47.014 23.5086 43.6857C25.288 40.6848 25.2402 37.2276 23.3742 33.9521C22.0403 31.6105 19.9339 28.9146 16.7594 25.4893H9.73111C6.55661 28.9146 4.44934 31.6105 3.11632 33.9521C1.25037 37.2276 1.20312 40.6848 2.98101 43.6857C4.98818 47.0722 8.91658 49.1266 13.2307 49.057ZM9.16791 21.8325H17.3228C17.8651 21.8325 18.307 22.2743 18.307 22.8177C18.307 23.3596 17.8651 23.8019 17.3228 23.8019H9.16791C8.62601 23.8019 8.18368 23.3596 8.18368 22.8167C8.18368 22.2743 8.62601 21.8325 9.16791 21.8325ZM7.89606 16.6685C7.89606 16.3904 8.00259 16.1306 8.19654 15.9366C8.53837 15.5953 9.08121 15.537 9.48822 15.7987C9.99479 16.1231 10.6033 16.1773 11.1581 15.947C11.7139 15.7171 12.1061 15.2489 12.2339 14.6612C12.3374 14.189 12.7623 13.8452 13.2454 13.8452C13.7281 13.8452 14.1535 14.189 14.2566 14.6612C14.3844 15.2489 14.7765 15.7171 15.3314 15.947C15.8872 16.1773 16.4957 16.1231 17.0022 15.7987C17.4092 15.5369 17.9521 15.5952 18.2939 15.9366C18.6969 16.3406 18.6969 16.9964 18.2939 17.3994L15.5478 20.1451H10.9417L8.19665 17.3995C8.00259 17.2055 7.89606 16.9462 7.89606 16.6685ZM22.5637 23.673H26.9196V45.3635H24.4271C24.6148 45.0988 24.7938 44.828 24.961 44.5464C27.0309 41.0519 26.9876 36.8872 24.8406 33.1175C24.236 32.0551 23.4841 30.9292 22.5636 29.7086V23.673H22.5637ZM33.7841 30.0157H38.14V45.3635H33.7841V30.0157ZM45.0061 36.0906H49.3618V45.3635H45.0061V36.0906ZM53.1589 45.3635H51.0497V35.2472C51.0497 34.781 50.672 34.4033 50.2058 34.4033H44.1622C43.6965 34.4033 43.3188 34.781 43.3188 35.2472V45.3635H39.8278V29.1723C39.8278 28.706 39.4501 28.3284 38.9839 28.3284H32.9408C32.4756 28.3284 32.0969 28.7061 32.0969 29.1723V45.3635H28.6069V22.829C28.6069 22.3628 28.2292 21.9852 27.763 21.9852H21.7199C21.2536 21.9852 20.876 22.3629 20.876 22.829V27.5939C20.2157 26.8062 19.4922 25.9782 18.6981 25.106C19.4743 24.6378 19.9943 23.7869 19.9943 22.8177C19.9943 21.5339 19.0842 20.4592 17.8766 20.2038L19.4868 18.5936C20.5481 17.5314 20.5481 15.8053 19.4868 14.7439C18.5886 13.8453 17.1605 13.691 16.0898 14.3782C16.0475 14.4055 16.0237 14.4075 15.9778 14.3886C15.9316 14.3692 15.9156 14.3503 15.9051 14.302C15.634 13.0595 14.5154 12.1579 13.2456 12.1579C11.9754 12.1579 10.8568 13.0595 10.5856 14.302C10.5752 14.3503 10.5593 14.3692 10.513 14.3886C10.4661 14.4075 10.4423 14.4055 10.4 14.3782C9.33023 13.691 7.90218 13.8452 7.00401 14.7439C6.49101 15.2564 6.20888 15.94 6.20888 16.6685C6.20888 17.3965 6.49101 18.0806 7.00401 18.5936L8.6142 20.2038C7.40553 20.4591 6.49649 21.5339 6.49649 22.8166C6.49649 23.7869 7.01645 24.6377 7.79165 25.106C4.91214 28.2746 2.9462 30.8406 1.64904 33.1175C-0.497035 36.8872 -0.540277 41.0519 1.53007 44.5464C3.80598 48.3862 8.18716 50.7467 13.0102 50.7467H13.4804C15.6976 50.7467 17.8218 50.2457 19.6917 49.3337H53.1589C53.6252 49.3337 54.0028 48.956 54.0028 48.4898V46.2074C54.0028 45.7421 53.6251 45.3635 53.1589 45.3635ZM27.6082 14.6141C25.4302 13.3129 23.5265 11.8521 21.8726 10.2065C23.9694 13.4423 26.9733 16.3133 30.6274 18.4958C34.6071 20.8717 38.9743 22.1962 43.2575 22.3271C43.4864 22.3346 43.7024 22.4346 43.8566 22.6032C44.0104 22.7734 44.0884 22.9989 44.0735 23.2277L43.9855 24.5443L49.0742 20.8358L44.4935 16.9781L44.39 18.5231C44.3597 18.9744 43.9735 19.3202 43.5252 19.3098C38.6361 19.1769 31.9426 17.2014 27.6082 14.6141ZM29.7627 19.9436C23.4758 16.1899 18.9881 10.4871 17.4526 4.29924C17.3501 3.89024 17.5675 3.46826 17.9586 3.31206C18.3502 3.15586 18.797 3.31301 19.005 3.68025C21.2113 7.57531 24.3087 10.6782 28.474 13.1651C32.3531 15.4823 38.2205 17.2805 42.7619 17.5841L42.9221 15.2027C42.943 14.8852 43.1415 14.6066 43.4337 14.4832C43.7267 14.3589 44.0646 14.4096 44.3069 14.6141L50.984 20.2387C51.1825 20.4064 51.292 20.6558 51.2835 20.9139C51.274 21.1732 51.1467 21.4136 50.9367 21.5668L43.5188 26.972C43.3714 27.0794 43.1973 27.1332 43.0212 27.1332C42.8818 27.1332 42.7416 27.0994 42.6142 27.0292C42.3271 26.871 42.1584 26.5611 42.1798 26.2336L42.3326 23.9725C38.0464 23.6909 33.7189 22.3071 29.7627 19.9436Z" fill="black"/>
</g>
<defs>
<clipPath id="clip0_37_1159">
<rect width="54" height="54" fill="white"/>
</clipPath>
</defs>
</svg>
