<svg width="54" height="54" viewBox="0 0 54 54" fill="none" xmlns="http://www.w3.org/2000/svg">
<path fill-rule="evenodd" clip-rule="evenodd" d="M26.9999 35.3692C21.3668 35.4536 16.6903 39.6766 15.893 45.1166C15.7327 46.2072 16.1798 47.226 17.09 47.8472C20.1012 49.9039 24.5414 50.7012 26.9999 50.7012C29.4584 50.7012 33.8986 49.9039 36.9097 47.8472C37.8199 47.226 38.2661 46.2061 38.1068 45.1166C37.3095 39.6766 32.633 35.4536 26.9999 35.3692ZM26.9999 22.8438C24.1027 22.8438 21.7539 25.1925 21.7539 28.0898C21.7539 30.987 24.1027 33.3358 26.9999 33.3358C29.8971 33.3358 32.2459 30.987 32.2459 28.0898C32.2459 25.1925 29.8971 22.8438 26.9999 22.8438ZM10.4518 35.5496C13.2763 35.5918 15.7949 36.9576 17.4128 39.049C16.086 40.7196 15.1747 42.7404 14.8488 44.9627C14.7518 45.6208 14.8214 46.2673 15.0366 46.8569C13.3332 47.3863 11.612 47.6131 10.4508 47.6131C8.51649 47.6131 5.02231 46.9855 2.65243 45.3677C1.93629 44.8783 1.58508 44.0767 1.71059 43.2193C2.34024 38.9393 6.02004 35.616 10.4518 35.5496ZM43.5479 35.5496C47.9797 35.616 51.6606 38.9393 52.2881 43.2193C52.4136 44.0767 52.0624 44.8793 51.3463 45.3677C48.9764 46.9855 45.4833 47.6131 43.5479 47.6131C42.3878 47.6131 40.6655 47.3874 38.9622 46.8569C39.1773 46.2673 39.2469 45.6208 39.1499 44.9627C38.824 42.7404 37.9127 40.7186 36.5859 39.049C38.2038 36.9565 40.7235 35.5918 43.5479 35.5496ZM10.4518 25.9308C8.17161 25.9308 6.32379 27.7786 6.32379 30.0589C6.32379 32.3391 8.17161 34.1869 10.4518 34.1869C12.7321 34.1869 14.5799 32.3391 14.5799 30.0589C14.5809 27.7797 12.7321 25.9308 10.4518 25.9308ZM43.5479 25.9308C41.2677 25.9308 39.4199 27.7786 39.4199 30.0589C39.4199 32.3391 41.2677 34.1869 43.5479 34.1869C45.8282 34.1869 47.676 32.3391 47.676 30.0589C47.676 27.7797 45.8271 25.9308 43.5479 25.9308Z" fill="#602EDF"/>
<path fill-rule="evenodd" clip-rule="evenodd" d="M4.76041 15.3896L7.88334 17.6498C7.97721 17.7173 8.01412 17.8333 7.97826 17.943L6.78014 21.607C6.70209 21.8475 6.97947 22.0489 7.18303 21.9002L10.2975 19.6284C10.3914 19.5598 10.5127 19.5598 10.6065 19.6284L13.721 21.9002C13.9246 22.0489 14.203 21.8475 14.1239 21.607L12.9258 17.943C12.8899 17.8333 12.9279 17.7173 13.0207 17.6498L16.1437 15.3896C16.3493 15.2409 16.2428 14.915 15.9897 14.9161L12.1348 14.9234C12.0188 14.9234 11.9207 14.8517 11.8848 14.742L10.7004 11.0728C10.6224 10.8313 10.2806 10.8313 10.2026 11.0728L9.01818 14.742C8.98232 14.8517 8.88424 14.9234 8.76822 14.9234L4.91334 14.9161C4.66127 14.9161 4.5558 15.2409 4.76041 15.3896ZM38.0094 14.9161C37.7563 14.9161 37.6498 15.2409 37.8554 15.3896L40.9784 17.6498C41.0722 17.7173 41.1092 17.8333 41.0733 17.943L39.8752 21.607C39.7971 21.8475 40.0745 22.0489 40.2781 21.9002L43.3926 19.6284C43.4864 19.5598 43.6077 19.5598 43.7016 19.6284L46.8161 21.9002C47.0196 22.0489 47.2981 21.8475 47.219 21.607L46.0208 17.943C45.985 17.8333 46.0229 17.7173 46.1158 17.6498L49.2387 15.3896C49.4444 15.2409 49.3378 14.915 49.0847 14.9161L45.2298 14.9234C45.1138 14.9234 45.0157 14.8517 44.9799 14.742L43.7954 11.0728C43.7174 10.8313 43.3757 10.8313 43.2976 11.0728L42.1132 14.742C42.0774 14.8517 41.9793 14.9234 41.8633 14.9234L38.0094 14.9161ZM19.2434 9.42957L23.5001 12.5093C23.6277 12.6021 23.6794 12.7592 23.6298 12.909L21.9972 17.9029C21.8906 18.2299 22.2682 18.5052 22.5467 18.3016L26.7907 15.205C26.9183 15.1122 27.0839 15.1122 27.2115 15.205L31.4556 18.3016C31.734 18.5041 32.1116 18.2299 32.0051 17.9029L30.3724 12.909C30.3239 12.7592 30.3746 12.601 30.5022 12.5093L34.7589 9.42957C35.0384 9.22707 34.8949 8.78305 34.549 8.7841L29.2956 8.79465C29.1385 8.79465 29.0035 8.69762 28.9549 8.54785L27.3413 3.54758C27.2347 3.21852 26.7686 3.21852 26.6621 3.54758L25.0484 8.54785C24.9999 8.69762 24.8659 8.7957 24.7088 8.79465L19.4554 8.7841C19.1084 8.78305 18.9639 9.22707 19.2434 9.42957Z" fill="#F88125"/>
</svg>
