<svg width="54" height="54" viewBox="0 0 54 54" fill="none" xmlns="http://www.w3.org/2000/svg">
<path d="M25.9849 40.7621C26.1469 40.8341 26.3041 40.9133 26.4565 41.0021C26.6101 41.0909 26.7577 41.1881 26.9017 41.2925L28.5517 40.3397C28.5661 40.3313 28.5805 40.3241 28.5949 40.3169C28.8505 40.1837 29.1361 40.1585 29.3953 40.2281C29.6701 40.3013 29.9173 40.4801 30.0697 40.7453L30.9601 42.2885C30.9685 42.3029 30.9757 42.3173 30.9829 42.3317C31.1161 42.5873 31.1413 42.8729 31.0717 43.1321C30.9985 43.4069 30.8197 43.6541 30.5545 43.8065L28.9033 44.7605C28.9057 44.7821 28.9081 44.8037 28.9093 44.8253C28.9249 44.9921 28.9333 45.1481 28.9333 45.2897C28.9333 45.4337 28.9249 45.5885 28.9093 45.7553L28.9081 45.7709L28.9033 45.8189L30.5521 46.7705L30.5545 46.7717C30.8197 46.9265 30.9985 47.1725 31.0717 47.4449C31.1449 47.7185 31.1137 48.0209 30.9601 48.2861L30.9589 48.2873H30.9601L30.0901 49.7957C30.0757 49.8245 30.0601 49.8521 30.0409 49.8773C29.8861 50.1173 29.6521 50.2793 29.3941 50.3489C29.1373 50.4173 28.8553 50.3945 28.6021 50.2649C28.5721 50.2517 28.5433 50.2361 28.5169 50.2169L26.9017 49.2845C26.7589 49.3889 26.6101 49.4861 26.4577 49.5749C26.3053 49.6625 26.1481 49.7429 25.9861 49.8149V51.7205C25.9861 52.0253 25.8613 52.3037 25.6597 52.5053L25.6573 52.5077C25.4557 52.7093 25.1785 52.8341 24.8725 52.8341H23.0905C22.7857 52.8341 22.5073 52.7093 22.3057 52.5077L22.3033 52.5053C22.1017 52.3037 21.9769 52.0265 21.9769 51.7205V49.8149C21.8149 49.7429 21.6577 49.6637 21.5065 49.5749C21.3529 49.4861 21.2041 49.3889 21.0613 49.2833L19.4101 50.2361C19.1449 50.3897 18.8413 50.4209 18.5689 50.3477C18.2941 50.2745 18.0469 50.0957 17.8945 49.8305L17.0029 48.2873C16.9945 48.2729 16.9873 48.2585 16.9801 48.2441C16.8469 47.9885 16.8217 47.7029 16.8913 47.4437C16.9645 47.1689 17.1433 46.9217 17.4085 46.7693L19.0597 45.8165C19.0573 45.7949 19.0549 45.7733 19.0537 45.7517C19.0381 45.5849 19.0297 45.4289 19.0297 45.2873C19.0297 45.1457 19.0381 44.9897 19.0537 44.8229C19.0561 44.8013 19.0585 44.7797 19.0597 44.7581L17.4085 43.8053C17.3941 43.7969 17.3797 43.7885 17.3665 43.7789C17.1241 43.6241 16.9597 43.3889 16.8913 43.1309C16.8181 42.8573 16.8493 42.5549 17.0029 42.2897L17.0041 42.2885H17.0029L17.8741 40.7801C17.8885 40.7513 17.9041 40.7237 17.9233 40.6985C18.0781 40.4585 18.3121 40.2965 18.5701 40.2281C18.8269 40.1597 19.1089 40.1825 19.3621 40.3121C19.3957 40.3277 19.4281 40.3457 19.4581 40.3673L21.0625 41.2937C21.2053 41.1881 21.3541 41.0909 21.5077 41.0021C21.6589 40.9145 21.8161 40.8341 21.9781 40.7621V38.8565C21.9781 38.5493 22.1029 38.2709 22.3045 38.0705C22.5061 37.8689 22.7845 37.7441 23.0905 37.7441H24.8725C25.1773 37.7441 25.4557 37.8689 25.6573 38.0705L25.6597 38.0729C25.8613 38.2745 25.9861 38.5517 25.9861 38.8577L25.9849 40.7621Z" fill="#C3D0E2"/>
<path d="M23.9811 42.5625C24.7335 42.5625 25.4151 42.8673 25.9095 43.3617C26.4027 43.8549 26.7087 44.5365 26.7087 45.2901C26.7087 46.0425 26.4039 46.7241 25.9107 47.2185C25.4175 47.7117 24.7359 48.0165 23.9823 48.0165C23.2299 48.0165 22.5483 47.7117 22.0539 47.2185C21.5607 46.7253 21.2559 46.0437 21.2559 45.2901C21.2559 44.5377 21.5607 43.8561 22.0551 43.3617C22.5471 42.8673 23.2287 42.5625 23.9811 42.5625Z" fill="white"/>
<path d="M14.5097 24.3081C14.7473 24.4137 14.9777 24.5301 15.2009 24.6597C15.4253 24.7893 15.6437 24.9321 15.8537 25.0857L18.2741 23.6889C18.2957 23.6769 18.3161 23.6661 18.3377 23.6553C18.7121 23.4597 19.1309 23.4237 19.5113 23.5257C19.9145 23.6337 20.2769 23.8953 20.5013 24.2841L21.8093 26.5485C21.8213 26.5701 21.8321 26.5905 21.8429 26.6121C22.0385 26.9865 22.0745 27.4053 21.9725 27.7857C21.8645 28.1889 21.6029 28.5513 21.2141 28.7757L18.7913 30.1749C18.7949 30.2061 18.7973 30.2385 18.8009 30.2697C18.8237 30.5145 18.8357 30.7425 18.8357 30.9513C18.8357 31.1613 18.8237 31.3905 18.8009 31.6353L18.7985 31.6581L18.7913 31.7289L21.2105 33.1257L21.2141 33.1281C21.6041 33.3549 21.8657 33.7161 21.9725 34.1157C22.0805 34.5165 22.0337 34.9605 21.8093 35.3505L21.8081 35.3529L21.8093 35.3541L20.5325 37.5657C20.5121 37.6077 20.4881 37.6485 20.4605 37.6857C20.2337 38.0373 19.8905 38.2749 19.5113 38.3769C19.1345 38.4777 18.7205 38.4441 18.3485 38.2545C18.3041 38.2353 18.2633 38.2113 18.2237 38.1849L15.8537 36.8169C15.6437 36.9705 15.4265 37.1133 15.2021 37.2429C14.9789 37.3713 14.7485 37.4889 14.5109 37.5945V40.3893C14.5109 40.8369 14.3273 41.2449 14.0321 41.5401L14.0285 41.5437C13.7333 41.8389 13.3253 42.0225 12.8777 42.0225H10.2629C9.81531 42.0225 9.40731 41.8389 9.11211 41.5437L9.10851 41.5401C8.81331 41.2449 8.62971 40.8369 8.62971 40.3893V37.5945C8.39211 37.4889 8.16171 37.3713 7.93851 37.2429C7.71291 37.1121 7.49451 36.9705 7.28451 36.8157L4.86291 38.2137C4.47291 38.4393 4.02891 38.4849 3.62811 38.3769C3.22491 38.2689 2.86251 38.0073 2.63811 37.6185L1.33011 35.3541C1.31811 35.3325 1.30731 35.3121 1.29651 35.2905C1.10091 34.9161 1.06491 34.4973 1.16691 34.1169C1.27491 33.7137 1.53651 33.3513 1.92531 33.1269L4.34811 31.7277C4.34451 31.6965 4.34211 31.6641 4.33851 31.6329C4.31571 31.3881 4.30371 31.1601 4.30371 30.9513C4.30371 30.7425 4.31571 30.5157 4.33851 30.2697C4.34211 30.2373 4.34451 30.2061 4.34811 30.1749L1.92531 28.7757C1.90371 28.7637 1.88331 28.7505 1.86411 28.7361C1.50771 28.5081 1.26771 28.1637 1.16691 27.7857C1.05891 27.3849 1.10571 26.9409 1.33011 26.5509L1.33131 26.5485L1.33011 26.5473L2.60691 24.3357C2.62731 24.2937 2.65131 24.2529 2.67891 24.2157C2.90571 23.8641 3.24891 23.6265 3.62811 23.5245C4.00491 23.4237 4.41891 23.4573 4.79091 23.6469C4.84011 23.6697 4.88811 23.6961 4.93131 23.7273L7.28451 25.0857C7.49451 24.9321 7.71291 24.7893 7.93851 24.6585C8.16051 24.5301 8.39211 24.4125 8.62971 24.3069V21.5121C8.62971 21.0621 8.81331 20.6541 9.10851 20.3577C9.40371 20.0625 9.81291 19.8789 10.2629 19.8789H12.8777C13.3253 19.8789 13.7333 20.0625 14.0285 20.3577L14.0321 20.3613C14.3273 20.6565 14.5109 21.0645 14.5109 21.5121L14.5097 24.3081Z" fill="#C3D0E2"/>
<path d="M11.568 26.9512C12.672 26.9512 13.6728 27.3988 14.3964 28.1224C15.12 28.846 15.5676 29.8468 15.5676 30.9508C15.5676 32.0548 15.12 33.0556 14.3964 33.7792C13.6728 34.5028 12.672 34.9504 11.568 34.9504C10.464 34.9504 9.46316 34.5028 8.73956 33.7792C8.01596 33.0556 7.56836 32.0548 7.56836 30.9508C7.56836 29.8468 8.01596 28.846 8.73956 28.1224C9.46436 27.3988 10.464 26.9512 11.568 26.9512Z" fill="white"/>
<path d="M40.1609 28.5151C40.3649 28.3423 40.6709 28.3675 40.8437 28.5715C41.4785 29.3203 41.7773 30.2587 41.7389 31.1839C41.7065 31.9519 41.4449 32.7115 40.9517 33.3487L42.3881 34.7851C42.5777 34.9747 42.5777 35.2819 42.3881 35.4715C42.1985 35.6611 41.8913 35.6611 41.7017 35.4715L40.2653 34.0351C39.6281 34.5271 38.8685 34.7899 38.1005 34.8223C37.1753 34.8607 36.2369 34.5631 35.4881 33.9271C35.2841 33.7543 35.2577 33.4483 35.4317 33.2443C35.5169 33.1435 40.0829 28.5811 40.1609 28.5151Z" fill="#602EDF"/>
<path d="M13.4834 6.5654C16.9658 3.083 21.5306 1.3418 26.0942 1.3418C30.6578 1.3418 35.2226 3.083 38.705 6.5654C42.1874 10.0478 43.9286 14.6126 43.9286 19.1762C43.9286 23.7398 42.1874 28.3046 38.705 31.787C35.2226 35.2694 30.6578 37.0106 26.0942 37.0106C21.5306 37.0106 16.9658 35.2694 13.4834 31.787C10.001 28.3046 8.25977 23.7398 8.25977 19.1762C8.25977 14.6126 10.001 10.0478 13.4834 6.5654Z" fill="#602EDF"/>
<path d="M13.4834 6.5654C16.9658 3.083 21.5306 1.3418 26.0942 1.3418C28.8566 1.3418 31.6178 1.9802 34.1402 3.2546C35.1494 5.543 35.6534 7.9994 35.6534 10.4558C35.6534 15.0194 33.9122 19.5842 30.4298 23.0666C26.9474 26.549 22.3826 28.2902 17.819 28.2902C15.0566 28.2902 12.2954 27.6518 9.77297 26.3774C8.76377 24.089 8.25977 21.6326 8.25977 19.1762C8.25977 14.6126 10.001 10.0478 13.4834 6.5654Z" fill="#602EDF"/>
<path d="M15.9957 9.07773C18.7845 6.28893 22.4397 4.89453 26.0949 4.89453C29.7501 4.89453 33.4053 6.28893 36.1941 9.07773C38.9829 11.8665 40.3773 15.5217 40.3773 19.1769C40.3773 22.8321 38.9829 26.4873 36.1941 29.2761C33.4053 32.0649 29.7501 33.4593 26.0949 33.4593C22.4397 33.4593 18.7845 32.0649 15.9957 29.2761C13.2069 26.4873 11.8125 22.8321 11.8125 19.1769C11.8125 15.5217 13.2069 11.8665 15.9957 9.07773Z" fill="white"/>
<path fill-rule="evenodd" clip-rule="evenodd" d="M39.7677 15.043L36.2289 18.2278C36.0297 18.4066 35.7225 18.391 35.5437 18.1918C35.3649 17.9926 35.3805 17.6854 35.5797 17.5066L39.4257 14.0446L43.4769 10.3978C43.6761 10.219 43.9833 10.2346 44.1621 10.4338C44.3409 10.633 44.3253 10.9402 44.1261 11.119L39.7677 15.043ZM11.8149 19.4362C11.8137 19.3498 11.8125 19.2634 11.8125 19.1758C11.8125 18.9166 11.8197 18.6574 11.8341 18.3982L18.0657 20.9122C18.3153 21.0094 18.4389 21.2914 18.3405 21.5398C18.2433 21.7894 17.9613 21.9118 17.7129 21.8146C15.7461 21.0226 13.7805 20.2294 11.8149 19.4362ZM21.9897 21.337C21.7689 21.487 21.4677 21.4294 21.3177 21.2074C21.1677 20.9866 21.2253 20.6854 21.4473 20.5354L24.4221 18.5218C24.6429 18.3718 24.9441 18.4294 25.0941 18.6514C25.2441 18.8722 25.1865 19.1734 24.9645 19.3234L21.9897 21.337ZM28.5261 18.6202C28.2645 18.5662 28.0965 18.3094 28.1505 18.0466C28.2045 17.785 28.4613 17.617 28.7241 17.671L32.2557 18.4042C32.5173 18.4582 32.6853 18.715 32.6313 18.9778C32.5773 19.2394 32.3205 19.4074 32.0577 19.3534L28.5261 18.6202Z" fill="#76BEDD"/>
<path d="M41.7018 34.7846C42.2634 34.223 43.0026 33.9434 43.7406 33.9434C44.4786 33.9434 45.219 34.2242 45.7794 34.7846L52.5834 41.5886C52.8282 41.8334 52.9506 42.155 52.9506 42.4766C52.9506 42.7982 52.8282 43.1198 52.5834 43.3646L50.2806 45.6674C50.0358 45.9122 49.7142 46.0346 49.3926 46.0346C49.071 46.0346 48.7494 45.9122 48.5046 45.6674L41.7006 38.8634C41.139 38.3018 40.8594 37.5626 40.8594 36.8246C40.8606 36.0854 41.1414 35.3462 41.7018 34.7846Z" fill="#B06328"/>
<path fill-rule="evenodd" clip-rule="evenodd" d="M19.9175 19.4961C20.6519 19.4961 21.3179 19.7937 21.7991 20.2761C22.2803 20.7573 22.5791 21.4233 22.5791 22.1577C22.5791 22.8921 22.2815 23.5581 21.7991 24.0393C21.3179 24.5205 20.6519 24.8193 19.9175 24.8193C19.1831 24.8193 18.5171 24.5217 18.0359 24.0393C17.5547 23.5581 17.2559 22.8921 17.2559 22.1577C17.2559 21.4233 17.5535 20.7573 18.0359 20.2761C18.5171 19.7937 19.1819 19.4961 19.9175 19.4961Z" fill="#FFC107"/>
<path fill-rule="evenodd" clip-rule="evenodd" d="M26.4956 15.043C27.23 15.043 27.896 15.3406 28.3772 15.823C28.8584 16.3042 29.1572 16.9702 29.1572 17.7046C29.1572 18.439 28.8596 19.105 28.3772 19.5862C27.896 20.0674 27.23 20.3662 26.4956 20.3662C25.7612 20.3662 25.0952 20.0686 24.614 19.5862C24.1328 19.105 23.834 18.439 23.834 17.7046C23.834 16.9702 24.1316 16.3042 24.614 15.823C25.0952 15.3406 25.76 15.043 26.4956 15.043Z" fill="#B5D5F5"/>
<path fill-rule="evenodd" clip-rule="evenodd" d="M34.2886 16.6621C35.023 16.6621 35.689 16.9597 36.1702 17.4421C36.6514 17.9233 36.9502 18.5893 36.9502 19.3237C36.9502 20.0581 36.6526 20.7241 36.1702 21.2053C35.689 21.6865 35.023 21.9853 34.2886 21.9853C33.5542 21.9853 32.8882 21.6877 32.407 21.2053C31.9258 20.7241 31.627 20.0581 31.627 19.3237C31.627 18.5893 31.9246 17.9233 32.407 17.4421C32.8882 16.9609 33.553 16.6621 34.2886 16.6621Z" fill="#B08CD2"/>
<path fill-rule="evenodd" clip-rule="evenodd" d="M45.4214 6.64258C46.1558 6.64258 46.8218 6.94018 47.303 7.42258C47.7842 7.90378 48.083 8.56978 48.083 9.30418C48.083 10.0386 47.7854 10.7046 47.303 11.1858C46.8218 11.667 46.1558 11.9658 45.4214 11.9658C44.687 11.9658 44.021 11.6682 43.5398 11.1858C43.0586 10.7046 42.7598 10.0386 42.7598 9.30418C42.7598 8.56978 43.0574 7.90378 43.5398 7.42258C44.021 6.94018 44.6858 6.64258 45.4214 6.64258Z" fill="#71C285"/>
<path fill-rule="evenodd" clip-rule="evenodd" d="M24.3747 9.29036C24.1059 9.29036 23.8887 9.07316 23.8887 8.80436C23.8887 8.53556 24.1059 8.31836 24.3747 8.31836H31.9647C32.2335 8.31836 32.4507 8.53556 32.4507 8.80436C32.4507 9.07316 32.2335 9.29036 31.9647 9.29036H24.3747Z" fill="#5C9CEE"/>
<path fill-rule="evenodd" clip-rule="evenodd" d="M20.2262 12.224C19.9574 12.224 19.7402 12.0068 19.7402 11.738C19.7402 11.4692 19.9574 11.252 20.2262 11.252H31.9658C32.2346 11.252 32.4518 11.4692 32.4518 11.738C32.4518 12.0068 32.2346 12.224 31.9658 12.224H20.2262Z" fill="#5C9CEE"/>
<path fill-rule="evenodd" clip-rule="evenodd" d="M27.8162 26.1289C28.085 26.1289 28.3022 26.3461 28.3022 26.6149C28.3022 26.8837 28.085 27.1009 27.8162 27.1009H20.2262C19.9574 27.1009 19.7402 26.8837 19.7402 26.6149C19.7402 26.3461 19.9574 26.1289 20.2262 26.1289H27.8162Z" fill="#5C9CEE"/>
<path fill-rule="evenodd" clip-rule="evenodd" d="M31.9645 29.0645C32.2333 29.0645 32.4505 29.2817 32.4505 29.5505C32.4505 29.8193 32.2333 30.0365 31.9645 30.0365H22.0465C21.7777 30.0365 21.5605 29.8193 21.5605 29.5505C21.5605 29.2817 21.7777 29.0645 22.0465 29.0645H31.9645Z" fill="#5C9CEE"/>
<path fill-rule="evenodd" clip-rule="evenodd" d="M43.2656 40.4355L47.343 36.3581L50.5271 39.5422L46.4497 43.6196L43.2656 40.4355Z" fill="#C97629"/>
</svg>
