<svg width="520" height="313" viewBox="0 0 520 313" fill="none" xmlns="http://www.w3.org/2000/svg">
<g clip-path="url(#clip0_2475_20322)">
<path d="M488.701 303.922C488.701 303.922 546.994 216.184 504.472 193.645C472.736 176.824 446.058 203.974 446.058 203.974C446.058 203.974 491.964 96.5861 442.867 78.1136C393.771 59.6412 388.566 125.545 388.566 125.545C388.566 125.545 396.621 -9.15107 296.899 0.485673C221.998 7.7193 236.01 82.6529 236.01 82.6529C236.01 82.6529 174.733 61.1583 134.82 102.727C87.8825 151.603 150.579 209.909 150.579 209.909C150.579 209.909 90.7092 174.141 54.4476 196.801C13.6852 222.276 19.6539 258.42 50.614 300.851L488.713 303.91L488.701 303.922Z" fill="#F0F8FF"/>
<path d="M103.545 284.126L25.3923 283.92C19.836 283.907 15.3473 279.392 15.3594 273.834L15.6384 168.303C15.6506 162.744 20.1635 158.254 25.7199 158.266L96.1685 158.448C96.3747 158.448 96.5688 158.521 96.7265 158.654L113.577 173.061C113.772 173.231 113.881 173.473 113.881 173.728L113.614 274.089C113.602 279.647 109.089 284.138 103.532 284.126H103.545Z" fill="#A082EC"/>
<path d="M96.4837 158.447L96.4473 173.279L113.893 173.327L96.4837 158.447Z" fill="#45A2FF"/>
<path d="M102.075 206.146L27.2473 205.952C26.665 205.952 26.1797 205.467 26.1797 204.884V202.966C26.1797 202.384 26.665 201.898 27.2594 201.898L93.2315 202.068L102.088 202.093C102.67 202.093 103.155 202.578 103.155 203.161V205.078C103.155 205.661 102.67 206.146 102.075 206.146Z" fill="#45A2FF"/>
<path d="M102.331 213.124L26.9687 212.93C26.5319 212.93 26.168 212.566 26.168 212.129V209.665C26.168 209.228 26.5319 208.864 26.9687 208.864L102.343 209.058C102.78 209.058 103.143 209.423 103.143 209.859V212.323C103.143 212.76 102.78 213.124 102.343 213.124H102.331Z" fill="#45A2FF"/>
<path d="M102.294 227.094L26.9315 226.9C26.4948 226.9 26.1309 226.536 26.1309 226.099V223.635C26.1309 223.198 26.4948 222.834 26.9315 222.834L102.294 223.028C102.73 223.028 103.094 223.392 103.094 223.829V226.281C103.094 226.718 102.73 227.082 102.294 227.082V227.094Z" fill="#D4E6ED"/>
<path d="M102.282 234.074L26.9081 233.879C26.4714 233.879 26.1074 233.515 26.1074 233.078V230.615C26.1074 230.178 26.4714 229.813 26.9202 229.813L102.294 230.008C102.731 230.008 103.095 230.372 103.095 230.809V233.272C103.095 233.709 102.731 234.074 102.294 234.074H102.282Z" fill="#D4E6ED"/>
<path d="M102.294 267.608L26.9315 267.414C26.4948 267.414 26.1309 267.049 26.1309 266.613V264.149C26.1309 263.712 26.4948 263.348 26.9315 263.348L102.306 263.542C102.742 263.542 103.106 263.906 103.106 264.343V266.807C103.106 267.244 102.742 267.608 102.306 267.608H102.294Z" fill="#D4E6ED"/>
<path d="M102.282 274.586L26.9081 274.392C26.4714 274.392 26.1074 274.028 26.1074 273.591V271.127C26.1074 270.69 26.4714 270.326 26.9202 270.326L102.282 270.52C102.719 270.52 103.083 270.884 103.083 271.321V273.785C103.083 274.222 102.719 274.586 102.282 274.586Z" fill="#D4E6ED"/>
<path d="M102.294 182.892L26.9198 182.698C26.4831 182.698 26.1191 182.334 26.1191 181.897V179.433C26.1191 178.996 26.4831 178.632 26.9198 178.632L102.282 178.826C102.719 178.826 103.082 179.19 103.082 179.627V182.091C103.082 182.528 102.719 182.892 102.282 182.892H102.294Z" fill="#D4E6ED"/>
<path d="M26.1218 186.414L26.1154 188.866C26.1142 189.308 26.4718 189.668 26.914 189.669L102.276 189.866C102.718 189.868 103.077 189.51 103.078 189.068L103.085 186.616C103.086 186.173 102.728 185.814 102.286 185.813L26.9246 185.615C26.4824 185.614 26.123 185.972 26.1218 186.414Z" fill="#D4E6ED"/>
<path d="M102.245 248.031L26.871 247.836C26.4343 247.836 26.0703 247.472 26.0703 247.035V244.572C26.0703 244.135 26.4343 243.771 26.8831 243.771L102.245 243.965C102.682 243.965 103.046 244.329 103.046 244.766V247.23C103.046 247.666 102.682 248.031 102.245 248.031Z" fill="#45A2FF"/>
<path d="M26.0612 251.566L26.0548 254.017C26.0537 254.46 26.4112 254.819 26.8534 254.82L102.215 255.018C102.657 255.019 103.017 254.661 103.018 254.219L103.024 251.767C103.025 251.325 102.668 250.965 102.226 250.964L26.864 250.767C26.4218 250.766 26.0624 251.123 26.0612 251.566Z" fill="#45A2FF"/>
<path d="M102.416 197.25H2.75389C1.23296 197.25 0 198.483 0 200.005V214.145C0 215.666 1.23296 216.9 2.75389 216.9H102.416C103.937 216.9 105.169 215.666 105.169 214.145V200.005C105.169 198.483 103.937 197.25 102.416 197.25Z" fill="#D4E6ED"/>
<path d="M83.7446 205.066H8.83147C7.82645 205.066 7.01172 205.881 7.01172 206.887V208.137C7.01172 209.143 7.82645 209.958 8.83147 209.958H83.7446C84.7496 209.958 85.5643 209.143 85.5643 208.137V206.887C85.5643 205.881 84.7496 205.066 83.7446 205.066Z" fill="white"/>
<path d="M101.275 207.506C101.275 210.613 98.7637 213.126 95.658 213.126C92.5523 213.126 90.041 210.613 90.041 207.506C90.041 204.399 92.5523 201.887 95.658 201.887C98.7637 201.887 101.275 204.399 101.275 207.506Z" fill="white"/>
<path d="M102.428 237.921H2.74176C1.22753 237.921 0 239.149 0 240.664V254.828C0 256.343 1.22753 257.571 2.74176 257.571H102.428C103.942 257.571 105.169 256.343 105.169 254.828V240.664C105.169 239.149 103.942 237.921 102.428 237.921Z" fill="#D4E6ED"/>
<path d="M83.7446 245.737H8.83147C7.82645 245.737 7.01172 246.552 7.01172 247.558V248.808C7.01172 249.813 7.82645 250.628 8.83147 250.628H83.7446C84.7496 250.628 85.5643 249.813 85.5643 248.808V247.558C85.5643 246.552 84.7496 245.737 83.7446 245.737Z" fill="white"/>
<path d="M101.275 248.189C101.275 251.296 98.7637 253.808 95.658 253.808C92.5523 253.808 90.041 251.296 90.041 248.189C90.041 245.082 92.5523 242.569 95.658 242.569C98.7637 242.569 101.275 245.082 101.275 248.189Z" fill="white"/>
<path d="M258.939 309.153C398.08 309.153 510.877 305.165 510.877 300.244C510.877 295.324 398.08 291.336 258.939 291.336C119.797 291.336 7 295.324 7 300.244C7 305.165 119.797 309.153 258.939 309.153Z" fill="#D9E9F4"/>
<path d="M251.151 146.869C251.151 150.195 248.469 152.889 245.145 152.889H113.019C109.695 152.889 107.002 150.195 107.002 146.869V63.974C107.002 60.6485 109.695 57.9541 113.019 57.9541H245.145C248.469 57.9541 251.151 60.6485 251.151 63.974V146.857V146.869Z" fill="#CEE8EF"/>
<path d="M245.145 57.9541H113.019C109.695 57.9541 107.002 60.6485 107.002 63.974V75.1522H251.151V63.974C251.151 60.6485 248.469 57.9541 245.145 57.9541Z" fill="#B7D9F7"/>
<path d="M121.596 66.6199C121.596 68.2584 120.262 69.6056 118.6 69.6056C116.938 69.6056 115.615 68.2705 115.615 66.6199C115.615 64.9693 116.95 63.6221 118.6 63.6221C120.25 63.6221 121.596 64.9571 121.596 66.6199Z" fill="white"/>
<path d="M129.143 66.6199C129.143 68.2584 127.796 69.6056 126.147 69.6056C124.497 69.6056 123.162 68.2705 123.162 66.6199C123.162 64.9693 124.509 63.6221 126.147 63.6221C127.784 63.6221 129.143 64.9571 129.143 66.6199Z" fill="white"/>
<path d="M136.42 66.6199C136.42 68.2584 135.086 69.6056 133.424 69.6056C131.762 69.6056 130.439 68.2705 130.439 66.6199C130.439 64.9693 131.774 63.6221 133.424 63.6221C135.074 63.6221 136.42 64.9571 136.42 66.6199Z" fill="white"/>
<path d="M255.105 146.869C255.105 150.195 252.424 152.889 249.1 152.889H116.986C113.662 152.889 110.969 150.195 110.969 146.869V63.974C110.969 60.6485 113.662 57.9541 116.986 57.9541H249.1C252.424 57.9541 255.105 60.6485 255.105 63.974V146.857V146.869Z" fill="white"/>
<path d="M249.1 57.9541H116.986C113.662 57.9541 110.969 60.6485 110.969 63.974V75.1522H255.117V63.974C255.117 60.6485 252.436 57.9541 249.112 57.9541H249.1Z" fill="#A082EC"/>
<path d="M125.551 66.6199C125.551 68.2584 124.217 69.6056 122.555 69.6056C120.893 69.6056 119.57 68.2705 119.57 66.6199C119.57 64.9693 120.905 63.6221 122.555 63.6221C124.205 63.6221 125.551 64.9571 125.551 66.6199Z" fill="white"/>
<path d="M133.096 66.6199C133.096 68.2584 131.75 69.6056 130.1 69.6056C128.45 69.6056 127.115 68.2705 127.115 66.6199C127.115 64.9693 128.462 63.6221 130.1 63.6221C131.737 63.6221 133.096 64.9571 133.096 66.6199Z" fill="white"/>
<path d="M140.375 66.6199C140.375 68.2584 139.041 69.6056 137.379 69.6056C135.717 69.6056 134.395 68.2705 134.395 66.6199C134.395 64.9693 135.729 63.6221 137.379 63.6221C139.029 63.6221 140.375 64.9571 140.375 66.6199Z" fill="white"/>
<path d="M122.931 95.6152L239.347 95.6152C240.09 95.6152 240.693 95.0121 240.693 94.268V92.3868C240.693 91.6428 240.09 91.0396 239.347 91.0396L122.931 91.0396C122.187 91.0396 121.585 91.6428 121.585 92.3868V94.268C121.585 95.0121 122.187 95.6152 122.931 95.6152Z" fill="#E7F4FA"/>
<path d="M122.931 103.504L239.347 103.504C240.09 103.504 240.693 102.901 240.693 102.157V100.275C240.693 99.5314 240.09 98.9283 239.347 98.9283L122.931 98.9283C122.187 98.9283 121.585 99.5314 121.585 100.275V102.157C121.585 102.901 122.187 103.504 122.931 103.504Z" fill="#E7F4FA"/>
<path d="M122.931 118.433L239.347 118.433C240.09 118.433 240.693 117.829 240.693 117.085V115.204C240.693 114.46 240.09 113.857 239.347 113.857L122.931 113.857C122.187 113.857 121.585 114.46 121.585 115.204V117.085C121.585 117.829 122.187 118.433 122.931 118.433Z" fill="#E7F4FA"/>
<path d="M122.931 126.31L239.347 126.31C240.09 126.31 240.693 125.706 240.693 124.962V123.081C240.693 122.337 240.09 121.734 239.347 121.734L122.931 121.734C122.187 121.734 121.585 122.337 121.585 123.081V124.962C121.585 125.706 122.187 126.31 122.931 126.31Z" fill="#E7F4FA"/>
<path d="M332.894 277.523H471.219L475.441 205.029H328.672L332.894 277.523Z" fill="#FEB824"/>
<path d="M397.749 214.787C397.749 223.866 388.444 231.245 376.955 231.245L329.823 231.658L327.955 198.342H376.955C388.444 198.342 397.749 205.709 397.749 214.787Z" fill="#E08B03"/>
<path d="M442.164 108.383H353.554C348.998 108.383 345.305 112.078 345.305 116.636V273.118C345.305 277.676 348.998 281.371 353.554 281.371H442.164C446.72 281.371 450.414 277.676 450.414 273.118V116.636C450.414 112.078 446.72 108.383 442.164 108.383Z" fill="#CEE8EF"/>
<path d="M443.062 108.383H352.669C348.617 108.383 345.305 111.696 345.305 115.75V133.433H450.414V115.75C450.414 111.696 447.102 108.383 443.05 108.383H443.062Z" fill="#B7D9F7"/>
<path d="M446.361 108.383H357.752C353.195 108.383 349.502 112.078 349.502 116.636V273.118C349.502 277.676 353.195 281.371 357.752 281.371H446.361C450.917 281.371 454.611 277.676 454.611 273.118V116.636C454.611 112.078 450.917 108.383 446.361 108.383Z" fill="white"/>
<path d="M447.987 108.383H356.114C352.475 108.383 349.49 111.369 349.49 115.01V133.433H454.599V115.01C454.599 111.369 451.615 108.383 447.975 108.383H447.987Z" fill="#A082EC"/>
<path d="M367.808 120.945C367.808 122.923 366.207 124.525 364.229 124.525C362.252 124.525 360.65 122.923 360.65 120.945C360.65 118.966 362.252 117.364 364.229 117.364C366.207 117.364 367.808 118.966 367.808 120.945Z" fill="#F0F8FF"/>
<path d="M380.376 120.945C380.376 122.923 378.775 124.525 376.798 124.525C374.82 124.525 373.219 122.923 373.219 120.945C373.219 118.966 374.82 117.364 376.798 117.364C378.775 117.364 380.376 118.966 380.376 120.945Z" fill="#F0F8FF"/>
<path d="M392.218 120.945C392.218 122.923 390.617 124.525 388.639 124.525C386.662 124.525 385.061 122.923 385.061 120.945C385.061 118.966 386.662 117.364 388.639 117.364C390.617 117.364 392.218 118.966 392.218 120.945Z" fill="#F0F8FF"/>
<path d="M390.106 145.304H435.224C436.025 145.304 436.68 145.959 436.68 146.76V149.418C436.68 150.219 436.025 150.875 435.224 150.875H390.106C389.306 150.875 388.65 150.219 388.65 149.418V146.76C388.65 145.959 389.306 145.304 390.106 145.304Z" fill="#CEE8EF"/>
<path d="M390.106 157.878H435.224C436.025 157.878 436.68 158.533 436.68 159.334V161.992C436.68 162.793 436.025 163.449 435.224 163.449H390.106C389.306 163.449 388.65 162.793 388.65 161.992V159.334C388.65 158.533 389.306 157.878 390.106 157.878Z" fill="#CEE8EF"/>
<path d="M435.236 183.025H390.106C389.302 183.025 388.65 183.677 388.65 184.482V187.152C388.65 187.956 389.302 188.608 390.106 188.608H435.236C436.04 188.608 436.692 187.956 436.692 187.152V184.482C436.692 183.677 436.04 183.025 435.236 183.025Z" fill="#CEE8EF"/>
<path d="M435.236 195.6H390.106C389.302 195.6 388.65 196.252 388.65 197.056V199.726C388.65 200.531 389.302 201.183 390.106 201.183H435.236C436.04 201.183 436.692 200.531 436.692 199.726V197.056C436.692 196.252 436.04 195.6 435.236 195.6Z" fill="#CEE8EF"/>
<path d="M435.236 220.735H390.106C389.302 220.735 388.65 221.387 388.65 222.192V224.862C388.65 225.666 389.302 226.318 390.106 226.318H435.236C436.04 226.318 436.692 225.666 436.692 224.862V222.192C436.692 221.387 436.04 220.735 435.236 220.735Z" fill="#CEE8EF"/>
<path d="M435.236 233.309H390.106C389.302 233.309 388.65 233.961 388.65 234.765V237.435C388.65 238.24 389.302 238.892 390.106 238.892H435.236C436.04 238.892 436.692 238.24 436.692 237.435V234.765C436.692 233.961 436.04 233.309 435.236 233.309Z" fill="#CEE8EF"/>
<path d="M375.198 145.146H363.418C361.897 145.146 360.664 146.379 360.664 147.901V159.686C360.664 161.207 361.897 162.441 363.418 162.441H375.198C376.719 162.441 377.952 161.207 377.952 159.686V147.901C377.952 146.379 376.719 145.146 375.198 145.146Z" fill="#CEE8EF"/>
<path d="M375.21 183.062H363.406C361.892 183.062 360.664 184.29 360.664 185.804V197.614C360.664 199.129 361.892 200.357 363.406 200.357H375.21C376.724 200.357 377.952 199.129 377.952 197.614V185.804C377.952 184.29 376.724 183.062 375.21 183.062Z" fill="#CEE8EF"/>
<path d="M375.21 220.128H363.406C361.892 220.128 360.664 221.356 360.664 222.871V234.68C360.664 236.195 361.892 237.423 363.406 237.423H375.21C376.724 237.423 377.952 236.195 377.952 234.68V222.871C377.952 221.356 376.724 220.128 375.21 220.128Z" fill="#CEE8EF"/>
<path d="M363.102 145.085L370.162 157.708L382.864 134.113L370.077 148.544L363.102 145.085Z" fill="#B4A4F5"/>
<path d="M363.102 183.595L370.162 196.206L382.864 172.611L370.077 187.054L363.102 183.595Z" fill="#B4A4F5"/>
<path d="M476.909 224.68L477.686 211.305H426.575C415.972 211.305 407.164 217.07 405.272 224.68H323.844L328.26 297.174H472.542L475.744 244.621V244.56L476.958 224.68H476.909Z" fill="#FEB801"/>
<path d="M322.727 250.021L311.687 244.025C311.323 243.831 311.19 243.37 311.384 243.006C311.578 242.642 312.039 242.508 312.403 242.702L323.443 248.698C323.807 248.892 323.94 249.353 323.746 249.717C323.552 250.082 323.091 250.215 322.727 250.021Z" fill="#9BC3EA"/>
<path d="M317.838 257.898L306.799 251.902C306.435 251.708 306.301 251.247 306.495 250.883C306.689 250.519 307.15 250.385 307.514 250.579L318.554 256.575C318.918 256.769 319.051 257.23 318.857 257.594C318.663 257.959 318.202 258.092 317.838 257.898Z" fill="#9BC3EA"/>
<path d="M316.746 267.377L304.384 265.168C303.972 265.096 303.705 264.695 303.778 264.295C303.85 263.882 304.251 263.615 304.651 263.688L317.013 265.897C317.426 265.969 317.693 266.37 317.62 266.771C317.547 267.183 317.147 267.45 316.746 267.377Z" fill="#9BC3EA"/>
<path d="M317.608 273.725L305.294 276.177C304.881 276.262 304.481 275.995 304.408 275.582C304.323 275.169 304.59 274.769 305.003 274.696L317.316 272.244C317.729 272.159 318.129 272.426 318.202 272.839C318.287 273.252 318.02 273.652 317.608 273.725Z" fill="#9BC3EA"/>
<path d="M320.896 281.723L309.225 286.371C308.837 286.529 308.4 286.335 308.242 285.946C308.085 285.558 308.279 285.121 308.667 284.963L320.338 280.315C320.726 280.157 321.163 280.351 321.32 280.74C321.478 281.128 321.284 281.565 320.896 281.723Z" fill="#9BC3EA"/>
<path d="M328.454 287.002L320.398 296.639C320.132 296.954 319.658 297.003 319.331 296.736C319.015 296.469 318.967 295.996 319.234 295.668L327.289 286.031C327.556 285.716 328.029 285.667 328.357 285.934C328.672 286.201 328.721 286.674 328.454 287.002Z" fill="#9BC3EA"/>
<path d="M328.454 287.002L320.398 296.639C320.132 296.954 319.658 297.003 319.331 296.736C319.015 296.469 318.967 295.996 319.234 295.668L327.289 286.031C327.556 285.716 328.029 285.667 328.357 285.934C328.672 286.201 328.721 286.674 328.454 287.002Z" fill="#9BC3EA"/>
<path d="M339.723 287.828L335.247 299.564C335.101 299.953 334.664 300.147 334.276 300.001C333.888 299.856 333.694 299.419 333.839 299.03L338.316 287.294C338.462 286.905 338.898 286.711 339.286 286.857C339.675 287.003 339.869 287.44 339.723 287.828Z" fill="#9BC3EA"/>
<path d="M360.457 280.048L362.713 292.416C362.786 292.828 362.519 293.217 362.107 293.289C361.694 293.362 361.306 293.095 361.233 292.683L358.977 280.327C358.904 279.915 359.171 279.526 359.583 279.453C359.996 279.381 360.384 279.648 360.457 280.06V280.048Z" fill="#9BC3EA"/>
<path d="M190.817 291.047C232.257 278.522 255.702 234.761 243.182 193.303C230.663 151.845 186.92 128.39 145.481 140.915C104.041 153.439 80.5962 197.201 93.1155 238.659C105.635 280.117 149.377 303.572 190.817 291.047Z" fill="#F2B541"/>
<path d="M240.207 216.159C240.207 255.98 207.949 288.252 168.145 288.252C128.341 288.252 96.0703 255.98 96.0703 216.159C96.0703 176.338 128.341 144.065 168.145 144.065C207.949 144.065 240.207 176.338 240.207 216.159Z" fill="#F3FAFF"/>
<path d="M168.144 150.438H162.77V166.944H168.144V150.438Z" fill="#B5D6FC"/>
<path d="M129.689 168.351L126.912 171.236L135.79 179.79L138.567 176.905L129.689 168.351Z" fill="#B5D6FC"/>
<path d="M211.286 247.416L208.5 250.309L217.375 258.865L220.162 255.972L211.286 247.416Z" fill="#B5D6FC"/>
<path d="M213.534 174.385L203.859 182.026L206.348 185.18L216.022 177.539L213.534 174.385Z" fill="#B5D6FC"/>
<path d="M132.181 247.751L122.51 255.396L124.999 258.548L134.671 250.904L132.181 247.751Z" fill="#B5D6FC"/>
<path d="M168.144 263.336H162.77V279.842H168.144V263.336Z" fill="#B5D6FC"/>
<path d="M103.883 210.25L103.709 215.611L120.199 216.147L120.373 210.785L103.883 210.25Z" fill="#B5D6FC"/>
<path d="M217.311 213.199L217.135 218.573L233.625 219.115L233.801 213.741L217.311 213.199Z" fill="#B5D6FC"/>
<path d="M172.428 214.764C172.428 217.131 170.511 219.06 168.146 219.06C165.78 219.06 163.863 217.143 163.863 214.764C163.863 212.385 165.78 210.479 168.146 210.479C170.511 210.479 172.428 212.397 172.428 214.764Z" fill="#191D3A"/>
<path d="M165.742 213.21L214.33 175.524L168.144 216.159L165.742 213.21Z" fill="#191D3A"/>
<path d="M165.232 215.613L197.6 247.57L168.581 212.664L165.232 215.613Z" fill="#191D3A"/>
<path d="M180.581 117.947C180.581 124.817 175.012 130.388 168.146 130.388C161.279 130.388 155.711 124.817 155.711 117.947C155.711 111.078 161.279 105.507 168.146 105.507C175.012 105.507 180.581 111.078 180.581 117.947Z" fill="#E08B03"/>
<path d="M187.786 124.38H148.492C146.978 124.38 145.75 125.608 145.75 127.123V138.786C145.75 140.301 146.978 141.529 148.492 141.529H187.786C189.3 141.529 190.528 140.301 190.528 138.786V127.123C190.528 125.608 189.3 124.38 187.786 124.38Z" fill="#F2B541"/>
<path d="M297.359 303.837H205.728C199.444 303.837 194.349 298.739 194.349 292.452L194.349 125.132C194.349 118.845 199.444 113.748 205.728 113.748H300.137C304.893 113.748 308.738 117.607 308.738 122.353V292.452C308.738 298.739 303.643 303.837 297.359 303.837Z" fill="#83ABDB"/>
<path d="M293.403 303.837H196.434C191.63 303.837 187.724 299.929 187.724 295.123L187.724 125.242C187.724 118.894 192.868 113.748 199.212 113.748H290.625C296.969 113.748 302.113 118.894 302.113 125.242V295.123C302.113 299.929 298.207 303.837 293.403 303.837Z" fill="#B3D0FF"/>
<path d="M211.539 286.529H278.3C285.891 286.529 292.045 280.373 292.045 272.778V138.883C292.045 131.289 285.891 125.132 278.3 125.132H211.539C203.948 125.132 197.794 131.289 197.794 138.883V272.778C197.794 280.373 203.948 286.529 211.539 286.529Z" fill="#D4E6ED"/>
<path d="M216.865 286.529H278.3C285.891 286.529 292.045 280.373 292.045 272.778V138.883C292.045 131.289 285.891 125.132 278.3 125.132H216.865C209.274 125.132 203.12 131.289 203.12 138.883V272.778C203.12 280.373 209.274 286.529 216.865 286.529Z" fill="#E7F4FA"/>
<path d="M214.062 120.909L273.872 120.909C274.562 120.909 275.121 120.349 275.121 119.659V118.579C275.121 117.888 274.562 117.329 273.872 117.329L214.062 117.329C213.372 117.329 212.813 117.888 212.813 118.579V119.659C212.813 120.349 213.372 120.909 214.062 120.909Z" fill="#83ABDB"/>
<path d="M250.991 298.545H238.872C237.27 298.545 235.972 297.246 235.972 295.644V293.168C235.972 291.566 237.27 290.268 238.872 290.268H250.991C252.593 290.268 253.891 291.566 253.891 293.168V295.644C253.891 297.246 252.593 298.545 250.991 298.545Z" fill="#83ABDB"/>
<path d="M413.241 56.5459H370.744C363.206 56.5459 357.096 62.659 357.096 70.2V70.9161C357.096 78.457 363.206 84.5701 370.744 84.5701H413.241C420.779 84.5701 426.889 78.457 426.889 70.9161V70.2C426.889 62.659 420.779 56.5459 413.241 56.5459Z" fill="#D6E6F2"/>
<path d="M379.891 83.2354V92.0589L393.223 83.2354H379.891Z" fill="#D6E6F2"/>
<path d="M377.246 75.2858C379.598 75.2858 381.505 73.3785 381.505 71.0257C381.505 68.6729 379.598 66.7656 377.246 66.7656C374.895 66.7656 372.988 68.6729 372.988 71.0257C372.988 73.3785 374.895 75.2858 377.246 75.2858Z" fill="#F0F8FF"/>
<path d="M395.626 71.0257C395.626 73.3803 393.722 75.2858 391.368 75.2858C389.014 75.2858 387.098 73.3803 387.098 71.0257C387.098 68.6711 389.002 66.7656 391.368 66.7656C393.734 66.7656 395.626 68.6711 395.626 71.0257Z" fill="#F0F8FF"/>
<path d="M405.477 75.2858C407.829 75.2858 409.735 73.3785 409.735 71.0257C409.735 68.6729 407.829 66.7656 405.477 66.7656C403.125 66.7656 401.219 68.6729 401.219 71.0257C401.219 73.3785 403.125 75.2858 405.477 75.2858Z" fill="#F0F8FF"/>
<path d="M318.117 227.702C324.135 227.022 330.467 225.141 337.103 222.07L334.301 216.014C321.344 222.022 309.868 222.92 300.187 218.696C284.549 211.875 278.556 193.913 278.495 193.73L272.15 195.794C272.429 196.643 279.163 216.803 297.518 224.813C303.85 227.58 310.741 228.539 318.129 227.702H318.117Z" fill="#C0C7F5"/>
<path d="M269.846 197.444C270.295 201.389 273.849 204.217 277.78 203.768C281.723 203.319 284.549 199.763 284.1 195.83C283.652 191.886 280.097 189.058 276.166 189.507C272.223 189.956 269.397 193.512 269.846 197.444Z" fill="#6F66D1"/>
<path d="M274.31 189.98C273.085 191.437 272.43 193.367 272.66 195.418C273.109 199.362 276.664 202.19 280.594 201.741C281.25 201.668 281.868 201.498 282.451 201.268C281.31 202.615 279.672 203.562 277.78 203.78C273.837 204.229 270.283 201.401 269.846 197.457C269.47 194.168 271.387 191.158 274.31 189.98Z" fill="#6658C5"/>
<path d="M291.076 221.633C291.416 224.619 294.109 226.767 297.094 226.428C300.078 226.088 302.225 223.393 301.886 220.408C301.546 217.422 298.853 215.274 295.868 215.613C292.884 215.953 290.737 218.648 291.076 221.633Z" fill="#6F66D1"/>
<path d="M294.46 215.966C293.526 217.07 293.029 218.539 293.211 220.08C293.55 223.066 296.244 225.214 299.228 224.874C299.725 224.814 300.186 224.692 300.635 224.51C299.774 225.542 298.536 226.246 297.093 226.416C294.108 226.756 291.415 224.607 291.075 221.622C290.796 219.134 292.24 216.852 294.46 215.966Z" fill="#6658C5"/>
<path d="M263.464 171.338H231.036C230.701 171.338 230.43 171.61 230.43 171.945V182.856C230.43 183.191 230.701 183.463 231.036 183.463H263.464C263.799 183.463 264.071 183.191 264.071 182.856V171.945C264.071 171.61 263.799 171.338 263.464 171.338Z" fill="#6658C5"/>
<path d="M235.828 183.45H263.501C263.809 183.45 264.059 183.2 264.059 182.892V171.884C264.059 171.575 263.809 171.325 263.501 171.325H235.828C235.52 171.325 235.27 171.575 235.27 171.884V182.892C235.27 183.2 235.52 183.45 235.828 183.45Z" fill="#6F66D1"/>
<path d="M287.096 158.788C287.096 162.199 284.33 164.966 280.921 164.966C277.512 164.966 274.746 162.199 274.746 158.788C274.746 155.378 277.512 152.61 280.921 152.61C284.33 152.61 287.096 155.378 287.096 158.788Z" fill="#6F66D1"/>
<path d="M244.819 144.042H248.458C248.786 144.042 249.671 143.775 249.671 143.435L249.065 126.455C249.065 126.128 248.786 125.849 248.458 125.849H244.819C244.491 125.849 244.212 126.116 244.212 126.455L243.605 143.435C243.605 143.763 244.479 144.042 244.819 144.042Z" fill="#6658C5"/>
<path d="M230.879 138.288H257.545C260.298 138.288 262.543 140.533 262.543 143.289V149.66C262.543 152.415 260.298 154.661 257.545 154.661H230.879C228.125 154.661 225.881 152.415 225.881 149.66V143.289C225.881 140.533 228.125 138.288 230.879 138.288Z" fill="#6658C5"/>
<path d="M234.506 154.661H261.183C263.944 154.661 266.182 152.422 266.182 149.661V143.289C266.182 140.527 263.944 138.288 261.183 138.288H234.506C231.745 138.288 229.508 140.527 229.508 143.289V149.661C229.508 152.422 231.745 154.661 234.506 154.661Z" fill="#6F66D1"/>
<path d="M220.724 144.041H264.059C268.741 144.041 272.539 147.84 272.539 152.525V166.167C272.539 170.852 268.741 174.65 264.059 174.65H220.724C216.041 174.65 212.244 170.852 212.244 166.167V152.525C212.244 147.84 216.041 144.041 220.724 144.041Z" fill="#C0C7F5"/>
<path d="M227.396 144.041H270.73C275.413 144.041 279.21 147.84 279.21 152.525V166.167C279.21 170.852 275.413 174.65 270.73 174.65H227.396C222.713 174.65 218.916 170.852 218.916 166.167V152.525C218.916 147.84 222.713 144.041 227.396 144.041Z" fill="#D1D5FC"/>
<path d="M268.159 150.717H228.755C226.329 150.717 224.363 152.684 224.363 155.11V162.696C224.363 165.122 226.329 167.09 228.755 167.09H268.159C270.584 167.09 272.55 165.122 272.55 162.696V155.11C272.55 152.684 270.584 150.717 268.159 150.717Z" fill="#5250BA"/>
<path d="M268.413 152.61H228.5C226.215 152.61 224.363 154.463 224.363 156.749V162.951C224.363 165.237 226.215 167.09 228.5 167.09H268.413C270.698 167.09 272.55 165.237 272.55 162.951V156.749C272.55 154.463 270.698 152.61 268.413 152.61Z" fill="#6F66D1"/>
<path d="M260.432 156.785C260.432 157.962 261.378 158.909 262.555 158.909C263.731 158.909 264.678 157.962 264.678 156.785C264.678 155.608 263.731 154.661 262.555 154.661C261.378 154.661 260.432 155.608 260.432 156.785Z" fill="white"/>
<path d="M233.766 156.785C233.766 157.962 234.712 158.909 235.889 158.909C237.065 158.909 238.012 157.962 238.012 156.785C238.012 155.608 237.065 154.661 235.889 154.661C234.712 154.661 233.766 155.608 233.766 156.785Z" fill="white"/>
<path d="M203.23 158.788C203.23 162.199 205.996 164.966 209.405 164.966C212.814 164.966 215.581 162.199 215.581 158.788C215.581 155.378 212.814 152.61 209.405 152.61C205.996 152.61 203.23 155.378 203.23 158.788Z" fill="#6658C5"/>
<path d="M205.656 158.788C205.656 162.199 208.422 164.966 211.831 164.966C215.24 164.966 218.006 162.199 218.006 158.788C218.006 155.378 215.24 152.61 211.831 152.61C208.422 152.61 205.656 155.378 205.656 158.788Z" fill="#6F66D1"/>
<path d="M244.369 159.358H253.759C253.759 161.956 251.66 164.055 249.064 164.055C246.468 164.055 244.369 161.956 244.369 159.358Z" fill="white"/>
<path d="M240.936 124.744C240.936 127.863 243.471 130.4 246.589 130.4C249.707 130.4 252.242 127.863 252.242 124.744C252.242 121.625 249.707 119.088 246.589 119.088C243.471 119.088 240.936 121.625 240.936 124.744Z" fill="#F2B622"/>
<path d="M245.097 119.294C244.005 120.326 243.325 121.782 243.325 123.396C243.325 126.515 245.861 129.052 248.979 129.052C249.5 129.052 249.998 128.979 250.471 128.846C249.464 129.805 248.093 130.399 246.589 130.399C243.471 130.399 240.936 127.863 240.936 124.743C240.936 122.134 242.695 119.949 245.097 119.294Z" fill="#E3AB1F"/>
<g style="mix-blend-mode:overlay" opacity="0.15">
<path d="M228.755 167.09C226.341 167.09 224.363 165.111 224.363 162.696V155.11C224.363 152.719 226.292 150.765 228.67 150.717C230.429 159.358 237.393 167.09 270.755 166.216C270.027 166.762 269.129 167.077 268.159 167.077H228.755V167.09Z" fill="black"/>
</g>
<path d="M275.67 149.406H274.893C274.438 149.406 274.068 149.776 274.068 150.232V167.782C274.068 168.237 274.438 168.607 274.893 168.607H275.67C276.125 168.607 276.495 168.237 276.495 167.782V150.232C276.495 149.776 276.125 149.406 275.67 149.406Z" fill="#E2E7FD"/>
<path d="M280.498 209.981C280.498 228.174 265.758 266.879 247.561 266.879C229.363 266.879 214.623 228.174 214.623 209.981C214.623 191.788 229.363 177.029 247.561 177.029C265.758 177.029 280.498 191.776 280.498 209.981Z" fill="#D1D5FC"/>
<path d="M272.018 210.527C272.018 221.451 263.162 244.705 252.243 244.705C241.325 244.705 232.469 221.463 232.469 210.527C232.469 199.592 241.325 190.744 252.243 190.744C263.162 190.744 272.018 199.604 272.018 210.527Z" fill="#6F66D1"/>
<path d="M214.477 264.477L219.341 259.913C209.563 249.5 205.099 238.88 206.057 228.357C207.61 211.353 222.763 200.005 222.908 199.896L218.953 194.52C218.225 195.054 201.229 207.785 199.409 227.738C198.269 240.239 203.34 252.595 214.477 264.465V264.477Z" fill="#C0C7F5"/>
<path d="M212.16 198.682C212.16 202.651 215.375 205.855 219.342 205.855C223.309 205.855 226.512 202.639 226.512 198.682C226.512 194.725 223.297 191.497 219.342 191.497C215.387 191.497 212.16 194.713 212.16 198.682Z" fill="#6F66D1"/>
<path d="M217.45 191.764C216.067 193.074 215.193 194.919 215.193 196.983C215.193 200.951 218.408 204.168 222.375 204.168C223.03 204.168 223.661 204.071 224.268 203.913C222.982 205.126 221.247 205.879 219.342 205.879C215.375 205.879 212.16 202.663 212.16 198.706C212.16 195.393 214.405 192.625 217.437 191.788L217.45 191.764Z" fill="#6658C5"/>
<path d="M197.152 228.139C197.152 231.148 199.591 233.576 202.587 233.576C205.584 233.576 208.022 231.136 208.022 228.139C208.022 225.141 205.584 222.701 202.587 222.701C199.591 222.701 197.152 225.141 197.152 228.139Z" fill="#6F66D1"/>
<path d="M201.156 222.896C200.113 223.891 199.446 225.287 199.446 226.852C199.446 229.862 201.884 232.29 204.881 232.29C205.378 232.29 205.863 232.217 206.312 232.095C205.342 233.018 204.031 233.588 202.576 233.588C199.567 233.588 197.141 231.149 197.141 228.151C197.141 225.638 198.839 223.539 201.144 222.908L201.156 222.896Z" fill="#6658C5"/>
<path d="M346.637 53.9854H285.518V94.632H346.637V53.9854Z" fill="#FFB31A"/>
<path d="M285.518 53.9854L316.077 79.5336L346.637 53.9854V94.632H285.518V53.9854Z" fill="#FF8F18"/>
<path d="M278.725 54.3497C278.725 58.3549 281.952 61.6076 285.931 61.6076C289.91 61.6076 293.125 58.3549 293.125 54.3497C293.125 50.3445 289.898 47.0918 285.931 47.0918C281.964 47.0918 278.725 50.3445 278.725 54.3497Z" fill="#4C6EF4"/>
<path d="M285.142 52.5774H285.118L283.771 53.2206L283.492 51.9705L285.373 51.0967H286.756V58.1968H285.142V52.5653V52.5774Z" fill="white"/>
<path d="M27.8906 90.4446C27.8906 92.9934 29.953 95.0566 32.5007 95.0566H94.9788C97.5264 95.0566 99.5888 92.9934 99.5888 90.4446V83.7693C99.5888 81.2205 97.5264 79.1572 94.9788 79.1572H32.5007C29.953 79.1572 27.8906 81.2205 27.8906 83.7693V90.4446Z" fill="#C9E1F9"/>
<path d="M89.6529 81.5L87.9787 84.8862L84.2422 85.4324L86.9475 88.0661L86.3046 91.7921L89.6529 90.0323L92.9891 91.7921L92.3583 88.0661L95.0636 85.4324L91.3149 84.8862L89.6529 81.5Z" fill="white"/>
<path d="M77.3385 81.5L75.6643 84.8862L71.9277 85.4324L74.6331 88.0661L73.9901 91.7921L77.3385 90.0323L80.6868 91.7921L80.0438 88.0661L82.7492 85.4324L79.0126 84.8862L77.3385 81.5Z" fill="#FEBD01"/>
<path d="M65.0255 81.5L63.3635 84.8862L59.627 85.4324L62.3323 88.0661L61.6893 91.7921L65.0255 90.0323L68.3739 91.7921L67.743 88.0661L70.4484 85.4324L66.6997 84.8862L65.0255 81.5Z" fill="#FEBD01"/>
<path d="M52.7232 81.5L51.0612 84.8862L47.3125 85.4324L50.0179 88.0661L49.387 91.7921L52.7232 90.0323L56.0716 91.7921L55.4286 88.0661L58.134 85.4324L54.3974 84.8862L52.7232 81.5Z" fill="#FEBD01"/>
<path d="M40.4224 81.5L38.7483 84.8862L35.0117 85.4324L37.7171 88.0661L37.0741 91.7921L40.4224 90.0323L43.7587 91.7921L43.1278 88.0661L45.8332 85.4324L42.0845 84.8862L40.4224 81.5Z" fill="#FEBD01"/>
<path d="M17.0332 112.582C17.0332 115.131 19.0956 117.194 21.6432 117.194H84.1214C86.669 117.194 88.7314 115.131 88.7314 112.582V105.907C88.7314 103.358 86.669 101.295 84.1214 101.295H21.6432C19.0956 101.295 17.0332 103.358 17.0332 105.907V112.582Z" fill="#C9E1F9"/>
<path d="M78.7955 103.638L77.1213 107.024L73.3848 107.57L76.0901 110.204L75.4471 113.93L78.7955 112.17L82.1317 113.93L81.5009 110.204L84.2062 107.57L80.4575 107.024L78.7955 103.638Z" fill="white"/>
<path d="M66.481 103.638L64.8069 107.024L61.0703 107.57L63.7757 110.204L63.1327 113.93L66.481 112.17L69.8294 113.93L69.1864 110.204L71.8918 107.57L68.1552 107.024L66.481 103.638Z" fill="white"/>
<path d="M54.1681 103.638L52.5061 107.024L48.7695 107.57L51.4749 110.204L50.8319 113.93L54.1681 112.17L57.5165 113.93L56.8856 110.204L59.591 107.57L55.8423 107.024L54.1681 103.638Z" fill="#FEBD01"/>
<path d="M41.8658 103.638L40.2038 107.024L36.4551 107.57L39.1604 110.204L38.5296 113.93L41.8658 112.17L45.2141 113.93L44.5712 110.204L47.2765 107.57L43.54 107.024L41.8658 103.638Z" fill="#FEBD01"/>
<path d="M29.565 103.638L27.8909 107.024L24.1543 107.57L26.8597 110.204L26.2167 113.93L29.565 112.17L32.9012 113.93L32.2704 110.204L34.9757 107.57L31.2271 107.024L29.565 103.638Z" fill="#FEBD01"/>
<path d="M10.1905 121.709H72.6565C75.2042 121.709 77.2666 123.772 77.2666 126.321V132.996C77.2666 135.545 75.2042 137.608 72.6565 137.608H10.1784C7.63074 137.608 5.56836 135.545 5.56836 132.996V126.321C5.56836 123.772 7.63074 121.709 10.1784 121.709H10.1905Z" fill="#C9E1F9"/>
<path d="M67.3306 124.039L65.6565 127.425L61.9199 127.971L64.6132 130.605L63.9823 134.331L67.3306 132.571L70.6669 134.331L70.0239 130.605L72.7292 127.971L68.9927 127.425L67.3306 124.039Z" fill="white"/>
<path d="M55.0162 124.039L53.342 127.425L49.6055 127.971L52.3108 130.605L51.6679 134.331L55.0162 132.571L58.3645 134.331L57.7216 130.605L60.4269 127.971L56.6904 127.425L55.0162 124.039Z" fill="white"/>
<path d="M42.7037 124.039L41.0417 127.425L37.293 127.971L39.9983 130.605L39.3675 134.331L42.7037 132.571L46.052 134.331L45.4091 130.605L48.1144 127.971L44.3779 127.425L42.7037 124.039Z" fill="white"/>
<path d="M30.401 124.039L28.7268 127.425L24.9902 127.971L27.6956 130.605L27.0526 134.331L30.401 132.571L33.7493 134.331L33.1063 130.605L35.8117 127.971L32.0751 127.425L30.401 124.039Z" fill="#FEBD01"/>
<path d="M18.1002 124.039L16.426 127.425L12.6895 127.971L15.3948 130.605L14.7518 134.331L18.1002 132.571L21.4364 134.331L20.8055 130.605L23.4988 127.971L19.7622 127.425L18.1002 124.039Z" fill="#FEBD01"/>
<path d="M121 226.937C120.345 225.966 118.004 224.946 115.432 226.755C112.86 228.563 109.961 240.639 111.501 252.133C113.042 263.627 106.333 262.644 110.385 269.986C111.987 272.875 119.86 270.096 118.356 262.51C113.515 238.297 125.162 233.09 121.013 226.937H121Z" fill="#969924"/>
<path d="M139.173 218.417C139.173 218.417 137.912 213.223 132.258 215.516C126.605 217.798 123.451 222.362 122.832 231.913C122.201 241.465 118.646 244.16 115.711 250.592C112.775 257.025 112.981 271.14 119.484 271.978C125.986 272.815 126.107 259.282 130.378 256.2C137.293 251.223 132.743 244.184 132.258 240.009C131.215 230.882 141.903 229.013 139.173 218.417Z" fill="#C2C23C"/>
<path d="M108.93 260.35C108.93 260.35 107.353 262.583 104.368 257.959C101.566 253.614 98.2419 249.633 99.2852 243.468C100.329 237.302 90.1379 219.716 99.1033 214.934C103.92 212.361 114.219 211.984 112.982 231.707C111.478 255.629 113.115 254.537 108.93 260.35Z" fill="#C2C23C"/>
<path d="M140.715 254.755C139.939 253.396 137.355 251.575 134.431 254.755C134.431 254.755 132.199 256.94 131.362 260.897C130.525 264.853 128.875 268.458 126.764 270.254C124.653 272.063 120.601 275.789 124.507 276.48C128.414 277.172 147.448 266.48 140.715 254.755Z" fill="#969924"/>
<path d="M96.6526 239.693C96.8346 237.982 96.7618 234.147 92.3216 233.94C87.8935 233.734 83.3806 238.201 86.8745 247.048C90.3684 255.896 90.4776 267.475 100.219 268.361C109.961 269.247 101.542 260.751 100.85 259.974C96.968 255.641 95.6457 248.893 96.6405 239.693H96.6526Z" fill="#C2C23C"/>
<path d="M115.31 286.517L115.662 286.299C104.574 268.288 104.44 220.626 104.44 220.152H104.016C104.016 220.626 104.149 268.409 115.298 286.517H115.31Z" fill="#969924"/>
<path d="M104.489 228.175C104.587 228.175 104.671 228.175 104.769 228.163C107.571 227.908 109.197 223.867 109.257 223.697L108.869 223.539C108.869 223.539 107.268 227.508 104.732 227.751C103.191 227.884 101.578 226.658 99.9401 224.061L99.5762 224.279C101.214 226.865 102.852 228.175 104.489 228.175Z" fill="#969924"/>
<path d="M105.036 235.821C105.133 235.821 105.218 235.821 105.315 235.809C108.105 235.554 109.731 231.513 109.804 231.331L109.415 231.173C109.415 231.173 107.814 235.154 105.279 235.384C103.738 235.518 102.124 234.292 100.487 231.695L100.135 231.913C101.773 234.498 103.422 235.809 105.036 235.809V235.821Z" fill="#969924"/>
<path d="M105.036 244.694C105.133 244.694 105.218 244.694 105.315 244.682C108.105 244.427 109.731 240.385 109.804 240.215L109.415 240.058C109.415 240.058 107.814 244.039 105.279 244.269C103.738 244.403 102.124 243.177 100.487 240.58L100.135 240.798C101.773 243.383 103.422 244.694 105.036 244.694Z" fill="#969924"/>
<path d="M106.054 251.381C106.127 251.381 106.187 251.381 106.26 251.381C108.286 251.187 109.451 248.299 109.499 248.165L109.111 248.02C109.111 248.02 107.995 250.811 106.224 250.969C105.168 251.066 104.028 250.192 102.887 248.384L102.523 248.602C103.7 250.459 104.877 251.394 106.054 251.394V251.381Z" fill="#969924"/>
<path d="M107.948 290.704C118.235 279.696 131.423 221.742 131.556 221.16L131.144 221.062C131.01 221.645 117.859 279.478 107.645 290.413L107.948 290.692V290.704Z" fill="#969924"/>
<path d="M125.367 247.242C126.678 247.242 128.194 246.368 129.868 244.621L129.565 244.329C127.648 246.308 126.01 247.121 124.676 246.72C122.48 246.053 121.813 242.315 121.813 242.278L121.4 242.351C121.425 242.521 122.128 246.393 124.555 247.121C124.809 247.206 125.076 247.242 125.355 247.242H125.367Z" fill="#969924"/>
<path d="M138.119 263.238C138.665 263.238 139.308 263.068 140.073 262.729L139.903 262.352C138.665 262.911 137.78 262.971 137.258 262.559C136.409 261.867 136.797 260.058 136.809 260.034L136.397 259.949C136.373 260.034 135.948 262.037 136.991 262.886C137.282 263.129 137.658 263.238 138.107 263.238H138.119Z" fill="#C2C23C"/>
<path d="M133.801 268.895C134.347 268.895 134.99 268.725 135.754 268.385L135.584 268.009C134.347 268.555 133.461 268.628 132.952 268.215C132.102 267.535 132.503 265.715 132.503 265.69L132.09 265.605C132.066 265.69 131.641 267.693 132.685 268.53C132.976 268.773 133.352 268.882 133.801 268.882V268.895Z" fill="#C2C23C"/>
<path d="M136.227 265.981C136.772 265.981 137.415 265.812 138.18 265.472L138.01 265.095C136.772 265.642 135.887 265.727 135.377 265.302C134.528 264.622 134.928 262.802 134.928 262.777L134.516 262.692C134.492 262.777 134.067 264.78 135.11 265.63C135.402 265.86 135.778 265.981 136.227 265.981Z" fill="#C2C23C"/>
<path d="M131.471 271.31C132.017 271.31 132.66 271.14 133.424 270.8L133.254 270.424C132.017 270.97 131.131 271.043 130.621 270.63C129.772 269.95 130.173 268.13 130.173 268.105L129.76 268.021C129.736 268.105 129.311 270.108 130.355 270.946C130.646 271.188 131.022 271.31 131.471 271.31Z" fill="#C2C23C"/>
<path d="M128.863 233.819C130.173 233.819 131.69 232.945 133.364 231.21L133.061 230.918C131.144 232.909 129.506 233.71 128.184 233.309C125.988 232.654 125.321 228.904 125.321 228.867L124.908 228.94C124.932 229.11 125.636 232.982 128.062 233.71C128.317 233.783 128.596 233.819 128.863 233.819Z" fill="#969924"/>
<path d="M131.045 226.051C132.355 226.051 133.872 225.165 135.546 223.429L135.243 223.138C133.326 225.129 131.688 225.93 130.354 225.529C128.158 224.862 127.491 221.123 127.491 221.087L127.078 221.16C127.102 221.318 127.794 225.189 130.232 225.93C130.487 226.015 130.754 226.051 131.033 226.051H131.045Z" fill="#969924"/>
<path d="M126.908 241.162C128.012 241.162 129.262 240.434 130.669 238.977L130.366 238.686C128.788 240.312 127.442 240.98 126.35 240.652C124.567 240.118 124.009 237.035 123.996 236.999L123.584 237.072C123.608 237.205 124.191 240.434 126.229 241.053C126.447 241.126 126.678 241.15 126.908 241.15V241.162Z" fill="#969924"/>
<path d="M123.488 253.894C124.798 253.894 126.315 253.02 127.989 251.272L127.686 250.981C125.769 252.971 124.131 253.772 122.809 253.372C120.625 252.716 119.946 248.966 119.946 248.93L119.533 249.003C119.557 249.172 120.261 253.032 122.687 253.772C122.942 253.857 123.221 253.894 123.5 253.894H123.488Z" fill="#969924"/>
<path d="M121.85 261.734C123.16 261.734 124.677 260.86 126.351 259.125L126.047 258.833C124.131 260.824 122.481 261.625 121.158 261.224C118.963 260.569 118.295 256.819 118.295 256.782L117.883 256.855C117.907 257.013 118.599 260.885 121.037 261.625C121.292 261.71 121.571 261.746 121.838 261.746L121.85 261.734Z" fill="#969924"/>
<path d="M119.569 267.438C120.515 267.438 121.607 266.807 122.808 265.557L122.504 265.266C121.17 266.661 120.017 267.22 119.095 266.953C117.579 266.492 117.106 263.87 117.106 263.846L116.693 263.919C116.718 264.04 117.215 266.819 118.974 267.353C119.168 267.402 119.362 267.438 119.569 267.438Z" fill="#969924"/>
<path d="M101.373 280.789C117.132 280.789 126.594 275 131.774 270.109C137.464 264.744 139.357 259.258 139.381 259.21L138.981 259.076C138.981 259.076 137.088 264.526 131.471 269.83C126.352 274.66 116.986 280.377 101.373 280.377H100.814V280.789C100.996 280.789 101.191 280.789 101.373 280.789Z" fill="#C2C23C"/>
<path d="M92.3098 243.552C93.5351 243.552 94.627 242.108 94.6755 242.047L94.3358 241.805C94.3358 241.805 93.1954 243.31 92.1279 243.115C91.4727 243.006 90.9511 242.29 90.5507 241.016L90.1504 241.137C90.5993 242.593 91.2301 243.394 92.0551 243.528C92.14 243.54 92.2249 243.552 92.3098 243.552Z" fill="#969924"/>
<path d="M92.2979 248.408C93.6324 248.408 94.5908 246.636 94.6393 246.563L94.2632 246.369C94.2632 246.369 93.3776 248.007 92.2979 248.007H92.2737C91.6185 247.995 90.9877 247.364 90.4054 246.15L90.0293 246.332C90.6844 247.704 91.4487 248.408 92.2737 248.42H92.31L92.2979 248.408Z" fill="#969924"/>
<path d="M93.7897 255.459C95.1242 255.459 96.0826 253.687 96.1311 253.603L95.7672 253.408C95.7672 253.408 94.8815 255.035 93.8018 255.035H93.7776C93.1225 255.023 92.4916 254.391 91.9093 253.178L91.5332 253.36C92.1883 254.731 92.9526 255.435 93.7776 255.447H93.8018L93.7897 255.459Z" fill="#969924"/>
<path d="M96.6518 262.425C96.8945 262.425 97.1129 262.377 97.3191 262.28C98.5444 261.709 98.5929 259.658 98.605 259.573H98.1804C98.1804 259.573 98.1319 261.442 97.1371 261.904C96.5427 262.183 95.6934 261.904 94.6259 261.078L94.3711 261.406C95.2446 262.086 96.0089 262.425 96.6518 262.425Z" fill="#969924"/>
<path d="M119.679 283.993L119.885 283.629C90.0651 267.256 92.4429 241.708 92.4672 241.453L92.0547 241.404C92.0547 241.465 91.3996 247.983 94.4689 256.454C97.3077 264.258 103.98 275.364 119.679 283.993Z" fill="#969924"/>
<path d="M122.614 277.512C122.614 277.512 122.42 299.989 119.581 303.618H102.9C102.9 303.618 100.631 298.545 100.813 277.512H122.614Z" fill="#D94B4B"/>
<path d="M100.813 277.512H102.536C104.501 288.884 109.366 296.943 115.056 296.943C117.555 296.943 119.884 295.377 121.886 292.683C121.437 297.586 120.733 302.15 119.581 303.618H102.9C102.9 303.618 100.631 298.545 100.813 277.512Z" fill="#C63846"/>
<path d="M326.513 209.071C326.513 209.071 338.366 207.797 342.321 203.015C346.276 198.245 343.206 194.203 343.206 194.203C343.206 194.203 331.596 202.845 324.9 202.966C318.203 203.087 326.513 209.071 326.513 209.071Z" fill="#FFBE9E"/>
<path d="M350.74 191.072C354.84 199.325 336.934 207.966 336.934 207.966L330.953 200.017C330.953 200.017 346.749 183.025 350.74 191.072Z" fill="#ED3748"/>
<path d="M324.426 208.099C320.738 204.786 314.77 193.086 314.77 193.086L318.627 193.268L330.055 205.041C330.055 205.041 328.187 211.473 324.426 208.099Z" fill="#FFBE9E"/>
<path d="M369.496 249.706L337.432 227.07L338.062 222.434L368.549 220.128L369.496 249.706Z" fill="#2D2C44"/>
<path d="M341.798 194.409C343.86 187.807 353.796 187.467 361.876 188.681C367.323 189.506 370.829 191.278 371.435 198.087C371.824 202.432 370.623 221.426 367.966 226.451C367.966 226.451 358.685 231.646 338 225.274C338 225.274 337.382 208.525 341.786 194.409H341.798Z" fill="#FF4650"/>
<path d="M369.204 227.628C369.204 227.628 349.526 231.439 337.225 225.565L338.062 222.434C338.062 222.434 352.098 227.555 368.888 224.024L369.204 227.628Z" fill="#242236"/>
<path d="M359.413 224.448H357.666L357.254 229.691H360.129L359.413 224.448Z" fill="#2D2C44"/>
<path d="M347.197 223.842L345.935 223.441L343.764 228.26L346.36 229.073L347.197 223.842Z" fill="#2D2C44"/>
<path d="M361.015 179.894C361.015 179.894 352.693 181.678 353.154 182.358C353.615 183.037 352.802 184.409 352.79 185.732C352.766 187.176 351.807 188.693 350.521 190.15C349.624 191.169 351.213 192.383 352.632 192.65C358.747 193.803 362.604 191.509 361.306 189.531C358.407 185.089 361.003 179.882 361.003 179.882L361.015 179.894Z" fill="#FFBE9E"/>
<path d="M352.789 185.744C352.813 184.421 353.626 183.05 353.153 182.37C352.692 181.691 361.669 179.761 361.669 179.761C361.669 179.761 360.311 181.156 360.068 183.256C357.569 186.63 354.014 187.674 351.758 188.548C352.328 187.759 352.765 186.266 352.777 185.744H352.789Z" fill="#FF9C81"/>
<path d="M352.644 170.305C349.369 172.781 346.578 181.326 350 185.404C351.88 187.637 358.734 185.27 361.937 180.391C362.35 179.76 363.381 176.131 361.67 172.187C360.906 170.402 356.041 167.72 352.632 170.305H352.644Z" fill="#FFBE9E"/>
<path d="M348.859 177.03C348.859 177.552 349.599 171.859 352.801 171.471C354.1 171.313 353.808 172.685 355.325 172.794C356.611 172.891 360.481 170.294 358.989 177.976C358.916 178.34 359.268 178.777 359.437 179.117C359.644 179.53 358.989 180.464 359.001 180.926C359.001 181.363 360.335 180.003 360.311 180.452C360.275 181.12 359.11 182.989 360.08 183.244C360.541 183.365 361.112 182.613 361.463 182.358C362.434 181.642 363.502 181.144 364.327 180.234C365.224 179.226 365.734 177.903 365.964 176.581C366.195 175.258 366.171 173.862 365.637 172.636C365.079 171.362 363.963 170.33 362.628 169.893C361.852 169.626 360.954 169.602 360.214 169.238C359.559 168.91 358.843 168.837 358.176 168.509C357.642 168.255 357.46 167.927 357.108 167.49C356.356 166.531 355.155 165.912 353.942 165.973C352.729 166.034 351.552 166.81 351.103 167.951C350.86 168.594 350.763 169.408 350.145 169.711C349.926 169.82 349.659 169.845 349.441 169.978C349.235 170.099 349.113 170.318 349.004 170.524C348.458 171.641 348.422 172.976 348.725 174.177C348.847 174.663 349.029 175.148 348.992 175.646C348.956 176.107 348.859 176.544 348.859 177.017V177.03Z" fill="#53424D"/>
<path d="M358.188 179.894C358.188 179.894 360.554 177.807 361.852 178.413C363.162 179.02 361.33 182.564 358.637 182.079C355.956 181.593 357.46 180.465 358.188 179.894Z" fill="#FFBE9E"/>
<path d="M338.365 302.502C338.365 302.502 337.14 303.946 335.684 305.888C334.24 307.83 333.148 309.869 335.174 310.791C337.2 311.726 339.663 309.432 340.452 308.085C341.252 306.726 342.15 306.883 343.242 305.973C344.346 305.063 343.764 301.737 343.764 301.737L338.353 302.502H338.365Z" fill="#E79E30"/>
<path d="M356.951 238.54C353.991 242.29 344.14 302.611 344.14 302.611C341.18 305.099 336.739 302.611 336.739 302.611C333.537 271.844 337.504 226.16 337.504 226.16C337.504 226.16 359.911 242.278 356.951 238.54Z" fill="#2D2C44"/>
<path d="M340.342 227.156C340.379 229.656 340.306 236.671 336.727 236.671C336.133 236.671 336.133 237.593 336.727 237.593C341.107 237.593 341.313 230.226 341.264 227.168C341.264 226.573 340.342 226.573 340.342 227.168V227.156Z" fill="#242236"/>
<path d="M367.857 303.484C367.857 303.484 369.082 304.929 370.538 306.871C371.982 308.812 373.073 310.851 371.047 311.774C369.021 312.708 366.559 310.415 365.77 309.067C364.969 307.708 364.072 307.866 362.98 306.956C361.876 306.045 362.458 302.72 362.458 302.72L367.869 303.472L367.857 303.484Z" fill="#E79E30"/>
<path d="M349.272 239.535C352.232 243.286 362.083 303.606 362.083 303.606C365.043 306.094 369.483 303.606 369.483 303.606C372.686 272.839 369.216 227.629 369.216 227.629C369.216 227.629 346.312 243.273 349.272 239.523V239.535Z" fill="#2D2C44"/>
<path d="M364.97 228.139C364.921 231.209 365.128 238.564 369.507 238.564C370.102 238.564 370.102 237.642 369.507 237.642C365.928 237.642 365.856 230.639 365.892 228.127C365.892 227.532 364.982 227.532 364.97 228.127V228.139Z" fill="#242236"/>
<path d="M355.689 178.96C355.749 178.923 355.616 178.984 355.592 178.996C355.495 179.032 355.385 179.057 355.288 179.069C354.876 179.105 354.694 178.838 354.597 178.486C354.536 178.268 354.197 178.389 354.257 178.608C354.476 179.384 355.203 179.615 355.907 179.251C356.113 179.142 355.907 178.85 355.701 178.96H355.689Z" fill="#201714"/>
<path d="M351.879 177.575C351.782 177.66 351.661 177.745 351.54 177.794C351.139 177.964 350.909 177.721 350.763 177.357C350.678 177.151 350.339 177.26 350.424 177.478C350.594 177.903 350.897 178.279 351.431 178.194C351.71 178.146 351.977 177.988 352.171 177.794C352.34 177.636 352.061 177.405 351.892 177.563L351.879 177.575Z" fill="#201714"/>
<path d="M351.224 175.707C351.819 175.585 352.304 175.889 352.51 176.459C352.607 176.726 353.008 176.544 352.911 176.277C352.631 175.525 351.952 175.112 351.139 175.27C350.86 175.33 350.933 175.755 351.212 175.707H351.224Z" fill="#4D2F20"/>
<path d="M354.743 177.211C355.289 176.932 355.835 177.102 356.187 177.588C356.357 177.818 356.684 177.527 356.527 177.308C356.054 176.665 355.289 176.447 354.549 176.823C354.294 176.956 354.489 177.345 354.743 177.224V177.211Z" fill="#4D2F20"/>
<path d="M353.251 177.26C353.324 177.661 353.336 178.11 353.178 178.486C352.947 179.032 352.28 179.214 351.88 179.639C351.334 180.222 351.759 180.659 352.511 180.962C352.693 181.035 352.814 180.804 352.632 180.732C350.946 180.04 353.069 179.372 353.421 178.68C353.639 178.243 353.651 177.722 353.554 177.236C353.53 177.078 353.227 177.09 353.251 177.26Z" fill="#7C4930"/>
<path d="M351.031 182.091C351.031 182.091 351.723 180.744 352.79 181.387C353.858 182.03 353.276 183.268 353.276 183.268L351.031 182.091Z" fill="#FAFFFF"/>
<path d="M356.284 181.727C356.09 182.151 355.581 182.346 355.144 182.139C354.719 181.945 354.525 181.435 354.731 180.998C354.925 180.574 355.435 180.379 355.872 180.586C356.296 180.78 356.49 181.29 356.284 181.727Z" fill="#FF9C81"/>
<path d="M349.381 178.85C349.781 178.595 350.315 178.717 350.57 179.117C350.825 179.518 350.703 180.052 350.303 180.307C349.903 180.562 349.369 180.44 349.114 180.04C348.859 179.639 348.981 179.105 349.381 178.85Z" fill="#FF9C81"/>
<path d="M368.307 219.97C368.307 219.97 373.632 209.302 371.752 203.391C369.872 197.48 364.825 197.881 364.825 197.881C364.825 197.881 365.82 212.324 362.302 218.028C358.783 223.732 368.307 219.97 368.307 219.97Z" fill="#FFBE9E"/>
<path d="M366.256 189.846C375.415 190.853 373.001 210.6 373.001 210.6L363.089 211.34C363.089 211.34 357.327 188.863 366.256 189.846Z" fill="#ED3748"/>
<path d="M366.365 221.207C361.585 222.518 348.52 221.232 348.52 221.232L350.752 218.088L366.826 214.823C366.826 214.823 371.218 219.872 366.365 221.219V221.207Z" fill="#FFBE9E"/>
<path d="M351.225 217.567C350.922 217.288 350.764 216.79 350.534 216.438C350.085 215.746 349.442 215.237 348.799 214.739C348.435 214.46 348.01 213.465 347.44 213.61C346.518 213.853 347.695 215.321 347.828 215.734C347.95 216.11 347.913 216.584 347.598 216.802C347.392 216.948 347.113 216.96 346.846 216.936C346.021 216.887 345.22 216.705 344.407 216.572C343.983 216.499 343.558 216.462 343.133 216.426C342.818 216.39 342.406 216.232 342.09 216.28C341.847 216.317 341.617 216.572 341.714 216.839C341.811 217.069 342.054 217.033 342.248 217.093C342.709 217.227 343.158 217.361 343.607 217.506C343.704 217.543 344.177 217.615 344.213 217.725C344.407 218.246 343.146 218.052 342.951 218.028C342.442 217.967 341.908 217.931 341.447 218.186C341.386 218.222 341.326 218.271 341.314 218.331C341.289 218.441 341.411 218.526 341.52 218.562C342.127 218.805 342.794 218.829 343.388 219.084C343.485 219.12 343.594 219.193 343.607 219.302C343.643 219.727 342.794 219.764 342.515 219.8C342.345 219.824 342.127 219.873 342.078 220.043C342.054 220.152 342.114 220.273 342.211 220.334C342.308 220.395 342.418 220.431 342.539 220.443C342.867 220.516 343.218 220.613 343.546 220.637C343.704 220.65 344.201 220.637 344.225 220.868C344.225 220.917 344.213 220.953 344.177 220.989C344.068 221.111 343.898 221.147 343.752 221.196C343.594 221.244 343.437 221.341 343.412 221.499C343.388 221.693 343.607 221.839 343.789 221.9C344.468 222.13 345.22 222.13 345.924 222.155C346.676 222.179 347.44 222.179 348.192 222.13C349.199 222.07 350.194 221.96 351.189 221.79C352.05 221.633 353.033 221.402 353.615 220.698C353.785 220.504 353.906 220.261 354.016 220.031C354.173 219.727 354.307 219.412 354.367 219.072C354.416 218.732 354.367 218.368 354.185 218.089C354.161 218.052 354.125 218.016 354.088 217.992C354.04 217.967 353.967 217.967 353.919 217.967C353.47 218.004 353.009 218.064 352.56 218.04C352.111 218.016 351.65 217.882 351.225 217.543V217.567Z" fill="#FFBE9E"/>
<path d="M314.769 193.087C314.769 193.087 301.06 193.281 304.457 190.684C307.866 188.086 316.467 188.669 318.627 193.269C320.774 197.857 314.769 193.087 314.769 193.087Z" fill="#FFBE9E"/>
<path d="M336.29 188.232H290.59V190.708H336.29V188.232Z" fill="#A2726E"/>
<path d="M318.493 190.696H285.956L281.164 169.104H312.076L318.493 190.696Z" fill="#A2726E"/>
</g>
<defs>
<clipPath id="clip0_2475_20322">
<rect width="520" height="313" fill="white"/>
</clipPath>
</defs>
</svg>
