<svg width="474" height="317" viewBox="0 0 474 317" fill="none" xmlns="http://www.w3.org/2000/svg">
<path d="M320.753 163.229L327.79 232.204C331.312 258.877 347.898 282.854 369.886 298.309L391.156 313.26C396.58 317.072 403.85 316.896 409.084 312.826L427.693 298.353C447.7 282.792 462.823 259.942 466.084 234.782L473.277 163.307C474.212 156.092 469.675 149.297 462.661 147.407L416.375 134.931C402.882 131.293 388.661 131.352 375.198 135.099L331.249 147.328C324.282 149.268 319.804 156.05 320.751 163.231L320.753 163.229Z" fill="white"/>
<path d="M399.827 316.401C396.729 316.401 393.626 315.461 390.935 313.571L369.666 298.621C358.545 290.804 348.839 280.793 341.592 269.671C333.902 257.865 329.13 245.277 327.411 232.254L320.373 163.274C319.408 155.95 324.04 148.937 331.146 146.959L375.095 134.731C388.615 130.968 402.922 130.91 416.474 134.563L462.76 147.039C469.925 148.97 474.608 155.985 473.654 163.355L466.462 234.818C463.36 258.752 449.315 282.014 427.926 298.65L409.318 313.125C406.515 315.305 403.176 316.401 399.831 316.401H399.827ZM396.089 132.625C389.09 132.625 382.093 133.57 375.297 135.462L331.348 147.691C324.602 149.568 320.207 156.227 321.125 163.179C321.125 163.182 321.125 163.186 321.125 163.189L328.162 232.164C331.475 257.253 347.151 281.869 370.1 297.996L391.369 312.947C396.689 316.686 403.712 316.515 408.844 312.523L427.453 298.048C448.684 281.535 462.625 258.455 465.699 234.729L472.891 163.265C473.799 156.261 469.354 149.603 462.554 147.77L416.268 135.294C409.662 133.513 402.872 132.623 396.084 132.623L396.089 132.625Z" fill="#A082EC"/>
<path d="M333.25 172.1L338.795 229.593C341.739 251.826 355.946 271.811 374.332 284.694L392.116 297.154C396.651 300.332 402.73 300.185 407.106 296.793L422.665 284.728C439.393 271.757 452.377 252.711 455.102 231.741L460.778 172.164C461.56 166.151 457.766 160.487 451.902 158.91L413.202 148.51C401.921 145.479 390.031 145.526 378.773 148.65L342.028 158.844C336.201 160.461 332.458 166.114 333.25 172.1Z" fill="#AE92F4"/>
<path d="M399.582 308.23C397.293 308.23 395.094 307.569 393.22 306.319C393.045 306.203 392.999 305.967 393.114 305.792C393.23 305.617 393.467 305.571 393.642 305.686C395.39 306.852 397.444 307.469 399.581 307.469C401.901 307.469 404.093 306.755 405.924 305.405L424.533 291.67C424.702 291.545 424.939 291.582 425.066 291.749C425.19 291.919 425.154 292.156 424.986 292.282L406.377 306.017C404.417 307.464 402.067 308.23 399.584 308.23H399.582Z" fill="#A082EC"/>
<path d="M432.307 205.354H367.278C364.833 205.354 362.852 207.336 362.852 209.781V229.301C362.852 245.968 376.362 259.478 393.029 259.478H406.555C423.222 259.478 436.732 245.968 436.732 229.301V209.781C436.732 207.336 434.75 205.354 432.306 205.354H432.307Z" fill="white"/>
<path d="M426.155 200.184C424.656 200.184 423.439 198.969 423.439 197.468V188.299C423.439 177.563 414.704 168.826 403.965 168.826H395.613C384.876 168.826 376.139 177.561 376.139 188.299V197.468C376.139 198.967 374.924 200.184 373.423 200.184C371.922 200.184 370.707 198.969 370.707 197.468V188.299C370.707 174.568 381.88 163.396 395.611 163.396H403.964C417.695 163.396 428.868 174.568 428.868 188.299V197.468C428.868 198.967 427.652 200.184 426.151 200.184H426.155Z" fill="white"/>
<path d="M406.455 223.52C406.455 219.839 403.471 216.854 399.79 216.854C396.109 216.854 393.125 219.839 393.125 223.52C393.125 226.042 394.527 228.238 396.593 229.369V242.217C396.593 243.982 398.025 245.413 399.79 245.413C401.555 245.413 402.987 243.982 402.987 242.217V229.369C405.053 228.236 406.455 226.042 406.455 223.52Z" fill="#AE92F4"/>
<path d="M331.138 0.438477H114.887V96.3665H331.138V0.438477Z" fill="white"/>
<path d="M331.134 96.749H114.884C114.673 96.749 114.504 96.5796 114.504 96.3687V0.438967C114.504 0.228034 114.673 0.0585938 114.884 0.0585938H331.136C331.347 0.0585938 331.516 0.228034 331.516 0.438967V96.367C331.516 96.5779 331.347 96.7473 331.136 96.7473L331.134 96.749ZM115.265 95.9883H330.756V0.819341H115.265V95.9866V95.9883Z" fill="black"/>
<path d="M128.747 24.006C127.743 24.006 126.814 23.3127 126.133 22.054C125.49 20.8662 125.132 19.2929 125.125 17.6227C125.118 15.9525 125.462 14.3774 126.097 13.1844C126.769 11.9154 127.696 11.2151 128.704 11.21H128.713C129.717 11.21 130.646 11.9033 131.327 13.162C131.97 14.3498 132.328 15.9231 132.335 17.5933C132.342 19.2617 131.996 20.8386 131.363 22.0315C130.691 23.3006 129.764 24.0008 128.756 24.006H128.747ZM128.713 11.9724H128.708C127.993 11.9759 127.305 12.5326 126.769 13.5423C126.194 14.6264 125.881 16.0753 125.888 17.621C125.894 19.1666 126.22 20.6121 126.804 21.6927C127.347 22.6955 128.037 23.247 128.749 23.247H128.754C129.468 23.2435 130.156 22.6868 130.692 21.6771C131.268 20.593 131.581 19.1442 131.576 17.5985C131.569 16.0528 131.244 14.6074 130.66 13.5268C130.117 12.524 129.427 11.9724 128.714 11.9724H128.713Z" fill="#AE92F4"/>
<path d="M139.338 23.7746C139.129 23.7746 138.957 23.6052 138.957 23.396L138.911 12.0419L135.425 14.5298C135.254 14.6509 135.017 14.6111 134.894 14.4417C134.773 14.2705 134.813 14.0336 134.982 13.9109L139.066 10.9976C139.182 10.9146 139.334 10.9042 139.46 10.9682C139.587 11.0322 139.666 11.1636 139.668 11.3053L139.718 23.3942C139.718 23.6034 139.549 23.7746 139.339 23.7763L139.338 23.7746Z" fill="#AE92F4"/>
<path d="M164.4 23.8605C163.395 23.8605 162.467 23.1672 161.785 21.9085C161.142 20.7207 160.784 19.1473 160.777 17.4772C160.764 13.8896 162.335 11.0731 164.355 11.0645H164.363C165.368 11.0645 166.296 11.7578 166.977 13.0165C167.621 14.2042 167.979 15.7776 167.985 17.4478C167.992 19.1162 167.648 20.693 167.014 21.886C166.341 23.1551 165.415 23.8553 164.407 23.8605H164.398H164.4ZM164.365 11.8252H164.36C162.819 11.8321 161.528 14.4186 161.54 17.4737C161.547 19.0194 161.872 20.4648 162.456 21.5454C162.999 22.5482 163.689 23.0998 164.401 23.0998H164.407C165.121 23.0963 165.809 22.5396 166.345 21.5299C166.92 20.4458 167.233 18.9969 167.226 17.4512C167.22 15.9055 166.895 14.4584 166.31 13.3795C165.767 12.3767 165.077 11.8252 164.365 11.8252Z" fill="#AE92F4"/>
<path d="M182.704 23.7843C181.7 23.7843 180.771 23.091 180.09 21.8323C179.447 20.6445 179.089 19.0712 179.082 17.401C179.068 13.8134 180.64 10.9969 182.659 10.9883H182.668C183.673 10.9883 184.601 11.6816 185.282 12.9403C185.925 14.1281 186.283 15.7014 186.29 17.3716C186.297 19.0401 185.953 20.6169 185.318 21.8099C184.646 23.0789 183.719 23.7791 182.711 23.7843H182.703H182.704ZM182.67 11.7508H182.665C181.124 11.7577 179.832 14.3442 179.845 17.3993C179.851 18.945 180.177 20.3904 180.761 21.471C181.304 22.4738 181.994 23.0253 182.706 23.0253H182.711C183.425 23.0219 184.113 22.4651 184.649 21.4554C185.225 20.3714 185.538 18.9225 185.531 17.3768C185.524 15.8311 185.199 14.384 184.615 13.3051C184.072 12.3023 183.382 11.7508 182.67 11.7508Z" fill="#AE92F4"/>
<path d="M193.224 23.7443C192.219 23.7443 191.291 23.051 190.61 21.7923C189.966 20.6045 189.609 19.0311 189.602 17.361C189.595 15.6908 189.939 14.1157 190.573 12.9227C191.246 11.6537 192.173 10.9534 193.181 10.9482H193.189C194.194 10.9482 195.122 11.6416 195.803 12.9002C196.447 14.088 196.805 15.6614 196.811 17.3316C196.825 20.9192 195.254 23.7356 193.234 23.7443H193.226H193.224ZM193.189 11.709H193.184C192.47 11.7124 191.782 12.2692 191.246 13.2789C190.67 14.3629 190.357 15.8118 190.364 17.3575C190.371 18.9032 190.696 20.3486 191.28 21.4292C191.823 22.432 192.513 22.9835 193.226 22.9835H193.231C194.771 22.9766 196.063 20.3901 196.051 17.335C196.044 15.7893 195.719 14.3439 195.134 13.2633C194.591 12.2605 193.902 11.709 193.189 11.709Z" fill="#AE92F4"/>
<path d="M258.798 23.4738C257.794 23.4738 256.865 22.7805 256.184 21.5218C255.541 20.334 255.183 18.7606 255.176 17.0905C255.169 15.422 255.515 13.8452 256.148 12.6522C256.82 11.3832 257.747 10.6829 258.755 10.6777H258.763C259.768 10.6777 260.696 11.371 261.378 12.6297C262.021 13.8175 262.379 15.3909 262.386 17.0611C262.401 20.6487 260.83 23.4651 258.808 23.4738H258.8H258.798ZM258.763 11.4385H258.758C258.044 11.4419 257.356 11.9987 256.82 13.0084C256.244 14.0924 255.931 15.5413 255.938 17.087C255.945 18.6327 256.27 20.0798 256.855 21.1587C257.398 22.1615 258.087 22.713 258.8 22.713H258.805C260.347 22.7061 261.639 20.1196 261.625 17.0645C261.618 15.5188 261.293 14.0734 260.709 12.9928C260.166 11.99 259.476 11.4385 258.763 11.4385Z" fill="#AE92F4"/>
<path d="M174.99 23.6289C174.781 23.6289 174.61 23.4594 174.61 23.2502L174.563 11.8961L171.077 14.3841C170.906 14.5051 170.669 14.4654 170.547 14.2959C170.426 14.1248 170.465 13.8879 170.635 13.7651L174.719 10.8501C174.834 10.7671 174.987 10.7567 175.113 10.8207C175.239 10.8847 175.319 11.0161 175.32 11.1579L175.37 23.2468C175.37 23.456 175.201 23.6271 174.992 23.6289H174.99Z" fill="#AE92F4"/>
<path d="M203.9 23.6984C202.895 23.6984 201.967 23.0051 201.285 21.7464C200.642 20.5586 200.284 18.9852 200.277 17.3151C200.262 13.7275 201.834 10.911 203.855 10.9023H203.863C204.868 10.9023 205.796 11.5957 206.478 12.8543C207.121 14.0421 207.479 15.6155 207.485 17.2857C207.492 18.9558 207.148 20.5309 206.514 21.7239C205.841 22.993 204.915 23.6932 203.907 23.6984H203.898H203.9ZM203.865 11.6631H203.86C202.319 11.67 201.028 14.2565 201.04 17.3116C201.047 18.8573 201.372 20.3027 201.956 21.3833C202.499 22.3861 203.189 22.9376 203.901 22.9376H203.907C204.621 22.9342 205.309 22.3775 205.845 21.3677C206.42 20.2837 206.733 18.8348 206.726 17.2891C206.72 15.7434 206.395 14.298 205.81 13.2174C205.267 12.2146 204.577 11.6631 203.865 11.6631Z" fill="#AE92F4"/>
<path d="M222.197 23.6242C221.192 23.6242 220.264 22.9309 219.582 21.6722C218.939 20.4844 218.581 18.911 218.574 17.2408C218.567 15.5724 218.913 13.9956 219.546 12.8026C220.219 11.5335 221.145 10.8333 222.153 10.8281H222.162C223.166 10.8281 224.095 11.5214 224.776 12.7801C225.419 13.9679 225.777 15.5413 225.784 17.2115C225.8 20.799 224.228 23.6155 222.207 23.6242H222.198H222.197ZM222.162 11.5889H222.157C221.443 11.5923 220.755 12.1491 220.219 13.1588C219.643 14.2428 219.33 15.6917 219.337 17.2374C219.344 18.7831 219.669 20.2285 220.253 21.3091C220.796 22.3119 221.486 22.8634 222.198 22.8634H222.203C223.744 22.8565 225.035 20.27 225.023 17.2149C225.016 15.6692 224.691 14.2238 224.107 13.1432C223.564 12.1404 222.874 11.5889 222.162 11.5889Z" fill="#AE92F4"/>
<path d="M214.49 23.466C214.281 23.466 214.11 23.2966 214.11 23.0874L214.063 11.7333L210.577 14.2212C210.406 14.3423 210.169 14.3025 210.047 14.1331C209.926 13.9619 209.965 13.725 210.135 13.6023L214.219 10.689C214.334 10.606 214.487 10.5956 214.613 10.6596C214.739 10.7236 214.819 10.855 214.82 10.9967L214.87 23.0856C214.87 23.2948 214.701 23.466 214.492 23.4677L214.49 23.466Z" fill="#AE92F4"/>
<path d="M233.248 23.3889C233.039 23.3889 232.868 23.2194 232.868 23.0102L232.821 11.6561L229.335 14.1441C229.164 14.2651 228.927 14.2254 228.804 14.0559C228.683 13.8848 228.723 13.6479 228.893 13.5251L232.976 10.6118C233.092 10.5288 233.244 10.5185 233.371 10.5824C233.497 10.6464 233.576 10.7778 233.578 10.9196L233.628 23.0085C233.628 23.2177 233.459 23.3889 233.25 23.3906L233.248 23.3889Z" fill="#AE92F4"/>
<path d="M242.088 23.3525C241.879 23.3525 241.707 23.1831 241.707 22.9739L241.661 11.6198L238.175 14.1077C238.004 14.2288 237.767 14.189 237.644 14.0196C237.523 13.8484 237.563 13.6115 237.732 13.4888L241.816 10.5737C241.932 10.4908 242.084 10.4804 242.21 10.5444C242.337 10.6083 242.416 10.7397 242.418 10.8815L242.468 22.9704C242.468 23.1796 242.299 23.3508 242.089 23.3525H242.088Z" fill="#AE92F4"/>
<path d="M250.931 23.3164C250.722 23.3164 250.551 23.1469 250.551 22.9377L250.504 11.5836L247.019 14.0716C246.848 14.1926 246.611 14.1546 246.488 13.9834C246.367 13.8123 246.407 13.5754 246.576 13.4526L250.66 10.5376C250.776 10.4546 250.928 10.4442 251.054 10.5082C251.18 10.5722 251.26 10.7036 251.262 10.8454L251.312 22.9343C251.312 23.1435 251.142 23.3146 250.933 23.3164H250.931Z" fill="#AE92F4"/>
<path d="M277.556 23.3976C275.54 23.3976 273.949 20.5967 273.934 17.0143C273.918 13.4267 275.49 10.6102 277.511 10.6016H277.52C279.536 10.6016 281.126 13.4025 281.142 16.9849C281.156 20.5725 279.584 23.389 277.565 23.3976H277.556ZM277.52 11.3623H277.514C275.974 11.3692 274.682 13.9557 274.694 17.0108C274.707 20.0624 276.017 22.6369 277.556 22.6369H277.561C279.102 22.63 280.393 20.0434 280.381 16.9883C280.369 13.9367 279.058 11.3623 277.52 11.3623Z" fill="#AE92F4"/>
<path d="M269.689 23.2402C269.48 23.2402 269.309 23.0708 269.309 22.8616L269.262 11.5075L265.777 13.9954C265.605 14.1165 265.369 14.0767 265.246 13.9073C265.125 13.7361 265.165 13.4992 265.334 13.3765L269.418 10.4614C269.534 10.3785 269.686 10.3681 269.812 10.432C269.938 10.496 270.018 10.6274 270.02 10.7692L270.07 22.8581C270.07 23.0673 269.9 23.2385 269.691 23.2402H269.689Z" fill="#AE92F4"/>
<path d="M147.931 23.7394C147.722 23.7394 147.551 23.57 147.551 23.3608L147.504 12.0067L144.019 14.4947C143.848 14.6157 143.611 14.5759 143.488 14.4065C143.367 14.2353 143.407 13.9985 143.576 13.8757L147.66 10.9624C147.776 10.8794 147.928 10.8691 148.054 10.933C148.18 10.997 148.26 11.1284 148.262 11.2702L148.312 23.3591C148.312 23.5683 148.142 23.7394 147.933 23.7412L147.931 23.7394Z" fill="#AE92F4"/>
<path d="M156.525 23.7031C156.316 23.7031 156.145 23.5336 156.145 23.3244L156.098 11.9704L152.613 14.4583C152.441 14.5794 152.205 14.5396 152.082 14.3701C151.961 14.199 152.001 13.9621 152.17 13.8394L156.254 10.9243C156.37 10.8413 156.522 10.831 156.648 10.8949C156.774 10.9589 156.854 11.0903 156.855 11.2321L156.906 23.321C156.906 23.5302 156.736 23.7014 156.527 23.7031H156.525Z" fill="#AE92F4"/>
<path d="M288.321 23.4582C287.317 23.4582 286.389 22.7648 285.707 21.5062C285.064 20.3184 284.706 18.7433 284.699 17.0748C284.692 15.4064 285.036 13.8296 285.671 12.6366C286.344 11.3675 287.27 10.6673 288.278 10.6621H288.287C289.291 10.6621 290.22 11.3554 290.901 12.6141C291.544 13.8019 291.902 15.3753 291.909 17.0454C291.925 20.633 290.353 23.4495 288.332 23.4582H288.323H288.321ZM288.287 11.4229H288.282C287.568 11.4263 286.88 11.983 286.344 12.9928C285.768 14.0768 285.455 15.5257 285.462 17.0714C285.469 18.6171 285.794 20.0642 286.378 21.1431C286.921 22.1459 287.611 22.6974 288.323 22.6974H288.328C289.869 22.6905 291.16 20.104 291.148 17.0489C291.141 15.5032 290.816 14.0578 290.232 12.9772C289.689 11.9744 288.999 11.4229 288.287 11.4229Z" fill="#AE92F4"/>
<path d="M298.912 23.2265C298.703 23.2265 298.533 23.0571 298.532 22.8479L298.485 11.4938L294.999 13.9818C294.828 14.1028 294.591 14.063 294.469 13.8936C294.347 13.7224 294.387 13.4856 294.557 13.3628L298.64 10.4478C298.756 10.3648 298.908 10.3544 299.035 10.4184C299.161 10.4823 299.24 10.6137 299.242 10.7555L299.292 22.8444C299.292 23.0536 299.123 23.2248 298.914 23.2265H298.912Z" fill="#AE92F4"/>
<path d="M307.506 23.1906C307.296 23.1906 307.125 23.0212 307.125 22.812L307.079 11.4579L303.593 13.9459C303.422 14.0669 303.185 14.0271 303.062 13.8577C302.941 13.6865 302.981 13.4496 303.15 13.3269L307.234 10.4136C307.35 10.3306 307.502 10.3202 307.628 10.3842C307.755 10.4482 307.834 10.5796 307.836 10.7213L307.886 22.8102C307.886 23.0195 307.717 23.1906 307.507 23.1923L307.506 23.1906Z" fill="#AE92F4"/>
<path d="M316.099 23.1555C315.89 23.1555 315.719 22.986 315.719 22.7768L315.672 11.4227L312.187 13.9107C312.016 14.0317 311.779 13.992 311.656 13.8225C311.535 13.6514 311.575 13.4145 311.744 13.2917L315.828 10.3784C315.944 10.2954 316.096 10.2851 316.222 10.349C316.348 10.413 316.428 10.5444 316.43 10.6862L316.48 22.7751C316.48 22.9843 316.31 23.1555 316.101 23.1572L316.099 23.1555Z" fill="#AE92F4"/>
<path d="M173.911 45.0763C172.907 45.0763 171.978 44.383 171.297 43.1243C170.654 41.9365 170.296 40.3632 170.289 38.693C170.274 35.1054 171.845 32.2889 173.866 32.2803H173.875C174.88 32.2803 175.808 32.9736 176.489 34.2323C177.132 35.4201 177.49 36.9934 177.497 38.6636C177.504 40.332 177.16 41.9089 176.526 43.1018C175.853 44.3709 174.926 45.0711 173.918 45.0763H173.91H173.911ZM173.877 33.041H173.872C172.331 33.0479 171.04 35.6345 171.052 38.6895C171.059 40.2352 171.384 41.6806 171.968 42.7612C172.511 43.764 173.201 44.3156 173.913 44.3156H173.918C174.632 44.3121 175.32 43.7554 175.856 42.7457C176.432 41.6616 176.745 40.2127 176.738 38.6671C176.731 37.1214 176.406 35.676 175.822 34.5954C175.279 33.5926 174.589 33.041 173.877 33.041Z" fill="#AE92F4"/>
<path d="M137.31 45.2238C136.305 45.2238 135.377 44.5305 134.696 43.2718C134.052 42.084 133.695 40.5106 133.688 38.8405C133.672 35.2529 135.244 32.4364 137.265 32.4277H137.273C138.278 32.4277 139.206 33.1211 139.888 34.3797C140.531 35.5675 140.889 37.1409 140.896 38.8111C140.903 40.4795 140.557 42.0563 139.924 43.2493C139.251 44.5184 138.325 45.2186 137.317 45.2238H137.308H137.31ZM137.275 33.1902H137.27C135.73 33.1971 134.438 35.7837 134.45 38.8387C134.457 40.3844 134.782 41.8298 135.366 42.9104C135.909 43.9132 136.599 44.4648 137.312 44.4648H137.317C138.031 44.4613 138.719 43.9046 139.255 42.8949C139.831 41.8108 140.144 40.3619 140.137 38.8162C140.13 37.2706 139.805 35.8234 139.22 34.7445C138.677 33.7417 137.988 33.1902 137.275 33.1902Z" fill="#AE92F4"/>
<path d="M129.596 45.0693C129.386 45.0693 129.215 44.8999 129.215 44.6906L129.168 33.3366L125.683 35.8245C125.512 35.9456 125.275 35.9058 125.152 35.7364C125.031 35.5652 125.071 35.3283 125.24 35.2056L129.324 32.2905C129.44 32.2075 129.592 32.1972 129.718 32.2612C129.845 32.3251 129.924 32.4565 129.926 32.5983L129.976 44.6872C129.976 44.8964 129.806 45.0676 129.597 45.0693H129.596Z" fill="#AE92F4"/>
<path d="M148.353 44.9902C148.144 44.9902 147.973 44.8208 147.973 44.6116L147.926 33.2575L144.441 35.7454C144.27 35.8665 144.033 35.8267 143.91 35.6573C143.789 35.4861 143.829 35.2492 143.998 35.1265L148.082 32.2114C148.198 32.1284 148.35 32.1181 148.476 32.182C148.602 32.246 148.682 32.3774 148.684 32.5192L148.734 44.6081C148.734 44.8173 148.564 44.9885 148.355 44.9902H148.353Z" fill="#AE92F4"/>
<path d="M157.197 44.955C156.988 44.955 156.817 44.7856 156.817 44.5764L156.77 33.2223L153.284 35.7103C153.113 35.8313 152.876 35.7933 152.754 35.6221C152.633 35.4509 152.672 35.2141 152.842 35.0913L156.926 32.1763C157.041 32.0933 157.194 32.0829 157.32 32.1469C157.446 32.2109 157.526 32.3423 157.527 32.484L157.577 44.5729C157.577 44.7821 157.408 44.9533 157.199 44.955H157.197Z" fill="#AE92F4"/>
<path d="M166.045 44.9179C165.836 44.9179 165.664 44.7485 165.664 44.5393L165.618 33.1852L162.132 35.6732C161.961 35.7942 161.724 35.7544 161.601 35.585C161.48 35.4138 161.52 35.177 161.689 35.0542L165.773 32.1392C165.889 32.0562 166.041 32.0458 166.168 32.1098C166.294 32.1738 166.373 32.3051 166.375 32.4469L166.425 44.5358C166.425 44.745 166.256 44.9162 166.046 44.9179H166.045Z" fill="#AE92F4"/>
<path d="M192.661 44.9972C191.657 44.9972 190.728 44.3039 190.047 43.0452C189.404 41.8574 189.046 40.2823 189.039 38.6139C189.032 36.9454 189.376 35.3686 190.011 34.1756C190.683 32.9066 191.61 32.2064 192.618 32.2012H192.627C193.631 32.2012 194.56 32.8945 195.241 34.1532C195.884 35.341 196.242 36.9143 196.249 38.5845C196.264 42.1721 194.693 44.9886 192.672 44.9972H192.663H192.661ZM192.627 32.9619H192.622C191.908 32.9654 191.219 33.5221 190.683 34.5318C190.108 35.6159 189.795 37.0647 189.802 38.6104C189.809 40.1561 190.134 41.6033 190.718 42.6821C191.261 43.6849 191.951 44.2365 192.663 44.2365H192.668C194.209 44.2296 195.5 41.643 195.488 38.588C195.481 37.0423 195.156 35.5969 194.572 34.5163C194.029 33.5135 193.339 32.9619 192.627 32.9619Z" fill="#AE92F4"/>
<path d="M184.803 44.8427C184.593 44.8427 184.422 44.6733 184.422 44.4641L184.376 33.11L180.89 35.598C180.719 35.719 180.482 35.6792 180.359 35.5098C180.238 35.3386 180.278 35.1018 180.447 34.979L184.531 32.064C184.647 31.981 184.799 31.9706 184.925 32.0346C185.052 32.0986 185.131 32.23 185.133 32.3717L185.183 44.4606C185.183 44.6698 185.013 44.841 184.804 44.8427H184.803Z" fill="#AE92F4"/>
<path d="M203.435 45.0607C202.43 45.0607 201.502 44.3674 200.821 43.1087C200.177 41.9209 199.82 40.3475 199.813 38.6774C199.797 35.0898 201.369 32.2733 203.39 32.2646H203.399C204.403 32.2646 205.331 32.958 206.013 34.2167C206.656 35.4044 207.014 36.9778 207.021 38.648C207.028 40.3164 206.682 41.8932 206.049 43.0862C205.376 44.3553 204.45 45.0555 203.442 45.0607H203.433H203.435ZM203.4 33.0254H203.395C201.855 33.0323 200.563 35.6188 200.575 38.6739C200.582 40.2196 200.907 41.665 201.491 42.7456C202.034 43.7484 202.724 44.3 203.437 44.3H203.442C204.156 44.2965 204.844 43.7398 205.38 42.7301C205.956 41.646 206.269 40.1971 206.262 38.6514C206.255 37.1057 205.93 35.6586 205.345 34.5797C204.802 33.5769 204.113 33.0254 203.4 33.0254Z" fill="#AE92F4"/>
<path d="M214.021 44.8264C213.812 44.8264 213.641 44.6569 213.641 44.4477L213.594 33.0936L210.109 35.5816C209.938 35.7026 209.701 35.6629 209.578 35.4934C209.457 35.3223 209.497 35.0854 209.666 34.9626L213.75 32.0493C213.866 31.9663 214.018 31.956 214.144 32.0199C214.27 32.0839 214.35 32.2153 214.352 32.3571L214.402 44.446C214.402 44.6552 214.232 44.8264 214.023 44.8281L214.021 44.8264Z" fill="#AE92F4"/>
<path d="M239.087 44.9123C237.069 44.9123 235.481 42.1113 235.465 38.5289C235.449 34.9413 237.021 32.1249 239.042 32.1162H239.051C240.055 32.1162 240.984 32.8095 241.665 34.0682C242.308 35.256 242.666 36.8311 242.673 38.4995C242.689 42.0871 241.117 44.9036 239.096 44.9123H239.087ZM239.053 32.877H239.047C237.507 32.8839 236.215 35.4704 236.227 38.5255C236.24 41.5771 237.55 44.1515 239.089 44.1515H239.094C240.635 44.1446 241.926 41.5581 241.914 38.503C241.907 36.9573 241.582 35.5102 240.998 34.4313C240.455 33.4285 239.765 32.877 239.053 32.877Z" fill="#AE92F4"/>
<path d="M257.384 44.838C256.379 44.838 255.451 44.1447 254.77 42.886C254.127 41.6982 253.769 40.1249 253.762 38.4547C253.748 34.8671 255.32 32.0506 257.339 32.042H257.348C258.352 32.042 259.281 32.7353 259.962 33.994C260.605 35.1818 260.963 36.7551 260.97 38.4253C260.977 40.0938 260.633 41.6706 259.998 42.8636C259.326 44.1326 258.399 44.8329 257.391 44.838H257.382H257.384ZM257.349 32.8027H257.344C255.804 32.8096 254.512 35.3962 254.524 38.4513C254.531 39.9969 254.856 41.4424 255.441 42.523C255.984 43.5258 256.673 44.0773 257.386 44.0773H257.391C258.105 44.0738 258.793 43.5171 259.329 42.5074C259.905 41.4233 260.218 39.9745 260.211 38.4288C260.204 36.8831 259.879 35.4359 259.294 34.3571C258.752 33.3543 258.062 32.8027 257.349 32.8027Z" fill="#AE92F4"/>
<path d="M267.911 44.796C266.907 44.796 265.978 44.1027 265.297 42.844C264.654 41.6562 264.296 40.0829 264.289 38.4127C264.275 34.8251 265.847 32.0086 267.866 32H267.875C268.88 32 269.808 32.6933 270.489 33.952C271.132 35.1398 271.49 36.7131 271.497 38.3833C271.504 40.0518 271.16 41.6286 270.526 42.8216C269.853 44.0906 268.926 44.7909 267.918 44.796H267.91H267.911ZM267.877 32.7607H267.872C266.331 32.7677 265.04 35.3542 265.052 38.4093C265.059 39.955 265.384 41.4004 265.968 42.481C266.511 43.4838 267.201 44.0353 267.913 44.0353H267.918C268.632 44.0318 269.32 43.4751 269.856 42.4654C270.432 41.3813 270.745 39.9325 270.738 38.3868C270.731 36.8411 270.406 35.3957 269.822 34.3151C269.279 33.3123 268.589 32.7607 267.877 32.7607Z" fill="#AE92F4"/>
<path d="M249.678 44.6806C249.468 44.6806 249.297 44.5112 249.297 44.302L249.251 32.9479L245.765 35.4359C245.594 35.5569 245.357 35.5171 245.234 35.3477C245.113 35.1765 245.153 34.9397 245.322 34.8169L249.406 31.9019C249.522 31.8189 249.674 31.8085 249.8 31.8725C249.927 31.9365 250.006 32.0678 250.008 32.2096L250.058 44.2985C250.058 44.5077 249.888 44.6789 249.679 44.6806H249.678Z" fill="#AE92F4"/>
<path d="M278.583 44.7511C277.579 44.7511 276.65 44.0578 275.969 42.7991C275.326 41.6113 274.968 40.038 274.961 38.3678C274.945 34.7802 276.517 31.9637 278.538 31.9551H278.547C279.551 31.9551 280.48 32.6484 281.161 33.9071C281.804 35.0949 282.162 36.67 282.169 38.3384C282.176 40.0068 281.832 41.5837 281.197 42.7767C280.525 44.0457 279.598 44.7459 278.59 44.7511H278.582H278.583ZM278.549 32.7175H278.543C277.003 32.7245 275.711 35.311 275.724 38.3661C275.73 39.9118 276.055 41.3572 276.64 42.4378C277.183 43.4406 277.873 43.9921 278.585 43.9921H278.59C279.304 43.9887 279.992 43.4319 280.528 42.4222C281.104 41.3381 281.417 39.8893 281.41 38.3436C281.403 36.7979 281.078 35.3508 280.494 34.2719C279.951 33.2691 279.261 32.7175 278.549 32.7175Z" fill="#AE92F4"/>
<path d="M296.884 44.6759C295.879 44.6759 294.951 43.9826 294.27 42.7239C293.627 41.5361 293.269 39.9628 293.262 38.2926C293.246 34.705 294.818 31.8885 296.839 31.8799H296.848C297.852 31.8799 298.781 32.5732 299.462 33.8319C300.105 35.0197 300.463 36.593 300.47 38.2632C300.477 39.9317 300.133 41.5085 299.498 42.7014C298.826 43.9705 297.899 44.6707 296.891 44.6759H296.882H296.884ZM296.849 32.6406H296.844C295.304 32.6475 294.012 35.2341 294.024 38.2891C294.031 39.8348 294.356 41.2802 294.941 42.3608C295.484 43.3636 296.173 43.9152 296.886 43.9152H296.891C297.605 43.9117 298.293 43.355 298.829 42.3453C299.405 41.2612 299.718 39.8124 299.711 38.2667C299.704 36.721 299.379 35.2756 298.795 34.195C298.252 33.1922 297.562 32.6406 296.849 32.6406Z" fill="#AE92F4"/>
<path d="M289.17 44.5187C288.961 44.5187 288.789 44.3493 288.789 44.1401L288.743 32.786L285.257 35.274C285.086 35.395 284.849 35.3552 284.726 35.1858C284.605 35.0146 284.645 34.7778 284.815 34.655L288.898 31.7417C289.014 31.6587 289.166 31.6483 289.293 31.7123C289.419 31.7763 289.498 31.9077 289.5 32.0495L289.55 44.1384C289.55 44.3476 289.381 44.5187 289.172 44.5205L289.17 44.5187Z" fill="#AE92F4"/>
<path d="M307.928 44.4426C307.718 44.4426 307.547 44.2731 307.547 44.0639L307.501 32.7098L304.015 35.1978C303.844 35.3188 303.607 35.2808 303.484 35.1096C303.363 34.9385 303.403 34.7016 303.572 34.5788L307.656 31.6655C307.772 31.5826 307.924 31.5722 308.05 31.6361C308.177 31.7001 308.256 31.8315 308.258 31.9733L308.308 44.0622C308.308 44.2714 308.138 44.4426 307.929 44.4443L307.928 44.4426Z" fill="#AE92F4"/>
<path d="M316.771 44.4062C316.562 44.4062 316.391 44.2368 316.391 44.0276L316.344 32.6735L312.859 35.1615C312.687 35.2825 312.451 35.2444 312.328 35.0733C312.207 34.9021 312.247 34.6652 312.416 34.5425L316.5 31.6275C316.616 31.5445 316.768 31.5341 316.894 31.5981C317.02 31.662 317.1 31.7934 317.102 31.9352L317.152 44.0241C317.152 44.2333 316.982 44.4045 316.773 44.4062H316.771Z" fill="#AE92F4"/>
<path d="M222.611 44.792C222.402 44.792 222.231 44.6225 222.231 44.4133L222.184 33.0592L218.699 35.5472C218.527 35.6682 218.29 35.6285 218.168 35.459C218.047 35.2879 218.086 35.051 218.256 34.9282L222.34 32.0132C222.456 31.9302 222.608 31.9198 222.734 31.9838C222.86 32.0478 222.94 32.1792 222.941 32.321L222.992 44.4098C222.992 44.6191 222.822 44.7902 222.613 44.792H222.611Z" fill="#AE92F4"/>
<path d="M231.205 44.7568C230.996 44.7568 230.825 44.5874 230.825 44.3781L230.778 33.0241L227.292 35.512C227.121 35.6331 226.884 35.5933 226.761 35.4239C226.64 35.2527 226.68 35.0158 226.85 34.8931L230.933 31.978C231.049 31.895 231.201 31.8847 231.328 31.9487C231.454 32.0126 231.533 32.144 231.535 32.2858L231.585 44.3747C231.585 44.5839 231.416 44.7551 231.207 44.7568H231.205Z" fill="#AE92F4"/>
<path d="M137.142 66.3117C136.137 66.3117 135.209 65.6184 134.528 64.3597C133.884 63.1719 133.527 61.5968 133.52 59.9283C133.513 58.2599 133.857 56.6831 134.491 55.4901C135.164 54.221 136.091 53.5208 137.099 53.5156H137.107C138.112 53.5156 139.04 54.2089 139.721 55.4676C140.365 56.6554 140.722 58.2288 140.729 59.8989C140.745 63.4865 139.173 66.303 137.152 66.3117H137.144H137.142ZM137.107 54.2764H137.102C136.388 54.2798 135.7 54.8365 135.164 55.8463C134.588 56.9303 134.275 58.3792 134.282 59.9249C134.289 61.4706 134.614 62.9177 135.198 63.9966C135.741 65.0011 136.429 65.5665 137.149 65.5509C138.689 65.544 139.981 62.9575 139.969 59.9024C139.962 58.3567 139.637 56.9113 139.052 55.8307C138.509 54.8279 137.82 54.2764 137.107 54.2764Z" fill="#AE92F4"/>
<path d="M147.665 66.2687C146.661 66.2687 145.732 65.5754 145.051 64.3167C144.408 63.1289 144.05 61.5538 144.043 59.8854C144.028 56.2978 145.599 53.4813 147.62 53.4727H147.629C149.647 53.4727 151.236 56.2736 151.251 59.856C151.267 63.4436 149.695 66.2601 147.674 66.2687H147.665ZM147.631 54.2334H147.625C146.085 54.2403 144.793 56.8268 144.806 59.8819C144.812 61.4276 145.138 62.8747 145.722 63.9536C146.265 64.9564 146.955 65.508 147.667 65.508H147.672C149.213 65.501 150.504 62.9145 150.492 59.8594C150.48 56.8078 149.169 54.2334 147.631 54.2334Z" fill="#AE92F4"/>
<path d="M213.239 65.9982C211.222 65.9982 209.633 63.1973 209.617 59.6149C209.602 56.0273 211.173 53.2108 213.195 53.2021H213.203C215.221 53.2021 216.81 56.0031 216.825 59.5855C216.841 63.1731 215.269 65.9895 213.248 65.9982H213.239ZM213.205 53.9629H213.2C211.659 53.9698 210.368 56.5563 210.38 59.6114C210.392 62.663 211.702 65.2374 213.241 65.2374H213.246C214.787 65.2305 216.078 62.644 216.066 59.5889C216.054 56.5373 214.744 53.9629 213.205 53.9629Z" fill="#AE92F4"/>
<path d="M129.431 66.1545C129.222 66.1545 129.051 65.985 129.051 65.7758L129.004 54.4218L125.519 56.9097C125.348 57.0308 125.111 56.991 124.988 56.8216C124.867 56.6504 124.907 56.4135 125.076 56.2908L129.16 53.3775C129.276 53.2945 129.428 53.2841 129.554 53.3481C129.68 53.412 129.76 53.5434 129.762 53.6852L129.812 65.7741C129.812 65.9833 129.642 66.1545 129.433 66.1562L129.431 66.1545Z" fill="#AE92F4"/>
<path d="M158.341 66.2238C157.336 66.2238 156.408 65.5305 155.727 64.2718C155.084 63.084 154.726 61.5106 154.719 59.8404C154.712 58.172 155.056 56.5952 155.691 55.4022C156.363 54.1331 157.29 53.4329 158.298 53.4277H158.306C159.311 53.4277 160.239 54.121 160.921 55.3797C161.564 56.5675 161.922 58.1409 161.929 59.8111C161.942 63.3987 160.371 66.2151 158.351 66.2238H158.343H158.341ZM158.306 54.1902H158.301C157.587 54.1937 156.899 54.7504 156.363 55.7601C155.787 56.8442 155.474 58.293 155.481 59.8387C155.488 61.3844 155.813 62.8316 156.398 63.9104C156.941 64.9132 157.63 65.4648 158.343 65.4648H158.348C159.888 65.4578 161.18 62.8713 161.168 59.8162C161.161 58.2706 160.836 56.8251 160.252 55.7445C159.709 54.7417 159.019 54.1902 158.306 54.1902Z" fill="#AE92F4"/>
<path d="M176.638 66.1486C175.633 66.1486 174.705 65.4553 174.024 64.1966C173.381 63.0088 173.023 61.4354 173.016 59.7653C173 56.1777 174.572 53.3612 176.593 53.3525H176.602C178.618 53.3525 180.208 56.1535 180.224 59.7359C180.238 63.3235 178.666 66.1399 176.647 66.1486H176.638ZM176.603 54.1133H176.598C175.058 54.1202 173.766 56.7067 173.778 59.7618C173.785 61.3075 174.11 62.7546 174.695 63.8335C175.237 64.8363 175.927 65.3878 176.64 65.3878H176.645C178.185 65.3809 179.477 62.7944 179.465 59.7393C179.453 56.6877 178.142 54.1133 176.603 54.1133Z" fill="#AE92F4"/>
<path d="M168.931 65.9912C168.722 65.9912 168.551 65.8217 168.551 65.6125L168.504 54.2584L165.019 56.7464C164.848 56.8674 164.611 56.8277 164.488 56.6582C164.367 56.4871 164.407 56.2502 164.576 56.1274L168.66 53.2124C168.776 53.1294 168.928 53.119 169.054 53.183C169.18 53.247 169.26 53.3784 169.262 53.5202L169.312 65.6091C169.312 65.8183 169.142 65.9894 168.933 65.9912H168.931Z" fill="#AE92F4"/>
<path d="M187.681 65.915C187.472 65.915 187.301 65.7456 187.301 65.5364L187.254 54.1823L183.769 56.6702C183.598 56.7913 183.361 56.7515 183.238 56.5821C183.117 56.4109 183.157 56.174 183.326 56.0513L187.41 53.1362C187.526 53.0533 187.678 53.0429 187.804 53.1068C187.93 53.1708 188.01 53.3022 188.012 53.444L188.062 65.5329C188.062 65.7421 187.892 65.9133 187.683 65.915H187.681Z" fill="#AE92F4"/>
<path d="M196.529 65.8801C196.32 65.8801 196.149 65.7106 196.149 65.5014L196.102 54.1473L192.616 56.6353C192.445 56.7563 192.208 56.7166 192.086 56.5471C191.965 56.376 192.004 56.1391 192.174 56.0163L196.258 53.103C196.374 53.02 196.526 53.0097 196.652 53.0737C196.778 53.1376 196.858 53.269 196.859 53.4108L196.91 65.4997C196.91 65.7089 196.74 65.8801 196.531 65.8818L196.529 65.8801Z" fill="#AE92F4"/>
<path d="M205.373 65.8437C205.164 65.8437 204.993 65.6743 204.993 65.4651L204.946 54.111L201.46 56.599C201.289 56.72 201.052 56.6802 200.929 56.5108C200.808 56.3396 200.848 56.1027 201.018 55.98L205.101 53.065C205.217 52.982 205.369 52.9716 205.496 53.0356C205.622 53.0995 205.701 53.2309 205.703 53.3727L205.753 65.4616C205.753 65.6708 205.584 65.842 205.375 65.8437H205.373Z" fill="#AE92F4"/>
<path d="M231.997 65.922C229.98 65.922 228.391 63.1211 228.375 59.5387C228.36 55.9511 229.931 53.1346 231.952 53.126H231.961C232.966 53.126 233.894 53.8193 234.575 55.078C235.218 56.2658 235.576 57.8391 235.583 59.5093C235.599 63.0969 234.027 65.9134 232.006 65.922H231.997ZM231.963 53.8867H231.958C230.417 53.8936 229.125 56.4802 229.138 59.5352C229.15 62.5869 230.46 65.1613 231.999 65.1613H232.004C233.545 65.1544 234.836 62.5678 234.824 59.5128C234.817 57.9671 234.492 56.5199 233.908 55.441C233.365 54.4383 232.675 53.8867 231.963 53.8867Z" fill="#AE92F4"/>
<path d="M224.131 65.7658C223.921 65.7658 223.75 65.5964 223.75 65.3872L223.704 54.0331L220.218 56.5211C220.047 56.6421 219.81 56.604 219.687 56.4329C219.566 56.2617 219.606 56.0248 219.775 55.9021L223.859 52.9888C223.975 52.9058 224.127 52.8954 224.253 52.9594C224.38 53.0234 224.459 53.1548 224.461 53.2965L224.511 65.3854C224.511 65.5946 224.342 65.7658 224.132 65.7675L224.131 65.7658Z" fill="#AE92F4"/>
<path d="M242.763 65.9826C240.747 65.9826 239.156 63.1817 239.141 59.5992C239.125 56.0117 240.697 53.1952 242.718 53.1865H242.727C244.743 53.1865 246.333 55.9874 246.349 59.5698C246.363 63.1574 244.791 65.9739 242.772 65.9826H242.763ZM242.728 53.9473H242.723C241.183 53.9542 239.891 56.5407 239.903 59.5958C239.915 62.6474 241.226 65.2218 242.765 65.2218H242.77C244.31 65.2149 245.602 62.6284 245.59 59.5733C245.578 56.5217 244.267 53.9473 242.728 53.9473Z" fill="#AE92F4"/>
<path d="M253.353 65.7509C253.144 65.7509 252.973 65.5815 252.973 65.3723L252.926 54.0182L249.441 56.5062C249.27 56.6272 249.033 56.5892 248.91 56.418C248.789 56.2468 248.829 56.01 248.998 55.8872L253.082 52.9722C253.198 52.8892 253.35 52.8788 253.476 52.9428C253.602 53.0068 253.682 53.1382 253.684 53.2799L253.734 65.3688C253.734 65.578 253.564 65.7492 253.355 65.7509H253.353Z" fill="#AE92F4"/>
<path d="M278.419 65.838C277.415 65.838 276.486 65.1447 275.805 63.886C275.162 62.6982 274.804 61.1232 274.797 59.4547C274.79 57.7863 275.134 56.2094 275.769 55.0165C276.441 53.7474 277.368 53.0472 278.376 53.042H278.385C279.389 53.042 280.318 53.7353 280.999 54.994C281.642 56.1818 282 57.7551 282.007 59.4253C282.022 63.0129 280.451 65.8294 278.43 65.838H278.421H278.419ZM278.385 53.8027H278.379C277.665 53.8062 276.977 54.3629 276.441 55.3726C275.865 56.4567 275.553 57.9056 275.559 59.4512C275.566 60.9969 275.891 62.4441 276.476 63.523C277.019 64.5258 277.709 65.0773 278.421 65.0773H278.426C279.967 65.0704 281.258 62.4838 281.246 59.4288C281.239 57.8831 280.914 56.4377 280.33 55.3571C279.787 54.3543 279.097 53.8027 278.385 53.8027Z" fill="#AE92F4"/>
<path d="M296.716 65.7619C295.712 65.7619 294.783 65.0685 294.102 63.8099C293.459 62.6221 293.101 61.0487 293.094 59.3785C293.08 55.7909 294.652 52.9745 296.671 52.9658H296.68C298.696 52.9658 300.286 55.7667 300.302 59.3491C300.317 62.9367 298.746 65.7532 296.725 65.7619H296.716ZM296.681 53.7266H296.676C295.136 53.7335 293.844 56.32 293.856 59.3751C293.863 60.9208 294.188 62.3679 294.773 63.4468C295.316 64.4496 296.005 65.0011 296.718 65.0011H296.723C298.263 64.9942 299.555 62.4077 299.543 59.3526C299.531 56.301 298.22 53.7266 296.681 53.7266Z" fill="#AE92F4"/>
<path d="M307.239 65.7179C305.223 65.7179 303.633 62.917 303.617 59.3346C303.603 55.747 305.175 52.9305 307.194 52.9219H307.203C309.221 52.9219 310.81 55.7228 310.825 59.3052C310.841 62.8928 309.269 65.7093 307.248 65.7179H307.239ZM307.205 53.6826H307.2C305.659 53.6895 304.368 56.2761 304.38 59.3311C304.392 62.3827 305.702 64.9572 307.241 64.9572H307.246C308.789 64.9503 310.08 62.3637 310.066 59.3087C310.054 56.257 308.744 53.6826 307.205 53.6826Z" fill="#AE92F4"/>
<path d="M289.006 65.6045C288.796 65.6045 288.625 65.435 288.625 65.2258L288.579 53.8717L285.093 56.3597C284.922 56.4807 284.685 56.441 284.562 56.2715C284.441 56.1004 284.481 55.8635 284.65 55.7407L288.734 52.8257C288.85 52.7427 289.002 52.7323 289.128 52.7963C289.255 52.8603 289.334 52.9917 289.336 53.1335L289.386 65.2223C289.386 65.4316 289.217 65.6027 289.007 65.6045H289.006Z" fill="#AE92F4"/>
<path d="M317.915 65.6749C315.898 65.6749 314.309 62.874 314.293 59.2916C314.278 55.704 315.849 52.8876 317.87 52.8789H317.879C319.897 52.8789 321.486 55.6798 321.501 59.2622C321.517 62.8498 319.945 65.6663 317.924 65.6749H317.915ZM317.881 53.6396H317.875C316.335 53.6466 315.043 56.2331 315.056 59.2882C315.068 62.3398 316.378 64.9142 317.917 64.9142H317.922C319.463 64.9073 320.754 62.3208 320.742 59.2657C320.73 56.2141 319.419 53.6396 317.881 53.6396Z" fill="#AE92F4"/>
<path d="M261.947 65.7158C261.738 65.7158 261.567 65.5463 261.567 65.3371L261.52 53.983L258.034 56.471C257.863 56.592 257.626 56.5523 257.504 56.3828C257.383 56.2117 257.422 55.9748 257.592 55.8521L261.676 52.937C261.791 52.854 261.944 52.8437 262.07 52.9076C262.196 52.9716 262.276 53.103 262.277 53.2448L262.327 65.3337C262.327 65.5429 262.158 65.7141 261.949 65.7158H261.947Z" fill="#AE92F4"/>
<path d="M270.533 65.6806C270.324 65.6806 270.153 65.5112 270.153 65.302L270.106 53.9479L266.62 56.4359C266.449 56.5569 266.212 56.5171 266.09 56.3477C265.969 56.1765 266.008 55.9397 266.178 55.8169L270.262 52.9019C270.377 52.8189 270.53 52.8085 270.656 52.8725C270.782 52.9365 270.862 53.0679 270.863 53.2096L270.913 65.2985C270.913 65.5077 270.744 65.6789 270.535 65.6806H270.533Z" fill="#AE92F4"/>
<path d="M128.993 87.9152C127.989 87.9152 127.06 87.2219 126.379 85.9632C125.736 84.7754 125.378 83.202 125.371 81.5319C125.356 77.9443 126.927 75.1278 128.948 75.1191H128.957C129.962 75.1191 130.89 75.8125 131.571 77.0711C132.214 78.2589 132.572 79.834 132.579 81.5025C132.586 83.1709 132.242 84.7477 131.608 85.9407C130.935 87.2098 130.008 87.91 129 87.9152H128.992H128.993ZM128.959 75.8816H128.954C127.413 75.8885 126.122 78.4751 126.134 81.5301C126.141 83.0758 126.466 84.5212 127.05 85.6018C127.593 86.6046 128.283 87.1562 128.995 87.1562H129C129.714 87.1527 130.402 86.596 130.938 85.5863C131.514 84.5022 131.827 83.0533 131.82 81.5077C131.813 79.962 131.488 78.5148 130.904 77.436C130.361 76.4332 129.671 75.8816 128.959 75.8816Z" fill="#AE92F4"/>
<path d="M139.517 87.8722C138.512 87.8722 137.584 87.1789 136.903 85.9202C136.259 84.7324 135.902 83.1591 135.895 81.4889C135.888 79.8204 136.232 78.2436 136.866 77.0507C137.539 75.7816 138.466 75.0814 139.474 75.0762H139.482C140.487 75.0762 141.415 75.7695 142.096 77.0282C142.74 78.216 143.097 79.7893 143.104 81.4595C143.12 85.0471 141.548 87.8636 139.527 87.8722H139.519H139.517ZM139.482 75.8386H139.477C138.763 75.8421 138.075 76.3988 137.539 77.4086C136.963 78.4926 136.65 79.9415 136.657 81.4872C136.664 83.0329 136.989 84.4783 137.573 85.5589C138.116 86.5617 138.806 87.1132 139.519 87.1132H139.524C141.064 87.1063 142.356 84.5198 142.344 81.4647C142.337 79.919 142.012 78.4736 141.427 77.393C140.884 76.3902 140.195 75.8386 139.482 75.8386Z" fill="#AE92F4"/>
<path d="M205.091 87.6029C204.086 87.6029 203.158 86.9096 202.477 85.6509C201.834 84.4631 201.476 82.888 201.469 81.2196C201.462 79.5511 201.806 77.9743 202.441 76.7813C203.113 75.5123 204.04 74.812 205.048 74.8068C206.07 74.793 206.988 75.4967 207.671 76.7588C208.314 77.9466 208.672 79.52 208.679 81.1902C208.694 84.7778 207.123 87.5942 205.101 87.6029H205.093H205.091ZM205.056 75.5676H205.051C204.337 75.571 203.649 76.1278 203.113 77.1375C202.537 78.2215 202.224 79.6704 202.231 81.2161C202.238 82.7618 202.563 84.2089 203.148 85.2878C203.691 86.2906 204.38 86.8422 205.093 86.8422H205.098C206.638 86.8352 207.93 84.2487 207.918 81.1936C207.911 79.6479 207.586 78.2025 207.002 77.1219C206.459 76.1191 205.769 75.5676 205.056 75.5676Z" fill="#AE92F4"/>
<path d="M150.189 87.8283C149.184 87.8283 148.256 87.135 147.574 85.8763C146.931 84.6885 146.573 83.1151 146.567 81.4449C146.551 77.8574 148.123 75.0409 150.144 75.0322C151.157 75.0461 152.084 75.7221 152.767 76.9842C153.41 78.172 153.768 79.7454 153.775 81.4156C153.781 83.084 153.436 84.6608 152.803 85.8538C152.13 87.1229 151.204 87.8231 150.196 87.8283H150.187H150.189ZM150.154 75.793H150.149C148.608 75.7999 147.317 78.3864 147.329 81.4415C147.336 82.9872 147.661 84.4326 148.245 85.5132C148.788 86.516 149.478 87.0675 150.19 87.0675H150.196C150.91 87.0641 151.598 86.5073 152.134 85.4976C152.71 84.4136 153.022 82.9647 153.016 81.419C153.009 79.8733 152.684 78.4279 152.099 77.3473C151.556 76.3445 150.866 75.793 150.154 75.793Z" fill="#AE92F4"/>
<path d="M168.493 87.7541C167.489 87.7541 166.56 87.0607 165.879 85.8021C165.236 84.6143 164.878 83.0409 164.871 81.3707C164.864 79.7006 165.208 78.1255 165.843 76.9325C166.515 75.6634 167.442 74.9632 168.45 74.958H168.459C169.463 74.958 170.392 75.6513 171.073 76.91C171.716 78.0978 172.074 79.6712 172.081 81.3413C172.095 84.9289 170.523 87.7454 168.504 87.7541H168.495H168.493ZM168.459 75.7188H168.454C167.74 75.7222 167.051 76.2789 166.515 77.2887C165.94 78.3727 165.627 79.8216 165.634 81.3673C165.641 82.913 165.966 84.3584 166.55 85.439C167.093 86.4418 167.783 86.9933 168.495 86.9933H168.5C170.041 86.9864 171.332 84.3999 171.32 81.3448C171.313 79.7991 170.988 78.3537 170.404 77.2731C169.861 76.2703 169.171 75.7188 168.459 75.7188Z" fill="#AE92F4"/>
<path d="M160.779 87.5969C160.57 87.5969 160.399 87.4274 160.399 87.2182L160.352 75.8641L156.866 78.3521C156.695 78.4731 156.458 78.4334 156.336 78.2639C156.215 78.0928 156.254 77.8559 156.424 77.7331L160.508 74.8198C160.624 74.7368 160.776 74.7265 160.902 74.7904C161.028 74.8544 161.108 74.9858 161.109 75.1276L161.16 87.2165C161.16 87.4257 160.99 87.5969 160.781 87.5986L160.779 87.5969Z" fill="#AE92F4"/>
<path d="M179.537 87.5187C179.328 87.5187 179.157 87.3493 179.157 87.1401L179.11 75.786L175.624 78.274C175.453 78.395 175.216 78.3552 175.094 78.1858C174.972 78.0146 175.012 77.7778 175.182 77.655L179.266 74.7417C179.381 74.6587 179.533 74.6484 179.66 74.7123C179.786 74.7763 179.865 74.9077 179.867 75.0495L179.917 87.1384C179.917 87.3476 179.748 87.5187 179.539 87.5205L179.537 87.5187Z" fill="#AE92F4"/>
<path d="M188.385 87.4824C188.175 87.4824 188.004 87.3129 188.004 87.1037L187.958 75.7496L184.472 78.2376C184.301 78.3587 184.064 78.3189 183.941 78.1494C183.82 77.9783 183.86 77.7414 184.029 77.6187L188.113 74.7036C188.229 74.6206 188.381 74.6103 188.507 74.6742C188.634 74.7382 188.713 74.8696 188.715 75.0114L188.765 87.1003C188.765 87.3095 188.596 87.4806 188.386 87.4824H188.385Z" fill="#AE92F4"/>
<path d="M197.224 87.4472C197.015 87.4472 196.844 87.2778 196.844 87.0686L196.797 75.7145L193.312 78.2025C193.141 78.3235 192.904 78.2855 192.781 78.1143C192.66 77.9431 192.7 77.7063 192.869 77.5835L196.953 74.6685C197.069 74.5855 197.221 74.5751 197.347 74.6391C197.473 74.7031 197.553 74.8345 197.555 74.9762L197.605 87.0651C197.605 87.2743 197.435 87.4455 197.226 87.4472H197.224Z" fill="#AE92F4"/>
<path d="M223.849 87.5275C221.831 87.5275 220.242 84.7266 220.227 81.1442C220.211 77.5566 221.783 74.7401 223.804 74.7314H223.813C225.83 74.7314 227.419 77.5324 227.435 81.1148C227.45 84.7024 225.879 87.5188 223.857 87.5275H223.849ZM223.813 75.4922H223.807C222.267 75.4991 220.975 78.0856 220.987 81.1407C221 84.1923 222.31 86.7668 223.849 86.7668H223.854C225.395 86.7598 226.686 84.1733 226.674 81.1182C226.662 78.0666 225.351 75.4922 223.813 75.4922Z" fill="#AE92F4"/>
<path d="M215.982 87.3711C215.773 87.3711 215.602 87.2016 215.602 86.9924L215.555 75.6383L212.07 78.1263C211.898 78.2473 211.662 78.2076 211.539 78.0381C211.418 77.8669 211.458 77.6301 211.627 77.5073L215.711 74.5923C215.827 74.5093 215.979 74.4989 216.105 74.5629C216.231 74.6269 216.311 74.7583 216.312 74.9001L216.363 86.989C216.363 87.1982 216.193 87.3693 215.984 87.3711H215.982Z" fill="#AE92F4"/>
<path d="M234.618 87.588C233.614 87.588 232.685 86.8947 232.004 85.636C231.361 84.4482 231.003 82.8749 230.996 81.2047C230.989 79.5363 231.333 77.9594 231.968 76.7665C232.64 75.4974 233.567 74.7972 234.575 74.792H234.584C235.588 74.792 236.517 75.4853 237.198 76.744C237.841 77.9318 238.199 79.5051 238.206 81.1753C238.22 84.7629 236.648 87.5794 234.629 87.588H234.62H234.618ZM234.584 75.5527H234.579C233.865 75.5562 233.176 76.1129 232.64 77.1226C232.065 78.2067 231.752 79.6556 231.759 81.2013C231.766 82.7469 232.091 84.1941 232.675 85.273C233.218 86.2758 233.908 86.8273 234.62 86.8273H234.625C236.166 86.8204 237.457 84.2339 237.445 81.1788C237.438 79.6331 237.113 78.1877 236.529 77.1071C235.986 76.1043 235.296 75.5527 234.584 75.5527Z" fill="#AE92F4"/>
<path d="M245.201 87.3545C244.992 87.3545 244.821 87.185 244.821 86.9758L244.774 75.6217L241.288 78.1097C241.117 78.2307 240.88 78.191 240.758 78.0215C240.637 77.8504 240.676 77.6135 240.846 77.4907L244.93 74.5757C245.045 74.4927 245.198 74.4823 245.324 74.5463C245.45 74.6103 245.53 74.7417 245.531 74.8835L245.581 86.9724C245.581 87.1816 245.412 87.3527 245.203 87.3545H245.201Z" fill="#AE92F4"/>
<path d="M270.271 87.4416C269.266 87.4416 268.338 86.7482 267.657 85.4896C267.013 84.3018 266.655 82.7284 266.649 81.0582C266.633 77.4706 268.205 74.6542 270.226 74.6455H270.234C271.239 74.6455 272.167 75.3388 272.849 76.5975C273.492 77.7853 273.85 79.3587 273.857 81.0288C273.863 82.6973 273.519 84.2741 272.885 85.4671C272.212 86.7361 271.286 87.4364 270.278 87.4416H270.269H270.271ZM270.236 75.408H270.231C268.69 75.4149 267.399 78.0014 267.411 81.0565C267.418 82.6022 267.743 84.0476 268.327 85.1282C268.87 86.131 269.56 86.6825 270.272 86.6825H270.278C270.992 86.6791 271.68 86.1224 272.216 85.1126C272.792 84.0286 273.104 82.5797 273.098 81.034C273.091 79.4883 272.766 78.0429 272.181 76.9623C271.638 75.9595 270.948 75.408 270.236 75.408Z" fill="#AE92F4"/>
<path d="M288.568 87.3664C287.563 87.3664 286.635 86.673 285.953 85.4144C285.31 84.2266 284.952 82.6532 284.945 80.983C284.938 79.3146 285.284 77.7378 285.917 76.5448C286.59 75.2757 287.516 74.5755 288.524 74.5703H288.533C289.538 74.5703 290.466 75.2636 291.147 76.5223C291.79 77.7101 292.148 79.2835 292.155 80.9536C292.171 84.5412 290.599 87.3577 288.578 87.3664H288.569H288.568ZM288.533 75.3311H288.528C287.814 75.3345 287.126 75.8912 286.59 76.901C286.014 77.985 285.701 79.4339 285.706 80.9796C285.713 82.5253 286.038 83.9707 286.622 85.0513C287.165 86.0541 287.855 86.6056 288.568 86.6056H288.573C290.113 86.5987 291.405 84.0122 291.393 80.9571C291.386 79.4114 291.061 77.966 290.476 76.8854C289.933 75.8826 289.244 75.3311 288.531 75.3311H288.533Z" fill="#AE92F4"/>
<path d="M299.091 87.3234C298.087 87.3234 297.158 86.6301 296.477 85.3714C295.834 84.1836 295.476 82.6102 295.469 80.9401C295.462 79.2716 295.808 77.6948 296.441 76.5018C297.113 75.2328 298.04 74.5325 299.048 74.5273H299.056C300.061 74.5273 300.989 75.2207 301.671 76.4793C302.314 77.6671 302.672 79.2405 302.679 80.9107C302.694 84.4983 301.123 87.3147 299.101 87.3234H299.093H299.091ZM299.056 75.2881H299.051C298.337 75.2915 297.649 75.8483 297.113 76.858C296.537 77.9421 296.224 79.3909 296.231 80.9366C296.238 82.4823 296.563 83.9294 297.148 85.0083C297.692 86.0128 298.386 86.5609 299.098 86.5626C300.638 86.5557 301.93 83.9692 301.918 80.9141C301.911 79.3684 301.586 77.923 301.002 76.8424C300.459 75.8396 299.769 75.2881 299.056 75.2881Z" fill="#AE92F4"/>
<path d="M280.857 87.2101C280.648 87.2101 280.477 87.0407 280.477 86.8315L280.43 75.4774L276.945 77.9654C276.773 78.0864 276.537 78.0466 276.414 77.8772C276.293 77.706 276.333 77.4692 276.502 77.3464L280.586 74.4331C280.702 74.3501 280.854 74.3398 280.98 74.4037C281.106 74.4677 281.186 74.5991 281.187 74.7409L281.238 86.8298C281.238 87.039 281.068 87.2101 280.859 87.2119L280.857 87.2101Z" fill="#AE92F4"/>
<path d="M309.771 87.2804C308.766 87.2804 307.838 86.5871 307.156 85.3284C306.513 84.1406 306.155 82.5655 306.149 80.8971C306.142 79.2287 306.486 77.6518 307.12 76.4588C307.793 75.1898 308.719 74.4896 309.727 74.4844H309.736C310.741 74.4844 311.669 75.1777 312.35 76.4364C312.993 77.6242 313.351 79.1975 313.358 80.8677C313.374 84.4553 311.802 87.2718 309.781 87.2804H309.772H309.771ZM309.736 75.2451H309.731C309.017 75.2486 308.329 75.8053 307.793 76.815C307.217 77.8991 306.904 79.3479 306.911 80.8936C306.918 82.4393 307.243 83.8865 307.827 84.9653C308.37 85.9681 309.06 86.5197 309.772 86.5197H309.778C311.318 86.5128 312.61 83.9262 312.598 80.8712C312.591 79.3255 312.266 77.8801 311.681 76.7995C311.138 75.7967 310.448 75.2451 309.736 75.2451Z" fill="#AE92F4"/>
<path d="M320.353 87.0471C320.144 87.0471 319.973 86.8776 319.973 86.6684L319.926 75.3143L316.441 77.8023C316.27 77.9233 316.033 77.8836 315.91 77.7141C315.789 77.543 315.829 77.3061 315.998 77.1833L320.082 74.27C320.198 74.187 320.35 74.1767 320.476 74.2406C320.602 74.3046 320.682 74.436 320.684 74.5778L320.734 86.6667C320.734 86.8759 320.564 87.0471 320.355 87.0488L320.353 87.0471Z" fill="#AE92F4"/>
<path d="M253.795 87.3205C253.586 87.3205 253.414 87.1511 253.414 86.9419L253.368 75.5878L249.882 78.0757C249.711 78.1968 249.474 78.157 249.351 77.9876C249.23 77.8164 249.27 77.5795 249.44 77.4568L253.523 74.5435C253.639 74.4605 253.791 74.4501 253.918 74.5141C254.044 74.578 254.123 74.7095 254.125 74.8512L254.175 86.9401C254.175 87.1493 254.006 87.3205 253.796 87.3222L253.795 87.3205Z" fill="#AE92F4"/>
<path d="M262.389 87.2863C262.179 87.2863 262.008 87.1169 262.008 86.9077L261.961 75.5536L258.476 78.0416C258.305 78.1626 258.068 78.1228 257.945 77.9534C257.824 77.7822 257.864 77.5453 258.033 77.4226L262.117 74.5093C262.233 74.4263 262.385 74.4159 262.511 74.4799C262.637 74.5439 262.717 74.6753 262.719 74.817L262.769 86.9059C262.769 87.1152 262.599 87.2863 262.39 87.288L262.389 87.2863Z" fill="#AE92F4"/>
<path d="M321.427 283.205L321.362 278.349L315.905 278.421L315.869 275.752L318.535 275.715L320.276 268.253L315.77 268.314L315.737 265.852L319.001 265.808L318.967 263.21L315.703 263.253L315.367 238.098L326.282 237.953L327.076 297.322C321.049 297.403 316.097 292.583 316.016 286.559L315.972 283.278L321.429 283.205H321.427Z" fill="#A082EC"/>
<path d="M299.635 222.512C299.789 234.094 309.308 243.358 320.896 243.204C332.483 243.05 341.752 233.534 341.597 221.952C341.443 210.37 331.923 201.106 320.336 201.26C308.748 201.414 299.479 210.93 299.635 222.512ZM315.707 213.885C315.673 211.238 317.791 209.061 320.439 209.026C323.088 208.992 325.265 211.108 325.299 213.757C325.334 216.405 323.216 218.579 320.567 218.615C317.919 218.651 315.742 216.533 315.707 213.885Z" fill="#A082EC"/>
<path d="M244.102 85.6484H205.504L178.211 112.942V151.541L205.504 178.834H244.102L271.395 151.541V112.942L244.102 85.6484Z" fill="#C3D0E2"/>
<path d="M225.37 140.25H206.794L202.579 151.745H198.953L214.438 110.825H217.726L233.211 151.745H229.613L225.37 140.25ZM207.862 137.328H224.275L216.07 115.042L207.864 137.328H207.862Z" fill="white"/>
<path d="M243.437 151.745H239.98V110.825H243.437V151.745Z" fill="white"/>
<path d="M281.909 167.178H264.102L251.512 179.77V197.575L264.102 210.167H281.909L294.499 197.575V179.77L281.909 167.178Z" fill="#A082EC"/>
<path d="M281.908 210.546C281.697 210.546 281.527 210.377 281.527 210.166V192.119C281.527 192.019 281.567 191.922 281.638 191.849L294.109 179.378C294.258 179.229 294.498 179.229 294.647 179.378C294.795 179.527 294.795 179.767 294.647 179.916L282.288 192.274V210.164C282.288 210.375 282.119 210.544 281.908 210.544V210.546Z" fill="white"/>
<path d="M251.51 197.955C251.413 197.955 251.315 197.919 251.24 197.844C251.092 197.696 251.092 197.455 251.24 197.307L266.419 182.128V167.996C266.419 167.785 266.588 167.615 266.799 167.615C267.01 167.615 267.18 167.785 267.18 167.996V182.285C267.18 182.386 267.14 182.483 267.069 182.555L251.778 197.844C251.704 197.919 251.607 197.955 251.508 197.955H251.51Z" fill="white"/>
<path d="M259.155 204.561C259.058 204.561 258.959 204.525 258.885 204.45C258.736 204.302 258.736 204.061 258.885 203.913L281.712 181.085V167.179C281.712 166.968 281.882 166.799 282.093 166.799C282.304 166.799 282.473 166.968 282.473 167.179V181.244C282.473 181.345 282.433 181.441 282.363 181.514L259.424 204.452C259.35 204.527 259.253 204.563 259.155 204.563V204.561Z" fill="white"/>
<path d="M274.446 202.271C274.446 203.326 273.59 204.181 272.536 204.181C271.481 204.181 270.625 203.326 270.625 202.271C270.625 201.216 271.481 200.36 272.536 200.36C273.59 200.36 274.446 201.216 274.446 202.271Z" fill="white"/>
<path d="M261.063 180.874C261.063 181.929 260.207 182.785 259.153 182.785C258.098 182.785 257.242 181.929 257.242 180.874C257.242 179.82 258.098 178.964 259.153 178.964C260.207 178.964 261.063 179.82 261.063 180.874Z" fill="white"/>
<path d="M290.778 192.997C290.778 194.052 289.922 194.908 288.868 194.908C287.813 194.908 286.957 194.052 286.957 192.997C286.957 191.943 287.813 191.087 288.868 191.087C289.922 191.087 290.778 191.943 290.778 192.997Z" fill="white"/>
<path d="M313.014 123.778H293.124L279.059 137.843V157.733L293.124 171.797H313.014L327.077 157.733V137.843L313.014 123.778Z" fill="white"/>
<path d="M313.011 172.176H293.121C293.021 172.176 292.924 172.137 292.852 172.066L278.786 158.001C278.716 157.93 278.676 157.833 278.676 157.731V137.841C278.676 137.741 278.716 137.644 278.786 137.571L292.852 123.506C292.922 123.435 293.019 123.396 293.121 123.396H313.011C313.112 123.396 313.208 123.435 313.281 123.506L327.346 137.571C327.417 137.642 327.457 137.739 327.457 137.841V157.731C327.457 157.831 327.417 157.928 327.346 158.001L313.281 172.066C313.21 172.137 313.113 172.176 313.011 172.176ZM293.28 171.416H312.856L326.698 157.574V137.998L312.856 124.156H293.28L279.438 137.998V157.574L293.28 171.416Z" fill="#A082EC"/>
<path d="M318.322 166.864C318.111 166.864 317.942 166.694 317.942 166.483V154.451L305.267 141.776C305.196 141.705 305.156 141.609 305.156 141.507V123.778C305.156 123.567 305.326 123.397 305.537 123.397C305.748 123.397 305.917 123.567 305.917 123.778V141.349L318.592 154.024C318.663 154.095 318.703 154.192 318.703 154.294V166.483C318.703 166.694 318.533 166.864 318.322 166.864Z" fill="#A082EC"/>
<path d="M311.111 172.177C310.9 172.177 310.731 172.008 310.731 171.797V160.265L284.037 133.571C283.889 133.422 283.889 133.182 284.037 133.033C284.186 132.885 284.426 132.885 284.575 133.033L311.381 159.839C311.452 159.91 311.491 160.007 311.491 160.109V171.798C311.491 172.009 311.322 172.179 311.111 172.179V172.177Z" fill="#A082EC"/>
<path d="M317.748 139.666C317.748 140.544 317.035 141.256 316.157 141.256C315.279 141.256 314.566 140.544 314.566 139.666C314.566 138.788 315.279 138.075 316.157 138.075C317.035 138.075 317.748 138.788 317.748 139.666Z" fill="#A082EC"/>
<path d="M301.099 154.215C301.099 155.093 300.387 155.805 299.509 155.805C298.63 155.805 297.918 155.093 297.918 154.215C297.918 153.336 298.63 152.624 299.509 152.624C300.387 152.624 301.099 153.336 301.099 154.215Z" fill="#A082EC"/>
<path d="M310.381 249.671H269.302C269.091 249.671 268.922 249.502 268.922 249.291V215.106C268.922 214.895 269.091 214.726 269.302 214.726C269.513 214.726 269.683 214.895 269.683 215.106V248.911H310.381C310.592 248.911 310.761 249.08 310.761 249.291C310.761 249.502 310.592 249.671 310.381 249.671Z" fill="#A082EC"/>
<path d="M310.38 242.575H276.826C276.615 242.575 276.445 242.406 276.445 242.195V215.107C276.445 214.896 276.615 214.727 276.826 214.727C277.037 214.727 277.206 214.896 277.206 215.107V241.814H310.381C310.592 241.814 310.762 241.984 310.762 242.195C310.762 242.406 310.592 242.575 310.381 242.575H310.38Z" fill="#A082EC"/>
<path d="M310.884 202.373C310.673 202.373 310.504 202.204 310.504 201.993V173.885C310.504 173.674 310.673 173.505 310.884 173.505C311.095 173.505 311.265 173.674 311.265 173.885V201.993C311.265 202.204 311.095 202.373 310.884 202.373Z" fill="#A082EC"/>
<path d="M430.962 134.601C430.752 134.601 430.582 134.432 430.582 134.221V53.1725L411.508 34.0986H334.099C333.888 34.0986 333.719 33.9292 333.719 33.7183C333.719 33.5073 333.888 33.3379 334.099 33.3379H411.665C411.766 33.3379 411.863 33.3777 411.935 33.4485L431.232 52.7455C431.303 52.8164 431.343 52.9132 431.343 53.0152V134.221C431.343 134.432 431.173 134.601 430.962 134.601Z" fill="#A082EC"/>
<path d="M419.333 132.622C419.123 132.622 418.953 132.453 418.953 132.242V53.9321C418.953 53.7212 419.123 53.5518 419.333 53.5518C419.544 53.5518 419.714 53.7212 419.714 53.9321V132.242C419.714 132.453 419.544 132.622 419.333 132.622Z" fill="#A082EC"/>
<path d="M441.5 136.176C441.289 136.176 441.12 136.006 441.12 135.795V54.2939L415.005 28.1797H333.447C333.236 28.1797 333.066 28.0103 333.066 27.7993C333.066 27.5884 333.236 27.4189 333.447 27.4189H415.163C415.263 27.4189 415.36 27.4587 415.432 27.5296L441.77 53.8669C441.841 53.9378 441.88 54.0346 441.88 54.1366V135.795C441.88 136.006 441.711 136.176 441.5 136.176Z" fill="#A082EC"/>
<path d="M451.727 134.684C451.516 134.684 451.346 134.515 451.346 134.304V56.6184L415.005 20.2773H333.447C333.236 20.2773 333.066 20.1079 333.066 19.897C333.066 19.686 333.236 19.5166 333.447 19.5166H415.163C415.263 19.5166 415.36 19.5564 415.432 19.6273L451.996 56.1913C452.067 56.2622 452.107 56.359 452.107 56.4593V134.302C452.107 134.513 451.938 134.683 451.727 134.683V134.684Z" fill="#A082EC"/>
<path d="M420.082 57.1275C421.835 56.7138 422.92 54.9576 422.506 53.2048C422.093 51.4521 420.337 50.3666 418.584 50.7802C416.831 51.1939 415.746 52.9502 416.159 54.7029C416.573 56.4557 418.329 57.5412 420.082 57.1275Z" fill="#A082EC"/>
<path d="M451.726 134.466C449.924 134.466 448.465 135.925 448.465 137.727C448.465 139.528 449.926 140.987 451.726 140.987C453.526 140.987 454.986 139.528 454.986 137.727C454.986 135.925 453.527 134.466 451.726 134.466Z" fill="#A082EC"/>
<path d="M416.835 22.2052C418.109 20.9318 418.109 18.8671 416.835 17.5937C415.562 16.3202 413.497 16.3203 412.224 17.5937C410.95 18.8671 410.95 20.9317 412.224 22.2052C413.497 23.4786 415.562 23.4786 416.835 22.2052Z" fill="#A082EC"/>
<path d="M419.33 54.3122C419.226 54.3122 419.124 54.2707 419.048 54.1877L407.928 41.9795H334.099C333.888 41.9795 333.719 41.81 333.719 41.5991C333.719 41.3882 333.888 41.2188 334.099 41.2188H408.095C408.202 41.2188 408.304 41.2637 408.377 41.3432L419.612 53.6742C419.754 53.8298 419.741 54.0701 419.588 54.2119C419.515 54.2776 419.423 54.3104 419.332 54.3104L419.33 54.3122Z" fill="#A082EC"/>
<path d="M189.794 201.351C189.584 201.351 189.414 201.182 189.414 200.971V188.04C189.414 187.94 189.454 187.843 189.525 187.77L199.824 177.471C199.973 177.322 200.213 177.322 200.362 177.471C200.511 177.62 200.511 177.86 200.362 178.009L190.173 188.197V200.971C190.173 201.182 190.004 201.351 189.793 201.351H189.794Z" fill="#A082EC"/>
<path d="M164.697 201.351C164.486 201.351 164.316 201.182 164.316 200.971V181.65C164.316 181.55 164.356 181.453 164.427 181.38L184.635 161.172C184.784 161.023 185.024 161.023 185.173 161.172C185.322 161.321 185.322 161.561 185.173 161.71L165.077 181.806V200.969C165.077 201.18 164.908 201.35 164.697 201.35V201.351Z" fill="#A082EC"/>
<path d="M159.064 201.351C158.853 201.351 158.684 201.182 158.684 200.971V179.048C158.684 178.947 158.723 178.851 158.794 178.778L180.935 156.637C181.084 156.488 181.324 156.488 181.473 156.637C181.622 156.786 181.622 157.026 181.473 157.175L159.443 179.205V200.971C159.443 201.182 159.273 201.351 159.062 201.351H159.064Z" fill="#A082EC"/>
<path d="M182.337 201.351C182.126 201.351 181.957 201.182 181.957 200.971V186.93C181.957 186.83 181.997 186.733 182.068 186.66L196.041 172.687C196.19 172.538 196.43 172.538 196.579 172.687C196.728 172.835 196.728 173.076 196.579 173.224L182.716 187.085V200.969C182.716 201.18 182.547 201.349 182.336 201.349L182.337 201.351Z" fill="#A082EC"/>
<path d="M175.326 201.35C175.115 201.35 174.945 201.181 174.945 200.97V182.583C174.945 182.372 175.115 182.202 175.326 182.202C175.537 182.202 175.706 182.372 175.706 182.583V200.97C175.706 201.181 175.537 201.35 175.326 201.35Z" fill="#A082EC"/>
<path d="M176.07 185.768C177.823 185.354 178.908 183.598 178.495 181.845C178.081 180.093 176.325 179.007 174.572 179.421C172.819 179.835 171.734 181.591 172.147 183.344C172.561 185.096 174.317 186.182 176.07 185.768Z" fill="#A082EC"/>
<path d="M173.387 134.401H85.0194C84.9191 134.401 84.8223 134.361 84.7497 134.29L53.1927 102.733C53.1218 102.662 53.082 102.565 53.082 102.463V15.436C53.082 15.2251 53.2515 15.0557 53.4624 15.0557C53.6733 15.0557 53.8428 15.2251 53.8428 15.436V102.306L85.1767 133.64H173.385C173.596 133.64 173.765 133.809 173.765 134.02C173.765 134.231 173.596 134.401 173.385 134.401H173.387Z" fill="#A082EC"/>
<path d="M173.392 129.309H85.0248C84.9245 129.309 84.8277 129.269 84.7551 129.198L59.0091 103.452C58.9382 103.382 58.8984 103.285 58.8984 103.183V30.0408C58.8984 29.9405 58.9382 29.8437 59.0091 29.7711L81.3023 7.47784C81.3732 7.40696 81.47 7.36719 81.572 7.36719H110.396C110.606 7.36719 110.776 7.53663 110.776 7.74756C110.776 7.95849 110.606 8.12793 110.396 8.12793H81.7294L59.6592 30.1981V103.025L85.1821 128.548H173.39C173.601 128.548 173.771 128.718 173.771 128.929C173.771 129.14 173.601 129.309 173.39 129.309H173.392Z" fill="#A082EC"/>
<path d="M173.389 124.217H85.0221C84.9218 124.217 84.825 124.177 84.7524 124.106L64.0325 103.387C63.9616 103.316 63.9219 103.219 63.9219 103.117V43.2809C63.9219 43.1806 63.9616 43.0838 64.0325 43.0129L83.9225 23.1229C83.9934 23.0521 84.0902 23.0123 84.1905 23.0123L110.393 22.9414C110.602 22.9414 110.773 23.1108 110.773 23.32C110.773 23.531 110.604 23.7004 110.395 23.7021L84.3496 23.773L64.6826 43.44V102.961L85.1795 123.458H173.388C173.599 123.458 173.768 123.627 173.768 123.838C173.768 124.049 173.599 124.219 173.388 124.219L173.389 124.217Z" fill="#A082EC"/>
<path d="M72.8812 59.7037C72.7844 59.7037 72.6859 59.6673 72.6115 59.593C72.4628 59.4443 72.4628 59.204 72.6115 59.0553L86.8374 44.8294C86.9083 44.7585 87.0051 44.7188 87.1071 44.7188H110.391C110.602 44.7188 110.771 44.8882 110.771 45.0991C110.771 45.3101 110.602 45.4795 110.391 45.4795H87.2662L73.1527 59.593C73.0783 59.6673 72.9815 59.7037 72.883 59.7037H72.8812Z" fill="#A082EC"/>
<path d="M59.2754 114.26C59.1786 114.26 59.08 114.224 59.0057 114.15L48.3138 103.458C48.2429 103.387 48.2031 103.29 48.2031 103.19V9.75999C48.2031 9.65452 48.2463 9.55424 48.3241 9.48163L58.3729 0.102008C58.4438 0.0363076 58.5354 0 58.6322 0H110.482C110.693 0 110.862 0.16944 110.862 0.380374C110.862 0.591307 110.693 0.760742 110.482 0.760742H58.7809L48.9621 9.92424V103.029L59.5434 113.61C59.6921 113.759 59.6921 113.999 59.5434 114.148C59.469 114.222 59.3722 114.258 59.2737 114.258L59.2754 114.26Z" fill="#A082EC"/>
<path d="M61.8139 30.5767C62.1458 29.1706 61.275 27.7617 59.8689 27.4299C58.4628 27.098 57.0539 27.9688 56.722 29.3749C56.3901 30.781 57.261 32.1899 58.6671 32.5218C60.0732 32.8537 61.4821 31.9828 61.8139 30.5767Z" fill="#A082EC"/>
<path d="M50.9844 15.4372C50.9844 13.9918 52.1566 12.8213 53.6003 12.8213C55.044 12.8213 56.2162 13.9935 56.2162 15.4372C56.2162 16.8809 55.044 18.0531 53.6003 18.0531C52.1566 18.0531 50.9844 16.8809 50.9844 15.4372Z" fill="#A082EC"/>
<path d="M59.7016 116.456C61.1277 116.225 62.0961 114.881 61.8646 113.455C61.6331 112.029 60.2894 111.06 58.8634 111.292C57.4373 111.523 56.4689 112.867 56.7004 114.293C56.9319 115.719 58.2756 116.688 59.7016 116.456Z" fill="#A082EC"/>
<path d="M71.8438 57.9245C71.8438 56.4791 73.016 55.3086 74.4597 55.3086C75.9034 55.3086 77.0756 56.4808 77.0756 57.9245C77.0756 59.3682 75.9034 60.5404 74.4597 60.5404C73.016 60.5404 71.8438 59.3682 71.8438 57.9245Z" fill="#A082EC"/>
<path d="M173.386 114.036H85.0185C84.9183 114.036 84.8214 113.996 84.7488 113.925L74.1849 103.361C74.114 103.29 74.0742 103.193 74.0742 103.093V74.4389C74.0742 74.3386 74.114 74.2418 74.1849 74.1691L91.2912 57.0628C91.3621 56.9919 91.4589 56.9521 91.5609 56.9521H109.112C109.323 56.9521 109.492 57.1216 109.492 57.3325C109.492 57.5434 109.323 57.7129 109.112 57.7129H91.7183L74.8332 74.5979V102.937L85.1742 113.278H173.382C173.593 113.278 173.763 113.448 173.763 113.659C173.763 113.87 173.593 114.039 173.382 114.039L173.386 114.036Z" fill="#A082EC"/>
<path d="M76.3031 94.0109C77.3247 92.9893 77.3247 91.333 76.3031 90.3114C75.2815 89.2898 73.6252 89.2898 72.6036 90.3114C71.5821 91.333 71.5821 92.9893 72.6036 94.0109C73.6252 95.0324 75.2815 95.0324 76.3031 94.0109Z" fill="#A082EC"/>
<path d="M91.3698 59.9467C92.8146 59.9467 93.9857 58.7755 93.9857 57.3308C93.9857 55.886 92.8146 54.7148 91.3698 54.7148C89.9251 54.7148 88.7539 55.886 88.7539 57.3308C88.7539 58.7755 89.9251 59.9467 91.3698 59.9467Z" fill="#A082EC"/>
<path d="M173.388 119.128H85.021C84.9207 119.128 84.8239 119.088 84.7513 119.017L69.1146 103.38C69.0437 103.309 69.0039 103.213 69.0039 103.111V52.8168C69.0039 52.7166 69.0437 52.6197 69.1146 52.5471L86.9211 34.7405C86.992 34.6697 87.0888 34.6299 87.1891 34.6299H110.39C110.601 34.6299 110.77 34.7993 110.77 35.0103C110.77 35.2212 110.601 35.3906 110.39 35.3906H87.3465L69.7629 52.9742V102.953L85.1766 118.367H173.385C173.596 118.367 173.765 118.536 173.765 118.747C173.765 118.958 173.596 119.128 173.385 119.128H173.388Z" fill="#A082EC"/>
<path d="M112.996 35.2219C113.115 33.7821 112.045 32.5183 110.605 32.3992C109.165 32.28 107.901 33.3506 107.782 34.7905C107.663 36.2303 108.734 37.494 110.173 37.6132C111.613 37.7323 112.877 36.6617 112.996 35.2219Z" fill="#A082EC"/>
<path d="M38.163 24.0361H46.1992V17.5854H38.163V24.0361Z" fill="#A082EC"/>
<path d="M38.163 31.8203H46.1992V25.3696H38.163V31.8203Z" fill="#A082EC"/>
<path d="M38.163 39.6055H46.1992V33.1547H38.163V39.6055Z" fill="#A082EC"/>
<path d="M88.8443 168.436L79.6151 195.434C79.0255 197.16 77.5594 198.437 75.7699 198.787L71.6602 199.585C71.6602 199.585 82.3451 222.79 100.352 218.903C118.359 215.016 114.398 199.585 114.398 199.585L110.589 199.278C108.309 199.093 106.746 196.897 107.317 194.68L111.597 178.089C111.597 178.089 94.1488 164.019 88.8443 168.438V168.436Z" fill="white"/>
<path d="M96.3631 219.714C90.2668 219.714 84.3244 216.74 78.9715 210.96C74.0647 205.661 71.3381 199.803 71.3122 199.745C71.2638 199.639 71.2655 199.516 71.3191 199.413C71.3727 199.309 71.4695 199.234 71.5854 199.212L75.6951 198.413C77.3463 198.092 78.7087 196.904 79.2533 195.311L88.4825 168.314C88.505 168.248 88.5448 168.189 88.5984 168.144C94.0774 163.58 111.111 177.209 111.834 177.792C111.95 177.885 112 178.039 111.964 178.183L107.683 194.774C107.437 195.721 107.624 196.722 108.191 197.519C108.758 198.316 109.643 198.818 110.617 198.897L114.426 199.205C114.586 199.219 114.723 199.333 114.763 199.49C114.828 199.75 116.353 205.907 112.892 211.508C110.49 215.395 106.298 218.008 100.428 219.275C99.0672 219.569 97.71 219.714 96.3614 219.714H96.3631ZM72.2182 199.864C73.8088 203.019 84.129 222.014 100.269 218.531C105.924 217.311 109.953 214.816 112.242 211.118C115.145 206.425 114.329 201.162 114.085 199.943L110.556 199.658C109.358 199.561 108.27 198.944 107.572 197.964C106.873 196.983 106.645 195.752 106.946 194.585L111.167 178.233C109.275 176.742 93.9772 164.932 89.1672 168.665L79.9726 195.557C79.3398 197.407 77.756 198.787 75.8386 199.158L72.2165 199.864H72.2182Z" fill="black"/>
<path d="M124.964 136.592C126.541 144.381 122.315 148.933 117.073 150.235C116.888 150.282 116.701 150.322 116.519 150.363C116.407 150.749 117.209 151.924 117.033 152.305C114.97 156.819 109.069 159.015 104.112 158.565C102.676 160.104 100.805 162.245 98.8201 164.952C92.4817 173.599 87.9847 169.71 81.4008 161.15C80.5242 160.011 79.2603 158.555 78.605 156.141C77.3031 151.349 79.556 147.033 79.8413 146.502C81.9904 142.526 84.1516 141.587 90.834 138.591C99.1451 134.863 101.177 127.432 109.322 125.444C117.247 123.509 123.721 130.44 124.965 136.594L124.964 136.592Z" fill="black"/>
<path d="M95.1401 172.635C95.1401 172.635 99.6112 182.966 111.325 181.057C123.037 179.148 123.625 162.782 122.579 146.944C121.408 148.442 118.73 149.804 116.661 150.684C108.237 154.266 100.427 150.821 99.3121 150.219C101.319 152.686 101.323 156.035 99.632 158.304C98.7001 159.555 97.3567 160.458 94.2463 160.511C94.2463 160.511 92.3461 155.551 87.9286 158.43C83.5094 161.31 85.1536 173.46 95.1401 172.635Z" fill="white"/>
<path d="M108.527 181.671C99.6812 181.671 95.625 174.47 94.9058 173.033C90.5505 173.294 87.1548 171.093 85.7872 167.099C84.5735 163.556 85.4207 159.607 87.7167 158.112C89.1155 157.199 90.4312 156.936 91.6294 157.323C93.2892 157.861 94.1934 159.493 94.4891 160.124C97.4629 160.024 98.5729 159.084 99.3233 158.076C100.98 155.852 100.852 152.719 99.0138 150.458C98.8997 150.318 98.8997 150.115 99.0155 149.975C99.1313 149.835 99.3285 149.797 99.4892 149.884C99.5688 149.927 107.709 154.075 116.509 150.333C119.343 149.126 121.392 147.84 122.277 146.709C122.374 146.585 122.538 146.535 122.688 146.58C122.839 146.626 122.946 146.761 122.956 146.919C124.011 162.88 123.46 179.465 111.384 181.432C110.383 181.595 109.431 181.671 108.53 181.671H108.527ZM95.1357 172.255C95.2861 172.255 95.4245 172.345 95.485 172.483C95.663 172.894 99.9906 182.516 111.26 180.682C122.519 178.847 123.205 163.195 122.253 147.849C120.861 149.147 118.593 150.274 116.807 151.034C109.623 154.089 103.015 152.152 100.359 151.101C101.663 153.48 101.536 156.379 99.9336 158.53C99.0881 159.664 97.7516 160.832 94.2488 160.89H94.2418C94.0845 160.89 93.9445 160.793 93.8874 160.647C93.8788 160.626 93.0748 158.587 91.3908 158.044C90.4226 157.731 89.3264 157.968 88.1317 158.748C86.114 160.064 85.3999 163.622 86.5065 166.852C87.7807 170.574 90.9931 172.595 95.1063 172.255C95.1167 172.255 95.1271 172.255 95.1374 172.255H95.1357Z" fill="black"/>
<path d="M94.4451 168.348C94.2878 168.348 94.1391 168.248 94.0855 168.09C93.8296 167.343 93.5668 166.569 93.1104 165.936C92.6332 165.27 91.9917 164.864 91.3538 164.821C91.1446 164.807 90.9855 164.626 91.0011 164.415C91.0166 164.205 91.1981 164.053 91.4074 164.062C92.2736 164.122 93.1208 164.643 93.7311 165.493C94.2515 166.22 94.5472 167.082 94.8065 167.847C94.8739 168.045 94.7685 168.262 94.5696 168.329C94.5281 168.343 94.4884 168.35 94.4469 168.35L94.4451 168.348Z" fill="black"/>
<path d="M117.777 157.5C118.195 160.232 120.272 162.181 122.418 161.852C124.563 161.524 125.964 159.043 125.545 156.311C125.127 153.579 123.05 151.63 120.905 151.959C118.759 152.287 117.359 154.769 117.777 157.5Z" fill="white"/>
<path d="M121.939 162.269C120.964 162.269 120.004 161.865 119.19 161.102C118.251 160.222 117.616 158.964 117.402 157.56C116.952 154.624 118.498 151.944 120.848 151.584C122.003 151.406 123.17 151.807 124.133 152.712C125.072 153.592 125.706 154.85 125.921 156.254C126.37 159.19 124.824 161.87 122.475 162.23C122.297 162.257 122.117 162.271 121.939 162.271V162.269ZM121.38 152.304C121.24 152.304 121.102 152.314 120.964 152.335C119.029 152.63 117.769 154.923 118.154 157.442C118.344 158.68 118.896 159.781 119.71 160.546C120.5 161.287 121.441 161.617 122.361 161.476C124.295 161.18 125.556 158.887 125.17 156.368C124.98 155.13 124.428 154.029 123.614 153.265C122.943 152.636 122.164 152.304 121.38 152.304Z" fill="black"/>
<path d="M109.249 164.869C108.239 164.869 107.249 164.542 106.384 163.911C105.269 163.099 104.5 161.876 104.221 160.471C103.642 157.559 105.368 154.753 108.067 154.215C109.379 153.952 110.724 154.262 111.85 155.083C112.965 155.896 113.734 157.118 114.012 158.524C114.592 161.435 112.866 164.242 110.167 164.779C109.863 164.84 109.555 164.869 109.251 164.869H109.249ZM104.967 160.324C105.209 161.541 105.871 162.597 106.832 163.298C107.783 163.991 108.915 164.252 110.019 164.034C112.306 163.578 113.763 161.174 113.267 158.673C113.025 157.455 112.363 156.399 111.402 155.699C110.451 155.005 109.317 154.744 108.215 154.962C105.928 155.419 104.47 157.822 104.967 160.324Z" fill="black"/>
<path d="M113.638 158.977C113.57 158.977 113.503 158.96 113.442 158.923C113.262 158.815 113.204 158.581 113.313 158.401C113.957 157.329 114.737 156.726 115.633 156.61C116.978 156.43 118.04 157.45 118.085 157.494C118.235 157.641 118.238 157.881 118.091 158.031C117.946 158.182 117.704 158.185 117.555 158.04C117.547 158.031 116.703 157.236 115.726 157.366C115.076 157.452 114.483 157.933 113.966 158.794C113.895 158.913 113.769 158.979 113.639 158.979L113.638 158.977Z" fill="black"/>
<path d="M104.593 160.778C104.579 160.778 104.565 160.778 104.551 160.776L96.1519 159.875C95.9427 159.853 95.7922 159.666 95.8147 159.457C95.8372 159.248 96.0205 159.096 96.2331 159.12L104.632 160.021C104.842 160.043 104.992 160.23 104.97 160.439C104.949 160.634 104.785 160.78 104.593 160.78V160.778Z" fill="black"/>
<path d="M152.965 211.86C147.638 204.662 139.496 200.085 130.582 199.262C125.504 198.794 119.139 198.296 112.038 197.933C111.648 199.212 111.101 200.449 110.392 201.617C108.335 205.006 105.11 207.613 101.519 209.233C97.9267 210.853 93.9034 211.587 89.9769 211.113C86.1317 210.648 82.4715 209.01 79.8141 206.145C77.6477 203.81 75.0473 200.988 74.3817 197.928C67.9395 198.293 62.8633 198.827 56.8171 199.774C45.2781 201.583 35.3417 208.575 29.0379 218.412C15.2892 239.876 0 262.536 0 288.676C0 318.395 15.6557 315.743 71.311 315.814C132.421 315.891 140.838 315.814 140.838 315.814L152.204 315.922H161.127L184.907 315.89C184.907 315.89 171.458 236.85 152.963 211.861L152.965 211.86Z" fill="#C3D0E2"/>
<path d="M64.9745 310.98C64.4489 314.526 71.1988 314.518 71.1988 314.518H92.8367L124.174 312.811C124.174 312.811 126.738 270.903 81.9512 275.837C81.9512 275.837 68.4359 287.6 64.9745 310.982V310.98Z" fill="white"/>
<path d="M100.934 312.278C100.915 312.278 100.898 312.278 100.879 312.274C100.671 312.245 100.528 312.051 100.557 311.844C100.888 309.575 100.355 307.054 99.0583 304.744C97.969 302.805 96.3594 300.975 94.1342 299.153C93.7123 298.807 93.2576 298.451 92.751 298.23C92.5591 298.145 92.471 297.922 92.5557 297.728C92.6404 297.536 92.8634 297.447 93.0571 297.533C93.6536 297.794 94.155 298.185 94.6166 298.565C96.9161 300.45 98.5863 302.35 99.7222 304.373C101.1 306.828 101.666 309.522 101.309 311.954C101.282 312.143 101.119 312.279 100.934 312.279V312.278Z" fill="black"/>
<path d="M111.171 311.689C110.984 311.689 110.822 311.553 110.794 311.363C110.41 308.657 109.86 305.491 108.678 302.528C107.457 299.469 105.668 296.972 103.5 295.307C103.334 295.18 103.302 294.941 103.43 294.775C103.558 294.609 103.797 294.578 103.963 294.706C106.238 296.454 108.112 299.063 109.383 302.247C110.595 305.285 111.157 308.506 111.546 311.257C111.576 311.465 111.43 311.658 111.223 311.688C111.204 311.691 111.187 311.691 111.169 311.691L111.171 311.689Z" fill="black"/>
<path d="M119.375 311.689C119.359 311.689 119.345 311.689 119.33 311.687C119.12 311.663 118.972 311.473 118.998 311.266C120.374 299.728 112.818 292.529 112.742 292.456C112.588 292.313 112.58 292.072 112.723 291.919C112.865 291.766 113.107 291.756 113.261 291.899C113.341 291.974 121.176 299.422 119.753 311.354C119.731 311.547 119.567 311.689 119.376 311.689H119.375Z" fill="black"/>
<path d="M27.9664 276.958C27.7589 276.958 27.5894 276.792 27.586 276.584C27.5825 276.375 27.7485 276.201 27.9594 276.197L79.6225 275.217C79.8439 275.213 80.0064 275.379 80.0098 275.59C80.0133 275.799 79.8473 275.974 79.6364 275.978L27.9733 276.958H27.9664Z" fill="black"/>
<path d="M44.6498 276.269C44.6135 276.269 44.5772 276.263 44.5409 276.253C44.3403 276.193 44.2262 275.98 44.285 275.779C45.9569 270.21 49.1295 261.564 52.5702 255.519C53.2393 254.344 54.306 252.77 55.9468 252.841C56.156 252.848 56.3203 253.023 56.3134 253.234C56.3064 253.443 56.137 253.623 55.9209 253.6C54.7158 253.569 53.8029 254.892 53.2306 255.896C49.8211 261.885 46.6727 270.47 45.0129 275.999C44.9627 276.163 44.8123 276.27 44.6481 276.27L44.6498 276.269Z" fill="black"/>
<path d="M184.379 310.977C184.905 314.524 178.155 314.515 178.155 314.515H156.517L125.179 312.808C125.179 312.808 122.615 270.9 167.402 275.835C167.402 275.835 180.918 287.597 184.379 310.979V310.977Z" fill="white"/>
<path d="M148.42 312.275C148.235 312.275 148.072 312.138 148.045 311.95C147.69 309.517 148.254 306.825 149.632 304.368C150.768 302.345 152.438 300.445 154.738 298.561C155.201 298.182 155.702 297.789 156.299 297.528C156.492 297.444 156.716 297.532 156.8 297.724C156.885 297.916 156.797 298.14 156.605 298.225C156.097 298.446 155.644 298.803 155.222 299.148C152.997 300.972 151.385 302.802 150.298 304.74C149.001 307.05 148.468 309.572 148.799 311.839C148.83 312.046 148.685 312.24 148.477 312.269C148.458 312.273 148.441 312.273 148.422 312.273L148.42 312.275Z" fill="black"/>
<path d="M138.178 311.687C138.16 311.687 138.141 311.687 138.124 311.683C137.916 311.654 137.771 311.462 137.801 311.253C138.191 308.5 138.752 305.279 139.964 302.243C141.234 299.058 143.109 296.449 145.384 294.701C145.552 294.573 145.79 294.606 145.916 294.771C146.044 294.937 146.013 295.175 145.847 295.303C143.679 296.968 141.89 299.465 140.669 302.523C139.488 305.485 138.937 308.651 138.553 311.358C138.525 311.548 138.363 311.685 138.176 311.685L138.178 311.687Z" fill="black"/>
<path d="M129.979 311.687C129.789 311.687 129.625 311.545 129.602 311.351C128.179 299.42 136.015 291.97 136.095 291.897C136.249 291.754 136.489 291.762 136.632 291.916C136.776 292.07 136.767 292.31 136.613 292.454C136.537 292.525 128.982 299.726 130.358 311.263C130.382 311.471 130.233 311.661 130.026 311.685C130.01 311.687 129.995 311.687 129.981 311.687H129.979Z" fill="black"/>
<path d="M221.387 276.956H221.38L169.717 275.976C169.506 275.972 169.34 275.798 169.344 275.588C169.347 275.379 169.534 275.208 169.731 275.215L221.394 276.195C221.605 276.199 221.771 276.373 221.768 276.583C221.764 276.79 221.595 276.956 221.387 276.956Z" fill="black"/>
<path d="M204.705 276.268C204.54 276.268 204.39 276.162 204.34 275.996C202.68 270.465 199.532 261.883 196.122 255.894C195.558 254.903 194.677 253.598 193.485 253.598C193.463 253.598 193.442 253.598 193.42 253.598C193.216 253.598 193.046 253.435 193.039 253.229C193.032 253.018 193.197 252.844 193.406 252.837C193.433 252.837 193.461 252.837 193.487 252.837C195.071 252.837 196.124 254.362 196.782 255.517C200.223 261.561 203.397 270.21 205.068 275.777C205.128 275.977 205.014 276.19 204.812 276.251C204.775 276.261 204.739 276.266 204.703 276.266L204.705 276.268Z" fill="black"/>
<path d="M163.03 315.741H42.7612C41.8847 315.741 41.1758 315.03 41.1758 314.153V314.197C41.1758 313.32 41.8864 312.609 42.7612 312.609H163.03C163.906 312.609 164.615 313.32 164.615 314.197V314.153C164.615 315.03 163.904 315.741 163.03 315.741Z" fill="white"/>
<path d="M163.03 316.118H42.1147C41.9038 316.118 41.7344 315.949 41.7344 315.738C41.7344 315.527 41.9038 315.358 42.1147 315.358H163.03C163.687 315.358 164.224 314.829 164.235 314.173C164.224 313.518 163.687 312.987 163.03 312.987H59.9645C59.7536 312.987 59.5842 312.818 59.5842 312.607C59.5842 312.396 59.7536 312.227 59.9645 312.227H163.03C164.088 312.227 164.954 313.069 164.994 314.118C164.994 314.128 164.994 314.141 164.994 314.151V314.194C164.994 314.204 164.994 314.217 164.994 314.227C164.954 315.276 164.088 316.118 163.03 316.118Z" fill="black"/>
<path d="M160.692 310.569H149.5V312.488H160.692V310.569Z" fill="black"/>
<path d="M145.774 310.569H134.582V312.488H145.774V310.569Z" fill="black"/>
<path d="M130.848 310.569H119.656V312.488H130.848V310.569Z" fill="black"/>
<path d="M115.926 310.569H104.734V312.488H115.926V310.569Z" fill="black"/>
<path d="M101 310.569H89.8086V312.488H101V310.569Z" fill="black"/>
<path d="M86.0783 310.569H74.8867V312.488H86.0783V310.569Z" fill="black"/>
<path d="M71.1525 310.569H59.9609V312.488H71.1525V310.569Z" fill="black"/>
<path d="M56.2345 310.569H45.043V312.488H56.2345V310.569Z" fill="black"/>
<path d="M198.898 279.353V305.5C198.898 309.059 196.993 312.344 193.905 314.111L190.601 316H160.918L165.688 313.874C169.264 312.28 171.567 308.73 171.567 304.814V279.352H198.898V279.353Z" fill="black"/>
<path d="M124.776 202.827H243.931C248.11 202.827 251.504 206.221 251.504 210.4V272.356C251.504 276.535 248.11 279.928 243.931 279.928H124.776C120.597 279.928 117.203 276.535 117.203 272.356V210.4C117.203 206.221 120.597 202.827 124.776 202.827Z" fill="black"/>
<path d="M202.279 279.403H179.294C179.083 279.403 178.914 279.234 178.914 279.023C178.914 278.812 179.083 278.643 179.294 278.643H202.279C202.49 278.643 202.66 278.812 202.66 279.023C202.66 279.234 202.49 279.403 202.279 279.403Z" fill="white"/>
<path d="M124.107 274.605C123.896 274.605 123.727 274.436 123.727 274.225V208.533C123.727 208.322 123.896 208.152 124.107 208.152C124.318 208.152 124.487 208.322 124.487 208.533V274.225C124.487 274.436 124.318 274.605 124.107 274.605Z" fill="white"/>
<path d="M244.599 255.552H222.966C222.755 255.552 222.586 255.382 222.586 255.171C222.586 254.96 222.755 254.791 222.966 254.791H244.599C244.81 254.791 244.979 254.96 244.979 255.171C244.979 255.382 244.81 255.552 244.599 255.552Z" fill="white"/>
<path d="M244.599 258.882H222.966C222.755 258.882 222.586 258.712 222.586 258.501C222.586 258.291 222.755 258.121 222.966 258.121H244.599C244.81 258.121 244.979 258.291 244.979 258.501C244.979 258.712 244.81 258.882 244.599 258.882Z" fill="white"/>
<path d="M244.599 262.214H222.966C222.755 262.214 222.586 262.044 222.586 261.834C222.586 261.623 222.755 261.453 222.966 261.453H244.599C244.81 261.453 244.979 261.623 244.979 261.834C244.979 262.044 244.81 262.214 244.599 262.214Z" fill="white"/>
<path d="M244.599 265.543H222.966C222.755 265.543 222.586 265.374 222.586 265.163C222.586 264.952 222.755 264.782 222.966 264.782H244.599C244.81 264.782 244.979 264.952 244.979 265.163C244.979 265.374 244.81 265.543 244.599 265.543Z" fill="white"/>
</svg>
