<svg width="70" height="70" viewBox="0 0 70 70" fill="none" xmlns="http://www.w3.org/2000/svg">
<path d="M24.0625 2.1875H45.9375C46.5434 2.1875 47.0312 2.67531 47.0312 3.28125V9.84375C47.0312 10.4497 46.5434 10.9375 45.9375 10.9375H24.0625C23.4565 10.9375 22.9688 10.4497 22.9688 9.84375V3.28125C22.9688 2.67531 23.4565 2.1875 24.0625 2.1875Z" fill="#549AD4"/>
<path d="M35.0003 5.46582C33.5416 5.46582 33.5416 7.65386 35.0003 7.65386H41.5628C43.0214 7.65386 43.0214 5.46582 41.5628 5.46582H35.0003Z" fill="#E4EFF8"/>
<path d="M31.7187 10.9375H24.0625C23.4565 10.9375 22.9688 10.4497 22.9688 9.84375V3.28125C22.9688 2.67531 23.4565 2.1875 24.0625 2.1875H31.7187V10.9375Z" fill="#E4EFF8"/>
<path d="M28.4375 6.5625C28.4375 7.16656 27.9478 7.65625 27.3437 7.65625C26.7397 7.65625 26.25 7.16656 26.25 6.5625C26.25 5.95844 26.7397 5.46875 27.3437 5.46875C27.9478 5.46875 28.4375 5.95844 28.4375 6.5625Z" fill="#549AD4"/>
<path d="M44.8437 2.1875V7.65625C44.8437 8.26218 44.3559 8.75 43.75 8.75H22.9688V9.84375C22.9688 10.4497 23.4565 10.9375 24.0625 10.9375H45.9375C46.5434 10.9375 47.0312 10.4497 47.0312 9.84375V3.28125C47.0312 2.67531 46.5434 2.1875 45.9375 2.1875H44.8437Z" fill="#3588CB"/>
<path d="M22.9688 8.75V9.84375C22.9688 10.4497 23.4565 10.9375 24.0625 10.9375H31.7187V8.75H22.9688Z" fill="#C4DCF0"/>
<path d="M24.0625 10.9375H45.9375C46.5434 10.9375 47.0312 11.4253 47.0312 12.0312V18.5937C47.0312 19.1997 46.5434 19.6875 45.9375 19.6875H24.0625C23.4565 19.6875 22.9688 19.1997 22.9688 18.5937V12.0312C22.9688 11.4253 23.4565 10.9375 24.0625 10.9375Z" fill="#549AD4"/>
<path d="M35.0003 14.2158C33.5416 14.2158 33.5416 16.4039 35.0003 16.4039H41.5628C43.0214 16.4039 43.0214 14.2158 41.5628 14.2158H35.0003Z" fill="#E4EFF8"/>
<path d="M31.7187 19.6875H24.0625C23.4565 19.6875 22.9688 19.1997 22.9688 18.5937V12.0312C22.9688 11.4253 23.4565 10.9375 24.0625 10.9375H31.7187V19.6875Z" fill="#E4EFF8"/>
<path d="M28.4375 15.3125C28.4375 15.9166 27.9478 16.4063 27.3437 16.4063C26.7397 16.4063 26.25 15.9166 26.25 15.3125C26.25 14.7084 26.7397 14.2188 27.3437 14.2188C27.9478 14.2188 28.4375 14.7084 28.4375 15.3125Z" fill="#549AD4"/>
<path d="M44.8437 10.9375V16.4063C44.8437 17.0122 44.3559 17.5 43.75 17.5H22.9688V18.5938C22.9688 19.1997 23.4565 19.6875 24.0625 19.6875H45.9375C46.5434 19.6875 47.0312 19.1997 47.0312 18.5938V12.0313C47.0312 11.4253 46.5434 10.9375 45.9375 10.9375H44.8437Z" fill="#3588CB"/>
<path d="M22.9688 17.5V18.5938C22.9688 19.1997 23.4565 19.6875 24.0625 19.6875H31.7187V17.5H22.9688Z" fill="#C4DCF0"/>
<path d="M44.8437 50.3125H66.7187C67.3246 50.3125 67.8125 50.8003 67.8125 51.4063V57.9688C67.8125 58.5747 67.3246 59.0625 66.7187 59.0625H44.8437C44.2378 59.0625 43.75 58.5747 43.75 57.9688V51.4063C43.75 50.8003 44.2378 50.3125 44.8437 50.3125Z" fill="#38668C"/>
<path d="M55.7815 53.5908C54.3228 53.5908 54.3228 55.7789 55.7815 55.7789H62.344C63.8027 55.7789 63.8027 53.5908 62.344 53.5908H55.7815Z" fill="#E4EFF8"/>
<path d="M52.5 59.0625H44.8437C44.2378 59.0625 43.75 58.5747 43.75 57.9688V51.4063C43.75 50.8003 44.2378 50.3125 44.8437 50.3125H52.5V59.0625Z" fill="#549AD4"/>
<path d="M49.2188 54.6875C49.2188 55.2916 48.7291 55.7812 48.125 55.7812C47.5209 55.7812 47.0312 55.2916 47.0312 54.6875C47.0312 54.0834 47.5209 53.5938 48.125 53.5938C48.7291 53.5938 49.2188 54.0834 49.2188 54.6875Z" fill="#E4EFF8"/>
<path d="M65.625 50.3125V55.7812C65.625 56.3872 65.1371 56.875 64.5312 56.875H43.75V57.9688C43.75 58.5747 44.2378 59.0625 44.8437 59.0625H66.7187C67.3246 59.0625 67.8125 58.5747 67.8125 57.9688V51.4063C67.8125 50.8003 67.3246 50.3125 66.7187 50.3125H65.625Z" fill="#2C5170"/>
<path d="M43.75 56.875V57.9687C43.75 58.5747 44.2378 59.0625 44.8437 59.0625H52.5V56.875H43.75Z" fill="#3588CB"/>
<path d="M44.8437 59.0625H66.7187C67.3246 59.0625 67.8125 59.5503 67.8125 60.1562V66.7187C67.8125 67.3247 67.3246 67.8125 66.7187 67.8125H44.8437C44.2378 67.8125 43.75 67.3247 43.75 66.7187V60.1562C43.75 59.5503 44.2378 59.0625 44.8437 59.0625Z" fill="#38668C"/>
<path d="M55.7815 62.3408C54.3228 62.3408 54.3228 64.5289 55.7815 64.5289H62.344C63.8027 64.5289 63.8027 62.3408 62.344 62.3408H55.7815Z" fill="#E4EFF8"/>
<path d="M52.5 67.8125H44.8437C44.2378 67.8125 43.75 67.3247 43.75 66.7187V60.1562C43.75 59.5503 44.2378 59.0625 44.8437 59.0625H52.5V67.8125Z" fill="#549AD4"/>
<path d="M49.2188 63.4375C49.2188 64.0416 48.7291 64.5312 48.125 64.5312C47.5209 64.5312 47.0312 64.0416 47.0312 63.4375C47.0312 62.8334 47.5209 62.3438 48.125 62.3438C48.7291 62.3438 49.2188 62.8334 49.2188 63.4375Z" fill="#E4EFF8"/>
<path d="M65.625 59.0625V64.5313C65.625 65.1372 65.1371 65.625 64.5312 65.625H43.75V66.7188C43.75 67.3247 44.2378 67.8125 44.8437 67.8125H66.7187C67.3246 67.8125 67.8125 67.3247 67.8125 66.7188V60.1563C67.8125 59.5503 67.3246 59.0625 66.7187 59.0625H65.625Z" fill="#2C5170"/>
<path d="M43.75 65.625V66.7188C43.75 67.3247 44.2378 67.8125 44.8437 67.8125H52.5V65.625H43.75Z" fill="#3588CB"/>
<path d="M3.28124 50.3125H25.1562C25.7621 50.3125 26.25 50.8003 26.25 51.4063V57.9688C26.25 58.5747 25.7621 59.0625 25.1562 59.0625H3.28124C2.6753 59.0625 2.1875 58.5747 2.1875 57.9688V51.4063C2.1875 50.8003 2.6753 50.3125 3.28124 50.3125Z" fill="#38668C"/>
<path d="M14.219 53.5908C12.7603 53.5908 12.7603 55.7789 14.219 55.7789H20.7815C22.2402 55.7789 22.2402 53.5908 20.7815 53.5908H14.219Z" fill="#E4EFF8"/>
<path d="M10.9375 59.0625H3.28124C2.6753 59.0625 2.1875 58.5747 2.1875 57.9688V51.4063C2.1875 50.8003 2.6753 50.3125 3.28124 50.3125H10.9375V59.0625Z" fill="#549AD4"/>
<path d="M7.65625 54.6875C7.65625 55.2916 7.16656 55.7812 6.5625 55.7812C5.95844 55.7812 5.46875 55.2916 5.46875 54.6875C5.46875 54.0834 5.95844 53.5938 6.5625 53.5938C7.16656 53.5938 7.65625 54.0834 7.65625 54.6875Z" fill="#E4EFF8"/>
<path d="M24.0625 50.3125V55.7812C24.0625 56.3872 23.5746 56.875 22.9687 56.875H2.1875V57.9688C2.1875 58.5747 2.6753 59.0625 3.28124 59.0625H25.1562C25.7621 59.0625 26.25 58.5747 26.25 57.9688V51.4063C26.25 50.8003 25.7621 50.3125 25.1562 50.3125H24.0625Z" fill="#2C5170"/>
<path d="M2.1875 56.875V57.9687C2.1875 58.5747 2.6753 59.0625 3.28124 59.0625H10.9375V56.875H2.1875Z" fill="#3588CB"/>
<path d="M3.28124 59.0625H25.1562C25.7621 59.0625 26.25 59.5503 26.25 60.1562V66.7187C26.25 67.3247 25.7621 67.8125 25.1562 67.8125H3.28124C2.6753 67.8125 2.1875 67.3247 2.1875 66.7187V60.1562C2.1875 59.5503 2.6753 59.0625 3.28124 59.0625Z" fill="#38668C"/>
<path d="M14.219 62.3408C12.7603 62.3408 12.7603 64.5289 14.219 64.5289H20.7815C22.2402 64.5289 22.2402 62.3408 20.7815 62.3408H14.219Z" fill="#E4EFF8"/>
<path d="M10.9375 67.8125H3.28124C2.6753 67.8125 2.1875 67.3247 2.1875 66.7187V60.1562C2.1875 59.5503 2.6753 59.0625 3.28124 59.0625H10.9375V67.8125Z" fill="#549AD4"/>
<path d="M7.65625 63.4375C7.65625 64.0416 7.16656 64.5312 6.5625 64.5312C5.95844 64.5312 5.46875 64.0416 5.46875 63.4375C5.46875 62.8334 5.95844 62.3438 6.5625 62.3438C7.16656 62.3438 7.65625 62.8334 7.65625 63.4375Z" fill="#E4EFF8"/>
<path d="M24.0625 59.0625V64.5313C24.0625 65.1372 23.5746 65.625 22.9687 65.625H2.1875V66.7188C2.1875 67.3247 2.6753 67.8125 3.28124 67.8125H25.1562C25.7621 67.8125 26.25 67.3247 26.25 66.7188V60.1563C26.25 59.5503 25.7621 59.0625 25.1562 59.0625H24.0625Z" fill="#2C5170"/>
<path d="M2.1875 65.625V66.7188C2.1875 67.3247 2.6753 67.8125 3.28124 67.8125H10.9375V65.625H2.1875Z" fill="#3588CB"/>
<path d="M49.3913 11.566C49.066 12.0745 49.214 12.7505 49.7225 13.0763C57.2959 17.9379 62.3198 26.4198 62.3198 36.0942C62.3198 39.0523 61.8458 41.899 60.9783 44.5643C60.7889 45.1402 61.1043 45.7601 61.6811 45.9464C62.2563 46.1341 62.8747 45.8191 63.0611 45.2437C63.9986 42.3633 64.5073 39.2837 64.5073 36.0942C64.5073 25.6628 59.0803 16.4849 50.9017 11.2349C50.7198 11.1179 50.5069 11.0579 50.2576 11.0639C49.8839 11.095 49.5758 11.2786 49.3913 11.566Z" fill="#E4EFF8"/>
<path d="M19.2726 20.8019L14.7267 21.7312C14.1364 21.8502 13.7535 22.4242 13.8701 23.015C13.99 23.6085 14.5694 23.9915 15.1625 23.8695L17.1236 23.4723L16.7689 24.0085C12.5683 30.3469 11.9587 38.4201 15.1624 45.3152C15.4167 45.8633 16.0671 46.1015 16.6151 45.8472C17.164 45.5937 17.4032 44.9431 17.1491 44.3945C14.2646 38.1863 14.8109 30.9247 18.5932 25.2175L18.9413 24.6899L19.3365 26.6403C19.4564 27.2337 20.0359 27.6168 20.6289 27.4948C21.2214 27.3749 21.6041 26.7968 21.4834 26.2045L20.5691 21.6906C20.4869 21.2555 20.2409 21.0859 20.1225 20.9814C19.946 20.8565 19.7364 20.7867 19.5201 20.7808C19.4326 20.7729 19.3524 20.7977 19.2726 20.8019Z" fill="#549AD4"/>
<path d="M50.3485 20.9887C50.0691 20.9805 49.7976 21.0834 49.5902 21.2707C49.1421 21.6803 49.1133 22.3764 49.5261 22.8216C53.8415 27.5447 55.5936 34.067 54.2236 40.3173L54.0847 40.9454L53.006 39.2599C52.8104 38.9511 52.4739 38.7605 52.1088 38.7514C51.8913 38.7483 51.6778 38.8101 51.4957 38.9288C50.9874 39.2545 50.8392 39.9305 51.1645 40.4391L53.6233 44.2779C53.8387 44.6685 54.1329 44.7536 54.292 44.8077C54.6024 44.9106 54.9697 44.8107 55.1764 44.6774L59.0856 42.1738C59.5926 41.8481 59.7407 41.1737 59.4168 40.6656C59.091 40.1573 58.415 40.0091 57.9065 40.3345L56.2167 41.4154L56.3556 40.7853C57.8772 33.8429 55.9345 26.5897 51.1411 21.3434C50.9373 21.121 50.6503 20.9925 50.3485 20.9887Z" fill="#549AD4"/>
<path d="M33.2552 24.0645C32.7119 24.0642 32.2507 24.4626 32.1721 25.0002L31.8707 26.9484C31.2421 27.1415 30.5308 27.4339 29.9481 27.7388L28.378 26.5682C27.9435 26.2478 27.3402 26.2921 26.9574 26.6728L24.4858 29.1423C24.1001 29.5263 24.0557 30.1353 24.3812 30.5714L25.5476 32.1501C25.2053 32.7633 24.9437 33.4426 24.7486 34.0684L22.8068 34.359C22.27 34.4376 21.8718 34.8975 21.8711 35.44V38.937C21.8718 39.4794 22.27 39.9395 22.8068 40.0179L24.7507 40.3106C24.9442 40.9396 25.2315 41.6545 25.5369 42.2374L24.3727 43.814C24.0527 44.249 24.0982 44.8523 24.4793 45.2346L26.9488 47.704C27.3324 48.0901 27.9413 48.1357 28.378 47.8107L29.9588 46.6443C30.5426 46.9523 31.2466 47.2432 31.8771 47.439L32.1656 49.3851C32.2479 49.9185 32.7069 50.3122 33.2466 50.3122H36.7436C37.2833 50.3122 37.7423 49.9183 37.8245 49.3851L38.1213 47.4326C38.7587 47.252 39.4591 46.9471 40.0418 46.6422L41.6183 47.8107C42.0537 48.1319 42.6585 48.0864 43.0411 47.704L45.5106 45.2346C45.8913 44.8518 45.9357 44.2485 45.6151 43.814L44.4488 42.2204C44.7795 41.6378 45.0497 40.9375 45.2456 40.3084L47.1896 40.0178C47.7272 39.9401 48.1265 39.4801 48.1273 38.9369V35.4399C48.1265 34.8967 47.7272 34.4365 47.1896 34.359L45.237 34.0683C45.044 33.4429 44.7754 32.7415 44.453 32.15L45.6151 30.5714C45.9405 30.1352 45.8958 29.5262 45.5106 29.1422L43.0411 26.6727C42.6579 26.2907 42.0532 26.2463 41.6183 26.5681L40.0333 27.7431C39.4514 27.4355 38.7896 27.1337 38.1171 26.9484L37.8244 25.0002C37.7459 24.4634 37.286 24.0652 36.7435 24.0645L33.2552 24.0645Z" fill="#E4EFF8"/>
<path d="M34.9986 31.7188C31.9909 31.7188 29.5254 34.1867 29.5254 37.1941C29.5254 40.2014 31.9909 42.6588 34.9986 42.6588C38.0063 42.6588 40.4654 40.2014 40.4654 37.1941C40.4654 34.1867 38.0063 31.7188 34.9986 31.7188Z" fill="#38668C"/>
<path d="M28.4523 63.7961C28.3361 64.3889 28.7222 64.9638 29.3153 65.0799C31.1559 65.4387 33.0561 65.6204 34.9998 65.6204C36.9435 65.6204 38.8438 65.4389 40.6843 65.0799C41.2772 64.9637 41.6636 64.3889 41.5473 63.7961C41.4312 63.2041 40.8577 62.818 40.2656 62.933C38.562 63.2654 36.8026 63.4329 34.9998 63.4329C33.197 63.4329 31.4397 63.2655 29.7361 62.933C29.6778 62.9206 29.6183 62.9123 29.5588 62.9078C29.0218 62.8908 28.5528 63.2682 28.4523 63.7961Z" fill="#E4EFF8"/>
<path d="M19.095 11.2351C10.9163 16.4851 5.5 25.663 5.5 36.0944C5.5 39.284 6.00656 42.3635 6.94412 45.2439C7.13056 45.8206 7.75039 46.1359 8.32624 45.9467C8.90217 45.7594 9.2163 45.1398 9.02692 44.5646C8.15939 41.8992 7.68751 39.0525 7.68751 36.0944C7.68751 26.42 12.7092 17.9381 20.2827 13.0765C20.788 12.7479 20.9323 12.0725 20.6052 11.5662C20.41 11.2582 20.0745 11.0675 19.7102 11.0578C19.492 11.0541 19.2778 11.116 19.095 11.2351Z" fill="#E4EFF8"/>
<path d="M49.7598 11.2155C49.7738 11.2238 49.7908 11.2259 49.8046 11.2348C57.9833 16.4848 63.4103 25.6627 63.4103 36.0941C63.4103 39.2836 62.9016 42.3632 61.964 45.2435C61.8796 45.5042 61.6988 45.7019 61.4813 45.8331C61.5478 45.872 61.6058 45.9217 61.6821 45.9464C62.2573 46.1341 62.8757 45.819 63.0621 45.2435C63.9996 42.3632 64.5083 39.2836 64.5083 36.0941C64.5083 25.6627 59.0813 16.4849 50.9027 11.2348C50.7208 11.1178 50.5079 11.058 50.2586 11.0639C50.0591 11.0802 49.9 11.1336 49.7598 11.2155Z" fill="#C4DCF0"/>
<path d="M19.7122 11.0568C19.4939 11.0532 19.2797 11.115 19.0969 11.2341C10.9182 16.4841 5.50195 25.662 5.50195 36.0934C5.50195 39.283 6.00849 42.3625 6.94605 45.2429C7.13248 45.8196 7.75234 46.1349 8.32819 45.9457C8.40461 45.9209 8.46235 45.8715 8.52899 45.8325C8.31108 45.7011 8.13065 45.5041 8.0462 45.2429C7.10865 42.3625 6.60211 39.283 6.60211 36.0934C6.60211 25.662 12.0184 16.4841 20.1971 11.2341C20.2108 11.2251 20.2278 11.2232 20.2419 11.2149C20.0831 11.1199 19.9027 11.0618 19.7122 11.0568Z" fill="#C4DCF0"/>
<path d="M19.5198 20.7809C19.4322 20.7726 19.354 20.7982 19.2742 20.8023L18.8555 20.8878C18.9188 20.9164 18.9841 20.9413 19.0413 20.9818C19.1597 21.0863 19.4055 21.2559 19.4878 21.691L20.4021 26.2049C20.4987 26.679 20.266 27.1324 19.868 27.3606C20.0918 27.4896 20.3577 27.5513 20.6307 27.4951C21.2231 27.3753 21.6058 26.7972 21.4852 26.2049L20.5709 21.691C20.4886 21.2559 20.2406 21.0863 20.1223 20.9818C19.9457 20.8569 19.7362 20.7871 19.5198 20.7809Z" fill="#3588CB"/>
<path d="M18.9723 24.7289L18.7947 23.4922C18.3529 24.0649 17.9427 24.6583 17.5387 25.2574C13.7505 30.9735 13.2033 38.2465 16.0924 44.4645C16.3313 44.9806 16.1234 45.5753 15.6431 45.8574C15.9412 46.0287 16.3066 46.0752 16.6423 45.9194C17.192 45.6656 17.4316 45.014 17.1772 44.4645C14.415 38.5196 14.8015 31.6143 18.1496 26.0169L18.9723 24.7289Z" fill="#3588CB"/>
<path d="M50.4256 21.0209C50.2255 21.0149 50.0386 21.0832 49.8672 21.1813C49.9637 21.2368 50.0602 21.2924 50.1368 21.376C54.9377 26.6305 56.8836 33.8952 55.3595 40.8485C55.2525 41.3572 55.1292 41.8621 55.0086 42.3676L56.3031 41.4797L56.4743 40.6773C57.9295 33.7761 55.9811 26.5875 51.2194 21.376C51.0153 21.1533 50.7279 21.0246 50.4256 21.0209Z" fill="#3588CB"/>
<path d="M52.1082 38.7511C51.9119 38.7482 51.7224 38.8057 51.5527 38.9028C51.7008 38.9897 51.8297 39.1099 51.9245 39.2595L53.8245 42.2269L53.9634 41.5988C54.011 41.3815 54.045 41.163 54.0852 40.9451L53.0054 39.2595C52.8098 38.9507 52.4733 38.7601 52.1082 38.7511Z" fill="#3588CB"/>
<path d="M54.0942 44.6765C54.081 44.6848 54.0574 44.6877 54.043 44.6959C54.1355 44.7445 54.2275 44.7855 54.2908 44.807C54.6012 44.9099 54.9685 44.81 55.1752 44.6767L59.0845 42.173C59.5915 41.8473 59.7395 41.173 59.4156 40.6649C59.1713 40.2836 58.7311 40.106 58.3112 40.1777C58.1866 40.1989 58.0652 40.2499 57.9501 40.3164C58.0995 40.4012 58.2355 40.51 58.3346 40.6647C58.6586 41.1727 58.5105 41.8471 58.0035 42.1728L54.0942 44.6765Z" fill="#3588CB"/>
<path d="M41.6181 26.568L40.033 27.7429C39.7557 27.5963 39.4591 27.454 39.1529 27.3221C41.3074 29.4161 42.6563 32.3365 42.6563 35.5572C42.6563 41.8712 37.493 47.0309 31.1783 47.0309C31.0297 47.0309 30.8856 47.0131 30.7383 47.0074C31.1195 47.1718 31.5072 47.324 31.8769 47.4389L32.1653 49.385C32.2475 49.9184 32.7065 50.3121 33.2462 50.3121H36.7432C37.2829 50.3121 37.7419 49.9181 37.8242 49.385L38.1211 47.4325C38.7584 47.2518 39.4589 46.947 40.0416 46.6421L41.6181 47.8106C42.0535 48.1318 42.6582 48.0861 43.0408 47.7038L45.5103 45.2343C45.891 44.8515 45.9355 44.2481 45.615 43.8137L44.4486 42.2201C44.7793 41.6375 45.0496 40.9373 45.2454 40.3082L47.1894 40.0177C47.727 39.94 48.1264 39.4799 48.1272 38.9367V35.4397C48.1264 34.8965 47.727 34.4363 47.1894 34.3588L45.2369 34.0683C45.0438 33.4428 44.7752 32.7414 44.4529 32.1499L45.615 30.5713C45.9403 30.1351 45.8956 29.5262 45.5103 29.1421L43.0408 26.6726C42.8492 26.4817 42.6021 26.3751 42.3487 26.3565C42.0953 26.3378 41.8356 26.4071 41.6181 26.568Z" fill="#C4DCF0"/>
<path d="M34.9984 31.7188C31.9908 31.7188 29.5254 34.1866 29.5254 37.1939C29.5254 39.2574 30.7006 41.0389 32.4008 41.9684C31.9777 41.1941 31.7129 40.3214 31.7129 39.3814C31.7129 36.3741 34.1783 33.9063 37.1859 33.9063C38.127 33.9063 39.002 34.17 39.7772 34.5941C38.8471 32.8935 37.0619 31.7188 34.9984 31.7188Z" fill="#2C5170"/>
<path d="M33.9003 65.0313C32.0878 65.0313 30.3156 64.8672 28.5918 64.5549C28.7449 64.8157 28.9936 65.0177 29.3138 65.0804C31.1544 65.4392 33.0546 65.6209 34.9984 65.6209C36.9421 65.6209 38.8423 65.4394 40.6829 65.0804C41.2757 64.9643 41.6622 64.3894 41.5459 63.7965C41.4346 63.2293 40.902 62.8629 40.3368 62.9335C40.3808 63.0208 40.4281 63.1063 40.4479 63.2069C40.5642 63.7998 40.1777 64.3747 39.5848 64.4908C37.7443 64.8498 35.8441 65.0313 33.9003 65.0313Z" fill="#C4DCF0"/>
</svg>
