<svg width="32" height="32" viewBox="0 0 32 32" fill="none" xmlns="http://www.w3.org/2000/svg">
<path d="M24.5 1.5H3.5C2.39543 1.5 1.5 2.39543 1.5 3.5V23.5C1.5 24.6046 2.39543 25.5 3.5 25.5H24.5C25.6046 25.5 26.5 24.6046 26.5 23.5V3.5C26.5 2.39543 25.6046 1.5 24.5 1.5Z" fill="#EEEEEE"/>
<path d="M26.4975 3.5V23.5C26.4976 23.7627 26.4459 24.0228 26.3454 24.2655C26.2449 24.5081 26.0976 24.7286 25.9119 24.9144C25.7261 25.1001 25.5056 25.2474 25.263 25.3479C25.0203 25.4484 24.7602 25.5001 24.4975 25.5H3.4975C3.05418 25.5004 2.62335 25.3532 2.27297 25.0816C1.9226 24.81 1.67263 24.4294 1.5625 24H21.9975C22.2602 24.0001 22.5203 23.9484 22.763 23.8479C23.0056 23.7474 23.2261 23.6001 23.4119 23.4144C23.5976 23.2286 23.7449 23.0081 23.8454 22.7655C23.9459 22.5228 23.9976 22.2627 23.9975 22V2C23.999 1.83113 23.9772 1.66287 23.9325 1.5H24.4975C24.7602 1.49993 25.0203 1.55161 25.263 1.65209C25.5056 1.75258 25.7261 1.89989 25.9119 2.08563C26.0976 2.27136 26.2449 2.49186 26.3454 2.73455C26.4459 2.97723 26.4976 3.23734 26.4975 3.5Z" fill="#E0E0E0"/>
<path d="M26.5 3.5V6.5H1.5V3.5C1.49993 3.23734 1.55161 2.97723 1.65209 2.73455C1.75258 2.49186 1.89989 2.27136 2.08563 2.08563C2.27136 1.89989 2.49186 1.75258 2.73455 1.65209C2.97723 1.55161 3.23734 1.49993 3.5 1.5H24.5C24.7627 1.49993 25.0228 1.55161 25.2655 1.65209C25.5081 1.75258 25.7286 1.89989 25.9144 2.08563C26.1001 2.27136 26.2474 2.49186 26.3479 2.73455C26.4484 2.97723 26.5001 3.23734 26.5 3.5Z" fill="#A082EC"/>
<path d="M23.5 4.5H16C15.8674 4.5 15.7402 4.44732 15.6464 4.35355C15.5527 4.25979 15.5 4.13261 15.5 4C15.5 3.86739 15.5527 3.74021 15.6464 3.64645C15.7402 3.55268 15.8674 3.5 16 3.5H23.5C23.6326 3.5 23.7598 3.55268 23.8536 3.64645C23.9473 3.74021 24 3.86739 24 4C24 4.13261 23.9473 4.25979 23.8536 4.35355C23.7598 4.44732 23.6326 4.5 23.5 4.5Z" fill="#EEEEEE"/>
<path d="M4.5 3.5C4.40111 3.5 4.30444 3.52932 4.22221 3.58427C4.13999 3.63921 4.0759 3.7173 4.03806 3.80866C4.00022 3.90002 3.99031 4.00055 4.00961 4.09755C4.0289 4.19454 4.07652 4.28363 4.14645 4.35355C4.21637 4.42348 4.30546 4.4711 4.40246 4.49039C4.49945 4.50969 4.59998 4.49978 4.69134 4.46194C4.78271 4.4241 4.86079 4.36001 4.91574 4.27779C4.97068 4.19556 5 4.09889 5 4C5 3.86739 4.94732 3.74021 4.85355 3.64645C4.75979 3.55268 4.63261 3.5 4.5 3.5ZM7.5 4C7.5 4.09889 7.47068 4.19556 7.41574 4.27779C7.36079 4.36001 7.28271 4.4241 7.19134 4.46194C7.09998 4.49978 6.99945 4.50969 6.90246 4.49039C6.80546 4.4711 6.71637 4.42348 6.64645 4.35355C6.57652 4.28363 6.5289 4.19454 6.50961 4.09755C6.49031 4.00055 6.50022 3.90002 6.53806 3.80866C6.5759 3.7173 6.63999 3.63921 6.72221 3.58427C6.80444 3.52932 6.90111 3.5 7 3.5C7.13261 3.5 7.25979 3.55268 7.35355 3.64645C7.44732 3.74021 7.5 3.86739 7.5 4ZM10 4C10 4.09889 9.97068 4.19556 9.91574 4.27779C9.8608 4.36001 9.7827 4.4241 9.69134 4.46194C9.59998 4.49978 9.49945 4.50969 9.40245 4.49039C9.30546 4.4711 9.21637 4.42348 9.14645 4.35355C9.07652 4.28363 9.0289 4.19454 9.00961 4.09755C8.99031 4.00055 9.00022 3.90002 9.03806 3.80866C9.0759 3.7173 9.13999 3.63921 9.22222 3.58427C9.30444 3.52932 9.40111 3.5 9.5 3.5C9.63261 3.5 9.75979 3.55268 9.85355 3.64645C9.94732 3.74021 10 3.86739 10 4Z" fill="#EEEEEE"/>
<path d="M30.5 23.6614V22.3385C30.5 22.2386 30.4701 22.1409 30.414 22.0582C30.358 21.9754 30.2785 21.9114 30.1857 21.8743L28.7521 21.3008C28.6334 20.8948 28.4719 20.5026 28.2703 20.1308L28.8771 18.715C28.9164 18.6232 28.9274 18.5216 28.9085 18.4235C28.8896 18.3254 28.8417 18.2352 28.771 18.1645L27.8356 17.229C27.7649 17.1583 27.6747 17.1105 27.5766 17.0916C27.4784 17.0727 27.3769 17.0836 27.285 17.123L25.8692 17.73C25.4974 17.5283 25.1051 17.3668 24.6992 17.2481L24.1257 15.8146C24.0886 15.7217 24.0246 15.6421 23.9418 15.5861C23.8591 15.53 23.7615 15.5 23.6615 15.5H22.3385C22.2386 15.5 22.1409 15.53 22.0582 15.586C21.9755 15.642 21.9114 15.7215 21.8743 15.8143L21.3008 17.2479C20.8949 17.3665 20.5027 17.5281 20.1308 17.7297L18.715 17.1229C18.6232 17.0836 18.5216 17.0726 18.4235 17.0915C18.3254 17.1104 18.2352 17.1583 18.1645 17.229L17.229 18.1644C17.1583 18.2351 17.1105 18.3253 17.0916 18.4234C17.0727 18.5216 17.0836 18.6231 17.123 18.715L17.73 20.1308C17.5283 20.5027 17.3668 20.8949 17.2481 21.3008L15.8146 21.8743C15.7217 21.9114 15.6421 21.9754 15.5861 22.0582C15.53 22.1409 15.5 22.2385 15.5 22.3385V23.6615C15.5 23.7614 15.53 23.8591 15.586 23.9418C15.642 24.0245 15.7215 24.0886 15.8143 24.1257L17.2479 24.6992C17.3665 25.1051 17.5281 25.4974 17.7297 25.8692L17.1229 27.285C17.0836 27.3768 17.0726 27.4784 17.0915 27.5765C17.1104 27.6746 17.1583 27.7648 17.229 27.8355L18.1644 28.771C18.2351 28.8417 18.3253 28.8895 18.4234 28.9084C18.5216 28.9273 18.6231 28.9164 18.715 28.877L20.1308 28.2702C20.5027 28.4719 20.8949 28.6334 21.3008 28.7521L21.8743 30.1856C21.9114 30.2784 21.9755 30.358 22.0582 30.414C22.1409 30.47 22.2386 30.5 22.3385 30.5H23.6615C23.7614 30.5 23.8591 30.47 23.9418 30.414C24.0245 30.358 24.0886 30.2785 24.1257 30.1857L24.6992 28.7521C25.1051 28.6334 25.4973 28.4719 25.8692 28.2703L27.285 28.8771C27.3768 28.9164 27.4784 28.9274 27.5765 28.9085C27.6746 28.8896 27.7648 28.8417 27.8355 28.771L28.771 27.8356C28.8417 27.7649 28.8895 27.6747 28.9084 27.5766C28.9273 27.4784 28.9164 27.3769 28.877 27.285L28.2702 25.8692C28.4719 25.4973 28.6334 25.1051 28.7521 24.6992L30.1856 24.1257C30.2784 24.0886 30.358 24.0245 30.414 23.9418C30.4701 23.859 30.5 23.7614 30.5 23.6614Z" fill="#FFB74D"/>
<path d="M30.4984 22.34V23.66C30.4985 23.7601 30.4686 23.858 30.4124 23.9409C30.3562 24.0238 30.2765 24.0879 30.1834 24.125L28.7484 24.7C28.6301 25.1058 28.4693 25.498 28.2684 25.87L28.8734 27.285C28.9142 27.3764 28.926 27.4781 28.9072 27.5765C28.8885 27.6748 28.84 27.765 28.7684 27.835L27.8334 28.77C27.7635 28.8416 27.6732 28.89 27.5749 28.9088C27.4766 28.9276 27.3749 28.9158 27.2834 28.875L25.8684 28.27C25.4965 28.4708 25.1043 28.6317 24.6984 28.75L24.1234 30.185C24.0864 30.278 24.0223 30.3578 23.9393 30.414C23.8564 30.4701 23.7586 30.5001 23.6584 30.5H22.3384C22.2383 30.5001 22.1404 30.4701 22.0575 30.414C21.9746 30.3578 21.9105 30.278 21.8734 30.185L21.3984 28.995C21.4316 28.9992 21.465 29.0008 21.4984 29C23.0897 29 24.6159 28.3679 25.7411 27.2426C26.8663 26.1174 27.4984 24.5913 27.4984 23C27.4984 21.4087 26.8663 19.8826 25.7411 18.7574C24.6159 17.6321 23.0897 17 21.4984 17C21.465 16.9992 21.4316 17.0008 21.3984 17.005L21.8734 15.815C21.9105 15.722 21.9746 15.6422 22.0575 15.586C22.1404 15.5299 22.2383 15.4999 22.3384 15.5H23.6584C23.7586 15.4999 23.8564 15.5299 23.9393 15.586C24.0223 15.6422 24.0864 15.722 24.1234 15.815L24.6984 17.25C25.1043 17.3683 25.4965 17.5292 25.8684 17.73L27.2834 17.125C27.3749 17.0842 27.4766 17.0724 27.5749 17.0912C27.6732 17.11 27.7635 17.1584 27.8334 17.23L28.7684 18.165C28.84 18.235 28.8885 18.3252 28.9072 18.4235C28.926 18.5219 28.9142 18.6236 28.8734 18.715L28.2684 20.13C28.4693 20.502 28.6301 20.8942 28.7484 21.3L30.1834 21.875C30.2765 21.9121 30.3562 21.9762 30.4124 22.0591C30.4686 22.142 30.4985 22.2399 30.4984 22.34Z" fill="#FFA726"/>
<path d="M23 26.5C24.933 26.5 26.5 24.933 26.5 23C26.5 21.067 24.933 19.5 23 19.5C21.067 19.5 19.5 21.067 19.5 23C19.5 24.933 21.067 26.5 23 26.5Z" fill="#EEEEEE"/>
<path d="M20.9976 22.9999C20.9979 22.2022 21.2707 21.4285 21.7709 20.807C22.271 20.1854 22.9684 19.7534 23.7476 19.5825C23.2362 19.4694 22.7059 19.4726 22.1959 19.5918C21.6858 19.711 21.209 19.9431 20.8006 20.2711C20.3922 20.5991 20.0627 21.0145 19.8362 21.4868C19.6097 21.9591 19.4922 22.4762 19.4922 23C19.4922 23.5238 19.6097 24.0409 19.8362 24.5132C20.0627 24.9855 20.3922 25.4009 20.8006 25.7289C21.209 26.0569 21.6858 26.289 22.1959 26.4082C22.7059 26.5274 23.2362 26.5306 23.7476 26.4175C22.9684 26.2465 22.2709 25.8145 21.7708 25.193C21.2707 24.5714 20.9979 23.7977 20.9976 22.9999Z" fill="#E0E0E0"/>
<path d="M4.32419 13.9685C4.44843 14.0146 4.5859 14.0098 4.70656 13.9549C4.82723 13.9001 4.9213 13.7997 4.96823 13.6758L5.22159 13.0002H6.77838L7.03174 13.6758C7.05479 13.7373 7.08973 13.7936 7.13456 13.8416C7.17939 13.8896 7.23323 13.9283 7.29301 13.9555C7.3528 13.9826 7.41735 13.9978 7.48298 14C7.54861 14.0022 7.61404 13.9915 7.67553 13.9685C7.73703 13.9454 7.79338 13.9105 7.84136 13.8656C7.88935 13.8208 7.92804 13.767 7.95522 13.7072C7.9824 13.6474 7.99754 13.5829 7.99977 13.5172C8.00201 13.4516 7.99129 13.3862 7.96823 13.3247L6.46823 9.32467C6.43253 9.22931 6.36856 9.14713 6.28488 9.08911C6.20121 9.03109 6.10181 9 5.99998 9C5.89816 9 5.79876 9.03109 5.71509 9.08911C5.63141 9.14713 5.56744 9.22931 5.53174 9.32467L4.03174 13.3247C3.98528 13.4488 3.98998 13.5863 4.04481 13.707C4.09964 13.8277 4.20011 13.9218 4.32419 13.9685ZM5.99998 10.9243L6.40343 12.0002H5.59653L5.99998 10.9243ZM9.49998 14.0002C9.63259 14.0002 9.75977 13.9475 9.85354 13.8538C9.94731 13.76 9.99998 13.6328 9.99998 13.5002V12.5002H10.75C11.2141 12.5002 11.6592 12.3158 11.9874 11.9877C12.3156 11.6595 12.5 11.2143 12.5 10.7502C12.5 10.2861 12.3156 9.84097 11.9874 9.51278C11.6592 9.18459 11.2141 9.00022 10.75 9.00022H9.49998C9.36738 9.00022 9.2402 9.05289 9.14643 9.14666C9.05266 9.24043 8.99998 9.36761 8.99998 9.50022V13.5002C8.99998 13.6328 9.05266 13.76 9.14643 13.8538C9.2402 13.9475 9.36738 14.0002 9.49998 14.0002ZM9.99998 10.0002H10.75C10.9489 10.0002 11.1397 10.0792 11.2803 10.2199C11.421 10.3605 11.5 10.5513 11.5 10.7502C11.5 10.9491 11.421 11.1399 11.2803 11.2805C11.1397 11.4212 10.9489 11.5002 10.75 11.5002H9.99998V10.0002ZM13.5 13.5002V9.50022C13.5 9.36761 13.5527 9.24043 13.6464 9.14666C13.7402 9.05289 13.8674 9.00022 14 9.00022C14.1326 9.00022 14.2598 9.05289 14.3535 9.14666C14.4473 9.24043 14.5 9.36761 14.5 9.50022V13.5002C14.5 13.6328 14.4473 13.76 14.3535 13.8538C14.2598 13.9475 14.1326 14.0002 14 14.0002C13.8674 14.0002 13.7402 13.9475 13.6464 13.8538C13.5527 13.76 13.5 13.6328 13.5 13.5002Z" fill="#EF5350"/>
<path d="M4 16.5C4 16.3674 4.05268 16.2402 4.14645 16.1464C4.24021 16.0527 4.36739 16 4.5 16H10.5C10.6326 16 10.7598 16.0527 10.8536 16.1464C10.9473 16.2402 11 16.3674 11 16.5C11 16.6326 10.9473 16.7598 10.8536 16.8536C10.7598 16.9473 10.6326 17 10.5 17H4.5C4.36739 17 4.24021 16.9473 4.14645 16.8536C4.05268 16.7598 4 16.6326 4 16.5ZM14 19H4.5C4.36739 19 4.24021 19.0527 4.14645 19.1464C4.05268 19.2402 4 19.3674 4 19.5C4 19.6326 4.05268 19.7598 4.14645 19.8536C4.24021 19.9473 4.36739 20 4.5 20H14C14.1326 20 14.2598 19.9473 14.3536 19.8536C14.4473 19.7598 14.5 19.6326 14.5 19.5C14.5 19.3674 14.4473 19.2402 14.3536 19.1464C14.2598 19.0527 14.1326 19 14 19ZM10.5 22H4.5C4.36739 22 4.24021 22.0527 4.14645 22.1464C4.05268 22.2402 4 22.3674 4 22.5C4 22.6326 4.05268 22.7598 4.14645 22.8536C4.24021 22.9473 4.36739 23 4.5 23H10.5C10.6326 23 10.7598 22.9473 10.8536 22.8536C10.9473 22.7598 11 22.6326 11 22.5C11 22.3674 10.9473 22.2402 10.8536 22.1464C10.7598 22.0527 10.6326 22 10.5 22ZM15.5 16H12.5C12.3674 16 12.2402 16.0527 12.1464 16.1464C12.0527 16.2402 12 16.3674 12 16.5C12 16.6326 12.0527 16.7598 12.1464 16.8536C12.2402 16.9473 12.3674 17 12.5 17H15.5C15.6326 17 15.7598 16.9473 15.8536 16.8536C15.9473 16.7598 16 16.6326 16 16.5C16 16.3674 15.9473 16.2402 15.8536 16.1464C15.7598 16.0527 15.6326 16 15.5 16Z" fill="#757575"/>
<path d="M26.5025 3.5V6.5H24.0025V2C24.004 1.83113 23.9822 1.66287 23.9375 1.5H24.5025C24.7652 1.49993 25.0253 1.55161 25.268 1.65209C25.5106 1.75258 25.7311 1.89989 25.9169 2.08563C26.1026 2.27136 26.2499 2.49186 26.3504 2.73455C26.4509 2.97723 26.5026 3.23734 26.5025 3.5Z" fill="#A082EC"/>
</svg>
