<svg width="250" height="166" viewBox="0 0 250 166" fill="none" xmlns="http://www.w3.org/2000/svg">
<path d="M221.812 73.1962C211.545 64.4386 199.168 11.6235 156.767 39.1312C134.861 53.3431 97.922 26.9303 67.3475 36.0534C39.2685 44.4317 36.5619 72.0358 39.2788 81.0306C44.7668 99.1999 27.6884 101.904 11.8453 109.71C-13.0063 121.956 5.41109 165.447 28.8886 165.653C52.366 165.859 194.414 165.653 194.414 165.653C194.414 165.653 228.56 164.873 242.743 146.049C258.005 125.793 248.331 95.817 221.812 73.1962Z" fill="#EBF2F9"/>
<path d="M82.2109 160.779C82.2109 160.779 82.5083 165.575 83.4362 165.644C83.5597 165.653 88.1424 165.653 88.1424 165.653L93.9925 165.619C93.9925 165.619 93.9542 164.21 92.2442 163.912C90.5342 163.614 87.6719 162.412 86.6361 160.152C85.5463 157.774 82.2109 160.779 82.2109 160.779Z" fill="#163560"/>
<path d="M80.1045 104.81C80.1045 104.81 82.653 105.464 84.2731 104.976C85.8932 104.488 88.6816 105.29 89.1306 105.88C89.5796 106.471 89.4147 106.706 88.6134 106.91C87.8121 107.114 84.9734 108.324 83.1077 107.624C81.242 106.923 78.8086 106.897 78.8086 106.897L80.1045 104.81Z" fill="#E49963"/>
<path d="M58.0781 82.6707C58.0781 82.6707 60.9412 103.019 65.6819 104.842C68.0211 105.741 78.3591 107.779 81.417 107.984C81.417 107.984 82.1662 107.376 81.9837 104.903C81.9837 104.903 71.1525 100.926 69.6139 98.7638C67.3238 95.5454 71.0355 85.6158 68.162 82.593C65.2883 79.5705 60.4487 78.2714 58.0781 82.6707Z" fill="#4A75CB"/>
<path d="M58.4417 161.073V156.637H51.457C51.2683 156.637 51.1142 156.483 51.1142 156.294V155.583C51.1142 155.395 51.2683 155.241 51.457 155.241H58.4417V129.986C58.4417 129.277 59.0215 128.697 59.7302 128.697H61.1124C61.8211 128.697 62.4008 129.277 62.4008 129.986V155.241H69.3856C69.5741 155.241 69.7284 155.395 69.7284 155.583V156.294C69.7284 156.483 69.5741 156.637 69.3856 156.637H62.4008V161.073C67.4546 161.456 71.5035 163.275 72.6394 165.626H48.2031C49.339 163.275 53.388 161.455 58.4417 161.073Z" fill="#A6C7F9"/>
<path d="M59.042 125.54C59.8771 126.957 60.843 128.285 61.8387 129.542C64.9157 133.426 68.2653 136.629 68.8488 139.657C68.9647 140.26 69.149 140.91 69.3897 141.595C69.6333 142.288 69.9345 143.017 70.2823 143.771C71.5881 146.608 73.5408 149.786 75.4905 152.675C78.8608 157.669 82.03 161.836 82.03 161.836L87.842 161.588C87.6092 161.006 85.0743 154.11 81.6833 145.683C80.3062 142.262 78.8419 138.624 77.4292 135.115C77.241 134.646 77.0527 134.179 76.8665 133.717C76.4346 132.643 76.0095 131.586 75.5945 130.556C72.4103 122.644 69.8742 116.343 69.8742 116.343C69.8742 116.343 57.1478 111.522 55.8262 114.646C54.7364 117.222 55.6241 119.745 59.042 125.54Z" fill="#E58638"/>
<path d="M68.7513 147.078C68.7513 147.078 64.7088 149.676 65.101 150.519C65.1532 150.632 67.3873 154.633 67.3873 154.633L70.2688 159.724C70.2688 159.724 71.481 159.004 70.9075 157.365C70.3341 155.727 69.988 152.642 71.4564 150.636C73.001 148.525 68.7513 147.078 68.7513 147.078Z" fill="#163560"/>
<path d="M74.2241 114.055C74.2241 114.055 90.1982 124.005 91.9814 130.692C93.7645 137.379 70.732 151.644 70.732 151.644C70.732 151.644 68.2058 149.415 67.76 147.78C67.76 147.78 78.171 135.307 80.4295 132.511C81.8164 130.794 59.9218 126.567 57.2472 122.406C54.5724 118.246 55.53 114.745 55.53 114.745L74.2241 114.055Z" fill="#EE9849"/>
<path d="M44.0756 126.832H76.7686C77.4224 126.832 77.9574 127.367 77.9574 128.021V134.559C77.9574 135.213 77.4224 135.748 76.7686 135.748H44.0756C43.4218 135.748 42.8867 135.213 42.8867 134.559V128.021C42.8867 127.367 43.4217 126.832 44.0756 126.832Z" fill="#1C468A"/>
<path d="M66.8352 79.1826C68.4041 80.1545 69.2686 81.388 69.2686 81.388C65.4417 82.378 59.0977 78.8317 59.0977 78.8317C59.0977 78.8317 61.5609 77.1766 62.4735 73.5398C62.5197 73.3563 62.5619 73.1682 62.5989 72.9757C62.7185 72.3632 62.7928 71.7001 62.8061 70.9844L64.5641 72.5592L67.4873 75.178C67.4873 75.178 67.421 76.2647 67.0553 78.1339C66.9917 78.4601 66.9188 78.8101 66.8352 79.1826Z" fill="#E49963"/>
<path d="M55.0634 97.2359C55.6116 104.609 54.6896 115.817 55.3114 117.759C55.8482 119.434 62.1638 118.443 64.6046 117.883C65.508 117.676 66.6023 117.381 67.7324 117.031C70.8847 116.055 74.3197 114.661 74.6882 113.626C74.7025 113.586 74.7147 113.546 74.7222 113.507C74.7562 113.357 74.7487 113.216 74.7156 113.074C74.5927 112.546 74.1193 111.975 74.0636 110.67C74.0012 109.211 74.0106 107.494 73.9558 105.648C73.953 105.44 73.9502 105.213 73.9275 105.006L73.9265 104.931C73.9255 104.891 73.9246 104.852 73.9237 104.813C73.8708 102.754 73.7631 100.589 73.6383 98.4417C73.5589 97.0933 73.4673 95.758 73.3614 94.4786C73.0864 91.1761 72.716 88.2391 72.2256 86.3822C71.4242 83.3555 69.6573 81.3815 68.0488 79.9347L66.8855 78.9369C65.5872 79.2203 64.0525 79.0323 62.6644 78.3747C61.162 77.6612 60.6432 77.1499 60.3814 77.3428C56.9118 80.0198 54.4161 88.223 55.0634 97.2359Z" fill="#739AF0"/>
<path d="M67.7141 117.047C70.8664 116.07 74.3013 114.677 74.6698 113.642C74.6841 113.601 74.6963 113.561 74.7038 113.523C74.702 113.378 74.7002 113.234 74.6972 113.089C74.5744 112.562 74.1009 111.991 74.0452 110.685C73.9828 109.227 73.9922 107.51 73.9374 105.664C73.9346 105.456 73.9318 105.229 73.909 105.022L73.9081 104.946C73.9071 104.907 73.9062 104.868 73.9053 104.828L61.9979 99.4277C61.9979 99.4277 61.3119 109.025 67.7141 117.047Z" fill="#4A75CB"/>
<path d="M67.487 75.1774C67.487 75.1774 67.4207 76.2641 67.055 78.1333C64.2006 77.211 62.9056 74.6328 62.4732 73.5392C62.3503 73.2302 62.2969 73.0393 62.2969 73.0393C62.2969 73.0393 62.4077 73.0154 62.5986 72.9751C62.9998 72.8897 63.7554 72.7295 64.5637 72.5586L67.487 75.1774Z" fill="#D68D5D"/>
<path d="M68.6438 75.1493C68.6438 75.1493 62.3727 75.8566 61.9923 71.9445C61.612 68.0323 60.5464 65.4888 64.5343 64.8717C68.5222 64.2547 69.4465 65.6718 69.8911 66.9467C70.3356 68.2217 70.2654 74.8644 68.6438 75.1493Z" fill="#E49963"/>
<path d="M62.0204 72.2142C62.0204 72.2142 62.418 67.0211 68.1265 66.4833C72.0366 66.1149 69.8566 62.7496 69.4398 62.2129C69.4398 62.2129 66.444 62.6236 63.3735 63.131C56.9284 64.1958 61.3875 71.4057 62.0204 72.2142Z" fill="#2B478B"/>
<path d="M92.3651 109.907L92.9141 110.085L97.5842 95.7102L97.0352 95.5319L92.3651 109.907Z" fill="#4A75CB"/>
<path d="M77.0689 109.74L92.9258 110.079L92.9461 109.13L77.0892 108.791L77.0689 109.74Z" fill="#4A75CB"/>
<path d="M78.7915 107.938C78.7915 107.938 81.2524 108.87 82.9165 108.564C84.5805 108.257 87.2635 109.361 87.6446 109.998C88.0257 110.634 87.836 110.85 87.0172 110.964C86.1982 111.078 83.2433 111.969 81.4663 111.067C79.6891 110.164 77.2734 109.871 77.2734 109.871L78.7915 107.938Z" fill="#E49963"/>
<path d="M59.3398 83.5061C59.3398 83.5061 59.942 104.046 64.453 106.38C66.6787 107.532 76.729 110.698 79.7457 111.238C79.7457 111.238 80.5573 110.717 80.6486 108.238C80.6486 108.238 70.3219 103.092 69.031 100.773C67.1098 97.3216 71.8936 87.8618 69.3707 84.5406C66.848 81.2196 62.181 79.3947 59.3398 83.5061Z" fill="#739AF0"/>
<path d="M116.82 132.563H198.649C204.36 132.563 208.989 127.934 208.989 122.223V10.3399C208.989 4.62926 204.36 0 198.649 0H116.82C111.11 0 106.48 4.62937 106.48 10.3399V122.223C106.48 127.934 111.11 132.563 116.82 132.563Z" fill="#D2E4FF"/>
<path d="M116.554 119.145L199.086 119.145V13.8932L116.554 13.8932L116.554 119.145Z" fill="#F3F9FF"/>
<path d="M187.382 114.525C184.977 114.525 183.027 112.575 183.027 110.17V49.9648C183.027 47.5599 184.977 45.6104 187.382 45.6104C189.787 45.6104 191.736 47.5599 191.736 49.9648V110.17C191.736 112.575 189.787 114.525 187.382 114.525Z" fill="#EE9849"/>
<path d="M173.112 114.525C170.707 114.525 168.758 112.575 168.758 110.17V30.7559C168.758 28.351 170.707 26.4014 173.112 26.4014C175.517 26.4014 177.467 28.351 177.467 30.7559V110.17C177.467 112.575 175.517 114.525 173.112 114.525Z" fill="#EE9849"/>
<path d="M157.542 114.525C155.137 114.525 153.188 112.575 153.188 110.171V66.6309C153.188 64.226 155.137 62.2764 157.542 62.2764C159.947 62.2764 161.897 64.226 161.897 66.6309V110.17C161.896 112.575 159.947 114.525 157.542 114.525Z" fill="#EE9849"/>
<path d="M142.394 114.524C139.989 114.524 138.039 112.575 138.039 110.17V42.5205C138.039 40.1156 139.989 38.166 142.394 38.166C144.799 38.166 146.748 40.1156 146.748 42.5205V110.17C146.748 112.575 144.799 114.524 142.394 114.524Z" fill="#EE9849"/>
<path d="M131.521 76.8574V110.171C131.521 112.575 129.572 114.525 127.167 114.525C124.762 114.525 122.812 112.575 122.812 110.171V76.8574C122.812 74.4525 124.762 72.5029 127.167 72.5029C129.572 72.5029 131.521 74.4525 131.521 76.8574Z" fill="#EE9849"/>
<path d="M138.451 32.7734H145.826C146.246 32.7734 146.589 33.1168 146.589 33.5365C146.589 33.9561 146.246 34.2994 145.826 34.2994H138.451C138.031 34.2994 137.688 33.9561 137.688 33.5365C137.688 33.1168 138.031 32.7734 138.451 32.7734Z" fill="#A6C7F9"/>
<path d="M144.15 35.5498H145.83C146.249 35.5498 146.592 35.8931 146.592 36.3127C146.592 36.7324 146.249 37.0757 145.83 37.0757H144.15C143.73 37.0757 143.387 36.7324 143.387 36.3127C143.387 35.8931 143.73 35.5498 144.15 35.5498Z" fill="#A6C7F9"/>
<path d="M168.845 21.0625H176.22C176.64 21.0625 176.983 21.4058 176.983 21.8254C176.983 22.2451 176.64 22.5883 176.22 22.5883H168.845C168.425 22.5883 168.082 22.2451 168.082 21.8254C168.082 21.4058 168.425 21.0625 168.845 21.0625Z" fill="#A6C7F9"/>
<path d="M174.54 23.8389H176.22C176.64 23.8389 176.983 24.1821 176.983 24.6018C176.983 25.0214 176.64 25.3647 176.22 25.3647H174.54C174.121 25.3647 173.777 25.0214 173.777 24.6018C173.777 24.1821 174.121 23.8389 174.54 23.8389Z" fill="#A6C7F9"/>
<path d="M183.595 40.2588H190.97C191.39 40.2588 191.733 40.6022 191.733 41.0218C191.733 41.4415 191.39 41.7847 190.97 41.7847H183.595C183.175 41.7847 182.832 41.4415 182.832 41.0218C182.832 40.6022 183.175 40.2588 183.595 40.2588Z" fill="#A6C7F9"/>
<path d="M189.29 43.0352H190.97C191.39 43.0352 191.733 43.3784 191.733 43.7981C191.733 44.2177 191.39 44.561 190.97 44.561H189.29C188.871 44.561 188.527 44.2177 188.527 43.7981C188.527 43.3785 188.871 43.0352 189.29 43.0352Z" fill="#A6C7F9"/>
<path d="M153.857 56.9316H161.232C161.652 56.9316 161.995 57.2749 161.995 57.6946C161.995 58.1142 161.652 58.4576 161.232 58.4576H153.857C153.437 58.4576 153.094 58.1142 153.094 57.6946C153.094 57.2749 153.437 56.9316 153.857 56.9316Z" fill="#A6C7F9"/>
<path d="M159.552 59.709H161.232C161.651 59.709 161.995 60.0524 161.995 60.472C161.995 60.8917 161.651 61.2349 161.232 61.2349H159.552C159.132 61.2349 158.789 60.8917 158.789 60.472C158.789 60.0523 159.132 59.709 159.552 59.709Z" fill="#A6C7F9"/>
<path d="M123.478 67.1279H130.853C131.273 67.1279 131.616 67.4713 131.616 67.891C131.616 68.3106 131.273 68.6539 130.853 68.6539H123.478C123.058 68.6539 122.715 68.3105 122.715 67.891C122.715 67.4713 123.058 67.1279 123.478 67.1279Z" fill="#A6C7F9"/>
<path d="M129.173 69.9043H130.853C131.272 69.9043 131.616 70.2477 131.616 70.6673C131.616 71.087 131.272 71.4304 130.853 71.4304H129.173C128.753 71.4304 128.41 71.087 128.41 70.6673C128.41 70.2477 128.753 69.9043 129.173 69.9043Z" fill="#A6C7F9"/>
<path d="M127.167 64.9565C125.673 64.9565 124.457 63.7407 124.457 62.2463C124.457 60.7519 125.673 59.5361 127.167 59.5361C128.662 59.5361 129.877 60.752 129.877 62.2463C129.877 63.7407 128.662 64.9565 127.167 64.9565ZM127.167 60.5853C126.251 60.5853 125.506 61.3304 125.506 62.2463C125.506 63.1622 126.251 63.9074 127.167 63.9074C128.083 63.9074 128.828 63.1622 128.828 62.2463C128.828 61.3304 128.083 60.5853 127.167 60.5853Z" fill="#2B478B"/>
<path d="M126.013 60.5857C125.879 60.5857 125.745 60.5345 125.642 60.4321L117.498 52.2874H51.3292C51.0395 52.2874 50.8047 52.0525 50.8047 51.7628C50.8047 51.4732 51.0395 51.2383 51.3292 51.2383H117.932L126.384 59.6902C126.589 59.8951 126.589 60.2273 126.384 60.4321C126.282 60.5344 126.147 60.5857 126.013 60.5857Z" fill="#2B478B"/>
<path d="M142.753 122.106C141.259 122.106 140.043 120.89 140.043 119.396C140.043 117.901 141.259 116.686 142.753 116.686C144.248 116.686 145.463 117.901 145.463 119.396C145.463 120.89 144.248 122.106 142.753 122.106ZM142.753 117.735C141.837 117.735 141.092 118.48 141.092 119.396C141.092 120.312 141.837 121.057 142.753 121.057C143.669 121.057 144.414 120.312 144.414 119.396C144.414 118.48 143.669 117.735 142.753 117.735Z" fill="#2B478B"/>
<path d="M217.542 130.404H151.988L143.536 121.952C143.332 121.747 143.332 121.415 143.536 121.21C143.741 121.005 144.074 121.005 144.278 121.21L152.423 129.355H217.542C217.832 129.355 218.067 129.59 218.067 129.879C218.067 130.169 217.832 130.404 217.542 130.404Z" fill="#2B478B"/>
<path d="M172.734 18.9653C171.239 18.9653 170.023 17.7495 170.023 16.2551C170.023 14.7606 171.239 13.5449 172.734 13.5449C174.228 13.5449 175.444 14.7608 175.444 16.2551C175.444 17.7495 174.228 18.9653 172.734 18.9653ZM172.734 14.5939C171.818 14.5939 171.073 15.3391 171.073 16.255C171.073 17.1709 171.818 17.9161 172.734 17.9161C173.65 17.9161 174.395 17.1709 174.395 16.255C174.395 15.3391 173.65 14.5939 172.734 14.5939Z" fill="#2B478B"/>
<path d="M171.58 14.5935C171.446 14.5935 171.311 14.5423 171.209 14.4399L163.064 6.29522H96.8957C96.6059 6.29522 96.3711 6.06032 96.3711 5.77066C96.3711 5.48099 96.6059 5.24609 96.8957 5.24609H163.499L171.951 13.6979C172.156 13.9028 172.156 14.235 171.951 14.4398C171.848 14.5423 171.714 14.5935 171.58 14.5935Z" fill="#2B478B"/>
<path d="M95.5485 50.025H52.0789C51.3451 50.025 50.75 49.4301 50.75 48.6961C50.75 47.9621 51.345 47.3672 52.0789 47.3672H95.5487C96.2825 47.3672 96.8775 47.9621 96.8775 48.6961C96.8774 49.4301 96.2824 50.025 95.5485 50.025Z" fill="#739AF0"/>
<path d="M95.5516 45.8278H68.868C68.1341 45.8278 67.5391 45.2328 67.5391 44.4988C67.5391 43.7649 68.134 43.1699 68.868 43.1699H95.5517C96.2856 43.1699 96.8805 43.7649 96.8805 44.4988C96.8804 45.2328 96.2855 45.8278 95.5516 45.8278Z" fill="#739AF0"/>
<path d="M95.5516 41.6315H68.868C68.1341 41.6315 67.5391 41.0365 67.5391 40.3026C67.5391 39.5686 68.134 38.9736 68.868 38.9736H95.5517C96.2856 38.9736 96.8805 39.5686 96.8805 40.3026C96.8804 41.0365 96.2855 41.6315 95.5516 41.6315Z" fill="#739AF0"/>
<path d="M140.814 3.76039H97.3445C96.6106 3.76039 96.0156 3.16543 96.0156 2.43147C96.0156 1.6975 96.6106 1.10254 97.3445 1.10254H140.814C141.548 1.10254 142.143 1.6975 142.143 2.43147C142.143 3.16543 141.548 3.76039 140.814 3.76039Z" fill="#739AF0"/>
<path d="M179.676 150.224C183.37 146.53 183.37 140.54 179.676 136.846C175.982 133.152 169.992 133.152 166.298 136.846C162.604 140.54 162.604 146.53 166.298 150.224C169.992 153.918 175.982 153.918 179.676 150.224Z" fill="#82B378"/>
<path d="M172.988 135.538C177.405 135.538 180.984 139.119 180.984 143.535C180.984 145.72 180.108 147.7 178.687 149.144L172.988 143.535L165.516 146.387C165.178 145.501 164.992 144.54 164.992 143.535C164.992 139.119 168.572 135.538 172.988 135.538Z" fill="white"/>
<path d="M174.157 139.475H177.561C177.695 139.475 177.804 139.584 177.804 139.718C177.804 139.851 177.695 139.961 177.561 139.961H174.157C174.023 139.961 173.914 139.851 173.914 139.718C173.914 139.584 174.023 139.475 174.157 139.475Z" fill="#82B378"/>
<path d="M174.157 140.244H177.561C177.695 140.244 177.804 140.354 177.804 140.487C177.804 140.621 177.695 140.73 177.561 140.73H174.157C174.023 140.73 173.914 140.621 173.914 140.487C173.914 140.354 174.023 140.244 174.157 140.244Z" fill="#82B378"/>
<path d="M176.157 141.015H177.563C177.696 141.015 177.806 141.124 177.806 141.258C177.806 141.391 177.696 141.501 177.563 141.501H176.157C176.023 141.501 175.914 141.391 175.914 141.258C175.914 141.124 176.023 141.015 176.157 141.015Z" fill="#82B378"/>
<path d="M164.707 139.095L168.449 135.354H164.707V139.095Z" fill="#82B378"/>
<path d="M214.387 143.994C214.647 138.776 210.628 134.335 205.41 134.075C200.192 133.814 195.751 137.834 195.491 143.052C195.23 148.27 199.25 152.711 204.468 152.971C209.686 153.231 214.127 149.212 214.387 143.994Z" fill="#82B378"/>
<path d="M196.938 143.535C196.938 139.119 200.517 135.538 204.933 135.538C209.35 135.538 212.93 139.119 212.93 143.535C212.93 147.951 209.35 151.531 204.933 151.531C203.109 151.531 201.428 150.921 200.084 149.893L204.933 143.535L197.461 146.387C197.123 145.501 196.938 144.54 196.938 143.535Z" fill="white"/>
<path d="M206.169 139.475H209.573C209.706 139.475 209.816 139.584 209.816 139.718C209.816 139.851 209.706 139.961 209.573 139.961H206.169C206.035 139.961 205.926 139.851 205.926 139.718C205.926 139.584 206.035 139.475 206.169 139.475Z" fill="#82B378"/>
<path d="M206.169 140.244H209.573C209.706 140.244 209.816 140.354 209.816 140.487C209.816 140.621 209.706 140.73 209.573 140.73H206.169C206.035 140.73 205.926 140.621 205.926 140.487C205.926 140.354 206.035 140.244 206.169 140.244Z" fill="#82B378"/>
<path d="M208.169 141.015H209.574C209.708 141.015 209.818 141.124 209.818 141.258C209.818 141.391 209.708 141.501 209.574 141.501H208.169C208.035 141.501 207.926 141.391 207.926 141.258C207.926 141.124 208.035 141.015 208.169 141.015Z" fill="#82B378"/>
<path d="M196.703 139.095L200.445 135.354H196.703V139.095Z" fill="#82B378"/>
<path d="M239.567 165.967H20.8645C20.692 165.967 20.5508 165.826 20.5508 165.654C20.5508 165.481 20.692 165.34 20.8645 165.34H239.567C239.74 165.34 239.881 165.481 239.881 165.654C239.881 165.826 239.74 165.967 239.567 165.967Z" fill="#202F4E"/>
</svg>
