<svg width="511" height="303" viewBox="0 0 511 303" fill="none" xmlns="http://www.w3.org/2000/svg">
<path d="M397.809 108.045H402.353V109.477H397.809V108.045ZM397.952 112.966H396.26V103.852H402.913V105.272H397.952V112.966ZM407.145 113.057C406.555 113.057 406.034 112.948 405.583 112.731C405.131 112.506 404.78 112.167 404.528 111.716C404.276 111.256 404.15 110.679 404.15 109.984V106.014H405.778V109.763C405.778 110.388 405.917 110.857 406.194 111.169C406.481 111.473 406.884 111.625 407.405 111.625C407.787 111.625 408.117 111.547 408.395 111.391C408.681 111.234 408.902 111 409.059 110.687C409.224 110.375 409.306 109.989 409.306 109.529V106.014H410.933V112.966H409.384V111.091L409.658 111.664C409.423 112.115 409.08 112.462 408.629 112.705C408.178 112.94 407.683 113.057 407.145 113.057ZM417.009 105.936C417.564 105.936 418.059 106.044 418.493 106.261C418.936 106.478 419.283 106.812 419.535 107.263C419.786 107.706 419.912 108.279 419.912 108.982V112.966H418.285V109.19C418.285 108.574 418.137 108.114 417.842 107.81C417.556 107.506 417.152 107.355 416.631 107.355C416.25 107.355 415.911 107.433 415.616 107.589C415.321 107.745 415.091 107.98 414.926 108.292C414.77 108.596 414.692 108.982 414.692 109.451V112.966H413.064V106.014H414.613V107.888L414.34 107.316C414.583 106.873 414.935 106.534 415.395 106.3C415.863 106.057 416.401 105.936 417.009 105.936ZM425.179 113.057C424.45 113.057 423.799 112.905 423.226 112.601C422.662 112.289 422.219 111.864 421.898 111.325C421.577 110.787 421.417 110.175 421.417 109.49C421.417 108.795 421.577 108.183 421.898 107.654C422.219 107.116 422.662 106.695 423.226 106.391C423.799 106.087 424.45 105.936 425.179 105.936C425.856 105.936 426.451 106.074 426.963 106.352C427.483 106.621 427.878 107.02 428.147 107.55L426.898 108.279C426.689 107.949 426.433 107.706 426.129 107.55C425.834 107.394 425.513 107.316 425.166 107.316C424.767 107.316 424.407 107.402 424.085 107.576C423.764 107.749 423.513 108.001 423.33 108.331C423.148 108.652 423.057 109.038 423.057 109.49C423.057 109.941 423.148 110.332 423.33 110.661C423.513 110.983 423.764 111.23 424.085 111.404C424.407 111.577 424.767 111.664 425.166 111.664C425.513 111.664 425.834 111.586 426.129 111.43C426.433 111.273 426.689 111.03 426.898 110.7L428.147 111.43C427.878 111.95 427.483 112.354 426.963 112.64C426.451 112.918 425.856 113.057 425.179 113.057ZM432.26 113.057C431.496 113.057 430.906 112.862 430.489 112.471C430.073 112.072 429.865 111.486 429.865 110.714V104.477H431.492V110.674C431.492 111.004 431.574 111.26 431.739 111.443C431.913 111.625 432.152 111.716 432.455 111.716C432.82 111.716 433.124 111.621 433.367 111.43L433.822 112.588C433.631 112.744 433.397 112.862 433.119 112.94C432.842 113.018 432.555 113.057 432.26 113.057ZM428.719 107.368V106.066H433.354V107.368H428.719ZM435.161 112.966V106.014H436.788V112.966H435.161ZM435.981 104.868C435.677 104.868 435.426 104.772 435.226 104.582C435.035 104.391 434.94 104.161 434.94 103.892C434.94 103.614 435.035 103.384 435.226 103.201C435.426 103.011 435.677 102.915 435.981 102.915C436.285 102.915 436.532 103.006 436.723 103.188C436.923 103.362 437.023 103.583 437.023 103.852C437.023 104.139 436.927 104.382 436.736 104.582C436.545 104.772 436.294 104.868 435.981 104.868ZM442.049 113.057C441.337 113.057 440.704 112.905 440.148 112.601C439.593 112.289 439.154 111.864 438.833 111.325C438.512 110.787 438.352 110.175 438.352 109.49C438.352 108.795 438.512 108.183 438.833 107.654C439.154 107.116 439.593 106.695 440.148 106.391C440.704 106.087 441.337 105.936 442.049 105.936C442.769 105.936 443.407 106.087 443.963 106.391C444.527 106.695 444.965 107.112 445.278 107.641C445.599 108.17 445.759 108.787 445.759 109.49C445.759 110.175 445.599 110.787 445.278 111.325C444.965 111.864 444.527 112.289 443.963 112.601C443.407 112.905 442.769 113.057 442.049 113.057ZM442.049 111.664C442.448 111.664 442.804 111.577 443.117 111.404C443.429 111.23 443.672 110.978 443.846 110.648C444.028 110.319 444.119 109.932 444.119 109.49C444.119 109.038 444.028 108.652 443.846 108.331C443.672 108.001 443.429 107.749 443.117 107.576C442.804 107.402 442.453 107.316 442.062 107.316C441.663 107.316 441.307 107.402 440.994 107.576C440.691 107.749 440.448 108.001 440.265 108.331C440.083 108.652 439.992 109.038 439.992 109.49C439.992 109.932 440.083 110.319 440.265 110.648C440.448 110.978 440.691 111.23 440.994 111.404C441.307 111.577 441.658 111.664 442.049 111.664ZM451.26 105.936C451.816 105.936 452.311 106.044 452.745 106.261C453.187 106.478 453.534 106.812 453.786 107.263C454.038 107.706 454.164 108.279 454.164 108.982V112.966H452.536V109.19C452.536 108.574 452.389 108.114 452.094 107.81C451.807 107.506 451.404 107.355 450.883 107.355C450.501 107.355 450.162 107.433 449.867 107.589C449.572 107.745 449.342 107.98 449.177 108.292C449.021 108.596 448.943 108.982 448.943 109.451V112.966H447.316V106.014H448.865V107.888L448.591 107.316C448.834 106.873 449.186 106.534 449.646 106.3C450.115 106.057 450.653 105.936 451.26 105.936ZM455.877 110.024V108.67H459.457V110.024H455.877ZM465.675 113.096C464.981 113.096 464.334 112.983 463.736 112.758C463.145 112.523 462.629 112.198 462.186 111.781C461.752 111.356 461.414 110.857 461.171 110.284C460.928 109.711 460.806 109.086 460.806 108.409C460.806 107.732 460.928 107.107 461.171 106.534C461.414 105.962 461.757 105.467 462.199 105.05C462.642 104.625 463.158 104.299 463.749 104.074C464.339 103.839 464.985 103.722 465.688 103.722C466.435 103.722 467.116 103.852 467.732 104.113C468.349 104.365 468.869 104.742 469.295 105.245L468.201 106.274C467.871 105.918 467.502 105.653 467.094 105.48C466.687 105.298 466.244 105.206 465.767 105.206C465.289 105.206 464.851 105.285 464.452 105.441C464.061 105.597 463.718 105.818 463.423 106.105C463.137 106.391 462.911 106.73 462.746 107.12C462.59 107.511 462.512 107.94 462.512 108.409C462.512 108.878 462.59 109.307 462.746 109.698C462.911 110.089 463.137 110.427 463.423 110.714C463.718 111 464.061 111.221 464.452 111.377C464.851 111.534 465.289 111.612 465.767 111.612C466.244 111.612 466.687 111.525 467.094 111.351C467.502 111.169 467.871 110.896 468.201 110.531L469.295 111.573C468.869 112.068 468.349 112.445 467.732 112.705C467.116 112.966 466.43 113.096 465.675 113.096ZM474.98 112.966V111.56L474.889 111.26V108.8C474.889 108.322 474.746 107.953 474.459 107.693C474.173 107.424 473.739 107.289 473.157 107.289C472.767 107.289 472.38 107.35 471.999 107.472C471.625 107.593 471.308 107.763 471.048 107.98L470.41 106.795C470.783 106.508 471.226 106.296 471.738 106.157C472.259 106.009 472.797 105.936 473.352 105.936C474.359 105.936 475.136 106.179 475.683 106.665C476.238 107.142 476.516 107.884 476.516 108.891V112.966H474.98ZM472.793 113.057C472.272 113.057 471.816 112.97 471.426 112.797C471.035 112.614 470.731 112.367 470.514 112.054C470.306 111.733 470.202 111.373 470.202 110.974C470.202 110.583 470.293 110.232 470.475 109.919C470.666 109.607 470.974 109.36 471.4 109.177C471.825 108.995 472.389 108.904 473.092 108.904H475.11V109.984H473.209C472.654 109.984 472.281 110.076 472.09 110.258C471.899 110.431 471.803 110.648 471.803 110.909C471.803 111.204 471.92 111.438 472.155 111.612C472.389 111.785 472.715 111.872 473.131 111.872C473.53 111.872 473.886 111.781 474.199 111.599C474.52 111.417 474.75 111.147 474.889 110.792L475.162 111.768C475.006 112.176 474.724 112.493 474.316 112.718C473.917 112.944 473.409 113.057 472.793 113.057ZM478.605 112.966V103.306H480.232V112.966H478.605ZM482.368 112.966V103.306H483.995V112.966H482.368ZM486.131 112.966V106.014H487.759V112.966H486.131ZM486.952 104.868C486.648 104.868 486.396 104.772 486.196 104.582C486.006 104.391 485.91 104.161 485.91 103.892C485.91 103.614 486.006 103.384 486.196 103.201C486.396 103.011 486.648 102.915 486.952 102.915C487.255 102.915 487.503 103.006 487.694 103.188C487.893 103.362 487.993 103.583 487.993 103.852C487.993 104.139 487.898 104.382 487.707 104.582C487.516 104.772 487.264 104.868 486.952 104.868ZM493.839 105.936C494.395 105.936 494.89 106.044 495.324 106.261C495.766 106.478 496.113 106.812 496.365 107.263C496.617 107.706 496.743 108.279 496.743 108.982V112.966H495.115V109.19C495.115 108.574 494.968 108.114 494.673 107.81C494.386 107.506 493.983 107.355 493.462 107.355C493.08 107.355 492.742 107.433 492.446 107.589C492.151 107.745 491.921 107.98 491.756 108.292C491.6 108.596 491.522 108.982 491.522 109.451V112.966H489.895V106.014H491.444V107.888L491.171 107.316C491.414 106.873 491.765 106.534 492.225 106.3C492.694 106.057 493.232 105.936 493.839 105.936ZM501.971 115.583C501.328 115.583 500.699 115.496 500.083 115.322C499.475 115.157 498.976 114.914 498.586 114.593L499.315 113.369C499.618 113.621 500 113.821 500.46 113.968C500.929 114.125 501.402 114.203 501.879 114.203C502.643 114.203 503.203 114.025 503.559 113.669C503.915 113.322 504.093 112.797 504.093 112.094V110.857L504.223 109.281L504.171 107.706V106.014H505.72V111.911C505.72 113.17 505.399 114.094 504.757 114.684C504.114 115.283 503.186 115.583 501.971 115.583ZM501.762 112.653C501.103 112.653 500.504 112.514 499.966 112.237C499.436 111.95 499.015 111.555 498.703 111.052C498.399 110.549 498.247 109.958 498.247 109.281C498.247 108.613 498.399 108.027 498.703 107.524C499.015 107.02 499.436 106.63 499.966 106.352C500.504 106.074 501.103 105.936 501.762 105.936C502.352 105.936 502.882 106.053 503.351 106.287C503.819 106.521 504.192 106.886 504.47 107.381C504.757 107.875 504.9 108.509 504.9 109.281C504.9 110.054 504.757 110.692 504.47 111.195C504.192 111.69 503.819 112.059 503.351 112.302C502.882 112.536 502.352 112.653 501.762 112.653ZM502.01 111.273C502.418 111.273 502.782 111.191 503.103 111.026C503.424 110.852 503.672 110.618 503.845 110.323C504.028 110.019 504.119 109.672 504.119 109.281C504.119 108.891 504.028 108.548 503.845 108.253C503.672 107.949 503.424 107.719 503.103 107.563C502.782 107.398 502.418 107.316 502.01 107.316C501.602 107.316 501.233 107.398 500.903 107.563C500.582 107.719 500.33 107.949 500.148 108.253C499.974 108.548 499.887 108.891 499.887 109.281C499.887 109.672 499.974 110.019 500.148 110.323C500.33 110.618 500.582 110.852 500.903 111.026C501.233 111.191 501.602 111.273 502.01 111.273Z" fill="black"/>
<path d="M1.24982 112.966V103.852H5.23367C6.22312 103.852 7.09106 104.043 7.83749 104.425C8.58392 104.807 9.16544 105.337 9.58205 106.014C9.99866 106.691 10.207 107.489 10.207 108.409C10.207 109.32 9.99866 110.119 9.58205 110.805C9.16544 111.482 8.58392 112.011 7.83749 112.393C7.09106 112.775 6.22312 112.966 5.23367 112.966H1.24982ZM2.94231 111.534H5.15556C5.84123 111.534 6.43143 111.404 6.92616 111.143C7.42956 110.883 7.81579 110.518 8.08486 110.05C8.3626 109.581 8.50147 109.034 8.50147 108.409C8.50147 107.776 8.3626 107.229 8.08486 106.769C7.81579 106.3 7.42956 105.936 6.92616 105.675C6.43143 105.415 5.84123 105.285 5.15556 105.285H2.94231V111.534ZM16.1329 112.966V111.56L16.0418 111.26V108.8C16.0418 108.322 15.8986 107.953 15.6121 107.693C15.3257 107.424 14.8917 107.289 14.3102 107.289C13.9197 107.289 13.5334 107.35 13.1515 107.472C12.7783 107.593 12.4615 107.763 12.2011 107.98L11.5632 106.795C11.9364 106.508 12.3791 106.296 12.8911 106.157C13.4119 106.009 13.95 105.936 14.5055 105.936C15.5123 105.936 16.2891 106.179 16.8359 106.665C17.3914 107.142 17.6692 107.884 17.6692 108.891V112.966H16.1329ZM13.9457 113.057C13.4249 113.057 12.9693 112.97 12.5787 112.797C12.1881 112.614 11.8843 112.367 11.6673 112.054C11.459 111.733 11.3549 111.373 11.3549 110.974C11.3549 110.583 11.446 110.232 11.6283 109.919C11.8192 109.607 12.1274 109.36 12.5526 109.177C12.9779 108.995 13.5421 108.904 14.2451 108.904H16.2631V109.984H14.3623C13.8068 109.984 13.4336 110.076 13.2427 110.258C13.0517 110.431 12.9562 110.648 12.9562 110.909C12.9562 111.204 13.0734 111.438 13.3078 111.612C13.5421 111.785 13.8676 111.872 14.2842 111.872C14.6834 111.872 15.0393 111.781 15.3518 111.599C15.6729 111.417 15.9029 111.147 16.0418 110.792L16.3152 111.768C16.1589 112.176 15.8769 112.493 15.4689 112.718C15.0697 112.944 14.5619 113.057 13.9457 113.057ZM22.3745 113.057C21.6108 113.057 21.0206 112.862 20.6039 112.471C20.1873 112.072 19.979 111.486 19.979 110.714V104.477H21.6064V110.674C21.6064 111.004 21.6889 111.26 21.8538 111.443C22.0274 111.625 22.2661 111.716 22.5698 111.716C22.9344 111.716 23.2381 111.621 23.4812 111.43L23.9368 112.588C23.7459 112.744 23.5115 112.862 23.2338 112.94C22.9561 113.018 22.6696 113.057 22.3745 113.057ZM18.8333 107.368V106.066H23.4682V107.368H18.8333ZM29.5589 112.966V111.56L29.4677 111.26V108.8C29.4677 108.322 29.3245 107.953 29.0381 107.693C28.7517 107.424 28.3177 107.289 27.7362 107.289C27.3456 107.289 26.9594 107.35 26.5775 107.472C26.2043 107.593 25.8875 107.763 25.6271 107.98L24.9892 106.795C25.3624 106.508 25.805 106.296 26.3171 106.157C26.8379 106.009 27.376 105.936 27.9315 105.936C28.9383 105.936 29.7151 106.179 30.2619 106.665C30.8174 107.142 31.0951 107.884 31.0951 108.891V112.966H29.5589ZM27.3716 113.057C26.8509 113.057 26.3952 112.97 26.0046 112.797C25.6141 112.614 25.3103 112.367 25.0933 112.054C24.885 111.733 24.7808 111.373 24.7808 110.974C24.7808 110.583 24.872 110.232 25.0542 109.919C25.2452 109.607 25.5533 109.36 25.9786 109.177C26.4039 108.995 26.9681 108.904 27.6711 108.904H29.689V109.984H27.7883C27.2328 109.984 26.8596 110.076 26.6686 110.258C26.4777 110.431 26.3822 110.648 26.3822 110.909C26.3822 111.204 26.4994 111.438 26.7337 111.612C26.9681 111.785 27.2935 111.872 27.7101 111.872C28.1094 111.872 28.4653 111.781 28.7777 111.599C29.0988 111.417 29.3289 111.147 29.4677 110.792L29.7411 111.768C29.5849 112.176 29.3028 112.493 28.8949 112.718C28.4956 112.944 27.9879 113.057 27.3716 113.057ZM36.9379 112.966V103.852H40.6874C41.4946 103.852 42.1846 103.983 42.7575 104.243C43.339 104.503 43.786 104.877 44.0985 105.363C44.4109 105.849 44.5671 106.426 44.5671 107.094C44.5671 107.763 44.4109 108.34 44.0985 108.826C43.786 109.303 43.339 109.672 42.7575 109.932C42.1846 110.184 41.4946 110.31 40.6874 110.31H37.8753L38.6304 109.542V112.966H36.9379ZM42.9007 112.966L40.5963 109.659H42.406L44.7234 112.966H42.9007ZM38.6304 109.724L37.8753 108.917H40.6093C41.3558 108.917 41.9156 108.756 42.2888 108.435C42.6707 108.114 42.8616 107.667 42.8616 107.094C42.8616 106.513 42.6707 106.066 42.2888 105.753C41.9156 105.441 41.3558 105.285 40.6093 105.285H37.8753L38.6304 104.451V109.724ZM49.5723 113.057C48.7998 113.057 48.1228 112.905 47.5413 112.601C46.9685 112.289 46.5215 111.864 46.2003 111.325C45.8879 110.787 45.7316 110.175 45.7316 109.49C45.7316 108.795 45.8835 108.183 46.1873 107.654C46.4998 107.116 46.9251 106.695 47.4632 106.391C48.01 106.087 48.6306 105.936 49.3249 105.936C50.0019 105.936 50.6051 106.083 51.1346 106.378C51.664 106.673 52.0806 107.09 52.3844 107.628C52.6882 108.166 52.8401 108.8 52.8401 109.529C52.8401 109.598 52.8357 109.676 52.8271 109.763C52.8271 109.85 52.8227 109.932 52.814 110.01H47.0205V108.93H51.9548L51.3168 109.268C51.3255 108.869 51.2431 108.518 51.0695 108.214C50.8959 107.91 50.6572 107.671 50.3534 107.498C50.0583 107.324 49.7155 107.237 49.3249 107.237C48.9257 107.237 48.5741 107.324 48.2704 107.498C47.9753 107.671 47.7409 107.914 47.5673 108.227C47.4024 108.531 47.32 108.891 47.32 109.307V109.568C47.32 109.984 47.4154 110.353 47.6064 110.674C47.7973 110.996 48.0664 111.243 48.4136 111.417C48.7608 111.59 49.16 111.677 49.6113 111.677C50.0019 111.677 50.3534 111.616 50.6659 111.495C50.9783 111.373 51.2561 111.182 51.4991 110.922L52.3714 111.924C52.0589 112.289 51.664 112.571 51.1866 112.771C50.718 112.961 50.1798 113.057 49.5723 113.057ZM57.0201 113.057C56.2563 113.057 55.6661 112.862 55.2495 112.471C54.8329 112.072 54.6246 111.486 54.6246 110.714V104.477H56.252V110.674C56.252 111.004 56.3345 111.26 56.4994 111.443C56.6729 111.625 56.9116 111.716 57.2154 111.716C57.5799 111.716 57.8837 111.621 58.1267 111.43L58.5824 112.588C58.3915 112.744 58.1571 112.862 57.8794 112.94C57.6016 113.018 57.3152 113.057 57.0201 113.057ZM53.4789 107.368V106.066H58.1137V107.368H53.4789ZM59.9211 112.966V106.014H61.4704V107.927L61.2882 107.368C61.4965 106.899 61.8219 106.543 62.2646 106.3C62.7159 106.057 63.2757 105.936 63.9441 105.936V107.485C63.8746 107.467 63.8095 107.459 63.7488 107.459C63.688 107.45 63.6273 107.446 63.5665 107.446C62.9503 107.446 62.4599 107.628 62.0953 107.993C61.7308 108.348 61.5485 108.882 61.5485 109.594V112.966H59.9211ZM65.3246 112.966V106.014H66.952V112.966H65.3246ZM66.1448 104.868C65.841 104.868 65.5893 104.772 65.3897 104.582C65.1987 104.391 65.1033 104.161 65.1033 103.892C65.1033 103.614 65.1987 103.384 65.3897 103.201C65.5893 103.011 65.841 102.915 66.1448 102.915C66.4486 102.915 66.6959 103.006 66.8869 103.188C67.0865 103.362 67.1863 103.583 67.1863 103.852C67.1863 104.139 67.0908 104.382 66.8999 104.582C66.709 104.772 66.4572 104.868 66.1448 104.868ZM72.3557 113.057C71.5833 113.057 70.9063 112.905 70.3247 112.601C69.7519 112.289 69.3049 111.864 68.9838 111.325C68.6713 110.787 68.5151 110.175 68.5151 109.49C68.5151 108.795 68.667 108.183 68.9708 107.654C69.2832 107.116 69.7085 106.695 70.2466 106.391C70.7934 106.087 71.414 105.936 72.1084 105.936C72.7853 105.936 73.3886 106.083 73.918 106.378C74.4475 106.673 74.8641 107.09 75.1678 107.628C75.4716 108.166 75.6235 108.8 75.6235 109.529C75.6235 109.598 75.6192 109.676 75.6105 109.763C75.6105 109.85 75.6062 109.932 75.5975 110.01H69.804V108.93H74.7382L74.1003 109.268C74.109 108.869 74.0265 108.518 73.8529 108.214C73.6793 107.91 73.4406 107.671 73.1369 107.498C72.8418 107.324 72.4989 107.237 72.1084 107.237C71.7091 107.237 71.3576 107.324 71.0538 107.498C70.7587 107.671 70.5244 107.914 70.3508 108.227C70.1859 108.531 70.1034 108.891 70.1034 109.307V109.568C70.1034 109.984 70.1989 110.353 70.3898 110.674C70.5808 110.996 70.8498 111.243 71.197 111.417C71.5442 111.59 71.9434 111.677 72.3948 111.677C72.7853 111.677 73.1369 111.616 73.4493 111.495C73.7618 111.373 74.0395 111.182 74.2825 110.922L75.1548 111.924C74.8424 112.289 74.4475 112.571 73.9701 112.771C73.5014 112.961 72.9633 113.057 72.3557 113.057ZM78.9083 112.966L75.9269 106.014H77.6194L80.1842 112.146H79.3509L82.0068 106.014H83.5691L80.5878 112.966H78.9083ZM88.6534 112.966V111.56L88.5623 111.26V108.8C88.5623 108.322 88.4191 107.953 88.1326 107.693C87.8462 107.424 87.4123 107.289 86.8307 107.289C86.4402 107.289 86.0539 107.35 85.672 107.472C85.2988 107.593 84.982 107.763 84.7216 107.98L84.0837 106.795C84.4569 106.508 84.8996 106.296 85.4116 106.157C85.9324 106.009 86.4705 105.936 87.026 105.936C88.0328 105.936 88.8096 106.179 89.3564 106.665C89.9119 107.142 90.1897 107.884 90.1897 108.891V112.966H88.6534ZM86.4662 113.057C85.9454 113.057 85.4898 112.97 85.0992 112.797C84.7086 112.614 84.4048 112.367 84.1879 112.054C83.9795 111.733 83.8754 111.373 83.8754 110.974C83.8754 110.583 83.9665 110.232 84.1488 109.919C84.3397 109.607 84.6479 109.36 85.0732 109.177C85.4984 108.995 86.0626 108.904 86.7656 108.904H88.7836V109.984H86.8828C86.3273 109.984 85.9541 110.076 85.7632 110.258C85.5722 110.431 85.4767 110.648 85.4767 110.909C85.4767 111.204 85.5939 111.438 85.8283 111.612C86.0626 111.785 86.3881 111.872 86.8047 111.872C87.2039 111.872 87.5598 111.781 87.8723 111.599C88.1934 111.417 88.4234 111.147 88.5623 110.792L88.8357 111.768C88.6794 112.176 88.3974 112.493 87.9894 112.718C87.5902 112.944 87.0824 113.057 86.4662 113.057ZM92.2782 112.966V103.306H93.9056V112.966H92.2782Z" fill="black"/>
<path d="M20.1013 297.403V288.29H23.8508C24.658 288.29 25.348 288.42 25.9209 288.681C26.5024 288.941 26.9494 289.314 27.2618 289.8C27.5743 290.286 27.7305 290.863 27.7305 291.532C27.7305 292.2 27.5743 292.777 27.2618 293.263C26.9494 293.749 26.5024 294.123 25.9209 294.383C25.348 294.643 24.658 294.773 23.8508 294.773H21.0387L21.7938 293.979V297.403H20.1013ZM21.7938 294.162L21.0387 293.341H23.7727C24.5191 293.341 25.0789 293.185 25.4522 292.873C25.8341 292.552 26.025 292.105 26.025 291.532C26.025 290.95 25.8341 290.503 25.4522 290.191C25.0789 289.878 24.5191 289.722 23.7727 289.722H21.0387L21.7938 288.889V294.162ZM29.2009 297.403V290.451H30.7501V292.365L30.5679 291.805C30.7762 291.336 31.1016 290.981 31.5443 290.738C31.9956 290.495 32.5554 290.373 33.2238 290.373V291.922C33.1543 291.905 33.0892 291.896 33.0285 291.896C32.9677 291.888 32.907 291.883 32.8462 291.883C32.23 291.883 31.7396 292.065 31.375 292.43C31.0105 292.786 30.8282 293.32 30.8282 294.031V297.403H29.2009ZM37.6653 297.494C36.9536 297.494 36.32 297.343 35.7645 297.039C35.209 296.726 34.7707 296.301 34.4496 295.763C34.1284 295.225 33.9679 294.613 33.9679 293.927C33.9679 293.233 34.1284 292.621 34.4496 292.092C34.7707 291.553 35.209 291.132 35.7645 290.829C36.32 290.525 36.9536 290.373 37.6653 290.373C38.3857 290.373 39.0236 290.525 39.5791 290.829C40.1433 291.132 40.5816 291.549 40.894 292.079C41.2152 292.608 41.3758 293.224 41.3758 293.927C41.3758 294.613 41.2152 295.225 40.894 295.763C40.5816 296.301 40.1433 296.726 39.5791 297.039C39.0236 297.343 38.3857 297.494 37.6653 297.494ZM37.6653 296.101C38.0646 296.101 38.4204 296.015 38.7329 295.841C39.0453 295.667 39.2884 295.416 39.4619 295.086C39.6442 294.756 39.7353 294.37 39.7353 293.927C39.7353 293.476 39.6442 293.09 39.4619 292.769C39.2884 292.439 39.0453 292.187 38.7329 292.013C38.4204 291.84 38.0689 291.753 37.6783 291.753C37.2791 291.753 36.9232 291.84 36.6108 292.013C36.307 292.187 36.064 292.439 35.8817 292.769C35.6994 293.09 35.6083 293.476 35.6083 293.927C35.6083 294.37 35.6994 294.756 35.8817 295.086C36.064 295.416 36.307 295.667 36.6108 295.841C36.9232 296.015 37.2747 296.101 37.6653 296.101ZM51.7068 290.373C52.2623 290.373 52.7527 290.481 53.178 290.698C53.612 290.915 53.9504 291.25 54.1935 291.701C54.4365 292.144 54.558 292.716 54.558 293.419V297.403H52.9306V293.628C52.9306 293.012 52.7961 292.552 52.527 292.248C52.258 291.944 51.8717 291.792 51.3683 291.792C51.0125 291.792 50.6957 291.87 50.4179 292.026C50.1489 292.183 49.9362 292.413 49.78 292.716C49.6324 293.02 49.5587 293.406 49.5587 293.875V297.403H47.9313V293.628C47.9313 293.012 47.7967 292.552 47.5277 292.248C47.2586 291.944 46.8724 291.792 46.369 291.792C46.0131 291.792 45.6963 291.87 45.4186 292.026C45.1495 292.183 44.9369 292.413 44.7807 292.716C44.6331 293.02 44.5593 293.406 44.5593 293.875V297.403H42.9319V290.451H44.4812V292.3L44.2078 291.753C44.4422 291.302 44.7807 290.959 45.2233 290.725C45.6746 290.49 46.1867 290.373 46.7596 290.373C47.4105 290.373 47.9747 290.534 48.452 290.855C48.9381 291.176 49.2592 291.662 49.4155 292.313L48.7775 292.092C49.0032 291.571 49.3764 291.154 49.8972 290.842C50.4179 290.529 51.0211 290.373 51.7068 290.373ZM60.4913 297.494C59.9271 297.494 59.4107 297.364 58.942 297.104C58.482 296.843 58.1131 296.453 57.8354 295.932C57.5663 295.403 57.4318 294.734 57.4318 293.927C57.4318 293.111 57.562 292.443 57.8223 291.922C58.0914 291.402 58.4559 291.015 58.9159 290.764C59.376 290.503 59.9011 290.373 60.4913 290.373C61.1769 290.373 61.7802 290.521 62.3009 290.816C62.8304 291.111 63.247 291.523 63.5508 292.052C63.8632 292.582 64.0194 293.207 64.0194 293.927C64.0194 294.648 63.8632 295.277 63.5508 295.815C63.247 296.344 62.8304 296.757 62.3009 297.052C61.7802 297.347 61.1769 297.494 60.4913 297.494ZM56.6376 299.929V290.451H58.1869V292.092L58.1348 293.94L58.265 295.789V299.929H56.6376ZM60.309 296.101C60.6996 296.101 61.0467 296.015 61.3505 295.841C61.663 295.667 61.9103 295.416 62.0926 295.086C62.2749 294.756 62.366 294.37 62.366 293.927C62.366 293.476 62.2749 293.09 62.0926 292.769C61.9103 292.439 61.663 292.187 61.3505 292.013C61.0467 291.84 60.6996 291.753 60.309 291.753C59.9184 291.753 59.5669 291.84 59.2544 292.013C58.942 292.187 58.6946 292.439 58.5124 292.769C58.3301 293.09 58.239 293.476 58.239 293.927C58.239 294.37 58.3301 294.756 58.5124 295.086C58.6946 295.416 58.942 295.667 59.2544 295.841C59.5669 296.015 59.9184 296.101 60.309 296.101ZM68.1797 297.494C67.4159 297.494 66.8257 297.299 66.4091 296.909C65.9924 296.509 65.7841 295.923 65.7841 295.151V288.915H67.4115V295.112C67.4115 295.442 67.494 295.698 67.6589 295.88C67.8325 296.062 68.0712 296.153 68.3749 296.153C68.7395 296.153 69.0433 296.058 69.2863 295.867L69.7419 297.026C69.551 297.182 69.3167 297.299 69.0389 297.377C68.7612 297.455 68.4748 297.494 68.1797 297.494ZM64.6385 291.805V290.503H69.2733V291.805H64.6385Z" fill="black"/>
<line x1="312.189" y1="108.174" x2="415.257" y2="49.5879" stroke="#C3D0E2" stroke-width="1.08493" stroke-dasharray="5.17 5.17"/>
<line x1="70.2855" y1="229.668" x2="195.052" y2="169.997" stroke="#C3D0E2" stroke-width="1.08493" stroke-dasharray="5.17 5.17"/>
<path d="M401.105 297.425L401.013 295.42L405.791 290.46H407.692L403.721 294.678L402.784 295.707L401.105 297.425ZM399.594 299.573V290.46H401.287V299.573H399.594ZM405.948 299.573L402.458 295.42L403.578 294.183L407.927 299.573H405.948ZM412.74 292.543C413.296 292.543 413.791 292.651 414.225 292.868C414.667 293.085 415.014 293.42 415.266 293.871C415.518 294.314 415.644 294.886 415.644 295.589V299.573H414.016V295.798C414.016 295.181 413.869 294.721 413.574 294.418C413.287 294.114 412.884 293.962 412.363 293.962C411.981 293.962 411.642 294.04 411.347 294.196C411.052 294.353 410.822 294.587 410.657 294.899C410.501 295.203 410.423 295.589 410.423 296.058V299.573H408.796V292.621H410.345V294.496L410.071 293.923C410.314 293.48 410.666 293.142 411.126 292.907C411.595 292.664 412.133 292.543 412.74 292.543ZM420.845 299.664C420.134 299.664 419.5 299.512 418.945 299.209C418.389 298.896 417.951 298.471 417.63 297.933C417.308 297.395 417.148 296.783 417.148 296.097C417.148 295.403 417.308 294.791 417.63 294.261C417.951 293.723 418.389 293.302 418.945 292.999C419.5 292.695 420.134 292.543 420.845 292.543C421.566 292.543 422.204 292.695 422.759 292.999C423.323 293.302 423.762 293.719 424.074 294.248C424.395 294.778 424.556 295.394 424.556 296.097C424.556 296.783 424.395 297.395 424.074 297.933C423.762 298.471 423.323 298.896 422.759 299.209C422.204 299.512 421.566 299.664 420.845 299.664ZM420.845 298.271C421.245 298.271 421.6 298.185 421.913 298.011C422.225 297.837 422.468 297.586 422.642 297.256C422.824 296.926 422.915 296.54 422.915 296.097C422.915 295.646 422.824 295.26 422.642 294.938C422.468 294.609 422.225 294.357 421.913 294.183C421.6 294.01 421.249 293.923 420.858 293.923C420.459 293.923 420.103 294.01 419.791 294.183C419.487 294.357 419.244 294.609 419.062 294.938C418.879 295.26 418.788 295.646 418.788 296.097C418.788 296.54 418.879 296.926 419.062 297.256C419.244 297.586 419.487 297.837 419.791 298.011C420.103 298.185 420.455 298.271 420.845 298.271ZM427.458 299.573L424.906 292.621H426.442L428.629 298.753H427.9L430.192 292.621H431.559L433.785 298.753H433.069L435.321 292.621H436.766L434.201 299.573H432.639L430.608 294.144H431.09L429.02 299.573H427.458ZM437.885 299.573V289.913H439.513V299.573H437.885ZM444.916 299.664C444.144 299.664 443.467 299.512 442.885 299.209C442.312 298.896 441.865 298.471 441.544 297.933C441.232 297.395 441.076 296.783 441.076 296.097C441.076 295.403 441.228 294.791 441.531 294.261C441.844 293.723 442.269 293.302 442.807 292.999C443.354 292.695 443.975 292.543 444.669 292.543C445.346 292.543 445.949 292.69 446.479 292.986C447.008 293.281 447.425 293.697 447.728 294.235C448.032 294.774 448.184 295.407 448.184 296.136C448.184 296.206 448.18 296.284 448.171 296.371C448.171 296.457 448.167 296.54 448.158 296.618H442.365V295.537H447.299L446.661 295.876C446.669 295.477 446.587 295.125 446.413 294.821C446.24 294.517 446.001 294.279 445.697 294.105C445.402 293.932 445.059 293.845 444.669 293.845C444.27 293.845 443.918 293.932 443.614 294.105C443.319 294.279 443.085 294.522 442.911 294.834C442.746 295.138 442.664 295.498 442.664 295.915V296.175C442.664 296.592 442.759 296.961 442.95 297.282C443.141 297.603 443.41 297.85 443.758 298.024C444.105 298.198 444.504 298.284 444.955 298.284C445.346 298.284 445.697 298.224 446.01 298.102C446.322 297.981 446.6 297.79 446.843 297.529L447.715 298.532C447.403 298.896 447.008 299.178 446.531 299.378C446.062 299.569 445.524 299.664 444.916 299.664ZM452.69 299.664C452.021 299.664 451.418 299.517 450.88 299.222C450.35 298.918 449.934 298.501 449.63 297.972C449.326 297.442 449.174 296.818 449.174 296.097C449.174 295.377 449.326 294.752 449.63 294.222C449.934 293.693 450.35 293.281 450.88 292.986C451.418 292.69 452.021 292.543 452.69 292.543C453.271 292.543 453.792 292.673 454.252 292.933C454.712 293.185 455.076 293.571 455.345 294.092C455.615 294.613 455.749 295.281 455.749 296.097C455.749 296.904 455.619 297.573 455.358 298.102C455.098 298.623 454.738 299.013 454.278 299.274C453.818 299.534 453.288 299.664 452.69 299.664ZM452.885 298.271C453.275 298.271 453.623 298.185 453.926 298.011C454.239 297.837 454.486 297.586 454.668 297.256C454.859 296.926 454.955 296.54 454.955 296.097C454.955 295.646 454.859 295.26 454.668 294.938C454.486 294.609 454.239 294.357 453.926 294.183C453.623 294.01 453.275 293.923 452.885 293.923C452.494 293.923 452.143 294.01 451.83 294.183C451.527 294.357 451.279 294.609 451.088 294.938C450.906 295.26 450.815 295.646 450.815 296.097C450.815 296.54 450.906 296.926 451.088 297.256C451.279 297.586 451.527 297.837 451.83 298.011C452.143 298.185 452.494 298.271 452.885 298.271ZM454.994 299.573V297.933L455.059 296.084L454.929 294.235V289.913H456.543V299.573H454.994ZM461.836 302.19C461.194 302.19 460.564 302.103 459.948 301.93C459.34 301.765 458.841 301.522 458.451 301.201L459.18 299.977C459.484 300.229 459.866 300.428 460.326 300.576C460.794 300.732 461.267 300.81 461.745 300.81C462.508 300.81 463.068 300.632 463.424 300.276C463.78 299.929 463.958 299.404 463.958 298.701V297.464L464.088 295.889L464.036 294.314V292.621H465.585V298.519C465.585 299.777 465.264 300.702 464.622 301.292C463.98 301.891 463.051 302.19 461.836 302.19ZM461.627 299.261C460.968 299.261 460.369 299.122 459.831 298.844C459.301 298.558 458.88 298.163 458.568 297.659C458.264 297.156 458.112 296.566 458.112 295.889C458.112 295.221 458.264 294.635 458.568 294.131C458.88 293.628 459.301 293.237 459.831 292.96C460.369 292.682 460.968 292.543 461.627 292.543C462.218 292.543 462.747 292.66 463.216 292.894C463.685 293.129 464.058 293.493 464.335 293.988C464.622 294.483 464.765 295.116 464.765 295.889C464.765 296.661 464.622 297.299 464.335 297.803C464.058 298.297 463.685 298.666 463.216 298.909C462.747 299.144 462.218 299.261 461.627 299.261ZM461.875 297.881C462.283 297.881 462.647 297.798 462.968 297.633C463.29 297.46 463.537 297.225 463.711 296.93C463.893 296.627 463.984 296.279 463.984 295.889C463.984 295.498 463.893 295.155 463.711 294.86C463.537 294.557 463.29 294.327 462.968 294.17C462.647 294.005 462.283 293.923 461.875 293.923C461.467 293.923 461.098 294.005 460.768 294.17C460.447 294.327 460.195 294.557 460.013 294.86C459.84 295.155 459.753 295.498 459.753 295.889C459.753 296.279 459.84 296.627 460.013 296.93C460.195 297.225 460.447 297.46 460.768 297.633C461.098 297.798 461.467 297.881 461.875 297.881ZM470.993 299.664C470.22 299.664 469.543 299.512 468.962 299.209C468.389 298.896 467.942 298.471 467.621 297.933C467.308 297.395 467.152 296.783 467.152 296.097C467.152 295.403 467.304 294.791 467.608 294.261C467.92 293.723 468.345 293.302 468.884 292.999C469.43 292.695 470.051 292.543 470.745 292.543C471.422 292.543 472.025 292.69 472.555 292.986C473.084 293.281 473.501 293.697 473.805 294.235C474.109 294.774 474.26 295.407 474.26 296.136C474.26 296.206 474.256 296.284 474.247 296.371C474.247 296.457 474.243 296.54 474.234 296.618H468.441V295.537H473.375L472.737 295.876C472.746 295.477 472.663 295.125 472.49 294.821C472.316 294.517 472.078 294.279 471.774 294.105C471.479 293.932 471.136 293.845 470.745 293.845C470.346 293.845 469.994 293.932 469.691 294.105C469.396 294.279 469.161 294.522 468.988 294.834C468.823 295.138 468.74 295.498 468.74 295.915V296.175C468.74 296.592 468.836 296.961 469.027 297.282C469.218 297.603 469.487 297.85 469.834 298.024C470.181 298.198 470.58 298.284 471.032 298.284C471.422 298.284 471.774 298.224 472.086 298.102C472.399 297.981 472.676 297.79 472.919 297.529L473.792 298.532C473.479 298.896 473.084 299.178 472.607 299.378C472.138 299.569 471.6 299.664 470.993 299.664ZM479.578 299.573V290.46H483.848C484.942 290.46 485.775 290.677 486.348 291.111C486.921 291.536 487.207 292.109 487.207 292.829C487.207 293.315 487.094 293.732 486.869 294.079C486.643 294.418 486.339 294.682 485.957 294.873C485.584 295.056 485.176 295.147 484.733 295.147L484.968 294.678C485.48 294.678 485.94 294.774 486.348 294.964C486.756 295.147 487.077 295.416 487.311 295.772C487.554 296.128 487.676 296.57 487.676 297.1C487.676 297.881 487.376 298.488 486.777 298.922C486.179 299.356 485.289 299.573 484.109 299.573H479.578ZM481.27 298.245H484.004C484.638 298.245 485.124 298.141 485.463 297.933C485.801 297.725 485.97 297.39 485.97 296.93C485.97 296.479 485.801 296.149 485.463 295.941C485.124 295.724 484.638 295.615 484.004 295.615H481.14V294.301H483.666C484.256 294.301 484.707 294.196 485.02 293.988C485.341 293.78 485.502 293.467 485.502 293.051C485.502 292.625 485.341 292.309 485.02 292.1C484.707 291.892 484.256 291.788 483.666 291.788H481.27V298.245ZM493.609 299.573V298.167L493.518 297.868V295.407C493.518 294.93 493.375 294.561 493.088 294.301C492.802 294.031 492.368 293.897 491.786 293.897C491.396 293.897 491.01 293.958 490.628 294.079C490.255 294.201 489.938 294.37 489.677 294.587L489.039 293.402C489.413 293.116 489.855 292.903 490.367 292.764C490.888 292.617 491.426 292.543 491.982 292.543C492.989 292.543 493.765 292.786 494.312 293.272C494.868 293.749 495.145 294.491 495.145 295.498V299.573H493.609ZM491.422 299.664C490.901 299.664 490.445 299.578 490.055 299.404C489.664 299.222 489.361 298.974 489.144 298.662C488.935 298.341 488.831 297.981 488.831 297.581C488.831 297.191 488.922 296.839 489.105 296.527C489.295 296.214 489.604 295.967 490.029 295.785C490.454 295.602 491.018 295.511 491.721 295.511H493.739V296.592H491.839C491.283 296.592 490.91 296.683 490.719 296.865C490.528 297.039 490.432 297.256 490.432 297.516C490.432 297.811 490.55 298.046 490.784 298.219C491.018 298.393 491.344 298.48 491.76 298.48C492.16 298.48 492.516 298.389 492.828 298.206C493.149 298.024 493.379 297.755 493.518 297.399L493.791 298.375C493.635 298.783 493.353 299.1 492.945 299.326C492.546 299.552 492.038 299.664 491.422 299.664ZM499.382 299.664C498.801 299.664 498.241 299.591 497.703 299.443C497.173 299.287 496.752 299.1 496.44 298.883L497.065 297.646C497.377 297.846 497.75 298.011 498.184 298.141C498.618 298.271 499.052 298.336 499.486 298.336C499.998 298.336 500.367 298.267 500.593 298.128C500.827 297.989 500.944 297.803 500.944 297.568C500.944 297.377 500.866 297.234 500.71 297.139C500.554 297.035 500.35 296.956 500.098 296.904C499.846 296.852 499.564 296.805 499.252 296.761C498.948 296.718 498.64 296.661 498.328 296.592C498.024 296.514 497.746 296.405 497.494 296.266C497.243 296.119 497.039 295.924 496.882 295.681C496.726 295.438 496.648 295.116 496.648 294.717C496.648 294.274 496.774 293.893 497.026 293.571C497.277 293.242 497.629 292.99 498.08 292.816C498.54 292.634 499.083 292.543 499.708 292.543C500.176 292.543 500.649 292.595 501.127 292.699C501.604 292.803 501.999 292.951 502.311 293.142L501.686 294.379C501.357 294.179 501.023 294.044 500.684 293.975C500.354 293.897 500.024 293.858 499.695 293.858C499.2 293.858 498.831 293.932 498.588 294.079C498.354 294.227 498.236 294.413 498.236 294.639C498.236 294.847 498.315 295.004 498.471 295.108C498.627 295.212 498.831 295.294 499.083 295.355C499.334 295.416 499.612 295.468 499.916 295.511C500.228 295.546 500.536 295.602 500.84 295.681C501.144 295.759 501.422 295.867 501.673 296.006C501.934 296.136 502.142 296.323 502.298 296.566C502.455 296.809 502.533 297.126 502.533 297.516C502.533 297.95 502.403 298.328 502.142 298.649C501.89 298.97 501.53 299.222 501.062 299.404C500.593 299.578 500.033 299.664 499.382 299.664ZM507.202 299.664C506.43 299.664 505.753 299.512 505.171 299.209C504.598 298.896 504.151 298.471 503.83 297.933C503.518 297.395 503.361 296.783 503.361 296.097C503.361 295.403 503.513 294.791 503.817 294.261C504.129 293.723 504.555 293.302 505.093 292.999C505.64 292.695 506.26 292.543 506.955 292.543C507.632 292.543 508.235 292.69 508.764 292.986C509.294 293.281 509.71 293.697 510.014 294.235C510.318 294.774 510.47 295.407 510.47 296.136C510.47 296.206 510.465 296.284 510.457 296.371C510.457 296.457 510.452 296.54 510.444 296.618H504.65V295.537H509.584L508.947 295.876C508.955 295.477 508.873 295.125 508.699 294.821C508.526 294.517 508.287 294.279 507.983 294.105C507.688 293.932 507.345 293.845 506.955 293.845C506.555 293.845 506.204 293.932 505.9 294.105C505.605 294.279 505.371 294.522 505.197 294.834C505.032 295.138 504.95 295.498 504.95 295.915V296.175C504.95 296.592 505.045 296.961 505.236 297.282C505.427 297.603 505.696 297.85 506.043 298.024C506.39 298.198 506.79 298.284 507.241 298.284C507.632 298.284 507.983 298.224 508.296 298.102C508.608 297.981 508.886 297.79 509.129 297.529L510.001 298.532C509.689 298.896 509.294 299.178 508.816 299.378C508.348 299.569 507.81 299.664 507.202 299.664Z" fill="black"/>
<circle cx="454.585" cy="43.5494" r="43.397" fill="#F3F4FF"/>
<g clip-path="url(#clip0_1867_15621)">
<mask id="mask0_1867_15621" style="mask-type:luminance" maskUnits="userSpaceOnUse" x="425" y="13" width="59" height="59">
<path d="M425.301 13.1728H483.887V71.7588H425.301V13.1728Z" fill="white"/>
</mask>
<g mask="url(#mask0_1867_15621)">
<path d="M459.738 25.7103H470.943C471.891 25.7103 472.659 26.4788 472.659 27.4267V42.9932" stroke="black" stroke-width="1.08493" stroke-miterlimit="10" stroke-linecap="round" stroke-linejoin="round" stroke-dasharray="17.36 36.16"/>
<path d="M472.656 64.2793V44.1844" stroke="black" stroke-width="1.08493" stroke-miterlimit="10" stroke-linecap="round" stroke-linejoin="round"/>
<path d="M467.178 67.0557H442.466C441.518 67.0557 440.75 66.2872 440.75 65.3393V54.6286" stroke="black" stroke-width="1.08493" stroke-miterlimit="10" stroke-linecap="round" stroke-linejoin="round" stroke-dasharray="17.36 36.16"/>
<path d="M430.913 26.0466L426.487 30.4722C426.273 30.6868 426.152 30.9779 426.152 31.2813V56.013C426.152 56.6449 426.665 57.1572 427.297 57.1572H450.115C450.747 57.1572 451.259 56.6449 451.259 56.013V26.8557C451.259 26.2237 450.747 25.7114 450.115 25.7114H431.722C431.419 25.7114 431.128 25.832 430.913 26.0466Z" fill="#FEF1DB"/>
<path d="M430.901 56.013V31.2813C430.901 30.9779 431.022 30.6868 431.236 30.4722L435.662 26.0466C435.876 25.832 436.167 25.7114 436.471 25.7114H431.722C431.419 25.7114 431.128 25.832 430.913 26.0466L426.487 30.4722C426.273 30.6868 426.152 30.9779 426.152 31.2813V56.013C426.152 56.6449 426.665 57.1572 427.297 57.1572H432.045C431.413 57.1572 430.901 56.6449 430.901 56.013Z" fill="#FAE2C0"/>
<path d="M451.259 40.5202V26.8557C451.259 26.2238 450.747 25.7114 450.115 25.7114H431.722C431.419 25.7114 431.128 25.832 430.913 26.0466L426.487 30.4722C426.273 30.6868 426.152 30.9779 426.152 31.2813V56.013C426.152 56.6449 426.665 57.1572 427.297 57.1572H450.115C450.747 57.1572 451.259 56.6449 451.259 56.013V44.5251" stroke="black" stroke-width="1.08493" stroke-miterlimit="10" stroke-linecap="round" stroke-linejoin="round"/>
<path d="M432.758 33.7402H444.66" stroke="black" stroke-width="1.08493" stroke-miterlimit="10" stroke-linecap="round" stroke-linejoin="round"/>
<path d="M432.758 37.8975H444.66" stroke="black" stroke-width="1.08493" stroke-miterlimit="10" stroke-linecap="round" stroke-linejoin="round"/>
<path d="M432.758 42.0371H444.66" stroke="black" stroke-width="1.08493" stroke-miterlimit="10" stroke-linecap="round" stroke-linejoin="round"/>
<path d="M432.758 46.2129H444.66" stroke="black" stroke-width="1.08493" stroke-miterlimit="10" stroke-linecap="round" stroke-linejoin="round"/>
<path d="M432.758 50.3711H438.093" stroke="black" stroke-width="1.08493" stroke-miterlimit="10" stroke-linecap="round" stroke-linejoin="round"/>
<path d="M457.956 55.9477C457.956 59.6593 454.947 62.668 451.236 62.668C447.524 62.668 444.516 59.6593 444.516 55.9477C444.516 52.2362 447.524 49.2275 451.236 49.2275C454.947 49.2275 457.956 52.2362 457.956 55.9477Z" fill="#05E39C"/>
<path d="M448.354 55.9477C448.354 52.9033 450.379 50.3332 453.155 49.5071C452.547 49.326 451.903 49.2275 451.236 49.2275C447.524 49.2275 444.516 52.2362 444.516 55.9477C444.516 59.6593 447.524 62.668 451.236 62.668C451.903 62.668 452.547 62.5694 453.155 62.3884C450.379 61.5623 448.354 58.9922 448.354 55.9477Z" fill="#0ED290"/>
<path d="M457.956 55.9477C457.956 59.6593 454.947 62.668 451.236 62.668C447.524 62.668 444.516 59.6593 444.516 55.9477C444.516 52.2362 447.524 49.2275 451.236 49.2275C454.947 49.2275 457.956 52.2362 457.956 55.9477Z" stroke="black" stroke-width="1.08493" stroke-miterlimit="10" stroke-linecap="round" stroke-linejoin="round"/>
<path d="M448.203 55.2392L450.814 57.8496L454.278 54.3854" stroke="black" stroke-width="1.08493" stroke-miterlimit="10" stroke-linecap="round" stroke-linejoin="round"/>
<path d="M463.601 21.1678L465.269 19.4998C465.504 19.2657 465.53 18.8921 465.326 18.6314C464.744 17.8877 464.073 17.2171 463.33 16.6351C463.069 16.431 462.695 16.4573 462.461 16.6915L460.793 18.3595C460.588 18.5649 460.273 18.6083 460.016 18.4731C459.579 18.2435 459.118 18.0521 458.639 17.9031C458.362 17.8168 458.17 17.5638 458.17 17.2734V14.9135C458.17 14.5824 457.925 14.2997 457.596 14.2596C457.134 14.2032 456.662 14.1741 456.184 14.1741C455.706 14.1741 455.235 14.2032 454.772 14.2596C454.444 14.2997 454.199 14.5824 454.199 14.9135V17.2734C454.199 17.5638 454.007 17.8168 453.73 17.9031C453.251 18.0521 452.79 18.2435 452.353 18.4731C452.095 18.6083 451.781 18.5649 451.576 18.3595L449.908 16.6915C449.674 16.4573 449.3 16.431 449.039 16.6351C448.296 17.2171 447.625 17.8877 447.043 18.6314C446.839 18.8921 446.865 19.2657 447.1 19.4998L448.767 21.1678C448.973 21.3733 449.016 21.6875 448.881 21.9448C448.651 22.3822 448.46 22.8427 448.311 23.322C448.225 23.5993 447.972 23.7907 447.681 23.7907H445.321C444.99 23.7907 444.708 24.0358 444.668 24.3645C444.611 24.8272 444.582 25.2984 444.582 25.7765C444.582 26.2546 444.611 26.7256 444.668 27.1885C444.708 27.517 444.99 27.7622 445.321 27.7622H447.681C447.972 27.7622 448.225 27.9535 448.311 28.2309C448.46 28.7102 448.651 29.1708 448.881 29.6081C449.016 29.8655 448.973 30.1797 448.767 30.3852L447.1 32.0532C446.865 32.2873 446.839 32.6608 447.043 32.9216C447.625 33.6651 448.296 34.3359 449.039 34.918C449.3 35.122 449.674 35.0955 449.908 34.8614L451.576 33.1934C451.781 32.9879 452.095 32.9447 452.353 33.0798C452.79 33.3095 453.251 33.5009 453.73 33.6499C454.007 33.7362 454.199 33.989 454.199 34.2795V36.6395C454.199 36.9705 454.444 37.2534 454.772 37.2933C455.235 37.3496 455.706 37.3789 456.184 37.3789C456.662 37.3789 457.134 37.3496 457.596 37.2933C457.925 37.2534 458.17 36.9705 458.17 36.6395V34.2795C458.17 33.989 458.362 33.7362 458.639 33.6499C459.118 33.5009 459.579 33.3095 460.016 33.0798C460.273 32.9447 460.588 32.9879 460.793 33.1934L462.461 34.8614C462.695 35.0955 463.069 35.122 463.33 34.918C464.073 34.3359 464.744 33.6651 465.326 32.9216C465.53 32.6608 465.504 32.2873 465.269 32.0532L463.601 30.3852C463.396 30.1797 463.353 29.8655 463.488 29.6081C463.717 29.1708 463.909 28.7102 464.058 28.2309C464.144 27.9535 464.397 27.7622 464.687 27.7622H467.047C467.378 27.7622 467.661 27.517 467.701 27.1885C467.758 26.7256 467.787 26.2546 467.787 25.7765C467.787 25.2984 467.758 24.8272 467.701 24.3645C467.661 24.0358 467.378 23.7907 467.047 23.7907H464.687C464.397 23.7907 464.144 23.5993 464.058 23.322C463.909 22.8427 463.717 22.3822 463.488 21.9448C463.353 21.6875 463.396 21.3733 463.601 21.1678Z" fill="#7CA1B1"/>
<path d="M452.187 25.7765C452.187 21.8901 454.699 18.5927 458.187 17.4138C458.177 17.3682 458.17 17.3217 458.17 17.2734V14.9135C458.17 14.5824 457.925 14.2997 457.596 14.2596C457.134 14.2032 456.663 14.1741 456.184 14.1741C455.707 14.1741 455.235 14.2032 454.773 14.2596C454.444 14.2997 454.199 14.5824 454.199 14.9135V17.2734C454.199 17.5639 454.007 17.8168 453.73 17.9031C453.251 18.0522 452.79 18.2435 452.353 18.4731C452.096 18.6083 451.781 18.565 451.576 18.3595L449.908 16.6915C449.674 16.4574 449.3 16.431 449.039 16.6351C448.296 17.2171 447.625 17.8879 447.043 18.6314C446.839 18.8921 446.865 19.2657 447.1 19.4998L448.767 21.1678C448.973 21.3733 449.016 21.6875 448.881 21.9448C448.651 22.3822 448.46 22.8427 448.311 23.322C448.225 23.5994 447.972 23.7907 447.681 23.7907H445.321C444.991 23.7907 444.708 24.0359 444.668 24.3645C444.611 24.8273 444.582 25.2985 444.582 25.7765C444.582 26.2545 444.611 26.7256 444.668 27.1885C444.708 27.517 444.991 27.7622 445.321 27.7622H447.681C447.972 27.7622 448.225 27.9535 448.311 28.2309C448.46 28.7102 448.651 29.1708 448.881 29.6081C449.016 29.8655 448.973 30.1797 448.767 30.3852L447.1 32.0532C446.865 32.2873 446.839 32.6609 447.043 32.9216C447.625 33.6651 448.296 34.3359 449.039 34.918C449.3 35.122 449.674 35.0955 449.908 34.8614L451.576 33.1934C451.781 32.9879 452.096 32.9447 452.353 33.0798C452.79 33.3095 453.251 33.5009 453.73 33.6499C454.007 33.7362 454.199 33.989 454.199 34.2796V36.6395C454.199 36.9705 454.444 37.2534 454.773 37.2933C455.235 37.3497 455.707 37.3789 456.184 37.3789C456.663 37.3789 457.134 37.3497 457.596 37.2933C457.925 37.2534 458.17 36.9705 458.17 36.6395V34.2796C458.17 34.2313 458.177 34.1847 458.187 34.1392C454.699 32.9602 452.187 29.6628 452.187 25.7765Z" fill="#678D98"/>
<path d="M463.601 21.1678L465.269 19.4998C465.504 19.2657 465.53 18.8921 465.326 18.6314C464.744 17.8877 464.073 17.2171 463.33 16.6351C463.069 16.431 462.695 16.4573 462.461 16.6915L460.793 18.3595C460.588 18.5649 460.273 18.6083 460.016 18.4731C459.579 18.2435 459.118 18.0521 458.639 17.9031C458.362 17.8168 458.17 17.5638 458.17 17.2734V14.9135C458.17 14.5824 457.925 14.2997 457.596 14.2596C457.134 14.2032 456.662 14.1741 456.184 14.1741C455.706 14.1741 455.235 14.2032 454.772 14.2596C454.444 14.2997 454.199 14.5824 454.199 14.9135V17.2734C454.199 17.5638 454.007 17.8168 453.73 17.9031C453.251 18.0521 452.79 18.2435 452.353 18.4731C452.095 18.6083 451.781 18.5649 451.576 18.3595L449.908 16.6915C449.674 16.4573 449.3 16.431 449.039 16.6351C448.296 17.2171 447.625 17.8877 447.043 18.6314C446.839 18.8921 446.865 19.2657 447.1 19.4998L448.767 21.1678C448.973 21.3733 449.016 21.6875 448.881 21.9448C448.651 22.3822 448.46 22.8427 448.311 23.322C448.225 23.5993 447.972 23.7907 447.681 23.7907H445.321C444.99 23.7907 444.708 24.0358 444.668 24.3645C444.611 24.8272 444.582 25.2984 444.582 25.7765C444.582 26.2546 444.611 26.7256 444.668 27.1885C444.708 27.517 444.99 27.7622 445.321 27.7622H447.681C447.972 27.7622 448.225 27.9535 448.311 28.2309C448.46 28.7102 448.651 29.1708 448.881 29.6081C449.016 29.8655 448.973 30.1797 448.767 30.3852L447.1 32.0532C446.865 32.2873 446.839 32.6608 447.043 32.9216C447.625 33.6651 448.296 34.3359 449.039 34.918C449.3 35.122 449.674 35.0955 449.908 34.8614L451.576 33.1934C451.781 32.9879 452.095 32.9447 452.353 33.0798C452.79 33.3095 453.251 33.5009 453.73 33.6499C454.007 33.7362 454.199 33.989 454.199 34.2795V36.6395C454.199 36.9705 454.444 37.2534 454.772 37.2933C455.235 37.3496 455.706 37.3789 456.184 37.3789C456.662 37.3789 457.134 37.3496 457.596 37.2933C457.925 37.2534 458.17 36.9705 458.17 36.6395V34.2795C458.17 33.989 458.362 33.7362 458.639 33.6499C459.118 33.5009 459.579 33.3095 460.016 33.0798C460.273 32.9447 460.588 32.9879 460.793 33.1934L462.461 34.8614C462.695 35.0955 463.069 35.122 463.33 34.918C464.073 34.3359 464.744 33.6651 465.326 32.9216C465.53 32.6608 465.504 32.2873 465.269 32.0532L463.601 30.3852C463.396 30.1797 463.353 29.8655 463.488 29.6081C463.717 29.1708 463.909 28.7102 464.058 28.2309C464.144 27.9535 464.397 27.7622 464.687 27.7622H467.047C467.378 27.7622 467.661 27.517 467.701 27.1885C467.758 26.7256 467.787 26.2546 467.787 25.7765C467.787 25.2984 467.758 24.8272 467.701 24.3645C467.661 24.0358 467.378 23.7907 467.047 23.7907H464.687C464.397 23.7907 464.144 23.5993 464.058 23.322C463.909 22.8427 463.717 22.3822 463.488 21.9448C463.353 21.6875 463.396 21.3733 463.601 21.1678Z" stroke="black" stroke-width="1.08493" stroke-miterlimit="10" stroke-linecap="round" stroke-linejoin="round"/>
<path d="M461.385 25.7774C461.385 28.6505 459.056 30.9795 456.183 30.9795C453.31 30.9795 450.98 28.6505 450.98 25.7774C450.98 22.9044 453.31 20.5752 456.183 20.5752C459.056 20.5752 461.385 22.9044 461.385 25.7774Z" fill="#3E5959"/>
<path d="M453.901 25.7774C453.901 23.4115 455.481 21.4158 457.643 20.7845C457.179 20.6491 456.69 20.5752 456.183 20.5752C453.31 20.5752 450.98 22.9044 450.98 25.7774C450.98 28.6505 453.31 30.9795 456.183 30.9795C456.69 30.9795 457.179 30.9056 457.643 30.7703C455.481 30.1389 453.901 28.1432 453.901 25.7774Z" fill="#384848"/>
<path d="M458.031 20.9145C457.457 20.6959 456.834 20.5751 456.183 20.5751C453.31 20.5751 450.98 22.9042 450.98 25.7774C450.98 28.6504 453.31 30.9795 456.183 30.9795C459.056 30.9795 461.385 28.6504 461.385 25.7774C461.385 25.0272 461.225 24.3149 460.939 23.6707" stroke="black" stroke-width="1.08493" stroke-miterlimit="10" stroke-linecap="round" stroke-linejoin="round"/>
<path d="M457.991 25.7769C457.991 26.7744 457.183 27.583 456.185 27.583C455.188 27.583 454.379 26.7744 454.379 25.7769C454.379 24.7795 455.188 23.9708 456.185 23.9708C457.183 23.9708 457.991 24.7795 457.991 25.7769Z" fill="white"/>
<path d="M457.991 25.7769C457.991 26.7744 457.183 27.583 456.185 27.583C455.188 27.583 454.379 26.7744 454.379 25.7769C454.379 24.7795 455.188 23.9708 456.185 23.9708C457.183 23.9708 457.991 24.7795 457.991 25.7769Z" stroke="black" stroke-width="1.08493" stroke-miterlimit="10" stroke-linecap="round" stroke-linejoin="round"/>
<path d="M482.45 49.0752H462.865C462.549 49.0752 462.293 48.819 462.293 48.5031V42.244C462.293 41.928 462.549 41.6718 462.865 41.6718H482.45C482.766 41.6718 483.022 41.928 483.022 42.244V48.5031C483.022 48.819 482.766 49.0752 482.45 49.0752Z" fill="#01D0FB"/>
<path d="M466.145 48.5031V42.244C466.145 41.928 466.401 41.6718 466.717 41.6718H462.865C462.549 41.6718 462.293 41.928 462.293 42.244V48.5031C462.293 48.819 462.549 49.0752 462.865 49.0752H466.717C466.401 49.0752 466.145 48.819 466.145 48.5031Z" fill="#01C1FA"/>
<path d="M482.45 49.0752H462.865C462.549 49.0752 462.293 48.819 462.293 48.5031V42.244C462.293 41.928 462.549 41.6718 462.865 41.6718H482.45C482.766 41.6718 483.022 41.928 483.022 42.244V48.5031C483.022 48.819 482.766 49.0752 482.45 49.0752Z" stroke="black" stroke-width="1.08493" stroke-miterlimit="10" stroke-linecap="round" stroke-linejoin="round"/>
<path d="M466.367 45.374H478.953" stroke="black" stroke-width="1.08493" stroke-miterlimit="10" stroke-linecap="round" stroke-linejoin="round"/>
<path d="M482.45 59.916H462.865C462.549 59.916 462.293 59.6599 462.293 59.3439V53.0848C462.293 52.7689 462.549 52.5127 462.865 52.5127H482.45C482.766 52.5127 483.022 52.7689 483.022 53.0848V59.3439C483.022 59.6599 482.766 59.916 482.45 59.916Z" fill="#FED402"/>
<path d="M466.145 59.3439V53.0848C466.145 52.7689 466.401 52.5127 466.717 52.5127H462.865C462.549 52.5127 462.293 52.7689 462.293 53.0848V59.3439C462.293 59.6599 462.549 59.916 462.865 59.916H466.717C466.401 59.916 466.145 59.6599 466.145 59.3439Z" fill="#FAC600"/>
<path d="M479.761 59.916H482.45C482.766 59.916 483.022 59.6599 483.022 59.3439V53.0848C483.022 52.7689 482.766 52.5127 482.45 52.5127H462.865C462.549 52.5127 462.293 52.7689 462.293 53.0848V59.3439C462.293 59.6599 462.549 59.916 462.865 59.916H475.756" stroke="black" stroke-width="1.08493" stroke-miterlimit="10" stroke-linecap="round" stroke-linejoin="round"/>
<path d="M466.367 56.2148H478.953" stroke="black" stroke-width="1.08493" stroke-miterlimit="10" stroke-linecap="round" stroke-linejoin="round"/>
<path d="M482.45 70.7568H462.865C462.549 70.7568 462.293 70.5006 462.293 70.1847V63.9256C462.293 63.6096 462.549 63.3535 462.865 63.3535H482.45C482.766 63.3535 483.022 63.6096 483.022 63.9256V70.1847C483.022 70.5006 482.766 70.7568 482.45 70.7568Z" fill="#FD5426"/>
<path d="M466.145 70.1847V63.9256C466.145 63.6096 466.401 63.3535 466.717 63.3535H462.865C462.549 63.3535 462.293 63.6096 462.293 63.9256V70.1847C462.293 70.5006 462.549 70.7568 462.865 70.7568H466.717C466.401 70.7568 466.145 70.5006 466.145 70.1847Z" fill="#EF4423"/>
<path d="M482.45 70.7568H462.865C462.549 70.7568 462.293 70.5006 462.293 70.1847V63.9256C462.293 63.6096 462.549 63.3535 462.865 63.3535H482.45C482.766 63.3535 483.022 63.6096 483.022 63.9256V70.1847C483.022 70.5006 482.766 70.7568 482.45 70.7568Z" stroke="black" stroke-width="1.08493" stroke-miterlimit="10" stroke-linecap="round" stroke-linejoin="round"/>
<path d="M466.367 67.0557H478.953" stroke="black" stroke-width="1.08493" stroke-miterlimit="10" stroke-linecap="round" stroke-linejoin="round"/>
</g>
</g>
<line x1="424.008" y1="225.237" x2="289.477" y2="172.076" stroke="#C3D0E2" stroke-width="1.08493" stroke-dasharray="5.17 5.17"/>
<line x1="195.086" y1="101.555" x2="60.555" y2="48.3939" stroke="#C3D0E2" stroke-width="1.08493" stroke-dasharray="5.17 5.17"/>
<path opacity="0.05" d="M249.939 222.29C297.499 222.29 336.054 183.735 336.054 136.175C336.054 88.6146 297.499 50.0596 249.939 50.0596C202.379 50.0596 163.824 88.6146 163.824 136.175C163.824 183.735 202.379 222.29 249.939 222.29Z" fill="#797DA7"/>
<path opacity="0.15" d="M249.95 216.035C294.056 216.035 329.81 180.28 329.81 136.175C329.81 92.0691 294.056 56.3145 249.95 56.3145C205.844 56.3145 170.09 92.0691 170.09 136.175C170.09 180.28 205.844 216.035 249.95 216.035Z" fill="#F7F7FF"/>
<path opacity="0.9" d="M314.236 151.384C322.62 115.876 300.632 80.2944 265.124 71.91C229.616 63.5256 194.035 85.5135 185.65 121.022C177.266 156.53 199.254 192.111 234.762 200.496C270.27 208.88 305.852 186.892 314.236 151.384Z" fill="#DFE0EB"/>
<path opacity="0.2" d="M297.812 141.192C297.491 140.477 296.646 140.155 295.924 140.473C295.202 140.791 294.877 141.629 295.198 142.344C295.963 144.05 295.193 146.052 293.48 146.807C292.647 147.174 291.718 147.198 290.866 146.873C290.015 146.548 289.341 145.915 288.971 145.089C288.65 144.373 287.804 144.051 287.083 144.37C286.361 144.688 286.036 145.526 286.357 146.241C287.038 147.759 288.275 148.924 289.841 149.52C290.572 149.798 291.334 149.937 292.095 149.937C292.361 149.937 292.627 149.92 292.891 149.886C293.315 153.479 291.939 157.294 289.242 159.736C286.265 162.431 281.75 163.387 277.914 162.158L277.592 161.061C277.089 159.35 276.063 157.88 274.625 156.81C273.187 155.74 271.476 155.175 269.678 155.175H265.377C265.844 153.926 266.15 152.616 266.288 151.269C267.184 150.939 268.064 150.582 268.927 150.197C274.433 147.74 279.151 144.189 282.568 139.932C286.588 134.947 288.713 129.143 288.713 123.148C288.713 117.152 286.588 111.348 282.57 106.365C279.151 102.106 274.433 98.5557 268.927 96.0989C266.143 94.8567 263.172 93.8982 260.098 93.2507C257.393 92.6808 254.604 92.352 251.789 92.2683V87.4959C253.41 87.2112 254.902 86.4459 256.089 85.2709C257.62 83.7555 258.464 81.7397 258.464 79.5952C258.464 75.1612 254.825 71.5537 250.351 71.5537C245.877 71.5537 242.253 75.1612 242.253 79.5952C242.253 83.5398 245.139 86.8285 248.928 87.4968V92.2679C246.108 92.3511 243.314 92.6799 240.605 93.2502C237.529 93.8978 234.556 94.8562 231.771 96.0984C226.264 98.5548 221.546 102.105 218.128 106.363C214.108 111.347 211.983 117.152 211.983 123.147C211.983 129.143 214.108 134.947 218.126 139.93C221.546 144.19 226.264 147.74 231.771 150.196C232.633 150.581 233.513 150.938 234.408 151.267C234.545 152.614 234.852 153.925 235.318 155.174H231C229.202 155.174 227.491 155.739 226.053 156.809C224.615 157.879 223.589 159.349 223.087 161.06L222.729 162.277C218.984 163.318 214.676 162.337 211.801 159.735C209.103 157.293 207.728 153.477 208.152 149.883C208.416 149.917 208.679 149.933 208.941 149.933C211.347 149.933 213.647 148.555 214.686 146.24C215.007 145.524 214.682 144.687 213.96 144.369C213.238 144.051 212.393 144.372 212.072 145.088C211.507 146.348 210.255 147.098 208.946 147.098C208.483 147.098 208.012 147.004 207.562 146.806C205.85 146.051 205.079 144.049 205.844 142.343C206.165 141.628 205.84 140.79 205.118 140.472C204.397 140.154 203.551 140.476 203.23 141.191C201.98 143.976 202.964 147.193 205.412 148.85C205.044 150.982 205.186 153.214 205.835 155.37C206.594 157.891 207.99 160.125 209.871 161.829C211.753 163.532 214.123 164.708 216.726 165.229C217.71 165.426 218.7 165.524 219.681 165.524C220.402 165.524 221.117 165.471 221.822 165.365L221.34 167.008C220.565 169.647 221.075 172.422 222.74 174.621C224.405 176.82 226.95 178.081 229.723 178.081H270.954C273.727 178.081 276.273 176.82 277.937 174.621C279.602 172.422 280.112 169.647 279.337 167.008L278.836 165.302C279.664 165.45 280.509 165.524 281.362 165.524C282.342 165.524 283.332 165.426 284.316 165.229C286.919 164.708 289.289 163.532 291.171 161.829C293.053 160.125 294.448 157.892 295.207 155.37C295.856 153.214 295.998 150.982 295.63 148.85C298.078 147.193 299.062 143.976 297.813 141.191L297.812 141.192Z" fill="#2F434C"/>
<path d="M284.959 120.849C284.959 126.706 282.824 132.164 279.127 136.749C272.567 144.921 261.089 150.333 248.032 150.333C234.975 150.333 223.481 144.921 216.922 136.749C213.224 132.164 211.09 126.707 211.09 120.849C211.09 114.992 213.225 109.534 216.922 104.949C223.481 96.7779 234.96 91.3652 248.032 91.3652C261.104 91.3652 272.567 96.7774 279.127 104.949C282.824 109.534 284.959 114.992 284.959 120.849Z" fill="white"/>
<path d="M284.961 120.849C284.961 126.706 282.826 132.164 279.129 136.749C275.431 132.164 273.297 126.706 273.297 120.849C273.297 114.992 275.432 109.534 279.129 104.949C282.826 109.534 284.961 114.992 284.961 120.849Z" fill="#A3CBE4"/>
<path opacity="0.1" d="M284.961 120.853C284.961 126.702 282.819 132.161 279.124 136.747C272.569 144.912 261.093 150.339 248.032 150.339C234.97 150.339 223.478 144.912 216.922 136.747C215.255 134.689 213.915 132.437 212.934 130.071C219.554 137.799 230.72 142.887 243.372 142.887C256.025 142.887 267.91 137.459 274.465 129.293C278.159 124.708 280.301 119.248 280.301 113.399C280.301 110.175 279.647 107.064 278.453 104.164C278.699 104.423 278.911 104.683 279.124 104.942C282.818 109.527 284.96 114.987 284.96 120.852L284.961 120.853Z" fill="black"/>
<path d="M222.754 120.849C222.754 126.706 220.619 132.164 216.922 136.749C213.224 132.164 211.09 126.706 211.09 120.849C211.09 114.992 213.225 109.534 216.922 104.949C220.619 109.534 222.754 114.992 222.754 120.849Z" fill="#A3CBE4"/>
<path d="M254.714 77.2964C254.714 80.9458 251.729 83.9048 248.031 83.9048C244.334 83.9048 241.363 80.9458 241.363 77.2964C241.363 73.6471 244.349 70.6729 248.031 70.6729C251.713 70.6729 254.714 73.6475 254.714 77.2964Z" fill="white"/>
<path opacity="0.1" d="M254.723 77.3022C254.723 80.9474 251.732 83.8958 248.037 83.8958C245.176 83.8958 242.757 82.1303 241.809 79.6348C242.528 79.9103 243.329 80.0561 244.146 80.0561C247.841 80.0561 250.833 77.0911 250.833 73.4454C250.833 72.619 250.686 71.8413 250.391 71.1123C252.925 72.0358 254.724 74.4664 254.724 77.3017L254.723 77.3022Z" fill="black"/>
<path d="M241.598 120.842C241.598 124.224 238.829 126.954 235.43 126.954C232.032 126.954 229.277 124.224 229.277 120.842C229.277 117.459 232.032 114.743 235.43 114.743C238.829 114.743 241.598 117.473 241.598 120.842Z" fill="#A3CBE4"/>
<path d="M266.789 120.842C266.789 124.224 264.021 126.954 260.622 126.954C257.223 126.954 254.469 124.224 254.469 120.842C254.469 117.459 257.223 114.743 260.622 114.743C264.021 114.743 266.789 117.473 266.789 120.842Z" fill="#A3CBE4"/>
<g opacity="0.1">
<path d="M241.594 120.837C241.594 124.224 238.831 126.962 235.431 126.962C232.669 126.962 230.331 125.163 229.562 122.684C230.135 122.862 230.756 122.96 231.394 122.96C234.794 122.96 237.556 120.222 237.556 116.852C237.556 116.22 237.459 115.604 237.279 115.037C239.78 115.799 241.594 118.1 241.594 120.837Z" fill="black"/>
<path d="M266.785 120.837C266.785 124.224 264.023 126.962 260.623 126.962C257.86 126.962 255.522 125.163 254.754 122.684C255.326 122.862 255.947 122.96 256.585 122.96C259.985 122.96 262.748 120.222 262.748 116.852C262.748 116.22 262.65 115.604 262.47 115.037C264.971 115.799 266.785 118.1 266.785 120.837Z" fill="black"/>
</g>
<path d="M262.6 147.942C262.535 149.676 262.159 151.345 261.505 152.868C259.347 158.117 254.116 161.811 248.018 161.811C241.92 161.811 236.722 158.117 234.548 152.868C233.894 151.345 233.519 149.676 233.453 147.942C237.916 149.482 242.836 150.34 248.035 150.34C253.234 150.34 258.138 149.482 262.601 147.942H262.6Z" fill="white"/>
<path opacity="0.1" d="M262.6 147.942C262.535 149.676 262.159 151.345 261.505 152.868C257.238 154.083 252.694 154.715 248.035 154.715C243.376 154.715 238.815 154.084 234.548 152.868C233.894 151.345 233.519 149.676 233.453 147.942C237.916 149.482 242.836 150.34 248.035 150.34C253.234 150.34 258.138 149.482 262.601 147.942H262.6Z" fill="black"/>
<path d="M275.644 165.106L273.898 159.158C273.051 156.276 270.386 154.294 267.357 154.294H260.828C258.352 158.776 253.555 161.809 248.019 161.809C242.482 161.809 237.702 158.776 235.226 154.294H228.68C225.651 154.294 222.986 156.276 222.14 159.158L220.393 165.106C219.033 169.736 222.538 174.365 227.404 174.365H268.634C273.5 174.365 277.004 169.737 275.645 165.106H275.644Z" fill="white"/>
<path opacity="0.1" d="M268.63 174.367H227.403C224.673 174.367 222.384 172.909 221.125 170.819C221.566 170.899 222.041 170.949 222.515 170.949H263.743C268.614 170.949 272.113 166.315 270.756 161.697L269.007 155.751C268.86 155.265 268.68 154.811 268.435 154.39C271.001 154.778 273.143 156.626 273.894 159.153L275.643 165.099C277 169.733 273.502 174.367 268.63 174.367V174.367Z" fill="black"/>
<path d="M284.959 120.849C284.959 126.706 282.824 132.164 279.127 136.749C272.567 144.921 261.089 150.333 248.032 150.333C234.975 150.333 223.481 144.921 216.922 136.749C213.224 132.164 211.09 126.707 211.09 120.849C211.09 114.992 213.225 109.534 216.922 104.949C223.481 96.7779 234.96 91.3652 248.032 91.3652C261.104 91.3652 272.567 96.7774 279.127 104.949C282.824 109.534 284.959 114.992 284.959 120.849Z" stroke="#2F434C" stroke-width="1.08493" stroke-linecap="round" stroke-linejoin="round"/>
<path d="M248.039 91.3649V83.9121" stroke="#2F434C" stroke-width="1.08493" stroke-linecap="round" stroke-linejoin="round"/>
<path d="M254.714 77.2964C254.714 80.9458 251.729 83.9048 248.031 83.9048C244.334 83.9048 241.363 80.9458 241.363 77.2964C241.363 73.6471 244.349 70.6729 248.031 70.6729C251.713 70.6729 254.714 73.6475 254.714 77.2964Z" stroke="#2F434C" stroke-width="1.08493" stroke-linecap="round" stroke-linejoin="round"/>
<path d="M262.606 147.941C262.296 155.654 255.892 161.817 248.018 161.817C240.144 161.817 233.755 155.654 233.445 147.941C237.916 149.49 242.836 150.333 248.033 150.333C253.231 150.333 258.135 149.49 262.606 147.941Z" stroke="#2F434C" stroke-width="1.08493" stroke-linecap="round" stroke-linejoin="round"/>
<path d="M275.644 165.106L273.898 159.158C273.051 156.276 270.386 154.294 267.357 154.294H260.828C258.352 158.776 253.555 161.809 248.019 161.809C242.482 161.809 237.702 158.776 235.226 154.294H228.68C225.651 154.294 222.986 156.276 222.14 159.158L220.393 165.106C219.033 169.736 222.538 174.365 227.404 174.365H268.634C273.5 174.365 277.004 169.737 275.645 165.106H275.644Z" stroke="#2F434C" stroke-width="1.08493" stroke-linecap="round" stroke-linejoin="round"/>
<path d="M262.246 165.884H266.783" stroke="#2F434C" stroke-width="1.08493" stroke-linecap="round" stroke-linejoin="round"/>
<path d="M274.824 161.098C279.221 162.646 284.44 161.601 287.884 158.483C291.329 155.364 292.85 150.307 291.692 145.828" stroke="#2F434C" stroke-width="1.08493" stroke-linecap="round" stroke-linejoin="round"/>
<path d="M294.186 139.469C295.273 141.892 294.172 144.731 291.741 145.803C289.296 146.88 286.431 145.789 285.344 143.366" stroke="#2F434C" stroke-width="1.08493" stroke-linecap="round" stroke-linejoin="round"/>
<path d="M221.575 161.098C217.179 162.646 211.96 161.601 208.515 158.483C205.071 155.364 203.549 150.307 204.708 145.828" stroke="#2F434C" stroke-width="1.08493" stroke-linecap="round" stroke-linejoin="round"/>
<path d="M202.216 139.469C201.129 141.892 202.23 144.731 204.66 145.803C207.106 146.88 209.971 145.789 211.058 143.366" stroke="#2F434C" stroke-width="1.08493" stroke-linecap="round" stroke-linejoin="round"/>
<circle cx="44.4791" cy="43.5494" r="43.397" fill="#F3F4FF"/>
<path d="M19.7617 45.0413H41.7315V50.5338H19.7617V45.0413ZM47.2239 45.0413V50.5338H69.1936V45.0413H47.2239ZM37.1544 32.2256H50.8855C54.5471 32.2256 56.378 29.9737 56.378 27.1909C56.378 22.1562 51.2975 22.1562 51.27 22.1562C50.6913 20.7267 49.6762 19.5164 48.3695 18.6975C47.0628 17.8785 45.5309 17.4928 43.9922 17.5953C42.4535 17.6977 40.9863 18.2831 39.7997 19.268C38.613 20.253 37.7674 21.5872 37.3833 23.0807C37.3101 23.0716 32.5774 23.987 32.5774 27.6486C32.5778 28.8624 33.0602 30.0263 33.9185 30.8846C34.7767 31.7428 35.9407 32.2252 37.1544 32.2256Z" fill="#CDEEF6"/>
<path d="M69.195 44.1262H47.2252C46.9825 44.1262 46.7496 44.2227 46.578 44.3944C46.4063 44.566 46.3098 44.7989 46.3098 45.0417V65.1806C46.3098 65.4234 46.4063 65.6562 46.578 65.8279C46.7496 65.9995 46.9825 66.096 47.2252 66.096H69.195C69.4378 66.096 69.6706 65.9995 69.8423 65.8279C70.014 65.6562 70.1104 65.4234 70.1104 65.1806V45.0417C70.1104 44.7989 70.014 44.566 69.8423 44.3944C69.6706 44.2227 69.4378 44.1262 69.195 44.1262ZM68.2796 45.9571V49.6187H48.1406V45.9571H68.2796ZM48.1406 64.2652V51.4495H68.2796V64.2652H48.1406ZM49.0561 47.7879C49.0561 47.6068 49.1097 47.4298 49.2103 47.2793C49.3109 47.1288 49.4539 47.0114 49.6212 46.9421C49.7884 46.8729 49.9725 46.8547 50.15 46.8901C50.3276 46.9254 50.4907 47.0126 50.6188 47.1406C50.7468 47.2686 50.834 47.4317 50.8693 47.6093C50.9046 47.7869 50.8865 47.9709 50.8172 48.1382C50.7479 48.3054 50.6306 48.4484 50.48 48.549C50.3295 48.6496 50.1525 48.7033 49.9715 48.7033C49.7287 48.7033 49.4958 48.6068 49.3242 48.4352C49.1525 48.2635 49.0561 48.0306 49.0561 47.7879ZM51.8023 47.7879C51.8023 47.6068 51.856 47.4298 51.9565 47.2793C52.0571 47.1288 52.2001 47.0114 52.3674 46.9421C52.5346 46.8729 52.7187 46.8547 52.8963 46.8901C53.0738 46.9254 53.2369 47.0126 53.365 47.1406C53.493 47.2686 53.5802 47.4317 53.6155 47.6093C53.6508 47.7869 53.6327 47.9709 53.5634 48.1382C53.4941 48.3054 53.3768 48.4484 53.2262 48.549C53.0757 48.6496 52.8987 48.7033 52.7177 48.7033C52.4749 48.7033 52.2421 48.6068 52.0704 48.4352C51.8987 48.2635 51.8023 48.0306 51.8023 47.7879ZM54.5485 47.7879C54.5485 47.6068 54.6022 47.4298 54.7028 47.2793C54.8034 47.1288 54.9463 47.0114 55.1136 46.9421C55.2809 46.8729 55.4649 46.8547 55.6425 46.8901C55.8201 46.9254 55.9832 47.0126 56.1112 47.1406C56.2392 47.2686 56.3264 47.4317 56.3617 47.6093C56.397 47.7869 56.3789 47.9709 56.3096 48.1382C56.2403 48.3054 56.123 48.4484 55.9725 48.549C55.8219 48.6496 55.6449 48.7033 55.4639 48.7033C55.2211 48.7033 54.9883 48.6068 54.8166 48.4352C54.6449 48.2635 54.5485 48.0306 54.5485 47.7879ZM41.7328 44.1262H19.7631C19.5203 44.1262 19.2874 44.2227 19.1158 44.3944C18.9441 44.566 18.8477 44.7989 18.8477 45.0417V65.1806C18.8477 65.4234 18.9441 65.6562 19.1158 65.8279C19.2874 65.9995 19.5203 66.096 19.7631 66.096H41.7328C41.9756 66.096 42.2084 65.9995 42.3801 65.8279C42.5518 65.6562 42.6482 65.4234 42.6482 65.1806V45.0417C42.6482 44.7989 42.5518 44.566 42.3801 44.3944C42.2084 44.2227 41.9756 44.1262 41.7328 44.1262ZM40.8174 45.9571V49.6187H20.6785V45.9571H40.8174ZM20.6785 64.2652V51.4495H40.8174V64.2652H20.6785ZM21.5939 47.7879C21.5939 47.6068 21.6476 47.4298 21.7481 47.2793C21.8487 47.1288 21.9917 47.0114 22.159 46.9421C22.3262 46.8729 22.5103 46.8547 22.6879 46.8901C22.8654 46.9254 23.0285 47.0126 23.1566 47.1406C23.2846 47.2686 23.3718 47.4317 23.4071 47.6093C23.4424 47.7869 23.4243 47.9709 23.355 48.1382C23.2857 48.3054 23.1684 48.4484 23.0179 48.549C22.8673 48.6496 22.6903 48.7033 22.5093 48.7033C22.2665 48.7033 22.0337 48.6068 21.862 48.4352C21.6903 48.2635 21.5939 48.0306 21.5939 47.7879ZM24.3401 47.7879C24.3401 47.6068 24.3938 47.4298 24.4944 47.2793C24.595 47.1288 24.7379 47.0114 24.9052 46.9421C25.0725 46.8729 25.2565 46.8547 25.4341 46.8901C25.6117 46.9254 25.7748 47.0126 25.9028 47.1406C26.0308 47.2686 26.118 47.4317 26.1533 47.6093C26.1886 47.7869 26.1705 47.9709 26.1012 48.1382C26.0319 48.3054 25.9146 48.4484 25.7641 48.549C25.6135 48.6496 25.4365 48.7033 25.2555 48.7033C25.0127 48.7033 24.7799 48.6068 24.6082 48.4352C24.4365 48.2635 24.3401 48.0306 24.3401 47.7879ZM27.0863 47.7879C27.0863 47.6068 27.14 47.4298 27.2406 47.2793C27.3412 47.1288 27.4841 47.0114 27.6514 46.9421C27.8187 46.8729 28.0027 46.8547 28.1803 46.8901C28.3579 46.9254 28.521 47.0126 28.649 47.1406C28.777 47.2686 28.8642 47.4317 28.8995 47.6093C28.9349 47.7869 28.9167 47.9709 28.8474 48.1382C28.7782 48.3054 28.6608 48.4484 28.5103 48.549C28.3598 48.6496 28.1828 48.7033 28.0017 48.7033C27.7589 48.7033 27.5261 48.6068 27.3544 48.4352C27.1828 48.2635 27.0863 48.0306 27.0863 47.7879ZM57.2947 38.6338H31.6633V41.38C31.6633 41.6228 31.5669 41.8556 31.3952 42.0273C31.2236 42.199 30.9907 42.2954 30.7479 42.2954C30.5052 42.2954 30.2723 42.199 30.1006 42.0273C29.929 41.8556 29.8325 41.6228 29.8325 41.38V37.7184C29.8325 37.4756 29.929 37.2428 30.1006 37.0711C30.2723 36.8994 30.5052 36.803 30.7479 36.803H43.5636V35.8876C43.5636 35.6448 43.6601 35.412 43.8317 35.2403C44.0034 35.0686 44.2362 34.9722 44.479 34.9722C44.7218 34.9722 44.9546 35.0686 45.1263 35.2403C45.298 35.412 45.3944 35.6448 45.3944 35.8876V36.803H58.2101C58.4529 36.803 58.6857 36.8994 58.8574 37.0711C59.0291 37.2428 59.1255 37.4756 59.1255 37.7184V41.38C59.1255 41.6228 59.0291 41.8556 58.8574 42.0273C58.6857 42.199 58.4529 42.2954 58.2101 42.2954C57.9673 42.2954 57.7345 42.199 57.5628 42.0273C57.3912 41.8556 57.2947 41.6228 57.2947 41.38V38.6338ZM37.1558 33.1414H50.8869C54.7192 33.1414 57.2947 30.7501 57.2947 27.1912C57.3562 25.6895 56.8212 24.2244 55.8064 23.1157C54.7917 22.007 53.3796 21.3446 51.8783 21.2733C51.1571 19.8049 50.0154 18.5844 48.5984 17.7669C47.1814 16.9495 45.5532 16.5722 43.9211 16.683C42.289 16.7938 40.7267 17.3877 39.4332 18.3892C38.1397 19.3907 37.1734 20.7543 36.6574 22.3067C35.7818 22.5346 31.6956 23.7827 31.6633 27.6489C31.662 28.3706 31.8032 29.0854 32.0787 29.7524C32.3543 30.4193 32.7588 31.0253 33.2691 31.5356C33.7794 32.0459 34.3854 32.4504 35.0523 32.726C35.7193 33.0015 36.4341 33.1427 37.1558 33.1414ZM37.4834 23.9909C37.6689 23.9707 37.8438 23.8944 37.9847 23.7721C38.1256 23.6498 38.2258 23.4874 38.2719 23.3066C38.6085 22 39.3487 20.8328 40.3873 19.9714C41.4258 19.11 42.7096 18.5982 44.0559 18.509C45.4022 18.4197 46.7424 18.7574 47.8856 19.4741C49.0288 20.1908 49.9167 21.25 50.4229 22.5007C50.4919 22.669 50.6093 22.813 50.7601 22.9147C50.9109 23.0164 51.0885 23.0711 51.2704 23.0719C51.6995 23.0741 55.4639 23.2082 55.4639 27.1912C55.4639 29.7707 53.7529 31.3106 50.8869 31.3106H37.1558C36.185 31.3095 35.2543 30.9233 34.5678 30.2369C33.8814 29.5504 33.4953 28.6197 33.4942 27.6489C33.4942 24.8352 37.2313 24.0405 37.4834 23.9909Z" fill="#4F83D1"/>
<circle cx="44.4791" cy="227.987" r="43.397" fill="#F3F4FF"/>
<path d="M66.4515 204.426H22.512C19.4838 204.426 17.0195 206.89 17.0195 209.918V240.222C17.0195 243.25 19.4838 245.714 22.512 245.714H36.3071L41.6238 252.347C42.3232 253.219 43.3631 253.719 44.4817 253.719C45.6003 253.719 46.6402 253.219 47.3396 252.347L52.6563 245.716H66.4515C69.4796 245.716 71.9439 243.252 71.9439 240.224V209.918C71.9439 206.89 69.4796 204.426 66.4515 204.426ZM68.2823 240.224C68.2823 241.232 67.4621 242.054 66.4515 242.054H51.7775C51.2209 242.054 50.6973 242.307 50.3495 242.741L44.4817 250.057L38.614 242.739C38.2661 242.305 37.7407 242.053 37.1859 242.053H22.512C21.5014 242.053 20.6812 241.231 20.6812 240.222V209.918C20.6812 208.909 21.5014 208.087 22.512 208.087H66.4515C67.4621 208.087 68.2823 208.909 68.2823 209.918V240.224Z" fill="#6621BA"/>
<path d="M43.5271 223.698L35.6345 216.716C34.8784 216.049 33.7195 216.115 33.0494 216.873C32.3793 217.631 32.4507 218.786 33.2068 219.458L39.5506 225.07L33.2087 230.683C32.4525 231.353 32.3811 232.51 33.0512 233.268C33.4137 233.678 33.9172 233.885 34.4225 233.885C34.8546 233.885 35.2885 233.733 35.6363 233.425L43.529 226.441C43.9207 226.093 44.1459 225.593 44.1459 225.07C44.1441 224.546 43.9189 224.046 43.5271 223.698Z" fill="#F98A17"/>
<path d="M54.5375 230.223H45.616C44.6035 230.223 43.7852 231.043 43.7852 232.053C43.7852 233.064 44.6035 233.884 45.616 233.884H54.5375C55.55 233.884 56.3683 233.064 56.3683 232.053C56.3683 231.043 55.55 230.223 54.5375 230.223Z" fill="#F98A17"/>
<circle cx="454.585" cy="230.157" r="43.397" fill="#F3F4FF"/>
<path d="M455.379 217.167C452.242 217.167 449.275 216.693 447.041 215.836C444.624 214.903 443.293 213.603 443.293 212.165C443.293 210.727 444.624 209.426 447.041 208.493C449.275 207.636 452.242 207.162 455.379 207.162C458.515 207.162 461.483 207.636 463.716 208.493C466.133 209.426 467.464 210.727 467.464 212.165C467.464 213.603 466.133 214.903 463.716 215.836C461.483 216.693 458.515 217.167 455.379 217.167ZM455.379 208.325C448.953 208.325 444.471 210.344 444.471 212.149C444.471 213.955 448.953 215.974 455.379 215.974C461.804 215.974 466.286 213.955 466.286 212.149C466.286 210.344 461.804 208.325 455.379 208.325Z" fill="#3A1C86"/>
<path d="M455.379 225.581C452.242 225.581 449.275 225.107 447.041 224.25C444.624 223.317 443.293 222.016 443.293 220.578C443.293 220.257 443.553 219.997 443.874 219.997C444.196 219.997 444.456 220.257 444.456 220.578C444.456 222.384 448.938 224.403 455.363 224.403C461.789 224.403 466.271 222.384 466.271 220.578C466.271 220.257 466.531 219.997 466.852 219.997C467.174 219.997 467.434 220.257 467.434 220.578C467.434 222.016 466.103 223.317 463.686 224.25C461.483 225.107 458.515 225.581 455.379 225.581Z" fill="#3A1C86"/>
<path d="M455.379 234.301C452.242 234.301 449.275 233.826 447.041 232.97C444.624 232.037 443.293 230.736 443.293 229.298C443.293 228.977 443.553 228.717 443.874 228.717C444.196 228.717 444.456 228.977 444.456 229.298C444.456 231.103 448.938 233.123 455.363 233.123C461.789 233.123 466.271 231.103 466.271 229.298C466.271 228.977 466.531 228.717 466.852 228.717C467.174 228.717 467.434 228.977 467.434 229.298C467.434 230.736 466.103 232.037 463.686 232.97C461.483 233.826 458.515 234.301 455.379 234.301Z" fill="#3A1C86"/>
<path d="M451.39 221.161C451.069 221.161 450.809 220.901 450.809 220.579C450.809 220.549 450.809 220.503 450.824 220.472C450.839 220.442 450.839 220.396 450.854 220.365C450.87 220.335 450.885 220.304 450.916 220.274C450.931 220.243 450.962 220.212 450.992 220.182C451.13 220.044 451.329 219.983 451.528 220.029C451.604 220.044 451.681 220.075 451.742 220.121C451.772 220.136 451.803 220.166 451.834 220.197C451.864 220.228 451.879 220.258 451.91 220.289C451.925 220.319 451.956 220.35 451.971 220.381C451.987 220.411 452.002 220.457 452.002 220.488C452.017 220.564 452.017 220.641 452.002 220.717C451.987 220.748 451.987 220.794 451.971 220.824C451.956 220.855 451.941 220.885 451.91 220.916C451.864 220.977 451.818 221.038 451.742 221.084C451.711 221.1 451.681 221.13 451.65 221.146C451.619 221.161 451.574 221.176 451.543 221.176C451.466 221.161 451.421 221.161 451.39 221.161Z" fill="#B75EDB"/>
<path d="M455.382 221.16C455.352 221.16 455.306 221.16 455.275 221.145C455.245 221.13 455.199 221.13 455.168 221.115C455.138 221.099 455.107 221.084 455.076 221.053C454.908 220.946 454.816 220.763 454.816 220.564C454.816 220.533 454.816 220.487 454.832 220.457C454.832 220.426 454.847 220.38 454.862 220.35C454.878 220.319 454.893 220.288 454.923 220.258C454.939 220.227 454.969 220.197 455 220.166C455.031 220.135 455.061 220.12 455.092 220.09C455.153 220.044 455.229 220.013 455.306 219.998C455.382 219.983 455.459 219.983 455.535 219.998C455.566 220.013 455.612 220.013 455.643 220.028C455.673 220.044 455.704 220.059 455.734 220.09C455.765 220.105 455.795 220.135 455.826 220.166C455.857 220.197 455.872 220.227 455.903 220.258C455.918 220.288 455.933 220.319 455.964 220.35C455.979 220.38 455.994 220.426 455.994 220.457C456.01 220.487 456.01 220.533 456.01 220.564C456.01 220.763 455.918 220.946 455.75 221.053C455.719 221.069 455.688 221.099 455.658 221.115C455.627 221.13 455.581 221.145 455.551 221.145C455.459 221.16 455.428 221.16 455.382 221.16Z" fill="#B75EDB"/>
<path d="M459.374 221.16C459.328 221.16 459.298 221.16 459.252 221.145C459.221 221.13 459.175 221.13 459.145 221.115C459.114 221.099 459.083 221.084 459.053 221.053C459.022 221.038 458.992 221.007 458.961 220.977C458.93 220.946 458.915 220.916 458.885 220.885C458.869 220.855 458.839 220.824 458.823 220.793C458.808 220.763 458.793 220.717 458.793 220.686C458.777 220.61 458.777 220.533 458.793 220.457C458.808 220.426 458.808 220.38 458.823 220.35C458.839 220.319 458.854 220.288 458.885 220.258C458.93 220.197 458.976 220.135 459.053 220.09C459.083 220.074 459.114 220.059 459.145 220.028C459.175 220.013 459.221 219.998 459.252 219.998C459.328 219.983 459.405 219.983 459.481 219.998C459.512 220.013 459.558 220.013 459.588 220.028C459.619 220.044 459.649 220.059 459.68 220.09C459.741 220.135 459.802 220.181 459.848 220.258C459.864 220.288 459.879 220.319 459.91 220.35C459.925 220.38 459.94 220.426 459.94 220.457C459.955 220.533 459.955 220.61 459.94 220.686C459.925 220.763 459.894 220.839 459.848 220.9C459.833 220.931 459.802 220.962 459.772 220.992C459.741 221.023 459.711 221.038 459.68 221.069C459.649 221.084 459.619 221.115 459.588 221.13C459.558 221.145 459.512 221.16 459.481 221.16C459.451 221.16 459.42 221.16 459.374 221.16Z" fill="#B75EDB"/>
<path d="M451.39 229.574C451.359 229.574 451.313 229.574 451.283 229.559C451.252 229.544 451.206 229.544 451.176 229.528C451.145 229.513 451.115 229.498 451.084 229.467C451.053 229.452 451.023 229.421 450.992 229.391C450.962 229.36 450.946 229.329 450.916 229.299C450.87 229.238 450.839 229.161 450.824 229.085C450.809 229.054 450.809 229.008 450.809 228.962C450.809 228.932 450.809 228.886 450.824 228.855C450.839 228.825 450.839 228.779 450.854 228.748C450.87 228.718 450.885 228.687 450.916 228.656C450.962 228.595 451.007 228.534 451.084 228.488C451.115 228.473 451.145 228.457 451.176 228.427C451.206 228.412 451.252 228.396 451.283 228.396C451.359 228.381 451.436 228.381 451.512 228.396C451.589 228.412 451.665 228.442 451.726 228.488C451.757 228.503 451.788 228.534 451.818 228.565C451.849 228.595 451.864 228.626 451.895 228.656C451.91 228.687 451.941 228.718 451.956 228.748C451.971 228.779 451.987 228.825 451.987 228.855C451.987 228.886 452.002 228.932 452.002 228.962C452.002 229.008 452.002 229.039 451.987 229.085C451.971 229.115 451.971 229.161 451.956 229.192C451.941 229.222 451.925 229.253 451.895 229.284C451.849 229.345 451.803 229.406 451.726 229.452C451.696 229.467 451.665 229.498 451.635 229.513C451.604 229.528 451.558 229.544 451.528 229.544C451.466 229.574 451.421 229.574 451.39 229.574Z" fill="#B75EDB"/>
<path d="M455.382 229.574C455.352 229.574 455.306 229.574 455.275 229.558C455.244 229.543 455.199 229.543 455.168 229.528C455.137 229.512 455.107 229.497 455.076 229.466C455.015 229.421 454.954 229.375 454.908 229.298C454.893 229.268 454.862 229.237 454.847 229.206C454.831 229.176 454.816 229.13 454.816 229.099C454.801 229.053 454.801 229.023 454.801 228.977C454.801 228.946 454.801 228.9 454.816 228.87C454.816 228.839 454.831 228.793 454.847 228.763C454.862 228.732 454.877 228.702 454.908 228.671C454.923 228.64 454.954 228.61 454.984 228.579C455.015 228.549 455.046 228.533 455.076 228.503C455.107 228.487 455.137 228.457 455.168 228.441C455.199 228.426 455.244 228.411 455.275 228.411C455.352 228.396 455.428 228.396 455.505 228.411C455.535 228.426 455.581 228.426 455.612 228.441C455.642 228.457 455.673 228.472 455.703 228.503C455.734 228.518 455.765 228.549 455.795 228.579C455.826 228.61 455.841 228.64 455.872 228.671C455.887 228.702 455.902 228.732 455.933 228.763C455.948 228.793 455.963 228.839 455.963 228.87C455.979 228.9 455.979 228.946 455.979 228.977C455.979 229.023 455.979 229.053 455.963 229.099C455.963 229.13 455.948 229.176 455.933 229.206C455.918 229.237 455.902 229.268 455.872 229.298C455.765 229.482 455.581 229.574 455.382 229.574Z" fill="#B75EDB"/>
<path d="M459.374 229.574C459.328 229.574 459.298 229.574 459.252 229.559C459.221 229.544 459.175 229.544 459.145 229.528C459.114 229.513 459.084 229.498 459.053 229.467C459.022 229.452 458.992 229.421 458.961 229.391C458.732 229.161 458.732 228.794 458.961 228.565C458.992 228.534 459.022 228.519 459.053 228.488C459.084 228.473 459.114 228.457 459.145 228.427C459.175 228.412 459.221 228.396 459.252 228.396C459.328 228.381 459.405 228.381 459.481 228.396C459.512 228.412 459.558 228.412 459.588 228.427C459.619 228.442 459.65 228.457 459.68 228.488C459.711 228.503 459.741 228.534 459.772 228.565C460.001 228.794 460.001 229.161 459.772 229.391C459.741 229.421 459.711 229.437 459.68 229.467C459.65 229.482 459.619 229.513 459.588 229.528C459.558 229.544 459.512 229.559 459.481 229.559C459.451 229.574 459.42 229.574 459.374 229.574Z" fill="#B75EDB"/>
<path d="M451.39 238.31C451.359 238.31 451.313 238.31 451.283 238.295C451.252 238.295 451.206 238.28 451.176 238.264C451.145 238.249 451.115 238.234 451.084 238.203C451.053 238.188 451.023 238.157 450.992 238.127C450.962 238.096 450.946 238.065 450.916 238.035C450.9 238.004 450.87 237.974 450.854 237.943C450.839 237.912 450.824 237.867 450.824 237.836C450.809 237.805 450.809 237.759 450.809 237.729C450.809 237.698 450.809 237.652 450.824 237.622C450.839 237.591 450.839 237.545 450.854 237.515C450.87 237.484 450.885 237.454 450.916 237.423C450.962 237.362 451.007 237.301 451.084 237.255C451.115 237.239 451.145 237.224 451.176 237.193C451.206 237.178 451.252 237.163 451.283 237.163C451.359 237.148 451.436 237.148 451.512 237.163C451.589 237.178 451.665 237.209 451.726 237.255C451.757 237.27 451.788 237.301 451.818 237.331C451.849 237.362 451.864 237.392 451.895 237.423C451.91 237.454 451.941 237.484 451.956 237.515C451.971 237.545 451.987 237.591 451.987 237.622C451.987 237.652 452.002 237.698 452.002 237.729C452.002 237.759 452.002 237.805 451.987 237.836C451.971 237.867 451.971 237.912 451.956 237.943C451.941 237.974 451.925 238.004 451.895 238.035C451.849 238.096 451.803 238.157 451.726 238.203C451.696 238.218 451.665 238.249 451.635 238.264C451.604 238.28 451.558 238.295 451.528 238.295C451.466 238.295 451.421 238.31 451.39 238.31Z" fill="#B75EDB"/>
<path d="M455.382 238.309C455.352 238.309 455.306 238.309 455.275 238.293C455.244 238.293 455.199 238.278 455.168 238.263C455.137 238.248 455.107 238.232 455.076 238.202C455.015 238.156 454.954 238.11 454.908 238.033C454.893 238.003 454.862 237.972 454.847 237.942C454.831 237.911 454.816 237.865 454.816 237.835C454.801 237.804 454.801 237.758 454.801 237.727C454.801 237.697 454.801 237.651 454.816 237.62C454.816 237.59 454.831 237.544 454.847 237.513C454.862 237.483 454.877 237.452 454.908 237.421C454.923 237.391 454.954 237.36 454.984 237.33C455.015 237.299 455.046 237.284 455.076 237.253C455.107 237.238 455.137 237.207 455.168 237.192C455.199 237.177 455.244 237.161 455.275 237.161C455.474 237.131 455.673 237.177 455.81 237.314C455.841 237.345 455.856 237.376 455.887 237.406C455.902 237.437 455.918 237.467 455.948 237.498C455.963 237.529 455.979 237.574 455.979 237.605C455.994 237.636 455.994 237.682 455.994 237.712C455.994 237.743 455.994 237.789 455.979 237.819C455.963 237.896 455.933 237.972 455.887 238.033C455.872 238.064 455.841 238.095 455.81 238.125C455.688 238.248 455.535 238.309 455.382 238.309Z" fill="#B75EDB"/>
<path d="M459.378 238.31C459.179 238.31 458.995 238.218 458.888 238.049C458.873 238.019 458.842 237.988 458.827 237.958C458.812 237.927 458.797 237.881 458.797 237.851C458.797 237.82 458.781 237.774 458.781 237.744C458.781 237.713 458.781 237.667 458.797 237.636C458.812 237.606 458.812 237.56 458.827 237.529C458.842 237.499 458.858 237.468 458.888 237.438C458.934 237.376 458.98 237.315 459.057 237.269C459.087 237.254 459.118 237.239 459.148 237.208C459.179 237.193 459.225 237.177 459.255 237.177C459.332 237.162 459.408 237.162 459.485 237.177C459.516 237.193 459.561 237.193 459.592 237.208C459.623 237.223 459.653 237.239 459.684 237.269C459.745 237.315 459.806 237.361 459.852 237.438C459.867 237.468 459.883 237.499 459.913 237.529C459.929 237.56 459.944 237.606 459.944 237.636C459.959 237.667 459.959 237.713 459.959 237.744C459.959 237.774 459.959 237.82 459.944 237.851C459.929 237.881 459.929 237.927 459.913 237.958C459.898 237.988 459.883 238.019 459.852 238.049C459.837 238.08 459.806 238.111 459.776 238.141C459.745 238.172 459.714 238.187 459.684 238.218C459.653 238.233 459.623 238.264 459.592 238.279C459.561 238.294 459.531 238.31 459.485 238.31C459.454 238.294 459.424 238.31 459.378 238.31Z" fill="#B75EDB"/>
<path d="M470.389 221.589H466.87C466.549 221.589 466.289 221.329 466.289 221.008C466.289 220.686 466.549 220.426 466.87 220.426H469.976L470.848 217.825C470.924 217.581 471.154 217.428 471.399 217.428H474.397C474.718 217.428 474.978 217.688 474.978 218.009C474.978 218.33 474.718 218.59 474.397 218.59H471.827L470.955 221.191C470.879 221.421 470.649 221.589 470.389 221.589Z" fill="#3A1C86"/>
<path d="M476.39 220.594C474.967 220.594 473.805 219.431 473.805 218.008C473.805 216.586 474.967 215.423 476.39 215.423C477.813 215.423 478.976 216.586 478.976 218.008C478.976 219.431 477.828 220.594 476.39 220.594ZM476.39 216.586C475.61 216.586 474.983 217.228 474.983 217.993C474.983 218.773 475.625 219.4 476.39 219.4C477.17 219.4 477.798 218.773 477.798 217.993C477.813 217.228 477.17 216.586 476.39 216.586Z" fill="#B75EDB"/>
<path d="M474.397 236.582H471.399C471.139 236.582 470.924 236.414 470.848 236.184L469.976 233.584H466.87C466.549 233.584 466.289 233.323 466.289 233.002C466.289 232.681 466.549 232.421 466.87 232.421H470.389C470.649 232.421 470.863 232.589 470.94 232.834L471.812 235.435H474.382C474.703 235.435 474.963 235.695 474.963 236.016C474.978 236.322 474.718 236.582 474.397 236.582Z" fill="#3A1C86"/>
<path d="M476.39 238.569C474.967 238.569 473.805 237.407 473.805 235.984C473.805 234.561 474.967 233.398 476.39 233.398C477.813 233.398 478.976 234.561 478.976 235.984C478.976 237.422 477.828 238.569 476.39 238.569ZM476.39 234.576C475.61 234.576 474.983 235.219 474.983 235.984C474.983 236.764 475.625 237.391 476.39 237.391C477.17 237.391 477.798 236.764 477.798 235.984C477.813 235.204 477.17 234.576 476.39 234.576Z" fill="#B75EDB"/>
<path d="M476.39 229.574C474.967 229.574 473.805 228.411 473.805 226.989C473.805 225.566 474.967 224.403 476.39 224.403C477.813 224.403 478.976 225.566 478.976 226.989C478.976 228.427 477.828 229.574 476.39 229.574ZM476.39 225.581C475.61 225.581 474.983 226.224 474.983 226.989C474.983 227.769 475.625 228.396 476.39 228.396C477.17 228.396 477.798 227.769 477.798 226.989C477.813 226.209 477.17 225.581 476.39 225.581Z" fill="#B75EDB"/>
<path d="M474.397 227.586H466.87C466.549 227.586 466.289 227.325 466.289 227.004C466.289 226.683 466.549 226.423 466.87 226.423H474.397C474.718 226.423 474.978 226.683 474.978 227.004C474.978 227.325 474.718 227.586 474.397 227.586Z" fill="#3A1C86"/>
<path d="M443.894 221.589H440.375C440.115 221.589 439.901 221.421 439.824 221.191L438.952 218.59H436.382C436.061 218.59 435.801 218.33 435.801 218.009C435.801 217.688 436.061 217.428 436.382 217.428H439.381C439.641 217.428 439.855 217.596 439.931 217.825L440.803 220.426H443.909C444.23 220.426 444.49 220.686 444.49 221.008C444.49 221.329 444.215 221.589 443.894 221.589Z" fill="#3A1C86"/>
<path d="M434.378 220.594C432.956 220.594 431.793 219.431 431.793 218.008C431.793 216.586 432.956 215.423 434.378 215.423C435.801 215.423 436.964 216.586 436.964 218.008C436.964 219.431 435.801 220.594 434.378 220.594ZM434.378 216.586C433.598 216.586 432.971 217.213 432.971 217.993C432.971 218.773 433.598 219.4 434.378 219.4C435.159 219.4 435.786 218.773 435.786 217.993C435.786 217.228 435.159 216.586 434.378 216.586Z" fill="#B75EDB"/>
<path d="M439.365 236.582H436.366C436.045 236.582 435.785 236.322 435.785 236.001C435.785 235.68 436.045 235.42 436.366 235.42H438.937L439.809 232.834C439.885 232.59 440.115 232.437 440.359 232.437H443.878C444.199 232.437 444.459 232.697 444.459 233.018C444.459 233.339 444.199 233.599 443.878 233.599H440.788L439.916 236.2C439.854 236.414 439.625 236.582 439.365 236.582Z" fill="#3A1C86"/>
<path d="M434.378 238.569C432.956 238.569 431.793 237.407 431.793 235.984C431.793 234.561 432.956 233.398 434.378 233.398C435.801 233.398 436.964 234.561 436.964 235.984C436.964 237.407 435.801 238.569 434.378 238.569ZM434.378 234.576C433.598 234.576 432.971 235.204 432.971 235.984C432.971 236.764 433.598 237.391 434.378 237.391C435.159 237.391 435.786 236.764 435.786 235.984C435.786 235.204 435.159 234.576 434.378 234.576Z" fill="#B75EDB"/>
<path d="M434.378 229.574C432.956 229.574 431.793 228.411 431.793 226.989C431.793 225.566 432.956 224.403 434.378 224.403C435.801 224.403 436.964 225.566 436.964 226.989C436.964 228.411 435.801 229.574 434.378 229.574ZM434.378 225.581C433.598 225.581 432.971 226.209 432.971 226.989C432.971 227.769 433.598 228.396 434.378 228.396C435.159 228.396 435.786 227.769 435.786 226.989C435.786 226.209 435.159 225.581 434.378 225.581Z" fill="#B75EDB"/>
<path d="M443.893 227.586H436.366C436.045 227.586 435.785 227.325 435.785 227.004C435.785 226.683 436.045 226.423 436.366 226.423H443.893C444.215 226.423 444.475 226.683 444.475 227.004C444.475 227.325 444.215 227.586 443.893 227.586Z" fill="#3A1C86"/>
<path d="M455.379 242.715C452.242 242.715 449.275 242.241 447.041 241.384C444.624 240.451 443.293 239.15 443.293 237.712V212.164C443.293 211.843 443.553 211.583 443.874 211.583C444.196 211.583 444.456 211.843 444.456 212.164V237.712C444.456 239.518 448.938 241.537 455.363 241.537C461.789 241.537 466.271 239.518 466.271 237.712V212.164C466.271 211.843 466.531 211.583 466.852 211.583C467.174 211.583 467.434 211.843 467.434 212.164V237.712C467.434 239.15 466.103 240.451 463.686 241.384C461.483 242.241 458.515 242.715 455.379 242.715Z" fill="#3A1C86"/>
<path d="M455.386 252.291C455.065 252.291 454.805 252.031 454.805 251.71V242.133C454.805 241.812 455.065 241.552 455.386 241.552C455.707 241.552 455.967 241.812 455.967 242.133V251.71C455.983 252.031 455.707 252.291 455.386 252.291Z" fill="#3A1C86"/>
<path d="M458.885 257.279H451.894C451.573 257.279 451.312 257.019 451.312 256.697V251.71C451.312 251.389 451.573 251.129 451.894 251.129H458.885C459.206 251.129 459.466 251.389 459.466 251.71V256.697C459.466 257.019 459.206 257.279 458.885 257.279ZM452.475 256.116H458.289V252.292H452.475V256.116Z" fill="#B75EDB"/>
<path d="M443.897 257.279H436.906C436.584 257.279 436.324 257.019 436.324 256.697V251.71C436.324 251.389 436.584 251.129 436.906 251.129H443.897C444.218 251.129 444.478 251.389 444.478 251.71V256.697C444.478 257.019 444.218 257.279 443.897 257.279ZM437.487 256.116H443.3V252.292H437.487V256.116Z" fill="#B75EDB"/>
<path d="M473.862 257.279H466.87C466.549 257.279 466.289 257.019 466.289 256.697V251.71C466.289 251.389 466.549 251.129 466.87 251.129H473.862C474.183 251.129 474.443 251.389 474.443 251.71V256.697C474.458 257.019 474.183 257.279 473.862 257.279ZM467.452 256.116H473.265V252.292H467.452V256.116Z" fill="#B75EDB"/>
<path d="M470.363 252.291C470.042 252.291 469.782 252.03 469.782 251.709V247.303H440.991V251.709C440.991 252.03 440.731 252.291 440.409 252.291C440.088 252.291 439.828 252.03 439.828 251.709V246.722C439.828 246.401 440.088 246.141 440.409 246.141H470.379C470.7 246.141 470.96 246.401 470.96 246.722V251.709C470.96 252.03 470.7 252.291 470.363 252.291Z" fill="#3A1C86"/>
<defs>
<clipPath id="clip0_1867_15621">
<rect width="58.586" height="58.586" fill="white" transform="translate(425.293 13.1719)"/>
</clipPath>
</defs>
</svg>
