<svg width="396" height="296" viewBox="0 0 396 296" fill="none" xmlns="http://www.w3.org/2000/svg">
<line x1="167.005" y1="100.542" x2="50.0046" y2="101.542" stroke="#C3D0E2" stroke-width="1.08493" stroke-dasharray="5.17 5.17"/>
<g clip-path="url(#clip0_2049_5828)">
<path d="M200.756 277.716C198.947 277.716 197.144 277.687 195.348 277.629L195.328 278.281C191.695 278.164 188.092 277.93 184.522 277.582L184.585 276.934C180.982 276.583 177.412 276.116 173.881 275.537L173.775 276.181C170.192 275.593 166.647 274.891 163.144 274.077L163.292 273.442C159.773 272.625 156.298 271.695 152.869 270.656L152.68 271.28C149.211 270.229 145.789 269.067 142.42 267.798L142.649 267.188C139.272 265.916 135.947 264.536 132.679 263.053L132.41 263.647C129.113 262.151 125.874 260.55 122.698 258.848L123.005 258.274C119.828 256.572 116.712 254.769 113.663 252.869L113.319 253.422C110.249 251.509 107.246 249.498 104.315 247.394L104.695 246.864C101.769 244.765 98.9156 242.571 96.1377 240.289L95.7239 240.792C92.9314 238.498 90.2154 236.114 87.5801 233.645L88.0258 233.169C85.3999 230.709 82.8546 228.164 80.3942 225.538L79.9186 225.983C77.4494 223.348 75.0654 220.632 72.771 217.84L73.2747 217.426C70.9923 214.648 68.799 211.794 66.699 208.869L66.1695 209.249C64.0654 206.318 62.0546 203.315 60.1416 200.245L60.6948 199.9C58.7948 196.851 56.9917 193.736 55.2897 190.558L54.7151 190.866C53.0135 187.689 51.4126 184.45 49.9165 181.154L50.5101 180.884C49.027 177.616 47.6474 174.292 46.3755 170.914L45.7655 171.144C44.4968 167.774 43.3347 164.353 42.2835 160.883L42.9073 160.694C41.8686 157.266 40.9386 153.79 40.1212 150.272L39.4863 150.419C38.6727 146.917 37.9702 143.372 37.3829 139.788L38.0261 139.683C37.4472 136.151 36.9806 132.582 36.6299 128.978L35.9811 129.041C35.6337 125.471 35.3997 121.868 35.2826 118.236L35.9341 118.215C35.8763 116.419 35.8471 114.617 35.8471 112.807C35.8471 110.998 35.8763 109.195 35.9341 107.399L35.2826 107.378C35.3997 103.746 35.6337 100.143 35.9811 96.5731L36.6299 96.6362C36.9806 93.0327 37.4472 89.4632 38.0261 85.9315L37.3829 85.826C37.9702 82.2424 38.6727 78.6974 39.4863 75.1951L40.1212 75.3426C40.9386 71.8238 41.8687 68.3483 42.9073 64.92L42.2835 64.731C43.3347 61.2613 44.4968 57.8398 45.7656 54.4705L46.3756 54.7002C47.6475 51.3227 49.027 47.9978 50.5101 44.7299L49.9165 44.4606C51.4126 41.164 53.0135 37.9252 54.7151 34.7483L55.2897 35.0561C56.9917 31.8784 58.7948 28.763 60.6948 25.7141L60.1416 25.3693C62.0546 22.2994 64.0654 19.2966 66.1695 16.3654L66.699 16.7455C68.799 13.8202 70.9923 10.9664 73.2747 8.1885L72.771 7.77472C75.0654 4.98223 77.4494 2.26616 79.9185 -0.369095L80.3942 0.0765762C82.8546 -2.5493 85.3999 -5.09463 88.0258 -7.55502L87.5801 -8.03067C90.2154 -10.4998 92.9314 -12.8838 95.7239 -15.1782L96.1377 -14.6745C98.9156 -16.9569 101.769 -19.1502 104.695 -21.2502L104.315 -21.7797C107.246 -23.8839 110.249 -25.8946 113.319 -27.8077L113.663 -27.2545C116.712 -29.1544 119.828 -30.9575 123.005 -32.6595L122.698 -33.2341C125.874 -34.9357 129.113 -36.5366 132.41 -38.0327L132.679 -37.4391C135.947 -38.9222 139.272 -40.3018 142.649 -41.5737L142.42 -42.1837C145.789 -43.4524 149.211 -44.6145 152.68 -45.6657L152.869 -45.0419C156.298 -46.0806 159.773 -47.0106 163.292 -47.828L163.144 -48.4629C166.647 -49.2765 170.192 -49.979 173.775 -50.5664L173.881 -49.9231C177.412 -50.502 180.982 -50.9687 184.585 -51.3194L184.522 -51.9681C188.092 -52.3155 191.695 -52.5496 195.328 -52.6666L195.349 -52.0151C197.144 -52.0729 198.947 -52.1021 200.756 -52.1021C202.566 -52.1021 204.369 -52.0729 206.164 -52.0151L206.185 -52.6666C209.818 -52.5496 213.421 -52.3155 216.99 -51.9681L216.927 -51.3193C220.531 -50.9687 224.1 -50.502 227.632 -49.9231L227.737 -50.5664C231.321 -49.979 234.866 -49.2765 238.368 -48.4629L238.221 -47.828C241.74 -47.0106 245.215 -46.0806 248.643 -45.0419L248.832 -45.6657C252.302 -44.6145 255.724 -43.4524 259.093 -42.1837L258.863 -41.5737C262.241 -40.3018 265.566 -38.9222 268.834 -37.4391L269.103 -38.0327C272.399 -36.5366 275.638 -34.9357 278.815 -33.2341L278.507 -32.6595C281.685 -30.9575 284.801 -29.1544 287.849 -27.2545L288.194 -27.8077C291.264 -25.8946 294.267 -23.8839 297.198 -21.7797L296.818 -21.2502C299.743 -19.1502 302.597 -16.9569 305.375 -14.6746L305.789 -15.1782C308.581 -12.8838 311.297 -10.4999 313.933 -8.03069L313.487 -7.55505C316.113 -5.09466 318.658 -2.54933 321.119 0.0765457L321.594 -0.369122C324.063 2.26614 326.447 4.98221 328.742 7.7747L328.238 8.18849C330.52 10.9664 332.714 13.8202 334.814 16.7455L335.343 16.3654C337.447 19.2966 339.458 22.2994 341.371 25.3693L340.818 25.7141C342.718 28.763 344.521 31.8784 346.223 35.0561L346.798 34.7483C348.499 37.9252 350.1 41.164 351.596 44.4606L351.003 44.73C352.486 47.9979 353.865 51.3227 355.137 54.7003L355.747 54.4706C357.016 57.8398 358.178 61.2613 359.229 64.731L358.605 64.92C359.644 68.3483 360.574 71.8239 361.392 75.3426L362.026 75.1951C362.84 78.6974 363.542 82.2424 364.13 85.8261L363.487 85.9315C364.065 89.4632 364.532 93.0327 364.883 96.6362L365.532 96.5731C365.879 100.143 366.113 103.746 366.23 107.378L365.579 107.399C365.636 109.195 365.666 110.998 365.666 112.807C365.666 114.617 365.636 116.42 365.579 118.215L366.23 118.236C366.113 121.869 365.879 125.471 365.532 129.041L364.883 128.978C364.532 132.582 364.065 136.151 363.487 139.683L364.13 139.788C363.542 143.372 362.84 146.917 362.026 150.419L361.392 150.272C360.574 153.79 359.644 157.266 358.605 160.694L359.229 160.883C358.178 164.353 357.016 167.775 355.747 171.144L355.137 170.914C353.865 174.292 352.486 177.616 351.003 180.884L351.596 181.154C350.1 184.45 348.499 187.689 346.798 190.866L346.223 190.558C344.521 193.736 342.718 196.851 340.818 199.9L341.371 200.245C339.458 203.315 337.447 206.318 335.343 209.249L334.814 208.869C332.714 211.794 330.52 214.648 328.238 217.426L328.742 217.84C326.447 220.632 324.063 223.348 321.594 225.983L321.119 225.538C318.658 228.164 316.113 230.709 313.487 233.169L313.933 233.645C311.297 236.114 308.581 238.498 305.789 240.792L305.375 240.289C302.597 242.571 299.743 244.765 296.818 246.864L297.198 247.394C294.267 249.498 291.264 251.509 288.194 253.422L287.849 252.869C284.801 254.769 281.685 256.572 278.507 258.274L278.815 258.848C275.638 260.55 272.399 262.151 269.103 263.647L268.834 263.053C265.566 264.536 262.241 265.916 258.863 267.188L259.093 267.798C255.724 269.067 252.302 270.229 248.832 271.28L248.643 270.656C245.215 271.695 241.74 272.625 238.221 273.442L238.368 274.077C234.866 274.891 231.321 275.593 227.737 276.181L227.632 275.537C224.1 276.116 220.531 276.583 216.927 276.934L216.99 277.582C213.421 277.93 209.818 278.164 206.185 278.281L206.164 277.629C204.369 277.687 202.566 277.716 200.756 277.716Z" fill="#FDFDFF" stroke="#C3D0E2" stroke-width="1.30363" stroke-dasharray="10.43 10.43"/>
<circle cx="314.198" cy="214.198" r="34.758" fill="#F3F4FF" stroke="#8E8E8E" stroke-width="0.87995"/>
<g clip-path="url(#clip1_2049_5828)">
<path d="M322.498 222L323.188 223.844H322.531L322.334 223.581C321.219 222.092 319.467 221.219 317.609 221.219H313.344V218.594H317.583C319.768 218.594 321.731 219.952 322.498 222Z" fill="#FFEAA7"/>
<path d="M313.343 223.844C313.159 223.844 313.002 223.916 312.877 224.034L312.766 223.922C313.12 223.568 313.343 223.076 313.343 222.531V221.219H317.609C319.466 221.219 321.218 222.092 322.334 223.581L322.531 223.844H313.343Z" fill="#E6E9ED"/>
<path d="M333.031 221.219V223.844H323.844L324.041 223.581C325.156 222.092 326.908 221.219 328.766 221.219H333.031Z" fill="#E6E9ED"/>
<path d="M328.766 221.219C326.908 221.219 325.156 222.092 324.041 223.581L323.844 223.844H323.188L323.877 222C324.644 219.952 326.607 218.594 328.792 218.594H333.031V221.219H328.766Z" fill="#FFEAA7"/>
<path d="M323.844 223.844H333.031C333.392 223.844 333.688 224.139 333.688 224.5V225.812C333.688 226.173 333.392 226.469 333.031 226.469H325.156C325.156 227.558 324.277 228.438 323.188 228.438C322.098 228.438 321.219 227.558 321.219 226.469H313.344C312.983 226.469 312.688 226.173 312.688 225.812V224.5C312.688 224.316 312.76 224.159 312.878 224.034C313.003 223.916 313.16 223.844 313.344 223.844H322.531H323.188H323.844Z" fill="#FCD770"/>
<path d="M310.076 225.301C310.213 229.612 311.375 233.688 311.375 233.688H296.938C296.938 233.688 298.014 229.927 298.217 225.813H308.75C309.262 225.813 309.728 225.616 310.076 225.301Z" fill="#FF826E"/>
<path d="M304.773 213.928L306.125 216.625C306.125 216.625 309.209 215.398 309.406 211.749V221.987V221.993C309.203 221.914 308.98 221.875 308.75 221.875H298.25V220.562H294.312V216.868C294.312 215.982 294.549 215.122 294.969 214.374C295.389 213.626 296.006 212.983 296.767 212.523C297.029 212.366 297.305 212.235 297.587 212.13C297.896 212.012 298.217 211.926 298.539 211.874L298.906 211.815C299.136 215.411 302.188 216.625 302.188 216.625L303.539 213.928C303.736 213.974 303.94 214 304.156 214L304.773 213.928Z" fill="#FF826E"/>
<path d="M301.531 211.375C301.531 212.609 302.384 213.646 303.539 213.928L302.188 216.625C302.188 216.625 299.136 215.411 298.906 211.815L301.531 211.375Z" fill="#FC6E51"/>
<path d="M306.782 211.375L309.407 211.749C309.21 215.398 306.125 216.625 306.125 216.625L304.773 213.928C305.902 213.337 305.961 213.285 306.014 213.232C306.486 212.753 306.782 212.097 306.782 211.375Z" fill="#FC6E51"/>
<path d="M298.539 211.874C298.217 211.926 297.896 212.012 297.587 212.13V212.123L297.154 206.775C297.01 205.029 296.938 203.283 296.938 201.531C296.938 199.536 297.745 197.732 299.051 196.426C300.357 195.12 302.161 194.312 304.156 194.312C306.151 194.312 307.956 195.12 309.262 196.426C310.568 197.732 311.375 199.536 311.375 201.531C311.375 203.283 311.303 205.029 311.158 206.775L311.099 207.457C310.141 207.588 309.406 208.409 309.406 209.406V211.749L306.781 211.375L306.171 208.94C307.7 208.199 308.75 206.63 308.75 204.812V201.531C307.109 201.531 305.305 200.875 303.907 200.219C302.516 199.562 301.531 198.906 301.531 198.906C300.304 199.727 299.562 201.105 299.562 202.588V204.812C299.562 206.63 300.613 208.199 302.142 208.94L301.531 211.375L298.906 211.815L298.539 211.874Z" fill="#656D78"/>
<path d="M332.373 210.719H325.155L322.142 214.335C321.972 214.538 321.722 214.656 321.453 214.656C320.961 214.656 320.561 214.256 320.561 213.764V210.719H313.342V209.406C313.342 208.862 313.119 208.369 312.765 208.015C312.41 207.661 311.918 207.438 311.373 207.438C311.281 207.438 311.19 207.444 311.098 207.457L311.157 206.775C311.301 205.029 311.373 203.283 311.373 201.531V198.25C311.373 197.528 311.964 196.938 312.686 196.938H332.373C333.095 196.938 333.686 197.528 333.686 198.25V209.406C333.686 210.128 333.095 210.719 332.373 210.719Z" fill="#E6E9ED"/>
<path d="M310.647 224.362C310.548 224.73 310.351 225.051 310.076 225.301C309.728 225.616 309.262 225.812 308.75 225.812H298.217H297.594C295.783 225.812 294.312 224.342 294.312 222.531V220.562H298.25V221.875H308.75C308.98 221.875 309.203 221.914 309.406 221.993C309.688 222.085 309.938 222.249 310.141 222.453C310.496 222.807 310.719 223.299 310.719 223.844C310.719 224.021 310.692 224.198 310.647 224.362Z" fill="#F0D0B4"/>
<path d="M313.344 221.219V222.531C313.344 223.076 313.121 223.568 312.766 223.922C312.412 224.277 311.92 224.5 311.375 224.5C311.119 224.5 310.876 224.454 310.647 224.362C310.692 224.198 310.719 224.021 310.719 223.844C310.719 223.299 310.496 222.807 310.141 222.453C309.938 222.249 309.688 222.085 309.406 221.993V221.987V211.749V209.406C309.406 208.409 310.141 207.588 311.099 207.457C311.191 207.444 311.283 207.438 311.375 207.438C311.92 207.438 312.412 207.661 312.766 208.015C313.121 208.369 313.344 208.862 313.344 209.406V210.719V218.594V221.219Z" fill="#F0D0B4"/>
<path d="M306.013 213.232C305.961 213.285 305.902 213.337 304.773 213.928L304.156 214C303.94 214 303.736 213.974 303.539 213.928C302.384 213.646 301.531 212.609 301.531 211.375L302.142 208.94C302.745 209.242 303.428 209.406 304.156 209.406C304.885 209.406 305.567 209.242 306.171 208.94L306.781 211.375C306.781 212.097 306.486 212.753 306.013 213.232Z" fill="#F0D0B4"/>
<path d="M308.75 201.531V204.812C308.75 206.63 307.7 208.199 306.171 208.94C305.567 209.242 304.885 209.406 304.156 209.406C303.428 209.406 302.745 209.242 302.142 208.94C300.613 208.199 299.562 206.63 299.562 204.812V202.588C299.562 201.105 300.304 199.727 301.531 198.906C301.531 198.906 302.516 199.562 303.907 200.219C305.305 200.875 307.109 201.531 308.75 201.531Z" fill="#F0D0B4"/>
<path d="M306.125 204.156C306.487 204.156 306.781 203.862 306.781 203.5C306.781 203.138 306.487 202.844 306.125 202.844C305.763 202.844 305.469 203.138 305.469 203.5C305.469 203.862 305.763 204.156 306.125 204.156Z" fill="black"/>
<path d="M302.188 204.156C302.55 204.156 302.844 203.862 302.844 203.5C302.844 203.138 302.55 202.844 302.188 202.844C301.825 202.844 301.531 203.138 301.531 203.5C301.531 203.862 301.825 204.156 302.188 204.156Z" fill="black"/>
<path d="M304.157 204.812C303.097 204.812 302.144 205.401 301.67 206.349L301.602 206.488L302.776 207.075L302.845 206.936C303.095 206.436 303.597 206.125 304.157 206.125C304.717 206.125 305.219 206.436 305.47 206.936L305.538 207.075L306.712 206.487L306.644 206.349C306.17 205.401 305.217 204.812 304.157 204.812Z" fill="black"/>
<path d="M315.969 198.906C314.521 198.906 313.344 200.084 313.344 201.531H314.656C314.656 200.807 315.245 200.219 315.969 200.219C316.693 200.219 317.281 200.807 317.281 201.531C317.281 202.255 316.693 202.844 315.969 202.844H315.312V206.125H316.625V204.073C317.756 203.782 318.594 202.752 318.594 201.531C318.594 200.084 317.416 198.906 315.969 198.906Z" fill="black"/>
<path d="M315.312 207.438H316.625V208.75H315.312V207.438Z" fill="black"/>
<path d="M322.531 200.219C323.255 200.219 323.844 200.807 323.844 201.531C323.844 202.255 323.255 202.844 322.531 202.844H321.875V206.125H323.188V204.073C324.318 203.782 325.156 202.752 325.156 201.531C325.156 200.084 323.979 198.906 322.531 198.906C321.084 198.906 319.906 200.084 319.906 201.531H321.219C321.219 200.807 321.807 200.219 322.531 200.219Z" fill="black"/>
<path d="M321.875 207.438H323.188V208.75H321.875V207.438Z" fill="black"/>
<path d="M329.094 200.219C329.818 200.219 330.406 200.807 330.406 201.531C330.406 202.255 329.818 202.844 329.094 202.844H328.438V206.125H329.75V204.073C330.881 203.782 331.719 202.752 331.719 201.531C331.719 200.084 330.541 198.906 329.094 198.906C327.646 198.906 326.469 200.084 326.469 201.531H327.781C327.781 200.807 328.37 200.219 329.094 200.219Z" fill="black"/>
<path d="M328.438 207.438H329.75V208.75H328.438V207.438Z" fill="black"/>
<path d="M321.456 215.312C321.918 215.312 322.351 215.109 322.647 214.755L325.463 211.375H332.375C333.46 211.375 334.344 210.492 334.344 209.406V198.25C334.344 197.165 333.46 196.281 332.375 196.281H312.688C311.882 196.281 311.191 196.768 310.886 197.463C309.504 195.185 307.008 193.656 304.156 193.656C299.814 193.656 296.281 197.189 296.281 201.531C296.281 203.291 296.355 205.072 296.501 206.825L296.897 211.712C296.739 211.788 296.584 211.871 296.432 211.962C294.72 212.991 293.656 214.869 293.656 216.865V222.531C293.656 224.677 295.382 226.424 297.518 226.465C297.245 230.182 296.317 233.472 296.307 233.507L296.068 234.344H312.245L312.006 233.508C311.995 233.468 310.91 229.621 310.743 225.533C310.851 225.406 310.945 225.27 311.028 225.124C311.143 225.139 311.258 225.156 311.375 225.156C311.603 225.156 311.82 225.118 312.031 225.063V225.812C312.031 226.536 312.62 227.125 313.344 227.125H320.645C320.937 228.256 321.966 229.094 323.188 229.094C324.409 229.094 325.437 228.256 325.73 227.125H333.031C333.755 227.125 334.344 226.536 334.344 225.812V224.5C334.344 223.776 333.755 223.188 333.031 223.188H325.305C326.255 222.356 327.486 221.875 328.766 221.875H333.031V220.562H328.766C327.221 220.562 325.728 221.118 324.558 222.093C325.263 220.389 326.941 219.25 328.794 219.25H333.031V217.938H328.794C326.346 217.938 324.124 219.478 323.264 221.77L323.188 221.974L323.111 221.77C322.251 219.478 320.029 217.938 317.581 217.938H314V211.375H319.906V213.762C319.906 214.617 320.602 215.312 321.456 215.312ZM297.81 206.718C297.666 205 297.594 203.255 297.594 201.531C297.594 197.913 300.538 194.969 304.156 194.969C307.775 194.969 310.719 197.913 310.719 201.531C310.719 203.255 310.647 205 310.503 206.718L310.484 206.947C309.476 207.314 308.75 208.273 308.75 209.406V210.993L307.311 210.788L306.93 209.262C308.414 208.333 309.406 206.689 309.406 204.812V200.875H308.75C305.71 200.875 301.933 198.385 301.895 198.36L301.531 198.118L301.168 198.36C299.752 199.303 298.906 200.884 298.906 202.585V204.812C298.906 206.689 299.898 208.333 301.383 209.262L300.999 210.798L298.434 211.225C298.348 211.24 298.264 211.262 298.18 211.28L297.81 206.718ZM304.156 208.75C301.985 208.75 300.219 206.984 300.219 204.812V202.585C300.219 201.462 300.714 200.412 301.561 199.702C302.587 200.328 305.417 201.919 308.094 202.157V204.812C308.094 206.984 306.328 208.75 304.156 208.75ZM300.972 212.134C301.194 213.062 301.81 213.828 302.634 214.264L301.899 215.733C301.18 215.283 299.966 214.248 299.641 212.355L300.972 212.134ZM302.193 211.433L302.595 209.826C303.089 209.979 303.613 210.062 304.156 210.062C304.7 210.062 305.224 209.979 305.717 209.826L306.119 211.433C306.088 212.491 305.222 213.344 304.156 213.344C303.09 213.344 302.225 212.491 302.193 211.433ZM307.345 212.119L308.675 212.309C308.361 214.231 307.136 215.28 306.412 215.733L305.678 214.264C306.506 213.825 307.126 213.053 307.345 212.119ZM297.107 213.088C297.492 212.857 297.905 212.691 298.337 212.587C298.917 215.99 301.813 217.182 301.945 217.235L302.505 217.457L303.918 214.632C303.998 214.638 304.075 214.656 304.156 214.656C304.238 214.656 304.314 214.638 304.395 214.632L305.808 217.457L306.368 217.234C306.454 217.2 307.722 216.673 308.751 215.364V221.219H298.906V217.281H297.594V219.906H294.969V216.865C294.969 215.327 295.788 213.88 297.107 213.088ZM294.969 222.531V221.219H297.594V222.531H308.75C309.474 222.531 310.062 223.12 310.062 223.844C310.062 224.568 309.474 225.156 308.75 225.156H297.594C296.146 225.156 294.969 223.979 294.969 222.531ZM297.787 233.031C298.094 231.776 298.634 229.255 298.829 226.469H308.75C309.002 226.469 309.241 226.422 309.471 226.355C309.659 229.186 310.213 231.757 310.526 233.031H297.787ZM310.062 221.584V209.406C310.062 208.682 310.651 208.094 311.375 208.094C312.099 208.094 312.688 208.682 312.688 209.406V222.531C312.688 223.255 312.099 223.844 311.375 223.844C311.375 222.876 310.843 222.039 310.062 221.584ZM314 222.531V221.875H317.609C318.889 221.875 320.121 222.356 321.07 223.188H313.907C313.962 222.976 314 222.759 314 222.531ZM333.031 225.812H324.5V226.469C324.5 227.193 323.911 227.781 323.188 227.781C322.464 227.781 321.875 227.193 321.875 226.469V225.812H313.344V224.5L333.031 224.499V225.812ZM317.581 219.25C319.433 219.25 321.111 220.389 321.817 222.092C320.647 221.118 319.154 220.562 317.609 220.562H314V219.25H317.581ZM314 210.062V209.406C314 208.108 313.05 207.035 311.811 206.825C311.957 205.072 312.031 203.29 312.031 201.531V198.25C312.031 197.888 312.326 197.594 312.688 197.594H332.375C332.737 197.594 333.031 197.888 333.031 198.25V209.406C333.031 209.768 332.737 210.062 332.375 210.062H324.849L321.639 213.914C321.509 214.069 321.219 213.965 321.219 213.762V210.062H314Z" fill="black"/>
</g>
<circle cx="70.198" cy="214.198" r="34.758" fill="#F3F4FF" stroke="#8E8E8E" stroke-width="0.87995"/>
<g clip-path="url(#clip2_2049_5828)">
<path d="M59.5008 197.9H57.4008C57.4008 197.715 57.327 197.536 57.1958 197.405C57.0645 197.274 56.8864 197.2 56.7008 197.2C56.5151 197.2 56.3371 197.274 56.2058 197.405C56.0745 197.536 56.0008 197.715 56.0008 197.9C55.8151 197.9 55.6371 197.974 55.5058 198.105C55.3745 198.236 55.3008 198.415 55.3008 198.6C55.3008 198.786 55.3745 198.964 55.5058 199.095C55.6371 199.226 55.8151 199.3 56.0008 199.3C56.0008 199.486 56.0745 199.664 56.2058 199.795C56.3371 199.926 56.5151 200 56.7008 200C56.8864 200 57.0645 199.926 57.1958 199.795C57.327 199.664 57.4008 199.486 57.4008 199.3H59.5008C59.6864 199.3 59.8645 199.226 59.9958 199.095C60.127 198.964 60.2008 198.786 60.2008 198.6C60.2008 198.415 60.127 198.236 59.9958 198.105C59.8645 197.974 59.6864 197.9 59.5008 197.9Z" fill="#8991A0"/>
<path d="M84.0008 197.9C84.0008 197.715 83.927 197.536 83.7958 197.405C83.6645 197.274 83.4864 197.2 83.3008 197.2C83.1151 197.2 82.9371 197.274 82.8058 197.405C82.6745 197.536 82.6008 197.715 82.6008 197.9H80.5008C80.3151 197.9 80.1371 197.974 80.0058 198.105C79.8745 198.236 79.8008 198.415 79.8008 198.6C79.8008 198.786 79.8745 198.964 80.0058 199.095C80.1371 199.226 80.3151 199.3 80.5008 199.3H82.6008C82.6008 199.486 82.6745 199.664 82.8058 199.795C82.9371 199.926 83.1151 200 83.3008 200C83.4864 200 83.6645 199.926 83.7958 199.795C83.927 199.664 84.0008 199.486 84.0008 199.3C84.1864 199.3 84.3645 199.226 84.4958 199.095C84.627 198.964 84.7008 198.786 84.7008 198.6C84.7008 198.415 84.627 198.236 84.4958 198.105C84.3645 197.974 84.1864 197.9 84.0008 197.9Z" fill="#8991A0"/>
<path d="M61.6 195.8H63V201.4H61.6C61.043 201.4 60.5089 201.179 60.1151 200.785C59.7212 200.391 59.5 199.857 59.5 199.3V197.9C59.5 197.343 59.7212 196.809 60.1151 196.415C60.5089 196.021 61.043 195.8 61.6 195.8Z" fill="#AAB2BF"/>
<path d="M78.4 201.4H76.3V195.8H78.4C78.957 195.8 79.4911 196.022 79.8849 196.415C80.2787 196.809 80.5 197.343 80.5 197.9V199.3C80.5 199.857 80.2787 200.391 79.8849 200.785C79.4911 201.179 78.957 201.4 78.4 201.4Z" fill="#AAB2BF"/>
<path d="M64.4375 207.938C64.5446 207.096 64.9561 206.323 65.5944 205.763C66.2327 205.203 67.0536 204.897 67.9025 204.9H72.1025C72.9504 204.9 73.7695 205.208 74.407 205.767C75.0446 206.326 75.4571 207.098 75.5675 207.938L71.4025 212.6H68.6025L64.4375 207.938Z" fill="#AAB2BF"/>
<path d="M70 211.9C69.9998 211.108 70.2726 210.34 70.7724 209.725C71.2722 209.111 71.9685 208.687 72.744 208.526L85.652 205.838C85.974 205.772 86.309 205.821 86.5982 205.978C86.8874 206.134 87.1125 206.387 87.234 206.692L87.871 208.281L70 213.3V211.9Z" fill="#D6DBE3"/>
<path d="M52.1289 208.281L52.7659 206.692C52.8874 206.387 53.1125 206.134 53.4017 205.978C53.691 205.821 54.0259 205.772 54.3479 205.838L67.2559 208.526C68.0314 208.687 68.7277 209.111 69.2275 209.725C69.7273 210.34 70.0001 211.108 69.9999 211.9V213.3L52.1289 208.281Z" fill="#D6DBE3"/>
<path d="M67.1992 234.3L50.7723 230.358C50.4665 230.285 50.1944 230.11 49.9997 229.863C49.805 229.616 49.6992 229.311 49.6992 228.997V209.476C49.6992 209.265 49.7472 209.056 49.8395 208.865C49.9319 208.675 50.0662 208.508 50.2324 208.377C50.3987 208.246 50.5924 208.154 50.7992 208.109C51.0059 208.063 51.2203 208.065 51.4261 208.115L67.1992 211.9L67.8992 212.6V233.6L67.1992 234.3Z" fill="#346D92"/>
<path d="M72.8016 234.3L89.2285 230.358C89.5343 230.285 89.8064 230.11 90.0011 229.863C90.1958 229.616 90.3016 229.311 90.3016 228.997V209.476C90.3016 209.265 90.2536 209.056 90.1613 208.865C90.0689 208.675 89.9346 208.508 89.7683 208.377C89.6021 208.246 89.4083 208.154 89.2016 208.109C88.9948 208.063 88.7805 208.065 88.5747 208.115L72.8016 211.9L72.1016 212.6V233.6L72.8016 234.3Z" fill="#346D92"/>
<path d="M67.1992 211.9H72.7992V234.3H67.1992V211.9Z" fill="#295474"/>
<path d="M67.1992 227.3H72.7992V230.8H67.1992V227.3Z" fill="#20455B"/>
<path d="M67.1992 216.8H72.7992V220.3H67.1992V216.8Z" fill="#20455B"/>
<path d="M84.7003 220.027C84.6921 220.615 84.4859 221.182 84.1149 221.638C83.744 222.094 83.2301 222.412 82.6563 222.54L81.2563 222.813C81.0019 222.878 80.7359 222.885 80.4787 222.831C80.2215 222.778 79.9801 222.666 79.773 222.504C79.566 222.342 79.3989 222.135 79.2847 221.899C79.1705 221.662 79.1122 221.402 79.1143 221.14L78.9883 215.554C78.9956 214.965 79.2023 214.395 79.5749 213.939C79.9474 213.483 80.4636 213.166 81.0393 213.041L82.4323 212.761C82.6873 212.694 82.9542 212.687 83.2123 212.741C83.4704 212.794 83.7126 212.907 83.92 213.069C84.1274 213.232 84.2944 213.441 84.4079 213.678C84.5214 213.916 84.5783 214.177 84.5743 214.441L84.7003 220.027Z" fill="#F0F2F5"/>
<path d="M76.3008 193.7H63.7008C62.9276 193.7 62.3008 194.327 62.3008 195.1V203.5C62.3008 204.273 62.9276 204.9 63.7008 204.9H76.3008C77.074 204.9 77.7008 204.273 77.7008 203.5V195.1C77.7008 194.327 77.074 193.7 76.3008 193.7Z" fill="#CCD0DA"/>
<path d="M66.5008 199.3H73.5008C73.6864 199.3 73.8645 199.374 73.9958 199.505C74.127 199.636 74.2008 199.814 74.2008 200C74.2008 200.557 73.9795 201.091 73.5857 201.485C73.1919 201.879 72.6577 202.1 72.1008 202.1H67.9008C67.3438 202.1 66.8097 201.879 66.4159 201.485C66.022 201.091 65.8008 200.557 65.8008 200C65.8008 199.814 65.8745 199.636 66.0058 199.505C66.1371 199.374 66.3151 199.3 66.5008 199.3Z" fill="#25A3DA"/>
<path d="M79.0797 219.761L75.7127 220.426C75.6665 220.434 75.6197 220.439 75.5727 220.44C75.3997 220.438 75.2334 220.373 75.1059 220.256C74.9784 220.139 74.8986 219.979 74.8821 219.807C74.8656 219.635 74.9134 219.462 75.0164 219.323C75.1194 219.184 75.2702 219.088 75.4397 219.054L78.9327 218.354C78.9719 218.346 79.0117 218.341 79.0517 218.34L79.0727 219.404L79.0797 219.761Z" fill="#AAB2BF"/>
<path d="M88.8367 217.094C88.8716 217.277 88.8331 217.466 88.7297 217.621C88.6262 217.775 88.466 217.883 88.2837 217.92L84.7907 218.613C84.7523 218.625 84.7119 218.63 84.6717 218.627L84.6577 218.179L84.6367 217.22L88.0107 216.548C88.1008 216.53 88.1936 216.529 88.2839 216.547C88.3742 216.564 88.4601 216.6 88.5368 216.65C88.6135 216.701 88.6795 216.766 88.731 216.842C88.7824 216.919 88.8184 217.004 88.8367 217.094Z" fill="#AAB2BF"/>
<path d="M83.5543 225.879C84.862 225.587 86.0331 224.863 86.8786 223.824C87.7241 222.784 88.1946 221.491 88.2142 220.151L88.119 215.96C88.115 215.777 88.0395 215.603 87.9087 215.475C87.7778 215.347 87.6021 215.275 87.419 215.275H87.4029C87.311 215.277 87.2204 215.298 87.1363 215.335C87.0521 215.372 86.9761 215.425 86.9126 215.492C86.8491 215.558 86.7993 215.637 86.7661 215.722C86.7329 215.808 86.7169 215.9 86.719 215.991L86.8142 220.182C86.7968 221.195 86.4388 222.172 85.7978 222.956C85.1569 223.741 84.2704 224.287 83.2813 224.506L80.4869 225.066C80.0661 225.165 79.6285 225.17 79.2055 225.08C78.7825 224.99 78.3847 224.808 78.0404 224.546C77.7237 224.282 77.4695 223.951 77.2963 223.577C77.1231 223.202 77.0351 222.794 77.0387 222.382L76.9435 218.191C76.9393 218.008 76.8637 217.834 76.7329 217.706C76.6021 217.578 76.4264 217.507 76.2435 217.507H76.2316C76.1397 217.509 76.0491 217.529 75.9649 217.566C75.8807 217.603 75.8047 217.656 75.7411 217.723C75.6776 217.789 75.6277 217.868 75.5944 217.953C75.5611 218.039 75.545 218.13 75.547 218.222L75.6422 222.413C75.6367 222.959 75.7405 223.499 75.9475 224.004C76.1545 224.508 76.4604 224.966 76.8473 225.351C77.2341 225.735 77.6941 226.038 78.1999 226.242C78.7058 226.445 79.2473 226.545 79.7925 226.536C80.1188 226.535 80.4443 226.503 80.7641 226.438L81.3493 226.321L81.4011 228.038L79.1884 228.479C79.0187 228.514 78.8677 228.61 78.7647 228.749C78.6618 228.889 78.6141 229.061 78.631 229.234C78.6479 229.406 78.7282 229.566 78.8562 229.683C78.9842 229.8 79.151 229.865 79.3242 229.865C79.3712 229.866 79.4181 229.861 79.4642 229.852L85.0516 228.738C85.2299 228.698 85.3855 228.59 85.4851 228.437C85.5848 228.283 85.6206 228.097 85.585 227.918C85.5493 227.739 85.445 227.581 85.2944 227.478C85.1437 227.374 84.9587 227.334 84.7786 227.365L82.7962 227.761L82.7416 226.04L83.5543 225.879Z" fill="#CCD0DA"/>
<path d="M80.561 217.452L79.161 217.732C79.1192 217.737 79.0771 217.74 79.035 217.739L79 216.332L80.281 216.073C80.3715 216.054 80.4648 216.054 80.5555 216.072C80.6462 216.089 80.7325 216.125 80.8096 216.176C80.8866 216.227 80.9528 216.292 81.0044 216.369C81.0561 216.446 81.0921 216.532 81.1105 216.622C81.1289 216.713 81.1293 216.806 81.1116 216.897C81.0939 216.987 81.0586 217.074 81.0075 217.151C80.9565 217.228 80.8908 217.294 80.8142 217.346C80.7376 217.397 80.6515 217.433 80.561 217.452Z" fill="#D6DBE3"/>
<path d="M80.6243 220.517L79.2243 220.797C79.1858 220.809 79.1455 220.814 79.1053 220.811L79.0703 219.404L80.3513 219.145C80.443 219.123 80.5381 219.12 80.6311 219.136C80.724 219.151 80.8129 219.186 80.8923 219.236C80.9717 219.287 81.04 219.353 81.0932 219.431C81.1463 219.509 81.1832 219.597 81.2016 219.689C81.22 219.782 81.2195 219.877 81.2002 219.969C81.1809 220.062 81.1432 220.149 81.0893 220.226C81.0354 220.304 80.9664 220.369 80.8865 220.419C80.8066 220.469 80.7174 220.503 80.6243 220.517Z" fill="#D6DBE3"/>
<path d="M84.6228 216.52L83.4188 216.765C83.3731 216.777 83.3259 216.781 83.2788 216.779C83.1052 216.779 82.9378 216.715 82.8089 216.599C82.6801 216.482 82.5991 216.322 82.5817 216.15C82.5642 215.977 82.6116 215.804 82.7145 215.664C82.8175 215.524 82.9687 215.428 83.1388 215.393L84.4618 215.127C84.5034 215.119 84.5455 215.114 84.5878 215.113L84.6228 216.52Z" fill="#D6DBE3"/>
<path d="M84.693 219.587L83.412 219.846C83.3658 219.854 83.3189 219.859 83.272 219.86C83.099 219.858 82.9326 219.793 82.8051 219.676C82.6776 219.559 82.5979 219.399 82.5813 219.227C82.5648 219.054 82.6126 218.882 82.7156 218.743C82.8186 218.604 82.9694 218.508 83.139 218.474L84.539 218.194C84.5781 218.186 84.618 218.181 84.658 218.18L84.693 219.587Z" fill="#D6DBE3"/>
<path d="M67.9008 197.2H66.5008C66.3151 197.2 66.1371 197.126 66.0058 196.995C65.8745 196.864 65.8008 196.685 65.8008 196.5C65.8008 196.314 65.8745 196.136 66.0058 196.005C66.1371 195.874 66.3151 195.8 66.5008 195.8H67.9008C68.0864 195.8 68.2645 195.874 68.3958 196.005C68.527 196.136 68.6008 196.314 68.6008 196.5C68.6008 196.685 68.527 196.864 68.3958 196.995C68.2645 197.126 68.0864 197.2 67.9008 197.2Z" fill="#55555B"/>
<path d="M73.4984 197.2H72.0984C71.9128 197.2 71.7347 197.126 71.6035 196.995C71.4722 196.864 71.3984 196.685 71.3984 196.5C71.3984 196.314 71.4722 196.136 71.6035 196.005C71.7347 195.874 71.9128 195.8 72.0984 195.8H73.4984C73.6841 195.8 73.8621 195.874 73.9934 196.005C74.1247 196.136 74.1984 196.314 74.1984 196.5C74.1984 196.685 74.1247 196.864 73.9934 196.995C73.8621 197.126 73.6841 197.2 73.4984 197.2Z" fill="#55555B"/>
<path d="M52.5008 228C52.3151 228 52.1371 227.926 52.0058 227.795C51.8745 227.664 51.8008 227.486 51.8008 227.3V225.2C51.8008 225.014 51.8745 224.836 52.0058 224.705C52.1371 224.574 52.3151 224.5 52.5008 224.5C52.6864 224.5 52.8645 224.574 52.9958 224.705C53.127 224.836 53.2008 225.014 53.2008 225.2V227.3C53.2008 227.486 53.127 227.664 52.9958 227.795C52.8645 227.926 52.6864 228 52.5008 228Z" fill="#20455B"/>
<path d="M55.3016 228.817C55.1159 228.817 54.9379 228.744 54.8066 228.612C54.6753 228.481 54.6016 228.303 54.6016 228.117V226.017C54.6016 225.832 54.6753 225.654 54.8066 225.522C54.9379 225.391 55.1159 225.317 55.3016 225.317C55.4872 225.317 55.6653 225.391 55.7965 225.522C55.9278 225.654 56.0016 225.832 56.0016 226.017V228.117C56.0016 228.303 55.9278 228.481 55.7965 228.612C55.6653 228.744 55.4872 228.817 55.3016 228.817Z" fill="#20455B"/>
<path d="M69.3008 199.3H70.7008V202.1H69.3008V199.3Z" fill="#2BB6E8"/>
</g>
</g>
<circle cx="208.198" cy="260.198" r="34.758" fill="#F3F4FF" stroke="#8E8E8E" stroke-width="0.87995"/>
<g clip-path="url(#clip3_2049_5828)">
<path d="M193.878 267.626C193.878 264.659 196.292 262.245 199.259 262.245H216.74C219.707 262.245 222.121 264.659 222.121 267.626V272.513C225.061 269.188 226.846 264.819 226.846 260.033C226.846 249.624 218.408 241.186 207.999 241.186C197.59 241.186 189.152 249.624 189.152 260.033C189.152 264.819 190.938 269.188 193.878 272.513V267.626Z" fill="#D8ECFE"/>
<path d="M221.085 264.459C221.734 265.348 222.119 266.442 222.119 267.625V272.512C225.059 269.188 226.844 264.819 226.844 260.032C226.844 253.291 223.305 247.378 217.984 244.047C220.972 247.382 222.79 251.787 222.79 256.617C222.79 259.416 222.179 262.071 221.085 264.459Z" fill="#C4E2FF"/>
<path d="M210.758 261.74C210.758 262.02 210.985 262.247 211.265 262.247H214.994V254.733H214.822C214.447 257.087 212.878 259.048 210.758 259.974V261.74Z" fill="#C57A44"/>
<path d="M205.244 261.74V259.974C203.124 259.048 201.555 257.087 201.18 254.733H201.008V262.247H204.737C205.017 262.247 205.244 262.02 205.244 261.74Z" fill="#D88A55"/>
<path d="M216.741 262.163H214.884L214.802 262.245V262.491C214.802 266.241 211.751 269.292 208 269.292V269.374L207.92 269.29C204.207 269.247 201.199 266.214 201.199 262.491V262.249L201.117 262.163H199.26C196.243 262.163 193.797 264.609 193.797 267.626V272.42C194.501 273.227 195.274 273.973 196.105 274.65C196.42 274.907 196.598 275.295 196.578 275.701L196.365 280.096C196.331 280.796 197.102 281.241 197.69 280.862L201.694 278.283C202.005 278.083 202.386 278.031 202.74 278.134C204.41 278.619 206.174 278.879 208.001 278.879C213.667 278.879 218.749 276.378 222.204 272.42V267.626C222.204 264.609 219.758 262.163 216.741 262.163Z" fill="#FE5694"/>
<path d="M210.841 261.74V259.935C209.974 260.328 209.013 260.548 208.001 260.548C206.988 260.548 206.027 260.328 205.16 259.935V261.74C205.16 261.973 204.971 262.162 204.737 262.162H201.117V262.49C201.117 266.292 204.199 269.373 208 269.373C211.802 269.373 214.884 266.292 214.884 262.49V262.162H211.264C211.03 262.162 210.841 261.973 210.841 261.74Z" fill="#FFB09E"/>
<path d="M198.434 248.699H201.089V247.522C201.089 244.556 203.502 242.144 206.467 242.144H209.527C212.492 242.144 214.905 244.556 214.905 247.522V248.699H217.56C217.728 248.699 217.891 248.718 218.049 248.753V247.522C218.049 242.823 214.226 239 209.527 239H206.467C201.768 239 197.945 242.823 197.945 247.522V248.753C198.103 248.718 198.266 248.699 198.434 248.699Z" fill="#685E68"/>
<path d="M211.078 239.142C211.563 239.958 211.842 240.91 211.842 241.928V242.668C213.653 243.535 214.906 245.385 214.906 247.522V248.699H217.562C217.729 248.699 217.893 248.718 218.05 248.753V247.522C218.05 243.352 215.04 239.873 211.078 239.142Z" fill="#554E56"/>
<path d="M217.563 248.614H214.908V253.64C214.908 254.012 214.877 254.377 214.82 254.733H217.327L217.431 254.815H217.563C217.879 254.815 218.185 254.755 218.475 254.637L218.557 254.512C218.557 254.512 218.557 254.512 218.557 254.512C219.355 254.137 219.909 253.327 219.909 252.387V250.96C219.909 249.665 218.858 248.614 217.563 248.614Z" fill="#433F43"/>
<path d="M201.091 253.641V248.615H198.436C197.14 248.615 196.09 249.665 196.09 250.961V252.388C196.09 253.683 197.14 254.734 198.436 254.734H201.178C201.121 254.378 201.091 254.013 201.091 253.641Z" fill="#7A6D79"/>
<path d="M214.83 248.203H211.873C211.452 248.203 211.059 247.976 210.849 247.611L210.111 246.333C210.036 246.204 209.903 246.127 209.754 246.127C209.605 246.127 209.471 246.204 209.397 246.333L208.659 247.611C208.448 247.976 208.055 248.203 207.634 248.203H201.286L201.008 248.287V253.641C201.008 257.503 204.138 260.634 208 260.634C211.862 260.634 214.993 257.503 214.993 253.641V248.287L214.83 248.203Z" fill="#FFDFCF"/>
<path d="M214.827 248.203H211.871C211.861 248.203 211.851 248.202 211.842 248.202V253.008C211.842 256.793 208.834 259.874 205.078 259.995C205.967 260.404 206.955 260.634 207.998 260.634C211.86 260.634 214.99 257.503 214.99 253.641V248.288L214.827 248.203Z" fill="#FFCEBF"/>
<path d="M203.946 275.465C200.278 275.465 196.856 274.416 193.961 272.604C194.621 273.34 195.337 274.025 196.105 274.65C196.42 274.907 196.598 275.295 196.578 275.701L196.365 280.096C196.331 280.796 197.102 281.241 197.69 280.861L201.694 278.283C202.005 278.083 202.386 278.031 202.74 278.134C204.41 278.618 206.175 278.879 208.001 278.879C213.667 278.879 218.749 276.378 222.204 272.42V267.626C222.204 266.407 221.804 265.281 221.129 264.372C218.173 270.913 211.591 275.465 203.946 275.465Z" fill="#FD3581"/>
<path d="M209.53 242.06H206.471C203.454 242.06 201.008 244.505 201.008 247.522V248.287H207.634C208.087 248.287 208.505 248.046 208.732 247.653L209.47 246.375C209.596 246.157 209.911 246.157 210.038 246.375L210.776 247.653C211.002 248.046 211.42 248.287 211.873 248.287H214.993V247.522C214.993 244.505 212.547 242.06 209.53 242.06Z" fill="#D88A55"/>
<path d="M211.844 242.574V248.287C211.853 248.287 211.863 248.288 211.873 248.288H214.992V247.523C214.992 245.333 213.703 243.446 211.844 242.574Z" fill="#C57A44"/>
<path d="M207.998 273.035C207.658 273.035 207.383 272.759 207.383 272.42V272.166C207.383 271.826 207.658 271.551 207.998 271.551C208.338 271.551 208.613 271.826 208.613 272.166V272.42C208.613 272.759 208.338 273.035 207.998 273.035Z" fill="white"/>
<path d="M207.998 276.419C207.658 276.419 207.383 276.143 207.383 275.803V275.55C207.383 275.21 207.658 274.935 207.998 274.935C208.338 274.935 208.613 275.21 208.613 275.55V275.803C208.613 276.143 208.338 276.419 207.998 276.419Z" fill="white"/>
<path d="M205.268 251.961C204.928 251.961 204.652 251.686 204.652 251.346V250.8C204.652 250.46 204.928 250.185 205.268 250.185C205.607 250.185 205.883 250.46 205.883 250.8V251.346C205.883 251.686 205.607 251.961 205.268 251.961Z" fill="#FFB09E"/>
<path d="M210.732 251.961C210.393 251.961 210.117 251.686 210.117 251.346V250.8C210.117 250.46 210.393 250.185 210.732 250.185C211.072 250.185 211.348 250.46 211.348 250.8V251.346C211.348 251.686 211.072 251.961 210.732 251.961Z" fill="#FFB09E"/>
<path d="M217.562 254.733H217.325V256.048C217.325 256.613 216.866 257.072 216.302 257.072H209.828V258.134L209.91 258.303H216.302C217.545 258.303 218.556 257.291 218.556 256.048V254.512C218.254 254.653 217.917 254.733 217.562 254.733Z" fill="#685E68"/>
<path d="M209.91 258.303H206.953C206.474 258.303 206.086 257.915 206.086 257.436V256.438C206.086 255.959 206.474 255.571 206.953 255.571H209.043C209.522 255.571 209.91 255.959 209.91 256.438V258.303H209.91Z" fill="#7A6D79"/>
</g>
<circle cx="35.198" cy="101.198" r="34.758" fill="#F3F4FF" stroke="#8E8E8E" stroke-width="0.87995"/>
<path d="M18.5938 117.406H25.1562C26.6 117.406 27.7812 116.225 27.7812 114.781V113.469L31.7188 110.844H27.7812V108.219C27.7812 106.775 26.6 105.594 25.1562 105.594H18.5938C17.15 105.594 15.9688 106.775 15.9688 108.219V114.781C15.9688 116.225 17.15 117.406 18.5938 117.406Z" fill="#80D8FF"/>
<path d="M51.4062 96.4326H44.8438C43.4 96.4326 42.2188 95.2514 42.2188 93.8076V92.4951L38.2812 89.8701H42.2188V87.2451C42.2188 85.8014 43.4 84.6201 44.8438 84.6201H51.4062C52.85 84.6201 54.0312 85.8014 54.0312 87.2451V93.8076C54.0312 95.2645 52.85 96.4326 51.4062 96.4326Z" fill="#80D8FF"/>
<path d="M25.8633 101C30.9374 101 35.0508 96.8866 35.0508 91.8125C35.0508 86.7384 30.9374 82.625 25.8633 82.625C20.7892 82.625 16.6758 86.7384 16.6758 91.8125C16.6758 96.8866 20.7892 101 25.8633 101Z" fill="#E0E0E0"/>
<path d="M25.8633 101.656C31.2998 101.656 35.707 97.2491 35.707 91.8125C35.707 86.3759 31.2998 81.9688 25.8633 81.9688C20.4267 81.9688 16.0195 86.3759 16.0195 91.8125C16.0195 97.2491 20.4267 101.656 25.8633 101.656Z" fill="#FFF176"/>
<path d="M23.8672 93.125H27.8047V98.375H23.8672V93.125Z" fill="#ECEFF1"/>
<path d="M25.8359 94.4375C24.0247 94.4375 22.5547 92.9675 22.5547 91.1562V89.1875C22.5547 87.3763 24.0247 85.9062 25.8359 85.9062C27.6472 85.9062 29.1172 87.3763 29.1172 89.1875V91.1562C29.1172 92.9675 27.6472 94.4375 25.8359 94.4375Z" fill="#ECEFF1"/>
<path d="M25.8228 85.9062C24.0116 85.9194 22.5547 87.3894 22.5547 89.1875V91.1562C22.5547 92.2325 23.0797 93.1775 23.8803 93.7812C25.6916 93.7681 27.1484 91.655 27.1484 89.8438V88.5312C27.1484 87.455 26.6234 86.51 25.8228 85.9062Z" fill="white"/>
<path d="M25.8369 101.656C28.4225 101.656 30.7587 100.659 32.5175 99.0314C32.0975 98.3095 31.4806 97.6926 30.68 97.3514L27.8056 96.1045L25.8369 97.7189L23.8681 96.1176L20.9937 97.3514C20.1931 97.6926 19.5762 98.3095 19.1562 99.0314C20.915 100.659 23.2513 101.656 25.8369 101.656Z" fill="#FF8A80"/>
<path d="M32.5045 99.0314C32.0845 98.3095 31.4677 97.6926 30.667 97.3514L27.7927 96.1045L27.1758 96.6032L27.3858 96.6951C28.8295 97.312 29.7614 98.7426 29.7614 100.304V100.829C30.7852 100.396 31.7039 99.7795 32.5045 99.0314Z" fill="#F27670"/>
<path d="M44.2383 120.031C49.6748 120.031 54.082 115.624 54.082 110.188C54.082 104.751 49.6748 100.344 44.2383 100.344C38.8017 100.344 34.3945 104.751 34.3945 110.188C34.3945 115.624 38.8017 120.031 44.2383 120.031Z" fill="#FFF176"/>
<path d="M47.4688 113.469H40.9062C40.1844 113.469 39.5938 112.878 39.5938 112.156V106.906C39.5938 106.184 40.1844 105.594 40.9062 105.594H47.4688C48.1906 105.594 48.7812 106.184 48.7812 106.906V112.156C48.7812 112.878 48.1906 113.469 47.4688 113.469Z" fill="#55FB9B"/>
<path d="M44.1858 114.781C46.5745 114.781 48.517 116.619 48.7402 118.942C45.892 120.412 42.4795 120.386 39.6445 118.889C39.8808 116.579 41.8102 114.781 44.1858 114.781Z" fill="#55FB9B"/>
<path d="M25.1562 118.062H18.5938C16.7825 118.062 15.3125 116.592 15.3125 114.781V108.219C15.3125 106.408 16.7825 104.938 18.5938 104.938H25.1562C26.9675 104.938 28.4375 106.408 28.4375 108.219V110.188C28.4375 110.555 28.1488 110.844 27.7812 110.844C27.4137 110.844 27.125 110.555 27.125 110.188V108.219C27.125 107.129 26.2456 106.25 25.1562 106.25H18.5938C17.5044 106.25 16.625 107.129 16.625 108.219V114.781C16.625 115.871 17.5044 116.75 18.5938 116.75H25.1562C26.2456 116.75 27.125 115.871 27.125 114.781V113.469C27.125 113.246 27.23 113.049 27.4138 112.918L31.3512 110.293C31.6531 110.096 32.06 110.174 32.2569 110.476C32.4538 110.778 32.375 111.185 32.0731 111.382L28.4375 113.823V114.781C28.4375 116.592 26.9675 118.062 25.1562 118.062Z" fill="#455A64"/>
<path d="M51.4053 97.0889H44.8428C43.0316 97.0889 41.5616 95.6189 41.5616 93.8076V92.8495L37.9128 90.4214C37.611 90.2245 37.5322 89.8176 37.7291 89.5157C37.926 89.2139 38.346 89.1351 38.6347 89.332L42.5722 91.957C42.7691 92.0751 42.8741 92.272 42.8741 92.4951V93.8076C42.8741 94.897 43.7535 95.7764 44.8428 95.7764H51.4053C52.4947 95.7764 53.3741 94.897 53.3741 93.8076V87.2451C53.3741 86.1557 52.4947 85.2764 51.4053 85.2764H44.8428C43.7535 85.2764 42.8741 86.1557 42.8741 87.2451V89.2139C42.8741 89.5814 42.5853 89.8701 42.2178 89.8701C41.8503 89.8701 41.5616 89.5814 41.5616 89.2139V87.2451C41.5616 85.4339 43.0316 83.9639 44.8428 83.9639H51.4053C53.2166 83.9639 54.6866 85.4339 54.6866 87.2451V93.8076C54.6866 95.6189 53.2166 97.0889 51.4053 97.0889Z" fill="#455A64"/>
<path d="M32.5387 99.6743C32.3156 99.6743 32.0925 99.5562 31.9744 99.3462C31.62 98.7162 31.0819 98.2437 30.4256 97.9549L27.5512 96.7212C27.2231 96.5768 27.0656 96.1962 27.21 95.8549C27.3544 95.5268 27.735 95.3693 28.0762 95.5137L30.9506 96.7474C31.8694 97.1412 32.6306 97.8368 33.1294 98.6899C33.3131 99.0049 33.195 99.4118 32.88 99.5824C32.7487 99.6481 32.6437 99.6743 32.5387 99.6743Z" fill="#455A64"/>
<path d="M19.1275 99.6748C19.0225 99.6748 18.9044 99.6485 18.7994 99.5829C18.4844 99.3991 18.3794 99.0054 18.55 98.6904C19.0488 97.8241 19.81 97.1285 20.7288 96.7479L23.6032 95.501C23.9313 95.3566 24.325 95.5141 24.4694 95.8423C24.6138 96.1704 24.4563 96.5641 24.1282 96.7085L21.2538 97.9554C20.5975 98.231 20.0463 98.7298 19.705 99.3466C19.5738 99.5566 19.3507 99.6748 19.1275 99.6748Z" fill="#455A64"/>
<path d="M27.8047 96.8C27.4372 96.8 27.1484 96.5113 27.1484 96.1438V93.7681C27.1484 93.5581 27.2403 93.3744 27.4109 93.2431C28.0803 92.7313 28.4609 91.97 28.4609 91.1562V89.1875C28.4609 87.7437 27.2797 86.5625 25.8359 86.5625C24.3922 86.5625 23.2109 87.7437 23.2109 89.1875V91.1562C23.2109 91.9831 23.5916 92.7313 24.2609 93.2431C24.4316 93.3612 24.5234 93.5581 24.5234 93.7681V96.1438C24.5234 96.5113 24.2347 96.8 23.8672 96.8C23.4997 96.8 23.2109 96.5113 23.2109 96.1438V94.07C22.3709 93.3219 21.8984 92.2719 21.8984 91.1562V89.1875C21.8984 87.0219 23.6703 85.25 25.8359 85.25C28.0016 85.25 29.7734 87.0219 29.7734 89.1875V91.1562C29.7734 92.285 29.3009 93.3219 28.4609 94.07V96.1438C28.4609 96.5113 28.1591 96.8 27.8047 96.8Z" fill="#455A64"/>
<path d="M26.4905 95.0281C26.1886 95.0281 25.913 94.8181 25.8474 94.5031C25.7817 94.1488 26.0049 93.7944 26.3592 93.7287C27.5667 93.4794 28.4592 92.4031 28.4592 91.1562C28.4592 90.7887 28.748 90.5 29.1155 90.5C29.483 90.5 29.7717 90.7887 29.7717 91.1562C29.7717 93.02 28.4461 94.6344 26.6217 95.015C26.5824 95.0281 26.5299 95.0281 26.4905 95.0281Z" fill="#455A64"/>
<path d="M25.8633 102.312C23.0545 102.312 20.4164 101.223 18.4345 99.2412C14.3395 95.1462 14.3395 88.4919 18.4345 84.3969C20.4295 82.4019 23.0677 81.3125 25.8633 81.3125C28.6589 81.3125 31.3102 82.4019 33.292 84.3837C37.387 88.4787 37.387 95.1331 33.292 99.2281C31.3102 101.223 28.672 102.312 25.8633 102.312ZM25.8633 82.625C23.4089 82.625 21.112 83.5831 19.3664 85.3156C15.7833 88.8988 15.7833 94.7262 19.3664 98.3094C21.112 100.042 23.4089 101 25.8633 101C28.3177 101 30.6277 100.042 32.3602 98.3094C35.9433 94.7262 35.9433 88.8988 32.3602 85.3156C30.6277 83.5831 28.3177 82.625 25.8633 82.625Z" fill="#455A64"/>
<path d="M44.2383 120.688C41.4295 120.688 38.7914 119.598 36.8095 117.616C32.7145 113.521 32.7145 106.867 36.8095 102.772C38.8045 100.777 41.4427 99.6875 44.2383 99.6875C47.0339 99.6875 49.6852 100.777 51.667 102.759C55.762 106.854 55.762 113.508 51.667 117.603C49.6852 119.598 47.047 120.688 44.2383 120.688ZM44.2383 101C41.7839 101 39.4739 101.958 37.7414 103.691C34.1583 107.274 34.1583 113.101 37.7414 116.684C39.4739 118.417 41.7839 119.375 44.2383 119.375C46.6927 119.375 49.0027 118.417 50.7352 116.684C54.3183 113.101 54.3183 107.274 50.7352 103.691C49.0027 101.958 46.6927 101 44.2383 101Z" fill="#455A64"/>
<path d="M47.4688 114.125H40.9062C39.8169 114.125 38.9375 113.246 38.9375 112.156V106.906C38.9375 105.817 39.8169 104.938 40.9062 104.938H42.875C43.2425 104.938 43.5312 105.226 43.5312 105.594C43.5312 105.961 43.2425 106.25 42.875 106.25H40.9062C40.5388 106.25 40.25 106.539 40.25 106.906V112.156C40.25 112.524 40.5388 112.812 40.9062 112.812H47.4688C47.8363 112.812 48.125 112.524 48.125 112.156V106.906C48.125 106.539 47.8363 106.25 47.4688 106.25H44.8438C44.4763 106.25 44.1875 105.961 44.1875 105.594V103.625C44.1875 103.257 44.4763 102.969 44.8438 102.969C45.2112 102.969 45.5 103.257 45.5 103.625V104.938H47.4688C48.5581 104.938 49.4375 105.817 49.4375 106.906V112.156C49.4375 113.246 48.5581 114.125 47.4688 114.125Z" fill="#455A64"/>
<path d="M44.8438 111.5H43.5312C43.1637 111.5 42.875 111.211 42.875 110.844C42.875 110.476 43.1637 110.188 43.5312 110.188H44.8438C45.2113 110.188 45.5 110.476 45.5 110.844C45.5 111.211 45.2113 111.5 44.8438 111.5Z" fill="#455A64"/>
<path d="M46.1562 109.006C45.7887 109.006 45.5 108.718 45.5 108.35V108.219C45.5 107.851 45.7887 107.562 46.1562 107.562C46.5237 107.562 46.8125 107.851 46.8125 108.219V108.35C46.8125 108.718 46.5237 109.006 46.1562 109.006Z" fill="#455A64"/>
<path d="M42.2188 109.006C41.8512 109.006 41.5625 108.718 41.5625 108.35V108.219C41.5625 107.851 41.8512 107.562 42.2188 107.562C42.5862 107.562 42.875 107.851 42.875 108.219V108.35C42.875 108.718 42.5862 109.006 42.2188 109.006Z" fill="#455A64"/>
<path d="M44.2525 120.688C42.5463 120.688 40.8532 120.267 39.3438 119.467C39.1075 119.336 38.9632 119.086 39.0025 118.824C39.265 116.146 41.4963 114.125 44.1869 114.125C46.8907 114.125 49.135 116.173 49.3975 118.876C49.4238 119.139 49.2794 119.401 49.0432 119.519C47.5732 120.281 45.9194 120.688 44.2525 120.688ZM40.3675 118.509C41.575 119.073 42.9138 119.362 44.2525 119.362C45.5519 119.362 46.8513 119.086 48.0194 118.548C47.6388 116.75 46.0638 115.438 44.1869 115.438C42.3232 115.438 40.7482 116.737 40.3675 118.509Z" fill="#455A64"/>
<path d="M51.4062 89.1875H44.8438C44.4762 89.1875 44.1875 88.8987 44.1875 88.5312C44.1875 88.1637 44.4762 87.875 44.8438 87.875H51.4062C51.7737 87.875 52.0625 88.1637 52.0625 88.5312C52.0625 88.8987 51.7737 89.1875 51.4062 89.1875Z" fill="#455A64"/>
<path d="M48.7812 91.8125H44.8438C44.4762 91.8125 44.1875 91.5237 44.1875 91.1562C44.1875 90.7887 44.4762 90.5 44.8438 90.5H48.7812C49.1487 90.5 49.4375 90.7887 49.4375 91.1562C49.4375 91.5237 49.1487 91.8125 48.7812 91.8125Z" fill="#455A64"/>
<path d="M25.1562 110.188H18.5938C18.2262 110.188 17.9375 109.899 17.9375 109.531C17.9375 109.164 18.2262 108.875 18.5938 108.875H25.1562C25.5237 108.875 25.8125 109.164 25.8125 109.531C25.8125 109.899 25.5237 110.188 25.1562 110.188Z" fill="#455A64"/>
<path d="M22.5312 112.812H18.5938C18.2262 112.812 17.9375 112.524 17.9375 112.156C17.9375 111.789 18.2262 111.5 18.5938 111.5H22.5312C22.8987 111.5 23.1875 111.789 23.1875 112.156C23.1875 112.524 22.8987 112.812 22.5312 112.812Z" fill="#455A64"/>
<path opacity="0.9" d="M256.187 116.179C263.425 85.5273 244.444 54.8118 213.792 47.5741C183.14 40.3363 152.425 59.3171 145.187 89.9689C137.949 120.621 156.93 151.336 187.582 158.574C218.234 165.812 248.949 146.831 256.187 116.179Z" fill="#DFE0EB"/>
<path d="M209.094 126.18C203.829 127.859 198.171 127.859 192.906 126.18V122.094H209.094V126.18Z" fill="#C5D0F3"/>
<path d="M166.859 100.688C166.756 100.688 166.656 100.646 166.583 100.573C166.51 100.5 166.469 100.4 166.469 100.297V75.3438C166.469 75.2401 166.51 75.1408 166.583 75.0675C166.656 74.9943 166.756 74.9531 166.859 74.9531C166.963 74.9531 167.062 74.9943 167.136 75.0675C167.209 75.1408 167.25 75.2401 167.25 75.3438V100.297C167.25 100.4 167.209 100.5 167.136 100.573C167.062 100.646 166.963 100.688 166.859 100.688Z" fill="#4BD8BD"/>
<path d="M166.859 77.4219C168.007 77.4219 168.938 76.4915 168.938 75.3438C168.938 74.196 168.007 73.2656 166.859 73.2656C165.712 73.2656 164.781 74.196 164.781 75.3438C164.781 76.4915 165.712 77.4219 166.859 77.4219Z" fill="#83D5FF"/>
<path d="M235.141 100.688C235.037 100.688 234.938 100.646 234.864 100.573C234.791 100.5 234.75 100.4 234.75 100.297V75.3438C234.75 75.2401 234.791 75.1408 234.864 75.0675C234.938 74.9943 235.037 74.9531 235.141 74.9531C235.244 74.9531 235.344 74.9943 235.417 75.0675C235.49 75.1408 235.531 75.2401 235.531 75.3438V100.297C235.531 100.4 235.49 100.5 235.417 100.573C235.344 100.646 235.244 100.688 235.141 100.688Z" fill="#4BD8BD"/>
<path d="M235.141 77.4219C236.288 77.4219 237.219 76.4915 237.219 75.3438C237.219 74.196 236.288 73.2656 235.141 73.2656C233.993 73.2656 233.062 74.196 233.062 75.3438C233.062 76.4915 233.993 77.4219 235.141 77.4219Z" fill="#83D5FF"/>
<path d="M226.023 82.2656H175.969C172.155 82.2656 169.062 85.3577 169.062 89.1719V113.359C169.062 117.174 172.155 120.266 175.969 120.266H226.023C229.838 120.266 232.93 117.174 232.93 113.359V89.1719C232.93 85.3577 229.838 82.2656 226.023 82.2656Z" fill="#C5D0F3"/>
<path d="M223.219 87.6484H178.781C175.817 87.6484 173.414 90.0514 173.414 93.0156V119.383C173.414 122.347 175.817 124.75 178.781 124.75H223.219C226.183 124.75 228.586 122.347 228.586 119.383V93.0156C228.586 90.0514 226.183 87.6484 223.219 87.6484Z" fill="#727A8F"/>
<path d="M192.031 99.1328C192.031 99.8656 191.814 100.582 191.407 101.191C190.999 101.8 190.421 102.275 189.743 102.555C189.066 102.835 188.321 102.908 187.603 102.764C186.884 102.621 186.224 102.267 185.707 101.749C185.189 101.23 184.837 100.569 184.695 99.8505C184.553 99.1316 184.628 98.3868 184.909 97.7103C185.191 97.0338 185.666 96.4559 186.276 96.05C186.886 95.644 187.603 95.4281 188.336 95.4297C189.317 95.4318 190.257 95.8228 190.949 96.5171C191.642 97.2113 192.031 98.152 192.031 99.1328Z" fill="white"/>
<path d="M217.406 99.1328C217.406 99.8652 217.189 100.581 216.782 101.19C216.375 101.799 215.797 102.274 215.12 102.554C214.444 102.834 213.699 102.908 212.981 102.765C212.262 102.622 211.603 102.269 211.085 101.751C210.567 101.233 210.214 100.574 210.071 99.8553C209.928 99.1369 210.002 98.3923 210.282 97.7157C210.562 97.039 211.037 96.4607 211.646 96.0538C212.255 95.6469 212.971 95.4297 213.703 95.4297C214.685 95.4297 215.627 95.8198 216.322 96.5143C217.016 97.2088 217.406 98.1507 217.406 99.1328Z" fill="white"/>
<path d="M217.406 111.648V114.508C217.406 114.922 217.242 115.32 216.949 115.613C216.656 115.906 216.258 116.07 215.844 116.07H211.938V110.086H215.844C216.258 110.086 216.656 110.251 216.949 110.544C217.242 110.837 217.406 111.234 217.406 111.648Z" fill="#FFAB39"/>
<path d="M206.453 110.086H211.914V116.07H206.453V110.086Z" fill="#FFC77C"/>
<path d="M201 110.086H206.453V116.07H201V110.086Z" fill="#FFAB39"/>
<path d="M195.547 110.086H201V116.07H195.547V110.086Z" fill="#FFC77C"/>
<path d="M190.086 110.086H195.547V116.07H190.086V110.086Z" fill="#FFAB39"/>
<path d="M190.062 110.086V116.07H186.156C185.742 116.07 185.344 115.906 185.051 115.613C184.758 115.32 184.594 114.922 184.594 114.508V111.648C184.594 111.234 184.758 110.837 185.051 110.544C185.344 110.251 185.742 110.086 186.156 110.086H190.062Z" fill="#FFC77C"/>
<path d="M168.555 96.7031H172.203C172.825 96.7031 173.421 96.9501 173.86 97.3896C174.3 97.8291 174.547 98.4253 174.547 99.0469V110.766C174.547 111.387 174.3 111.983 173.86 112.423C173.421 112.862 172.825 113.109 172.203 113.109H168.555C167.519 113.109 166.525 112.698 165.793 111.965C165.06 111.233 164.648 110.239 164.648 109.203V100.609C164.648 99.5734 165.06 98.5798 165.793 97.8472C166.525 97.1147 167.519 96.7031 168.555 96.7031Z" fill="#602EDF"/>
<path d="M233.445 113.07H229.797C229.175 113.07 228.579 112.823 228.14 112.384C227.7 111.944 227.453 111.348 227.453 110.727V99.0078C227.453 98.3862 227.7 97.7901 228.14 97.3505C228.579 96.911 229.175 96.6641 229.797 96.6641H233.445C234.481 96.6641 235.475 97.0756 236.207 97.8082C236.94 98.5407 237.352 99.5343 237.352 100.57V109.164C237.352 110.2 236.94 111.194 236.207 111.926C235.475 112.659 234.481 113.07 233.445 113.07Z" fill="#602EDF"/>
<path d="M169.062 110.031C168.96 110.029 168.861 109.987 168.788 109.915C168.716 109.842 168.674 109.744 168.672 109.641V100.141C168.672 100.037 168.713 99.9377 168.786 99.8644C168.86 99.7912 168.959 99.75 169.062 99.75C169.166 99.75 169.265 99.7912 169.339 99.8644C169.412 99.9377 169.453 100.037 169.453 100.141V109.641C169.453 109.744 169.412 109.844 169.339 109.917C169.265 109.99 169.166 110.031 169.062 110.031Z" fill="#E9F2FF"/>
<path d="M232.938 110.031C232.834 110.031 232.735 109.99 232.661 109.917C232.588 109.844 232.547 109.744 232.547 109.641V100.141C232.547 100.037 232.588 99.9377 232.661 99.8644C232.735 99.7912 232.834 99.75 232.938 99.75C233.041 99.75 233.14 99.7912 233.214 99.8644C233.287 99.9377 233.328 100.037 233.328 100.141V109.641C233.326 109.744 233.284 109.842 233.212 109.915C233.139 109.987 233.04 110.029 232.938 110.031Z" fill="#E9F2FF"/>
<path d="M181.945 76.1953H220.055C220.676 76.1953 221.272 76.4422 221.712 76.8818C222.152 77.3213 222.398 77.9175 222.398 78.5391V82.25H179.602V78.5391C179.602 77.9175 179.848 77.3213 180.288 76.8818C180.728 76.4422 181.324 76.1953 181.945 76.1953Z" fill="#727A8F"/>
<path d="M216.227 79.6172H185.758C185.654 79.6172 185.555 79.576 185.482 79.5028C185.408 79.4295 185.367 79.3302 185.367 79.2266C185.367 79.123 185.408 79.0236 185.482 78.9503C185.555 78.8771 185.654 78.8359 185.758 78.8359H216.227C216.33 78.8359 216.43 78.8771 216.503 78.9503C216.576 79.0236 216.617 79.123 216.617 79.2266C216.617 79.3302 216.576 79.4295 216.503 79.5028C216.43 79.576 216.33 79.6172 216.227 79.6172Z" fill="#C5D0F3"/>
<line x1="359.005" y1="100.542" x2="242.005" y2="101.542" stroke="#C3D0E2" stroke-width="1.08493" stroke-dasharray="5.17 5.17"/>
<circle cx="360.198" cy="101.198" r="34.758" fill="#F3F4FF" stroke="#8E8E8E" stroke-width="0.87995"/>
<path d="M353.399 82.5094L353.906 86.5306C353.959 86.9527 354.318 87.2693 354.743 87.2693H368.613C369.039 87.2693 369.398 86.9527 369.451 86.5306L369.958 82.5094C370.019 82.0249 369.724 81.5629 369.256 81.4241C365.092 80.1886 358.267 80.1876 354.1 81.4241C353.632 81.5631 353.337 82.0249 353.399 82.5094Z" fill="#E0EBFC"/>
<path d="M363.511 82.8275H362.199V81.5157C362.199 81.4336 362.133 81.3672 362.051 81.3672H361.308C361.226 81.3672 361.16 81.4336 361.16 81.5157V82.8275H359.848C359.766 82.8275 359.699 82.894 359.699 82.976V83.7185C359.699 83.8006 359.766 83.867 359.848 83.867H361.16V85.1789C361.16 85.2609 361.226 85.3273 361.308 85.3273H362.051C362.133 85.3273 362.199 85.2609 362.199 85.1789V83.867H363.511C363.593 83.867 363.66 83.8006 363.66 83.7185V82.976C363.66 82.894 363.593 82.8275 363.511 82.8275Z" fill="#6BDDDD"/>
<path d="M362.05 85.6556H361.308C361.045 85.6556 360.831 85.4418 360.831 85.179V84.1953H359.848C359.585 84.1953 359.371 83.9815 359.371 83.7187V82.976C359.371 82.7132 359.585 82.4994 359.848 82.4994H360.831V81.5157C360.831 81.2528 361.045 81.0391 361.308 81.0391H362.05C362.313 81.0391 362.527 81.2528 362.527 81.5157V82.4994H363.511C363.774 82.4994 363.987 82.7132 363.987 82.976V83.7185C363.987 83.9814 363.774 84.1951 363.511 84.1951H362.527V85.1789C362.527 85.4417 362.313 85.6556 362.05 85.6556ZM361.487 84.9994H361.871V83.8672C361.871 83.686 362.018 83.539 362.199 83.539H363.331V83.1556H362.199C362.018 83.1556 361.871 83.0086 361.871 82.8275V81.6953H361.487V82.8275C361.487 83.0086 361.34 83.1556 361.159 83.1556H360.027V83.539H361.159C361.34 83.539 361.487 83.686 361.487 83.8672V84.9994Z" fill="#3762CC"/>
<path d="M368.613 87.5973H354.744C354.154 87.5973 353.654 87.1563 353.58 86.5715L353.073 82.5504C352.991 81.9003 353.384 81.2943 354.008 81.1094C358.237 79.8542 365.119 79.8542 369.35 81.1094C369.973 81.2943 370.366 81.9003 370.284 82.5504L369.777 86.5715C369.703 87.1563 369.203 87.5973 368.613 87.5973ZM361.678 80.8198C358.968 80.8198 356.257 81.126 354.194 81.7384C353.88 81.8314 353.683 82.1384 353.724 82.468L354.231 86.4892C354.264 86.7468 354.484 86.9408 354.743 86.9408H368.613C368.873 86.9408 369.093 86.7466 369.125 86.4892L369.632 82.468C369.674 82.1382 369.477 81.8314 369.163 81.7383C367.099 81.126 364.389 80.8198 361.678 80.8198Z" fill="#3762CC"/>
<path d="M358.973 97.9629H364.386V102.253H358.973V97.9629Z" fill="#4671C6"/>
<path d="M364.386 102.582H358.973C358.792 102.582 358.645 102.435 358.645 102.253V97.9629C358.645 97.7818 358.792 97.6348 358.973 97.6348H364.386C364.567 97.6348 364.714 97.7818 364.714 97.9629V102.253C364.714 102.435 364.567 102.582 364.386 102.582ZM359.301 101.925H364.058V98.291H359.301V101.925Z" fill="#3762CC"/>
<path d="M370.406 96.0916V89.6367H372.893C373.625 89.6367 374.219 90.2305 374.219 90.9628V94.7653C374.219 95.4977 373.625 96.0914 372.893 96.0914L370.406 96.0916Z" fill="#A4C9FF"/>
<path d="M352.953 89.6367V96.0916H350.467C349.734 96.0916 349.141 95.4979 349.141 94.7655V90.9628C349.141 90.2305 349.734 89.6367 350.467 89.6367H352.953Z" fill="#A4C9FF"/>
<path d="M372.893 96.4197H370.406C370.225 96.4197 370.078 96.2727 370.078 96.0916V89.6367C370.078 89.4556 370.225 89.3086 370.406 89.3086H372.893C373.805 89.3086 374.547 90.0506 374.547 90.9628V94.7653C374.547 95.6775 373.805 96.4197 372.893 96.4197ZM370.734 95.7635H372.893C373.443 95.7635 373.891 95.3157 373.891 94.7655V90.9628C373.891 90.4126 373.443 89.9648 372.893 89.9648H370.734V95.7635Z" fill="#3762CC"/>
<path d="M352.953 96.4197H350.467C349.555 96.4197 348.812 95.6777 348.812 94.7655V90.9628C348.812 90.0506 349.555 89.3086 350.467 89.3086H352.953C353.134 89.3086 353.281 89.4556 353.281 89.6367V96.0916C353.281 96.2727 353.134 96.4197 352.953 96.4197ZM350.467 89.9648C349.916 89.9648 349.469 90.4126 349.469 90.9628V94.7653C349.469 95.3156 349.916 95.7633 350.467 95.7633H352.625V89.9648H350.467Z" fill="#3762CC"/>
<path d="M369.156 99.4924H354.207C352.354 99.4924 350.852 97.9902 350.852 96.1371V89.3504C350.852 87.4973 352.354 85.9951 354.207 85.9951H369.156C371.009 85.9951 372.512 87.4973 372.512 89.3504V96.1373C372.512 97.9902 371.009 99.4924 369.156 99.4924Z" fill="#E0EBFC"/>
<path d="M354.915 96.3416C354.41 96.3416 354 95.932 354 95.4266V90.0605C354 89.5552 354.41 89.1455 354.915 89.1455H368.444C368.949 89.1455 369.359 89.5552 369.359 90.0605V95.4266C369.359 95.932 368.949 96.3416 368.444 96.3416H354.915Z" fill="#6BDDDD"/>
<path d="M351.825 104.174L352.098 118.564C352.129 120.196 353.444 121.503 355.056 121.503H368.3C369.912 121.503 371.227 120.196 371.258 118.564L371.536 103.937C371.567 102.26 370.234 100.883 368.578 100.883H355.012C353.227 100.883 351.791 102.366 351.825 104.174Z" fill="#A4C9FF"/>
<path d="M357.721 94.4096C357.161 94.4096 356.707 93.9555 356.707 93.3954V92.0914C356.707 91.5313 357.161 91.0771 357.721 91.0771C358.281 91.0771 358.735 91.5313 358.735 92.0914V93.3954C358.735 93.9555 358.281 94.4096 357.721 94.4096Z" fill="#4671C6"/>
<path d="M365.643 94.4096C365.083 94.4096 364.629 93.9555 364.629 93.3954V92.0914C364.629 91.5313 365.083 91.0771 365.643 91.0771C366.203 91.0771 366.657 91.5313 366.657 92.0914V93.3954C366.657 93.9555 366.203 94.4096 365.643 94.4096Z" fill="#4671C6"/>
<path d="M369.156 99.8205H354.207C352.176 99.8205 350.523 98.1682 350.523 96.1371V89.3504C350.523 87.3194 352.176 85.667 354.207 85.667H369.156C371.187 85.667 372.839 87.3193 372.839 89.3504V96.1373C372.839 98.1682 371.187 99.8205 369.156 99.8205ZM354.207 86.3232C352.538 86.3232 351.18 87.6812 351.18 89.3504V96.1373C351.18 97.8065 352.538 99.1644 354.207 99.1644H369.156C370.825 99.1644 372.183 97.8065 372.183 96.1373V89.3504C372.183 87.6812 370.825 86.3232 369.156 86.3232H354.207Z" fill="#3762CC"/>
<path d="M368.444 96.6699H354.915C354.23 96.6699 353.672 96.1123 353.672 95.4268V90.0606C353.672 89.3752 354.23 88.8174 354.915 88.8174H368.444C369.129 88.8174 369.687 89.375 369.687 90.0606V95.4268C369.687 96.1123 369.129 96.6699 368.444 96.6699ZM354.915 89.4736C354.591 89.4736 354.328 89.737 354.328 90.0606V95.4268C354.328 95.7505 354.591 96.0137 354.915 96.0137H368.444C368.767 96.0137 369.03 95.7505 369.03 95.4268V90.0606C369.03 89.737 368.767 89.4736 368.444 89.4736H354.915Z" fill="#3762CC"/>
<path d="M368.3 121.831H355.056C353.278 121.831 351.804 120.369 351.77 118.57L351.497 104.18C351.478 103.209 351.84 102.295 352.517 101.606C353.182 100.928 354.068 100.555 355.012 100.555H368.577C369.46 100.555 370.288 100.904 370.91 101.537C371.542 102.182 371.881 103.036 371.864 103.944L371.586 118.57C371.551 120.369 370.077 121.831 368.3 121.831ZM355.011 101.211C354.245 101.211 353.526 101.514 352.985 102.065C352.433 102.628 352.138 103.374 352.153 104.168L352.426 118.558C352.453 120.001 353.633 121.175 355.056 121.175H368.299C369.722 121.175 370.902 120.001 370.929 118.558L371.207 103.931C371.221 103.201 370.949 102.514 370.441 101.997C369.944 101.49 369.282 101.211 368.577 101.211H355.011Z" fill="#3762CC"/>
<path d="M368.391 107.805H363.824C363.553 107.805 363.332 107.584 363.332 107.312V106.076C363.332 105.805 363.553 105.584 363.824 105.584H368.391C368.662 105.584 368.883 105.805 368.883 106.076V107.312C368.883 107.584 368.662 107.805 368.391 107.805ZM363.988 107.148H368.227V106.24H363.988V107.148Z" fill="#3762CC"/>
<path d="M361.68 109.133C361.499 109.133 361.352 108.986 361.352 108.805V100.996C361.352 100.815 361.499 100.668 361.68 100.668C361.861 100.668 362.008 100.815 362.008 100.996V108.805C362.008 108.986 361.861 109.133 361.68 109.133Z" fill="#3762CC"/>
<path d="M353.713 114.394C353.532 114.394 353.385 114.247 353.385 114.065V110.511C353.385 110.239 353.164 110.019 352.893 110.019H347.438C347.166 110.019 346.945 110.239 346.945 110.511V114.065C346.945 114.247 346.798 114.394 346.617 114.394C346.436 114.394 346.289 114.247 346.289 114.065V110.511C346.289 109.877 346.804 109.362 347.438 109.362H352.893C353.526 109.362 354.041 109.877 354.041 110.511V114.065C354.041 114.247 353.894 114.394 353.713 114.394Z" fill="#3762CC"/>
<path d="M355.627 121.504H344.7C344.16 121.504 343.723 121.066 343.723 120.526V113.567C343.723 113.028 344.16 112.59 344.7 112.59H355.627C356.167 112.59 356.605 113.028 356.605 113.567V120.526C356.605 121.066 356.167 121.504 355.627 121.504Z" fill="#E0EBFC"/>
<path d="M352.4 116.412H350.8V114.812C350.8 114.712 350.719 114.631 350.619 114.631H349.713C349.613 114.631 349.532 114.712 349.532 114.812V116.412H347.931C347.831 116.412 347.75 116.493 347.75 116.594V117.499C347.75 117.6 347.831 117.681 347.931 117.681H349.532V119.281C349.532 119.381 349.613 119.462 349.713 119.462H350.619C350.719 119.462 350.8 119.381 350.8 119.281V117.681H352.4C352.5 117.681 352.581 117.6 352.581 117.499V116.594C352.581 116.494 352.5 116.412 352.4 116.412Z" fill="#6BDDDD"/>
<path d="M350.619 119.79H349.713C349.432 119.79 349.203 119.562 349.203 119.281V118.009H347.931C347.65 118.009 347.422 117.78 347.422 117.499V116.594C347.422 116.313 347.65 116.084 347.931 116.084H349.203V114.812C349.203 114.531 349.432 114.303 349.713 114.303H350.619C350.899 114.303 351.128 114.531 351.128 114.812V116.084H352.4C352.681 116.084 352.91 116.313 352.91 116.594V117.499C352.91 117.78 352.681 118.009 352.4 118.009H351.128V119.281C351.128 119.562 350.899 119.79 350.619 119.79ZM349.86 119.134H350.471V117.68C350.471 117.499 350.618 117.352 350.8 117.352H352.253V116.74H350.8C350.618 116.74 350.471 116.593 350.471 116.412V114.959H349.86V116.412C349.86 116.593 349.713 116.74 349.531 116.74H348.078V117.352H349.531C349.713 117.352 349.86 117.499 349.86 117.68V119.134Z" fill="#3762CC"/>
<path d="M355.627 121.832H344.7C343.98 121.832 343.395 121.246 343.395 120.526V113.567C343.395 112.847 343.98 112.262 344.7 112.262H355.627C356.347 112.262 356.933 112.848 356.933 113.567V120.526C356.933 121.246 356.347 121.832 355.627 121.832ZM344.7 112.918C344.342 112.918 344.051 113.209 344.051 113.567V120.526C344.051 120.884 344.342 121.176 344.7 121.176H355.627C355.985 121.176 356.277 120.884 356.277 120.526V113.567C356.277 113.209 355.985 112.918 355.627 112.918H344.7Z" fill="#3762CC"/>
<path d="M373.824 111.384V115.529H372.603V111.384H373.824Z" fill="#A4C9FF"/>
<path d="M373.823 115.857H372.602C372.42 115.857 372.273 115.71 372.273 115.529V111.384C372.273 111.203 372.42 111.056 372.602 111.056H373.823C374.004 111.056 374.151 111.203 374.151 111.384V115.529C374.151 115.71 374.004 115.857 373.823 115.857ZM372.93 115.201H373.495V111.712H372.93V115.201Z" fill="#3762CC"/>
<path d="M374.11 108.804H372.312V100.518C372.312 100.308 372.483 100.138 372.693 100.138H373.729C373.939 100.138 374.11 100.308 374.11 100.518V108.804Z" fill="#A4C9FF"/>
<path d="M373.211 100.466C373.03 100.466 372.883 100.319 372.883 100.138V96.9863C372.883 96.8052 373.03 96.6582 373.211 96.6582C373.392 96.6582 373.539 96.8052 373.539 96.9863V100.138C373.539 100.319 373.392 100.466 373.211 100.466Z" fill="#3762CC"/>
<path d="M374.11 109.132H372.312C372.131 109.132 371.984 108.985 371.984 108.804V100.518C371.984 100.128 372.302 99.8096 372.693 99.8096H373.729C374.12 99.8096 374.438 100.128 374.438 100.518V108.804C374.438 108.985 374.291 109.132 374.11 109.132ZM372.641 108.476H373.782V100.518C373.782 100.489 373.758 100.466 373.729 100.466H372.693C372.664 100.466 372.641 100.489 372.641 100.518V108.476H372.641Z" fill="#3762CC"/>
<path d="M374.218 112.845H372.209C371.999 112.845 371.828 112.675 371.828 112.465V101.724C371.828 101.514 371.999 101.344 372.209 101.344H374.218C374.429 101.344 374.599 101.514 374.599 101.724V112.465C374.599 112.675 374.429 112.845 374.218 112.845Z" fill="#A4C9FF"/>
<path d="M352.38 110.782H348.011C347.524 110.782 347.129 110.387 347.129 109.9V105.897C347.129 105.41 347.524 105.015 348.011 105.015H352.38C352.867 105.015 353.262 105.41 353.262 105.897V109.9C353.262 110.387 352.867 110.782 352.38 110.782Z" fill="#E0EBFC"/>
<path d="M352.38 111.11H348.011C347.344 111.11 346.801 110.568 346.801 109.9V105.897C346.801 105.229 347.344 104.687 348.011 104.687H352.38C353.047 104.687 353.59 105.229 353.59 105.897V109.9C353.59 110.568 353.047 111.11 352.38 111.11ZM348.011 105.343C347.705 105.343 347.457 105.591 347.457 105.897V109.9C347.457 110.206 347.706 110.454 348.011 110.454H352.38C352.686 110.454 352.934 110.206 352.934 109.9V105.897C352.934 105.591 352.685 105.343 352.38 105.343H348.011Z" fill="#3762CC"/>
<path d="M374.218 113.173H372.209C371.818 113.173 371.5 112.855 371.5 112.465V101.724C371.5 101.334 371.818 101.016 372.209 101.016H374.218C374.609 101.016 374.927 101.334 374.927 101.724V112.465C374.927 112.855 374.609 113.173 374.218 113.173ZM372.209 101.672C372.18 101.672 372.156 101.695 372.156 101.724V112.465C372.156 112.493 372.18 112.517 372.209 112.517H374.218C374.247 112.517 374.271 112.493 374.271 112.465V101.724C374.271 101.695 374.247 101.672 374.218 101.672H372.209Z" fill="#3762CC"/>
<path d="M374.675 114.917H371.751C371.414 114.917 371.141 115.19 371.141 115.528C371.141 115.865 371.414 116.139 371.751 116.139H374.675C375.012 116.139 375.286 115.865 375.286 115.528C375.286 115.19 375.012 114.917 374.675 114.917Z" fill="#A4C9FF"/>
<path d="M374.675 116.467H371.751C371.234 116.467 370.812 116.046 370.812 115.528C370.812 115.01 371.234 114.589 371.751 114.589H374.675C375.192 114.589 375.614 115.01 375.614 115.528C375.614 116.046 375.192 116.467 374.675 116.467ZM371.751 115.245C371.595 115.245 371.469 115.372 371.469 115.528C371.469 115.684 371.595 115.811 371.751 115.811H374.675C374.83 115.811 374.957 115.684 374.957 115.528C374.957 115.372 374.831 115.245 374.675 115.245H371.751Z" fill="#3762CC"/>
<path d="M375.396 110.782H371.027C370.539 110.782 370.145 110.387 370.145 109.9V105.897C370.145 105.41 370.539 105.015 371.027 105.015H375.396C375.883 105.015 376.278 105.41 376.278 105.897V109.9C376.278 110.387 375.883 110.782 375.396 110.782Z" fill="#E0EBFC"/>
<path d="M375.396 111.11H371.027C370.359 111.11 369.816 110.568 369.816 109.9V105.897C369.816 105.229 370.359 104.687 371.027 104.687H375.396C376.063 104.687 376.606 105.229 376.606 105.897V109.9C376.606 110.568 376.063 111.11 375.396 111.11ZM371.027 105.343C370.721 105.343 370.473 105.591 370.473 105.897V109.9C370.473 110.206 370.721 110.454 371.027 110.454H375.396C375.701 110.454 375.95 110.206 375.95 109.9V105.897C375.95 105.591 375.701 105.343 375.396 105.343H371.027Z" fill="#3762CC"/>
<defs>
<clipPath id="clip0_2049_5828">
<rect width="331.122" height="177.294" fill="white" transform="translate(35.1953 101.275)"/>
</clipPath>
<clipPath id="clip1_2049_5828">
<rect width="42" height="42" fill="white" transform="translate(293 193)"/>
</clipPath>
<clipPath id="clip2_2049_5828">
<rect width="42" height="42" fill="white" transform="translate(49 193)"/>
</clipPath>
<clipPath id="clip3_2049_5828">
<rect width="42" height="42" fill="white" transform="translate(187 239)"/>
</clipPath>
</defs>
</svg>
