<svg width="45" height="44" viewBox="0 0 45 44" fill="none" xmlns="http://www.w3.org/2000/svg">
<path d="M19.3743 18.5632C19.4933 18.5675 19.6213 18.5675 19.7405 18.5632C19.7469 18.5629 19.7533 18.5628 19.7596 18.5628H23.3101V17.0931C23.2558 15.8111 21.9231 15.1319 20.6398 14.9102C20.3071 15.0519 19.9413 15.1304 19.5574 15.1304C19.1735 15.1304 18.8078 15.0519 18.475 14.9102C17.1917 15.1319 15.859 15.8111 15.8047 17.0931V18.5628H19.3552C19.3616 18.5628 19.3679 18.5628 19.3743 18.5632Z" fill="#94C1FF"/>
<path d="M6.67415 40.7796C6.38961 40.7796 6.15895 40.549 6.15895 40.2644V7.72155C6.15895 7.58465 6.21344 7.45342 6.31029 7.35674C6.40688 7.26041 6.53777 7.20635 6.67415 7.20635H6.67552L10.7777 7.21718V5.3623H6.28202C5.19602 5.3623 4.3125 6.24583 4.3125 7.33182V40.6567C4.3125 41.7427 5.19602 42.6262 6.28202 42.6262H30.9675C30.0037 42.1736 28.9778 41.5684 28.1121 40.7797L6.67415 40.7796Z" fill="#94C1FF"/>
<path d="M28.3359 5.3623V7.21718L32.4381 7.20635H32.4395C32.5758 7.20635 32.7067 7.26041 32.8033 7.35674C32.9002 7.45342 32.9546 7.58465 32.9546 7.72155V25.7262C33.2622 25.7082 33.5705 25.6982 33.8792 25.6982C34.1879 25.6982 34.4945 25.7082 34.8012 25.7261V7.33182C34.8012 6.24583 33.9177 5.3623 32.8317 5.3623H28.336H28.3359Z" fill="#94C1FF"/>
<path d="M29.1328 29.7139V36.3961C29.1328 38.6903 32.5805 40.0236 33.8746 40.4426C35.1682 40.0237 38.6139 38.6908 38.6139 36.3961V29.7139C37.1064 29.1085 35.5138 28.8018 33.8746 28.8018C32.2354 28.8018 30.6405 29.1085 29.1328 29.7139ZM35.6171 33.1576C35.8463 33.3262 35.8954 33.6487 35.7268 33.8779L33.4783 36.9351C33.3813 37.0671 33.2271 37.1451 33.0633 37.1451H33.063C32.899 37.1451 32.7449 37.0669 32.6478 36.9347L31.3981 35.2319C31.2298 35.0026 31.2793 34.6801 31.5086 34.5118C31.7381 34.3434 32.0605 34.3929 32.2289 34.6223L33.0636 35.7597L34.8966 33.2674C35.0652 33.0382 35.3876 32.9891 35.6169 33.1576H35.6171Z" fill="#94C1FF"/>
<path d="M22.3056 33.5713H10.5543C10.2697 33.5713 10.0391 33.8019 10.0391 34.0865C10.0391 34.371 10.2697 34.6017 10.5543 34.6017H22.3056C22.5901 34.6017 22.8208 34.371 22.8208 34.0865C22.8208 33.8019 22.5901 33.5713 22.3056 33.5713Z" fill="#116FFF"/>
<path d="M15.2888 19.5927H19.3451C19.4141 19.5952 19.4854 19.5976 19.5567 19.5976C19.628 19.5976 19.6994 19.5953 19.7684 19.5927H23.8246C24.1092 19.5927 24.3398 19.3621 24.3398 19.0775V17.0824C24.3398 17.076 24.3397 17.0695 24.3395 17.063C24.2881 15.6968 23.3037 14.6217 21.703 14.1091C22.0932 13.6316 22.3276 13.0222 22.3276 12.3589C22.3276 10.8309 21.0846 9.58789 19.5566 9.58789C18.0287 9.58789 16.7857 10.8309 16.7857 12.3589C16.7857 13.0221 17.0202 13.6316 17.4103 14.1091C15.8097 14.6216 14.8252 15.6967 14.7738 17.063C14.7736 17.0694 14.7734 17.0759 14.7734 17.0824V19.0775C14.7734 19.3622 15.0041 19.5927 15.2886 19.5927H15.2888ZM19.5567 10.6184C20.5165 10.6184 21.2973 11.3992 21.2973 12.3589C21.2973 13.3187 20.5165 14.0995 19.5567 14.0995C18.597 14.0995 17.8161 13.3187 17.8161 12.3589C17.8161 11.3992 18.597 10.6184 19.5567 10.6184ZM15.804 17.0926C15.8583 15.8106 17.191 15.1314 18.4743 14.9097C18.807 15.0514 19.1728 15.1299 19.5567 15.1299C19.9406 15.1299 20.3064 15.0514 20.6391 14.9097C21.9224 15.1314 23.2551 15.8106 23.3094 17.0926V18.5623H19.7589C19.7526 18.5623 19.7462 18.5623 19.7399 18.5627C19.6207 18.567 19.4927 18.567 19.3736 18.5627C19.3672 18.5624 19.3609 18.5623 19.3545 18.5623H15.804V17.0926Z" fill="#116FFF"/>
<path d="M22.3056 30.3477H10.5543C10.2697 30.3477 10.0391 30.5783 10.0391 30.8629C10.0391 31.1474 10.2697 31.378 10.5543 31.378H22.3056C22.5901 31.378 22.8208 31.1474 22.8208 30.8629C22.8208 30.5783 22.5901 30.3477 22.3056 30.3477Z" fill="#116FFF"/>
<path d="M22.3056 36.7939H10.5543C10.2697 36.7939 10.0391 37.0246 10.0391 37.3091C10.0391 37.5937 10.2697 37.8243 10.5543 37.8243H22.3056C22.5901 37.8243 22.8208 37.5937 22.8208 37.3091C22.8208 37.0246 22.5901 36.7939 22.3056 36.7939Z" fill="#116FFF"/>
<path d="M32.2275 34.6215C32.0592 34.3921 31.7367 34.3426 31.5073 34.511C31.2779 34.6793 31.2284 35.0017 31.3968 35.2311L32.6465 36.9339C32.7435 37.0661 32.8976 37.1442 33.0616 37.1443H33.0619C33.2258 37.1443 33.3799 37.0663 33.477 36.9343L35.7254 33.8771C35.894 33.6479 35.8449 33.3254 35.6157 33.1568C35.3865 32.9883 35.064 33.0374 34.8954 33.2666L33.0624 35.7589L32.2277 34.6215H32.2275Z" fill="#116FFF"/>
<path d="M28.279 4.33159C28.0415 3.21406 27.0482 2.37299 25.8619 2.37299H23.6184C22.6576 1.09725 21.1587 0.34375 19.5551 0.34375C17.9514 0.34375 16.4525 1.09725 15.4918 2.37299H13.2482C12.062 2.37299 11.0686 3.21398 10.8311 4.33159H6.28116C4.62695 4.33159 3.28125 5.67737 3.28125 7.3315V40.6563C3.28125 42.3106 4.62703 43.6562 6.28116 43.6562H33.8765C33.9213 43.6562 33.9661 43.6504 34.0098 43.6387C35.8183 43.1539 41.7192 41.1991 41.7192 36.3957V28.0792C41.7192 27.8908 41.6164 27.7174 41.4511 27.6271C39.7123 26.677 37.798 26.0643 35.8289 25.8194V7.3315C35.8289 5.67729 34.4831 4.33159 32.829 4.33159H28.279ZM11.8073 4.84679C11.8073 4.05092 12.4537 3.40347 13.2482 3.40347H15.7573C15.929 3.40347 16.0894 3.31796 16.1851 3.17548C16.9423 2.04763 18.2021 1.37431 19.5551 1.37431C20.9081 1.37431 22.168 2.04763 22.9251 3.17548C23.0208 3.31796 23.1812 3.40347 23.3529 3.40347H25.862C26.6565 3.40347 27.3029 4.05101 27.3029 4.84679V7.21823H11.8074V4.84679H11.8073ZM11.2907 8.24863H11.2921H27.8181H27.8195L31.9216 8.23788V25.8197C29.9537 26.0648 28.0394 26.6772 26.2997 27.6268C26.1343 27.7172 26.0313 27.8906 26.0313 28.0791V36.3956C26.0313 37.7207 26.4808 38.8285 27.169 39.7489H7.18857V8.23788L11.2907 8.24863ZM6.28116 42.6258C5.19516 42.6258 4.31164 41.7422 4.31164 40.6563V7.3315C4.31164 6.24551 5.19516 5.36198 6.28116 5.36198H10.7768V7.21686L6.67466 7.20603H6.67329C6.53691 7.20603 6.40602 7.26009 6.30943 7.35642C6.21258 7.4531 6.15809 7.58433 6.15809 7.72123V40.2641C6.15809 40.5488 6.38875 40.7793 6.67329 40.7793H28.1113C28.9769 41.5681 30.0028 42.1733 30.9666 42.6258H6.28116ZM40.6888 28.3883V36.3956C40.6888 40.3604 35.6433 42.1152 33.8764 42.6069C32.1089 42.1155 27.0617 40.3615 27.0617 36.3956V28.3884C29.156 27.3016 31.5054 26.7283 33.8765 26.7283C36.2475 26.7283 38.5968 27.3015 40.6888 28.3883ZM34.7985 7.33141V25.7257C34.4918 25.7078 34.1844 25.6978 33.8765 25.6978C33.5685 25.6978 33.2595 25.7078 32.9519 25.7258V7.72123C32.9519 7.58433 32.8975 7.4531 32.8006 7.35642C32.704 7.26 32.5731 7.20603 32.4368 7.20603H32.4354L28.3332 7.21686V5.36198H32.8289C33.9149 5.36198 34.7984 6.24551 34.7984 7.3315L34.7985 7.33141Z" fill="#116FFF"/>
<path d="M28.4123 28.8978C28.2237 28.9793 28.1016 29.1651 28.1016 29.3707V36.3962C28.1016 39.4078 32.0315 40.9514 33.7212 41.4753C33.7709 41.4907 33.8223 41.4985 33.8737 41.4985C33.9251 41.4985 33.9766 41.4907 34.0263 41.4753C35.7152 40.9516 39.6434 39.4085 39.6434 36.3962V29.3707C39.6434 29.1651 39.5213 28.9793 39.3326 28.8978C37.604 28.1504 35.7674 27.7715 33.8737 27.7715C31.9801 27.7715 30.1409 28.1504 28.4123 28.8978ZM38.613 36.3962C38.613 38.691 35.1673 40.0239 33.8737 40.4427C32.5797 40.0238 29.132 38.6904 29.132 36.3962V29.714C30.6396 29.1086 32.233 28.8019 33.8737 28.8019C35.5144 28.8019 37.1054 29.1086 38.613 29.714V36.3962Z" fill="#116FFF"/>
<path d="M10.5543 21.7101H28.5564C28.841 21.7101 29.0716 21.4794 29.0716 21.1949C29.0716 20.9103 28.841 20.6797 28.5564 20.6797H10.5543C10.2697 20.6797 10.0391 20.9103 10.0391 21.1949C10.0391 21.4794 10.2697 21.7101 10.5543 21.7101Z" fill="#116FFF"/>
<path d="M10.5543 24.9327H28.5564C28.841 24.9327 29.0716 24.7021 29.0716 24.4175C29.0716 24.133 28.841 23.9023 28.5564 23.9023H10.5543C10.2697 23.9023 10.0391 24.133 10.0391 24.4175C10.0391 24.7021 10.2697 24.9327 10.5543 24.9327Z" fill="#116FFF"/>
<path d="M10.5464 28.1554H22.3075C22.592 28.1554 22.8227 27.9247 22.8227 27.6402C22.8227 27.3557 22.592 27.125 22.3075 27.125H10.5464C10.2619 27.125 10.0312 27.3557 10.0312 27.6402C10.0312 27.9247 10.2619 28.1554 10.5464 28.1554Z" fill="#116FFF"/>
</svg>
