<svg width="32" height="32" viewBox="0 0 32 32" fill="none" xmlns="http://www.w3.org/2000/svg">
<g clip-path="url(#clip0_2086_14259)">
<g clip-path="url(#clip1_2086_14259)">
<path d="M6.69448 3.79297H6.69339C6.43342 3.79297 6.22266 3.58222 6.22266 3.32224V1.60959C6.22266 1.34961 6.43342 1.13886 6.69339 1.13886H6.69448C6.95446 1.13886 7.16521 1.34961 7.16521 1.60959V3.32224C7.16521 3.58222 6.95446 3.79297 6.69448 3.79297Z" fill="#B8ECBC"/>
<path d="M6.69448 3.79297H6.69339C6.43342 3.79297 6.22266 3.58222 6.22266 3.32224V1.60959C6.22266 1.34961 6.43342 1.13886 6.69339 1.13886H6.69448C6.95446 1.13886 7.16521 1.34961 7.16521 1.60959V3.32224C7.16521 3.58222 6.95446 3.79297 6.69448 3.79297Z" stroke="black" stroke-width="0.2" stroke-miterlimit="10" stroke-linecap="round" stroke-linejoin="round"/>
<path d="M5.30667 4.20527H5.30776C5.56773 4.20527 5.77849 4.41602 5.77849 4.676V6.38864C5.77849 6.64863 5.56773 6.85938 5.30776 6.85938H5.30667C5.04669 6.85938 4.83594 6.64863 4.83594 6.38864V4.676C4.83594 4.41602 5.04669 4.20527 5.30667 4.20527Z" fill="#FF7D97"/>
<path d="M5.30667 4.20527H5.30776C5.56773 4.20527 5.77849 4.41602 5.77849 4.676V6.38864C5.77849 6.64863 5.56773 6.85938 5.30776 6.85938H5.30667C5.04669 6.85938 4.83594 6.64863 4.83594 6.38864V4.676C4.83594 4.41602 5.04669 4.20527 5.30667 4.20527Z" stroke="black" stroke-width="0.2" stroke-miterlimit="10" stroke-linecap="round" stroke-linejoin="round"/>
<path d="M5.77741 3.30114V3.30145C5.77741 3.56104 5.56697 3.77148 5.30737 3.77148H3.58723C3.32763 3.77148 3.11719 3.56104 3.11719 3.30145V3.30114C3.11719 3.04155 3.32763 2.8311 3.58723 2.8311H5.30737C5.56697 2.8311 5.77741 3.04155 5.77741 3.30114Z" fill="#99EBFA"/>
<path d="M5.77741 3.30114V3.30145C5.77741 3.56104 5.56697 3.77148 5.30737 3.77148H3.58723C3.32763 3.77148 3.11719 3.56104 3.11719 3.30145V3.30114C3.11719 3.04155 3.32763 2.8311 3.58723 2.8311H5.30737C5.56697 2.8311 5.77741 3.04155 5.77741 3.30114Z" stroke="black" stroke-width="0.2" stroke-miterlimit="10" stroke-linecap="round" stroke-linejoin="round"/>
<path d="M8.20188 3.76562H7.69531V3.14575C7.69531 2.86663 7.92159 2.64036 8.20072 2.64036H8.20188C8.48101 2.64036 8.70729 2.86663 8.70729 3.14575V3.26023C8.70729 3.53935 8.48101 3.76562 8.20188 3.76562Z" fill="#D0F2D2"/>
<path d="M8.20188 3.76562H7.69531V3.14575C7.69531 2.86663 7.92159 2.64036 8.20072 2.64036H8.20188C8.48101 2.64036 8.70729 2.86663 8.70729 3.14575V3.26023C8.70729 3.53935 8.48101 3.76562 8.20188 3.76562Z" stroke="black" stroke-width="0.2" stroke-miterlimit="10" stroke-linecap="round" stroke-linejoin="round"/>
<path d="M3.80228 4.23411H4.30885V4.85398C4.30885 5.1331 4.08257 5.35938 3.80344 5.35938H3.80228C3.52315 5.35938 3.29688 5.1331 3.29688 4.85398V4.7395C3.29688 4.46038 3.52315 4.23411 3.80228 4.23411Z" fill="#FF9EB1"/>
<path d="M3.80228 4.23411H4.30885V4.85398C4.30885 5.1331 4.08257 5.35938 3.80344 5.35938H3.80228C3.52315 5.35938 3.29688 5.1331 3.29688 4.85398V4.7395C3.29688 4.46038 3.52315 4.23411 3.80228 4.23411Z" stroke="black" stroke-width="0.2" stroke-miterlimit="10" stroke-linecap="round" stroke-linejoin="round"/>
<path d="M5.18118 2.37109H5.68774V1.75122C5.68774 1.4721 5.46146 1.24582 5.18235 1.24582H5.18118C4.90206 1.24582 4.67578 1.4721 4.67578 1.75122V1.8657C4.67578 2.14482 4.90206 2.37109 5.18118 2.37109Z" fill="#CCF5FC"/>
<path d="M5.18118 2.37109H5.68774V1.75122C5.68774 1.4721 5.46146 1.24582 5.18235 1.24582H5.18118C4.90206 1.24582 4.67578 1.4721 4.67578 1.75122V1.8657C4.67578 2.14482 4.90206 2.37109 5.18118 2.37109Z" stroke="black" stroke-width="0.2" stroke-miterlimit="10" stroke-linecap="round" stroke-linejoin="round"/>
<path d="M6.81907 5.62668H6.3125V6.24656C6.3125 6.52568 6.53878 6.75195 6.81789 6.75195H6.81907C7.09818 6.75195 7.32446 6.52568 7.32446 6.24656V6.13208C7.32446 5.85296 7.09818 5.62668 6.81907 5.62668Z" fill="#FFF7C0"/>
<path d="M6.81907 5.62668H6.3125V6.24656C6.3125 6.52568 6.53878 6.75195 6.81789 6.75195H6.81907C7.09818 6.75195 7.32446 6.52568 7.32446 6.24656V6.13208C7.32446 5.85296 7.09818 5.62668 6.81907 5.62668Z" stroke="black" stroke-width="0.2" stroke-miterlimit="10" stroke-linecap="round" stroke-linejoin="round"/>
<path d="M7.04216 5.16797H6.69271C6.4331 5.16797 6.22266 4.95752 6.22266 4.69793V4.69763C6.22266 4.43802 6.4331 4.22759 6.69271 4.22759H8.41284C8.67244 4.22759 8.88288 4.43802 8.88288 4.69763V4.69793C8.88288 4.95752 8.67244 5.16797 8.41284 5.16797H8.10169" fill="#FFF3A0"/>
<path d="M7.04216 5.16797H6.69271C6.4331 5.16797 6.22266 4.95752 6.22266 4.69793V4.69763C6.22266 4.43802 6.4331 4.22759 6.69271 4.22759H8.41284C8.67244 4.22759 8.88288 4.43802 8.88288 4.69763V4.69793C8.88288 4.95752 8.67244 5.16797 8.41284 5.16797H8.10169" stroke="black" stroke-width="0.2" stroke-miterlimit="10" stroke-linecap="round" stroke-linejoin="round"/>
</g>
<path d="M20 7.71875C20 7.33042 19.6852 7.01562 19.2969 7.01562H12.7031C12.3148 7.01562 12 7.33042 12 7.71875V9.125L12.1562 9.28125H19.8438C19.9048 9.22023 19.939 9.18602 20 9.125V7.71875Z" fill="#0052C2"/>
<path d="M20 7.71875V9.125C19.9389 9.18609 19.9048 9.22016 19.8438 9.28125H16V7.01562H19.2969C19.6852 7.01562 20 7.33047 20 7.71875Z" fill="#003481"/>
<path d="M18.8125 7.95312H17.4062C17.2768 7.95312 17.1719 8.05806 17.1719 8.1875C17.1719 8.31694 17.2768 8.42188 17.4062 8.42188H18.8125C18.9419 8.42188 19.0469 8.31694 19.0469 8.1875C19.0469 8.05806 18.9419 7.95312 18.8125 7.95312Z" fill="#0052C2"/>
<path d="M15.0625 8.42188C15.1919 8.42188 15.2969 8.31694 15.2969 8.1875C15.2969 8.05806 15.1919 7.95312 15.0625 7.95312C14.9331 7.95312 14.8281 8.05806 14.8281 8.1875C14.8281 8.31694 14.9331 8.42188 15.0625 8.42188Z" fill="#F03800"/>
<path d="M14.125 8.42188C14.2544 8.42188 14.3594 8.31694 14.3594 8.1875C14.3594 8.05806 14.2544 7.95312 14.125 7.95312C13.9956 7.95312 13.8906 8.05806 13.8906 8.1875C13.8906 8.31694 13.9956 8.42188 14.125 8.42188Z" fill="#FDBF00"/>
<path d="M13.1875 8.42188C13.3169 8.42188 13.4219 8.31694 13.4219 8.1875C13.4219 8.05806 13.3169 7.95312 13.1875 7.95312C13.0581 7.95312 12.9531 8.05806 12.9531 8.1875C12.9531 8.31694 13.0581 8.42188 13.1875 8.42188Z" fill="#37D742"/>
<path d="M12 9.125V14.2812C12 14.669 12.3154 14.9844 12.7031 14.9844H19.2969C19.6846 14.9844 20 14.669 20 14.2812V9.125H12Z" fill="#E0F4FF"/>
<path d="M20 9.125V14.2812C20 14.6689 19.6845 14.9844 19.2969 14.9844H16V9.125H20Z" fill="#B8E0F5"/>
<path d="M16.7955 10.0815C16.6765 10.0305 16.5387 10.0856 16.4878 10.2046L15.0815 13.4859C15.0305 13.6048 15.0856 13.7426 15.2046 13.7936C15.3236 13.8446 15.4614 13.7894 15.5124 13.6705L16.9186 10.3893C16.9696 10.2703 16.9145 10.1325 16.7955 10.0815Z" fill="#FF641A"/>
<path d="M16.9186 10.3893L16 12.5327V11.3424L16.4877 10.2046C16.5387 10.0857 16.6764 10.0305 16.7955 10.0815C16.9144 10.1326 16.9695 10.2702 16.9186 10.3893Z" fill="#F03800"/>
<path d="M14.7401 12.692L13.797 11.9375L14.7401 11.183C14.8412 11.1022 14.8576 10.9547 14.7767 10.8536C14.6958 10.7525 14.5483 10.7361 14.4473 10.817L13.2754 11.7545C13.1582 11.8482 13.1582 12.0267 13.2754 12.1205L14.4473 13.058C14.5484 13.1389 14.6959 13.1225 14.7767 13.0214C14.8576 12.9203 14.8412 12.7728 14.7401 12.692Z" fill="#FF641A"/>
<path d="M18.7245 11.7545L17.5527 10.817C17.4516 10.7361 17.3041 10.7525 17.2232 10.8536C17.1424 10.9547 17.1588 11.1022 17.2599 11.183L18.2029 11.9375L17.2599 12.692C17.1588 12.7729 17.1424 12.9203 17.2232 13.0214C17.3042 13.1226 17.4517 13.1388 17.5527 13.058L18.7245 12.1205C18.8417 12.0268 18.8418 11.8483 18.7245 11.7545Z" fill="#F03800"/>
<g clip-path="url(#clip2_2086_14259)">
<path d="M9 20.625C11.002 20.625 12.625 19.002 12.625 17C12.625 14.998 11.002 13.375 9 13.375C6.99797 13.375 5.375 14.998 5.375 17C5.375 19.002 6.99797 20.625 9 20.625Z" fill="white"/>
<path d="M12.625 17C12.625 16.6653 12.576 16.3422 12.491 16.0345C11.9575 14.6967 10.653 13.75 9.125 13.75C7.123 13.75 5.5 15.373 5.5 17.375C5.5 17.7097 5.549 18.0328 5.634 18.3405C6.1675 19.6782 7.472 20.625 9 20.625C11.002 20.625 12.625 19.002 12.625 17Z" fill="#80D8FF"/>
<path d="M8.93425 20.75C6.8685 20.75 5.25 19.1027 5.25 17C5.25 16.0928 5.55925 15.2222 6.12125 14.549C6.16575 14.496 6.24425 14.4892 6.29725 14.5332C6.35025 14.5775 6.3575 14.6562 6.31325 14.7092C5.78875 15.3375 5.5 16.151 5.5 17C5.5 18.9627 7.0085 20.5 8.93425 20.5C10.9005 20.5 12.5 18.93 12.5 17C12.5 15.07 10.9005 13.5 8.93425 13.5C8.32425 13.5 7.731 13.655 7.21975 13.948C7.1605 13.9812 7.0835 13.9615 7.04925 13.9015C7.015 13.8415 7.03575 13.7653 7.09575 13.7308C7.64475 13.4163 8.2805 13.25 8.93425 13.25C11.0382 13.25 12.75 14.9323 12.75 17C12.75 19.0677 11.0382 20.75 8.93425 20.75Z" fill="#455A64"/>
<path d="M6.88672 14.1367C6.88672 14.2055 6.83047 14.2617 6.76172 14.2617C6.69297 14.2617 6.63672 14.2055 6.63672 14.1367C6.63672 14.068 6.69297 14.0117 6.76172 14.0117C6.83047 14.0117 6.88672 14.0677 6.88672 14.1367Z" fill="#455A64"/>
<path d="M8.3125 18.7188C8.191 18.7188 8.21175 18.6727 8.16975 18.5573L7.8125 17.3815L10.5625 15.75L8.3125 18.7188Z" fill="#ECEFF1"/>
<path d="M8.3125 18.7177C8.40625 18.7177 8.44775 18.675 8.5 18.624L9 18.1377L8.37625 17.7617L8.3125 18.7177Z" fill="#CFD8DC"/>
<path d="M8.37483 17.7632L9.88608 18.8797C10.0586 18.9747 10.1831 18.9254 10.2258 18.7194L10.8411 15.8207C10.9041 15.5682 10.7448 15.4537 10.5798 15.5284L6.96758 16.9217C6.72108 17.0207 6.72283 17.1582 6.92258 17.2194L7.84958 17.5087L9.99558 16.1547C10.0968 16.0932 10.1898 16.1262 10.1138 16.1939L8.37483 17.7632Z" fill="white"/>
<path d="M9.88609 19.0048C9.85834 19.0048 9.83009 18.9955 9.80709 18.9765L8.36634 17.7963C8.33809 17.7733 8.32134 17.739 8.32034 17.7025C8.31959 17.666 8.33459 17.6313 8.36159 17.6068L9.43084 16.6418C9.48209 16.595 9.56109 16.5995 9.60734 16.6508C9.65384 16.702 9.64959 16.781 9.59834 16.8273L8.63684 17.6948L9.96509 18.783C10.0186 18.8268 10.0263 18.9055 9.98259 18.959C9.95809 18.989 9.92209 19.0048 9.88609 19.0048Z" fill="#455A64"/>
<path d="M10.0383 19.0514C9.97203 19.0514 9.90078 19.0306 9.82603 18.9894L9.00453 18.3291L8.58353 18.7174C8.52503 18.7746 8.45353 18.8441 8.31128 18.8441C8.13628 18.8441 8.09553 18.7519 8.06878 18.6571C8.06403 18.6409 8.05878 18.6219 8.05103 18.6001L7.74953 17.6079L6.88553 17.3384C6.68203 17.2759 6.65478 17.1511 6.65253 17.1006C6.64903 17.0166 6.69278 16.8969 6.92103 16.8054L10.633 15.3731C10.7393 15.3316 10.864 15.3651 10.936 15.4539C10.9868 15.5161 11.0063 15.5971 10.9898 15.6761L10.3485 18.7449C10.291 19.0214 10.1123 19.0514 10.0383 19.0514ZM8.99903 18.0391C9.02678 18.0391 9.05453 18.0484 9.07728 18.0669L9.96478 18.7824C10.0795 18.8371 10.0898 18.7611 10.104 18.6939L10.7453 15.6254L10.7295 15.6051L7.01303 17.0381C6.96928 17.0556 6.94053 17.0729 6.92303 17.0856C6.93228 17.0901 6.94453 17.0949 6.95978 17.0996L7.88753 17.3891C7.92678 17.4016 7.95778 17.4326 7.96978 17.4721L8.28828 18.5211C8.29653 18.5431 8.30353 18.5681 8.30953 18.5891C8.31003 18.5906 8.31053 18.5924 8.31078 18.5939C8.34403 18.5936 8.36153 18.5846 8.40778 18.5394L8.91428 18.0719C8.93828 18.0504 8.96853 18.0391 8.99903 18.0391Z" fill="#455A64"/>
<path d="M10.0117 16.3867C10.0117 16.4555 9.95547 16.5117 9.88672 16.5117C9.81797 16.5117 9.76172 16.4555 9.76172 16.3867C9.76172 16.318 9.81797 16.2617 9.88672 16.2617C9.95547 16.2617 10.0117 16.3177 10.0117 16.3867Z" fill="#455A64"/>
</g>
<path d="M26.0227 4.7832C24.8195 4.7832 23.8398 5.76289 23.8398 6.96602C23.8398 7.34883 23.9398 7.72695 24.132 8.0582L24.1461 8.0832L23.8508 9.16133L24.9555 8.87227L24.9805 8.88633C25.2992 9.05977 25.6602 9.15195 26.0242 9.15195C27.2289 9.15195 28.2086 8.17227 28.2086 6.96914C28.2086 6.38633 27.982 5.83633 27.5695 5.42383C27.1555 5.01133 26.6086 4.7832 26.0227 4.7832Z" fill="#B1F1A8"/>
<path d="M27.668 5.32188C27.2289 4.88281 26.6461 4.64062 26.0242 4.64062C24.7445 4.64062 23.7008 5.68281 23.7008 6.96406C23.7008 7.3625 23.8023 7.75469 23.9961 8.1L23.6523 9.35781L24.9367 9.01875C25.2695 9.19531 25.6445 9.28906 26.0242 9.28906C27.3039 9.28906 28.3477 8.24688 28.3477 6.96563C28.3477 6.34531 28.107 5.7625 27.668 5.32188ZM26.0258 9.15C25.6617 9.15 25.3008 9.05781 24.982 8.88438L24.957 8.87031L23.8523 9.15938L24.1477 8.08125L24.1336 8.05625C23.9414 7.725 23.8414 7.34687 23.8414 6.96406C23.8414 5.76094 24.8211 4.78125 26.0242 4.78125C26.6086 4.78125 27.157 5.00938 27.5711 5.42188C27.9836 5.83438 28.2102 6.38437 28.2102 6.96719C28.2102 8.17031 27.2305 9.15 26.0258 9.15Z" fill="#2866AE"/>
<path d="M25.2219 5.99609C25.2094 5.99609 25.1641 5.99922 25.1234 6.04297C25.1203 6.04609 25.1156 6.05078 25.1125 6.05547C25.0578 6.11328 24.9453 6.23359 24.9453 6.46484C24.9453 6.69922 25.1109 6.93672 25.1609 7.00391C25.1641 7.00703 25.1672 7.01328 25.1734 7.02109C25.3281 7.24297 25.6531 7.64141 26.0953 7.83359C26.2203 7.88828 26.3203 7.92109 26.4094 7.94922C26.5406 7.99141 26.6563 7.98047 26.7328 7.96953C26.8297 7.95547 27.0234 7.84141 27.0578 7.74766C27.0938 7.64766 27.0969 7.56797 27.0938 7.53984C27.0844 7.53359 27.0656 7.52422 27.0484 7.51641C27.0391 7.51172 27.0281 7.50703 27.0172 7.50078C26.9437 7.46484 26.6844 7.33672 26.6391 7.32109C26.6219 7.31484 26.6094 7.31172 26.6047 7.31016C26.6031 7.31172 26.6 7.31484 26.5953 7.32109C26.5484 7.39297 26.4125 7.54766 26.4109 7.54922C26.3297 7.64297 26.2359 7.59609 26.2047 7.58047C26.1969 7.57734 26.1844 7.57109 26.1703 7.56484C26.0906 7.53047 25.925 7.45859 25.7359 7.28984C25.5672 7.13828 25.45 6.95547 25.4094 6.88203C25.3484 6.77734 25.4187 6.70859 25.4453 6.68203C25.4594 6.66797 25.4781 6.64453 25.4969 6.62266C25.5063 6.61016 25.5172 6.59766 25.5266 6.58672C25.5453 6.56484 25.5516 6.55078 25.5656 6.52422L25.5734 6.50703C25.5766 6.49922 25.5797 6.49297 25.5688 6.47109C25.5594 6.45078 25.5188 6.35547 25.4547 6.19922C25.4313 6.14141 25.4078 6.08672 25.3922 6.04922C25.3703 5.99609 25.3594 5.99609 25.3438 5.99609C25.3375 5.99609 25.3328 5.99609 25.3266 5.99609C25.2953 5.99609 25.2531 5.99609 25.2219 5.99609Z" fill="white"/>
<path d="M27.2234 7.45937C27.2016 7.42187 27.1641 7.40469 27.1172 7.38125C27.1078 7.37812 27.0984 7.37188 27.0875 7.36719C27.0484 7.34844 26.7531 7.20313 26.6953 7.18125C26.65 7.16406 26.5563 7.12969 26.4859 7.23594C26.4531 7.28438 26.3578 7.39844 26.3125 7.45C26.3094 7.45469 26.3062 7.45625 26.3047 7.45781C26.3016 7.45781 26.2922 7.45625 26.275 7.44688C26.2641 7.44063 26.2516 7.43594 26.2344 7.42812C26.1562 7.39531 26.0094 7.33125 25.8375 7.17812C25.6828 7.04062 25.5766 6.87031 25.5375 6.80469C25.5344 6.8 25.5328 6.79687 25.5328 6.79531C25.5375 6.78906 25.5469 6.77969 25.5516 6.775C25.5719 6.75625 25.5922 6.73125 25.6125 6.70625C25.6219 6.69531 25.6313 6.68438 25.6406 6.67344C25.6703 6.63906 25.6828 6.6125 25.6984 6.58125L25.7063 6.56562C25.7313 6.51562 25.7297 6.46094 25.7016 6.40469C25.6938 6.3875 25.6344 6.24531 25.5922 6.14219C25.5672 6.08438 25.5453 6.02969 25.5297 5.99219C25.4781 5.86875 25.4094 5.85313 25.35 5.85313C25.3469 5.85313 25.3438 5.85313 25.3406 5.85313C25.3047 5.85156 25.2625 5.85156 25.2297 5.85156C25.1953 5.85156 25.1047 5.86094 25.0281 5.94531C25.025 5.94844 25.0203 5.95156 25.0172 5.95625C24.9563 6.02187 24.8125 6.175 24.8125 6.4625C24.8125 6.73281 24.9828 6.98906 25.0563 7.0875C25.0578 7.09063 25.0594 7.09375 25.0641 7.1C25.2266 7.33437 25.5703 7.75625 26.0453 7.96094C26.1766 8.01875 26.2812 8.05312 26.3734 8.08281C26.4609 8.10937 26.5422 8.11875 26.6125 8.11875C26.6688 8.11875 26.7188 8.11406 26.7609 8.10156C26.8766 8.08437 27.1359 7.95781 27.1969 7.7875C27.2359 7.67344 27.2594 7.52187 27.2234 7.45937ZM27.0641 7.74531C27.0297 7.83906 26.8359 7.95312 26.7391 7.96719C26.6625 7.97812 26.5469 7.98906 26.4156 7.94688C26.3266 7.91875 26.2266 7.88594 26.1016 7.83125C25.6594 7.63906 25.3344 7.24063 25.1797 7.01875C25.1734 7.01094 25.1703 7.00469 25.1672 7.00156C25.1172 6.93438 24.9516 6.69688 24.9516 6.4625C24.9516 6.23125 25.0641 6.11094 25.1188 6.05312C25.1219 6.04844 25.1266 6.04375 25.1297 6.04063C25.1703 5.99688 25.2156 5.99375 25.2281 5.99375H25.3328H25.35C25.3656 5.99375 25.3766 5.99375 25.3984 6.04688C25.4141 6.08437 25.4375 6.13906 25.4609 6.19688C25.525 6.35313 25.5656 6.44844 25.575 6.46875C25.5859 6.49063 25.5828 6.49688 25.5797 6.50469L25.5719 6.52187C25.5578 6.54844 25.5516 6.5625 25.5328 6.58437C25.5234 6.59531 25.5125 6.60781 25.5031 6.62031C25.4844 6.64219 25.4656 6.66562 25.4516 6.67969C25.425 6.70625 25.3547 6.775 25.4156 6.87969C25.4563 6.95312 25.5734 7.13594 25.7422 7.2875C25.9312 7.45625 26.0969 7.52813 26.1766 7.5625C26.1906 7.56875 26.2031 7.575 26.2109 7.57812C26.2422 7.59375 26.3359 7.64062 26.4172 7.54688C26.4188 7.54531 26.5547 7.39062 26.6016 7.31875C26.6063 7.3125 26.6094 7.30938 26.6109 7.30781C26.6156 7.30938 26.6281 7.3125 26.6453 7.31875C26.6906 7.33437 26.95 7.4625 27.0234 7.49844C27.0344 7.50469 27.0453 7.50937 27.0547 7.51406C27.0719 7.52187 27.0906 7.53125 27.1 7.5375C27.1031 7.56562 27.1 7.64688 27.0641 7.74531Z" fill="#2866AE"/>
<path d="M16.9727 18.0195H25.4313V23.4273L23.1837 25.6712H20.936L18.8821 27.7215V25.6712H16.9727V18.0195Z" fill="#B289C9"/>
<path d="M22.8949 18.0195V23.4273L20.6472 25.6712H18.8828V27.7215L20.9367 25.6712H23.1844L25.4321 23.4273V18.0195H22.8949Z" fill="#A274BF"/>
<path d="M23.2067 19.5859C22.9264 19.5859 22.6992 19.8131 22.6992 20.0934V22.3106C22.6992 22.5908 22.9264 22.818 23.2067 22.818C23.4869 22.818 23.7141 22.5908 23.7141 22.3106V20.0934C23.7141 19.8131 23.4869 19.5859 23.2067 19.5859Z" fill="white"/>
<path d="M21.2926 19.5859C21.0123 19.5859 20.7852 19.8131 20.7852 20.0934V22.3106C20.7852 22.5908 21.0123 22.818 21.2926 22.818C21.5728 22.818 21.8 22.5908 21.8 22.3106V20.0934C21.8 19.8131 21.5728 19.5859 21.2926 19.5859Z" fill="white"/>
<path d="M6.56994 9.05859C6.28969 9.05859 6.0625 9.28578 6.0625 9.56603V10.7725C6.0625 11.0528 6.28969 11.28 6.56994 11.28C6.85019 11.28 7.07737 11.0528 7.07737 10.7725V9.56603C7.07737 9.28578 6.85025 9.05859 6.56994 9.05859Z" fill="#C8EFFE"/>
<path d="M4.6715 9.05859C4.39125 9.05859 4.16406 9.28578 4.16406 9.56603V11.448C4.16406 11.7283 4.39125 11.9555 4.6715 11.9555C4.95175 11.9555 5.17894 11.7283 5.17894 11.448V9.56603C5.17894 9.28578 4.95175 9.05859 4.6715 9.05859Z" fill="#C8EFFE"/>
<path d="M7.88244 21.5977C7.60219 21.5977 7.375 21.8248 7.375 22.1051V23.3116C7.375 23.5918 7.60219 23.819 7.88244 23.819C8.16269 23.819 8.38988 23.5918 8.38988 23.3116V22.1051C8.38988 21.8248 8.16275 21.5977 7.88244 21.5977Z" fill="#C8EFFE"/>
<path d="M9.91759 21.5977C9.63734 21.5977 9.41016 21.8248 9.41016 22.1051V25.4479C9.41016 25.7282 9.63734 25.9553 9.91759 25.9553C10.1978 25.9553 10.425 25.7282 10.425 25.4479V22.1051C10.425 21.8248 10.1978 21.5977 9.91759 21.5977Z" fill="#C8EFFE"/>
<path d="M26.7301 12.0117C26.4498 12.0117 26.2227 12.2389 26.2227 12.5192V13.7257C26.2227 14.0059 26.4498 14.2331 26.7301 14.2331C27.0103 14.2331 27.2375 14.0059 27.2375 13.7257V12.5192C27.2375 12.2389 27.0103 12.0117 26.7301 12.0117Z" fill="#C8EFFE"/>
<path d="M24.6949 12.0117C24.4147 12.0117 24.1875 12.2389 24.1875 12.5192V15.862C24.1875 16.1422 24.4147 16.3694 24.6949 16.3694C24.9752 16.3694 25.2024 16.1422 25.2024 15.862V12.5192C25.2024 12.2389 24.9752 12.0117 24.6949 12.0117Z" fill="#C8EFFE"/>
<path d="M20.1871 28.957C19.9069 28.957 19.6797 29.1842 19.6797 29.4645V30.671C19.6797 30.9512 19.9069 31.1784 20.1871 31.1784C20.4674 31.1784 20.6946 30.9512 20.6946 30.671V29.4645C20.6946 29.1842 20.4674 28.957 20.1871 28.957Z" fill="#C8EFFE"/>
<path d="M22.2184 27.6406C21.9381 27.6406 21.7109 27.8678 21.7109 28.1481V31.4909C21.7109 31.7712 21.9381 31.9984 22.2184 31.9984C22.4986 31.9984 22.7258 31.7712 22.7258 31.4909V28.1481C22.7258 27.8677 22.4986 27.6406 22.2184 27.6406Z" fill="#C8EFFE"/>
<path d="M2.89278 22.2422L3.83134 23.9594L5.54734 24.8986L3.83134 25.8378L2.89278 27.5551L1.95428 25.8378L0.238281 24.8986L1.95428 23.9594L2.89278 22.2422Z" fill="#FEDF30"/>
<path d="M13.1151 27.9648L13.7441 29.1158L14.8942 29.7453L13.7441 30.3747L13.1151 31.5257L12.4861 30.3747L11.3359 29.7453L12.4861 29.1158L13.1151 27.9648Z" fill="#FEDF30"/>
<path d="M29.9823 16.1621L30.6112 17.3131L31.7614 17.9425L30.6112 18.572L29.9823 19.723L29.3533 18.572L28.2031 17.9425L29.3533 17.3131L29.9823 16.1621Z" fill="#FEDF30"/>
<path d="M17.2558 0L18.0118 1.38344L19.3943 2.14006L18.0118 2.89669L17.2558 4.28013L16.4996 2.89669L15.1172 2.14006L16.4996 1.38344L17.2558 0Z" fill="#FEDF30"/>
</g>
<defs>
<clipPath id="clip0_2086_14259">
<rect width="32" height="32" fill="white"/>
</clipPath>
<clipPath id="clip1_2086_14259">
<rect width="6" height="6" fill="white" transform="translate(3 1)"/>
</clipPath>
<clipPath id="clip2_2086_14259">
<rect width="8" height="8" fill="white" transform="translate(5 13)"/>
</clipPath>
</defs>
</svg>
