<svg width="239" height="220" viewBox="0 0 239 220" fill="none" xmlns="http://www.w3.org/2000/svg">
<g clip-path="url(#clip0_2131_11723)">
<path d="M86.623 44.5612C86.6397 44.3126 86.6517 44.062 86.6517 43.8094C86.6517 37.6227 81.4917 32.608 75.1267 32.608C72.4084 32.608 69.9128 33.5244 67.9423 35.0538C66.5434 30.3985 62.1223 26.9971 56.8807 26.9971C50.5152 26.9971 45.3552 32.0123 45.3552 38.199C45.3552 38.8258 45.4106 39.4392 45.5121 40.038C40.9586 41.5344 37.6797 45.718 37.6797 50.6488C37.6797 56.738 42.6802 61.6892 48.9076 61.8432L48.9102 61.8503L85.3359 62.6778C90.508 62.6778 94.7011 58.6029 94.7011 53.576C94.7011 48.9736 91.1863 45.1711 86.623 44.5612Z" stroke="#FFBF5C" stroke-width="0.9128" stroke-miterlimit="10"/>
<path opacity="0.15" d="M150.556 9.65541C150.547 9.52275 150.541 9.38907 150.541 9.25438C150.541 5.95259 153.295 3.2765 156.692 3.2765C158.142 3.2765 159.474 3.76547 160.526 4.58176C161.272 2.0978 163.631 0.282227 166.429 0.282227C169.825 0.282227 172.579 2.95832 172.579 6.2601C172.579 6.59455 172.549 6.92188 172.496 7.24159C174.925 8.0401 176.675 10.2725 176.675 12.9038C176.675 16.1533 174.006 18.7953 170.683 18.8776L170.682 18.8817L151.243 19.3234C148.483 19.3234 146.246 17.1485 146.246 14.4663C146.246 12.0103 148.121 9.98122 150.556 9.65541Z" stroke="#506DE4" stroke-width="1.1074" stroke-miterlimit="10"/>
<path opacity="0.15" d="M34.7282 142.496C34.7193 142.363 34.713 142.229 34.713 142.094C34.713 138.793 37.4664 136.116 40.8636 136.116C42.3143 136.116 43.6462 136.605 44.6974 137.422C45.4436 134.938 47.8032 133.122 50.6005 133.122C53.9972 133.122 56.7511 135.798 56.7511 139.1C56.7511 139.434 56.7213 139.762 56.6674 140.081C59.0971 140.88 60.8469 143.112 60.8469 145.744C60.8469 148.993 58.1782 151.635 54.8554 151.717L54.8538 151.722L35.4154 152.163C32.6552 152.163 30.418 149.988 30.418 147.306C30.4174 144.85 32.2933 142.821 34.7282 142.496Z" stroke="#506DE4" stroke-width="1.9444" stroke-miterlimit="10"/>
<path d="M188.255 125.399C188.255 127.614 186.521 129.409 184.383 129.409H79.1943C77.0559 129.409 75.3223 127.614 75.3223 125.399V51.2388C75.3223 49.0243 77.0559 47.2285 79.1943 47.2285H184.383C186.521 47.2285 188.255 49.0243 188.255 51.2388V125.399Z" fill="#E0E9F6"/>
<path d="M188.255 50.6763C188.255 48.4618 186.521 46.666 184.383 46.666H79.1943C77.0559 46.666 75.3223 48.4618 75.3223 50.6763V57.3607H188.255V50.6763Z" fill="#B5C9FF"/>
<path d="M81.9842 52.1542C81.9842 53.0091 81.2709 53.7019 80.3912 53.7019C79.5116 53.7019 78.7988 53.0086 78.7988 52.1542C78.7988 51.2992 79.5121 50.6064 80.3912 50.6064C81.2709 50.6059 81.9842 51.2992 81.9842 52.1542Z" fill="white"/>
<path d="M87.1951 52.1542C87.1951 53.0091 86.4818 53.7019 85.6027 53.7019C84.7231 53.7019 84.0098 53.0086 84.0098 52.1542C84.0098 51.2992 84.7231 50.6064 85.6027 50.6064C86.4818 50.6059 87.1951 51.2992 87.1951 52.1542Z" fill="white"/>
<path d="M92.4075 52.1542C92.4075 53.0091 91.6942 53.7019 90.8151 53.7019C89.9354 53.7019 89.2227 53.0086 89.2227 52.1542C89.2227 51.2992 89.936 50.6064 90.8151 50.6064C91.6947 50.6059 92.4075 51.2992 92.4075 52.1542Z" fill="white"/>
<path d="M135.261 65.1635C135.261 66.2949 134.318 67.2118 133.154 67.2118H97.4078C96.2437 67.2118 95.3008 66.2944 95.3008 65.1635V64.7573C95.3008 63.6259 96.2442 62.709 97.4078 62.709H133.154C134.318 62.709 135.261 63.6259 135.261 64.7573V65.1635Z" stroke="#D9E3FF" stroke-width="1.1074" stroke-miterlimit="10"/>
<path d="M126.288 72.5576H79.957V74.8093H126.288V72.5576Z" fill="#A0B5B1"/>
<path d="M126.288 96.2002H79.957V98.4519H126.288V96.2002Z" fill="#A0B5B1"/>
<path d="M123.392 91.6973H79.957V93.9489H123.392V91.6973Z" fill="#A0B5B1"/>
<path d="M116.443 77.0625H79.957V79.3142H116.443V77.0625Z" fill="#A0B5B1"/>
<path d="M105.439 100.702H79.957V102.954H105.439V100.702Z" fill="#A0B5B1"/>
<path d="M115.285 115.338H79.957V117.59H115.285V115.338Z" fill="#A0B5B1"/>
<path d="M120.497 110.835H79.957V113.087H120.497V110.835Z" fill="#A0B5B1"/>
<path d="M120.497 119.841H79.957V122.093H120.497V119.841Z" fill="#A0B5B1"/>
<path d="M120.497 81.5654H79.957V83.8171H120.497V81.5654Z" fill="#A0B5B1"/>
<path d="M182.463 71.4316H150.031V102.39H182.463V71.4316Z" fill="#CFC0F5"/>
<path d="M156.402 106.895H134.395V124.907H156.402V106.895Z" fill="#FFC873"/>
<path d="M92.119 62.4268H79.957V67.4928H92.119V62.4268Z" fill="#F38061"/>
<path d="M182.462 106.895H159.875V124.907H182.462V106.895Z" fill="#506DE4"/>
<path d="M147.135 71.4316H134.395V102.39H147.135V71.4316Z" fill="#CFC0F5"/>
<path d="M194.047 177.662C194.047 179.819 192.248 181.567 190.03 181.567H129.726C127.507 181.567 125.709 179.818 125.709 177.662V104.235C125.709 102.078 127.508 100.33 129.726 100.33H190.03C192.249 100.33 194.047 102.079 194.047 104.235V177.662Z" fill="#B5C9FF" stroke="white" stroke-width="1.0052" stroke-miterlimit="10"/>
<path d="M178.462 102.954H128.604V179.507H191.151V112.692L178.462 102.954Z" fill="white"/>
<path d="M178.465 102.954L191.153 112.692V102.954H178.465Z" fill="#9EB7FF"/>
<path d="M178.465 102.954L191.153 112.692L180.246 115.338L178.465 102.954Z" fill="#D6E1FF"/>
<path d="M140.237 110.038C140.237 111.307 139.178 112.337 137.871 112.337C136.565 112.337 135.506 111.308 135.506 110.038C135.506 108.769 136.565 107.739 137.871 107.739C139.178 107.739 140.237 108.769 140.237 110.038Z" fill="#D9E3FF"/>
<path d="M131.502 118.715C131.502 118.715 137.679 106.895 144.629 118.715H131.502Z" fill="#D9E3FF"/>
<path d="M173.198 109.708H145.979V111.397H173.198V109.708Z" fill="#D9E3FF"/>
<path d="M178.41 113.086H145.979V114.774H178.41V113.086Z" fill="#D9E3FF"/>
<path d="M173.198 116.463H145.979V118.151H173.198V116.463Z" fill="#D9E3FF"/>
<path d="M176.673 164.309H133.816V166.56H176.673V164.309Z" fill="#D9E3FF"/>
<path d="M184.781 168.812H133.816V171.063H184.781V168.812Z" fill="#D9E3FF"/>
<path d="M176.673 173.314H133.816V175.566H176.673V173.314Z" fill="#D9E3FF"/>
<path d="M142.503 122.654H133.816V160.368H142.503V122.654Z" fill="#FFC873"/>
<path d="M180.728 122.654H144.242V131.097H180.728V122.654Z" stroke="#506DE4" stroke-width="1.1074" stroke-miterlimit="10"/>
<path d="M159.3 133.35H144.242V139.541H159.3V133.35Z" fill="#F38061"/>
<path d="M180.729 133.35H161.617V160.368H180.729V133.35Z" fill="#53D6C6"/>
<path d="M159.3 141.792H144.242V160.367H159.3V141.792Z" stroke="#F5977D" stroke-width="1.1074" stroke-miterlimit="10"/>
<path d="M60.2241 141.613H117.394C120.18 141.613 122.438 143.563 122.438 146.27V158.119C122.438 160.683 120.41 162.785 117.829 163L115.501 174.427L106.364 162.953H60.2236C57.4378 162.953 55.3496 160.826 55.3496 158.119V146.27C55.3501 143.563 57.4383 141.613 60.2241 141.613Z" fill="#E0E9F6"/>
<path d="M119.388 145.763H65.1074V147.541H119.388V145.763Z" fill="#A0B5B1"/>
<path d="M119.388 149.319H59.6191V151.098H119.388V149.319Z" fill="#A0B5B1"/>
<path d="M119.388 153.469H75.4766V155.247H119.388V153.469Z" fill="#A0B5B1"/>
<path d="M119.389 157.025H70.5977V158.804H119.389V157.025Z" fill="#A0B5B1"/>
<path d="M124.895 36.5228C124.079 36.5228 123.31 36.1467 122.817 35.5134L115.629 26.2795C114.761 25.1638 114.987 23.5744 116.135 22.7302C117.283 21.8864 118.917 22.1055 119.786 23.2212L124.836 29.7068L138.921 10.5625C139.757 9.42493 141.385 9.16215 142.556 9.97539C143.727 10.7891 143.998 12.3714 143.16 13.5095L127.015 35.459C126.533 36.1142 125.759 36.5228 124.93 36.5228C124.918 36.5228 124.907 36.5228 124.895 36.5228Z" fill="#53D6C6"/>
<path d="M157.882 69.6885H103.594C100.949 69.6885 98.8047 71.5401 98.8047 74.1105V85.3618C98.8047 87.7975 100.73 89.7925 103.181 89.9968L105.391 100.848L114.068 89.9521H157.882C160.528 89.9521 162.511 87.9327 162.511 85.3618V74.1105C162.51 71.5396 160.528 69.6885 157.882 69.6885Z" fill="white"/>
<path d="M153.243 73.6289H101.699V75.3174H153.243V73.6289Z" fill="#D9E3FF"/>
<path d="M158.455 77.0068H101.699V78.6953H158.455V77.0068Z" fill="#D9E3FF"/>
<path d="M143.397 80.9453H101.699V82.6338H143.397V80.9453Z" fill="#D9E3FF"/>
<path d="M148.03 84.3232H101.699V86.0117H148.03V84.3232Z" fill="#D9E3FF"/>
<path d="M173.413 38.3691H129.219C127.066 38.3691 125.32 39.8762 125.32 41.9693V51.1285C125.32 53.1113 126.888 54.7352 128.883 54.9014L130.682 63.7348L137.745 54.8654H173.413C175.566 54.8654 177.18 53.2211 177.18 51.1285V41.9693C177.18 39.8762 175.566 38.3691 173.413 38.3691Z" fill="white"/>
<path d="M169.637 41.5771H127.678V42.9515H169.637V41.5771Z" fill="#D9E3FF"/>
<path d="M173.88 44.3262H127.678V45.7011H173.88V44.3262Z" fill="#D9E3FF"/>
<path d="M161.623 47.5352H127.678V48.9101H161.623V47.5352Z" fill="#D9E3FF"/>
<path d="M165.394 50.2842H127.678V51.6586H165.394V50.2842Z" fill="#D9E3FF"/>
<path d="M56.212 85.1994C56.212 85.9908 55.5521 86.6322 54.7378 86.6322H41.4703C40.6561 86.6322 39.9961 85.9908 39.9961 85.1994V77.3703C39.9961 76.5789 40.6561 75.9375 41.4703 75.9375H54.7378C55.5521 75.9375 56.212 76.5789 56.212 77.3703V85.1994Z" fill="#F36F4B"/>
<path d="M54.7447 84.6748L50.471 80.1196L54.6971 77.5828C54.8032 77.5187 54.8357 77.3835 54.7703 77.2814C54.7049 77.1782 54.5663 77.1477 54.4602 77.2097L48.0984 81.0294L41.6885 77.4765C41.5812 77.4176 41.4432 77.4537 41.381 77.5584C41.3198 77.6636 41.3574 77.7978 41.4651 77.8572L45.7226 80.2167L41.4045 85.2029C41.3245 85.2954 41.3365 85.4337 41.4317 85.5114C41.474 85.546 41.5258 85.5628 41.5771 85.5628C41.6414 85.5628 41.7047 85.5363 41.7491 85.4845L46.1205 80.4373L47.9912 81.4742C48.0257 81.4935 48.0649 81.5026 48.1031 81.5026C48.1439 81.5026 48.1852 81.4914 48.2213 81.4701L50.0814 80.3534L54.4121 84.9696C54.4565 85.0174 54.5172 85.0413 54.5784 85.0413C54.6327 85.0413 54.6871 85.0225 54.73 84.9838C54.8221 84.9025 54.8289 84.7643 54.7447 84.6748Z" fill="white"/>
<path d="M59.6875 79.3154H66.0577" stroke="#80A2FF" stroke-width="2.2149" stroke-miterlimit="10" stroke-linecap="round" stroke-linejoin="round"/>
<path d="M59.6875 83.8184H66.0577" stroke="#80A2FF" stroke-width="2.2149" stroke-miterlimit="10" stroke-linecap="round" stroke-linejoin="round"/>
<path d="M198.673 35.6593C198.673 36.4507 198.013 37.0922 197.199 37.0922H183.931C183.117 37.0922 182.457 36.4507 182.457 35.6593V27.8303C182.457 27.0389 183.117 26.3975 183.931 26.3975H197.199C198.012 26.3975 198.672 27.0389 198.672 27.8303V35.6593H198.673Z" fill="#F36F4B"/>
<path d="M197.205 35.1348L192.932 30.5796L197.158 28.0427C197.264 27.9787 197.296 27.8435 197.232 27.7413C197.166 27.6381 197.028 27.6077 196.921 27.6697L190.559 31.4894L184.15 27.9365C184.042 27.8775 183.904 27.9136 183.842 28.0183C183.78 28.1236 183.819 28.2572 183.926 28.3172L188.183 30.6766L183.865 35.6629C183.786 35.7554 183.797 35.8936 183.892 35.9714C183.935 36.006 183.987 36.0227 184.038 36.0227C184.102 36.0227 184.165 35.9963 184.21 35.9445L188.582 30.8972L190.452 31.9341C190.487 31.9534 190.526 31.9626 190.564 31.9626C190.605 31.9626 190.646 31.9514 190.682 31.9301L192.542 30.8134L196.873 35.4296C196.917 35.4773 196.978 35.5012 197.039 35.5012C197.093 35.5012 197.148 35.4824 197.191 35.4438C197.284 35.363 197.291 35.2242 197.205 35.1348Z" fill="white"/>
<path d="M202.148 29.7754H208.519" stroke="#80A2FF" stroke-width="2.2149" stroke-miterlimit="10" stroke-linecap="round" stroke-linejoin="round"/>
<path d="M202.148 34.2783H208.519" stroke="#80A2FF" stroke-width="2.2149" stroke-miterlimit="10" stroke-linecap="round" stroke-linejoin="round"/>
<path d="M106.674 37.374C110.345 33.8063 110.345 28.0219 106.674 24.4541C103.003 20.8864 97.0517 20.8864 93.3809 24.4541C89.7101 28.0219 89.7101 33.8063 93.3809 37.374C97.0517 40.9417 103.003 40.9417 106.674 37.374Z" fill="#B5C9FF"/>
<path d="M106.329 30.8477C106.329 34.2278 103.51 36.9674 100.032 36.9674C96.5546 36.9674 93.7363 34.2278 93.7363 30.8477C93.7363 27.4681 96.5546 24.7285 100.032 24.7285C103.51 24.7285 106.329 27.4681 106.329 30.8477Z" stroke="white" stroke-width="1.1074" stroke-miterlimit="10" stroke-linecap="round" stroke-linejoin="round"/>
<path d="M98.9375 24.8223C98.9375 24.8223 93.6802 29.4806 97.467 36.4359" stroke="white" stroke-width="1.1074" stroke-miterlimit="10" stroke-linecap="round" stroke-linejoin="round"/>
<path d="M100.98 24.8223C100.98 24.8223 106.236 29.4806 102.45 36.4359" stroke="white" stroke-width="1.1074" stroke-miterlimit="10" stroke-linecap="round" stroke-linejoin="round"/>
<path d="M100.032 24.7285C100.032 24.7285 98.9979 31.2741 100.032 36.9674" stroke="white" stroke-width="1.1074" stroke-miterlimit="10" stroke-linecap="round" stroke-linejoin="round"/>
<path d="M94.252 28.4193C94.252 28.4193 100.16 25.5643 105.813 28.4193" stroke="white" stroke-width="1.1074" stroke-miterlimit="10" stroke-linecap="round" stroke-linejoin="round"/>
<path d="M105.813 33.3613C105.813 33.3613 99.9051 36.2163 94.252 33.3613" stroke="white" stroke-width="1.1074" stroke-miterlimit="10" stroke-linecap="round" stroke-linejoin="round"/>
<path d="M93.7363 31.1521C93.7363 31.1521 101.379 31.1521 106.329 30.8477" stroke="white" stroke-width="1.1074" stroke-miterlimit="10" stroke-linecap="round" stroke-linejoin="round"/>
</g>
<defs>
<clipPath id="clip0_2131_11723">
<rect width="239.005" height="219.625" fill="white"/>
</clipPath>
</defs>
</svg>
