<svg width="181" height="183" viewBox="0 0 181 183" fill="none" xmlns="http://www.w3.org/2000/svg">
<path d="M57.205 45.279C57.2217 45.0304 57.2338 44.7798 57.2338 44.5272C57.2338 38.3404 52.0737 33.3257 45.7088 33.3257C42.9904 33.3257 40.4949 34.2422 38.5243 35.7716C37.1254 31.1162 32.7043 27.7148 27.4627 27.7148C21.0972 27.7148 15.9372 32.73 15.9372 38.9168C15.9372 39.5435 15.9926 40.157 16.0941 40.7558C11.5407 42.2521 8.26172 46.4358 8.26172 51.3666C8.26172 57.4558 13.2623 62.407 19.4897 62.561L19.4923 62.5681L55.918 63.3956C61.0901 63.3956 65.2831 59.3207 65.2831 54.2938C65.2831 49.6913 61.7683 45.8889 57.205 45.279Z" stroke="#FFBF5C" stroke-width="0.9128" stroke-miterlimit="10"/>
<path opacity="0.15" d="M121.138 10.3732C121.129 10.2405 121.123 10.1068 121.123 9.97215C121.123 6.67037 123.877 3.99427 127.274 3.99427C128.724 3.99427 130.056 4.48324 131.108 5.29954C131.854 2.81557 134.213 1 137.011 1C140.407 1 143.161 3.67609 143.161 6.97788C143.161 7.31232 143.131 7.63966 143.078 7.95936C145.507 8.75787 147.257 10.9902 147.257 13.6216C147.257 16.871 144.588 19.5131 141.266 19.5954L141.264 19.5995L121.826 20.0412C119.065 20.0412 116.828 17.8662 116.828 15.184C116.828 12.728 118.703 10.699 121.138 10.3732Z" stroke="#506DE4" stroke-width="1.1074" stroke-miterlimit="10"/>
<path opacity="0.15" d="M5.31023 143.214C5.30134 143.081 5.29507 142.947 5.29507 142.812C5.29507 139.511 8.04845 136.834 11.4456 136.834C12.8963 136.834 14.2283 137.323 15.2794 138.139C16.0257 135.655 18.3853 133.84 21.1826 133.84C24.5792 133.84 27.3331 136.516 27.3331 139.818C27.3331 140.152 27.3033 140.48 27.2494 140.799C29.6791 141.598 31.4289 143.83 31.4289 146.461C31.4289 149.711 28.7603 152.353 25.4374 152.435L25.4358 152.439L5.9974 152.881C3.23722 152.881 1 150.706 1 148.024C0.999477 145.568 2.87533 143.539 5.31023 143.214Z" stroke="#506DE4" stroke-width="1.9444" stroke-miterlimit="10"/>
<path d="M158.837 126.117C158.837 128.332 157.103 130.127 154.965 130.127H49.7763C47.6379 130.127 45.9043 128.332 45.9043 126.117V51.9566C45.9043 49.742 47.6379 47.9463 49.7763 47.9463H154.965C157.103 47.9463 158.837 49.742 158.837 51.9566V126.117Z" fill="#E0E9F6"/>
<path d="M158.837 51.3941C158.837 49.1795 157.103 47.3838 154.965 47.3838H49.7763C47.6379 47.3838 45.9043 49.1795 45.9043 51.3941V58.0785H158.837V51.3941Z" fill="#B5C9FF"/>
<path d="M52.5662 52.8719C52.5662 53.7269 51.8529 54.4196 50.9733 54.4196C50.0937 54.4196 49.3809 53.7263 49.3809 52.8719C49.3809 52.017 50.0942 51.3242 50.9733 51.3242C51.8529 51.3237 52.5662 52.017 52.5662 52.8719Z" fill="white"/>
<path d="M57.7771 52.8719C57.7771 53.7269 57.0638 54.4196 56.1847 54.4196C55.3051 54.4196 54.5918 53.7263 54.5918 52.8719C54.5918 52.017 55.3051 51.3242 56.1847 51.3242C57.0638 51.3237 57.7771 52.017 57.7771 52.8719Z" fill="white"/>
<path d="M62.9895 52.8719C62.9895 53.7269 62.2762 54.4196 61.3971 54.4196C60.5175 54.4196 59.8047 53.7263 59.8047 52.8719C59.8047 52.017 60.518 51.3242 61.3971 51.3242C62.2767 51.3237 62.9895 52.017 62.9895 52.8719Z" fill="white"/>
<path d="M105.843 65.8812C105.843 67.0127 104.9 67.9296 103.736 67.9296H67.9898C66.8257 67.9296 65.8828 67.0122 65.8828 65.8812V65.4751C65.8828 64.3437 66.8262 63.4268 67.9898 63.4268H103.736C104.9 63.4268 105.843 64.3437 105.843 65.4751V65.8812Z" stroke="#D9E3FF" stroke-width="1.1074" stroke-miterlimit="10"/>
<path d="M96.8702 73.2754H50.5391V75.5271H96.8702V73.2754Z" fill="#A0B5B1"/>
<path d="M96.8702 96.918H50.5391V99.1697H96.8702V96.918Z" fill="#A0B5B1"/>
<path d="M93.9745 92.415H50.5391V94.6667H93.9745V92.415Z" fill="#A0B5B1"/>
<path d="M87.0249 77.7803H50.5391V80.0319H87.0249V77.7803Z" fill="#A0B5B1"/>
<path d="M76.0213 101.42H50.5391V103.672H76.0213V101.42Z" fill="#A0B5B1"/>
<path d="M85.8666 116.056H50.5391V118.307H85.8666V116.056Z" fill="#A0B5B1"/>
<path d="M91.0789 111.553H50.5391V113.804H91.0789V111.553Z" fill="#A0B5B1"/>
<path d="M91.0789 120.559H50.5391V122.81H91.0789V120.559Z" fill="#A0B5B1"/>
<path d="M91.0789 82.2832H50.5391V84.5349H91.0789V82.2832Z" fill="#A0B5B1"/>
<path d="M153.045 72.1494H120.613V103.108H153.045V72.1494Z" fill="#CFC0F5"/>
<path d="M126.984 107.612H104.977V125.625H126.984V107.612Z" fill="#FFC873"/>
<path d="M62.701 63.1445H50.5391V68.2106H62.701V63.1445Z" fill="#F38061"/>
<path d="M153.044 107.612H130.457V125.625H153.044V107.612Z" fill="#506DE4"/>
<path d="M117.717 72.1494H104.977V103.108H117.717V72.1494Z" fill="#CFC0F5"/>
<path d="M164.629 178.38C164.629 180.537 162.83 182.285 160.612 182.285H100.308C98.0895 182.285 96.291 180.536 96.291 178.38V104.952C96.291 102.796 98.09 101.048 100.308 101.048H160.612C162.831 101.048 164.629 102.796 164.629 104.952V178.38Z" fill="#B5C9FF" stroke="white" stroke-width="1.0052" stroke-miterlimit="10"/>
<path d="M149.045 103.672H99.1855V180.224H161.733V113.409L149.045 103.672Z" fill="white"/>
<path d="M149.047 103.672L161.735 113.409V103.672H149.047Z" fill="#9EB7FF"/>
<path d="M149.047 103.672L161.735 113.409L150.828 116.056L149.047 103.672Z" fill="#D6E1FF"/>
<path d="M110.819 110.756C110.819 112.025 109.76 113.054 108.453 113.054C107.147 113.054 106.088 112.026 106.088 110.756C106.088 109.486 107.147 108.457 108.453 108.457C109.76 108.457 110.819 109.486 110.819 110.756Z" fill="#D9E3FF"/>
<path d="M102.084 119.433C102.084 119.433 108.261 107.613 115.211 119.433H102.084Z" fill="#D9E3FF"/>
<path d="M143.78 110.426H116.561V112.114H143.78V110.426Z" fill="#D9E3FF"/>
<path d="M148.992 113.804H116.561V115.492H148.992V113.804Z" fill="#D9E3FF"/>
<path d="M143.78 117.181H116.561V118.869H143.78V117.181Z" fill="#D9E3FF"/>
<path d="M147.255 165.026H104.398V167.278H147.255V165.026Z" fill="#D9E3FF"/>
<path d="M155.363 169.529H104.398V171.781H155.363V169.529Z" fill="#D9E3FF"/>
<path d="M147.255 174.032H104.398V176.284H147.255V174.032Z" fill="#D9E3FF"/>
<path d="M113.085 123.372H104.398V161.085H113.085V123.372Z" fill="#FFC873"/>
<path d="M151.31 123.372H114.824V131.815H151.31V123.372Z" stroke="#506DE4" stroke-width="1.1074" stroke-miterlimit="10"/>
<path d="M129.882 134.067H114.824V140.259H129.882V134.067Z" fill="#F38061"/>
<path d="M151.311 134.067H132.199V161.086H151.311V134.067Z" fill="#53D6C6"/>
<path d="M129.882 142.51H114.824V161.085H129.882V142.51Z" stroke="#F5977D" stroke-width="1.1074" stroke-miterlimit="10"/>
<path d="M30.8061 142.331H87.9761C90.7619 142.331 93.0201 144.281 93.0201 146.988V158.836C93.0201 161.401 90.9925 163.502 88.4112 163.717L86.0835 175.145L76.9464 163.671H30.8056C28.0198 163.671 25.9316 161.544 25.9316 158.836V146.988C25.9322 144.28 28.0203 142.331 30.8061 142.331Z" fill="#E0E9F6"/>
<path d="M89.9695 146.48H35.6895V148.259H89.9695V146.48Z" fill="#A0B5B1"/>
<path d="M89.9702 150.037H30.2012V151.816H89.9702V150.037Z" fill="#A0B5B1"/>
<path d="M89.9705 154.187H46.0586V155.965H89.9705V154.187Z" fill="#A0B5B1"/>
<path d="M89.9708 157.744H41.1797V159.523H89.9708V157.744Z" fill="#A0B5B1"/>
<path d="M95.4768 37.2406C94.6615 37.2406 93.8917 36.8645 93.3985 36.2312L86.2115 26.9972C85.3434 25.8816 85.5693 24.2922 86.7172 23.4479C87.8651 22.6042 89.4993 22.8233 90.3685 23.9389L95.4177 30.4246L109.503 11.2802C110.339 10.1427 111.967 9.87992 113.138 10.6932C114.309 11.5069 114.58 13.0892 113.742 14.2272L97.5969 36.1768C97.1152 36.832 96.3407 37.2406 95.5123 37.2406C95.5003 37.2406 95.4888 37.2406 95.4768 37.2406Z" fill="#53D6C6"/>
<path d="M128.464 70.4062H74.1765C71.5314 70.4062 69.3867 72.2579 69.3867 74.8283V86.0796C69.3867 88.5152 71.3117 90.5102 73.7629 90.7146L75.9734 101.565L84.6498 90.6698H128.464C131.11 90.6698 133.093 88.6504 133.093 86.0796V74.8283C133.092 72.2574 131.11 70.4062 128.464 70.4062Z" fill="white"/>
<path d="M123.825 74.3467H72.2812V76.0352H123.825V74.3467Z" fill="#D9E3FF"/>
<path d="M129.037 77.7246H72.2812V79.4131H129.037V77.7246Z" fill="#D9E3FF"/>
<path d="M113.979 81.6641H72.2812V83.3526H113.979V81.6641Z" fill="#D9E3FF"/>
<path d="M118.612 85.041H72.2812V86.7295H118.612V85.041Z" fill="#D9E3FF"/>
<path d="M143.995 39.0869H99.8015C97.648 39.0869 95.9023 40.594 95.9023 42.6871V51.8463C95.9023 53.8291 97.4697 55.453 99.4647 55.6192L101.264 64.4526L108.327 55.5831H143.995C146.148 55.5831 147.762 53.9388 147.762 51.8463V42.6871C147.762 40.594 146.148 39.0869 143.995 39.0869Z" fill="white"/>
<path d="M140.219 42.2949H98.2598V43.6693H140.219V42.2949Z" fill="#D9E3FF"/>
<path d="M144.462 45.0439H98.2598V46.4188H144.462V45.0439Z" fill="#D9E3FF"/>
<path d="M132.205 48.2529H98.2598V49.6278H132.205V48.2529Z" fill="#D9E3FF"/>
<path d="M135.976 51.002H98.2598V52.3763H135.976V51.002Z" fill="#D9E3FF"/>
<path d="M26.7941 85.9171C26.7941 86.7085 26.1341 87.35 25.3198 87.35H12.0523C11.2381 87.35 10.5781 86.7085 10.5781 85.9171V78.0881C10.5781 77.2967 11.2381 76.6553 12.0523 76.6553H25.3198C26.1341 76.6553 26.7941 77.2967 26.7941 78.0881V85.9171Z" fill="#F36F4B"/>
<path d="M25.3267 85.3926L21.0531 80.8374L25.2791 78.3005C25.3853 78.2365 25.4177 78.1013 25.3523 77.9991C25.287 77.896 25.1484 77.8655 25.0422 77.9275L18.6804 81.7472L12.2705 78.1943C12.1633 78.1354 12.0252 78.1714 11.963 78.2762C11.9018 78.3814 11.9394 78.5156 12.0472 78.575L16.3046 80.9345L11.9865 85.9207C11.9065 86.0132 11.9185 86.1514 12.0137 86.2292C12.0561 86.2638 12.1078 86.2805 12.1591 86.2805C12.2234 86.2805 12.2867 86.2541 12.3311 86.2023L16.7026 81.1551L18.5732 82.1919C18.6077 82.2113 18.6469 82.2204 18.6851 82.2204C18.7259 82.2204 18.7672 82.2092 18.8033 82.1879L20.6635 81.0712L24.9941 85.6874C25.0385 85.7352 25.0992 85.759 25.1604 85.759C25.2148 85.759 25.2692 85.7402 25.3121 85.7016C25.4041 85.6203 25.4109 85.482 25.3267 85.3926Z" fill="white"/>
<path d="M30.2695 80.0332H36.6397" stroke="#80A2FF" stroke-width="2.2149" stroke-miterlimit="10" stroke-linecap="round" stroke-linejoin="round"/>
<path d="M30.2695 84.5361H36.6397" stroke="#80A2FF" stroke-width="2.2149" stroke-miterlimit="10" stroke-linecap="round" stroke-linejoin="round"/>
<path d="M169.255 36.3771C169.255 37.1685 168.595 37.8099 167.781 37.8099H154.513C153.699 37.8099 153.039 37.1685 153.039 36.3771V28.5481C153.039 27.7567 153.699 27.1152 154.513 27.1152H167.781C168.595 27.1152 169.254 27.7567 169.254 28.5481V36.3771H169.255Z" fill="#F36F4B"/>
<path d="M167.787 35.8525L163.514 31.2973L167.74 28.7605C167.846 28.6965 167.878 28.5613 167.814 28.4591C167.748 28.3559 167.61 28.3254 167.503 28.3874L161.141 32.2072L154.732 28.6543C154.625 28.5953 154.486 28.6314 154.424 28.7361C154.363 28.8413 154.401 28.975 154.508 29.035L158.765 31.3944L154.447 36.3806C154.368 36.4732 154.379 36.6114 154.474 36.6892C154.517 36.7237 154.569 36.7405 154.62 36.7405C154.684 36.7405 154.747 36.7141 154.792 36.6622L159.164 31.615L161.034 32.6519C161.069 32.6712 161.108 32.6804 161.146 32.6804C161.187 32.6804 161.228 32.6692 161.264 32.6478L163.124 31.5311L167.455 36.1473C167.499 36.1951 167.56 36.219 167.621 36.219C167.675 36.219 167.73 36.2002 167.773 36.1616C167.866 36.0808 167.873 35.942 167.787 35.8525Z" fill="white"/>
<path d="M172.73 30.4932H179.101" stroke="#80A2FF" stroke-width="2.2149" stroke-miterlimit="10" stroke-linecap="round" stroke-linejoin="round"/>
<path d="M172.73 34.9961H179.101" stroke="#80A2FF" stroke-width="2.2149" stroke-miterlimit="10" stroke-linecap="round" stroke-linejoin="round"/>
<path d="M77.2559 38.0918C80.9267 34.524 80.9267 28.7396 77.2559 25.1719C73.5852 21.6042 67.6337 21.6042 63.9629 25.1719C60.2922 28.7396 60.2922 34.524 63.9629 38.0918C67.6337 41.6595 73.5852 41.6595 77.2559 38.0918Z" fill="#B5C9FF"/>
<path d="M76.9107 31.5655C76.9107 34.9455 74.092 37.6851 70.6143 37.6851C67.1366 37.6851 64.3184 34.9455 64.3184 31.5655C64.3184 28.1859 67.1366 25.4463 70.6143 25.4463C74.092 25.4463 76.9107 28.1859 76.9107 31.5655Z" stroke="white" stroke-width="1.1074" stroke-miterlimit="10" stroke-linecap="round" stroke-linejoin="round"/>
<path d="M69.5196 25.54C69.5196 25.54 64.2622 30.1984 68.049 37.1537" stroke="white" stroke-width="1.1074" stroke-miterlimit="10" stroke-linecap="round" stroke-linejoin="round"/>
<path d="M71.5625 25.54C71.5625 25.54 76.8183 30.1984 73.032 37.1537" stroke="white" stroke-width="1.1074" stroke-miterlimit="10" stroke-linecap="round" stroke-linejoin="round"/>
<path d="M70.6138 25.4463C70.6138 25.4463 69.5799 31.9919 70.6138 37.6851" stroke="white" stroke-width="1.1074" stroke-miterlimit="10" stroke-linecap="round" stroke-linejoin="round"/>
<path d="M64.834 29.1371C64.834 29.1371 70.7424 26.2821 76.3951 29.1371" stroke="white" stroke-width="1.1074" stroke-miterlimit="10" stroke-linecap="round" stroke-linejoin="round"/>
<path d="M76.3951 34.0791C76.3951 34.0791 70.4872 36.9341 64.834 34.0791" stroke="white" stroke-width="1.1074" stroke-miterlimit="10" stroke-linecap="round" stroke-linejoin="round"/>
<path d="M64.3184 31.8699C64.3184 31.8699 71.9614 31.8699 76.9107 31.5654" stroke="white" stroke-width="1.1074" stroke-miterlimit="10" stroke-linecap="round" stroke-linejoin="round"/>
</svg>
