<svg width="516" height="344" viewBox="0 0 516 344" fill="none" xmlns="http://www.w3.org/2000/svg">
<path d="M378.178 73.7634C377.948 73.7634 377.764 73.5792 377.764 73.3499V0.828077H165.245V41.4388C165.245 41.6681 165.061 41.8523 164.832 41.8523C164.602 41.8523 164.418 41.6681 164.418 41.4388V0.41453C164.418 0.185197 164.602 0.000976562 164.832 0.000976562H378.176C378.405 0.000976562 378.589 0.185197 378.589 0.41453V73.3499C378.589 73.5792 378.405 73.7634 378.176 73.7634H378.178Z" fill="#AE92F4"/>
<path d="M367.032 73.7641C366.803 73.7641 366.618 73.5798 366.618 73.3505V7.95308H180.71V73.3505C180.71 73.5798 180.526 73.7641 180.296 73.7641C180.067 73.7641 179.883 73.5798 179.883 73.3505V7.53953C179.883 7.3102 180.067 7.12598 180.296 7.12598H367.032C367.261 7.12598 367.446 7.3102 367.446 7.53953V73.3505C367.446 73.5798 367.261 73.7641 367.032 73.7641Z" fill="#AE92F4"/>
<path d="M357.268 73.7627C357.038 73.7627 356.854 73.5785 356.854 73.3492V18.83H190.804V51.5344C190.804 51.7637 190.62 51.9479 190.39 51.9479C190.161 51.9479 189.977 51.7637 189.977 51.5344V18.4165C189.977 18.1872 190.161 18.0029 190.39 18.0029H357.268C357.497 18.0029 357.681 18.1872 357.681 18.4165V73.3492C357.681 73.5785 357.497 73.7627 357.268 73.7627Z" fill="#AE92F4"/>
<path d="M499.877 65.7061H198.804C190.273 65.7061 183.355 72.6199 183.355 81.1503V303.667C183.355 312.195 190.271 319.111 198.804 319.111H515.326V81.1503C515.326 72.6218 508.41 65.7061 499.877 65.7061Z" fill="white"/>
<path d="M515.325 319.523H198.804C190.058 319.523 182.941 312.41 182.941 303.666V81.1508C182.941 72.408 190.057 65.2949 198.804 65.2949H499.877C508.622 65.2949 515.739 72.408 515.739 81.1508V319.112C515.739 319.341 515.555 319.525 515.325 319.525V319.523ZM198.804 66.1201C190.513 66.1201 183.769 72.8629 183.769 81.1508V303.667C183.769 311.955 190.513 318.698 198.804 318.698H514.912V81.1508C514.912 72.8629 508.167 66.1201 499.877 66.1201H198.804Z" fill="black"/>
<path d="M97.9648 318.774H515.328V323.948C515.328 334.786 506.527 343.586 495.685 343.586H117.609C106.767 343.586 97.9648 334.786 97.9648 323.948V318.774Z" fill="white"/>
<path d="M495.684 344H117.608C106.548 344 97.5508 335.005 97.5508 323.948V318.775C97.5508 318.547 97.7369 318.361 97.9645 318.361H515.328C515.556 318.361 515.742 318.547 515.742 318.775V323.948C515.742 335.005 506.744 344 495.684 344ZM98.3781 319.188V323.948C98.3781 334.548 107.005 343.173 117.608 343.173H495.684C506.287 343.173 514.914 334.548 514.914 323.948V319.188H98.3781Z" fill="black"/>
<path d="M276.304 269.658H196.723V305.748H276.304V269.658Z" fill="white"/>
<path d="M276.303 306.164H196.722C196.493 306.164 196.309 305.98 196.309 305.75V269.661C196.309 269.431 196.493 269.247 196.722 269.247H276.303C276.533 269.247 276.717 269.431 276.717 269.661V305.75C276.717 305.98 276.533 306.164 276.303 306.164ZM197.136 305.337H275.89V270.074H197.136V305.337Z" fill="#E2EAFF"/>
<path d="M276.303 164.968H196.722C196.493 164.968 196.309 164.784 196.309 164.554C196.309 164.325 196.493 164.141 196.722 164.141H276.303C276.533 164.141 276.717 164.325 276.717 164.554C276.717 164.784 276.533 164.968 276.303 164.968Z" fill="#E2EAFF"/>
<path d="M276.303 178.476H196.722C196.493 178.476 196.309 178.292 196.309 178.063C196.309 177.834 196.493 177.649 196.722 177.649H276.303C276.533 177.649 276.717 177.834 276.717 178.063C276.717 178.292 276.533 178.476 276.303 178.476Z" fill="#E2EAFF"/>
<path d="M276.303 191.984H196.722C196.493 191.984 196.309 191.8 196.309 191.571C196.309 191.341 196.493 191.157 196.722 191.157H276.303C276.533 191.157 276.717 191.341 276.717 191.571C276.717 191.8 276.533 191.984 276.303 191.984Z" fill="#E2EAFF"/>
<path d="M276.303 218.998H196.722C196.493 218.998 196.309 218.814 196.309 218.584C196.309 218.355 196.493 218.171 196.722 218.171H276.303C276.533 218.171 276.717 218.355 276.717 218.584C276.717 218.814 276.533 218.998 276.303 218.998Z" fill="#E2EAFF"/>
<path d="M276.303 232.505H196.722C196.493 232.505 196.309 232.321 196.309 232.091C196.309 231.862 196.493 231.678 196.722 231.678H276.303C276.533 231.678 276.717 231.862 276.717 232.091C276.717 232.321 276.533 232.505 276.303 232.505Z" fill="#E2EAFF"/>
<path d="M276.303 246.014H196.722C196.493 246.014 196.309 245.829 196.309 245.6C196.309 245.371 196.493 245.187 196.722 245.187H276.303C276.533 245.187 276.717 245.371 276.717 245.6C276.717 245.829 276.533 246.014 276.303 246.014Z" fill="#E2EAFF"/>
<path d="M501.967 78.6816H290.477V305.751H501.967V78.6816Z" fill="#E2EAFF"/>
<path d="M421.051 306.37C420.709 306.37 420.43 306.092 420.43 305.749V267.968L362.616 210.17C362.499 210.054 362.434 209.896 362.434 209.732V78.6818C362.434 78.3397 362.712 78.0615 363.054 78.0615C363.396 78.0615 363.675 78.3397 363.675 78.6818V209.477L421.489 267.274C421.606 267.391 421.672 267.549 421.672 267.712V305.751C421.672 306.093 421.393 306.372 421.051 306.372V306.37Z" fill="white"/>
<path d="M481.973 162.117H290.476C290.134 162.117 289.855 161.838 289.855 161.496C289.855 161.154 290.134 160.876 290.476 160.876H481.352V78.6789C481.352 78.3368 481.63 78.0586 481.973 78.0586C482.315 78.0586 482.593 78.3368 482.593 78.6789V161.496C482.593 161.838 482.315 162.117 481.973 162.117Z" fill="white"/>
<path d="M502.692 243.733C502.534 243.733 502.374 243.673 502.254 243.551L420.616 161.937C420.373 161.694 420.373 161.301 420.616 161.059C420.858 160.816 421.251 160.816 421.494 161.059L503.132 242.673C503.374 242.916 503.374 243.308 503.132 243.551C503.012 243.671 502.852 243.733 502.694 243.733H502.692Z" fill="white"/>
<path d="M326.503 306.371C326.161 306.371 325.883 306.092 325.883 305.75V267.711C325.883 267.369 326.161 267.091 326.503 267.091H421.052C421.394 267.091 421.672 267.369 421.672 267.711C421.672 268.053 421.394 268.331 421.052 268.331H327.124V305.75C327.124 306.092 326.846 306.371 326.503 306.371Z" fill="white"/>
<path d="M318.649 107.871C319.421 104.599 317.394 101.319 314.12 100.547C310.846 99.7746 307.566 101.801 306.794 105.074C306.021 108.347 308.048 111.626 311.322 112.399C314.596 113.171 317.876 111.144 318.649 107.871Z" fill="#AE92F4"/>
<path d="M426.957 159.85C427.73 156.577 425.702 153.298 422.429 152.526C419.155 151.753 415.875 153.78 415.102 157.053C414.329 160.325 416.357 163.605 419.631 164.377C422.904 165.15 426.185 163.123 426.957 159.85Z" fill="#AE92F4"/>
<path d="M476.719 257.147C477.492 253.874 475.464 250.595 472.19 249.822C468.917 249.05 465.637 251.077 464.864 254.35C464.091 257.622 466.119 260.902 469.392 261.674C472.666 262.446 475.946 260.42 476.719 257.147Z" fill="#AE92F4"/>
<path d="M327.08 208.4C330.428 208.069 332.873 205.088 332.542 201.742C332.21 198.396 329.228 195.951 325.881 196.282C322.534 196.613 320.089 199.595 320.42 202.941C320.751 206.287 323.733 208.732 327.08 208.4Z" fill="#AE92F4"/>
<path d="M470.392 132.413C471.455 129.223 469.73 125.775 466.539 124.712C463.348 123.649 459.899 125.373 458.836 128.564C457.772 131.754 459.497 135.202 462.688 136.265C465.879 137.328 469.328 135.603 470.392 132.413Z" fill="#AE92F4"/>
<path d="M326.5 202.718C326.487 202.718 326.473 202.718 326.46 202.716C326.233 202.695 326.065 202.492 326.088 202.265C326.112 202.013 328.555 176.702 335.584 151.464C339.717 136.623 344.605 124.705 350.115 116.04C357.048 105.133 365.001 99.3603 373.751 98.881C382.953 98.3734 391.198 101.21 398.249 107.304C403.87 112.162 408.744 119.087 412.737 127.89C417.166 137.653 419.522 147.616 420.627 153.398C420.778 139.992 422.303 104.204 434.034 92.2472C436.589 89.6437 439.511 88.3223 442.719 88.3223C450.75 88.3223 457.162 95.6496 461.263 109.511C464.33 119.882 465.057 130.388 465.065 130.493C465.08 130.721 464.907 130.918 464.68 130.933C464.45 130.944 464.255 130.775 464.24 130.548C464.211 130.134 461.263 89.1494 442.719 89.1494C439.743 89.1494 437.018 90.3863 434.624 92.8262C420.631 107.09 421.451 157.947 421.46 158.459C421.464 158.679 421.295 158.863 421.075 158.88C420.855 158.9 420.661 158.735 420.635 158.517C420.616 158.365 418.709 143.052 411.976 128.217C405.793 114.596 394.152 98.599 373.794 99.7081C365.325 100.172 357.593 105.817 350.811 116.485C345.346 125.081 340.491 136.924 336.379 151.688C329.369 176.854 326.934 202.092 326.91 202.344C326.889 202.558 326.708 202.718 326.498 202.718H326.5Z" fill="#AE92F4"/>
<path d="M386.219 288.118C386.206 288.118 386.193 288.118 386.18 288.117C385.954 288.096 385.787 287.897 385.807 287.669C385.811 287.635 385.86 287.058 385.965 286.013C386.717 277.857 389.859 240.701 388.594 201.508C387.757 175.584 385.183 153.857 380.947 136.932C375.671 115.854 367.798 102.231 357.546 96.4471C345.89 89.8678 330.896 93.3567 312.982 106.816C312.8 106.953 312.54 106.916 312.403 106.733C312.266 106.551 312.303 106.291 312.486 106.154C330.685 92.4807 345.982 88.9731 357.952 95.7271C368.409 101.628 376.415 115.425 381.75 136.734C386.001 153.718 388.581 175.505 389.419 201.489C390.256 227.405 389.167 252.433 388.116 268.792C389.192 261.45 390.687 252.583 392.687 243.342C399.453 212.082 408.463 191.669 419.469 182.669C424.309 178.71 429.559 177.022 435.072 177.652C444.086 178.68 451.596 183.327 457.392 191.464C462.004 197.94 465.541 206.63 467.908 217.29C471.93 235.404 471.163 253.205 471.156 253.382C471.146 253.61 470.951 253.79 470.723 253.777C470.496 253.766 470.319 253.574 470.328 253.344C470.336 253.168 471.097 235.464 467.096 217.456C463.424 200.925 454.87 180.742 434.976 178.473C429.692 177.871 424.651 179.497 419.99 183.31C409.287 192.062 400.126 212.879 393.496 243.51C389.29 262.943 387.325 280.72 386.787 286.094C386.691 287.132 386.635 287.701 386.629 287.748C386.606 287.961 386.428 288.12 386.217 288.12L386.219 288.118Z" fill="#AE92F4"/>
<path d="M386.219 292.82C389.583 292.82 392.31 290.094 392.31 286.731C392.31 283.369 389.583 280.643 386.219 280.643C382.856 280.643 380.129 283.369 380.129 286.731C380.129 290.094 382.856 292.82 386.219 292.82Z" fill="#AE92F4"/>
<path d="M357.094 251.058C357.867 247.785 355.839 244.506 352.565 243.734C349.292 242.961 346.012 244.988 345.239 248.261C344.466 251.533 346.494 254.813 349.767 255.585C353.041 256.358 356.321 254.331 357.094 251.058Z" fill="#AE92F4"/>
<path d="M470.808 256.181C470.645 256.181 470.49 256.083 470.425 255.921C470.376 255.803 465.502 243.861 456.243 231.631C447.722 220.377 433.636 206.568 414.913 204.688C396.197 202.81 379.977 215.179 369.662 225.888C358.453 237.524 351.608 249.757 351.541 249.88C351.43 250.079 351.18 250.152 350.979 250.039C350.779 249.928 350.706 249.677 350.819 249.477C350.886 249.353 357.783 237.028 369.065 225.315C379.509 214.474 395.954 201.957 414.996 203.866C434.021 205.778 448.293 219.758 456.916 231.15C466.237 243.466 471.145 255.493 471.194 255.613C471.278 255.825 471.177 256.066 470.964 256.151C470.913 256.171 470.861 256.181 470.81 256.181H470.808Z" fill="#AE92F4"/>
<path d="M36.7849 238.608H0.413669C0.184269 238.608 0 238.423 0 238.194V164.02C0 163.791 0.184269 163.606 0.413669 163.606H50.5564C50.7858 163.606 50.9701 163.791 50.9701 164.02C50.9701 164.249 50.7858 164.434 50.5564 164.434H0.827344V237.781H36.7849C37.0143 237.781 37.1986 237.965 37.1986 238.194C37.1986 238.423 37.0143 238.608 36.7849 238.608Z" fill="#AE92F4"/>
<path d="M30.5038 234.204H5.33555C5.10615 234.204 4.92188 234.019 4.92188 233.79V169.733C4.92188 169.504 5.10615 169.319 5.33555 169.319H43.9462C44.1756 169.319 44.3599 169.504 44.3599 169.733C44.3599 169.962 44.1756 170.146 43.9462 170.146H5.74922V233.376H30.5038C30.7332 233.376 30.9174 233.561 30.9174 233.79C30.9174 234.019 30.7332 234.204 30.5038 234.204Z" fill="#AE92F4"/>
<path d="M28.2836 229.677H11.7574C11.528 229.677 11.3438 229.493 11.3438 229.264V181.378C11.3438 181.149 11.528 180.965 11.7574 180.965C11.9868 180.965 12.1711 181.149 12.1711 181.378V228.85H28.2855C28.5149 228.85 28.6992 229.034 28.6992 229.264C28.6992 229.493 28.5149 229.677 28.2855 229.677H28.2836Z" fill="#AE92F4"/>
<path d="M14.0155 181.559C14.1187 180.312 13.1914 179.217 11.9443 179.114C10.6972 179.011 9.60253 179.938 9.49934 181.185C9.39615 182.432 10.3235 183.526 11.5706 183.629C12.8177 183.732 13.9123 182.805 14.0155 181.559Z" fill="white"/>
<path d="M11.7576 184.058C10.2797 184.058 9.07812 182.856 9.07812 181.379C9.07812 179.901 10.2797 178.7 11.7576 178.7C13.2355 178.7 14.4371 179.901 14.4371 181.379C14.4371 182.856 13.2355 184.058 11.7576 184.058ZM11.7576 179.527C10.7366 179.527 9.90547 180.358 9.90547 181.379C9.90547 182.4 10.7366 183.23 11.7576 183.23C12.7786 183.23 13.6097 182.4 13.6097 181.379C13.6097 180.358 12.7786 179.527 11.7576 179.527Z" fill="#AE92F4"/>
<path d="M6.9432 226.926C7.82805 226.041 7.82806 224.607 6.94321 223.723C6.05836 222.838 4.62373 222.838 3.73888 223.723C2.85403 224.607 2.85404 226.041 3.73889 226.926C4.62373 227.811 6.05835 227.81 6.9432 226.926Z" fill="white"/>
<path d="M5.34353 228.003C3.86559 228.003 2.66406 226.802 2.66406 225.324C2.66406 223.847 3.86559 222.646 5.34353 222.646C6.82147 222.646 8.023 223.847 8.023 225.324C8.023 226.802 6.82147 228.003 5.34353 228.003ZM5.34353 223.473C4.32251 223.473 3.49141 224.303 3.49141 225.324C3.49141 226.345 4.32251 227.176 5.34353 227.176C6.36455 227.176 7.19565 226.345 7.19565 225.324C7.19565 224.303 6.36455 223.473 5.34353 223.473Z" fill="#AE92F4"/>
<path d="M28.2892 166.285C29.5406 166.285 30.555 165.271 30.555 164.02C30.555 162.769 29.5406 161.755 28.2892 161.755C27.0379 161.755 26.0234 162.769 26.0234 164.02C26.0234 165.271 27.0379 166.285 28.2892 166.285Z" fill="white"/>
<path d="M28.2888 166.699C26.8109 166.699 25.6094 165.498 25.6094 164.02C25.6094 162.543 26.8109 161.342 28.2888 161.342C29.7668 161.342 30.9683 162.543 30.9683 164.02C30.9683 165.498 29.7668 166.699 28.2888 166.699ZM28.2888 162.169C27.2678 162.169 26.4367 163 26.4367 164.02C26.4367 165.041 27.2678 165.872 28.2888 165.872C29.3099 165.872 30.141 165.041 30.141 164.02C30.141 163 29.3099 162.169 28.2888 162.169Z" fill="#AE92F4"/>
<path d="M69.2613 136.324C69.0319 136.324 68.8477 136.14 68.8477 135.91V73.7632C68.8477 73.5338 69.0319 73.3496 69.2613 73.3496H154.914C155.144 73.3496 155.328 73.5338 155.328 73.7632C155.328 73.9925 155.144 74.1767 154.914 74.1767H69.675V135.91C69.675 136.14 69.4907 136.324 69.2613 136.324Z" fill="#AE92F4"/>
<path d="M64.9605 136.324C64.7311 136.324 64.5469 136.14 64.5469 135.91V66.1557C64.5469 65.9264 64.7311 65.7422 64.9605 65.7422H151.681C151.911 65.7422 152.095 65.9264 152.095 66.1557C152.095 66.3851 151.911 66.5693 151.681 66.5693H65.3742V135.91C65.3742 136.14 65.19 136.324 64.9605 136.324Z" fill="#AE92F4"/>
<path d="M57.5738 136.323C57.3444 136.323 57.1602 136.139 57.1602 135.91V58.4292C57.1602 58.1998 57.3444 58.0156 57.5738 58.0156H141.799C142.029 58.0156 142.213 58.1998 142.213 58.4292C142.213 58.6585 142.029 58.8427 141.799 58.8427H57.9875V135.91C57.9875 136.139 57.8032 136.323 57.5738 136.323Z" fill="#AE92F4"/>
<path d="M52.4098 139.721C52.1804 139.721 51.9961 139.537 51.9961 139.307V83.4477C51.9961 83.2184 52.1804 83.0342 52.4098 83.0342C52.6392 83.0342 52.8234 83.2184 52.8234 83.4477V139.307C52.8234 139.537 52.6392 139.721 52.4098 139.721Z" fill="#AE92F4"/>
<path d="M54.6106 84.7765C54.898 83.559 54.1438 82.339 52.9259 82.0516C51.708 81.7643 50.4876 82.5183 50.2002 83.7359C49.9127 84.9534 50.667 86.1734 51.8849 86.4608C53.1028 86.7481 54.3231 85.9941 54.6106 84.7765Z" fill="white"/>
<path d="M52.4099 86.9433C50.932 86.9433 49.7305 85.7421 49.7305 84.2646C49.7305 82.7871 50.932 81.5859 52.4099 81.5859C53.8879 81.5859 55.0894 82.7871 55.0894 84.2646C55.0894 85.7421 53.8879 86.9433 52.4099 86.9433ZM52.4099 82.413C51.3889 82.413 50.5578 83.2439 50.5578 84.2646C50.5578 85.2853 51.3889 86.1162 52.4099 86.1162C53.431 86.1162 54.2621 85.2853 54.2621 84.2646C54.2621 83.2439 53.431 82.413 52.4099 82.413Z" fill="#AE92F4"/>
<path d="M97.9728 74.1335C98.1733 72.8987 97.3345 71.7352 96.0993 71.5347C94.8641 71.3343 93.7003 72.1728 93.4998 73.4077C93.2993 74.6425 94.1381 75.806 95.3733 76.0065C96.6085 76.2069 97.7723 75.3684 97.9728 74.1335Z" fill="white"/>
<path d="M95.7263 76.4404C94.2484 76.4404 93.0469 75.2392 93.0469 73.7617C93.0469 72.2842 94.2484 71.083 95.7263 71.083C97.2043 71.083 98.4058 72.2842 98.4058 73.7617C98.4058 75.2392 97.2043 76.4404 95.7263 76.4404ZM95.7263 71.912C94.7053 71.912 93.8742 72.7429 93.8742 73.7636C93.8742 74.7843 94.7053 75.6151 95.7263 75.6151C96.7474 75.6151 97.5785 74.7843 97.5785 73.7636C97.5785 72.7429 96.7474 71.912 95.7263 71.912Z" fill="#AE92F4"/>
<path d="M72.6614 58.9425C72.9488 57.725 72.1945 56.505 70.9766 56.2177C69.7587 55.9303 68.5384 56.6843 68.2509 57.9019C67.9635 59.1194 68.7178 60.3394 69.9357 60.6268C71.1536 60.9141 72.3739 60.1601 72.6614 58.9425Z" fill="white"/>
<path d="M70.4568 61.1083C68.9789 61.1083 67.7773 59.9072 67.7773 58.4297C67.7773 56.9522 68.9789 55.751 70.4568 55.751C71.9348 55.751 73.1363 56.9522 73.1363 58.4297C73.1363 59.9072 71.9348 61.1083 70.4568 61.1083ZM70.4568 56.5781C69.4358 56.5781 68.6047 57.4089 68.6047 58.4297C68.6047 59.4504 69.4358 60.2812 70.4568 60.2812C71.4778 60.2812 72.3089 59.4504 72.3089 58.4297C72.3089 57.4089 71.4778 56.5781 70.4568 56.5781Z" fill="#AE92F4"/>
<path d="M71.4621 116.557C71.7496 115.339 70.9953 114.119 69.7774 113.832C68.5595 113.545 67.3392 114.299 67.0517 115.516C66.7643 116.734 67.5186 117.954 68.7365 118.241C69.9544 118.528 71.1747 117.774 71.4621 116.557Z" fill="white"/>
<path d="M69.2576 118.724C67.7797 118.724 66.5781 117.522 66.5781 116.045C66.5781 114.567 67.7797 113.366 69.2576 113.366C70.7355 113.366 71.9371 114.567 71.9371 116.045C71.9371 117.522 70.7355 118.724 69.2576 118.724ZM69.2576 114.193C68.2366 114.193 67.4055 115.024 67.4055 116.045C67.4055 117.066 68.2366 117.896 69.2576 117.896C70.2786 117.896 71.1097 117.066 71.1097 116.045C71.1097 115.024 70.2786 114.193 69.2576 114.193Z" fill="#AE92F4"/>
<path d="M82.9293 147.811C82.6999 147.811 82.5156 147.627 82.5156 147.398V99.7134C82.5156 99.484 82.6999 99.2998 82.9293 99.2998C83.1587 99.2998 83.343 99.484 83.343 99.7134V147.398C83.343 147.627 83.1587 147.811 82.9293 147.811Z" fill="#AE92F4"/>
<path d="M84.5331 101.037C85.4179 100.153 85.4179 98.7184 84.533 97.8339C83.6482 96.9493 82.2136 96.9493 81.3287 97.8339C80.4439 98.7184 80.4439 100.153 81.3287 101.037C82.2136 101.922 83.6482 101.922 84.5331 101.037Z" fill="white"/>
<path d="M82.9295 102.113C81.4515 102.113 80.25 100.912 80.25 99.4345C80.25 97.957 81.4515 96.7559 82.9295 96.7559C84.4074 96.7559 85.6089 97.957 85.6089 99.4345C85.6089 100.912 84.4074 102.113 82.9295 102.113ZM82.9295 97.5848C81.9085 97.5848 81.0773 98.4157 81.0773 99.4364C81.0773 100.457 81.9085 101.288 82.9295 101.288C83.9505 101.288 84.7816 100.457 84.7816 99.4364C84.7816 98.4157 83.9505 97.5848 82.9295 97.5848Z" fill="#AE92F4"/>
<path d="M96.8809 190.043H52.9075L21.8125 221.129V265.091L52.9075 296.177H96.8809L127.976 265.091V221.129L96.8809 190.043Z" fill="#AE92F4"/>
<path d="M75.5439 252.233H54.3808L49.5784 265.324H45.4492L63.0905 218.719H66.8361L84.4773 265.324H80.3782L75.5439 252.233ZM55.5974 248.904H74.2954L64.9464 223.522L55.5974 248.904Z" fill="white"/>
<path d="M96.1327 265.324H92.1953V218.719H96.1327V265.324Z" fill="white"/>
<path d="M75.5219 130.322H54.3682L39.4102 145.276V166.423L54.3682 181.377H75.5219L90.4799 166.423V145.276L75.5219 130.322Z" fill="white"/>
<path d="M75.5215 181.791H54.3678C54.2587 181.791 54.1534 181.748 54.0745 181.671L39.1164 166.717C39.0393 166.64 38.9961 166.535 38.9961 166.424V145.276C38.9961 145.167 39.0393 145.062 39.1164 144.983L54.0745 130.029C54.1516 129.952 54.2569 129.909 54.3678 129.909H75.5215C75.6306 129.909 75.7359 129.952 75.8148 130.029L90.7729 144.983C90.8499 145.06 90.8932 145.165 90.8932 145.276V166.424C90.8932 166.533 90.8499 166.638 90.7729 166.717L75.8148 181.671C75.7377 181.748 75.6324 181.791 75.5215 181.791ZM54.5389 180.964H75.3504L90.0658 166.253V145.447L75.3504 130.736H54.5389L39.8234 145.447V166.253L54.5389 180.964Z" fill="#AE92F4"/>
<path d="M75.527 181.791C75.2976 181.791 75.1133 181.607 75.1133 181.377V159.944C75.1133 159.835 75.1565 159.73 75.2336 159.651L90.0487 144.84C90.2104 144.678 90.4718 144.678 90.6335 144.84C90.7952 145.002 90.7952 145.263 90.6335 145.425L75.9387 160.115V181.377C75.9387 181.607 75.7545 181.791 75.5251 181.791H75.527Z" fill="#AE92F4"/>
<path d="M39.4107 166.838C39.3054 166.838 39.1982 166.799 39.1174 166.718C38.9557 166.556 38.9557 166.295 39.1174 166.133L57.161 148.095V131.293C57.161 131.064 57.3453 130.88 57.5747 130.88C57.8041 130.88 57.9884 131.064 57.9884 131.293V148.266C57.9884 148.375 57.9451 148.48 57.868 148.559L39.704 166.718C39.6232 166.799 39.5179 166.838 39.4107 166.838Z" fill="#AE92F4"/>
<path d="M48.4927 174.684C48.3874 174.684 48.2803 174.644 48.1994 174.563C48.0377 174.402 48.0377 174.14 48.1994 173.979L75.3307 146.855V130.323C75.3307 130.093 75.515 129.909 75.7444 129.909C75.9738 129.909 76.158 130.093 76.158 130.323V147.026C76.158 147.135 76.1148 147.241 76.0377 147.32L48.7861 174.563C48.7052 174.644 48.5999 174.684 48.4927 174.684Z" fill="#AE92F4"/>
<path d="M66.6418 172.288C66.795 171.044 65.9107 169.912 64.6667 169.759C63.4226 169.606 62.2899 170.49 62.1368 171.733C61.9836 172.977 62.8679 174.11 64.1119 174.263C65.356 174.416 66.4887 173.532 66.6418 172.288Z" fill="#AE92F4"/>
<path d="M50.7657 146.59C50.7657 147.842 49.7503 148.859 48.4961 148.859C47.2419 148.859 46.2266 147.844 46.2266 146.59C46.2266 145.336 47.2419 144.321 48.4961 144.321C49.7503 144.321 50.7657 145.336 50.7657 146.59Z" fill="#AE92F4"/>
<path d="M86.0626 160.988C86.0626 162.24 85.0472 163.257 83.793 163.257C82.5388 163.257 81.5234 162.241 81.5234 160.988C81.5234 159.734 82.5388 158.719 83.793 158.719C85.0472 158.719 86.0626 159.734 86.0626 160.988Z" fill="#AE92F4"/>
<path d="M120.463 316.075H32.1285C31.8991 316.075 31.7148 315.891 31.7148 315.661V265.325C31.7148 265.095 31.8991 264.911 32.1285 264.911C32.3579 264.911 32.5422 265.095 32.5422 265.325V315.248H120.463C120.692 315.248 120.876 315.432 120.876 315.661C120.876 315.891 120.692 316.075 120.463 316.075Z" fill="#AE92F4"/>
<path d="M117.432 310.913H38.1477C37.922 310.913 37.7359 310.731 37.734 310.503L37.3203 271.808C37.3184 271.579 37.5008 271.393 37.7302 271.391H37.734C37.9615 271.391 38.1458 271.573 38.1477 271.8L38.5576 310.086H117.432C117.661 310.086 117.845 310.27 117.845 310.499C117.845 310.729 117.661 310.913 117.432 310.913Z" fill="#AE92F4"/>
<path d="M117.434 305.335H71.6559C71.4265 305.335 71.2422 305.151 71.2422 304.921C71.2422 304.692 71.4265 304.508 71.6559 304.508H117.434C117.664 304.508 117.848 304.692 117.848 304.921C117.848 305.151 117.664 305.335 117.434 305.335Z" fill="#AE92F4"/>
<path d="M73.2596 306.522C74.1445 305.637 74.1445 304.203 73.2596 303.318C72.3748 302.434 70.9401 302.434 70.0553 303.318C69.1704 304.203 69.1704 305.637 70.0553 306.522C70.9401 307.406 72.3748 307.406 73.2596 306.522Z" fill="white"/>
<path d="M71.656 307.599C70.1781 307.599 68.9766 306.397 68.9766 304.92C68.9766 303.442 70.1781 302.241 71.656 302.241C73.134 302.241 74.3355 303.442 74.3355 304.92C74.3355 306.397 73.134 307.599 71.656 307.599ZM71.656 303.07C70.635 303.07 69.8039 303.901 69.8039 304.922C69.8039 305.942 70.635 306.773 71.656 306.773C72.6771 306.773 73.5082 305.942 73.5082 304.922C73.5082 303.901 72.6771 303.07 71.656 303.07Z" fill="#AE92F4"/>
<path d="M53.3846 317.263C54.2695 316.378 54.2695 314.944 53.3846 314.059C52.4998 313.175 51.0651 313.175 50.1803 314.059C49.2954 314.944 49.2954 316.378 50.1803 317.263C51.0651 318.147 52.4998 318.147 53.3846 317.263Z" fill="white"/>
<path d="M51.781 318.34C50.3031 318.34 49.1016 317.139 49.1016 315.661C49.1016 314.184 50.3031 312.982 51.781 312.982C53.259 312.982 54.4605 314.184 54.4605 315.661C54.4605 317.139 53.259 318.34 51.781 318.34ZM51.781 313.81C50.76 313.81 49.9289 314.64 49.9289 315.661C49.9289 316.682 50.76 317.513 51.781 317.513C52.8021 317.513 53.6332 316.682 53.6332 315.661C53.6332 314.64 52.8021 313.81 51.781 313.81Z" fill="#AE92F4"/>
<path d="M32.4159 295.983C33.6579 295.83 34.5408 294.7 34.3878 293.458C34.2349 292.217 33.1041 291.334 31.8621 291.487C30.6201 291.64 29.7373 292.77 29.8902 294.012C30.0431 295.253 31.1739 296.136 32.4159 295.983Z" fill="white"/>
<path d="M32.1287 296.418C30.6507 296.418 29.4492 295.217 29.4492 293.739C29.4492 292.262 30.6507 291.061 32.1287 291.061C33.6066 291.061 34.8082 292.262 34.8082 293.739C34.8082 295.217 33.6066 296.418 32.1287 296.418ZM32.1287 291.888C31.1077 291.888 30.2766 292.719 30.2766 293.739C30.2766 294.76 31.1077 295.591 32.1287 295.591C33.1497 295.591 33.9808 294.76 33.9808 293.739C33.9808 292.719 33.1497 291.888 32.1287 291.888Z" fill="#AE92F4"/>
<path d="M101.798 311C102.086 309.783 101.331 308.563 100.113 308.275C98.8955 307.988 97.6751 308.742 97.3877 309.959C97.1002 311.177 97.8545 312.397 99.0724 312.684C100.29 312.972 101.511 312.218 101.798 311Z" fill="white"/>
<path d="M99.5935 313.179C98.1156 313.179 96.9141 311.977 96.9141 310.5C96.9141 309.022 98.1156 307.821 99.5935 307.821C101.071 307.821 102.273 309.022 102.273 310.5C102.273 311.977 101.071 313.179 99.5935 313.179ZM99.5935 308.648C98.5725 308.648 97.7414 309.479 97.7414 310.5C97.7414 311.521 98.5725 312.352 99.5935 312.352C100.615 312.352 101.446 311.521 101.446 310.5C101.446 309.479 100.615 308.648 99.5935 308.648Z" fill="#AE92F4"/>
<path d="M155.788 276.065H131.19L113.797 293.455V318.046L131.19 335.434H155.788L173.183 318.046V293.455L155.788 276.065Z" fill="white"/>
<path d="M155.788 335.848H131.19C131.08 335.848 130.975 335.805 130.896 335.728L113.503 318.34C113.426 318.263 113.383 318.158 113.383 318.047V293.456C113.383 293.347 113.426 293.241 113.503 293.163L130.896 275.775C130.973 275.698 131.079 275.654 131.19 275.654H155.788C155.897 275.654 156.002 275.698 156.081 275.775L173.474 293.163C173.551 293.24 173.595 293.345 173.595 293.456V318.047C173.595 318.156 173.551 318.261 173.474 318.34L156.081 335.728C156.004 335.805 155.899 335.848 155.788 335.848ZM131.361 335.021H155.617L172.769 317.876V293.627L155.617 276.48H131.361L114.21 293.627V317.876L131.361 335.021Z" fill="#AE92F4"/>
<path d="M162.831 328.213C162.601 328.213 162.417 328.028 162.417 327.799V313.966L146.726 298.279C146.649 298.202 146.605 298.097 146.605 297.986V276.334C146.605 276.105 146.79 275.921 147.019 275.921C147.249 275.921 147.433 276.105 147.433 276.334V297.815L163.124 313.501C163.201 313.578 163.245 313.684 163.245 313.795V327.799C163.245 328.028 163.06 328.213 162.831 328.213Z" fill="#AE92F4"/>
<path d="M155.784 335.847C155.554 335.847 155.37 335.663 155.37 335.434V321.151L120.727 286.518C120.565 286.357 120.565 286.095 120.727 285.934C120.888 285.772 121.15 285.772 121.312 285.934L156.075 320.687C156.152 320.764 156.195 320.869 156.195 320.98V335.434C156.195 335.663 156.011 335.847 155.782 335.847H155.784Z" fill="#AE92F4"/>
<path d="M161.645 295.706C161.645 296.793 160.765 297.673 159.678 297.673C158.591 297.673 157.711 296.793 157.711 295.706C157.711 294.62 158.591 293.74 159.678 293.74C160.765 293.74 161.645 294.62 161.645 295.706Z" fill="#AE92F4"/>
<path d="M141.055 313.697C141.055 314.783 140.175 315.663 139.088 315.663C138.001 315.663 137.121 314.783 137.121 313.697C137.121 312.61 138.001 311.73 139.088 311.73C140.175 311.73 141.055 312.61 141.055 313.697Z" fill="#AE92F4"/>
<path d="M239.742 25.8027H122.823C113.494 25.8027 105.934 33.3613 105.934 42.6869V154.421C105.934 172.271 115.939 188.616 131.837 196.738L183.351 223.061L231.679 196.973C247.05 188.676 256.631 172.619 256.631 155.156V42.6888C256.631 33.3632 249.07 25.8046 239.742 25.8046V25.8027Z" fill="white"/>
<path d="M183.35 223.472C183.286 223.472 183.22 223.457 183.162 223.427L131.649 197.104C115.532 188.869 105.52 172.513 105.52 154.418V42.6844C105.52 33.1464 113.282 25.3867 122.822 25.3867H239.741C249.282 25.3867 257.044 33.1464 257.044 42.6844V155.151C257.044 172.789 247.4 188.954 231.876 197.334L183.548 223.423C183.486 223.457 183.418 223.472 183.35 223.472ZM122.82 26.2157C113.737 26.2157 106.345 33.6051 106.345 42.6863V154.42C106.345 172.203 116.185 188.277 132.023 196.371L183.343 222.594L231.479 196.608C246.736 188.373 256.213 172.487 256.213 155.153V42.6863C256.213 33.6051 248.821 26.2157 239.737 26.2157H122.819H122.82Z" fill="black"/>
<path d="M138.452 183.806C127.356 178.136 120.465 166.876 120.465 154.419V42.6872C120.465 41.3845 121.523 40.3262 122.827 40.3262H239.747C241.05 40.3262 242.109 41.3864 242.109 42.6872V155.154C242.109 167.296 235.47 178.424 224.782 184.195L183.17 206.656L138.454 183.808L138.452 183.806Z" fill="#AE92F4"/>
<path d="M177.377 154.547C177.257 154.558 177.135 154.568 177.014 154.573C173.837 154.748 170.77 153.382 168.771 150.908L147.854 125.005C144.419 120.752 145.083 114.521 149.34 111.087C153.589 107.649 159.826 108.316 163.264 112.572L175.555 127.794L202.643 85.5762C205.597 80.9726 211.72 79.6418 216.323 82.5892C220.926 85.5405 222.263 91.6648 219.311 96.2646L184.81 150.036C183.157 152.609 180.412 154.271 177.377 154.547Z" fill="white"/>
</svg>
