<svg width="32" height="32" viewBox="0 0 32 32" fill="none" xmlns="http://www.w3.org/2000/svg">
<g clip-path="url(#clip0_2074_6093)">
<mask id="mask0_2074_6093" style="mask-type:luminance" maskUnits="userSpaceOnUse" x="0" y="0" width="32" height="32">
<path d="M0 1.90735e-06H32V32H0V1.90735e-06Z" fill="white"/>
</mask>
<g mask="url(#mask0_2074_6093)">
<path d="M0.46875 5.43547C0.46875 2.66791 2.73225 0.428969 5.50894 0.468969C8.19862 0.507657 10.3857 2.71347 10.4027 5.40334C10.4122 6.90978 9.751 8.26178 8.70019 9.17878C8.58931 9.27553 8.60531 9.45222 8.73194 9.52709L9.66787 10.0809C9.81912 10.1704 9.75569 10.4024 9.57981 10.4023L5.34175 10.4013C2.64194 10.3511 0.46875 8.14722 0.46875 5.43547Z" fill="#7ACAA6"/>
<path d="M9.66781 10.0808L8.73187 9.52709C8.60594 9.45253 8.58837 9.27616 8.69875 9.17997C9.7615 8.25316 10.4262 6.88153 10.4021 5.35516C10.3604 2.71484 8.2235 0.54747 5.58394 0.470532C5.20962 0.459658 4.84431 0.490283 4.49219 0.55797C6.77375 0.995345 8.51256 3.00641 8.52769 5.40334C8.535 6.56409 8.144 7.63322 7.48344 8.48234C7.08456 8.99503 7.21419 9.73847 7.77331 10.0693L7.79281 10.0808C7.9425 10.1694 7.88181 10.3969 7.71037 10.4018L9.57981 10.4023C9.75562 10.4023 9.81912 10.1704 9.66781 10.0808Z" fill="#57BE92"/>
<path d="M24.6713 18.498H13.4035C10.5892 18.498 9.04916 15.2183 10.8466 13.0527L10.9465 12.9324C11.7384 11.9784 12.1718 10.7775 12.1718 9.53767V7.36473C12.1718 3.5563 15.2592 0.468922 19.0677 0.468922C22.8762 0.468922 25.9636 3.5563 25.9636 7.36473V9.61098C25.9636 10.8638 26.4062 12.0764 27.2131 13.0347C29.033 15.1958 27.4967 18.498 24.6713 18.498Z" fill="#C59191"/>
<path d="M30.5946 31.5312V24.0821C30.5946 22.4368 29.6247 20.9461 28.1204 20.2796L23.0736 18.1164C22.1137 17.705 21.4914 16.7612 21.4914 15.7169V15.2597H16.5837V15.7418C16.5837 16.7811 15.9672 17.7215 15.014 18.1359L10.0262 20.3045C8.48366 20.9538 7.48047 22.4643 7.48047 24.138V31.5312" fill="white"/>
<path d="M13.7555 20.4579C15.0289 20.8384 16.9034 21.2442 19.1882 21.2043C21.3321 21.1669 23.0919 20.75 24.3164 20.3589L24.9248 18.91L23.072 18.1159C22.1121 17.7044 21.4898 16.7606 21.4898 15.7163V15.2591H16.5822V15.7412C16.5822 16.7806 15.9655 17.7209 15.0123 18.1354L13.5117 18.7878L13.7555 20.4579Z" fill="#FFCEBF"/>
<path d="M28.1188 20.2796L24.3171 18.6501L24.3164 18.6502V31.5312H30.593V24.0821C30.593 22.4368 29.623 20.9461 28.1188 20.2796Z" fill="#8795DE"/>
<path d="M9.95466 20.2796L13.7564 18.6501L13.7571 18.6502V31.5312H7.48047V24.0821C7.48047 22.4368 8.45041 20.9461 9.95466 20.2796Z" fill="#8795DE"/>
<path d="M20.4336 14.2598H19.3351C18.8351 14.2598 18.4297 13.8545 18.4297 13.3545C18.4297 12.8545 18.8351 12.4491 19.3351 12.4491H20.4336C20.9336 12.4491 21.3389 12.8545 21.3389 13.3545C21.3389 13.8545 20.9336 14.2598 20.4336 14.2598Z" fill="white"/>
<path d="M20.4336 14.2598H19.3351C18.8351 14.2598 18.4297 13.8545 18.4297 13.3545C18.4297 12.8545 18.8351 12.4491 19.3351 12.4491H20.4336C20.9336 12.4491 21.3389 12.8545 21.3389 13.3545C21.3389 13.8545 20.9336 14.2598 20.4336 14.2598Z" stroke="black" stroke-miterlimit="10" stroke-linecap="round" stroke-linejoin="round"/>
<path d="M19.4912 23.7973C19.4912 24.0473 19.2886 24.25 19.0386 24.25C18.7886 24.25 18.5859 24.0473 18.5859 23.7973C18.5859 23.5473 18.7886 23.3446 19.0386 23.3446C19.2886 23.3446 19.4912 23.5473 19.4912 23.7973Z" fill="black"/>
<path d="M20.7352 17.9531C21.2998 17.9531 21.8378 17.8398 22.3282 17.6351C21.8022 17.1496 21.4879 16.4586 21.4879 15.7167V15.2595H16.5803V15.7416C16.5803 16.1171 16.4994 16.4794 16.3516 16.8089C17.0947 17.5173 18.1001 17.9531 19.2079 17.9531H20.7352Z" fill="#FFB09E"/>
<path d="M23.9429 7.87675V11.9367C23.9429 14.2239 22.0887 16.0781 19.8015 16.0781H18.2742C15.9869 16.0781 14.1328 14.2239 14.1328 11.9367V7.87675C14.1328 6.38881 15.339 5.18256 16.827 5.18256H21.2487C22.7367 5.18256 23.9429 6.38881 23.9429 7.87675Z" fill="#FFCEBF"/>
<path d="M20.4336 14.2598H19.3351C18.8351 14.2598 18.4297 13.8545 18.4297 13.3545C18.4297 12.8545 18.8351 12.4491 19.3351 12.4491H20.4336C20.9336 12.4491 21.3389 12.8545 21.3389 13.3545C21.3389 13.8545 20.9336 14.2598 20.4336 14.2598Z" fill="#685E68"/>
<path d="M20.0148 4.10856C20.12 2.782 21.39 1.90162 22.6055 1.44575C24.6162 2.6505 25.9623 4.85044 25.9623 7.36494V7.83906C25.8511 7.86237 25.7405 7.88281 25.6312 7.89912C24.9615 7.99912 24.3913 7.95587 24.0018 7.89912C21.4914 7.56469 19.8878 5.71069 20.0148 4.10856Z" fill="#B98080"/>
<path d="M19.0677 0.468438C20.6251 0.468438 22.0617 0.984938 23.2161 1.85563C22.6403 2.85769 21.3179 4.83881 18.8383 6.30556C16.9976 7.39438 15.2619 7.76025 14.193 7.89844H12.1719V7.36425C12.1719 3.55581 15.2592 0.468438 19.0677 0.468438Z" fill="#C59191"/>
<path d="M26.7758 31.5312H11.7705L10.9428 23.7239C10.8841 23.1701 11.3182 22.6875 11.8751 22.6875H26.6711C27.228 22.6875 27.6621 23.1701 27.6034 23.7239L26.7758 31.5312Z" fill="#EFEDEF"/>
<path d="M26.6719 22.6875H24.7969C25.3537 22.6875 25.7878 23.1701 25.7291 23.7238L24.9015 31.5312H26.7765L27.6041 23.7238C27.6628 23.1701 27.2287 22.6875 26.6719 22.6875Z" fill="#E5E1E5"/>
<path d="M31.5312 32H0.46875C0.209812 32 0 31.7901 0 31.5312C0 31.2724 0.209812 31.0625 0.46875 31.0625H31.5312C31.7902 31.0625 32 31.2724 32 31.5312C32 31.7901 31.7902 32 31.5312 32Z" fill="#C9BFC8"/>
<path d="M20.5859 27.1094C20.5859 27.8342 19.9984 28.4219 19.2734 28.4219C18.5486 28.4219 17.9609 27.8342 17.9609 27.1094C17.9609 26.3845 18.5486 25.7969 19.2734 25.7969C19.9984 25.7969 20.5859 26.3845 20.5859 27.1094Z" fill="#C9BFC8"/>
<path d="M0.46875 5.43547C0.46875 2.66791 2.73225 0.42897 5.50894 0.46897C8.19862 0.507657 10.3857 2.71347 10.4027 5.40334C10.4122 6.90978 9.751 8.26178 8.70019 9.17878C8.58931 9.27553 8.60531 9.45222 8.73194 9.52709L9.66787 10.0809C9.81912 10.1704 9.75569 10.4024 9.57981 10.4023L5.34175 10.4013C2.64194 10.3511 0.46875 8.14722 0.46875 5.43547Z" stroke="black" stroke-miterlimit="10" stroke-linecap="round" stroke-linejoin="round"/>
<path d="M23.9647 18.498H24.6716C26.6535 18.498 28.0009 16.873 28.0009 15.1574C28.0009 14.4268 27.7565 13.6799 27.2134 13.0343C26.4065 12.0762 25.964 10.8637 25.964 9.61055V7.3643C25.964 5.45992 25.1922 3.73617 23.944 2.48867C22.6959 1.24055 20.9722 0.468674 19.0678 0.468674C15.2597 0.468674 12.1722 3.55617 12.1722 7.3643V9.53742C12.1722 10.7774 11.7384 11.978 10.9465 12.9324L10.8465 13.0524C9.04903 15.218 10.5897 18.498 13.4035 18.498H14.1803" stroke="black" stroke-miterlimit="10" stroke-linecap="round" stroke-linejoin="round"/>
<path d="M7.47656 29.6562V24.1381C7.47656 22.4644 8.47969 20.9538 10.0228 20.3044L14.1766 18.4981L15.0103 18.1356C15.9634 17.7213 16.5803 16.7813 16.5803 15.7419V15.7188" stroke="black" stroke-miterlimit="10" stroke-linecap="round" stroke-linejoin="round"/>
<path d="M21.4922 15.7188C21.4929 16.7625 22.1154 17.705 23.0741 18.1163L23.9653 18.4981L28.121 20.2794C29.6254 20.9463 30.5953 22.4369 30.5953 24.0819V31.5312" stroke="black" stroke-miterlimit="10" stroke-linecap="round" stroke-linejoin="round"/>
<path d="M24.3164 22.6875V18.65" stroke="black" stroke-miterlimit="10" stroke-linecap="round" stroke-linejoin="round"/>
<path d="M13.7578 22.6875V18.6825" stroke="black" stroke-miterlimit="10" stroke-linecap="round" stroke-linejoin="round"/>
<path d="M13.7578 20.4579C15.0312 20.8384 16.9058 21.2442 19.1906 21.2043C21.3344 21.1669 23.0942 20.7499 24.3188 20.3589" stroke="black" stroke-miterlimit="10" stroke-linecap="round" stroke-linejoin="round"/>
<path d="M23.9428 7.89V11.9369C23.9428 14.2244 22.0884 16.0781 19.8015 16.0781H18.2741C15.9865 16.0781 14.1328 14.2244 14.1328 11.9369V7.89875" stroke="black" stroke-miterlimit="10" stroke-linecap="round" stroke-linejoin="round"/>
<path d="M23.9414 10.9276C23.7983 11.2914 23.4615 12.0002 22.7298 12.6038C22.2038 13.0377 21.6772 13.2493 21.3359 13.3555" stroke="black" stroke-miterlimit="10" stroke-linecap="round" stroke-linejoin="round"/>
<path d="M20.4336 14.2598H19.3351C18.8351 14.2598 18.4297 13.8545 18.4297 13.3545C18.4297 12.8545 18.8351 12.4491 19.3351 12.4491H20.4336C20.9336 12.4491 21.3389 12.8545 21.3389 13.3545C21.3389 13.8545 20.9336 14.2598 20.4336 14.2598Z" stroke="black" stroke-miterlimit="10" stroke-linecap="round" stroke-linejoin="round"/>
<path d="M21.457 6.86652C22.1075 7.37052 22.9525 7.74852 23.941 7.89033C23.961 7.89346 23.981 7.89652 24.0017 7.89908C24.391 7.95596 24.961 7.99908 25.631 7.89908C25.7404 7.88283 25.851 7.86221 25.9623 7.83908" stroke="black" stroke-miterlimit="10" stroke-linecap="round" stroke-linejoin="round"/>
<path d="M23.2161 1.85556C22.6402 2.85763 21.3179 4.83875 18.8383 6.3055C16.9976 7.39438 15.2619 7.76025 14.193 7.89844H12.1719" stroke="black" stroke-miterlimit="10" stroke-linecap="round" stroke-linejoin="round"/>
<path d="M11.7705 31.5312L10.9428 23.7239C10.8841 23.1701 11.3182 22.6875 11.8751 22.6875H26.6711C27.228 22.6875 27.6621 23.1701 27.6034 23.7239L26.7758 31.5312" stroke="black" stroke-miterlimit="10" stroke-linecap="round" stroke-linejoin="round"/>
<path d="M0.46875 31.5312H31.5312" stroke="black" stroke-miterlimit="10" stroke-linecap="round" stroke-linejoin="round"/>
<path d="M20.5859 27.1094C20.5859 27.8342 19.9984 28.4219 19.2734 28.4219C18.5486 28.4219 17.9609 27.8342 17.9609 27.1094C17.9609 26.3845 18.5486 25.7969 19.2734 25.7969C19.9984 25.7969 20.5859 26.3845 20.5859 27.1094Z" stroke="black" stroke-miterlimit="10" stroke-linecap="round" stroke-linejoin="round"/>
<path d="M4.03125 5.43555C4.03125 5.69442 3.82138 5.9043 3.5625 5.9043C3.30356 5.9043 3.09375 5.69442 3.09375 5.43555C3.09375 5.17667 3.30356 4.9668 3.5625 4.9668C3.82138 4.9668 4.03125 5.17667 4.03125 5.43555Z" fill="black"/>
<path d="M5.90625 5.43555C5.90625 5.69442 5.69638 5.9043 5.4375 5.9043C5.17856 5.9043 4.96875 5.69442 4.96875 5.43555C4.96875 5.17667 5.17856 4.9668 5.4375 4.9668C5.69638 4.9668 5.90625 5.17667 5.90625 5.43555Z" fill="black"/>
<path d="M7.78125 5.43555C7.78125 5.69442 7.57138 5.9043 7.3125 5.9043C7.05356 5.9043 6.84375 5.69442 6.84375 5.43555C6.84375 5.17667 7.05356 4.9668 7.3125 4.9668C7.57138 4.9668 7.78125 5.17667 7.78125 5.43555Z" fill="black"/>
</g>
</g>
<defs>
<clipPath id="clip0_2074_6093">
<rect width="32" height="32" fill="white"/>
</clipPath>
</defs>
</svg>
