<svg width="529" height="328" viewBox="0 0 529 328" fill="none" xmlns="http://www.w3.org/2000/svg">
<path d="M344.607 49.0181C346.23 49.0181 347.546 47.7021 347.546 46.0789C347.546 44.4556 346.23 43.1396 344.607 43.1396C342.984 43.1396 341.668 44.4556 341.668 46.0789C341.668 47.7021 342.984 49.0181 344.607 49.0181Z" fill="#F8FAFC"/>
<path d="M335.784 29.4122C342.282 29.4122 347.549 24.145 347.549 17.6475C347.549 11.1501 342.282 5.88281 335.784 5.88281C329.287 5.88281 324.02 11.1501 324.02 17.6475C324.02 24.145 329.287 29.4122 335.784 29.4122Z" fill="#EFEAFC"/>
<path d="M317.811 48.149C332.128 48.149 343.737 59.7569 343.737 74.0745C343.737 88.3922 332.128 100 317.811 100H206.697C192.379 100 180.771 88.3922 180.771 74.0745C180.771 60.1647 191.728 48.8157 205.481 48.1804C203.885 44.1569 202.995 39.7765 202.995 35.1843C202.995 15.7529 218.748 0 238.179 0C253.862 0 267.144 10.2627 271.689 24.4392C276.172 20.7412 281.917 18.5176 288.18 18.5176C302.497 18.5176 314.105 30.1255 314.105 44.4431C314.105 45.8078 313.999 47.149 313.795 48.4588C315.105 48.2549 316.442 48.149 317.811 48.149Z" fill="#C3D0E2"/>
<path d="M260.333 100C260.333 101.473 261.527 102.667 263 102.667C264.473 102.667 265.667 101.473 265.667 100C265.667 98.5272 264.473 97.3333 263 97.3333C261.527 97.3333 260.333 98.5272 260.333 100ZM260.333 205C260.333 206.473 261.527 207.667 263 207.667C264.473 207.667 265.667 206.473 265.667 205C265.667 203.527 264.473 202.333 263 202.333C261.527 202.333 260.333 203.527 260.333 205ZM262.5 100L262.5 205L263.5 205L263.5 100L262.5 100Z" fill="#C3D0E2"/>
<path d="M313.236 9.80128C314.859 9.80128 316.175 8.48535 316.175 6.86207C316.175 5.23878 314.859 3.92285 313.236 3.92285C311.613 3.92285 310.297 5.23878 310.297 6.86207C310.297 8.48535 311.613 9.80128 313.236 9.80128Z" fill="#EFEAFC"/>
<path d="M184.804 27.4506C190.218 27.4506 194.608 23.0613 194.608 17.6467C194.608 12.2321 190.218 7.84277 184.804 7.84277C179.389 7.84277 175 12.2321 175 17.6467C175 23.0613 179.389 27.4506 184.804 27.4506Z" fill="#EFEAFC"/>
<path d="M179.902 49.0181C181.525 49.0181 182.841 47.7021 182.841 46.0789C182.841 44.4556 181.525 43.1396 179.902 43.1396C178.279 43.1396 176.963 44.4556 176.963 46.0789C176.963 47.7021 178.279 49.0181 179.902 49.0181Z" fill="#F8FAFC"/>
<path d="M213.199 37.2898C212.116 37.2898 211.238 36.4118 211.238 35.329C211.238 20.1734 223.568 7.84277 238.725 7.84277C239.807 7.84277 240.685 8.72081 240.685 9.80356C240.685 10.8863 239.807 11.7643 238.725 11.7643C225.731 11.7643 215.16 22.3353 215.16 35.329C215.16 36.4118 214.282 37.2898 213.199 37.2898Z" fill="#FDFDFF"/>
<path d="M228.275 77.2546H191.921C191.348 77.2546 190.883 76.3765 190.883 75.2938C190.883 74.211 191.348 73.333 191.921 73.333H228.275C228.849 73.333 229.314 74.211 229.314 75.2938C229.314 76.3765 228.849 77.2546 228.275 77.2546Z" fill="#FDFDFF"/>
<path d="M331.105 63.529H294.583C293.623 63.529 292.844 62.651 292.844 61.5682C292.844 60.4855 293.623 59.6074 294.583 59.6074H331.105C332.065 59.6074 332.844 60.4855 332.844 61.5682C332.844 62.651 332.065 63.529 331.105 63.529Z" fill="#FDFDFF"/>
<path d="M294.411 81.7449C294.411 84.4062 292.254 86.5631 289.593 86.5631H236.877C234.215 86.5631 232.059 84.4062 232.059 81.7449C232.059 78.0446 232.059 74.6255 232.059 70.1248C232.059 67.4635 234.215 65.3066 236.877 65.3066H289.593C292.254 65.3066 294.411 67.4635 294.411 70.1248V81.7449Z" fill="#545B71"/>
<path d="M294.411 41.783V53.4031C294.411 56.0644 292.254 58.2213 289.593 58.2213C270.099 58.2213 254.865 58.2213 236.877 58.2213C234.215 58.2213 232.059 56.0644 232.059 53.4031V41.783C232.059 39.1217 234.215 36.9648 236.877 36.9648H289.593C292.254 36.9648 294.411 39.1217 294.411 41.783Z" fill="#545B71"/>
<path d="M242.687 79.4781C244.644 79.4781 246.23 77.8919 246.23 75.9353C246.23 73.9787 244.644 72.3926 242.687 72.3926C240.731 72.3926 239.145 73.9787 239.145 75.9353C239.145 77.8919 240.731 79.4781 242.687 79.4781Z" fill="#8FE269"/>
<path d="M242.687 51.1363C244.644 51.1363 246.23 49.5501 246.23 47.5935C246.23 45.6369 244.644 44.0508 242.687 44.0508C240.731 44.0508 239.145 45.6369 239.145 47.5935C239.145 49.5501 240.731 51.1363 242.687 51.1363Z" fill="#8FE269"/>
<path d="M244.812 58.2217H281.657V65.3072H244.812V58.2217Z" fill="#545B71"/>
<path d="M285.909 77.3518H253.316C252.533 77.3518 251.898 76.7175 251.898 75.9347C251.898 75.1519 252.533 74.5176 253.316 74.5176H285.909C286.691 74.5176 287.326 75.1519 287.326 75.9347C287.326 76.7175 286.691 77.3518 285.909 77.3518Z" fill="#E9EFFF"/>
<path d="M285.909 49.01H253.316C252.533 49.01 251.898 48.3757 251.898 47.5929C251.898 46.8101 252.533 46.1758 253.316 46.1758H285.909C286.691 46.1758 287.326 46.8101 287.326 47.5929C287.326 48.3757 286.691 49.01 285.909 49.01Z" fill="#E9EFFF"/>
<path d="M249.773 79.4781C251.73 79.4781 253.316 77.8919 253.316 75.9353C253.316 73.9787 251.73 72.3926 249.773 72.3926C247.817 72.3926 246.23 73.9787 246.23 75.9353C246.23 77.8919 247.817 79.4781 249.773 79.4781Z" fill="#FE5A5A"/>
<path d="M249.773 51.1363C251.73 51.1363 253.316 49.5501 253.316 47.5935C253.316 45.6369 251.73 44.0508 249.773 44.0508C247.817 44.0508 246.23 45.6369 246.23 47.5935C246.23 49.5501 247.817 51.1363 249.773 51.1363Z" fill="#FE5A5A"/>
<g clip-path="url(#clip0_1741_15289)">
<path d="M190 215.785H333V294.527C333 296.997 330.961 299 328.447 299H194.553C192.039 299 190 296.997 190 294.527V215.785Z" fill="#C3D0E2"/>
<path d="M194.301 215.785H328.704V289.792C328.704 292.11 326.785 293.994 324.426 293.994H198.579C196.219 293.994 194.301 292.11 194.301 289.792V215.785Z" fill="white"/>
<path d="M194.176 204H328.824C331.131 204 333 205.84 333 208.102V215.785H190V208.102C190 205.84 191.873 204 194.176 204Z" fill="#C3D0E2"/>
<path d="M199.689 209.968C199.689 210.846 198.966 211.553 198.076 211.553C197.187 211.553 196.463 210.842 196.463 209.968C196.463 209.095 197.187 208.384 198.076 208.384C198.966 208.384 199.689 209.095 199.689 209.968Z" fill="white"/>
<path d="M206.226 209.968C206.226 210.846 205.503 211.553 204.613 211.553C203.724 211.553 203 210.842 203 209.968C203 209.095 203.724 208.384 204.613 208.384C205.503 208.384 206.226 209.095 206.226 209.968Z" fill="white"/>
<path d="M212.761 209.968C212.761 210.846 212.038 211.553 211.148 211.553C210.259 211.553 209.535 210.842 209.535 209.968C209.535 209.095 210.259 208.384 211.148 208.384C212.038 208.384 212.761 209.095 212.761 209.968Z" fill="white"/>
<path d="M260.757 230.159H234.442C233.952 230.159 233.553 229.766 233.553 229.285C233.553 228.804 233.952 228.411 234.442 228.411H260.757C261.247 228.411 261.647 228.804 261.647 229.285C261.647 229.766 261.247 230.159 260.757 230.159Z" fill="#8FBAF9"/>
<path d="M301.757 230.159H264.124C263.634 230.159 263.234 229.766 263.234 229.285C263.234 228.804 263.634 228.411 264.124 228.411H301.757C302.247 228.411 302.647 228.804 302.647 229.285C302.647 229.766 302.247 230.159 301.757 230.159Z" fill="#8FBAF9"/>
<path d="M250.442 234.96H234.442C233.952 234.96 233.553 234.568 233.553 234.087C233.553 233.605 233.952 233.213 234.442 233.213H250.442C250.932 233.213 251.331 233.605 251.331 234.087C251.331 234.568 250.932 234.96 250.442 234.96Z" fill="#8FBAF9"/>
<path d="M283.645 234.96H253.557C253.067 234.96 252.668 234.568 252.668 234.087C252.668 233.605 253.067 233.213 253.557 233.213H283.645C284.135 233.213 284.535 233.605 284.535 234.087C284.535 234.568 284.135 234.96 283.645 234.96Z" fill="#8FBAF9"/>
<path d="M229.022 228H221.254V235.631H229.022V228Z" fill="#8FBAF9"/>
<path d="M224.312 234.302C224.071 234.302 223.83 234.213 223.649 234.032L220.63 231.066C220.264 230.707 220.264 230.122 220.63 229.762C220.995 229.403 221.591 229.403 221.956 229.762L224.312 232.077L228.187 228.27C228.552 227.911 229.148 227.911 229.513 228.27C229.879 228.629 229.879 229.214 229.513 229.574L224.975 234.032C224.791 234.213 224.553 234.302 224.312 234.302Z" fill="#4B66E7"/>
<path d="M260.757 243.762H234.442C233.952 243.762 233.553 243.37 233.553 242.888C233.553 242.407 233.952 242.015 234.442 242.015H260.757C261.247 242.015 261.647 242.407 261.647 242.888C261.647 243.37 261.247 243.762 260.757 243.762Z" fill="#8FBAF9"/>
<path d="M301.757 243.762H264.124C263.634 243.762 263.234 243.37 263.234 242.888C263.234 242.407 263.634 242.015 264.124 242.015H301.757C302.247 242.015 302.647 242.407 302.647 242.888C302.647 243.37 302.247 243.762 301.757 243.762Z" fill="#8FBAF9"/>
<path d="M250.442 248.564H234.442C233.952 248.564 233.553 248.172 233.553 247.69C233.553 247.209 233.952 246.816 234.442 246.816H250.442C250.932 246.816 251.331 247.209 251.331 247.69C251.331 248.172 250.932 248.564 250.442 248.564Z" fill="#8FBAF9"/>
<path d="M283.645 248.564H253.557C253.067 248.564 252.668 248.172 252.668 247.69C252.668 247.209 253.067 246.816 253.557 246.816H283.645C284.135 246.816 284.535 247.209 284.535 247.69C284.535 248.172 284.135 248.564 283.645 248.564Z" fill="#8FBAF9"/>
<path d="M229.022 241.604H221.254V249.234H229.022V241.604Z" fill="#8FBAF9"/>
<path d="M224.312 247.905C224.071 247.905 223.83 247.816 223.649 247.635L220.63 244.669C220.264 244.31 220.264 243.725 220.63 243.366C220.995 243.007 221.591 243.007 221.956 243.366L224.312 245.68L228.187 241.874C228.552 241.515 229.148 241.515 229.513 241.874C229.879 242.233 229.879 242.818 229.513 243.177L224.975 247.635C224.791 247.816 224.553 247.905 224.312 247.905Z" fill="#4B66E7"/>
<path d="M260.759 257.365H234.444C233.954 257.365 233.555 256.972 233.555 256.491C233.555 256.01 233.954 255.617 234.444 255.617H260.759C261.249 255.617 261.649 256.01 261.649 256.491C261.649 256.972 261.249 257.365 260.759 257.365Z" fill="#8FBAF9"/>
<path d="M301.757 257.365H264.124C263.634 257.365 263.234 256.972 263.234 256.491C263.234 256.01 263.634 255.617 264.124 255.617H301.757C302.247 255.617 302.647 256.01 302.647 256.491C302.647 256.972 302.247 257.365 301.757 257.365Z" fill="#8FBAF9"/>
<path d="M250.444 262.167H234.444C233.954 262.167 233.555 261.774 233.555 261.293C233.555 260.811 233.954 260.419 234.444 260.419H250.444C250.934 260.419 251.333 260.811 251.333 261.293C251.333 261.774 250.934 262.167 250.444 262.167Z" fill="#8FBAF9"/>
<path d="M283.649 262.167H253.561C253.071 262.167 252.672 261.774 252.672 261.293C252.672 260.811 253.071 260.419 253.561 260.419H283.649C284.139 260.419 284.539 260.811 284.539 261.293C284.539 261.774 284.139 262.167 283.649 262.167Z" fill="#8FBAF9"/>
<path d="M229.022 255.202H221.254V262.833H229.022V255.202Z" fill="#8FBAF9"/>
<path d="M224.312 261.508C224.071 261.508 223.83 261.419 223.649 261.237L220.63 258.272C220.264 257.912 220.264 257.327 220.63 256.965C220.995 256.605 221.591 256.605 221.956 256.965L224.312 259.279L228.187 255.472C228.552 255.113 229.148 255.113 229.513 255.472C229.879 255.832 229.879 256.417 229.513 256.776L224.975 261.234C224.791 261.415 224.553 261.504 224.312 261.504V261.508Z" fill="#4B66E7"/>
<path d="M260.757 270.964H234.442C233.952 270.964 233.553 270.572 233.553 270.091C233.553 269.609 233.952 269.217 234.442 269.217H260.757C261.247 269.217 261.647 269.609 261.647 270.091C261.647 270.572 261.247 270.964 260.757 270.964Z" fill="#8FBAF9"/>
<path d="M301.757 270.964H264.124C263.634 270.964 263.234 270.572 263.234 270.091C263.234 269.609 263.634 269.217 264.124 269.217H301.757C302.247 269.217 302.647 269.609 302.647 270.091C302.647 270.572 302.247 270.964 301.757 270.964Z" fill="#8FBAF9"/>
<path d="M250.442 275.766H234.442C233.952 275.766 233.553 275.374 233.553 274.892C233.553 274.411 233.952 274.019 234.442 274.019H250.442C250.932 274.019 251.331 274.411 251.331 274.892C251.331 275.374 250.932 275.766 250.442 275.766Z" fill="#8FBAF9"/>
<path d="M283.645 275.766H253.557C253.067 275.766 252.668 275.374 252.668 274.892C252.668 274.411 253.067 274.019 253.557 274.019H283.645C284.135 274.019 284.535 274.411 284.535 274.892C284.535 275.374 284.135 275.766 283.645 275.766Z" fill="#8FBAF9"/>
<path d="M229.022 268.806H221.254V276.437H229.022V268.806Z" fill="#8FBAF9"/>
<path d="M224.312 275.111C224.071 275.111 223.83 275.023 223.649 274.841L220.63 271.875C220.264 271.516 220.264 270.931 220.63 270.572C220.995 270.213 221.591 270.213 221.956 270.572L224.312 272.886L228.187 269.08C228.552 268.721 229.148 268.721 229.513 269.08C229.879 269.439 229.879 270.024 229.513 270.383L224.975 274.841C224.791 275.023 224.553 275.111 224.312 275.111Z" fill="#4B66E7"/>
</g>
<g clip-path="url(#clip1_1741_15289)">
<path d="M512 116V166.257C512 170.653 506.722 175 500.208 175H410.792C404.278 175 399 170.653 399 166.257V116H512Z" fill="#C3D0E2"/>
<path d="M510 116V162.85C510 166.947 504.956 171 498.729 171H413.271C407.044 171 402 166.947 402 162.85V116H510Z" fill="white"/>
<path d="M512 116V110.613C512 106.409 506.765 103 500.307 103H411.693C405.235 103 400 106.409 400 110.613V116H512Z" fill="#C3D0E2"/>
<path d="M438.936 126.286H422.916C422.353 126.286 421.896 125.83 421.896 125.266C421.896 124.702 422.353 124.246 422.916 124.246H438.936C439.499 124.246 439.956 124.702 439.956 125.266C439.956 125.83 439.499 126.286 438.936 126.286Z" fill="#474646"/>
<path d="M438.936 131.552H422.916C422.353 131.552 421.896 131.096 421.896 130.532C421.896 129.968 422.353 129.512 422.916 129.512H438.936C439.499 129.512 439.956 129.968 439.956 130.532C439.956 131.096 439.499 131.552 438.936 131.552Z" fill="#474646"/>
<path d="M497.081 126.286H481.063C480.499 126.286 480.043 125.83 480.043 125.266C480.043 124.702 480.499 124.246 481.063 124.246H497.081C497.645 124.246 498.101 124.702 498.101 125.266C498.101 125.83 497.645 126.286 497.081 126.286Z" fill="#474646"/>
<path d="M497.081 131.552H481.063C480.499 131.552 480.043 131.096 480.043 130.532C480.043 129.968 480.499 129.512 481.063 129.512H497.081C497.645 129.512 498.101 129.968 498.101 130.532C498.101 131.096 497.645 131.552 497.081 131.552Z" fill="#474646"/>
<path d="M473.168 176.672C469.821 180.077 465.158 182.189 460.001 182.196H459.993C454.828 182.196 450.173 180.084 446.826 176.672C443.55 173.338 441.531 168.762 441.531 163.712V163.497C441.596 158.432 443.694 153.849 447.048 150.552C450.382 147.276 454.943 145.25 459.993 145.25H460.001C465.043 145.257 469.612 147.276 472.946 150.552C476.308 153.856 478.405 158.432 478.463 163.497C478.47 163.568 478.47 163.64 478.47 163.712C478.47 168.762 476.444 173.331 473.168 176.672Z" fill="white"/>
<path d="M490.018 159.615L485.363 158.44C484.699 155.212 483.417 152.197 481.65 149.521L484.128 145.416C484.499 144.785 484.413 143.989 483.895 143.477L480.229 139.818C479.711 139.313 478.928 139.214 478.31 139.585L474.192 142.056C471.516 140.296 468.508 139.021 465.267 138.35L464.111 133.701C463.945 133.011 463.314 132.513 462.584 132.513H457.404C456.68 132.513 456.049 133.011 455.883 133.701L454.721 138.35C451.48 139.021 448.471 140.296 445.795 142.056L441.684 139.585C441.053 139.214 440.263 139.313 439.745 139.818L436.099 143.477C435.588 143.989 435.488 144.785 435.853 145.403L438.33 149.521C436.564 152.197 435.289 155.212 434.611 158.44L429.969 159.615C429.272 159.781 428.787 160.412 428.787 161.143V166.303C428.787 167.033 429.272 167.664 429.969 167.83L434.611 169.006C435.289 172.247 436.564 175.255 438.33 177.931L435.853 182.042C435.488 182.66 435.588 183.457 436.099 183.968L439.745 187.614C440.263 188.139 441.053 188.232 441.684 187.86L445.795 185.396C448.471 187.162 451.48 188.431 454.721 189.095L455.883 193.731C456.049 194.441 456.68 194.939 457.404 194.939H462.584C463.314 194.939 463.945 194.441 464.111 193.731L465.267 189.095C468.508 188.424 471.529 187.149 474.206 185.396L478.31 187.86C478.928 188.232 479.711 188.139 480.229 187.614L483.895 183.968C484.413 183.457 484.499 182.66 484.134 182.042L481.65 177.918C483.417 175.242 484.699 172.233 485.363 169.006L490.018 167.83C490.716 167.664 491.214 167.033 491.214 166.303V161.143C491.214 160.412 490.716 159.781 490.018 159.615ZM472.174 175.693C469.079 178.841 464.769 180.794 460 180.8H459.994C455.219 180.8 450.915 178.848 447.821 175.693C444.792 172.612 442.926 168.381 442.926 163.713V163.513C442.986 158.831 444.925 154.594 448.026 151.546C451.108 148.518 455.325 146.645 459.994 146.645H460C464.662 146.652 468.886 148.518 471.968 151.546C475.076 154.601 477.015 158.831 477.068 163.513C477.075 163.58 477.075 163.646 477.075 163.713C477.075 168.381 475.202 172.605 472.174 175.693Z" fill="#A2A2F9"/>
<path d="M463.836 172.231V174.223C463.836 174.646 463.493 174.99 463.069 174.99H456.931C456.507 174.99 456.164 174.646 456.164 174.223V172.231C456.164 171.807 456.507 171.464 456.931 171.464H463.069C463.493 171.464 463.836 171.807 463.836 172.231Z" fill="#A2A2F9"/>
<path d="M463.837 172.233V174.226C463.837 174.644 463.492 174.989 463.067 174.989H456.931C456.506 174.989 456.16 174.644 456.16 174.226V173.475H461.606C462.031 173.475 462.376 173.13 462.376 172.711V171.463H463.067C463.492 171.463 463.837 171.808 463.837 172.233Z" fill="#7979F7"/>
<path d="M459.995 153.941C459.996 153.941 459.998 153.941 460 153.941V146.648C459.997 146.648 459.994 146.647 459.991 146.647C455.326 146.647 451.105 148.517 448.027 151.543L453.189 156.704C454.948 154.997 457.345 153.941 459.995 153.941Z" fill="#F7F363"/>
<path d="M460 146.646V153.944H459.994C457.344 153.944 454.946 155 453.186 156.707L451.055 154.575C451.738 153.971 452.895 153.459 454.046 153.061C456.154 152.332 457.55 150.324 457.55 148.094V146.825C458.347 146.705 459.164 146.646 459.994 146.646L460 146.646Z" fill="#F7E839"/>
<path d="M466.808 156.708L471.968 151.548C468.887 148.521 464.664 146.651 460 146.648V153.942C462.649 153.943 465.047 154.999 466.808 156.708Z" fill="#00D67F"/>
<path d="M471.967 151.546L466.807 156.706C465.047 155 462.65 153.944 460 153.944V151.261C461.684 151.352 463.253 151.869 464.606 152.705C465.679 153.368 467.062 153.231 467.954 152.338L470.234 150.059C470.845 150.517 471.423 151.015 471.967 151.546Z" fill="#00C179"/>
<path d="M470.877 163.516H477.071C477.017 158.832 475.076 154.601 471.968 151.548L466.809 156.707C468.356 158.209 469.406 160.216 469.694 162.462C469.771 163.062 470.272 163.516 470.877 163.516Z" fill="#FC6559"/>
<path d="M477.069 163.514H470.879C470.282 163.514 469.768 163.026 469.693 162.433C469.646 162.066 469.575 161.705 469.484 161.356C472.153 161.356 474.029 158.741 473.19 156.208C472.723 154.795 472.074 153.465 471.271 152.244L471.968 151.547C475.076 154.602 477.015 158.832 477.069 163.514Z" fill="#F05543"/>
<path d="M453.19 156.705L448.028 151.544C444.922 154.598 442.984 158.83 442.93 163.516H449.123C449.728 163.516 450.229 163.062 450.306 162.462C450.594 160.214 451.642 158.207 453.19 156.705Z" fill="#F9B938"/>
<path d="M453.186 156.707C451.639 158.208 450.596 160.214 450.304 162.458C450.231 163.063 449.726 163.514 449.122 163.514H447.296C447.389 163.375 447.442 163.209 447.468 163.036C447.656 161.559 448.172 160.188 448.941 158.996C449.658 157.886 449.5 156.427 448.565 155.493L446.426 153.353C446.917 152.716 447.449 152.111 448.026 151.547L453.186 156.707Z" fill="#ECB021"/>
<path d="M490.018 159.614L487.105 158.876V163.315C487.105 164.053 486.6 164.68 485.912 164.842L481.25 166.015C480.583 169.251 479.309 172.254 477.539 174.934L480.027 179.06C480.391 179.677 480.3 180.476 479.784 180.981L476.123 184.632C475.597 185.148 474.819 185.249 474.192 184.875L470.096 182.407C467.417 184.167 464.393 185.441 461.157 186.108L459.994 190.75C459.832 191.458 459.195 191.953 458.467 191.953H455.434L455.879 193.733C456.05 194.441 456.677 194.936 457.406 194.936H462.583C463.311 194.936 463.938 194.441 464.11 193.733L465.273 189.102C468.509 188.424 471.532 187.15 474.202 185.39L478.308 187.858C478.924 188.232 479.713 188.141 480.229 187.615L483.89 183.965C484.415 183.459 484.496 182.66 484.132 182.043L481.645 177.917C483.414 175.238 484.698 172.234 485.366 169.008L490.018 167.835C490.715 167.664 491.211 167.037 491.211 166.309V161.141C491.211 160.413 490.715 159.786 490.018 159.614Z" fill="#7979F7"/>
<path d="M460 164.534C459.437 164.534 458.98 164.078 458.98 163.514V158.247C458.98 157.683 459.437 157.227 460 157.227C460.564 157.227 461.02 157.683 461.02 158.247V163.514C461.02 164.078 460.564 164.534 460 164.534Z" fill="#474646"/>
<path d="M462.549 164.485C462.549 165.895 461.41 167.035 459.999 167.035C458.589 167.035 457.449 165.895 457.449 164.485C457.449 163.074 458.589 161.935 459.999 161.935C461.41 161.935 462.549 163.074 462.549 164.485Z" fill="#FC6559"/>
<path d="M462.554 164.479C462.554 165.891 461.411 167.034 459.999 167.034C458.866 167.034 457.912 166.298 457.574 165.274C457.922 165.453 458.31 165.553 458.727 165.553C460.139 165.553 461.272 164.41 461.272 163.008C461.272 162.73 461.222 162.452 461.133 162.203C461.977 162.621 462.554 163.485 462.554 164.479Z" fill="#F05543"/>
</g>
<rect x="14" y="100" width="111" height="99" rx="4" fill="#C3D0E2"/>
<path d="M107.071 112.188H51.0655L54.2185 113.362C56.7178 114.292 58.3851 116.709 58.3673 119.376C58.3636 119.891 58.3005 120.392 58.1788 120.871C57.4763 123.72 54.9326 125.709 51.9938 125.709L51.9502 125.709L38.2301 125.71C37.9551 125.727 37.6291 125.745 37.3075 125.745C37.0454 125.742 36.7873 125.73 36.5327 125.711L36.5101 125.709L28.0872 125.709C28.0328 125.711 27.9794 125.715 27.9263 125.718C27.8719 125.721 27.8181 125.725 27.7712 125.725C27.4355 125.722 27.1108 125.701 26.8063 125.665L26.1289 125.584V187.836C26.1289 191.105 28.7883 193.764 32.0571 193.764H107.071C110.34 193.764 112.999 191.105 112.999 187.836V118.117C112.999 114.848 110.34 112.188 107.071 112.188ZM111.788 187.836C111.788 190.437 109.672 192.553 107.071 192.553H32.0569C29.4561 192.553 27.3402 190.437 27.3402 187.836V126.924C27.4789 126.931 27.6203 126.935 27.7641 126.937C27.8435 126.937 27.923 126.932 28.0033 126.927L36.4646 126.921C36.7357 126.941 37.0112 126.953 37.2988 126.957C37.6629 126.957 38.0124 126.938 38.2681 126.921H51.9465L51.9938 126.921C55.4915 126.921 58.5185 124.552 59.354 121.165C59.4988 120.596 59.5743 119.997 59.5789 119.385C59.5947 117.023 58.5005 114.826 56.7139 113.4H107.07C109.671 113.4 111.787 115.516 111.787 118.117V187.836H111.788Z" fill="white"/>
<path d="M107.072 114.812H59.7695C60.5366 116.129 60.9704 117.645 60.9895 119.226H110.376V118.116C110.376 116.294 108.894 114.812 107.072 114.812Z" fill="#545B71"/>
<path d="M58.7695 120.41H112.396V121.622H58.7695V120.41Z" fill="white"/>
<path d="M57.3957 114.008C55.9726 112.566 54.0731 111.764 52.0471 111.75L51.9961 111.75C51.348 111.75 50.7032 111.835 50.0709 112.003C49.0691 105.856 43.7757 101.278 37.468 101.236L37.381 101.235C32.9154 101.235 28.7397 103.586 26.4092 107.391C21.6262 108.082 18.0327 112.179 18.0002 117.043C17.9828 119.668 18.9881 122.142 20.8317 124.01C22.6751 125.878 25.136 126.917 27.7739 126.934C27.8524 126.934 27.9296 126.93 28.007 126.925L36.4666 126.919C36.6592 126.931 37.0872 126.935 37.406 126.935C37.5988 126.935 38.0614 126.934 38.2913 126.919H51.9458L51.997 126.919H51.9972C56.1511 126.919 59.5534 123.54 59.5813 119.386C59.595 117.36 58.8187 115.45 57.3957 114.008ZM51.997 125.708L38.271 125.708L38.2278 125.709C38.1057 125.718 37.783 125.724 37.406 125.724C36.9616 125.724 36.6289 125.717 36.53 125.709L36.4864 125.708L28.0882 125.708C28.0361 125.71 27.9843 125.713 27.9327 125.716C27.8802 125.719 27.8275 125.723 27.7689 125.723C27.7689 125.723 27.7687 125.723 27.7685 125.723C25.4677 125.708 23.3106 124.797 21.6943 123.159C20.0782 121.522 19.1964 119.352 19.2118 117.052C19.2408 112.699 22.5233 109.047 26.8473 108.557L27.1499 108.523L27.303 108.259C29.3839 104.674 33.2457 102.447 37.3813 102.447L37.4602 102.448C43.3983 102.487 48.344 106.965 48.9643 112.863L49.0459 113.64L49.7779 113.367C50.5001 113.098 51.2463 112.962 51.9963 112.962L52.0394 112.962C53.7417 112.974 55.338 113.647 56.5337 114.859C57.7291 116.071 58.3815 117.675 58.37 119.378C58.3463 122.868 55.4877 125.708 51.997 125.708Z" fill="white"/>
<path d="M55.5271 115.851C54.5964 114.908 53.3545 114.384 51.9963 114.375C51.415 114.375 50.8344 114.482 50.2706 114.691L47.831 115.599L47.5584 113.01C47.0135 107.829 42.6681 103.895 37.4506 103.861L37.3808 103.86C33.7474 103.86 30.3541 105.818 28.5256 108.968L28.0157 109.847L27.0065 109.961C23.393 110.37 20.6497 113.423 20.6252 117.061C20.6122 118.984 21.3492 120.797 22.7003 122.166C24.0511 123.536 25.8546 124.296 27.7689 124.309L27.8442 124.305C27.9112 124.301 27.9784 124.297 28.0461 124.295L36.5662 124.296L36.6278 124.299C36.7004 124.304 36.9978 124.31 37.4058 124.31C37.8144 124.31 38.0653 124.304 38.1273 124.299L38.1991 124.294C38.1991 124.294 51.9971 124.294 51.9974 124.294C54.7135 124.294 56.9382 122.084 56.9564 119.368C56.9651 118.043 56.4574 116.794 55.5271 115.851Z" fill="#DFDFDF"/>
<path d="M54.8613 125.389H56.0728V193.158H54.8613V125.389Z" fill="white"/>
<path d="M32.2168 134.256H36.2461V135.467H32.2168V134.256Z" fill="white"/>
<path d="M38.9297 134.256H48.6527V135.467H38.9297V134.256Z" fill="white"/>
<path d="M32.2168 143.045H36.2461V144.256H32.2168V143.045Z" fill="white"/>
<path d="M38.9297 143.045H48.6527V144.256H38.9297V143.045Z" fill="white"/>
<path d="M32.2168 151.834H36.2461V153.045H32.2168V151.834Z" fill="white"/>
<path d="M38.9297 151.834H48.6527V153.045H38.9297V151.834Z" fill="white"/>
<path d="M32.2168 160.622H36.2461V161.834H32.2168V160.622Z" fill="white"/>
<path d="M38.9297 160.622H48.6527V161.834H38.9297V160.622Z" fill="white"/>
<path d="M32.2168 169.411H36.2461V170.623H32.2168V169.411Z" fill="white"/>
<path d="M38.9297 169.411H48.6527V170.623H38.9297V169.411Z" fill="white"/>
<path d="M32.2168 178.199H36.2461V179.411H32.2168V178.199Z" fill="white"/>
<path d="M38.9297 178.199H48.6527V179.411H38.9297V178.199Z" fill="white"/>
<path d="M62.2363 131.898V137.826H77.9373V131.898H62.2363ZM76.7257 136.614H63.4478V133.11H76.7257V136.614Z" fill="white"/>
<path d="M76.7266 131.898V137.826H92.4275V131.898H76.7266ZM91.2159 136.614H77.938V133.11H91.2159V136.614Z" fill="white"/>
<path d="M91.2148 131.898V137.826H106.916V131.898H91.2148ZM105.704 136.614H92.4265V133.11H105.704V136.614Z" fill="white"/>
<path d="M62.2363 140.829V164.595H106.916V140.829H62.2363ZM105.704 163.383H63.4479V142.041H105.704V163.383Z" fill="white"/>
<path d="M64.8613 143.454H104.291V161.97H64.8613V143.454Z" fill="#F58E6F"/>
<path d="M62.2363 167.069V184.431H83.3744V167.069H62.2363ZM82.1628 183.22H63.4479V168.281H82.1629V183.22H82.1628Z" fill="white"/>
<path d="M64.8613 169.694H80.7492V181.806H64.8613V169.694Z" fill="#FFD452"/>
<path d="M86.1836 167.069V184.431H107.322V167.069H86.1836ZM106.11 183.22H87.395V168.281H106.11V183.22Z" fill="white"/>
<path d="M88.8086 169.694H104.696V181.806H88.8086V169.694Z" fill="#FFD452"/>
<path d="M42.9102 116.915C42.2221 119.059 40.2468 120.5 37.9948 120.5C35.7427 120.5 33.7673 119.059 33.0793 116.915L31.9258 117.285C32.7752 119.933 35.214 121.712 37.9948 121.712C40.7754 121.712 43.2143 119.933 44.0637 117.285L42.9102 116.915Z" fill="white"/>
<path d="M37.9961 108.962C35.1717 108.962 32.7215 110.776 31.8984 113.477L33.0575 113.83C33.7238 111.643 35.7085 110.173 37.9961 110.173C40.2835 110.173 42.2681 111.643 42.9344 113.83L44.0935 113.477C43.2704 110.776 40.8203 108.962 37.9961 108.962Z" fill="white"/>
<path d="M44.087 110.7L43.2973 113.133L40.9435 112.38L40.5742 113.533L44.077 114.654L45.2394 111.074L44.087 110.7Z" fill="white"/>
<path d="M32.1563 115.881L30.6367 119.392L31.7485 119.873L32.7972 117.45L35.2197 118.437L35.6767 117.315L32.1563 115.881Z" fill="white"/>
<path d="M122.333 151C122.333 152.473 123.527 153.667 125 153.667C126.473 153.667 127.667 152.473 127.667 151C127.667 149.527 126.473 148.333 125 148.333C123.527 148.333 122.333 149.527 122.333 151ZM226 151V151.5H226.5V151H226ZM223.333 100C223.333 101.473 224.527 102.667 226 102.667C227.473 102.667 228.667 101.473 228.667 100C228.667 98.5272 227.473 97.3333 226 97.3333C224.527 97.3333 223.333 98.5272 223.333 100ZM125 151.5H226V150.5H125V151.5ZM226.5 151V100H225.5V151H226.5Z" fill="#C3D0E2"/>
<path d="M401.667 151C401.667 152.473 400.473 153.667 399 153.667C397.527 153.667 396.333 152.473 396.333 151C396.333 149.527 397.527 148.333 399 148.333C400.473 148.333 401.667 149.527 401.667 151ZM295 151V151.5H294.5V151H295ZM297.667 100C297.667 101.473 296.473 102.667 295 102.667C293.527 102.667 292.333 101.473 292.333 100C292.333 98.5272 293.527 97.3333 295 97.3333C296.473 97.3333 297.667 98.5272 297.667 100ZM399 151.5H295V150.5H399V151.5ZM294.5 151V100H295.5V151H294.5Z" fill="#C3D0E2"/>
<defs>
<clipPath id="clip0_1741_15289">
<rect width="143" height="95" fill="white" transform="translate(190 204)"/>
</clipPath>
<clipPath id="clip1_1741_15289">
<rect width="114" height="102" fill="white" transform="translate(400 96)"/>
</clipPath>
</defs>
</svg>
