<svg width="288" height="359" viewBox="0 0 288 359" fill="none" xmlns="http://www.w3.org/2000/svg">
<path d="M192.43 82.8841L228.957 83.0269L229.124 33.196L202.214 33.0908L192.564 42.6861L192.43 82.8841Z" fill="white"/>
<path d="M192.566 42.6862L202.183 42.7238L202.215 33.1182L192.566 42.6862Z" fill="white"/>
<path d="M228.959 83.4587C228.959 83.4587 228.958 83.4587 228.957 83.4587L192.43 83.3159C192.192 83.3151 191.999 83.1211 192 82.8827L192.135 42.6845C192.135 42.5701 192.181 42.4606 192.262 42.3799L201.911 32.7848C201.992 32.704 202.102 32.6656 202.217 32.6592L229.128 32.7644C229.366 32.7652 229.559 32.9591 229.558 33.1976L229.391 83.0283C229.391 83.1427 229.345 83.2526 229.263 83.3331C229.183 83.4137 229.073 83.4587 228.959 83.4587ZM192.865 82.454L228.529 82.5933L228.693 33.6263L202.393 33.5234L192.998 42.8663L192.865 82.454Z" fill="black"/>
<path d="M202.186 43.1555C202.185 43.1555 202.184 43.1555 202.184 43.1555L192.567 43.1179C192.392 43.1173 192.235 43.0115 192.169 42.8497C192.103 42.6881 192.141 42.5025 192.265 42.3795L201.913 32.8116C202.038 32.6888 202.224 32.6527 202.384 32.7199C202.545 32.7873 202.65 32.945 202.649 33.1196L202.617 42.7251C202.617 42.8395 202.571 42.9494 202.489 43.0299C202.409 43.1105 202.299 43.1555 202.186 43.1555ZM193.613 42.2584L201.755 42.2901L201.783 34.1578L193.613 42.2584Z" fill="black"/>
<path d="M201.229 46.0364C200.991 46.0364 200.798 45.844 200.797 45.6064C200.796 45.3679 200.989 45.1738 201.227 45.173L213.374 45.127C213.375 45.127 213.375 45.127 213.376 45.127C213.614 45.127 213.807 45.3192 213.808 45.557C213.808 45.7954 213.616 45.9896 213.378 45.9906L201.23 46.0366C201.23 46.0364 201.229 46.0364 201.229 46.0364Z" fill="black"/>
<path d="M224.826 46.036C224.826 46.036 224.825 46.036 224.824 46.036L216.203 46.0023C215.965 46.0015 215.772 45.8073 215.773 45.5687C215.774 45.3309 215.967 45.1387 216.205 45.1387C216.206 45.1387 216.206 45.1387 216.207 45.1387L224.828 45.1724C225.066 45.1732 225.259 45.3675 225.258 45.6059C225.257 45.8436 225.064 46.036 224.826 46.036Z" fill="black"/>
<path d="M224.813 50.2829C224.812 50.2829 224.811 50.2829 224.811 50.2829L209.965 50.2249C209.727 50.2242 209.534 50.03 209.535 49.7914C209.536 49.5535 209.729 49.3613 209.967 49.3613C209.967 49.3613 209.968 49.3613 209.969 49.3613L224.814 49.4193C225.053 49.4201 225.245 49.6143 225.244 49.8529C225.243 50.0905 225.05 50.2829 224.813 50.2829Z" fill="black"/>
<path d="M205.312 54.4538C205.311 54.4538 205.311 54.4538 205.31 54.4538L196.782 54.4203C196.543 54.4195 196.351 54.2253 196.352 53.9867C196.352 53.7488 196.546 53.5566 196.783 53.5566C196.784 53.5566 196.785 53.5566 196.785 53.5566L205.314 53.5901C205.552 53.5909 205.745 53.7851 205.744 54.0237C205.743 54.2614 205.55 54.4538 205.312 54.4538Z" fill="black"/>
<path d="M217.226 54.4997C217.226 54.4997 217.225 54.4997 217.224 54.4997L208.149 54.4642C207.91 54.4634 207.718 54.2693 207.719 54.0306C207.72 53.7928 207.913 53.6006 208.151 53.6006C208.151 53.6006 208.152 53.6006 208.152 53.6006L217.228 53.636C217.466 53.6368 217.659 53.831 217.658 54.0694C217.657 54.3073 217.464 54.4997 217.226 54.4997Z" fill="black"/>
<path d="M224.802 54.5297C224.802 54.5297 224.801 54.5297 224.801 54.5297L220.059 54.5111C219.82 54.5103 219.628 54.3161 219.629 54.0775C219.63 53.8397 219.823 53.6475 220.061 53.6475C220.061 53.6475 220.062 53.6475 220.062 53.6475L224.804 53.6661C225.043 53.6669 225.235 53.861 225.234 54.0996C225.233 54.3375 225.04 54.5297 224.802 54.5297Z" fill="black"/>
<path d="M217.183 67.2577C217.183 67.2577 217.182 67.2577 217.182 67.2577L208.106 67.222C207.867 67.2212 207.675 67.0271 207.676 66.7884C207.677 66.5506 207.87 66.3584 208.108 66.3584C208.108 66.3584 208.109 66.3584 208.109 66.3584L217.185 66.3941C217.424 66.3948 217.616 66.589 217.615 66.8274C217.614 67.0653 217.421 67.2577 217.183 67.2577Z" fill="black"/>
<path d="M224.756 67.2875C224.755 67.2875 224.754 67.2875 224.754 67.2875L220.012 67.2689C219.773 67.2681 219.581 67.074 219.582 66.8353C219.583 66.5975 219.776 66.4053 220.014 66.4053C220.014 66.4053 220.015 66.4053 220.016 66.4053L224.757 66.4239C224.996 66.4247 225.188 66.6188 225.187 66.8575C225.186 67.0953 224.993 67.2875 224.756 67.2875Z" fill="black"/>
<path d="M201.733 58.6867C201.733 58.6867 201.732 58.6867 201.731 58.6867L196.77 58.6673C196.531 58.6666 196.339 58.4724 196.34 58.2338C196.341 57.9959 196.534 57.8037 196.772 57.8037C196.772 57.8037 196.773 57.8037 196.773 57.8037L201.735 57.8231C201.973 57.8239 202.166 58.0181 202.165 58.2567C202.164 58.4945 201.971 58.6867 201.733 58.6867Z" fill="black"/>
<path d="M224.789 58.7777C224.788 58.7777 224.787 58.7777 224.787 58.7777L204.567 58.6986C204.328 58.6978 204.136 58.5036 204.137 58.265C204.138 58.0272 204.331 57.835 204.569 57.835C204.569 57.835 204.57 57.835 204.57 57.835L224.79 57.9141C225.029 57.9149 225.221 58.109 225.22 58.3475C225.22 58.5855 225.026 58.7777 224.789 58.7777Z" fill="black"/>
<path d="M211.827 62.9753C211.827 62.9753 211.826 62.9753 211.825 62.9753L196.754 62.9164C196.516 62.9156 196.323 62.7214 196.324 62.4828C196.325 62.2449 196.518 62.0527 196.756 62.0527C196.756 62.0527 196.757 62.0527 196.758 62.0527L211.829 62.1117C212.068 62.1125 212.26 62.3069 212.259 62.5453C212.258 62.7829 212.065 62.9753 211.827 62.9753Z" fill="black"/>
<path d="M224.772 63.0253C224.772 63.0253 224.771 63.0253 224.77 63.0253L214.661 62.9857C214.422 62.9849 214.229 62.7908 214.23 62.5521C214.231 62.3143 214.424 62.1221 214.662 62.1221C214.663 62.1221 214.663 62.1221 214.664 62.1221L224.774 62.1617C225.012 62.1624 225.205 62.3566 225.204 62.5952C225.203 62.8329 225.01 63.0253 224.772 63.0253Z" fill="black"/>
<path d="M54.0547 91.3031L90.5821 91.4459L90.7492 41.615L63.8387 41.5098L54.1895 51.1049L54.0547 91.3031Z" fill="white"/>
<path d="M54.1914 51.105L63.8082 51.1426L63.8404 41.5371L54.1914 51.105Z" fill="white"/>
<path d="M90.584 91.8777C90.5834 91.8777 90.583 91.8777 90.5822 91.8777L54.0551 91.735C53.8166 91.7342 53.624 91.5403 53.625 91.3017L53.7598 51.1035C53.7602 50.9891 53.806 50.8795 53.8872 50.7988L63.5361 41.2037C63.6171 41.1232 63.7266 41.0781 63.8406 41.0781C63.8412 41.0781 63.8416 41.0781 63.8424 41.0781L90.7529 41.1833C90.9913 41.1841 91.1839 41.3781 91.1829 41.6167L91.016 91.4474C91.0156 91.5618 90.9698 91.6718 90.8885 91.7523C90.8072 91.8326 90.6978 91.8777 90.584 91.8777ZM54.49 90.873L90.1536 91.0123L90.3176 42.045L64.0179 41.9421L54.6224 51.2851L54.49 90.873Z" fill="black"/>
<path d="M63.8105 51.5747C63.8099 51.5747 63.8095 51.5747 63.8087 51.5747L54.1919 51.5369C54.0173 51.5363 53.8602 51.4305 53.7939 51.2686C53.7277 51.1068 53.7655 50.9215 53.8894 50.7984L63.5383 41.2305C63.6624 41.1077 63.8481 41.0717 64.0091 41.1389C64.1702 41.2063 64.2748 41.364 64.2742 41.5385L64.2419 51.1442C64.2415 51.2586 64.1955 51.3686 64.1144 51.4491C64.0338 51.5296 63.9243 51.5747 63.8105 51.5747ZM55.2381 50.6773L63.38 50.7095L63.4073 42.5769L55.2381 50.6773Z" fill="black"/>
<path d="M62.8537 54.4556C62.6158 54.4556 62.4227 54.2634 62.4219 54.0255C62.4211 53.7871 62.6135 53.5929 62.8519 53.5919L74.9991 53.5459C74.9997 53.5459 75.0005 53.5459 75.0009 53.5459C75.2387 53.5459 75.4319 53.7381 75.4327 53.9759C75.4335 54.2144 75.2411 54.4085 75.0026 54.4093L62.8555 54.4554C62.8547 54.4556 62.8541 54.4556 62.8537 54.4556Z" fill="black"/>
<path d="M86.4512 54.4549C86.4506 54.4549 86.4502 54.4549 86.4495 54.4549L77.8285 54.4212C77.5901 54.4205 77.3975 54.2263 77.3984 53.9877C77.3992 53.7498 77.5926 53.5576 77.8303 53.5576C77.8308 53.5576 77.8312 53.5576 77.832 53.5576L86.453 53.5913C86.6914 53.5921 86.884 53.7863 86.883 54.0249C86.8821 54.2625 86.6887 54.4549 86.4512 54.4549Z" fill="black"/>
<path d="M86.4372 58.7021C86.4366 58.7021 86.4362 58.7021 86.4354 58.7021L71.5902 58.6439C71.3518 58.6431 71.1592 58.4489 71.1602 58.2103C71.1609 57.9725 71.3543 57.7803 71.592 57.7803C71.5926 57.7803 71.593 57.7803 71.5937 57.7803L86.439 57.8385C86.6774 57.8392 86.87 58.0334 86.869 58.272C86.8682 58.5097 86.6749 58.7021 86.4372 58.7021Z" fill="black"/>
<path d="M66.9371 62.8723C66.9365 62.8723 66.9361 62.8723 66.9353 62.8723L58.4066 62.839C58.1682 62.8382 57.9756 62.6441 57.9766 62.4056C57.9773 62.1678 58.1707 61.9756 58.4084 61.9756C58.409 61.9756 58.4093 61.9756 58.4101 61.9756L66.9388 62.0089C67.1773 62.0097 67.3699 62.2038 67.3689 62.4425C67.3681 62.6801 67.1747 62.8723 66.9371 62.8723Z" fill="black"/>
<path d="M78.8513 62.9188C78.8507 62.9188 78.8503 62.9188 78.8495 62.9188L69.7738 62.8831C69.5354 62.8824 69.3428 62.6882 69.3438 62.4496C69.3445 62.2117 69.5379 62.0195 69.7756 62.0195C69.7762 62.0195 69.7765 62.0195 69.7773 62.0195L78.853 62.0552C79.0915 62.056 79.2841 62.2501 79.2831 62.4888C79.2823 62.7264 79.0889 62.9188 78.8513 62.9188Z" fill="black"/>
<path d="M86.4274 62.9486C86.4269 62.9486 86.4265 62.9486 86.4257 62.9486L81.684 62.93C81.4455 62.9293 81.2529 62.7349 81.2539 62.4965C81.2547 62.2586 81.4481 62.0664 81.6857 62.0664C81.6863 62.0664 81.6867 62.0664 81.6875 62.0664L86.4292 62.085C86.6676 62.0858 86.8602 62.28 86.8592 62.5186C86.8585 62.7562 86.6651 62.9486 86.4274 62.9486Z" fill="black"/>
<path d="M78.8081 75.6784C78.8075 75.6784 78.8071 75.6784 78.8063 75.6784L69.7308 75.6429C69.4924 75.6421 69.2998 75.448 69.3008 75.2093C69.3016 74.9709 69.5124 74.785 69.7342 74.7793L78.8097 74.8148C79.0481 74.8155 79.2407 75.0097 79.2397 75.2483C79.239 75.486 79.0456 75.6784 78.8081 75.6784Z" fill="black"/>
<path d="M86.3806 75.7063C86.38 75.7063 86.3796 75.7063 86.3788 75.7063L81.6371 75.6878C81.3986 75.6871 81.2061 75.4929 81.207 75.2543C81.2078 75.0164 81.401 74.8242 81.6389 74.8242C81.6394 74.8242 81.6398 74.8242 81.6406 74.8242L86.3823 74.8426C86.6208 74.8434 86.8134 75.0376 86.8124 75.276C86.8114 75.5141 86.6182 75.7063 86.3806 75.7063Z" fill="black"/>
<path d="M63.358 67.1066C63.3574 67.1066 63.357 67.1066 63.3562 67.1066L58.3949 67.0872C58.1565 67.0864 57.9639 66.8923 57.9648 66.6536C57.9654 66.4152 58.1553 66.2071 58.3984 66.2236L63.3596 66.243C63.598 66.2438 63.7906 66.4379 63.7896 66.6765C63.7888 66.9142 63.5957 67.1066 63.358 67.1066Z" fill="black"/>
<path d="M86.4135 67.1965C86.4129 67.1965 86.4125 67.1965 86.4117 67.1965L66.1918 67.1173C65.9533 67.1166 65.7607 66.9224 65.7617 66.684C65.7625 66.4461 65.9559 66.2539 66.1935 66.2539C66.1941 66.2539 66.1945 66.2539 66.1953 66.2539L86.4153 66.3331C86.6537 66.3338 86.8463 66.528 86.8453 66.7666C86.8445 67.0043 86.6512 67.1965 86.4135 67.1965Z" fill="black"/>
<path d="M73.4522 71.3943C73.4516 71.3943 73.4512 71.3943 73.4504 71.3943L58.3793 71.3353C58.1408 71.3345 57.9482 71.1402 57.9492 70.9017C57.95 70.6639 58.1434 70.4717 58.381 70.4717C58.3816 70.4717 58.382 70.4717 58.3828 70.4717L73.4539 70.5307C73.6924 70.5314 73.885 70.7256 73.884 70.9642C73.8832 71.2019 73.6898 71.3943 73.4522 71.3943Z" fill="black"/>
<path d="M86.3975 71.444C86.3969 71.444 86.3965 71.444 86.3957 71.444L76.2855 71.4044C76.0471 71.4037 75.8545 71.2095 75.8555 70.9711C75.8563 70.7332 76.0496 70.541 76.2873 70.541C76.2879 70.541 76.2883 70.541 76.2891 70.541L86.3992 70.5806C86.6377 70.5814 86.8303 70.7755 86.8293 71.0142C86.8285 71.2518 86.6351 71.444 86.3975 71.444Z" fill="black"/>
<path d="M72.4453 69.0762L111.756 69.2298L111.936 15.6015L82.975 15.4883L72.5905 25.8148L72.4453 69.0762Z" fill="white"/>
<path d="M72.5938 25.8147L82.9433 25.855L82.978 15.5176L72.5938 25.8147Z" fill="white"/>
<path d="M111.762 69.6616C111.761 69.6616 111.761 69.6616 111.76 69.6616L72.4496 69.508C72.2111 69.5072 72.0186 69.3132 72.0195 69.0748L72.1645 25.8134C72.1649 25.699 72.2108 25.5894 72.2919 25.5087L82.6763 15.1822C82.758 15.1013 82.8676 15.0733 82.9826 15.0566L111.944 15.1701C112.182 15.1709 112.375 15.3648 112.374 15.6033L112.194 69.2315C112.193 69.346 112.147 69.4559 112.066 69.5364C111.985 69.6165 111.876 69.6616 111.762 69.6616ZM72.8845 68.6459L111.332 68.7962L111.509 16.0316L83.1583 15.9205L73.0276 25.9948L72.8845 68.6459Z" fill="black"/>
<path d="M82.9495 26.2869C82.9489 26.2869 82.9485 26.2869 82.9477 26.2869L72.5981 26.2464C72.4235 26.2458 72.2664 26.14 72.2002 25.9781C72.134 25.8165 72.1718 25.631 72.2958 25.5079L82.6801 15.211C82.8043 15.0882 82.9902 15.0521 83.1509 15.1193C83.3119 15.1867 83.4165 15.3444 83.416 15.519L83.3813 25.8565C83.3809 25.9709 83.335 26.0808 83.2537 26.1613C83.1728 26.2418 83.0635 26.2869 82.9495 26.2869ZM73.6443 25.3868L82.5192 25.4217L82.5488 16.5574L73.6443 25.3868Z" fill="black"/>
<path d="M81.9123 29.3866C81.6744 29.3866 81.4813 29.1944 81.4805 28.9566C81.4797 28.7181 81.6721 28.524 81.9105 28.523L94.9836 28.4736C94.9842 28.4736 94.9848 28.4736 94.9854 28.4736C95.2233 28.4736 95.4164 28.6658 95.4172 28.9037C95.418 29.1421 95.2256 29.3363 94.9872 29.3373L81.914 29.3866C81.9135 29.3866 81.9127 29.3866 81.9123 29.3866Z" fill="black"/>
<path d="M107.311 29.385C107.311 29.385 107.31 29.385 107.31 29.385L98.0316 29.3488C97.7932 29.348 97.6006 29.1538 97.6016 28.9154C97.6023 28.677 97.7773 28.4844 98.0351 28.4854L107.313 28.5216C107.551 28.5224 107.744 28.7165 107.743 28.955C107.742 29.1928 107.549 29.385 107.311 29.385Z" fill="black"/>
<path d="M107.295 33.9564C107.294 33.9564 107.294 33.9564 107.293 33.9564L91.3168 33.8939C91.0783 33.8931 90.8857 33.6988 90.8867 33.4603C90.8875 33.2225 91.0809 33.0303 91.3185 33.0303C91.3191 33.0303 91.3195 33.0303 91.3203 33.0303L107.297 33.0928C107.535 33.0936 107.728 33.2877 107.727 33.5262C107.726 33.764 107.532 33.9564 107.295 33.9564Z" fill="black"/>
<path d="M86.3057 38.4456C86.3051 38.4456 86.3047 38.4456 86.3039 38.4456L77.1254 38.4098C76.8869 38.409 76.6943 38.2148 76.6953 37.9762C76.6959 37.7375 76.8887 37.5383 77.1287 37.5461L86.3075 37.582C86.5459 37.5828 86.7385 37.7769 86.7375 38.0156C86.7365 38.2532 86.5432 38.4456 86.3057 38.4456Z" fill="black"/>
<path d="M99.1288 38.4966C99.1282 38.4966 99.1279 38.4966 99.1271 38.4966L89.3597 38.4583C89.1213 38.4576 88.9287 38.2634 88.9297 38.0248C88.9305 37.7869 89.1238 37.5947 89.3615 37.5947C89.3621 37.5947 89.3625 37.5947 89.3633 37.5947L99.1306 37.6329C99.369 37.6337 99.5616 37.8279 99.5606 38.0665C99.5599 38.3042 99.3665 38.4966 99.1288 38.4966Z" fill="black"/>
<path d="M107.281 38.527C107.281 38.527 107.28 38.527 107.279 38.527L102.176 38.5072C101.938 38.5064 101.745 38.3122 101.746 38.0736C101.747 37.8358 101.94 37.6436 102.178 37.6436C102.179 37.6436 102.179 37.6436 102.18 37.6436L107.283 37.6633C107.521 37.6641 107.714 37.8583 107.713 38.0969C107.712 38.3348 107.519 38.527 107.281 38.527Z" fill="black"/>
<path d="M99.082 52.226C99.0814 52.226 99.081 52.226 99.0802 52.226L89.3129 52.1876C89.0744 52.1869 88.8818 51.9927 88.8828 51.7543C88.8836 51.5164 89.077 51.3242 89.3146 51.3242C89.3152 51.3242 89.3156 51.3242 89.3164 51.3242L99.0837 51.3626C99.3221 51.3634 99.5148 51.5576 99.5138 51.7962C99.513 52.0338 99.3196 52.226 99.082 52.226Z" fill="black"/>
<path d="M107.234 52.2585C107.234 52.2585 107.233 52.2585 107.232 52.2585L102.129 52.2385C101.891 52.2377 101.698 52.0435 101.699 51.8051C101.7 51.5666 101.907 51.3576 102.133 51.375L107.236 51.395C107.474 51.3958 107.667 51.59 107.666 51.8286C107.665 52.0661 107.472 52.2585 107.234 52.2585Z" fill="black"/>
<path d="M82.4547 43.0018C82.4541 43.0018 82.4537 43.0018 82.4529 43.0018L77.1136 42.9808C76.8752 42.98 76.6826 42.7859 76.6836 42.5472C76.6844 42.3094 76.8778 42.1172 77.1154 42.1172C77.116 42.1172 77.1164 42.1172 77.1172 42.1172L82.4564 42.1382C82.6949 42.1389 82.8875 42.3331 82.8865 42.5717C82.8855 42.8096 82.6923 43.0018 82.4547 43.0018Z" fill="black"/>
<path d="M107.267 43.0983C107.266 43.0983 107.266 43.0983 107.265 43.0983L85.5043 43.013C85.2658 43.0123 85.0732 42.8181 85.0742 42.5795C85.075 42.3416 85.2684 42.1494 85.506 42.1494C85.5066 42.1494 85.507 42.1494 85.5078 42.1494L107.269 42.2346C107.507 42.2354 107.7 42.4296 107.699 42.6682C107.698 42.9061 107.504 43.0983 107.267 43.0983Z" fill="black"/>
<path d="M93.3194 47.6154C93.3188 47.6154 93.3184 47.6154 93.3176 47.6154L77.098 47.5519C76.8596 47.5511 76.667 47.357 76.668 47.1185C76.6688 46.8807 76.8621 46.6885 77.0998 46.6885C77.1004 46.6885 77.1008 46.6885 77.1015 46.6885L93.3212 46.752C93.5596 46.7527 93.7522 46.9469 93.7512 47.1853C93.7504 47.4232 93.5571 47.6154 93.3194 47.6154Z" fill="black"/>
<path d="M107.25 47.6698C107.249 47.6698 107.249 47.6698 107.248 47.6698L96.3675 47.6273C96.1291 47.6265 95.9365 47.4322 95.9375 47.1937C95.9383 46.9559 96.1317 46.7637 96.3693 46.7637C96.3699 46.7637 96.3703 46.7637 96.3711 46.7637L107.252 46.8062C107.49 46.807 107.683 47.0011 107.682 47.2398C107.681 47.4774 107.488 47.6698 107.25 47.6698Z" fill="black"/>
<path d="M126.969 54.0194L166.28 54.1732L166.459 0.544884L137.498 0.431641L127.114 10.7579L126.969 54.0194Z" fill="white"/>
<path d="M127.117 10.7578L137.467 10.7984L137.501 0.460938L127.117 10.7578Z" fill="white"/>
<path d="M166.286 54.6047C166.285 54.6047 166.285 54.6047 166.284 54.6047L126.973 54.4511C126.735 54.4504 126.542 54.2564 126.543 54.018L126.688 10.7565C126.688 10.6421 126.734 10.5324 126.815 10.4519L137.2 0.125585C137.281 0.0450604 137.39 0 137.504 0C137.505 0 137.506 0 137.506 0L166.467 0.113244C166.705 0.114027 166.898 0.30799 166.897 0.546428L166.717 54.1747C166.717 54.2891 166.671 54.399 166.59 54.4796C166.509 54.5597 166.4 54.6047 166.286 54.6047ZM127.408 53.5893L165.855 53.7396L166.033 0.974907L137.682 0.864018L127.551 10.9381L127.408 53.5893Z" fill="black"/>
<path d="M137.473 11.2295C137.473 11.2295 137.472 11.2295 137.471 11.2295L127.122 11.1889C126.947 11.1883 126.79 11.0825 126.724 10.9207C126.657 10.7591 126.695 10.5735 126.819 10.4505L137.203 0.153578C137.327 0.0307351 137.514 -0.00570393 137.674 0.0618893C137.835 0.129287 137.94 0.287 137.939 0.461567L137.905 10.799C137.904 10.9134 137.858 11.0234 137.777 11.1039C137.696 11.1844 137.587 11.2295 137.473 11.2295ZM128.168 10.3294L137.042 10.3643L137.072 1.49996L128.168 10.3294Z" fill="black"/>
<path d="M136.436 14.3302C136.198 14.3302 136.005 14.138 136.004 13.9001C136.003 13.6617 136.196 13.4675 136.434 13.4666L149.507 13.417C149.507 13.417 149.508 13.417 149.509 13.417C149.746 13.417 149.94 13.6094 149.94 13.847C149.941 14.0855 149.749 14.2796 149.51 14.2804L136.437 14.33C136.437 14.3302 136.436 14.3302 136.436 14.3302Z" fill="black"/>
<path d="M161.835 14.3294C161.834 14.3294 161.833 14.3294 161.833 14.3294L152.555 14.2931C152.316 14.2923 152.124 14.0982 152.125 13.8597C152.126 13.6219 152.319 13.4297 152.557 13.4297C152.557 13.4297 152.558 13.4297 152.559 13.4297L161.836 13.4659C162.075 13.4667 162.267 13.6609 162.266 13.8995C162.266 14.1372 162.072 14.3294 161.835 14.3294Z" fill="black"/>
<path d="M161.818 18.8996C161.818 18.8996 161.817 18.8996 161.817 18.8996L145.84 18.8371C145.602 18.8363 145.409 18.6421 145.41 18.4037C145.411 18.1658 145.604 17.9736 145.842 17.9736C145.842 17.9736 145.843 17.9736 145.844 17.9736L161.82 18.0361C162.059 18.0369 162.251 18.2311 162.25 18.4695C162.249 18.7074 162.056 18.8996 161.818 18.8996Z" fill="black"/>
<path d="M140.829 23.3887C140.828 23.3887 140.827 23.3887 140.827 23.3887L131.649 23.3529C131.41 23.3521 131.218 23.1579 131.219 22.9193C131.22 22.6815 131.413 22.4893 131.651 22.4893C131.651 22.4893 131.652 22.4893 131.652 22.4893L140.831 22.5251C141.069 22.5259 141.262 22.7201 141.261 22.9585C141.26 23.1965 141.067 23.3887 140.829 23.3887Z" fill="black"/>
<path d="M153.652 23.4399C153.652 23.4399 153.651 23.4399 153.651 23.4399L143.883 23.4015C143.645 23.4007 143.452 23.2066 143.453 22.9681C143.454 22.7303 143.647 22.5381 143.885 22.5381C143.885 22.5381 143.886 22.5381 143.887 22.5381L153.654 22.5765C153.893 22.5773 154.085 22.7714 154.084 23.0099C154.083 23.2477 153.89 23.4399 153.652 23.4399Z" fill="black"/>
<path d="M161.805 23.4705C161.804 23.4705 161.803 23.4705 161.803 23.4705L156.7 23.4505C156.461 23.4498 156.269 23.2556 156.27 23.017C156.27 22.7791 156.463 22.5869 156.701 22.5869C156.702 22.5869 156.703 22.5869 156.703 22.5869L161.806 22.6069C162.045 22.6077 162.237 22.8018 162.236 23.0403C162.236 23.2781 162.042 23.4705 161.805 23.4705Z" fill="black"/>
<path d="M153.605 37.1692C153.605 37.1692 153.604 37.1692 153.604 37.1692L143.836 37.131C143.598 37.1302 143.405 36.9361 143.406 36.6976C143.407 36.4598 143.6 36.2676 143.838 36.2676C143.838 36.2676 143.839 36.2676 143.84 36.2676L153.607 36.3058C153.846 36.3066 154.038 36.5007 154.037 36.7394C154.036 36.977 153.843 37.1692 153.605 37.1692Z" fill="black"/>
<path d="M161.758 37.2008C161.757 37.2008 161.756 37.2008 161.756 37.2008L156.653 37.181C156.414 37.1802 156.222 36.9861 156.223 36.7474C156.223 36.5096 156.417 36.3174 156.654 36.3174C156.655 36.3174 156.656 36.3174 156.656 36.3174L161.759 36.3372C161.998 36.338 162.19 36.5321 162.189 36.7706C162.188 37.0084 161.995 37.2008 161.758 37.2008Z" fill="black"/>
<path d="M136.978 27.9451C136.978 27.9451 136.977 27.9451 136.976 27.9451L131.637 27.9242C131.398 27.9234 131.206 27.7292 131.207 27.4906C131.208 27.2527 131.401 27.0605 131.639 27.0605C131.639 27.0605 131.64 27.0605 131.641 27.0605L136.98 27.0815C137.219 27.0823 137.411 27.2765 137.41 27.5149C137.409 27.7529 137.216 27.9451 136.978 27.9451Z" fill="black"/>
<path d="M161.79 28.0412C161.79 28.0412 161.789 28.0412 161.788 28.0412L140.028 27.9562C139.789 27.9554 139.597 27.7613 139.598 27.5228C139.598 27.285 139.792 27.0928 140.029 27.0928C140.03 27.0928 140.031 27.0928 140.031 27.0928L161.792 27.1778C162.031 27.1786 162.223 27.3727 162.222 27.6114C162.221 27.849 162.028 28.0412 161.79 28.0412Z" fill="black"/>
<path d="M147.843 32.5587C147.843 32.5587 147.842 32.5587 147.841 32.5587L131.621 32.4953C131.383 32.4945 131.19 32.3003 131.191 32.0619C131.192 31.8236 131.372 31.6461 131.625 31.6318L147.845 31.6953C148.083 31.6961 148.276 31.8903 148.275 32.1287C148.274 32.3665 148.081 32.5587 147.843 32.5587Z" fill="black"/>
<path d="M161.773 32.614C161.773 32.614 161.772 32.614 161.772 32.614L150.891 32.5714C150.652 32.5707 150.46 32.3765 150.461 32.1381C150.462 31.9002 150.655 31.708 150.893 31.708C150.893 31.708 150.894 31.708 150.895 31.708L161.775 31.7505C162.014 31.7513 162.206 31.9457 162.205 32.1841C162.204 32.4216 162.011 32.614 161.773 32.614Z" fill="black"/>
<path d="M80.1175 81.6771L138.932 83.0082L145.129 35.6357L79.6328 36.0505L80.1175 81.6771Z" fill="#020202"/>
<path d="M79.6501 38.7483L97.9211 38.6327L96.6893 31.5752L79.6055 31.6833L79.6501 38.7483Z" fill="#020202"/>
<path d="M78.3418 79.9483L138.66 81.3055L141.596 38.5107L78.082 38.913L78.3418 79.9483Z" fill="white"/>
<path d="M76.5039 37.2868L92.1683 37.1875L93.6759 42.1336L138.409 41.8503L138.67 83.0625L76.7962 83.4544L76.5488 44.3516L76.5039 37.2868Z" fill="#BFABF2"/>
<path d="M76.7986 83.8866C76.6849 83.8866 76.576 83.8419 76.4951 83.762C76.4138 83.6816 76.3673 83.5719 76.3667 83.4575L76.0742 37.2897C76.0736 37.1753 76.1183 37.0652 76.1988 36.9835C76.2792 36.9022 76.3889 36.8558 76.5033 36.8552L92.1677 36.7559C92.1685 36.7559 92.1696 36.7559 92.1704 36.7559C92.3605 36.7559 92.528 36.8801 92.5834 37.0619L93.9974 41.7L138.409 41.4186C138.527 41.4078 138.633 41.4627 138.715 41.5432C138.796 41.6236 138.842 41.7333 138.843 41.8477L139.104 83.0602C139.105 83.1746 139.06 83.2847 138.98 83.3664C138.899 83.4477 138.789 83.4941 138.675 83.4947L76.8011 83.8866C76.8003 83.8866 76.7993 83.8866 76.7986 83.8866ZM76.9406 37.7163L77.2276 83.0204L138.238 82.6342L137.983 42.2854L93.6808 42.5659C93.4806 42.5614 93.3207 42.4425 93.2651 42.2599L91.8511 37.6218L76.9406 37.7163Z" fill="black"/>
<path d="M156.087 63.6733L213.079 64.9632L219.084 19.0586L155.617 19.4604L156.087 63.6733Z" fill="#020202"/>
<path d="M155.633 22.0748L173.338 21.9627L172.144 15.124L155.59 15.2288L155.633 22.0748Z" fill="#020202"/>
<path d="M154.369 61.9982L212.818 63.3135L215.663 21.8447L154.117 22.2344L154.369 61.9982Z" fill="white"/>
<path d="M152.59 20.6587L167.769 20.5625L169.23 25.3552L212.577 25.0807L212.83 65.0159L152.873 65.3956L152.633 27.5046L152.59 20.6587Z" fill="#BFABF2"/>
<path d="M152.875 65.8271C152.762 65.8271 152.653 65.7824 152.572 65.7025C152.49 65.6222 152.444 65.5124 152.443 65.398L152.16 20.6609C152.159 20.5465 152.204 20.4364 152.285 20.3547C152.365 20.2734 152.475 20.2269 152.589 20.2264L167.769 20.1304C167.958 20.1209 168.129 20.2536 168.184 20.4364L169.551 24.9209L212.576 24.6485C212.577 24.6485 212.578 24.6485 212.579 24.6485C212.816 24.6485 213.009 24.8399 213.011 25.0776L213.264 65.0128C213.264 65.1273 213.219 65.2374 213.139 65.3191C213.059 65.4004 212.949 65.4468 212.834 65.4474L152.878 65.8271C152.877 65.8271 152.876 65.8271 152.875 65.8271ZM153.026 21.0872L153.304 64.9607L212.397 64.5865L212.15 25.5149L169.234 25.7866C169.233 25.7866 169.232 25.7866 169.231 25.7866C169.042 25.7866 168.874 25.6624 168.818 25.4808L167.452 20.9963L153.026 21.0872Z" fill="black"/>
<path d="M170.121 95.3743L206.648 95.5172L206.815 45.6863L179.905 45.5811L170.256 55.1763L170.121 95.3743Z" fill="white"/>
<path d="M170.258 55.1765L179.875 55.2141L179.907 45.6084L170.258 55.1765Z" fill="white"/>
<path d="M206.65 95.9492C206.65 95.9492 206.649 95.9492 206.648 95.9492L170.121 95.8063C169.883 95.8055 169.69 95.6116 169.691 95.3731L169.826 55.175C169.826 55.0605 169.872 54.951 169.953 54.8703L179.603 45.275C179.683 45.1945 179.793 45.1494 179.907 45.1494C179.907 45.1494 179.908 45.1494 179.909 45.1494L206.819 45.2546C207.058 45.2554 207.251 45.4494 207.25 45.6878L207.082 95.5187C207.082 95.6331 207.036 95.7431 206.954 95.8236C206.874 95.9041 206.764 95.9492 206.65 95.9492ZM170.556 94.9445L206.22 95.0838L206.385 46.1165L180.085 46.0136L170.689 55.3568L170.556 94.9445Z" fill="black"/>
<path d="M179.877 55.6459C179.877 55.6459 179.876 55.6459 179.876 55.6459L170.258 55.6083C170.084 55.6077 169.927 55.5019 169.86 55.3401C169.794 55.1785 169.832 54.9929 169.956 54.8699L179.605 45.302C179.73 45.1792 179.916 45.1427 180.076 45.2103C180.237 45.2777 180.342 45.4354 180.341 45.61L180.309 55.2155C180.309 55.3299 180.263 55.4398 180.181 55.5204C180.101 55.6009 179.991 55.6459 179.877 55.6459ZM171.305 54.7488L179.447 54.7806L179.474 46.6482L171.305 54.7488Z" fill="black"/>
<path d="M178.92 58.5269C178.682 58.5269 178.489 58.3345 178.488 58.0968C178.487 57.8584 178.68 57.6642 178.918 57.6634L191.066 57.6172C191.066 57.6172 191.067 57.6172 191.067 57.6172C191.305 57.6172 191.498 57.8096 191.499 58.0472C191.5 58.2857 191.307 58.4798 191.069 58.4806L178.922 58.5269C178.921 58.5269 178.92 58.5269 178.92 58.5269Z" fill="black"/>
<path d="M202.518 58.526C202.517 58.526 202.517 58.526 202.516 58.526L193.895 58.4923C193.656 58.4915 193.464 58.2974 193.465 58.0589C193.466 57.8211 193.659 57.6289 193.897 57.6289C193.897 57.6289 193.898 57.6289 193.898 57.6289L202.52 57.6626C202.758 57.6634 202.951 57.8575 202.95 58.0962C202.949 58.3336 202.756 58.526 202.518 58.526Z" fill="black"/>
<path d="M202.504 62.773C202.503 62.773 202.502 62.773 202.502 62.773L187.657 62.715C187.418 62.7142 187.226 62.5201 187.227 62.2816C187.227 62.0438 187.421 61.8516 187.658 61.8516C187.659 61.8516 187.66 61.8516 187.66 61.8516L202.505 61.9095C202.744 61.9103 202.936 62.1045 202.935 62.3431C202.935 62.5806 202.741 62.773 202.504 62.773Z" fill="black"/>
<path d="M183.003 66.9436C183.003 66.9436 183.002 66.9436 183.002 66.9436L174.473 66.9103C174.234 66.9095 174.042 66.7154 174.043 66.4769C174.044 66.2391 174.237 66.0469 174.475 66.0469C174.475 66.0469 174.476 66.0469 174.477 66.0469L183.005 66.0802C183.244 66.081 183.436 66.2751 183.435 66.5138C183.434 66.7514 183.241 66.9436 183.003 66.9436Z" fill="black"/>
<path d="M194.918 66.9899C194.917 66.9899 194.917 66.9899 194.916 66.9899L185.84 66.9545C185.602 66.9537 185.409 66.7595 185.41 66.5209C185.411 66.283 185.604 66.0908 185.842 66.0908C185.842 66.0908 185.843 66.0908 185.844 66.0908L194.919 66.1263C195.158 66.1271 195.35 66.3212 195.349 66.5599C195.349 66.7975 195.156 66.9899 194.918 66.9899Z" fill="black"/>
<path d="M202.494 67.0217C202.493 67.0217 202.493 67.0217 202.492 67.0217L197.75 67.0031C197.512 67.0023 197.319 66.8081 197.32 66.5697C197.321 66.3318 197.514 66.1396 197.752 66.1396C197.753 66.1396 197.753 66.1396 197.754 66.1396L202.496 66.1583C202.734 66.1591 202.927 66.3532 202.926 66.5918C202.925 66.8293 202.732 67.0217 202.494 67.0217Z" fill="black"/>
<path d="M194.875 79.7479C194.874 79.7479 194.874 79.7479 194.873 79.7479L185.797 79.7123C185.559 79.7115 185.366 79.5173 185.367 79.2787C185.368 79.0408 185.561 78.8486 185.799 78.8486C185.799 78.8486 185.8 78.8486 185.801 78.8486L194.876 78.8843C195.115 78.8851 195.308 79.0792 195.307 79.3179C195.306 79.5555 195.113 79.7479 194.875 79.7479Z" fill="black"/>
<path d="M202.447 79.7776C202.447 79.7776 202.446 79.7776 202.445 79.7776L197.703 79.7589C197.465 79.7582 197.272 79.564 197.273 79.3256C197.274 79.0877 197.467 78.8955 197.705 78.8955C197.706 78.8955 197.706 78.8955 197.707 78.8955L202.449 78.9141C202.687 78.9149 202.88 79.1091 202.879 79.3477C202.878 79.5853 202.685 79.7776 202.447 79.7776Z" fill="black"/>
<path d="M179.424 71.1787C179.424 71.1787 179.423 71.1787 179.422 71.1787L174.461 71.1593C174.223 71.1585 174.03 70.9644 174.031 70.7259C174.032 70.4881 174.225 70.2959 174.463 70.2959C174.463 70.2959 174.464 70.2959 174.465 70.2959L179.426 70.3153C179.664 70.3161 179.857 70.5102 179.856 70.7489C179.855 70.9863 179.662 71.1787 179.424 71.1787Z" fill="black"/>
<path d="M202.48 71.268C202.48 71.268 202.479 71.268 202.479 71.268L182.258 71.1888C182.02 71.188 181.827 70.9939 181.828 70.7552C181.829 70.5174 182.022 70.3252 182.26 70.3252C182.26 70.3252 182.261 70.3252 182.262 70.3252L202.482 70.4043C202.721 70.4051 202.913 70.5993 202.912 70.8379C202.911 71.0758 202.718 71.268 202.48 71.268Z" fill="black"/>
<path d="M189.519 75.4654C189.518 75.4654 189.517 75.4654 189.517 75.4654L174.446 75.4066C174.207 75.4058 174.015 75.2117 174.016 74.973C174.016 74.7352 174.21 74.543 174.447 74.543C174.448 74.543 174.449 74.543 174.449 74.543L189.52 74.6017C189.759 74.6025 189.951 74.7967 189.95 75.0351C189.95 75.273 189.756 75.4654 189.519 75.4654Z" fill="black"/>
<path d="M202.464 75.5155C202.463 75.5155 202.463 75.5155 202.462 75.5155L192.352 75.4759C192.113 75.4752 191.921 75.281 191.922 75.0424C191.923 74.8045 192.116 74.6123 192.354 74.6123C192.354 74.6123 192.355 74.6123 192.355 74.6123L202.466 74.6519C202.704 74.6527 202.897 74.8468 202.896 75.0855C202.895 75.3233 202.702 75.5155 202.464 75.5155Z" fill="black"/>
<path d="M155.344 196.281H130.918V230.415H155.344V196.281Z" fill="#BFABF2"/>
<path d="M216.414 111.981L215.58 113.143L210.792 119.836L208.153 123.519L204.414 128.748L198.52 136.982L160.535 190.051L155.34 197.305L143.133 214.361L130.913 197.287L81.8567 128.752L78.1088 123.519L75.4705 119.831L70.7035 113.169L69.8398 111.964H86.3908L104.863 111.968H122.916L181.503 111.977L216.414 111.981Z" fill="#BFABF2"/>
<path d="M216.5 111.637H69.7539V123.52H216.5V111.637Z" fill="#BFABF2"/>
<path d="M143.127 133.027C183.65 133.027 216.5 128.771 216.5 123.521C216.5 118.271 183.65 114.015 143.127 114.015C102.604 114.015 69.7539 118.271 69.7539 123.521C69.7539 128.771 102.604 133.027 143.127 133.027Z" fill="#BFABF2"/>
<path d="M143.127 121.142C183.65 121.142 216.5 116.886 216.5 111.636C216.5 106.386 183.65 102.13 143.127 102.13C102.604 102.13 69.7539 106.386 69.7539 111.636C69.7539 116.886 102.604 121.142 143.127 121.142Z" fill="#BFABF2"/>
<path d="M208.875 115.858C196.867 118.992 171.936 121.141 143.127 121.141C114.318 121.141 89.387 118.992 77.3789 115.858C89.387 112.724 114.318 110.575 143.127 110.575C171.936 110.575 196.867 112.724 208.875 115.858Z" fill="black"/>
<path d="M208.875 115.858C196.867 118.992 171.936 121.141 143.127 121.141C114.318 121.141 89.387 118.992 77.3789 115.858C89.387 112.724 114.318 110.575 143.127 110.575C171.936 110.575 196.867 112.724 208.875 115.858Z" fill="black"/>
<mask id="mask0_2085_22669" style="mask-type:luminance" maskUnits="userSpaceOnUse" x="69" y="66" width="148" height="56">
<path d="M216.504 111.636C216.504 106.386 194.852 66.7891 154.329 66.7891C113.806 66.7891 69.7578 106.386 69.7578 111.636C69.7578 116.887 102.608 121.143 143.131 121.143C183.654 121.143 216.504 116.887 216.504 111.636Z" fill="white"/>
</mask>
<g mask="url(#mask0_2085_22669)">
<path d="M138.092 122.897L188.638 124.041L193.964 83.3291L137.676 83.6855L138.092 122.897Z" fill="#020202"/>
<path d="M137.691 86.0036L153.393 85.9042L152.334 79.8389L137.652 79.9319L137.691 86.0036Z" fill="#020202"/>
<path d="M136.567 121.41L188.405 122.577L190.928 85.7988L136.344 86.1444L136.567 121.41Z" fill="white"/>
<path d="M134.984 84.7464L148.446 84.6611L149.742 88.9117L188.186 88.6683L188.41 124.086L135.236 124.423L135.023 90.818L134.984 84.7464Z" fill="#BFABF2"/>
<path d="M135.237 124.856C135 124.856 134.807 124.665 134.805 124.427L134.664 102.135C134.662 101.896 134.855 101.702 135.093 101.7C135.311 101.702 135.526 101.891 135.528 102.129L135.666 123.99L187.978 123.659L187.854 104.148C187.852 103.909 188.044 103.715 188.283 103.713C188.284 103.713 188.285 103.713 188.285 103.713C188.523 103.713 188.716 103.905 188.717 104.142L188.844 124.085C188.845 124.2 188.8 124.31 188.719 124.391C188.639 124.473 188.529 124.519 188.415 124.52L135.24 124.856C135.239 124.856 135.238 124.856 135.237 124.856Z" fill="black"/>
<path d="M188.286 104.575C188.049 104.575 187.856 104.384 187.854 104.146L187.759 89.1031L149.747 89.3437C149.746 89.3437 149.745 89.3437 149.744 89.3437C149.555 89.3437 149.387 89.2196 149.332 89.0378L148.129 85.0953L135.421 85.1756L135.528 102.128C135.53 102.366 135.338 102.561 135.099 102.563C135.098 102.563 135.097 102.563 135.097 102.563C134.859 102.563 134.667 102.371 134.665 102.133L134.555 84.7493C134.554 84.6349 134.599 84.5248 134.679 84.4431C134.76 84.3617 134.869 84.3153 134.984 84.3147L148.446 84.2295C148.447 84.2295 148.448 84.2295 148.449 84.2295C148.638 84.2295 148.806 84.3535 148.861 84.5353L150.064 88.4779L188.186 88.2367C188.186 88.2367 188.187 88.2367 188.188 88.2367C188.302 88.2367 188.411 88.2814 188.491 88.3613C188.573 88.4416 188.619 88.5513 188.62 88.6658L188.718 104.141C188.719 104.379 188.527 104.574 188.288 104.575C188.288 104.575 188.287 104.575 188.286 104.575Z" fill="black"/>
</g>
<path d="M143.129 121.575C123.512 121.575 105.067 120.584 91.1911 118.787C76.6811 116.907 69.3242 114.501 69.3242 111.637C69.3242 105.758 102.414 102.215 135.101 101.755C135.103 101.755 135.105 101.755 135.107 101.755C135.342 101.755 135.535 101.944 135.539 102.181C135.542 102.419 135.351 102.615 135.113 102.619C95.0102 103.184 70.1877 107.74 70.1877 111.637C70.1877 112.471 71.7104 115.392 91.302 117.93C105.143 119.724 123.548 120.711 143.129 120.711C162.71 120.711 181.116 119.723 194.956 117.93C214.548 115.392 216.07 112.471 216.07 111.637C216.07 109.69 209.33 106.873 190.412 104.802C190.175 104.776 190.004 104.562 190.03 104.325C190.056 104.088 190.272 103.916 190.506 103.943C202.562 105.263 216.934 107.669 216.934 111.637C216.934 114.501 209.577 116.907 195.067 118.787C181.191 120.584 162.746 121.575 143.129 121.575Z" fill="black"/>
<path d="M143.129 133.458C123.512 133.458 105.067 132.468 91.1911 130.67C76.6811 128.79 69.3242 126.384 69.3242 123.52V111.636C69.3242 111.397 69.5176 111.204 69.756 111.204C69.9945 111.204 70.1878 111.397 70.1878 111.636V123.52C70.1878 124.354 71.7106 127.275 91.3022 129.813C105.143 131.606 123.548 132.594 143.129 132.594C162.71 132.594 181.116 131.606 194.957 129.813C214.548 127.275 216.07 124.354 216.07 123.52V111.636C216.07 111.397 216.263 111.204 216.502 111.204C216.741 111.204 216.934 111.397 216.934 111.636V123.52C216.934 126.384 209.577 128.79 195.067 130.67C181.191 132.468 162.745 133.458 143.129 133.458Z" fill="black"/>
<path d="M130.912 180.397C130.777 180.397 130.645 180.334 130.56 180.216L113.432 156.287C113.293 156.093 113.338 155.823 113.532 155.684C113.726 155.545 113.996 155.59 114.134 155.784L131.263 179.713C131.401 179.907 131.357 180.177 131.163 180.316C131.087 180.37 130.999 180.397 130.912 180.397Z" fill="black"/>
<path d="M111.395 153.126C111.26 153.126 111.128 153.063 111.044 152.945L107.393 147.846C107.254 147.652 107.299 147.382 107.493 147.243C107.687 147.104 107.957 147.149 108.095 147.343L111.746 152.443C111.884 152.637 111.84 152.906 111.646 153.045C111.57 153.1 111.482 153.126 111.395 153.126Z" fill="black"/>
<path d="M86.3828 115.002L122.91 115.145L123.077 65.3142L96.1668 65.209L86.5176 74.8043L86.3828 115.002Z" fill="white"/>
<path d="M86.5195 74.8044L96.1364 74.842L96.1685 65.2363L86.5195 74.8044Z" fill="white"/>
<path d="M122.912 115.577C122.912 115.577 122.911 115.577 122.91 115.577L86.3832 115.434C86.1448 115.433 85.9521 115.239 85.9531 115.001L86.0879 74.8027C86.0883 74.6883 86.1342 74.5788 86.2153 74.498L95.8643 64.9029C95.9456 64.822 96.0717 64.7764 96.1705 64.7774L123.081 64.8826C123.319 64.8834 123.512 65.0773 123.511 65.3158L123.344 115.146C123.344 115.261 123.298 115.371 123.217 115.451C123.135 115.532 123.026 115.577 122.912 115.577ZM86.8181 114.572L122.482 114.712L122.646 65.7442L96.3462 65.6414L86.9508 74.9841L86.8181 114.572Z" fill="black"/>
<path d="M96.1386 75.2736C96.138 75.2736 96.1376 75.2736 96.1368 75.2736L86.52 75.236C86.3454 75.2354 86.1883 75.1296 86.1221 74.9678C86.0558 74.8061 86.0936 74.6206 86.2175 74.4976L95.8665 64.9297C95.9905 64.8068 96.1762 64.771 96.3372 64.838C96.4983 64.9054 96.6029 65.0631 96.6023 65.2377L96.57 74.8432C96.5696 74.9576 96.5236 75.0675 96.4425 75.148C96.3617 75.2285 96.2526 75.2736 96.1386 75.2736ZM87.5664 74.3765L95.7082 74.4084L95.7354 66.2761L87.5664 74.3765Z" fill="black"/>
<path d="M95.1818 78.1548C94.944 78.1548 94.7508 77.9626 94.75 77.7247C94.7492 77.4863 94.9416 77.2921 95.18 77.2912L107.327 77.2451C107.328 77.2451 107.328 77.2451 107.329 77.2451C107.567 77.2451 107.76 77.4373 107.761 77.6752C107.762 77.9136 107.569 78.1078 107.331 78.1087L95.1836 78.1548C95.1828 78.1548 95.1822 78.1548 95.1818 78.1548Z" fill="black"/>
<path d="M118.779 78.1544C118.779 78.1544 118.778 78.1544 118.778 78.1544L110.157 78.1207C109.918 78.1199 109.726 77.9257 109.727 77.6871C109.727 77.4484 109.908 77.2498 110.16 77.257L118.781 77.2907C119.02 77.2915 119.212 77.4857 119.211 77.7243C119.21 77.962 119.017 78.1544 118.779 78.1544Z" fill="black"/>
<path d="M118.765 82.4011C118.765 82.4011 118.764 82.4011 118.764 82.4011L103.918 82.3431C103.68 82.3423 103.487 82.1482 103.488 81.9095C103.489 81.6717 103.682 81.4795 103.92 81.4795C103.921 81.4795 103.921 81.4795 103.922 81.4795L118.767 81.5375C119.006 81.5383 119.198 81.7324 119.197 81.9711C119.196 82.2087 119.003 82.4011 118.765 82.4011Z" fill="black"/>
<path d="M99.2652 86.5717C99.2646 86.5717 99.2642 86.5717 99.2635 86.5717L90.7348 86.5384C90.4963 86.5377 90.3037 86.3433 90.3047 86.1049C90.3055 85.867 90.4988 85.6748 90.7365 85.6748C90.7371 85.6748 90.7375 85.6748 90.7383 85.6748L99.267 85.7081C99.5054 85.7089 99.698 85.9031 99.697 86.1417C99.6961 86.3793 99.5027 86.5717 99.2652 86.5717Z" fill="black"/>
<path d="M111.179 86.6178C111.179 86.6178 111.178 86.6178 111.178 86.6178L102.102 86.5824C101.864 86.5816 101.671 86.3874 101.672 86.1488C101.673 85.911 101.866 85.7188 102.104 85.7188C102.104 85.7188 102.105 85.7188 102.105 85.7188L111.181 85.7542C111.42 85.755 111.612 85.9492 111.611 86.1876C111.61 86.4254 111.417 86.6178 111.179 86.6178Z" fill="black"/>
<path d="M118.756 86.6479C118.755 86.6479 118.755 86.6479 118.754 86.6479L114.012 86.6293C113.774 86.6285 113.581 86.4341 113.582 86.1957C113.583 85.9578 113.776 85.7656 114.014 85.7656C114.014 85.7656 114.015 85.7656 114.016 85.7656L118.757 85.7842C118.996 85.785 119.188 85.9792 119.187 86.2176C119.186 86.4557 118.993 86.6479 118.756 86.6479Z" fill="black"/>
<path d="M111.136 99.3758C111.136 99.3758 111.135 99.3758 111.134 99.3758L102.059 99.3402C101.821 99.3394 101.628 99.1452 101.629 98.9066C101.63 98.6688 101.823 98.4766 102.061 98.4766C102.061 98.4766 102.062 98.4766 102.062 98.4766L111.138 98.5122C111.376 98.513 111.569 98.7072 111.568 98.9458C111.567 99.1834 111.374 99.3758 111.136 99.3758Z" fill="black"/>
<path d="M118.709 99.4057C118.708 99.4057 118.708 99.4057 118.707 99.4057L113.965 99.3871C113.727 99.3863 113.534 99.1919 113.535 98.9535C113.536 98.7151 113.721 98.5321 113.969 98.5234L118.71 98.542C118.949 98.5428 119.141 98.737 119.14 98.9756C119.14 99.2135 118.946 99.4057 118.709 99.4057Z" fill="black"/>
<path d="M95.6822 90.8049C95.6816 90.8049 95.6813 90.8049 95.6805 90.8049L90.7191 90.7855C90.4807 90.7847 90.2881 90.5906 90.2891 90.3519C90.2898 90.1141 90.4832 89.9219 90.7209 89.9219C90.7215 89.9219 90.7219 89.9219 90.7226 89.9219L95.684 89.9413C95.9224 89.9421 96.115 90.1362 96.1141 90.3748C96.1133 90.6125 95.9199 90.8049 95.6822 90.8049Z" fill="black"/>
<path d="M118.742 90.8959C118.741 90.8959 118.741 90.8959 118.74 90.8959L98.5199 90.8168C98.2814 90.816 98.0889 90.6218 98.0898 90.3832C98.0906 90.1453 98.284 89.9531 98.5217 89.9531C98.5222 89.9531 98.5226 89.9531 98.5234 89.9531L118.743 90.0323C118.982 90.0331 119.174 90.2272 119.173 90.4657C119.172 90.7037 118.979 90.8959 118.742 90.8959Z" fill="black"/>
<path d="M105.78 95.0934C105.78 95.0934 105.779 95.0934 105.779 95.0934L90.7074 95.0344C90.469 95.0337 90.2764 94.8395 90.2773 94.6011C90.2783 94.3626 90.4543 94.1655 90.7109 94.171L105.782 94.23C106.021 94.2308 106.213 94.4249 106.212 94.6636C106.211 94.901 106.018 95.0934 105.78 95.0934Z" fill="black"/>
<path d="M118.726 95.1432C118.725 95.1432 118.725 95.1432 118.724 95.1432L108.614 95.1037C108.375 95.1029 108.183 94.9087 108.184 94.6703C108.184 94.4324 108.378 94.2402 108.615 94.2402C108.616 94.2402 108.616 94.2402 108.617 94.2402L118.727 94.2798C118.966 94.2806 119.158 94.4748 119.157 94.7134C119.156 94.951 118.963 95.1432 118.726 95.1432Z" fill="black"/>
<path d="M207.166 178.819C206.928 178.819 206.734 178.625 206.734 178.387C206.734 178.148 206.928 177.955 207.166 177.955L282.6 177.95C282.838 177.95 283.031 178.144 283.031 178.382C283.031 178.62 282.838 178.814 282.6 178.814L207.166 178.819Z" fill="#8C7BFF"/>
<path d="M284.869 181.059C283.38 181.059 282.168 179.847 282.168 178.358C282.168 176.868 283.38 175.656 284.869 175.656C286.359 175.656 287.571 176.868 287.571 178.358C287.571 179.847 286.359 181.059 284.869 181.059ZM284.869 176.52C283.856 176.52 283.032 177.344 283.032 178.358C283.032 179.371 283.856 180.196 284.869 180.196C285.883 180.196 286.707 179.371 286.707 178.358C286.707 177.344 285.883 176.52 284.869 176.52Z" fill="#8C7BFF"/>
<path d="M206.756 173.431C206.518 173.431 206.324 173.237 206.324 172.999C206.324 172.761 206.517 172.567 206.756 172.567L237.558 172.562C237.796 172.562 237.989 172.756 237.989 172.994C237.989 173.233 237.796 173.426 237.558 173.426L206.756 173.431Z" fill="#8C7BFF"/>
<path d="M239.827 175.671C238.337 175.671 237.125 174.459 237.125 172.97C237.125 171.481 238.337 170.269 239.827 170.269C241.316 170.269 242.528 171.481 242.528 172.97C242.528 174.459 241.316 175.671 239.827 175.671ZM239.827 171.132C238.813 171.132 237.989 171.956 237.989 172.97C237.989 173.983 238.813 174.808 239.827 174.808C240.84 174.808 241.665 173.983 241.665 172.97C241.665 171.956 240.84 171.132 239.827 171.132Z" fill="#8C7BFF"/>
<path d="M269.697 203.178C268.208 203.178 266.996 201.966 266.996 200.477C266.996 198.987 268.208 197.775 269.697 197.775C271.187 197.775 272.399 198.987 272.399 200.477C272.399 201.966 271.187 203.178 269.697 203.178ZM269.697 198.639C268.684 198.639 267.86 199.463 267.86 200.477C267.86 201.49 268.684 202.315 269.697 202.315C270.711 202.315 271.535 201.49 271.535 200.477C271.535 199.463 270.711 198.639 269.697 198.639Z" fill="#8C7BFF"/>
<path d="M268.095 199.304C267.985 199.304 267.874 199.262 267.79 199.178L251.555 182.942H205.225C204.986 182.942 204.793 182.748 204.793 182.51C204.793 182.271 204.986 182.078 205.225 182.078H251.733C251.848 182.078 251.958 182.124 252.039 182.205L268.401 198.567C268.569 198.736 268.569 199.009 268.401 199.178C268.316 199.262 268.206 199.304 268.095 199.304Z" fill="#8C7BFF"/>
<path d="M221.178 150.509H205.225C204.986 150.509 204.793 150.316 204.793 150.077C204.793 149.839 204.986 149.645 205.225 149.645H220.999L243.298 127.346V56.3928C243.298 56.1543 243.492 55.9609 243.73 55.9609C243.969 55.9609 244.162 56.1543 244.162 56.3928V127.525C244.162 127.639 244.116 127.749 244.035 127.83L221.483 150.382C221.402 150.463 221.293 150.509 221.178 150.509Z" fill="#8C7BFF"/>
<path d="M243.729 56.8748C242.239 56.8748 241.027 55.6629 241.027 54.1733C241.027 52.6837 242.239 51.4717 243.729 51.4717C245.218 51.4717 246.43 52.6837 246.43 54.1733C246.43 55.6629 245.218 56.8748 243.729 56.8748ZM243.729 52.3355C242.715 52.3355 241.891 53.16 241.891 54.1735C241.891 55.187 242.715 56.0114 243.729 56.0114C244.742 56.0114 245.567 55.187 245.567 54.1735C245.567 53.1598 244.742 52.3355 243.729 52.3355Z" fill="#8C7BFF"/>
<path d="M204.764 145.361C204.653 145.361 204.543 145.319 204.459 145.234C204.29 145.066 204.29 144.792 204.459 144.624L225.02 124.062C225.189 123.893 225.462 123.893 225.631 124.062C225.8 124.231 225.8 124.504 225.631 124.673L205.069 145.234C204.985 145.319 204.874 145.361 204.764 145.361Z" fill="#8C7BFF"/>
<path d="M226.913 125.243C225.423 125.243 224.211 124.031 224.211 122.541C224.211 121.052 225.423 119.84 226.913 119.84C228.402 119.84 229.614 121.052 229.614 122.541C229.614 124.031 228.402 125.243 226.913 125.243ZM226.913 120.703C225.899 120.703 225.075 121.528 225.075 122.541C225.075 123.555 225.899 124.379 226.913 124.379C227.926 124.379 228.75 123.555 228.75 122.541C228.75 121.528 227.926 120.703 226.913 120.703Z" fill="#8C7BFF"/>
<path d="M247.639 156.465H207.334C207.096 156.465 206.902 156.271 206.902 156.033C206.902 155.794 207.096 155.601 207.334 155.601H247.461L259.212 143.849V4.99334C259.212 4.7549 259.406 4.56152 259.644 4.56152C259.883 4.56152 260.076 4.7549 260.076 4.99334V144.028C260.076 144.142 260.031 144.252 259.95 144.333L247.945 156.338C247.864 156.419 247.754 156.465 247.639 156.465Z" fill="#8C7BFF"/>
<path d="M259.643 5.42619C258.153 5.42619 256.941 4.21441 256.941 2.72481C256.941 1.23522 258.153 0.0234375 259.643 0.0234375C261.132 0.0234375 262.344 1.23541 262.344 2.72481C262.344 4.21422 261.132 5.42619 259.643 5.42619ZM259.643 0.887061C258.629 0.887061 257.805 1.71151 257.805 2.72501C257.805 3.73832 258.629 4.56277 259.643 4.56277C260.656 4.56277 261.481 3.73832 261.481 2.72501C261.481 1.71151 260.656 0.887061 259.643 0.887061Z" fill="#8C7BFF"/>
<path d="M80.4041 178.819C80.6424 178.819 80.8359 178.625 80.8359 178.387C80.8359 178.148 80.6428 177.955 80.4041 177.955L4.97067 177.95C4.73243 177.95 4.53884 178.144 4.53884 178.382C4.53884 178.62 4.73204 178.814 4.97067 178.814L80.4041 178.819Z" fill="#8C7BFF"/>
<path d="M2.70095 181.059C4.19035 181.059 5.40234 179.847 5.40234 178.358C5.40234 176.868 4.19035 175.656 2.70095 175.656C1.21115 175.656 -0.000781536 176.868 -0.000781536 178.358C-0.000781536 179.847 1.21135 181.059 2.70095 181.059ZM2.70095 176.52C3.71426 176.52 4.53873 177.344 4.53873 178.358C4.53873 179.371 3.71426 180.196 2.70095 180.196C1.68725 180.196 0.862836 179.371 0.862836 178.358C0.863032 177.344 1.68725 176.52 2.70095 176.52Z" fill="#8C7BFF"/>
<path d="M80.8143 173.431C81.0525 173.431 81.2461 173.237 81.2461 172.999C81.2461 172.761 81.0529 172.567 80.8143 172.567L50.0127 172.562C49.7745 172.562 49.5809 172.756 49.5809 172.994C49.5809 173.233 49.7741 173.426 50.0127 173.426L80.8143 173.431Z" fill="#8C7BFF"/>
<path d="M47.7435 175.671C49.2333 175.671 50.4453 174.459 50.4453 172.97C50.4453 171.481 49.2333 170.269 47.7435 170.269C46.2541 170.269 45.0424 171.481 45.0424 172.97C45.0424 174.459 46.2541 175.671 47.7435 175.671ZM47.7435 171.132C48.7572 171.132 49.5817 171.956 49.5817 172.97C49.5817 173.983 48.7572 174.808 47.7435 174.808C46.7302 174.808 45.9058 173.983 45.9058 172.97C45.9058 171.956 46.7302 171.132 47.7435 171.132Z" fill="#8C7BFF"/>
<path d="M17.8731 203.178C19.3625 203.178 20.5742 201.966 20.5742 200.477C20.5742 198.987 19.3623 197.775 17.8731 197.775C16.3833 197.775 15.1713 198.987 15.1713 200.477C15.1713 201.966 16.3833 203.178 17.8731 203.178ZM17.8731 198.639C18.8864 198.639 19.7108 199.463 19.7108 200.477C19.7108 201.49 18.8864 202.315 17.8731 202.315C16.8594 202.315 16.0349 201.49 16.0349 200.477C16.0349 199.463 16.8594 198.639 17.8731 198.639Z" fill="#8C7BFF"/>
<path d="M19.475 199.304C19.5855 199.304 19.696 199.262 19.7803 199.178L36.0158 182.942H82.3455C82.5842 182.942 82.7773 182.748 82.7773 182.51C82.7773 182.271 82.5842 182.078 82.3455 182.078H35.8369C35.7223 182.078 35.6126 182.124 35.5317 182.205L19.1698 198.567C19.0011 198.736 19.0011 199.009 19.1698 199.178C19.254 199.262 19.3645 199.304 19.475 199.304Z" fill="#8C7BFF"/>
<path d="M66.3922 150.509H82.3455C82.5842 150.509 82.7773 150.316 82.7773 150.077C82.7773 149.839 82.5842 149.645 82.3455 149.645H66.5711L44.2719 127.346V56.3928C44.2719 56.1543 44.0788 55.9609 43.8401 55.9609C43.6015 55.9609 43.4083 56.1543 43.4083 56.3928V127.525C43.4083 127.639 43.454 127.749 43.5349 127.83L66.0871 150.382C66.1678 150.463 66.2773 150.509 66.3922 150.509Z" fill="#8C7BFF"/>
<path d="M43.8418 56.8748C45.3312 56.8748 46.543 55.6629 46.543 54.1733C46.543 52.6837 45.331 51.4717 43.8418 51.4717C42.352 51.4717 41.14 52.6837 41.14 54.1733C41.14 55.6629 42.352 56.8748 43.8418 56.8748ZM43.8418 52.3355C44.8551 52.3355 45.6795 53.16 45.6795 54.1735C45.6795 55.187 44.8551 56.0114 43.8418 56.0114C42.8281 56.0114 42.0036 55.187 42.0036 54.1735C42.0036 53.1598 42.8281 52.3355 43.8418 52.3355Z" fill="#8C7BFF"/>
<path d="M82.8065 145.361C82.917 145.361 83.0275 145.319 83.1118 145.234C83.2805 145.066 83.2805 144.792 83.1118 144.624L62.5499 124.062C62.3812 123.893 62.1079 123.893 61.9394 124.062C61.7707 124.231 61.7707 124.504 61.9394 124.673L82.5013 145.234C82.5855 145.319 82.696 145.361 82.8065 145.361Z" fill="#8C7BFF"/>
<path d="M60.6576 125.243C62.1474 125.243 63.3594 124.031 63.3594 122.541C63.3594 121.052 62.1474 119.84 60.6576 119.84C59.1682 119.84 57.9564 121.052 57.9564 122.541C57.9564 124.031 59.1682 125.243 60.6576 125.243ZM60.6576 120.703C61.6713 120.703 62.4957 121.528 62.4957 122.541C62.4957 123.555 61.6713 124.379 60.6576 124.379C59.6443 124.379 58.8198 123.555 58.8198 122.541C58.8198 121.528 59.6443 120.703 60.6576 120.703Z" fill="#8C7BFF"/>
<path d="M39.9308 156.465H80.2362C80.4748 156.465 80.668 156.271 80.668 156.033C80.668 155.794 80.4748 155.601 80.2362 155.601H40.1097L28.3579 143.849V4.99334C28.3579 4.7549 28.1647 4.56152 27.926 4.56152C27.6874 4.56152 27.4942 4.7549 27.4942 4.99334V144.028C27.4942 144.142 27.5397 144.252 27.6208 144.333L39.6256 156.338C39.7065 156.419 39.816 156.465 39.9308 156.465Z" fill="#8C7BFF"/>
<path d="M27.9277 5.42619C29.4171 5.42619 30.6289 4.21441 30.6289 2.72481C30.6289 1.23522 29.4169 0.0234375 27.9277 0.0234375C26.4379 0.0234375 25.226 1.23541 25.226 2.72481C25.226 4.21422 26.4379 5.42619 27.9277 5.42619ZM27.9277 0.887061C28.941 0.887061 29.7655 1.71151 29.7655 2.72501C29.7655 3.73832 28.941 4.56277 27.9277 4.56277C26.914 4.56277 26.0896 3.73832 26.0896 2.72501C26.0896 1.71151 26.914 0.887061 27.9277 0.887061Z" fill="#8C7BFF"/>
<path d="M164.324 153.617H118.853C114.279 153.617 110.57 157.325 110.57 161.9V207.371C110.57 211.945 114.278 215.653 118.853 215.653H164.324C168.898 215.653 172.606 211.945 172.606 207.371V161.9C172.606 157.325 168.898 153.617 164.324 153.617Z" fill="#8C7BFF"/>
<path d="M143.641 191.521H131.537L128.819 199.08H124.891L135.922 170.191H139.255L150.307 199.08H146.398L143.641 191.521ZM132.688 188.406H142.51L137.589 174.894L132.688 188.406Z" fill="white"/>
<path d="M158.282 199.08H154.473V170.191H158.282V199.08Z" fill="white"/>
<path d="M164.326 216.085H118.855C114.05 216.085 110.141 212.176 110.141 207.371V161.9C110.141 157.095 114.05 153.186 118.855 153.186H164.326C169.131 153.186 173.04 157.095 173.04 161.9V207.371C173.04 212.176 169.131 216.085 164.326 216.085ZM118.855 154.049C114.526 154.049 111.004 157.571 111.004 161.9V207.371C111.004 211.7 114.526 215.221 118.855 215.221H164.326C168.655 215.221 172.177 211.7 172.177 207.371V161.9C172.177 157.571 168.655 154.049 164.326 154.049H118.855Z" fill="black"/>
<path d="M143.901 248.938C143.662 248.938 143.469 248.745 143.469 248.506V234.989C143.469 234.751 143.662 234.558 143.901 234.558C144.139 234.558 144.332 234.751 144.332 234.989V248.506C144.332 248.745 144.139 248.938 143.901 248.938Z" fill="black"/>
<path d="M203.472 264.484C203.233 264.484 203.04 264.29 203.04 264.052V248.939H87.9691V256.955C87.9691 257.194 87.7757 257.387 87.5373 257.387C87.2988 257.387 87.1055 257.194 87.1055 256.955V248.075H203.904V264.052C203.904 264.29 203.711 264.484 203.472 264.484Z" fill="black"/>
<path d="M71.7734 300.883L100.205 300.994L100.335 262.208L79.3889 262.126L71.8782 269.595L71.7734 300.883Z" fill="white"/>
<path d="M71.8828 269.595L79.3682 269.624L79.3933 262.147L71.8828 269.595Z" fill="white"/>
<path d="M100.207 301.426C100.207 301.426 100.206 301.426 100.205 301.426L71.7738 301.315C71.5354 301.314 71.3428 301.12 71.3438 300.882L71.4488 269.593C71.4492 269.479 71.495 269.369 71.5761 269.288L79.0866 261.82C79.1679 261.739 79.2855 261.709 79.3928 261.694L100.339 261.776C100.577 261.777 100.77 261.971 100.769 262.209L100.639 300.996C100.639 301.11 100.593 301.22 100.511 301.301C100.431 301.381 100.321 301.426 100.207 301.426ZM72.2088 300.453L99.7766 300.561L99.904 262.638L79.5686 262.559L72.3116 269.775L72.2088 300.453Z" fill="black"/>
<path d="M79.3704 270.056C79.3698 270.056 79.3694 270.056 79.3687 270.056L71.8833 270.027C71.7087 270.026 71.5516 269.92 71.4853 269.758C71.4191 269.597 71.4569 269.411 71.581 269.288L79.0914 261.841C79.2155 261.718 79.4014 261.682 79.5622 261.749C79.7233 261.817 79.8279 261.974 79.8273 262.149L79.8022 269.626C79.8018 269.74 79.7558 269.85 79.6747 269.93C79.5936 270.011 79.4843 270.056 79.3704 270.056ZM72.9295 269.167L78.94 269.191L78.96 263.187L72.9295 269.167Z" fill="black"/>
<path d="M78.6232 272.297C78.3854 272.297 78.1922 272.105 78.1914 271.867C78.1906 271.628 78.383 271.434 78.6215 271.433L88.0763 271.397C88.0769 271.397 88.0775 271.397 88.0781 271.397C88.3159 271.397 88.5091 271.59 88.5099 271.828C88.5106 272.066 88.3183 272.26 88.0798 272.261L78.625 272.297C78.6244 272.297 78.6238 272.297 78.6232 272.297Z" fill="black"/>
<path d="M96.9937 272.296C96.9932 272.296 96.9928 272.296 96.992 272.296L90.2816 272.27C90.0432 272.269 89.8506 272.075 89.8516 271.836C89.8523 271.598 90.0308 271.42 90.2851 271.406L96.9955 271.432C97.2339 271.433 97.4265 271.627 97.4256 271.866C97.4246 272.104 97.2314 272.296 96.9937 272.296Z" fill="black"/>
<path d="M96.9828 275.602C96.9822 275.602 96.9818 275.602 96.9811 275.602L85.4261 275.557C85.1877 275.556 84.9951 275.362 84.9961 275.123C84.9967 274.885 85.1867 274.676 85.4297 274.693L96.9846 274.739C97.223 274.739 97.4156 274.934 97.4146 275.172C97.4137 275.41 97.2203 275.602 96.9828 275.602Z" fill="black"/>
<path d="M81.8046 278.849C81.8041 278.849 81.8037 278.849 81.8029 278.849L75.1644 278.824C74.926 278.823 74.7334 278.629 74.7344 278.39C74.7352 278.152 74.9286 277.96 75.1662 277.96C75.1668 277.96 75.1672 277.96 75.168 277.96L81.8064 277.986C82.0448 277.987 82.2374 278.181 82.2364 278.419C82.2357 278.657 82.0423 278.849 81.8046 278.849Z" fill="black"/>
<path d="M91.0702 278.884C91.0696 278.884 91.0693 278.884 91.0685 278.884L84.0043 278.857C83.7658 278.856 83.5732 278.662 83.5742 278.423C83.575 278.185 83.7684 277.993 84.0061 277.993C84.0066 277.993 84.007 277.993 84.0078 277.993L91.072 278.021C91.3104 278.022 91.503 278.216 91.502 278.454C91.5012 278.692 91.3079 278.884 91.0702 278.884Z" fill="black"/>
<path d="M96.9704 278.908C96.9699 278.908 96.9695 278.908 96.9687 278.908L93.2777 278.894C93.0393 278.893 92.8467 278.699 92.8477 278.461C92.8484 278.222 93.0475 278.011 93.281 278.03L96.972 278.045C97.2104 278.046 97.403 278.24 97.4021 278.478C97.4013 278.716 97.2081 278.908 96.9704 278.908Z" fill="black"/>
<path d="M91.0429 288.815C91.0423 288.815 91.0419 288.815 91.0411 288.815L83.9769 288.787C83.7385 288.787 83.5459 288.593 83.5469 288.354C83.5477 288.116 83.741 287.924 83.9787 287.924C83.9793 287.924 83.9797 287.924 83.9805 287.924L91.0446 287.951C91.2831 287.952 91.4757 288.146 91.4747 288.385C91.4739 288.623 91.2805 288.815 91.0429 288.815Z" fill="black"/>
<path d="M96.9353 288.839C96.9347 288.839 96.9343 288.839 96.9335 288.839L93.2425 288.825C93.0041 288.824 92.8115 288.63 92.8125 288.391C92.8133 288.153 93.0067 287.961 93.2443 287.961C93.2449 287.961 93.2453 287.961 93.2461 287.961L96.9371 287.975C97.1755 287.976 97.3681 288.17 97.3671 288.409C97.3661 288.646 97.1728 288.839 96.9353 288.839Z" fill="black"/>
<path d="M79.0159 282.144C79.0153 282.144 79.0149 282.144 79.0141 282.144L75.1527 282.129C74.9143 282.128 74.7217 281.934 74.7227 281.696C74.7234 281.458 74.9168 281.266 75.1545 281.266C75.1551 281.266 75.1555 281.266 75.1562 281.266L79.0177 281.281C79.2561 281.282 79.4487 281.476 79.4477 281.714C79.4467 281.952 79.2534 282.144 79.0159 282.144Z" fill="black"/>
<path d="M96.9593 282.214C96.9587 282.214 96.9584 282.214 96.9576 282.214L81.2191 282.152C80.9807 282.152 80.7881 281.958 80.7891 281.719C80.7898 281.481 80.9832 281.289 81.2209 281.289C81.2215 281.289 81.2219 281.289 81.2226 281.289L96.9611 281.35C97.1995 281.351 97.3921 281.545 97.3911 281.784C97.3902 282.022 97.197 282.214 96.9593 282.214Z" fill="black"/>
<path d="M86.8736 285.481C86.873 285.481 86.8726 285.481 86.8718 285.481L75.141 285.435C74.9025 285.434 74.71 285.24 74.7109 285.001C74.7117 284.764 74.9051 284.571 75.1428 284.571C75.1433 284.571 75.1437 284.571 75.1445 284.571L86.8754 284.617C87.1138 284.618 87.3064 284.812 87.3054 285.051C87.3046 285.289 87.1113 285.481 86.8736 285.481Z" fill="black"/>
<path d="M96.9497 285.52C96.9491 285.52 96.9487 285.52 96.9479 285.52L89.0785 285.49C88.8401 285.489 88.6475 285.295 88.6484 285.056C88.6492 284.818 88.8426 284.626 89.0803 284.626C89.0808 284.626 89.0812 284.626 89.082 284.626L96.9514 284.657C97.1899 284.658 97.3825 284.852 97.3815 285.09C97.3805 285.328 97.1873 285.52 96.9497 285.52Z" fill="black"/>
<path d="M52.6094 357.907L81.0408 358.018L81.171 319.231L60.2249 319.149L52.7144 326.618L52.6094 357.907Z" fill="white"/>
<path d="M52.7188 326.618L60.204 326.647L60.229 319.171L52.7188 326.618Z" fill="white"/>
<path d="M81.043 358.45C81.0424 358.45 81.042 358.45 81.0412 358.45L52.6097 358.339C52.3713 358.338 52.1787 358.144 52.1797 357.905L52.2845 326.617C52.2849 326.502 52.3307 326.393 52.4119 326.312L59.9226 318.844C60.0041 318.763 60.1344 318.713 60.2288 318.718L81.1748 318.8C81.4133 318.801 81.6059 318.995 81.6049 319.233L81.4748 358.02C81.4744 358.134 81.4286 358.244 81.3472 358.324C81.2663 358.405 81.157 358.45 81.043 358.45ZM53.0449 357.477L80.6128 357.584L80.7399 319.662L60.4047 319.582L53.1475 326.798L53.0449 357.477Z" fill="black"/>
<path d="M60.2064 327.079C60.2058 327.079 60.2054 327.079 60.2046 327.079L52.7192 327.05C52.5446 327.049 52.3875 326.944 52.3213 326.782C52.2551 326.62 52.2929 326.435 52.4167 326.311L59.9272 318.864C60.0516 318.741 60.2371 318.706 60.398 318.773C60.559 318.84 60.6637 318.998 60.6631 319.172L60.638 326.649C60.6376 326.763 60.5916 326.873 60.5104 326.954C60.4297 327.034 60.3202 327.079 60.2064 327.079ZM53.7654 326.19L59.7759 326.214L59.7959 320.21L53.7654 326.19Z" fill="black"/>
<path d="M59.4592 329.321C59.2213 329.321 59.0281 329.129 59.0273 328.891C59.0266 328.653 59.2189 328.459 59.4574 328.458L68.9122 328.422C68.9128 328.422 68.9134 328.422 68.914 328.422C69.1518 328.422 69.345 328.614 69.3458 328.852C69.3466 329.09 69.1542 329.285 68.9157 329.285L59.4609 329.321C59.4601 329.321 59.4595 329.321 59.4592 329.321Z" fill="black"/>
<path d="M77.8297 329.32C77.8291 329.32 77.8287 329.32 77.8279 329.32L71.1175 329.294C70.8791 329.293 70.6865 329.099 70.6875 328.861C70.6883 328.622 70.8948 328.441 71.1211 328.431L77.8314 328.457C78.0699 328.457 78.2624 328.652 78.2615 328.89C78.2607 329.128 78.0673 329.32 77.8297 329.32Z" fill="black"/>
<path d="M77.819 332.627C77.8184 332.627 77.818 332.627 77.8172 332.627L66.2621 332.581C66.0236 332.581 65.8311 332.386 65.832 332.148C65.8328 331.91 66.0262 331.718 66.2638 331.718C66.2644 331.718 66.2648 331.718 66.2656 331.718L77.8207 331.763C78.0592 331.764 78.2517 331.958 78.2508 332.197C78.25 332.434 78.0566 332.627 77.819 332.627Z" fill="black"/>
<path d="M62.6406 335.874C62.64 335.874 62.6396 335.874 62.6388 335.874L56.0004 335.848C55.7619 335.847 55.5693 335.653 55.5703 335.414C55.5711 335.177 55.7645 334.984 56.0021 334.984C56.0027 334.984 56.0031 334.984 56.0039 334.984L62.6423 335.01C62.8808 335.011 63.0734 335.205 63.0724 335.444C63.0716 335.681 62.8782 335.874 62.6406 335.874Z" fill="black"/>
<path d="M71.9062 335.909C71.9056 335.909 71.9052 335.909 71.9044 335.909L64.8402 335.881C64.6018 335.88 64.4092 335.686 64.4102 335.448C64.4109 335.209 64.6173 335.032 64.8437 335.018L71.9079 335.045C72.1463 335.046 72.3389 335.24 72.338 335.479C72.337 335.717 72.1436 335.909 71.9062 335.909Z" fill="black"/>
<path d="M77.8062 335.933C77.8056 335.933 77.8052 335.933 77.8044 335.933L74.1136 335.918C73.8752 335.918 73.6826 335.723 73.6836 335.485C73.6844 335.247 73.8778 335.055 74.1154 335.055C74.116 335.055 74.1164 335.055 74.1172 335.055L77.808 335.069C78.0464 335.07 78.239 335.264 78.238 335.503C78.2372 335.74 78.0438 335.933 77.8062 335.933Z" fill="black"/>
<path d="M71.8788 345.839C71.8782 345.839 71.8778 345.839 71.877 345.839L64.8129 345.812C64.5744 345.811 64.3818 345.617 64.3828 345.378C64.3836 345.14 64.577 344.948 64.8146 344.948C64.8152 344.948 64.8156 344.948 64.8164 344.948L71.8806 344.976C72.119 344.977 72.3116 345.171 72.3106 345.409C72.3096 345.647 72.1163 345.839 71.8788 345.839Z" fill="black"/>
<path d="M77.7712 345.863C77.7706 345.863 77.7703 345.863 77.7695 345.863L74.0785 345.849C73.8401 345.848 73.6475 345.654 73.6484 345.415C73.6492 345.178 73.8426 344.985 74.0803 344.985C74.0808 344.985 74.0812 344.985 74.082 344.985L77.773 345C78.0114 345 78.204 345.195 78.2031 345.433C78.2023 345.671 78.0089 345.863 77.7712 345.863Z" fill="black"/>
<path d="M59.8518 339.169C59.8513 339.169 59.8509 339.169 59.8501 339.169L55.9886 339.153C55.7502 339.153 55.5576 338.958 55.5586 338.72C55.5594 338.482 55.7528 338.29 55.9904 338.29C55.991 338.29 55.9914 338.29 55.9922 338.29L59.8536 338.305C60.092 338.306 60.2847 338.5 60.2837 338.739C60.2829 338.976 60.0895 339.169 59.8518 339.169Z" fill="black"/>
<path d="M77.7952 339.239C77.7947 339.239 77.7943 339.239 77.7935 339.239L62.055 339.177C61.8166 339.176 61.624 338.982 61.625 338.744C61.6258 338.506 61.8192 338.313 62.0568 338.313C62.0574 338.313 62.0578 338.313 62.0586 338.313L77.797 338.375C78.0355 338.376 78.228 338.57 78.2271 338.809C78.2263 339.046 78.0329 339.239 77.7952 339.239Z" fill="black"/>
<path d="M67.7095 342.505C67.709 342.505 67.7086 342.505 67.7078 342.505L55.9769 342.459C55.7385 342.459 55.5459 342.264 55.5469 342.026C55.5477 341.788 55.741 341.596 55.9787 341.596C55.9793 341.596 55.9797 341.596 55.9805 341.596L67.7113 341.642C67.9497 341.642 68.1423 341.837 68.1413 342.075C68.1404 342.313 67.9472 342.505 67.7095 342.505Z" fill="black"/>
<path d="M77.7854 342.545C77.7848 342.545 77.7845 342.545 77.7837 342.545L69.9144 342.514C69.676 342.513 69.4834 342.319 69.4844 342.08C69.4852 341.843 69.6786 341.65 69.9162 341.65C69.9168 341.65 69.9172 341.65 69.918 341.65L77.7872 341.681C78.0256 341.682 78.2182 341.876 78.2172 342.115C78.2164 342.352 78.0231 342.545 77.7854 342.545Z" fill="black"/>
<path d="M90.9375 357.907L119.369 358.018L119.499 319.231L98.553 319.149L91.0423 326.618L90.9375 357.907Z" fill="white"/>
<path d="M91.0469 326.618L98.5323 326.647L98.5574 319.171L91.0469 326.618Z" fill="white"/>
<path d="M119.371 358.449C119.371 358.449 119.37 358.449 119.369 358.449L90.9379 358.338C90.6994 358.338 90.5068 358.144 90.5078 357.905L90.6126 326.616C90.613 326.502 90.6589 326.392 90.74 326.312L98.2505 318.843C98.3318 318.763 98.4474 318.721 98.5567 318.718L119.503 318.8C119.741 318.8 119.934 318.994 119.933 319.233L119.803 358.019C119.803 358.134 119.757 358.244 119.675 358.324C119.595 358.404 119.485 358.449 119.371 358.449ZM91.373 357.476L118.941 357.584L119.068 319.661L98.7326 319.582L91.4759 326.798L91.373 357.476Z" fill="black"/>
<path d="M98.5347 327.079C98.5343 327.079 98.5335 327.079 98.5329 327.079L91.0473 327.05C90.8728 327.049 90.7156 326.944 90.6494 326.782C90.5832 326.62 90.621 326.435 90.7448 326.312L98.2553 318.864C98.3797 318.742 98.566 318.705 98.7259 318.773C98.887 318.84 98.9916 318.998 98.9912 319.172L98.9663 326.649C98.9659 326.763 98.9199 326.873 98.8386 326.954C98.7583 327.034 98.6485 327.079 98.5347 327.079ZM92.0936 326.19L98.1041 326.214L98.1243 320.21L92.0936 326.19Z" fill="black"/>
<path d="M97.7873 329.321C97.5494 329.321 97.3563 329.129 97.3555 328.891C97.3547 328.653 97.5471 328.459 97.7855 328.458L107.24 328.422C107.241 328.422 107.242 328.422 107.242 328.422C107.48 328.422 107.673 328.614 107.674 328.852C107.675 329.09 107.482 329.285 107.244 329.285L97.789 329.321C97.7887 329.321 97.7877 329.321 97.7873 329.321Z" fill="black"/>
<path d="M116.158 329.32C116.157 329.32 116.156 329.32 116.156 329.32L109.446 329.294C109.207 329.293 109.015 329.099 109.016 328.861C109.016 328.623 109.21 328.431 109.447 328.431C109.448 328.431 109.449 328.431 109.449 328.431L116.159 328.457C116.398 328.457 116.59 328.652 116.589 328.89C116.589 329.128 116.395 329.32 116.158 329.32Z" fill="black"/>
<path d="M116.147 332.627C116.146 332.627 116.146 332.627 116.145 332.627L104.59 332.581C104.352 332.581 104.159 332.386 104.16 332.148C104.161 331.91 104.354 331.718 104.592 331.718C104.592 331.718 104.593 331.718 104.594 331.718L116.148 331.763C116.387 331.764 116.579 331.958 116.578 332.197C116.578 332.434 116.385 332.627 116.147 332.627Z" fill="black"/>
<path d="M100.969 335.874C100.968 335.874 100.967 335.874 100.967 335.874L94.3285 335.848C94.0901 335.847 93.8975 335.653 93.8984 335.414C93.8992 335.177 94.0926 334.984 94.3303 334.984C94.3308 334.984 94.3312 334.984 94.332 334.984L100.97 335.01C101.209 335.011 101.401 335.205 101.4 335.444C101.399 335.681 101.206 335.874 100.969 335.874Z" fill="black"/>
<path d="M110.234 335.909C110.234 335.909 110.233 335.909 110.233 335.909L103.168 335.881C102.93 335.88 102.737 335.686 102.738 335.448C102.739 335.21 102.932 335.018 103.17 335.018C103.17 335.018 103.171 335.018 103.172 335.018L110.236 335.045C110.475 335.046 110.667 335.24 110.666 335.479C110.665 335.717 110.472 335.909 110.234 335.909Z" fill="black"/>
<path d="M116.135 335.933C116.134 335.933 116.133 335.933 116.133 335.933L112.442 335.918C112.203 335.918 112.011 335.723 112.012 335.485C112.013 335.247 112.206 335.055 112.444 335.055C112.444 335.055 112.445 335.055 112.445 335.055L116.136 335.069C116.375 335.07 116.567 335.264 116.566 335.503C116.566 335.74 116.372 335.933 116.135 335.933Z" fill="black"/>
<path d="M110.207 345.839C110.207 345.839 110.206 345.839 110.205 345.839L103.141 345.812C102.902 345.811 102.71 345.617 102.711 345.378C102.712 345.14 102.912 344.943 103.145 344.948L110.209 344.976C110.448 344.977 110.64 345.171 110.639 345.41C110.638 345.647 110.445 345.839 110.207 345.839Z" fill="black"/>
<path d="M116.099 345.863C116.099 345.863 116.098 345.863 116.098 345.863L112.407 345.849C112.168 345.848 111.976 345.654 111.977 345.415C111.977 345.178 112.171 344.985 112.408 344.985C112.409 344.985 112.41 344.985 112.41 344.985L116.101 345C116.34 345 116.532 345.195 116.531 345.433C116.53 345.671 116.337 345.863 116.099 345.863Z" fill="black"/>
<path d="M98.1802 339.169C98.1798 339.169 98.179 339.169 98.1784 339.169L94.3168 339.153C94.0783 339.153 93.8857 338.958 93.8867 338.72C93.8873 338.482 94.0785 338.289 94.3203 338.29L98.1821 338.305C98.4208 338.306 98.6132 338.5 98.6122 338.739C98.6112 338.976 98.418 339.169 98.1802 339.169Z" fill="black"/>
<path d="M116.123 339.239C116.123 339.239 116.122 339.239 116.121 339.239L100.383 339.177C100.145 339.176 99.9521 338.982 99.9531 338.744C99.9539 338.506 100.147 338.313 100.385 338.313C100.385 338.313 100.386 338.313 100.387 338.313L116.125 338.375C116.364 338.376 116.556 338.57 116.555 338.809C116.554 339.046 116.361 339.239 116.123 339.239Z" fill="black"/>
<path d="M106.037 342.505C106.037 342.505 106.036 342.505 106.036 342.505L94.305 342.459C94.0666 342.459 93.874 342.264 93.875 342.026C93.8758 341.788 94.0692 341.596 94.3068 341.596C94.3074 341.596 94.3078 341.596 94.3086 341.596L106.039 341.642C106.278 341.642 106.47 341.837 106.469 342.075C106.468 342.313 106.275 342.505 106.037 342.505Z" fill="black"/>
<path d="M116.114 342.545C116.113 342.545 116.113 342.545 116.112 342.545L108.243 342.514C108.004 342.513 107.812 342.319 107.813 342.08C107.813 341.843 108.006 341.65 108.244 341.65C108.245 341.65 108.245 341.65 108.246 341.65L116.115 341.681C116.354 341.682 116.547 341.876 116.546 342.115C116.545 342.352 116.352 342.545 116.114 342.545Z" fill="black"/>
<path d="M183.272 298.547L223.353 299.454L227.576 267.171L182.941 267.453L183.272 298.547Z" fill="#020202"/>
<path d="M182.956 269.293L195.408 269.214L194.568 264.404L182.926 264.478L182.956 269.293Z" fill="#020202"/>
<path d="M182.064 297.371L223.17 298.296L225.17 269.132L181.887 269.406L182.064 297.371Z" fill="white"/>
<path d="M180.812 268.297L191.488 268.229L192.515 271.6L223 271.407L223.178 299.493L181.012 299.76L180.843 273.112L180.812 268.297Z" fill="#BFABF2"/>
<path d="M181.013 300.192C180.9 300.192 180.791 300.148 180.71 300.068C180.629 299.988 180.583 299.878 180.582 299.763L180.383 268.301C180.381 268.062 180.573 267.868 180.812 267.866L191.487 267.799C191.667 267.807 191.847 267.922 191.902 268.105L192.836 271.167L223 270.976C223 270.976 223.001 270.976 223.002 270.976C223.116 270.976 223.225 271.021 223.305 271.101C223.387 271.181 223.433 271.291 223.434 271.406L223.611 299.491C223.613 299.729 223.421 299.924 223.182 299.926L181.016 300.193C181.015 300.192 181.014 300.192 181.013 300.192ZM181.249 268.727L181.442 299.326L222.745 299.065L222.573 271.843L192.519 272.033C192.519 272.033 192.518 272.033 192.517 272.033C192.327 272.033 192.159 271.909 192.104 271.727L191.17 268.665L181.249 268.727Z" fill="black"/>
<path d="M153.342 353.315L193.423 354.222L197.646 321.938L153.012 322.221L153.342 353.315Z" fill="#020202"/>
<path d="M153.027 324.06L165.478 323.981L164.639 319.172L152.996 319.246L153.027 324.06Z" fill="#020202"/>
<path d="M152.138 352.138L193.244 353.062L195.245 323.898L151.961 324.173L152.138 352.138Z" fill="white"/>
<path d="M150.887 323.065L161.562 322.997L162.589 326.368L193.074 326.175L193.252 354.26L151.086 354.527L150.917 327.879L150.887 323.065Z" fill="#BFABF2"/>
<path d="M151.088 354.957C150.975 354.957 150.866 354.913 150.785 354.833C150.703 354.753 150.657 354.643 150.656 354.528L150.457 323.066C150.456 322.952 150.501 322.841 150.581 322.76C150.662 322.678 150.772 322.632 150.886 322.631L161.562 322.564C161.744 322.556 161.922 322.687 161.977 322.87L162.911 325.933L193.074 325.742C193.075 325.742 193.076 325.742 193.076 325.742C193.314 325.742 193.506 325.933 193.508 326.171L193.686 354.256C193.687 354.371 193.642 354.481 193.562 354.562C193.481 354.644 193.371 354.69 193.257 354.691L151.091 354.958C151.09 354.957 151.089 354.957 151.088 354.957ZM151.323 323.492L151.517 354.091L192.82 353.83L192.648 326.607L162.594 326.798C162.411 326.796 162.234 326.674 162.179 326.492L161.245 323.429L151.323 323.492Z" fill="black"/>
<path d="M211.752 353.315L251.834 354.222L256.057 321.938L211.422 322.221L211.752 353.315Z" fill="#020202"/>
<path d="M211.437 324.06L223.888 323.981L223.049 319.172L211.406 319.246L211.437 324.06Z" fill="#020202"/>
<path d="M210.544 352.138L251.65 353.062L253.651 323.898L210.367 324.173L210.544 352.138Z" fill="white"/>
<path d="M209.293 323.065L219.968 322.997L220.995 326.368L251.481 326.175L251.658 354.26L209.492 354.527L209.324 327.879L209.293 323.065Z" fill="#BFABF2"/>
<path d="M209.494 354.957C209.381 354.957 209.272 354.913 209.191 354.833C209.109 354.753 209.064 354.643 209.063 354.528L208.863 323.066C208.863 322.952 208.908 322.841 208.988 322.76C209.068 322.678 209.178 322.632 209.293 322.631L219.968 322.564C220.164 322.556 220.327 322.687 220.384 322.87L221.317 325.933L251.48 325.742C251.481 325.742 251.482 325.742 251.483 325.742C251.72 325.742 251.913 325.933 251.914 326.171L252.092 354.256C252.093 354.371 252.048 354.481 251.968 354.562C251.887 354.644 251.778 354.69 251.663 354.691L209.497 354.958C209.496 354.957 209.495 354.957 209.494 354.957ZM209.73 323.492L209.924 354.091L251.226 353.83L251.054 326.607L221 326.798C220.999 326.798 220.998 326.798 220.997 326.798C220.808 326.798 220.64 326.674 220.584 326.492L219.651 323.429L209.73 323.492Z" fill="black"/>
<path d="M87.5412 310.159C87.3027 310.159 87.1094 309.965 87.1094 309.727V303.419C87.1094 303.181 87.3027 302.987 87.5412 302.987C87.7796 302.987 87.973 303.181 87.973 303.419V309.727C87.973 309.966 87.7796 310.159 87.5412 310.159Z" fill="black"/>
<path d="M106.677 316.918C106.438 316.918 106.245 316.725 106.245 316.486V310.159H70.3558V316.486C70.3558 316.725 70.1624 316.918 69.924 316.918C69.6856 316.918 69.4922 316.725 69.4922 316.486V309.296H107.108V316.486C107.109 316.725 106.915 316.918 106.677 316.918Z" fill="black"/>
<path d="M204.506 310.159C204.267 310.159 204.074 309.965 204.074 309.727V303.419C204.074 303.181 204.267 302.987 204.506 302.987C204.745 302.987 204.938 303.181 204.938 303.419V309.727C204.938 309.966 204.745 310.159 204.506 310.159Z" fill="black"/>
<path d="M235.932 319.582C235.694 319.582 235.501 319.388 235.501 319.15V310.159H175.028V319.15C175.028 319.388 174.835 319.582 174.596 319.582C174.357 319.582 174.164 319.388 174.164 319.15V309.296H236.364V319.15C236.364 319.388 236.171 319.582 235.932 319.582Z" fill="black"/>
</svg>
