<svg width="408" height="320" viewBox="0 0 408 320" fill="none" xmlns="http://www.w3.org/2000/svg">
<path d="M355.261 165.305C354.615 85.9525 289.764 22.1484 210.411 22.7944C131.059 23.4403 67.2547 88.2917 67.9007 167.644C68.5467 246.996 133.398 310.801 212.75 310.155C292.103 309.509 355.907 244.657 355.261 165.305Z" fill="#5EA7EF" fill-opacity="0.18"/>
<path d="M364.255 166.663C364.36 82.3459 296.093 13.9083 211.776 13.8032C127.46 13.698 59.0221 81.9651 58.9169 166.282C58.8118 250.599 127.079 319.036 211.396 319.142C295.713 319.247 364.15 250.98 364.255 166.663Z" stroke="#5EA7EF" stroke-width="0.449993" stroke-miterlimit="10"/>
<path d="M362.137 262.68H61.0312V85.9322C61.0312 79.7745 66.0235 74.7822 72.1812 74.7822H350.987C357.144 74.7822 362.137 79.7745 362.137 85.9322L362.137 262.68Z" fill="white"/>
<path d="M362.137 254.627H61.0312V262.681H362.137V254.627Z" fill="#DCECF4"/>
<path d="M357.579 258.311H65.5859V87.2503C65.5859 82.7774 69.212 79.1514 73.6849 79.1514H349.48C353.953 79.1514 357.579 82.7774 357.579 87.2503V258.311Z" fill="#E2F1FE"/>
<path d="M91.1977 258.311H65.5859V87.2503C65.5859 82.7774 69.212 79.1514 73.6849 79.1514H91.1977V258.311Z" fill="#578ACC"/>
<path d="M357.579 95.0928H65.5859V87.2503C65.5859 82.7774 69.212 79.1514 73.6849 79.1514H349.48C353.953 79.1514 357.579 82.7774 357.579 87.2503V95.0928Z" fill="#578ACC"/>
<path d="M358.549 273.751H64.6139C57.1449 273.751 50.7721 268.346 49.5518 260.978L49.4141 260.146H373.751L373.613 260.978C372.392 268.346 366.019 273.751 358.549 273.751Z" fill="white"/>
<path d="M370.404 260.146C368.309 266.201 362.576 270.413 355.984 270.413H62.0476C57.9085 270.413 54.1115 268.749 51.3359 266.016C53.9837 270.681 58.9867 273.751 64.6143 273.751H358.55C366.019 273.751 372.392 268.346 373.612 260.978L373.75 260.146H370.404V260.146Z" fill="#DCECF4"/>
<path d="M103.195 108.735H205.872" stroke="#54EAC3" stroke-width="0.969104" stroke-miterlimit="10" stroke-linecap="round"/>
<path d="M214.336 108.735H248.476" stroke="#54EAC3" stroke-width="0.969104" stroke-miterlimit="10" stroke-linecap="round"/>
<path d="M103.195 181.817H205.872" stroke="#69CDFF" stroke-width="0.969104" stroke-miterlimit="10" stroke-linecap="round"/>
<path d="M214.336 181.817H234.614" stroke="#69CDFF" stroke-width="0.969104" stroke-miterlimit="10" stroke-linecap="round"/>
<path d="M103.195 202.832H205.872" stroke="#54EAC3" stroke-width="0.969104" stroke-miterlimit="10" stroke-linecap="round"/>
<path d="M214.336 202.832H234.614" stroke="#54EAC3" stroke-width="0.969104" stroke-miterlimit="10" stroke-linecap="round"/>
<path d="M103.195 240.19H205.872" stroke="#69CDFF" stroke-width="0.969104" stroke-miterlimit="10" stroke-linecap="round"/>
<path d="M214.336 240.19H248.476" stroke="#69CDFF" stroke-width="0.969104" stroke-miterlimit="10" stroke-linecap="round"/>
<path d="M173.789 246.028H205.876" stroke="#54EAC3" stroke-width="0.969104" stroke-miterlimit="10" stroke-linecap="round"/>
<path d="M214.344 246.028H248.484" stroke="#54EAC3" stroke-width="0.969104" stroke-miterlimit="10" stroke-linecap="round"/>
<path d="M126.047 117.142H205.878" stroke="#69CDFF" stroke-width="0.969104" stroke-miterlimit="10" stroke-linecap="round"/>
<path d="M214.352 117.142H226.929" stroke="#69CDFF" stroke-width="0.969104" stroke-miterlimit="10" stroke-linecap="round"/>
<path d="M126.047 122.278H205.878" stroke="#69CDFF" stroke-width="0.969104" stroke-miterlimit="10" stroke-linecap="round"/>
<path d="M214.352 122.278H236.17" stroke="#69CDFF" stroke-width="0.969104" stroke-miterlimit="10" stroke-linecap="round"/>
<path d="M126.047 127.415H205.878" stroke="#54EAC3" stroke-width="0.969104" stroke-miterlimit="10" stroke-linecap="round"/>
<path d="M214.352 127.415H226.929" stroke="#54EAC3" stroke-width="0.969104" stroke-miterlimit="10" stroke-linecap="round"/>
<path d="M126.047 132.552H205.878" stroke="#69CDFF" stroke-width="0.969104" stroke-miterlimit="10" stroke-linecap="round"/>
<path d="M214.352 132.552H236.17" stroke="#69CDFF" stroke-width="0.969104" stroke-miterlimit="10" stroke-linecap="round"/>
<path d="M126.047 137.688H205.878" stroke="#69CDFF" stroke-width="0.969104" stroke-miterlimit="10" stroke-linecap="round"/>
<path d="M214.352 137.688H226.929" stroke="#69CDFF" stroke-width="0.969104" stroke-miterlimit="10" stroke-linecap="round"/>
<path d="M156.07 143.992H205.869" stroke="#69CDFF" stroke-width="0.969104" stroke-miterlimit="10" stroke-linecap="round"/>
<path d="M214.336 143.992H240.775" stroke="#69CDFF" stroke-width="0.969104" stroke-miterlimit="10" stroke-linecap="round"/>
<path d="M156.07 150.297H205.869" stroke="#69CDFF" stroke-width="0.969104" stroke-miterlimit="10" stroke-linecap="round"/>
<path d="M214.336 150.297H240.775" stroke="#69CDFF" stroke-width="0.969104" stroke-miterlimit="10" stroke-linecap="round"/>
<path d="M156.07 156.602H195.601" stroke="#69CDFF" stroke-width="0.969104" stroke-miterlimit="10" stroke-linecap="round"/>
<path d="M204.07 156.602H240.777" stroke="#69CDFF" stroke-width="0.969104" stroke-miterlimit="10" stroke-linecap="round"/>
<path d="M156.07 162.905H205.869" stroke="#69CDFF" stroke-width="0.969104" stroke-miterlimit="10" stroke-linecap="round"/>
<path d="M214.336 162.905H240.775" stroke="#69CDFF" stroke-width="0.969104" stroke-miterlimit="10" stroke-linecap="round"/>
<path d="M156.07 169.21H195.601" stroke="#69CDFF" stroke-width="0.969104" stroke-miterlimit="10" stroke-linecap="round"/>
<path d="M204.07 169.21H240.777" stroke="#69CDFF" stroke-width="0.969104" stroke-miterlimit="10" stroke-linecap="round"/>
<path d="M156.07 175.515H205.869" stroke="#69CDFF" stroke-width="0.969104" stroke-miterlimit="10" stroke-linecap="round"/>
<path d="M214.336 175.515H240.775" stroke="#69CDFF" stroke-width="0.969104" stroke-miterlimit="10" stroke-linecap="round"/>
<path d="M168.648 190.224H218.446" stroke="#69CDFF" stroke-width="0.969104" stroke-miterlimit="10" stroke-linecap="round"/>
<path d="M226.914 190.224H253.354" stroke="#69CDFF" stroke-width="0.969104" stroke-miterlimit="10" stroke-linecap="round"/>
<path d="M168.648 196.528H204.072" stroke="#69CDFF" stroke-width="0.969104" stroke-miterlimit="10" stroke-linecap="round"/>
<path d="M212.547 196.528H253.361" stroke="#69CDFF" stroke-width="0.969104" stroke-miterlimit="10" stroke-linecap="round"/>
<path d="M188.93 211.004H204.075" stroke="#69CDFF" stroke-width="0.969104" stroke-miterlimit="10" stroke-linecap="round"/>
<path d="M212.547 211.004H240.783" stroke="#69CDFF" stroke-width="0.969104" stroke-miterlimit="10" stroke-linecap="round"/>
<path d="M193.547 216.842H204.071" stroke="#69CDFF" stroke-width="0.969104" stroke-miterlimit="10" stroke-linecap="round"/>
<path d="M212.547 216.842H248.484" stroke="#69CDFF" stroke-width="0.969104" stroke-miterlimit="10" stroke-linecap="round"/>
<path d="M188.93 222.679H204.075" stroke="#54EAC3" stroke-width="0.969104" stroke-miterlimit="10" stroke-linecap="round"/>
<path d="M212.547 222.679H240.783" stroke="#54EAC3" stroke-width="0.969104" stroke-miterlimit="10" stroke-linecap="round"/>
<path d="M193.547 228.517H204.071" stroke="#69CDFF" stroke-width="0.969104" stroke-miterlimit="10" stroke-linecap="round"/>
<path d="M212.547 228.517H248.484" stroke="#69CDFF" stroke-width="0.969104" stroke-miterlimit="10" stroke-linecap="round"/>
<path d="M82.9647 108.734C82.9647 111.264 80.9137 113.314 78.3847 113.314C75.8558 113.314 73.8047 111.263 73.8047 108.734C73.8047 106.204 75.8549 104.154 78.3847 104.154C80.9146 104.154 82.9647 106.204 82.9647 108.734Z" fill="#26508C"/>
<path d="M81.3056 87.1226C81.3056 88.2925 80.358 89.2402 79.188 89.2402C78.018 89.2402 77.0703 88.2916 77.0703 87.1226C77.0703 85.9535 78.018 85.0049 79.188 85.0049C80.3571 85.0049 81.3056 85.9526 81.3056 87.1226Z" fill="#54EAC3"/>
<path d="M89.0713 87.1226C89.0713 88.2925 88.1236 89.2402 86.9536 89.2402C85.7845 89.2402 84.8359 88.2916 84.8359 87.1226C84.8359 85.9535 85.7845 85.0049 86.9536 85.0049C88.1227 85.0049 89.0713 85.9526 89.0713 87.1226Z" fill="#54EAC3"/>
<path d="M96.8369 87.1226C96.8369 88.2925 95.8892 89.2402 94.7192 89.2402C93.5492 89.2402 92.6016 88.2916 92.6016 87.1226C92.6016 85.9535 93.5501 85.0049 94.7192 85.0049C95.8892 85.0049 96.8369 85.9526 96.8369 87.1226Z" fill="#54EAC3"/>
<path d="M82.9647 126.858C82.9647 129.388 80.9137 131.438 78.3847 131.438C75.8558 131.438 73.8047 129.387 73.8047 126.858C73.8047 124.329 75.8549 122.278 78.3847 122.278C80.9146 122.278 82.9647 124.328 82.9647 126.858Z" fill="#26508C"/>
<path d="M78.3847 149.561C80.9142 149.561 82.9647 147.511 82.9647 144.981C82.9647 142.452 80.9142 140.401 78.3847 140.401C75.8552 140.401 73.8047 142.452 73.8047 144.981C73.8047 147.511 75.8552 149.561 78.3847 149.561Z" fill="#26508C"/>
<path d="M82.9647 163.105C82.9647 165.635 80.9137 167.685 78.3847 167.685C75.8558 167.685 73.8047 165.634 73.8047 163.105C73.8047 160.576 75.8549 158.525 78.3847 158.525C80.9146 158.525 82.9647 160.576 82.9647 163.105Z" fill="#26508C"/>
<path d="M82.9647 180.769C82.9647 183.299 80.9137 185.35 78.3847 185.35C75.8558 185.35 73.8047 183.298 73.8047 180.769C73.8047 178.241 75.8549 176.189 78.3847 176.189C80.9146 176.189 82.9647 178.24 82.9647 180.769Z" fill="#26508C"/>
<path d="M82.9647 202.359C82.9647 204.889 80.9137 206.939 78.3847 206.939C75.8558 206.939 73.8047 204.888 73.8047 202.359C73.8047 199.83 75.8549 197.779 78.3847 197.779C80.9146 197.779 82.9647 199.829 82.9647 202.359Z" fill="#26508C"/>
<path d="M82.9647 221.791C82.9647 224.321 80.9137 226.371 78.3847 226.371C75.8558 226.371 73.8047 224.32 73.8047 221.791C73.8047 219.262 75.8549 217.211 78.3847 217.211C80.9146 217.211 82.9647 219.261 82.9647 221.791Z" fill="#26508C"/>
<path d="M82.9647 241.223C82.9647 243.752 80.9137 245.803 78.3847 245.803C75.8558 245.803 73.8047 243.752 73.8047 241.223C73.8047 238.694 75.8549 236.643 78.3847 236.643C80.9146 236.643 82.9647 238.693 82.9647 241.223Z" fill="#26508C"/>
<path opacity="0.05" d="M327.757 190.758C371.594 190.758 407.131 155.221 407.131 111.384C407.131 67.5468 371.594 32.0098 327.757 32.0098C283.92 32.0098 248.383 67.5468 248.383 111.384C248.383 155.221 283.92 190.758 327.757 190.758Z" fill="white"/>
<path opacity="0.15" d="M327.765 184.993C368.418 184.993 401.374 152.037 401.374 111.384C401.374 70.7312 368.418 37.7754 327.765 37.7754C287.112 37.7754 254.156 70.7312 254.156 111.384C254.156 152.037 287.112 184.993 327.765 184.993Z" fill="white"/>
<path opacity="0.5" d="M387.021 125.403C394.749 92.6741 374.483 59.8775 341.754 52.1494C309.026 44.4212 276.229 64.6881 268.501 97.4166C260.773 130.145 281.04 162.942 313.768 170.67C346.497 178.398 379.293 158.131 387.021 125.403Z" fill="white"/>
<path d="M370.111 195.093H285.415C283.391 195.093 281.75 193.452 281.75 191.428V26.0417C281.75 24.0176 283.391 22.377 285.415 22.377H370.111C372.135 22.377 373.775 24.0176 373.775 26.0417V191.429C373.775 193.452 372.135 195.093 370.111 195.093Z" fill="#5492DD"/>
<path d="M367.646 192.069H287.885C285.955 192.069 284.391 190.504 284.391 188.574V28.896C284.391 26.9655 285.956 25.4014 287.885 25.4014H367.646C369.576 25.4014 371.14 26.9664 371.14 28.896V188.574C371.141 190.504 369.576 192.069 367.646 192.069Z" fill="white"/>
<path d="M341.292 27.487H314.226C313.229 27.487 312.422 26.6788 312.422 25.6825V24.4072H343.096V25.6825C343.096 26.6788 342.288 27.487 341.292 27.487Z" fill="#5492DD"/>
<path d="M321.422 25.4014H334.118" stroke="white" stroke-width="0.653659" stroke-miterlimit="10" stroke-linecap="round"/>
<path d="M55.2414 224.351V247.721C55.2414 248.752 54.4053 249.588 53.3739 249.588H37.8672" stroke="white" stroke-width="0.449993" stroke-miterlimit="10"/>
<path d="M55.2378 224.352C55.9128 224.352 56.46 223.804 56.46 223.129C56.46 222.454 55.9128 221.907 55.2378 221.907C54.5628 221.907 54.0156 222.454 54.0156 223.129C54.0156 223.804 54.5628 224.352 55.2378 224.352Z" stroke="white" stroke-width="0.449993" stroke-miterlimit="10"/>
<path d="M36.6441 250.811C37.319 250.811 37.8662 250.263 37.8662 249.588C37.8662 248.913 37.319 248.366 36.6441 248.366C35.9691 248.366 35.4219 248.913 35.4219 249.588C35.4219 250.263 35.9691 250.811 36.6441 250.811Z" stroke="white" stroke-width="0.449993" stroke-miterlimit="10"/>
<path d="M42.2144 264.211C42.8894 264.211 43.4365 263.664 43.4365 262.989C43.4365 262.314 42.8894 261.767 42.2144 261.767C41.5394 261.767 40.9922 262.314 40.9922 262.989C40.9922 263.664 41.5394 264.211 42.2144 264.211Z" stroke="white" stroke-width="0.449993" stroke-miterlimit="10"/>
<path d="M56.4644 253.937C57.1394 253.937 57.6866 253.389 57.6866 252.714C57.6866 252.039 57.1394 251.492 56.4644 251.492C55.7894 251.492 55.2422 252.039 55.2422 252.714C55.2422 253.389 55.7894 253.937 56.4644 253.937Z" stroke="white" stroke-width="0.449993" stroke-miterlimit="10"/>
<path d="M55.2391 252.715H44.0784C43.047 252.715 42.2109 253.551 42.2109 254.582V261.923" stroke="white" stroke-width="0.449993" stroke-miterlimit="10"/>
<path d="M80.8081 70.9082C81.4831 70.9082 82.0303 70.361 82.0303 69.686C82.0303 69.0111 81.4831 68.4639 80.8081 68.4639C80.1331 68.4639 79.5859 69.0111 79.5859 69.686C79.5859 70.361 80.1331 70.9082 80.8081 70.9082Z" stroke="white" stroke-width="0.449993" stroke-miterlimit="10"/>
<path d="M136.194 69.686C136.194 70.361 135.647 70.9082 134.972 70.9082C134.297 70.9082 133.75 70.361 133.75 69.686C133.75 69.0111 134.297 68.4639 134.972 68.4639C135.647 68.4639 136.194 69.0111 136.194 69.686Z" stroke="white" stroke-width="0.449993" stroke-miterlimit="10"/>
<path d="M133.744 69.6865H81.9375" stroke="white" stroke-width="0.449993" stroke-miterlimit="10"/>
<path d="M303.519 18.1973C304.194 18.1973 304.741 17.6501 304.741 16.9751C304.741 16.3001 304.194 15.7529 303.519 15.7529C302.844 15.7529 302.297 16.3001 302.297 16.9751C302.297 17.6501 302.844 18.1973 303.519 18.1973Z" stroke="white" stroke-width="0.449993" stroke-miterlimit="10"/>
<path d="M311.655 16.9751C311.655 17.6501 311.108 18.1973 310.433 18.1973C309.758 18.1973 309.211 17.6501 309.211 16.9751C309.211 16.3001 309.758 15.7529 310.433 15.7529C311.109 15.7529 311.655 16.3001 311.655 16.9751Z" stroke="white" stroke-width="0.449993" stroke-miterlimit="10"/>
<path d="M277.055 48.125V21.2955C277.055 18.9097 278.989 16.9756 281.375 16.9756H302.292" stroke="white" stroke-width="0.449993" stroke-miterlimit="10"/>
<path d="M311.656 16.9756H330.464" stroke="white" stroke-width="0.449993" stroke-miterlimit="10"/>
<path d="M280.527 279.288C281.202 279.288 281.749 278.741 281.749 278.066C281.749 277.391 281.202 276.844 280.527 276.844C279.852 276.844 279.305 277.391 279.305 278.066C279.305 278.741 279.852 279.288 280.527 279.288Z" stroke="white" stroke-width="0.449993" stroke-miterlimit="10"/>
<path d="M359.425 279.288C360.1 279.288 360.647 278.741 360.647 278.066C360.647 277.391 360.1 276.844 359.425 276.844C358.75 276.844 358.203 277.391 358.203 278.066C358.203 278.741 358.75 279.288 359.425 279.288Z" stroke="white" stroke-width="0.449993" stroke-miterlimit="10"/>
<path d="M281.75 278.066H358.204" stroke="white" stroke-width="0.449993" stroke-miterlimit="10"/>
<path d="M380.011 187.177C380.686 187.177 381.233 186.63 381.233 185.955C381.233 185.28 380.686 184.732 380.011 184.732C379.336 184.732 378.789 185.28 378.789 185.955C378.789 186.63 379.336 187.177 380.011 187.177Z" stroke="white" stroke-width="0.449993" stroke-miterlimit="10"/>
<path d="M367.394 226.625C368.069 226.625 368.616 226.078 368.616 225.403C368.616 224.728 368.069 224.181 367.394 224.181C366.719 224.181 366.172 224.728 366.172 225.403C366.172 226.078 366.719 226.625 367.394 226.625Z" stroke="white" stroke-width="0.449993" stroke-miterlimit="10"/>
<path d="M367.391 224.181V210.909C367.391 210.328 367.861 209.857 368.442 209.857H378.957C379.538 209.857 380.009 209.387 380.009 208.806V187.179" stroke="white" stroke-width="0.449993" stroke-miterlimit="10"/>
<path d="M367.391 215.484H378.276C378.856 215.484 379.327 215.955 379.327 216.536V236.117" stroke="white" stroke-width="0.449993" stroke-miterlimit="10"/>
<g filter="url(#filter0_d_1826_12307)">
<rect x="125.227" y="56.3604" width="89.6014" height="29.1474" rx="8.63628" fill="#F8FAFC"/>
<rect x="125.496" y="56.6302" width="89.0617" height="28.6077" rx="8.3664" stroke="#A6BCDA" stroke-width="0.539768"/>
<path d="M138.979 74.9336V65.8655H144.615V66.9278H140.275V69.8684H143.902V70.9048H140.275V74.9336H138.979ZM146.039 74.9336V68.3527H147.335V74.9336H146.039ZM146.687 67.135C146.436 67.135 146.229 67.0573 146.065 66.9019C145.91 66.7464 145.832 66.5478 145.832 66.3059C145.832 66.0728 145.91 65.8828 146.065 65.736C146.229 65.5805 146.436 65.5028 146.687 65.5028C146.929 65.5028 147.132 65.5805 147.296 65.736C147.46 65.8828 147.542 66.0728 147.542 66.3059C147.542 66.5478 147.46 66.7464 147.296 66.9019C147.132 67.0573 146.929 67.135 146.687 67.135ZM149.2 74.9336V68.3527H150.353L150.43 69.4539C150.638 69.0652 150.927 68.7587 151.298 68.5341C151.678 68.3096 152.119 68.1973 152.62 68.1973C153.138 68.1973 153.583 68.3009 153.954 68.5082C154.325 68.7068 154.61 69.0134 154.809 69.428C155.016 69.8425 155.12 70.3607 155.12 70.9825V74.9336H153.824V71.112C153.824 70.5161 153.691 70.067 153.423 69.7648C153.155 69.4539 152.771 69.2984 152.27 69.2984C151.933 69.2984 151.631 69.3805 151.363 69.5446C151.095 69.7 150.884 69.9289 150.728 70.2311C150.573 70.5334 150.495 70.9048 150.495 71.3452V74.9336H149.2ZM159.756 75.089C159.134 75.089 158.582 74.9465 158.098 74.6616C157.614 74.3766 157.234 73.9793 156.958 73.4697C156.69 72.9516 156.556 72.347 156.556 71.6561C156.556 70.9652 156.69 70.3607 156.958 69.8425C157.234 69.3243 157.614 68.9227 158.098 68.6377C158.582 68.3441 159.139 68.1973 159.769 68.1973C160.417 68.1973 160.97 68.3398 161.427 68.6248C161.885 68.9098 162.235 69.2898 162.477 69.7648C162.727 70.2398 162.852 70.7666 162.852 71.3452C162.852 71.4316 162.848 71.5223 162.839 71.6173C162.839 71.7123 162.835 71.8202 162.826 71.9411H157.515V71.0343H161.557C161.54 70.473 161.363 70.0411 161.026 69.7389C160.689 69.428 160.266 69.2725 159.756 69.2725C159.411 69.2725 159.091 69.3546 158.798 69.5186C158.504 69.6741 158.266 69.9073 158.085 70.2182C157.912 70.5291 157.826 70.922 157.826 71.397V71.7598C157.826 72.252 157.912 72.6666 158.085 73.0034C158.266 73.3316 158.5 73.582 158.785 73.7547C159.078 73.9275 159.402 74.0138 159.756 74.0138C160.171 74.0138 160.512 73.9275 160.78 73.7547C161.047 73.5734 161.242 73.3272 161.363 73.0163H162.658C162.546 73.405 162.356 73.7591 162.088 74.0786C161.829 74.3895 161.501 74.6356 161.103 74.817C160.715 74.9984 160.266 75.089 159.756 75.089ZM166.822 74.9336C166.416 74.9336 166.062 74.8688 165.76 74.7393C165.458 74.6097 165.225 74.3938 165.06 74.0916C164.896 73.7893 164.814 73.3791 164.814 72.8609V69.4409H163.674V68.3527H164.814L164.97 66.6816H166.11V68.3527H167.962V69.4409H166.11V72.8738C166.11 73.2452 166.183 73.5 166.33 73.6382C166.485 73.7677 166.757 73.8325 167.146 73.8325H167.91V74.9336H166.822ZM171.825 75.089C171.316 75.089 170.871 74.9897 170.491 74.7911C170.12 74.5838 169.83 74.2729 169.623 73.8584C169.424 73.4438 169.325 72.93 169.325 72.3168V68.3527H170.621V72.1743C170.621 72.7788 170.754 73.2322 171.022 73.5345C171.29 73.8368 171.674 73.9879 172.175 73.9879C172.512 73.9879 172.814 73.9102 173.082 73.7547C173.35 73.5907 173.561 73.3575 173.717 73.0552C173.872 72.7529 173.95 72.3773 173.95 71.9282V68.3527H175.245V74.9336H174.092L174.002 73.8325C173.803 74.2211 173.514 74.5277 173.134 74.7522C172.762 74.9768 172.326 75.089 171.825 75.089ZM177.032 74.9336V68.3527H178.184L178.262 69.4539C178.469 69.0652 178.759 68.7587 179.13 68.5341C179.51 68.3096 179.951 68.1973 180.452 68.1973C180.97 68.1973 181.414 68.3009 181.786 68.5082C182.157 68.7068 182.442 69.0134 182.641 69.428C182.848 69.8425 182.952 70.3607 182.952 70.9825V74.9336H181.656V71.112C181.656 70.5161 181.522 70.067 181.255 69.7648C180.987 69.4539 180.603 69.2984 180.102 69.2984C179.765 69.2984 179.463 69.3805 179.195 69.5446C178.927 69.7 178.716 69.9289 178.56 70.2311C178.405 70.5334 178.327 70.9048 178.327 71.3452V74.9336H177.032ZM184.738 74.9336V68.3527H186.033V74.9336H184.738ZM185.386 67.135C185.135 67.135 184.928 67.0573 184.764 66.9019C184.608 66.7464 184.531 66.5478 184.531 66.3059C184.531 66.0728 184.608 65.8828 184.764 65.736C184.928 65.5805 185.135 65.5028 185.386 65.5028C185.628 65.5028 185.83 65.5805 185.995 65.736C186.159 65.8828 186.241 66.0728 186.241 66.3059C186.241 66.5478 186.159 66.7464 185.995 66.9019C185.83 67.0573 185.628 67.135 185.386 67.135ZM187.899 74.9336V68.3527H189.052L189.129 69.4539C189.337 69.0652 189.626 68.7587 189.997 68.5341C190.377 68.3096 190.818 68.1973 191.319 68.1973C191.837 68.1973 192.281 68.3009 192.653 68.5082C193.024 68.7068 193.309 69.0134 193.508 69.428C193.715 69.8425 193.819 70.3607 193.819 70.9825V74.9336H192.523V71.112C192.523 70.5161 192.389 70.067 192.122 69.7648C191.854 69.4539 191.47 69.2984 190.969 69.2984C190.632 69.2984 190.33 69.3805 190.062 69.5446C189.794 69.7 189.583 69.9289 189.427 70.2311C189.272 70.5334 189.194 70.9048 189.194 71.3452V74.9336H187.899ZM198.183 77.939C197.578 77.939 197.047 77.8613 196.59 77.7058C196.132 77.559 195.773 77.3302 195.514 77.0193C195.264 76.7083 195.139 76.3284 195.139 75.8793C195.139 75.6375 195.19 75.3956 195.294 75.1538C195.398 74.9206 195.566 74.6961 195.799 74.4802C196.033 74.2643 196.348 74.07 196.745 73.8972L197.483 74.4802C197.043 74.6443 196.745 74.8429 196.59 75.0761C196.434 75.3093 196.356 75.5338 196.356 75.7497C196.356 76.0088 196.434 76.2247 196.59 76.3974C196.745 76.5702 196.961 76.6997 197.237 76.7861C197.514 76.8724 197.825 76.9156 198.17 76.9156C198.515 76.9156 198.813 76.8681 199.064 76.7731C199.314 76.6781 199.509 76.5443 199.647 76.3715C199.785 76.1988 199.854 75.9959 199.854 75.7627C199.854 75.4777 199.75 75.2402 199.543 75.0502C199.345 74.8688 198.947 74.7609 198.351 74.7263C197.85 74.6918 197.427 74.6443 197.082 74.5838C196.736 74.5234 196.447 74.45 196.214 74.3636C195.981 74.2772 195.782 74.1822 195.618 74.0786C195.463 73.975 195.324 73.867 195.203 73.7547V73.4568L196.512 72.1354L197.561 72.4852L196.136 73.7936L196.408 73.1977C196.503 73.2668 196.594 73.3316 196.68 73.392C196.775 73.4438 196.892 73.4913 197.03 73.5345C197.177 73.5777 197.375 73.6166 197.626 73.6511C197.885 73.6857 198.222 73.7202 198.636 73.7547C199.224 73.7979 199.699 73.9016 200.061 74.0656C200.424 74.2297 200.687 74.45 200.852 74.7263C201.016 75.0027 201.098 75.3352 201.098 75.7238C201.098 76.1038 200.994 76.4579 200.787 76.7861C200.58 77.1229 200.26 77.3993 199.828 77.6152C199.405 77.8311 198.857 77.939 198.183 77.939ZM198.17 72.9127C197.626 72.9127 197.16 72.8091 196.771 72.6018C196.382 72.3859 196.084 72.1009 195.877 71.7468C195.678 71.3927 195.579 70.9954 195.579 70.555C195.579 70.1145 195.683 69.7173 195.89 69.3632C196.097 69.0091 196.391 68.7284 196.771 68.5212C197.16 68.3052 197.626 68.1973 198.17 68.1973C198.723 68.1973 199.189 68.3052 199.569 68.5212C199.958 68.7284 200.251 69.0091 200.45 69.3632C200.657 69.7173 200.761 70.1145 200.761 70.555C200.761 70.9954 200.657 71.3927 200.45 71.7468C200.251 72.1009 199.958 72.3859 199.569 72.6018C199.189 72.8091 198.723 72.9127 198.17 72.9127ZM198.17 71.8763C198.602 71.8763 198.943 71.7641 199.193 71.5395C199.444 71.315 199.569 70.9868 199.569 70.555C199.569 70.1232 199.444 69.7993 199.193 69.5834C198.943 69.3589 198.602 69.2466 198.17 69.2466C197.755 69.2466 197.414 69.3589 197.147 69.5834C196.888 69.7993 196.758 70.1232 196.758 70.555C196.758 70.9868 196.888 71.315 197.147 71.5395C197.406 71.7641 197.747 71.8763 198.17 71.8763ZM199.258 69.3632L198.947 68.3527H201.616V69.2336L199.258 69.3632Z" fill="#222222"/>
</g>
<g filter="url(#filter1_d_1826_12307)">
<rect x="281.758" y="222.609" width="89.6014" height="29.1474" rx="8.63628" fill="#F8FAFC"/>
<rect x="282.028" y="222.879" width="89.0617" height="28.6077" rx="8.3664" stroke="#A6BCDA" stroke-width="0.539768"/>
<path d="M293.417 241.183V232.115H296.5C297.226 232.115 297.821 232.235 298.288 232.477C298.754 232.719 299.1 233.047 299.324 233.462C299.557 233.868 299.674 234.33 299.674 234.848C299.674 235.349 299.562 235.807 299.337 236.221C299.113 236.627 298.767 236.955 298.301 237.206C297.834 237.447 297.234 237.568 296.5 237.568H294.712V241.183H293.417ZM294.712 236.493H296.448C297.131 236.493 297.614 236.346 297.899 236.053C298.193 235.75 298.34 235.349 298.34 234.848C298.34 234.321 298.193 233.915 297.899 233.63C297.614 233.337 297.131 233.19 296.448 233.19H294.712V236.493ZM301.019 241.183V231.855H302.314V241.183H301.019ZM306.256 241.338C305.72 241.338 305.276 241.247 304.922 241.066C304.576 240.876 304.317 240.63 304.144 240.328C303.972 240.017 303.885 239.68 303.885 239.317C303.885 238.885 303.993 238.518 304.209 238.216C304.434 237.905 304.753 237.668 305.168 237.504C305.591 237.339 306.092 237.257 306.67 237.257H308.354C308.354 236.869 308.298 236.549 308.186 236.299C308.082 236.04 307.918 235.845 307.694 235.716C307.478 235.586 307.197 235.522 306.852 235.522C306.472 235.522 306.144 235.617 305.867 235.807C305.599 235.988 305.431 236.256 305.362 236.61H304.067C304.118 236.152 304.274 235.763 304.533 235.444C304.792 235.124 305.124 234.878 305.53 234.705C305.945 234.533 306.39 234.446 306.865 234.446C307.469 234.446 307.979 234.554 308.393 234.77C308.808 234.986 309.119 235.293 309.326 235.69C309.542 236.079 309.65 236.541 309.65 237.076V241.183H308.523L308.406 240.069C308.32 240.25 308.208 240.418 308.069 240.574C307.94 240.729 307.784 240.863 307.603 240.975C307.43 241.088 307.232 241.174 307.007 241.234C306.783 241.304 306.532 241.338 306.256 241.338ZM306.502 240.289C306.778 240.289 307.024 240.233 307.24 240.12C307.465 239.999 307.655 239.844 307.81 239.654C307.974 239.455 308.1 239.235 308.186 238.993C308.272 238.743 308.32 238.484 308.329 238.216V238.177H306.787C306.424 238.177 306.126 238.225 305.893 238.32C305.669 238.406 305.504 238.531 305.401 238.695C305.297 238.851 305.245 239.032 305.245 239.239C305.245 239.447 305.293 239.632 305.388 239.796C305.492 239.952 305.634 240.073 305.815 240.159C306.005 240.246 306.234 240.289 306.502 240.289ZM311.904 244.033L313.471 240.457H313.095L310.517 234.602H311.929L313.963 239.395L316.023 234.602H317.383L313.251 244.033H311.904ZM320.791 244.188C320.187 244.188 319.655 244.11 319.198 243.955C318.74 243.808 318.382 243.579 318.122 243.268C317.872 242.957 317.747 242.577 317.747 242.128C317.747 241.886 317.799 241.645 317.902 241.403C318.006 241.17 318.174 240.945 318.407 240.729C318.641 240.513 318.956 240.319 319.353 240.146L320.092 240.729C319.651 240.893 319.353 241.092 319.198 241.325C319.042 241.558 318.965 241.783 318.965 241.999C318.965 242.258 319.042 242.474 319.198 242.646C319.353 242.819 319.569 242.949 319.845 243.035C320.122 243.121 320.433 243.165 320.778 243.165C321.124 243.165 321.422 243.117 321.672 243.022C321.922 242.927 322.117 242.793 322.255 242.621C322.393 242.448 322.462 242.245 322.462 242.012C322.462 241.727 322.359 241.489 322.151 241.299C321.953 241.118 321.555 241.01 320.959 240.975C320.459 240.941 320.035 240.893 319.69 240.833C319.345 240.772 319.055 240.699 318.822 240.613C318.589 240.526 318.39 240.431 318.226 240.328C318.071 240.224 317.932 240.116 317.812 240.004V239.706L319.12 238.384L320.169 238.734L318.744 240.043L319.016 239.447C319.111 239.516 319.202 239.581 319.288 239.641C319.383 239.693 319.5 239.74 319.638 239.784C319.785 239.827 319.984 239.866 320.234 239.9C320.493 239.935 320.83 239.969 321.244 240.004C321.832 240.047 322.307 240.151 322.669 240.315C323.032 240.479 323.296 240.699 323.46 240.975C323.624 241.252 323.706 241.584 323.706 241.973C323.706 242.353 323.602 242.707 323.395 243.035C323.188 243.372 322.868 243.648 322.436 243.864C322.013 244.08 321.465 244.188 320.791 244.188ZM320.778 239.162C320.234 239.162 319.768 239.058 319.379 238.851C318.99 238.635 318.692 238.35 318.485 237.996C318.287 237.642 318.187 237.244 318.187 236.804C318.187 236.364 318.291 235.966 318.498 235.612C318.705 235.258 318.999 234.977 319.379 234.77C319.768 234.554 320.234 234.446 320.778 234.446C321.331 234.446 321.797 234.554 322.177 234.77C322.566 234.977 322.859 235.258 323.058 235.612C323.265 235.966 323.369 236.364 323.369 236.804C323.369 237.244 323.265 237.642 323.058 237.996C322.859 238.35 322.566 238.635 322.177 238.851C321.797 239.058 321.331 239.162 320.778 239.162ZM320.778 238.125C321.21 238.125 321.551 238.013 321.802 237.789C322.052 237.564 322.177 237.236 322.177 236.804C322.177 236.372 322.052 236.048 321.802 235.832C321.551 235.608 321.21 235.496 320.778 235.496C320.364 235.496 320.022 235.608 319.755 235.832C319.496 236.048 319.366 236.372 319.366 236.804C319.366 237.236 319.496 237.564 319.755 237.789C320.014 238.013 320.355 238.125 320.778 238.125ZM321.866 235.612L321.555 234.602H324.224V235.483L321.866 235.612ZM325.536 241.183V234.602H326.702L326.805 235.832C326.961 235.53 327.155 235.28 327.388 235.081C327.622 234.874 327.902 234.718 328.23 234.615C328.559 234.502 328.926 234.446 329.331 234.446V235.807H328.813C328.546 235.807 328.291 235.841 328.049 235.91C327.807 235.971 327.596 236.079 327.414 236.234C327.233 236.389 327.09 236.601 326.987 236.869C326.883 237.128 326.831 237.452 326.831 237.84V241.183H325.536ZM333.31 241.338C332.697 241.338 332.144 241.196 331.652 240.911C331.168 240.626 330.784 240.224 330.499 239.706C330.222 239.188 330.084 238.583 330.084 237.892C330.084 237.201 330.227 236.597 330.512 236.079C330.797 235.56 331.185 235.159 331.677 234.874C332.17 234.589 332.722 234.446 333.336 234.446C333.966 234.446 334.523 234.589 335.007 234.874C335.49 235.159 335.87 235.56 336.147 236.079C336.432 236.588 336.574 237.193 336.574 237.892C336.574 238.583 336.432 239.188 336.147 239.706C335.862 240.224 335.473 240.626 334.981 240.911C334.497 241.196 333.94 241.338 333.31 241.338ZM333.323 240.224C333.677 240.224 333.996 240.138 334.281 239.965C334.575 239.792 334.808 239.533 334.981 239.188C335.162 238.834 335.253 238.402 335.253 237.892C335.253 237.374 335.167 236.942 334.994 236.597C334.821 236.251 334.588 235.992 334.294 235.819C334.009 235.647 333.69 235.56 333.336 235.56C332.99 235.56 332.671 235.647 332.377 235.819C332.083 235.992 331.85 236.251 331.677 236.597C331.505 236.942 331.418 237.374 331.418 237.892C331.418 238.402 331.505 238.834 331.677 239.188C331.85 239.533 332.079 239.792 332.364 239.965C332.658 240.138 332.977 240.224 333.323 240.224ZM340.508 241.338C339.998 241.338 339.553 241.239 339.173 241.04C338.802 240.833 338.513 240.522 338.305 240.107C338.107 239.693 338.007 239.179 338.007 238.566V234.602H339.303V238.423C339.303 239.028 339.437 239.481 339.704 239.784C339.972 240.086 340.356 240.237 340.857 240.237C341.194 240.237 341.496 240.159 341.764 240.004C342.032 239.84 342.244 239.606 342.399 239.304C342.554 239.002 342.632 238.626 342.632 238.177V234.602H343.928V241.183H342.775L342.684 240.081C342.485 240.47 342.196 240.777 341.816 241.001C341.445 241.226 341.009 241.338 340.508 241.338ZM345.714 241.183V234.602H346.867L346.945 235.703C347.152 235.314 347.441 235.008 347.812 234.783C348.192 234.559 348.633 234.446 349.134 234.446C349.652 234.446 350.097 234.55 350.468 234.757C350.84 234.956 351.125 235.262 351.323 235.677C351.53 236.092 351.634 236.61 351.634 237.232V241.183H350.339V237.361C350.339 236.765 350.205 236.316 349.937 236.014C349.669 235.703 349.285 235.547 348.784 235.547C348.447 235.547 348.145 235.629 347.877 235.794C347.61 235.949 347.398 236.178 347.243 236.48C347.087 236.782 347.009 237.154 347.009 237.594V241.183H345.714ZM356.193 241.338C355.579 241.338 355.035 241.191 354.56 240.898C354.094 240.595 353.727 240.185 353.459 239.667C353.2 239.14 353.071 238.549 353.071 237.892C353.071 237.219 353.2 236.623 353.459 236.104C353.727 235.586 354.098 235.18 354.573 234.887C355.057 234.593 355.61 234.446 356.231 234.446C356.741 234.446 357.186 234.546 357.566 234.744C357.954 234.943 358.257 235.228 358.473 235.599V231.855H359.768V241.183H358.602L358.473 240.159C358.343 240.366 358.175 240.561 357.967 240.742C357.76 240.915 357.51 241.057 357.216 241.17C356.922 241.282 356.581 241.338 356.193 241.338ZM356.426 240.211C356.832 240.211 357.186 240.116 357.488 239.926C357.799 239.727 358.036 239.455 358.201 239.11C358.373 238.764 358.46 238.359 358.46 237.892C358.46 237.426 358.373 237.02 358.201 236.674C358.036 236.32 357.799 236.048 357.488 235.858C357.186 235.668 356.832 235.573 356.426 235.573C356.037 235.573 355.687 235.668 355.376 235.858C355.066 236.048 354.824 236.32 354.651 236.674C354.478 237.02 354.392 237.426 354.392 237.892C354.392 238.359 354.478 238.764 354.651 239.11C354.824 239.455 355.066 239.727 355.376 239.926C355.687 240.116 356.037 240.211 356.426 240.211Z" fill="#222222"/>
</g>
<g filter="url(#filter2_d_1826_12307)">
<rect y="154.599" width="84.2037" height="29.1474" rx="8.63628" fill="#F8FAFC"/>
<rect x="0.269884" y="154.869" width="83.664" height="28.6077" rx="8.3664" stroke="#A6BCDA" stroke-width="0.539768"/>
<path d="M19.3451 173.172V165.166H16.6506V164.104H23.3222V165.166H20.6406V173.172H19.3451ZM23.899 173.172V166.591H25.0649L25.1686 167.822C25.324 167.519 25.5183 167.269 25.7515 167.07C25.9847 166.863 26.2654 166.708 26.5935 166.604C26.9217 166.492 27.2888 166.436 27.6947 166.436V167.796H27.1765C26.9088 167.796 26.654 167.83 26.4122 167.899C26.1704 167.96 25.9588 168.068 25.7774 168.223C25.5961 168.379 25.4536 168.59 25.3499 168.858C25.2463 169.117 25.1945 169.441 25.1945 169.83V173.172H23.899ZM31.0465 173.327C30.5111 173.327 30.0663 173.237 29.7122 173.055C29.3668 172.865 29.1077 172.619 28.935 172.317C28.7622 172.006 28.6759 171.669 28.6759 171.306C28.6759 170.875 28.7838 170.508 28.9997 170.205C29.2243 169.894 29.5438 169.657 29.9584 169.493C30.3815 169.329 30.8824 169.247 31.4611 169.247H33.1451C33.1451 168.858 33.089 168.539 32.9767 168.288C32.8731 168.029 32.709 167.835 32.4845 167.705C32.2686 167.576 31.9879 167.511 31.6424 167.511C31.2624 167.511 30.9343 167.606 30.6579 167.796C30.3902 167.977 30.2218 168.245 30.1527 168.599H28.8572C28.9091 168.141 29.0645 167.753 29.3236 167.433C29.5827 167.114 29.9152 166.867 30.3211 166.695C30.7356 166.522 31.1804 166.436 31.6554 166.436C32.2599 166.436 32.7695 166.544 33.184 166.759C33.5986 166.975 33.9095 167.282 34.1167 167.679C34.3326 168.068 34.4406 168.53 34.4406 169.065V173.172H33.3136L33.197 172.058C33.1106 172.239 32.9983 172.408 32.8602 172.563C32.7306 172.718 32.5752 172.852 32.3938 172.965C32.2211 173.077 32.0224 173.163 31.7979 173.224C31.5733 173.293 31.3229 173.327 31.0465 173.327ZM31.2927 172.278C31.569 172.278 31.8152 172.222 32.0311 172.11C32.2556 171.989 32.4456 171.833 32.6011 171.643C32.7652 171.445 32.8904 171.224 32.9767 170.983C33.0631 170.732 33.1106 170.473 33.1192 170.205V170.166H31.5777C31.2149 170.166 30.917 170.214 30.6838 170.309C30.4593 170.395 30.2952 170.521 30.1915 170.685C30.0879 170.84 30.0361 171.021 30.0361 171.229C30.0361 171.436 30.0836 171.622 30.1786 171.786C30.2822 171.941 30.4247 172.062 30.6061 172.148C30.7961 172.235 31.0249 172.278 31.2927 172.278ZM39.1378 173.327C38.516 173.327 37.9546 173.185 37.4537 172.9C36.9614 172.606 36.5728 172.2 36.2878 171.682C36.0114 171.164 35.8733 170.568 35.8733 169.894C35.8733 169.204 36.0114 168.599 36.2878 168.081C36.5728 167.563 36.9614 167.161 37.4537 166.876C37.9546 166.582 38.5203 166.436 39.1507 166.436C39.9366 166.436 40.5973 166.643 41.1328 167.057C41.6682 167.472 42.0093 168.033 42.1562 168.741H40.8089C40.7225 168.361 40.5239 168.068 40.213 167.861C39.9107 167.645 39.548 167.537 39.1248 167.537C38.7707 167.537 38.4469 167.627 38.1532 167.809C37.8682 167.99 37.6394 168.254 37.4667 168.599C37.2939 168.944 37.2076 169.372 37.2076 169.881C37.2076 170.261 37.2551 170.598 37.3501 170.892C37.4537 171.186 37.5919 171.432 37.7646 171.63C37.9373 171.829 38.1403 171.98 38.3735 172.084C38.6153 172.179 38.8657 172.226 39.1248 172.226C39.4098 172.226 39.6646 172.179 39.8891 172.084C40.1223 171.989 40.321 171.851 40.485 171.669C40.6491 171.488 40.7571 171.272 40.8089 171.021H42.1562C42.018 171.712 41.6768 172.269 41.1328 172.693C40.5973 173.116 39.9323 173.327 39.1378 173.327ZM47.7911 173.172L44.7857 169.583L47.532 166.591H49.0995L45.835 170.076L45.848 169.104L49.4234 173.172H47.7911ZM43.6975 173.172V163.845H44.993V173.172H43.6975ZM50.6323 173.172V166.591H51.9277V173.172H50.6323ZM51.28 165.373C51.0296 165.373 50.8223 165.296 50.6582 165.14C50.5028 164.985 50.425 164.786 50.425 164.544C50.425 164.311 50.5028 164.121 50.6582 163.974C50.8223 163.819 51.0296 163.741 51.28 163.741C51.5218 163.741 51.7248 163.819 51.8889 163.974C52.053 164.121 52.135 164.311 52.135 164.544C52.135 164.786 52.053 164.985 51.8889 165.14C51.7248 165.296 51.5218 165.373 51.28 165.373ZM53.7929 173.172V166.591H54.9458L55.0236 167.692C55.2308 167.304 55.5201 166.997 55.8915 166.772C56.2715 166.548 56.7119 166.436 57.2128 166.436C57.731 166.436 58.1758 166.539 58.5472 166.746C58.9185 166.945 59.2035 167.252 59.4021 167.666C59.6094 168.081 59.7131 168.599 59.7131 169.221V173.172H58.4176V169.35C58.4176 168.754 58.2837 168.305 58.016 168.003C57.7483 167.692 57.364 167.537 56.8631 167.537C56.5263 167.537 56.224 167.619 55.9563 167.783C55.6885 167.938 55.477 168.167 55.3215 168.469C55.166 168.772 55.0883 169.143 55.0883 169.583V173.172H53.7929ZM64.0773 176.177C63.4727 176.177 62.9416 176.1 62.4839 175.944C62.0262 175.797 61.6678 175.568 61.4087 175.258C61.1582 174.947 61.033 174.567 61.033 174.118C61.033 173.876 61.0848 173.634 61.1884 173.392C61.2921 173.159 61.4605 172.934 61.6937 172.718C61.9268 172.503 62.2421 172.308 62.6393 172.136L63.3777 172.718C62.9373 172.883 62.6393 173.081 62.4839 173.314C62.3284 173.548 62.2507 173.772 62.2507 173.988C62.2507 174.247 62.3284 174.463 62.4839 174.636C62.6393 174.808 62.8552 174.938 63.1316 175.024C63.408 175.111 63.7189 175.154 64.0643 175.154C64.4098 175.154 64.7077 175.106 64.9582 175.011C65.2086 174.916 65.4029 174.783 65.5411 174.61C65.6793 174.437 65.7484 174.234 65.7484 174.001C65.7484 173.716 65.6448 173.478 65.4375 173.288C65.2389 173.107 64.8416 172.999 64.2457 172.965C63.7448 172.93 63.3216 172.883 62.9761 172.822C62.6307 172.762 62.3414 172.688 62.1082 172.602C61.875 172.516 61.6764 172.421 61.5123 172.317C61.3568 172.213 61.2187 172.105 61.0978 171.993V171.695L62.4062 170.374L63.4555 170.723L62.0305 172.032L62.3025 171.436C62.3975 171.505 62.4882 171.57 62.5746 171.63C62.6696 171.682 62.7862 171.73 62.9243 171.773C63.0711 171.816 63.2698 171.855 63.5202 171.889C63.7793 171.924 64.1161 171.958 64.5307 171.993C65.1179 172.036 65.5929 172.14 65.9557 172.304C66.3184 172.468 66.5818 172.688 66.7459 172.965C66.91 173.241 66.992 173.573 66.992 173.962C66.992 174.342 66.8884 174.696 66.6811 175.024C66.4738 175.361 66.1543 175.638 65.7225 175.853C65.2993 176.069 64.7509 176.177 64.0773 176.177ZM64.0643 171.151C63.5202 171.151 63.0539 171.047 62.6652 170.84C62.2766 170.624 61.9787 170.339 61.7714 169.985C61.5728 169.631 61.4734 169.234 61.4734 168.793C61.4734 168.353 61.5771 167.956 61.7843 167.601C61.9916 167.247 62.2852 166.967 62.6652 166.759C63.0539 166.544 63.5202 166.436 64.0643 166.436C64.617 166.436 65.0834 166.544 65.4634 166.759C65.852 166.967 66.1457 167.247 66.3443 167.601C66.5516 167.956 66.6552 168.353 66.6552 168.793C66.6552 169.234 66.5516 169.631 66.3443 169.985C66.1457 170.339 65.852 170.624 65.4634 170.84C65.0834 171.047 64.617 171.151 64.0643 171.151ZM64.0643 170.115C64.4961 170.115 64.8373 170.002 65.0877 169.778C65.3382 169.553 65.4634 169.225 65.4634 168.793C65.4634 168.361 65.3382 168.038 65.0877 167.822C64.8373 167.597 64.4961 167.485 64.0643 167.485C63.6498 167.485 63.3086 167.597 63.0409 167.822C62.7818 168.038 62.6523 168.361 62.6523 168.793C62.6523 169.225 62.7818 169.553 63.0409 169.778C63.3 170.002 63.6411 170.115 64.0643 170.115ZM65.1525 167.601L64.8416 166.591H67.5102V167.472L65.1525 167.601Z" fill="#222222"/>
</g>
<g filter="url(#filter3_d_1826_12307)">
<rect x="12.9531" y="220.45" width="84.2037" height="29.1474" rx="8.63628" fill="#F8FAFC"/>
<rect x="13.223" y="220.72" width="83.664" height="28.6077" rx="8.3664" stroke="#A6BCDA" stroke-width="0.539768"/>
<path d="M24.4938 239.023V229.955H30.2067V231.018H25.7893V233.919H29.8181V234.956H25.7893V237.961H30.2067V239.023H24.4938ZM33.7079 239.023L31.2336 232.443H32.5938L34.4722 237.78L36.3635 232.443H37.6978L35.2235 239.023H33.7079ZM40.6725 239.179C40.137 239.179 39.6923 239.088 39.3382 238.907C38.9927 238.717 38.7336 238.471 38.5609 238.168C38.3882 237.858 38.3018 237.521 38.3018 237.158C38.3018 236.726 38.4098 236.359 38.6257 236.057C38.8502 235.746 39.1698 235.508 39.5843 235.344C40.0075 235.18 40.5084 235.098 41.087 235.098H42.7711C42.7711 234.71 42.715 234.39 42.6027 234.14C42.4991 233.881 42.335 233.686 42.1104 233.557C41.8945 233.427 41.6138 233.362 41.2684 233.362C40.8884 233.362 40.5602 233.457 40.2839 233.647C40.0161 233.829 39.8477 234.096 39.7786 234.451H38.4832C38.535 233.993 38.6905 233.604 38.9496 233.285C39.2086 232.965 39.5411 232.719 39.947 232.546C40.3616 232.374 40.8064 232.287 41.2814 232.287C41.8859 232.287 42.3954 232.395 42.81 232.611C43.2245 232.827 43.5354 233.133 43.7427 233.531C43.9586 233.919 44.0666 234.381 44.0666 234.917V239.023H42.9395L42.8229 237.909C42.7366 238.091 42.6243 238.259 42.4861 238.415C42.3566 238.57 42.2011 238.704 42.0198 238.816C41.847 238.928 41.6484 239.015 41.4239 239.075C41.1993 239.144 40.9489 239.179 40.6725 239.179ZM40.9186 238.13C41.195 238.13 41.4411 238.073 41.657 237.961C41.8816 237.84 42.0716 237.685 42.227 237.495C42.3911 237.296 42.5163 237.076 42.6027 236.834C42.6891 236.584 42.7366 236.325 42.7452 236.057V236.018H41.2036C40.8409 236.018 40.543 236.066 40.3098 236.161C40.0852 236.247 39.9211 236.372 39.8175 236.536C39.7139 236.692 39.662 236.873 39.662 237.08C39.662 237.288 39.7095 237.473 39.8045 237.637C39.9082 237.793 40.0507 237.914 40.232 238C40.422 238.086 40.6509 238.13 40.9186 238.13ZM45.7583 239.023V229.696H47.0538V239.023H45.7583ZM51.2546 239.179C50.7451 239.179 50.3003 239.08 49.9203 238.881C49.549 238.674 49.2597 238.363 49.0524 237.948C48.8538 237.534 48.7544 237.02 48.7544 236.407V232.443H50.0499V236.264C50.0499 236.869 50.1837 237.322 50.4515 237.624C50.7192 237.927 51.1035 238.078 51.6044 238.078C51.9412 238.078 52.2435 238 52.5112 237.845C52.7789 237.68 52.9905 237.447 53.146 237.145C53.3014 236.843 53.3792 236.467 53.3792 236.018V232.443H54.6746V239.023H53.5217L53.431 237.922C53.2323 238.311 52.943 238.618 52.563 238.842C52.1917 239.067 51.7555 239.179 51.2546 239.179ZM58.6113 239.179C58.0759 239.179 57.6311 239.088 57.277 238.907C56.9316 238.717 56.6725 238.471 56.4998 238.168C56.327 237.858 56.2407 237.521 56.2407 237.158C56.2407 236.726 56.3486 236.359 56.5645 236.057C56.7891 235.746 57.1086 235.508 57.5232 235.344C57.9463 235.18 58.4472 235.098 59.0259 235.098H60.7099C60.7099 234.71 60.6538 234.39 60.5415 234.14C60.4379 233.881 60.2738 233.686 60.0493 233.557C59.8334 233.427 59.5527 233.362 59.2072 233.362C58.8272 233.362 58.4991 233.457 58.2227 233.647C57.955 233.829 57.7866 234.096 57.7175 234.451H56.422C56.4739 233.993 56.6293 233.604 56.8884 233.285C57.1475 232.965 57.48 232.719 57.8859 232.546C58.3004 232.374 58.7452 232.287 59.2202 232.287C59.8247 232.287 60.3343 232.395 60.7488 232.611C61.1634 232.827 61.4743 233.133 61.6815 233.531C61.8974 233.919 62.0054 234.381 62.0054 234.917V239.023H60.8784L60.7618 237.909C60.6754 238.091 60.5631 238.259 60.425 238.415C60.2954 238.57 60.14 238.704 59.9586 238.816C59.7859 238.928 59.5872 239.015 59.3627 239.075C59.1381 239.144 58.8877 239.179 58.6113 239.179ZM58.8575 238.13C59.1338 238.13 59.38 238.073 59.5959 237.961C59.8204 237.84 60.0104 237.685 60.1659 237.495C60.33 237.296 60.4552 237.076 60.5415 236.834C60.6279 236.584 60.6754 236.325 60.684 236.057V236.018H59.1425C58.7797 236.018 58.4818 236.066 58.2486 236.161C58.0241 236.247 57.86 236.372 57.7563 236.536C57.6527 236.692 57.6009 236.873 57.6009 237.08C57.6009 237.288 57.6484 237.473 57.7434 237.637C57.847 237.793 57.9895 237.914 58.1709 238C58.3609 238.086 58.5897 238.13 58.8575 238.13ZM66.2525 239.023C65.8466 239.023 65.4925 238.959 65.1903 238.829C64.888 238.7 64.6548 238.484 64.4907 238.181C64.3266 237.879 64.2446 237.469 64.2446 236.951V233.531H63.1046V232.443H64.2446L64.4 230.771H65.54V232.443H67.3925V233.531H65.54V236.964C65.54 237.335 65.6134 237.59 65.7603 237.728C65.9157 237.858 66.1877 237.922 66.5764 237.922H67.3407V239.023H66.2525ZM68.9367 239.023V232.443H70.2322V239.023H68.9367ZM69.5844 231.225C69.334 231.225 69.1267 231.147 68.9626 230.992C68.8072 230.836 68.7294 230.638 68.7294 230.396C68.7294 230.163 68.8072 229.973 68.9626 229.826C69.1267 229.67 69.334 229.593 69.5844 229.593C69.8263 229.593 70.0292 229.67 70.1933 229.826C70.3574 229.973 70.4394 230.163 70.4394 230.396C70.4394 230.638 70.3574 230.836 70.1933 230.992C70.0292 231.147 69.8263 231.225 69.5844 231.225ZM75.0639 239.179C74.4507 239.179 73.898 239.036 73.4057 238.751C72.9221 238.466 72.5377 238.065 72.2527 237.547C71.9764 237.028 71.8382 236.424 71.8382 235.733C71.8382 235.042 71.9807 234.438 72.2657 233.919C72.5507 233.401 72.9393 233 73.4316 232.715C73.9239 232.43 74.4766 232.287 75.0898 232.287C75.7202 232.287 76.2773 232.43 76.7609 232.715C77.2445 233 77.6245 233.401 77.9009 233.919C78.1859 234.429 78.3284 235.033 78.3284 235.733C78.3284 236.424 78.1859 237.028 77.9009 237.547C77.6159 238.065 77.2272 238.466 76.735 238.751C76.2513 239.036 75.6943 239.179 75.0639 239.179ZM75.0768 238.065C75.4309 238.065 75.7504 237.978 76.0354 237.806C76.3291 237.633 76.5623 237.374 76.735 237.028C76.9163 236.674 77.007 236.243 77.007 235.733C77.007 235.215 76.9207 234.783 76.7479 234.438C76.5752 234.092 76.342 233.833 76.0484 233.66C75.7634 233.488 75.4439 233.401 75.0898 233.401C74.7443 233.401 74.4248 233.488 74.1311 233.66C73.8375 233.833 73.6043 234.092 73.4316 234.438C73.2589 234.783 73.1725 235.215 73.1725 235.733C73.1725 236.243 73.2589 236.674 73.4316 237.028C73.6043 237.374 73.8332 237.633 74.1182 237.806C74.4118 237.978 74.7314 238.065 75.0768 238.065ZM79.8522 239.023V232.443H81.0052L81.0829 233.544C81.2902 233.155 81.5795 232.848 81.9509 232.624C82.3308 232.399 82.7713 232.287 83.2722 232.287C83.7904 232.287 84.2352 232.391 84.6065 232.598C84.9779 232.797 85.2629 233.103 85.4615 233.518C85.6688 233.932 85.7724 234.451 85.7724 235.072V239.023H84.477V235.202C84.477 234.606 84.3431 234.157 84.0754 233.855C83.8077 233.544 83.4233 233.388 82.9224 233.388C82.5856 233.388 82.2834 233.47 82.0156 233.634C81.7479 233.79 81.5363 234.019 81.3809 234.321C81.2254 234.623 81.1477 234.995 81.1477 235.435V239.023H79.8522Z" fill="#222222"/>
</g>
<g filter="url(#filter4_d_1826_12307)">
<rect x="7.55469" y="82.2695" width="84.2037" height="29.1474" rx="8.63628" fill="#F8FAFC"/>
<rect x="7.82457" y="82.5394" width="83.664" height="28.6077" rx="8.3664" stroke="#A6BCDA" stroke-width="0.539768"/>
<path d="M23.9268 100.843L21.4785 91.7747H22.8646L24.7041 99.3271L26.8157 91.7747H28.2407L30.3004 99.353L32.1529 91.7747H33.552L31.0388 100.843H29.5361L27.5023 93.6272L25.4166 100.843H23.9268ZM37.0706 100.998C36.4574 100.998 35.9047 100.856 35.4125 100.571C34.9288 100.286 34.5445 99.8841 34.2595 99.366C33.9832 98.8478 33.845 98.2433 33.845 97.5523C33.845 96.8614 33.9875 96.2569 34.2725 95.7387C34.5575 95.2206 34.9461 94.819 35.4384 94.534C35.9306 94.249 36.4834 94.1065 37.0965 94.1065C37.727 94.1065 38.284 94.249 38.7677 94.534C39.2513 94.819 39.6313 95.2206 39.9076 95.7387C40.1926 96.2483 40.3351 96.8528 40.3351 97.5523C40.3351 98.2433 40.1926 98.8478 39.9076 99.366C39.6226 99.8841 39.234 100.286 38.7417 100.571C38.2581 100.856 37.7011 100.998 37.0706 100.998ZM37.0836 99.8841C37.4377 99.8841 37.7572 99.7978 38.0422 99.6251C38.3358 99.4523 38.569 99.1932 38.7417 98.8478C38.9231 98.4937 39.0138 98.0619 39.0138 97.5523C39.0138 97.0342 38.9274 96.6024 38.7547 96.2569C38.582 95.9115 38.3488 95.6524 38.0552 95.4796C37.7702 95.3069 37.4506 95.2206 37.0965 95.2206C36.7511 95.2206 36.4315 95.3069 36.1379 95.4796C35.8443 95.6524 35.6111 95.9115 35.4384 96.2569C35.2656 96.6024 35.1793 97.0342 35.1793 97.5523C35.1793 98.0619 35.2656 98.4937 35.4384 98.8478C35.6111 99.1932 35.84 99.4523 36.125 99.6251C36.4186 99.7978 36.7381 99.8841 37.0836 99.8841ZM41.859 100.843V94.2619H43.0249L43.1285 95.4926C43.284 95.1903 43.4783 94.9399 43.7115 94.7412C43.9447 94.534 44.2253 94.3785 44.5535 94.2749C44.8817 94.1626 45.2487 94.1065 45.6547 94.1065V95.4667H45.1365C44.8687 95.4667 44.614 95.5012 44.3722 95.5703C44.1303 95.6308 43.9188 95.7387 43.7374 95.8942C43.556 96.0496 43.4135 96.2612 43.3099 96.529C43.2063 96.788 43.1544 97.1119 43.1544 97.5005V100.843H41.859ZM50.9497 100.843L47.9442 97.2544L50.6906 94.2619H52.2581L48.9936 97.7467L49.0065 96.7751L52.5819 100.843H50.9497ZM46.8561 100.843V91.5156H48.1515V100.843H46.8561ZM54.0499 100.843V93.4328C54.0499 92.9838 54.1277 92.6167 54.2831 92.3317C54.4386 92.0467 54.6631 91.8394 54.9567 91.7099C55.2504 91.5804 55.6045 91.5156 56.019 91.5156H56.8222V92.6167H56.2133C55.911 92.6167 55.6908 92.6815 55.5526 92.811C55.4145 92.9319 55.3454 93.1478 55.3454 93.4588V100.843H54.0499ZM53.0783 95.3501V94.2619H56.9517V95.3501H53.0783ZM58.286 100.843V91.5156H59.5815V100.843H58.286ZM64.3331 100.998C63.7199 100.998 63.1672 100.856 62.6749 100.571C62.1913 100.286 61.807 99.8841 61.522 99.366C61.2456 98.8478 61.1075 98.2433 61.1075 97.5523C61.1075 96.8614 61.25 96.2569 61.5349 95.7387C61.8199 95.2206 62.2086 94.819 62.7008 94.534C63.1931 94.249 63.7458 94.1065 64.359 94.1065C64.9895 94.1065 65.5465 94.249 66.0301 94.534C66.5138 94.819 66.8938 95.2206 67.1701 95.7387C67.4551 96.2483 67.5976 96.8528 67.5976 97.5523C67.5976 98.2433 67.4551 98.8478 67.1701 99.366C66.8851 99.8841 66.4965 100.286 66.0042 100.571C65.5206 100.856 64.9636 100.998 64.3331 100.998ZM64.3461 99.8841C64.7001 99.8841 65.0197 99.7978 65.3047 99.6251C65.5983 99.4523 65.8315 99.1932 66.0042 98.8478C66.1856 98.4937 66.2763 98.0619 66.2763 97.5523C66.2763 97.0342 66.1899 96.6024 66.0172 96.2569C65.8445 95.9115 65.6113 95.6524 65.3176 95.4796C65.0326 95.3069 64.7131 95.2206 64.359 95.2206C64.0136 95.2206 63.694 95.3069 63.4004 95.4796C63.1068 95.6524 62.8736 95.9115 62.7008 96.2569C62.5281 96.6024 62.4418 97.0342 62.4418 97.5523C62.4418 98.0619 62.5281 98.4937 62.7008 98.8478C62.8736 99.1932 63.1024 99.4523 63.3874 99.6251C63.6811 99.7978 64.0006 99.8841 64.3461 99.8841ZM70.2151 100.843L68.2849 94.2619H69.5804L70.9924 99.6639L70.7981 99.651L72.3656 94.2619H73.8165L75.3839 99.651H75.1767L76.6017 94.2619H77.8971L75.9669 100.843H74.6326L72.9874 95.2206H73.1946L71.5494 100.843H70.2151Z" fill="#222222"/>
</g>
<g filter="url(#filter5_d_1826_12307)">
<rect x="199.711" y="18.5771" width="89.6014" height="29.1474" rx="8.63628" fill="#F8FAFC"/>
<rect x="199.981" y="18.847" width="89.0617" height="28.6077" rx="8.3664" stroke="#A6BCDA" stroke-width="0.539768"/>
<path d="M214.645 37.1504L217.975 28.0823H219.387L222.716 37.1504H221.343L218.674 29.6368L216.006 37.1504H214.645ZM216.148 34.9093L216.511 33.8729H220.773L221.136 34.9093H216.148ZM224.034 37.1504V28.0823H227.117C227.842 28.0823 228.438 28.2032 228.904 28.445C229.371 28.6868 229.716 29.015 229.941 29.4296C230.174 29.8355 230.291 30.2975 230.291 30.8157C230.291 31.3166 230.178 31.7743 229.954 32.1888C229.729 32.5948 229.384 32.9229 228.917 33.1734C228.451 33.4152 227.851 33.5361 227.117 33.5361H225.329V37.1504H224.034ZM225.329 32.4609H227.065C227.747 32.4609 228.231 32.3141 228.516 32.0204C228.809 31.7182 228.956 31.3166 228.956 30.8157C228.956 30.2889 228.809 29.883 228.516 29.598C228.231 29.3043 227.747 29.1575 227.065 29.1575H225.329V32.4609ZM231.7 37.1504V28.0823H232.995V37.1504H231.7ZM244.99 37.1504L240.119 32.1888C239.722 31.7916 239.437 31.4289 239.264 31.1007C239.1 30.7725 239.018 30.4141 239.018 30.0255C239.018 29.6282 239.113 29.2698 239.303 28.9502C239.502 28.6307 239.787 28.3802 240.158 28.1989C240.529 28.0175 240.974 27.9268 241.492 27.9268C242.002 27.9268 242.438 28.0218 242.801 28.2118C243.163 28.3932 243.44 28.6437 243.63 28.9632C243.828 29.2827 243.928 29.6498 243.928 30.0643H242.658C242.658 29.7016 242.542 29.4252 242.308 29.2352C242.075 29.0452 241.799 28.9502 241.479 28.9502C241.099 28.9502 240.801 29.0539 240.585 29.2611C240.378 29.4598 240.275 29.7102 240.275 30.0125C240.275 30.2716 240.348 30.5307 240.495 30.7898C240.642 31.0402 240.858 31.3209 241.143 31.6318L246.583 37.1504H244.99ZM240.922 37.3058C240.3 37.3058 239.756 37.1936 239.29 36.969C238.824 36.7358 238.461 36.412 238.202 35.9974C237.951 35.5743 237.826 35.0863 237.826 34.5336C237.826 34.0931 237.913 33.6916 238.085 33.3288C238.267 32.9575 238.53 32.6336 238.875 32.3573C239.23 32.0723 239.666 31.8434 240.184 31.6707L240.663 31.5152L241.285 32.3443L240.78 32.5127C240.21 32.7113 239.787 32.9747 239.51 33.3029C239.243 33.6311 239.109 34.0197 239.109 34.4688C239.109 34.797 239.186 35.095 239.342 35.3627C239.497 35.6218 239.713 35.829 239.99 35.9845C240.275 36.1313 240.607 36.2047 240.987 36.2047C241.471 36.2047 241.903 36.1011 242.282 35.8938C242.671 35.6779 243.051 35.3281 243.422 34.8445C243.595 34.62 243.768 34.3652 243.941 34.0802C244.122 33.7952 244.312 33.4757 244.511 33.1216L244.873 32.4479H246.221L245.677 33.4584C245.452 33.8902 245.227 34.2831 245.003 34.6372C244.778 34.9913 244.55 35.3109 244.316 35.5959C243.833 36.1918 243.319 36.6279 242.775 36.9043C242.231 37.172 241.613 37.3058 240.922 37.3058ZM254.224 37.3058C253.568 37.3058 252.989 37.1893 252.488 36.9561C251.988 36.7143 251.599 36.3774 251.323 35.9456C251.046 35.5138 250.908 35.0086 250.908 34.43H252.268C252.268 34.7581 252.346 35.0604 252.501 35.3368C252.657 35.6045 252.877 35.8204 253.162 35.9845C253.456 36.1399 253.81 36.2177 254.224 36.2177C254.596 36.2177 254.911 36.1572 255.17 36.0363C255.429 35.9154 255.628 35.7513 255.766 35.544C255.913 35.3281 255.986 35.082 255.986 34.8056C255.986 34.4947 255.913 34.2356 255.766 34.0284C255.628 33.8211 255.433 33.6527 255.183 33.5232C254.941 33.385 254.66 33.2641 254.341 33.1604C254.021 33.0568 253.68 32.9445 253.318 32.8236C252.592 32.5818 252.052 32.2752 251.698 31.9038C251.353 31.5325 251.18 31.0489 251.18 30.453C251.18 29.9434 251.297 29.503 251.53 29.1316C251.772 28.7516 252.113 28.458 252.553 28.2507C252.994 28.0348 253.512 27.9268 254.108 27.9268C254.695 27.9268 255.205 28.0348 255.636 28.2507C256.077 28.4666 256.422 28.7646 256.673 29.1446C256.923 29.5246 257.053 29.9693 257.061 30.4789H255.688C255.688 30.2457 255.628 30.0168 255.507 29.7923C255.386 29.5677 255.205 29.3864 254.963 29.2482C254.721 29.1014 254.423 29.028 254.069 29.028C253.775 29.0193 253.512 29.0668 253.279 29.1705C253.045 29.2741 252.86 29.4252 252.722 29.6239C252.592 29.8225 252.527 30.06 252.527 30.3364C252.527 30.6127 252.588 30.8373 252.709 31.01C252.83 31.1741 253.002 31.3166 253.227 31.4375C253.451 31.5584 253.71 31.6707 254.004 31.7743C254.306 31.8693 254.639 31.9773 255.002 32.0982C255.442 32.245 255.839 32.4263 256.193 32.6423C256.548 32.8495 256.824 33.1216 257.023 33.4584C257.23 33.7866 257.333 34.2097 257.333 34.7279C257.333 35.177 257.217 35.5959 256.984 35.9845C256.75 36.3731 256.405 36.6927 255.947 36.9431C255.49 37.1849 254.915 37.3058 254.224 37.3058ZM258.899 37.1504V28.0823H261.607C262.669 28.0823 263.541 28.268 264.223 28.6393C264.914 29.0107 265.424 29.5375 265.752 30.2198C266.089 30.8934 266.257 31.6966 266.257 32.6293C266.257 33.562 266.089 34.3652 265.752 35.0388C265.424 35.7124 264.914 36.2349 264.223 36.6063C263.541 36.969 262.669 37.1504 261.607 37.1504H258.899ZM260.195 36.0622H261.568C262.397 36.0622 263.058 35.924 263.55 35.6477C264.042 35.3713 264.392 34.9784 264.599 34.4688C264.815 33.9506 264.923 33.3375 264.923 32.6293C264.923 31.9125 264.815 31.295 264.599 30.7768C264.392 30.2586 264.042 29.8614 263.55 29.585C263.058 29.3086 262.397 29.1705 261.568 29.1705H260.195V36.0622ZM267.831 37.1504V28.0823H269.126V32.0204L272.74 28.0823H274.36L271.004 31.6836L274.424 37.1504H272.857L270.085 32.6941L269.126 33.7175V37.1504H267.831Z" fill="#222222"/>
</g>
<path d="M208.145 7.06195L204.942 7.22574L205.106 4.0236C203.879 3.19471 202.477 2.60702 200.969 2.31543L198.824 4.69139L196.68 2.31543C195.172 2.60702 193.77 3.19471 192.542 4.0236L192.706 7.22574L189.505 7.06195C188.676 8.28953 188.088 9.6917 187.797 11.1992L190.173 13.3438L187.797 15.4885C188.088 16.996 188.676 18.3982 189.505 19.6257L192.706 19.4619L192.542 22.6641C193.77 23.493 195.172 24.0807 196.68 24.3723L198.824 21.9963L200.969 24.3723C202.477 24.0807 203.879 23.493 205.106 22.6641L204.942 19.4619L208.145 19.6257C208.974 18.3982 209.561 16.996 209.853 15.4885L207.477 13.3438L209.853 11.1992C209.561 9.6908 208.974 8.28953 208.145 7.06195Z" stroke="white" stroke-width="0.449993" stroke-miterlimit="10"/>
<path d="M203.739 13.3444C203.739 16.0596 201.538 18.261 198.823 18.261C196.108 18.261 193.906 16.0596 193.906 13.3444C193.906 10.6291 196.108 8.42773 198.823 8.42773C201.538 8.42773 203.739 10.6291 203.739 13.3444Z" stroke="white" stroke-width="0.449993" stroke-miterlimit="10"/>
<path d="M358.389 6.93849C358.187 5.89271 357.779 4.91983 357.204 4.06844L354.983 4.18184L355.096 1.96067C354.245 1.38558 353.272 0.977887 352.226 0.775391L350.738 2.42326L349.249 0.775391C348.203 0.977887 347.23 1.38558 346.379 1.96067L346.492 4.18184L344.271 4.06844C343.696 4.91983 343.288 5.89271 343.086 6.93849L344.734 8.42617L343.086 9.91475C343.288 10.9605 343.696 11.9334 344.271 12.7848L346.492 12.6714L346.379 14.8926C347.23 15.4677 348.203 15.8753 349.249 16.0778L350.738 14.43L352.226 16.0778C353.272 15.8753 354.245 15.4677 355.096 14.8926L354.983 12.6714L357.204 12.7848C357.779 11.9334 358.187 10.9605 358.389 9.91475L356.741 8.42617L358.389 6.93849ZM350.739 11.838C348.855 11.838 347.328 10.3107 347.328 8.42707C347.328 6.5434 348.855 5.01613 350.739 5.01613C352.622 5.01613 354.149 6.5434 354.149 8.42707C354.149 10.3107 352.622 11.838 350.739 11.838Z" fill="white"/>
<rect x="317.383" y="40.168" width="49.6586" height="3.23861" rx="1.6193" fill="#E6EBF4"/>
<rect x="317.383" y="45.5654" width="49.6586" height="3.23861" rx="1.6193" fill="#E6EBF4"/>
<rect x="332.496" y="50.9629" width="34.5451" height="3.23861" rx="1.6193" fill="#E6EBF4"/>
<rect x="317.383" y="95.2236" width="49.6586" height="3.23861" rx="1.6193" fill="#E6EBF4"/>
<rect x="317.383" y="100.621" width="49.6586" height="3.23861" rx="1.6193" fill="#E6EBF4"/>
<rect x="332.496" y="106.019" width="34.5451" height="3.23861" rx="1.6193" fill="#E6EBF4"/>
<rect width="49.6586" height="3.23861" rx="1.6193" transform="matrix(-1 0 0 1 338.977 68.2354)" fill="#E6EBF4"/>
<rect width="49.6586" height="3.23861" rx="1.6193" transform="matrix(-1 0 0 1 338.977 73.6328)" fill="#E6EBF4"/>
<rect width="34.5451" height="3.23861" rx="1.6193" transform="matrix(-1 0 0 1 323.863 79.0303)" fill="#E6EBF4"/>
<rect width="49.6586" height="3.23861" rx="1.6193" transform="matrix(-1 0 0 1 338.977 123.292)" fill="#E6EBF4"/>
<rect width="49.6586" height="3.23861" rx="1.6193" transform="matrix(-1 0 0 1 338.977 128.689)" fill="#E6EBF4"/>
<rect width="34.5451" height="3.23861" rx="1.6193" transform="matrix(-1 0 0 1 323.863 134.087)" fill="#E6EBF4"/>
<rect x="289.312" y="179.428" width="76.647" height="8.63628" rx="4.31814" fill="#E6EBF4"/>
<rect x="357" y="181" width="5" height="5" rx="1" fill="#D2D7E0"/>
<defs>
<filter id="filter0_d_1826_12307" x="125.227" y="56.3604" width="89.6016" height="31.3065" filterUnits="userSpaceOnUse" color-interpolation-filters="sRGB">
<feFlood flood-opacity="0" result="BackgroundImageFix"/>
<feColorMatrix in="SourceAlpha" type="matrix" values="0 0 0 0 0 0 0 0 0 0 0 0 0 0 0 0 0 0 127 0" result="hardAlpha"/>
<feOffset dy="2.15907"/>
<feColorMatrix type="matrix" values="0 0 0 0 0 0 0 0 0 0 0 0 0 0 0 0 0 0 0.016 0"/>
<feBlend mode="normal" in2="BackgroundImageFix" result="effect1_dropShadow_1826_12307"/>
<feBlend mode="normal" in="SourceGraphic" in2="effect1_dropShadow_1826_12307" result="shape"/>
</filter>
<filter id="filter1_d_1826_12307" x="281.758" y="222.609" width="89.6016" height="31.3065" filterUnits="userSpaceOnUse" color-interpolation-filters="sRGB">
<feFlood flood-opacity="0" result="BackgroundImageFix"/>
<feColorMatrix in="SourceAlpha" type="matrix" values="0 0 0 0 0 0 0 0 0 0 0 0 0 0 0 0 0 0 127 0" result="hardAlpha"/>
<feOffset dy="2.15907"/>
<feColorMatrix type="matrix" values="0 0 0 0 0 0 0 0 0 0 0 0 0 0 0 0 0 0 0.016 0"/>
<feBlend mode="normal" in2="BackgroundImageFix" result="effect1_dropShadow_1826_12307"/>
<feBlend mode="normal" in="SourceGraphic" in2="effect1_dropShadow_1826_12307" result="shape"/>
</filter>
<filter id="filter2_d_1826_12307" x="0" y="154.599" width="84.2031" height="31.3065" filterUnits="userSpaceOnUse" color-interpolation-filters="sRGB">
<feFlood flood-opacity="0" result="BackgroundImageFix"/>
<feColorMatrix in="SourceAlpha" type="matrix" values="0 0 0 0 0 0 0 0 0 0 0 0 0 0 0 0 0 0 127 0" result="hardAlpha"/>
<feOffset dy="2.15907"/>
<feColorMatrix type="matrix" values="0 0 0 0 0 0 0 0 0 0 0 0 0 0 0 0 0 0 0.016 0"/>
<feBlend mode="normal" in2="BackgroundImageFix" result="effect1_dropShadow_1826_12307"/>
<feBlend mode="normal" in="SourceGraphic" in2="effect1_dropShadow_1826_12307" result="shape"/>
</filter>
<filter id="filter3_d_1826_12307" x="12.9531" y="220.45" width="84.2031" height="31.3065" filterUnits="userSpaceOnUse" color-interpolation-filters="sRGB">
<feFlood flood-opacity="0" result="BackgroundImageFix"/>
<feColorMatrix in="SourceAlpha" type="matrix" values="0 0 0 0 0 0 0 0 0 0 0 0 0 0 0 0 0 0 127 0" result="hardAlpha"/>
<feOffset dy="2.15907"/>
<feColorMatrix type="matrix" values="0 0 0 0 0 0 0 0 0 0 0 0 0 0 0 0 0 0 0.016 0"/>
<feBlend mode="normal" in2="BackgroundImageFix" result="effect1_dropShadow_1826_12307"/>
<feBlend mode="normal" in="SourceGraphic" in2="effect1_dropShadow_1826_12307" result="shape"/>
</filter>
<filter id="filter4_d_1826_12307" x="7.55469" y="82.2695" width="84.2031" height="31.3065" filterUnits="userSpaceOnUse" color-interpolation-filters="sRGB">
<feFlood flood-opacity="0" result="BackgroundImageFix"/>
<feColorMatrix in="SourceAlpha" type="matrix" values="0 0 0 0 0 0 0 0 0 0 0 0 0 0 0 0 0 0 127 0" result="hardAlpha"/>
<feOffset dy="2.15907"/>
<feColorMatrix type="matrix" values="0 0 0 0 0 0 0 0 0 0 0 0 0 0 0 0 0 0 0.016 0"/>
<feBlend mode="normal" in2="BackgroundImageFix" result="effect1_dropShadow_1826_12307"/>
<feBlend mode="normal" in="SourceGraphic" in2="effect1_dropShadow_1826_12307" result="shape"/>
</filter>
<filter id="filter5_d_1826_12307" x="199.711" y="18.5771" width="89.6016" height="31.3065" filterUnits="userSpaceOnUse" color-interpolation-filters="sRGB">
<feFlood flood-opacity="0" result="BackgroundImageFix"/>
<feColorMatrix in="SourceAlpha" type="matrix" values="0 0 0 0 0 0 0 0 0 0 0 0 0 0 0 0 0 0 127 0" result="hardAlpha"/>
<feOffset dy="2.15907"/>
<feColorMatrix type="matrix" values="0 0 0 0 0 0 0 0 0 0 0 0 0 0 0 0 0 0 0.016 0"/>
<feBlend mode="normal" in2="BackgroundImageFix" result="effect1_dropShadow_1826_12307"/>
<feBlend mode="normal" in="SourceGraphic" in2="effect1_dropShadow_1826_12307" result="shape"/>
</filter>
</defs>
</svg>
