<svg width="32" height="32" viewBox="0 0 32 32" fill="none" xmlns="http://www.w3.org/2000/svg">
<g clip-path="url(#clip0_2086_10600)">
<path fill-rule="evenodd" clip-rule="evenodd" d="M0 8.94193V5.64258C0 4.53654 0.918571 3.63672 2.0246 3.63672H29.9754C31.0814 3.63672 31.9813 4.53654 31.9813 5.64258V8.94193H0ZM4.96778 7.53596C4.29291 7.53596 3.73052 6.97357 3.73052 6.2987C3.73052 5.60508 4.29291 5.04269 4.96778 5.04269C5.66139 5.04269 6.20504 5.60508 6.20504 6.2987C6.20504 6.97357 5.66139 7.53596 4.96778 7.53596ZM27.8758 6.67363H16.1219C15.9156 6.67363 15.7469 6.50491 15.7469 6.2987C15.7469 6.09249 15.9156 5.92377 16.1219 5.92377H27.8758C28.082 5.92377 28.2507 6.09249 28.2507 6.2987C28.2507 6.50491 28.1008 6.67363 27.8758 6.67363ZM11.7914 7.53596C11.0978 7.53596 10.5542 6.97357 10.5542 6.2987C10.5542 5.60508 11.0978 5.04269 11.7914 5.04269C12.4663 5.04269 13.0287 5.60508 13.0287 6.2987C13.0287 6.97357 12.4663 7.53596 11.7914 7.53596ZM11.7914 5.79255C11.5103 5.79255 11.304 6.0175 11.304 6.2987C11.304 6.56115 11.5103 6.7861 11.7914 6.7861C12.0539 6.7861 12.2789 6.56115 12.2789 6.2987C12.2789 6.0175 12.0539 5.79255 11.7914 5.79255ZM8.37961 7.53596C7.70475 7.53596 7.14235 6.97357 7.14235 6.2987C7.14235 5.60508 7.70475 5.04269 8.37961 5.04269C9.05448 5.04269 9.61687 5.60508 9.61687 6.2987C9.61687 6.97357 9.05448 7.53596 8.37961 7.53596ZM8.37961 5.79255C8.11716 5.79255 7.89221 6.0175 7.89221 6.2987C7.89221 6.56115 8.11716 6.7861 8.37961 6.7861C8.64206 6.7861 8.86702 6.56115 8.86702 6.2987C8.86702 6.0175 8.64206 5.79255 8.37961 5.79255ZM4.96778 5.79255C4.70533 5.79255 4.48037 6.0175 4.48037 6.2987C4.48037 6.56115 4.70533 6.7861 4.96778 6.7861C5.24897 6.7861 5.45518 6.56115 5.45518 6.2987C5.45518 6.0175 5.24897 5.79255 4.96778 5.79255Z" fill="#A082EC"/>
<path fill-rule="evenodd" clip-rule="evenodd" d="M29.9754 28.3628H2.0246C0.918571 28.3628 0 27.4629 0 26.3382V9.69141H31.9813V26.3382C31.9813 27.4629 31.0814 28.3628 29.9754 28.3628ZM29.9004 13.3094H20.1336C19.9274 13.3094 19.7586 13.1407 19.7586 12.9345C19.7586 12.7283 19.9274 12.5596 20.1336 12.5596H29.9004C30.1066 12.5596 30.2753 12.7283 30.2753 12.9345C30.2753 13.1407 30.1066 13.3094 29.9004 13.3094ZM13.4599 23.0763H3.69303C3.48682 23.0763 3.3181 22.9076 3.3181 22.7014C3.3181 22.4952 3.48682 22.3264 3.69303 22.3264H13.4599C13.6661 22.3264 13.8348 22.4952 13.8348 22.7014C13.8348 22.9076 13.6661 23.0763 13.4599 23.0763ZM13.4599 26.4694H3.69303C3.48682 26.4694 3.3181 26.3007 3.3181 26.0945C3.3181 25.8882 3.48682 25.7195 3.69303 25.7195H13.4599C13.6661 25.7195 13.8348 25.8882 13.8348 26.0945C13.8348 26.3007 13.6661 26.4694 13.4599 26.4694ZM6.71119 20.6205C6.65495 20.6205 6.61746 20.6205 6.56122 20.6018C6.37375 20.5268 6.28002 20.3018 6.35501 20.1144L9.82308 11.4536C9.89807 11.2661 10.1043 11.1724 10.3105 11.2474C10.4979 11.3223 10.5917 11.5285 10.5167 11.7348L7.04862 20.3956C6.99238 20.5455 6.84241 20.6205 6.71119 20.6205ZM11.2291 19.2333C11.1353 19.2333 11.0228 19.1958 10.9479 19.1021C10.8166 18.9521 10.8354 18.7084 11.0041 18.5772L14.191 15.9152L11.0041 13.2532C10.8354 13.122 10.8166 12.897 10.9479 12.7283C11.0791 12.5783 11.3228 12.5596 11.4728 12.6908L15.0158 15.634C15.0908 15.709 15.147 15.8027 15.147 15.9152C15.147 16.0277 15.0908 16.1401 15.0158 16.2151L11.4728 19.1583C11.3978 19.2145 11.3228 19.2333 11.2291 19.2333ZM5.6239 19.2333C5.54892 19.2333 5.45518 19.2145 5.39895 19.1583L1.85589 16.2151C1.76216 16.1401 1.72466 16.0277 1.72466 15.9152C1.72466 15.8027 1.76216 15.709 1.85589 15.634L5.39895 12.6908C5.54892 12.5596 5.79262 12.5783 5.92384 12.7283C6.05507 12.897 6.03632 13.122 5.8676 13.272L2.68073 15.9152L5.8676 18.5772C6.03632 18.7084 6.05507 18.9521 5.92384 19.1021C5.84886 19.1958 5.73638 19.2333 5.6239 19.2333ZM29.9004 26.8443H18.6339C18.4277 26.8443 18.2589 26.6756 18.2589 26.4694C18.2589 26.2632 18.4277 26.0945 18.6339 26.0945H29.9004C30.1066 26.0945 30.2753 26.2632 30.2753 26.4694C30.2753 26.6756 30.1066 26.8443 29.9004 26.8443ZM29.9004 23.47H16.553C16.3468 23.47 16.1781 23.3012 16.1781 23.095C16.1781 22.8888 16.3468 22.7201 16.553 22.7201H29.9004C30.1066 22.7201 30.2753 22.8888 30.2753 23.095C30.2753 23.3012 30.1066 23.47 29.9004 23.47ZM29.9004 20.0769H20.1336C19.9274 20.0769 19.7586 19.9082 19.7586 19.702C19.7586 19.4957 19.9274 19.327 20.1336 19.327H29.9004C30.1066 19.327 30.2753 19.4957 30.2753 19.702C30.2753 19.9082 30.1066 20.0769 29.9004 20.0769ZM29.9004 16.6838H20.1336C19.9274 16.6838 19.7586 16.5338 19.7586 16.3089C19.7586 16.1027 19.9274 15.9339 20.1336 15.9339H29.9004C30.1066 15.9339 30.2753 16.1027 30.2753 16.3089C30.2753 16.5338 30.1066 16.6838 29.9004 16.6838Z" fill="#EEEEEE"/>
</g>
<defs>
<clipPath id="clip0_2086_10600">
<rect width="32" height="32" fill="white"/>
</clipPath>
</defs>
</svg>
