<svg width="32" height="32" viewBox="0 0 32 32" fill="none" xmlns="http://www.w3.org/2000/svg">
<g clip-path="url(#clip0_2074_9556)">
<path d="M12.7317 30.6432C12.7317 30.4086 12.9219 30.2185 13.1565 30.2185H14.4021C14.0215 30.2185 13.7101 29.9071 13.7101 29.5265V20.5149C13.7101 20.1343 14.0215 19.8229 14.4021 19.8229H14.909L15.9295 18.75C15.6366 18.454 15.4642 18.0504 15.4642 17.62V16.8281C14.8057 17.1866 14.0522 17.3907 13.2535 17.3907C12.5086 17.3907 11.8039 17.2124 11.178 16.8976V17.6199C11.178 18.0502 11.0056 18.4537 10.7127 18.7499L12.5451 20.6763C12.6414 20.7775 12.6426 20.936 12.5479 21.0386L11.5282 22.1432C11.4112 22.27 11.2092 22.2645 11.0994 22.1315L9.21749 19.8536C9.15699 19.7804 9.14862 19.6809 9.18874 19.6004L9.00487 19.691L5.39211 20.6004C4.61299 20.7965 4.05199 21.4764 4.00736 22.2785L3.49299 31.1474C3.47674 31.4399 3.70949 31.6861 4.00249 31.6861H13.7746C13.1986 31.6861 12.7317 31.2192 12.7317 30.6432Z" fill="#3A70BF"/>
<path d="M26.8389 19.8242H14.4029C14.0223 19.8242 13.7109 20.1356 13.7109 20.5162V29.5278C13.7109 29.9085 14.0223 30.2198 14.4029 30.2198H26.8389C27.2196 30.2198 27.5309 29.9085 27.5309 29.5278V20.5162C27.5309 20.1356 27.2194 19.8242 26.8389 19.8242Z" fill="#EDF4FC"/>
<path d="M28.0865 30.2188H13.1591C12.9245 30.2188 12.7344 30.4089 12.7344 30.6435C12.7344 31.2194 13.2013 31.6864 13.7773 31.6864H27.4685C28.0444 31.6864 28.5114 31.2195 28.5114 30.6435C28.5113 30.409 28.321 30.2188 28.0865 30.2188Z" fill="#C7D7E5"/>
<path d="M13.9501 7.0973C12.2509 9.23405 9.74456 8.93242 8.90181 8.75605C8.74869 8.72405 8.60169 8.83942 8.60156 8.99592V8.99905V12.741C8.60156 15.2995 10.6949 17.3929 13.2534 17.3929C15.8119 17.3929 17.9053 15.2995 17.9053 12.741V8.5973C17.9053 8.57305 17.9051 8.5488 17.9046 8.52455C17.9019 8.39267 17.7963 8.28392 17.6644 8.28005C15.7319 8.22342 14.7137 7.45742 14.3224 7.07392C14.2156 6.96917 14.0432 6.9803 13.9501 7.0973Z" fill="#F9D0B4"/>
<path d="M8.3055 9.19547C8.40712 9.19547 8.50662 9.20409 8.604 9.21909V8.99872C8.604 8.99772 8.604 8.99659 8.604 8.99559C8.60412 8.83909 8.75112 8.72372 8.90425 8.75572C9.747 8.93209 12.2535 9.23359 13.9525 7.09697C14.0456 6.97984 14.218 6.96884 14.3247 7.07359C14.716 7.45709 15.7343 8.22309 17.6667 8.27972C17.7986 8.28359 17.9043 8.39234 17.9069 8.52422C17.9074 8.54847 17.9076 8.57272 17.9076 8.59697V9.21922C18.005 9.20409 18.1045 9.19559 18.2061 9.19559C18.7296 9.19559 19.2039 9.40372 19.5533 9.74059V6.24697C19.5533 4.78547 18.3575 3.58972 16.896 3.58972C16.4002 3.58972 15.9369 3.72984 15.5386 3.96859C15.0734 3.19222 14.2259 2.66797 13.2599 2.66797H11.8954C9.2545 2.66797 7.09375 4.82872 7.09375 7.46959V9.62109C7.426 9.35534 7.84675 9.19547 8.3055 9.19547Z" fill="#5B5D60"/>
<path d="M18.2048 9.19531C18.1032 9.19531 18.0037 9.20394 17.9063 9.21894V12.7406C17.9063 12.8454 17.9015 12.9493 17.8945 13.0526C17.9958 13.0688 18.0989 13.0797 18.2048 13.0797C19.2774 13.0797 20.1469 12.2102 20.1469 11.1376C20.1469 10.0649 19.2774 9.19531 18.2048 9.19531Z" fill="#F9D0B4"/>
<path d="M8.60012 12.7406C8.60012 12.2586 8.60012 10.1772 8.60012 9.21894C8.50275 9.20381 8.40325 9.19531 8.30162 9.19531C7.229 9.19531 6.35938 10.0649 6.35938 11.1376C6.35938 12.2102 7.22887 13.0797 8.30162 13.0797C8.4075 13.0797 8.51063 13.0689 8.61188 13.0526C8.60488 12.9494 8.60012 12.8454 8.60012 12.7406Z" fill="#F9D0B4"/>
<path d="M17.4428 19.8237C17.498 19.7299 17.4823 19.6082 17.3994 19.5325L16.3826 18.6042C16.2885 18.5183 16.143 18.5234 16.0553 18.6157L14.9062 19.8237H17.4428Z" fill="#5290DB"/>
<path d="M9.24031 19.5325L10.2571 18.6042C10.3512 18.5183 10.4967 18.5234 10.5844 18.6157L12.5453 20.677C12.6416 20.7783 12.6428 20.9368 12.5481 21.0394L11.5284 22.144C11.4114 22.2708 11.2094 22.2653 11.0996 22.1323L9.21769 19.8544C9.13819 19.7583 9.14819 19.6167 9.24031 19.5325Z" fill="#5290DB"/>
<path d="M12.5083 21.0796C12.7507 21.119 12.9987 21.1409 13.2517 21.1409C13.4058 21.1409 13.5581 21.1325 13.7083 21.1174V20.5149C13.7083 20.1343 14.0197 19.8229 14.4003 19.8229H14.9072L15.9277 18.75C15.6348 18.454 15.4624 18.0504 15.4624 17.62V16.8281C14.8039 17.1866 14.0504 17.3907 13.2517 17.3907C12.5068 17.3907 11.8021 17.2124 11.1762 16.8976V17.6199C11.1762 18.0502 11.0038 18.4537 10.7109 18.7499L12.5433 20.6763C12.6396 20.7775 12.6408 20.936 12.5461 21.0386L12.5083 21.0796Z" fill="#F9D0B4"/>
<path d="M13.2564 21.4548C13.0163 21.4548 12.7698 21.436 12.5239 21.399C12.3532 21.3734 12.2357 21.2142 12.2613 21.0435C12.2871 20.8728 12.4461 20.755 12.6168 20.7809C12.9531 20.8314 13.2783 20.8432 13.6172 20.8138C13.7897 20.7997 13.9406 20.9263 13.9554 21.0982C13.9703 21.27 13.8429 21.4215 13.6711 21.4364C13.5314 21.4487 13.3918 21.4548 13.2564 21.4548Z" fill="black"/>
<path d="M10.7499 19.0256C10.674 19.0256 10.598 18.9981 10.5379 18.9426C10.4111 18.8255 10.4034 18.6277 10.5205 18.501C10.7425 18.2607 10.8649 17.9488 10.8649 17.6228V16.9492C10.8649 16.7766 11.0048 16.6367 11.1774 16.6367C11.35 16.6367 11.4899 16.7766 11.4899 16.9492V17.6228C11.4899 18.1066 11.3086 18.5691 10.9795 18.9252C10.9179 18.9918 10.834 19.0256 10.7499 19.0256Z" fill="black"/>
<path d="M15.8803 19.0108C15.7951 19.0108 15.7101 18.9761 15.6485 18.9079C15.3285 18.554 15.1523 18.097 15.1523 17.621V16.9004C15.1523 16.7278 15.2922 16.5879 15.4648 16.5879C15.6375 16.5879 15.7773 16.7278 15.7773 16.9004V17.621C15.7773 17.9418 15.8962 18.2499 16.1121 18.4886C16.2278 18.6166 16.2178 18.8143 16.0898 18.93C16.03 18.9841 15.955 19.0108 15.8803 19.0108Z" fill="black"/>
<path d="M20.6189 28.0561C22.2378 28.0561 23.5502 26.7437 23.5502 25.1247C23.5502 23.5058 22.2378 22.1934 20.6189 22.1934C18.9999 22.1934 17.6875 23.5058 17.6875 25.1247C17.6875 26.7437 18.9999 28.0561 20.6189 28.0561Z" fill="#70D6F9"/>
<path d="M12.7319 30.6399C12.7329 30.4074 12.9241 30.2199 13.1566 30.2199H14.4022C14.0216 30.2199 13.7102 29.9085 13.7102 29.5279V28.5625H12.7587C12.3645 28.5625 12.0051 28.7171 11.737 28.9683C11.4905 29.1993 11.1559 29.3125 10.818 29.3125H7.11786C6.98549 29.3125 6.87811 29.2051 6.87811 29.0728V27.3125H3.71549L3.49299 31.1488C3.47674 31.4413 3.70949 31.6875 4.00249 31.6875H13.7746C13.1971 31.6875 12.7292 31.218 12.7319 30.6399Z" fill="#F9D0B4"/>
<path d="M6.87891 27.6732C6.70628 27.6732 6.56641 27.5333 6.56641 27.3607V24.4883C6.56641 24.3157 6.70628 24.1758 6.87891 24.1758C7.05153 24.1758 7.19141 24.3157 7.19141 24.4883V27.3607C7.19141 27.5332 7.05153 27.6732 6.87891 27.6732Z" fill="black"/>
<path d="M13.6567 32.0008H4.00257C3.77732 32.0008 3.55944 31.907 3.40469 31.7433C3.24994 31.5797 3.16844 31.357 3.18094 31.1322L3.69532 22.2625C3.74782 21.3194 4.39907 20.5302 5.31582 20.2994L8.89632 19.3983L8.98094 19.3565C9.13582 19.2802 9.32319 19.3438 9.39944 19.4987C9.47582 19.6534 9.41219 19.8408 9.25732 19.9172L9.14294 19.9735C9.12319 19.9833 9.10244 19.9909 9.08106 19.9963L5.46844 20.9055C4.81844 21.0692 4.35657 21.6288 4.31932 22.298L3.80494 31.1677C3.80194 31.2218 3.82107 31.274 3.85882 31.3139C3.89657 31.3538 3.94769 31.3758 4.00257 31.3758H13.6567C13.8293 31.3758 13.9692 31.5157 13.9692 31.6883C13.9692 31.8609 13.8293 32.0008 13.6567 32.0008Z" fill="black"/>
<path d="M13.3229 14.8214C12.7259 14.8214 12.1651 14.5776 11.823 14.1695C11.7121 14.0373 11.7295 13.8401 11.8618 13.7293C11.9943 13.6183 12.1913 13.6359 12.302 13.768C12.5268 14.0363 12.9085 14.1964 13.3229 14.1964C13.7373 14.1964 14.119 14.0363 14.3438 13.7681C14.4546 13.6359 14.6516 13.6184 14.784 13.7294C14.9163 13.8403 14.9336 14.0374 14.8228 14.1696C14.4806 14.5778 13.9199 14.8214 13.3229 14.8214Z" fill="black"/>
<path d="M15.4219 11.8516C15.698 11.8516 15.9219 11.6277 15.9219 11.3516C15.9219 11.0754 15.698 10.8516 15.4219 10.8516C15.1457 10.8516 14.9219 11.0754 14.9219 11.3516C14.9219 11.6277 15.1457 11.8516 15.4219 11.8516Z" fill="black"/>
<path d="M11.2227 11.8516C11.4988 11.8516 11.7227 11.6277 11.7227 11.3516C11.7227 11.0754 11.4988 10.8516 11.2227 10.8516C10.9465 10.8516 10.7227 11.0754 10.7227 11.3516C10.7227 11.6277 10.9465 11.8516 11.2227 11.8516Z" fill="black"/>
<path d="M16.4428 13.2515H15.2882C14.3559 13.2515 13.5977 12.4932 13.5977 11.561V10.7623C13.5977 10.0652 14.1649 9.49805 14.862 9.49805H16.869C17.5662 9.49805 18.1334 10.0652 18.1334 10.7623V11.561C18.1333 12.4932 17.3749 13.2515 16.4428 13.2515ZM14.8619 10.123C14.5094 10.123 14.2225 10.4098 14.2225 10.7623V11.561C14.2225 12.1485 14.7005 12.6265 15.288 12.6265H16.4427C17.0302 12.6265 17.5082 12.1485 17.5082 11.561V10.7623C17.5082 10.4098 17.2214 10.123 16.8688 10.123H14.8619Z" fill="black"/>
<path d="M11.2279 13.2515H10.0733C9.14106 13.2515 8.38281 12.4932 8.38281 11.561V10.7623C8.38281 10.0652 8.95006 9.49805 9.64719 9.49805H11.6542C12.3513 9.49805 12.9186 10.0652 12.9186 10.7623V11.561C12.9186 12.4932 12.1602 13.2515 11.2279 13.2515ZM9.64719 10.123C9.29469 10.123 9.00781 10.4098 9.00781 10.7623V11.561C9.00781 12.1485 9.48581 12.6265 10.0733 12.6265H11.2279C11.8154 12.6265 12.2934 12.1485 12.2934 11.561V10.7623C12.2934 10.4098 12.0067 10.123 11.6541 10.123H9.64719Z" fill="black"/>
<path d="M13.7773 11.2402H12.7344C12.5617 11.2402 12.4219 11.1004 12.4219 10.9277C12.4219 10.7551 12.5617 10.6152 12.7344 10.6152H13.7773C13.9499 10.6152 14.0898 10.7551 14.0898 10.9277C14.0898 11.1004 13.9499 11.2402 13.7773 11.2402Z" fill="black"/>
<path d="M26.8598 30.532C26.6916 30.532 26.5527 30.3982 26.5476 30.2288C26.5423 30.0563 26.6779 29.9122 26.8506 29.9071C27.0534 29.901 27.2184 29.7308 27.2184 29.5278V20.5162C27.2184 20.307 27.0482 20.1367 26.8389 20.1367H14.4029C14.1937 20.1367 14.0234 20.307 14.0234 20.5162V29.5278C14.0234 29.731 14.1884 29.901 14.3913 29.9071C14.5638 29.9123 14.6994 30.0563 14.6943 30.2288C14.6891 30.4013 14.5473 30.5357 14.3726 30.5318C13.8354 30.5157 13.3984 30.0652 13.3984 29.5278V20.5162C13.3984 19.9623 13.8491 19.5117 14.4029 19.5117H26.8389C27.3928 19.5117 27.8434 19.9623 27.8434 20.5162V29.5278C27.8434 30.0652 27.4064 30.5157 26.8693 30.5318C26.8662 30.532 26.8631 30.532 26.8598 30.532Z" fill="black"/>
<path d="M27.4684 31.9989H13.7771C13.0298 31.9989 12.4219 31.3909 12.4219 30.6435C12.4219 30.237 12.7526 29.9062 13.1591 29.9062H28.0864C28.4929 29.9062 28.8236 30.237 28.8236 30.6435C28.8238 31.3909 28.2158 31.9989 27.4684 31.9989ZM13.1593 30.5312C13.0973 30.5312 13.047 30.5816 13.047 30.6435C13.047 31.0462 13.3746 31.3739 13.7773 31.3739H27.4685C27.8713 31.3739 28.1989 31.0462 28.1989 30.6435C28.1989 30.5816 28.1485 30.5312 28.0866 30.5312H13.1593Z" fill="black"/>
<path d="M19.4181 26.2824C19.3321 26.2824 19.2464 26.2471 19.1847 26.1779L18.4387 25.3414C18.3329 25.2229 18.3329 25.0439 18.4387 24.9254L19.1847 24.0889C19.2994 23.9601 19.4972 23.9487 19.6259 24.0636C19.7547 24.1785 19.7661 24.3761 19.6512 24.5049L19.0907 25.1334L19.6512 25.7619C19.7661 25.8906 19.7548 26.0882 19.6259 26.2031C19.5663 26.2564 19.4919 26.2824 19.4181 26.2824Z" fill="black"/>
<path d="M21.8241 26.2824C21.7501 26.2824 21.6758 26.2563 21.6163 26.2032C21.4875 26.0883 21.4761 25.8907 21.591 25.7619L22.1515 25.1334L21.591 24.5049C21.4761 24.3762 21.4874 24.1785 21.6163 24.0637C21.745 23.9487 21.9425 23.9602 22.0575 24.0889L22.8036 24.9254C22.9094 25.0439 22.9094 25.2229 22.8036 25.3414L22.0575 26.1779C21.9958 26.2472 21.9101 26.2824 21.8241 26.2824Z" fill="black"/>
<path d="M20.2577 26.254C20.2158 26.254 20.1733 26.2457 20.1325 26.2278C19.9743 26.1585 19.9025 25.9742 19.9716 25.8162L20.7007 24.152C20.77 23.994 20.9542 23.9219 21.1123 23.9912C21.2705 24.0604 21.3423 24.2448 21.2732 24.4028L20.5441 26.0669C20.4927 26.184 20.378 26.254 20.2577 26.254Z" fill="black"/>
<path d="M7.97866 16.4169C7.41641 16.3121 6.97328 15.8781 6.86641 15.3274C6.86103 15.2997 6.82241 15.2997 6.81703 15.3274C6.71016 15.8781 6.26703 16.3122 5.70478 16.4169C5.67653 16.4221 5.67653 16.46 5.70478 16.4652C6.26703 16.57 6.71016 17.004 6.81703 17.5549C6.82241 17.5825 6.86103 17.5825 6.86641 17.5549C6.97328 17.0041 7.41641 16.57 7.97866 16.4652C8.00678 16.4599 8.00678 16.4221 7.97866 16.4169Z" fill="#F5C84C"/>
<path d="M21.6872 14.0113C21.3294 13.9447 21.0474 13.6684 20.9793 13.3179C20.9759 13.3003 20.9513 13.3003 20.9479 13.3179C20.8799 13.6684 20.5979 13.9447 20.2401 14.0113C20.2221 14.0147 20.2221 14.0387 20.2401 14.042C20.5978 14.1087 20.8798 14.3849 20.9479 14.7354C20.9513 14.753 20.9759 14.753 20.9793 14.7354C21.0473 14.3849 21.3293 14.1087 21.6872 14.042C21.7051 14.0387 21.7051 14.0147 21.6872 14.0113Z" fill="#FC657E"/>
<path d="M21.1563 2.96908H21.4476V2.67783C21.4476 2.45983 21.6242 2.2832 21.8422 2.2832C22.0602 2.2832 22.2368 2.45983 22.2368 2.67783V2.96908H22.528C22.746 2.96908 22.9226 3.1457 22.9226 3.3637C22.9226 3.5817 22.746 3.75833 22.528 3.75833H22.2368V4.04958C22.2368 4.26758 22.0602 4.4442 21.8422 4.4442C21.6242 4.4442 21.4476 4.26758 21.4476 4.04958V3.75833H21.1563C20.9383 3.75833 20.7617 3.5817 20.7617 3.3637C20.7617 3.1457 20.9383 2.96908 21.1563 2.96908Z" fill="#70D6F9"/>
<path d="M3.969 19.5239C4.20213 19.5239 4.39112 19.3349 4.39112 19.1018C4.39112 18.8687 4.20213 18.6797 3.969 18.6797C3.73587 18.6797 3.54688 18.8687 3.54688 19.1018C3.54688 19.3349 3.73587 19.5239 3.969 19.5239Z" fill="#FC657E"/>
<path d="M19.469 0.84425C19.7021 0.84425 19.8911 0.655258 19.8911 0.422125C19.8911 0.188992 19.7021 0 19.469 0C19.2359 0 19.0469 0.188992 19.0469 0.422125C19.0469 0.655258 19.2359 0.84425 19.469 0.84425Z" fill="#87D147"/>
<path d="M13.2534 17.7056C10.5161 17.7056 8.28906 15.4786 8.28906 12.7412V8.9992C8.28919 8.82783 8.36444 8.6707 8.49531 8.56433C8.62769 8.45695 8.79944 8.41533 8.96581 8.45033C9.87044 8.63958 12.1431 8.86758 13.7054 6.90283C13.8049 6.77783 13.9532 6.70045 14.1121 6.69058C14.2712 6.68045 14.4272 6.7392 14.5411 6.8507C14.8652 7.16845 15.8193 7.91333 17.6736 7.9677C17.9724 7.97658 18.2111 8.21845 18.2171 8.51845C18.2176 8.54458 18.2178 8.57095 18.2178 8.59745V12.7413C18.2178 15.4786 15.9908 17.7056 13.2534 17.7056ZM8.91406 9.07745V12.7413C8.91406 15.1341 10.8607 17.0807 13.2534 17.0807C15.6462 17.0807 17.5928 15.1341 17.5928 12.7413V8.59733C17.5928 8.59495 17.5928 8.59258 17.5928 8.59033C15.6986 8.51995 14.6396 7.80183 14.1526 7.34408C12.3791 9.5187 9.78756 9.2462 8.91406 9.07745ZM14.1946 7.29195C14.1946 7.29208 14.1946 7.29208 14.1944 7.2922C14.1944 7.29208 14.1946 7.29208 14.1946 7.29195Z" fill="black"/>
<path d="M19.5533 9.93784C19.3806 9.93784 19.2408 9.79797 19.2408 9.62534V6.24697C19.2408 4.95409 18.1889 3.90222 16.896 3.90222C16.4779 3.90222 16.0641 4.01784 15.6992 4.23659C15.6281 4.27922 15.5429 4.29172 15.4626 4.27172C15.3823 4.25159 15.3131 4.20034 15.2705 4.12922C14.846 3.42072 14.0755 2.98047 13.2597 2.98047H11.8954C9.42 2.98047 7.40625 4.99434 7.40625 7.46972V9.57847C7.40625 9.75109 7.26638 9.89097 7.09375 9.89097C6.92112 9.89097 6.78125 9.75109 6.78125 9.57847V7.46972C6.78125 4.64972 9.0755 2.35547 11.8954 2.35547H13.2599C14.195 2.35547 15.0826 2.81059 15.6409 3.56022C16.0346 3.37434 16.4633 3.27722 16.8961 3.27722C18.5336 3.27722 19.8659 4.60947 19.8659 6.24697V9.62534C19.8658 9.79784 19.7259 9.93784 19.5533 9.93784Z" fill="black"/>
<path d="M18.2057 13.3924C18.128 13.3924 18.049 13.3877 17.9641 13.3778C17.7926 13.3579 17.6698 13.2029 17.6896 13.0314C17.7095 12.8601 17.8636 12.7369 18.036 12.7569C18.0966 12.7639 18.1522 12.7673 18.2056 12.7673C19.1042 12.7673 19.8353 12.0362 19.8353 11.1376C19.8353 10.2389 19.1042 9.50781 18.2056 9.50781C18.1543 9.50781 18.1012 9.51056 18.0475 9.51594C17.876 9.53269 17.7226 9.40781 17.7053 9.23606C17.6882 9.06431 17.8135 8.91119 17.9852 8.89394C18.0595 8.88656 18.1336 8.88281 18.2056 8.88281C19.4488 8.88281 20.4603 9.89431 20.4603 11.1376C20.4603 12.3808 19.449 13.3924 18.2057 13.3924Z" fill="black"/>
<path d="M8.30162 13.3923C7.05837 13.3923 6.04688 12.3808 6.04688 11.1376C6.04688 9.89431 7.05837 8.88281 8.30162 8.88281C8.36112 8.88281 8.42 8.88531 8.47825 8.89006C8.65025 8.90419 8.77825 9.05506 8.76425 9.22706C8.75013 9.39919 8.59838 9.52731 8.42725 9.51306C8.38575 9.50969 8.34387 9.50781 8.30162 9.50781C7.403 9.50781 6.67188 10.2389 6.67188 11.1376C6.67188 12.0362 7.403 12.7673 8.30162 12.7673C8.34487 12.7673 8.38762 12.7651 8.42975 12.7612C8.60238 12.7447 8.75375 12.8718 8.76963 13.0437C8.7855 13.2156 8.659 13.3677 8.48712 13.3836C8.424 13.3893 8.36162 13.3923 8.30162 13.3923Z" fill="black"/>
<path d="M14.9531 20.0895C14.8757 20.0895 14.7982 20.0608 14.7377 20.0035C14.6127 19.8845 14.6077 19.6867 14.7267 19.5616L15.8306 18.4011C16.0341 18.1872 16.3771 18.1751 16.5951 18.3742L17.6118 19.3026C17.7592 19.4371 17.8213 19.6415 17.7737 19.8357C17.7326 20.0032 17.5635 20.1058 17.3958 20.0648C17.2443 20.0277 17.1458 19.8858 17.1587 19.7351L16.2305 18.8876L15.1797 19.9923C15.1182 20.057 15.0357 20.0895 14.9531 20.0895Z" fill="black"/>
<path d="M11.3192 22.5491C11.3137 22.5491 11.3083 22.5491 11.3028 22.5489C11.1305 22.5441 10.9686 22.4652 10.8587 22.3322L8.97695 20.0542C8.7912 19.8295 8.81433 19.4994 9.0297 19.3026L10.0465 18.3742C10.2646 18.1751 10.6076 18.1871 10.811 18.4012L12.7718 20.4626C12.981 20.6826 12.9835 21.0295 12.7777 21.2524L11.7581 22.3569C11.6448 22.4796 11.4856 22.5491 11.3192 22.5491ZM9.5062 19.7137L11.3202 21.9097L12.2882 20.861L10.411 18.8875L9.5062 19.7137ZM9.4512 19.7641C9.4512 19.764 9.45133 19.764 9.45145 19.7639L9.4512 19.7641Z" fill="black"/>
<path d="M20.6189 28.3686C18.8301 28.3686 17.375 26.9134 17.375 25.1247C17.375 23.3361 18.8302 21.8809 20.6189 21.8809C22.4075 21.8809 23.8627 23.3361 23.8627 25.1247C23.8627 26.9134 22.4076 28.3686 20.6189 28.3686ZM20.6189 22.5059C19.1747 22.5059 18 23.6806 18 25.1247C18 26.5689 19.1747 27.7436 20.6189 27.7436C22.0629 27.7436 23.2377 26.5689 23.2377 25.1247C23.2377 23.6806 22.063 22.5059 20.6189 22.5059Z" fill="black"/>
<path d="M10.8177 29.625H7.11728C6.81278 29.625 6.56516 29.3774 6.56516 29.0729V27.625H3.76953C3.59691 27.625 3.45703 27.4851 3.45703 27.3125C3.45703 27.1399 3.59691 27 3.76953 27H6.87766C7.05028 27 7.19016 27.1399 7.19016 27.3125V29H10.8177C11.0937 29 11.3442 28.9077 11.5229 28.7402C11.8603 28.4241 12.299 28.25 12.7583 28.25H13.6095C13.7822 28.25 13.922 28.3899 13.922 28.5625C13.922 28.7351 13.7822 28.875 13.6095 28.875H12.7583C12.4583 28.875 12.1714 28.9891 11.9503 29.1964C11.6553 29.4727 11.253 29.625 10.8177 29.625Z" fill="black"/>
</g>
<defs>
<clipPath id="clip0_2074_9556">
<rect width="32" height="32" fill="white"/>
</clipPath>
</defs>
</svg>
