<svg width="70" height="70" viewBox="0 0 70 70" fill="none" xmlns="http://www.w3.org/2000/svg">
<path d="M4.90518 9.93652H43.2042C45.0857 9.93652 46.6133 11.4641 46.6133 13.3456V60.3413C46.6133 62.2228 45.0857 63.7504 43.2042 63.7504H4.90518C3.02365 63.7504 1.49609 62.2228 1.49609 60.3413V13.3457C1.49609 11.4642 3.02352 9.93652 4.90518 9.93652Z" fill="#DEA368"/>
<path fill-rule="evenodd" clip-rule="evenodd" d="M46.6145 13.3457C46.6145 11.468 45.0831 9.93652 43.2054 9.93652H6.30361C4.42592 9.93652 2.89453 11.468 2.89453 13.3457V60.3414C2.89453 62.219 4.42605 63.7505 6.30361 63.7505H43.2054C45.0831 63.7505 46.6145 62.219 46.6146 60.3414V13.3457H46.6145Z" fill="#E6B17C"/>
<path d="M43.1836 13.3672H44.2503V60.3217H43.1836V13.3672Z" fill="#DEA368"/>
<path d="M4.92578 13.3672H43.1837V60.3217H4.92578V13.3672Z" fill="#F3F3FF"/>
<path fill-rule="evenodd" clip-rule="evenodd" d="M24.0541 4.11621C26.2689 4.11621 28.0643 5.91174 28.0643 8.12644V8.67728L32.0401 7.98234C32.6377 7.87789 33.194 8.0276 33.6583 8.41779C34.1227 8.80799 34.3659 9.33025 34.3659 9.93687V14.2527H13.7422V9.93687C13.7422 9.33025 13.9854 8.80812 14.4498 8.41779C14.9143 8.02746 15.4706 7.87789 16.068 7.98234L20.0437 8.67728V8.12644C20.0437 5.91174 21.8391 4.11621 24.0539 4.11621H24.0541Z" fill="#AB733A"/>
<path fill-rule="evenodd" clip-rule="evenodd" d="M25.2265 4.29119C26.8688 4.79295 28.0633 6.32037 28.0633 8.12684V8.67768L32.0389 7.98273C32.6365 7.87828 33.1929 8.02799 33.6571 8.41818C34.1216 8.80838 34.3648 9.33064 34.3648 9.93727V14.2529H14.7109V10.1068C14.7109 9.50018 14.9542 8.97805 15.4186 8.58771C15.883 8.19752 16.4393 8.04781 17.0368 8.15227L20.0428 8.67768L21.0126 8.84721V8.29637C21.0126 6.08166 22.808 4.28613 25.0228 4.28613C25.0912 4.28613 25.1591 4.28791 25.2265 4.29119Z" fill="#BA8047"/>
<path fill-rule="evenodd" clip-rule="evenodd" d="M24.0541 9.18441C24.6304 9.18441 25.1003 8.71437 25.1003 8.13811C25.1003 7.56184 24.6303 7.0918 24.0541 7.0918C23.478 7.0918 23.0078 7.56184 23.0078 8.13811C23.0078 8.71437 23.4779 9.18441 24.0541 9.18441Z" fill="#E9E9FF"/>
<path fill-rule="evenodd" clip-rule="evenodd" d="M21.5 23.8035C21.1225 23.8035 20.8164 23.4974 20.8164 23.1199C20.8164 22.7424 21.1225 22.4363 21.5 22.4363H36.127C36.5045 22.4363 36.8106 22.7424 36.8106 23.1199C36.8106 23.4974 36.5045 23.8035 36.127 23.8035H21.5ZM21.5 20.6631C21.1225 20.6631 20.8164 20.357 20.8164 19.9795C20.8164 19.602 21.1225 19.2959 21.5 19.2959H32.9153C33.2928 19.2959 33.5989 19.602 33.5989 19.9795C33.5989 20.357 33.2928 20.6631 32.9153 20.6631H21.5ZM21.5 26.9441C21.1225 26.9441 20.8164 26.638 20.8164 26.2605C20.8164 25.883 21.1225 25.5769 21.5 25.5769H38.5357C38.9132 25.5769 39.2193 25.883 39.2193 26.2605C39.2193 26.638 38.9132 26.9441 38.5357 26.9441H21.5Z" fill="#A3A3CC"/>
<path d="M16.7424 18.9561H10.7348C10.0938 18.9561 9.57422 19.4757 9.57422 20.1167V26.1242C9.57422 26.7652 10.0938 27.2848 10.7348 27.2848H16.7424C17.3834 27.2848 17.903 26.7652 17.903 26.1242V20.1167C17.903 19.4757 17.3834 18.9561 16.7424 18.9561Z" fill="#F9AC00"/>
<path d="M16.7426 18.9561H11.7348C11.0938 18.9561 10.5742 19.4757 10.5742 20.1167V26.1242C10.5742 26.7652 11.0938 27.2848 11.7348 27.2848H16.7426C17.3835 27.2848 17.9032 26.7652 17.9032 26.1242V20.1167C17.9032 19.4757 17.3835 18.9561 16.7426 18.9561Z" fill="#FDC72E"/>
<path fill-rule="evenodd" clip-rule="evenodd" d="M11.0551 23.2186C10.8678 22.8913 10.9814 22.474 11.3087 22.2867C11.6362 22.0994 12.0534 22.213 12.2406 22.5403L12.834 23.5758L15.3434 21.0664C15.6103 20.7995 16.0432 20.7995 16.31 21.0664C16.5769 21.3332 16.5769 21.7661 16.31 22.033L13.1689 25.1741L13.1686 25.1737C13.1267 25.2156 13.0787 25.2527 13.0248 25.2835C12.6975 25.4708 12.2801 25.3571 12.0929 25.0297L11.0551 23.2183V23.2186Z" fill="#F3F3FF"/>
<path fill-rule="evenodd" clip-rule="evenodd" d="M21.5 37.5263C21.1225 37.5263 20.8164 37.2202 20.8164 36.8427C20.8164 36.4652 21.1225 36.1591 21.5 36.1591H36.127C36.5045 36.1591 36.8106 36.4652 36.8106 36.8427C36.8106 37.2202 36.5045 37.5263 36.127 37.5263H21.5ZM21.5 34.3857C21.1225 34.3857 20.8164 34.0796 20.8164 33.7021C20.8164 33.3247 21.1225 33.0186 21.5 33.0186H32.9153C33.2928 33.0186 33.5989 33.3247 33.5989 33.7021C33.5989 34.0796 33.2928 34.3857 32.9153 34.3857H21.5ZM21.5 40.6667C21.1225 40.6667 20.8164 40.3606 20.8164 39.9831C20.8164 39.6057 21.1225 39.2995 21.5 39.2995H38.5357C38.9132 39.2995 39.2193 39.6057 39.2193 39.9831C39.2193 40.3606 38.9132 40.6667 38.5357 40.6667H21.5Z" fill="#A3A3CC"/>
<path fill-rule="evenodd" clip-rule="evenodd" d="M21.5 51.2488C21.1225 51.2488 20.8164 50.9427 20.8164 50.5652C20.8164 50.1877 21.1225 49.8816 21.5 49.8816H36.127C36.5045 49.8816 36.8106 50.1877 36.8106 50.5652C36.8106 50.9427 36.5045 51.2488 36.127 51.2488H21.5ZM21.5 48.1084C21.1225 48.1084 20.8164 47.8023 20.8164 47.4248C20.8164 47.0473 21.1225 46.7412 21.5 46.7412H32.9153C33.2928 46.7412 33.5989 47.0473 33.5989 47.4248C33.5989 47.8023 33.2928 48.1084 32.9153 48.1084H21.5ZM21.5 54.3894C21.1225 54.3894 20.8164 54.0833 20.8164 53.7058C20.8164 53.3283 21.1225 53.0222 21.5 53.0222H38.5357C38.9132 53.0222 39.2193 53.3283 39.2193 53.7058C39.2193 54.0833 38.9132 54.3894 38.5357 54.3894H21.5Z" fill="#A3A3CC"/>
<path d="M52.7031 52.625L55.2326 50.0955L61.0974 55.9603L58.5679 58.4898L52.7031 52.625Z" fill="#7986BF"/>
<path d="M52.7031 52.625L53.5678 51.7603L59.4327 57.6251L58.568 58.4899L52.7031 52.625Z" fill="#6A75AD"/>
<path d="M55.6778 53.0674C61.5965 47.1487 61.5965 37.5525 55.6778 31.6338C49.759 25.7151 40.1629 25.7151 34.2442 31.6338C28.3254 37.5525 28.3254 47.1487 34.2442 53.0674C40.1629 58.9861 49.759 58.9861 55.6778 53.0674Z" fill="#2A93FC"/>
<path fill-rule="evenodd" clip-rule="evenodd" d="M45.3444 27.1973C53.544 27.395 60.1302 34.1036 60.1302 42.3508C60.1302 50.5979 53.544 57.3064 45.3444 57.5043C37.1449 57.3066 30.5586 50.5979 30.5586 42.3508C30.5586 34.1036 37.1449 27.3951 45.3444 27.1973ZM45.7169 30.7703C45.5922 30.7703 45.4682 30.773 45.3444 30.777C45.2207 30.773 45.0967 30.7703 44.972 30.7703C38.5763 30.7703 33.3915 35.9551 33.3915 42.3508C33.3915 48.7465 38.5762 53.9312 44.972 53.9312C45.0967 53.9312 45.2207 53.9285 45.3444 53.9247C45.4682 53.9286 45.5922 53.9312 45.7169 53.9312C52.1126 53.9312 57.2974 48.7465 57.2974 42.3508C57.2974 35.9551 52.1126 30.7703 45.7169 30.7703Z" fill="#4EB1FC"/>
<path fill-rule="evenodd" clip-rule="evenodd" d="M67.7555 61.5069L60.8416 54.593C60.3596 54.1109 59.5732 54.1109 59.0911 54.593L57.2131 56.471C56.731 56.953 56.731 57.7394 57.2131 58.2215L64.127 65.1354C65.1249 66.1333 66.7577 66.1333 67.7555 65.1354C68.7534 64.1375 68.7534 62.5046 67.7555 61.5069Z" fill="#3D4A75"/>
<path fill-rule="evenodd" clip-rule="evenodd" d="M57.7521 55.9316L57.2131 56.4706C56.731 56.9527 56.731 57.7391 57.2131 58.2211L64.127 65.135C64.9875 65.9955 66.3201 66.1139 67.3106 65.4903L57.7519 55.9316H57.7521Z" fill="#323E66"/>
<path d="M44.9711 53.9305C51.3668 53.9305 56.5516 48.7457 56.5516 42.35C56.5516 35.9543 51.3668 30.7695 44.9711 30.7695C38.5754 30.7695 33.3906 35.9543 33.3906 42.35C33.3906 48.7457 38.5754 53.9305 44.9711 53.9305Z" fill="#F3F3FF"/>
<path d="M16.7424 32.6787H10.7348C10.0938 32.6787 9.57422 33.1983 9.57422 33.8393V39.8469C9.57422 40.4879 10.0938 41.0075 10.7348 41.0075H16.7424C17.3834 41.0075 17.903 40.4879 17.903 39.8469V33.8393C17.903 33.1983 17.3834 32.6787 16.7424 32.6787Z" fill="#29B933"/>
<path d="M16.7426 32.6787H11.7348C11.0938 32.6787 10.5742 33.1983 10.5742 33.8393V39.8469C10.5742 40.4879 11.0938 41.0075 11.7348 41.0075H16.7426C17.3835 41.0075 17.9032 40.4879 17.9032 39.8469V33.8393C17.9032 33.1983 17.3835 32.6787 16.7426 32.6787Z" fill="#2DD62D"/>
<path fill-rule="evenodd" clip-rule="evenodd" d="M11.0551 36.9413C10.8678 36.6139 10.9814 36.1967 11.3087 36.0094C11.6362 35.8221 12.0534 35.9357 12.2406 36.263L12.834 37.2985L15.3434 34.789C15.6103 34.5221 16.0432 34.5221 16.31 34.789C16.5769 35.0559 16.5769 35.4888 16.31 35.7556L13.1689 38.8967L13.1686 38.8965C13.1267 38.9383 13.0787 38.9755 13.0248 39.0063C12.6975 39.1936 12.2801 39.0799 12.0929 38.7525L11.0551 36.9411V36.9413Z" fill="#F3F3FF"/>
<path d="M16.7424 46.4004H10.7348C10.0938 46.4004 9.57422 46.92 9.57422 47.561V53.5686C9.57422 54.2095 10.0938 54.7292 10.7348 54.7292H16.7424C17.3834 54.7292 17.903 54.2095 17.903 53.5686V47.561C17.903 46.92 17.3834 46.4004 16.7424 46.4004Z" fill="#ED1717"/>
<path d="M16.7426 46.4004H11.7348C11.0938 46.4004 10.5742 46.92 10.5742 47.561V53.5686C10.5742 54.2095 11.0938 54.7292 11.7348 54.7292H16.7426C17.3835 54.7292 17.9032 54.2095 17.9032 53.5686V47.561C17.9032 46.92 17.3835 46.4004 16.7426 46.4004Z" fill="#FF3838"/>
<path fill-rule="evenodd" clip-rule="evenodd" d="M16.1084 51.969C16.3753 52.2359 16.3753 52.6687 16.1084 52.9356C15.8416 53.2025 15.4087 53.2025 15.1418 52.9356L13.7383 51.532L12.3347 52.9356C12.0679 53.2025 11.635 53.2025 11.3681 52.9356C11.1012 52.6687 11.1012 52.2359 11.3681 51.969L12.7717 50.5654L11.3681 49.1619C11.1012 48.895 11.1012 48.4621 11.3681 48.1953C11.635 47.9284 12.0679 47.9284 12.3347 48.1953L13.7383 49.5988L15.1418 48.1953C15.4087 47.9284 15.8416 47.9284 16.1084 48.1953C16.3753 48.4621 16.3753 48.895 16.1084 49.1619L14.7049 50.5654L16.1084 51.969Z" fill="#F3F3FF"/>
</svg>
