<svg width="44" height="44" viewBox="0 0 44 44" fill="none" xmlns="http://www.w3.org/2000/svg">
<path d="M39.3321 30.3341C39.3321 39.8724 31.5364 43.9996 21.9981 43.9996C12.3681 43.9996 4.66406 39.8724 4.66406 30.3341C4.66406 24.923 10.2587 17.6775 15.0278 12.3581C17.1372 10.0652 19.0632 8.13918 20.3472 6.94695C21.3561 5.93812 21.9981 5.47949 21.9981 5.47949C21.9981 5.47949 22.6401 6.02978 23.649 6.94695C24.9329 8.13927 26.8589 10.0653 28.9683 12.3581C33.7375 17.6775 39.3321 24.923 39.3321 30.3341Z" fill="#602EDF"/>
<path d="M17.3224 9.88219H26.6772C28.6032 7.95618 29.4287 5.29649 29.979 2.54506C30.1624 1.35274 29.0618 0.435651 27.9612 0.985938C25.6683 2.08651 24.3843 1.53622 22.9169 0.343908C22.3666 -0.114636 21.6329 -0.114636 21.0826 0.343908C19.6152 1.53622 18.3312 2.08651 16.0383 0.985938C14.9377 0.527394 13.7454 1.44448 14.0206 2.54506C14.5709 5.29649 15.3964 7.86452 17.3224 9.88219Z" fill="#602EDF"/>
<path d="M14.9377 3.46232C14.7543 2.27 15.8549 1.35282 16.9555 1.90311C19.2484 3.00369 20.5323 2.4534 21.9998 1.26108C22.5501 0.802538 23.2838 0.802538 23.8341 1.26108C25.3015 2.4534 26.5855 3.00369 28.8784 1.90311C29.2453 1.71971 29.6121 1.71971 29.979 1.81137C29.7038 1.07768 28.8784 0.527394 27.9612 0.985938C25.6683 2.08651 24.3843 1.53622 22.9169 0.343908C22.3666 -0.114636 21.6329 -0.114636 21.0826 0.343908C19.6152 1.53622 18.3312 2.08651 16.0383 0.985938C14.9377 0.527394 13.7454 1.44448 14.0206 2.54506C14.5708 5.29649 15.3963 7.86452 17.3223 9.88219H17.5057C16.13 8.04801 15.3964 5.84686 14.9377 3.46232Z" fill="#F1543F"/>
<path d="M21.9984 36.6628C26.6078 36.6628 30.3444 32.9261 30.3444 28.3168C30.3444 23.7074 26.6078 19.9707 21.9984 19.9707C17.389 19.9707 13.6523 23.7074 13.6523 28.3168C13.6523 32.9261 17.389 36.6628 21.9984 36.6628Z" fill="#F2F2F2"/>
<path d="M14.5695 29.2338C14.5695 24.6481 18.3298 20.8878 22.9156 20.8878C24.9333 20.8878 26.8593 21.6215 28.3267 22.9055C26.7676 21.1629 24.5664 19.9707 21.9984 19.9707C17.4127 19.9707 13.6523 23.731 13.6523 28.3168C13.6523 30.8848 14.7529 33.0859 16.5872 34.6451C15.3949 33.1776 14.5695 31.2516 14.5695 29.2338Z" fill="#E2E7ED"/>
<path d="M21.5424 31.4353V28.6838C20.717 28.4087 20.0749 28.0418 19.6164 27.5832C19.2495 27.1247 18.9744 26.4827 18.9744 25.749C18.9744 25.0153 19.1578 24.3733 19.6164 23.9147C20.0749 23.4562 20.717 23.181 21.4507 23.0893V22.4473H22.3678V23.0893C23.1015 23.181 23.6518 23.4562 24.0187 23.823C24.4772 24.1899 24.6607 24.7402 24.8441 25.3821L23.1933 25.5655C23.1015 25.0152 22.8264 24.6483 22.3678 24.4649V27.033C23.4684 27.3081 24.1104 27.675 24.569 28.1335C24.9359 28.5921 25.1193 29.1424 25.1193 29.8761C25.1193 30.7016 24.8441 31.3436 24.3856 31.8939C23.927 32.4442 23.1933 32.8111 22.3678 32.9027V34.095H21.4507V32.9945C20.717 32.9027 20.0749 32.6276 19.6164 32.169C19.1578 31.7105 18.791 30.9767 18.6992 30.1513L20.4418 29.9679C20.5336 30.3347 20.6253 30.6098 20.8087 30.885C21.0839 31.1601 21.2673 31.3435 21.5424 31.4353ZM21.5424 24.4649C21.2673 24.5567 21.0839 24.7401 20.9004 24.9235C20.717 25.1069 20.6252 25.382 20.6252 25.6572C20.6252 25.9323 20.717 26.1157 20.8086 26.2992C20.992 26.4826 21.1755 26.6661 21.4507 26.7577V24.4648L21.5424 24.4649ZM22.4596 31.527C22.8265 31.4353 23.1016 31.3436 23.285 31.0685C23.4684 30.7933 23.5601 30.5182 23.5601 30.243C23.5601 29.9679 23.4684 29.6927 23.285 29.5093C23.1016 29.3259 22.8265 29.1425 22.4596 29.0508V31.527Z" fill="#40596B"/>
<path d="M27.9607 11.1664H16.0378C15.2123 11.1664 14.5703 10.5243 14.5703 9.69891C14.5703 8.87348 15.2123 8.23145 16.0378 8.23145H28.0523C28.8778 8.23145 29.5198 8.87348 29.5198 9.69891C29.4281 10.5243 28.7861 11.1664 27.9607 11.1664Z" fill="#F2F2F2"/>
</svg>
