<svg width="70" height="70" viewBox="0 0 70 70" fill="none" xmlns="http://www.w3.org/2000/svg">
<g clip-path="url(#clip0_1840_20747)">
<path d="M34.9992 52.7727C35.4151 52.7727 35.7522 52.4356 35.7522 52.0197C35.7522 51.6038 35.4151 51.2666 34.9992 51.2666C34.5833 51.2666 34.2461 51.6038 34.2461 52.0197C34.2461 52.4356 34.5833 52.7727 34.9992 52.7727Z" fill="#FCAA1A"/>
<path d="M34.9992 49.76C35.4151 49.76 35.7522 49.4229 35.7522 49.007C35.7522 48.5911 35.4151 48.2539 34.9992 48.2539C34.5833 48.2539 34.2461 48.5911 34.2461 49.007C34.2461 49.4229 34.5833 49.76 34.9992 49.76Z" fill="#FCAA1A"/>
<path d="M64.8663 39.0166C64.7014 39.0166 64.5676 38.8828 64.5676 38.7179V34.3961H57.7987C57.6338 34.3961 57.5 34.2623 57.5 34.0975C57.5 33.9326 57.6338 33.7988 57.7987 33.7988H64.8663C65.0312 33.7988 65.165 33.9326 65.165 34.0975V38.7179C65.165 38.8829 65.0313 39.0166 64.8663 39.0166Z" fill="#E5E5E5"/>
<path d="M64.8664 41.7298C65.2823 41.7298 65.6194 41.3926 65.6194 40.9767C65.6194 40.5608 65.2823 40.2236 64.8664 40.2236C64.4504 40.2236 64.1133 40.5608 64.1133 40.9767C64.1133 41.3926 64.4504 41.7298 64.8664 41.7298Z" fill="#0DCCFF"/>
<path d="M61.1151 56.127C60.9502 56.127 60.8164 55.9932 60.8164 55.8284V53.0155C60.8164 52.8506 60.9502 52.7168 61.1151 52.7168C61.2799 52.7168 61.4137 52.8506 61.4137 53.0155V55.8284C61.4137 55.9934 61.2801 56.127 61.1151 56.127Z" fill="#E5E5E5"/>
<path d="M61.1164 58.8411C61.5323 58.8411 61.8694 58.5039 61.8694 58.088C61.8694 57.6721 61.5323 57.335 61.1164 57.335C60.7004 57.335 60.3633 57.6721 60.3633 58.088C60.3633 58.5039 60.7004 58.8411 61.1164 58.8411Z" fill="#FF5A96"/>
<path d="M5.12416 41.7298C5.54007 41.7298 5.87723 41.3926 5.87723 40.9767C5.87723 40.5608 5.54007 40.2236 5.12416 40.2236C4.70825 40.2236 4.37109 40.5608 4.37109 40.9767C4.37109 41.3926 4.70825 41.7298 5.12416 41.7298Z" fill="#FF5A96"/>
<path d="M10.0096 56.0763C9.84474 56.0763 9.71094 55.9425 9.71094 55.7776V52.9647C9.71094 52.7998 9.84474 52.666 10.0096 52.666C10.1745 52.666 10.3083 52.7998 10.3083 52.9647V55.7776C10.3083 55.9425 10.1745 56.0763 10.0096 56.0763Z" fill="#E5E5E5"/>
<path d="M10.0109 58.7903C10.4268 58.7903 10.764 58.4532 10.764 58.0372C10.764 57.6213 10.4268 57.2842 10.0109 57.2842C9.59497 57.2842 9.25781 57.6213 9.25781 58.0372C9.25781 58.4532 9.59497 58.7903 10.0109 58.7903Z" fill="#0DCCFF"/>
<path d="M12.1992 0.0566406H57.8008V38.7683H12.1992V0.0566406Z" fill="#F5F5F5"/>
<path d="M29.0693 36.961C20.7509 36.961 14.0076 30.2177 14.0076 21.8993V0.0566406H12.2001V33.7998C12.1981 33.7998 12.1964 33.7992 12.1944 33.7992H5.12678C4.96192 33.7992 4.82812 33.933 4.82812 34.0979V38.7183C4.82812 38.8831 4.96192 39.0169 5.12678 39.0169C5.29164 39.0169 5.42544 38.8831 5.42544 38.7183V34.3965H12.1944C12.1964 34.3965 12.1981 34.3959 12.2001 34.3959V38.7683H34.7022V46.7383C34.7022 46.9032 34.836 47.037 35.0008 47.037C35.1657 47.037 35.2995 46.9032 35.2995 46.7383V38.7683H57.8015V36.9608H29.0693V36.961Z" fill="#E5E5E5"/>
<path d="M54.4188 30.0475H47.6033C47.4385 30.0475 47.3047 29.9137 47.3047 29.7489C47.3047 29.584 47.4385 29.4502 47.6033 29.4502H54.4188C54.5836 29.4502 54.7174 29.584 54.7174 29.7489C54.7174 29.9137 54.5836 30.0475 54.4188 30.0475Z" fill="#7676FF"/>
<path d="M43.9711 30.0475H25.8377C25.6729 30.0475 25.5391 29.9137 25.5391 29.7489C25.5391 29.584 25.6729 29.4502 25.8377 29.4502H43.9711C44.136 29.4502 44.2698 29.584 44.2698 29.7489C44.2698 29.9137 44.136 30.0475 43.9711 30.0475Z" fill="#7676FF"/>
<path d="M54.4203 34.5143H36.4471C36.2822 34.5143 36.1484 34.3805 36.1484 34.2157C36.1484 34.0508 36.2822 33.917 36.4471 33.917H54.4201C54.585 33.917 54.7188 34.0508 54.7188 34.2157C54.7188 34.3805 54.5851 34.5143 54.4203 34.5143Z" fill="#7676FF"/>
<path d="M31.308 34.5143H25.8377C25.6729 34.5143 25.5391 34.3805 25.5391 34.2157C25.5391 34.0508 25.6729 33.917 25.8377 33.917H31.308C31.4728 33.917 31.6066 34.0508 31.6066 34.2157C31.6066 34.3805 31.4728 34.5143 31.308 34.5143Z" fill="#7676FF"/>
<path d="M22.2075 30.0475H15.5799C15.415 30.0475 15.2812 29.9137 15.2812 29.7489C15.2812 29.584 15.415 29.4502 15.5799 29.4502H22.2075C22.3723 29.4502 22.5061 29.584 22.5061 29.7489C22.5061 29.9137 22.3723 30.0475 22.2075 30.0475Z" fill="#7676FF"/>
<path d="M54.4188 21.0153H47.6033C47.4385 21.0153 47.3047 20.8815 47.3047 20.7166C47.3047 20.5518 47.4385 20.418 47.6033 20.418H54.4188C54.5836 20.418 54.7174 20.5518 54.7174 20.7166C54.7174 20.8815 54.5836 21.0153 54.4188 21.0153Z" fill="#7676FF"/>
<path d="M43.9711 21.0153H25.8377C25.6729 21.0153 25.5391 20.8815 25.5391 20.7166C25.5391 20.5518 25.6729 20.418 25.8377 20.418H43.9711C44.136 20.418 44.2698 20.5518 44.2698 20.7166C44.2698 20.8815 44.136 21.0153 43.9711 21.0153Z" fill="#7676FF"/>
<path d="M54.4203 25.4821H36.4471C36.2822 25.4821 36.1484 25.3483 36.1484 25.1834C36.1484 25.0186 36.2822 24.8848 36.4471 24.8848H54.4201C54.585 24.8848 54.7188 25.0186 54.7188 25.1834C54.7188 25.3483 54.5851 25.4821 54.4203 25.4821Z" fill="#7676FF"/>
<path d="M31.308 25.4821H25.8377C25.6729 25.4821 25.5391 25.3483 25.5391 25.1834C25.5391 25.0186 25.6729 24.8848 25.8377 24.8848H31.308C31.4728 24.8848 31.6066 25.0186 31.6066 25.1834C31.6066 25.3483 31.4728 25.4821 31.308 25.4821Z" fill="#7676FF"/>
<path d="M22.2075 21.0153H15.5799C15.415 21.0153 15.2812 20.8815 15.2812 20.7166C15.2812 20.5518 15.415 20.418 15.5799 20.418H22.2075C22.3723 20.418 22.5061 20.5518 22.5061 20.7166C22.5061 20.8815 22.3723 21.0153 22.2075 21.0153Z" fill="#7676FF"/>
<path d="M33.9711 16.2046C33.7558 16.2094 33.6021 15.9642 33.7041 15.7723L35.77 11.6408C35.8436 11.4934 36.0228 11.4334 36.1708 11.5071C36.3183 11.5809 36.3782 11.7604 36.3044 11.9079L34.2386 16.0394C34.1862 16.1441 34.0808 16.2046 33.9711 16.2046Z" fill="#FF2488"/>
<path d="M31.6538 16.4797C31.5896 16.4797 31.5251 16.4591 31.4704 16.4167L28.4655 14.0761C28.3136 13.9639 28.3136 13.7171 28.4655 13.6049L31.4704 11.2643C31.6005 11.1628 31.7881 11.1862 31.8896 11.3164C31.991 11.4467 31.9677 11.6342 31.8375 11.7356L29.1351 13.8407L31.8375 15.9457C32.0633 16.1084 31.9265 16.49 31.6538 16.4797Z" fill="#FF2488"/>
<path d="M38.3496 16.4797C38.0769 16.4902 37.9402 16.1085 38.1659 15.9454L40.8683 13.8405L38.1659 11.7354C38.0358 11.634 38.0125 11.4464 38.1138 11.3162C38.2155 11.1861 38.4032 11.163 38.5331 11.2641L41.5379 13.6047C41.6898 13.7168 41.6896 13.9638 41.5379 14.0758L38.5331 16.4164C38.4784 16.4591 38.4136 16.4797 38.3496 16.4797Z" fill="#FF2488"/>
<path d="M12.1992 0.0566406H57.8008V8.209H12.1992V0.0566406Z" fill="#7676FF"/>
<path d="M12.1992 0.0917969H13.9912V8.17442H12.1992V0.0917969Z" fill="#5A5AFF"/>
<path d="M31.7808 3.91996C32.1904 3.91996 32.5225 3.55465 32.5225 3.10402C32.5225 2.65339 32.1904 2.28809 31.7808 2.28809C31.3711 2.28809 31.0391 2.65339 31.0391 3.10402C31.0391 3.55465 31.3711 3.91996 31.7808 3.91996Z" fill="#001445"/>
<path d="M36.7339 3.91996C37.1435 3.91996 37.4756 3.55465 37.4756 3.10402C37.4756 2.65339 37.1435 2.28809 36.7339 2.28809C36.3243 2.28809 35.9922 2.65339 35.9922 3.10402C35.9922 3.55465 36.3243 3.91996 36.7339 3.91996Z" fill="#001445"/>
<path d="M34.2567 6.27665C33.5293 6.27665 32.9375 5.68486 32.9375 4.95747V4.71272C32.9375 4.54786 33.0713 4.41406 33.2362 4.41406C33.401 4.41406 33.5348 4.54786 33.5348 4.71272V4.95747C33.5348 5.35559 33.8586 5.67933 34.2567 5.67933C34.6548 5.67933 34.9785 5.35544 34.9785 4.95747V4.71272C34.9785 4.54786 35.1123 4.41406 35.2772 4.41406C35.4421 4.41406 35.5759 4.54786 35.5759 4.71272V4.95747C35.5759 5.68486 34.9842 6.27665 34.2567 6.27665Z" fill="#001445"/>
<path d="M31.5108 5.74265C31.9051 5.74265 32.2248 5.52263 32.2248 5.25121C32.2248 4.97979 31.9051 4.75977 31.5108 4.75977C31.1165 4.75977 30.7969 4.97979 30.7969 5.25121C30.7969 5.52263 31.1165 5.74265 31.5108 5.74265Z" fill="white"/>
<path d="M36.9991 5.74265C37.3934 5.74265 37.713 5.52263 37.713 5.25121C37.713 4.97979 37.3934 4.75977 36.9991 4.75977C36.6048 4.75977 36.2852 4.97979 36.2852 5.25121C36.2852 5.52263 36.6048 5.74265 36.9991 5.74265Z" fill="white"/>
<path d="M24.7656 54.2803H45.238V63.927H24.7656V54.2803Z" fill="#FCC927"/>
<path d="M26.573 54.2803H24.7656V63.927H45.238V62.1196H32.5977C29.2703 62.1196 26.573 59.4223 26.573 56.0949V54.2803Z" fill="#FCAA1A"/>
<path d="M39.8196 61.278H34.4002C34.2354 61.278 34.1016 61.1442 34.1016 60.9793C34.1016 60.8145 34.2354 60.6807 34.4002 60.6807H39.8196C39.9844 60.6807 40.1182 60.8145 40.1182 60.9793C40.1182 61.1442 39.9846 61.278 39.8196 61.278Z" fill="white"/>
<path d="M42.8303 57.5153H34.4002C34.2354 57.5153 34.1016 57.3815 34.1016 57.2166C34.1016 57.0518 34.2354 56.918 34.4002 56.918H42.8303C42.9952 56.918 43.129 57.0518 43.129 57.2166C43.129 57.3815 42.9952 57.5153 42.8303 57.5153Z" fill="white"/>
<path d="M27.0234 61.6581L29.5838 56.5371L32.1444 61.6581H27.0234Z" fill="#F5F5F5"/>
<path d="M29.1003 59.1613L29.9981 57.3656L29.5838 56.5371L27.0234 61.6581H32.1444L31.7678 60.905H30.1779C29.2822 60.905 28.6997 59.9624 29.1003 59.1613Z" fill="#E5E5E5"/>
<path d="M0 43.2852H21.9785V52.9319H0V43.2852Z" fill="#FF5A96"/>
<path d="M1.50614 43.2852H0V52.9319H21.9785V51.4257H7.53085C4.20349 51.4257 1.50614 48.7284 1.50614 45.401V43.2852Z" fill="#FF2488"/>
<path d="M16.6765 50.2887H9.75178C9.58692 50.2887 9.45312 50.1549 9.45312 49.9901C9.45312 49.8252 9.58692 49.6914 9.75178 49.6914H16.6765C16.8414 49.6914 16.9752 49.8252 16.9752 49.9901C16.9752 50.1549 16.8414 50.2887 16.6765 50.2887Z" fill="white"/>
<path d="M2.29688 45.4727H7.56837V50.7443H2.29688V45.4727Z" fill="#F5F5F5"/>
<path d="M3.61546 45.4727H2.29688V50.7443H7.56837V49.4257H6.25262C4.79621 49.4257 3.61546 48.245 3.61546 46.7885V45.4727Z" fill="#E5E5E5"/>
<path d="M19.6871 46.5251H9.75178C9.58692 46.5251 9.45312 46.3913 9.45312 46.2264C9.45312 46.0615 9.58692 45.9277 9.75178 45.9277H19.6873C19.8522 45.9277 19.986 46.0615 19.986 46.2264C19.986 46.3913 19.8522 46.5251 19.6871 46.5251Z" fill="white"/>
<path d="M2.03516 60.2959H17.9906V69.9426H2.03516V60.2959Z" fill="#0DCCFF"/>
<path d="M3.8425 60.2959H2.03516V69.9426H17.9906V68.1353H9.86721C6.53984 68.1353 3.8425 65.4379 3.8425 62.1106V60.2959Z" fill="#0DB9D6"/>
<path d="M12.5706 67.2995H4.43928C4.27442 67.2995 4.14062 67.1657 4.14062 67.0008C4.14062 66.8359 4.27442 66.7021 4.43928 66.7021H12.5706C12.7355 66.7021 12.8693 66.8359 12.8693 67.0008C12.8693 67.1657 12.7355 67.2995 12.5706 67.2995Z" fill="white"/>
<path d="M15.5812 63.5358H4.43928C4.27442 63.5358 4.14062 63.402 4.14062 63.2371C4.14062 63.0723 4.27442 62.9385 4.43928 62.9385H15.5812C15.7461 62.9385 15.8799 63.0723 15.8799 63.2371C15.8799 63.402 15.7462 63.5358 15.5812 63.5358Z" fill="white"/>
<path d="M48.0234 43.2852H70.002V52.9319H48.0234V43.2852Z" fill="#0DCCFF"/>
<path d="M49.5296 43.2852H48.0234V52.9319H70.002V51.4257H55.5543C52.2269 51.4257 49.5296 48.7284 49.5296 45.401V43.2852Z" fill="#0DB9D6"/>
<path d="M52.916 50.669C54.3302 50.669 55.4766 49.5226 55.4766 48.1084C55.4766 46.6942 54.3302 45.5479 52.916 45.5479C51.5019 45.5479 50.3555 46.6942 50.3555 48.1084C50.3555 49.5226 51.5019 50.669 52.916 50.669Z" fill="#F5F5F5"/>
<path d="M51.8618 48.1083C51.8618 46.9563 52.6227 45.9824 53.6691 45.6607C53.4309 45.5876 53.1782 45.5479 52.916 45.5479C51.5019 45.5479 50.3555 46.6943 50.3555 48.1084C50.3555 49.5226 51.5019 50.669 52.916 50.669C53.1782 50.669 53.4309 50.6293 53.6691 50.5561C52.6227 50.2341 51.8618 49.2602 51.8618 48.1083Z" fill="#E5E5E5"/>
<path d="M67.6678 46.5251H57.7323C57.5674 46.5251 57.4336 46.3913 57.4336 46.2264C57.4336 46.0615 57.5674 45.9277 57.7323 45.9277H67.6678C67.8326 45.9277 67.9664 46.0615 67.9664 46.2264C67.9664 46.3913 67.8328 46.5251 67.6678 46.5251Z" fill="white"/>
<path d="M64.657 50.2887H57.7323C57.5674 50.2887 57.4336 50.1549 57.4336 49.9901C57.4336 49.8252 57.5674 49.6914 57.7323 49.6914H64.657C64.8218 49.6914 64.9556 49.8252 64.9556 49.9901C64.9556 50.1549 64.822 50.2887 64.657 50.2887Z" fill="white"/>
<path d="M53.1406 60.2959H69.0961V69.9426H53.1406V60.2959Z" fill="#FF5A96"/>
<path d="M54.948 60.2959H53.1406V69.9426H69.0961V68.1353H59.4665C56.9711 68.1353 54.948 66.1123 54.948 63.6167V60.2959Z" fill="#FF2488"/>
<path d="M63.6759 67.2995H55.5448C55.3799 67.2995 55.2461 67.1657 55.2461 67.0008C55.2461 66.8359 55.3799 66.7021 55.5448 66.7021H63.6759C63.8408 66.7021 63.9746 66.8359 63.9746 67.0008C63.9746 67.1657 63.8409 67.2995 63.6759 67.2995Z" fill="white"/>
<path d="M66.6867 63.5358H55.5448C55.3799 63.5358 55.2461 63.402 55.2461 63.2371C55.2461 63.0723 55.3799 62.9385 55.5448 62.9385H66.6867C66.8516 62.9385 66.9854 63.0723 66.9854 63.2371C66.9854 63.402 66.8517 63.5358 66.6867 63.5358Z" fill="white"/>
<path d="M3.59259 16.3906L0.125 18.832V22.087L3.59259 19.6457L7.06018 22.087V18.832L3.59259 16.3906Z" fill="#7676FF"/>
<path d="M3.59259 9.87988L0.125 12.3211V15.5762L3.59259 13.135L7.06018 15.5762V12.3211L3.59259 9.87988Z" fill="#99D100"/>
<path d="M3.59259 3.37012L0.125 5.81136V9.06645L3.59259 6.62521L7.06018 9.06645V5.81136L3.59259 3.37012Z" fill="#FF5A96"/>
<path d="M66.4052 16.3906L62.9375 18.832V22.087L66.4052 19.6457L69.8728 22.087V18.832L66.4052 16.3906Z" fill="#7676FF"/>
<path d="M66.4052 9.87988L62.9375 12.3211V15.5762L66.4052 13.135L69.8728 15.5762V12.3211L66.4052 9.87988Z" fill="#99D100"/>
<path d="M66.4052 3.37012L62.9375 5.81136V9.06645L66.4052 6.62521L69.8728 9.06645V5.81136L66.4052 3.37012Z" fill="#FF5A96"/>
</g>
<defs>
<clipPath id="clip0_1840_20747">
<rect width="70" height="70" fill="white"/>
</clipPath>
</defs>
</svg>
