<svg width="367" height="418" viewBox="0 0 367 418" fill="none" xmlns="http://www.w3.org/2000/svg">
<path opacity="0.5" d="M359.793 59.8955H259.663C258.003 59.8955 256.657 58.5495 256.657 56.8895V12.9005C256.657 11.2405 258.003 9.89453 259.663 9.89453H359.793C361.453 9.89453 362.799 11.2405 362.799 12.9005V56.8895C362.799 58.5495 361.453 59.8955 359.793 59.8955Z" fill="url(#paint0_linear_2463_26335)"/>
<path d="M36.9043 242.298V273.495H252.296V232.431" stroke="#8CA6FF" stroke-miterlimit="10" stroke-linecap="round" stroke-dasharray="1 4"/>
<path d="M239.955 317.126V273.495" stroke="#8CA6FF" stroke-miterlimit="10" stroke-linecap="round" stroke-dasharray="1 4"/>
<path d="M239.955 318.555C240.786 318.555 241.459 317.882 241.459 317.051C241.459 316.22 240.786 315.547 239.955 315.547C239.125 315.547 238.451 316.22 238.451 317.051C238.451 317.882 239.125 318.555 239.955 318.555Z" fill="#8CA6FF"/>
<path d="M233.979 317.126V273.495" stroke="#8CA6FF" stroke-miterlimit="10" stroke-linecap="round" stroke-dasharray="1 4"/>
<path d="M233.979 318.555C234.809 318.555 235.483 317.882 235.483 317.051C235.483 316.22 234.809 315.547 233.979 315.547C233.148 315.547 232.475 316.22 232.475 317.051C232.475 317.882 233.148 318.555 233.979 318.555Z" fill="#8CA6FF"/>
<path opacity="0.5" d="M121.508 47.2081H67.4783C66.7233 47.2081 66.1123 46.5961 66.1123 45.8421V1.48807C66.1123 0.733068 66.7243 0.12207 67.4783 0.12207H121.508C122.263 0.12207 122.874 0.734068 122.874 1.48807V45.8411C122.875 46.5961 122.263 47.2081 121.508 47.2081Z" fill="url(#paint1_linear_2463_26335)"/>
<path d="M77.1963 22.8257L85.7483 17.6377V21.0827L81.8973 23.5147L85.7483 25.8047V29.4327L77.1963 24.3667V22.8257Z" fill="#304FFE"/>
<path d="M101.394 16.1357L91.1593 30.5247H87.5723L97.8063 16.1357H101.394Z" fill="#304FFE"/>
<path d="M111.791 24.3667L103.219 29.4327V25.8047L107.09 23.5147L103.219 21.0827V17.6377L111.791 22.8257V24.3667Z" fill="#304FFE"/>
<path d="M73.3838 135.352H0.423828V155.937H73.3838V135.352Z" fill="#89A4FF"/>
<path d="M1.82783 132.527L0.423828 135.351H73.3828L71.9788 132.527H1.82783Z" fill="#89A4FF"/>
<path opacity="0.6" d="M1.82783 132.527L0.423828 135.351H73.3828L71.9788 132.527H1.82783Z" fill="#89A4FF"/>
<path d="M1.82783 158.761H71.9788L73.3828 155.937H0.423828L1.82783 158.761Z" fill="#89A4FF"/>
<path opacity="0.5" d="M1.82783 158.761H71.9788L73.3828 155.937H0.423828L1.82783 158.761Z" fill="#89A4FF"/>
<path opacity="0.5" d="M67.9767 147.953H49.8236C48.5486 147.953 47.5146 146.919 47.5146 145.644C47.5146 144.369 48.5486 143.335 49.8236 143.335H67.9767C69.2517 143.335 70.2856 144.369 70.2856 145.644C70.2856 146.919 69.2527 147.953 67.9767 147.953Z" fill="#89A4FF"/>
<path d="M68.2943 145.645C68.2943 146.362 67.7132 146.943 66.9962 146.943C66.2792 146.943 65.6982 146.362 65.6982 145.645C65.6982 144.928 66.2792 144.347 66.9962 144.347C67.7132 144.347 68.2943 144.928 68.2943 145.645Z" fill="#89A4FF"/>
<path d="M73.3838 161.585H0.423828V182.17H73.3838V161.585Z" fill="#89A4FF"/>
<path d="M1.82783 158.761L0.423828 161.585H73.3828L71.9788 158.761H1.82783Z" fill="#89A4FF"/>
<path opacity="0.6" d="M1.82783 158.761L0.423828 161.585H73.3828L71.9788 158.761H1.82783Z" fill="#89A4FF"/>
<path d="M1.82783 184.994H71.9788L73.3828 182.17H0.423828L1.82783 184.994Z" fill="#89A4FF"/>
<path opacity="0.5" d="M1.82783 184.994H71.9788L73.3828 182.17H0.423828L1.82783 184.994Z" fill="#89A4FF"/>
<path opacity="0.5" d="M67.9767 174.185H49.8236C48.5486 174.185 47.5146 173.151 47.5146 171.876C47.5146 170.601 48.5486 169.567 49.8236 169.567H67.9767C69.2517 169.567 70.2856 170.601 70.2856 171.876C70.2856 173.152 69.2527 174.185 67.9767 174.185Z" fill="#89A4FF"/>
<path d="M68.2943 171.877C68.2943 172.594 67.7132 173.175 66.9962 173.175C66.2792 173.175 65.6982 172.594 65.6982 171.877C65.6982 171.16 66.2792 170.579 66.9962 170.579C67.7132 170.579 68.2943 171.161 68.2943 171.877Z" fill="#89A4FF"/>
<path d="M73.3838 187.816H0.423828V208.401H73.3838V187.816Z" fill="#89A4FF"/>
<path d="M1.82783 184.993L0.423828 187.816H73.3828L71.9788 184.993H1.82783Z" fill="#89A4FF"/>
<path opacity="0.6" d="M1.82783 184.993L0.423828 187.816H73.3828L71.9788 184.993H1.82783Z" fill="#89A4FF"/>
<path d="M1.82783 211.226H71.9788L73.3828 208.402H0.423828L1.82783 211.226Z" fill="#89A4FF"/>
<path opacity="0.5" d="M1.82783 211.226H71.9788L73.3828 208.402H0.423828L1.82783 211.226Z" fill="#89A4FF"/>
<path opacity="0.5" d="M67.9767 200.418H49.8236C48.5486 200.418 47.5146 199.384 47.5146 198.109C47.5146 196.834 48.5486 195.8 49.8236 195.8H67.9767C69.2517 195.8 70.2856 196.834 70.2856 198.109C70.2856 199.384 69.2527 200.418 67.9767 200.418Z" fill="#89A4FF"/>
<path d="M66.9962 199.408C67.7131 199.408 68.2943 198.826 68.2943 198.11C68.2943 197.393 67.7131 196.812 66.9962 196.812C66.2794 196.812 65.6982 197.393 65.6982 198.11C65.6982 198.826 66.2794 199.408 66.9962 199.408Z" fill="#89A4FF"/>
<path d="M73.3838 214.05H0.423828V234.635H73.3838V214.05Z" fill="#89A4FF"/>
<path d="M1.82783 211.227L0.423828 214.05H73.3828L71.9788 211.227H1.82783Z" fill="#89A4FF"/>
<path opacity="0.6" d="M1.82783 211.227L0.423828 214.05H73.3828L71.9788 211.227H1.82783Z" fill="#89A4FF"/>
<path d="M1.82783 237.459H71.9788L73.3828 234.636H0.423828L1.82783 237.459Z" fill="#89A4FF"/>
<path opacity="0.5" d="M1.82783 237.459H71.9788L73.3828 234.636H0.423828L1.82783 237.459Z" fill="#89A4FF"/>
<path opacity="0.5" d="M67.9767 226.651H49.8236C48.5486 226.651 47.5146 225.617 47.5146 224.342C47.5146 223.067 48.5486 222.033 49.8236 222.033H67.9767C69.2517 222.033 70.2856 223.067 70.2856 224.342C70.2856 225.617 69.2527 226.651 67.9767 226.651Z" fill="#89A4FF"/>
<path d="M68.2943 224.343C68.2943 225.06 67.7132 225.641 66.9962 225.641C66.2792 225.641 65.6982 225.06 65.6982 224.343C65.6982 223.626 66.2792 223.045 66.9962 223.045C67.7132 223.045 68.2943 223.626 68.2943 224.343Z" fill="#89A4FF"/>
<path d="M40.0403 49.4639C40.7973 49.6539 41.5523 49.8539 42.3123 50.0289C42.5793 50.0899 42.6723 50.2059 42.6853 50.4889C42.7183 51.1979 42.8003 51.9049 42.8613 52.6129C42.8923 52.9769 43.0423 53.2509 43.3573 53.4679C43.9673 53.8889 44.5453 54.3559 45.1503 54.7849C45.2583 54.8619 45.4393 54.8989 45.5693 54.8709C46.3753 54.6989 47.1793 54.5129 47.9783 54.3099C48.2113 54.2509 48.3283 54.3049 48.4503 54.5109C48.9123 55.2929 49.3963 56.0619 49.8833 56.8539C49.3143 57.5219 48.7603 58.2009 48.1713 58.8489C47.9463 59.0959 47.9163 59.3139 47.9803 59.6299C48.1253 60.3449 48.1933 61.0739 48.3373 61.7889C48.3803 61.9999 48.5283 62.2409 48.7023 62.3639C49.2113 62.7269 49.7693 63.0209 50.2883 63.3719C51.0613 63.8939 50.9643 63.6879 50.7633 64.5579C50.6223 65.1669 50.4273 65.7639 50.2703 66.3699C50.2113 66.5959 50.0803 66.6969 49.8563 66.7209C49.1293 66.7959 48.4043 66.8819 47.6773 66.9549C47.3523 66.9879 47.1243 67.1349 46.9343 67.4059C46.4963 68.0299 46.0363 68.6389 45.5733 69.2449C45.4463 69.4119 45.4243 69.5599 45.4743 69.7629C45.6553 70.4919 45.8113 71.2279 45.9833 71.9589C46.0373 72.1879 45.9983 72.3579 45.7853 72.4909C45.1043 72.9169 44.4283 73.3529 43.7513 73.7859C43.5803 73.8949 43.4303 73.8829 43.2693 73.7479C42.7823 73.3369 42.2773 72.9469 41.7953 72.5299C41.3923 72.1809 40.9843 72.0169 40.4243 72.1539C39.7473 72.3189 39.0433 72.3709 38.3543 72.4939C38.2223 72.5169 38.0643 72.6159 37.9943 72.7269C37.5663 73.4069 37.1543 74.0979 36.7493 74.7929C36.6493 74.9649 36.5523 75.0169 36.3503 74.9659C35.4193 74.7339 34.4843 74.5199 33.5513 74.2999C33.5183 73.6329 33.4913 72.9879 33.4543 72.3429C33.4423 72.1349 33.4473 71.9119 33.3723 71.7249C33.2753 71.4839 33.1513 71.2159 32.9593 71.0579C32.3223 70.5359 31.6513 70.0539 30.9843 69.5689C30.9103 69.5149 30.7703 69.5139 30.6733 69.5379C29.9223 69.7169 29.1723 69.9029 28.4253 70.0979C28.1853 70.1609 28.0093 70.1279 27.8713 69.8999C27.4493 69.2039 27.0173 68.5149 26.5843 67.8249C26.4663 67.6369 26.4923 67.4759 26.6313 67.3139C27.1493 66.7119 27.6593 66.1029 28.1853 65.5089C28.3103 65.3679 28.3393 65.2419 28.3083 65.0619C28.1713 64.2499 28.0693 63.4319 27.9083 62.6249C27.8673 62.4169 27.6963 62.1879 27.5183 62.0619C26.8963 61.6219 26.2483 61.2189 25.6033 60.8119C25.4363 60.7059 25.3783 60.5849 25.4223 60.3969C25.6173 59.5749 25.8113 58.7519 26.0023 57.9289C26.0453 57.7429 26.1673 57.6909 26.3443 57.6779C27.1463 57.6199 27.9483 57.5449 28.7503 57.4939C28.9583 57.4809 29.0853 57.4079 29.2083 57.2379C29.6963 56.5609 30.2163 55.9059 30.6943 55.2229C30.7923 55.0829 30.8183 54.8429 30.7833 54.6689C30.6393 53.9639 30.4753 53.2619 30.2853 52.5669C30.1953 52.2389 30.2823 52.0269 30.5553 51.8559C31.2983 51.3899 32.0383 50.9209 32.7993 50.4399C33.0093 50.6249 33.2053 50.7929 33.3973 50.9659C33.8553 51.3789 34.3283 51.7779 34.7623 52.2149C34.9863 52.4399 35.1923 52.4559 35.4823 52.3999C36.2193 52.2569 36.9663 52.1699 37.7033 52.0289C37.8803 51.9949 38.0783 51.8779 38.1893 51.7369C38.4353 51.4279 38.6233 51.0739 38.8513 50.7489C39.1563 50.3139 39.4763 49.8909 39.7903 49.4619C39.8733 49.4639 39.9563 49.4639 40.0403 49.4639ZM38.0863 55.5159C34.5183 55.4349 31.4083 58.4059 31.3963 62.2419C31.3843 65.9329 34.4713 69.0009 38.1443 68.9899C41.7893 68.9789 44.8813 65.9019 44.8653 62.2729C44.8453 58.0539 41.3213 55.4159 38.0863 55.5159ZM26.8293 71.8729C28.3453 71.8729 29.8293 71.8759 31.3133 71.8689C31.5003 71.8679 31.5323 71.9719 31.5753 72.1069C31.9923 73.4309 32.4183 74.7519 32.8273 76.0789C32.9003 76.3139 33.0083 76.4419 33.2553 76.5019C34.5523 76.8179 35.7493 77.3909 36.9383 77.9789C37.1313 78.0739 37.2733 78.0639 37.4573 77.9679C38.6603 77.3399 39.8713 76.7259 41.0763 76.1019C41.2173 76.0289 41.3153 75.9899 41.4533 76.1319C42.4213 77.1299 43.3963 78.1209 44.3793 79.1049C44.5573 79.2819 44.5803 79.4259 44.4653 79.6499C43.8753 80.7909 43.3053 81.9419 42.7183 83.0839C42.6033 83.3079 42.5863 83.5009 42.6933 83.7339C43.2653 84.9759 43.8603 86.2089 44.1953 87.5449C44.2173 87.6339 44.3553 87.7259 44.4583 87.7599C45.7983 88.1959 47.1413 88.6219 48.4823 89.0509C48.5703 89.0789 48.6573 89.1109 48.7493 89.1429C48.7493 90.7009 48.7493 92.2469 48.7493 93.8209C47.8663 94.0949 46.9813 94.3699 46.0963 94.6449C45.5783 94.8059 45.0563 94.9559 44.5453 95.1369C44.4233 95.1799 44.2903 95.3069 44.2413 95.4279C43.7073 96.7309 43.1933 98.0419 42.6603 99.3439C42.5863 99.5249 42.5763 99.6579 42.6703 99.8339C43.2933 101.005 43.8983 102.185 44.5213 103.356C44.6243 103.549 44.6343 103.669 44.4633 103.837C43.4703 104.811 42.4883 105.795 41.5133 106.787C41.3583 106.945 41.2503 106.95 41.0603 106.849C39.8533 106.206 38.6403 105.573 37.4233 104.95C37.3153 104.895 37.1293 104.873 37.0343 104.929C35.8073 105.644 34.4773 106.108 33.1383 106.549C32.9473 106.612 32.8553 106.707 32.7983 106.9C32.4233 108.15 32.0313 109.394 31.6533 110.643C31.6013 110.816 31.5413 110.899 31.3393 110.901C29.9173 110.912 28.4963 110.932 27.0743 110.964C26.8563 110.969 26.7663 110.905 26.7023 110.698C26.3083 109.432 25.8943 108.173 25.5023 106.907C25.4383 106.702 25.3363 106.604 25.1363 106.541C23.8013 106.117 22.4903 105.634 21.2703 104.931C21.1733 104.875 20.9863 104.895 20.8783 104.951C19.6703 105.57 18.4663 106.197 17.2693 106.837C17.0633 106.947 16.9383 106.954 16.7633 106.774C15.8073 105.794 14.8403 104.823 13.8663 103.86C13.7113 103.706 13.7013 103.599 13.8013 103.409C14.4263 102.216 15.0313 101.012 15.6553 99.8189C15.7633 99.6129 15.7593 99.4599 15.6653 99.2429C15.1403 98.0389 14.6303 96.8279 14.1433 95.6089C14.0373 95.3449 13.9233 95.1839 13.6393 95.0949C12.3943 94.7079 11.1583 94.2899 9.91427 93.8949C9.69727 93.8259 9.60327 93.7379 9.60227 93.4899C9.59627 92.1309 9.57327 90.7709 9.54027 89.4129C9.53527 89.1909 9.61027 89.1109 9.81127 89.0479C11.1263 88.6389 12.4363 88.2109 13.7523 87.8039C13.9973 87.7279 14.1303 87.6129 14.1933 87.3559C14.5073 86.0679 15.0973 84.8889 15.7013 83.7199C15.8043 83.5209 15.8003 83.3719 15.6953 83.1759C15.0533 81.9799 14.4323 80.7729 13.7893 79.5769C13.6863 79.3859 13.6973 79.2789 13.8533 79.1259C14.8443 78.1509 15.8293 77.1679 16.8033 76.1759C16.9693 76.0069 17.0873 76.0099 17.2823 76.1149C18.4903 76.7569 19.7023 77.3899 20.9213 78.0109C21.0363 78.0689 21.2223 78.0709 21.3443 78.0219C22.5603 77.5269 23.7683 77.0099 24.9843 76.5119C25.2813 76.3909 25.4583 76.1979 25.5523 75.8959C25.9413 74.6509 26.3393 73.4079 26.7343 72.1649C26.7603 72.0709 26.7913 71.9829 26.8293 71.8729ZM29.0533 101.745C34.8043 101.956 39.4123 96.9389 39.4493 91.5819C39.4873 85.9959 34.7823 81.2349 29.3533 81.2069C23.5413 81.1769 18.9293 85.6689 18.8873 91.4439C18.8403 97.6789 24.1043 101.897 29.0533 101.745ZM45.1933 82.3149C45.6133 81.7109 46.0223 81.1429 46.4053 80.5579C46.4833 80.4389 46.5153 80.2459 46.4823 80.1069C46.3393 79.5089 46.1763 78.9139 45.9923 78.3269C45.9413 78.1639 45.8213 77.9769 45.6783 77.8979C45.1683 77.6149 44.6393 77.3649 44.1093 77.1199C43.9273 77.0349 43.8293 76.9509 43.8613 76.7269C43.9383 76.1789 43.9783 75.6259 44.0563 75.0779C44.1153 74.6639 44.2643 74.5139 44.6713 74.4379C45.1743 74.3439 45.6833 74.2839 46.1833 74.1789C46.3223 74.1499 46.4813 74.0399 46.5593 73.9199C46.9183 73.3689 47.2613 72.8079 47.5853 72.2359C47.6573 72.1079 47.6763 71.9079 47.6353 71.7649C47.4783 71.2129 47.2993 70.6679 47.1063 70.1279C47.0193 69.8839 47.0593 69.7079 47.2593 69.5519C47.8013 69.1269 48.3403 68.6979 48.8953 68.2599C49.4763 68.6729 50.0303 69.0799 50.6003 69.4609C50.7183 69.5399 50.9073 69.5749 51.0483 69.5489C51.6633 69.4339 52.2773 69.3079 52.8793 69.1409C53.0543 69.0919 53.2423 68.9219 53.3313 68.7579C53.6203 68.2269 53.8733 67.6759 54.1243 67.1249C54.2123 66.9309 54.2883 66.8429 54.5363 66.8899C55.1613 67.0079 55.7953 67.0829 56.4273 67.1609C56.6323 67.1859 56.7263 67.2559 56.7613 67.4759C56.8563 68.0629 56.9593 68.6509 57.1133 69.2229C57.1683 69.4289 57.3463 69.6389 57.5253 69.7679C57.9653 70.0849 58.4463 70.3429 58.8933 70.6509C59.1093 70.7999 59.2923 70.7999 59.5303 70.7159C60.1203 70.5089 60.7183 70.3229 61.3193 70.1489C61.4103 70.1229 61.5763 70.1699 61.6333 70.2429C62.0823 70.8059 62.5133 71.3839 62.9583 71.9689C62.6393 72.4209 62.3343 72.8689 62.0133 73.3049C61.6933 73.7419 61.5483 74.1779 61.7703 74.7269C61.9403 75.1489 61.9933 75.6169 62.1263 76.0559C62.1653 76.1839 62.2793 76.3219 62.3963 76.3889C62.8773 76.6609 63.3723 76.9099 63.8633 77.1629C64.1793 77.3269 64.3173 77.5699 64.2533 77.9319C64.1613 78.4559 64.0963 78.9859 63.9903 79.5069C63.9683 79.6139 63.8253 79.7499 63.7153 79.7759C63.1983 79.8989 62.6733 79.9909 62.1493 80.0879C61.7763 80.1569 61.5283 80.3379 61.3513 80.7019C61.1243 81.1679 60.8163 81.5959 60.5213 82.0249C60.4103 82.1859 60.3713 82.3129 60.4453 82.5049C60.6573 83.0609 60.8403 83.6269 61.0423 84.1869C61.1183 84.3969 61.1013 84.5669 60.9143 84.7119C60.4603 85.0629 60.0103 85.4199 59.5603 85.7759C59.3713 85.9259 59.1763 85.9179 58.9823 85.7949C58.5953 85.5489 58.2033 85.3069 57.8263 85.0459C57.4443 84.7799 57.0673 84.6679 56.5963 84.8389C56.1273 85.0089 55.6253 85.0859 55.1473 85.2329C55.0103 85.2749 54.8603 85.3979 54.7933 85.5249C54.4993 86.0769 54.2293 86.6429 53.9583 87.2079C53.8913 87.3479 53.8193 87.4079 53.6483 87.3809C53.1223 87.2979 52.5913 87.2459 52.0653 87.1669C51.5783 87.0929 51.4283 86.9379 51.3283 86.4519C51.2253 85.9509 51.1353 85.4469 51.0143 84.9509C50.9843 84.8259 50.8813 84.6869 50.7723 84.6189C50.2223 84.2779 49.6643 83.9489 49.0953 83.6409C48.9693 83.5719 48.7783 83.5559 48.6373 83.5939C48.0933 83.7399 47.5573 83.9159 47.0203 84.0849C46.7383 84.1739 46.5333 84.1129 46.3523 83.8569C45.9863 83.3359 45.5893 82.8369 45.1933 82.3149ZM59.3623 77.1419C59.2973 76.5839 59.3293 75.9929 59.1513 75.4749C58.0423 72.2529 54.5883 71.1589 52.2033 72.1169C48.6953 73.5269 47.5573 77.7339 49.9703 80.5889C51.1433 81.9759 52.6503 82.6119 54.4713 82.4269C54.9753 82.3759 55.5043 82.3409 55.9673 82.1589C58.1053 81.3239 59.3083 79.4839 59.3623 77.1419Z" fill="url(#paint2_linear_2463_26335)"/>
<path d="M212.026 290.402H91.6348C90.2978 290.402 89.2148 289.319 89.2148 287.982V217.835C89.2148 216.498 90.2988 215.415 91.6348 215.415H212.027C213.364 215.415 214.447 216.499 214.447 217.835V287.982C214.447 289.319 213.363 290.402 212.026 290.402Z" fill="#4E76FF"/>
<path d="M210.743 286.831V218.986H92.918V286.831H210.743Z" fill="url(#paint3_linear_2463_26335)"/>
<path d="M204.533 234.897H196.319C196.06 234.897 195.851 234.687 195.851 234.429V226.215C195.851 225.956 196.061 225.747 196.319 225.747H204.533C204.792 225.747 205.001 225.957 205.001 226.215V234.429C205.001 234.688 204.792 234.897 204.533 234.897Z" stroke="#FDCA40" stroke-width="0.5" stroke-miterlimit="10"/>
<path d="M197.746 223.831V231.881C197.746 232.185 197.992 232.431 198.296 232.431H206.346C206.498 232.431 206.635 232.369 206.735 232.27L197.907 223.442C197.808 223.541 197.746 223.679 197.746 223.831Z" fill="#FDCA40"/>
<path d="M206.896 223.831C206.896 223.527 206.65 223.281 206.346 223.281H198.296C198.144 223.281 198.007 223.343 197.907 223.442L206.735 232.27C206.835 232.171 206.896 232.033 206.896 231.881V223.831Z" fill="#F79824"/>
<path d="M144.975 236.047H102.291V277.058H144.975V236.047Z" fill="#FDCA40"/>
<path d="M144.975 236.047H102.291V238.745H144.975V236.047Z" fill="#F79824"/>
<path d="M190.573 236.047H147.889V277.058H190.573V236.047Z" fill="#FDCA40"/>
<path d="M165.01 253.897C164.987 253.859 164.907 253.801 164.769 253.725C164.632 253.641 164.46 253.553 164.253 253.461C164.046 253.369 163.821 253.289 163.576 253.22C163.331 253.151 163.086 253.117 162.842 253.117C162.52 253.117 162.272 253.174 162.096 253.289C161.92 253.396 161.832 253.564 161.832 253.794C161.832 253.977 161.897 254.123 162.027 254.23C162.165 254.337 162.36 254.432 162.612 254.517C162.865 254.593 163.174 254.685 163.542 254.792C164.062 254.93 164.513 255.098 164.896 255.297C165.278 255.488 165.569 255.737 165.768 256.043C165.974 256.349 166.077 256.754 166.077 257.259C166.077 257.718 165.993 258.108 165.825 258.429C165.657 258.743 165.427 258.999 165.137 259.198C164.853 259.389 164.528 259.531 164.161 259.623C163.794 259.707 163.415 259.749 163.025 259.749C162.627 259.749 162.218 259.711 161.797 259.634C161.384 259.55 160.987 259.435 160.604 259.29C160.222 259.137 159.87 258.953 159.548 258.739L160.375 257.098C160.405 257.137 160.505 257.209 160.673 257.316C160.841 257.416 161.048 257.523 161.292 257.638C161.545 257.745 161.824 257.84 162.13 257.925C162.436 258.009 162.746 258.051 163.06 258.051C163.396 258.051 163.645 257.997 163.805 257.89C163.974 257.783 164.058 257.634 164.058 257.443C164.058 257.236 163.97 257.075 163.794 256.961C163.626 256.846 163.392 256.743 163.094 256.651C162.803 256.559 162.467 256.456 162.084 256.341C161.587 256.188 161.174 256.016 160.845 255.825C160.524 255.633 160.283 255.4 160.122 255.125C159.969 254.849 159.893 254.505 159.893 254.092C159.893 253.518 160.026 253.036 160.294 252.646C160.57 252.248 160.937 251.95 161.396 251.751C161.855 251.545 162.356 251.441 162.899 251.441C163.281 251.441 163.649 251.487 164.001 251.579C164.36 251.671 164.693 251.786 164.999 251.923C165.312 252.061 165.592 252.199 165.836 252.336L165.01 253.897ZM166.609 257.856C166.609 257.458 166.72 257.11 166.942 256.812C167.164 256.513 167.47 256.28 167.86 256.112C168.25 255.936 168.697 255.848 169.202 255.848C169.447 255.848 169.688 255.871 169.925 255.916C170.162 255.955 170.369 256.012 170.545 256.089V255.825C170.545 255.496 170.445 255.243 170.247 255.067C170.048 254.891 169.745 254.803 169.34 254.803C169.003 254.803 168.686 254.861 168.388 254.976C168.097 255.09 167.787 255.255 167.458 255.469L166.907 254.299C167.305 254.038 167.718 253.843 168.147 253.713C168.583 253.583 169.042 253.518 169.524 253.518C170.426 253.518 171.126 253.736 171.623 254.172C172.128 254.601 172.381 255.224 172.381 256.043V257.615C172.381 257.798 172.408 257.928 172.461 258.005C172.522 258.074 172.626 258.116 172.771 258.131V259.657C172.618 259.688 172.473 259.711 172.335 259.726C172.205 259.741 172.09 259.749 171.991 259.749C171.646 259.749 171.383 259.68 171.199 259.542C171.023 259.405 170.912 259.217 170.866 258.98L170.832 258.716C170.564 259.061 170.243 259.324 169.868 259.508C169.501 259.684 169.114 259.772 168.709 259.772C168.311 259.772 167.952 259.688 167.63 259.52C167.317 259.351 167.068 259.122 166.884 258.831C166.701 258.54 166.609 258.215 166.609 257.856ZM170.258 258.085C170.342 258.016 170.411 257.94 170.465 257.856C170.518 257.772 170.545 257.691 170.545 257.615V257.075C170.392 257.014 170.22 256.968 170.029 256.938C169.845 256.899 169.673 256.88 169.512 256.88C169.176 256.88 168.896 256.957 168.674 257.11C168.453 257.255 168.342 257.45 168.342 257.695C168.342 257.833 168.38 257.959 168.456 258.074C168.533 258.188 168.636 258.28 168.766 258.349C168.904 258.418 169.065 258.452 169.248 258.452C169.432 258.452 169.615 258.418 169.799 258.349C169.983 258.28 170.136 258.192 170.258 258.085ZM173.333 257.856C173.333 257.458 173.443 257.11 173.665 256.812C173.887 256.513 174.193 256.28 174.583 256.112C174.973 255.936 175.421 255.848 175.926 255.848C176.171 255.848 176.412 255.871 176.649 255.916C176.886 255.955 177.092 256.012 177.268 256.089V255.825C177.268 255.496 177.169 255.243 176.97 255.067C176.771 254.891 176.469 254.803 176.063 254.803C175.727 254.803 175.409 254.861 175.111 254.976C174.82 255.09 174.511 255.255 174.182 255.469L173.631 254.299C174.029 254.038 174.442 253.843 174.87 253.713C175.306 253.583 175.765 253.518 176.247 253.518C177.15 253.518 177.85 253.736 178.347 254.172C178.852 254.601 179.104 255.224 179.104 256.043V257.615C179.104 257.798 179.131 257.928 179.185 258.005C179.246 258.074 179.349 258.116 179.494 258.131V259.657C179.341 259.688 179.196 259.711 179.058 259.726C178.928 259.741 178.814 259.749 178.714 259.749C178.37 259.749 178.106 259.68 177.922 259.542C177.746 259.405 177.636 259.217 177.59 258.98L177.555 258.716C177.287 259.061 176.966 259.324 176.591 259.508C176.224 259.684 175.838 259.772 175.432 259.772C175.035 259.772 174.675 259.688 174.354 259.52C174.04 259.351 173.791 259.122 173.608 258.831C173.424 258.54 173.333 258.215 173.333 257.856ZM176.981 258.085C177.066 258.016 177.134 257.94 177.188 257.856C177.242 257.772 177.268 257.691 177.268 257.615V257.075C177.115 257.014 176.943 256.968 176.752 256.938C176.568 256.899 176.396 256.88 176.236 256.88C175.899 256.88 175.62 256.957 175.398 257.11C175.176 257.255 175.065 257.45 175.065 257.695C175.065 257.833 175.103 257.959 175.18 258.074C175.256 258.188 175.36 258.28 175.49 258.349C175.627 258.418 175.788 258.452 175.972 258.452C176.155 258.452 176.339 258.418 176.522 258.349C176.706 258.28 176.859 258.192 176.981 258.085ZM185.472 253.897C185.449 253.859 185.369 253.801 185.231 253.725C185.093 253.641 184.921 253.553 184.715 253.461C184.508 253.369 184.282 253.289 184.038 253.22C183.793 253.151 183.548 253.117 183.303 253.117C182.982 253.117 182.733 253.174 182.557 253.289C182.381 253.396 182.294 253.564 182.294 253.794C182.294 253.977 182.359 254.123 182.489 254.23C182.626 254.337 182.821 254.432 183.074 254.517C183.326 254.593 183.636 254.685 184.003 254.792C184.523 254.93 184.975 255.098 185.357 255.297C185.74 255.488 186.03 255.737 186.229 256.043C186.436 256.349 186.539 256.754 186.539 257.259C186.539 257.718 186.455 258.108 186.287 258.429C186.118 258.743 185.889 258.999 185.598 259.198C185.315 259.389 184.99 259.531 184.623 259.623C184.256 259.707 183.877 259.749 183.487 259.749C183.089 259.749 182.68 259.711 182.259 259.634C181.846 259.55 181.448 259.435 181.066 259.29C180.683 259.137 180.331 258.953 180.01 258.739L180.836 257.098C180.867 257.137 180.966 257.209 181.135 257.316C181.303 257.416 181.509 257.523 181.754 257.638C182.007 257.745 182.286 257.84 182.592 257.925C182.898 258.009 183.208 258.051 183.521 258.051C183.858 258.051 184.107 257.997 184.267 257.89C184.435 257.783 184.52 257.634 184.52 257.443C184.52 257.236 184.432 257.075 184.256 256.961C184.087 256.846 183.854 256.743 183.556 256.651C183.265 256.559 182.928 256.456 182.546 256.341C182.049 256.188 181.636 256.016 181.307 255.825C180.985 255.633 180.744 255.4 180.584 255.125C180.431 254.849 180.354 254.505 180.354 254.092C180.354 253.518 180.488 253.036 180.756 252.646C181.031 252.248 181.398 251.95 181.857 251.751C182.316 251.545 182.818 251.441 183.361 251.441C183.743 251.441 184.11 251.487 184.462 251.579C184.822 251.671 185.155 251.786 185.461 251.923C185.774 252.061 186.053 252.199 186.298 252.336L185.472 253.897Z" fill="white"/>
<path d="M190.573 236.047H147.889V238.745H190.573V236.047Z" fill="#F79824"/>
<path d="M334.256 77.792H293.226V80.776H334.256V77.792Z" fill="url(#paint4_linear_2463_26335)"/>
<path d="M317.545 83.0293H293.226V86.0133H317.545V83.0293Z" fill="url(#paint5_linear_2463_26335)"/>
<path d="M317.545 88.2656H293.226V91.2496H317.545V88.2656Z" fill="url(#paint6_linear_2463_26335)"/>
<path d="M314.774 18.9521H264.355V22.6191H314.774V18.9521Z" fill="url(#paint7_linear_2463_26335)"/>
<path d="M294.24 25.1143H264.355V28.7813H294.24V25.1143Z" fill="url(#paint8_linear_2463_26335)"/>
<path d="M309.029 31.2764H264.355V34.9434H309.029V31.2764Z" fill="url(#paint9_linear_2463_26335)"/>
<path d="M294.24 37.4385H264.355V41.1055H294.24V37.4385Z" fill="url(#paint10_linear_2463_26335)"/>
<path d="M334.256 115.182H293.226V118.166H334.256V115.182Z" fill="url(#paint11_linear_2463_26335)"/>
<path d="M317.545 120.419H293.226V123.403H317.545V120.419Z" fill="url(#paint12_linear_2463_26335)"/>
<path d="M317.545 125.655H293.226V128.639H317.545V125.655Z" fill="url(#paint13_linear_2463_26335)"/>
<path opacity="0.5" d="M345.892 177.553C345.892 172.796 342.036 168.939 337.278 168.939C337.078 168.939 336.88 168.948 336.683 168.962C336.782 168.402 336.837 167.827 336.837 167.239C336.837 161.822 332.446 157.43 327.028 157.43C325.286 157.43 323.651 157.886 322.233 158.683C320.29 154.057 315.717 150.807 310.384 150.807C303.289 150.807 297.537 156.559 297.537 163.654C297.537 163.959 297.551 164.261 297.572 164.56C292.335 165.337 288.317 169.85 288.317 175.303C288.317 181.302 293.18 186.165 299.179 186.165H339.383V185.905C343.123 184.966 345.892 181.583 345.892 177.553Z" fill="url(#paint14_linear_2463_26335)"/>
<path d="M344.859 79.2842H365.575V175.422H353.139" stroke="#8CA6FF" stroke-miterlimit="10" stroke-linecap="round" stroke-dasharray="1 4"/>
<path d="M344.935 80.7883C345.765 80.7883 346.439 80.1149 346.439 79.2843C346.439 78.4536 345.765 77.7803 344.935 77.7803C344.104 77.7803 343.431 78.4536 343.431 79.2843C343.431 80.1149 344.104 80.7883 344.935 80.7883Z" fill="#8CA6FF"/>
<path d="M353.216 176.926C354.047 176.926 354.72 176.253 354.72 175.422C354.72 174.591 354.047 173.918 353.216 173.918C352.385 173.918 351.712 174.591 351.712 175.422C351.712 176.253 352.385 176.926 353.216 176.926Z" fill="#8CA6FF"/>
<path d="M344.859 116.674H365.575" stroke="#8CA6FF" stroke-miterlimit="10" stroke-linecap="round" stroke-dasharray="1 4"/>
<path d="M344.935 118.178C344.105 118.178 343.431 117.505 343.431 116.674C343.431 115.844 344.104 115.17 344.935 115.17C345.766 115.17 346.439 115.844 346.439 116.674C346.439 117.505 345.766 118.178 344.935 118.178Z" fill="#8CA6FF"/>
<path d="M36.9043 128.408V112.563" stroke="#8CA6FF" stroke-miterlimit="10" stroke-linecap="round" stroke-dasharray="1 4"/>
<path d="M38.1299 42.9527V20.8027H62.0569" stroke="#8CA6FF" stroke-miterlimit="10" stroke-linecap="round" stroke-dasharray="1 4"/>
<path d="M125.192 20.8027H172.723V49.3227" stroke="#8CA6FF" stroke-miterlimit="10" stroke-linecap="round" stroke-dasharray="1 4"/>
<path d="M172.724 50.7521C173.554 50.7521 174.228 50.0788 174.228 49.2481C174.228 48.4175 173.554 47.7441 172.724 47.7441C171.893 47.7441 171.22 48.4175 171.22 49.2481C171.22 50.0788 171.893 50.7521 172.724 50.7521Z" fill="#8CA6FF"/>
<path d="M308.377 225.075H322.144V273.495H245.651V317.126" stroke="#8CA6FF" stroke-miterlimit="10" stroke-linecap="round" stroke-dasharray="1 4"/>
<path d="M308.452 226.579C309.283 226.579 309.956 225.906 309.956 225.075C309.956 224.245 309.283 223.571 308.452 223.571C307.622 223.571 306.948 224.245 306.948 225.075C306.948 225.906 307.622 226.579 308.452 226.579Z" fill="#8CA6FF"/>
<path d="M245.651 318.555C246.482 318.555 247.155 317.882 247.155 317.051C247.155 316.22 246.482 315.547 245.651 315.547C244.821 315.547 244.147 316.22 244.147 317.051C244.147 317.882 244.821 318.555 245.651 318.555Z" fill="#8CA6FF"/>
<path opacity="0.5" d="M274.617 106.864C283.369 106.864 290.463 99.7694 290.463 91.0179C290.463 82.2664 283.369 75.1719 274.617 75.1719C265.866 75.1719 258.771 82.2664 258.771 91.0179C258.771 99.7694 265.866 106.864 274.617 106.864Z" fill="url(#paint15_linear_2463_26335)"/>
<path opacity="0.5" d="M272.502 102.633C281.254 102.633 288.348 95.5389 288.348 86.7874C288.348 78.0359 281.254 70.9414 272.502 70.9414C263.751 70.9414 256.656 78.0359 256.656 86.7874C256.656 95.5389 263.751 102.633 272.502 102.633Z" fill="url(#paint16_linear_2463_26335)"/>
<path d="M270.957 100.367C279.709 100.367 286.803 93.2723 286.803 84.5208C286.803 75.7693 279.709 68.6748 270.957 68.6748C262.206 68.6748 255.111 75.7693 255.111 84.5208C255.111 93.2723 262.206 100.367 270.957 100.367Z" fill="url(#paint17_linear_2463_26335)"/>
<path d="M269.439 76.3516C271.641 76.3956 273.618 77.0876 275.194 78.7256C277.639 81.2676 277.391 85.1336 274.654 87.4156C273.245 88.5906 271.601 89.1336 269.791 89.1966C269.207 89.2166 268.619 89.1646 268.035 89.1256C267.795 89.1096 267.622 89.1636 267.45 89.3456C266.579 90.2706 265.496 90.8206 264.263 91.0886C264.188 91.1046 264.106 91.1236 264.035 91.1086C263.931 91.0856 263.832 91.0326 263.732 90.9926C263.772 90.9016 263.793 90.7946 263.855 90.7226C264.481 89.9856 264.757 89.1346 264.62 88.1826C264.581 87.9126 264.412 87.6146 264.212 87.4216C263.13 86.3736 262.275 85.1946 262.036 83.6736C261.736 81.7636 262.329 80.1116 263.646 78.7306C265.205 77.0926 267.174 76.3986 269.439 76.3516ZM269.391 83.8516C270.047 83.8556 270.554 83.3696 270.565 82.7276C270.575 82.0906 270.071 81.5746 269.428 81.5656C268.795 81.5566 268.263 82.0776 268.265 82.7066C268.268 83.3346 268.772 83.8486 269.391 83.8516ZM272.881 81.5686C272.231 81.5656 271.724 82.0656 271.724 82.7076C271.725 83.3526 272.227 83.8536 272.874 83.8556C273.507 83.8566 274.025 83.3366 274.024 82.6996C274.023 82.0836 273.506 81.5706 272.881 81.5686ZM265.961 81.5696C265.324 81.5706 264.822 82.0616 264.812 82.6966C264.802 83.3356 265.314 83.8516 265.963 83.8556C266.591 83.8596 267.105 83.3516 267.107 82.7246C267.109 82.0696 266.613 81.5696 265.961 81.5696Z" fill="white"/>
<path d="M271.038 90.3249C274.949 89.5949 277.935 86.6819 278.116 83.0039C278.237 83.1009 278.342 83.1759 278.436 83.2619C280.414 85.0679 280.47 87.7639 278.565 89.7009C278.282 89.9889 277.962 90.2369 277.957 90.6999C277.951 91.2879 278.1 91.8179 278.443 92.2979C278.519 92.4039 278.56 92.5339 278.617 92.6529C278.47 92.6639 278.316 92.7099 278.178 92.6799C277.312 92.4929 276.553 92.0919 275.933 91.4549C275.777 91.2949 275.622 91.2359 275.404 91.2369C274.098 91.2449 272.808 91.1429 271.593 90.6019C271.404 90.5179 271.223 90.4179 271.038 90.3249Z" fill="white"/>
<path opacity="0.5" d="M333.506 152.189C342.258 152.189 349.352 145.095 349.352 136.343C349.352 127.592 342.258 120.497 333.506 120.497C324.755 120.497 317.66 127.592 317.66 136.343C317.66 145.095 324.755 152.189 333.506 152.189Z" fill="url(#paint18_linear_2463_26335)"/>
<path opacity="0.5" d="M331.391 147.959C340.142 147.959 347.237 140.864 347.237 132.113C347.237 123.361 340.142 116.267 331.391 116.267C322.639 116.267 315.545 123.361 315.545 132.113C315.545 140.864 322.639 147.959 331.391 147.959Z" fill="url(#paint19_linear_2463_26335)"/>
<path d="M329.846 145.692C338.598 145.692 345.692 138.597 345.692 129.846C345.692 121.094 338.598 114 329.846 114C321.095 114 314 121.094 314 129.846C314 138.597 321.095 145.692 329.846 145.692Z" fill="url(#paint20_linear_2463_26335)"/>
<path d="M322.613 124.025H337.049C337.212 124.025 337.298 124.223 337.183 124.339L337.181 124.342C335.116 126.409 333.05 128.475 330.984 130.541C330.927 130.598 330.869 130.656 330.81 130.712C330.08 131.402 329.602 131.424 328.886 130.722C327.449 129.314 326.033 127.883 324.608 126.462C323.917 125.773 323.225 125.084 322.482 124.343C322.365 124.226 322.447 124.025 322.613 124.025Z" fill="white"/>
<path d="M322.63 135.352L327.306 130.67C327.377 130.599 327.491 130.597 327.564 130.666C327.856 130.941 328.153 131.231 328.463 131.507C329.247 132.204 330.43 132.204 331.213 131.505C331.514 131.236 331.803 130.956 332.082 130.692C332.155 130.623 332.27 130.625 332.341 130.697C333.894 132.263 335.44 133.823 336.958 135.353C337.074 135.47 336.991 135.669 336.826 135.669H322.761C322.596 135.669 322.513 135.469 322.63 135.352Z" fill="white"/>
<path d="M333.154 129.687C334.647 128.197 336.189 126.659 337.741 125.11C337.858 124.993 338.058 125.076 338.058 125.241V134.43C338.058 134.596 337.858 134.679 337.741 134.562C336.231 133.044 334.698 131.502 333.154 129.949C333.082 129.876 333.081 129.759 333.154 129.687Z" fill="white"/>
<path d="M321.635 134.39V125.319C321.635 125.153 321.835 125.071 321.952 125.188C323.468 126.71 324.991 128.238 326.493 129.746C326.565 129.819 326.565 129.936 326.493 130.008C325.01 131.482 323.473 133.01 321.952 134.523C321.834 134.639 321.635 134.556 321.635 134.39Z" fill="white"/>
<path d="M226.21 50.843V32.084H175.17" stroke="#FDCA40" stroke-miterlimit="10" stroke-linecap="round" stroke-dasharray="1 4"/>
<path d="M226.21 52.2717C227.041 52.2717 227.714 51.5983 227.714 50.7677C227.714 49.937 227.041 49.2637 226.21 49.2637C225.379 49.2637 224.706 49.937 224.706 50.7677C224.706 51.5983 225.379 52.2717 226.21 52.2717Z" fill="#FDCA40"/>
<path d="M248.538 213.213C248.522 213.187 248.468 213.148 248.374 213.096C248.28 213.038 248.163 212.979 248.022 212.916C247.882 212.854 247.728 212.799 247.561 212.752C247.394 212.705 247.228 212.682 247.061 212.682C246.842 212.682 246.673 212.721 246.553 212.799C246.433 212.872 246.373 212.986 246.373 213.143C246.373 213.268 246.418 213.367 246.506 213.44C246.6 213.513 246.733 213.578 246.905 213.635C247.077 213.687 247.288 213.75 247.538 213.823C247.892 213.916 248.199 214.031 248.46 214.166C248.72 214.297 248.918 214.466 249.054 214.674C249.194 214.883 249.265 215.159 249.265 215.503C249.265 215.815 249.207 216.081 249.093 216.3C248.978 216.513 248.822 216.688 248.624 216.823C248.431 216.953 248.21 217.05 247.96 217.112C247.71 217.17 247.452 217.198 247.186 217.198C246.915 217.198 246.636 217.172 246.35 217.12C246.069 217.063 245.798 216.985 245.537 216.886C245.277 216.781 245.037 216.656 244.818 216.511L245.381 215.393C245.402 215.419 245.47 215.469 245.584 215.542C245.699 215.609 245.839 215.682 246.006 215.76C246.178 215.833 246.368 215.898 246.577 215.956C246.785 216.013 246.996 216.042 247.21 216.042C247.439 216.042 247.608 216.005 247.717 215.932C247.832 215.859 247.889 215.758 247.889 215.628C247.889 215.487 247.829 215.378 247.71 215.299C247.595 215.221 247.436 215.151 247.233 215.088C247.035 215.026 246.806 214.956 246.545 214.877C246.207 214.773 245.925 214.656 245.701 214.526C245.483 214.396 245.318 214.237 245.209 214.049C245.105 213.862 245.053 213.627 245.053 213.346C245.053 212.955 245.144 212.627 245.326 212.361C245.514 212.09 245.764 211.887 246.076 211.752C246.389 211.611 246.73 211.541 247.1 211.541C247.361 211.541 247.611 211.572 247.85 211.635C248.095 211.697 248.322 211.775 248.53 211.869C248.744 211.963 248.934 212.057 249.101 212.15L248.538 213.213ZM249.627 215.909C249.627 215.638 249.702 215.401 249.853 215.198C250.004 214.995 250.213 214.836 250.478 214.721C250.744 214.601 251.049 214.541 251.393 214.541C251.559 214.541 251.723 214.557 251.885 214.588C252.046 214.614 252.187 214.653 252.307 214.706V214.526C252.307 214.302 252.239 214.13 252.104 214.01C251.968 213.89 251.763 213.83 251.486 213.83C251.257 213.83 251.041 213.869 250.838 213.948C250.64 214.026 250.429 214.138 250.205 214.284L249.83 213.487C250.101 213.309 250.382 213.177 250.674 213.088C250.971 212.999 251.283 212.955 251.611 212.955C252.226 212.955 252.703 213.104 253.041 213.401C253.385 213.692 253.557 214.117 253.557 214.674V215.745C253.557 215.87 253.575 215.958 253.612 216.01C253.654 216.057 253.724 216.086 253.823 216.096V217.136C253.719 217.157 253.62 217.172 253.526 217.183C253.437 217.193 253.359 217.198 253.292 217.198C253.057 217.198 252.877 217.151 252.752 217.058C252.633 216.964 252.557 216.836 252.526 216.675L252.502 216.495C252.32 216.729 252.101 216.909 251.846 217.034C251.596 217.154 251.333 217.214 251.057 217.214C250.786 217.214 250.541 217.157 250.322 217.042C250.109 216.927 249.939 216.771 249.814 216.573C249.689 216.375 249.627 216.154 249.627 215.909ZM252.112 216.065C252.169 216.018 252.216 215.966 252.252 215.909C252.289 215.852 252.307 215.797 252.307 215.745V215.378C252.203 215.336 252.086 215.305 251.955 215.284C251.83 215.258 251.713 215.245 251.604 215.245C251.374 215.245 251.184 215.297 251.033 215.401C250.882 215.5 250.807 215.633 250.807 215.8C250.807 215.893 250.833 215.979 250.885 216.057C250.937 216.136 251.007 216.198 251.096 216.245C251.19 216.292 251.299 216.315 251.424 216.315C251.549 216.315 251.674 216.292 251.799 216.245C251.924 216.198 252.028 216.138 252.112 216.065ZM254.205 215.909C254.205 215.638 254.281 215.401 254.432 215.198C254.583 214.995 254.791 214.836 255.057 214.721C255.323 214.601 255.628 214.541 255.971 214.541C256.138 214.541 256.302 214.557 256.464 214.588C256.625 214.614 256.766 214.653 256.886 214.706V214.526C256.886 214.302 256.818 214.13 256.682 214.01C256.547 213.89 256.341 213.83 256.065 213.83C255.836 213.83 255.62 213.869 255.417 213.948C255.219 214.026 255.008 214.138 254.784 214.284L254.408 213.487C254.679 213.309 254.961 213.177 255.252 213.088C255.549 212.999 255.862 212.955 256.19 212.955C256.805 212.955 257.282 213.104 257.62 213.401C257.964 213.692 258.136 214.117 258.136 214.674V215.745C258.136 215.87 258.154 215.958 258.191 216.01C258.232 216.057 258.303 216.086 258.402 216.096V217.136C258.297 217.157 258.198 217.172 258.105 217.183C258.016 217.193 257.938 217.198 257.87 217.198C257.636 217.198 257.456 217.151 257.331 217.058C257.211 216.964 257.136 216.836 257.104 216.675L257.081 216.495C256.899 216.729 256.68 216.909 256.425 217.034C256.174 217.154 255.911 217.214 255.635 217.214C255.364 217.214 255.12 217.157 254.901 217.042C254.687 216.927 254.518 216.771 254.393 216.573C254.268 216.375 254.205 216.154 254.205 215.909ZM256.69 216.065C256.748 216.018 256.794 215.966 256.831 215.909C256.867 215.852 256.886 215.797 256.886 215.745V215.378C256.781 215.336 256.664 215.305 256.534 215.284C256.409 215.258 256.292 215.245 256.182 215.245C255.953 215.245 255.763 215.297 255.612 215.401C255.461 215.5 255.385 215.633 255.385 215.8C255.385 215.893 255.411 215.979 255.463 216.057C255.516 216.136 255.586 216.198 255.674 216.245C255.768 216.292 255.878 216.315 256.003 216.315C256.128 216.315 256.253 216.292 256.378 216.245C256.503 216.198 256.607 216.138 256.69 216.065ZM262.472 213.213C262.457 213.187 262.402 213.148 262.308 213.096C262.214 213.038 262.097 212.979 261.957 212.916C261.816 212.854 261.662 212.799 261.495 212.752C261.329 212.705 261.162 212.682 260.995 212.682C260.777 212.682 260.607 212.721 260.487 212.799C260.368 212.872 260.308 212.986 260.308 213.143C260.308 213.268 260.352 213.367 260.441 213.44C260.534 213.513 260.667 213.578 260.839 213.635C261.011 213.687 261.222 213.75 261.472 213.823C261.826 213.916 262.134 214.031 262.394 214.166C262.655 214.297 262.853 214.466 262.988 214.674C263.129 214.883 263.199 215.159 263.199 215.503C263.199 215.815 263.142 216.081 263.027 216.3C262.912 216.513 262.756 216.688 262.558 216.823C262.365 216.953 262.144 217.05 261.894 217.112C261.644 217.17 261.386 217.198 261.12 217.198C260.85 217.198 260.571 217.172 260.284 217.12C260.003 217.063 259.732 216.985 259.472 216.886C259.211 216.781 258.971 216.656 258.753 216.511L259.315 215.393C259.336 215.419 259.404 215.469 259.518 215.542C259.633 215.609 259.774 215.682 259.94 215.76C260.112 215.833 260.303 215.898 260.511 215.956C260.719 216.013 260.93 216.042 261.144 216.042C261.373 216.042 261.542 216.005 261.652 215.932C261.766 215.859 261.824 215.758 261.824 215.628C261.824 215.487 261.764 215.378 261.644 215.299C261.529 215.221 261.37 215.151 261.167 215.088C260.969 215.026 260.74 214.956 260.48 214.877C260.141 214.773 259.86 214.656 259.636 214.526C259.417 214.396 259.253 214.237 259.143 214.049C259.039 213.862 258.987 213.627 258.987 213.346C258.987 212.955 259.078 212.627 259.261 212.361C259.448 212.09 259.698 211.887 260.011 211.752C260.323 211.611 260.665 211.541 261.034 211.541C261.295 211.541 261.545 211.572 261.785 211.635C262.029 211.697 262.256 211.775 262.464 211.869C262.678 211.963 262.868 212.057 263.035 212.15L262.472 213.213Z" fill="white"/>
<path opacity="0.5" d="M287.112 240.77C295.863 240.77 302.958 233.676 302.958 224.924C302.958 216.173 295.863 209.078 287.112 209.078C278.36 209.078 271.266 216.173 271.266 224.924C271.266 233.676 278.36 240.77 287.112 240.77Z" fill="url(#paint21_linear_2463_26335)"/>
<path opacity="0.5" d="M284.996 236.54C293.748 236.54 300.842 229.445 300.842 220.694C300.842 211.942 293.748 204.848 284.996 204.848C276.245 204.848 269.15 211.942 269.15 220.694C269.15 229.445 276.245 236.54 284.996 236.54Z" fill="url(#paint22_linear_2463_26335)"/>
<path d="M283.452 234.273C292.204 234.273 299.298 227.179 299.298 218.427C299.298 209.676 292.204 202.581 283.452 202.581C274.701 202.581 267.606 209.676 267.606 218.427C267.606 227.179 274.701 234.273 283.452 234.273Z" fill="url(#paint23_linear_2463_26335)"/>
<path d="M278.413 211.477C278.413 211.229 278.41 210.993 278.414 210.756C278.419 210.442 278.673 210.197 278.986 210.199C279.293 210.201 279.542 210.446 279.548 210.756C279.552 210.959 279.549 211.162 279.549 211.365C279.549 211.398 279.552 211.432 279.554 211.47C282.153 211.47 284.747 211.47 287.35 211.47C287.352 211.437 287.355 211.404 287.355 211.371C287.356 211.168 287.353 210.965 287.356 210.762C287.36 210.447 287.611 210.198 287.922 210.198C288.235 210.197 288.486 210.444 288.49 210.759C288.493 210.986 288.491 211.213 288.492 211.44C288.492 211.447 288.496 211.453 288.502 211.475C288.534 211.475 288.57 211.475 288.606 211.475C289.088 211.475 289.569 211.474 290.051 211.475C291.309 211.477 292.324 212.487 292.325 213.745C292.326 217.289 292.327 220.833 292.325 224.378C292.324 225.638 291.314 226.651 290.055 226.652C285.651 226.654 281.246 226.654 276.842 226.652C275.589 226.651 274.577 225.636 274.577 224.384C274.575 220.84 274.575 217.296 274.577 213.752C274.577 212.486 275.59 211.478 276.855 211.476C277.33 211.475 277.805 211.476 278.279 211.476C278.321 211.477 278.362 211.477 278.413 211.477ZM275.715 216.021C275.715 216.066 275.715 216.1 275.715 216.133C275.715 218.869 275.715 221.604 275.715 224.34C275.715 225.027 276.207 225.518 276.893 225.518C281.266 225.518 285.64 225.518 290.013 225.518C290.693 225.518 291.189 225.027 291.189 224.349C291.19 221.61 291.189 218.871 291.189 216.132C291.189 216.096 291.186 216.06 291.184 216.021C286.025 216.021 280.878 216.021 275.715 216.021ZM275.715 214.873C280.882 214.873 286.031 214.873 291.19 214.873C291.19 214.832 291.19 214.798 291.19 214.764C291.19 214.434 291.191 214.103 291.19 213.773C291.188 213.108 290.693 212.614 290.027 212.612C289.552 212.611 289.077 212.612 288.603 212.612C288.57 212.612 288.536 212.615 288.493 212.617C288.493 212.66 288.493 212.697 288.493 212.734C288.493 212.982 288.496 213.229 288.492 213.477C288.487 213.77 288.265 213.998 287.966 214.027C287.694 214.053 287.435 213.863 287.374 213.588C287.361 213.529 287.359 213.466 287.358 213.404C287.356 213.144 287.357 212.883 287.357 212.617C284.751 212.617 282.155 212.617 279.55 212.617C279.55 212.66 279.55 212.697 279.55 212.735C279.55 212.986 279.555 213.238 279.548 213.488C279.54 213.773 279.322 213.994 279.032 214.026C278.763 214.056 278.504 213.876 278.435 213.607C278.419 213.545 278.416 213.478 278.415 213.413C278.413 213.149 278.414 212.885 278.414 212.62C278.39 212.616 278.377 212.612 278.364 212.612C277.834 212.612 277.304 212.602 276.774 212.616C276.244 212.631 275.78 213.07 275.731 213.599C275.705 213.886 275.719 214.176 275.715 214.465C275.714 214.6 275.715 214.733 275.715 214.873Z" fill="white"/>
<path d="M289.623 217.303C289.623 218.193 289.623 219.082 289.623 219.98C288.681 219.98 287.741 219.98 286.794 219.98C286.794 219.092 286.794 218.204 286.794 217.303C287.733 217.303 288.672 217.303 289.623 217.303Z" fill="white"/>
<path d="M286.795 221.554C287.739 221.554 288.677 221.554 289.621 221.554C289.621 222.447 289.621 223.336 289.621 224.234C288.682 224.234 287.742 224.234 286.795 224.234C286.795 223.343 286.795 222.451 286.795 221.554Z" fill="white"/>
<path d="M280.111 217.298C280.111 218.197 280.111 219.087 280.111 219.981C279.168 219.981 278.23 219.981 277.285 219.981C277.285 219.088 277.285 218.196 277.285 217.298C278.225 217.298 279.165 217.298 280.111 217.298Z" fill="white"/>
<path d="M284.795 219.983C283.85 219.983 282.915 219.983 281.971 219.983C281.971 219.089 281.971 218.197 281.971 217.298C282.91 217.298 283.849 217.298 284.795 217.298C284.795 218.194 284.795 219.083 284.795 219.983Z" fill="white"/>
<path d="M277.283 224.234C277.283 223.338 277.283 222.449 277.283 221.554C278.226 221.554 279.164 221.554 280.109 221.554C280.109 222.447 280.109 223.336 280.109 224.234C279.17 224.234 278.23 224.234 277.283 224.234Z" fill="white"/>
<path d="M284.796 221.556C284.796 222.452 284.796 223.341 284.796 224.236C283.855 224.236 282.918 224.236 281.972 224.236C281.972 223.346 281.972 222.454 281.972 221.556C282.909 221.556 283.846 221.556 284.796 221.556Z" fill="white"/>
<path d="M355.187 38.3576C355.187 41.8886 355.19 45.4186 355.185 48.9496C355.183 50.1786 354.377 51.1476 353.216 51.3396C351.795 51.5746 350.517 50.5306 350.461 49.0876C350.455 48.9396 350.459 48.7906 350.459 48.6426C350.459 41.6996 350.458 34.7576 350.46 27.8146C350.46 26.6876 351.101 25.7836 352.113 25.4656C353.631 24.9896 355.17 26.0996 355.183 27.7056C355.2 29.7926 355.188 31.8796 355.188 33.9656C355.187 35.4306 355.187 36.8936 355.187 38.3576ZM338.557 34.0856C338.552 32.7576 337.511 31.7316 336.2 31.7296C334.901 31.7276 333.838 32.7536 333.837 34.0476C333.831 39.0516 333.831 44.0556 333.838 49.0586C333.839 49.8166 334.162 50.4446 334.771 50.8936C335.536 51.4586 336.378 51.5486 337.233 51.1286C338.099 50.7026 338.55 49.9706 338.555 49.0076C338.569 46.5256 338.56 44.0436 338.56 41.5616C338.56 39.0696 338.567 36.5776 338.557 34.0856ZM325.52 44.0826C325.52 45.7236 325.514 47.3656 325.522 49.0066C325.528 50.3296 326.568 51.3726 327.869 51.3786C329.182 51.3856 330.24 50.3396 330.243 49.0026C330.25 45.7296 330.246 42.4566 330.245 39.1846C330.245 38.7086 330.116 38.2676 329.85 37.8696C329.272 37.0056 328.224 36.6236 327.222 36.9096C326.233 37.1926 325.532 38.0886 325.525 39.1296C325.513 40.7806 325.522 42.4316 325.522 44.0836C325.52 44.0826 325.52 44.0826 325.52 44.0826ZM342.151 48.9426C342.152 49.1766 342.178 49.4196 342.239 49.6446C342.545 50.7656 343.639 51.5046 344.757 51.3626C345.979 51.2076 346.865 50.2516 346.868 49.0366C346.877 45.7436 346.873 42.4516 346.868 39.1586C346.868 38.9536 346.834 38.7436 346.78 38.5456C346.475 37.4176 345.389 36.6926 344.231 36.8336C343.052 36.9776 342.16 37.9416 342.15 39.1236C342.136 40.7746 342.146 42.4256 342.146 44.0776C342.147 45.6996 342.143 47.3206 342.151 48.9426ZM353.41 18.5116C352.825 18.2746 352.152 18.4136 351.712 18.8636C351.274 19.3096 351.147 19.9856 351.401 20.5686C351.463 20.7096 351.505 20.8156 351.394 20.9676C349.268 23.8846 347.15 26.8086 345.022 29.7246C344.964 29.8036 344.825 29.8406 344.716 29.8636C344.411 29.9286 344.089 29.9376 343.801 30.0426C343.615 30.1106 343.493 30.1286 343.322 30.0236C341.538 28.9226 339.75 27.8276 337.959 26.7386C337.796 26.6396 337.734 26.5386 337.738 26.3406C337.752 25.4546 337.07 24.7636 336.199 24.7596C335.334 24.7546 334.633 25.4546 334.655 26.3336C334.66 26.5526 334.576 26.6486 334.412 26.7486C332.631 27.8346 330.851 28.9236 329.075 30.0176C328.91 30.1186 328.787 30.1516 328.597 30.0446C328.406 29.9376 328.17 29.8756 327.95 29.8616C327.081 29.8076 326.358 30.4906 326.333 31.3596C326.308 32.2346 326.978 32.9396 327.855 32.9626C328.715 32.9856 329.431 32.2846 329.428 31.4126C329.428 31.2366 329.438 31.1096 329.619 30.9996C331.437 29.8986 333.247 28.7826 335.065 27.6806C335.156 27.6256 335.329 27.6236 335.426 27.6726C335.933 27.9276 336.435 27.9486 336.931 27.6746C337.093 27.5856 337.201 27.5906 337.355 27.6866C339.139 28.7866 340.927 29.8816 342.719 30.9686C342.901 31.0796 342.972 31.1926 342.967 31.4116C342.952 32.0536 343.342 32.6166 343.925 32.8486C344.512 33.0816 345.186 32.9396 345.623 32.4906C346.061 32.0396 346.189 31.3666 345.925 30.7866C345.851 30.6226 345.851 30.5136 345.961 30.3636C348.074 27.4616 350.182 24.5546 352.287 21.6466C352.386 21.5106 352.479 21.4656 352.654 21.4866C353.578 21.6006 354.372 20.8816 354.371 19.9496C354.371 19.3086 353.998 18.7506 353.41 18.5116Z" fill="#304FFE"/>
<path opacity="0.8" d="M253.506 59.19C262.258 59.19 269.352 52.0955 269.352 43.344C269.352 34.5925 262.258 27.498 253.506 27.498C244.755 27.498 237.66 34.5925 237.66 43.344C237.66 52.0955 244.755 59.19 253.506 59.19Z" fill="url(#paint24_linear_2463_26335)"/>
<path opacity="0.8" d="M251.391 54.9596C260.142 54.9596 267.237 47.8651 267.237 39.1136C267.237 30.3621 260.142 23.2676 251.391 23.2676C242.639 23.2676 235.545 30.3621 235.545 39.1136C235.545 47.8651 242.639 54.9596 251.391 54.9596Z" fill="url(#paint25_linear_2463_26335)"/>
<path d="M249.846 52.692C258.598 52.692 265.692 45.5975 265.692 36.846C265.692 28.0945 258.598 21 249.846 21C241.095 21 234 28.0945 234 36.846C234 45.5975 241.095 52.692 249.846 52.692Z" fill="url(#paint26_linear_2463_26335)"/>
<path d="M255.932 44.4269C255.838 44.4269 255.743 44.4269 255.649 44.4269C255.482 44.3559 255.34 44.2539 255.214 44.1199C254.83 43.7119 254.438 43.3089 254.048 42.9059C253.303 42.1369 252.554 41.3709 251.814 40.5969C251.703 40.4809 251.621 40.3319 251.548 40.1859C251.495 40.0799 251.507 39.9659 251.578 39.8519C251.623 39.7809 251.648 39.6629 251.62 39.5889C251.559 39.4239 251.46 39.2729 251.375 39.1129C251.321 39.1439 251.295 39.1549 251.274 39.1719C250.828 39.5199 250.336 39.7839 249.804 39.9739C249.278 40.1609 248.736 40.2619 248.179 40.2769C247.477 40.2959 246.798 40.1759 246.139 39.9269C245.601 39.7239 245.112 39.4379 244.67 39.0769C244.222 38.7099 243.843 38.2759 243.536 37.7819C243.097 37.0759 242.837 36.3089 242.759 35.4839C242.673 34.5679 242.815 33.6859 243.185 32.8409C243.525 32.0639 244.027 31.4079 244.679 30.8729C245.344 30.3259 246.104 29.9609 246.951 29.7909C247.208 29.7389 247.47 29.7109 247.729 29.6719C247.933 29.6719 248.138 29.6719 248.342 29.6719C248.52 29.6969 248.699 29.7199 248.877 29.7479C249.596 29.8579 250.263 30.1109 250.876 30.5019C251.396 30.8339 251.845 31.2439 252.225 31.7319C252.712 32.3589 253.037 33.0589 253.21 33.8319C253.339 34.4049 253.373 34.9839 253.304 35.5639C253.202 36.4179 252.92 37.2099 252.434 37.9259C252.236 38.2179 252.239 38.2349 252.547 38.4219C252.684 38.5049 252.837 38.5829 252.998 38.4759C253.112 38.3999 253.237 38.3859 253.343 38.4509C253.512 38.5539 253.677 38.6699 253.819 38.8059C254.08 39.0549 254.323 39.3229 254.574 39.5819C255.463 40.5009 256.353 41.4189 257.241 42.3389C257.509 42.6169 257.507 42.9999 257.238 43.2779C257.096 43.4239 256.954 43.5709 256.8 43.7049C256.517 43.9529 256.301 44.2829 255.932 44.4269ZM248.042 31.3239C246.026 31.3179 244.386 32.9529 244.382 34.9749C244.378 36.9899 246 38.6189 248.024 38.6309C250.043 38.6439 251.689 37.0029 251.691 34.9749C251.693 32.9649 250.059 31.3299 248.042 31.3239Z" fill="white"/>
<path d="M254.448 328.859H226.916C226.272 328.859 225.75 328.337 225.75 327.693V321.96C225.75 321.316 226.272 320.794 226.916 320.794H254.448C255.092 320.794 255.614 321.316 255.614 321.96V327.693C255.614 328.337 255.092 328.859 254.448 328.859Z" fill="#4E76FF"/>
<path d="M253.069 324.827C253.069 325.448 252.565 325.951 251.945 325.951C251.324 325.951 250.82 325.448 250.82 324.827C250.82 324.206 251.324 323.703 251.945 323.703C252.566 323.703 253.069 324.206 253.069 324.827Z" fill="white"/>
<path d="M249.812 324.827C249.812 325.448 249.309 325.951 248.688 325.951C248.067 325.951 247.564 325.448 247.564 324.827C247.564 324.206 248.067 323.703 248.688 323.703C249.309 323.703 249.812 324.206 249.812 324.827Z" fill="white"/>
<path d="M246.557 324.827C246.557 325.448 246.054 325.951 245.433 325.951C244.812 325.951 244.309 325.448 244.309 324.827C244.309 324.206 244.813 323.703 245.433 323.703C246.053 323.703 246.557 324.206 246.557 324.827Z" fill="white"/>
<path d="M253.451 309.538H252.603V321.076H253.451V309.538Z" fill="#4E76FF"/>
<g opacity="0.7">
<path d="M251.221 310.614L250.821 310.214C250.415 310.625 250.162 311.189 250.162 311.808C250.162 312.428 250.416 312.991 250.821 313.402L251.221 313.002C250.911 312.698 250.725 312.27 250.725 311.808C250.726 311.347 250.912 310.918 251.221 310.614Z" fill="#4E76FF"/>
</g>
<g opacity="0.7">
<path d="M250.549 309.938L250.149 309.538C249.569 310.118 249.208 310.918 249.208 311.808C249.208 312.698 249.569 313.498 250.149 314.078L250.549 313.678C250.07 313.199 249.772 312.54 249.772 311.808C249.772 311.076 250.07 310.417 250.549 309.938Z" fill="#4E76FF"/>
</g>
<g opacity="0.7">
<path d="M249.835 309.319L249.435 308.919C248.691 309.657 248.235 310.682 248.235 311.809C248.235 312.936 248.691 313.961 249.435 314.699L249.835 314.299C249.193 313.662 248.799 312.778 248.799 311.809C248.799 310.84 249.193 309.955 249.835 309.319Z" fill="#4E76FF"/>
</g>
<g opacity="0.7">
<path d="M255.667 311.809C255.667 312.271 255.481 312.699 255.171 313.003L255.571 313.403C255.977 312.992 256.23 312.428 256.23 311.809C256.23 311.189 255.977 310.626 255.571 310.215L255.171 310.615C255.481 310.918 255.667 311.347 255.667 311.809Z" fill="#4E76FF"/>
</g>
<g opacity="0.7">
<path d="M256.621 311.809C256.621 312.541 256.322 313.2 255.844 313.679L256.244 314.079C256.824 313.499 257.185 312.699 257.185 311.809C257.185 310.919 256.824 310.119 256.244 309.539L255.844 309.939C256.322 310.417 256.621 311.076 256.621 311.809Z" fill="#4E76FF"/>
</g>
<g opacity="0.7">
<path d="M257.594 311.809C257.594 312.778 257.2 313.662 256.557 314.299L256.957 314.699C257.701 313.961 258.157 312.936 258.157 311.809C258.157 310.682 257.701 309.657 256.957 308.919L256.557 309.319C257.2 309.955 257.594 310.84 257.594 311.809Z" fill="#4E76FF"/>
</g>
<path d="M220.857 324.827H179.306" stroke="#FDCA40" stroke-miterlimit="10" stroke-linecap="round" stroke-dasharray="1 4"/>
<path d="M220.782 326.331C221.613 326.331 222.286 325.658 222.286 324.827C222.286 323.997 221.613 323.323 220.782 323.323C219.952 323.323 219.278 323.997 219.278 324.827C219.278 325.658 219.952 326.331 220.782 326.331Z" fill="#FDCA40"/>
<path d="M179.382 323.323C178.551 323.323 177.878 323.996 177.878 324.827C177.878 325.658 178.552 326.331 179.382 326.331C180.212 326.331 180.886 325.658 180.886 324.827C180.885 323.996 180.212 323.323 179.382 323.323Z" fill="#FDCA40"/>
<path opacity="0.5" d="M346.868 234.443C355.666 234.443 362.799 227.311 362.799 218.512C362.799 209.714 355.666 202.581 346.868 202.581C338.069 202.581 330.937 209.714 330.937 218.512C330.937 227.311 338.069 234.443 346.868 234.443Z" fill="url(#paint27_linear_2463_26335)"/>
<path d="M346.867 218.512L349.679 227.629C348.768 227.91 347.82 228.053 346.867 228.053C341.633 228.053 337.326 223.746 337.326 218.512C337.326 213.278 341.633 208.971 346.867 208.971C352.101 208.971 356.408 213.278 356.408 218.512H346.867Z" fill="url(#paint28_linear_2463_26335)"/>
<path d="M346.867 218.512L356.408 218.56C356.398 220.591 355.739 222.566 354.53 224.197C353.32 225.828 351.62 227.031 349.68 227.629L346.867 218.512Z" fill="#8CA6FF"/>
<path opacity="0.5" d="M346.868 273.16C355.666 273.16 362.799 266.027 362.799 257.229C362.799 248.43 355.666 241.298 346.868 241.298C338.069 241.298 330.937 248.43 330.937 257.229C330.937 266.027 338.069 273.16 346.868 273.16Z" fill="url(#paint29_linear_2463_26335)"/>
<path d="M346.867 257.229L349.679 266.346C348.768 266.627 347.82 266.77 346.867 266.77C341.633 266.77 337.326 262.463 337.326 257.229C337.326 255.407 337.848 253.622 338.83 252.088L346.867 257.229Z" fill="url(#paint30_linear_2463_26335)"/>
<path d="M346.867 257.229L343.293 248.383C344.429 247.924 345.642 247.688 346.867 247.688C352.101 247.688 356.408 251.995 356.408 257.229C356.408 261.403 353.668 265.116 349.679 266.346L346.867 257.229Z" fill="#8CA6FF"/>
<path opacity="0.3" d="M207.163 417.878H105.716C103.448 417.878 101.61 416.039 101.61 413.772C101.61 411.504 103.449 409.666 105.716 409.666H207.164C209.432 409.666 211.27 411.504 211.27 413.772C211.27 416.039 209.431 417.878 207.163 417.878Z" fill="#89A4FF"/>
<path opacity="0.3" d="M94.6207 413.072H34.1377C32.5727 413.072 31.3037 411.803 31.3037 410.238C31.3037 408.673 32.5727 407.404 34.1377 407.404H94.6207C96.1857 407.404 97.4547 408.673 97.4547 410.238C97.4547 411.804 96.1857 413.072 94.6207 413.072Z" fill="#89A4FF"/>
<path d="M67.0878 358.644H61.7168V381.738H67.0878V358.644Z" fill="#3256E0"/>
<path d="M67.0878 358.644H61.7168V364.015H67.0878V358.644Z" fill="#3256E0"/>
<path d="M69.2344 375.65H59.5674V395.119H69.2344V375.65Z" fill="#3260FF"/>
<path d="M82.6178 359.672H48.8038C45.9488 359.672 43.6348 357.358 43.6348 354.503C43.6348 351.648 45.9488 349.334 48.8038 349.334H82.6178C85.4728 349.334 87.7868 351.648 87.7868 354.503C87.7878 357.358 85.4728 359.672 82.6178 359.672Z" fill="#4E76FF"/>
<path d="M47.8409 354.503H43.4439C40.1869 354.503 37.5469 351.863 37.5469 348.607V336.154" stroke="#4E76FF" stroke-width="3" stroke-miterlimit="10"/>
<path d="M47.8534 337.585H28.6744C26.4064 337.585 24.5684 335.747 24.5684 333.479V305.461C24.5684 303.193 26.4064 301.355 28.6744 301.355H47.8534C50.1214 301.355 51.9594 303.193 51.9594 305.461V333.479C51.9594 335.747 50.1214 337.585 47.8534 337.585Z" fill="#3A5DFF"/>
<path d="M48.0937 337.585H31.5457C29.4107 337.585 27.6797 335.854 27.6797 333.719V305.221C27.6797 303.086 29.4107 301.355 31.5457 301.355H48.0937C50.2287 301.355 51.9597 303.086 51.9597 305.221V333.719C51.9597 335.855 50.2287 337.585 48.0937 337.585Z" fill="#4E76FF"/>
<path d="M46.8574 402.145C46.8574 398.981 49.4224 396.416 52.5864 396.416H75.8594C79.0234 396.416 81.5884 398.981 81.5884 402.145" stroke="#3260FF" stroke-width="3" stroke-miterlimit="10" stroke-linecap="round" stroke-linejoin="round"/>
<path d="M64.4014 396.775V403.757" stroke="#3260FF" stroke-width="3" stroke-miterlimit="10" stroke-linecap="round" stroke-linejoin="round"/>
<path d="M84.4316 407.272C84.4316 408.767 83.2196 409.98 81.7236 409.98C80.2286 409.98 79.0156 408.768 79.0156 407.272C79.0156 405.776 80.2276 404.564 81.7236 404.564C83.2196 404.564 84.4316 405.776 84.4316 407.272Z" fill="#3260FF"/>
<path d="M66.9306 407.272C66.9306 408.767 65.7187 409.98 64.2227 409.98C62.7277 409.98 61.5146 408.768 61.5146 407.272C61.5146 405.776 62.7267 404.564 64.2227 404.564C65.7177 404.564 66.9306 405.776 66.9306 407.272Z" fill="#3260FF"/>
<path d="M49.4297 407.272C49.4297 408.767 48.2177 409.98 46.7217 409.98C45.2257 409.98 44.0137 408.768 44.0137 407.272C44.0137 405.776 45.2257 404.564 46.7217 404.564C48.2177 404.564 49.4297 405.776 49.4297 407.272Z" fill="#3260FF"/>
<path d="M127.106 411.679H107.731C107.282 411.679 106.919 411.315 106.919 410.867V403.944C106.919 403.495 107.283 403.132 107.731 403.132H122.59C125.626 403.132 128.087 405.593 128.087 408.629V410.697C128.088 411.239 127.648 411.679 127.106 411.679Z" fill="#FDCA40"/>
<path d="M149.983 406.415V407.297C149.983 407.938 149.463 408.457 148.823 408.457H129.779C129.247 408.457 128.812 408.022 128.812 407.49V400.868C128.812 400.336 129.247 399.913 129.779 399.913H143.47C143.663 399.913 143.857 399.925 144.038 399.949C147.373 400.228 149.983 403.02 149.983 406.415Z" fill="#FDCA40"/>
<path d="M141.184 399.914H139.396V404.18H141.184V399.914Z" fill="#FEE8AC"/>
<path d="M144.036 399.951V404.18H142.248V399.914H143.468C143.662 399.914 143.855 399.926 144.036 399.951Z" fill="#FEE8AC"/>
<path d="M119.502 403.131H117.714V407.397H119.502V403.131Z" fill="#FEE8AC"/>
<path d="M122.353 403.167V407.396H120.565V403.13H121.785C121.979 403.131 122.172 403.143 122.353 403.167Z" fill="#FEE8AC"/>
<path d="M149.981 408.458H128.983V409.666H149.981V408.458Z" fill="#FEE8AC"/>
<path d="M128.002 411.679H107.004V412.886H128.002V411.679Z" fill="#FEE8AC"/>
<path d="M113.273 407.674H109.67C109.164 407.674 108.754 407.264 108.754 406.758V398.346H116.474V404.473C116.474 406.24 115.041 407.674 113.273 407.674Z" fill="#FCDABF"/>
<path d="M135.57 403.649L132.357 404.456C131.772 404.603 131.179 404.248 131.033 403.663L129.016 395.633L136.504 393.752L137.979 399.624C138.425 401.401 137.346 403.203 135.57 403.649Z" fill="#FCDABF"/>
<path d="M83.5682 277.72C80.8902 277.225 79.1212 274.652 79.6162 271.974L81.9742 259.227C82.4692 256.549 85.0422 254.78 87.7202 255.275C90.3982 255.77 92.1672 258.343 91.6722 261.021L89.3142 273.768C88.8192 276.446 86.2462 278.215 83.5682 277.72Z" fill="#FAC194"/>
<path d="M135.711 315.833L138.961 315.073C141.508 314.478 144.189 315.012 146.312 316.539L148.563 318.158C149.478 318.816 150.262 319.638 150.875 320.583L151.755 321.94C152.378 322.9 152.105 324.184 151.144 324.807C150.184 325.43 148.9 325.157 148.277 324.196C147.313 322.709 145.485 322.026 143.792 322.552C141.773 323.178 138.552 323.623 134.01 322.655C134.94 318.296 135.711 315.833 135.711 315.833Z" fill="#EECBB0"/>
<path d="M137.475 312.731L135.07 324.005L106.431 318.833C103.748 318.229 101.356 316.815 99.5192 314.761L96.1112 310.967L90.3592 304.563L85.6222 299.294C83.0002 296.358 83.2412 291.862 86.1662 289.24C88.8612 286.823 92.8852 286.835 95.5552 289.143C95.7852 289.336 96.0022 289.554 96.2082 289.784L96.4862 290.098L109.911 305.046L137.475 312.731Z" fill="#F78424"/>
<path d="M136.741 315.644C136.741 315.644 139.698 314.911 141.01 313.744C141.43 313.374 141.782 313.055 142.059 312.798C142.504 312.386 143.165 312.318 143.689 312.624C144.377 313.027 144.582 313.926 144.136 314.587L141.791 318.065C140.561 320.953 138.234 321.147 135.819 321.129L136.741 315.644Z" fill="#DEB397"/>
<path opacity="0.5" d="M96.4874 290.099L96.1124 310.968L90.3604 304.564L95.5564 289.145C95.7864 289.338 96.0034 289.556 96.2094 289.786L96.4874 290.099Z" fill="#F79824"/>
<path d="M70.4075 348.929L113.747 358.355L125.696 395.746C125.696 397.596 140.028 397.596 140.028 395.746L127.068 347.109C125.995 344.631 123.7 342.732 120.832 342.306L120.627 342.276L72.8975 332.196C68.2765 331.508 63.9735 334.696 63.2855 339.317C62.5985 343.938 65.7865 348.241 70.4075 348.929Z" fill="#31393C"/>
<path d="M71.6523 352.736C63.0013 352.736 55.9883 345.723 55.9883 337.071V333.67H87.3173V337.071C87.3173 345.723 80.3033 352.736 71.6523 352.736Z" fill="#3A4447"/>
<path d="M96.0032 290.243C96.0032 291.258 95.9062 292.297 95.6892 293.337L91.6892 312.901L89.5622 323.281L87.2302 334.712L55.9932 333.673L65.6122 287.186C67.3162 278.884 75.4242 273.531 83.7262 275.223C90.9892 276.709 96.0032 283.101 96.0032 290.243Z" fill="#F79824"/>
<path d="M69.6004 352.598L103.505 361.868L105.282 400.22C105.282 401.742 120.29 401.742 120.29 400.22L120.027 355.294C119.996 351.898 117.823 348.737 114.415 347.627L114.192 347.554L75.1444 334.843C70.7024 333.397 65.9294 335.826 64.4824 340.268C63.0374 344.713 65.1574 351.152 69.6004 352.598Z" fill="#3A4447"/>
<path opacity="0.6" d="M91.6896 312.901L89.5626 323.282L73.1406 297.144L91.6896 312.901Z" fill="#F79824"/>
<path d="M128.051 315.629C128.051 315.629 130.157 314.991 131.335 313.954C131.767 313.574 132.128 313.245 132.413 312.982C132.87 312.559 133.551 312.489 134.088 312.803C134.795 313.217 135.006 314.142 134.548 314.821L132.137 318.396L128.051 315.629Z" fill="#ECC1A5"/>
<path d="M125.888 316.1L129.229 315.319C131.848 314.707 134.603 315.256 136.786 316.826L139.1 318.49C140.04 319.166 140.846 320.011 141.476 320.983L142.381 322.378C143.021 323.365 142.74 324.685 141.753 325.325C140.766 325.966 139.446 325.684 138.806 324.697C137.815 323.169 135.936 322.467 134.196 323.007C132.121 323.651 128.809 324.108 124.14 323.113C125.095 318.633 125.888 316.1 125.888 316.1Z" fill="#FCDABF"/>
<path d="M127.698 312.914L125.229 324.504L95.7837 319.186C93.0267 318.56 90.5747 317.113 88.6837 315.002L74.3997 299.093C71.6997 296.082 71.9507 291.458 74.9527 288.767C77.9637 286.067 82.5877 286.318 85.2787 289.32L99.3617 305.009L127.698 312.914Z" fill="#F79824"/>
<path d="M75.6807 276.338L76.7757 273.326C77.0867 272.47 77.9197 271.926 78.8277 271.991C81.1317 272.157 85.5617 272.632 88.8417 273.934C89.5717 274.224 90.0817 274.909 90.1197 275.694C90.2067 277.477 90.0017 279.292 90.0017 279.292C90.0017 279.292 83.9607 276.07 75.6807 276.338Z" fill="#F79824"/>
<path d="M90.107 271.695L86.171 270.967C81.811 270.16 78.93 265.972 79.737 261.612L81.837 250.262C82.644 245.902 86.832 243.022 91.192 243.828L95.128 244.556C99.488 245.363 102.368 249.551 101.562 253.911L99.462 265.261C98.655 269.622 94.467 272.502 90.107 271.695Z" fill="#FCDABF"/>
<path d="M84.5643 263.409L83.7743 263.263C82.8993 263.101 82.3213 262.26 82.4833 261.385L83.6353 255.158C83.7973 254.283 84.6373 253.705 85.5123 253.867L86.3013 254.013C87.1763 254.175 87.7543 255.015 87.5933 255.89L86.4413 262.118C86.2803 262.993 85.4393 263.571 84.5643 263.409Z" fill="#ECC1A5"/>
<path d="M100.269 264.071L99.8327 263.99C99.3497 263.901 99.0297 263.436 99.1197 262.953L99.7557 259.513C99.8447 259.03 100.31 258.71 100.793 258.8L101.229 258.881C101.712 258.97 102.032 259.435 101.942 259.918L101.306 263.358C101.216 263.841 100.752 264.161 100.269 264.071Z" fill="#ECC1A5"/>
<path d="M97.3235 259.61L97.1055 259.57C96.8635 259.525 96.7045 259.293 96.7485 259.051L97.0665 257.332C97.1115 257.09 97.3435 256.931 97.5855 256.975L97.8035 257.015C98.0455 257.06 98.2055 257.292 98.1605 257.534L97.8425 259.254C97.7975 259.496 97.5655 259.655 97.3235 259.61Z" fill="black"/>
<path d="M88.9503 259.479C88.1853 259.333 87.6843 258.594 87.8313 257.829L89.6963 248.092C89.8433 247.327 90.5813 246.826 91.3463 246.973C92.1113 247.12 92.6123 247.858 92.4653 248.623L90.5993 258.36C90.4533 259.125 89.7153 259.626 88.9503 259.479Z" fill="black"/>
<path d="M79.4617 259.649C78.0057 259.37 77.0507 257.963 77.3297 256.507L79.1757 246.874C79.4547 245.418 80.8617 244.463 82.3177 244.742C83.7737 245.021 84.7287 246.428 84.4497 247.884L82.6037 257.517C82.3247 258.973 80.9177 259.928 79.4617 259.649Z" fill="black"/>
<path d="M101.596 251.626L86.1437 248.666C83.8737 248.231 82.3857 246.038 82.8207 243.768C83.2557 241.498 85.4487 240.01 87.7187 240.445L103.171 243.405C105.441 243.84 106.929 246.033 106.494 248.302C106.059 250.573 103.866 252.06 101.596 251.626Z" fill="black"/>
<path d="M102.683 246.829L93.2153 245.015C92.6323 244.903 92.2493 244.34 92.3613 243.756C92.4733 243.173 93.0363 242.79 93.6203 242.902L103.088 244.716C103.671 244.828 104.054 245.391 103.942 245.975C103.83 246.559 103.266 246.941 102.683 246.829Z" fill="#424242"/>
<path d="M93.3676 254.468L81.6346 252.22C81.2346 252.143 80.9726 251.757 81.0496 251.357L81.9596 246.607C82.0366 246.207 82.4226 245.945 82.8226 246.022L94.5556 248.27C94.9556 248.347 95.2176 248.733 95.1406 249.133L94.2306 253.883C94.1536 254.283 93.7676 254.545 93.3676 254.468Z" fill="black"/>
<path opacity="0.3" d="M77.5078 344.788L104.931 354.079C107.484 354.944 109.254 357.275 109.402 359.966L111.395 398.163" stroke="#31393C" stroke-width="0.75" stroke-miterlimit="10" stroke-linecap="round"/>
<path opacity="0.3" d="M65.3086 340.696L77.3026 345.351C77.3026 345.351 73.1856 337.563 65.3086 340.696Z" fill="#31393C"/>
<path d="M214.669 328.857H98.2148V334.341H214.669V328.857Z" fill="#4E76FF"/>
<path d="M115.116 333.67H110.299V415.215H115.116V333.67Z" fill="#4E76FF"/>
<path opacity="0.5" d="M115.116 333.67H110.299V340.607H115.116V333.67Z" fill="#4E76FF"/>
<path d="M197.365 333.67H192.548V415.215H197.365V333.67Z" fill="#4E76FF"/>
<path opacity="0.5" d="M197.365 333.67H192.548V340.607H197.365V333.67Z" fill="#4E76FF"/>
<path d="M181.417 291.702L167.289 325.115L165.733 328.804L165.715 328.839L165.636 328.804H128.261C127.242 328.804 126.416 327.978 126.416 326.959C126.416 325.94 127.242 325.114 128.261 325.114H163.284L178.013 290.262C178.41 289.323 179.494 288.884 180.432 289.282L180.436 289.284C181.376 289.683 181.814 290.764 181.417 291.702Z" fill="#214CC2"/>
<path opacity="0.5" d="M164.889 336.05C170.266 336.05 174.624 331.692 174.624 326.315C174.624 320.939 170.266 316.58 164.889 316.58C159.513 316.58 155.154 320.939 155.154 326.315C155.154 331.692 159.513 336.05 164.889 336.05Z" fill="#FDCA40"/>
<path opacity="0.5" d="M171.604 326.315C171.604 330.023 168.598 333.03 164.889 333.03C161.181 333.03 158.174 330.024 158.174 326.315C158.174 322.606 161.18 319.6 164.889 319.6C168.597 319.6 171.604 322.606 171.604 326.315Z" fill="#FDCA40"/>
<path d="M164.89 329.269C166.521 329.269 167.844 327.947 167.844 326.315C167.844 324.684 166.521 323.361 164.89 323.361C163.258 323.361 161.936 324.684 161.936 326.315C161.936 327.947 163.258 329.269 164.89 329.269Z" fill="#FEF1CD"/>
<defs>
<linearGradient id="paint0_linear_2463_26335" x1="309.728" y1="59.8959" x2="309.728" y2="9.89443" gradientUnits="userSpaceOnUse">
<stop offset="0.294" stop-color="#AEC2F5" stop-opacity="0.5"/>
<stop offset="1" stop-color="#AEC2F5"/>
</linearGradient>
<linearGradient id="paint1_linear_2463_26335" x1="94.4935" y1="47.2079" x2="94.4935" y2="0.122171" gradientUnits="userSpaceOnUse">
<stop offset="0.294" stop-color="#AEC2F5" stop-opacity="0.5"/>
<stop offset="1" stop-color="#AEC2F5"/>
</linearGradient>
<linearGradient id="paint2_linear_2463_26335" x1="36.9038" y1="110.961" x2="36.9038" y2="49.464" gradientUnits="userSpaceOnUse">
<stop offset="0.1131" stop-color="#1C36CC"/>
<stop offset="0.6591" stop-color="#2845E9"/>
<stop offset="1" stop-color="#304FFE"/>
</linearGradient>
<linearGradient id="paint3_linear_2463_26335" x1="194.97" y1="198.637" x2="111.173" y2="304.059" gradientUnits="userSpaceOnUse">
<stop stop-color="#CBD7F5"/>
<stop offset="0.706" stop-color="white"/>
</linearGradient>
<linearGradient id="paint4_linear_2463_26335" x1="293.225" y1="79.284" x2="334.255" y2="79.284" gradientUnits="userSpaceOnUse">
<stop stop-color="#CBD7F5"/>
<stop offset="1" stop-color="#EDF1FC"/>
</linearGradient>
<linearGradient id="paint5_linear_2463_26335" x1="293.225" y1="84.5213" x2="317.545" y2="84.5213" gradientUnits="userSpaceOnUse">
<stop stop-color="#CBD7F5"/>
<stop offset="1" stop-color="#EDF1FC"/>
</linearGradient>
<linearGradient id="paint6_linear_2463_26335" x1="293.225" y1="89.7575" x2="317.545" y2="89.7575" gradientUnits="userSpaceOnUse">
<stop stop-color="#CBD7F5"/>
<stop offset="1" stop-color="#EDF1FC"/>
</linearGradient>
<linearGradient id="paint7_linear_2463_26335" x1="264.355" y1="20.7858" x2="314.775" y2="20.7858" gradientUnits="userSpaceOnUse">
<stop stop-color="#CBD7F5"/>
<stop offset="1" stop-color="#EDF1FC"/>
</linearGradient>
<linearGradient id="paint8_linear_2463_26335" x1="264.355" y1="26.9477" x2="294.24" y2="26.9477" gradientUnits="userSpaceOnUse">
<stop stop-color="#CBD7F5"/>
<stop offset="1" stop-color="#EDF1FC"/>
</linearGradient>
<linearGradient id="paint9_linear_2463_26335" x1="264.355" y1="33.1097" x2="309.029" y2="33.1097" gradientUnits="userSpaceOnUse">
<stop stop-color="#CBD7F5"/>
<stop offset="1" stop-color="#EDF1FC"/>
</linearGradient>
<linearGradient id="paint10_linear_2463_26335" x1="264.355" y1="39.2715" x2="294.24" y2="39.2715" gradientUnits="userSpaceOnUse">
<stop stop-color="#CBD7F5"/>
<stop offset="1" stop-color="#EDF1FC"/>
</linearGradient>
<linearGradient id="paint11_linear_2463_26335" x1="293.225" y1="116.674" x2="334.255" y2="116.674" gradientUnits="userSpaceOnUse">
<stop stop-color="#CBD7F5"/>
<stop offset="1" stop-color="#EDF1FC"/>
</linearGradient>
<linearGradient id="paint12_linear_2463_26335" x1="293.225" y1="121.911" x2="317.545" y2="121.911" gradientUnits="userSpaceOnUse">
<stop stop-color="#CBD7F5"/>
<stop offset="1" stop-color="#EDF1FC"/>
</linearGradient>
<linearGradient id="paint13_linear_2463_26335" x1="293.225" y1="127.148" x2="317.545" y2="127.148" gradientUnits="userSpaceOnUse">
<stop stop-color="#CBD7F5"/>
<stop offset="1" stop-color="#EDF1FC"/>
</linearGradient>
<linearGradient id="paint14_linear_2463_26335" x1="288.319" y1="168.486" x2="345.892" y2="168.486" gradientUnits="userSpaceOnUse">
<stop offset="0.294" stop-color="#AEC2F5" stop-opacity="0.5"/>
<stop offset="1" stop-color="#AEC2F5"/>
</linearGradient>
<linearGradient id="paint15_linear_2463_26335" x1="283.697" y1="105.047" x2="267.314" y2="79.7341" gradientUnits="userSpaceOnUse">
<stop offset="0.0302" stop-color="#AEC2F5" stop-opacity="0.2"/>
<stop offset="1" stop-color="#AEC2F5"/>
</linearGradient>
<linearGradient id="paint16_linear_2463_26335" x1="281.582" y1="100.817" x2="265.199" y2="75.5035" gradientUnits="userSpaceOnUse">
<stop offset="0.0302" stop-color="#AEC2F5" stop-opacity="0.2"/>
<stop offset="1" stop-color="#AEC2F5"/>
</linearGradient>
<linearGradient id="paint17_linear_2463_26335" x1="263.033" y1="98.2459" x2="278.882" y2="70.7955" gradientUnits="userSpaceOnUse">
<stop offset="0.1131" stop-color="#1C36CC"/>
<stop offset="0.6591" stop-color="#2845E9"/>
<stop offset="1" stop-color="#304FFE"/>
</linearGradient>
<linearGradient id="paint18_linear_2463_26335" x1="342.586" y1="150.373" x2="326.203" y2="125.06" gradientUnits="userSpaceOnUse">
<stop offset="0.0302" stop-color="#AEC2F5" stop-opacity="0.2"/>
<stop offset="1" stop-color="#AEC2F5"/>
</linearGradient>
<linearGradient id="paint19_linear_2463_26335" x1="340.471" y1="146.142" x2="324.088" y2="120.829" gradientUnits="userSpaceOnUse">
<stop offset="0.0302" stop-color="#AEC2F5" stop-opacity="0.2"/>
<stop offset="1" stop-color="#AEC2F5"/>
</linearGradient>
<linearGradient id="paint20_linear_2463_26335" x1="321.922" y1="143.572" x2="337.771" y2="116.121" gradientUnits="userSpaceOnUse">
<stop offset="0.1131" stop-color="#1C36CC"/>
<stop offset="0.6591" stop-color="#2845E9"/>
<stop offset="1" stop-color="#304FFE"/>
</linearGradient>
<linearGradient id="paint21_linear_2463_26335" x1="296.192" y1="238.953" x2="279.808" y2="213.64" gradientUnits="userSpaceOnUse">
<stop offset="0.0302" stop-color="#AEC2F5" stop-opacity="0.2"/>
<stop offset="1" stop-color="#AEC2F5"/>
</linearGradient>
<linearGradient id="paint22_linear_2463_26335" x1="294.076" y1="234.723" x2="277.693" y2="209.41" gradientUnits="userSpaceOnUse">
<stop offset="0.0302" stop-color="#AEC2F5" stop-opacity="0.2"/>
<stop offset="1" stop-color="#AEC2F5"/>
</linearGradient>
<linearGradient id="paint23_linear_2463_26335" x1="283.452" y1="234.273" x2="283.452" y2="202.581" gradientUnits="userSpaceOnUse">
<stop offset="0.1131" stop-color="#1C36CC"/>
<stop offset="0.6591" stop-color="#2845E9"/>
<stop offset="1" stop-color="#304FFE"/>
</linearGradient>
<linearGradient id="paint24_linear_2463_26335" x1="262.586" y1="57.3728" x2="246.203" y2="32.0597" gradientUnits="userSpaceOnUse">
<stop offset="0.0302" stop-color="#AEC2F5" stop-opacity="0.2"/>
<stop offset="1" stop-color="#AEC2F5"/>
</linearGradient>
<linearGradient id="paint25_linear_2463_26335" x1="260.471" y1="53.1424" x2="244.087" y2="27.8293" gradientUnits="userSpaceOnUse">
<stop offset="0.0302" stop-color="#AEC2F5" stop-opacity="0.2"/>
<stop offset="1" stop-color="#AEC2F5"/>
</linearGradient>
<linearGradient id="paint26_linear_2463_26335" x1="249.846" y1="52.6923" x2="249.846" y2="21.0006" gradientUnits="userSpaceOnUse">
<stop offset="0.1131" stop-color="#1C36CC"/>
<stop offset="0.6591" stop-color="#2845E9"/>
<stop offset="1" stop-color="#304FFE"/>
</linearGradient>
<linearGradient id="paint27_linear_2463_26335" x1="346.867" y1="234.443" x2="346.867" y2="202.581" gradientUnits="userSpaceOnUse">
<stop stop-color="#AEC2F5" stop-opacity="0.5"/>
<stop offset="1" stop-color="#AEC2F5"/>
</linearGradient>
<linearGradient id="paint28_linear_2463_26335" x1="346.867" y1="228.053" x2="346.867" y2="208.971" gradientUnits="userSpaceOnUse">
<stop stop-color="#AEC2F5" stop-opacity="0.5"/>
<stop offset="1" stop-color="#AEC2F5"/>
</linearGradient>
<linearGradient id="paint29_linear_2463_26335" x1="346.867" y1="273.16" x2="346.867" y2="241.298" gradientUnits="userSpaceOnUse">
<stop stop-color="#AEC2F5" stop-opacity="0.5"/>
<stop offset="1" stop-color="#AEC2F5"/>
</linearGradient>
<linearGradient id="paint30_linear_2463_26335" x1="343.502" y1="266.77" x2="343.502" y2="252.088" gradientUnits="userSpaceOnUse">
<stop stop-color="#AEC2F5" stop-opacity="0.5"/>
<stop offset="1" stop-color="#AEC2F5"/>
</linearGradient>
</defs>
</svg>
