<svg width="70" height="70" viewBox="0 0 70 70" fill="none" xmlns="http://www.w3.org/2000/svg">
<path d="M4.6118 3.08203H49.293C51.1592 3.08203 52.6745 4.59715 52.6745 6.4635V59.553C52.6745 61.4192 51.1593 62.9345 49.293 62.9345H4.6118C2.74559 62.9345 1.23047 61.4194 1.23047 59.5532V6.4635C1.23047 4.59728 2.74559 3.08203 4.6118 3.08203Z" fill="#F3F3FF"/>
<path fill-rule="evenodd" clip-rule="evenodd" d="M4.61357 3.08203H49.2948C51.1546 3.08203 52.6762 4.60357 52.6762 6.46336V59.5529C52.6762 60.8324 51.9559 61.952 50.9007 62.526C51.161 62.0476 51.309 61.5003 51.309 60.9201V7.83068C51.309 5.9709 49.7874 4.44936 47.9276 4.44936H3.24639C2.66629 4.44936 2.119 4.59742 1.64062 4.85773C2.21457 3.80254 3.33402 3.08203 4.61357 3.08203Z" fill="#E6B17C"/>
<path fill-rule="evenodd" clip-rule="evenodd" d="M38.5473 23.3728C39.1513 23.3728 39.6411 23.8625 39.6411 24.4665C39.6411 25.0705 39.1513 25.5603 38.5473 25.5603H10.0156C9.4116 25.5603 8.92188 25.0705 8.92188 24.4665V10.6777C8.92188 10.0737 9.4116 9.58398 10.0156 9.58398C10.6196 9.58398 11.1094 10.0737 11.1094 10.6777V23.3728H38.5473Z" fill="#465759"/>
<path fill-rule="evenodd" clip-rule="evenodd" d="M14.8513 21.7383C14.4242 22.1654 13.7317 22.1654 13.3047 21.7383C12.8776 21.3112 12.8776 20.6187 13.3047 20.1918L18.2221 15.2744C18.6492 14.8473 19.3417 14.8473 19.7686 15.2744C19.7822 15.2879 19.7952 15.3016 19.8077 15.3156L23.4358 18.6414L35.2101 11.2847L33.5815 10.8398C33.0011 10.6818 32.6586 10.0829 32.8167 9.50256C32.9747 8.92219 33.5735 8.5797 34.1539 8.73775L38.1168 9.82015C38.4016 9.87744 38.663 10.0477 38.8286 10.3137C39.01 10.6053 39.0372 10.9493 38.9324 11.2502L37.8452 15.2171C37.6871 15.7975 37.0883 16.14 36.5079 15.9819C35.9274 15.8239 35.5851 15.2251 35.7431 14.6447L36.1128 13.2957L23.8897 20.9328L23.8881 20.9302C23.484 21.1819 22.9465 21.1459 22.5781 20.8088L19.0316 17.5579L14.8513 21.7383Z" fill="#FFDA2D"/>
<path fill-rule="evenodd" clip-rule="evenodd" d="M10.0156 32.2803H15.6946V37.9593H10.0156V32.2803ZM10.0156 44.0784H15.6946V49.7574H10.0156V44.0784Z" fill="#64B5F6"/>
<path fill-rule="evenodd" clip-rule="evenodd" d="M10.0156 44.0784H15.6946V49.7574H14.3275V45.4456H10.0156V44.0784ZM10.0156 32.2803H15.6946V37.9593H14.3275V33.6475H10.0156V32.2803Z" fill="#42A5F5"/>
<path fill-rule="evenodd" clip-rule="evenodd" d="M21.2969 50.3332C20.6929 50.3332 20.2031 49.8435 20.2031 49.2395C20.2031 48.6355 20.6929 48.1457 21.2969 48.1457H43.8922C44.4963 48.1457 44.986 48.6355 44.986 49.2395C44.986 49.8435 44.4963 50.3332 43.8922 50.3332H21.2969ZM21.2969 38.535C20.6929 38.535 20.2031 38.0452 20.2031 37.4412C20.2031 36.8372 20.6929 36.3475 21.2969 36.3475H43.8922C44.4963 36.3475 44.986 36.8372 44.986 37.4412C44.986 38.0452 44.4963 38.535 43.8922 38.535H21.2969ZM21.2969 33.8906C20.6929 33.8906 20.2031 33.4009 20.2031 32.7969C20.2031 32.1929 20.6929 31.7031 21.2969 31.7031H43.8922C44.4963 31.7031 44.986 32.1929 44.986 32.7969C44.986 33.4009 44.4963 33.8906 43.8922 33.8906H21.2969ZM21.2969 45.6888C20.6929 45.6888 20.2031 45.199 20.2031 44.595C20.2031 43.991 20.6929 43.5013 21.2969 43.5013H43.8922C44.4963 43.5013 44.986 43.991 44.986 44.595C44.986 45.199 44.4963 45.6888 43.8922 45.6888H21.2969Z" fill="#96A4AF"/>
<path d="M60.4947 56.2408C62.2603 48.7717 57.6367 41.2856 50.1676 39.52C42.6985 37.7544 35.2124 42.3781 33.4468 49.8471C31.6813 57.3162 36.3049 64.8024 43.774 66.5679C51.243 68.3335 58.7292 63.7099 60.4947 56.2408Z" fill="#602EDF"/>
<path fill-rule="evenodd" clip-rule="evenodd" d="M46.9735 39.1201C51.1595 39.1201 54.9133 40.9709 57.4614 43.8986C55.0205 41.774 51.8309 40.4873 48.3406 40.4873C40.6643 40.4873 34.4414 46.7102 34.4414 54.3865C34.4414 57.8767 35.7281 61.0662 37.8527 63.5072C34.925 60.959 33.0742 57.2054 33.0742 53.0194C33.0742 45.343 39.2971 39.1201 46.9735 39.1201Z" fill="#602EDF"/>
<path d="M50.2552 60.8792C54.601 59.0778 56.6637 54.0946 54.8623 49.7488C53.061 45.4031 48.0778 43.3404 43.732 45.1417C39.3862 46.9431 37.3236 51.9263 39.1249 56.272C40.9262 60.6178 45.9094 62.6805 50.2552 60.8792Z" fill="#EFF4F7"/>
<path fill-rule="evenodd" clip-rule="evenodd" d="M52.2699 46.3525C54.23 47.9128 55.4868 50.3189 55.4868 53.0188C55.4868 57.7221 51.6741 61.5347 46.9708 61.5347C44.2709 61.5347 41.8649 60.278 40.3047 58.3179C41.759 59.4755 43.6004 60.1676 45.6036 60.1676C50.3069 60.1676 54.1196 56.3549 54.1196 51.6516C54.1196 49.6483 53.4275 47.807 52.2699 46.3525Z" fill="#DEE8EE"/>
<path fill-rule="evenodd" clip-rule="evenodd" d="M46.9705 50.1855C48.5355 50.1855 49.8043 51.4543 49.8043 53.0193C49.8043 54.5843 48.5355 55.8531 46.9705 55.8531C45.4055 55.8531 44.1367 54.5843 44.1367 53.0193C44.1367 51.4543 45.4055 50.1855 46.9705 50.1855Z" fill="#FA541C"/>
<path fill-rule="evenodd" clip-rule="evenodd" d="M46.9699 50.1855C48.5349 50.1855 49.8037 51.4543 49.8037 53.0193C49.8037 54.1553 49.1353 55.1349 48.1703 55.5869C48.3411 55.2224 48.4365 54.8157 48.4365 54.3865C48.4365 52.8215 47.1678 51.5527 45.6027 51.5527C45.1736 51.5527 44.767 51.6483 44.4023 51.8189C44.8543 50.854 45.8339 50.1855 46.9699 50.1855Z" fill="#FA541C"/>
<path fill-rule="evenodd" clip-rule="evenodd" d="M57.9544 39.4366L58.1964 36.4512C58.2048 36.3452 58.246 36.2566 58.3213 36.1812L63.379 31.1232C63.5102 30.9921 63.7344 31.0761 63.747 31.2613L64.0492 35.7805L68.5681 36.0828C68.7532 36.095 68.8375 36.3193 68.7061 36.4504L63.6483 41.5086C63.5731 41.5837 63.4845 41.6243 63.3786 41.633L60.3928 41.8752L50.254 52.0139C49.5834 52.6844 48.4861 52.6845 47.8155 52.0139C47.1448 51.3433 47.1448 50.246 47.8155 49.5754L57.9541 39.4366H57.9544Z" fill="#FFDA2D"/>
<path fill-rule="evenodd" clip-rule="evenodd" d="M58.1059 37.5635L58.196 36.4512C58.2045 36.3452 58.2456 36.2566 58.321 36.1812L63.3786 31.1232C63.5099 30.9921 63.7341 31.0761 63.7467 31.2613L64.0488 35.7805L68.5678 36.0828C68.7529 36.095 68.8371 36.3193 68.7057 36.4504L67.4202 37.7361L63.5211 37.4754L63.2188 32.9562C63.2062 32.7711 62.982 32.687 62.8507 32.8181L58.1056 37.5636L58.1059 37.5635ZM47.3598 51.1981C47.2254 50.6338 47.3773 50.0136 47.8154 49.5754L57.5294 39.8613L57.4264 41.1314L47.3597 51.1981H47.3598Z" fill="#FFC700"/>
</svg>
