<svg width="504" height="342" viewBox="0 0 504 342" fill="none" xmlns="http://www.w3.org/2000/svg">
<path fill-rule="evenodd" clip-rule="evenodd" d="M287.211 1.94104C360.406 15.9785 424.285 56.2203 468.683 112.533C457.334 142.519 446.302 166.957 473.759 208.686C514.137 270.04 487.701 313.774 439.445 323.214C479.576 325.21 504 327.846 504 330.74C504 336.957 391.177 342.001 252 342.001C112.823 342.001 0 336.957 0 330.74C0 327.495 30.7075 324.573 79.8304 322.516C37.388 311.307 6.09509 272.663 6.09509 226.71C6.09509 156.321 50.0617 192.518 11.9907 88.0126C55.3893 43.6459 112.246 12.4821 175.973 1.16504C229.831 16.9149 258.728 10.941 287.209 1.94104H287.211Z" fill="#F2F9FF"/>
<path fill-rule="evenodd" clip-rule="evenodd" d="M229.554 93.2168C344.147 93.2168 437.045 186.088 437.045 300.642C437.045 313.589 435.846 326.253 433.578 338.545C387.732 340.674 323.333 342 251.998 342C152.096 342 65.7736 339.401 25.0095 335.638C24.4653 332.441 23.9947 329.22 23.6001 325.975C37.3081 324.666 56.4867 323.493 79.8285 322.516C56.2699 316.295 36.1481 301.615 22.9062 281.927C32.3752 176.143 121.269 93.2168 229.552 93.2168H229.554Z" fill="#F1F8FC"/>
<path fill-rule="evenodd" clip-rule="evenodd" d="M229.556 117.403C330.785 117.403 412.853 199.445 412.853 300.643C412.853 313.999 411.411 327.014 408.696 339.558C365.679 341.088 311.229 341.998 252.002 341.998C169.301 341.998 95.9058 340.217 49.9574 337.468C49.0618 333.083 48.3246 328.637 47.7479 324.142C57.2645 323.556 68.015 323.01 79.8322 322.514C67.5813 319.28 56.2606 313.757 46.3536 306.43C46.2929 304.507 46.2539 302.578 46.2539 300.643C46.2539 199.445 128.322 117.403 229.556 117.403Z" fill="#F1F8FC"/>
<path fill-rule="evenodd" clip-rule="evenodd" d="M41.9106 90.8926H137.238C138.387 90.8926 139.326 91.8333 139.326 92.9822V134.863C139.326 136.014 138.387 136.952 137.238 136.952H41.9106C40.7592 136.952 39.8203 136.014 39.8203 134.863V92.9822C39.8203 91.8333 40.7592 90.8926 41.9106 90.8926Z" fill="#D2E8F8"/>
<path fill-rule="evenodd" clip-rule="evenodd" d="M41.9106 90.8916H137.238C138.387 90.8916 139.326 91.8323 139.326 92.9812V134.862C139.326 136.013 138.387 136.951 137.238 136.951H41.9106C40.7592 136.951 39.8203 136.013 39.8203 134.862V92.9812C39.8203 91.8323 40.7592 90.8916 41.9106 90.8916Z" fill="#DEEDF9"/>
<path fill-rule="evenodd" clip-rule="evenodd" d="M41.9106 90.8916H137.238C138.387 90.8916 139.326 91.8323 139.326 92.9812V134.862C139.326 136.013 138.387 136.951 137.238 136.951H41.9106C40.7592 136.951 39.8203 136.013 39.8203 134.862V92.9812C39.8203 91.8323 40.7592 90.8916 41.9106 90.8916Z" fill="#E1F0FA"/>
<path fill-rule="evenodd" clip-rule="evenodd" d="M41.9106 90.8916H137.238C138.387 90.8916 139.326 91.8323 139.326 92.9812V134.862C139.326 136.013 138.387 136.951 137.238 136.951H41.9106C40.7592 136.951 39.8203 136.013 39.8203 134.862V92.9812C39.8203 91.8323 40.7592 90.8916 41.9106 90.8916Z" fill="#EAF3FB"/>
<path fill-rule="evenodd" clip-rule="evenodd" d="M39.8203 94.7068C41.2167 93.4236 42.6196 92.149 44.042 90.8896H137.24C138.389 90.8896 139.328 91.8304 139.328 92.9792V134.86C139.328 136.011 138.389 136.949 137.24 136.949H41.9127C40.7614 136.949 39.8225 136.011 39.8225 134.86V94.7047L39.8203 94.7068Z" fill="#F0F6FB"/>
<path fill-rule="evenodd" clip-rule="evenodd" d="M39.8203 129.031C52.7434 114.761 67.2515 101.957 83.0693 90.8916H137.238C138.387 90.8916 139.326 91.8323 139.326 92.9812V134.862C139.326 136.013 138.387 136.951 137.238 136.951H41.9106C40.7592 136.951 39.8203 136.013 39.8203 134.862V129.031Z" fill="white"/>
<path fill-rule="evenodd" clip-rule="evenodd" d="M65.6523 136.951C84.5469 118.046 106.687 102.391 131.174 90.8896H137.237C138.386 90.8896 139.325 91.8304 139.325 92.9792V134.86C139.325 136.011 138.386 136.949 137.237 136.949H65.6523V136.951Z" fill="#F7FBFD"/>
<path fill-rule="evenodd" clip-rule="evenodd" d="M102.125 136.951C113.621 127.995 126.08 120.215 139.327 113.808V134.862C139.327 136.013 138.388 136.951 137.238 136.951H102.125Z" fill="#F7FBFD"/>
<path fill-rule="evenodd" clip-rule="evenodd" d="M41.9106 90.8926H137.238C138.387 90.8926 139.326 91.8333 139.326 92.9822V134.863C139.326 136.014 138.387 136.952 137.238 136.952H41.9106C40.7592 136.952 39.8203 136.014 39.8203 134.863V92.9822C39.8203 91.8333 40.7592 90.8926 41.9106 90.8926Z" fill="#D2E8F8"/>
<path fill-rule="evenodd" clip-rule="evenodd" d="M41.9106 90.8916H137.238C138.387 90.8916 139.326 91.8323 139.326 92.9812V134.862C139.326 136.013 138.387 136.951 137.238 136.951H41.9106C40.7592 136.951 39.8203 136.013 39.8203 134.862V92.9812C39.8203 91.8323 40.7592 90.8916 41.9106 90.8916Z" fill="#DEEDF9"/>
<path fill-rule="evenodd" clip-rule="evenodd" d="M41.9106 90.8916H137.238C138.387 90.8916 139.326 91.8323 139.326 92.9812V134.862C139.326 136.013 138.387 136.951 137.238 136.951H41.9106C40.7592 136.951 39.8203 136.013 39.8203 134.862V92.9812C39.8203 91.8323 40.7592 90.8916 41.9106 90.8916Z" fill="#E1F0FA"/>
<path fill-rule="evenodd" clip-rule="evenodd" d="M41.9106 90.8916H137.238C138.387 90.8916 139.326 91.8323 139.326 92.9812V134.862C139.326 136.013 138.387 136.951 137.238 136.951H41.9106C40.7592 136.951 39.8203 136.013 39.8203 134.862V92.9812C39.8203 91.8323 40.7592 90.8916 41.9106 90.8916Z" fill="#EAF3FB"/>
<path fill-rule="evenodd" clip-rule="evenodd" d="M39.8203 94.7068C41.2167 93.4236 42.6196 92.149 44.042 90.8896H137.24C138.389 90.8896 139.328 91.8304 139.328 92.9792V134.86C139.328 136.011 138.389 136.949 137.24 136.949H41.9127C40.7614 136.949 39.8225 136.011 39.8225 134.86V94.7047L39.8203 94.7068Z" fill="#F0F6FB"/>
<path fill-rule="evenodd" clip-rule="evenodd" d="M39.8203 129.031C52.7434 114.761 67.2515 101.957 83.0693 90.8916H137.238C138.387 90.8916 139.326 91.8323 139.326 92.9812V134.862C139.326 136.013 138.387 136.951 137.238 136.951H41.9106C40.7592 136.951 39.8203 136.013 39.8203 134.862V129.031Z" fill="#F0F6FB"/>
<path fill-rule="evenodd" clip-rule="evenodd" d="M65.6523 136.951C84.5469 118.046 106.687 102.391 131.174 90.8896H137.237C138.386 90.8896 139.325 91.8304 139.325 92.9792V134.86C139.325 136.011 138.386 136.949 137.237 136.949H65.6523V136.951Z" fill="#F7FBFD"/>
<path fill-rule="evenodd" clip-rule="evenodd" d="M102.125 136.951C113.621 127.995 126.08 120.215 139.327 113.808V134.862C139.327 136.013 138.388 136.951 137.238 136.951H102.125Z" fill="#F7FBFD"/>
<path fill-rule="evenodd" clip-rule="evenodd" d="M121.773 90.8926C127.749 93.8384 133.608 96.9901 139.33 100.346V134.863C139.33 136.014 138.391 136.952 137.242 136.952H41.9145C40.7631 136.952 39.8242 136.014 39.8242 134.863V92.9822C39.8242 91.8333 40.7631 90.8926 41.9145 90.8926H121.775H121.773Z" fill="#D2E8F8"/>
<path fill-rule="evenodd" clip-rule="evenodd" d="M121.773 90.8916C127.749 93.8374 133.608 96.9891 139.33 100.345V134.862C139.33 136.013 138.391 136.951 137.242 136.951H41.9145C40.7631 136.951 39.8242 136.013 39.8242 134.862V92.9812C39.8242 91.8323 40.7631 90.8916 41.9145 90.8916H121.775H121.773Z" fill="#DEEDF9"/>
<path fill-rule="evenodd" clip-rule="evenodd" d="M121.773 90.8916C127.749 93.8374 133.608 96.9891 139.33 100.345V134.862C139.33 136.013 138.391 136.951 137.242 136.951H41.9145C40.7631 136.951 39.8242 136.013 39.8242 134.862V92.9812C39.8242 91.8323 40.7631 90.8916 41.9145 90.8916H121.775H121.773Z" fill="#E1F0FA"/>
<path fill-rule="evenodd" clip-rule="evenodd" d="M121.773 90.8916C127.749 93.8374 133.608 96.9891 139.33 100.345V134.862C139.33 136.013 138.391 136.951 137.242 136.951H41.9145C40.7631 136.951 39.8242 136.013 39.8242 134.862V92.9812C39.8242 91.8323 40.7631 90.8916 41.9145 90.8916H121.775H121.773Z" fill="#EAF3FB"/>
<path fill-rule="evenodd" clip-rule="evenodd" d="M39.8203 94.7068C41.2167 93.4214 42.6196 92.149 44.042 90.8896H121.771C127.747 93.8354 133.606 96.9872 139.328 100.343V134.86C139.328 136.011 138.389 136.949 137.24 136.949H41.9127C40.7614 136.949 39.8225 136.011 39.8225 134.86V94.7047L39.8203 94.7068Z" fill="#F0F6FB"/>
<path fill-rule="evenodd" clip-rule="evenodd" d="M39.8203 129.031C52.7434 114.761 67.2493 101.955 83.0693 90.8916H121.771C127.747 93.8374 133.606 96.9891 139.328 100.345V134.862C139.328 136.013 138.389 136.951 137.24 136.951H41.9127C40.7614 136.951 39.8225 136.013 39.8225 134.862V129.031H39.8203Z" fill="#F0F6FB"/>
<path fill-rule="evenodd" clip-rule="evenodd" d="M65.6523 136.952C83.3045 119.292 103.793 104.466 126.376 93.2158C130.762 95.481 135.084 97.8545 139.325 100.345V134.862C139.325 136.013 138.386 136.952 137.237 136.952H65.6523Z" fill="#F7FBFD"/>
<path fill-rule="evenodd" clip-rule="evenodd" d="M102.125 136.951C113.621 127.995 126.08 120.215 139.327 113.808V134.862C139.327 136.013 138.388 136.951 137.238 136.951H102.125Z" fill="#F7FBFD"/>
<path fill-rule="evenodd" clip-rule="evenodd" d="M63.4414 90.8926C90.7706 97.881 116.331 109.27 139.33 124.25V134.863C139.33 136.014 138.391 136.952 137.242 136.952H41.9145C40.7631 136.952 39.8242 136.014 39.8242 134.863V92.9822C39.8242 91.8333 40.7631 90.8926 41.9145 90.8926H63.4435H63.4414Z" fill="#D2E8F8"/>
<path fill-rule="evenodd" clip-rule="evenodd" d="M63.4414 90.8916C90.7706 97.88 116.331 109.269 139.33 124.249V134.862C139.33 136.013 138.391 136.951 137.242 136.951H41.9145C40.7631 136.951 39.8242 136.013 39.8242 134.862V92.9812C39.8242 91.8323 40.7631 90.8916 41.9145 90.8916H63.4435H63.4414Z" fill="#DEEDF9"/>
<path fill-rule="evenodd" clip-rule="evenodd" d="M63.4414 90.8916C90.7706 97.88 116.331 109.269 139.33 124.249V134.862C139.33 136.013 138.391 136.951 137.242 136.951H41.9145C40.7631 136.951 39.8242 136.013 39.8242 134.862V92.9812C39.8242 91.8323 40.7631 90.8916 41.9145 90.8916H63.4435H63.4414Z" fill="#E1F0FA"/>
<path fill-rule="evenodd" clip-rule="evenodd" d="M63.4414 90.8916C90.7706 97.88 116.331 109.269 139.33 124.249V134.862C139.33 136.013 138.391 136.951 137.242 136.951H41.9145C40.7631 136.951 39.8242 136.013 39.8242 134.862V92.9812C39.8242 91.8323 40.7631 90.8916 41.9145 90.8916H63.4435H63.4414Z" fill="#EAF3FB"/>
<path fill-rule="evenodd" clip-rule="evenodd" d="M39.8203 94.7068C41.2167 93.4214 42.6196 92.149 44.042 90.8896H63.4396C90.7689 97.878 116.329 109.267 139.328 124.247V134.86C139.328 136.011 138.389 136.949 137.24 136.949H41.9127C40.7614 136.949 39.8225 136.011 39.8225 134.86V94.7047L39.8203 94.7068Z" fill="#F0F6FB"/>
<path fill-rule="evenodd" clip-rule="evenodd" d="M39.8203 129.031C51.2082 116.463 63.8234 105.027 77.4815 94.917C99.5483 101.934 120.314 111.866 139.328 124.251V134.864C139.328 136.015 138.389 136.954 137.24 136.954H41.9127C40.7614 136.954 39.8225 136.015 39.8225 134.864V129.033L39.8203 129.031Z" fill="#F0F6FB"/>
<path fill-rule="evenodd" clip-rule="evenodd" d="M65.6523 136.952C77.5151 125.08 90.6615 114.487 104.864 105.404C116.872 110.815 128.39 117.125 139.325 124.25V134.862C139.325 136.013 138.386 136.952 137.237 136.952H65.6523Z" fill="#F7FBFD"/>
<path fill-rule="evenodd" clip-rule="evenodd" d="M102.125 136.952C110.926 130.095 120.291 123.929 130.146 118.542C133.249 120.38 136.31 122.283 139.327 124.249V134.862C139.327 136.013 138.388 136.952 137.238 136.952H102.125Z" fill="#F7FBFD"/>
<path fill-rule="evenodd" clip-rule="evenodd" d="M39.8203 106.617C69.203 111.642 96.7252 122.116 121.314 136.955H41.9106C40.7592 136.955 39.8203 136.017 39.8203 134.866V106.619V106.617Z" fill="#D2E8F8"/>
<path fill-rule="evenodd" clip-rule="evenodd" d="M39.8203 106.617C69.203 111.642 96.7252 122.116 121.314 136.955H41.9106C40.7592 136.955 39.8203 136.017 39.8203 134.866V106.619V106.617Z" fill="#DEEDF9"/>
<path fill-rule="evenodd" clip-rule="evenodd" d="M39.8203 106.617C69.203 111.642 96.7252 122.116 121.314 136.955H41.9106C40.7592 136.955 39.8203 136.017 39.8203 134.866V106.619V106.617Z" fill="#E1F0FA"/>
<path fill-rule="evenodd" clip-rule="evenodd" d="M39.8203 106.617C69.203 111.642 96.7252 122.116 121.314 136.955H41.9106C40.7592 136.955 39.8203 136.017 39.8203 134.866V106.619V106.617Z" fill="#EAF3FB"/>
<path fill-rule="evenodd" clip-rule="evenodd" d="M39.8203 106.617C69.203 111.642 96.7252 122.116 121.314 136.955H41.9106C40.7592 136.955 39.8203 136.017 39.8203 134.866V106.619V106.617Z" fill="#F0F6FB"/>
<path fill-rule="evenodd" clip-rule="evenodd" d="M39.8203 129.033C45.6747 122.567 51.8566 116.4 58.3354 110.562C80.7969 116.302 101.964 125.278 121.314 136.953H41.9106C40.7592 136.953 39.8203 136.015 39.8203 134.864V129.033Z" fill="#F0F6FB"/>
<path fill-rule="evenodd" clip-rule="evenodd" d="M65.6523 136.953C71.9036 130.697 78.506 124.795 85.4381 119.28C97.9514 124.166 109.946 130.095 121.313 136.953H65.6523Z" fill="#F7FBFD"/>
<path fill-rule="evenodd" clip-rule="evenodd" d="M102.125 136.953C104.848 134.831 107.624 132.774 110.451 130.786C114.133 132.752 117.754 134.803 121.314 136.953H102.125Z" fill="#F7FBFD"/>
<path fill-rule="evenodd" clip-rule="evenodd" d="M39.8203 127.292C51.8175 129.548 63.4657 132.798 74.6714 136.955H41.9106C40.7592 136.955 39.8203 136.017 39.8203 134.866V127.294V127.292Z" fill="#D2E8F8"/>
<path fill-rule="evenodd" clip-rule="evenodd" d="M39.8203 127.292C51.8175 129.548 63.4657 132.798 74.6714 136.955H41.9106C40.7592 136.955 39.8203 136.017 39.8203 134.866V127.294V127.292Z" fill="#DEEDF9"/>
<path fill-rule="evenodd" clip-rule="evenodd" d="M39.8203 127.292C51.8175 129.548 63.4657 132.798 74.6714 136.955H41.9106C40.7592 136.955 39.8203 136.017 39.8203 134.866V127.294V127.292Z" fill="#E1F0FA"/>
<path fill-rule="evenodd" clip-rule="evenodd" d="M39.8203 127.292C51.8175 129.548 63.4657 132.798 74.6714 136.955H41.9106C40.7592 136.955 39.8203 136.017 39.8203 134.866V127.294V127.292Z" fill="#EAF3FB"/>
<path fill-rule="evenodd" clip-rule="evenodd" d="M39.8203 127.292C51.8175 129.548 63.4657 132.798 74.6714 136.955H41.9106C40.7592 136.955 39.8203 136.017 39.8203 134.866V127.294V127.292Z" fill="#F0F6FB"/>
<path fill-rule="evenodd" clip-rule="evenodd" d="M39.8203 129.032L41.1668 127.552C52.6892 129.795 63.8863 132.953 74.6714 136.953H41.9106C40.7592 136.953 39.8203 136.014 39.8203 134.863V129.032Z" fill="#F0F6FB"/>
<path fill-rule="evenodd" clip-rule="evenodd" d="M65.6523 136.953C66.4373 136.164 67.2222 135.381 68.0158 134.609C70.2513 135.353 72.4673 136.135 74.6681 136.953H65.6523Z" fill="#F7FBFD"/>
<path fill-rule="evenodd" clip-rule="evenodd" d="M279.596 5.96875H393.001C394.367 5.96875 395.486 7.08723 395.486 8.455V58.2776C395.486 59.6475 394.367 60.7638 393.001 60.7638H279.596C278.226 60.7638 277.109 59.6454 277.109 58.2776V8.455C277.109 7.08506 278.226 5.96875 279.596 5.96875Z" fill="#BCDDF4"/>
<path fill-rule="evenodd" clip-rule="evenodd" d="M279.596 5.96875H393.001C394.367 5.96875 395.486 7.08723 395.486 8.455V58.2776C395.486 59.6475 394.367 60.7638 393.001 60.7638H279.596C278.226 60.7638 277.109 59.6454 277.109 58.2776V8.455C277.109 7.08506 278.226 5.96875 279.596 5.96875Z" fill="#CEE5F6"/>
<path fill-rule="evenodd" clip-rule="evenodd" d="M374.602 5.96875C381.712 9.47378 388.681 13.2259 395.49 17.2165V58.2776C395.49 59.6475 394.371 60.7638 393.005 60.7638H279.6C278.23 60.7638 277.113 59.6454 277.113 58.2776V8.455C277.113 7.08506 278.23 5.96875 279.6 5.96875H374.602Z" fill="#D2E7F7"/>
<path fill-rule="evenodd" clip-rule="evenodd" d="M305.21 5.96875C337.717 14.2859 368.126 27.8313 395.49 45.6534V58.2776C395.49 59.6475 394.371 60.7638 393.005 60.7638H279.6C278.23 60.7638 277.113 59.6454 277.113 58.2776V8.455C277.113 7.08506 278.23 5.96875 279.6 5.96875H305.212H305.21Z" fill="#DEEBF8"/>
<path fill-rule="evenodd" clip-rule="evenodd" d="M277.109 24.6729C312.065 30.6533 344.804 43.1127 374.058 60.7658H279.596C278.226 60.7658 277.109 59.6473 277.109 58.2795V24.675V24.6729Z" fill="#E7F2FB"/>
<path fill-rule="evenodd" clip-rule="evenodd" d="M277.109 49.2686C291.381 51.9542 305.239 55.8191 318.572 60.7656H279.596C278.226 60.7656 277.109 59.6471 277.109 58.2793V49.2707V49.2686Z" fill="#E7F2FB"/>
<path opacity="0.3" fill-rule="evenodd" clip-rule="evenodd" d="M8.35095 202.692C82.2011 221.674 249.976 232.442 309.493 225.95C343.889 222.194 411.371 208.477 469.143 201.196C470.546 203.633 472.073 206.123 473.757 208.683C491.362 235.429 496.264 258.829 492.194 277.496H108.487L19.6586 276.759C11.0396 262.069 6.09375 244.967 6.09375 226.707C6.09375 216.825 6.96541 209.056 8.35095 202.69V202.692Z" fill="#C1DFF4"/>
<path fill-rule="evenodd" clip-rule="evenodd" d="M493.425 260.805C291.246 233.513 131.937 236.203 15.4922 268.878C27.0796 293.478 48.4959 312.533 74.676 320.998C253.184 315.986 382.796 313.871 463.5 314.662C482.961 303.887 494.841 285.232 493.425 260.805Z" fill="#D2E5F6"/>
<path fill-rule="evenodd" clip-rule="evenodd" d="M118.965 274.219C93.8456 274.219 73.4766 253.86 73.4766 228.744C73.4766 204.983 91.7098 185.479 114.954 183.448C117.122 162.799 133.109 146.264 153.504 143.26C153.229 141.24 153.086 139.181 153.086 137.087C153.086 111.973 173.45 91.6123 198.575 91.6123C220.771 91.6123 239.256 107.51 243.257 128.538C245.828 128.085 248.474 127.85 251.171 127.85C270.658 127.85 287.282 140.102 293.759 157.324C299.784 154.373 306.556 152.72 313.72 152.72C335.98 152.72 354.504 168.701 358.435 189.814C365.3 185.663 373.348 183.272 381.954 183.272C407.078 183.272 427.443 203.632 427.443 228.746C427.443 253.86 407.078 274.221 381.954 274.221H118.965V274.219Z" fill="#73ACDD"/>
<path opacity="0.4" fill-rule="evenodd" clip-rule="evenodd" d="M86.0275 260.107C82.8466 254.077 81.0469 247.21 81.0469 239.922C81.0469 217.262 98.4345 198.666 120.599 196.728C122.665 177.038 137.911 161.268 157.36 158.405C157.1 156.478 156.961 154.514 156.961 152.518C156.961 128.568 176.381 109.152 200.338 109.152C221.505 109.152 239.129 124.315 242.945 144.363C245.395 143.932 247.917 143.706 250.493 143.706C269.073 143.706 284.924 155.392 291.101 171.809C296.845 169.002 303.306 167.422 310.137 167.422C331.362 167.422 349.025 182.665 352.776 202.8C359.318 198.837 366.996 196.559 375.203 196.559C399.158 196.559 418.58 215.974 418.58 239.922C418.58 248.354 416.169 256.223 412.003 262.882C403.989 269.937 393.473 274.22 381.953 274.22H118.964C106.006 274.22 94.3125 268.804 86.0275 260.109V260.107Z" fill="#E5E5E5"/>
<path fill-rule="evenodd" clip-rule="evenodd" d="M278.051 170.405C275.213 212.216 265.146 258.553 219.056 270.542L217.911 270.839L216.767 270.542C170.677 258.553 160.61 212.216 157.769 170.405L157.496 166.375L161.466 165.63C180.686 162.029 198.312 154.829 216.014 146.702L217.911 145.833L219.809 146.702C237.511 154.829 255.137 162.029 274.357 165.63L278.327 166.375L278.051 170.405Z" fill="#AFE4B5"/>
<path fill-rule="evenodd" clip-rule="evenodd" d="M273.517 169.945C254.523 166.386 237.582 159.708 217.911 150.682C198.24 159.71 181.297 166.386 162.305 169.945C166.182 227.053 183.123 256.945 217.911 265.992C252.699 256.942 269.64 227.051 273.517 169.945Z" fill="#602EDF"/>
<path fill-rule="evenodd" clip-rule="evenodd" d="M264.686 176.548C248.421 172.742 233.185 166.681 217.911 159.788C202.638 166.683 187.403 172.742 171.137 176.548C173.424 201.948 179.617 233.355 200.491 248.89C205.764 252.813 211.649 255.551 217.911 257.394C224.173 255.549 230.058 252.813 235.331 248.89C256.206 233.355 262.401 201.948 264.686 176.548Z" fill="white"/>
<path fill-rule="evenodd" clip-rule="evenodd" d="M264.685 176.548C248.42 172.742 233.184 166.681 217.91 159.788V257.394C224.172 255.549 230.057 252.813 235.33 248.888C256.205 233.355 262.399 201.95 264.685 176.548Z" fill="white"/>
<path fill-rule="evenodd" clip-rule="evenodd" d="M207.2 198.116H228.623V189.706C228.623 186.764 227.415 184.087 225.473 182.145C223.53 180.205 220.854 178.998 217.909 178.998C214.965 178.998 212.289 180.205 210.346 182.145C208.404 184.087 207.196 186.762 207.196 189.706V198.116H207.2ZM233.693 198.116V198.192C236.219 198.625 238.155 200.836 238.155 203.483V228.319C238.155 231.272 235.739 233.686 232.788 233.686H203.031C200.08 233.686 197.664 231.272 197.664 228.319V203.483C197.664 200.836 199.603 198.625 202.129 198.192V189.706C202.129 185.366 203.904 181.421 206.762 178.562C209.622 175.703 213.569 173.93 217.909 173.93C222.25 173.93 226.199 175.703 229.057 178.562C231.915 181.421 233.69 185.366 233.69 189.706V198.116H233.693Z" fill="#602EDF"/>
<path fill-rule="evenodd" clip-rule="evenodd" d="M217.911 205.759C221.073 205.759 223.634 208.319 223.634 211.479C223.634 214.048 221.942 216.22 219.613 216.942V223.854C219.613 224.788 218.848 225.553 217.914 225.553C216.979 225.553 216.214 224.788 216.214 223.854V216.942C213.883 216.218 212.191 214.048 212.191 211.479C212.191 208.319 214.754 205.759 217.914 205.759H217.911Z" fill="white"/>
<path fill-rule="evenodd" clip-rule="evenodd" d="M388.232 65.792H411.036H433.837L445.238 85.5324L456.641 105.275L445.238 125.016L433.837 144.758H411.036H388.232L376.831 125.016L365.43 105.275L376.831 85.5324L388.232 65.792Z" fill="#8058E5"/>
<path fill-rule="evenodd" clip-rule="evenodd" d="M390.478 69.6768H411.038H431.597L441.875 87.4772L452.155 105.275L441.875 123.074L431.597 140.872H411.038H390.478L380.2 123.074L369.918 105.275L380.2 87.4772L390.478 69.6768Z" fill="#FAE0DA"/>
<path fill-rule="evenodd" clip-rule="evenodd" d="M450.689 107.809L441.877 123.073L431.597 140.871L411.037 140.869L390.477 140.871L380.199 123.073L369.945 105.316L378.757 90.0514L389.037 72.251L409.599 72.2531L430.157 72.251L440.435 90.0492L450.689 107.809Z" fill="white"/>
<path fill-rule="evenodd" clip-rule="evenodd" d="M386.671 89.4932H435.397C436.586 89.4932 437.555 90.4642 437.555 91.6521V118.899C437.555 120.087 436.586 121.058 435.397 121.058H386.671C385.483 121.058 384.512 120.087 384.512 118.899V91.6521C384.512 90.4642 385.483 89.4932 386.671 89.4932Z" fill="#CFC0F5"/>
<path fill-rule="evenodd" clip-rule="evenodd" d="M412.477 103.96L428.338 114.295L437.208 120.074C436.822 120.666 436.154 121.058 435.4 121.058H386.674C385.919 121.058 385.251 120.666 384.863 120.074L393.734 114.295L409.582 103.967C410.751 103.191 411.321 103.217 412.477 103.96Z" fill="#EFEAFC"/>
<path fill-rule="evenodd" clip-rule="evenodd" d="M412.478 107.342L428.339 97.0063L437.474 91.0541C437.214 90.1545 436.379 89.4912 435.399 89.4912H386.673C385.69 89.4912 384.858 90.1545 384.598 91.0541L393.733 97.0063L409.581 107.335C410.75 108.111 411.32 108.085 412.476 107.342H412.478Z" fill="#EFEAFC"/>
<path fill-rule="evenodd" clip-rule="evenodd" d="M81.2597 247.004L75.3555 260.686L80.7914 263.031L86.6979 249.349L81.2597 247.004Z" fill="#F6BCA5"/>
<path fill-rule="evenodd" clip-rule="evenodd" d="M125.327 153.549C99.7167 142.505 70.0001 154.306 58.9527 179.908C48.9806 203.012 57.6256 229.459 78.2332 242.517L78.0792 242.872C77.4548 244.318 78.1269 246.016 79.5754 246.642L88.9771 250.695C90.4256 251.32 92.1212 250.648 92.7456 249.2L92.8996 248.844C116.541 254.87 141.717 243.009 151.689 219.904C162.736 194.303 150.932 164.598 125.324 153.552L125.327 153.549ZM122.534 160.022C144.566 169.527 154.722 195.085 145.216 217.113C135.711 239.14 110.142 249.291 88.1076 239.788C66.0755 230.285 55.9192 204.725 65.425 182.7C74.9309 160.672 100.499 150.519 122.534 160.02V160.022Z" fill="#A082EC"/>
<path fill-rule="evenodd" clip-rule="evenodd" d="M83.5545 256.626L78.1164 254.283C77.2816 253.921 76.2994 254.311 75.9373 255.15L70.5534 267.624L70.5447 267.644L58.9161 294.594V294.598L55.6919 302.063L44.0611 329.016C43.699 329.854 44.0893 330.834 44.9262 331.196L50.3643 333.541C51.2035 333.903 52.1857 333.515 52.5457 332.677L57.9317 320.198L57.9382 320.18L69.569 293.228L72.7911 285.765L84.4219 258.811C84.784 257.972 84.3937 256.992 83.5545 256.63V256.626Z" fill="#8058E5"/>
<path fill-rule="evenodd" clip-rule="evenodd" d="M65.4239 182.7C55.9202 204.725 66.0744 230.286 88.1108 239.788C110.143 249.291 135.712 239.138 145.217 217.113C154.723 195.086 144.567 169.525 122.535 160.022C100.5 150.522 74.9319 160.673 65.426 182.702L65.4239 182.7Z" fill="white"/>
<path fill-rule="evenodd" clip-rule="evenodd" d="M137.162 229.474L117.431 158.188C116.175 157.822 114.913 157.516 113.647 157.267L134.385 232.201C135.347 231.34 136.275 230.43 137.16 229.474H137.162ZM118.376 241.333C111.869 243.384 104.859 243.921 97.9158 242.714L76.957 166.984C82.2325 162.452 88.5119 159.263 95.2163 157.655L118.376 241.333ZM131.858 234.306C129.794 235.895 127.598 237.288 125.299 238.478L102.623 156.545C105.195 156.384 107.797 156.449 110.397 156.757L131.858 234.306Z" fill="#F0F6FB"/>
<path fill-rule="evenodd" clip-rule="evenodd" d="M90.1537 172.625L80.7476 181.868L97.257 198.662L80.457 215.167L89.7027 224.572L106.503 208.065L123.012 224.858L132.418 215.615L115.909 198.823L132.709 182.319L123.463 172.913L106.665 189.417L90.1537 172.625Z" fill="#CFC0F5"/>
<path fill-rule="evenodd" clip-rule="evenodd" d="M352.438 22.623V25.0897H320.689V22.623H352.438ZM292.289 48.656H305.076V51.1227H292.289V48.656ZM363.247 48.656V51.1227H309.226V48.656H363.247ZM292.289 44.3186H316.537V46.7854H292.289V44.3186ZM335.941 44.3186V46.7854H320.689V44.3186H335.941ZM381.157 46.7854H340.213V44.3186H381.157V46.7854ZM292.289 39.9812H305.076V42.4501H292.289V39.9812ZM352.438 39.9812V42.4501H309.226V39.9812H352.438ZM381.157 42.448H356.705V39.979H381.157V42.448ZM292.289 35.6416H348.285V38.1062H292.289V35.6416ZM370.068 38.1084H352.438V35.6438H370.068V38.1084ZM348.171 31.3021V33.7688H309.228V31.3021H348.171ZM381.157 33.771H352.438V31.3043H381.157V33.771ZM292.289 16.7812H307.849V19.248H292.289V16.7812ZM292.289 26.9647H305.076V29.4336H292.289V26.9647ZM322.459 26.9647V29.4336H309.228V26.9647H322.459ZM366.352 19.248H311.919V16.7812H366.352V19.248ZM381.157 29.4314H326.724V26.9625H381.157V29.4314ZM292.289 22.623H316.537V25.0897H292.289V22.623Z" fill="#CFC0F5"/>
<path fill-rule="evenodd" clip-rule="evenodd" d="M105.285 102.594V105.06H73.5371V102.594H105.285ZM45.1367 128.627H57.9232V131.093H45.1367V128.627ZM116.094 128.627V131.093H62.0733V128.627H116.094ZM45.1367 124.289H69.3848V126.756H45.1367V124.289ZM88.789 124.289V126.756H73.5371V124.289H88.789ZM134.005 126.756H93.0605V124.289H134.005V126.756ZM45.1367 119.952H57.9232V122.421H45.1367V119.952ZM105.285 119.952V122.421H62.0733V119.952H105.285ZM134.005 122.419H109.553V119.95H134.005V122.419ZM45.1367 115.612H101.133V118.077H45.1367V115.612ZM122.916 118.079H105.285V115.615H122.916V118.079ZM101.018 111.273V113.74H62.0755V111.273H101.018ZM134.005 113.742H105.285V111.275H134.005V113.742ZM45.1367 96.752H60.6965V99.2187H45.1367V96.752ZM45.1367 106.935H57.9232V109.404H45.1367V106.935ZM75.3065 106.935V109.404H62.0755V106.935H75.3065ZM119.199 99.2187H64.7663V96.752H119.199V99.2187ZM134.005 109.402H79.5715V106.933H134.005V109.402ZM45.1367 102.594H69.3848V105.06H45.1367V102.594Z" fill="#CFC0F5"/>
<path fill-rule="evenodd" clip-rule="evenodd" d="M199.939 29.3906C203.653 29.3906 206.667 30.8993 206.667 32.7591C206.667 34.6189 203.656 36.1276 199.939 36.1276C196.223 36.1276 193.211 34.6189 193.211 32.7591C193.211 30.8993 196.223 29.3906 199.939 29.3906Z" fill="white"/>
<path fill-rule="evenodd" clip-rule="evenodd" d="M255.382 148.726C249.376 148.626 244.887 148.555 242.814 147.902C240.579 147.196 241.041 145.832 242.327 143.652C247.986 146.253 246.477 143.116 249.126 143.515C250.985 145.011 253.741 146.014 257.388 146.524C258.929 147.66 258.305 148.674 255.384 148.726H255.382Z" fill="#09378C"/>
<path fill-rule="evenodd" clip-rule="evenodd" d="M247.669 57.2656H210.569C209.836 57.2656 209.082 57.8639 208.891 58.5944L202.291 83.7213C202.1 84.454 202.54 85.0501 203.271 85.0501H240.37C241.101 85.0501 241.858 84.454 242.049 83.7213L248.649 58.5944C248.84 57.8639 248.4 57.2656 247.669 57.2656Z" fill="#A5CDED"/>
<path fill-rule="evenodd" clip-rule="evenodd" d="M208.099 57.992L203.615 75.0489C198.233 72.4239 191.752 68.2122 184.95 62.8084C184.768 60.3763 184.541 58.4363 184.274 56.9884C184.818 55.9067 185.417 54.7514 186.067 53.5202C179.792 53.4812 175.965 52.1307 174.586 49.4732C176.266 44.5636 178.612 39.5499 181.624 34.4322C183.734 31.3151 187.901 29.8412 194.051 29.2949C196.549 37.081 208.739 36.4069 204.407 29.6612C208.995 30.8925 212.88 33.1684 216.068 36.4871C218.811 43.2392 220.48 47.9494 221.083 50.6242C218.106 52.7073 215.287 54.0577 212.624 54.669C212.503 55.2543 212.405 55.9197 212.338 56.6632H209.775C209.045 56.6632 208.29 57.2593 208.099 57.992Z" fill="#5D9CD4"/>
<path fill-rule="evenodd" clip-rule="evenodd" d="M203.619 75.0488L208.101 57.9918C208.292 57.2592 209.047 56.6631 209.777 56.6631H246.879C247.61 56.6631 248.913 57.606 248.694 58.33C248.729 57.7274 248.31 57.2678 247.671 57.2678H210.571C209.838 57.2678 209.084 57.8661 208.893 58.5966L202.292 83.7236C202.177 84.1636 202.29 84.5538 202.555 84.7965C201.943 84.402 201.36 83.6412 201.497 83.121L203.619 75.0509V75.0488Z" fill="#498AC9"/>
<path fill-rule="evenodd" clip-rule="evenodd" d="M203.272 85.0499H240.371C240.508 85.0499 240.644 85.0304 240.779 84.9935C240.042 86.9053 238.036 86.6236 237.251 86.6171H193.263C190.88 86.5152 190.943 84.8461 190.91 83.2334H201.478C201.442 83.7471 201.986 84.4278 202.554 84.7941C202.732 84.9567 202.979 85.0499 203.269 85.0499H203.272Z" fill="#498AC9"/>
<path fill-rule="evenodd" clip-rule="evenodd" d="M208.461 67.5986C228.891 77.9295 228.852 67.1348 243.013 72.6752L240.253 83.1794H204.367L208.459 67.5986H208.461Z" fill="#498AC9"/>
<path fill-rule="evenodd" clip-rule="evenodd" d="M183.164 78.9289C183.903 76.6746 184.435 74.3357 184.762 71.9102C189.758 73.8458 195.471 75.71 202.694 78.5604L201.718 82.2757C190.803 82.6333 184.617 81.517 183.164 78.9289Z" fill="#87B7E2"/>
<path fill-rule="evenodd" clip-rule="evenodd" d="M202.693 78.5608C195.471 75.7104 189.757 73.844 184.761 71.9105C180.358 70.2068 176.511 68.4489 172.68 65.9149C172.84 61.0226 173.569 56.2907 175.592 50.8066C177.452 52.5863 180.943 53.4902 186.067 53.5227C184.584 56.3232 183.376 58.7401 182.441 60.769C190.148 67.157 197.576 72.1056 203.619 75.0492L202.695 78.5608H202.693Z" fill="#F4AE7C"/>
<path fill-rule="evenodd" clip-rule="evenodd" d="M220.12 51.2725C220.675 53.2146 221.191 55.0116 221.666 56.6611H212.336C212.405 55.9177 212.501 55.2522 212.622 54.6669C214.994 54.1185 217.496 52.9892 220.12 51.2725Z" fill="#F4AE7C"/>
<path fill-rule="evenodd" clip-rule="evenodd" d="M242.775 141.673C237.257 121.666 235.284 107.613 236.856 99.5131C233.718 99.9575 230.57 100.098 227.406 99.9336C227.888 97.7682 228.371 95.5984 228.863 93.4004C228.809 90.4178 227.283 88.2047 221.875 86.6158H237.253C237.775 86.6201 238.842 86.7459 239.714 86.2646C244.666 87.6801 247.084 90.0146 247.914 92.8672C248.517 100.718 246.886 109.655 248.276 141.734C246.544 141.914 244.709 141.894 242.777 141.673H242.775Z" fill="#3156A4"/>
<path fill-rule="evenodd" clip-rule="evenodd" d="M237.012 86.6158H237.252C237.775 86.6201 238.842 86.7459 239.713 86.2646C244.666 87.6801 247.083 90.0146 247.914 92.8672C248.517 100.718 246.886 109.655 248.276 141.734C247.244 141.84 246.173 141.877 245.067 141.84C242.218 130.692 235.435 103.337 243.074 91.5493C241.283 89.6483 239.262 88.0031 237.012 86.6158Z" fill="#3E62AC"/>
<path fill-rule="evenodd" clip-rule="evenodd" d="M188.486 98.3772C182.014 96.0535 181.133 89.6092 183.983 79.8701C186.322 81.782 192.235 82.584 201.724 82.2762L201.5 83.1194C201.492 83.1584 201.485 83.1952 201.485 83.2342H190.917C190.947 84.8448 190.886 86.516 193.269 86.6179H221.88C227.288 88.2068 228.814 90.4199 228.869 93.4025C225.447 108.697 222.401 122.72 218.25 142.098C216.852 142.883 214.939 142.822 212.511 141.918C210.564 123.125 211.099 109.458 214.111 100.918C206.108 100.948 197.567 99.8577 188.493 98.3772H188.486Z" fill="#3E62AC"/>
<path fill-rule="evenodd" clip-rule="evenodd" d="M188.486 98.3772C182.014 96.0535 181.133 89.6092 183.983 79.8701C184.479 80.2755 185.138 80.6331 185.958 80.9409C183.599 90.9466 186.166 96.4307 193.772 96.9552C202.647 98.271 210.004 98.9039 215.846 98.8541C213.272 115.538 212.83 130.087 214.521 142.497C213.896 142.378 213.224 142.182 212.507 141.918C210.559 123.125 211.095 109.458 214.107 100.918C206.104 100.948 197.563 99.8577 188.488 98.3772H188.486Z" fill="#3156A4"/>
<path fill-rule="evenodd" clip-rule="evenodd" d="M247.695 141.785C247.855 142.388 248.118 142.956 248.48 143.487C246.75 143.649 247.417 145.878 242.738 143.832C242.938 143.242 243.048 142.533 243.074 141.705C244.685 141.87 246.225 141.896 247.697 141.785H247.695Z" fill="#F4AE7C"/>
<path fill-rule="evenodd" clip-rule="evenodd" d="M218.228 152.235C215.041 150.921 214.562 148.78 212.81 147.961C211.045 147.137 210.843 145.669 212.569 144.076C213.846 145.093 215.427 146.346 216.264 145.682C216.821 145.238 218.72 145.271 219.096 145.914C220.748 149.753 223.044 148.537 223.499 150.284C223.551 152.61 220.236 153.063 218.228 152.235Z" fill="#09378C"/>
<path fill-rule="evenodd" clip-rule="evenodd" d="M217.685 142.356C217.657 143.375 217.797 144.4 218.103 145.43C217.42 145.323 216.598 145.419 216.262 145.683C215.486 146.299 214.07 145.269 212.852 144.305C213.051 143.754 213.185 143.043 213.253 142.174C215.035 142.733 216.512 142.792 217.685 142.356Z" fill="#F4AE7C"/>
<path fill-rule="evenodd" clip-rule="evenodd" d="M186.067 53.5202C186.891 52.031 187.763 50.0281 188.682 47.5094C188.188 50.4422 188.214 52.5534 187.416 54.9638C188.06 58.3756 188.329 61.8547 188.262 65.364C187.171 64.5447 186.065 63.6928 184.955 62.8084C184.771 60.3763 184.545 58.4363 184.274 56.9884C184.818 55.9067 185.417 54.7514 186.067 53.5202ZM214.544 54.1076C213.893 54.3352 213.256 54.5216 212.625 54.6668C212.863 50.9342 213.019 47.8497 213.095 45.4111C213.813 49.0115 214.297 51.9096 214.544 54.1076ZM183.164 78.9289C183.903 76.6746 184.435 74.3358 184.762 71.9102C185.686 72.2679 186.638 72.6234 187.618 72.9832C187.225 75.6385 186.662 78.296 185.95 80.9383C184.552 80.4138 183.624 79.7461 183.164 78.9289Z" fill="#498AC9"/>
<path fill-rule="evenodd" clip-rule="evenodd" d="M207.274 22.749C200.207 25.309 195.671 25.5561 193.672 23.4903C191.638 23.0178 190.311 21.2165 189.695 18.0843C187.59 13.3134 189.392 5.69639 192.349 9.46804C194.797 3.20797 204.616 6.83873 210.153 3.36621C213.514 5.562 212.237 10.9875 209.822 12.8213C209.915 19.0641 209.572 22.3979 207.274 22.7468V22.749Z" fill="#09378C"/>
<path fill-rule="evenodd" clip-rule="evenodd" d="M190.751 10.1511C191.514 9.56155 191.761 8.91777 191.49 8.22196C190.317 7.56301 189.2 7.54133 188.145 8.15694C188.786 8.19595 189.656 8.85708 190.751 10.1511Z" fill="#09378C"/>
<path fill-rule="evenodd" clip-rule="evenodd" d="M192.21 8.50736C191.666 9.11646 191.169 9.24869 190.714 8.90837C190.434 7.76387 190.599 6.75593 191.211 5.88672C191.135 6.47197 191.466 7.34552 192.21 8.50736Z" fill="#09378C"/>
<path fill-rule="evenodd" clip-rule="evenodd" d="M195.951 11.1244C194.619 10.5977 193.611 10.7733 192.926 11.6511C192.98 13.6453 194.019 17.6598 195.606 18.5398C195.881 18.3447 195.818 14.1222 195.951 11.1244Z" fill="#09378C"/>
<path fill-rule="evenodd" clip-rule="evenodd" d="M196.449 9.19434C194.198 10.2868 193.457 11.2731 194.22 12.1488C197.618 12.6517 200.87 12.2832 203.979 11.0498C202.106 11.2254 199.597 10.6076 196.451 9.19434H196.449Z" fill="#09378C"/>
<path fill-rule="evenodd" clip-rule="evenodd" d="M209.661 12.561C207.113 9.99022 202.304 9.67808 195.677 12.0993C191.486 11.0589 190.543 9.12317 192.314 5.97363C194.816 1.52135 200.233 5.03939 206.866 0.851562C206.614 4.10732 216.486 6.89704 209.661 12.5632V12.561Z" fill="#09378C"/>
<path fill-rule="evenodd" clip-rule="evenodd" d="M193.729 14.7508C195.485 14.3758 195.318 17.9827 195.186 19.7731C194.925 23.2933 190.957 15.3382 193.729 14.7508Z" fill="#F4AE7C"/>
<path fill-rule="evenodd" clip-rule="evenodd" d="M191.617 29.5425C192.589 29.6119 194.178 29.2781 194.451 28.9312C195.485 27.6198 196.203 26.2456 196.47 25.3807C196.268 24.8063 196.056 24.078 195.835 23.2001C192.081 20.6531 191.569 18.7695 194.297 17.5448C194.846 17.8547 195.529 18.802 196.342 20.3908C196.992 20.3648 197.487 20.031 197.823 19.3916C197.047 16.7102 196.544 14.5318 196.309 12.8584C198.157 10.112 202.483 9.71968 208.207 10.4588C208.474 11.9848 208.69 13.5975 208.862 15.2991C209.575 15.9559 211.648 26.9327 204.614 27.3792C204.568 28.1834 204.642 29.1675 204.696 29.2802C204.777 29.4536 205.067 29.6205 205.47 29.7636C205.581 33.5027 200.928 33.5244 191.622 29.5382L191.617 29.5425Z" fill="#F4AE7C"/>
<path fill-rule="evenodd" clip-rule="evenodd" d="M208.205 10.4647C202.481 9.72341 198.157 10.1157 196.308 12.8621C196.542 14.5355 197.045 16.714 197.821 19.3975C197.485 20.0347 196.993 20.3664 196.34 20.3946C195.525 18.8035 194.844 17.8563 194.296 17.5485C191.568 18.7732 192.08 20.6569 195.833 23.2038C196.054 24.0817 196.267 24.81 196.468 25.3844C193.094 24.6279 190.269 21.6128 189.87 20.3035C185.932 12.5478 190.325 9.27037 192.674 8.07385C193.71 0.391824 204.87 7.1808 210.462 3.47852C212.685 6.54786 209.938 10.3975 208.205 10.4669V10.4647Z" fill="#09378C"/>
<path fill-rule="evenodd" clip-rule="evenodd" d="M200.852 26.5938C201.767 27.0468 203.018 27.3091 204.611 27.3849C204.581 27.9247 204.605 28.5468 204.637 28.9283C203.037 28.6183 201.773 27.8423 200.852 26.5938Z" fill="#ED7D5B"/>
<path fill-rule="evenodd" clip-rule="evenodd" d="M207.39 8.57031C208.255 9.23577 208.533 9.96409 208.227 10.7509C206.9 11.4966 205.64 11.5204 204.445 10.8225C205.172 10.7813 206.152 10.0313 207.39 8.57031Z" fill="#09378C"/>
<path fill-rule="evenodd" clip-rule="evenodd" d="M191.098 29.588C196.005 31.8293 200.122 33.0908 202.449 33.0301C203.218 33.0106 203.865 32.8654 204.379 32.5988C204.929 32.3148 205.333 31.8943 205.584 31.3416C205.799 30.8712 205.901 30.4897 205.883 29.8351L204.901 29.4991C204.912 29.9998 204.817 30.5959 204.667 30.9254C204.513 31.2636 204.261 31.5237 203.917 31.7036C203.537 31.9008 203.038 32.0049 202.425 32.0222C200.25 32.0764 197.609 31.4673 192.843 29.291L191.098 29.588Z" fill="#498AC9"/>
<path fill-rule="evenodd" clip-rule="evenodd" d="M205.057 34.3547C205.333 34.398 205.591 34.2116 205.634 33.9363C205.677 33.6632 205.491 33.4052 205.216 33.3597C204.253 33.208 203.238 33.1451 202.176 33.169C201.111 33.1928 199.999 33.3055 198.843 33.505C198.568 33.5505 198.383 33.8106 198.429 34.0859C198.476 34.3612 198.739 34.5454 199.01 34.4977C200.127 34.307 201.189 34.1986 202.195 34.1769C203.201 34.1552 204.155 34.2116 205.057 34.3568V34.3547Z" fill="#498AC9"/>
<path fill-rule="evenodd" clip-rule="evenodd" d="M204.242 35.4663C204.516 35.5227 204.785 35.3493 204.841 35.0783C204.899 34.8052 204.726 34.5386 204.453 34.48C203.72 34.324 202.946 34.2568 202.135 34.2828C201.326 34.3066 200.483 34.4215 199.607 34.6231C199.336 34.6838 199.166 34.9569 199.227 35.2257C199.288 35.4945 199.561 35.6679 199.83 35.6072C200.647 35.4186 201.426 35.3124 202.161 35.2907C202.892 35.2669 203.585 35.3254 204.242 35.4663Z" fill="#498AC9"/>
<path fill-rule="evenodd" clip-rule="evenodd" d="M201.179 14.2304C200.715 14.2087 200.325 14.5686 200.306 15.0303C200.284 15.4941 200.644 15.8865 201.106 15.906C201.57 15.9277 201.962 15.57 201.982 15.104C202.003 14.6423 201.643 14.2499 201.179 14.2304Z" fill="#BAD9F2"/>
<path fill-rule="evenodd" clip-rule="evenodd" d="M201.108 15.906C200.646 15.8865 200.286 15.4942 200.305 15.0303C200.327 14.5686 200.72 14.2088 201.181 14.2283C201.374 14.2391 201.552 14.3128 201.689 14.4299L201.626 14.419C201.474 14.4125 201.348 14.5296 201.34 14.6792C201.333 14.8287 201.45 14.9566 201.6 14.9631C201.75 14.9696 201.875 14.8526 201.884 14.7052V14.6748C201.953 14.8005 201.99 14.9523 201.984 15.1083C201.962 15.5722 201.57 15.932 201.106 15.9104L201.108 15.906Z" fill="#0053A1"/>
<path fill-rule="evenodd" clip-rule="evenodd" d="M202.068 13.6238C202.088 13.6411 202.105 13.6498 202.122 13.6693C202.096 13.5934 202.001 13.498 201.962 13.4373C201.997 13.4633 202.023 13.4742 202.059 13.5219C202.094 13.5609 202.118 13.6064 202.144 13.6563C202.144 13.5956 202.12 13.5609 202.114 13.5067C202.142 13.5457 202.168 13.6216 202.174 13.6671C202.164 13.5002 202.155 13.5089 202.083 13.3528C202.157 13.3983 202.218 13.5479 202.233 13.6346C202.25 13.5956 202.248 13.5479 202.244 13.5002C202.278 13.5544 202.278 13.5847 202.281 13.6411L202.324 13.5761C202.315 13.6151 202.307 13.6259 202.302 13.6584C202.382 13.5912 202.517 13.3658 202.497 13.2553C202.487 13.3029 202.456 13.394 202.432 13.4243C202.437 13.3441 202.461 13.2531 202.443 13.1599C202.422 13.2206 202.432 13.2986 202.422 13.3636C202.406 13.4308 202.387 13.5045 202.356 13.5479C202.374 13.4113 202.406 13.2964 202.361 13.149L202.356 13.1881C202.359 13.2596 202.367 13.3376 202.356 13.407C202.33 13.2813 202.335 13.162 202.224 13.0732C202.252 13.123 202.276 13.1555 202.298 13.2141C202.237 13.1599 202.211 13.0537 202.116 13.0493C202.161 13.0949 202.2 13.123 202.248 13.1881C202.285 13.2423 202.339 13.329 202.322 13.3962C202.248 13.1686 202.109 13.0537 201.951 13.0212C201.994 13.0428 202.133 13.1317 202.146 13.1859V13.1967C202.142 13.2618 202.135 13.1425 202.144 13.2119C202.174 13.2336 202.213 13.2834 202.237 13.3181C202.248 13.342 202.263 13.3723 202.272 13.4005C202.276 13.4113 202.285 13.4352 202.287 13.4482C202.289 13.4634 202.289 13.4612 202.289 13.472V13.4894C202.235 13.3355 202.177 13.2553 202.068 13.1729C202.001 13.1252 201.845 13.0428 201.758 13.0342C201.76 13.0342 201.762 13.0363 201.765 13.0363L201.838 13.0667C202.018 13.1469 202.194 13.2466 202.257 13.4612C202.246 13.4547 202.255 13.4655 202.239 13.446C202.235 13.4417 202.235 13.4395 202.231 13.433C202.19 13.3723 202.146 13.3073 202.092 13.2531C202.033 13.1989 201.962 13.1447 201.901 13.1144C201.821 13.0753 201.561 12.993 201.435 13.0168C201.474 13.0125 201.715 13.071 201.756 13.084C201.847 13.1165 201.964 13.1621 202.033 13.2466C201.997 13.2379 201.958 13.2141 201.921 13.1989C201.695 13.1122 201.303 12.9843 201.073 13.0125C201.216 13.0342 201.422 13.0862 201.533 13.1425L201.444 13.1274C201.47 13.136 201.489 13.1512 201.517 13.1599C201.543 13.1707 201.563 13.1794 201.589 13.1902C201.712 13.2531 201.901 13.3615 201.973 13.4872C201.942 13.459 201.897 13.4308 201.858 13.4027C201.817 13.3723 201.782 13.3485 201.739 13.3181C201.66 13.2704 201.574 13.2141 201.487 13.1794C201.305 13.1057 201.131 13.0428 200.932 13.0103C200.96 13.0212 200.988 13.0277 201.012 13.0537C200.85 13.0558 200.578 12.941 200.173 12.9431C200.26 12.9691 200.405 12.9735 200.503 12.9951L200.596 13.0255C200.544 13.0277 200.366 12.9951 200.294 12.9843C199.945 12.9366 199.726 12.9041 199.353 12.9301C199.111 12.9453 198.889 12.9583 198.651 13.0732C198.501 13.1469 198.356 13.2357 198.235 13.3485C198.191 13.3896 198.169 13.4178 198.137 13.4547C198.23 13.4005 198.434 13.1772 198.644 13.1187C198.326 13.329 198.076 13.5132 197.862 13.782C197.922 13.7386 198.005 13.6498 198.07 13.5934C198.143 13.5284 198.219 13.4698 198.297 13.4135C198.438 13.3094 198.664 13.162 198.848 13.1057C198.807 13.1447 198.694 13.2054 198.64 13.2423C198.25 13.4959 197.875 13.782 197.536 14.0985C197.495 14.1375 197.417 14.2307 197.387 14.2545C197.426 14.2394 197.569 14.1093 197.617 14.0725C197.868 13.8774 198.107 13.6974 198.423 13.5869C198.343 13.6563 197.775 13.9229 197.601 14.1028L198.085 13.8232C198.235 13.7451 198.484 13.6172 198.649 13.5869C198.462 13.6346 197.74 14.0118 197.599 14.1483C197.675 14.118 197.786 14.0443 197.87 14.0031C197.966 13.9554 198.061 13.9099 198.163 13.8665C198.367 13.7777 198.584 13.7018 198.8 13.6584C199.095 13.5999 199.377 13.5891 199.666 13.5999C199.75 13.6042 199.863 13.6151 199.939 13.6107C199.891 13.5869 199.75 13.5847 199.696 13.5804C199.529 13.5652 199.36 13.5631 199.191 13.5717C199.124 13.5717 198.987 13.5977 198.933 13.5934C199.132 13.5305 199.288 13.5414 199.46 13.5089C199.442 13.5089 199.453 13.5089 199.438 13.5067C199.421 13.5024 199.429 13.5045 199.416 13.498C199.522 13.4807 199.731 13.5067 199.83 13.5262C199.947 13.5479 200.186 13.6238 200.199 13.6259C200.171 13.6064 200.14 13.5956 200.119 13.5717L200.405 13.6216L200.049 13.5132C200.119 13.5154 200.214 13.55 200.284 13.5609C200.37 13.5782 200.542 13.6086 200.62 13.6346C200.713 13.6649 200.884 13.6779 200.977 13.6758C200.943 13.6563 200.828 13.6302 200.778 13.6151L200.585 13.5609C200.548 13.55 200.518 13.5414 200.487 13.5305C200.396 13.4872 200.303 13.4612 200.21 13.4308C200.039 13.3745 199.553 13.2596 199.382 13.3181C199.605 13.2314 200.075 13.3485 200.242 13.4048L200.633 13.5414C200.665 13.5479 200.691 13.5631 200.728 13.5761C200.821 13.6064 200.919 13.6433 201.019 13.6649L201.01 13.6454C201.01 13.6454 201.01 13.6454 201.01 13.6411C201.01 13.6411 201.008 13.6368 201.01 13.6346C201.042 13.6541 201.144 13.6888 201.19 13.6888C201.095 13.6086 200.863 13.55 200.776 13.4417C200.856 13.4633 200.954 13.5284 201.027 13.5696C201.053 13.5869 201.082 13.5934 201.108 13.6086C201.04 13.5024 200.912 13.42 200.808 13.3528L200.693 13.2921C200.787 13.2943 200.902 13.3766 200.975 13.433C201.049 13.4894 201.114 13.5631 201.179 13.6324C201.188 13.6411 201.183 13.6411 201.194 13.6476C201.205 13.6606 201.199 13.6519 201.212 13.6584L201.118 13.5154C201.136 13.5436 201.259 13.6563 201.268 13.6974C201.251 13.6216 201.199 13.5631 201.162 13.5024L201.218 13.5392C201.123 13.3962 200.908 13.3029 200.771 13.2162C200.904 13.2227 201.147 13.3918 201.238 13.5067C201.281 13.5609 201.311 13.6324 201.355 13.6758L201.307 13.5631L201.311 13.5652L201.379 13.6368C201.32 13.4915 201.244 13.4178 201.153 13.3311C201.192 13.3376 201.222 13.3615 201.253 13.3896C201.281 13.4135 201.314 13.4438 201.34 13.4764C201.389 13.5436 201.437 13.6172 201.476 13.7018C201.476 13.6649 201.452 13.6042 201.435 13.5631C201.461 13.5674 201.439 13.5587 201.463 13.5761C201.504 13.5999 201.535 13.6563 201.559 13.6931L201.539 13.6042L201.604 13.6909C201.587 13.6086 201.559 13.5652 201.535 13.5002C201.585 13.5305 201.611 13.5934 201.641 13.6541C201.645 13.6259 201.632 13.5826 201.619 13.55L201.691 13.6172C201.71 13.6389 201.73 13.6671 201.745 13.6888C201.723 13.6129 201.684 13.5739 201.65 13.5175C201.725 13.5609 201.756 13.6303 201.812 13.7018C201.793 13.6129 201.721 13.4872 201.667 13.433C201.749 13.4417 201.81 13.6519 201.851 13.6909L201.843 13.5999C201.843 13.5999 201.845 13.6021 201.858 13.6151L201.912 13.7018L201.901 13.5869C201.931 13.6172 201.94 13.6563 201.966 13.6996C201.964 13.6953 201.962 13.6042 201.94 13.5522C201.957 13.5587 201.944 13.5501 201.964 13.5674C202.003 13.5977 202.018 13.6476 202.053 13.6801L202.012 13.5891C202.023 13.5934 202.016 13.5912 202.027 13.5999L202.072 13.6324L202.068 13.6238Z" fill="#0053A1"/>
<path fill-rule="evenodd" clip-rule="evenodd" d="M206.937 13.7039C207.401 13.7256 207.761 14.1157 207.74 14.5796C207.72 15.0413 207.328 15.4011 206.866 15.3816C206.402 15.3599 206.042 14.9676 206.063 14.5059C206.083 14.0442 206.475 13.6844 206.937 13.7039Z" fill="#BAD9F2"/>
<path fill-rule="evenodd" clip-rule="evenodd" d="M206.868 15.3841C207.33 15.4036 207.722 15.0438 207.744 14.5821C207.763 14.1182 207.403 13.7259 206.939 13.7064C206.744 13.6955 206.564 13.754 206.417 13.8603L206.482 13.8559C206.634 13.8646 206.748 13.9903 206.742 14.142C206.735 14.2894 206.608 14.4065 206.458 14.4C206.306 14.3956 206.191 14.2656 206.198 14.116L206.202 14.0857C206.12 14.2071 206.07 14.3523 206.063 14.5105C206.044 14.9722 206.404 15.3646 206.868 15.3863V15.3841Z" fill="#0053A1"/>
<path fill-rule="evenodd" clip-rule="evenodd" d="M205.35 13.535C205.334 13.5523 205.321 13.5632 205.308 13.5827C205.324 13.5068 205.402 13.3984 205.432 13.3356C205.402 13.3659 205.382 13.3789 205.352 13.4288C205.326 13.4721 205.308 13.5176 205.289 13.5718C205.285 13.5111 205.3 13.4721 205.304 13.4201C205.28 13.4613 205.265 13.5393 205.265 13.5848C205.261 13.4158 205.265 13.4266 205.319 13.264C205.256 13.3161 205.215 13.4721 205.211 13.5588C205.191 13.5263 205.189 13.4786 205.187 13.4288C205.163 13.4873 205.165 13.5176 205.167 13.574L205.124 13.5133C205.135 13.5523 205.144 13.561 205.15 13.5913C205.074 13.5306 204.931 13.3226 204.942 13.2098C204.957 13.2575 204.992 13.3442 205.016 13.3702C205.001 13.29 204.972 13.2033 204.981 13.1101C205.005 13.1687 205.003 13.2489 205.02 13.3117C205.037 13.3768 205.063 13.4483 205.092 13.4851C205.066 13.3507 205.024 13.2402 205.053 13.0906L205.061 13.1253C205.066 13.1968 205.061 13.2749 205.081 13.3399C205.092 13.2142 205.079 13.095 205.17 12.9974C205.148 13.0494 205.128 13.0841 205.115 13.147C205.163 13.0841 205.181 12.9779 205.265 12.9606C205.228 13.0104 205.196 13.0473 205.159 13.1166C205.131 13.1708 205.089 13.2662 205.113 13.3291C205.157 13.095 205.272 12.9671 205.41 12.915C205.371 12.9411 205.256 13.0473 205.248 13.1015V13.1101C205.259 13.173 205.254 13.0559 205.252 13.1253C205.226 13.1492 205.198 13.2012 205.18 13.2424C205.17 13.2662 205.159 13.2966 205.154 13.3269C205.15 13.3399 205.146 13.3659 205.146 13.3767C205.146 13.3919 205.146 13.3876 205.148 13.4006V13.4158C205.183 13.2597 205.228 13.1708 205.317 13.0798C205.371 13.0234 205.504 12.9237 205.582 12.9086C205.582 12.9107 205.579 12.9107 205.577 12.9129L205.514 12.9519C205.36 13.0516 205.213 13.1665 205.174 13.3898C205.183 13.3811 205.174 13.3919 205.185 13.3702C205.185 13.3702 205.188 13.3652 205.193 13.3551C205.224 13.29 205.259 13.2185 205.3 13.1643C205.347 13.1015 205.408 13.0408 205.46 13.0061C205.53 12.9562 205.753 12.8479 205.868 12.8544C205.831 12.8544 205.623 12.9389 205.588 12.9584C205.51 12.9996 205.408 13.0559 205.354 13.147C205.386 13.1361 205.421 13.1058 205.452 13.0906C205.645 12.9801 205.983 12.8132 206.191 12.8132C206.063 12.8522 205.885 12.9237 205.79 12.9909L205.866 12.9692C205.846 12.9801 205.827 12.9952 205.805 13.0104C205.781 13.0256 205.764 13.0343 205.742 13.0494C205.638 13.1253 205.48 13.2532 205.426 13.3854C205.452 13.3551 205.488 13.3182 205.519 13.2879C205.551 13.2532 205.584 13.225 205.618 13.1947C205.684 13.1383 205.757 13.0733 205.831 13.0299C205.985 12.9346 206.135 12.8543 206.31 12.8023C206.286 12.8132 206.262 12.8262 206.243 12.8522C206.386 12.837 206.618 12.6939 206.98 12.6528C206.906 12.6896 206.776 12.707 206.687 12.7416L206.607 12.7828C206.655 12.7807 206.811 12.7243 206.874 12.7091C207.18 12.6246 207.373 12.5704 207.709 12.5531C207.923 12.5444 208.125 12.5314 208.346 12.6203C208.489 12.6809 208.624 12.7525 208.741 12.85C208.784 12.8869 208.806 12.9129 208.838 12.9454C208.75 12.902 208.548 12.6983 208.357 12.6658C208.658 12.8413 208.897 12.9996 209.114 13.2402C209.055 13.2055 208.975 13.1253 208.91 13.0754C208.838 13.0213 208.767 12.9692 208.691 12.9194C208.557 12.8305 208.342 12.7113 208.175 12.6723C208.214 12.7048 208.318 12.7568 208.372 12.785C208.743 12.9953 209.103 13.2402 209.433 13.5198C209.472 13.5545 209.55 13.6369 209.578 13.6564C209.543 13.6455 209.407 13.5307 209.357 13.5003C209.116 13.3334 208.888 13.1817 208.596 13.1058C208.676 13.1665 209.205 13.3703 209.374 13.5307L208.916 13.303C208.778 13.2402 208.544 13.1426 208.394 13.1275C208.565 13.1556 209.242 13.4548 209.378 13.5718C209.307 13.5502 209.203 13.4916 209.127 13.4569C209.034 13.4179 208.945 13.3854 208.851 13.3529C208.663 13.2879 208.461 13.2337 208.266 13.2142C207.999 13.1903 207.746 13.2098 207.49 13.2532C207.416 13.2662 207.318 13.2922 207.249 13.2944C207.29 13.264 207.416 13.2467 207.462 13.238C207.611 13.2033 207.759 13.1838 207.908 13.173C207.971 13.1687 208.093 13.1773 208.142 13.1687C207.96 13.1275 207.819 13.1535 207.663 13.1426C207.678 13.1405 207.672 13.1426 207.683 13.1361C207.7 13.1275 207.691 13.134 207.702 13.1253C207.607 13.121 207.425 13.1687 207.336 13.1968C207.232 13.2315 207.024 13.3334 207.015 13.3377C207.039 13.3139 207.063 13.2987 207.082 13.2749L206.831 13.3551L207.136 13.2098C207.076 13.2228 206.993 13.264 206.932 13.2835C206.859 13.3074 206.705 13.3572 206.638 13.3919C206.557 13.4331 206.406 13.4635 206.321 13.47C206.349 13.4483 206.451 13.4114 206.497 13.3919L206.661 13.316C206.692 13.2987 206.722 13.29 206.748 13.2727C206.824 13.2229 206.906 13.1838 206.989 13.1426C207.134 13.0689 207.559 12.902 207.717 12.9432C207.511 12.8804 207.102 13.0494 206.958 13.121L206.622 13.2965C206.592 13.3096 206.57 13.3247 206.538 13.3399C206.458 13.3833 206.373 13.4288 206.288 13.4613L206.293 13.4396V13.4353C206.293 13.4353 206.295 13.4288 206.293 13.4288C206.265 13.4504 206.178 13.496 206.137 13.5003C206.215 13.4093 206.416 13.3291 206.484 13.2142C206.414 13.2424 206.332 13.3182 206.269 13.3681C206.247 13.3876 206.223 13.3963 206.202 13.4158C206.254 13.303 206.362 13.2055 206.447 13.1296L206.544 13.0559C206.46 13.0668 206.364 13.1622 206.306 13.2272C206.245 13.2922 206.193 13.3681 206.143 13.4461C206.137 13.457 206.137 13.4548 206.132 13.4635C206.122 13.4786 206.128 13.4721 206.115 13.4743L206.187 13.3204C206.176 13.3507 206.074 13.4765 206.069 13.5155C206.08 13.4374 206.124 13.3746 206.15 13.3117L206.102 13.3529C206.174 13.199 206.358 13.0841 206.471 12.9844C206.356 13.0061 206.152 13.1968 206.08 13.3226C206.046 13.3833 206.024 13.4548 205.991 13.5025L206.024 13.3854C206.024 13.3854 206.02 13.3876 206.02 13.3898L205.965 13.4656C206.004 13.3139 206.065 13.2337 206.139 13.1361C206.106 13.147 206.08 13.1752 206.052 13.2055C206.028 13.2315 206.004 13.2662 205.985 13.3009C205.944 13.3724 205.909 13.4526 205.881 13.5393C205.877 13.5046 205.892 13.4374 205.905 13.3963C205.881 13.4071 205.905 13.3963 205.881 13.4114C205.846 13.4396 205.827 13.5003 205.805 13.5393L205.818 13.4505L205.768 13.5415C205.777 13.4613 205.796 13.4158 205.811 13.3464C205.768 13.3832 205.751 13.4439 205.733 13.509C205.725 13.4808 205.733 13.4374 205.742 13.4006L205.681 13.4743C205.666 13.4981 205.653 13.5285 205.638 13.5545C205.653 13.4743 205.684 13.4331 205.71 13.3724C205.645 13.4223 205.625 13.496 205.579 13.574C205.588 13.483 205.642 13.3486 205.686 13.2922C205.614 13.3095 205.579 13.522 205.547 13.5675V13.4765C205.547 13.4765 205.543 13.4786 205.532 13.4938L205.491 13.587V13.47C205.465 13.5025 205.462 13.5415 205.443 13.5892C205.445 13.5827 205.439 13.4916 205.454 13.4396C205.439 13.4461 205.452 13.4374 205.434 13.4569C205.404 13.4895 205.393 13.5437 205.365 13.5783L205.393 13.483C205.393 13.483 205.389 13.4851 205.378 13.4938L205.339 13.5328L205.35 13.535Z" fill="#0053A1"/>
<path fill-rule="evenodd" clip-rule="evenodd" d="M204.319 15.4337C204.258 15.3817 204.254 15.2906 204.304 15.2299C204.356 15.1692 204.449 15.1627 204.51 15.2148C204.655 15.3448 204.993 16.0666 205.312 16.8405C205.687 17.753 206.045 18.7566 206.038 18.9257C206.004 19.7602 205.379 19.8231 204.959 19.8643C204.844 19.8751 204.748 19.886 204.724 19.9033C204.662 19.951 204.57 19.9402 204.523 19.8751C204.475 19.8144 204.486 19.7212 204.551 19.6735C204.638 19.6085 204.772 19.5955 204.93 19.5782C205.251 19.5478 205.726 19.498 205.752 18.9127C205.757 18.7805 205.41 17.8332 205.045 16.951C204.742 16.214 204.43 15.5312 204.319 15.4337Z" fill="#F09171"/>
<path fill-rule="evenodd" clip-rule="evenodd" d="M207.191 21.6914C205.428 22.4739 206.003 22.5628 203.86 22.4371C203.108 22.3894 202.221 22.32 203.056 22.7882C205.166 23.9739 207.247 23.3583 207.278 21.7564L207.189 21.6914H207.191Z" fill="white"/>
<path fill-rule="evenodd" clip-rule="evenodd" d="M341.706 148.892C341.071 148.105 340.537 147.054 340.102 145.743C340.331 145.04 340.568 144.156 340.813 143.087C345.286 139.905 345.858 137.612 342.528 136.205C341.871 136.593 341.071 137.759 340.125 139.701C339.338 139.686 340.08 137.634 339.659 136.871C340.527 133.604 339.731 132.618 339.974 130.589C337.662 127.311 332.064 126.436 325.155 127.478C324.57 133.845 322.606 148.862 330.303 148.376L330.362 149.215C330.776 151.812 330.776 154.586 331.433 156.839L331.738 157.413C334.232 155.963 337.623 153.158 341.71 148.894L341.706 148.892Z" fill="#F4AE7C"/>
<path fill-rule="evenodd" clip-rule="evenodd" d="M325.513 127.996C332.419 126.949 337.662 127.311 339.974 130.588C339.733 132.619 340.297 133.859 339.43 137.124C339.85 137.887 339.338 139.688 340.126 139.703C341.071 137.759 341.871 136.593 342.528 136.207C345.859 137.613 345.286 139.907 340.813 143.089C340.568 144.155 340.334 145.042 340.102 145.744C347.962 141.129 351.403 129.947 344.239 124.701C342.788 115.432 329.462 123.94 322.597 119.601C319.989 123.374 323.412 127.959 325.511 127.998L325.513 127.996Z" fill="#09378C"/>
<path fill-rule="evenodd" clip-rule="evenodd" d="M335.522 147.726C334.256 148.077 331.76 148.419 330.296 148.374L330.242 149.293C330.322 149.798 330.299 150.455 330.416 150.955C330.431 150.951 330.678 150.713 330.693 150.708C332.955 149.917 334.564 148.924 335.522 147.726Z" fill="#ED7D5B"/>
<path fill-rule="evenodd" clip-rule="evenodd" d="M344.985 127.887C344.33 126.951 344.28 126.136 344.835 125.44C346.398 125.113 347.669 125.485 348.645 126.561C347.905 126.374 346.683 126.816 344.983 127.887H344.985Z" fill="#09378C"/>
<path fill-rule="evenodd" clip-rule="evenodd" d="M343.367 124.987C344.013 125.707 344.605 125.867 345.145 125.466C345.475 124.107 345.282 122.91 344.558 121.881C344.649 122.572 344.252 123.608 343.367 124.987Z" fill="#09378C"/>
<path fill-rule="evenodd" clip-rule="evenodd" d="M330.376 127.5C330.32 125.495 329.537 124.294 328.03 123.897C325.485 125.064 324.086 126.913 323.828 129.447C324.678 128.413 326.859 127.764 330.376 127.5Z" fill="#09378C"/>
<path fill-rule="evenodd" clip-rule="evenodd" d="M334.991 120.438C334.685 121.292 335.084 122.408 333.876 122.666C333.076 126.342 330.173 121.383 330.231 120.011C330.747 120.397 332.332 120.54 334.991 120.438Z" fill="#09378C"/>
<path fill-rule="evenodd" clip-rule="evenodd" d="M277.539 184.671C276.999 184.489 275.193 184.066 273.081 183.359C270.915 184.239 268.063 183.979 264.522 182.577C263.174 180.437 263.052 178.265 264.154 176.054C266.947 177.383 269.399 177.895 271.509 177.591C268.887 175.866 268.482 174.841 270.29 174.518C270.466 174.925 270.839 175.259 271.416 175.523C273.237 175.818 274.542 177.049 275.329 179.221C276.301 179.486 277.305 179.724 277.823 179.887C277.294 181.14 277.192 182.642 277.543 184.671H277.539Z" fill="#F4AE7C"/>
<path fill-rule="evenodd" clip-rule="evenodd" d="M321.453 168.507C323.513 173.069 325.829 177.216 328.4 180.942C327.644 169.577 327.258 160.001 327.247 152.215C326.093 152.859 325.235 153.479 324.602 154.151C324.48 154.294 324.361 154.437 324.25 154.582C323.034 158.93 322.245 162.333 321.887 164.794C323.025 165.316 323.984 165.765 324.771 166.144C323.706 166.861 322.598 167.65 321.457 168.509L321.453 168.507Z" fill="#498AC9"/>
<path fill-rule="evenodd" clip-rule="evenodd" d="M345.514 152.347C352.051 156.134 360.167 161.752 364.317 164.681C367.121 175.358 368.639 186.892 368.875 199.284C368.494 213.526 367.073 223.83 365.393 229.384C362.941 229.49 360.33 229.249 359.363 228.317C358.832 215.791 358.697 205.625 358.957 197.821C357.164 193.705 355.588 190.631 354.23 188.594C353.636 192.834 352.821 196.508 352.626 200.297C353.318 208.055 353.656 217.321 355.729 228.094C353.144 230.57 347.429 232.046 338.58 232.525C336.923 212.127 336.505 195.289 337.326 182.011C340.204 179.743 341.754 174.409 345.993 169.321C345.126 168.177 343.571 168.034 342.708 165.214C343.654 164.904 344.9 164.134 346.453 162.908C346.576 160.619 345.748 156.695 345.512 152.345L345.514 152.347Z" fill="#5D9CD4"/>
<path fill-rule="evenodd" clip-rule="evenodd" d="M328.397 180.942C325.865 207.988 324.8 225.574 323.308 231.669C319.067 231.203 315.802 229.215 313.824 227.251C314.355 211.866 316.155 202.038 316.912 193.042C315.542 178.274 312.738 164.694 315.761 158.384C319.006 156.199 321.836 154.929 324.245 154.582C323.029 158.93 322.239 162.333 321.882 164.794C323.02 165.316 323.978 165.765 324.765 166.144C323.701 166.862 322.593 167.651 321.452 168.509C323.512 173.072 325.828 177.218 328.4 180.945L328.397 180.942Z" fill="#5D9CD4"/>
<path fill-rule="evenodd" clip-rule="evenodd" d="M311.926 162.775C313.138 161.291 314.417 159.825 315.762 158.384C313.665 162.758 314.369 170.622 315.458 179.956C313.344 182.574 308.799 187.252 304.903 190.161C296.912 190.621 288.35 188.767 275.154 184.777C274.618 183.405 274.791 181.126 275.325 179.221C288.176 179.962 296.03 179.839 301.186 181.165C304.525 172.848 308.758 167.919 311.926 162.775Z" fill="#5D9CD4"/>
<path fill-rule="evenodd" clip-rule="evenodd" d="M337.386 158.874C339.712 155.824 341.623 153.093 343.741 151.354C343.513 150.425 343.386 149.677 343.13 148.972C343.01 148.638 342.288 148.248 341.33 148.068C341.417 148.222 341.608 148.87 341.449 148.972C341.408 148.996 341.376 149.031 341.339 149.061C339.086 150.88 336.709 152.451 333.793 153.832C335.185 155.453 336.152 157.157 337.384 158.874H337.386Z" fill="#498AC9"/>
<path fill-rule="evenodd" clip-rule="evenodd" d="M328.251 152.115C328.192 154.101 328.24 155.726 328.394 156.999C328.873 155.538 329.756 154.348 331.044 153.424C330.935 151.92 330.298 150.749 330.367 149.284C328.966 149.811 328.975 150.377 328.251 152.115Z" fill="#498AC9"/>
<path fill-rule="evenodd" clip-rule="evenodd" d="M325.465 214.146C326.235 205.61 327.132 194.455 328.399 180.942C327.655 169.775 327.271 160.066 327.247 152.351C327.553 152.236 327.891 152.208 328.249 152.115C328.197 154.012 328.242 155.768 328.392 156.999C328.871 155.538 329.754 154.348 331.04 153.424C331.441 154.196 331.562 155.033 332.204 155.971C332.896 155.256 333.55 154.569 333.975 154.044C335.272 155.603 336.211 157.233 337.386 158.874C339.687 155.856 341.606 153.099 343.698 151.356C344.414 151.723 345.055 152.074 345.624 152.412C342.681 162.973 339.914 172.84 337.33 182.013C336.764 191.156 336.783 201.985 337.395 214.503C336.358 214.662 335.298 214.763 334.21 214.816V214.709C334.21 214.46 334.001 214.252 333.748 214.245L329.279 214.12C329.025 214.113 328.819 214.308 328.819 214.558V214.638C327.722 214.523 326.603 214.358 325.465 214.148V214.146Z" fill="#BAD9F2"/>
<path fill-rule="evenodd" clip-rule="evenodd" d="M329.45 158.236C330.241 156.961 331.161 156.205 332.204 155.971C332.98 156.311 333.815 157.1 334.706 158.342C334.012 159.543 333.275 160.38 332.494 160.854C333.96 170.073 334.634 182.905 334.526 199.358C333.418 201.807 332.327 203.576 331.265 204.664C329.979 202.767 329.181 200.81 328.871 198.79C329.886 181.527 330.493 168.927 330.684 160.997C329.951 160.033 329.541 159.114 329.452 158.236H329.45Z" fill="#498AC9"/>
<path fill-rule="evenodd" clip-rule="evenodd" d="M334.704 154.972C335.216 155.661 335.685 156.363 336.153 157.068C335.724 157.354 335.173 157.686 334.503 158.067C333.909 157.278 333.338 156.691 332.796 156.311C333.447 155.828 334.084 155.382 334.707 154.972H334.704ZM330.476 153.864C330.721 154.714 331.053 155.501 331.482 156.225C330.89 156.515 330.346 156.99 329.845 157.655C329.563 157.211 329.329 156.461 329.141 155.401C329.503 154.833 329.947 154.322 330.476 153.864Z" fill="#498AC9"/>
<path fill-rule="evenodd" clip-rule="evenodd" d="M315.149 279.542C315.093 265.702 315.557 249.41 316.548 230.667L316.615 229.412C318.421 230.502 320.678 231.378 323.308 231.666C323.939 229.1 324.49 224.494 325.108 218.006C325.483 218.125 325.861 218.238 326.24 218.34H326.242C327.088 218.567 327.946 218.749 328.816 218.888V219.365C328.816 219.614 329.026 219.822 329.278 219.829L333.747 219.955C334 219.961 334.208 219.764 334.208 219.517V219.176C335.017 219.14 335.835 219.068 336.665 218.966C336.982 218.925 337.303 218.877 337.624 218.83C337.875 223.199 338.196 227.762 338.584 232.522C344.955 232.178 349.701 231.315 352.826 229.934C352.873 230.301 352.925 230.667 352.971 231.033C354.781 244.975 355.787 260.01 355.983 276.141C358.986 282.586 359.807 298.32 358.448 323.348C355.887 323.918 352.988 323.918 349.744 323.348C347.188 312.089 344.961 297.271 343.07 278.901C340.41 270.109 337.654 257.745 334.805 241.815C334.23 252.618 332.682 264.839 330.162 278.478C331.012 288.551 329.538 303.345 325.737 322.853C323.742 323.046 320.6 322.764 316.309 322.006C316.745 306.139 316.359 291.984 315.147 279.54L315.149 279.542Z" fill="#3E62AC"/>
<path fill-rule="evenodd" clip-rule="evenodd" d="M358.733 327.542C358.321 327.936 358.186 327.824 357.896 327.631C357.421 325.045 352.544 324.743 351.332 327.384C350.972 327.243 350.719 327.017 350.573 326.709C349.721 328.381 347.794 330.019 348.305 332.937C349.602 334.801 356.276 335.727 359.437 331.91C360.333 330.459 359.229 328.619 358.731 327.54L358.733 327.542ZM325.074 324.7C325.889 326.911 326.074 328.73 325.109 329.443C322.654 329.937 317.626 329.876 309.881 330.893C304.41 330.501 302.042 328.942 303.426 327.212C308.179 327.507 312.47 326.267 316.299 323.497C317.01 326.391 319.935 326.792 325.074 324.698V324.7Z" fill="#09378C"/>
<path fill-rule="evenodd" clip-rule="evenodd" d="M358.232 323.398C358.364 324.943 358.492 326.359 358.622 327.642C358.294 327.913 358.16 327.805 357.895 327.631C357.421 325.045 352.544 324.744 351.332 327.384L351.323 327.38H351.317L351.315 327.378L351.306 327.373H351.299L351.293 327.369L351.284 327.365H351.276L351.269 327.358H351.26L351.254 327.354H351.252L351.247 327.349H351.239L351.234 327.345H351.23L351.221 327.341H351.219L351.215 327.336H351.208L351.204 327.332H351.202L351.191 327.323H351.185L351.176 327.317H351.172L351.169 327.315L351.163 327.31H351.159L351.156 327.308L351.148 327.304H351.143L351.141 327.3H351.132L351.126 327.293L351.119 327.289H351.113L351.104 327.28L351.098 327.276H351.091L351.085 327.269L351.063 327.258L351.057 327.254L351.052 327.25L351.046 327.245H351.044L351.039 327.241H351.033V327.237H351.024L351.02 327.228H351.018L351.013 327.224L351.007 327.219H351.005L351 327.215L350.996 327.211H350.994L350.983 327.204H350.981V327.2L350.972 327.196H350.97L350.966 327.191L350.961 327.187H350.957L350.955 327.183L350.95 327.178L350.946 327.174L350.937 327.17V327.165H350.933L350.926 327.161L350.922 327.157L350.913 327.152L350.909 327.148L350.905 327.141H350.898V327.137C351.111 326.101 351.293 324.926 351.443 323.615C353.925 323.909 356.193 323.842 358.247 323.415L358.232 323.398ZM317.188 322.16C316.999 322.843 316.75 323.441 316.438 323.955C316.464 324.029 316.492 324.102 316.524 324.174C316.665 324.495 316.845 324.774 317.06 325.013H317.062C317.131 325.093 317.207 325.169 317.287 325.234L317.292 325.238C317.316 325.26 317.34 325.282 317.366 325.301L317.376 325.31C317.65 325.529 317.97 325.698 318.335 325.813L318.341 325.817C318.376 325.826 318.408 325.836 318.441 325.845L318.458 325.849C318.493 325.858 318.526 325.869 318.562 325.875L318.573 325.88C318.608 325.888 318.647 325.897 318.684 325.904H318.69C318.727 325.912 318.764 325.921 318.801 325.927L318.82 325.932L318.927 325.951H318.935C319.304 326.012 319.712 326.027 320.152 326.001H320.171L320.304 325.993H320.325L320.455 325.979H320.484L320.616 325.964H320.64L320.783 325.945H320.785L320.935 325.923L320.971 325.919C321.336 325.865 321.722 325.787 322.125 325.687L322.17 325.676L322.329 325.635L322.348 325.631L322.504 325.587L322.552 325.576L322.695 325.535L322.745 325.52L322.886 325.477L322.949 325.459L323.092 325.414L323.135 325.401L323.296 325.349L323.339 325.334L323.502 325.282L323.537 325.271L323.708 325.214L323.751 325.197L323.918 325.141L324.126 325.065C324.261 325.017 324.395 324.967 324.532 324.913L324.562 324.902L324.772 324.822C324.764 324.2 324.796 323.563 324.868 322.91C323.031 322.96 320.471 322.711 317.179 322.16H317.188Z" fill="#F4AE7C"/>
<path fill-rule="evenodd" clip-rule="evenodd" d="M314.442 165.029C314.279 169.161 314.798 174.287 315.457 179.953C313.343 182.572 308.798 187.25 304.901 190.158C296.911 190.618 288.349 188.765 275.152 184.774C284.743 186.944 294.55 188.229 304.572 188.628C306.599 187.171 309.719 184.091 313.928 179.392C313.794 175.802 313.967 171.016 314.44 165.029H314.442Z" fill="#498AC9"/>
<path fill-rule="evenodd" clip-rule="evenodd" d="M351.59 199.974C352.052 194.214 352.485 189.261 352.895 185.11C353.186 186.292 353.63 187.454 354.231 188.596C353.637 192.836 352.821 196.51 352.626 200.299C353.318 208.057 353.656 217.323 355.729 228.096C355.495 228.322 355.23 228.539 354.944 228.751C353.257 222.112 352.138 212.522 351.59 199.978V199.974Z" fill="#498AC9"/>
<path fill-rule="evenodd" clip-rule="evenodd" d="M337.623 218.828C333.174 219.528 329 219.252 325.105 218.006C325.223 216.786 325.34 215.498 325.463 214.146C329.754 214.943 333.729 215.062 337.393 214.501C337.463 215.921 337.539 217.364 337.623 218.828Z" fill="#EC743D"/>
<path fill-rule="evenodd" clip-rule="evenodd" d="M333.749 214.243L329.28 214.117C329.026 214.111 328.82 214.312 328.82 214.566V219.356C328.82 219.61 329.026 219.822 329.28 219.831L333.749 219.955C334.005 219.961 334.211 219.764 334.211 219.506V214.718C334.211 214.464 334.005 214.252 333.749 214.243Z" fill="white"/>
<path fill-rule="evenodd" clip-rule="evenodd" d="M333.322 215.097V219.075L329.707 218.975V214.995L333.322 215.097Z" fill="#EC743D"/>
<path fill-rule="evenodd" clip-rule="evenodd" d="M357.548 234.835C357.522 235.858 357.156 237.399 357.806 238.134C359.515 240.061 363.697 240.196 365.495 238.958C366.269 238.427 366.358 236.686 366.377 235.572C365.452 233.209 364.955 231.027 364.877 229.017C363.045 227.801 360.28 227.686 359.363 228.317L357.548 234.833V234.835Z" fill="#F4AE7C"/>
<path fill-rule="evenodd" clip-rule="evenodd" d="M333.215 133.21C333.648 133.151 334.039 133.559 334.082 134.12C334.128 134.681 333.811 135.182 333.377 135.241C332.942 135.297 332.553 134.892 332.508 134.33C332.465 133.771 332.779 133.266 333.215 133.21Z" fill="#BAD9F2"/>
<path fill-rule="evenodd" clip-rule="evenodd" d="M333.376 135.239C333.809 135.182 334.126 134.682 334.083 134.118C334.037 133.557 333.647 133.149 333.213 133.208C333.031 133.232 332.868 133.333 332.747 133.485L332.808 133.466C332.949 133.448 333.076 133.581 333.089 133.763C333.102 133.945 333.001 134.107 332.86 134.127C332.719 134.144 332.593 134.012 332.578 133.83V133.791C332.517 133.953 332.493 134.135 332.508 134.326C332.554 134.885 332.942 135.295 333.378 135.237L333.376 135.239Z" fill="#0053A1"/>
<path fill-rule="evenodd" clip-rule="evenodd" d="M331.84 132.538C331.819 132.557 331.799 132.573 331.78 132.594C331.806 132.501 331.916 132.375 331.96 132.299C331.914 132.338 331.888 132.349 331.845 132.41C331.806 132.46 331.782 132.514 331.754 132.579C331.749 132.508 331.775 132.462 331.78 132.397C331.745 132.445 331.723 132.538 331.717 132.596C331.719 132.391 331.728 132.401 331.806 132.208C331.719 132.267 331.656 132.456 331.645 132.56C331.624 132.516 331.621 132.456 331.621 132.397C331.585 132.471 331.585 132.503 331.587 132.575L331.533 132.499C331.541 132.547 331.556 132.557 331.563 132.596C331.459 132.521 331.279 132.256 331.298 132.12C331.316 132.178 331.359 132.284 331.389 132.319C331.374 132.221 331.342 132.113 331.359 132C331.387 132.072 331.379 132.169 331.4 132.247C331.422 132.325 331.452 132.417 331.491 132.466C331.461 132.302 331.411 132.167 331.459 131.983L331.465 132.029C331.467 132.115 331.463 132.208 331.483 132.293C331.504 132.139 331.489 131.996 331.617 131.881C331.589 131.946 331.561 131.985 331.537 132.059C331.604 131.989 331.63 131.857 331.745 131.844C331.695 131.905 331.647 131.942 331.595 132.026C331.554 132.091 331.491 132.202 331.522 132.282C331.593 131.998 331.752 131.851 331.942 131.799C331.892 131.827 331.73 131.948 331.715 132.013V132.024C331.73 132.1 331.725 131.957 331.719 132.042C331.682 132.07 331.639 132.133 331.615 132.178C331.598 132.208 331.585 132.245 331.574 132.278C331.569 132.295 331.561 132.323 331.559 132.341C331.559 132.356 331.559 132.356 331.559 132.369V132.384C331.615 132.198 331.678 132.094 331.806 131.987C331.882 131.922 332.064 131.81 332.17 131.797C332.168 131.799 332.166 131.801 332.163 131.803L332.077 131.844C331.862 131.957 331.66 132.085 331.595 132.354C331.606 132.343 331.595 132.354 331.615 132.332C331.619 132.325 331.619 132.323 331.624 132.317C331.669 132.239 331.717 132.154 331.78 132.089C331.847 132.018 331.931 131.948 332.003 131.907C332.098 131.853 332.404 131.732 332.562 131.751C332.515 131.749 332.224 131.838 332.176 131.857C332.068 131.903 331.929 131.968 331.851 132.072C331.897 132.061 331.942 132.029 331.986 132.007C332.255 131.888 332.721 131.706 333 131.721C332.829 131.758 332.582 131.836 332.452 131.909L332.556 131.888C332.528 131.898 332.502 131.918 332.469 131.933C332.439 131.948 332.415 131.959 332.382 131.976C332.239 132.061 332.018 132.206 331.938 132.365C331.977 132.328 332.027 132.289 332.072 132.252C332.12 132.211 332.161 132.18 332.211 132.143C332.304 132.078 332.409 132.007 332.508 131.957C332.723 131.853 332.927 131.766 333.17 131.712C333.139 131.727 333.102 131.738 333.076 131.773C333.271 131.762 333.592 131.602 334.087 131.578C333.981 131.617 333.807 131.63 333.686 131.667L333.575 131.71C333.64 131.71 333.853 131.656 333.937 131.638C334.358 131.558 334.62 131.502 335.078 131.504C335.373 131.506 335.646 131.506 335.938 131.63C336.129 131.71 336.307 131.805 336.465 131.935C336.52 131.981 336.55 132.016 336.591 132.057C336.474 131.996 336.212 131.738 335.952 131.684C336.35 131.918 336.669 132.124 336.947 132.434C336.873 132.386 336.765 132.284 336.68 132.221C336.587 132.148 336.491 132.083 336.392 132.018C336.214 131.901 335.928 131.74 335.704 131.682C335.754 131.725 335.895 131.794 335.965 131.831C336.459 132.111 336.932 132.43 337.365 132.794C337.419 132.837 337.519 132.945 337.556 132.971C337.511 132.952 337.328 132.809 337.265 132.766C336.947 132.547 336.643 132.347 336.253 132.234C336.357 132.315 337.062 132.599 337.285 132.805L336.676 132.499C336.491 132.412 336.179 132.278 335.975 132.252C336.207 132.297 337.107 132.707 337.289 132.861C337.194 132.826 337.055 132.748 336.951 132.703C336.83 132.651 336.71 132.603 336.585 132.557C336.333 132.466 336.062 132.386 335.795 132.352C335.433 132.302 335.091 132.308 334.742 132.343C334.642 132.354 334.505 132.378 334.412 132.378C334.471 132.343 334.642 132.332 334.705 132.323C334.906 132.293 335.11 132.278 335.314 132.276C335.399 132.273 335.566 132.293 335.631 132.284C335.386 132.221 335.195 132.245 334.987 132.219C335.006 132.217 334.995 132.221 335.013 132.215C335.032 132.208 335.023 132.215 335.036 132.204C334.906 132.193 334.657 132.239 334.538 132.269C334.395 132.302 334.108 132.414 334.095 132.417C334.128 132.391 334.163 132.373 334.189 132.347L333.844 132.43L334.269 132.271C334.184 132.28 334.072 132.325 333.989 132.347C333.885 132.373 333.679 132.423 333.584 132.46C333.473 132.503 333.267 132.531 333.152 132.534C333.191 132.51 333.332 132.469 333.391 132.449L333.621 132.369C333.664 132.349 333.701 132.343 333.738 132.323C333.844 132.267 333.957 132.226 334.067 132.18C334.269 132.1 334.85 131.927 335.065 131.985C334.789 131.896 334.223 132.074 334.028 132.154L333.566 132.343C333.523 132.358 333.493 132.375 333.451 132.393C333.341 132.438 333.224 132.488 333.107 132.523L333.113 132.499V132.495C333.113 132.495 333.113 132.49 333.115 132.49V132.486C333.074 132.51 332.955 132.557 332.901 132.562C333.011 132.456 333.291 132.371 333.386 132.232C333.291 132.267 333.176 132.349 333.089 132.408C333.059 132.427 333.024 132.438 332.996 132.458C333.07 132.325 333.222 132.213 333.341 132.124L333.475 132.042C333.363 132.052 333.228 132.159 333.146 132.237C333.059 132.31 332.985 132.401 332.914 132.49C332.905 132.501 332.907 132.501 332.896 132.51C332.881 132.525 332.89 132.518 332.875 132.521L332.979 132.341C332.959 132.375 332.818 132.521 332.81 132.57C332.827 132.477 332.886 132.401 332.925 132.328L332.86 132.375C332.964 132.193 333.219 132.065 333.376 131.95C333.217 131.968 332.935 132.187 332.831 132.334C332.781 132.404 332.747 132.49 332.699 132.547L332.749 132.406C332.749 132.406 332.745 132.408 332.742 132.41L332.669 132.499C332.725 132.321 332.814 132.226 332.92 132.113C332.873 132.124 332.836 132.156 332.801 132.193C332.766 132.224 332.734 132.263 332.706 132.304C332.647 132.391 332.595 132.484 332.556 132.588C332.547 132.544 332.578 132.466 332.595 132.417C332.565 132.427 332.591 132.412 332.562 132.434C332.515 132.464 332.482 132.538 332.454 132.583L332.471 132.475L332.4 132.583C332.415 132.486 332.445 132.43 332.469 132.347C332.408 132.391 332.382 132.464 332.354 132.542C332.346 132.508 332.359 132.453 332.372 132.412L332.287 132.499C332.268 132.527 332.246 132.564 332.226 132.59C332.248 132.497 332.291 132.445 332.33 132.373C332.242 132.43 332.211 132.518 332.146 132.609C332.166 132.499 332.246 132.338 332.304 132.271C332.207 132.289 332.148 132.544 332.101 132.601V132.488C332.101 132.488 332.101 132.488 332.085 132.508L332.029 132.618L332.036 132.477C331.997 132.516 331.992 132.564 331.964 132.618C331.966 132.612 331.962 132.501 331.984 132.434C331.964 132.445 331.979 132.432 331.957 132.456C331.914 132.497 331.897 132.555 331.858 132.599L331.901 132.484C331.886 132.49 331.895 132.486 331.879 132.499L331.827 132.542L331.84 132.538Z" fill="#0053A1"/>
<path fill-rule="evenodd" clip-rule="evenodd" d="M326.252 132.983C325.849 133.039 325.556 133.542 325.598 134.103C325.639 134.663 325.997 135.07 326.4 135.014C326.805 134.957 327.096 134.455 327.055 133.893C327.014 133.334 326.656 132.926 326.252 132.983Z" fill="#BAD9F2"/>
<path fill-rule="evenodd" clip-rule="evenodd" d="M326.398 135.014C325.997 135.07 325.637 134.665 325.594 134.104C325.553 133.542 325.845 133.039 326.251 132.981C326.418 132.957 326.58 133.016 326.713 133.133H326.656C326.526 133.15 326.431 133.312 326.444 133.495C326.459 133.677 326.576 133.809 326.704 133.792C326.836 133.772 326.929 133.609 326.916 133.427L326.912 133.388C326.988 133.531 327.038 133.705 327.053 133.893C327.094 134.455 326.801 134.958 326.396 135.014H326.398Z" fill="#0053A1"/>
<path fill-rule="evenodd" clip-rule="evenodd" d="M327.943 132.662C327.958 132.681 327.974 132.696 327.989 132.72C327.967 132.627 327.887 132.501 327.854 132.427C327.887 132.464 327.906 132.475 327.939 132.536C327.967 132.586 327.987 132.642 328.008 132.705C328.01 132.633 327.991 132.588 327.984 132.523C328.01 132.571 328.03 132.664 328.032 132.722C328.028 132.516 328.023 132.529 327.963 132.336C328.026 132.393 328.073 132.581 328.086 132.685C328.101 132.642 328.101 132.581 328.101 132.523C328.127 132.594 328.127 132.629 328.127 132.698L328.166 132.625C328.16 132.67 328.149 132.685 328.145 132.72C328.216 132.644 328.34 132.38 328.325 132.243C328.316 132.304 328.286 132.412 328.266 132.445C328.273 132.347 328.294 132.239 328.281 132.126C328.262 132.196 328.271 132.295 328.255 132.373C328.245 132.454 328.223 132.545 328.195 132.592C328.214 132.427 328.245 132.291 328.21 132.109L328.206 132.154C328.206 132.241 328.212 132.334 328.197 132.417C328.18 132.263 328.188 132.12 328.093 132.005C328.114 132.07 328.136 132.109 328.153 132.183C328.104 132.113 328.082 131.981 328 131.966C328.039 132.026 328.071 132.065 328.11 132.146C328.14 132.211 328.186 132.323 328.166 132.401C328.11 132.122 327.995 131.972 327.856 131.922C327.895 131.948 328.013 132.068 328.023 132.137V132.148C328.017 132.224 328.015 132.081 328.021 132.167C328.047 132.193 328.078 132.256 328.097 132.302C328.108 132.332 328.119 132.369 328.125 132.401C328.13 132.419 328.134 132.447 328.136 132.462C328.138 132.482 328.136 132.48 328.136 132.493V132.51C328.093 132.323 328.045 132.217 327.952 132.115C327.898 132.05 327.763 131.938 327.687 131.925C327.687 131.927 327.689 131.929 327.692 131.929L327.752 131.972C327.908 132.083 328.056 132.213 328.108 132.48C328.099 132.471 328.108 132.482 328.093 132.458C328.091 132.451 328.091 132.447 328.086 132.44C328.054 132.365 328.017 132.28 327.971 132.215C327.921 132.144 327.861 132.074 327.809 132.033C327.739 131.979 327.516 131.864 327.405 131.881C327.44 131.877 327.648 131.966 327.681 131.985C327.761 132.031 327.861 132.094 327.917 132.2C327.887 132.185 327.852 132.154 327.822 132.135C327.627 132.016 327.291 131.836 327.089 131.849C327.215 131.886 327.39 131.961 327.488 132.035L327.412 132.013C327.434 132.029 327.451 132.044 327.475 132.059C327.496 132.074 327.514 132.085 327.536 132.102C327.642 132.187 327.8 132.33 327.861 132.488C327.833 132.453 327.796 132.414 327.763 132.378C327.726 132.336 327.698 132.306 327.659 132.269C327.592 132.204 327.518 132.133 327.447 132.083C327.291 131.979 327.143 131.894 326.967 131.842C326.991 131.857 327.015 131.868 327.037 131.903C326.896 131.892 326.664 131.734 326.308 131.714C326.384 131.749 326.512 131.764 326.594 131.801L326.677 131.842C326.629 131.844 326.475 131.79 326.417 131.773C326.113 131.693 325.927 131.638 325.597 131.643C325.389 131.645 325.192 131.647 324.986 131.773C324.851 131.851 324.725 131.951 324.617 132.076C324.576 132.122 324.556 132.154 324.526 132.198C324.61 132.139 324.793 131.879 324.977 131.827C324.697 132.061 324.472 132.267 324.279 132.577C324.333 132.529 324.409 132.427 324.465 132.365C324.532 132.291 324.6 132.226 324.669 132.159C324.793 132.042 324.994 131.881 325.155 131.823C325.118 131.866 325.02 131.935 324.973 131.974C324.623 132.256 324.29 132.577 323.986 132.941C323.949 132.985 323.878 133.093 323.852 133.119C323.886 133.099 324.012 132.954 324.055 132.913C324.281 132.692 324.493 132.493 324.771 132.38C324.699 132.46 324.198 132.746 324.045 132.95L324.474 132.644C324.604 132.558 324.825 132.423 324.97 132.395C324.806 132.44 324.168 132.852 324.04 133.006C324.11 132.976 324.205 132.896 324.281 132.85C324.368 132.794 324.45 132.746 324.539 132.701C324.719 132.607 324.91 132.529 325.098 132.49C325.354 132.44 325.601 132.447 325.853 132.482C325.924 132.49 326.022 132.516 326.089 132.516C326.046 132.482 325.924 132.471 325.879 132.462C325.734 132.432 325.586 132.419 325.441 132.417C325.38 132.414 325.265 132.436 325.215 132.423C325.387 132.362 325.525 132.384 325.675 132.358C325.66 132.356 325.669 132.358 325.656 132.354C325.64 132.345 325.649 132.349 325.636 132.339C325.729 132.328 325.909 132.373 325.996 132.404C326.1 132.438 326.306 132.549 326.317 132.549C326.291 132.523 326.267 132.508 326.248 132.48L326.497 132.562L326.191 132.406C326.25 132.417 326.332 132.46 326.393 132.48C326.467 132.506 326.618 132.555 326.686 132.592C326.764 132.636 326.913 132.662 326.993 132.664C326.965 132.64 326.863 132.599 326.822 132.579L326.657 132.499C326.627 132.482 326.601 132.473 326.573 132.454C326.495 132.399 326.415 132.358 326.334 132.315C326.189 132.232 325.768 132.061 325.619 132.124C325.814 132.035 326.219 132.209 326.365 132.287L326.699 132.475C326.729 132.49 326.751 132.506 326.783 132.523C326.863 132.568 326.948 132.618 327.032 132.653L327.028 132.627C327.028 132.627 327.026 132.625 327.026 132.623V132.614C327.054 132.64 327.141 132.688 327.182 132.694C327.1 132.588 326.898 132.503 326.826 132.369C326.896 132.399 326.98 132.484 327.041 132.538C327.065 132.56 327.087 132.573 327.108 132.592C327.052 132.46 326.944 132.347 326.857 132.263L326.759 132.18C326.839 132.189 326.939 132.295 327 132.371C327.063 132.445 327.115 132.536 327.169 132.625C327.173 132.636 327.173 132.633 327.18 132.642C327.191 132.659 327.184 132.653 327.195 132.657L327.119 132.477C327.134 132.512 327.238 132.657 327.243 132.705C327.228 132.612 327.186 132.538 327.154 132.464L327.204 132.512C327.124 132.33 326.939 132.204 326.824 132.092C326.937 132.109 327.143 132.328 327.219 132.475C327.258 132.542 327.28 132.631 327.317 132.685L327.277 132.545C327.277 132.545 327.277 132.549 327.282 132.549L327.336 132.64C327.291 132.46 327.225 132.367 327.15 132.254C327.184 132.265 327.21 132.297 327.236 132.334C327.26 132.362 327.286 132.404 327.308 132.445C327.351 132.529 327.39 132.623 327.421 132.729C327.425 132.685 327.403 132.605 327.39 132.558C327.414 132.566 327.392 132.555 327.414 132.573C327.451 132.603 327.475 132.677 327.494 132.722L327.479 132.616L327.533 132.722C327.522 132.625 327.496 132.568 327.479 132.488C327.52 132.529 327.542 132.603 327.564 132.679C327.57 132.644 327.559 132.59 327.549 132.549L327.609 132.636C327.624 132.664 327.64 132.698 327.655 132.727C327.635 132.631 327.605 132.584 327.577 132.512C327.642 132.568 327.666 132.653 327.713 132.746C327.698 132.64 327.64 132.477 327.594 132.412C327.666 132.427 327.711 132.685 327.748 132.737L327.744 132.627C327.744 132.627 327.746 132.629 327.759 132.644L327.802 132.755L327.796 132.614C327.824 132.655 327.828 132.701 327.848 132.755C327.846 132.746 327.848 132.638 327.83 132.573C327.846 132.581 327.833 132.571 327.852 132.592C327.88 132.633 327.895 132.692 327.924 132.735L327.889 132.62C327.9 132.629 327.893 132.623 327.906 132.636L327.943 132.679V132.662Z" fill="#0053A1"/>
<path fill-rule="evenodd" clip-rule="evenodd" d="M328.987 134.643C329.056 134.576 329.169 134.576 329.236 134.645C329.304 134.712 329.304 134.825 329.234 134.892C329.104 135.018 328.777 135.868 328.462 136.785C328.085 137.883 327.727 139.058 327.745 139.219C327.816 139.928 328.395 139.951 328.785 139.967C328.98 139.975 329.143 139.984 329.256 140.058C329.334 140.11 329.356 140.22 329.304 140.303C329.249 140.381 329.141 140.402 329.059 140.35C329.033 140.331 328.913 140.326 328.775 140.322C328.261 140.3 327.497 140.268 327.395 139.258C327.374 139.052 327.738 137.808 328.128 136.672C328.458 135.716 328.818 134.814 328.987 134.647V134.643Z" fill="#F09171"/>
<path fill-rule="evenodd" clip-rule="evenodd" d="M333.765 142.127C330.061 144.661 327.906 144.826 327.297 142.623C329.986 142.892 332.141 142.727 333.765 142.127Z" fill="white"/>
<path fill-rule="evenodd" clip-rule="evenodd" d="M347.229 170.273C343.303 175.812 339.959 179.854 337.203 182.399C339.139 172.679 341.806 162.724 344.007 151.513C344.775 151.925 345.317 151.903 346.217 152.753C346.807 157.183 347.13 161.325 347.186 163.677C345.699 165.056 344.482 165.943 343.541 166.335C345.107 167.547 346.336 168.858 347.229 170.273Z" fill="#498AC9"/>
<path fill-rule="evenodd" clip-rule="evenodd" d="M296.767 69.0213L294.321 70.4432C293.495 70.9223 293.216 71.9887 293.695 72.8124L294.235 73.7423C294.872 74.837 294.595 75.3312 294.397 75.5089C293.851 75.9945 293.348 76.5234 292.84 77.0501C292.693 77.204 292.22 77.7329 290.978 77.0089L290.126 76.5147C289.3 76.0335 288.233 76.3153 287.756 77.139L286.333 79.5862C285.854 80.4099 286.134 81.4764 286.96 81.9554L287.804 82.4453C288.97 83.1259 288.942 83.4727 288.792 83.9648C288.588 84.6454 288.372 85.3217 288.222 86.024C288.09 86.6505 288.15 87.097 286.565 87.097H285.594C284.638 87.097 283.859 87.8773 283.859 88.8311V91.6598C283.859 92.6157 284.638 93.3939 285.594 93.3939H286.565C288.15 93.3939 288.09 93.8426 288.222 94.4669C288.372 95.1692 288.588 95.8476 288.792 96.5261C288.942 97.0225 288.97 97.3693 287.804 98.0456L286.96 98.5355C286.134 99.0145 285.854 100.081 286.333 100.907L287.756 103.352C288.235 104.176 289.3 104.457 290.126 103.978L290.978 103.484C292.22 102.76 292.693 103.289 292.84 103.445C293.348 103.972 293.851 104.499 294.397 104.986C294.592 105.164 294.872 105.658 294.235 106.753L293.695 107.678C293.216 108.504 293.495 109.569 294.321 110.048L296.767 111.47C297.591 111.949 298.658 111.669 299.137 110.843L299.677 109.92C300.323 108.81 300.959 108.853 301.23 108.938C302.008 109.185 302.73 109.345 303.532 109.556C303.827 109.632 304.33 109.846 304.33 111.17V112.163C304.33 113.115 305.109 113.897 306.065 113.897H308.897C309.853 113.897 310.631 113.117 310.631 112.163V111.17C310.631 109.846 311.134 109.634 311.429 109.556C312.234 109.345 312.956 109.185 313.734 108.938C314.005 108.851 314.638 108.808 315.287 109.92L315.827 110.843C316.306 111.669 317.373 111.949 318.197 111.47L320.642 110.048C321.469 109.569 321.748 108.504 321.269 107.678L320.729 106.753C320.092 105.658 320.369 105.164 320.567 104.986C321.113 104.499 321.616 103.972 322.123 103.445C322.271 103.289 322.744 102.76 323.986 103.484L324.838 103.978C325.664 104.457 326.731 104.176 327.208 103.352L328.63 100.907C329.11 100.081 328.83 99.0145 328.004 98.5355L327.16 98.0456C325.994 97.3693 326.022 97.0203 326.172 96.5261C326.375 95.8498 326.592 95.1692 326.74 94.4669C326.874 93.8426 326.813 93.3939 328.398 93.3939H329.37C330.326 93.3939 331.102 92.6157 331.102 91.6598V88.8311C331.102 87.8773 330.324 87.097 329.37 87.097H328.398C326.813 87.097 326.874 86.6526 326.74 86.024C326.594 85.3239 326.375 84.6454 326.172 83.9648C326.022 83.4706 325.994 83.1238 327.16 82.4453L328.004 81.9554C328.83 81.4742 329.11 80.4099 328.63 79.5862L327.208 77.139C326.729 76.3153 325.664 76.0335 324.838 76.5147L323.986 77.0089C322.744 77.7329 322.271 77.204 322.123 77.0501C321.616 76.5234 321.113 75.9945 320.567 75.5089C320.371 75.3312 320.092 74.8348 320.729 73.7423L321.269 72.8124C321.748 71.9887 321.469 70.9223 320.642 70.4432L318.197 69.0213C317.373 68.5422 316.304 68.824 315.827 69.6477L315.287 70.5733C314.641 71.6831 314.005 71.6376 313.734 71.5552C312.956 71.3059 312.234 71.1455 311.429 70.9353C311.134 70.8594 310.631 70.6448 310.631 69.3204V68.3298C310.631 67.3739 309.853 66.5957 308.897 66.5957H306.065C305.109 66.5957 304.33 67.3739 304.33 68.3298V69.3204C304.33 70.6448 303.827 70.8572 303.532 70.9353C302.728 71.1455 302.006 71.3059 301.23 71.5552C300.959 71.6397 300.325 71.6853 299.677 70.5733L299.137 69.6477C298.658 68.824 297.591 68.5422 296.767 69.0213ZM307.479 86.5117C309.541 86.5117 311.215 88.1851 311.215 90.2465C311.215 92.3079 309.541 93.9813 307.479 93.9813C305.417 93.9813 303.743 92.3101 303.743 90.2465C303.743 88.183 305.414 86.5117 307.479 86.5117ZM295.77 90.2465C295.77 89.8065 296.13 89.4467 296.57 89.4467C297.01 89.4467 297.37 89.8065 297.37 90.2465C297.37 93.0384 298.5 95.5659 300.33 97.3953C302.16 99.2248 304.688 100.354 307.481 100.354C307.921 100.354 308.281 100.714 308.281 101.154C308.281 101.594 307.921 101.954 307.481 101.954C304.248 101.954 301.319 100.645 299.2 98.5268C297.084 96.4069 295.772 93.4806 295.772 90.2487L295.77 90.2465ZM319.034 88.3607C319.103 88.7942 318.806 89.2039 318.372 89.2711C317.939 89.3405 317.529 89.0435 317.459 88.61C317.117 86.4901 316.113 84.5956 314.667 83.1346C313.218 81.6715 311.33 80.6505 309.213 80.2842C308.777 80.2105 308.485 79.7986 308.559 79.3651C308.632 78.9294 309.044 78.639 309.48 78.7127C311.93 79.1353 314.118 80.3189 315.794 82.0118C317.468 83.7047 318.632 85.9048 319.029 88.3629L319.034 88.3607ZM307.479 76.3738C315.141 76.3738 321.354 82.584 321.354 90.2444C321.354 97.9047 315.141 104.115 307.479 104.115C299.816 104.115 293.604 97.9047 293.604 90.2444C293.604 82.584 299.816 76.3738 307.479 76.3738Z" fill="#86BAE4"/>
<path fill-rule="evenodd" clip-rule="evenodd" d="M420.422 12.0771L417.976 13.4991C417.15 13.9781 416.87 15.0424 417.349 15.8661L417.889 16.796C418.527 17.8907 418.249 18.3849 418.052 18.5626C417.505 19.0482 417.002 19.5771 416.495 20.1038C416.348 20.2599 415.875 20.7888 414.632 20.0648L413.78 19.5684C412.954 19.0894 411.89 19.3733 411.41 20.1949L409.988 22.6399C409.507 23.4636 409.788 24.5322 410.615 25.0113L411.456 25.5012C412.622 26.1775 412.594 26.5265 412.445 27.0207C412.241 27.697 412.024 28.3776 411.874 29.0799C411.742 29.7042 411.803 30.1507 410.218 30.1507H409.246C408.29 30.1507 407.512 30.9289 407.512 31.8848V34.7114C407.512 35.6673 408.29 36.4455 409.246 36.4455H410.218C411.803 36.4455 411.742 36.892 411.874 37.5184C412.024 38.2229 412.241 38.8992 412.445 39.5798C412.594 40.074 412.622 40.4209 411.456 41.0972L410.615 41.5892C409.788 42.0682 409.504 43.1347 409.988 43.9584L411.41 46.4035C411.89 47.2293 412.954 47.509 413.78 47.0299L414.632 46.5335C415.875 45.8139 416.348 46.3384 416.495 46.4945C417.002 47.0212 417.505 47.5501 418.052 48.0357C418.247 48.2134 418.527 48.7098 417.889 49.8023L417.349 50.7322C416.87 51.5559 417.15 52.6202 417.976 53.1014L420.422 54.5234C421.246 55.0024 422.315 54.7184 422.794 53.8969L423.332 52.9713C423.978 51.8615 424.613 51.9049 424.884 51.9894C425.663 52.2387 426.385 52.3991 427.189 52.6072C427.484 52.683 427.987 52.8976 427.987 54.2221V55.2148C427.987 56.1707 428.765 56.9489 429.722 56.9489H432.553C433.505 56.9489 434.288 56.1707 434.288 55.2148V54.2221C434.288 52.8976 434.791 52.6852 435.086 52.6072C435.89 52.3991 436.613 52.2387 437.389 51.9894C437.658 51.9027 438.295 51.8593 438.941 52.9713L439.481 53.8969C439.96 54.7206 441.027 55.0024 441.851 54.5234L444.297 53.1014C445.121 52.6202 445.403 51.5559 444.924 50.7322L444.384 49.8023C443.746 48.7076 444.024 48.2134 444.221 48.0357C444.765 47.5501 445.271 47.0212 445.776 46.4945C445.928 46.3384 446.398 45.8117 447.64 46.5335L448.493 47.0299C449.317 47.509 450.386 47.2293 450.865 46.4035L452.287 43.9584C452.766 43.1347 452.487 42.0661 451.661 41.5892L450.815 41.0972C449.651 40.4209 449.679 40.0719 449.828 39.5798C450.03 38.8992 450.247 38.2229 450.396 37.5184C450.529 36.8941 450.47 36.4455 452.055 36.4455H453.027C453.983 36.4455 454.761 35.6673 454.761 34.7114V31.8848C454.761 30.9289 453.983 30.1507 453.027 30.1507H452.055C450.47 30.1507 450.529 29.702 450.396 29.0799C450.247 28.3776 450.03 27.6991 449.828 27.0207C449.679 26.5243 449.651 26.1775 450.815 25.5012L451.661 25.0113C452.487 24.5322 452.766 23.4636 452.287 22.6399L450.865 20.1949C450.386 19.3712 449.317 19.0894 448.493 19.5684L447.64 20.0648C446.398 20.7888 445.925 20.2599 445.776 20.1038C445.271 19.5771 444.765 19.0482 444.221 18.5626C444.026 18.3849 443.746 17.8907 444.384 16.796L444.924 15.8661C445.403 15.0424 445.119 13.9781 444.297 13.4991L441.851 12.0771C441.027 11.5959 439.96 11.8777 439.481 12.7014L438.941 13.627C438.295 14.7368 437.658 14.6935 437.389 14.6089C436.61 14.3618 435.89 14.1992 435.086 13.9912C434.791 13.9153 434.288 13.7007 434.288 12.3763V11.3835C434.288 10.4276 433.507 9.64941 432.553 9.64941H429.722C428.765 9.64941 427.987 10.4276 427.987 11.3835V12.3763C427.987 13.7007 427.484 13.9131 427.189 13.9912C426.385 14.1992 425.663 14.3618 424.884 14.6089C424.613 14.6956 423.98 14.739 423.332 13.627L422.794 12.7014C422.315 11.8777 421.246 11.5959 420.422 12.0771ZM431.133 29.5676C433.195 29.5676 434.869 31.2388 434.869 33.3024C434.869 35.366 433.195 37.035 431.133 37.035C429.071 37.035 427.397 35.3638 427.397 33.3024C427.397 31.241 429.069 29.5676 431.133 29.5676ZM419.422 33.3024C419.422 32.8602 419.782 32.5026 420.222 32.5026C420.662 32.5026 421.022 32.8602 421.022 33.3024C421.022 36.0943 422.152 38.6196 423.982 40.449C425.812 42.2785 428.34 43.41 431.133 43.41C431.573 43.41 431.933 43.7655 431.933 44.2098C431.933 44.6542 431.573 45.0075 431.133 45.0075C427.9 45.0075 424.971 43.6983 422.852 41.5784C420.734 39.4606 419.424 36.5343 419.424 33.3024H419.422ZM442.688 31.4166C442.757 31.8523 442.46 32.2598 442.027 32.3292C441.593 32.3985 441.185 32.1016 441.114 31.6659C440.771 29.5503 439.767 27.6514 438.321 26.1905C436.873 24.7273 434.984 23.7064 432.868 23.3422C432.432 23.2685 432.139 22.8567 432.213 22.421C432.287 21.9875 432.699 21.6948 433.135 21.7707C435.585 22.1912 437.773 23.3769 439.449 25.0698C441.123 26.7606 442.287 28.9628 442.684 31.4188L442.688 31.4166ZM431.133 19.4319C438.796 19.4319 445.008 25.6421 445.008 33.3024C445.008 40.9628 438.796 47.173 431.133 47.173C423.47 47.173 417.258 40.9606 417.258 33.3024C417.258 25.6442 423.47 19.4319 431.133 19.4319Z" fill="#86BAE4"/>
<path fill-rule="evenodd" clip-rule="evenodd" d="M421.391 11.3533L418.945 12.7752C418.119 13.2543 417.839 14.3208 418.318 15.1445L418.856 16.0744C419.494 17.169 419.216 17.6632 419.019 17.841C418.475 18.3265 417.969 18.8554 417.462 19.3821C417.312 19.536 416.842 20.0628 415.597 19.341L414.745 18.8467C413.919 18.3655 412.854 18.6473 412.375 19.471L410.953 21.9183C410.474 22.7419 410.753 23.8084 411.579 24.2896L412.421 24.7773C413.587 25.458 413.559 25.8048 413.409 26.2968C413.206 26.9775 412.989 27.6537 412.841 28.3561C412.707 28.9825 412.768 29.429 411.183 29.429H410.211C409.255 29.429 408.477 30.2094 408.477 31.1653V33.9918C408.477 34.9478 409.255 35.7259 410.211 35.7259H411.183C412.768 35.7259 412.709 36.1746 412.841 36.7989C412.987 37.4991 413.206 38.1797 413.409 38.8581C413.559 39.3545 413.587 39.7013 412.421 40.3776L411.579 40.8675C410.753 41.3466 410.474 42.413 410.953 43.2389L412.375 45.684C412.854 46.5077 413.919 46.7894 414.745 46.3104L415.597 45.814C416.84 45.09 417.312 45.6189 417.462 45.775C417.969 46.3017 418.475 46.8285 419.019 47.3162C419.216 47.4939 419.494 47.9903 418.856 49.0828L418.318 50.0084C417.839 50.8342 418.119 51.8985 418.945 52.3775L421.391 53.7995C422.215 54.2785 423.284 53.9989 423.763 53.1731L424.303 52.2497C424.949 51.1399 425.584 51.1832 425.853 51.2677C426.632 51.5148 427.354 51.6753 428.158 51.8855C428.453 51.9614 428.956 52.176 428.956 53.5004V54.4931C428.956 55.4447 429.737 56.2272 430.691 56.2272H433.52C434.477 56.2272 435.253 55.4469 435.253 54.4931V53.5004C435.253 52.176 435.756 51.9635 436.051 51.8855C436.855 51.6753 437.577 51.5148 438.354 51.2677C438.625 51.181 439.26 51.1377 439.906 52.2497L440.446 53.1731C440.925 53.9989 441.992 54.2785 442.816 53.7995L445.262 52.3775C446.088 51.8985 446.368 50.8342 445.888 50.0084L445.348 49.0828C444.711 47.9881 444.989 47.4939 445.186 47.3162C445.732 46.8285 446.235 46.3017 446.743 45.775C446.892 45.6189 447.363 45.09 448.605 45.814L449.457 46.3104C450.284 46.7894 451.35 46.5055 451.83 45.684L453.252 43.2389C453.731 42.413 453.451 41.3466 452.625 40.8675L451.782 40.3776C450.615 39.7013 450.646 39.3524 450.793 38.8581C450.997 38.1819 451.214 37.5012 451.363 36.7989C451.496 36.1746 451.435 35.7259 453.02 35.7259H453.991C454.948 35.7259 455.726 34.9478 455.726 33.9918V31.1653C455.726 30.2094 454.948 29.429 453.991 29.429H453.02C451.435 29.429 451.493 28.9825 451.363 28.3561C451.214 27.6537 450.997 26.9775 450.793 26.2968C450.646 25.8026 450.618 25.4558 451.782 24.7773L452.625 24.2896C453.451 23.8084 453.731 22.7419 453.252 21.9183L451.83 19.471C451.35 18.6473 450.284 18.3655 449.457 18.8467L448.605 19.341C447.363 20.0649 446.89 19.536 446.743 19.3821C446.235 18.8554 445.732 18.3265 445.186 17.841C444.991 17.6632 444.711 17.1668 445.348 16.0744L445.888 15.1445C446.368 14.3208 446.088 13.2543 445.262 12.7752L442.816 11.3533C441.992 10.8743 440.925 11.1582 440.446 11.9797L439.906 12.9053C439.26 14.0151 438.625 13.9718 438.354 13.8872C437.575 13.638 436.855 13.4776 436.051 13.2673C435.756 13.1936 435.253 12.9768 435.253 11.6524V10.6618C435.253 9.70591 434.474 8.92773 433.52 8.92773H430.691C429.737 8.92773 428.956 9.70591 428.956 10.6618V11.6524C428.956 12.9768 428.453 13.1914 428.158 13.2673C427.354 13.4776 426.634 13.638 425.853 13.8872C425.582 13.9739 424.949 14.0173 424.303 12.9053L423.763 11.9797C423.284 11.156 422.217 10.8743 421.391 11.3533ZM432.105 28.8438C434.169 28.8438 435.841 30.5172 435.841 32.5786C435.841 34.64 434.169 36.3134 432.105 36.3134C430.04 36.3134 428.369 34.6421 428.369 32.5786C428.369 30.515 430.042 28.8438 432.105 28.8438ZM420.394 32.5786C420.394 32.1385 420.753 31.7787 421.194 31.7787C421.634 31.7787 421.994 32.1385 421.994 32.5786C421.994 35.3705 423.123 37.8979 424.953 39.7274C426.784 41.5568 429.312 42.6883 432.105 42.6883C432.545 42.6883 432.905 43.0438 432.905 43.486C432.905 43.9282 432.545 44.2859 432.105 44.2859C428.872 44.2859 425.942 42.9766 423.824 40.8567C421.707 38.7389 420.394 35.8105 420.394 32.5786ZM443.662 30.6927C443.729 31.1263 443.434 31.536 442.998 31.6031C442.564 31.6725 442.155 31.3755 442.085 30.942C441.743 28.8221 440.739 26.9276 439.292 25.4666C437.846 24.0035 435.955 22.9825 433.839 22.6162C433.403 22.5425 433.111 22.1307 433.184 21.6972C433.258 21.2615 433.67 20.9688 434.106 21.0425C436.556 21.4652 438.744 22.6487 440.42 24.3416C442.094 26.0345 443.258 28.2347 443.657 30.6927H443.662ZM432.105 18.7058C439.767 18.7058 445.979 24.9161 445.979 32.5764C445.979 40.2368 439.767 46.447 432.105 46.447C424.442 46.447 418.23 40.2368 418.23 32.5764C418.23 24.9161 424.442 18.7058 432.105 18.7058Z" fill="white"/>
</svg>
