<svg width="426" height="284" viewBox="0 0 426 284" fill="none" xmlns="http://www.w3.org/2000/svg">
<path d="M282.225 167.497C282.138 167.497 282.05 167.463 281.984 167.397L266.936 152.377C266.872 152.313 266.836 152.226 266.836 152.135V3.33892C266.836 3.15058 266.989 2.99805 267.177 2.99805C267.366 2.99805 267.519 3.15073 267.519 3.33892V151.994L282.466 166.915C282.6 167.048 282.6 167.264 282.466 167.397C282.4 167.463 282.312 167.497 282.225 167.497Z" fill="#9071DE"/>
<path d="M254.646 184.709C254.457 184.709 254.305 184.556 254.305 184.368V10.9797C254.305 10.7914 254.457 10.6387 254.646 10.6387C254.835 10.6387 254.987 10.7914 254.987 10.9797V184.368C254.987 184.556 254.835 184.709 254.646 184.709Z" fill="#9071DE"/>
<path d="M229.583 147.723C229.395 147.723 229.242 147.57 229.242 147.382V26.2354C229.242 26.0471 229.395 25.8945 229.583 25.8945C229.772 25.8945 229.925 26.0472 229.925 26.2354V147.382C229.925 147.57 229.772 147.723 229.583 147.723Z" fill="#9071DE"/>
<path d="M279.708 128.721C279.52 128.721 279.367 128.569 279.367 128.38V10.9805C279.367 10.7922 279.52 10.6396 279.708 10.6396C279.897 10.6396 280.05 10.7923 280.05 10.9805V128.38C280.05 128.569 279.897 128.721 279.708 128.721Z" fill="#9071DE"/>
<path d="M292.24 150.89C292.051 150.89 291.898 150.737 291.898 150.549V26.2354C291.898 26.0471 292.051 25.8945 292.24 25.8945C292.429 25.8945 292.581 26.0472 292.581 26.2354V150.549C292.581 150.737 292.428 150.89 292.24 150.89Z" fill="#9071DE"/>
<path d="M242.114 128.721C241.926 128.721 241.773 128.568 241.773 128.38V18.3496L227.295 7.70144C227.143 7.58968 227.111 7.37622 227.223 7.22477C227.334 7.07301 227.548 7.04077 227.7 7.15238L242.317 17.9027C242.404 17.9669 242.456 18.0689 242.456 18.1772V128.38C242.456 128.568 242.303 128.721 242.114 128.721Z" fill="#9071DE"/>
<path d="M242.466 130.098C244.381 130.098 245.933 128.549 245.933 126.638C245.933 124.727 244.381 123.178 242.466 123.178C240.552 123.178 239 124.727 239 126.638C239 128.549 240.552 130.098 242.466 130.098Z" fill="#7D52EA"/>
<path d="M283.169 171.62C285.084 171.62 286.636 170.071 286.636 168.16C286.636 166.249 285.084 164.7 283.169 164.7C281.255 164.7 279.703 166.249 279.703 168.16C279.703 170.071 281.255 171.62 283.169 171.62Z" fill="white"/>
<path d="M283.167 171.961C281.068 171.961 279.359 170.256 279.359 168.16C279.359 166.065 281.068 164.359 283.167 164.359C285.267 164.359 286.975 166.065 286.975 168.16C286.975 170.256 285.267 171.961 283.167 171.961ZM283.167 165.041C281.444 165.041 280.042 166.44 280.042 168.16C280.042 169.88 281.444 171.279 283.167 171.279C284.89 171.279 286.292 169.88 286.292 168.16C286.292 166.44 284.89 165.041 283.167 165.041Z" fill="#9071DE"/>
<path d="M229.595 151.571C231.509 151.566 233.057 150.013 233.052 148.102C233.046 146.191 231.49 144.646 229.576 144.651C227.661 144.657 226.114 146.21 226.119 148.121C226.124 150.032 227.681 151.577 229.595 151.571Z" fill="white"/>
<path d="M229.581 151.916C227.482 151.916 225.773 150.211 225.773 148.115C225.773 146.02 227.482 144.314 229.581 144.314C231.681 144.314 233.389 146.02 233.389 148.115C233.389 150.211 231.681 151.916 229.581 151.916ZM229.581 144.996C227.858 144.996 226.456 146.396 226.456 148.115C226.456 149.835 227.858 151.234 229.581 151.234C231.304 151.234 232.706 149.835 232.706 148.115C232.706 146.396 231.304 144.996 229.581 144.996Z" fill="#9071DE"/>
<path d="M267.187 7.58569C269.102 7.58072 270.65 6.02762 270.645 4.11674C270.64 2.20587 269.084 0.660832 267.169 0.665803C265.255 0.670775 263.707 2.22387 263.712 4.13475C263.717 6.04562 265.273 7.59066 267.187 7.58569Z" fill="white"/>
<path d="M267.175 7.92309C265.075 7.92309 263.367 6.21808 263.367 4.12227C263.367 2.02646 265.075 0.321289 267.175 0.321289C269.274 0.321289 270.982 2.02646 270.982 4.12227C270.982 6.21808 269.274 7.92309 267.175 7.92309ZM267.175 1.0032C265.452 1.0032 264.05 2.40237 264.05 4.12227C264.05 5.84201 265.452 7.24118 267.175 7.24118C268.898 7.24118 270.3 5.84201 270.3 4.12227C270.3 2.40237 268.898 1.0032 267.175 1.0032Z" fill="#9071DE"/>
<path d="M227.509 10.542C229.424 10.5367 230.971 8.98327 230.966 7.07239C230.96 5.16152 229.404 3.61679 227.49 3.62214C225.575 3.6275 224.028 5.18091 224.033 7.09178C224.038 9.00266 225.595 10.5474 227.509 10.542Z" fill="white"/>
<path d="M227.495 10.887C225.395 10.887 223.688 9.18179 223.688 7.08598C223.688 4.99017 225.395 3.28516 227.495 3.28516C229.595 3.28516 231.303 4.99017 231.303 7.08598C231.303 9.18194 229.595 10.887 227.495 10.887ZM227.495 3.96707C225.772 3.96707 224.37 5.36624 224.37 7.08598C224.37 8.80587 225.772 10.205 227.495 10.205C229.218 10.205 230.62 8.80587 230.62 7.08598C230.62 5.36624 229.218 3.96707 227.495 3.96707Z" fill="#9071DE"/>
<path d="M186.373 99.658C186.285 99.658 186.198 99.6247 186.131 99.5582C185.998 99.425 185.998 99.2091 186.131 99.0759L189.385 95.8282C189.449 95.7645 189.536 95.7285 189.626 95.7285H321.525C321.714 95.7285 321.867 95.8812 321.867 96.0694C321.867 96.2577 321.714 96.4104 321.525 96.4104H189.767L186.614 99.5585C186.547 99.6248 186.46 99.658 186.373 99.658Z" fill="#9071DE"/>
<path d="M193.392 138.851H184.419C184.231 138.851 184.078 138.698 184.078 138.51C184.078 138.321 184.231 138.169 184.419 138.169H193.25L223.155 108.336C223.219 108.272 223.306 108.236 223.397 108.236H312.419C312.509 108.236 312.596 108.272 312.66 108.336L335.132 130.767C335.265 130.9 335.265 131.116 335.132 131.249C334.999 131.382 334.782 131.382 334.649 131.249L312.278 108.918H223.538L193.633 138.751C193.569 138.815 193.482 138.851 193.392 138.851Z" fill="#9071DE"/>
<path d="M371.111 58.8871H169.65C169.539 58.8871 169.435 58.8331 169.37 58.7426L150.547 32.0677C150.438 31.9138 150.475 31.7011 150.629 31.5926C150.783 31.4841 150.997 31.521 151.105 31.6749L169.827 58.2053H370.97L396.809 32.4126C396.943 32.2797 397.159 32.2796 397.292 32.4127C397.425 32.5459 397.425 32.7618 397.292 32.895L371.353 58.7874C371.288 58.8511 371.202 58.8871 371.111 58.8871Z" fill="#9071DE"/>
<path d="M167.872 82.234C167.785 82.234 167.698 82.2008 167.631 82.1346C167.498 82.0016 167.498 81.7857 167.631 81.6524L178.484 70.7766C178.548 70.7126 178.635 70.6763 178.726 70.6763H221.071L300.64 71.3941H373.624L388.79 56.255C388.924 56.1221 389.14 56.1219 389.273 56.2551C389.406 56.3883 389.406 56.6042 389.273 56.7374L374.007 71.9762C373.943 72.0399 373.856 72.0758 373.765 72.0758H300.637L221.068 71.3581H178.867L168.114 82.1337C168.048 82.2007 167.96 82.234 167.872 82.234Z" fill="#9071DE"/>
<path d="M387.296 121.708C387.209 121.708 387.121 121.675 387.055 121.608L349.281 83.9028H209.74C209.551 83.9028 209.398 83.7501 209.398 83.5617C209.398 83.3734 209.551 83.2207 209.74 83.2207H349.422C349.512 83.2207 349.6 83.2567 349.664 83.3204L387.537 121.126C387.671 121.259 387.671 121.475 387.537 121.608C387.471 121.675 387.383 121.708 387.296 121.708Z" fill="#9071DE"/>
<path d="M321.506 46.379H199.498C199.309 46.379 199.156 46.2264 199.156 46.038C199.156 45.8497 199.309 45.6971 199.498 45.6971H321.36L334.03 32.418C334.16 32.2818 334.376 32.277 334.512 32.4064C334.649 32.5365 334.654 32.7523 334.524 32.8885L321.753 46.2733C321.689 46.3408 321.599 46.379 321.506 46.379Z" fill="#9071DE"/>
<path d="M334.818 35.331C336.732 35.331 338.284 33.782 338.284 31.8711C338.284 29.9602 336.732 28.4111 334.818 28.4111C332.904 28.4111 331.352 29.9602 331.352 31.8711C331.352 33.782 332.904 35.331 334.818 35.331Z" fill="#7D52EA"/>
<path d="M397.443 36.1133C399.357 36.1133 400.909 34.5642 400.909 32.6533C400.909 30.7424 399.357 29.1934 397.443 29.1934C395.528 29.1934 393.977 30.7424 393.977 32.6533C393.977 34.5642 395.528 36.1133 397.443 36.1133Z" fill="white"/>
<path d="M397.441 36.4543C395.341 36.4543 393.633 34.7493 393.633 32.6535C393.633 30.5577 395.341 28.8525 397.441 28.8525C399.54 28.8525 401.248 30.5577 401.248 32.6535C401.248 34.7493 399.54 36.4543 397.441 36.4543ZM397.441 29.5345C395.717 29.5345 394.316 30.9336 394.316 32.6535C394.316 34.3733 395.717 35.7724 397.441 35.7724C399.164 35.7724 400.566 34.3733 400.566 32.6535C400.566 30.9336 399.164 29.5345 397.441 29.5345Z" fill="#9071DE"/>
<path d="M389.544 59.956C391.459 59.956 393.011 58.407 393.011 56.4961C393.011 54.5852 391.459 53.0361 389.544 53.0361C387.63 53.0361 386.078 54.5852 386.078 56.4961C386.078 58.407 387.63 59.956 389.544 59.956Z" fill="#7D52EA"/>
<path d="M337.251 130.707C337.255 128.796 335.706 127.244 333.791 127.241C331.877 127.237 330.322 128.783 330.319 130.694C330.315 132.605 331.864 134.157 333.779 134.161C335.693 134.164 337.248 132.618 337.251 130.707Z" fill="white"/>
<path d="M333.8 134.509C331.7 134.509 329.992 132.804 329.992 130.708C329.992 128.612 331.7 126.907 333.8 126.907C335.899 126.907 337.607 128.612 337.607 130.708C337.607 132.804 335.899 134.509 333.8 134.509ZM333.8 127.589C332.077 127.589 330.675 128.988 330.675 130.708C330.675 132.428 332.077 133.827 333.8 133.827C335.523 133.827 336.925 132.428 336.925 130.708C336.925 128.988 335.523 127.589 333.8 127.589Z" fill="#9071DE"/>
<path d="M201.947 46.0418C201.95 44.1309 200.401 42.579 198.487 42.5756C196.572 42.5722 195.017 44.1184 195.014 46.0293C195.011 47.9402 196.56 49.492 198.474 49.4955C200.388 49.4989 201.943 47.9526 201.947 46.0418Z" fill="white"/>
<path d="M198.487 49.8391C196.388 49.8391 194.68 48.1341 194.68 46.0383C194.68 43.9425 196.388 42.2373 198.487 42.2373C200.587 42.2373 202.295 43.9425 202.295 46.0383C202.295 48.1341 200.587 49.8391 198.487 49.8391ZM198.487 42.9192C196.764 42.9192 195.362 44.3184 195.362 46.0383C195.362 47.758 196.764 49.1572 198.487 49.1572C200.211 49.1572 201.612 47.758 201.612 46.0383C201.612 44.3184 200.21 42.9192 198.487 42.9192Z" fill="#9071DE"/>
<path d="M260.971 125.17L254.935 121.869C224.628 105.293 217.842 74.687 214.945 40.3518L217.188 40.0023C237.648 38.5761 247.664 35.1536 260.971 20.209C276.853 34.5831 292.02 39.8293 306.891 39.8293L307.038 39.8597C304.292 74.4669 297.384 105.356 266.813 121.991L260.971 125.17Z" fill="#7979F7"/>
<path d="M248.302 109.289C248.192 109.289 248.081 109.254 247.988 109.181C239.377 102.493 233.199 93.5862 229.104 81.9529C224.987 70.2588 223.467 57.0065 222.603 46.7678C222.581 46.5002 222.769 46.2609 223.035 46.2195L224.881 45.9318C224.895 45.9294 224.91 45.9279 224.924 45.9268C240.967 44.8087 249.472 42.3215 260.616 29.8044C260.707 29.7026 260.835 29.641 260.972 29.6336C261.112 29.626 261.242 29.6737 261.343 29.7655C273.253 40.5439 285.504 45.7833 298.798 45.7833C298.833 45.7833 298.868 45.7868 298.902 45.794L299.023 45.8189C299.3 45.876 299.478 46.1466 299.421 46.4232C299.364 46.6996 299.092 46.8787 298.816 46.8205L298.746 46.8062C285.35 46.7927 273.01 41.5774 261.038 30.868C249.827 43.3156 241.176 45.818 225.017 46.9457L223.665 47.1567C225.976 74.0818 231.145 94.8033 248.617 108.374C248.84 108.547 248.88 108.868 248.707 109.091C248.605 109.221 248.454 109.289 248.302 109.289Z" fill="white"/>
<path d="M260.997 117.054C260.816 117.054 260.64 116.957 260.547 116.787C260.412 116.539 260.503 116.228 260.752 116.093L265.56 113.476C283.072 103.948 292.659 88.0904 296.645 62.0602C296.688 61.781 296.953 61.5894 297.229 61.6319C297.508 61.6747 297.7 61.9355 297.657 62.2147C293.618 88.5917 283.87 104.678 266.05 114.375L261.242 116.991C261.164 117.034 261.08 117.054 260.997 117.054Z" fill="white"/>
<path d="M275.701 68.4268H246.283C245.178 68.4268 244.281 69.3197 244.281 70.4212V79.2192C244.281 86.731 250.393 92.8203 257.933 92.8203H264.051C271.591 92.8203 277.703 86.7308 277.703 79.2192V70.4212C277.703 69.3197 276.807 68.4268 275.701 68.4268Z" fill="white"/>
<path d="M272.918 66.0964C272.239 66.0964 271.689 65.5484 271.689 64.8724V60.74C271.689 55.9007 267.738 51.9636 262.88 51.9636H259.102C254.245 51.9636 250.293 55.9007 250.293 60.74V64.8724C250.293 65.5484 249.743 66.0964 249.065 66.0964C248.386 66.0964 247.836 65.5484 247.836 64.8724V60.74C247.836 54.5508 252.89 49.5156 259.102 49.5156H262.88C269.092 49.5156 274.146 54.5508 274.146 60.74V64.8724C274.146 65.5484 273.596 66.0964 272.918 66.0964Z" fill="white"/>
<path d="M264.007 76.6136C264.007 74.9544 262.657 73.6094 260.992 73.6094C259.327 73.6094 257.977 74.9544 257.977 76.6136C257.977 77.7506 258.611 78.7398 259.546 79.2499V85.0408C259.546 85.8367 260.193 86.4819 260.992 86.4819C261.791 86.4819 262.438 85.8367 262.438 85.0408V79.2499C263.373 78.7398 264.007 77.7506 264.007 76.6136Z" fill="#7D52EA"/>
<path d="M378.65 27.2588C380.69 25.7691 382.947 26.0831 383.408 26.1574C383.342 25.8402 383.262 25.3738 383.23 24.8072C382.936 19.6351 387.097 14.6644 391.414 12.2643C392.968 11.3998 397.362 9.30147 402.742 10.5622C411.132 12.5284 414.168 20.8472 414.379 21.4579C415.035 21.3048 415.719 21.2234 416.421 21.2234C421.356 21.2234 425.356 25.2186 425.356 30.147C425.356 35.0753 421.356 39.0705 416.421 39.0705H382.613C378.913 38.4156 376.278 35.6234 376.124 32.5898C376.034 30.8006 376.791 28.6166 378.65 27.2588Z" fill="#E2EAFF"/>
<path d="M395.523 138.455C404.971 138.455 412.631 130.805 412.631 121.367C412.631 111.93 404.971 104.279 395.523 104.279C386.074 104.279 378.414 111.93 378.414 121.367C378.414 130.805 386.074 138.455 395.523 138.455Z" fill="white"/>
<path d="M395.51 138.806C392.956 138.806 390.414 138.239 388.039 137.113C383.828 135.116 380.647 131.602 379.083 127.216C377.519 122.831 377.759 118.099 379.757 113.894C381.756 109.688 385.275 106.512 389.666 104.949C394.057 103.387 398.794 103.627 403.005 105.623C407.215 107.619 410.396 111.134 411.96 115.519C415.189 124.572 410.441 134.561 401.377 137.786C399.463 138.467 397.483 138.806 395.51 138.806ZM395.506 104.62C393.642 104.62 391.749 104.932 389.895 105.592C381.186 108.69 376.624 118.288 379.727 126.987C382.169 133.835 388.644 138.115 395.538 138.116C397.401 138.116 399.295 137.803 401.148 137.144C409.858 134.045 414.419 124.447 411.317 115.748C408.875 108.9 402.399 104.62 395.506 104.62Z" fill="#9071DE"/>
<path d="M382.609 132.294C382.41 132.294 382.214 132.279 382.022 132.248C381.836 132.218 381.709 132.043 381.739 131.857C381.769 131.671 381.944 131.544 382.13 131.575C383.523 131.8 385.079 130.986 385.542 130.109C386.021 129.201 385.851 128.03 385.136 127.324C384.974 127.165 384.785 127.021 384.584 126.868C384.136 126.529 383.674 126.178 383.469 125.61C383.111 124.615 383.817 123.527 384.7 122.966C385.227 122.632 385.809 122.425 386.373 122.225C386.681 122.116 387 122.003 387.297 121.873C390.082 120.649 391.765 117.322 391.129 114.298C390.535 111.473 388.159 109.032 385.077 108.079C384.897 108.023 384.796 107.832 384.852 107.652C384.907 107.473 385.098 107.371 385.279 107.428C388.594 108.453 391.153 111.094 391.797 114.158C392.497 117.485 390.641 121.148 387.571 122.497C387.252 122.638 386.921 122.755 386.601 122.868C386.049 123.064 385.528 123.249 385.066 123.542C384.429 123.946 383.877 124.728 384.112 125.379C384.247 125.757 384.612 126.033 384.997 126.325C385.206 126.485 385.423 126.649 385.616 126.839C386.539 127.751 386.762 129.26 386.145 130.428C385.57 131.518 384.042 132.294 382.609 132.294Z" fill="#9071DE"/>
<path d="M405.105 135.738C405.089 135.738 405.073 135.737 405.057 135.735C401.655 135.262 397.873 133.586 395.186 131.362C393.573 130.026 392.775 128.663 392.814 127.311C392.853 125.957 393.78 124.646 395.176 123.971C396.261 123.446 397.62 123.276 399.215 123.465C400 123.559 400.779 123.724 401.533 123.884C402.045 123.993 402.574 124.106 403.095 124.193C403.665 124.289 404.373 124.351 404.794 123.982C405.301 123.538 405.197 122.638 404.87 121.944C404.766 121.725 404.648 121.511 404.523 121.286C404.205 120.714 403.876 120.122 403.81 119.433C403.65 117.782 405.07 116.464 406.487 116.063C407.792 115.694 409.947 116.113 411.373 116.39L411.768 116.466C411.953 116.501 412.075 116.679 412.04 116.864C412.004 117.049 411.828 117.171 411.641 117.136L411.242 117.059C409.88 116.794 407.823 116.394 406.673 116.719C405.505 117.05 404.369 118.131 404.489 119.367C404.542 119.916 404.823 120.421 405.119 120.955C405.245 121.18 405.374 121.414 405.488 121.653C405.892 122.511 406.071 123.77 405.244 124.495C404.608 125.053 403.702 124.986 402.983 124.866C402.447 124.776 401.91 124.662 401.391 124.552C400.653 124.395 399.889 124.232 399.134 124.143C397.671 123.969 396.44 124.117 395.473 124.585C394.322 125.141 393.528 126.245 393.497 127.331C393.464 128.462 394.179 129.642 395.623 130.837C398.217 132.985 401.868 134.603 405.152 135.059C405.338 135.085 405.469 135.258 405.443 135.444C405.419 135.615 405.272 135.738 405.105 135.738Z" fill="#9071DE"/>
<path d="M403.376 112.233C402.232 112.233 401.091 111.663 400.456 110.694C400.197 110.299 400.024 109.858 399.857 109.433C399.612 108.808 399.381 108.218 398.912 107.85C398.463 107.498 397.828 107.394 397.21 107.333L397.002 107.314C396.381 107.257 395.739 107.197 395.148 106.907C394.368 106.524 393.635 105.911 394.113 104.269C394.165 104.089 394.354 103.984 394.535 104.037C394.717 104.089 394.821 104.279 394.768 104.46C394.386 105.774 394.976 106.063 395.449 106.295C395.927 106.53 396.48 106.581 397.065 106.635L397.277 106.655C397.998 106.725 398.746 106.854 399.333 107.314C399.949 107.796 400.225 108.502 400.493 109.184C400.654 109.596 400.807 109.985 401.027 110.321C401.687 111.328 403.095 111.805 404.232 111.409C405.376 111.01 406.282 109.611 406.17 108.415C406.153 108.227 406.291 108.061 406.478 108.043C406.663 108.025 406.832 108.164 406.85 108.351C406.99 109.856 405.894 111.551 404.457 112.053C404.108 112.174 403.741 112.233 403.376 112.233Z" fill="#9071DE"/>
<path d="M254.641 207.766C264.142 207.766 271.844 200.073 271.844 190.584C271.844 181.094 264.142 173.401 254.641 173.401C245.14 173.401 237.438 181.094 237.438 190.584C237.438 200.073 245.14 207.766 254.641 207.766Z" fill="white"/>
<path d="M254.638 208.107C244.964 208.107 237.094 200.246 237.094 190.584C237.094 180.922 244.964 173.061 254.638 173.061C264.312 173.061 272.183 180.922 272.183 190.584C272.183 200.246 264.312 208.107 254.638 208.107ZM254.638 173.742C245.341 173.742 237.776 181.297 237.776 190.584C237.776 199.87 245.341 207.425 254.638 207.425C263.936 207.425 271.5 199.87 271.5 190.584C271.5 181.297 263.936 173.742 254.638 173.742Z" fill="#9071DE"/>
<path d="M254.12 202.645C254.071 202.645 254.022 202.644 253.973 202.641C252.519 202.561 251.4 201.315 251.48 199.862C251.481 199.855 251.481 199.848 251.481 199.841C250.742 199.59 250.037 199.252 249.379 198.833C249.373 198.838 249.368 198.843 249.363 198.847C248.838 199.318 248.157 199.555 247.456 199.517C246.752 199.478 246.104 199.168 245.634 198.643C244.662 197.559 244.753 195.888 245.838 194.917C245.843 194.912 245.848 194.908 245.853 194.903C245.509 194.204 245.249 193.467 245.08 192.705C245.073 192.704 245.066 192.704 245.059 192.704C244.355 192.665 243.708 192.355 243.237 191.83C242.766 191.305 242.528 190.628 242.567 189.925C242.605 189.221 242.916 188.574 243.441 188.104C243.966 187.633 244.644 187.395 245.348 187.434C245.355 187.434 245.362 187.435 245.369 187.435C245.62 186.695 245.959 185.991 246.378 185.334C246.373 185.329 246.368 185.324 246.363 185.318C245.392 184.235 245.483 182.564 246.568 181.592C247.093 181.122 247.768 180.885 248.475 180.922C249.179 180.961 249.827 181.271 250.298 181.796C250.302 181.801 250.307 181.807 250.311 181.812C251.011 181.467 251.749 181.208 252.511 181.039C252.512 181.032 252.512 181.026 252.512 181.019C252.551 180.314 252.862 179.668 253.387 179.197C253.912 178.727 254.587 178.49 255.294 178.527C256.748 178.607 257.866 179.853 257.787 181.306C257.786 181.313 257.786 181.32 257.786 181.327C258.525 181.578 259.23 181.916 259.888 182.335C259.894 182.33 259.899 182.326 259.904 182.321C260.429 181.851 261.107 181.61 261.811 181.651C262.515 181.69 263.163 182 263.633 182.525C264.605 183.608 264.513 185.28 263.429 186.251C263.424 186.256 263.419 186.261 263.414 186.265C263.758 186.964 264.018 187.701 264.187 188.464C264.194 188.464 264.201 188.464 264.208 188.465C264.912 188.503 265.56 188.813 266.03 189.338C266.501 189.863 266.739 190.54 266.7 191.244C266.662 191.947 266.351 192.594 265.826 193.064C265.301 193.535 264.622 193.773 263.919 193.734C263.912 193.734 263.905 193.734 263.898 193.733C263.647 194.473 263.308 195.177 262.889 195.834C262.894 195.839 262.898 195.844 262.903 195.85C263.875 196.933 263.783 198.605 262.699 199.576C262.174 200.046 261.498 200.283 260.792 200.246C260.087 200.207 259.44 199.897 258.969 199.372C258.964 199.367 258.96 199.362 258.955 199.357C258.256 199.701 257.518 199.96 256.756 200.129C256.755 200.136 256.755 200.143 256.755 200.149C256.716 200.854 256.405 201.5 255.88 201.971C255.391 202.409 254.771 202.645 254.12 202.645ZM254.01 201.96C254.532 201.989 255.035 201.812 255.424 201.463C255.814 201.114 256.044 200.635 256.073 200.113C256.077 200.033 256.075 199.953 256.07 199.874C256.059 199.703 256.177 199.549 256.346 199.517C257.236 199.348 258.092 199.047 258.891 198.623C259.044 198.542 259.232 198.588 259.331 198.729C259.376 198.794 259.424 198.857 259.478 198.917C259.827 199.306 260.307 199.536 260.83 199.565C261.347 199.594 261.854 199.417 262.243 199.068C263.048 198.348 263.115 197.108 262.395 196.305C262.341 196.245 262.284 196.19 262.224 196.139C262.094 196.025 262.07 195.833 262.167 195.69C262.674 194.944 263.067 194.126 263.334 193.26C263.384 193.095 263.549 192.994 263.72 193.025C263.797 193.038 263.876 193.049 263.957 193.054C264.479 193.083 264.981 192.906 265.37 192.557C265.76 192.208 265.99 191.728 266.019 191.206C266.048 190.685 265.871 190.183 265.522 189.793C265.172 189.404 264.693 189.174 264.17 189.146C264.09 189.141 264.011 189.143 263.932 189.148C263.764 189.163 263.607 189.042 263.574 188.872C263.404 187.983 263.103 187.127 262.679 186.329C262.599 186.177 262.644 185.989 262.785 185.891C262.85 185.845 262.913 185.797 262.973 185.744C263.778 185.023 263.845 183.784 263.124 182.98C262.775 182.591 262.296 182.361 261.773 182.332C261.251 182.305 260.749 182.48 260.359 182.829C260.299 182.883 260.245 182.94 260.193 182.999C260.08 183.129 259.887 183.154 259.744 183.057C258.996 182.549 258.178 182.157 257.312 181.891C257.147 181.841 257.046 181.676 257.076 181.506C257.089 181.429 257.101 181.35 257.105 181.27C257.164 180.192 256.335 179.267 255.257 179.208C254.736 179.18 254.232 179.356 253.842 179.705C253.453 180.054 253.222 180.533 253.194 181.056C253.19 181.136 253.192 181.215 253.197 181.294C253.208 181.466 253.089 181.619 252.92 181.651C252.031 181.821 251.174 182.122 250.375 182.545C250.223 182.626 250.034 182.58 249.935 182.439C249.89 182.375 249.842 182.311 249.788 182.251C249.439 181.862 248.959 181.632 248.437 181.603C247.917 181.575 247.413 181.751 247.023 182.1C246.219 182.82 246.151 184.06 246.872 184.864C246.926 184.924 246.983 184.978 247.042 185.03C247.172 185.143 247.197 185.336 247.1 185.478C246.592 186.225 246.199 187.042 245.933 187.908C245.882 188.073 245.717 188.174 245.547 188.144C245.47 188.13 245.391 188.119 245.31 188.115C244.793 188.085 244.286 188.263 243.896 188.611C243.507 188.96 243.276 189.44 243.248 189.962C243.219 190.484 243.396 190.986 243.745 191.375C244.094 191.764 244.574 191.994 245.096 192.023C245.177 192.027 245.256 192.025 245.335 192.02C245.507 192.004 245.66 192.127 245.693 192.296C245.863 193.186 246.163 194.041 246.587 194.839C246.668 194.991 246.622 195.18 246.481 195.278C246.416 195.323 246.354 195.371 246.294 195.424C245.489 196.145 245.421 197.385 246.142 198.188C246.491 198.578 246.971 198.808 247.493 198.836C248.013 198.864 248.518 198.688 248.907 198.339C248.968 198.285 249.022 198.228 249.073 198.169C249.187 198.039 249.379 198.014 249.522 198.111C250.271 198.619 251.089 199.012 251.955 199.277C252.119 199.328 252.221 199.493 252.191 199.662C252.177 199.739 252.166 199.818 252.162 199.898C252.103 200.976 252.932 201.901 254.01 201.96ZM254.636 195.193C254.552 195.193 254.467 195.19 254.381 195.186C251.842 195.047 249.889 192.87 250.028 190.332C250.095 189.104 250.638 187.974 251.555 187.152C252.473 186.331 253.653 185.917 254.886 185.983C257.425 186.121 259.378 188.299 259.239 190.836C259.105 193.288 257.065 195.193 254.636 195.193ZM254.419 194.505C256.579 194.621 258.438 192.96 258.557 190.799C258.675 188.637 257.012 186.782 254.848 186.664C253.801 186.608 252.792 186.96 252.011 187.66C251.229 188.36 250.767 189.323 250.709 190.37C250.591 192.531 252.255 194.386 254.419 194.505Z" fill="#9071DE"/>
<path d="M292.235 180.168C301.594 180.168 309.18 172.59 309.18 163.243C309.18 153.895 301.594 146.317 292.235 146.317C282.876 146.317 275.289 153.895 275.289 163.243C275.289 172.59 282.876 180.168 292.235 180.168Z" fill="white"/>
<path d="M292.232 180.509C282.7 180.509 274.945 172.763 274.945 163.243C274.945 153.722 282.7 145.977 292.232 145.977C301.764 145.977 309.519 153.722 309.519 163.243C309.519 172.763 301.764 180.509 292.232 180.509ZM292.232 146.658C283.077 146.658 275.628 154.098 275.628 163.243C275.628 172.387 283.077 179.827 292.232 179.827C301.388 179.827 308.837 172.387 308.837 163.243C308.837 154.098 301.388 146.658 292.232 146.658Z" fill="#9071DE"/>
<path d="M282.831 170.019C282.741 170.019 282.655 169.983 282.591 169.92C282.526 169.856 282.49 169.77 282.49 169.679L282.445 156.896C282.445 156.708 282.597 156.555 282.785 156.554L301.638 156.467C301.719 156.477 301.815 156.502 301.88 156.566C301.944 156.629 301.981 156.716 301.981 156.807L302.025 169.59C302.026 169.778 301.874 169.931 301.686 169.932L282.833 170.019C282.832 170.019 282.832 170.019 282.831 170.019ZM283.13 157.234L283.171 169.336L301.341 169.252L301.3 157.15L283.13 157.234Z" fill="#9071DE"/>
<path d="M292.252 164.861C292.177 164.861 292.102 164.837 292.04 164.788L283.263 157.88C283.115 157.764 283.089 157.549 283.206 157.402C283.323 157.254 283.537 157.228 283.686 157.345L292.247 164.083L300.632 157.205C300.778 157.086 300.993 157.107 301.112 157.253C301.232 157.398 301.211 157.613 301.065 157.732L292.468 164.784C292.406 164.836 292.329 164.861 292.252 164.861Z" fill="#9071DE"/>
<path d="M300.813 169.035C300.714 169.035 300.616 168.992 300.549 168.91L295.125 162.318C295.005 162.173 295.026 161.958 295.172 161.838C295.317 161.719 295.533 161.74 295.652 161.885L301.077 168.477C301.196 168.623 301.175 168.838 301.029 168.957C300.966 169.009 300.889 169.035 300.813 169.035Z" fill="#9071DE"/>
<path d="M283.591 169.035C283.515 169.035 283.438 169.009 283.375 168.957C283.229 168.838 283.208 168.623 283.328 168.477L288.752 161.885C288.872 161.74 289.087 161.719 289.233 161.838C289.378 161.958 289.399 162.173 289.28 162.318L283.855 168.91C283.788 168.992 283.69 169.035 283.591 169.035Z" fill="#9071DE"/>
<path d="M142.188 42.7339C151.547 42.7339 159.133 35.1679 159.133 25.8347C159.133 16.5016 151.547 8.93555 142.188 8.93555C132.829 8.93555 125.242 16.5016 125.242 25.8347C125.242 35.1679 132.829 42.7339 142.188 42.7339Z" fill="white"/>
<path d="M142.185 43.0748C132.653 43.0748 124.898 35.3409 124.898 25.8348C124.898 16.3286 132.653 8.59473 142.185 8.59473C151.717 8.59473 159.472 16.3286 159.472 25.8348C159.472 35.3409 151.717 43.0748 142.185 43.0748ZM142.185 9.27649C133.03 9.27649 125.581 16.7045 125.581 25.8346C125.581 34.9647 133.03 42.3928 142.185 42.3928C151.341 42.3928 158.79 34.9647 158.79 25.8346C158.789 16.7045 151.341 9.27649 142.185 9.27649Z" fill="#9071DE"/>
<path d="M142.316 24.1977C145.256 24.1977 147.639 21.8209 147.639 18.8889C147.639 15.9569 145.256 13.5801 142.316 13.5801C139.376 13.5801 136.992 15.9569 136.992 18.8889C136.992 21.8209 139.376 24.1977 142.316 24.1977Z" fill="#E2EAFF"/>
<path d="M142.316 25.6905C137.149 25.6905 132.754 25.6067 131.117 30.1998C132.754 34.7929 137.149 38.0825 142.316 38.0825C147.483 38.0825 151.878 34.7929 153.515 30.1998C151.878 25.6068 147.484 25.6905 142.316 25.6905Z" fill="#E2EAFF"/>
<path d="M290.277 247.65C292.557 245.551 293.683 243.757 298.161 235.035C303.121 225.374 307.441 217.409 312.993 208.232C317.118 201.414 324.244 196.96 332.189 196.262C351.635 194.555 371.83 194.281 384.817 194.334C393.867 194.371 402.17 199.371 406.4 207.361C414.021 221.755 420.089 237.894 424.375 250.94C428.498 263.487 419.172 276.674 405.95 276.728C385.7 276.81 341.063 276.728 341.063 276.728L330.928 243.251L315.214 265.921C310.521 272.692 305.475 276.708 305.475 276.708C305.475 276.708 289.835 276.698 287.267 276.692C285.91 272.344 284.04 267.451 281.429 262.278C279.981 259.408 278.476 256.793 276.984 254.43C280.645 253.573 285.783 251.787 290.277 247.65Z" fill="white"/>
<path d="M341.061 277.069C340.914 277.069 340.779 276.974 340.734 276.826L330.803 244.026L315.493 266.115C310.825 272.849 305.736 276.934 305.685 276.975C305.625 277.023 305.55 277.049 305.472 277.049C305.472 277.049 305.472 277.049 305.472 277.049C305.472 277.049 289.832 277.039 287.264 277.033C287.115 277.032 286.984 276.935 286.939 276.793C285.4 271.86 283.442 267.028 281.122 262.431C279.778 259.768 278.288 257.137 276.693 254.611C276.634 254.518 276.624 254.402 276.666 254.3C276.708 254.198 276.797 254.123 276.904 254.098C282.12 252.878 286.54 250.624 290.044 247.399C292.3 245.322 293.395 243.567 297.855 234.88C303.368 224.143 307.668 216.372 312.699 208.056C316.869 201.162 324.143 196.626 332.157 195.922C351.438 194.229 371.436 193.939 384.816 193.993C394.021 194.031 402.406 199.092 406.7 207.202C413.104 219.299 419.159 233.978 424.697 250.833C426.438 256.132 425.914 261.759 423.22 266.679C420.56 271.536 416.03 275.097 410.79 276.449C410.608 276.496 410.421 276.387 410.374 276.204C410.327 276.022 410.437 275.836 410.619 275.789C415.677 274.484 420.052 271.044 422.621 266.351C425.223 261.599 425.73 256.164 424.049 251.046C418.523 234.227 412.483 219.583 406.096 207.521C401.921 199.633 393.766 194.711 384.814 194.675C371.447 194.62 351.472 194.911 332.217 196.601C324.419 197.286 317.341 201.7 313.283 208.408C308.261 216.71 303.968 224.469 298.463 235.191C293.955 243.971 292.84 245.752 290.507 247.9C287.02 251.11 282.654 253.379 277.524 254.65C279.035 257.07 280.449 259.582 281.732 262.124C284.032 266.68 285.977 271.466 287.517 276.351C290.541 276.357 303.933 276.366 305.351 276.367C306.053 275.788 310.667 271.88 314.932 265.726L330.645 243.057C330.719 242.949 330.85 242.893 330.979 242.914C331.108 242.934 331.214 243.027 331.252 243.152L341.387 276.629C341.442 276.809 341.34 277 341.159 277.054C341.126 277.064 341.093 277.069 341.061 277.069Z" fill="#476477"/>
<path d="M330.031 242.182C329.887 242.182 329.753 242.09 329.706 241.946L321.548 216.751C321.49 216.572 321.588 216.38 321.768 216.322C321.948 216.265 322.139 216.363 322.197 216.542L330.356 241.736C330.414 241.915 330.316 242.107 330.136 242.165C330.101 242.176 330.066 242.182 330.031 242.182Z" fill="#476477"/>
<path d="M367.99 249.803C367.806 249.803 367.655 249.657 367.649 249.473C367.643 249.284 367.791 249.127 367.979 249.121L395.51 248.263C395.693 248.258 395.856 248.405 395.862 248.593C395.868 248.781 395.72 248.939 395.532 248.944L368.001 249.803C367.997 249.803 367.993 249.803 367.99 249.803Z" fill="#476477"/>
<path d="M388.938 248.988C388.796 248.988 388.663 248.899 388.614 248.757C386.755 243.306 384.564 237.905 382.103 232.704C382.023 232.533 382.095 232.33 382.266 232.25C382.437 232.169 382.64 232.242 382.72 232.412C385.192 237.637 387.393 243.062 389.261 248.537C389.321 248.715 389.226 248.909 389.047 248.969C389.011 248.982 388.974 248.988 388.938 248.988Z" fill="#476477"/>
<path d="M292.293 276.717H241.641C241.641 276.717 238.474 268.113 252.058 261.26C260.103 257.202 280.704 253.758 280.704 253.758C280.704 253.758 289.855 263.717 292.293 276.717Z" fill="white"/>
<path d="M292.291 277.059H241.639C241.496 277.059 241.368 276.97 241.319 276.836C241.286 276.747 238.205 267.866 251.902 260.956C259.902 256.921 280.439 253.456 280.646 253.422C280.759 253.402 280.875 253.443 280.953 253.528C281.046 253.628 290.199 263.709 292.627 276.655C292.646 276.755 292.619 276.858 292.554 276.936C292.489 277.014 292.393 277.059 292.291 277.059ZM241.894 276.377H291.877C289.536 264.625 281.654 255.354 280.573 254.126C278.498 254.482 259.713 257.78 252.21 261.565C240.257 267.594 241.535 275.005 241.894 276.377Z" fill="#476477"/>
<path d="M260.853 276.795C260.768 276.795 260.683 276.764 260.617 276.701C259.705 275.829 259.5 274.27 260.128 272.994C260.627 271.98 261.594 271.126 262.924 270.524C263.885 270.089 264.928 269.814 265.938 269.548C267.645 269.097 269.257 268.672 270.459 267.543C271.658 266.417 272.223 264.647 271.9 263.036C271.863 262.851 271.982 262.671 272.167 262.634C272.351 262.598 272.532 262.717 272.569 262.902C272.938 264.739 272.293 266.756 270.927 268.04C269.599 269.287 267.826 269.755 266.112 270.207C265.13 270.466 264.114 270.734 263.206 271.145C262.38 271.519 261.282 272.195 260.74 273.295C260.311 274.167 260.293 275.447 261.089 276.208C261.225 276.338 261.23 276.554 261.099 276.69C261.032 276.76 260.942 276.795 260.853 276.795Z" fill="#476477"/>
<path d="M247.713 276.276C247.582 276.276 247.457 276.2 247.401 276.073C246.662 274.405 247.306 272.25 249.168 270.161C252.602 266.307 257.43 263.844 261.69 261.671C261.858 261.586 262.064 261.652 262.15 261.819C262.235 261.987 262.169 262.192 262.001 262.278C257.795 264.424 253.027 266.856 249.678 270.614C248.885 271.504 247.137 273.791 248.025 275.797C248.101 275.969 248.023 276.171 247.851 276.247C247.806 276.267 247.759 276.276 247.713 276.276Z" fill="#476477"/>
<path d="M238.677 276.657H319.933C321.951 276.657 323.587 275.022 323.587 273.007C323.587 270.991 321.951 269.356 319.933 269.356H232.406L238.677 276.657Z" fill="#476477"/>
<path d="M238.675 276.648L298.214 275.571L276.93 226.121C276.147 224.318 274.368 223.151 272.4 223.151H217.403C214.615 223.151 212.732 225.994 213.822 228.557L232.687 272.912C233.699 275.291 236.091 276.784 238.675 276.648Z" fill="#476477"/>
<path d="M242.555 239.528C242.555 240.557 243.39 241.391 244.419 241.391C245.449 241.391 246.284 240.557 246.284 239.528C246.284 238.5 245.449 237.666 244.419 237.666C243.39 237.666 242.555 238.5 242.555 239.528Z" fill="#7D52EA"/>
<path d="M364.75 249.636C364.75 249.636 338.951 254.224 328.185 255.821C309.746 258.558 306.438 268.847 305.541 273.109C305.151 274.959 306.586 276.692 308.479 276.692H380.702C380.702 276.692 376.336 255.089 364.75 249.636Z" fill="white"/>
<path d="M380.699 277.033C380.54 277.033 380.398 276.921 380.365 276.759C380.322 276.546 375.924 255.384 364.699 249.991C362.864 250.317 338.526 254.631 328.233 256.159C315.552 258.041 307.82 263.926 305.872 273.179C305.709 273.952 305.904 274.749 306.405 275.365C306.914 275.992 307.669 276.351 308.476 276.351C308.665 276.351 308.818 276.504 308.818 276.692C308.818 276.88 308.665 277.033 308.476 277.033C307.462 277.033 306.514 276.581 305.875 275.795C305.243 275.018 304.999 274.013 305.204 273.038C307.216 263.482 315.144 257.411 328.133 255.484C338.769 253.906 364.429 249.346 364.687 249.3C364.757 249.288 364.828 249.297 364.892 249.327C376.501 254.791 380.855 275.735 381.034 276.624C381.072 276.809 380.952 276.989 380.767 277.026C380.744 277.031 380.722 277.033 380.699 277.033Z" fill="#476477"/>
<path d="M325.381 277.032C325.369 277.032 325.357 277.032 325.345 277.031C323.94 276.886 323.074 275.424 323.078 274.154C323.082 272.833 323.796 271.638 324.416 270.744C327.565 266.213 332.486 263.047 337.918 262.056C338.104 262.024 338.282 262.145 338.315 262.33C338.349 262.515 338.227 262.693 338.041 262.727C332.785 263.685 328.024 266.749 324.977 271.133C324.413 271.945 323.764 273.023 323.761 274.156C323.758 275.134 324.422 276.25 325.415 276.352C325.603 276.372 325.739 276.539 325.72 276.726C325.702 276.902 325.554 277.032 325.381 277.032Z" fill="#476477"/>
<path d="M318.272 277.033C318.22 277.033 318.166 277.021 318.117 276.995C316.911 276.377 316.08 275.018 315.95 273.448C315.82 271.896 316.35 270.401 316.759 269.412C318.684 264.764 322.43 260.933 327.036 258.901C327.21 258.825 327.411 258.904 327.486 259.075C327.563 259.247 327.484 259.449 327.312 259.525C322.865 261.487 319.248 265.185 317.39 269.672C316.782 271.14 316.541 272.322 316.629 273.391C316.741 274.728 317.43 275.877 318.428 276.388C318.596 276.474 318.662 276.68 318.576 276.847C318.516 276.965 318.396 277.033 318.272 277.033Z" fill="#476477"/>
<path d="M311.429 277.032C311.363 277.032 311.295 277.013 311.236 276.972C310.228 276.277 309.569 275.064 309.429 273.643C309.323 272.569 309.488 271.431 309.962 269.956C311.553 265.009 315.815 259.823 320.327 257.342C320.492 257.251 320.7 257.311 320.791 257.477C320.882 257.641 320.822 257.849 320.657 257.94C316.284 260.343 312.154 265.37 310.612 270.164C310.167 271.547 310.012 272.599 310.109 273.576C310.227 274.779 310.794 275.839 311.623 276.411C311.779 276.518 311.818 276.73 311.711 276.885C311.644 276.981 311.538 277.032 311.429 277.032Z" fill="#476477"/>
<path d="M362.077 167.881C362.077 167.881 366.606 162.829 363.732 159.493C363.732 159.493 367.013 147.632 355.631 143.802C344.249 139.973 337.914 148.049 337.368 149.994C337.368 149.994 334.866 149.135 333.805 153.246L359.382 170.432L362.077 167.881Z" fill="#7D52EA"/>
<path d="M362.92 159.556C362.892 159.556 362.864 159.552 362.836 159.545C362.758 159.525 362.741 159.513 362.452 159.304C359.075 156.865 350.022 151.086 338.921 150.121C338.733 150.105 338.594 149.939 338.611 149.752C338.627 149.564 338.796 149.425 338.98 149.442C350.251 150.421 359.429 156.279 362.852 158.752C362.964 158.832 363.038 158.887 363.075 158.911C363.214 158.981 363.29 159.141 363.251 159.298C363.211 159.453 363.072 159.556 362.92 159.556Z" fill="white"/>
<path d="M354.936 172.723L364.396 194.549C364.396 194.549 360.305 202.183 348.446 203.461C337.229 204.67 345.995 195.491 345.995 195.491L340.594 180.029L354.936 172.723Z" fill="white"/>
<path d="M346.568 203.914C344.436 203.914 343.139 203.396 342.622 202.349C341.504 200.087 344.846 196.237 345.603 195.409L340.269 180.142C340.213 179.981 340.284 179.803 340.436 179.726L354.779 172.419C354.862 172.376 354.96 172.37 355.05 172.402C355.138 172.434 355.21 172.501 355.247 172.587L364.707 194.414C364.749 194.51 364.744 194.619 364.695 194.711C364.653 194.789 360.381 202.518 348.48 203.8C347.781 203.876 347.144 203.914 346.568 203.914ZM341.012 180.198L346.315 195.379C346.357 195.499 346.328 195.634 346.24 195.726C345.117 196.903 342.387 200.333 343.234 202.047C343.735 203.062 345.524 203.433 348.407 203.122C359.077 201.973 363.388 195.554 364.012 194.527L354.766 173.192L341.012 180.198Z" fill="#476477"/>
<path d="M349.163 171.34C347.29 170.216 335.86 162.03 332.714 161.528C329.568 161.027 326.511 159.766 324.088 157.696C323.122 156.871 322.243 155.894 321.785 154.71C321.326 153.525 321.346 152.103 322.072 151.06C322.798 150.018 324.307 149.512 325.422 150.12C324.899 149.319 325.01 148.205 325.553 147.417C326.095 146.629 327.001 146.145 327.937 145.95C329.65 145.591 331.528 146.168 332.745 147.426C333.965 148.688 334.495 150.505 335.75 151.733C336.986 152.942 338.752 153.417 340.453 153.729C342.906 154.18 345.399 154.39 347.848 154.858C350.298 155.326 352.741 156.071 354.799 157.481C356.374 158.561 358.887 160.988 358.811 163.121C358.778 164.069 357.412 165.017 356.823 165.773C356.025 166.797 353.178 171.626 349.163 171.34Z" fill="#476477"/>
<path d="M354.598 167.639C354.598 167.639 355.665 161.407 360.448 163.999C366.204 167.118 362.577 178.632 355.414 173.73C355.414 173.73 350.361 186.947 340.222 186.635C330.082 186.322 329.26 173.501 331.742 161.075C331.742 161.075 336.256 163.272 344.428 161.897C349.907 160.976 350.013 166.138 349.889 169.115L354.598 167.639Z" fill="white"/>
<path d="M340.571 186.981C340.451 186.981 340.332 186.979 340.211 186.975C337.29 186.885 334.962 185.776 333.293 183.678C328.832 178.073 330.197 167.069 331.407 161.009C331.428 160.905 331.495 160.817 331.59 160.77C331.684 160.723 331.795 160.723 331.891 160.769C331.935 160.79 336.42 162.899 344.371 161.561C346.132 161.266 347.525 161.554 348.509 162.421C350.103 163.825 350.305 166.413 350.247 168.646L354.303 167.374C354.464 166.642 355.122 164.211 356.921 163.338C357.98 162.825 359.221 162.946 360.61 163.699C362.525 164.736 363.656 166.808 363.636 169.24C363.616 171.696 362.463 173.878 360.697 174.799C359.63 175.355 357.892 175.687 355.572 174.24C354.633 176.418 349.608 186.98 340.571 186.981ZM331.996 161.553C330.831 167.572 329.635 177.985 333.827 183.253C335.366 185.187 337.521 186.21 340.233 186.294C350.012 186.608 355.046 173.738 355.096 173.608C355.133 173.511 355.213 173.436 355.313 173.404C355.412 173.373 355.521 173.389 355.608 173.449C357.363 174.65 359.014 174.907 360.381 174.194C361.902 173.401 362.936 171.408 362.954 169.234C362.971 167.059 361.974 165.213 360.285 164.298C359.101 163.657 358.07 163.54 357.221 163.95C355.453 164.807 354.94 167.668 354.935 167.697C354.913 167.823 354.823 167.926 354.701 167.964L349.992 169.441C349.886 169.474 349.77 169.454 349.682 169.386C349.593 169.318 349.544 169.212 349.548 169.101C349.639 166.92 349.551 164.248 348.057 162.932C347.235 162.208 346.034 161.973 344.484 162.234C337.58 163.395 333.283 162.056 331.996 161.553Z" fill="#476477"/>
<path d="M354.935 171.554C354.865 171.554 354.795 171.533 354.735 171.489C354.582 171.378 354.548 171.165 354.659 171.013C355.516 169.835 356.944 169.126 358.409 169.165C358.597 169.169 358.746 169.326 358.741 169.514C358.736 169.699 358.584 169.846 358.4 169.846C358.397 169.846 358.394 169.846 358.391 169.846C357.175 169.815 355.938 170.414 355.211 171.413C355.145 171.505 355.041 171.554 354.935 171.554Z" fill="#476477"/>
<path d="M425.357 276.651H188.477V283.659H425.357V276.651Z" fill="white"/>
<path d="M425.355 284H188.474C188.286 284 188.133 283.847 188.133 283.659V276.652C188.133 276.463 188.286 276.311 188.474 276.311H425.355C425.543 276.311 425.696 276.463 425.696 276.652V283.659C425.696 283.847 425.543 284 425.355 284ZM188.816 283.318H425.013V276.992H188.816V283.318Z" fill="#476477"/>
<path d="M156.238 247.443H135.151C127.727 247.443 121.687 241.41 121.687 233.995V184.388C121.687 184.199 121.84 184.047 122.028 184.047C122.217 184.047 122.37 184.199 122.37 184.388V233.995C122.37 241.034 128.103 246.761 135.151 246.761H156.238C175.576 246.761 191.309 231.047 191.309 211.731C191.309 206.343 187.642 201.733 182.39 200.521C182.244 200.487 182.137 200.362 182.126 200.213C182.116 200.063 182.204 199.924 182.344 199.871C194.179 195.331 202.131 183.773 202.131 171.109C202.131 155.752 190.657 142.63 175.442 140.587C175.285 140.565 175.163 140.439 175.148 140.281C175.133 140.124 175.228 139.976 175.378 139.926C183.561 137.157 189.058 129.499 189.058 120.87C189.058 99.8477 172.588 82.857 151.563 82.1894C151.379 82.1835 151.232 82.0327 151.232 81.8487V74.8697C151.232 63.7036 142.137 54.6194 130.957 54.6194C119.778 54.6194 110.683 63.7036 110.683 74.8697V247.102C110.683 247.29 110.53 247.443 110.341 247.443C110.153 247.443 110 247.29 110 247.102V74.8697C110 63.3277 119.401 53.9375 130.957 53.9375C142.513 53.9375 151.915 63.3277 151.915 74.8697V81.5197C162.053 81.9252 171.521 86.1522 178.608 93.4443C185.787 100.832 189.741 110.572 189.741 120.87C189.741 129.352 184.604 136.927 176.827 140.112C191.731 142.752 202.813 155.851 202.813 171.109C202.813 177.602 200.85 183.836 197.136 189.136C193.702 194.038 189.014 197.822 183.532 200.128C188.562 201.733 191.992 206.368 191.992 211.732C191.992 231.423 175.953 247.443 156.238 247.443Z" fill="#7D52EA"/>
<path d="M182.468 200.53H163.052C162.864 200.53 162.711 200.377 162.711 200.189C162.711 200.001 162.864 199.848 163.052 199.848H182.468C182.657 199.848 182.81 200 182.81 200.189C182.81 200.377 182.657 200.53 182.468 200.53Z" fill="#7D52EA"/>
<path d="M138.451 223.833C138.262 223.833 138.109 223.68 138.109 223.492V177.239C138.109 177.149 138.145 177.062 138.209 176.998L175.244 140.008C175.378 139.875 175.594 139.875 175.727 140.008C175.86 140.141 175.86 140.357 175.727 140.49L138.792 177.381V223.492C138.792 223.68 138.639 223.833 138.451 223.833Z" fill="#7D52EA"/>
<path d="M129.209 155.512C129.121 155.512 129.034 155.479 128.967 155.413C128.834 155.279 128.834 155.064 128.967 154.93L151.229 132.695V81.8488C151.229 81.6605 151.382 81.5078 151.57 81.5078C151.759 81.5078 151.912 81.6605 151.912 81.8488V132.837C151.912 132.927 151.876 133.014 151.812 133.078L129.45 155.412C129.383 155.479 129.296 155.512 129.209 155.512Z" fill="#7D52EA"/>
<path d="M130.646 118.713C130.457 118.713 130.305 118.56 130.305 118.372V81.8488C130.305 81.6605 130.457 81.5078 130.646 81.5078H151.578C151.766 81.5078 151.919 81.6605 151.919 81.8488C151.919 82.0372 151.766 82.1899 151.578 82.1899H130.988V118.372C130.988 118.56 130.835 118.713 130.646 118.713Z" fill="#7D52EA"/>
<path d="M131.069 126.881C134.076 126.651 136.328 124.029 136.098 121.025C135.868 118.021 133.243 115.772 130.235 116.002C127.227 116.232 124.976 118.853 125.206 121.857C125.436 124.862 128.061 127.111 131.069 126.881Z" fill="#7D52EA"/>
<path d="M126.68 183.572C128.266 181.009 127.471 177.648 124.905 176.064C122.339 174.48 118.973 175.274 117.387 177.837C115.801 180.4 116.596 183.762 119.162 185.345C121.728 186.929 125.094 186.135 126.68 183.572Z" fill="#E2EAFF"/>
<path d="M153.461 200.189C153.461 203.201 155.906 205.644 158.923 205.644C161.939 205.644 164.385 203.201 164.385 200.189C164.385 197.176 161.939 194.733 158.923 194.733C155.906 194.733 153.461 197.176 153.461 200.189Z" fill="#7D52EA"/>
<path d="M141.327 232.897C143.893 231.313 144.687 227.952 143.102 225.389C141.516 222.825 138.15 222.032 135.584 223.616C133.018 225.199 132.223 228.561 133.809 231.124C135.395 233.687 138.76 234.481 141.327 232.897Z" fill="#7D52EA"/>
<path d="M146.294 151.856C146.207 151.856 146.12 151.823 146.053 151.756C145.92 151.623 145.92 151.407 146.053 151.274L167.536 129.817V106.58L156.347 95.4042C156.213 95.2711 156.213 95.0553 156.347 94.9221C156.48 94.789 156.696 94.789 156.829 94.9221L168.119 106.198C168.182 106.262 168.219 106.348 168.219 106.439V129.958C168.219 130.049 168.182 130.136 168.119 130.199L146.536 151.756C146.469 151.823 146.382 151.856 146.294 151.856Z" fill="#7D52EA"/>
<path d="M164.404 142.151C164.316 142.151 164.229 142.118 164.162 142.051C164.029 141.918 164.029 141.702 164.162 141.569L175.245 130.5V113.919C175.245 113.731 175.397 113.578 175.586 113.578C175.775 113.578 175.927 113.731 175.927 113.919V130.641C175.927 130.732 175.891 130.818 175.827 130.882L164.645 142.051C164.579 142.118 164.491 142.151 164.404 142.151Z" fill="#7D52EA"/>
<path d="M180.4 195.671H166.79C166.601 195.671 166.449 195.518 166.449 195.33C166.449 195.142 166.601 194.989 166.79 194.989H180.258L194.685 180.579V162.814L185.235 153.375H177.686C166.487 164.167 149.776 180.512 149.017 181.911C149.003 182.024 148.932 182.128 148.82 182.18C148.648 182.258 148.446 182.183 148.368 182.012C148.212 181.674 148.064 181.354 162.752 166.944C169.928 159.904 177.238 152.859 177.311 152.789C177.375 152.728 177.46 152.693 177.548 152.693H185.376C185.467 152.693 185.554 152.729 185.618 152.793L195.268 162.432C195.332 162.495 195.368 162.582 195.368 162.673V180.72C195.368 180.811 195.332 180.897 195.268 180.961L180.641 195.571C180.577 195.635 180.49 195.671 180.4 195.671Z" fill="#7D52EA"/>
<path d="M148.677 192.427C148.59 192.427 148.503 192.393 148.436 192.327C148.303 192.194 148.303 191.978 148.436 191.845L177.569 162.747C177.632 162.683 177.719 162.647 177.81 162.647H185.379C185.567 162.647 185.72 162.8 185.72 162.988C185.72 163.177 185.567 163.329 185.379 163.329H177.951L148.919 192.327C148.852 192.393 148.765 192.427 148.677 192.427Z" fill="#7D52EA"/>
<path d="M119.318 116.334C119.129 116.334 118.977 116.181 118.977 115.993V77.9841C118.977 77.8938 119.013 77.8069 119.077 77.7431L129.585 67.2473C129.649 67.1834 129.736 67.1475 129.826 67.1475H143.238C143.427 67.1475 143.58 67.3002 143.58 67.4885C143.58 67.6768 143.427 67.8294 143.238 67.8294H129.968L119.659 78.1253V115.993C119.659 116.181 119.507 116.334 119.318 116.334Z" fill="#7D52EA"/>
<path d="M127.584 142.878C127.496 142.878 127.409 142.845 127.342 142.778C127.209 142.645 127.209 142.429 127.342 142.296L142.895 126.762V88.3018C142.895 88.1135 143.048 87.9609 143.237 87.9609C143.425 87.9609 143.578 88.1136 143.578 88.3018V126.903C143.578 126.993 143.542 127.08 143.478 127.144L127.825 142.778C127.758 142.845 127.671 142.878 127.584 142.878Z" fill="#7D52EA"/>
<path d="M164.38 190.267C164.293 190.267 164.206 190.234 164.139 190.167C164.006 190.034 164.006 189.818 164.139 189.685L181.787 172.059C181.92 171.926 182.136 171.926 182.27 172.059C182.403 172.192 182.403 172.408 182.27 172.541L164.622 190.167C164.555 190.234 164.468 190.267 164.38 190.267Z" fill="#7D52EA"/>
<path d="M92.4717 247.443C92.283 247.443 92.1303 247.29 92.1303 247.102V74.8697C92.1303 63.7036 83.0353 54.6194 71.8558 54.6194C60.6762 54.6194 51.5809 63.7036 51.5809 74.8697V81.8487C51.5809 82.0328 51.4345 82.1836 51.2505 82.1894C30.2249 82.8572 13.7547 99.8477 13.7547 120.87C13.7547 129.499 19.2522 137.157 27.4351 139.926C27.5852 139.976 27.6805 140.124 27.6651 140.281C27.6498 140.439 27.5281 140.565 27.3712 140.587C12.1562 142.63 0.682577 155.752 0.682577 171.109C0.682577 183.773 8.63406 195.331 20.469 199.871C20.609 199.925 20.6976 200.063 20.6871 200.213C20.6767 200.362 20.5697 200.488 20.4237 200.521C15.1718 201.733 11.5038 206.343 11.5038 211.732C11.5038 231.047 27.2368 246.761 46.5753 246.761H67.6627C74.7101 246.761 80.4437 241.034 80.4437 233.995V184.388C80.4437 184.199 80.5965 184.047 80.7852 184.047C80.9739 184.047 81.1266 184.199 81.1266 184.388V233.995C81.1266 241.41 75.0866 247.443 67.6628 247.443H46.5755C26.8606 247.443 10.8212 231.423 10.8212 211.732C10.8212 206.368 14.2516 201.733 19.2811 200.128C13.7998 197.822 9.11162 194.038 5.67699 189.136C1.963 183.836 0 177.602 0 171.109C0 155.851 11.0825 142.751 25.9862 140.112C18.2093 136.926 13.0721 129.352 13.0721 120.87C13.0721 110.572 17.0259 100.832 24.2054 93.4441C31.2917 86.1519 40.7599 81.9251 50.8983 81.5196V74.8697C50.8983 63.3277 60.3 53.9375 71.8559 53.9375C83.4118 53.9375 92.8132 63.3277 92.8132 74.8697V247.102C92.8132 247.29 92.6605 247.443 92.4717 247.443Z" fill="#7D52EA"/>
<path d="M39.7651 200.53H20.3493C20.1605 200.53 20.0078 200.377 20.0078 200.189C20.0078 200.001 20.1605 199.848 20.3493 199.848H39.7651C39.9538 199.848 40.1065 200 40.1065 200.189C40.1065 200.377 39.9538 200.53 39.7651 200.53Z" fill="#7D52EA"/>
<path d="M64.3609 223.832C64.1721 223.832 64.0194 223.679 64.0194 223.491V177.38L27.0844 140.489C26.951 140.356 26.951 140.14 27.0844 140.007C27.2177 139.874 27.4337 139.874 27.567 140.007L64.6021 176.997C64.666 177.061 64.702 177.148 64.702 177.238V223.491C64.7022 223.68 64.5496 223.832 64.3609 223.832Z" fill="#7D52EA"/>
<path d="M73.6014 155.512C73.5141 155.512 73.4268 155.479 73.3601 155.412L50.9984 133.078C50.9344 133.014 50.8984 132.927 50.8984 132.837V81.8488C50.8984 81.6605 51.0512 81.5078 51.2399 81.5078C51.4286 81.5078 51.5813 81.6605 51.5813 81.8488V132.695L73.8431 154.93C73.9764 155.064 73.9764 155.279 73.8431 155.413C73.7762 155.479 73.6888 155.512 73.6014 155.512Z" fill="#7D52EA"/>
<path d="M72.1714 118.713C71.9827 118.713 71.83 118.56 71.83 118.372V82.1899H51.2397C51.051 82.1899 50.8984 82.0372 50.8984 81.8488C50.8984 81.6605 51.0512 81.5078 51.2397 81.5078H72.1714C72.3601 81.5078 72.5127 81.6605 72.5127 81.8488V118.372C72.5127 118.56 72.36 118.713 72.1714 118.713Z" fill="#7D52EA"/>
<path d="M77.5412 122.473C78.1117 119.514 76.1727 116.654 73.2105 116.084C70.2483 115.514 67.3845 117.451 66.8141 120.409C66.2437 123.368 68.1826 126.228 71.1448 126.798C74.107 127.368 76.9708 125.431 77.5412 122.473Z" fill="#7D52EA"/>
<path d="M84.641 184.577C86.774 182.447 86.774 178.993 84.641 176.862C82.508 174.732 79.0498 174.732 76.9168 176.862C74.7838 178.993 74.7838 182.447 76.9168 184.577C79.0498 186.708 82.508 186.708 84.641 184.577Z" fill="#E2EAFF"/>
<path d="M49.3533 200.189C49.3533 203.201 46.9081 205.644 43.8916 205.644C40.875 205.644 38.4297 203.201 38.4297 200.189C38.4297 197.176 40.875 194.733 43.8916 194.733C46.9081 194.733 49.3533 197.176 49.3533 200.189Z" fill="#7D52EA"/>
<path d="M68.2191 232.093C70.3521 229.962 70.3521 226.508 68.2191 224.378C66.0861 222.248 62.6279 222.248 60.4949 224.378C58.3619 226.508 58.3619 229.962 60.4949 232.093C62.6279 234.223 66.0861 234.223 68.2191 232.093Z" fill="#7D52EA"/>
<path d="M56.5256 151.855C56.4382 151.855 56.3508 151.822 56.2843 151.755L34.7015 130.199C34.6376 130.135 34.6016 130.048 34.6016 129.957V106.438C34.6016 106.348 34.6376 106.261 34.7015 106.197L45.9908 94.9212C46.1241 94.788 46.3401 94.788 46.4735 94.9212C46.6068 95.0543 46.6068 95.2701 46.4735 95.4033L35.2843 106.579V129.816L56.7669 151.273C56.9003 151.406 56.9003 151.622 56.7669 151.755C56.7002 151.822 56.613 151.855 56.5256 151.855Z" fill="#7D52EA"/>
<path d="M38.4141 142.151C38.3267 142.151 38.2395 142.118 38.1728 142.051L26.9906 130.882C26.9266 130.818 26.8906 130.732 26.8906 130.641V113.919C26.8906 113.731 27.0433 113.578 27.2319 113.578C27.4206 113.578 27.5732 113.731 27.5732 113.919V130.5L38.6554 141.569C38.7887 141.702 38.7887 141.918 38.6554 142.051C38.5888 142.118 38.5015 142.151 38.4141 142.151Z" fill="#7D52EA"/>
<path d="M36.023 195.671H22.4135C22.3229 195.671 22.2361 195.635 22.1722 195.572L7.54526 180.962C7.48132 180.898 7.44531 180.811 7.44531 180.721V162.674C7.44531 162.583 7.48132 162.496 7.54526 162.433L17.1953 152.794C17.2592 152.73 17.346 152.694 17.4366 152.694H25.2652C25.3535 152.694 25.4385 152.729 25.5022 152.79C25.5751 152.86 32.885 159.905 40.0614 166.945C54.749 181.355 54.6014 181.674 54.4453 182.013C54.3666 182.184 54.1642 182.259 53.9925 182.181C53.8808 182.129 53.8102 182.025 53.7962 181.912C53.0371 180.513 36.3263 164.168 25.1274 153.376H17.5779L8.12789 162.815V180.58L22.5547 194.99H36.0229C36.2116 194.99 36.3643 195.143 36.3643 195.331C36.3643 195.519 36.2118 195.671 36.023 195.671Z" fill="#7D52EA"/>
<path d="M54.1442 192.427C54.0568 192.427 53.9694 192.393 53.9028 192.327L24.8704 163.329H17.4429C17.2541 163.329 17.1016 163.177 17.1016 162.988C17.1016 162.8 17.2543 162.647 17.4429 162.647H25.0116C25.1022 162.647 25.189 162.683 25.2529 162.747L54.3855 191.845C54.5188 191.978 54.5188 192.194 54.3855 192.327C54.3188 192.393 54.2314 192.427 54.1442 192.427Z" fill="#7D52EA"/>
<path d="M83.4969 116.334C83.3081 116.334 83.1554 116.181 83.1554 115.993V78.1253L72.8466 67.8294H59.5758C59.3871 67.8294 59.2344 67.6767 59.2344 67.4885C59.2344 67.3002 59.3871 67.1475 59.5758 67.1475H72.9879C73.0786 67.1475 73.1653 67.1834 73.2293 67.2473L83.738 77.7431C83.802 77.8069 83.838 77.8938 83.838 77.9841V115.993C83.8381 116.181 83.6856 116.334 83.4969 116.334Z" fill="#7D52EA"/>
<path d="M75.2288 142.878C75.1414 142.878 75.0542 142.845 74.9874 142.778L59.3343 127.144C59.2704 127.08 59.2344 126.993 59.2344 126.903V88.3018C59.2344 88.1135 59.3871 87.9609 59.5758 87.9609C59.7645 87.9609 59.9173 88.1136 59.9173 88.3018V126.762L75.4703 142.296C75.6036 142.429 75.6036 142.645 75.4703 142.778C75.4035 142.845 75.3161 142.878 75.2288 142.878Z" fill="#7D52EA"/>
<path d="M38.4342 190.267C38.3469 190.267 38.2595 190.234 38.1929 190.167L20.5453 172.541C20.412 172.408 20.412 172.192 20.5453 172.059C20.6786 171.926 20.8947 171.926 21.028 172.059L38.6756 189.685C38.8089 189.818 38.8089 190.034 38.6756 190.167C38.6088 190.234 38.5215 190.267 38.4342 190.267Z" fill="#7D52EA"/>
<path d="M64.3648 239.26H35.9504C35.8597 239.26 35.773 239.224 35.709 239.16L22.889 226.355C22.8251 226.291 22.7891 226.205 22.7891 226.114V219.618C22.7891 219.528 22.8251 219.441 22.889 219.377L34.4573 207.822C34.5213 207.759 34.608 207.723 34.6987 207.723H54.1451C54.3338 207.723 54.4865 207.875 54.4865 208.064C54.4865 208.252 54.3338 208.405 54.1451 208.405H34.8399L23.4716 219.759V225.973L36.0916 238.578H64.3647C64.5534 238.578 64.706 238.731 64.706 238.919C64.7061 239.107 64.5536 239.26 64.3648 239.26Z" fill="#7D52EA"/>
<path d="M32.9351 226.032C32.8477 226.032 32.7603 225.998 32.6937 225.932C32.5604 225.799 32.5604 225.583 32.6937 225.45L41.1037 217.05C41.1676 216.986 41.2544 216.95 41.345 216.95H59.012C59.2008 216.95 59.3535 217.103 59.3535 217.291C59.3535 217.479 59.2008 217.632 59.012 217.632H41.4863L33.1764 225.932C33.1098 225.998 33.0225 226.032 32.9351 226.032Z" fill="#7D52EA"/>
<path d="M54.1414 228.699H39.7632C39.5744 228.699 39.4219 228.547 39.4219 228.359C39.4219 228.17 39.5746 228.018 39.7632 228.018H54.1414C54.3302 228.018 54.4829 228.17 54.4829 228.359C54.4827 228.547 54.33 228.699 54.1414 228.699Z" fill="#7D52EA"/>
<path d="M122.183 124.027H80.0713L59.0156 160.453L80.0713 196.878H122.183L143.238 160.453L122.183 124.027Z" fill="#7979F7"/>
<path d="M102.958 166.372H87.5832L84.094 175.874H81.0938L93.9101 142.048H96.6314L109.448 175.874H106.47L102.958 166.372ZM88.4671 163.956H102.051L95.2591 145.533L88.4671 163.956Z" fill="white"/>
<path d="M117.916 175.874H115.055V142.048H117.916V175.874Z" fill="white"/>
<path d="M219.31 269.63H92.4743C92.2855 269.63 92.1328 269.477 92.1328 269.289V228.359C92.1328 228.17 92.2855 228.018 92.4743 228.018C92.663 228.018 92.8157 228.17 92.8157 228.359V268.948H219.31C219.499 268.948 219.652 269.101 219.652 269.289C219.652 269.477 219.499 269.63 219.31 269.63Z" fill="#7D52EA"/>
</svg>
