<svg width="240" height="220" viewBox="0 0 240 220" fill="none" xmlns="http://www.w3.org/2000/svg">
<g opacity="0.41">
<path d="M239.889 138.514C240.112 134.815 240.012 131.098 239.58 127.418C237.549 110.126 228.352 93.8196 214.816 82.3144C209.986 78.21 204.492 74.5327 201.349 69.1146C196.056 59.9901 196.457 49.5039 189.888 40.4943C183.312 31.4748 173.728 24.4409 162.92 20.8284C130.696 10.0575 85.5805 27.5947 89.6425 65.0458C89.6571 65.1803 89.6732 65.3756 89.6898 65.6225C90.23 73.4018 83.9002 79.9427 75.8444 80.1269C46.1131 80.8076 20.5208 102.919 15.0444 130.927C11.5226 148.94 17.2893 168.683 30.949 181.426C41.1456 190.938 54.8261 196.164 68.5134 199.754C95.9572 206.954 124.837 208.462 153.133 205.71C179.621 203.133 207.561 195.788 224.691 176.131C233.83 165.644 239.065 152.198 239.889 138.514Z" fill="#E1E2FE"/>
</g>
<g opacity="0.31">
<path d="M110.546 12.5366C111.155 8.89867 108.592 5.47308 104.82 4.8853C101.049 4.29753 97.4978 6.77016 96.8885 10.4081C96.2791 14.046 98.8425 17.4716 102.614 18.0594C106.385 18.6471 109.937 16.1745 110.546 12.5366Z" fill="#E1E2FE"/>
</g>
<g opacity="0.31">
<path d="M197.186 10.8477C199.158 10.8477 200.756 9.30625 200.756 7.4048C200.756 5.50335 199.158 3.96191 197.186 3.96191C195.215 3.96191 193.617 5.50335 193.617 7.4048C193.617 9.30625 195.215 10.8477 197.186 10.8477Z" fill="#E1E2FE"/>
</g>
<g opacity="0.31">
<path d="M75.8391 27.5289C76.4784 25.0567 74.9189 22.5527 72.3559 21.9361C69.7929 21.3195 67.197 22.8238 66.5578 25.296C65.9186 27.7683 67.4781 30.2723 70.0411 30.8889C72.604 31.5055 75.1999 30.0012 75.8391 27.5289Z" fill="#E1E2FE"/>
</g>
<g opacity="0.31">
<path d="M16.046 204.231C22.0603 204.231 26.9358 199.528 26.9358 193.727C26.9358 187.926 22.0603 183.223 16.046 183.223C10.0318 183.223 5.15625 187.926 5.15625 193.727C5.15625 199.528 10.0318 204.231 16.046 204.231Z" fill="#E1E2FE"/>
</g>
<path opacity="0.47" d="M236.922 29.8282C240.026 23.9955 237.64 16.8397 231.593 13.8451C225.547 10.8509 213.927 11.0713 210.822 16.904C207.718 22.7366 217.025 27.7426 220.819 33.1817C226.112 40.7682 233.817 35.6609 236.922 29.8282Z" fill="#ECF1F7"/>
<path opacity="0.47" d="M210.487 209.1C214.862 211.825 220.698 210.613 223.522 206.392C226.347 202.172 227.053 193.61 222.677 190.886C218.302 188.161 213.642 194.626 209.055 197.005C202.658 200.323 206.111 206.376 210.487 209.1Z" fill="#E1E2FE"/>
<path opacity="0.47" d="M31.9075 3.06528C27.0952 -1.24548 19.5717 -0.976936 15.1027 3.66511C10.6338 8.30716 7.80715 18.7894 12.6195 23.1002C17.4319 27.4109 24.6926 20.3706 30.9298 18.3889C39.6293 15.6246 36.7199 7.37604 31.9075 3.06528Z" fill="#E1E2FE"/>
<g style="mix-blend-mode:screen" opacity="0.4">
<path d="M5.39085 53.1745C1.10041 62.1584 -0.0709448 72.5157 1.98764 82.1983C4.40735 93.5816 11.7544 102.327 9.20516 114.471C7.65238 121.868 7.26366 128.72 6.47634 136.039C4.85955 151.067 14.975 164.309 27.5242 171.459C37.7167 177.267 49.666 179.446 61.3841 179.291C71.931 179.152 82.4591 177.273 92.6792 174.747C102.528 172.313 112.158 169.105 122.481 170.117C131.067 170.959 138.8 174.539 146.796 177.209C165.886 183.584 189.01 184.483 206.467 174.779C217.67 168.552 225.511 158.438 228.989 147.564C231.768 138.875 232.121 130.749 230.038 121.877C227.899 112.769 224.288 103.586 225.409 94.0956C226.191 87.4819 229.327 81.0986 228.752 74.4653C228.37 70.0576 226.358 65.9226 223.898 62.1906C214.915 48.5631 199.875 39.4391 183.965 34.4121C168.992 29.6812 153.551 26.2548 137.963 27.3933C105.734 29.7464 99.1635 24.8087 66.2262 18.0133C44.9623 13.6262 21.1768 29.2645 8.7337 47.381C7.464 49.2277 6.34989 51.1667 5.39085 53.1745Z" fill="#E0E9F6"/>
<path d="M5.39085 53.1745C1.10041 62.1584 -0.0709448 72.5157 1.98764 82.1983C4.40735 93.5816 11.7544 102.327 9.20516 114.471C7.65238 121.868 7.26366 128.72 6.47634 136.039C4.85955 151.067 14.975 164.309 27.5242 171.459C37.7167 177.267 49.666 179.446 61.3841 179.291C71.931 179.152 82.4591 177.273 92.6792 174.747C102.528 172.313 112.158 169.105 122.481 170.117C131.067 170.959 138.8 174.539 146.796 177.209C165.886 183.584 189.01 184.483 206.467 174.779C217.67 168.552 225.511 158.438 228.989 147.564C231.768 138.875 232.121 130.749 230.038 121.877C227.899 112.769 224.288 103.586 225.409 94.0956C226.191 87.4819 229.327 81.0986 228.752 74.4653C228.37 70.0576 226.358 65.9226 223.898 62.1906C214.915 48.5631 199.875 39.4391 183.965 34.4121C168.992 29.6812 153.551 26.2548 137.963 27.3933C105.734 29.7464 99.1635 24.8087 66.2262 18.0133C44.9623 13.6262 21.1768 29.2645 8.7337 47.381C7.464 49.2277 6.34989 51.1667 5.39085 53.1745Z" stroke="#F8FAFC" stroke-width="0.78" stroke-miterlimit="10" style="mix-blend-mode:screen"/>
</g>
<path opacity="0.58" d="M233.879 182.485C235.172 182.485 236.22 181.474 236.22 180.227C236.22 178.979 235.172 177.968 233.879 177.968C232.586 177.968 231.537 178.979 231.537 180.227C231.537 181.474 232.586 182.485 233.879 182.485Z" fill="#3E479B"/>
<path opacity="0.58" d="M125.705 6.44237C126.998 6.44237 128.047 5.43108 128.047 4.18359C128.047 2.9361 126.998 1.9248 125.705 1.9248C124.412 1.9248 123.363 2.9361 123.363 4.18359C123.363 5.43108 124.412 6.44237 125.705 6.44237Z" fill="#3E479B"/>
<path opacity="0.58" d="M41.1092 203.316C42.4025 203.316 43.4509 202.305 43.4509 201.058C43.4509 199.81 42.4025 198.799 41.1092 198.799C39.816 198.799 38.7676 199.81 38.7676 201.058C38.7676 202.305 39.816 203.316 41.1092 203.316Z" fill="#3E479B"/>
<path opacity="0.58" d="M188.913 212.312C189.919 212.312 190.734 211.526 190.734 210.556C190.734 209.585 189.919 208.799 188.913 208.799C187.907 208.799 187.092 209.585 187.092 210.556C187.092 211.526 187.907 212.312 188.913 212.312Z" fill="#EF929C"/>
<path opacity="0.58" d="M30.7747 43.4053C31.2058 43.4053 31.5552 43.0682 31.5552 42.6523C31.5552 42.2365 31.2058 41.8994 30.7747 41.8994C30.3436 41.8994 29.9941 42.2365 29.9941 42.6523C29.9941 43.0682 30.3436 43.4053 30.7747 43.4053Z" fill="#3E479B"/>
<path opacity="0.58" d="M197.045 20.1924C196.721 21.6576 195.226 22.5913 193.708 22.2786C192.189 21.9658 191.221 20.5242 191.545 19.0595C191.869 17.5943 193.364 16.6607 194.882 16.9734C196.401 17.2861 197.369 18.7272 197.045 20.1924Z" fill="#EF929C"/>
<path opacity="0.58" d="M46.7693 7.72841C46.6423 8.30314 46.0564 8.66907 45.4606 8.54659C44.8648 8.42411 44.4854 7.85892 44.6124 7.28418C44.7393 6.70945 45.3253 6.34352 45.9211 6.466C46.5169 6.58848 46.8968 7.15367 46.7693 7.72841Z" fill="#EF929C"/>
<path opacity="0.58" d="M222.526 3.25936C222.418 3.74776 221.92 4.05897 221.413 3.95456C220.907 3.85016 220.585 3.36979 220.693 2.88139C220.801 2.39299 221.299 2.08178 221.805 2.18619C222.312 2.29059 222.634 2.77096 222.526 3.25936Z" fill="#3E479B"/>
<path opacity="0.58" d="M24.2409 218.91C24.1327 219.398 23.6347 219.709 23.1283 219.605C22.622 219.501 22.2994 219.02 22.4076 218.532C22.5159 218.043 23.0139 217.732 23.5202 217.837C24.0265 217.941 24.3491 218.421 24.2409 218.91Z" fill="#3E479B"/>
<g opacity="0.66">
<path d="M91.688 83.9396L87.5469 83.6349C87.23 80.6267 86.2397 77.7912 84.7114 75.2835L87.8633 72.6743C89.4597 71.3527 89.6434 69.0332 88.2733 67.4932C86.9032 65.9532 84.4985 65.776 82.9021 67.0976L79.7502 69.7063C77.4122 67.8681 74.6573 66.4938 71.623 65.7348L71.9394 61.7403C72.0997 59.7169 70.5287 57.9516 68.4316 57.797C66.334 57.6424 64.5039 59.1573 64.3436 61.1806L64.0272 65.1752C60.9086 65.4809 57.9691 66.4361 55.3693 67.9103L52.6644 64.87C51.2943 63.33 48.8897 63.1528 47.2932 64.4744C45.6967 65.7961 45.513 68.1156 46.8831 69.6556L49.588 72.6959C47.6824 74.9512 46.2576 77.6085 45.4708 80.5354L41.3297 80.2302C39.2321 80.0756 37.402 81.591 37.2417 83.6139C37.0814 85.6372 38.6519 87.4026 40.7495 87.5572L44.8906 87.8624C45.2075 90.8706 46.1978 93.7061 47.7261 96.2138L44.5742 98.823C42.9778 100.145 42.7941 102.464 44.1642 104.004C45.5343 105.544 47.939 105.721 49.5354 104.4L52.6873 101.791C55.0253 103.629 57.7802 105.003 60.8145 105.762L60.4981 109.757C60.3378 111.78 61.9083 113.545 64.0059 113.7C66.1035 113.854 67.9336 112.34 68.0939 110.316L68.4098 106.322C71.5283 106.016 74.4679 105.061 77.0677 103.587L79.7726 106.627C81.1427 108.167 83.5473 108.344 85.1438 107.022C86.7403 105.701 86.924 103.381 85.5539 101.841L82.8495 98.8009C84.7551 96.5461 86.1799 93.8883 86.9667 90.9614L91.1078 91.2666C93.2054 91.4212 95.0355 89.9063 95.1958 87.883C95.3566 85.8596 93.7856 84.0942 91.688 83.9396ZM65.0378 100.674C56.4923 100.045 50.0933 92.8523 50.7458 84.6092C51.3984 76.3662 58.8547 70.1937 67.4003 70.8231C75.9458 71.4526 82.3447 78.645 81.6922 86.8881C81.0397 95.1311 73.5833 101.304 65.0378 100.674Z" fill="white"/>
</g>
<g opacity="0.81">
<path d="M140.225 179.868H129.536C129.248 179.868 129.016 179.644 129.016 179.366C129.016 179.089 129.248 178.864 129.536 178.864H140.225C140.513 178.864 140.746 179.089 140.746 179.366C140.746 179.644 140.513 179.868 140.225 179.868Z" fill="white"/>
<path d="M140.225 190.587H129.536C129.248 190.587 129.016 190.363 129.016 190.085C129.016 189.807 129.248 189.583 129.536 189.583H140.225C140.513 189.583 140.746 189.807 140.746 190.085C140.746 190.363 140.513 190.587 140.225 190.587Z" fill="white"/>
<path d="M148.305 201.411H82.2857C81.5078 201.411 80.875 200.8 80.875 200.05V166.997C80.875 166.247 81.5078 165.636 82.2857 165.636H148.305C149.083 165.636 149.716 166.247 149.716 166.997V200.05C149.716 200.8 149.083 201.411 148.305 201.411ZM82.2857 166.64C82.0817 166.64 81.9157 166.8 81.9157 166.998V200.051C81.9157 200.247 82.0817 200.407 82.2857 200.407H148.305C148.509 200.407 148.675 200.247 148.675 200.051V166.998C148.675 166.8 148.509 166.64 148.305 166.64H82.2857Z" fill="white"/>
<path opacity="0.66" d="M148.305 201.411H82.2857C81.5078 201.411 80.875 200.8 80.875 200.05V166.997C80.875 166.247 81.5078 165.636 82.2857 165.636H148.305C149.083 165.636 149.716 166.247 149.716 166.997V200.05C149.716 200.8 149.083 201.411 148.305 201.411ZM82.2857 166.64C82.0817 166.64 81.9157 166.8 81.9157 166.998V200.051C81.9157 200.247 82.0817 200.407 82.2857 200.407H148.305C148.509 200.407 148.675 200.247 148.675 200.051V166.998C148.675 166.8 148.509 166.64 148.305 166.64H82.2857Z" fill="white"/>
<path d="M140.232 174.667H89.2938C89.0066 174.667 88.7734 174.443 88.7734 174.165C88.7734 173.887 89.0066 173.663 89.2938 173.663H140.232C140.52 173.663 140.753 173.887 140.753 174.165C140.753 174.443 140.52 174.667 140.232 174.667Z" fill="white"/>
<path d="M140.232 185.071H89.2938C89.0066 185.071 88.7734 184.847 88.7734 184.569C88.7734 184.292 89.0066 184.067 89.2938 184.067H140.232C140.52 184.067 140.753 184.292 140.753 184.569C140.753 184.846 140.52 185.071 140.232 185.071Z" fill="white"/>
<path d="M116.757 179.868H89.2938C89.0066 179.868 88.7734 179.644 88.7734 179.366C88.7734 179.089 89.0066 178.864 89.2938 178.864H116.757C117.044 178.864 117.277 179.089 117.277 179.366C117.277 179.644 117.044 179.868 116.757 179.868Z" fill="white"/>
<path d="M116.757 190.587H89.2938C89.0066 190.587 88.7734 190.363 88.7734 190.085C88.7734 189.807 89.0066 189.583 89.2938 189.583H116.757C117.044 189.583 117.277 189.807 117.277 190.085C117.277 190.363 117.044 190.587 116.757 190.587Z" fill="white"/>
<path d="M107.815 195.552H89.2938C89.0066 195.552 88.7734 195.327 88.7734 195.05C88.7734 194.772 89.0066 194.548 89.2938 194.548H107.815C108.102 194.548 108.335 194.772 108.335 195.05C108.335 195.327 108.102 195.552 107.815 195.552Z" fill="white"/>
</g>
<g opacity="0.81">
<path d="M37.9526 147.73H25.9383C25.6511 147.73 25.418 147.506 25.418 147.229C25.418 146.951 25.6511 146.727 25.9383 146.727H37.9526C38.2399 146.727 38.473 146.951 38.473 147.229C38.473 147.506 38.2399 147.73 37.9526 147.73Z" fill="white"/>
<path d="M37.9526 135.685H25.9383C25.6511 135.685 25.418 135.46 25.418 135.183C25.418 134.905 25.6511 134.681 25.9383 134.681H37.9526C38.2399 134.681 38.473 134.905 38.473 135.183C38.473 135.46 38.2399 135.685 37.9526 135.685Z" fill="white"/>
<path d="M91.1845 162.599H16.7623C15.9843 162.599 15.3516 161.988 15.3516 161.237V123.875C15.3516 123.125 15.9843 122.514 16.7623 122.514H91.1845C91.9624 122.514 92.5957 123.125 92.5957 123.875V161.237C92.5952 161.988 91.9624 162.599 91.1845 162.599ZM16.7623 123.518C16.5583 123.518 16.3923 123.678 16.3923 123.875V161.238C16.3923 161.435 16.5583 161.595 16.7623 161.595H91.1845C91.3885 161.595 91.555 161.435 91.555 161.238V123.875C91.555 123.678 91.389 123.518 91.1845 123.518H16.7623Z" fill="white"/>
<path opacity="0.66" d="M91.1845 162.599H16.7623C15.9843 162.599 15.3516 161.988 15.3516 161.237V123.875C15.3516 123.125 15.9843 122.514 16.7623 122.514H91.1845C91.9624 122.514 92.5957 123.125 92.5957 123.875V161.237C92.5952 161.988 91.9624 162.599 91.1845 162.599ZM16.7623 123.518C16.5583 123.518 16.3923 123.678 16.3923 123.875V161.238C16.3923 161.435 16.5583 161.595 16.7623 161.595H91.1845C91.3885 161.595 91.555 161.435 91.555 161.238V123.875C91.555 123.678 91.389 123.518 91.1845 123.518H16.7623Z" fill="white"/>
<path d="M83.1899 153.576H25.9383C25.6511 153.576 25.418 153.352 25.418 153.074C25.418 152.797 25.6511 152.572 25.9383 152.572H83.1899C83.4771 152.572 83.7103 152.797 83.7103 153.074C83.7103 153.352 83.4771 153.576 83.1899 153.576Z" fill="white"/>
<path d="M83.1899 141.884H25.9383C25.6511 141.884 25.418 141.659 25.418 141.382C25.418 141.104 25.6511 140.88 25.9383 140.88H83.1899C83.4771 140.88 83.7103 141.104 83.7103 141.382C83.7103 141.659 83.4771 141.884 83.1899 141.884Z" fill="white"/>
<path d="M83.1874 147.73H52.3212C52.0339 147.73 51.8008 147.506 51.8008 147.229C51.8008 146.951 52.0339 146.727 52.3212 146.727H83.1874C83.4746 146.727 83.7077 146.951 83.7077 147.229C83.7077 147.506 83.4746 147.73 83.1874 147.73Z" fill="white"/>
<path d="M83.1874 135.684H52.3212C52.0339 135.684 51.8008 135.459 51.8008 135.182C51.8008 134.904 52.0339 134.68 52.3212 134.68H83.1874C83.4746 134.68 83.7077 134.904 83.7077 135.182C83.7077 135.459 83.4746 135.684 83.1874 135.684Z" fill="white"/>
<path d="M83.1863 130.103H62.37C62.0827 130.103 61.8496 129.878 61.8496 129.601C61.8496 129.323 62.0827 129.099 62.37 129.099H83.1863C83.4736 129.099 83.7067 129.323 83.7067 129.601C83.7067 129.878 83.4736 130.103 83.1863 130.103Z" fill="white"/>
</g>
<path opacity="0.14" d="M177.856 182.882L120.918 150.319C120.46 150.057 120.309 149.487 120.58 149.045L166.544 74.2632C166.816 73.8215 167.406 73.6759 167.864 73.9379L224.803 106.501C225.26 106.763 225.411 107.333 225.14 107.774L179.176 182.557C178.904 182.998 178.313 183.144 177.856 182.882Z" fill="#3E479B"/>
<path d="M176.375 179.885L119.437 147.322C118.98 147.06 118.828 146.49 119.1 146.048L165.064 71.2661C165.335 70.8244 165.926 70.6788 166.384 70.9408L223.322 103.504C223.78 103.765 223.931 104.336 223.66 104.777L177.695 179.56C177.424 180.001 176.833 180.147 176.375 179.885Z" fill="#F7A9B4"/>
<path opacity="0.14" d="M192.725 178.968L127.629 167.393C127.106 167.3 126.76 166.815 126.856 166.311L143.194 80.8136C143.29 80.3092 143.793 79.9754 144.316 80.0682L209.412 91.6427C209.935 91.7356 210.282 92.2205 210.185 92.7249L193.847 178.222C193.751 178.727 193.249 179.061 192.725 178.968Z" fill="#3E479B"/>
<path d="M141.977 77.504L125.287 164.826L192.276 176.739L208.966 89.417L141.977 77.504Z" fill="white"/>
<path opacity="0.39" d="M191.327 176.562L126.23 164.988C125.707 164.895 125.361 164.41 125.457 163.906L141.796 78.4084C141.892 77.9034 142.394 77.5701 142.917 77.663L208.014 89.2375C208.537 89.3303 208.883 89.8152 208.787 90.3197L192.449 175.817C192.353 176.322 191.85 176.655 191.327 176.562Z" fill="#F7A9B4"/>
<path d="M198.83 99.6934C198.799 99.6934 198.767 99.6909 198.735 99.6848L182.44 96.7876C182.157 96.7374 181.97 96.4754 182.022 96.2028C182.075 95.9303 182.342 95.7506 182.629 95.8002L198.923 98.6975C199.206 98.7477 199.393 99.0097 199.341 99.2823C199.294 99.5242 199.076 99.6934 198.83 99.6934Z" fill="white"/>
<path d="M197.869 104.715C197.838 104.715 197.806 104.712 197.774 104.706L181.479 101.809C181.196 101.759 181.009 101.497 181.061 101.224C181.113 100.952 181.382 100.772 181.668 100.822L197.963 103.72C198.245 103.77 198.432 104.032 198.38 104.304C198.334 104.546 198.115 104.715 197.869 104.715Z" fill="white"/>
<path d="M196.826 110.172C196.795 110.172 196.763 110.17 196.731 110.164L180.436 107.267C180.153 107.216 179.966 106.954 180.018 106.682C180.07 106.41 180.338 106.23 180.625 106.28L196.92 109.177C197.202 109.227 197.389 109.489 197.337 109.762C197.291 110.003 197.073 110.172 196.826 110.172Z" fill="white"/>
<path opacity="0.14" d="M171.613 114.813L143.694 109.849C143.127 109.748 142.753 109.223 142.857 108.677L148.392 79.7145C148.496 79.1679 149.04 78.807 149.606 78.9074L177.525 83.8717C178.092 83.9726 178.466 84.4971 178.362 85.0432L172.827 114.006C172.723 114.552 172.18 114.914 171.613 114.813Z" fill="#3E479B"/>
<path d="M170.586 113.131L143.97 108.399C143.403 108.298 143.028 107.773 143.133 107.227L148.373 79.8065C148.477 79.2598 149.021 78.8984 149.587 78.9993L176.204 83.7317C176.77 83.8326 177.145 84.3572 177.041 84.9033L171.8 112.324C171.696 112.871 171.153 113.232 170.586 113.131Z" fill="#599AF2"/>
<path opacity="0.07" d="M176.545 87.4923L147.877 82.395L148.377 79.7783C148.478 79.2477 149.006 78.8974 149.556 78.9948L176.268 83.7442C176.798 83.8386 177.149 84.3295 177.051 84.8405L176.545 87.4923Z" fill="#ECF1F7"/>
<path d="M155.901 96.0321C155.699 96.0321 155.494 96.0146 155.289 95.9779L154.892 95.9071C152.784 95.5322 151.385 93.5731 151.774 91.5397L152.775 86.2998C152.853 85.8907 153.263 85.6196 153.684 85.6959C154.108 85.7712 154.388 86.1638 154.31 86.5728L153.309 91.8127C153.077 93.0294 153.913 94.202 155.175 94.4264L155.572 94.4972C156.553 94.6728 157.497 94.0439 157.677 93.0977L160.212 79.8351C160.398 78.8594 159.727 77.9187 158.715 77.7385L158.036 77.618C156.958 77.4268 155.927 78.115 155.728 79.151L155.666 79.4778C155.587 79.8874 155.176 80.1574 154.757 80.0821C154.333 80.0068 154.052 79.6143 154.13 79.2052L154.193 78.8779C154.548 77.0247 156.399 75.7949 158.319 76.1373L158.998 76.2577C160.856 76.588 162.089 78.3152 161.748 80.1077L159.213 93.3703C158.914 94.9349 157.494 96.0321 155.901 96.0321Z" fill="#3E479B"/>
<path d="M158.612 84.8958C158.596 84.8958 158.58 84.8948 158.564 84.8918L148.162 83.0421C148.021 83.017 147.928 82.8865 147.954 82.75C147.98 82.6134 148.114 82.5216 148.257 82.5487L158.659 84.3984C158.8 84.4235 158.893 84.5545 158.867 84.691C158.844 84.8115 158.735 84.8958 158.612 84.8958Z" fill="white"/>
<path d="M190.429 136.766C190.398 136.766 190.366 136.764 190.334 136.758L140.543 127.904C140.261 127.854 140.074 127.592 140.126 127.319C140.178 127.047 140.445 126.866 140.732 126.917L190.523 135.77C190.806 135.82 190.993 136.082 190.94 136.355C190.894 136.597 190.676 136.766 190.429 136.766Z" fill="white"/>
<path d="M186.864 155.395C186.832 155.395 186.801 155.392 186.768 155.386L136.977 146.533C136.694 146.483 136.507 146.222 136.559 145.949C136.612 145.677 136.88 145.494 137.166 145.546L186.957 154.399C187.24 154.449 187.427 154.711 187.375 154.984C187.328 155.226 187.109 155.395 186.864 155.395Z" fill="white"/>
<path d="M162.389 141.412C162.357 141.412 162.326 141.409 162.293 141.403L138.756 137.218C138.474 137.168 138.287 136.906 138.339 136.633C138.391 136.361 138.659 136.178 138.945 136.231L162.482 140.416C162.765 140.466 162.952 140.728 162.9 141.001C162.854 141.243 162.635 141.412 162.389 141.412Z" fill="white"/>
<path d="M165.631 124.44C165.6 124.44 165.568 124.438 165.536 124.432L141.998 120.247C141.716 120.197 141.529 119.935 141.581 119.663C141.634 119.39 141.902 119.211 142.187 119.26L165.725 123.445C166.007 123.495 166.194 123.757 166.142 124.03C166.096 124.272 165.878 124.44 165.631 124.44Z" fill="white"/>
<path d="M188.655 146.008C188.623 146.008 188.592 146.005 188.559 145.999L166.133 142.012C165.851 141.961 165.664 141.7 165.716 141.427C165.768 141.155 166.035 140.973 166.322 141.024L188.748 145.012C189.031 145.062 189.218 145.323 189.166 145.597C189.12 145.838 188.901 146.008 188.655 146.008Z" fill="white"/>
<path d="M183.39 47.3475H155.717C154.759 47.3475 153.982 46.5985 153.982 45.6745V36.7462C153.982 35.8222 154.759 35.0732 155.717 35.0732H183.39C184.348 35.0732 185.124 35.8222 185.124 36.7462V45.6745C185.124 46.5985 184.348 47.3475 183.39 47.3475Z" fill="#599AF2"/>
<path d="M204.243 60.7262H165.533C164.575 60.7262 163.799 59.9773 163.799 59.0532V45.7755C163.799 44.8515 164.575 44.1025 165.533 44.1025H204.243C205.201 44.1025 205.977 44.8515 205.977 45.7755V59.0532C205.977 59.9768 205.201 60.7262 204.243 60.7262Z" fill="#F7A9B4"/>
<path d="M174.101 57.2119H216.966C218.261 57.2119 219.321 58.2339 219.321 59.4832V72.15C219.321 73.3994 218.261 74.4213 216.966 74.4213H174.101C172.806 74.4213 171.746 73.3994 171.746 72.15V59.4832C171.746 58.2339 172.806 57.2119 174.101 57.2119Z" fill="white"/>
<path opacity="0.74" d="M174.101 57.2119H216.966C218.261 57.2119 219.321 58.2339 219.321 59.4832V72.15C219.321 73.3994 218.261 74.4213 216.966 74.4213H174.101C172.806 74.4213 171.746 73.3994 171.746 72.15V59.4832C171.746 58.2339 172.806 57.2119 174.101 57.2119Z" fill="#6D6CD4"/>
<path d="M204.223 67.8313C203.084 67.8313 202.156 66.9368 202.156 65.8375C202.156 64.7382 203.083 63.8438 204.223 63.8438C205.363 63.8438 206.29 64.7382 206.29 65.8375C206.29 66.9368 205.363 67.8313 204.223 67.8313ZM204.223 64.3457C203.37 64.3457 202.677 65.0148 202.677 65.8375C202.677 66.6602 203.37 67.3293 204.223 67.3293C205.076 67.3293 205.77 66.6602 205.77 65.8375C205.77 65.0148 205.076 64.3457 204.223 64.3457Z" fill="white"/>
<path d="M195.692 67.8313C194.552 67.8313 193.625 66.9368 193.625 65.8375C193.625 64.7382 194.552 63.8438 195.692 63.8438C196.832 63.8438 197.759 64.7382 197.759 65.8375C197.758 66.9368 196.832 67.8313 195.692 67.8313ZM195.692 64.3457C194.839 64.3457 194.145 65.0148 194.145 65.8375C194.145 66.6602 194.839 67.3293 195.692 67.3293C196.545 67.3293 197.238 66.6602 197.238 65.8375C197.238 65.0148 196.544 64.3457 195.692 64.3457Z" fill="white"/>
<path d="M187.745 67.8313C186.605 67.8313 185.678 66.9368 185.678 65.8375C185.678 64.7382 186.605 63.8438 187.745 63.8438C188.884 63.8438 189.812 64.7382 189.812 65.8375C189.812 66.9368 188.885 67.8313 187.745 67.8313ZM187.745 64.3457C186.892 64.3457 186.198 65.0148 186.198 65.8375C186.198 66.6602 186.892 67.3293 187.745 67.3293C188.598 67.3293 189.291 66.6602 189.291 65.8375C189.291 65.0148 188.598 64.3457 187.745 64.3457Z" fill="white"/>
<path d="M69.8253 36.2764H136.246C137.584 36.2764 138.669 37.3224 138.669 38.613V132.982C138.669 137.434 134.927 141.043 130.312 141.043H84.1932C74.3588 141.043 66.3867 133.352 66.3867 123.866V39.5933C66.3867 37.7611 67.926 36.2764 69.8253 36.2764Z" fill="white"/>
<path opacity="0.39" d="M67.2323 36.2764H137.37C138.087 36.2764 138.669 36.837 138.669 37.5287V133.357C138.669 137.601 135.101 141.042 130.701 141.042H82.6108C73.6506 141.042 66.3867 134.035 66.3867 125.392V37.0915C66.3872 36.6413 66.7655 36.2764 67.2323 36.2764Z" fill="#6D6CD4"/>
<path opacity="0.39" d="M73.3806 36.2764H137.641C138.208 36.2764 138.668 36.7196 138.668 37.2667V133.619C138.668 137.719 135.222 141.042 130.972 141.042H88.7586C79.9487 141.042 72.8066 134.153 72.8066 125.654V36.8295C72.8066 36.5238 73.0637 36.2764 73.3806 36.2764Z" fill="#3E479B"/>
<path d="M82.8887 141.024V141.042H140.945C147.627 141.042 153.044 135.816 153.044 129.371V124.938H94.3311V129.371C94.3311 135.604 89.2653 140.695 82.8887 141.024Z" fill="#6161B5"/>
<g opacity="0.28">
<path d="M90.5938 141.025V141.043H142.281C148.23 141.043 153.053 135.817 153.053 129.372V124.938H100.781V129.372C100.781 135.605 96.271 140.696 90.5938 141.025Z" fill="#3E479B"/>
</g>
<path d="M127.699 112.862H85.9559C85.6687 112.862 85.4355 112.637 85.4355 112.36C85.4355 112.083 85.6687 111.858 85.9559 111.858H127.699C127.987 111.858 128.22 112.083 128.22 112.36C128.22 112.637 127.987 112.862 127.699 112.862Z" fill="white"/>
<path d="M128.58 95.9082H85.1805C84.8933 95.9082 84.6602 95.6833 84.6602 95.4062C84.6602 95.1292 84.8933 94.9043 85.1805 94.9043H128.58C128.868 94.9043 129.1 95.1292 129.1 95.4062C129.1 95.6838 128.868 95.9082 128.58 95.9082Z" fill="white"/>
<path d="M106.831 104.378H84.6551C84.3679 104.378 84.1348 104.153 84.1348 103.876C84.1348 103.599 84.3679 103.374 84.6551 103.374H106.831C107.118 103.374 107.352 103.599 107.352 103.876C107.352 104.153 107.118 104.378 106.831 104.378Z" fill="white"/>
<path d="M105.153 104.378H86.3368C86.0495 104.378 85.8164 104.153 85.8164 103.876C85.8164 103.599 86.0495 103.374 86.3368 103.374H105.153C105.44 103.374 105.673 103.599 105.673 103.876C105.673 104.153 105.441 104.378 105.153 104.378Z" fill="white"/>
<path d="M114.048 77.7812H85.4794C85.1921 77.7812 84.959 77.5564 84.959 77.2793C84.959 77.0022 85.1921 76.7773 85.4794 76.7773H114.048C114.335 76.7773 114.569 77.0022 114.569 77.2793C114.569 77.5564 114.335 77.7812 114.048 77.7812Z" fill="white"/>
<path d="M127.299 77.7812H118.597C118.309 77.7812 118.076 77.5564 118.076 77.2793C118.076 77.0022 118.309 76.7773 118.597 76.7773H127.299C127.587 76.7773 127.82 77.0022 127.82 77.2793C127.82 77.5564 127.586 77.7812 127.299 77.7812Z" fill="white"/>
<path d="M128.575 86.251H97.6395C97.3523 86.251 97.1191 86.0261 97.1191 85.749C97.1191 85.4719 97.3523 85.2471 97.6395 85.2471H128.575C128.863 85.2471 129.096 85.4719 129.096 85.749C129.096 86.0261 128.863 86.251 128.575 86.251Z" fill="white"/>
<path d="M94.5888 86.251H85.1805C84.8933 86.251 84.6602 86.0261 84.6602 85.749C84.6602 85.4719 84.8933 85.2471 85.1805 85.2471H94.5888C94.876 85.2471 95.1092 85.4719 95.1092 85.749C95.1092 86.0261 94.876 86.251 94.5888 86.251Z" fill="white"/>
<path d="M127.699 70.6084H85.9559C85.6687 70.6084 85.4355 70.3835 85.4355 70.1064C85.4355 69.8294 85.6687 69.6045 85.9559 69.6045H127.699C127.987 69.6045 128.22 69.8294 128.22 70.1064C128.22 70.3835 127.987 70.6084 127.699 70.6084Z" fill="white"/>
<path d="M127.699 53.6553H85.9559C85.6687 53.6553 85.4355 53.4304 85.4355 53.1533C85.4355 52.8762 85.6687 52.6514 85.9559 52.6514H127.699C127.987 52.6514 128.22 52.8762 128.22 53.1533C128.22 53.4304 127.987 53.6553 127.699 53.6553Z" fill="white"/>
<path d="M101.278 62.125H85.4794C85.1921 62.125 84.959 61.9001 84.959 61.623C84.959 61.346 85.1921 61.1211 85.4794 61.1211H101.278C101.566 61.1211 101.799 61.346 101.799 61.623C101.799 61.9001 101.566 62.125 101.278 62.125Z" fill="white"/>
<path d="M127.387 62.125H108.571C108.284 62.125 108.051 61.9001 108.051 61.623C108.051 61.346 108.284 61.1211 108.571 61.1211H127.387C127.675 61.1211 127.908 61.346 127.908 61.623C127.908 61.9001 127.675 62.125 127.387 62.125Z" fill="white"/>
<path opacity="0.21" d="M183.518 120.781C196.38 108.374 196.38 88.2588 183.518 75.8522C170.656 63.4455 149.803 63.4455 136.941 75.8522C124.079 88.2588 124.079 108.374 136.941 120.781C149.803 133.187 170.656 133.187 183.518 120.781Z" fill="white"/>
<path opacity="0.76" d="M134.427 100.599C133.278 100.599 132.346 99.7002 132.346 98.5914C132.346 82.5646 145.863 69.5264 162.477 69.5264C163.627 69.5264 164.559 70.4254 164.559 71.5342C164.559 72.643 163.627 73.542 162.477 73.542C148.158 73.542 136.509 84.7792 136.509 98.5914C136.509 99.7002 135.577 100.599 134.427 100.599Z" fill="white"/>
<path opacity="0.58" d="M160.234 131.09C141.499 131.09 126.258 116.388 126.258 98.3164C126.258 80.2451 141.499 65.543 160.234 65.543C178.968 65.543 194.21 80.2451 194.21 98.3164C194.21 116.388 178.968 131.09 160.234 131.09ZM160.234 67.5508C142.647 67.5508 128.339 81.3524 128.339 98.3164C128.339 115.28 142.647 129.082 160.234 129.082C177.821 129.082 192.128 115.28 192.128 98.3164C192.128 81.3524 177.821 67.5508 160.234 67.5508Z" fill="#3E479B"/>
<path d="M190.508 121.078C190.557 121.031 190.611 120.993 190.664 120.955C195.68 114.692 198.67 106.842 198.67 98.3153C198.67 77.8402 181.462 61.2422 160.236 61.2422C139.01 61.2422 121.803 77.8402 121.803 98.3153C121.803 118.79 139.01 135.388 160.236 135.388C169.039 135.388 177.141 132.523 183.621 127.721L188.067 123.432L190.508 121.078ZM160.236 130.085C142.047 130.085 127.301 115.861 127.301 98.3153C127.301 80.7696 142.047 66.5458 160.236 66.5458C178.426 66.5458 193.171 80.7696 193.171 98.3153C193.171 115.861 178.426 130.085 160.236 130.085Z" fill="#3E479B"/>
<path d="M160.231 135.89C138.752 135.89 121.277 119.034 121.277 98.3153C121.277 77.5963 138.752 60.7402 160.231 60.7402C181.71 60.7402 199.185 77.5968 199.185 98.3153C199.185 106.699 196.379 114.634 191.071 121.262L190.973 121.355C190.922 121.392 190.895 121.409 190.872 121.432L183.933 128.119C177.073 133.203 168.877 135.89 160.231 135.89ZM160.231 61.7436C139.326 61.7436 122.318 78.1494 122.318 98.3148C122.318 118.48 139.326 134.886 160.231 134.886C168.635 134.886 176.601 132.278 183.272 127.343L190.135 120.722C190.184 120.675 190.236 120.634 190.29 120.594C195.428 114.154 198.144 106.452 198.144 98.3148C198.144 78.1494 181.136 61.7436 160.231 61.7436ZM160.231 130.587C141.784 130.587 126.776 116.11 126.776 98.3153C126.776 80.5206 141.784 66.0439 160.231 66.0439C178.679 66.0439 193.687 80.5206 193.687 98.3153C193.687 116.11 178.679 130.587 160.231 130.587ZM160.231 67.0478C142.358 67.0478 127.816 81.0743 127.816 98.3153C127.816 115.556 142.358 129.583 160.231 129.583C178.105 129.583 192.646 115.556 192.646 98.3153C192.646 81.0738 178.104 67.0478 160.231 67.0478Z" fill="#3E479B"/>
<path d="M189.553 126.874L188.062 125.436C187.488 124.882 187.488 123.985 188.062 123.432L183.616 127.72L183.544 127.79C182.97 128.344 182.97 129.241 183.544 129.794L185.353 131.54C185.949 130.575 187.695 128.687 189.553 126.874Z" fill="#4C65BA"/>
<path d="M188.065 123.433C187.491 123.987 187.491 124.884 188.065 125.437L189.556 126.875C191.355 125.121 193.252 123.445 194.316 122.75L192.584 121.079C192.059 120.572 191.238 120.535 190.662 120.956C190.609 120.994 190.555 121.032 190.506 121.079L188.065 123.433Z" fill="#4C65BA"/>
<path opacity="0.43" d="M188.065 123.433C187.491 123.987 187.491 124.884 188.065 125.437L189.556 126.875C191.355 125.121 193.252 123.445 194.316 122.75L192.584 121.079C192.059 120.572 191.238 120.535 190.662 120.956C190.609 120.994 190.555 121.032 190.506 121.079L188.065 123.433Z" fill="#3E479B"/>
<path d="M222.191 148.83L195.126 122.439C195.029 122.344 194.732 122.47 194.306 122.748C193.242 123.444 191.345 125.12 189.546 126.874C187.688 128.686 185.943 130.575 185.346 131.54C185.152 131.854 185.077 132.071 185.162 132.155L212.226 158.546C214.978 161.229 219.439 161.229 222.19 158.546C224.943 155.863 224.943 151.513 222.191 148.83Z" fill="#599AF2"/>
<path opacity="0.14" d="M222.201 148.831L195.136 122.439C194.771 122.084 191.687 124.749 189.039 127.383C186.786 129.624 219.449 161.23 222.201 158.547C224.952 155.864 224.952 151.514 222.201 148.831Z" fill="#3E479B"/>
<path d="M122.257 116.063H33.2917C28.0943 116.063 23.8809 111.999 23.8809 106.985C23.8809 101.972 28.0943 97.9072 33.2917 97.9072H122.257C127.455 97.9072 131.668 101.972 131.668 106.985C131.669 111.999 127.455 116.063 122.257 116.063Z" fill="white"/>
<path d="M122.258 116.063H107.788L107.719 97.9072H122.259C127.456 97.9072 131.67 101.972 131.67 106.985C131.67 111.999 127.456 116.063 122.258 116.063Z" fill="#599AF2"/>
<path d="M118.593 110.166C116.323 110.166 114.477 108.385 114.477 106.196C114.477 104.006 116.323 102.225 118.593 102.225C120.863 102.225 122.71 104.006 122.71 106.196C122.71 107.256 122.282 108.254 121.504 109.003C120.727 109.753 119.693 110.166 118.593 110.166ZM118.593 103.229C116.897 103.229 115.517 104.56 115.517 106.196C115.517 107.832 116.897 109.163 118.593 109.163C119.415 109.163 120.187 108.854 120.768 108.294C121.349 107.734 121.669 106.989 121.669 106.196C121.669 104.56 120.289 103.229 118.593 103.229Z" fill="white"/>
<path d="M124.392 112.318C124.259 112.318 124.125 112.269 124.024 112.171L120.758 109.021C120.555 108.825 120.555 108.507 120.758 108.311C120.962 108.115 121.291 108.115 121.494 108.311L124.759 111.461C124.963 111.658 124.963 111.975 124.759 112.171C124.658 112.269 124.525 112.318 124.392 112.318Z" fill="white"/>
<path d="M123.515 134.822H79.2321C76.1328 134.822 73.6204 132.399 73.6204 129.409V125.859C73.6204 122.859 71.0987 120.427 67.9885 120.427H47.5343C44.4241 120.427 41.9023 122.859 41.9023 125.859V139.882V156.004V182.245C41.9023 185.039 44.2508 187.305 47.1482 187.305H123.515C126.412 187.305 128.761 185.04 128.761 182.245V139.882C128.761 137.088 126.412 134.822 123.515 134.822Z" fill="#F28393"/>
<path d="M118.632 134.822H74.3487C71.2494 134.822 68.7371 132.399 68.7371 129.409V125.859C68.7371 122.859 66.2154 120.427 63.1051 120.427H42.6515C39.5412 120.427 37.0195 122.859 37.0195 125.859V139.882V156.004V182.245C37.0195 185.039 39.368 187.305 42.2654 187.305H118.632C121.529 187.305 123.877 185.04 123.877 182.245V139.882C123.877 137.088 121.529 134.822 118.632 134.822Z" fill="#F28393"/>
<path opacity="0.12" d="M118.632 134.822H74.3487C71.2494 134.822 68.7371 132.399 68.7371 129.409V125.859C68.7371 122.859 66.2154 120.427 63.1051 120.427H42.6515C39.5412 120.427 37.0195 122.859 37.0195 125.859V139.882V156.004V182.245C37.0195 185.039 39.368 187.305 42.2654 187.305H118.632C121.529 187.305 123.877 185.04 123.877 182.245V139.882C123.877 137.088 121.529 134.822 118.632 134.822Z" fill="white"/>
<path opacity="0.12" d="M107.399 134.822H69.2111C66.5385 134.822 64.3717 132.399 64.3717 129.409V125.859C64.3717 122.859 62.1971 120.427 59.5151 120.427H41.8761C39.1936 120.427 37.0195 122.859 37.0195 125.859V139.882V156.004V182.245C37.0195 185.039 39.0448 187.305 41.5431 187.305H107.4C109.898 187.305 111.924 185.04 111.924 182.245V139.882C111.924 137.088 109.898 134.822 107.399 134.822Z" fill="white"/>
<path d="M41.1141 140.46C40.8269 140.46 40.5938 140.236 40.5938 139.958V127.641C40.5938 125.733 42.2027 124.181 44.1801 124.181H59.2526C59.5399 124.181 59.773 124.405 59.773 124.683C59.773 124.96 59.5399 125.185 59.2526 125.185H44.1807C42.7772 125.185 41.635 126.286 41.635 127.641V139.958C41.6345 140.235 41.4019 140.46 41.1141 140.46Z" fill="white"/>
</svg>
