<svg width="322" height="325" viewBox="0 0 322 325" fill="none" xmlns="http://www.w3.org/2000/svg">
<path opacity="0.23" d="M294.95 163.48C278.084 145.736 249.766 145.017 232.022 161.883L198.292 193.944C186.787 189.68 173.307 191.962 163.855 200.946L54.0117 305.355H150.225L171.846 284.804C174.908 291.497 179.108 297.807 184.463 303.44C210.451 330.781 253.683 331.878 281.024 305.89C303.548 284.481 308.242 251.376 294.674 225.087C311.116 208.096 311.385 180.771 294.95 163.48Z" fill="#C3D0E2"/>
<path opacity="0.23" d="M280.422 78.1887C280.422 55.1525 261.748 36.4775 238.711 36.4775C215.675 36.4775 197 55.1517 197 78.1887C197 98.589 211.646 115.566 230.997 119.185L238.349 134.979L244.544 119.491C264.819 116.654 280.422 99.2453 280.422 78.1887Z" fill="#C3D0E2"/>
<path d="M75.2031 155.328C75.2031 155.328 92.5442 162.979 96.1146 177.77" stroke="#230B19" stroke-width="3.362" stroke-miterlimit="10" stroke-linecap="round" stroke-linejoin="round"/>
<path d="M68.3165 166.038C75.781 166.038 81.8322 159.987 81.8322 152.523C81.8322 145.058 75.781 139.007 68.3165 139.007C60.852 139.007 54.8008 145.058 54.8008 152.523C54.8008 159.987 60.852 166.038 68.3165 166.038Z" fill="#A2A2F9"/>
<path d="M257.187 156.458C257.187 156.458 239.846 164.109 236.275 178.899" stroke="#230B19" stroke-width="3.362" stroke-miterlimit="10" stroke-linecap="round" stroke-linejoin="round"/>
<path d="M264.074 167.168C271.539 167.168 277.59 161.117 277.59 153.652C277.59 146.188 271.539 140.137 264.074 140.137C256.61 140.137 250.559 146.188 250.559 153.652C250.559 161.117 256.61 167.168 264.074 167.168Z" fill="#A2A2F9"/>
<path d="M93.0764 252.395H73.6921C56.8587 252.395 43.0859 238.622 43.0859 221.789C43.0859 204.955 56.8587 191.183 73.6921 191.183H93.0764C109.91 191.183 123.683 204.955 123.683 221.789C123.683 238.622 109.91 252.395 93.0764 252.395Z" fill="#A2A2F9"/>
<path d="M93.0771 191.182H73.6928C69.9964 191.182 66.4471 191.846 63.1592 193.061C62.9645 195.571 63.0013 198.101 63.2066 200.568C63.7015 206.518 65.0333 213.423 68.3963 218.474C70.0756 220.996 70.6222 223.558 70.2342 226.562C69.8186 229.779 69.2983 232.976 69.1715 236.223C68.9613 241.603 69.5843 247.072 71.0605 252.279C71.9285 252.354 72.8057 252.395 73.6921 252.395H93.0764C109.91 252.395 123.683 238.622 123.683 221.788C123.683 204.954 109.911 191.182 93.0771 191.182Z" fill="#230B19"/>
<path d="M58.5625 195.525C58.5625 195.525 67.7438 222.728 58.5625 248.231" stroke="#2D1A14" stroke-width="1.4408" stroke-miterlimit="10" stroke-linecap="round" stroke-linejoin="round"/>
<path d="M248.472 254.435H267.856C284.69 254.435 298.463 240.662 298.463 223.829C298.463 206.995 284.69 193.223 267.856 193.223H248.472C231.639 193.223 217.865 206.995 217.865 223.829C217.865 240.661 231.639 254.435 248.472 254.435Z" fill="#A2A2F9"/>
<path d="M248.473 193.222H267.858C271.554 193.222 275.103 193.886 278.391 195.101C278.586 197.611 278.549 200.141 278.344 202.608C277.849 208.558 276.517 215.464 273.154 220.514C271.475 223.036 270.928 225.599 271.316 228.602C271.732 231.819 272.252 235.016 272.379 238.263C272.589 243.643 271.966 249.111 270.49 254.319C269.622 254.394 268.745 254.435 267.858 254.435H248.474C231.641 254.435 217.867 240.662 217.867 223.828C217.866 206.995 231.64 193.222 248.473 193.222Z" fill="#230B19"/>
<path d="M282.987 197.566C282.987 197.566 273.806 224.769 282.987 250.272" stroke="#2D1A14" stroke-width="1.4408" stroke-miterlimit="10" stroke-linecap="round" stroke-linejoin="round"/>
<path d="M192.037 280.96H142.047C105.574 280.96 75.7324 251.119 75.7324 214.646C75.7324 178.174 105.574 148.332 142.047 148.332H192.037C228.51 148.332 258.351 178.174 258.351 214.646C258.351 251.119 228.51 280.96 192.037 280.96Z" fill="#A595FA"/>
<path d="M97.6267 176.308C109.328 183.724 124.3 184.597 137.648 182.358C150.673 180.173 164.138 174.915 173.646 165.484C173.816 165.316 174.096 165.276 174.303 165.399C185.542 172.104 198.476 177.214 211.79 176.001C221.229 175.142 229.345 171.098 236.238 165.323C224.485 154.773 208.977 148.332 192.036 148.332H142.046C121.972 148.332 103.909 157.374 91.7227 171.583C93.4969 173.352 95.468 174.94 97.6267 176.308Z" fill="#7979F7"/>
<path d="M211.07 255.032H125.721C106.925 255.032 91.5469 239.654 91.5469 220.858C91.5469 202.063 106.925 186.685 125.721 186.685H211.07C229.866 186.685 245.244 202.063 245.244 220.858C245.244 239.654 229.865 255.032 211.07 255.032Z" fill="#230B19"/>
<path d="M149.183 225.108C144.787 225.108 141.191 221.512 141.191 217.117C141.191 212.722 144.787 209.126 149.182 209.126C153.577 209.126 157.172 212.722 157.172 217.117C157.173 221.512 153.578 225.108 149.183 225.108Z" fill="white"/>
<path d="M193.899 209.127L179.617 218.988L195.599 225.448" stroke="#FFBD51" stroke-width="2.8817" stroke-miterlimit="10" stroke-linecap="round" stroke-linejoin="round"/>
<path d="M161.934 231.569V233.78C161.934 236.879 164.446 239.391 167.544 239.391C170.643 239.391 173.155 236.879 173.155 233.78V231.569" stroke="#FFBD51" stroke-width="2.8817" stroke-miterlimit="10" stroke-linecap="round" stroke-linejoin="round"/>
<path d="M123.423 243.344C129.197 243.344 133.878 238.663 133.878 232.888C133.878 227.114 129.197 222.433 123.423 222.433C117.648 222.433 112.967 227.114 112.967 232.888C112.967 238.663 117.648 243.344 123.423 243.344Z" fill="white"/>
<path d="M222.797 235.214C224.132 229.596 220.66 223.959 215.042 222.624C209.424 221.289 203.788 224.761 202.453 230.379C201.117 235.997 204.589 241.634 210.208 242.969C215.826 244.304 221.462 240.832 222.797 235.214Z" fill="white"/>
<path d="M29.0108 199.144C27.4235 199.144 26.125 197.846 26.125 196.258V166.012C26.125 164.424 27.4235 163.126 29.0108 163.126C30.5981 163.126 31.8966 164.424 31.8966 166.012V196.258C31.8966 197.846 30.5981 199.144 29.0108 199.144Z" fill="#DBCCFF"/>
<path d="M11.002 181.136C11.002 179.549 12.3004 178.25 13.8878 178.25H44.1342C45.7216 178.25 47.02 179.548 47.02 181.136C47.02 182.723 45.7216 184.022 44.1342 184.022H13.8878C12.3004 184.021 11.002 182.722 11.002 181.136Z" fill="#DBCCFF"/>
<path d="M16.2752 168.401C17.3974 167.279 19.234 167.279 20.3561 168.401L41.7434 189.788C42.8656 190.911 42.8656 192.747 41.7434 193.869C40.6212 194.992 38.7847 194.992 37.6625 193.869L16.2752 172.482C15.153 171.359 15.153 169.523 16.2752 168.401Z" fill="#DBCCFF"/>
<path d="M41.7434 168.401C42.8656 169.523 42.8656 171.36 41.7434 172.482L20.3561 193.869C19.234 194.992 17.3974 194.992 16.2752 193.869C15.153 192.747 15.153 190.911 16.2752 189.788L37.6625 168.401C38.7854 167.279 40.6212 167.279 41.7434 168.401Z" fill="#DBCCFF"/>
<path d="M33.7488 191.772C39.2591 189.49 41.8758 183.172 39.5933 177.662C37.3108 172.152 30.9935 169.535 25.4832 171.817C19.9729 174.1 17.3562 180.417 19.6387 185.927C21.9212 191.438 28.2385 194.054 33.7488 191.772Z" fill="#DBCCFF"/>
<path d="M29.6116 186.546C32.2373 186.546 34.3659 184.417 34.3659 181.791C34.3659 179.166 32.2373 177.037 29.6116 177.037C26.986 177.037 24.8574 179.166 24.8574 181.791C24.8574 184.417 26.986 186.546 29.6116 186.546Z" fill="white"/>
<path d="M29.8002 53.6899C28.678 53.6899 27.7598 52.7716 27.7598 51.6494V30.2621C27.7598 29.14 28.678 28.2217 29.8002 28.2217C30.9224 28.2217 31.8407 29.14 31.8407 30.2621V51.6494C31.8407 52.7716 30.9224 53.6899 29.8002 53.6899Z" fill="#DBCCFF"/>
<path d="M17.0664 40.9555C17.0664 39.8333 17.9847 38.915 19.1069 38.915H40.4941C41.6163 38.915 42.5346 39.8333 42.5346 40.9555C42.5346 42.0777 41.6163 42.996 40.4941 42.996H19.1069C17.984 42.996 17.0664 42.0777 17.0664 40.9555Z" fill="#DBCCFF"/>
<path d="M20.7964 31.9517C21.5901 31.158 22.8886 31.158 23.6822 31.9517L38.8058 47.0746C39.5995 47.8682 39.5995 49.1667 38.8058 49.9604C38.0122 50.754 36.7137 50.754 35.92 49.9604L20.7964 34.8375C20.0028 34.0438 20.0028 32.7454 20.7964 31.9517Z" fill="#DBCCFF"/>
<path d="M38.8039 31.9517C39.5975 32.7454 39.5975 34.0438 38.8039 34.8375L23.6803 49.9604C22.8866 50.754 21.5881 50.754 20.7945 49.9604C20.0008 49.1667 20.0008 47.8682 20.7945 47.0746L35.9181 31.9517C36.7117 31.158 38.0102 31.158 38.8039 31.9517Z" fill="#DBCCFF"/>
<path d="M30.2244 49.0572C34.4419 49.0572 37.8609 45.6382 37.8609 41.4207C37.8609 37.2032 34.4419 33.7842 30.2244 33.7842C26.0069 33.7842 22.5879 37.2032 22.5879 41.4207C22.5879 45.6382 26.0069 49.0572 30.2244 49.0572Z" fill="#DBCCFF"/>
<path d="M30.2249 44.7818C32.0814 44.7818 33.5865 43.2767 33.5865 41.4202C33.5865 39.5636 32.0814 38.0586 30.2249 38.0586C28.3683 38.0586 26.8633 39.5636 26.8633 41.4202C26.8633 43.2767 28.3683 44.7818 30.2249 44.7818Z" fill="white"/>
<path d="M129.177 142.717C131.574 142.717 133.517 140.773 133.517 138.376C133.517 135.979 131.574 134.035 129.177 134.035C126.779 134.035 124.836 135.979 124.836 138.376C124.836 140.773 126.779 142.717 129.177 142.717Z" stroke="#230B19" stroke-width="1.0218" stroke-miterlimit="10" stroke-linecap="round" stroke-linejoin="round"/>
<path d="M286.784 278.496C286.784 280.893 284.841 282.837 282.443 282.837C280.046 282.837 278.102 280.893 278.102 278.496C278.102 276.098 280.045 274.154 282.443 274.154C284.841 274.154 286.784 276.098 286.784 278.496Z" stroke="#230B19" stroke-width="1.0218" stroke-miterlimit="10" stroke-linecap="round" stroke-linejoin="round"/>
<path d="M29.0696 239.432C29.0696 241.83 27.1262 243.773 24.7282 243.773C22.3309 243.773 20.3867 241.83 20.3867 239.432C20.3867 237.035 22.3302 235.091 24.7282 235.091C27.1262 235.091 29.0696 237.034 29.0696 239.432Z" stroke="#230B19" stroke-width="1.0218" stroke-miterlimit="10" stroke-linecap="round" stroke-linejoin="round"/>
<path d="M136.494 118.984C136.494 120.183 135.522 121.155 134.323 121.155C133.124 121.155 132.152 120.183 132.152 118.984C132.152 117.786 133.124 116.813 134.323 116.813C135.522 116.814 136.494 117.786 136.494 118.984Z" stroke="#230B19" stroke-width="1.0218" stroke-miterlimit="10" stroke-linecap="round" stroke-linejoin="round"/>
<path d="M308.486 247.57C308.486 248.769 307.515 249.741 306.315 249.741C305.117 249.741 304.145 248.769 304.145 247.57C304.145 246.372 305.116 245.399 306.315 245.399C307.515 245.399 308.486 246.371 308.486 247.57Z" stroke="#230B19" stroke-width="1.0218" stroke-miterlimit="10" stroke-linecap="round" stroke-linejoin="round"/>
<path d="M229.815 146.113C231.014 146.113 231.986 145.141 231.986 143.942C231.986 142.743 231.014 141.771 229.815 141.771C228.616 141.771 227.645 142.743 227.645 143.942C227.645 145.141 228.616 146.113 229.815 146.113Z" stroke="#230B19" stroke-width="1.0218" stroke-miterlimit="10" stroke-linecap="round" stroke-linejoin="round"/>
<path d="M297.634 147.198C297.634 148.397 296.662 149.369 295.464 149.369C294.265 149.369 293.293 148.397 293.293 147.198C293.293 145.999 294.265 145.027 295.464 145.027C296.663 145.027 297.634 145.999 297.634 147.198Z" stroke="#230B19" stroke-width="1.0218" stroke-miterlimit="10" stroke-linecap="round" stroke-linejoin="round"/>
<path d="M41.0055 252.995C41.0055 254.194 40.0334 255.166 38.8348 255.166C37.6361 255.166 36.6641 254.194 36.6641 252.995C36.6641 251.796 37.6361 250.824 38.8348 250.824C40.0334 250.825 41.0055 251.796 41.0055 252.995Z" stroke="#230B19" stroke-width="1.0218" stroke-miterlimit="10" stroke-linecap="round" stroke-linejoin="round"/>
<path d="M98.7862 147.74C99.5354 147.74 100.143 147.133 100.143 146.384C100.143 145.635 99.5354 145.027 98.7862 145.027C98.037 145.027 97.4297 145.635 97.4297 146.384C97.4297 147.133 98.037 147.74 98.7862 147.74Z" fill="#230B19"/>
<path d="M67.3194 180.836C68.0686 180.836 68.6759 180.229 68.6759 179.48C68.6759 178.73 68.0686 178.123 67.3194 178.123C66.5702 178.123 65.9629 178.73 65.9629 179.48C65.9629 180.229 66.5702 180.836 67.3194 180.836Z" fill="#230B19"/>
<path d="M27.4409 279.038C27.4409 279.937 26.7124 280.666 25.8132 280.666C24.9141 280.666 24.1855 279.937 24.1855 279.038C24.1855 278.139 24.9141 277.41 25.8132 277.41C26.7124 277.41 27.4409 278.139 27.4409 279.038Z" fill="#230B19"/>
<path d="M26.3576 219.357C27.856 219.357 29.0706 218.142 29.0706 216.644C29.0706 215.145 27.856 213.931 26.3576 213.931C24.8592 213.931 23.6445 215.145 23.6445 216.644C23.6445 218.142 24.8592 219.357 26.3576 219.357Z" fill="#230B19"/>
<path d="M198.346 306.709C199.844 306.709 201.059 305.495 201.059 303.996C201.059 302.498 199.844 301.283 198.346 301.283C196.847 301.283 195.633 302.498 195.633 303.996C195.633 305.495 196.847 306.709 198.346 306.709Z" fill="#230B19"/>
<path d="M260.198 271.714C260.198 273.662 258.619 275.241 256.671 275.241C254.723 275.241 253.145 273.662 253.145 271.714C253.145 269.766 254.723 268.188 256.671 268.188C258.619 268.188 260.198 269.766 260.198 271.714Z" fill="#230B19"/>
<path d="M308.755 269.272C309.504 269.272 310.111 268.664 310.111 267.915C310.111 267.166 309.504 266.559 308.755 266.559C308.006 266.559 307.398 267.166 307.398 267.915C307.398 268.664 308.006 269.272 308.755 269.272Z" fill="#230B19"/>
<path d="M301.975 117.9C301.975 118.499 301.49 118.985 300.89 118.985C300.291 118.985 299.805 118.499 299.805 117.9C299.805 117.301 300.29 116.814 300.89 116.814C301.49 116.815 301.975 117.301 301.975 117.9Z" fill="#230B19"/>
<path d="M193.464 133.091C193.464 133.69 192.978 134.177 192.378 134.177C191.779 134.177 191.293 133.691 191.293 133.091C191.293 132.492 191.779 132.006 192.378 132.006C192.978 132.007 193.464 132.492 193.464 133.091Z" fill="#230B19"/>
<path d="M229.814 302.91C229.814 304.558 228.478 305.894 226.83 305.894C225.182 305.894 223.846 304.558 223.846 302.91C223.846 301.262 225.182 299.926 226.83 299.926C228.478 299.926 229.814 301.262 229.814 302.91Z" fill="#DBCCFF"/>
<path d="M242.023 302.91C242.023 304.558 240.687 305.894 239.039 305.894C237.391 305.894 236.055 304.558 236.055 302.91C236.055 301.262 237.391 299.926 239.039 299.926C240.687 299.926 242.023 301.262 242.023 302.91Z" fill="#DBCCFF"/>
<path d="M254.23 302.91C254.23 304.558 252.894 305.894 251.246 305.894C249.598 305.894 248.262 304.558 248.262 302.91C248.262 301.262 249.598 299.926 251.246 299.926C252.894 299.926 254.23 301.262 254.23 302.91Z" fill="#DBCCFF"/>
<path d="M52.5917 101H77.6966C80.7846 101 83.2883 103.458 83.2883 106.491V117.781C83.2883 120.814 80.7851 123.273 77.6966 123.273H76.938L78.1042 129L69.2173 123.273H52.5917C49.5037 123.273 47 120.814 47 117.781V106.491C47 103.459 49.5037 101 52.5917 101Z" stroke="#230B19" stroke-width="1.4168" stroke-miterlimit="10" stroke-linecap="round" stroke-linejoin="round"/>
<path d="M73.2959 113.813C73.2959 114.854 72.4366 115.698 71.3765 115.698C70.3163 115.698 69.457 114.854 69.457 113.813C69.457 112.772 70.3163 111.928 71.3765 111.928C72.4366 111.928 73.2959 112.772 73.2959 113.813Z" fill="#DBCCFF"/>
<path d="M81.1475 113.813C81.1475 114.854 80.2882 115.698 79.228 115.698C78.1679 115.698 77.3086 114.854 77.3086 113.813C77.3086 112.772 78.1679 111.928 79.228 111.928C80.2882 111.928 81.1475 112.772 81.1475 113.813Z" fill="#DBCCFF"/>
<path d="M88.9991 113.813C88.9991 114.854 88.1397 115.698 87.0796 115.698C86.0195 115.698 85.1602 114.854 85.1602 113.813C85.1602 112.772 86.0195 111.928 87.0796 111.928C88.1397 111.928 88.9991 112.772 88.9991 113.813Z" fill="#DBCCFF"/>
<path d="M77.5917 66H102.697C105.785 66 108.288 68.5461 108.288 71.6874V83.3807C108.288 86.5215 105.785 89.0681 102.697 89.0681H101.938L103.104 95L94.2173 89.0681H77.5917C74.5037 89.0681 72 86.522 72 83.3807V71.6874C72 68.5465 74.5037 66 77.5917 66Z" stroke="#230B19" stroke-width="1.4168" stroke-miterlimit="10" stroke-linecap="round" stroke-linejoin="round"/>
<path d="M98.2959 79.2707C98.2959 80.3489 97.4366 81.2229 96.3765 81.2229C95.3163 81.2229 94.457 80.3489 94.457 79.2707C94.457 78.1924 95.3163 77.3184 96.3765 77.3184C97.4366 77.3184 98.2959 78.1924 98.2959 79.2707Z" fill="#DBCCFF"/>
<path d="M106.147 79.2707C106.147 80.3489 105.288 81.2229 104.228 81.2229C103.168 81.2229 102.309 80.3489 102.309 79.2707C102.309 78.1924 103.168 77.3184 104.228 77.3184C105.288 77.3184 106.147 78.1924 106.147 79.2707Z" fill="#DBCCFF"/>
<path d="M113.999 79.2707C113.999 80.3489 113.14 81.2229 112.08 81.2229C111.019 81.2229 110.16 80.3489 110.16 79.2707C110.16 78.1924 111.019 77.3184 112.08 77.3184C113.14 77.3184 113.999 78.1924 113.999 79.2707Z" fill="#DBCCFF"/>
</svg>
