<svg width="44" height="44" viewBox="0 0 44 44" fill="none" xmlns="http://www.w3.org/2000/svg">
<g clip-path="url(#clip0_2104_28240)">
<path d="M27.1482 43.3568H16.8516L18.544 37.835H25.4558L27.1482 43.3568Z" fill="#90ABBD"/>
<path d="M44 9.2954V33.8875C44 36.4192 41.9418 38.4788 39.4127 38.4788H4.58734C2.0582 38.4788 0 36.4192 0 33.8875V9.2954C0 6.76377 2.0582 4.7041 4.58734 4.7041H39.4127C41.9418 4.7041 44 6.76377 44 9.2954Z" fill="#56788B"/>
<path d="M44.0014 9.2954V33.8875C44.0014 36.4192 41.9432 38.4788 39.4141 38.4788H37.6953C40.2245 38.4788 42.2827 36.4192 42.2827 33.8875V9.2954C42.2827 6.76377 40.2245 4.7041 37.6953 4.7041H39.4141C41.9432 4.7041 44.0014 6.76377 44.0014 9.2954Z" fill="#415E6F"/>
<path d="M41.4278 9.18943V31.3341C41.4278 32.4583 40.5134 33.3731 39.3894 33.3731H4.60875C3.48469 33.3731 2.57031 32.4583 2.57031 31.3341V9.18943C2.57031 8.0652 3.48469 7.15039 4.60875 7.15039H39.3894C40.5134 7.15039 41.4278 8.0652 41.4278 9.18943Z" fill="#D9F0F4"/>
<path d="M41.4291 9.18943V31.3341C41.4291 32.4583 40.5147 33.3731 39.3906 33.3731H37.6719C38.7959 33.3731 39.7103 32.4583 39.7103 31.3341V9.18943C39.7103 8.0652 38.7959 7.15039 37.6719 7.15039H39.3906C40.5147 7.15039 41.4291 8.0652 41.4291 9.18943Z" fill="#BAE1E5"/>
<path d="M30.4826 42.7129H13.5156C13.1597 42.7129 12.8711 43.001 12.8711 43.3566C12.8711 43.7121 13.1597 44.0002 13.5156 44.0002H30.4826C30.8386 44.0002 31.1271 43.7121 31.1271 43.3566C31.1271 43.001 30.8386 42.7129 30.4826 42.7129Z" fill="#56788B"/>
<path d="M8.13695 35.3271H5.50391C5.14795 35.3271 4.85938 35.6153 4.85938 35.9708C4.85938 36.3263 5.14795 36.6145 5.50391 36.6145H8.13695C8.4929 36.6145 8.78148 36.3263 8.78148 35.9708C8.78148 35.6153 8.4929 35.3271 8.13695 35.3271Z" fill="#415E6F"/>
<path d="M13.2932 35.3271H10.6602C10.3042 35.3271 10.0156 35.6153 10.0156 35.9708C10.0156 36.3263 10.3042 36.6145 10.6602 36.6145H13.2932C13.6491 36.6145 13.9377 36.3263 13.9377 35.9708C13.9377 35.6153 13.6491 35.3271 13.2932 35.3271Z" fill="#415E6F"/>
<path d="M8.16455 26.9277H5.40234C5.04639 26.9277 4.75781 27.2163 4.75781 27.5723C4.75781 27.9282 5.04639 28.2168 5.40234 28.2168H8.16463C8.52059 28.2168 8.80916 27.9282 8.80916 27.5723C8.80916 27.2163 8.5205 26.9277 8.16455 26.9277Z" fill="#90ABBD"/>
<path d="M4.75781 30.5801C4.75781 30.936 5.04639 31.2246 5.40234 31.2246H9.8808C10.2368 31.2246 10.5253 30.936 10.5253 30.5801C10.5253 30.2241 10.2368 29.9355 9.8808 29.9355H5.40234C5.0463 29.9355 4.75781 30.2241 4.75781 30.5801Z" fill="#90ABBD"/>
<path d="M36.0955 14.7842C36.0955 21.3324 31.6298 26.8388 25.5781 28.423C24.4348 28.723 23.2348 28.882 21.9969 28.882C14.2105 28.882 7.89844 22.5701 7.89844 14.7842C7.89852 6.9974 14.2106 0.685547 21.997 0.685547C23.2348 0.685547 24.4349 0.844531 25.5782 1.14454C31.6298 2.72871 36.0955 8.23516 36.0955 14.7842Z" fill="#D9F0F4"/>
<path d="M36.0955 14.7842C36.0955 21.3324 31.6298 26.8388 25.5781 28.423C30.9017 26.1847 34.6393 20.9206 34.6393 14.7842C34.6393 8.64773 30.9018 3.38286 25.5782 1.14453C31.6298 2.7287 36.0955 8.23515 36.0955 14.7842Z" fill="#BAE1E5"/>
<path d="M21.9983 0C21.6545 0 21.3124 0.0120312 20.9746 0.0352344C13.2939 0.562203 7.20703 6.97546 7.20703 14.7837C7.20703 22.5913 13.2939 29.0045 20.9746 29.5314C21.3124 29.5546 21.6545 29.5666 21.9983 29.5666C30.1543 29.5666 36.7896 22.935 36.7896 14.7837C36.7896 6.63163 30.1543 0 21.9983 0ZM30.6469 4.42853C33.457 6.77686 35.3009 10.2444 35.4849 14.1391H31.2581C31.1687 10.7679 30.3796 7.5961 29.0042 5.0698C29.5114 4.89955 30.0039 4.70963 30.4811 4.50166C30.5368 4.47752 30.5919 4.45345 30.6469 4.42853ZM28.3182 25.629C28.7041 25.7519 29.0815 25.886 29.4495 26.0321C28.656 26.5581 27.805 27.0035 26.9067 27.3549C27.407 26.8581 27.8798 26.2813 28.3182 25.629ZM22.643 28.2335V24.7041C24.1577 24.7462 25.6225 24.9354 27.0004 25.2637C25.7462 26.9845 24.2368 28.0142 22.643 28.2335ZM27.738 24.1196C26.1357 23.7001 24.4199 23.4611 22.643 23.4147V20.7518H21.3536V23.4147C19.5768 23.4611 17.861 23.7001 16.2587 24.1196C14.9014 21.7437 14.1192 18.694 14.0281 15.4284H21.3537V17.7433H22.6431V15.4284H29.9688C29.8775 18.694 29.0953 21.7437 27.738 24.1196ZM14.028 14.139C14.1191 10.8735 14.9014 7.82289 16.2587 5.44706C17.861 5.86738 19.5768 6.10638 21.3535 6.15278V14.139H14.028ZM22.643 14.139V6.15278C24.4199 6.10638 26.1356 5.86738 27.738 5.44706C29.0953 7.82289 29.8776 10.8735 29.9687 14.139H22.643ZM27.0004 4.30298C25.6225 4.6322 24.1577 4.82127 22.643 4.86252V1.33323C24.2368 1.55237 25.7462 2.58216 27.0004 4.30298ZM26.9067 2.21255C27.805 2.56326 28.6561 3.0085 29.4495 3.53461C29.0816 3.6807 28.7041 3.81571 28.3182 3.93774C27.8798 3.2853 27.407 2.70935 26.9067 2.21255ZM21.3536 1.33323V4.8626C19.839 4.82135 18.3742 4.6322 16.9963 4.30306C18.2504 2.58216 19.7599 1.55237 21.3536 1.33323ZM17.0899 2.21255C16.5896 2.70935 16.1169 3.2853 15.6784 3.93774C15.2925 3.81485 14.9151 3.6807 14.5471 3.53461C15.3407 3.0085 16.1916 2.56326 17.0899 2.21255ZM13.3498 4.42853C13.8784 4.6658 14.4268 4.87979 14.9925 5.0698C13.6171 7.5961 12.8279 10.7679 12.7386 14.1391H8.51191C8.69581 10.2444 10.5397 6.77686 13.3498 4.42853ZM8.51191 15.4284H12.7387C12.828 18.7988 13.6172 21.9706 14.9925 24.4969C14.4269 24.6868 13.8784 24.9009 13.3498 25.139C10.5397 22.7898 8.69581 19.3223 8.51191 15.4284ZM14.5472 26.0321C14.9151 25.886 15.2925 25.7519 15.6785 25.629C16.1169 26.2814 16.5897 26.8581 17.09 27.355C16.1916 27.0035 15.3407 26.5581 14.5472 26.0321ZM16.9963 25.2636C18.3742 24.9353 19.839 24.7462 21.3536 24.704V28.2334C19.7599 28.0142 18.2504 26.9845 16.9963 25.2636ZM30.6469 25.1382C30.5919 25.1133 30.5378 25.0892 30.4819 25.0651C30.0048 24.8571 29.5114 24.6672 29.0042 24.497C30.3796 21.9707 31.1687 18.7989 31.2581 15.4285H35.4849C35.3009 19.3223 33.457 22.7898 30.6469 25.1382Z" fill="#4DD4F7"/>
<path d="M36.7877 14.7837C36.7877 22.9351 30.1524 29.5666 21.9964 29.5666C21.6526 29.5666 21.3105 29.5546 20.9727 29.5314C24.6965 29.2511 28.0353 27.5931 30.48 25.065C30.5359 25.0891 30.59 25.1132 30.645 25.1381C33.4551 22.7898 35.299 19.3223 35.4829 15.4284H34.625C34.6345 15.2151 34.6388 14.9994 34.6388 14.7837C34.6388 14.5679 34.6345 14.3522 34.625 14.139H35.4829C35.299 10.2443 33.4551 6.77677 30.645 4.42836C30.59 4.45328 30.535 4.47734 30.4791 4.50141C28.0343 1.97355 24.6956 0.315477 20.9727 0.0352344C21.3105 0.0120312 21.6526 0 21.9964 0C30.1524 0 36.7877 6.63163 36.7877 14.7837Z" fill="#00C2F3"/>
<path d="M9.86856 9.66509C11.0559 9.66509 12.0184 8.70297 12.0184 7.51614C12.0184 6.32931 11.0559 5.36719 9.86856 5.36719C8.68125 5.36719 7.71875 6.32931 7.71875 7.51614C7.71875 8.70297 8.68125 9.66509 9.86856 9.66509Z" fill="#FF6B81"/>
<path d="M21.9974 17.0986C20.812 17.0986 19.8477 18.0626 19.8477 19.2476C19.8477 20.4325 20.812 21.3965 21.9974 21.3965C23.1828 21.3965 24.1472 20.4326 24.1472 19.2476C24.1472 18.0626 23.1828 17.0986 21.9974 17.0986Z" fill="#FF6B81"/>
<path d="M30.1811 12.3575C31.3684 12.3575 32.3309 11.3954 32.3309 10.2085C32.3309 9.02169 31.3684 8.05957 30.1811 8.05957C28.9938 8.05957 28.0312 9.02169 28.0312 10.2085C28.0312 11.3954 28.9938 12.3575 30.1811 12.3575Z" fill="#FF6B81"/>
</g>
<defs>
<clipPath id="clip0_2104_28240">
<rect width="44" height="44" fill="white"/>
</clipPath>
</defs>
</svg>
