<svg width="352" height="323" viewBox="0 0 352 323" fill="none" xmlns="http://www.w3.org/2000/svg">
<path d="M84.3127 323C130.504 323 167.95 321.175 167.95 318.923C167.95 316.672 130.504 314.847 84.3127 314.847C38.1213 314.847 0.675781 316.672 0.675781 318.923C0.675781 321.175 38.1213 323 84.3127 323Z" fill="#F5F7FF"/>
<path d="M117.416 155.018L126.62 155.431C127.224 155.458 127.788 155.05 127.96 154.452L130.441 146.519C134.671 145.761 138.678 144.271 142.304 142.197L149.316 146.735C149.814 147.073 150.507 147.018 150.959 146.604L157.764 140.385C158.21 139.977 158.325 139.318 158.034 138.759L154.11 131.374C156.54 127.944 158.376 124.119 159.484 119.946L167.64 118.187C168.244 118.07 168.669 117.543 168.696 116.939L169.108 107.762C169.136 107.131 168.759 106.595 168.169 106.397L160.202 103.941C159.472 99.6856 157.988 95.6788 155.875 92.0517L160.445 85.041C160.784 84.5431 160.728 83.8762 160.32 83.4304L154.101 76.626C153.687 76.1733 153.001 76.057 152.475 76.3491L145.084 80.2469C141.66 77.8501 137.802 76.0062 133.657 74.8729L131.898 66.7164C131.78 66.1126 131.254 65.6877 130.65 65.6606L121.446 65.2475C120.842 65.2204 120.279 65.5963 120.108 66.1872L117.652 74.1545C113.395 74.9106 109.395 76.4018 105.763 78.4818L98.7573 73.9377C98.2528 73.5994 97.586 73.6549 97.1398 74.0691L90.3354 80.2888C89.8896 80.6964 89.7745 81.3555 90.0338 81.8802L93.9578 89.2722C91.5348 92.6958 89.7238 96.5546 88.5827 100.726L80.434 102.459C79.8224 102.603 79.3987 103.103 79.3704 103.733L78.9584 112.911C78.9313 113.514 79.3073 114.077 79.9047 114.249L87.8643 116.731C88.627 120.988 90.0866 124.961 92.1928 128.594L87.6225 135.598C87.3158 136.13 87.3714 136.797 87.7789 137.243L93.9987 144.047C94.4059 144.5 95.0651 144.615 95.5979 144.323L102.982 140.432C106.413 142.822 110.264 144.666 114.436 145.8L116.17 153.923C116.287 154.533 116.813 154.991 117.416 155.018ZM123.287 127.26C113.939 126.841 106.71 118.925 107.129 109.577C107.549 100.229 115.458 92.9936 124.806 93.4133C134.128 93.8317 141.363 101.747 140.943 111.095C140.524 120.443 132.608 127.679 123.287 127.26Z" fill="#F5F7FF"/>
<path d="M119.177 202.679H44.8594V317.748H119.177V202.679Z" fill="url(#paint0_linear_2383_14597)"/>
<path d="M119.177 202.678L144.978 166.678H70.6609L44.8594 202.678H119.177Z" fill="url(#paint1_linear_2383_14597)"/>
<path d="M119.18 202.678V317.748H157.623V166.678H144.981L119.18 202.678Z" fill="url(#paint2_linear_2383_14597)"/>
<path d="M126.885 172.002L121.358 180.227H71.8828L77.4102 172.002H126.885Z" fill="white"/>
<path d="M75.3533 187.48C74.5988 188.868 72.7048 189.989 71.1239 189.989C69.534 189.989 68.8591 188.868 69.6135 187.48C70.3638 186.1 72.2578 184.979 73.8477 184.979C75.4286 184.979 76.1036 186.1 75.3533 187.48Z" fill="white"/>
<path d="M85.6151 187.48C84.8605 188.868 82.9666 189.989 81.3857 189.989C79.7958 189.989 79.1208 188.868 79.8753 187.48C80.6255 186.1 82.5195 184.979 84.1094 184.979C85.6903 184.979 86.3653 186.1 85.6151 187.48Z" fill="white"/>
<path d="M95.8729 187.48C95.1183 188.868 93.2244 189.989 91.6435 189.989C90.0536 189.989 89.3786 188.868 90.1331 187.48C90.8833 186.1 92.7773 184.979 94.3672 184.979C95.9482 184.979 96.6231 186.1 95.8729 187.48Z" fill="white"/>
<path d="M106.135 187.48C105.38 188.868 103.486 189.989 101.905 189.989C100.315 189.989 99.6403 188.868 100.395 187.48C101.145 186.1 103.039 184.979 104.629 184.979C106.21 184.979 106.885 186.1 106.135 187.48Z" fill="white"/>
<path d="M116.392 187.48C115.638 188.868 113.744 189.989 112.163 189.989C110.573 189.989 109.898 188.868 110.653 187.48C111.403 186.1 113.297 184.979 114.887 184.979C116.468 184.979 117.143 186.1 116.392 187.48Z" fill="white"/>
<path d="M71.4086 192.758L66.8705 199.319H63.8281L68.3663 192.758H71.4086Z" fill="white"/>
<path d="M81.4945 192.758L76.9564 199.319H73.9141L78.4521 192.758H81.4945Z" fill="white"/>
<path d="M92.1118 192.758L87.5736 199.319H84.5312L89.0694 192.758H92.1118Z" fill="white"/>
<path d="M102.737 192.758L98.1985 199.319H95.1562L99.6944 192.758H102.737Z" fill="white"/>
<path d="M112.901 192.758L108.363 199.319H105.32L109.858 192.758H112.901Z" fill="white"/>
<path d="M180.316 228.602H157.616C157.427 228.602 157.273 228.449 157.273 228.26C157.273 228.07 157.427 227.917 157.616 227.917H179.973V183.239C179.973 183.05 180.126 182.896 180.316 182.896C180.505 182.896 180.658 183.05 180.658 183.239V228.26C180.658 228.449 180.505 228.602 180.316 228.602Z" fill="#ADC8F7"/>
<path d="M191.936 239.262H157.616C157.427 239.262 157.273 239.109 157.273 238.919C157.273 238.73 157.427 238.577 157.616 238.577H191.594V183.239C191.594 183.05 191.747 182.896 191.936 182.896C192.125 182.896 192.278 183.05 192.278 183.239V238.919C192.278 239.108 192.125 239.262 191.936 239.262Z" fill="#ADC8F7"/>
<path d="M203.362 252.303H157.616C157.427 252.303 157.273 252.15 157.273 251.961C157.273 251.771 157.427 251.618 157.616 251.618H203.019V184.324C203.019 184.135 203.173 183.981 203.362 183.981C203.551 183.981 203.704 184.135 203.704 184.324V251.961C203.704 252.15 203.551 252.303 203.362 252.303Z" fill="#ADC8F7"/>
<path d="M245.961 174.071H203.069C202.88 174.071 202.727 173.918 202.727 173.728C202.727 173.539 202.88 173.386 203.069 173.386H245.618V160.687C245.618 160.498 245.771 160.345 245.961 160.345C246.15 160.345 246.303 160.498 246.303 160.687V173.728C246.303 173.918 246.15 174.071 245.961 174.071Z" fill="#ADC8F7"/>
<path d="M256.116 180.809H203.069C202.88 180.809 202.727 180.656 202.727 180.467C202.727 180.277 202.88 180.124 203.069 180.124H255.774V160.687C255.774 160.498 255.927 160.345 256.116 160.345C256.306 160.345 256.459 160.498 256.459 160.687V180.467C256.459 180.656 256.306 180.809 256.116 180.809Z" fill="#ADC8F7"/>
<path d="M265.847 187.434H203.069C202.88 187.434 202.727 187.281 202.727 187.092C202.727 186.903 202.88 186.75 203.069 186.75H265.504V160.687C265.504 160.498 265.657 160.345 265.847 160.345C266.036 160.345 266.189 160.498 266.189 160.687V187.092C266.189 187.281 266.036 187.434 265.847 187.434Z" fill="#ADC8F7"/>
<path d="M262.113 66.6867C262.552 91.2331 249.881 112.868 230.624 125.05C220.813 131.257 214.602 141.802 214.602 153.411V154.243H174.565V153.409C174.565 141.765 168.292 131.235 158.463 124.992C139.589 113.003 127.043 91.918 127.043 67.9212C127.043 29.3771 159.38 -1.63554 198.345 0.482268C233.287 2.38146 261.488 31.6994 262.113 66.6867Z" fill="url(#paint3_linear_2383_14597)"/>
<path d="M169.461 105.363C173.877 108.494 179.074 109.781 184.201 110.309C186.499 124.843 187.027 139.678 185.735 154.242H187.158C188.436 139.721 187.92 124.934 185.658 110.44C188.751 110.679 191.787 110.681 194.583 110.675C197.385 110.681 200.416 110.679 203.509 110.44C201.248 124.934 200.731 139.721 202.009 154.242H203.433C202.14 139.678 202.669 124.843 204.966 110.309C210.094 109.781 215.29 108.493 219.707 105.363C223.705 102.528 226.594 98.3916 228.664 95.1034C230.481 92.219 232.463 88.7451 233.393 84.8499C234.385 80.6998 233.971 76.6826 232.226 73.5376C230.175 69.843 226.236 67.5979 222.435 67.9406C219.498 68.2095 216.602 70.0037 214.488 72.8623C212.625 75.3827 211.542 78.3715 210.593 81.2162C207.582 90.2381 205.292 99.5511 203.741 108.995C200.575 109.259 197.453 109.255 194.583 109.256C191.721 109.259 188.593 109.259 185.427 108.995C183.876 99.5501 181.586 90.238 178.575 81.2162C177.626 78.3715 176.543 75.3827 174.679 72.8623C172.566 70.0037 169.669 68.2095 166.732 67.9406C162.927 67.5997 158.992 69.8439 156.941 73.5376C155.197 76.6826 154.782 80.6998 155.774 84.849C156.705 88.747 158.687 92.2209 160.503 95.1034C162.574 98.3916 165.463 102.528 169.461 105.363ZM211.939 81.6653C212.852 78.9287 213.889 76.0599 215.629 73.7068C217.502 71.1725 220.03 69.5862 222.564 69.3543C222.771 69.3349 222.979 69.3257 223.188 69.3257C226.208 69.3257 229.344 71.2705 230.985 74.227C232.557 77.0597 232.923 80.7155 232.013 84.5202C231.131 88.2148 229.218 91.5612 227.463 94.3478C225.463 97.5241 222.68 101.515 218.886 104.205C214.831 107.079 210.011 108.32 205.202 108.854C206.74 99.6102 208.991 90.4987 211.939 81.6653ZM158.182 74.2269C159.824 71.2704 162.96 69.3256 165.979 69.3256C166.188 69.3256 166.396 69.3348 166.603 69.3542C169.137 69.5861 171.665 71.1724 173.538 73.7067C175.279 76.0598 176.316 78.9286 177.228 81.6652C180.176 90.4987 182.427 99.6102 183.965 108.854C179.157 108.319 174.336 107.079 170.281 104.205C166.487 101.515 163.704 97.524 161.704 94.3477C159.95 91.5621 158.037 88.2167 157.154 84.5192C156.245 80.7155 156.61 77.0596 158.182 74.2269Z" fill="#ADC8F7"/>
<path d="M221.372 156.831V186.938C221.372 188.367 220.214 189.525 218.784 189.525H170.389C168.959 189.525 167.801 188.367 167.801 186.938V156.831C167.801 155.402 168.959 154.243 170.389 154.243H218.784C220.214 154.243 221.372 155.402 221.372 156.831Z" fill="url(#paint4_linear_2383_14597)"/>
<path d="M224.033 163.666H165.137C164.615 163.666 164.191 163.242 164.191 162.72C164.191 162.197 164.615 161.773 165.137 161.773H224.033C224.556 161.773 224.979 162.197 224.979 162.72C224.979 163.242 224.556 163.666 224.033 163.666Z" fill="#ADC8F7"/>
<path d="M224.033 172.83H165.137C164.615 172.83 164.191 172.407 164.191 171.884C164.191 171.361 164.615 170.938 165.137 170.938H224.033C224.556 170.938 224.979 171.361 224.979 171.884C224.979 172.407 224.556 172.83 224.033 172.83Z" fill="#ADC8F7"/>
<path d="M224.033 181.997H165.137C164.615 181.997 164.191 181.574 164.191 181.051C164.191 180.528 164.615 180.104 165.137 180.104H224.033C224.556 180.104 224.979 180.528 224.979 181.051C224.979 181.574 224.556 181.997 224.033 181.997Z" fill="#ADC8F7"/>
<path d="M283.92 104.976V159.223C283.92 160.107 283.204 160.824 282.32 160.824H238.534C237.65 160.824 236.934 160.107 236.934 159.223V104.976C236.934 104.093 237.65 103.376 238.534 103.376H282.32C283.204 103.376 283.92 104.093 283.92 104.976Z" fill="url(#paint5_linear_2383_14597)"/>
<path d="M238.537 160.827H233.87C232.985 160.827 232.273 160.108 232.273 159.223V104.974C232.273 104.096 232.985 103.377 233.87 103.377H238.537C237.652 103.377 236.941 104.096 236.941 104.974V159.223C236.941 160.108 237.652 160.827 238.537 160.827Z" fill="url(#paint6_linear_2383_14597)"/>
<path d="M239.84 155.997V108.205C239.84 107.142 240.701 106.28 241.764 106.28H279.096C280.158 106.28 281.02 107.142 281.02 108.205V155.997C281.02 157.059 280.158 157.921 279.096 157.921H241.764C240.701 157.921 239.84 157.059 239.84 155.997Z" fill="white"/>
<path d="M275.232 111.04V116.888C275.232 117.45 274.776 117.905 274.215 117.905H246.642C246.081 117.905 245.625 117.45 245.625 116.888V111.04C245.625 110.478 246.081 110.022 246.642 110.022H274.215C274.776 110.023 275.232 110.478 275.232 111.04Z" fill="url(#paint7_linear_2383_14597)"/>
<path d="M250.299 125.347C250.299 126.578 249.301 127.582 248.064 127.582C246.833 127.582 245.828 126.578 245.828 125.347C245.828 124.11 246.833 123.111 248.064 123.111C249.301 123.111 250.299 124.11 250.299 125.347Z" fill="url(#paint8_linear_2383_14597)"/>
<path d="M258.545 125.347C258.545 126.578 257.547 127.582 256.31 127.582C255.079 127.582 254.074 126.578 254.074 125.347C254.074 124.11 255.079 123.111 256.31 123.111C257.547 123.111 258.545 124.11 258.545 125.347Z" fill="url(#paint9_linear_2383_14597)"/>
<path d="M266.795 125.347C266.795 126.578 265.797 127.582 264.56 127.582C263.329 127.582 262.324 126.578 262.324 125.347C262.324 124.11 263.329 123.111 264.56 123.111C265.797 123.111 266.795 124.11 266.795 125.347Z" fill="url(#paint10_linear_2383_14597)"/>
<path d="M275.038 125.347C275.038 126.578 274.039 127.582 272.802 127.582C271.571 127.582 270.566 126.578 270.566 125.347C270.566 124.11 271.571 123.111 272.802 123.111C274.039 123.111 275.038 124.11 275.038 125.347Z" fill="url(#paint11_linear_2383_14597)"/>
<path d="M250.299 132.903C250.299 134.134 249.301 135.139 248.064 135.139C246.833 135.139 245.828 134.134 245.828 132.903C245.828 131.666 246.833 130.668 248.064 130.668C249.301 130.668 250.299 131.666 250.299 132.903Z" fill="url(#paint12_linear_2383_14597)"/>
<path d="M258.545 132.903C258.545 134.134 257.547 135.139 256.31 135.139C255.079 135.139 254.074 134.134 254.074 132.903C254.074 131.666 255.079 130.668 256.31 130.668C257.547 130.668 258.545 131.666 258.545 132.903Z" fill="url(#paint13_linear_2383_14597)"/>
<path d="M266.795 132.903C266.795 134.134 265.797 135.139 264.56 135.139C263.329 135.139 262.324 134.134 262.324 132.903C262.324 131.666 263.329 130.668 264.56 130.668C265.797 130.668 266.795 131.666 266.795 132.903Z" fill="url(#paint14_linear_2383_14597)"/>
<path d="M275.038 132.903C275.038 134.134 274.039 135.139 272.802 135.139C271.571 135.139 270.566 134.134 270.566 132.903C270.566 131.666 271.571 130.668 272.802 130.668C274.039 130.668 275.038 131.666 275.038 132.903Z" fill="url(#paint15_linear_2383_14597)"/>
<path d="M272.798 141.871V150.611C272.798 151.344 272.204 151.939 271.47 151.939H249.383C248.649 151.939 248.055 151.344 248.055 150.611V141.871C248.055 141.138 248.649 140.543 249.383 140.543H271.47C272.204 140.543 272.798 141.138 272.798 141.871Z" fill="url(#paint16_linear_2383_14597)"/>
<path d="M262.559 82.4031C281.67 82.4031 297.162 66.911 297.162 47.8007C297.162 28.6903 281.67 13.1982 262.559 13.1982C243.449 13.1982 227.957 28.6903 227.957 47.8007C227.957 66.911 243.449 82.4031 262.559 82.4031Z" fill="url(#paint17_linear_2383_14597)"/>
<path d="M262.562 75.5936C277.912 75.5936 290.355 63.1503 290.355 47.8007C290.355 32.4511 277.912 20.0078 262.562 20.0078C247.213 20.0078 234.77 32.4511 234.77 47.8007C234.77 63.1503 247.213 75.5936 262.562 75.5936Z" fill="#ADC8F7"/>
<path d="M262.558 68.784C274.146 68.784 283.541 59.3894 283.541 47.8007C283.541 36.2119 274.146 26.8174 262.558 26.8174C250.969 26.8174 241.574 36.2119 241.574 47.8007C241.574 59.3894 250.969 68.784 262.558 68.784Z" fill="url(#paint18_linear_2383_14597)"/>
<path d="M262.56 61.9744C270.388 61.9744 276.734 55.6286 276.734 47.8007C276.734 39.9727 270.388 33.627 262.56 33.627C254.732 33.627 248.387 39.9727 248.387 47.8007C248.387 55.6286 254.732 61.9744 262.56 61.9744Z" fill="#ADC8F7"/>
<path d="M262.557 56.0853C267.132 56.0853 270.841 52.3765 270.841 47.8014C270.841 43.2264 267.132 39.5176 262.557 39.5176C257.982 39.5176 254.273 43.2264 254.273 47.8014C254.273 52.3765 257.982 56.0853 262.557 56.0853Z" fill="url(#paint19_linear_2383_14597)"/>
<path d="M264.102 47.2399L265.603 48.7414L287.76 26.5812L286.741 26.5945C286.466 26.598 286.245 26.3733 286.248 26.1019L286.262 25.083L264.102 47.2399Z" fill="url(#paint20_linear_2383_14597)"/>
<path d="M291.703 26.3978L296.696 21.4051C297.004 21.0969 296.782 20.5701 296.346 20.5752L292.718 20.6173C292.445 20.6205 292.223 20.3985 292.227 20.1255L292.269 16.4977C292.274 16.0619 291.747 15.8401 291.439 16.1483L286.446 21.141C286.356 21.2308 286.305 21.3521 286.304 21.4792L286.25 26.1021C286.247 26.375 286.469 26.597 286.742 26.5939L291.365 26.5401C291.492 26.5387 291.613 26.4876 291.703 26.3978Z" fill="url(#paint21_linear_2383_14597)"/>
<path d="M266.545 49.6849L263.155 46.2958C262.925 46.0656 262.532 46.1746 262.453 46.4903L261.325 51.0074C261.249 51.314 261.526 51.5915 261.833 51.515L266.35 50.387C266.666 50.3082 266.775 49.915 266.545 49.6849Z" fill="url(#paint22_linear_2383_14597)"/>
<path d="M81.0054 178.963C82.4431 178.991 87.6106 178.482 87.8846 179.564C88.0827 180.346 84.0502 181.092 84.0502 181.092C84.0502 181.092 92.3819 180.707 90.3399 185.739C88.9525 189.158 85.6461 190.524 79.5312 184.346L81.0054 178.963Z" fill="#FDCCC5"/>
<path d="M16.7578 308.59L16.9916 314.459L21.0136 316.634L22.8374 312.565L22.5101 308.59H16.7578Z" fill="#FDCCC5"/>
<path d="M22.7094 310.792C24.6368 311.3 26.3178 314.781 27.9271 315.477C29.4123 316.118 33.4493 314.917 34.1304 317.321C34.4564 318.472 34.1429 319.357 33.8339 319.886C33.631 320.234 33.2587 320.445 32.856 320.445H17.3739C16.8079 320.445 16.3298 320.03 16.2525 319.469C15.9321 317.144 15.3688 311.537 17.5479 312.442C18.5834 312.871 19.7825 314.737 20.676 314.471C21.6833 314.171 22.0387 310.615 22.7094 310.792Z" fill="url(#paint23_linear_2383_14597)"/>
<path d="M16.1797 318.921C16.204 319.118 16.2282 319.302 16.2512 319.469C16.3285 320.029 16.8068 320.445 17.3727 320.445H32.8547C33.2575 320.445 33.6298 320.234 33.8327 319.886C33.9767 319.639 34.1189 319.313 34.1996 318.921L16.1797 318.921Z" fill="#0B0658"/>
<path d="M31.9805 308.59L32.2143 314.459L36.2362 316.634L38.0601 312.565L37.7328 308.59H31.9805Z" fill="#FDCCC5"/>
<path d="M37.9281 310.792C39.8554 311.3 41.5365 314.781 43.1458 315.477C44.631 316.118 48.668 314.917 49.349 317.321C49.6751 318.472 49.3616 319.357 49.0526 319.886C48.8496 320.234 48.4774 320.445 48.0746 320.445H32.5927C32.0267 320.445 31.5485 320.03 31.4712 319.469C31.1508 317.144 30.5876 311.537 32.7666 312.442C33.8022 312.871 35.0013 314.737 35.8947 314.471C36.902 314.171 37.2574 310.615 37.9281 310.792Z" fill="url(#paint24_linear_2383_14597)"/>
<path d="M31.3984 318.921C31.4227 319.118 31.447 319.302 31.4699 319.469C31.5473 320.029 32.0255 320.445 32.5914 320.445H48.0735C48.4762 320.445 48.8485 320.234 49.0514 319.886C49.1954 319.639 49.3377 319.313 49.4184 318.921L31.3984 318.921Z" fill="#0B0658"/>
<path d="M15.9232 309.471C20.2001 249.851 10.9461 218.793 15.7694 191.486H39.3855L23.7381 309.471C23.7381 310.862 15.9232 310.862 15.9232 309.471Z" fill="url(#paint25_linear_2383_14597)"/>
<path d="M30.6772 309.471C34.954 249.851 25.7 218.793 30.5233 191.486H54.1394L38.6786 309.471C38.6785 310.585 30.6772 310.585 30.6772 309.471Z" fill="url(#paint26_linear_2383_14597)"/>
<path d="M28.4844 127.271L29.4621 107.531L47.6171 105.16L48.1843 111.302C48.1843 111.302 49.9999 114.214 50.0262 115.012C50.0531 115.829 47.5785 115.42 47.5785 115.42C47.5785 115.42 48.2849 122.117 45.3103 121.988C42.0718 121.849 39.5245 120.74 39.5245 120.74L38.7486 129.055L28.4844 127.271Z" fill="#FDCCC5"/>
<path d="M54.483 190.723C50.7718 177.092 57.0173 143.334 47.8205 133.081C42.951 127.647 30.1311 127.85 23.6586 131.219C21.3698 132.41 18.7567 137.376 18.02 139.846C14.3181 152.277 22.1944 169.753 15.4115 190.565C13.7991 195.518 56.7393 199.007 54.483 190.723Z" fill="url(#paint27_linear_2383_14597)"/>
<path d="M43.2557 130.933C45.6318 130.39 47.8777 132.986 48.9583 134.593C53.6928 141.637 52.1453 161.22 57.5709 167.746C61.7599 172.784 81.1296 178.139 81.1296 178.139C82.4671 178.562 80.2907 185.448 78.9532 185.026C78.9532 185.026 54.7633 180.703 48.9889 175.49C43.2766 170.333 38.7355 153.997 39.0897 146.309C39.2845 142.082 40.1062 131.653 43.2557 130.933Z" fill="url(#paint28_linear_2383_14597)"/>
<path d="M26.3711 130.105C26.3618 130.642 40.4503 129.837 40.4549 129.295C40.4549 129.295 41.1834 126.554 40.1131 126.137C37.6066 125.159 30.0313 123.913 27.5202 124.891C26.4545 125.308 26.3711 130.105 26.3711 130.105Z" fill="url(#paint29_linear_2383_14597)"/>
<path d="M40.3562 110.695C42.5642 109.004 43.3767 108.153 41.9648 106.475C41.9648 106.475 53.8226 106.825 52.182 99.1099C50.4932 91.1687 37.5455 97.042 37.5455 97.042C37.5455 97.042 27.3629 93.4352 24.5945 100.356C22.297 106.1 24.0858 114.434 27.9004 116.698C29.8829 117.874 36.4354 117.929 37.0684 115.712C37.4865 114.248 33.7913 113.151 35.4404 109.843C37.0895 106.535 40.419 112.9 40.419 112.9L40.3562 110.695Z" fill="url(#paint30_linear_2383_14597)"/>
<path d="M39.7123 110.842C40.8801 112.599 40.9495 114.686 39.8732 115.502C38.7968 116.319 36.9764 115.562 35.8086 113.804C34.6408 112.047 34.5685 109.956 35.6448 109.139C36.7211 108.323 38.5444 109.084 39.7123 110.842Z" fill="#FDCCC5"/>
<path d="M39.5232 120.741C38.6035 120.445 37.5997 119.698 36.5742 118.835C37.2646 120.245 38.1881 121.367 39.3923 122.145L39.5232 120.741Z" fill="#F7B4AD"/>
<path d="M46.0389 110.582C46.0851 110.836 46.3282 111.004 46.582 110.958C46.8357 110.911 47.004 110.668 46.9577 110.415C46.9116 110.161 46.6685 109.993 46.4147 110.039C46.1609 110.085 45.9927 110.328 46.0389 110.582Z" fill="url(#paint31_linear_2383_14597)"/>
<path d="M44.0702 108.911C43.9465 109.039 43.825 109.207 43.8683 109.379C43.905 109.525 44.054 109.62 44.2027 109.64C44.3513 109.66 44.501 109.621 44.6461 109.583C44.9438 109.504 45.2416 109.424 45.5393 109.345C45.8329 109.267 46.1302 109.187 46.3948 109.038C46.6594 108.888 46.892 108.659 46.9804 108.368C47.0148 108.255 47.0251 108.128 46.9703 108.023C46.7759 107.652 45.7781 107.943 45.4859 108.038C44.9529 108.209 44.4601 108.509 44.0702 108.911Z" fill="url(#paint32_linear_2383_14597)"/>
<path d="M277.581 141.773C276.538 140.796 275.248 137.853 273.725 138.229C272.488 138.535 273.937 141.18 273.937 141.18C273.937 141.18 268.446 135.388 266.413 140.386C265.032 143.782 265.592 147.123 274.901 146.628L277.581 141.773Z" fill="#FDCCC5"/>
<path d="M337.741 133.73C336.426 131.697 333.027 131.989 331.144 132.385C322.892 134.12 310.425 149.137 302.04 150.025C295.565 150.711 278.061 141.102 278.061 141.102C276.816 140.477 273.595 146.888 274.84 147.514C274.84 147.514 295.06 161.198 302.785 161.487C310.426 161.772 324.979 153.286 330.053 147.566C332.844 144.421 339.485 136.425 337.741 133.73Z" fill="url(#paint33_linear_2383_14597)"/>
<path d="M351.318 318.704C351.318 319.396 339.904 319.962 325.827 319.962C311.75 319.962 300.34 319.396 300.34 318.704C300.34 318.006 311.75 317.446 325.827 317.446C339.904 317.446 351.318 318.006 351.318 318.704Z" fill="#F5F7FF"/>
<path d="M277.112 177.699C275.683 177.726 271.709 177.295 271.483 178.76C271.348 179.633 274.087 179.815 274.087 179.815C274.087 179.815 267.316 180.17 268.879 184.48C270.128 187.927 272.25 189.894 278.577 183.047L277.112 177.699Z" fill="#FDCCC5"/>
<path d="M340.951 306.496L340.718 312.328L336.722 314.488L334.91 310.446L335.235 306.496H340.951Z" fill="#FDCCC5"/>
<path d="M335.04 308.685C333.125 309.19 331.454 312.649 329.855 313.34C328.38 313.978 324.369 312.784 323.692 315.173C323.368 316.316 323.679 317.195 323.986 317.721C324.188 318.067 324.558 318.277 324.958 318.277H340.341C340.903 318.277 341.378 317.864 341.455 317.307C341.773 314.997 342.333 309.426 340.168 310.324C339.139 310.751 337.948 312.605 337.06 312.341C336.059 312.043 335.706 308.509 335.04 308.685Z" fill="url(#paint34_linear_2383_14597)"/>
<path d="M341.529 316.763C341.505 316.958 341.481 317.142 341.458 317.307C341.381 317.864 340.906 318.277 340.344 318.277H324.961C324.561 318.277 324.191 318.067 323.99 317.721C323.847 317.476 323.705 317.152 323.625 316.763L341.529 316.763Z" fill="#0B0658"/>
<path d="M325.826 306.496L325.593 312.328L321.597 314.488L319.785 310.446L320.11 306.496H325.826Z" fill="#FDCCC5"/>
<path d="M319.915 308.685C318 309.19 316.329 312.649 314.73 313.34C313.255 313.978 309.244 312.784 308.567 315.173C308.243 316.316 308.554 317.195 308.861 317.721C309.063 318.067 309.433 318.277 309.833 318.277H325.216C325.778 318.277 326.253 317.864 326.33 317.307C326.648 314.997 327.208 309.426 325.043 310.324C324.014 310.751 322.823 312.605 321.935 312.341C320.934 312.043 320.581 308.509 319.915 308.685Z" fill="url(#paint35_linear_2383_14597)"/>
<path d="M326.404 316.763C326.38 316.958 326.356 317.142 326.333 317.307C326.256 317.864 325.781 318.277 325.219 318.277H309.836C309.436 318.277 309.066 318.067 308.865 317.721C308.722 317.476 308.58 317.152 308.5 316.763L326.404 316.763Z" fill="#0B0658"/>
<path d="M341.777 307.369C337.527 248.131 346.722 217.273 341.929 190.142H318.465L334.012 307.369C334.012 308.751 341.777 308.751 341.777 307.369Z" fill="url(#paint36_linear_2383_14597)"/>
<path d="M327.116 307.369C322.867 248.131 332.062 217.273 327.269 190.142H303.805L319.166 307.369C319.166 308.476 327.116 308.476 327.116 307.369Z" fill="url(#paint37_linear_2383_14597)"/>
<path d="M329.298 126.34L328.327 106.726L310.288 104.371L309.725 110.474C309.725 110.474 307.921 113.367 307.895 114.16C307.868 114.972 310.327 114.565 310.327 114.565C310.327 114.565 309.625 121.219 312.58 121.091C315.798 120.953 318.329 119.851 318.329 119.851L319.1 128.112L329.298 126.34Z" fill="#FDCCC5"/>
<path d="M303.46 189.384C307.148 175.841 300.942 142.3 310.08 132.113C314.918 126.713 326.871 127.088 333.302 130.435C335.576 131.618 339.341 132.828 339.69 138.834C340.437 151.699 335.542 168.549 342.281 189.228C343.883 194.149 301.219 197.615 303.46 189.384Z" fill="url(#paint38_linear_2383_14597)"/>
<path d="M314.621 129.978C312.26 129.439 310.029 132.018 308.955 133.615C304.251 140.614 305.789 160.071 300.398 166.555C296.236 171.561 276.99 176.882 276.99 176.882C275.662 177.302 277.824 184.144 279.153 183.724C279.153 183.724 303.188 179.429 308.925 174.25C314.601 169.126 319.113 152.895 318.761 145.256C318.567 141.056 317.751 130.694 314.621 129.978Z" fill="url(#paint39_linear_2383_14597)"/>
<path d="M330.876 129.331C330.885 129.865 317.409 128.889 317.405 128.35C317.405 128.35 316.681 125.627 317.744 125.213C320.235 124.241 327.761 123.003 330.256 123.974C331.315 124.389 330.876 129.331 330.876 129.331Z" fill="url(#paint40_linear_2383_14597)"/>
<path d="M317.448 109.369C315.323 108.425 314.497 107.344 315.899 105.677C315.899 105.677 304.894 107.738 306.524 100.073C308.202 92.1824 328.885 92.838 331.636 99.7145C333.918 105.421 328.781 115.966 328.781 115.966C328.623 117.114 320.078 115.641 320.764 114.855C320.764 114.855 324.021 112.31 322.382 109.023C320.743 105.736 317.435 112.061 317.435 112.061L317.448 109.369Z" fill="url(#paint41_linear_2383_14597)"/>
<path d="M318.141 110.015C316.981 111.761 316.912 113.834 317.981 114.646C319.051 115.458 320.859 114.705 322.02 112.959C323.18 111.213 323.252 109.136 322.182 108.324C321.113 107.512 319.301 108.269 318.141 110.015Z" fill="#FDCCC5"/>
<path d="M318.324 119.85C319.238 119.555 320.235 118.814 321.254 117.956C320.568 119.357 319.651 120.472 318.454 121.244L318.324 119.85Z" fill="#F7B4AD"/>
<path d="M311.85 109.757C311.804 110.009 311.563 110.176 311.311 110.13C311.059 110.085 310.891 109.843 310.937 109.591C310.983 109.339 311.225 109.172 311.477 109.218C311.729 109.263 311.896 109.505 311.85 109.757Z" fill="url(#paint42_linear_2383_14597)"/>
<path d="M313.814 108.098C313.937 108.225 314.058 108.392 314.015 108.563C313.978 108.707 313.83 108.802 313.682 108.822C313.535 108.842 313.386 108.803 313.242 108.765C312.946 108.686 312.65 108.608 312.355 108.529C312.063 108.451 311.767 108.372 311.505 108.223C311.242 108.075 311.011 107.847 310.923 107.558C310.889 107.446 310.878 107.319 310.933 107.215C311.126 106.847 312.117 107.136 312.408 107.23C312.937 107.4 313.427 107.698 313.814 108.098Z" fill="url(#paint43_linear_2383_14597)"/>
<defs>
<linearGradient id="paint0_linear_2383_14597" x1="81.9398" y1="278.504" x2="82.2779" y2="199.405" gradientUnits="userSpaceOnUse">
<stop stop-color="#E7ECFF"/>
<stop offset="1" stop-color="#C2D5FF"/>
</linearGradient>
<linearGradient id="paint1_linear_2383_14597" x1="85.0596" y1="212.002" x2="102.562" y2="163.495" gradientUnits="userSpaceOnUse">
<stop stop-color="#E7ECFF"/>
<stop offset="1" stop-color="#C2D5FF"/>
</linearGradient>
<linearGradient id="paint2_linear_2383_14597" x1="119.18" y1="242.213" x2="157.623" y2="242.213" gradientUnits="userSpaceOnUse">
<stop stop-color="#E7ECFF"/>
<stop offset="1" stop-color="#C2D5FF"/>
</linearGradient>
<linearGradient id="paint3_linear_2383_14597" x1="192.324" y1="134.647" x2="197.055" y2="-5.05721" gradientUnits="userSpaceOnUse">
<stop stop-color="#E7ECFF"/>
<stop offset="1" stop-color="#C2D5FF"/>
</linearGradient>
<linearGradient id="paint4_linear_2383_14597" x1="167.801" y1="171.884" x2="221.372" y2="171.884" gradientUnits="userSpaceOnUse">
<stop stop-color="#E7ECFF"/>
<stop offset="1" stop-color="#C2D5FF"/>
</linearGradient>
<linearGradient id="paint5_linear_2383_14597" x1="236.934" y1="132.1" x2="283.92" y2="132.1" gradientUnits="userSpaceOnUse">
<stop stop-color="#E7ECFF"/>
<stop offset="1" stop-color="#C2D5FF"/>
</linearGradient>
<linearGradient id="paint6_linear_2383_14597" x1="232.273" y1="132.102" x2="238.537" y2="132.102" gradientUnits="userSpaceOnUse">
<stop stop-color="#E7ECFF"/>
<stop offset="1" stop-color="#C2D5FF"/>
</linearGradient>
<linearGradient id="paint7_linear_2383_14597" x1="245.625" y1="113.964" x2="275.232" y2="113.964" gradientUnits="userSpaceOnUse">
<stop stop-color="#E7ECFF"/>
<stop offset="1" stop-color="#C2D5FF"/>
</linearGradient>
<linearGradient id="paint8_linear_2383_14597" x1="245.828" y1="125.347" x2="250.299" y2="125.347" gradientUnits="userSpaceOnUse">
<stop stop-color="#E7ECFF"/>
<stop offset="1" stop-color="#C2D5FF"/>
</linearGradient>
<linearGradient id="paint9_linear_2383_14597" x1="254.074" y1="125.347" x2="258.545" y2="125.347" gradientUnits="userSpaceOnUse">
<stop stop-color="#E7ECFF"/>
<stop offset="1" stop-color="#C2D5FF"/>
</linearGradient>
<linearGradient id="paint10_linear_2383_14597" x1="262.324" y1="125.347" x2="266.795" y2="125.347" gradientUnits="userSpaceOnUse">
<stop stop-color="#E7ECFF"/>
<stop offset="1" stop-color="#C2D5FF"/>
</linearGradient>
<linearGradient id="paint11_linear_2383_14597" x1="270.566" y1="125.347" x2="275.038" y2="125.347" gradientUnits="userSpaceOnUse">
<stop stop-color="#E7ECFF"/>
<stop offset="1" stop-color="#C2D5FF"/>
</linearGradient>
<linearGradient id="paint12_linear_2383_14597" x1="245.828" y1="132.904" x2="250.299" y2="132.904" gradientUnits="userSpaceOnUse">
<stop stop-color="#E7ECFF"/>
<stop offset="1" stop-color="#C2D5FF"/>
</linearGradient>
<linearGradient id="paint13_linear_2383_14597" x1="254.074" y1="132.904" x2="258.545" y2="132.904" gradientUnits="userSpaceOnUse">
<stop stop-color="#E7ECFF"/>
<stop offset="1" stop-color="#C2D5FF"/>
</linearGradient>
<linearGradient id="paint14_linear_2383_14597" x1="262.324" y1="132.904" x2="266.795" y2="132.904" gradientUnits="userSpaceOnUse">
<stop stop-color="#E7ECFF"/>
<stop offset="1" stop-color="#C2D5FF"/>
</linearGradient>
<linearGradient id="paint15_linear_2383_14597" x1="270.566" y1="132.904" x2="275.038" y2="132.904" gradientUnits="userSpaceOnUse">
<stop stop-color="#E7ECFF"/>
<stop offset="1" stop-color="#C2D5FF"/>
</linearGradient>
<linearGradient id="paint16_linear_2383_14597" x1="248.055" y1="146.241" x2="272.798" y2="146.241" gradientUnits="userSpaceOnUse">
<stop stop-color="#E7ECFF"/>
<stop offset="1" stop-color="#C2D5FF"/>
</linearGradient>
<linearGradient id="paint17_linear_2383_14597" x1="227.957" y1="47.8006" x2="297.162" y2="47.8006" gradientUnits="userSpaceOnUse">
<stop stop-color="#E7ECFF"/>
<stop offset="1" stop-color="#C2D5FF"/>
</linearGradient>
<linearGradient id="paint18_linear_2383_14597" x1="241.574" y1="47.8007" x2="283.541" y2="47.8007" gradientUnits="userSpaceOnUse">
<stop stop-color="#E7ECFF"/>
<stop offset="1" stop-color="#C2D5FF"/>
</linearGradient>
<linearGradient id="paint19_linear_2383_14597" x1="254.273" y1="47.8014" x2="270.841" y2="47.8014" gradientUnits="userSpaceOnUse">
<stop stop-color="#E7ECFF"/>
<stop offset="1" stop-color="#C2D5FF"/>
</linearGradient>
<linearGradient id="paint20_linear_2383_14597" x1="287.76" y1="36.9122" x2="264.102" y2="36.9122" gradientUnits="userSpaceOnUse">
<stop offset="1.1e-07" stop-color="#B3B3FF"/>
<stop offset="1" stop-color="#8F8FEA"/>
</linearGradient>
<linearGradient id="paint21_linear_2383_14597" x1="296.839" y1="21.2994" x2="286.25" y2="21.2994" gradientUnits="userSpaceOnUse">
<stop offset="2.2e-07" stop-color="#5C5CA0"/>
<stop offset="1" stop-color="#434389"/>
</linearGradient>
<linearGradient id="paint22_linear_2383_14597" x1="266.667" y1="48.8503" x2="261.312" y2="48.8503" gradientUnits="userSpaceOnUse">
<stop offset="2.2e-07" stop-color="#5C5CA0"/>
<stop offset="1" stop-color="#434389"/>
</linearGradient>
<linearGradient id="paint23_linear_2383_14597" x1="34.2685" y1="315.615" x2="15.9414" y2="315.615" gradientUnits="userSpaceOnUse">
<stop offset="3.2e-07" stop-color="#FF8888"/>
<stop offset="1" stop-color="#F24E4E"/>
</linearGradient>
<linearGradient id="paint24_linear_2383_14597" x1="49.4872" y1="315.615" x2="31.1601" y2="315.615" gradientUnits="userSpaceOnUse">
<stop offset="3.2e-07" stop-color="#FF8888"/>
<stop offset="1" stop-color="#F24E4E"/>
</linearGradient>
<linearGradient id="paint25_linear_2383_14597" x1="7.86413" y1="244.444" x2="51.1001" y2="258.078" gradientUnits="userSpaceOnUse">
<stop stop-color="#771E24"/>
<stop offset="1" stop-color="#47090E"/>
</linearGradient>
<linearGradient id="paint26_linear_2383_14597" x1="22.6691" y1="244.393" x2="66.0773" y2="258.082" gradientUnits="userSpaceOnUse">
<stop stop-color="#771E24"/>
<stop offset="1" stop-color="#47090E"/>
</linearGradient>
<linearGradient id="paint27_linear_2383_14597" x1="11.4614" y1="144.97" x2="59.6654" y2="186.113" gradientUnits="userSpaceOnUse">
<stop offset="3.2e-07" stop-color="#A7C161"/>
<stop offset="1" stop-color="#8BA53A"/>
</linearGradient>
<linearGradient id="paint28_linear_2383_14597" x1="159.985" y1="384.971" x2="207.819" y2="448.926" gradientUnits="userSpaceOnUse">
<stop offset="3.2e-07" stop-color="#A7C161"/>
<stop offset="1" stop-color="#8BA53A"/>
</linearGradient>
<linearGradient id="paint29_linear_2383_14597" x1="32.9785" y1="125.048" x2="34.1915" y2="132.979" gradientUnits="userSpaceOnUse">
<stop offset="3.2e-07" stop-color="#A7C161"/>
<stop offset="1" stop-color="#8BA53A"/>
</linearGradient>
<linearGradient id="paint30_linear_2383_14597" x1="52.7591" y1="104.949" x2="23.632" y2="107.557" gradientUnits="userSpaceOnUse">
<stop stop-color="#771E24"/>
<stop offset="1" stop-color="#47090E"/>
</linearGradient>
<linearGradient id="paint31_linear_2383_14597" x1="46.9578" y1="110.415" x2="46.0389" y2="110.582" gradientUnits="userSpaceOnUse">
<stop stop-color="#771E24"/>
<stop offset="1" stop-color="#47090E"/>
</linearGradient>
<linearGradient id="paint32_linear_2383_14597" x1="47.0581" y1="108.482" x2="43.8058" y2="108.98" gradientUnits="userSpaceOnUse">
<stop stop-color="#771E24"/>
<stop offset="1" stop-color="#47090E"/>
</linearGradient>
<linearGradient id="paint33_linear_2383_14597" x1="78.5953" y1="233.754" x2="0.216935" y2="246.154" gradientUnits="userSpaceOnUse">
<stop offset="3.2e-07" stop-color="#78A7FF"/>
<stop offset="1" stop-color="#3D79F3"/>
</linearGradient>
<linearGradient id="paint34_linear_2383_14597" x1="323.555" y1="313.478" x2="341.764" y2="313.478" gradientUnits="userSpaceOnUse">
<stop offset="2.2e-07" stop-color="#FFBB83"/>
<stop offset="1" stop-color="#FF9D45"/>
</linearGradient>
<linearGradient id="paint35_linear_2383_14597" x1="308.43" y1="313.478" x2="326.639" y2="313.478" gradientUnits="userSpaceOnUse">
<stop offset="2.2e-07" stop-color="#FFBB83"/>
<stop offset="1" stop-color="#FF9D45"/>
</linearGradient>
<linearGradient id="paint36_linear_2383_14597" x1="349.784" y1="242.759" x2="306.825" y2="256.306" gradientUnits="userSpaceOnUse">
<stop stop-color="#771E24"/>
<stop offset="1" stop-color="#47090E"/>
</linearGradient>
<linearGradient id="paint37_linear_2383_14597" x1="335.073" y1="242.709" x2="291.943" y2="256.31" gradientUnits="userSpaceOnUse">
<stop stop-color="#771E24"/>
<stop offset="1" stop-color="#47090E"/>
</linearGradient>
<linearGradient id="paint38_linear_2383_14597" x1="346.517" y1="143.657" x2="298.31" y2="184.803" gradientUnits="userSpaceOnUse">
<stop offset="3.2e-07" stop-color="#78A7FF"/>
<stop offset="1" stop-color="#3D79F3"/>
</linearGradient>
<linearGradient id="paint39_linear_2383_14597" x1="198.641" y1="382.387" x2="151.113" y2="445.932" gradientUnits="userSpaceOnUse">
<stop offset="3.2e-07" stop-color="#78A7FF"/>
<stop offset="1" stop-color="#3D79F3"/>
</linearGradient>
<linearGradient id="paint40_linear_2383_14597" x1="324.591" y1="124.097" x2="323.382" y2="132.002" gradientUnits="userSpaceOnUse">
<stop offset="3.2e-07" stop-color="#78A7FF"/>
<stop offset="1" stop-color="#3D79F3"/>
</linearGradient>
<linearGradient id="paint41_linear_2383_14597" x1="306.128" y1="103.844" x2="332.018" y2="106.162" gradientUnits="userSpaceOnUse">
<stop stop-color="#771E24"/>
<stop offset="1" stop-color="#47090E"/>
</linearGradient>
<linearGradient id="paint42_linear_2383_14597" x1="310.937" y1="109.591" x2="311.85" y2="109.757" gradientUnits="userSpaceOnUse">
<stop stop-color="#771E24"/>
<stop offset="1" stop-color="#47090E"/>
</linearGradient>
<linearGradient id="paint43_linear_2383_14597" x1="310.845" y1="107.671" x2="314.077" y2="108.166" gradientUnits="userSpaceOnUse">
<stop stop-color="#771E24"/>
<stop offset="1" stop-color="#47090E"/>
</linearGradient>
</defs>
</svg>
