<svg width="32" height="32" viewBox="0 0 32 32" fill="none" xmlns="http://www.w3.org/2000/svg">
<g clip-path="url(#clip0_2086_9255)">
<mask id="mask0_2086_9255" style="mask-type:luminance" maskUnits="userSpaceOnUse" x="0" y="0" width="32" height="32">
<path d="M0 1.90735e-06H32V32H0V1.90735e-06Z" fill="white"/>
</mask>
<g mask="url(#mask0_2086_9255)">
<path d="M8.85425 31.5312H2.12406C1.20987 31.5312 0.46875 30.7901 0.46875 29.8759C0.46875 27.1032 2.7165 24.8554 5.48912 24.8554C8.26181 24.8554 10.5096 27.1032 10.5096 29.8759C10.5096 30.7901 9.7685 31.5312 8.85425 31.5312Z" fill="#FD8087"/>
<path d="M5.48731 24.8557C4.8825 24.8557 4.30263 24.9627 3.76562 25.1588C3.92494 26.4864 5.05431 27.5156 6.42475 27.5156C7.44887 27.5156 8.33856 26.9407 8.78938 26.0963C7.90663 25.3244 6.752 24.8557 5.48731 24.8557Z" fill="#FE646F"/>
<path d="M5.49162 25.5508C4.01194 25.5508 2.8125 24.3513 2.8125 22.8717V19.6029C2.8125 18.7355 3.51569 18.0323 4.38312 18.0323H6.60012C7.4675 18.0323 8.17069 18.7355 8.17069 19.6029V22.8717C8.17069 24.3513 6.97125 25.5508 5.49162 25.5508Z" fill="#FFCEBF"/>
<path d="M6.60019 18.0326H4.38306C3.51569 18.0326 2.8125 18.7358 2.8125 19.6032V21.6016L5.08287 20.8536C5.92006 20.5778 6.83775 20.7044 7.569 21.1966L8.17075 21.6016V19.6032C8.17075 18.7358 7.46756 18.0326 6.60019 18.0326Z" fill="#C59191"/>
<path d="M29.8777 13.9668H23.1475C22.2332 13.9668 21.4922 13.2257 21.4922 12.3115C21.4922 9.5388 23.7399 7.29098 26.5126 7.29098C29.2852 7.29098 31.533 9.53873 31.533 12.3114C31.533 13.2256 30.7919 13.9668 29.8777 13.9668Z" fill="#FEE97D"/>
<path d="M26.5091 7.28944C25.8812 7.28944 25.2806 7.40569 24.7266 7.61625C25.0629 8.7115 26.0823 9.50781 27.2878 9.50781H27.2879C28.2246 9.50781 29.0486 9.02663 29.5275 8.29838C28.6874 7.66519 27.6421 7.28944 26.5091 7.28944Z" fill="#FEDF30"/>
<path d="M26.5111 7.98828C25.0315 7.98828 23.832 6.78884 23.832 5.30916V2.04041C23.832 1.17297 24.5352 0.469782 25.4026 0.469782H27.6196C28.487 0.469782 29.1902 1.17297 29.1902 2.04041V5.30916C29.1902 6.78884 27.9908 7.98828 26.5111 7.98828Z" fill="#FFCEBF"/>
<path d="M27.6197 0.470063H25.4027C24.5352 0.470063 23.832 1.17325 23.832 2.04063V4.03906L26.1024 3.29113C26.9396 3.01531 27.8573 3.14188 28.5886 3.63406L29.1903 4.03906V2.04063C29.1903 1.17325 28.4871 0.470063 27.6197 0.470063Z" fill="#C59191"/>
<path d="M27.6172 0.470063H25.7422C26.6096 0.470063 27.3127 1.17325 27.3127 2.04063V3.16694C27.7629 3.21775 28.2004 3.37456 28.5861 3.63406L29.1877 4.03906V2.04063C29.1877 1.17325 28.4846 0.470063 27.6172 0.470063Z" fill="#B98080"/>
<path d="M30.2817 27.6562H13.4067C12.7163 27.6562 12.1567 27.0966 12.1567 26.4063V22.7613C12.1567 22.5246 12.023 22.3081 11.8112 22.2023L10.8407 21.717C10.6104 21.6019 10.6104 21.2731 10.8407 21.158L11.8112 20.6728C12.023 20.5669 12.1567 20.3504 12.1567 20.1137V19.2813C12.1567 18.5909 12.7163 18.0313 13.4067 18.0313H30.2817C30.9721 18.0313 31.5317 18.5909 31.5317 19.2813V26.4063C31.5317 27.0966 30.9721 27.6562 30.2817 27.6562Z" fill="#7ACAA6"/>
<path d="M30.2812 18.0313H28.4062C29.0966 18.0313 29.6562 18.5909 29.6562 19.2813V26.4063C29.6562 27.0966 29.0966 27.6562 28.4062 27.6562H30.2812C30.9716 27.6562 31.5312 27.0966 31.5312 26.4063V19.2813C31.5312 18.5909 30.9716 18.0313 30.2812 18.0313Z" fill="#57BE92"/>
<path d="M1.71875 10.0938H18.5938C19.2841 10.0938 19.8438 9.53413 19.8438 8.84375V5.19881C19.8438 4.96206 19.9775 4.74563 20.1893 4.63975L21.1597 4.1545C21.3901 4.03938 21.3901 3.71063 21.1597 3.5955L20.1893 3.11025C19.9775 3.00438 19.8438 2.78794 19.8438 2.55119V1.71875C19.8438 1.02838 19.2841 0.468751 18.5938 0.468751H1.71875C1.02838 0.468751 0.46875 1.02838 0.46875 1.71875V8.84375C0.46875 9.53413 1.02838 10.0938 1.71875 10.0938Z" fill="#7ACAA6"/>
<path d="M21.1597 3.59544L20.1892 3.11019C19.9775 3.00438 19.8438 2.78794 19.8438 2.55119V1.71875C19.8438 1.02838 19.2841 0.468751 18.5938 0.468751H16.7188C17.4091 0.468751 17.9688 1.02838 17.9688 1.71875V2.55119C17.9688 2.78794 18.1025 3.00438 18.3142 3.11019L19.2847 3.59544C19.5151 3.71069 19.5151 4.03931 19.2847 4.1545L18.3142 4.63975C18.1025 4.74556 17.9688 4.962 17.9688 5.19869V8.84375C17.9688 9.53413 17.4091 10.0938 16.7188 10.0938H18.5938C19.2841 10.0938 19.8438 9.53413 19.8438 8.84375V5.19869C19.8438 4.962 19.9775 4.74556 20.1892 4.63975L21.1597 4.1545C21.3901 4.03931 21.3901 3.71069 21.1597 3.59544Z" fill="#57BE92"/>
<path d="M9.03875 26.3263C9.9475 27.2344 10.5094 28.4894 10.5094 29.8756C10.5094 30.3326 10.3244 30.7469 10.025 31.0463C9.72494 31.3463 9.31125 31.5312 8.85437 31.5312H2.12437C1.21 31.5312 0.46875 30.79 0.46875 29.8756C0.46875 28.4894 1.03062 27.2344 1.93937 26.3263C2.50312 25.7625 3.2 25.3319 3.98 25.0863" stroke="black" stroke-miterlimit="10" stroke-linecap="round" stroke-linejoin="round"/>
<path d="M5.49162 25.5508C4.01194 25.5508 2.8125 24.3513 2.8125 22.8717V19.6029C2.8125 18.7355 3.51569 18.0323 4.38312 18.0323H6.60012C7.4675 18.0323 8.17069 18.7355 8.17069 19.6029V22.8717C8.17069 24.3513 6.97125 25.5508 5.49162 25.5508Z" stroke="black" stroke-miterlimit="10" stroke-linecap="round" stroke-linejoin="round"/>
<path d="M2.8125 21.6016L5.08281 20.8536C5.92006 20.5778 6.83769 20.7044 7.569 21.1966L8.17069 21.6016" stroke="black" stroke-miterlimit="10" stroke-linecap="round" stroke-linejoin="round"/>
<path d="M28.0222 7.5218C28.8016 7.7668 29.4984 8.19748 30.0622 8.76117C30.9709 9.66992 31.5328 10.9249 31.5328 12.3112C31.5328 12.7687 31.3478 13.1824 31.0478 13.4818C30.7484 13.7812 30.3341 13.9668 29.8772 13.9668H23.1472C22.2328 13.9668 21.4922 13.2256 21.4922 12.3112C21.4922 10.9249 22.0541 9.66992 22.9628 8.76117C23.5266 8.19748 24.2234 7.7668 25.0027 7.5218" stroke="black" stroke-miterlimit="10" stroke-linecap="round" stroke-linejoin="round"/>
<path d="M26.5111 7.98828C25.0315 7.98828 23.832 6.78884 23.832 5.30916V2.04041C23.832 1.17297 24.5352 0.469782 25.4026 0.469782H27.6196C28.487 0.469782 29.1902 1.17297 29.1902 2.04041V5.30916C29.1902 6.78884 27.9908 7.98828 26.5111 7.98828Z" stroke="black" stroke-miterlimit="10" stroke-linecap="round" stroke-linejoin="round"/>
<path d="M23.832 4.03906L26.1023 3.29113C26.9396 3.01531 27.8572 3.14194 28.5885 3.63413L29.1902 4.03906" stroke="black" stroke-miterlimit="10" stroke-linecap="round" stroke-linejoin="round"/>
<path d="M30.2817 27.6562H13.4067C12.7163 27.6562 12.1567 27.0966 12.1567 26.4063V22.7613C12.1567 22.5246 12.023 22.3081 11.8112 22.2023L10.8407 21.717C10.6104 21.6019 10.6104 21.2731 10.8407 21.158L11.8112 20.6728C12.023 20.5669 12.1567 20.3504 12.1567 20.1137V19.2813C12.1567 18.5909 12.7163 18.0313 13.4067 18.0313H30.2817C30.9721 18.0313 31.5317 18.5909 31.5317 19.2813V26.4063C31.5317 27.0966 30.9721 27.6562 30.2817 27.6562Z" stroke="black" stroke-miterlimit="10" stroke-linecap="round" stroke-linejoin="round"/>
<path d="M14.2656 24.959L15.8544 20.7875C15.8868 20.7081 15.9992 20.708 16.0319 20.7874L17.6061 24.959" stroke="black" stroke-miterlimit="10" stroke-linecap="round" stroke-linejoin="round"/>
<path d="M14.7578 23.9199H17.1154" stroke="black" stroke-miterlimit="10" stroke-linecap="round" stroke-linejoin="round"/>
<path d="M19.7578 22.8438H29.0501" stroke="black" stroke-miterlimit="10" stroke-linecap="round" stroke-linejoin="round"/>
<path d="M19.7578 20.7285H29.0501" stroke="black" stroke-miterlimit="10" stroke-linecap="round" stroke-linejoin="round"/>
<path d="M19.7578 24.959H27.1751" stroke="black" stroke-miterlimit="10" stroke-linecap="round" stroke-linejoin="round"/>
<path d="M13.8216 0.468751H1.71875C1.02838 0.468751 0.46875 1.02838 0.46875 1.71875V8.84375C0.46875 9.53413 1.02838 10.0938 1.71875 10.0938H18.5938C19.2841 10.0938 19.8438 9.53413 19.8438 8.84375V5.19881C19.8438 4.96206 19.9774 4.74563 20.1893 4.63975L21.1597 4.1545C21.3901 4.03938 21.3901 3.71063 21.1597 3.5955L20.1893 3.11025C19.9774 3.00438 19.8438 2.78794 19.8438 2.55119V1.71875C19.8438 1.02838 19.2841 0.468751 18.5938 0.468751H15.6966" stroke="black" stroke-miterlimit="10" stroke-linecap="round" stroke-linejoin="round"/>
<path d="M11.7725 5.28125H2.94922" stroke="black" stroke-miterlimit="10" stroke-linecap="round" stroke-linejoin="round"/>
<path d="M11.7764 3.16602H2.95312" stroke="black" stroke-miterlimit="10" stroke-linecap="round" stroke-linejoin="round"/>
<path d="M11.7764 7.39648H4.82812" stroke="black" stroke-miterlimit="10" stroke-linecap="round" stroke-linejoin="round"/>
<path d="M16.582 6.02534L17.9355 7.37891" stroke="black" stroke-miterlimit="10" stroke-linecap="round" stroke-linejoin="round"/>
<path d="M17.9185 5.28092C17.9185 6.4493 16.9714 7.39648 15.8029 7.39648C14.6346 7.39648 13.6875 6.4493 13.6875 5.28092C13.6875 4.11255 14.6346 3.16536 15.8029 3.16536C16.9714 3.16536 17.9185 4.11255 17.9185 5.28092Z" stroke="black" stroke-miterlimit="10" stroke-linecap="round" stroke-linejoin="round"/>
<path d="M8.16778 21.6015C8.03053 21.9408 7.71359 22.585 7.03784 23.1147C6.66078 23.4102 6.28909 23.5782 6.01172 23.6758" stroke="black" stroke-miterlimit="10" stroke-linecap="round" stroke-linejoin="round"/>
</g>
</g>
<defs>
<clipPath id="clip0_2086_9255">
<rect width="32" height="32" fill="white"/>
</clipPath>
</defs>
</svg>
