<svg width="44" height="44" viewBox="0 0 44 44" fill="none" xmlns="http://www.w3.org/2000/svg">
<g clip-path="url(#clip0_2104_28192)">
<path d="M20.707 11.4248V31.0584L21.3541 32.3525L22.0011 31.0584L22.8926 21.3525L22.0011 11.6467L21.3446 10.3525L20.707 11.4248Z" fill="#4F4F86"/>
<path d="M23.2941 11.4248L22.6565 10.3525L22 11.6467V31.0584L22.6471 32.3525L23.2941 31.0584C23.2941 30.1864 23.2941 12.2967 23.2941 11.4248Z" fill="#3F3F72"/>
<path d="M5.82353 9.05907C5.65935 9.45308 0.16418 22.6415 0 23.0355L1.40196 24.2865L2.80392 23.0355C3.33632 21.7579 7.23395 12.4035 7.76471 11.1297C8.29547 12.4036 12.1931 21.7579 12.7255 23.0355L14.1275 24.2865L15.5294 23.0355C15.3652 22.6415 9.87006 9.45308 9.70588 9.05907L7.76471 7.3623L5.82353 9.05907Z" fill="#D8E3FD"/>
<path d="M34.2923 9.05846C34.1281 9.45248 28.6329 22.6409 28.4688 23.0349L29.8707 24.2859L31.2727 23.0349C31.8051 21.7573 35.7027 12.4029 36.2335 11.1291C36.7638 12.4018 40.569 21.5344 41.1942 23.0349L42.5962 24.2859L43.9982 23.0349C43.834 22.6409 38.3388 9.45248 38.1746 9.05846L36.2335 7.5918L34.2923 9.05846Z" fill="#B3C9F0"/>
<path d="M15.5312 31.0586V36.2351L18.7665 37.5292L22.0018 36.2351L23.296 33.6468L22.0018 31.0586C20.2596 31.0586 16.5462 31.0586 15.5312 31.0586Z" fill="#FF9059"/>
<path d="M28.4706 31.0586C26.7284 31.0586 23.0149 31.0586 22 31.0586V36.2351L25.2353 37.5292L28.4706 36.2351C28.4706 35.6088 28.4706 31.689 28.4706 31.0586Z" fill="#FF5959"/>
<path d="M15.0967 36.2354C12.4803 36.2354 10.3516 38.3639 10.3516 40.9804C10.3516 40.9943 10.3516 41.4393 10.3516 41.4118L16.1751 42.7059L21.9986 41.4118L23.2927 38.8236L21.9986 36.2354C21.1636 36.2354 15.9371 36.2354 15.0967 36.2354Z" fill="#FF5959"/>
<path d="M33.6471 40.9804C33.6471 38.3641 31.5185 36.2354 28.902 36.2354C28.0669 36.2354 22.8405 36.2354 22 36.2354V41.4118L27.8235 42.7059L33.6471 41.4118C33.6471 41.3979 33.6471 40.9529 33.6471 40.9804Z" fill="#D8135F"/>
<path d="M7.76562 41.4121V44.0003H22.0009L23.295 42.7062L22.0009 41.4121C21.5993 41.4121 8.16697 41.4121 7.76562 41.4121Z" fill="#4F4F86"/>
<path d="M36.2353 41.4121C35.8337 41.4121 22.4013 41.4121 22 41.4121V44.0003H36.2353C36.2353 43.0952 36.2353 42.3173 36.2353 41.4121Z" fill="#3F3F72"/>
<path d="M28.4688 23.2945C28.4688 27.5759 31.9519 31.0592 36.2335 31.0592C40.5148 31.0592 43.9982 27.576 43.9982 23.2945C43.9982 23.2653 43.9982 23.0227 43.9982 23.0357C43.1354 23.0357 29.3315 23.0357 28.4688 23.0357C28.4688 23.0648 28.4688 23.3074 28.4688 23.2945Z" fill="#FFB048"/>
<path d="M0 23.2945C0 27.5759 3.48316 31.0592 7.76471 31.0592C12.0461 31.0592 15.5294 27.576 15.5294 23.2945C15.5294 23.2653 15.5294 23.0227 15.5294 23.0357C14.6667 23.0357 0.862745 23.0357 0 23.0357C0 23.0648 0 23.3074 0 23.2945Z" fill="#FFD737"/>
<path d="M19.5843 7.76482L18.3395 6.4707C17.3202 6.4707 1.01916 6.4707 0 6.4707V9.05894H18.3395L19.5843 7.76482Z" fill="#4F4F86"/>
<path d="M24.5898 7.76482L25.6621 9.05894H44.0016C44.0016 8.15375 44.0016 7.3759 44.0016 6.4707C42.9824 6.4707 26.6814 6.4707 25.6621 6.4707L24.5898 7.76482Z" fill="#3F3F72"/>
<path d="M20.707 0V4.10416L21.3446 5.17647C23.577 0.795969 22.841 2.24012 22.9933 1.94118L22.0011 0C21.5486 0 21.1596 0 20.707 0Z" fill="#FFB048"/>
<path d="M23.2941 0C22.8415 0 22.4526 0 22 0V3.88235L22.6565 5.17647L23.2941 4.10416C23.2941 2.79944 23.2941 1.30473 23.2941 0Z" fill="#FF9059"/>
<path d="M18.1172 7.76517C18.1172 9.90926 19.8553 11.6475 21.9995 11.6475L23.2937 7.76517L21.9995 3.88281C19.8554 3.88281 18.1172 5.6209 18.1172 7.76517Z" fill="#FFD737"/>
<path d="M25.8824 7.76517C25.8824 5.62107 24.1443 3.88281 22 3.88281V11.6475C24.1441 11.6475 25.8824 9.90943 25.8824 7.76517Z" fill="#FFB048"/>
</g>
<defs>
<clipPath id="clip0_2104_28192">
<rect width="44" height="44" fill="white"/>
</clipPath>
</defs>
</svg>
