<svg width="32" height="32" viewBox="0 0 32 32" fill="none" xmlns="http://www.w3.org/2000/svg">
<g clip-path="url(#clip0_2086_9510)">
<path fill-rule="evenodd" clip-rule="evenodd" d="M21.1562 5.73444C21.1562 2.91219 23.4434 0.625 26.2657 0.625C29.0879 0.625 31.3751 2.91219 31.3751 5.73444C31.3751 8.55669 29.0879 10.8439 26.2657 10.8439C23.4435 10.8439 21.1562 8.55669 21.1562 5.73444Z" fill="#E1DAE7"/>
<path fill-rule="evenodd" clip-rule="evenodd" d="M21.1562 5.73483C21.1562 3.22264 22.9704 1.13208 25.3604 0.705078C27.7486 1.13202 29.5627 3.22258 29.5627 5.73483C29.5627 8.24708 27.7486 10.3358 25.3604 10.7646C22.9704 10.3358 21.1562 8.24708 21.1562 5.73483Z" fill="#EBE6EF"/>
<path fill-rule="evenodd" clip-rule="evenodd" d="M30.0377 9.1797C29.1022 10.202 27.7576 10.8433 26.2641 10.8433C24.7706 10.8433 23.4259 10.202 22.4922 9.1797V8.94408C22.4922 5.56552 30.0377 5.56552 30.0377 8.94408V9.1797Z" fill="#06967C"/>
<path fill-rule="evenodd" clip-rule="evenodd" d="M17.9923 5.73444C17.9923 2.91219 15.7051 0.625 12.8829 0.625C10.0606 0.625 7.77344 2.91219 7.77344 5.73444C7.77344 8.55669 10.0624 10.8439 12.8829 10.8439C15.7033 10.8439 17.9923 8.55669 17.9923 5.73444Z" fill="#E1DAE7"/>
<path fill-rule="evenodd" clip-rule="evenodd" d="M11.9776 0.705078C9.58763 1.13202 7.77344 3.22258 7.77344 5.73483C7.77344 8.24708 9.58763 10.3358 11.9776 10.7646C14.3675 10.3358 16.1799 8.24708 16.1799 5.73483C16.1799 3.22258 14.3675 1.13202 11.9776 0.705078Z" fill="#EBE6EF"/>
<path fill-rule="evenodd" clip-rule="evenodd" d="M9.10938 9.1797C10.043 10.202 11.3877 10.8433 12.8812 10.8433C14.3748 10.8433 15.7194 10.202 16.6549 9.1797V8.94408C16.6549 5.56552 9.10938 5.56552 9.10938 8.94408V9.1797Z" fill="#F24C00"/>
<path fill-rule="evenodd" clip-rule="evenodd" d="M9.10938 9.17969C10.043 10.2019 11.3877 10.8432 12.8812 10.8432C13.7104 10.8432 14.4934 10.6448 15.1861 10.2958V8.94406C15.1861 7.47538 13.7599 6.64444 12.1477 6.45312C10.5356 6.6445 9.10938 7.47538 9.10938 8.94406V9.17969Z" fill="#FA5F17"/>
<path fill-rule="evenodd" clip-rule="evenodd" d="M21.1562 19.1173C21.1562 16.295 23.4434 14.0078 26.2657 14.0078C29.0879 14.0078 31.3751 16.295 31.3751 19.1173C31.3751 21.9395 29.0879 24.2267 26.2657 24.2267C23.4435 24.2267 21.1562 21.9377 21.1562 19.1173Z" fill="#E1DAE7"/>
<path fill-rule="evenodd" clip-rule="evenodd" d="M21.1562 19.1176C21.1562 16.6036 22.9704 14.5149 25.3604 14.0879C27.7486 14.5148 29.5627 16.6036 29.5627 19.1176C29.5627 21.6316 27.7486 23.7186 25.3604 24.1456C22.9704 23.7186 21.1562 21.6298 21.1562 19.1176Z" fill="#EBE6EF"/>
<path fill-rule="evenodd" clip-rule="evenodd" d="M30.0359 22.5638C29.1023 23.5861 27.7576 24.2274 26.2641 24.2274C24.7706 24.2274 23.4259 23.5861 22.4922 22.5638V22.3282C22.4922 18.9479 30.0359 18.9479 30.0359 22.3282L30.0359 22.5638Z" fill="#4BB3FD"/>
<path fill-rule="evenodd" clip-rule="evenodd" d="M11.2974 15.241L6.15605 20.3823C4.66255 21.8776 4.66255 24.3472 6.15605 25.8425C7.65136 27.336 10.121 27.3378 11.6163 25.8425L16.7577 20.7012L19.8775 23.8211L14.7362 28.9607C11.5189 32.178 6.2553 32.178 3.03798 28.9607C-0.179328 25.7433 -0.179328 20.4797 3.03798 17.2624L8.17755 12.1211L11.2974 15.241Z" fill="#86808F"/>
<path fill-rule="evenodd" clip-rule="evenodd" d="M11.298 15.2409L6.15663 20.3822C4.66313 21.8775 4.66313 24.3472 6.15663 25.8425C7.65194 27.336 10.1216 27.3378 11.6169 25.8425L16.7583 20.7012L16.7866 20.7313L17.0541 20.9988L17.3341 21.2787L17.6282 21.571L17.9347 21.8775L18.2554 22.1982L18.592 22.5348L13.4507 27.6744C10.4513 30.6756 5.67138 30.8775 2.431 28.2821C-0.164623 25.0417 0.0373766 20.2618 3.03856 17.2624L8.17813 12.1211L8.42794 12.3709L8.69544 12.6384L10.2528 14.1957L10.4353 14.3782L10.6106 14.5536L10.7772 14.7202L10.9366 14.8796L11.089 15.032L11.2343 15.1772L11.2981 15.241L11.298 15.2409Z" fill="#9992A3"/>
<path d="M14.6602 22.7832L16.7548 20.6885L19.8742 23.808L17.7796 25.9026L14.6602 22.7832Z" fill="#4BB3FD"/>
<path fill-rule="evenodd" clip-rule="evenodd" d="M14.6641 22.7953L16.7599 20.7012L16.7883 20.7313L17.0558 20.9988L17.3357 21.2787L17.6298 21.571L17.9363 21.8775L18.257 22.1982L18.5936 22.5349L16.4978 24.6289L14.6641 22.7953Z" fill="#74C3FC"/>
<path d="M6.07812 14.2227L8.17279 12.128L11.2922 15.2474L9.19754 17.3421L6.07812 14.2227Z" fill="#FA5F17"/>
<path d="M12.7324 14.3367C12.5872 14.4837 12.3497 14.4837 12.2027 14.3367C12.0574 14.1914 12.0574 13.954 12.2027 13.8069L13.6891 12.3205C13.8344 12.1752 14.0736 12.1752 14.2189 12.3205C14.3659 12.4675 14.3659 12.7049 14.2189 12.8502L12.7324 14.3367ZM18.1927 19.7969C18.0474 19.9422 17.8082 19.9422 17.6629 19.7969C17.5159 19.6499 17.5159 19.4125 17.6629 19.2672L19.1494 17.7807C19.2946 17.6337 19.5321 17.6337 19.6791 17.7807C19.8244 17.9278 19.8244 18.1652 19.6791 18.3105L18.1927 19.7969ZM16.5947 13.2046C16.4494 13.3517 16.212 13.3517 16.0649 13.2046C15.9196 13.0575 15.9196 12.8202 16.0649 12.6749L17.5514 11.1884C17.6984 11.0414 17.9358 11.0414 18.0811 11.1884C18.2282 11.3355 18.2282 11.5729 18.0811 11.7182L16.5947 13.2046ZM19.3248 15.9347C19.1796 16.08 18.9421 16.08 18.7951 15.9347C18.648 15.7877 18.648 15.5503 18.7951 15.405L20.2815 13.9185C20.4268 13.7715 20.6642 13.7715 20.8112 13.9185C20.9583 14.0638 20.9583 14.3012 20.8112 14.4483L19.3248 15.9347ZM15.4626 17.0669C15.3173 17.2139 15.0799 17.2139 14.9329 17.0669C14.7858 16.9198 14.7858 16.6824 14.9329 16.5371L16.4193 15.0507C16.5646 14.9036 16.802 14.9036 16.9491 15.0507C17.0961 15.1977 17.0961 15.4351 16.9491 15.5804L15.4626 17.0669Z" fill="#9992A3"/>
<path fill-rule="evenodd" clip-rule="evenodd" d="M22.4922 9.17969C23.4258 10.2019 24.7706 10.8432 26.2641 10.8432C27.0932 10.8432 27.8762 10.6448 28.5672 10.2958V8.94406C28.5672 7.47538 27.1428 6.64444 25.5306 6.45312C23.9184 6.6445 22.4923 7.47538 22.4923 8.94406V9.17969H22.4922Z" fill="#08A88A"/>
<path fill-rule="evenodd" clip-rule="evenodd" d="M22.4922 22.5626C23.4258 23.5848 24.7706 24.2261 26.2641 24.2261C27.0932 24.2261 27.8762 24.0277 28.5672 23.6769V22.3269C28.5672 20.8582 27.1428 20.0273 25.5306 19.8359C23.9184 20.0273 22.4923 20.8582 22.4923 22.3269V22.5625L22.4922 22.5626Z" fill="#74C3FC"/>
<path fill-rule="evenodd" clip-rule="evenodd" d="M12.8835 2.48047C11.7178 2.48047 10.7734 3.42478 10.7734 4.59047C10.7734 5.75616 11.7177 6.70228 12.8835 6.70228C14.0493 6.70228 14.9953 5.75622 14.9953 4.59047C14.9953 3.42472 14.0493 2.48047 12.8835 2.48047ZM26.2666 2.48047C27.4323 2.48047 28.3784 3.42478 28.3784 4.59047C28.3784 5.75616 27.4323 6.70228 26.2666 6.70228C25.1008 6.70228 24.1565 5.75622 24.1565 4.59047C24.1565 3.42472 25.1008 2.48047 26.2666 2.48047ZM26.2666 15.8635C27.4323 15.8635 28.3784 16.8078 28.3784 17.9735C28.3784 19.1392 27.4323 20.0853 26.2666 20.0853C25.1008 20.0853 24.1565 19.1393 24.1565 17.9735C24.1565 16.8078 25.1008 15.8635 26.2666 15.8635Z" fill="#F6B4A8"/>
<path fill-rule="evenodd" clip-rule="evenodd" d="M12.3059 2.55859C11.4219 2.81016 10.7734 3.62334 10.7734 4.58891C10.7734 5.55447 11.4219 6.36941 12.3059 6.62097C13.19 6.36941 13.8384 5.55447 13.8384 4.58891C13.8384 3.62334 13.19 2.81016 12.3059 2.55859ZM25.689 2.55859C26.5731 2.81016 27.2215 3.62334 27.2215 4.58891C27.2215 5.55447 26.5731 6.36941 25.689 6.62097C24.8032 6.36941 24.1565 5.55447 24.1565 4.58891C24.1565 3.62334 24.8032 2.81016 25.689 2.55859ZM25.689 15.9417C26.5731 16.1932 27.2215 17.0064 27.2215 17.972C27.2215 18.9375 26.5731 19.7525 25.689 20.004C24.8032 19.7525 24.1565 18.9375 24.1565 17.972C24.1565 17.0064 24.8032 16.1932 25.689 15.9417Z" fill="#F9C9C0"/>
<path d="M18.7975 15.9307C18.6487 15.7855 18.6487 15.5463 18.7975 15.401L20.2857 13.9128C20.431 13.7675 20.6684 13.7675 20.8136 13.9128C20.9624 14.0599 20.9624 14.299 20.8136 14.4443L19.3272 15.9307C19.2545 16.0052 19.1589 16.0424 19.0614 16.0424C18.9658 16.0424 18.8702 16.0052 18.7975 15.9307ZM18.0853 11.716L16.5971 13.2024C16.5245 13.275 16.427 13.3105 16.3331 13.3105C16.2374 13.3105 16.14 13.275 16.0674 13.2006C15.9203 13.0535 15.9203 12.8162 16.0674 12.6691L17.5538 11.1862C17.699 11.0392 17.9382 11.0392 18.0853 11.1862C18.2305 11.3315 18.2305 11.5707 18.0853 11.716ZM16.9532 15.0485C17.0985 15.1955 17.0985 15.4329 16.9532 15.58L15.4668 17.0629C15.3924 17.1373 15.2949 17.1727 15.1993 17.1727C15.1037 17.1727 15.0097 17.1373 14.9353 17.0629C14.7882 16.9158 14.7882 16.6784 14.9353 16.5331L16.4217 15.0467C16.567 14.9015 16.8079 14.9015 16.9532 15.0485ZM17.6637 19.793C17.5184 19.6477 17.5184 19.4085 17.6637 19.2615L19.1501 17.7769C19.2972 17.6298 19.5328 17.6298 19.6799 17.7769C19.8287 17.9221 19.8287 18.1595 19.6816 18.3066L18.1952 19.793C18.1243 19.8674 18.0269 19.9029 17.9312 19.9029C17.8337 19.9029 17.738 19.8674 17.6637 19.793ZM14.2214 12.3184C14.3702 12.4636 14.3684 12.7028 14.2214 12.8481L12.7349 14.3327C12.664 14.4072 12.5666 14.4426 12.4709 14.4426C12.3735 14.4426 12.2778 14.4072 12.2034 14.3327C12.0582 14.1875 12.0582 13.9483 12.2034 13.803L13.6899 12.3166C13.8387 12.1714 14.0761 12.1714 14.2214 12.3184ZM17.7842 25.3825L15.1958 22.7924L16.7602 21.2298L19.3485 23.82L17.7842 25.3825ZM14.473 28.6938C11.3939 31.7712 6.38536 31.7712 3.30448 28.6938C0.225359 25.6147 0.225359 20.6044 3.30448 17.5253L6.08598 14.7455L8.67442 17.3357L5.89467 20.1155C5.09917 20.9092 4.66161 21.9722 4.66161 23.1096C4.66161 24.247 5.09917 25.31 5.89467 26.1037C6.68836 26.8992 7.75142 27.335 8.8888 27.335C10.0262 27.335 11.0892 26.8992 11.8847 26.1037L14.6644 23.324L17.2528 25.9124L14.473 28.6939L14.473 28.6938ZM8.18005 12.6497L10.7684 15.2398L9.20405 16.8042L6.61742 14.214L8.18005 12.6497ZM17.0241 20.4343C16.9532 20.3634 16.8594 20.3227 16.7601 20.3227C16.6591 20.3227 16.5652 20.3634 16.4926 20.4343L14.4003 22.5266L11.353 25.5721C9.99598 26.931 7.78498 26.931 6.4243 25.5721C5.06723 24.215 5.06723 22.004 6.4243 20.6451L9.4698 17.6014L11.5639 15.5038C11.7109 15.3585 11.7109 15.1194 11.5639 14.974L8.44573 11.8542C8.37305 11.7833 8.27917 11.7443 8.17998 11.7443C8.07898 11.7443 7.98511 11.7833 7.91423 11.8542L5.81836 13.95L2.77467 16.9955C-0.596766 20.367 -0.596766 25.852 2.77467 29.2235C4.4613 30.9101 6.67411 31.7534 8.88867 31.7534C11.1032 31.7534 13.3178 30.9101 15.0044 29.2235L18.0517 26.178L20.144 24.0857C20.2166 24.0148 20.2538 23.9191 20.2538 23.8199C20.2538 23.7189 20.2166 23.6233 20.144 23.5542L17.0241 20.4343ZM30.3027 21.5877C30.021 20.7072 29.2309 20.0269 28.0775 19.6743C28.4956 19.2279 28.7542 18.629 28.7542 17.97C28.7542 16.6005 27.6364 15.4844 26.265 15.4844C24.8937 15.4844 23.7794 16.6005 23.7794 17.97C23.7794 18.629 24.0381 19.2279 24.4562 19.6743C23.2993 20.0269 22.5092 20.7072 22.231 21.5895C21.7881 20.8684 21.533 20.0215 21.533 19.1162C21.533 16.5048 23.6554 14.3824 26.265 14.3824C28.8747 14.3824 30.9989 16.5048 30.9989 19.1162C30.9989 20.0198 30.7456 20.8666 30.3027 21.5877ZM26.265 19.7062C25.3101 19.7062 24.5306 18.9284 24.5306 17.9699C24.5306 17.0114 25.3101 16.2355 26.265 16.2355C27.22 16.2355 28.003 17.0132 28.003 17.9699C28.003 18.9266 27.2235 19.7062 26.265 19.7062ZM26.265 23.8483C24.9363 23.8483 23.7299 23.2955 22.8705 22.4079V22.3247C22.8705 21.1058 24.0894 20.4591 25.2747 20.25C25.5776 20.3829 25.9125 20.4574 26.265 20.4574C26.6176 20.4574 26.9542 20.3829 27.2589 20.25C28.4442 20.4591 29.663 21.1057 29.663 22.3247V22.4062C28.8038 23.2955 27.5973 23.8483 26.265 23.8483H26.265ZM26.265 13.6312C23.2426 13.6312 20.78 16.0902 20.78 19.1162C20.78 22.1422 23.2426 24.6012 26.265 24.6012C29.2875 24.6012 31.7501 22.1404 31.7501 19.1162C31.7501 16.092 29.291 13.6312 26.265 13.6312ZM12.8837 0.999234C15.4934 0.999234 17.6194 3.12167 17.6194 5.73311C17.6194 6.63842 17.3642 7.48523 16.9195 8.20455C16.6396 7.3258 15.8494 6.64548 14.6925 6.29292C15.1107 5.84648 15.3694 5.24586 15.3694 4.58861C15.3694 3.21736 14.255 2.10298 12.8837 2.10298C11.5125 2.10298 10.3964 3.21736 10.3964 4.58861C10.3964 5.24592 10.6568 5.84648 11.0749 6.29292C9.92148 6.64373 9.13136 7.32405 8.84967 8.2028C8.40673 7.48348 8.14986 6.63667 8.14986 5.73311C8.14986 3.12167 10.2759 0.999234 12.8837 0.999234ZM12.8837 6.32305C11.9288 6.32305 11.1493 5.5453 11.1493 4.58861C11.1493 3.63192 11.9289 2.85236 12.8837 2.85236C13.8386 2.85236 14.6182 3.63011 14.6182 4.58861C14.6182 5.54711 13.8422 6.32305 12.8837 6.32305ZM12.8837 10.4652C11.5532 10.4652 10.3467 9.91242 9.48567 9.02305V8.94155C9.48567 7.72267 10.7117 7.0778 11.8951 6.86873C12.198 7.00161 12.5329 7.07423 12.8837 7.07423C13.2344 7.07423 13.5711 7.00161 13.874 6.86873C15.0557 7.0778 16.2817 7.72442 16.2817 8.94155V9.02486C15.4189 9.91242 14.2159 10.4652 12.8837 10.4652L12.8837 10.4652ZM12.8837 11.2181C15.9097 11.2181 18.3688 8.7573 18.3688 5.73311C18.3688 2.70892 15.9097 0.248047 12.8837 0.248047C9.8578 0.248047 7.39867 2.70886 7.39867 5.73311C7.39867 8.75736 9.85948 11.2181 12.8837 11.2181ZM26.265 0.999234C28.8764 0.999234 30.9989 3.12167 30.9989 5.73311C30.9989 6.63667 30.7455 7.48348 30.3026 8.2028C30.0209 7.32405 29.2308 6.64373 28.0739 6.29292C28.4955 5.84648 28.7542 5.24586 28.7542 4.58861C28.7542 3.21736 27.6363 2.10298 26.265 2.10298C24.8937 2.10298 23.7794 3.21736 23.7794 4.58861C23.7794 5.24592 24.038 5.84648 24.4597 6.29292C23.3028 6.64548 22.5126 7.3258 22.2309 8.20455C21.788 7.48523 21.5329 6.63842 21.5329 5.73311C21.5329 3.12167 23.6554 0.999234 26.265 0.999234ZM26.265 6.32305C25.31 6.32305 24.5305 5.5453 24.5305 4.58861C24.5305 3.63192 25.31 2.85236 26.265 2.85236C27.2199 2.85236 28.003 3.63011 28.003 4.58861C28.003 5.54711 27.2234 6.32305 26.265 6.32305ZM26.265 10.4652C24.9362 10.4652 23.7298 9.91242 22.8705 9.0248V8.94148C22.8705 7.72436 24.0929 7.07773 25.2764 6.86867C25.5793 7.00155 25.9124 7.07417 26.2649 7.07417C26.6174 7.07417 26.9541 7.00155 27.257 6.86867C28.4405 7.07773 29.663 7.72261 29.663 8.94148V9.02298C28.8037 9.91236 27.5972 10.4651 26.2649 10.4651L26.265 10.4652ZM26.265 11.2181C29.291 11.2181 31.75 8.7573 31.75 5.73311C31.75 2.70892 29.291 0.248047 26.265 0.248047C23.239 0.248047 20.7799 2.70886 20.7799 5.73311C20.7799 8.75736 23.2425 11.2181 26.265 11.2181Z" fill="black"/>
</g>
<defs>
<clipPath id="clip0_2086_9510">
<rect width="32" height="32" fill="white"/>
</clipPath>
</defs>
</svg>
