<svg width="44" height="44" viewBox="0 0 44 44" fill="none" xmlns="http://www.w3.org/2000/svg">
<g clip-path="url(#clip0_2104_28148)">
<path d="M39.8102 44.0003H5.17572C4.84352 44.0003 4.57422 43.731 4.57422 43.3988V39.1524L5.4335 38.4985L4.57422 37.8212V36.3957L5.4335 35.7487L4.57422 35.0644V33.6389L5.4335 32.9989L4.57422 32.3076V30.882L5.4335 30.2492L4.57422 29.5507V22.6118L5.4335 22L4.57422 21.2805V17.8111L6.29279 15.3945H38.6931L40.4117 17.8111V21.2805L39.5524 22.0001L40.4117 22.6118V29.5507L39.5524 30.2492L40.4117 30.882V32.3076L39.5524 32.9989L40.4117 33.6389V35.0644L39.5524 35.7487L40.4117 36.3957V37.8212L39.5524 38.4985L40.4117 39.1524V43.3988C40.4117 43.731 40.1424 44.0003 39.8102 44.0003Z" fill="#618BAA"/>
<path d="M4.57422 13.6758H16.9795L18.6371 14.5351L21.1146 13.6758H25.2497L26.9292 14.5351L29.3848 13.6758H33.5199L35.3502 14.5351L37.655 13.6758H39.8103C40.1425 13.6758 40.4118 13.9451 40.4118 14.2773V17.8109H4.57422V13.6758Z" fill="#356487"/>
<path d="M4.02178 9.57003L11.3934 7.45628L14.5117 7.3493L15.3683 6.31652L19.3432 5.17677L22.3312 5.07219L23.318 4.03693L27.2929 2.89717L30.1506 2.75213L31.2679 1.75742L37.3146 0.0234691C37.6339 -0.0681306 37.967 0.11653 38.0585 0.43584L38.8667 3.25438C38.9583 3.57369 38.7736 3.90683 38.4543 3.99835L36.3826 4.59237L33.5191 4.68543L32.4077 5.73221L28.4328 6.87196L25.2489 6.87661L24.458 8.01181L20.4831 9.15156L17.2615 9.06778L16.5082 10.2913L4.58341 13.7108L3.60941 10.314C3.51781 9.99469 3.70247 9.66163 4.02178 9.57003Z" fill="#356487"/>
<path d="M11.3945 7.45722L16.5092 10.2923L20.4841 9.15251L15.3695 6.31738L11.3945 7.45722Z" fill="#F5FCFF"/>
<path d="M19.3438 5.17686L24.4585 8.01199L28.4333 6.87215L23.3186 4.03711L19.3438 5.17686Z" fill="#F5FCFF"/>
<path d="M27.293 2.89757L32.4076 5.73269L36.3826 4.59294L31.2678 1.75781L27.293 2.89757Z" fill="#F5FCFF"/>
<path d="M6.29279 15.3945L4.57422 17.8111V21.2805L5.4335 22L4.57422 22.6118V29.5507L5.4335 30.2492L4.57422 30.882V32.3076L5.4335 32.9989L4.57422 33.6389V35.0644L5.4335 35.7487L4.57422 36.3957V37.8212L5.4335 38.4985L4.57422 39.1524V43.3988C4.57422 43.731 4.84352 44.0003 5.17572 44.0003H6.34916V15.3945H6.29279Z" fill="#4E7693"/>
<path d="M12.8438 17.8108L16.9788 13.6758H21.1139L16.9788 17.8108H12.8438Z" fill="#F5FCFF"/>
<path d="M21.1133 17.8108L25.2483 13.6758H29.3835L25.2483 17.8108H21.1133Z" fill="#F5FCFF"/>
<path d="M29.3828 17.8108L33.5179 13.6758H37.653L33.5179 17.8108H29.3828Z" fill="#F5FCFF"/>
<path d="M12.8445 14.8872C12.8445 14.1117 12.5364 13.368 11.9881 12.8197L9.56572 10.3974C9.01741 9.84907 8.27361 9.54102 7.49819 9.54102H5.17572C4.84352 9.54102 4.57422 9.81032 4.57422 10.1425V17.8112H9.92043C11.5354 17.8111 12.8445 16.5021 12.8445 14.8872Z" fill="white"/>
<path d="M6.34924 9.54102H5.17572C4.84352 9.54102 4.57422 9.81032 4.57422 10.1425V17.8112H6.34916L6.34924 9.54102Z" fill="#DFF1F7"/>
<path d="M27.2937 32.3071V30.8816H40.4117V29.5504H30.0505V22.6115H40.4118V21.2803H4.57422V22.6115H14.9356V29.5504H4.57422V30.8816H25.9625V32.3071H4.57422V33.6383H25.9625V35.0639H4.57422V36.3951H40.4117V35.0639H27.2937V33.6383H40.4117V32.3071H27.2937ZM16.2668 29.5504V22.6115H28.7192V29.5504H16.2668Z" fill="#F5FCFF"/>
<path d="M4.57422 37.8213H40.4117V39.1525H4.57422V37.8213Z" fill="#F5FCFF"/>
<path d="M10.0861 16.4076C10.4529 16.4076 10.7503 16.1102 10.7503 15.7433C10.7503 15.3765 10.4529 15.0791 10.0861 15.0791C9.71926 15.0791 9.42188 15.3765 9.42188 15.7433C9.42188 16.1102 9.71926 16.4076 10.0861 16.4076Z" fill="#356487"/>
<path d="M7.32829 16.4076C7.69513 16.4076 7.99252 16.1102 7.99252 15.7433C7.99252 15.3765 7.69513 15.0791 7.32829 15.0791C6.96145 15.0791 6.66406 15.3765 6.66406 15.7433C6.66406 16.1102 6.96145 16.4076 7.32829 16.4076Z" fill="#356487"/>
<path d="M7.32829 12.2728C7.69513 12.2728 7.99252 11.9754 7.99252 11.6086C7.99252 11.2417 7.69513 10.9443 7.32829 10.9443C6.96145 10.9443 6.66406 11.2417 6.66406 11.6086C6.66406 11.9754 6.96145 12.2728 7.32829 12.2728Z" fill="#356487"/>
</g>
<defs>
<clipPath id="clip0_2104_28148">
<rect width="44" height="44" fill="white"/>
</clipPath>
</defs>
</svg>
