<svg width="43" height="38" viewBox="0 0 43 38" fill="none" xmlns="http://www.w3.org/2000/svg">
<path fill-rule="evenodd" clip-rule="evenodd" d="M13.2344 27.1221H24.7009V33.6525H13.2344V27.1221Z" fill="#A79BA7"/>
<path fill-rule="evenodd" clip-rule="evenodd" d="M23.8125 27.1221H24.7023V33.6525H23.8125V27.1221Z" fill="#837683"/>
<path fill-rule="evenodd" clip-rule="evenodd" d="M6.57031 36.4365H31.3584V34.5253C31.3584 33.4761 30.2812 32.6143 28.9669 32.6143H8.96193C7.64547 32.6143 6.57031 33.4761 6.57031 34.5253V36.4365Z" fill="#ECEFF1"/>
<path fill-rule="evenodd" clip-rule="evenodd" d="M6.57031 36.436H31.3584V34.5248C31.3584 33.9022 30.9771 33.3442 30.3932 32.9951C30.5247 33.23 30.5979 33.4928 30.5979 33.7665V35.6776H6.57031V36.436Z" fill="#D1D1D6"/>
<path fill-rule="evenodd" clip-rule="evenodd" d="M3.52962 3.25391H34.4044C35.9471 3.25391 37.2096 4.51645 37.2096 6.05912V25.3531C37.2096 26.8958 35.9471 28.1584 34.4044 28.1584H3.52962C1.98695 28.1584 0.726562 26.8958 0.726562 25.3531V6.05912C0.726562 4.51645 1.98695 3.25391 3.52962 3.25391Z" fill="#ECEFF1"/>
<path fill-rule="evenodd" clip-rule="evenodd" d="M35.9668 3.73438C36.7145 4.24072 37.2079 5.09389 37.2079 6.05913V25.3531C37.2079 26.8958 35.9454 28.1584 34.4027 28.1584H3.52788C2.5648 28.1584 1.70947 27.665 1.20312 26.9195C1.65123 27.2211 2.18993 27.3978 2.76737 27.3978H33.6421C35.1848 27.3978 36.4473 26.1375 36.4473 24.5948V5.29853C36.4473 4.72118 36.2707 4.18248 35.9668 3.73438Z" fill="#D1D1D6"/>
<path fill-rule="evenodd" clip-rule="evenodd" d="M3.46027 5.60059H34.4751C34.6884 5.60059 34.8629 5.77503 34.8629 5.98839V23.4554H3.07031V5.98839C3.07031 5.77503 3.24485 5.60059 3.46027 5.60059Z" fill="#D8ECFE"/>
<path fill-rule="evenodd" clip-rule="evenodd" d="M32.9531 5.60059H34.4742C34.6875 5.60059 34.862 5.77503 34.862 5.98839V23.4554H33.3431V5.98839C33.3431 5.77503 33.1664 5.60059 32.9531 5.60059Z" fill="#C4E2FF"/>
<path fill-rule="evenodd" clip-rule="evenodd" d="M42.1349 32.7C42.1349 33.4831 41.4938 34.1242 40.7109 34.1242H25.5725C24.7895 34.1242 24.1484 33.4831 24.1484 32.7V2.65061C24.1484 1.86767 24.7895 1.22656 25.5725 1.22656H40.7109C41.4938 1.22656 42.1349 1.86767 42.1349 2.65061V32.7Z" fill="#C4E2FF"/>
<path fill-rule="evenodd" clip-rule="evenodd" d="M39.4141 1.22656H40.7082C41.4911 1.22656 42.1322 1.86767 42.1322 2.65061V32.7C42.1322 33.4831 41.4911 34.1242 40.7082 34.1242H39.4141C40.197 34.1242 40.8381 33.4831 40.8381 32.7V2.65061C40.8381 1.86767 40.197 1.22656 39.4141 1.22656Z" fill="#ADD5FA"/>
<path fill-rule="evenodd" clip-rule="evenodd" d="M28.0781 1.22656H38.2118L37.5707 3.20044C37.5415 3.28792 37.4657 3.34426 37.3745 3.34426H28.9154C28.826 3.34426 28.7484 3.28792 28.7192 3.20044L28.0781 1.22656Z" fill="#A79BA7"/>
<path fill-rule="evenodd" clip-rule="evenodd" d="M31.1246 14.7384C31.1848 14.6825 31.2188 14.6041 31.2188 14.522C31.2188 14.44 31.1847 14.3616 31.1246 14.3057L28.6486 12.0015H17.2687C16.3706 10.3336 14.6073 9.19922 12.5806 9.19922C9.64028 9.19922 7.25781 11.5831 7.25781 14.522C7.25781 17.4623 9.64028 19.8448 12.5806 19.8448C14.6073 19.8448 16.3706 18.7119 17.2687 17.044H22.1987L23.445 15.6676C23.4785 15.6306 23.5263 15.6093 23.5764 15.6093C23.6264 15.6093 23.6742 15.6305 23.7078 15.6676L24.824 16.899C24.8576 16.9361 24.9053 16.9572 24.9554 16.9572C25.0055 16.9572 25.0532 16.936 25.0868 16.8989L26.2016 15.6677C26.2353 15.6306 26.283 15.6094 26.3331 15.6094C26.3831 15.6094 26.4309 15.6306 26.4645 15.6677L27.7107 17.044H28.6486L31.1246 14.7384Z" fill="#FFE177"/>
<path fill-rule="evenodd" clip-rule="evenodd" d="M31.1247 14.7383C31.1848 14.6824 31.2188 14.604 31.2188 14.5219C31.2188 14.4399 31.1848 14.3615 31.1247 14.3056L30.6568 13.8701L28.6486 15.7388H27.7107L26.4645 14.3626C26.4309 14.3254 26.3831 14.3043 26.3331 14.3043C26.283 14.3043 26.2353 14.3254 26.2016 14.3626L25.0868 15.5937C25.0532 15.6308 25.0055 15.6519 24.9554 15.652C24.9053 15.652 24.8576 15.6309 24.824 15.5938L23.7078 14.3624C23.6742 14.3253 23.6264 14.3042 23.5764 14.3042C23.5263 14.3042 23.4785 14.3254 23.445 14.3625L22.1987 15.7388H17.2687C16.3706 17.4068 14.6073 18.5411 12.5806 18.5411C9.86089 18.5411 7.6193 16.5017 7.29767 13.8701C7.27067 14.0836 7.25781 14.3013 7.25781 14.5219C7.25781 17.4622 9.64028 19.8447 12.5806 19.8447C14.6073 19.8447 16.3706 18.7118 17.2687 17.0439H22.1987L23.445 15.6676C23.4785 15.6305 23.5263 15.6092 23.5764 15.6092C23.6264 15.6092 23.6742 15.6304 23.7078 15.6675L24.824 16.8989C24.8576 16.936 24.9053 16.9571 24.9554 16.9571C25.0055 16.9571 25.0532 16.9359 25.0868 16.8988L26.2016 15.6676C26.2353 15.6305 26.283 15.6093 26.3331 15.6093C26.3831 15.6093 26.4309 15.6305 26.4645 15.6676L27.7107 17.0439H28.6486L31.1247 14.7383Z" fill="#FFD064"/>
<path fill-rule="evenodd" clip-rule="evenodd" d="M10.5025 13.1517C11.2596 12.7148 12.2274 12.9738 12.6643 13.731C13.1013 14.4881 12.8422 15.456 12.0851 15.8929C11.3279 16.3297 10.3602 16.0707 9.92322 15.3136C9.48633 14.5565 9.74532 13.5887 10.5025 13.1517Z" fill="#ECEFF1"/>
<path fill-rule="evenodd" clip-rule="evenodd" d="M10.503 13.1517C11.2601 12.7148 12.228 12.9738 12.6649 13.731C12.8855 14.1139 12.9282 14.5494 12.8186 14.9436C12.7844 14.8183 12.7332 14.6945 12.6649 14.575C12.228 13.8192 11.2601 13.5588 10.503 13.9958C10.1273 14.2121 9.87543 14.5593 9.76862 14.945C9.57934 14.2675 9.86404 13.5204 10.503 13.1517Z" fill="#D1D1D6"/>
<path fill-rule="evenodd" clip-rule="evenodd" d="M12.7966 29.089H3.63882C1.69384 29.089 0.101562 27.4968 0.101562 25.5517V5.97149C0.101562 4.02643 1.69384 2.43423 3.63882 2.43423H23.4546C23.5582 1.35744 24.4688 0.510742 25.5674 0.510742H40.7731C41.938 0.510742 42.8937 1.46666 42.8937 2.63922V32.945C42.8937 34.1175 41.938 35.0734 40.7731 35.0734H32.5737V36.7994C32.5737 37.1805 32.2646 37.4895 31.8835 37.4895H6.72719C6.34594 37.4895 6.03699 37.1805 6.03699 36.7994V34.8594C6.03699 33.4607 7.40289 32.2318 9.15461 32.2318H12.7966V29.089ZM23.4449 3.81462H3.63882C2.4528 3.81462 1.48195 4.78547 1.48195 5.97149V25.5517C1.48195 26.7378 2.4528 27.7086 3.63882 27.7086H23.4449V24.2945H3.17147C2.79022 24.2945 2.48127 23.9854 2.48127 23.6043V5.90117C2.48127 5.30131 2.96864 4.81644 3.5685 4.81644H23.4449V3.81462ZM23.4449 29.089H14.177V32.2318H23.4449V29.089ZM31.1933 35.0734H25.5674C24.6318 35.0734 23.8327 34.4594 23.5521 33.6122H9.15461C8.23578 33.6122 7.41738 34.1258 7.41738 34.8594V36.1092H31.1933V35.0734ZM23.4449 22.9141V16.8096L22.708 17.6229C22.5771 17.7674 22.3914 17.8498 22.1965 17.8498H17.6621C16.5962 19.5336 14.7184 20.652 12.5775 20.652C9.25805 20.652 6.56533 17.9596 6.56533 14.6382C6.56533 11.3188 9.25805 8.62607 12.5775 8.62607C14.7184 8.62607 16.5962 9.74462 17.6621 11.4284H23.4449V6.19684H3.86166V22.9141H23.4449ZM24.8253 17.8382V32.945C24.8253 33.356 25.1581 33.693 25.5674 33.693H40.7731C41.1811 33.693 41.5133 33.3557 41.5133 32.945V2.63922C41.5133 2.22855 41.1811 1.89113 40.7731 1.89113H38.997L38.297 3.21269C38.0316 3.71368 37.5111 4.02703 36.9441 4.02703H29.3943C28.8274 4.02703 28.3069 3.71368 28.0415 3.21269L27.3414 1.89113H25.5674C25.1581 1.89113 24.8253 2.22829 24.8253 2.63922V11.4284H28.6439C28.8183 11.4284 28.9863 11.4944 29.114 11.6132L31.8226 14.1328C31.963 14.2634 32.0427 14.4464 32.0427 14.6381C32.0428 14.8297 31.9631 15.0128 31.8228 15.1434L29.1141 17.6648C28.9864 17.7837 28.8184 17.8498 28.6439 17.8498H27.7074C27.5125 17.8498 27.3268 17.7674 27.1959 17.6229L26.3293 16.6662L25.4626 17.6229C25.3317 17.7675 25.1458 17.8498 24.9509 17.8498C24.9084 17.8498 24.8663 17.8458 24.8253 17.8382ZM37.435 1.89113H28.9035L29.2613 2.56649C29.2875 2.61584 29.3386 2.64664 29.3943 2.64664H36.9441C37 2.64664 37.0511 2.61584 37.0773 2.56649L37.435 1.89113ZM31.2813 31.7148C30.9003 31.7148 30.5911 31.4056 30.5911 31.0247C30.5911 30.6438 30.9003 30.3345 31.2813 30.3345H35.0592C35.4402 30.3345 35.7494 30.6438 35.7494 31.0247C35.7494 31.4056 35.4402 31.7148 35.0592 31.7148H31.2813ZM30.3394 14.6384L28.3725 12.8088H17.2668C17.013 12.8088 16.7797 12.6695 16.6593 12.4461C15.8764 10.9942 14.3432 10.0065 12.5775 10.0065C10.0202 10.0065 7.94573 12.0809 7.94573 14.6382C7.94573 17.1971 10.0201 19.2717 12.5775 19.2717C14.3432 19.2717 15.8764 18.284 16.6593 16.832C16.7797 16.6086 17.013 16.4694 17.2668 16.4694H21.8904L23.0632 15.1749C23.1941 15.0304 23.3799 14.948 23.5749 14.9481C23.7699 14.9481 23.9557 15.0307 24.0865 15.1752L24.9514 16.1312L25.8178 15.1749C25.9485 15.0305 26.1344 14.9481 26.3293 14.9481C26.5242 14.9481 26.7099 15.0305 26.8408 15.1749L28.0134 16.4694H28.3723L30.3394 14.6384ZM11.2911 12.3666C12.5449 12.3666 13.5627 13.3844 13.5627 14.6382C13.5627 15.8943 12.5448 16.9115 11.2911 16.9115C10.0352 16.9115 9.01777 15.8941 9.01777 14.6382C9.01777 13.3846 10.035 12.3666 11.2911 12.3666ZM11.2911 13.747C10.798 13.747 10.3982 14.1461 10.3982 14.6382C10.3982 15.1315 10.7978 15.5311 11.2911 15.5311C11.7832 15.5311 12.1823 15.1313 12.1823 14.6382C12.1823 14.1463 11.783 13.747 11.2911 13.747Z" fill="black"/>
</svg>
