<svg width="32" height="32" viewBox="0 0 32 32" fill="none" xmlns="http://www.w3.org/2000/svg">
<path d="M15.9995 4.5L18.687 11.9418L15.9995 30.8281H7.69141V4.5H15.9995Z" fill="#E6F0F2"/>
<path d="M16 4.5H24.06V30.8281H16V4.5Z" fill="#CFDFE6"/>
<path d="M16 0L19.0334 2.59006L16 5.625H8.375V8.8125C8.375 9.33 7.955 9.75 7.4375 9.75C6.92 9.75 6.5 9.33 6.5 8.8125V2.55C6.5 1.14375 7.64375 0 9.05 0H16Z" fill="#624D8C"/>
<path d="M16 30.125L16.8773 31.0011L16 32H9.05C7.64375 32 6.5 30.8563 6.5 29.45V23.1875C6.5 22.67 6.92 22.25 7.4375 22.25C7.955 22.25 8.375 22.67 8.375 23.1875V29.45C8.375 29.8225 8.6775 30.125 9.05 30.125H16Z" fill="#624D8C"/>
<path d="M25.5 2.55V8.8125C25.5 9.33 25.08 9.75 24.5625 9.75C24.045 9.75 23.625 9.33 23.625 8.8125V5.625H16V0H22.95C24.3563 0 25.5 1.14375 25.5 2.55Z" fill="#493373"/>
<path d="M25.5 23.1875V29.45C25.5 30.8563 24.3563 32 22.95 32H16V30.125H22.95C23.3225 30.125 23.625 29.8225 23.625 29.45V23.1875C23.625 22.67 24.045 22.25 24.5625 22.25C25.08 22.25 25.5 22.67 25.5 23.1875Z" fill="#493373"/>
<path d="M16 7.875L19.4002 13.763L16 24.125H5.0625C4.545 24.125 4.125 23.705 4.125 23.1875V8.8125C4.125 8.295 4.545 7.875 5.0625 7.875H16Z" fill="#80BFFF"/>
<path d="M27.875 8.8125V23.1875C27.875 23.705 27.455 24.125 26.9375 24.125H16V7.875H26.9375C27.455 7.875 27.875 8.295 27.875 8.8125Z" fill="#6699FF"/>
<path d="M12.6004 13.3683C12.2343 13.0022 11.6407 13.0022 11.2746 13.3683L9.30584 15.337C8.93972 15.7031 8.93972 16.2967 9.30584 16.6629L11.2746 18.6316C11.4577 18.8147 11.6976 18.9062 11.9375 18.9062C12.1773 18.9062 12.4173 18.8147 12.6003 18.6316C12.9665 18.2655 12.9665 17.6719 12.6003 17.3058L11.2946 15.9999L12.6005 14.694C12.9666 14.328 12.9666 13.7344 12.6004 13.3683Z" fill="#E6F0F2"/>
<path d="M16.0025 12.2344L16.5758 14.4124L16.0025 19.7669C15.8644 20.135 15.5106 20.3737 15.1256 20.3737C15.0494 20.3737 14.9712 20.3644 14.8931 20.3444C14.3919 20.2162 14.0887 19.7056 14.2169 19.2044L15.9712 12.3331C15.98 12.2994 15.99 12.2662 16.0025 12.2344Z" fill="#E6F0F2"/>
<path d="M16 26.375L16.7505 27.3125L16 28.25H14.4062C13.8888 28.25 13.4688 27.83 13.4688 27.3125C13.4688 26.795 13.8888 26.375 14.4062 26.375H16Z" fill="#624D8C"/>
<path d="M17.7856 12.7965L16.0312 19.6678C16.0225 19.7015 16.0125 19.7347 16 19.7665V12.234C16.1656 11.7922 16.6413 11.5365 17.1094 11.6565C17.6106 11.7847 17.9138 12.2953 17.7856 12.7965Z" fill="#CFDFE6"/>
<path d="M22.6942 16.663L20.7255 18.6317C20.5423 18.8148 20.3023 18.9061 20.0623 18.9061C19.8223 18.9061 19.5823 18.8148 19.3992 18.6317C19.0336 18.2655 19.0336 17.6717 19.3992 17.3055L20.7055 15.9998L19.3992 14.6942C19.0336 14.328 19.0336 13.7342 19.3992 13.368C19.7655 13.0023 20.3592 13.0023 20.7255 13.368L22.6942 15.3367C23.0598 15.703 23.0598 16.2967 22.6942 16.663Z" fill="#CFDFE6"/>
<path d="M18.5312 27.3125C18.5312 27.83 18.1112 28.25 17.5938 28.25H16V26.375H17.5938C18.1112 26.375 18.5312 26.795 18.5312 27.3125Z" fill="#493373"/>
</svg>
