<svg width="412" height="335" viewBox="0 0 412 335" fill="none" xmlns="http://www.w3.org/2000/svg">
<g clip-path="url(#clip0_1747_16968)">
<path d="M265.356 72.4492C263.398 75.4333 262.082 78.7103 261.38 82.0903L256 82.5971V93.0234L261.381 93.531C262.081 96.9102 263.399 100.188 265.357 103.172L261.921 107.326L269.288 114.699L273.438 111.26C276.42 113.219 279.694 114.537 283.072 115.239L283.578 120.623L293.997 120.622L294.504 115.239C297.882 114.537 301.156 113.219 304.138 111.26L308.289 114.699L315.656 107.326L312.22 103.173C314.177 100.189 315.494 96.9119 316.195 93.5319L321.574 93.0242L321.575 82.598L316.195 82.0903C315.494 78.7111 314.176 75.4333 312.219 72.4501L315.655 68.2969L308.288 60.9243L304.138 64.3628C301.156 62.4035 297.881 61.085 294.504 60.384L293.997 55L283.578 55.0009L283.072 60.3849C279.694 61.0867 276.42 62.4044 273.439 64.3637L269.288 60.9252L261.921 68.2978L265.356 72.4492ZM300.749 75.8396C307.355 82.4502 307.356 93.1702 300.749 99.7818C294.142 106.393 283.431 106.392 276.825 99.7818C270.218 93.1702 270.218 82.452 276.825 75.8396C283.431 69.228 294.142 69.228 300.749 75.8396Z" fill="#F0F0F0"/>
<path d="M335.009 50.9071L325.712 55.2526L335.009 59.5982V63.1019L322.586 57.0719V53.4333L335.009 47.4033V50.9071Z" fill="#E0E0E0"/>
<path d="M363.304 53.4333V57.0719L350.881 63.1019V59.5982L360.177 55.2526L350.881 50.9071V47.4033L363.304 53.4333Z" fill="#E0E0E0"/>
<path d="M345.119 44.9639L339.061 65.9168H342.09L348.148 44.9639H345.119Z" fill="#E0E0E0"/>
<path d="M194.536 58.46C193.587 59.9065 192.948 61.4957 192.608 63.1354L190 63.3811V68.437L192.609 68.6827C192.949 70.3216 193.588 71.9107 194.537 73.3581L192.871 75.3724L196.443 78.9474L198.456 77.2802C199.903 78.2302 201.49 78.8693 203.128 79.2094L203.374 81.8207H208.426L208.671 79.2103C210.309 78.8701 211.897 78.2311 213.343 77.281L215.356 78.9483L218.928 75.3732L217.262 73.3589C218.212 71.9116 218.85 70.3225 219.19 68.6836L221.799 68.4379V63.382L219.19 63.1363C218.85 61.4974 218.212 59.9083 217.262 58.4618L218.928 56.4475L215.356 52.8724L213.343 54.5397C211.897 53.5897 210.309 52.9506 208.672 52.6104L208.427 50H203.375L203.129 52.6104C201.491 52.9506 199.903 53.5897 198.458 54.5397L196.445 52.8724L192.873 56.4475L194.536 58.46ZM211.699 60.1041C214.902 63.3098 214.902 68.5083 211.699 71.714C208.495 74.9197 203.301 74.9197 200.097 71.714C196.894 68.5083 196.894 63.3107 200.097 60.1041C203.302 56.8984 208.495 56.8976 211.699 60.1041Z" fill="#E0E0E0"/>
<path d="M364.538 333.886H347.207V334.112H364.538V333.886Z" fill="#EBEBEB"/>
<path d="M347.391 86.7686H77.7227V265.834H347.391V86.7686Z" fill="#407BFF"/>
<path opacity="0.9" d="M347.391 86.7686H77.7227V265.834H347.391V86.7686Z" fill="white"/>
<path d="M203 207V270C203 275.523 198.523 280 193 280H138" stroke="#407BFF" stroke-dasharray="2 2"/>
<path d="M206 207V270C206 275.523 210.477 280 216 280H302" stroke="#407BFF" stroke-dasharray="2 2"/>
<path d="M347.395 86.7686H77.7227V101.142H347.395V86.7686Z" fill="#C3D0E2"/>
<path opacity="0.5" d="M343.804 93.955C343.804 95.642 342.437 97.0087 340.753 97.0087C339.067 97.0087 337.701 95.6412 337.701 93.955C337.701 92.268 339.068 90.9014 340.753 90.9014C342.438 90.9014 343.804 92.268 343.804 93.955Z" fill="white"/>
<path opacity="0.5" d="M335.132 93.955C335.132 95.642 333.766 97.0087 332.081 97.0087C330.395 97.0087 329.029 95.6412 329.029 93.955C329.029 92.268 330.396 90.9014 332.081 90.9014C333.766 90.9014 335.132 92.268 335.132 93.955Z" fill="white"/>
<path opacity="0.5" d="M326.458 93.955C326.458 95.642 325.092 97.0087 323.407 97.0087C321.721 97.0087 320.355 95.6412 320.355 93.955C320.355 92.268 321.722 90.9014 323.407 90.9014C325.092 90.9014 326.458 92.268 326.458 93.955Z" fill="white"/>
<path d="M266.015 148.629C265.2 149.872 264.651 151.237 264.359 152.645L262.119 152.856V157.199L264.36 157.41C264.652 158.817 265.201 160.183 266.016 161.425L264.585 163.155L267.654 166.226L269.382 164.794C270.624 165.61 271.988 166.159 273.394 166.451L273.605 168.693H277.944L278.155 166.451C279.562 166.159 280.926 165.611 282.168 164.794L283.897 166.226L286.965 163.156L285.534 161.426C286.35 160.183 286.898 158.818 287.19 157.411L289.43 157.199V152.857L287.19 152.646C286.898 151.239 286.35 149.874 285.534 148.631L286.965 146.901L283.897 143.831L282.168 145.263C280.926 144.447 279.562 143.898 278.156 143.606L277.945 141.364H273.606L273.395 143.606C271.988 143.898 270.624 144.447 269.383 145.263L267.655 143.831L264.586 146.902L266.015 148.629ZM279.766 151.031C281.972 153.238 281.972 156.815 279.766 159.022C277.561 161.229 273.986 161.229 271.781 159.022C269.575 156.815 269.575 153.238 271.781 151.03C273.986 148.824 277.561 148.824 279.766 151.031Z" fill="#407BFF"/>
<path opacity="0.4" d="M266.015 148.629C265.2 149.872 264.651 151.237 264.359 152.645L262.119 152.856V157.199L264.36 157.41C264.652 158.817 265.201 160.183 266.016 161.425L264.585 163.155L267.654 166.226L269.382 164.794C270.624 165.61 271.988 166.159 273.394 166.451L273.605 168.693H277.944L278.155 166.451C279.562 166.159 280.926 165.611 282.168 164.794L283.897 166.226L286.965 163.156L285.534 161.426C286.35 160.183 286.898 158.818 287.19 157.411L289.43 157.199V152.857L287.19 152.646C286.898 151.239 286.35 149.874 285.534 148.631L286.965 146.901L283.897 143.831L282.168 145.263C280.926 144.447 279.562 143.898 278.156 143.606L277.945 141.364H273.606L273.395 143.606C271.988 143.898 270.624 144.447 269.383 145.263L267.655 143.831L264.586 146.902L266.015 148.629ZM279.766 151.031C281.972 153.238 281.972 156.815 279.766 159.022C277.561 161.229 273.986 161.229 271.781 159.022C269.575 156.815 269.575 153.238 271.781 151.03C273.986 148.824 277.561 148.824 279.766 151.031Z" fill="white"/>
<path d="M260.645 124.598C260.118 125.401 259.764 126.284 259.575 127.193L258.127 127.33V130.136L259.575 130.273C259.764 131.182 260.118 132.064 260.644 132.868L259.72 133.985L261.703 135.969L262.819 135.044C263.622 135.572 264.504 135.926 265.412 136.115L265.549 137.564H268.353L268.49 136.115C269.399 135.926 270.28 135.572 271.083 135.044L272.199 135.969L274.182 133.985L273.258 132.868C273.785 132.064 274.139 131.182 274.327 130.273L275.775 130.136V127.33L274.327 127.193C274.138 126.284 273.784 125.401 273.257 124.598L274.181 123.481L272.198 121.496L271.082 122.422C270.279 121.894 269.398 121.539 268.489 121.35L268.352 119.901H265.548L265.412 121.35C264.503 121.539 263.621 121.894 262.819 122.422L261.703 121.496L259.72 123.481L260.645 124.598ZM269.532 126.15C270.956 127.576 270.956 129.889 269.532 131.315C268.107 132.74 265.796 132.74 264.371 131.315C262.946 129.889 262.946 127.576 264.371 126.15C265.796 124.725 268.107 124.725 269.532 126.15Z" fill="#407BFF"/>
<path opacity="0.7" d="M260.645 124.598C260.118 125.401 259.764 126.284 259.575 127.193L258.127 127.33V130.136L259.575 130.273C259.764 131.182 260.118 132.064 260.644 132.868L259.72 133.985L261.703 135.969L262.819 135.044C263.622 135.572 264.504 135.926 265.412 136.115L265.549 137.564H268.353L268.49 136.115C269.399 135.926 270.28 135.572 271.083 135.044L272.199 135.969L274.182 133.985L273.258 132.868C273.785 132.064 274.139 131.182 274.327 130.273L275.775 130.136V127.33L274.327 127.193C274.138 126.284 273.784 125.401 273.257 124.598L274.181 123.481L272.198 121.496L271.082 122.422C270.279 121.894 269.398 121.539 268.489 121.35L268.352 119.901H265.548L265.412 121.35C264.503 121.539 263.621 121.894 262.819 122.422L261.703 121.496L259.72 123.481L260.645 124.598ZM269.532 126.15C270.956 127.576 270.956 129.889 269.532 131.315C268.107 132.74 265.796 132.74 264.371 131.315C262.946 129.889 262.946 127.576 264.371 126.15C265.796 124.725 268.107 124.725 269.532 126.15Z" fill="white"/>
<path d="M143.346 234.134C142.819 234.937 142.465 235.82 142.276 236.729L140.828 236.866V239.672L142.276 239.809C142.465 240.718 142.819 241.6 143.346 242.404L142.422 243.521L144.405 245.505L145.521 244.58C146.324 245.108 147.206 245.462 148.115 245.651L148.251 247.1H151.055L151.192 245.651C152.101 245.462 152.982 245.107 153.785 244.579L154.901 245.504L156.884 243.52L155.96 242.403C156.487 241.6 156.841 240.717 157.029 239.808L158.477 239.671V236.865L157.029 236.728C156.84 235.819 156.486 234.937 155.959 234.133L156.883 233.016L154.901 231.032L153.784 231.957C152.981 231.429 152.1 231.075 151.191 230.886L151.054 229.437H148.25L148.114 230.886C147.205 231.075 146.323 231.429 145.521 231.956L144.404 231.031L142.421 233.015L143.346 234.134ZM152.233 235.686C153.658 237.112 153.658 239.425 152.233 240.851C150.808 242.276 148.497 242.276 147.072 240.851C145.648 239.425 145.648 237.112 147.072 235.686C148.497 234.26 150.807 234.26 152.233 235.686Z" fill="#407BFF"/>
<path opacity="0.7" d="M143.346 234.134C142.819 234.937 142.465 235.82 142.276 236.729L140.828 236.866V239.672L142.276 239.809C142.465 240.718 142.819 241.6 143.346 242.404L142.422 243.521L144.405 245.505L145.521 244.58C146.324 245.108 147.206 245.462 148.115 245.651L148.251 247.1H151.055L151.192 245.651C152.101 245.462 152.982 245.107 153.785 244.579L154.901 245.504L156.884 243.52L155.96 242.403C156.487 241.6 156.841 240.717 157.029 239.808L158.477 239.671V236.865L157.029 236.728C156.84 235.819 156.486 234.937 155.959 234.133L156.883 233.016L154.901 231.032L153.784 231.957C152.981 231.429 152.1 231.075 151.191 230.886L151.054 229.437H148.25L148.114 230.886C147.205 231.075 146.323 231.429 145.521 231.956L144.404 231.031L142.421 233.015L143.346 234.134ZM152.233 235.686C153.658 237.112 153.658 239.425 152.233 240.851C150.808 242.276 148.497 242.276 147.072 240.851C145.648 239.425 145.648 237.112 147.072 235.686C148.497 234.26 150.807 234.26 152.233 235.686Z" fill="white"/>
<path d="M102 130V175C102 180.523 106.477 185 112 185H188" stroke="#407BFF" stroke-miterlimit="10" stroke-linecap="round" stroke-linejoin="round" stroke-dasharray="2 2"/>
<path d="M325 160V175C325 180.523 320.523 185 315 185H271.8H229" stroke="#407BFF" stroke-miterlimit="10" stroke-dasharray="2 2"/>
<g clip-path="url(#clip1_1747_16968)">
<path d="M223.348 165.137H226.753V157.646C226.753 156.706 225.99 155.943 225.05 155.943C224.11 155.943 223.348 156.706 223.348 157.646V165.137Z" fill="#39326C"/>
<path d="M216.539 165.137H219.944V157.646C219.944 156.706 219.182 155.943 218.242 155.943C217.301 155.943 216.539 156.706 216.539 157.646V165.137Z" fill="#39326C"/>
<path d="M209.729 165.137H213.133V157.646C213.133 156.706 212.371 155.943 211.431 155.943C210.491 155.943 209.729 156.706 209.729 157.646V165.137Z" fill="#39326C"/>
<path d="M202.918 165.137H206.323V157.646C206.323 156.706 205.561 155.943 204.62 155.943C203.68 155.943 202.918 156.706 202.918 157.646V165.137Z" fill="#5F55AF"/>
<path d="M196.109 165.137H199.514V157.646C199.514 156.706 198.752 155.943 197.812 155.943C196.872 155.943 196.109 156.706 196.109 157.646V165.137Z" fill="#5F55AF"/>
<path d="M189.299 165.137H192.704V157.646C192.704 156.706 191.941 155.943 191.001 155.943C190.061 155.943 189.299 156.706 189.299 157.646V165.137Z" fill="#5F55AF"/>
<path d="M225.05 214.054C225.99 214.054 226.753 213.291 226.753 212.351V204.86H223.348V212.351C223.348 213.291 224.11 214.054 225.05 214.054Z" fill="#39326C"/>
<path d="M218.242 214.054C219.182 214.054 219.944 213.291 219.944 212.351V204.86H216.539V212.351C216.539 213.291 217.301 214.054 218.242 214.054Z" fill="#39326C"/>
<path d="M211.431 214.054C212.371 214.054 213.133 213.291 213.133 212.351V204.86H209.729V212.351C209.729 213.291 210.491 214.054 211.431 214.054Z" fill="#39326C"/>
<path d="M204.62 214.054C205.561 214.054 206.323 213.291 206.323 212.351V204.86H202.918V212.351C202.918 213.291 203.68 214.054 204.62 214.054Z" fill="#5F55AF"/>
<path d="M197.812 214.054C198.752 214.054 199.514 213.291 199.514 212.351V204.86H196.109V212.351C196.109 213.291 196.872 214.054 197.812 214.054Z" fill="#5F55AF"/>
<path d="M191.001 214.054C191.941 214.054 192.704 213.291 192.704 212.351V204.86H189.299V212.351C189.299 213.291 190.061 214.054 191.001 214.054Z" fill="#5F55AF"/>
<path d="M180.673 169.676H188.164V166.271H180.673C179.733 166.271 178.971 167.034 178.971 167.974C178.971 168.914 179.733 169.676 180.673 169.676Z" fill="#5F55AF"/>
<path d="M180.673 176.486H188.164V173.081H180.673C179.733 173.081 178.971 173.843 178.971 174.784C178.971 175.724 179.733 176.486 180.673 176.486Z" fill="#5F55AF"/>
<path d="M180.673 183.297H188.164V179.892H180.673C179.733 179.892 178.971 180.654 178.971 181.594C178.971 182.534 179.733 183.297 180.673 183.297Z" fill="#5F55AF"/>
<path d="M180.673 190.106H188.164V186.701H180.673C179.733 186.701 178.971 187.463 178.971 188.404C178.971 189.344 179.733 190.106 180.673 190.106Z" fill="#5F55AF"/>
<path d="M180.673 196.916H188.164V193.511H180.673C179.733 193.511 178.971 194.273 178.971 195.213C178.971 196.153 179.733 196.916 180.673 196.916Z" fill="#5F55AF"/>
<path d="M180.673 203.725H188.164V200.32H180.673C179.733 200.32 178.971 201.083 178.971 202.023C178.971 202.963 179.733 203.725 180.673 203.725Z" fill="#5F55AF"/>
<path d="M227.889 166.271V169.676H235.379C236.32 169.676 237.082 168.914 237.082 167.974C237.082 167.034 236.32 166.271 235.379 166.271H227.889Z" fill="#39326C"/>
<path d="M227.889 176.486H235.379C236.32 176.486 237.082 175.724 237.082 174.784C237.082 173.843 236.32 173.081 235.379 173.081H227.889V176.486Z" fill="#39326C"/>
<path d="M227.889 183.297H235.379C236.32 183.297 237.082 182.534 237.082 181.594C237.082 180.654 236.32 179.892 235.379 179.892H227.889V183.297Z" fill="#39326C"/>
<path d="M227.889 190.106H235.379C236.32 190.106 237.082 189.344 237.082 188.404C237.082 187.463 236.32 186.701 235.379 186.701H227.889V190.106Z" fill="#39326C"/>
<path d="M227.889 196.916H235.379C236.32 196.916 237.082 196.153 237.082 195.213C237.082 194.273 236.32 193.511 235.379 193.511H227.889V196.916Z" fill="#39326C"/>
<path d="M227.889 203.725H235.379C236.32 203.725 237.082 202.963 237.082 202.023C237.082 201.083 236.32 200.32 235.379 200.32H227.889V203.725Z" fill="#39326C"/>
<path d="M229.591 161.731H186.462C185.522 161.731 184.76 162.494 184.76 163.434V206.563C184.76 207.503 185.522 208.265 186.462 208.265H229.591C230.531 208.265 231.294 207.503 231.294 206.563V163.434C231.294 162.494 230.531 161.731 229.591 161.731Z" fill="#AED0FF"/>
<path d="M231.294 206.563V163.434C231.294 162.494 230.532 161.731 229.592 161.731H208.027V208.265H229.592C230.532 208.265 231.294 207.503 231.294 206.563Z" fill="#7C84E8"/>
<path d="M222.782 168.541H193.273C192.333 168.541 191.57 169.303 191.57 170.243V199.753C191.57 200.693 192.333 201.455 193.273 201.455H222.782C223.722 201.455 224.484 200.693 224.484 199.753V170.243C224.484 169.303 223.722 168.541 222.782 168.541Z" fill="#5F55AF"/>
<path d="M224.484 199.753V170.243C224.484 169.303 223.722 168.541 222.782 168.541H208.027V201.455H222.782C223.722 201.455 224.484 200.693 224.484 199.753Z" fill="#39326C"/>
<path d="M207.075 177.779C207.069 177.763 207.063 177.748 207.056 177.732C206.745 176.975 206.015 176.486 205.197 176.486C205.196 176.486 205.195 176.486 205.195 176.486C204.375 176.487 203.645 176.978 203.335 177.736C203.33 177.749 203.325 177.762 203.32 177.775L198.206 191.202C197.871 192.081 198.312 193.065 199.191 193.399C200.069 193.734 201.053 193.293 201.388 192.414L202.244 190.167H208.11L208.957 192.41C209.214 193.091 209.862 193.511 210.55 193.511C210.75 193.511 210.953 193.476 211.151 193.401C212.03 193.069 212.475 192.087 212.142 191.207L207.075 177.779ZM203.541 186.762L205.191 182.429L206.826 186.762H203.541Z" fill="#F9F9F9"/>
<path d="M208.957 192.409C209.214 193.091 209.862 193.511 210.55 193.511C210.75 193.511 210.953 193.475 211.151 193.401C212.031 193.069 212.475 192.087 212.143 191.207L208.025 180.297V190.166H208.111L208.957 192.409Z" fill="#E2DFF4"/>
<path d="M216.253 176.486C215.313 176.486 214.551 177.249 214.551 178.189V191.808C214.551 192.749 215.313 193.511 216.253 193.511C217.193 193.511 217.956 192.749 217.956 191.808V178.189C217.956 177.249 217.193 176.486 216.253 176.486Z" fill="#E2DFF4"/>
</g>
<path d="M183.929 194.349C183.77 194.349 183.623 194.245 183.577 194.086C183.277 193.062 183.03 192.014 182.844 190.97C182.808 190.771 182.941 190.581 183.14 190.545C183.341 190.51 183.53 190.642 183.566 190.841C183.747 191.858 183.988 192.881 184.281 193.879C184.338 194.073 184.226 194.277 184.032 194.334C183.997 194.344 183.962 194.349 183.929 194.349Z" fill="#407BFF"/>
<path d="M394.867 254.558V263.856H299.131V244.093C299.131 240.412 302.115 237.428 305.796 237.428H328.381C330.262 237.428 332.054 238.222 333.318 239.615L338.843 245.706C340.107 247.099 341.9 247.894 343.78 247.894H388.202C391.883 247.893 394.867 250.877 394.867 254.558Z" fill="#C3D0E2"/>
<path d="M394.867 263.856V318.471C394.867 324.05 390.344 328.572 384.765 328.572H309.233C303.654 328.572 299.131 324.05 299.131 318.471V263.856H394.867Z" fill="white"/>
<path d="M394.867 263.853V318.47C394.867 324.052 390.348 328.57 384.767 328.57H309.231C303.65 328.57 299.131 324.052 299.131 318.47V306.637C305.938 313.76 315.53 318.192 326.157 318.192H347.075C367.735 318.192 384.489 301.439 384.489 280.779C384.489 274.384 382.296 268.505 378.592 263.853L394.867 263.853Z" fill="#E7E6FD"/>
<path d="M312.426 253.904C312.756 251.87 311.375 249.955 309.342 249.625C307.309 249.296 305.393 250.677 305.064 252.71C304.734 254.743 306.115 256.659 308.148 256.988C310.181 257.318 312.097 255.937 312.426 253.904Z" fill="white"/>
<path d="M325.106 253.905C325.436 251.871 324.055 249.956 322.022 249.626C319.988 249.297 318.073 250.678 317.743 252.711C317.414 254.744 318.795 256.66 320.828 256.989C322.861 257.319 324.776 255.938 325.106 253.905Z" fill="white"/>
<path d="M337.784 253.906C338.113 251.872 336.732 249.957 334.699 249.627C332.666 249.298 330.751 250.679 330.421 252.712C330.091 254.745 331.472 256.661 333.506 256.99C335.539 257.32 337.454 255.939 337.784 253.906Z" fill="white"/>
<path d="M333.283 272.563V282.437C333.283 284.589 331.539 286.333 329.388 286.333H311.161C309.01 286.333 307.266 284.589 307.266 282.437V272.563C307.266 270.411 309.01 268.667 311.161 268.667H329.388C331.539 268.667 333.283 270.411 333.283 272.563Z" fill="#9A88FB"/>
<path d="M388.202 246.937H343.78C342.173 246.937 340.632 246.254 339.553 245.063L334.027 238.972C332.586 237.382 330.527 236.471 328.381 236.471H305.796C301.593 236.471 298.174 239.89 298.174 244.093V318.471C298.174 324.569 303.135 329.53 309.233 329.53H384.765C390.864 329.53 395.824 324.569 395.824 318.471C395.824 308.839 395.824 264.189 395.824 254.559C395.824 250.356 392.405 246.937 388.202 246.937ZM393.91 318.471C393.91 323.513 389.807 327.615 384.765 327.615H309.233C304.191 327.615 300.089 323.513 300.089 318.471V264.814H393.91V318.471ZM393.91 262.899H300.089V244.093C300.089 240.946 302.649 238.385 305.796 238.385H328.381C329.988 238.385 331.529 239.068 332.61 240.258L338.135 246.35C339.577 247.94 341.635 248.851 343.78 248.851H388.202C391.349 248.851 393.91 251.412 393.91 254.558V262.899H393.91Z" fill="#3A4B81"/>
<path d="M308.75 248.622C306.165 248.622 304.062 250.725 304.062 253.309C304.062 255.894 306.165 257.997 308.75 257.997C311.335 257.997 313.438 255.894 313.438 253.309C313.438 250.725 311.335 248.622 308.75 248.622ZM308.75 256.082C307.222 256.082 305.977 254.838 305.977 253.309C305.977 251.781 307.221 250.537 308.75 250.537C310.279 250.537 311.523 251.781 311.523 253.309C311.523 254.838 310.279 256.082 308.75 256.082Z" fill="#3A4B81"/>
<path d="M321.431 248.622C318.847 248.622 316.744 250.725 316.744 253.309C316.744 255.894 318.847 257.997 321.431 257.997C324.016 257.997 326.119 255.894 326.119 253.309C326.119 250.725 324.016 248.622 321.431 248.622ZM321.431 256.082C319.902 256.082 318.659 254.838 318.659 253.309C318.659 251.781 319.902 250.537 321.431 250.537C322.96 250.537 324.204 251.781 324.204 253.309C324.204 254.838 322.959 256.082 321.431 256.082Z" fill="#3A4B81"/>
<path d="M334.111 248.622C331.526 248.622 329.424 250.725 329.424 253.309C329.424 255.894 331.527 257.997 334.111 257.997C336.696 257.997 338.798 255.894 338.798 253.309C338.798 250.725 336.696 248.622 334.111 248.622ZM334.111 256.082C332.582 256.082 331.338 254.838 331.338 253.309C331.338 251.781 332.582 250.537 334.111 250.537C335.639 250.537 336.884 251.781 336.884 253.309C336.884 254.838 335.639 256.082 334.111 256.082Z" fill="#3A4B81"/>
<path d="M380.768 256.081H360.026C359.497 256.081 359.068 256.51 359.068 257.038C359.068 257.567 359.496 257.996 360.026 257.996H380.768C381.297 257.996 381.725 257.567 381.725 257.038C381.725 256.51 381.297 256.081 380.768 256.081Z" fill="#ECF2FF"/>
<path d="M315.759 281.432C316.161 281.774 316.765 281.724 317.108 281.32C317.449 280.917 317.399 280.312 316.995 279.971L314.074 277.499L316.995 275.03C317.399 274.688 317.449 274.084 317.108 273.681C316.767 273.278 316.163 273.226 315.759 273.568L311.974 276.768C311.759 276.95 311.635 277.218 311.635 277.5C311.635 277.781 311.759 278.048 311.974 278.23L315.759 281.432Z" fill="#3A4B81"/>
<path d="M323.441 281.32C323.783 281.724 324.388 281.773 324.79 281.432L328.575 278.229C328.79 278.047 328.914 277.78 328.914 277.499C328.914 277.217 328.79 276.949 328.575 276.768L324.79 273.567C324.386 273.226 323.783 273.277 323.441 273.68C323.1 274.083 323.15 274.687 323.554 275.029L326.475 277.498L323.554 279.97C323.15 280.312 323.1 280.916 323.441 281.32Z" fill="#3A4B81"/>
<path d="M318.096 283.511C318.595 283.693 319.143 283.433 319.323 282.938L323.028 272.715C323.207 272.217 322.951 271.669 322.454 271.489C321.957 271.308 321.408 271.565 321.227 272.062L317.522 282.285C317.343 282.783 317.599 283.331 318.096 283.511Z" fill="#3A4B81"/>
<path d="M337.84 281.637H384.712C385.241 281.637 385.669 281.208 385.669 280.679C385.669 280.15 385.241 279.722 384.712 279.722H337.84C337.311 279.722 336.883 280.15 336.883 280.679C336.883 281.208 337.311 281.637 337.84 281.637Z" fill="#3A4B81"/>
<path d="M380.502 287.85C381.031 287.85 381.459 287.422 381.459 286.893C381.459 286.364 381.031 285.936 380.502 285.936H355.141C354.612 285.936 354.184 286.364 354.184 286.893C354.184 287.422 354.612 287.85 355.141 287.85H380.502Z" fill="#3A4B81"/>
<path d="M309.286 294.064H317.714C318.243 294.064 318.671 293.636 318.671 293.107C318.671 292.578 318.243 292.149 317.714 292.149H309.286C308.756 292.149 308.328 292.578 308.328 293.107C308.328 293.636 308.756 294.064 309.286 294.064Z" fill="#3A4B81"/>
<path d="M371.802 312.707C372.331 312.707 372.76 312.278 372.76 311.749C372.76 311.221 372.331 310.792 371.802 310.792H350.928C350.399 310.792 349.971 311.221 349.971 311.749C349.971 312.278 350.399 312.707 350.928 312.707H371.802Z" fill="#3A4B81"/>
<path d="M326.359 293.107C326.359 293.636 326.788 294.064 327.317 294.064H386.693C387.222 294.064 387.65 293.636 387.65 293.107C387.65 292.578 387.222 292.149 386.693 292.149H327.317C326.788 292.149 326.359 292.578 326.359 293.107Z" fill="#3A4B81"/>
<path d="M309.286 300.279H324.571C325.1 300.279 325.528 299.85 325.528 299.322C325.528 298.793 325.1 298.364 324.571 298.364H309.286C308.756 298.364 308.328 298.793 308.328 299.322C308.328 299.85 308.756 300.279 309.286 300.279Z" fill="#3A4B81"/>
<path d="M377.873 298.364H333C332.471 298.364 332.043 298.793 332.043 299.322C332.043 299.85 332.471 300.279 333 300.279H377.873C378.402 300.279 378.83 299.85 378.83 299.322C378.83 298.793 378.402 298.364 377.873 298.364Z" fill="#3A4B81"/>
<path d="M309.286 306.493H324.571C325.1 306.493 325.528 306.064 325.528 305.536C325.528 305.007 325.1 304.578 324.571 304.578H309.286C308.756 304.578 308.328 305.007 308.328 305.536C308.328 306.064 308.756 306.493 309.286 306.493Z" fill="#3A4B81"/>
<path d="M377.873 304.579H333C332.471 304.579 332.043 305.008 332.043 305.537C332.043 306.065 332.471 306.494 333 306.494H377.873C378.402 306.494 378.83 306.065 378.83 305.537C378.83 305.008 378.402 304.579 377.873 304.579Z" fill="#3A4B81"/>
<path d="M309.286 312.707H315.269C315.798 312.707 316.226 312.278 316.226 311.749C316.226 311.221 315.798 310.792 315.269 310.792H309.286C308.756 310.792 308.328 311.221 308.328 311.749C308.328 312.278 308.756 312.707 309.286 312.707Z" fill="#3A4B81"/>
<path d="M323.855 311.75C323.855 312.279 324.284 312.708 324.813 312.708H343.173C343.702 312.708 344.13 312.279 344.13 311.75C344.13 311.222 343.702 310.793 343.173 310.793H324.813C324.284 310.793 323.855 311.222 323.855 311.75Z" fill="#3A4B81"/>
<path d="M324.571 317.007H309.286C308.756 317.007 308.328 317.436 308.328 317.964C308.328 318.493 308.756 318.922 309.286 318.922H324.571C325.1 318.922 325.528 318.493 325.528 317.964C325.528 317.436 325.1 317.007 324.571 317.007Z" fill="#3A4B81"/>
<path d="M377.873 317.007H333C332.471 317.007 332.043 317.436 332.043 317.964C332.043 318.493 332.471 318.922 333 318.922H377.873C378.402 318.922 378.83 318.493 378.83 317.964C378.83 317.436 378.402 317.007 377.873 317.007Z" fill="#3A4B81"/>
<path d="M311.162 287.291H329.388C332.064 287.291 334.241 285.114 334.241 282.438V272.563C334.241 269.887 332.064 267.71 329.388 267.71H311.162C308.486 267.71 306.309 269.887 306.309 272.563V282.437C306.309 285.114 308.486 287.291 311.162 287.291ZM308.223 272.563C308.223 270.942 309.541 269.625 311.162 269.625H329.388C331.008 269.625 332.327 270.943 332.327 272.563V282.437C332.327 284.058 331.008 285.376 329.388 285.376H311.162C309.541 285.376 308.223 284.058 308.223 282.437V272.563Z" fill="#3A4B81"/>
<path d="M386.379 162.233H299.51C297.17 162.233 295.273 160.335 295.273 157.994V86.2409C295.273 83.8993 297.17 82.001 299.51 82.001H386.379C388.718 82.001 390.615 83.8993 390.615 86.2409V157.994C390.615 160.335 388.718 162.233 386.379 162.233Z" fill="#407BFF"/>
<path d="M386.379 162.233H299.51C297.17 162.233 295.273 160.335 295.273 157.994V86.2409C295.273 83.8993 297.17 82.001 299.51 82.001H386.379C388.718 82.001 390.615 83.8993 390.615 86.2409V157.994C390.615 160.335 388.718 162.233 386.379 162.233Z" fill="#E1E6E9"/>
<path d="M390.615 95.991H295.273V85.9745C295.273 83.7798 297.052 82 299.245 82H386.714C388.869 82 390.616 83.748 390.616 85.9049V95.991H390.615Z" fill="#C3D0E2"/>
<path opacity="0.5" d="M385.234 90.0165C385.234 91.7036 383.867 93.0711 382.182 93.0711C380.496 93.0711 379.131 91.7036 379.131 90.0165C379.131 88.3295 380.497 86.9629 382.182 86.9629C383.867 86.9629 385.234 88.3295 385.234 90.0165Z" fill="white"/>
<path opacity="0.5" d="M376.56 90.0165C376.56 91.7036 375.193 93.0711 373.508 93.0711C371.823 93.0711 370.457 91.7036 370.457 90.0165C370.457 88.3295 371.823 86.9629 373.508 86.9629C375.193 86.9629 376.56 88.3295 376.56 90.0165Z" fill="white"/>
<path opacity="0.5" d="M367.886 90.0165C367.886 91.7036 366.52 93.0711 364.835 93.0711C363.149 93.0711 361.783 91.7036 361.783 90.0165C361.783 88.3295 363.15 86.9629 364.835 86.9629C366.52 86.9629 367.886 88.3295 367.886 90.0165Z" fill="white"/>
<path opacity="0.6" d="M365.633 107.688H316.73V110.535H365.633V107.688Z" fill="white"/>
<path opacity="0.6" d="M352.482 113.849H317.49V116.696H352.482V113.849Z" fill="#263238"/>
<path d="M378.847 107.688H369.227V110.535H378.847V107.688Z" fill="#407BFF"/>
<path d="M313.335 107.688H303.715V110.535H313.335V107.688Z" fill="#407BFF"/>
<path d="M365.633 120.692H316.73V123.54H365.633V120.692Z" fill="#407BFF"/>
<path opacity="0.6" d="M378.847 120.692H369.227V123.54H378.847V120.692Z" fill="white"/>
<path d="M313.335 120.692H303.715V123.54H313.335V120.692Z" fill="#407BFF"/>
<path d="M365.633 147.808H316.73V150.655H365.633V147.808Z" fill="#407BFF"/>
<path opacity="0.6" d="M378.847 147.808H369.227V150.655H378.847V147.808Z" fill="white"/>
<path d="M365.633 127.55H316.73V130.397H365.633V127.55Z" fill="#407BFF"/>
<path opacity="0.6" d="M378.847 127.55H369.227V130.397H378.847V127.55Z" fill="#263238"/>
<path opacity="0.6" d="M313.335 127.55H303.715V130.397H313.335V127.55Z" fill="#263238"/>
<path d="M379.556 113.96H356.312V116.807H379.556V113.96Z" fill="#407BFF"/>
<path opacity="0.6" d="M351.721 133.529H316.73V136.377H351.721V133.529Z" fill="white"/>
<path d="M378.794 133.642H355.551V136.489H378.794V133.642Z" fill="#407BFF"/>
<path opacity="0.6" d="M334.226 139.721H316.73V142.568H334.226V139.721Z" fill="#263238"/>
<path d="M116.205 48.7985H34V37.7644C34 36.2916 35.1939 35.0977 36.6667 35.0977H113.538C115.011 35.0977 116.205 36.2916 116.205 37.7644V48.7985Z" fill="#C3D0E2"/>
<path d="M113.538 114.562H36.6667C35.1939 114.562 34 113.368 34 111.895V48.7979H116.205V111.895C116.205 113.368 115.011 114.562 113.538 114.562Z" fill="#E1E6E9"/>
<path d="M42.9059 45.3733C44.7977 45.3733 46.3313 43.8397 46.3313 41.9479C46.3313 40.0561 44.7977 38.5225 42.9059 38.5225C41.0141 38.5225 39.4805 40.0561 39.4805 41.9479C39.4805 43.8397 41.0141 45.3733 42.9059 45.3733Z" fill="#FCD462"/>
<path d="M53.8668 45.3733C55.7586 45.3733 57.2922 43.8397 57.2922 41.9479C57.2922 40.0561 55.7586 38.5225 53.8668 38.5225C51.975 38.5225 50.4414 40.0561 50.4414 41.9479C50.4414 43.8397 51.975 45.3733 53.8668 45.3733Z" fill="#27A2DB"/>
<path d="M64.8258 45.3733C66.7176 45.3733 68.2512 43.8397 68.2512 41.9479C68.2512 40.0561 66.7176 38.5225 64.8258 38.5225C62.934 38.5225 61.4004 40.0561 61.4004 41.9479C61.4004 43.8397 62.934 45.3733 64.8258 45.3733Z" fill="#44C4A1"/>
<path d="M127.928 108.079L133.999 106.585V98.9368L127.928 97.4429C127.298 94.5774 126.165 91.9056 124.633 89.5092L127.875 84.1512L122.467 78.7433L117.108 81.9853C114.712 80.4536 112.041 79.3211 109.175 78.6906L107.681 72.6191H100.033L98.539 78.6906C95.6733 79.3211 93.0017 80.454 90.6051 81.9857L85.2467 78.7439L79.8388 84.1521L83.0808 89.5103C81.5493 91.9066 80.4164 94.578 79.786 97.4433L73.7148 98.9375V106.585L79.786 108.079C80.4166 110.945 81.5493 113.616 83.081 116.013L79.8394 121.371L85.2474 126.779L90.6051 123.537C93.0017 125.069 95.6735 126.202 98.5393 126.832L100.033 132.903H107.681L109.175 126.832C112.041 126.202 114.713 125.069 117.109 123.537L122.467 126.778L127.875 121.37L124.633 116.013C126.165 113.616 127.298 110.944 127.928 108.079Z" fill="#A2A2F9"/>
<path d="M103.859 121.941C114.453 121.941 123.04 113.353 123.04 102.759C123.04 92.1659 114.453 83.5781 103.859 83.5781C93.2655 83.5781 84.6777 92.1659 84.6777 102.759C84.6777 113.353 93.2655 121.941 103.859 121.941Z" fill="#E1E6E9"/>
<path d="M103.858 113.72C109.912 113.72 114.818 108.813 114.818 102.76C114.818 96.7068 109.912 91.7998 103.858 91.7998C97.8054 91.7998 92.8984 96.7068 92.8984 102.76C92.8984 108.813 97.8054 113.72 103.858 113.72Z" fill="#7979F7"/>
<path d="M48.7908 70.8401L47.3898 74.0231H44.8672L51.0323 60.0312H53.5549L59.7201 74.0231H57.1984L55.7967 70.8401H48.7908ZM54.8362 68.659L52.2939 62.8938L49.7517 68.659H54.8362Z" fill="#3A556A"/>
<path d="M71.1105 61.2514C72.0846 62.0659 72.5717 63.3202 72.5717 65.0145C72.5717 66.7102 72.074 67.9517 71.0804 68.7384C70.0859 69.5253 68.561 69.9195 66.5061 69.9195H64.0243V74.0231H61.6621V60.0312H66.4662C68.5879 60.0312 70.1363 60.4385 71.1105 61.2514ZM69.4391 67.0264C69.9123 66.5263 70.1493 65.7932 70.1493 64.8257C70.1493 63.8581 69.8487 63.1737 69.2484 62.7731C68.6481 62.3723 67.7073 62.1737 66.426 62.1737H64.0239V67.7777H66.7664C68.0739 67.7773 68.965 67.5281 69.4391 67.0264Z" fill="#3A556A"/>
<path d="M75.3535 60.0312H77.7157V74.0231H75.3535V60.0312Z" fill="#3A556A"/>
<path d="M108.204 44.6147H76.6257C75.1529 44.6147 73.959 43.4208 73.959 41.948C73.959 40.4752 75.1529 39.2812 76.6257 39.2812H108.204C109.677 39.2812 110.871 40.4752 110.871 41.948C110.871 43.4208 109.677 44.6147 108.204 44.6147Z" fill="#E1E6E9"/>
<path d="M21.4606 208.595H52.8722C55.7116 208.595 58.0136 210.898 58.0136 213.74V230.712C58.0136 233.553 55.7116 235.857 52.8722 235.857H45.3575L45.3017 240.991L39.6436 235.857H21.4598C18.6204 235.857 16.3184 233.553 16.3184 230.712V213.74C16.3184 210.898 18.6204 208.595 21.4606 208.595Z" fill="#7979F7"/>
<path d="M33.2994 219.545L28.3468 221.86L33.2994 224.174V226.041L26.6816 222.829V220.891L33.2994 217.679V219.545Z" fill="white"/>
<path d="M48.3706 220.891V222.829L41.752 226.041V224.174L46.7045 221.86L41.752 219.545V217.679L48.3706 220.891Z" fill="white"/>
<path d="M38.6844 216.379L35.457 227.54H37.0707L40.2972 216.379H38.6844Z" fill="white"/>
<path d="M45.6221 207.436H29.488C29.3696 207.436 29.2734 207.34 29.2734 207.222C29.2734 207.103 29.3696 207.007 29.488 207.007H45.6213C45.7397 207.007 45.8358 207.103 45.8358 207.222C45.8367 207.34 45.7406 207.436 45.6221 207.436Z" fill="#407BFF"/>
<path d="M50.0729 207.443H47.5271C47.4086 207.443 47.3125 207.347 47.3125 207.228C47.3125 207.11 47.4086 207.014 47.5271 207.014H50.0729C50.1913 207.014 50.2875 207.11 50.2875 207.228C50.2875 207.347 50.1913 207.443 50.0729 207.443Z" fill="#407BFF"/>
<g clip-path="url(#clip2_1747_16968)">
<path d="M142.205 248.798H60V237.764C60 236.292 61.1939 235.098 62.6667 235.098H139.538C141.011 235.098 142.205 236.292 142.205 237.764V248.798Z" fill="#C3D0E2"/>
<path d="M139.538 314.562H62.6667C61.1939 314.562 60 313.368 60 311.895V248.798H142.205V311.895C142.205 313.368 141.011 314.562 139.538 314.562Z" fill="#E1E6E9"/>
<path d="M68.9059 245.373C70.7977 245.373 72.3313 243.84 72.3313 241.948C72.3313 240.056 70.7977 238.522 68.9059 238.522C67.0141 238.522 65.4805 240.056 65.4805 241.948C65.4805 243.84 67.0141 245.373 68.9059 245.373Z" fill="#FCD462"/>
<path d="M79.8668 245.373C81.7586 245.373 83.2922 243.84 83.2922 241.948C83.2922 240.056 81.7586 238.522 79.8668 238.522C77.975 238.522 76.4414 240.056 76.4414 241.948C76.4414 243.84 77.975 245.373 79.8668 245.373Z" fill="#27A2DB"/>
<path d="M90.8258 245.373C92.7176 245.373 94.2512 243.84 94.2512 241.948C94.2512 240.056 92.7176 238.522 90.8258 238.522C88.934 238.522 87.4004 240.056 87.4004 241.948C87.4004 243.84 88.934 245.373 90.8258 245.373Z" fill="#44C4A1"/>
<path d="M99.7916 263.17H99.7432L99.2596 263.267C98.1958 263.396 97.1562 263.694 96.1407 264.161C95.1252 264.629 94.2306 265.249 93.4569 266.023C92.1352 267.216 91.2164 268.682 90.7006 270.423C90.4105 271.39 90.2816 272.406 90.3138 273.47C90.346 274.534 90.5395 275.549 90.8941 276.516C91.4421 277.967 92.2803 279.224 93.4086 280.288L94.0372 280.868L90.0237 287.396C89.1855 287.364 88.4602 287.477 87.8476 287.735C86.8805 288.154 86.1552 288.799 85.6716 289.669C85.446 290.153 85.3009 290.652 85.2364 291.168C85.172 291.684 85.2042 292.2 85.3331 292.715C85.591 293.682 86.123 294.456 86.9289 295.036C87.4124 295.359 87.9444 295.593 88.5246 295.738C89.1049 295.883 89.6852 295.915 90.2654 295.834C90.8457 295.754 91.4018 295.552 91.9337 295.23C92.4656 294.908 92.9089 294.505 93.2635 294.021C93.6504 293.473 93.8841 292.844 93.9647 292.135C94.0453 291.426 93.9566 290.765 93.6987 290.153C93.6665 289.991 93.5536 289.766 93.3602 289.476L93.2152 289.185L98.9212 279.901C99.1146 279.611 99.2435 279.385 99.308 279.224L98.8244 279.079C98.5343 279.015 98.3248 278.95 98.1958 278.886C97.4544 278.563 96.7854 278.12 96.189 277.556C95.5927 276.992 95.1333 276.355 94.8109 275.646C94.2629 274.485 94.1178 273.276 94.3757 272.019C94.5046 271.278 94.7787 270.584 95.1977 269.94C95.6168 269.295 96.1165 268.747 96.6968 268.296C97.8896 267.425 99.2113 266.99 100.662 266.99C101.532 266.958 102.379 267.111 103.201 267.449C104.023 267.788 104.74 268.28 105.352 268.924C105.901 269.44 106.328 270.061 106.634 270.786C106.94 271.511 107.109 272.245 107.142 272.986C107.142 273.534 107.045 274.211 106.852 275.017L110.236 275.936L110.623 275.984C111.075 274.598 111.187 273.212 110.962 271.826C110.833 270.762 110.519 269.738 110.019 268.755C109.519 267.772 108.882 266.909 108.109 266.168C106.755 264.814 105.095 263.911 103.128 263.46C102.935 263.396 102.645 263.331 102.258 263.267L101.581 263.17H99.7916ZM100.662 269.166C100.114 269.166 99.5659 269.279 99.0179 269.505C98.4698 269.73 97.9782 270.061 97.543 270.496C97.1078 270.931 96.7935 271.439 96.6001 272.019C96.3422 272.664 96.2777 273.373 96.4066 274.147C96.5034 274.727 96.729 275.275 97.0836 275.791C97.4382 276.307 97.8896 276.71 98.4376 277C99.2113 277.483 100.114 277.693 101.146 277.628C101.242 277.757 101.323 277.886 101.387 278.015L106.803 287.251C106.9 287.445 106.997 287.59 107.093 287.686C107.964 286.848 108.907 286.276 109.922 285.97C110.938 285.663 111.985 285.607 113.065 285.8C114.145 285.994 115.088 286.413 115.894 287.058C116.926 287.864 117.627 288.855 117.998 290.032C118.368 291.208 118.376 292.393 118.022 293.586C117.764 294.488 117.304 295.294 116.644 296.004C115.983 296.713 115.201 297.245 114.298 297.599C113.299 298.018 112.227 298.155 111.083 298.01C109.938 297.865 108.915 297.47 108.012 296.826C107.883 296.729 107.674 296.568 107.383 296.342L107.142 296.052C107.013 296.149 106.835 296.31 106.61 296.535L104.337 298.76C105.078 299.501 105.917 300.122 106.852 300.622C107.786 301.121 108.77 301.468 109.801 301.661L110.865 301.855H112.751L114.105 301.613C116.168 301.194 117.941 300.227 119.424 298.712C120.133 298.002 120.722 297.188 121.189 296.27C121.656 295.351 121.971 294.392 122.132 293.392C122.293 292.232 122.261 291.079 122.035 289.935C121.81 288.79 121.407 287.751 120.826 286.816C120.246 285.881 119.537 285.059 118.699 284.35C117.861 283.641 116.942 283.076 115.942 282.657C114.846 282.206 113.71 281.948 112.533 281.884C111.357 281.819 110.204 281.932 109.076 282.222L108.254 282.464L104.337 275.839C104.756 275.227 105.014 274.63 105.111 274.05C105.272 273.018 105.062 272.051 104.482 271.149C103.966 270.343 103.257 269.779 102.354 269.456C101.806 269.263 101.242 269.166 100.662 269.166ZM87.0256 281.932C85.1558 282.351 83.544 283.205 82.19 284.495C80.6749 285.913 79.6916 287.606 79.2403 289.572L79.0469 290.733V292.522L79.1436 293.054C79.2081 293.473 79.2725 293.795 79.337 294.021C79.5627 295.02 79.9576 295.971 80.5217 296.874C81.0859 297.777 81.7709 298.566 82.5769 299.243C84.1887 300.565 86.0424 301.355 88.1378 301.613C89.3628 301.742 90.5878 301.669 91.8128 301.395C93.0378 301.121 94.1662 300.662 95.1977 300.017C96.9063 298.921 98.1636 297.454 98.9695 295.617C99.1952 295.069 99.4208 294.343 99.6465 293.441C99.8399 293.408 100.13 293.408 100.517 293.441L106.561 293.537C107.013 293.537 107.335 293.554 107.528 293.586C107.883 294.231 108.286 294.73 108.737 295.085C109.189 295.439 109.696 295.697 110.261 295.859C110.825 296.02 111.397 296.084 111.977 296.052C112.88 295.955 113.686 295.633 114.395 295.085C115.265 294.408 115.781 293.537 115.942 292.474C116.007 291.926 115.983 291.394 115.87 290.878C115.757 290.362 115.539 289.878 115.217 289.427C114.701 288.718 114.04 288.202 113.234 287.88C112.686 287.654 112.114 287.549 111.518 287.565C110.921 287.582 110.349 287.702 109.801 287.928C108.899 288.315 108.205 288.911 107.722 289.717L107.577 290.007C107.126 290.007 106.449 289.991 105.546 289.959L100.082 289.911C99.5981 289.878 98.905 289.862 98.0024 289.862L95.5846 289.814L95.7297 290.636C95.9876 292.022 95.778 293.328 95.101 294.553C94.6497 295.423 94.005 296.149 93.1668 296.729C92.3286 297.309 91.4099 297.664 90.4105 297.793C89.2822 297.986 88.1539 297.865 87.0256 297.43C85.8973 296.995 84.9785 296.31 84.2693 295.375C83.3667 294.247 82.9315 292.973 82.9637 291.555C82.9959 290.362 83.3667 289.25 84.0759 288.218C84.495 287.606 85.0108 287.09 85.6233 286.671C86.2358 286.252 86.8966 285.946 87.6059 285.752L88.0411 285.607L87.0256 281.932Z" fill="#3A556A"/>
<path d="M134.204 244.615H102.626C101.153 244.615 99.959 243.421 99.959 241.948C99.959 240.475 101.153 239.281 102.626 239.281H134.204C135.677 239.281 136.871 240.475 136.871 241.948C136.871 243.421 135.677 244.615 134.204 244.615Z" fill="#E1E6E9"/>
</g>
</g>
<defs>
<clipPath id="clip0_1747_16968">
<rect width="412" height="335" fill="white"/>
</clipPath>
<clipPath id="clip1_1747_16968">
<rect width="58.1105" height="58.1105" fill="white" transform="translate(178.971 155.943)"/>
</clipPath>
<clipPath id="clip2_1747_16968">
<rect width="82" height="81" fill="white" transform="translate(60 234)"/>
</clipPath>
</defs>
</svg>
