<svg width="466" height="320" viewBox="0 0 466 320" fill="none" xmlns="http://www.w3.org/2000/svg">
<g clip-path="url(#clip0_2019_15150)">
<g style="mix-blend-mode:multiply">
<path d="M283.433 1.16646C174.26 -9.57139 166.306 56.3854 151.846 93.9636C146.423 108.056 137.137 118.481 127.648 126.007C115.26 135.833 100.565 141.838 85.2323 144.003C-13.4001 157.94 2.69232 299.122 39.7803 311H433.095C529.977 115.437 392.605 11.9043 283.433 1.16646Z" fill="#E2E1F4"/>
</g>
<g style="mix-blend-mode:multiply">
<path d="M99.5484 32.6555C39.1619 33.0244 23.0212 92.2683 55.7772 125.582C101.084 171.661 225.488 31.8874 99.5484 32.6555Z" fill="#E2E1F4"/>
</g>
<path d="M353.832 36.0474H348.505C348.303 36.0474 348.139 35.8834 348.139 35.6806C348.139 35.4778 348.303 35.3138 348.505 35.3138H353.832C356.319 35.3138 358.345 33.288 358.345 30.8004C358.345 28.3129 356.321 26.287 353.832 26.287C353.62 26.287 353.4 26.3064 353.137 26.3474C352.99 26.369 352.848 26.3043 352.77 26.1791C352.115 25.1349 351.053 24.3971 349.86 24.1533C349.677 24.1166 349.552 23.9462 349.569 23.7585C349.582 23.6182 349.591 23.478 349.591 23.3356C349.591 20.8459 347.567 18.8222 345.078 18.8222C342.808 18.8222 340.884 20.5201 340.603 22.7725C340.588 22.8955 340.513 23.0012 340.401 23.0573C340.288 23.1112 340.159 23.1069 340.051 23.0444C339.352 22.6301 338.56 22.4122 337.756 22.4122C335.491 22.4122 333.566 24.108 333.284 26.3539C333.269 26.4682 333.202 26.5696 333.103 26.6257C333.003 26.684 332.882 26.6905 332.777 26.6452C332.216 26.4078 331.623 26.287 331.012 26.287C328.525 26.287 326.499 28.3129 326.499 30.8004C326.499 33.288 328.523 35.3138 331.012 35.3138H336.88C337.083 35.3138 337.247 35.4778 337.247 35.6806C337.247 35.8834 337.083 36.0474 336.88 36.0474H331.012C328.119 36.0474 325.766 33.6936 325.766 30.8004C325.766 27.9073 328.119 25.5535 331.012 25.5535C331.569 25.5535 332.112 25.6398 332.634 25.8102C333.15 23.4262 335.277 21.6787 337.758 21.6787C338.519 21.6787 339.274 21.847 339.965 22.1706C340.5 19.8125 342.612 18.0908 345.075 18.0908C347.968 18.0908 350.322 20.4446 350.322 23.3378C350.322 23.396 350.322 23.4521 350.32 23.5104C351.504 23.8318 352.553 24.5718 353.26 25.5902C353.463 25.5664 353.648 25.5535 353.832 25.5535C356.725 25.5535 359.078 27.9073 359.078 30.8004C359.078 33.6936 356.725 36.0474 353.832 36.0474Z" fill="#AEC9EB"/>
<path d="M342.695 46.9083C342.602 46.9083 342.507 46.8738 342.436 46.8026L335.164 39.5902C335.058 39.4866 335.026 39.327 335.082 39.1911C335.138 39.053 335.272 38.9645 335.421 38.9645H338.059V27.5494C338.059 27.3466 338.223 27.1826 338.426 27.1826H347.141C347.344 27.1826 347.508 27.3466 347.508 27.5494V38.9645H350.146C350.295 38.9645 350.431 39.0551 350.487 39.1932C350.543 39.3313 350.509 39.4909 350.403 39.5945L342.949 46.8069C342.878 46.8759 342.785 46.9104 342.695 46.9104V46.9083ZM336.312 39.6959L342.697 46.028L349.24 39.6959H347.141C346.938 39.6959 346.774 39.5319 346.774 39.3291V27.914H338.792V39.3291C338.792 39.5319 338.628 39.6959 338.426 39.6959H336.312Z" fill="#AEC9EB"/>
<path d="M391.947 196.914H369.367C369.164 196.914 369 196.751 369 196.548V178.367C369 178.164 369.164 178 369.367 178H374.054C374.208 178 374.344 178.095 374.398 178.237L375.679 181.635H391.947C392.15 181.635 392.314 181.799 392.314 182.002V196.548C392.314 196.751 392.15 196.914 391.947 196.914ZM369.733 196.181H391.58V182.369H375.427C375.273 182.369 375.137 182.274 375.084 182.132L373.802 178.734H369.733V196.181Z" fill="#AEC9EB"/>
<path d="M391.948 196.915C391.929 196.915 391.909 196.915 391.89 196.91C391.689 196.878 391.553 196.69 391.586 196.49L394.338 179.547H374.39C374.187 179.547 374.023 179.383 374.023 179.18C374.023 178.977 374.187 178.813 374.39 178.813H394.77C394.878 178.813 394.979 178.861 395.05 178.943C395.119 179.025 395.15 179.133 395.132 179.238L392.311 196.606C392.28 196.785 392.125 196.915 391.948 196.915Z" fill="#AEC9EB"/>
<path d="M100.866 172.871H99.334C96.7043 172.871 94.5664 170.733 94.5664 168.103V162.744C94.5664 162.541 94.7304 162.377 94.9331 162.377H105.266C105.469 162.377 105.633 162.541 105.633 162.744V168.103C105.633 170.733 103.493 172.871 100.866 172.871ZM95.302 163.11V168.103C95.302 170.327 97.112 172.137 99.3362 172.137H100.868C103.092 172.137 104.902 170.327 104.902 168.103V163.11H95.302Z" fill="#AEC9EB"/>
<path d="M104.238 163.11H95.9605C95.7577 163.11 95.5938 162.946 95.5938 162.744V159.419C95.5938 156.936 97.6151 154.914 100.098 154.914C102.581 154.914 104.603 156.936 104.603 159.419V162.744C104.603 162.946 104.439 163.11 104.236 163.11H104.238ZM96.3272 162.377H103.871V159.419C103.871 157.339 102.18 155.648 100.1 155.648C98.0207 155.648 96.3294 157.339 96.3294 159.419V162.377H96.3272Z" fill="#AEC9EB"/>
<path d="M100.101 167.673C99.3653 167.673 98.7656 167.073 98.7656 166.337C98.7656 165.602 99.3653 165.002 100.101 165.002C100.837 165.002 101.436 165.602 101.436 166.337C101.436 167.073 100.837 167.673 100.101 167.673ZM100.101 165.735C99.7688 165.735 99.4991 166.005 99.4991 166.337C99.4991 166.67 99.7688 166.939 100.101 166.939C100.433 166.939 100.703 166.67 100.703 166.337C100.703 166.005 100.433 165.735 100.101 165.735Z" fill="#AEC9EB"/>
<path d="M100.093 169.539H100.089C99.8862 169.539 99.7244 169.371 99.7266 169.168L99.7438 167.302C99.7438 167.101 99.9099 166.939 100.111 166.939H100.115C100.318 166.939 100.479 167.108 100.477 167.311L100.46 169.177C100.46 169.377 100.294 169.539 100.093 169.539Z" fill="#AEC9EB"/>
<path d="M104.5 48.8117H94.1147C93.446 48.8117 92.9023 48.268 92.9023 47.5992V40.9176C92.9023 40.2488 93.446 39.7051 94.1147 39.7051H104.5C105.169 39.7051 105.712 40.2488 105.712 40.9176V47.5992C105.712 48.268 105.169 48.8117 104.5 48.8117ZM94.1126 40.0697C93.6466 40.0697 93.2669 40.4494 93.2669 40.9154V47.5971C93.2669 48.0631 93.6466 48.4428 94.1126 48.4428H104.498C104.964 48.4428 105.343 48.0631 105.343 47.5971V40.9154C105.343 40.4494 104.964 40.0697 104.498 40.0697H94.1126Z" fill="#AEC9EB"/>
<path d="M104.163 48.083H94.4508C93.9978 48.083 93.6289 47.7141 93.6289 47.261V41.2546C93.6289 40.8015 93.9978 40.4326 94.4508 40.4326H104.163C104.616 40.4326 104.985 40.8015 104.985 41.2546V47.2631C104.985 47.7162 104.616 48.0851 104.163 48.0851V48.083ZM94.453 40.7994C94.2027 40.7994 93.9978 41.0043 93.9978 41.2546V47.261C93.9978 47.5113 94.2006 47.7162 94.453 47.7162H104.165C104.415 47.7162 104.62 47.5134 104.62 47.261V41.2525C104.62 41.0022 104.417 40.7972 104.165 40.7972H94.453V40.7994Z" fill="#AEC9EB"/>
<path d="M105.127 50.5206H93.3012C92.8201 50.5206 92.4297 50.1301 92.4297 49.649C92.4297 49.1678 92.8201 48.7773 93.3012 48.7773H105.127C105.608 48.7773 105.999 49.1678 105.999 49.649C105.999 50.1301 105.608 50.5206 105.127 50.5206ZM93.2991 49.1441C93.0208 49.1441 92.7943 49.3706 92.7943 49.649C92.7943 49.9273 93.0208 50.1538 93.2991 50.1538H105.125C105.404 50.1538 105.63 49.9273 105.63 49.649C105.63 49.3706 105.404 49.1441 105.125 49.1441H93.2991Z" fill="#AEC9EB"/>
<path d="M91.4413 64.1682H81.0561C80.3874 64.1682 79.8438 63.6245 79.8438 62.9557V56.274C79.8438 55.6052 80.3874 55.0615 81.0561 55.0615H91.4413C92.11 55.0615 92.6537 55.6052 92.6537 56.274V62.9557C92.6537 63.6245 92.11 64.1682 91.4413 64.1682ZM81.0561 55.4283C80.5902 55.4283 80.2105 55.808 80.2105 56.274V62.9557C80.2105 63.4217 80.5902 63.8014 81.0561 63.8014H91.4413C91.9072 63.8014 92.2869 63.4217 92.2869 62.9557V56.274C92.2869 55.808 91.9072 55.4283 91.4413 55.4283H81.0561Z" fill="#AEC9EB"/>
<path d="M91.1043 63.4414H81.3922C80.9392 63.4414 80.5703 63.0724 80.5703 62.6194V56.613C80.5703 56.1599 80.9392 55.791 81.3922 55.791H91.1043C91.5573 55.791 91.9262 56.1599 91.9262 56.613V62.6215C91.9262 63.0746 91.5573 63.4435 91.1043 63.4435V63.4414ZM81.3944 56.1578C81.1441 56.1578 80.9392 56.3627 80.9392 56.613V62.6194C80.9392 62.8696 81.142 63.0746 81.3944 63.0746H91.1065C91.3567 63.0746 91.5616 62.8718 91.5616 62.6194V56.6109C91.5616 56.3606 91.3589 56.1556 91.1065 56.1556H81.3944V56.1578Z" fill="#AEC9EB"/>
<path d="M92.0688 65.879H80.2426C79.7616 65.879 79.3711 65.4885 79.3711 65.0074C79.3711 64.5262 79.7616 64.1357 80.2426 64.1357H92.0688C92.5499 64.1357 92.9404 64.5262 92.9404 65.0074C92.9404 65.4885 92.5499 65.879 92.0688 65.879ZM80.2405 64.5004C79.9622 64.5004 79.7357 64.7269 79.7357 65.0052C79.7357 65.2835 79.9622 65.51 80.2405 65.51H92.0667C92.345 65.51 92.5715 65.2835 92.5715 65.0052C92.5715 64.7269 92.345 64.5004 92.0667 64.5004H80.2405Z" fill="#AEC9EB"/>
<path d="M117.848 64.1682H107.462C106.794 64.1682 106.25 63.6245 106.25 62.9557V56.274C106.25 55.6052 106.794 55.0615 107.462 55.0615H117.848C118.516 55.0615 119.06 55.6052 119.06 56.274V62.9557C119.06 63.6245 118.516 64.1682 117.848 64.1682ZM107.462 55.4283C106.996 55.4283 106.617 55.808 106.617 56.274V62.9557C106.617 63.4217 106.996 63.8014 107.462 63.8014H117.848C118.313 63.8014 118.693 63.4217 118.693 62.9557V56.274C118.693 55.808 118.313 55.4283 117.848 55.4283H107.462Z" fill="#AEC9EB"/>
<path d="M117.514 63.4414H107.802C107.349 63.4414 106.98 63.0724 106.98 62.6194V56.613C106.98 56.1599 107.349 55.791 107.802 55.791H117.514C117.967 55.791 118.336 56.1599 118.336 56.613V62.6215C118.336 63.0746 117.967 63.4435 117.514 63.4435V63.4414ZM107.802 56.1578C107.552 56.1578 107.347 56.3627 107.347 56.613V62.6194C107.347 62.8696 107.55 63.0746 107.802 63.0746H117.514C117.765 63.0746 117.97 62.8718 117.97 62.6194V56.6109C117.97 56.3606 117.767 56.1556 117.514 56.1556H107.802V56.1578Z" fill="#AEC9EB"/>
<path d="M118.475 65.879H106.649C106.168 65.879 105.777 65.4885 105.777 65.0074C105.777 64.5262 106.168 64.1357 106.649 64.1357H118.475C118.956 64.1357 119.347 64.5262 119.347 65.0074C119.347 65.4885 118.956 65.879 118.475 65.879ZM106.649 64.5004C106.371 64.5004 106.144 64.7269 106.144 65.0052C106.144 65.2835 106.371 65.51 106.649 65.51H118.475C118.753 65.51 118.98 65.2835 118.98 65.0052C118.98 64.7269 118.753 64.5004 118.475 64.5004H106.649Z" fill="#AEC9EB"/>
<path d="M92.1325 54.768C92.0936 54.768 92.0526 54.7551 92.0203 54.7292C91.9405 54.6666 91.9253 54.5523 91.9879 54.4725L94.9067 50.7401C94.9693 50.6602 95.0858 50.6473 95.1634 50.7077C95.2432 50.7703 95.2583 50.8846 95.1958 50.9644L92.277 54.6968C92.2403 54.7422 92.1864 54.768 92.1325 54.768Z" fill="#AEC9EB"/>
<path d="M106.79 54.769C106.736 54.769 106.682 54.7452 106.645 54.6978L103.726 50.9653C103.664 50.8855 103.679 50.7712 103.759 50.7086C103.838 50.646 103.953 50.6611 104.015 50.741L106.934 54.4734C106.997 54.5532 106.982 54.6676 106.902 54.7301C106.869 54.756 106.828 54.769 106.79 54.769Z" fill="#AEC9EB"/>
<path d="M424.39 209.695H420.945C420.742 209.695 420.578 209.531 420.578 209.329V198.42C420.578 198.218 420.742 198.054 420.945 198.054H424.39C424.593 198.054 424.757 198.218 424.757 198.42V209.329C424.757 209.531 424.593 209.695 424.39 209.695ZM421.312 208.962H424.023V198.787H421.312V208.962Z" fill="#AEC9EB"/>
<path d="M432.456 209.696H429.011C428.808 209.696 428.645 209.532 428.645 209.329V201.387C428.645 201.184 428.808 201.021 429.011 201.021H432.456C432.659 201.021 432.823 201.184 432.823 201.387V209.329C432.823 209.532 432.659 209.696 432.456 209.696ZM429.38 208.962H432.092V201.754H429.38V208.962Z" fill="#AEC9EB"/>
<path d="M440.527 209.696H437.082C436.879 209.696 436.715 209.532 436.715 209.329V193.828C436.715 193.625 436.879 193.461 437.082 193.461H440.527C440.73 193.461 440.893 193.625 440.893 193.828V209.329C440.893 209.532 440.73 209.696 440.527 209.696ZM437.448 208.962H440.16V194.194H437.448V208.962Z" fill="#AEC9EB"/>
<path d="M430.416 199.359C430.324 199.359 430.233 199.322 430.164 199.258L424.242 193.618H419.367C419.164 193.618 419 193.454 419 193.251C419 193.049 419.164 192.885 419.367 192.885H424.389C424.484 192.885 424.574 192.921 424.641 192.986L430.313 198.388L434.897 189.355C434.96 189.232 435.087 189.154 435.225 189.154H438.396C438.599 189.154 438.763 189.318 438.763 189.521C438.763 189.724 438.599 189.888 438.396 189.888H435.449L430.742 199.161C430.69 199.264 430.591 199.338 430.477 199.357C430.457 199.361 430.436 199.361 430.414 199.361L430.416 199.359Z" fill="#AEC9EB"/>
<path d="M441.038 189.521L437.316 191.042L438.199 189.521L437.316 188L441.038 189.521Z" fill="#AEC9EB"/>
<path d="M67.9588 90.8574C68.716 89.6104 69.5573 88.4065 70.4612 87.276C70.5885 87.1185 70.8193 87.0926 70.9768 87.2178C71.1343 87.3451 71.1602 87.5759 71.0351 87.7334C70.1506 88.838 69.3287 90.016 68.5887 91.235C68.483 91.4076 68.2479 91.4788 68.0753 91.373C67.9027 91.2673 67.838 91.0581 67.9437 90.8833L68.2565 91.0732L67.9588 90.8553V90.8574ZM65.9309 94.7452C66.0259 94.5898 66.2222 94.5251 66.3926 94.6006C66.5781 94.6826 66.6623 94.8983 66.5803 95.0839C66.0021 96.3956 65.506 97.7548 65.1047 99.1291C65.0486 99.3255 64.8437 99.4355 64.6495 99.3794C64.4554 99.3233 64.3432 99.1183 64.3993 98.9242C64.8092 97.5218 65.3161 96.1302 65.9072 94.7883C65.9137 94.7732 65.9223 94.7581 65.9288 94.7452H65.9309ZM73.3671 84.1024C73.3822 84.0765 73.4037 84.0506 73.4275 84.029C74.4845 83.015 75.6193 82.0614 76.7993 81.1941C76.9633 81.0733 77.1919 81.11 77.3127 81.274C77.4335 81.4379 77.3969 81.6688 77.2351 81.7874C76.0809 82.6353 74.9699 83.5673 73.9366 84.5598C73.7899 84.7 73.5591 84.6957 73.4188 84.549C73.3002 84.426 73.2851 84.2426 73.3692 84.1046L73.3671 84.1024ZM63.4975 103.086C63.573 102.963 63.7154 102.892 63.8664 102.913C64.0671 102.944 64.203 103.131 64.1728 103.332C63.957 104.745 63.8319 106.186 63.8017 107.619C63.7974 107.822 63.6291 107.981 63.4285 107.977C63.2257 107.973 63.0661 107.804 63.0704 107.601C63.1006 106.139 63.2279 104.665 63.4501 103.22C63.4566 103.17 63.4738 103.125 63.4997 103.084L63.4975 103.086ZM80.3761 78.9569C80.4084 78.9029 80.4537 78.8576 80.5141 78.8252C81.7956 78.1219 83.1395 77.4962 84.5051 76.9655C84.6949 76.8922 84.9063 76.9849 84.9797 77.1748C85.053 77.3646 84.9603 77.5761 84.7704 77.6494C83.4351 78.1694 82.1213 78.7799 80.8679 79.4682C80.691 79.5653 80.4667 79.5005 80.3696 79.3236C80.3049 79.205 80.3113 79.0647 80.3782 78.9569H80.3761ZM63.3142 111.768C63.3703 111.673 63.4695 111.606 63.5881 111.593C63.7888 111.571 63.97 111.716 63.9937 111.916C64.1512 113.338 64.4014 114.764 64.7423 116.156C64.7897 116.352 64.6689 116.551 64.4726 116.6C64.2763 116.648 64.0778 116.527 64.0304 116.331C63.6831 114.909 63.4242 113.45 63.2646 111.996C63.2559 111.912 63.2753 111.832 63.3163 111.765L63.3142 111.768ZM88.4745 75.807C88.5241 75.7271 88.6018 75.6646 88.701 75.6408C90.1226 75.2913 91.5809 75.0324 93.0328 74.8706C93.2334 74.849 93.4146 74.9936 93.4384 75.1942C93.4599 75.3949 93.3154 75.5761 93.1148 75.5998C91.6931 75.7573 90.2672 76.0119 88.8757 76.3528C88.6794 76.4003 88.481 76.2816 88.4313 76.0831C88.4076 75.9839 88.4249 75.8846 88.4745 75.8048V75.807ZM65.3787 120.208C65.4197 120.141 65.4801 120.087 65.5599 120.056C65.7497 119.983 65.9612 120.076 66.0345 120.266C66.5522 121.601 67.1628 122.915 67.8509 124.171C67.948 124.348 67.8833 124.57 67.7042 124.669C67.5273 124.766 67.303 124.702 67.2059 124.522C66.5048 123.239 65.8792 121.897 65.3506 120.531C65.3075 120.421 65.3226 120.302 65.3787 120.208ZM97.1079 74.8469C97.1726 74.739 97.2934 74.6678 97.4293 74.67C98.892 74.7002 100.368 74.8253 101.811 75.0454C102.011 75.0756 102.149 75.2633 102.119 75.4639C102.087 75.6646 101.901 75.8026 101.701 75.7703C100.288 75.5545 98.8466 75.4316 97.4142 75.4035C97.2114 75.3992 97.0518 75.2309 97.054 75.0303C97.054 74.9634 97.0734 74.9008 97.1079 74.8469ZM69.5509 127.832C69.5746 127.791 69.6069 127.756 69.6479 127.726C69.8119 127.608 70.0406 127.642 70.1614 127.806C71.007 128.963 71.939 130.071 72.9291 131.107C73.0694 131.254 73.0629 131.489 72.9184 131.625C72.7717 131.765 72.5408 131.761 72.4006 131.614C71.3867 130.557 70.4353 129.42 69.5703 128.24C69.4797 128.117 69.4775 127.955 69.553 127.832H69.5509ZM105.694 76.1543C105.778 76.0162 105.946 75.945 106.11 75.9925C107.515 76.4003 108.906 76.9073 110.246 77.4962C110.431 77.5782 110.515 77.794 110.433 77.9795C110.351 78.1651 110.136 78.2492 109.95 78.1672C108.639 77.5912 107.279 77.095 105.905 76.6958C105.711 76.6397 105.599 76.4348 105.655 76.2406C105.664 76.2082 105.677 76.1802 105.694 76.1522V76.1543ZM75.561 134.11C75.5697 134.097 75.5783 134.084 75.5891 134.071C75.7163 133.914 75.9472 133.888 76.1047 134.015C77.2178 134.906 78.4043 135.737 79.6318 136.483L79.7483 136.555C79.923 136.658 79.9791 136.885 79.8756 137.057C79.7763 137.223 79.5455 137.288 79.3729 137.185L79.2521 137.111C77.9987 136.35 76.7842 135.5 75.6473 134.589C75.5028 134.473 75.4683 134.268 75.5632 134.112L75.561 134.11ZM113.676 79.6688C113.781 79.4962 113.978 79.4229 114.15 79.5286L114.211 79.5653C115.445 80.316 116.64 81.1488 117.762 82.0442C117.919 82.1715 117.945 82.4023 117.82 82.5598C117.693 82.7173 117.462 82.7432 117.304 82.6181C116.208 81.7421 115.039 80.9266 113.831 80.1931C113.659 80.0874 113.572 79.8436 113.678 79.671L113.676 79.6688ZM83.1115 138.675C83.2064 138.52 83.4006 138.455 83.571 138.531C84.8848 139.105 86.246 139.597 87.6202 139.994C87.8144 140.05 87.9265 140.253 87.8704 140.449C87.8165 140.641 87.6116 140.755 87.4174 140.699C86.013 140.293 84.6216 139.791 83.2776 139.204C83.0921 139.122 83.0079 138.906 83.0878 138.721C83.0942 138.706 83.1029 138.69 83.1115 138.678V138.675ZM120.435 85.0711C120.45 85.0452 120.471 85.0193 120.495 84.9977C120.642 84.8575 120.872 84.8618 121.013 85.0085C122.029 86.0635 122.982 87.1984 123.849 88.3785C123.97 88.5425 123.934 88.7733 123.772 88.892C123.608 89.0128 123.379 88.9761 123.258 88.8143C122.411 87.6601 121.476 86.5511 120.484 85.5198C120.365 85.3969 120.35 85.2135 120.435 85.0754V85.0711ZM91.4601 141.083C91.5335 140.96 91.678 140.889 91.829 140.911C93.2442 141.122 94.6853 141.243 96.1155 141.269C96.3183 141.273 96.4801 141.439 96.4758 141.642C96.4715 141.845 96.3054 142.007 96.1026 142.002C94.64 141.976 93.1644 141.853 91.719 141.635C91.5184 141.605 91.3803 141.418 91.4105 141.219C91.417 141.169 91.4343 141.124 91.4601 141.083ZM125.586 92.0742C125.618 92.0203 125.664 91.975 125.722 91.9426C125.899 91.8455 126.123 91.9103 126.22 92.0872C126.924 93.3687 127.551 94.7106 128.084 96.0742C128.158 96.264 128.065 96.4754 127.875 96.5488C127.687 96.6221 127.474 96.5294 127.4 96.3395C126.878 95.0041 126.266 93.6902 125.577 92.4388C125.513 92.3202 125.519 92.1799 125.586 92.0721V92.0742ZM100.141 141.238C100.197 141.146 100.296 141.077 100.413 141.064C101.834 140.902 103.26 140.647 104.65 140.302C104.846 140.253 105.045 140.373 105.094 140.57C105.142 140.766 105.023 140.964 104.827 141.014C103.407 141.366 101.949 141.627 100.495 141.793C100.294 141.817 100.113 141.67 100.089 141.469C100.081 141.385 100.1 141.305 100.141 141.238ZM128.744 100.169C128.792 100.089 128.872 100.027 128.971 100.003C129.167 99.9533 129.366 100.074 129.415 100.27C129.765 101.69 130.026 103.148 130.19 104.603C130.213 104.803 130.067 104.984 129.866 105.008C129.665 105.032 129.482 104.885 129.461 104.685C129.301 103.261 129.046 101.835 128.703 100.447C128.68 100.348 128.697 100.249 128.746 100.169H128.744ZM129.713 108.803C129.778 108.695 129.898 108.624 130.034 108.626C130.237 108.631 130.399 108.797 130.395 109C130.367 110.462 130.244 111.938 130.024 113.383C129.993 113.582 129.806 113.722 129.605 113.692C129.404 113.662 129.266 113.474 129.297 113.273C129.51 111.86 129.631 110.417 129.659 108.987C129.659 108.92 129.678 108.857 129.713 108.803ZM128.414 117.39C128.498 117.252 128.667 117.181 128.831 117.228C129.025 117.284 129.137 117.487 129.081 117.683C128.675 119.088 128.171 120.479 127.582 121.821C127.5 122.007 127.284 122.091 127.098 122.011C126.913 121.929 126.829 121.713 126.911 121.528C127.487 120.216 127.979 118.853 128.378 117.48C128.386 117.448 128.399 117.42 128.416 117.392L128.414 117.39ZM122.443 128.922C122.452 128.909 122.46 128.896 122.469 128.883C123.336 127.793 124.145 126.632 124.872 125.435L124.926 125.347C125.032 125.174 125.256 125.118 125.429 125.224C125.601 125.329 125.657 125.554 125.554 125.726L125.498 125.817C124.753 127.04 123.927 128.227 123.041 129.34C122.915 129.498 122.685 129.526 122.525 129.398C122.378 129.282 122.346 129.077 122.439 128.922H122.443Z" fill="#AEC9EB"/>
<path d="M235.422 42.9879H216.089C214.458 42.9879 213.129 41.661 213.129 40.0278V30.5479C213.129 28.9169 214.456 27.5879 216.089 27.5879H235.422C237.053 27.5879 238.382 28.9147 238.382 30.5479V40.0278C238.382 41.6589 237.055 42.9879 235.422 42.9879ZM216.087 28.2028C214.794 28.2028 213.744 29.2535 213.744 30.5458V40.0257C213.744 41.318 214.794 42.3687 216.087 42.3687H235.42C236.712 42.3687 237.763 41.318 237.763 40.0257V30.5458C237.763 29.2535 236.712 28.2028 235.42 28.2028H216.087Z" fill="#AEC9EB"/>
<path d="M215.969 35.6973L222.438 32.3662V33.3284L216.987 36.0619V36.09L222.438 38.8235V39.7857L215.969 36.4524V35.6995V35.6973Z" fill="#AEC9EB"/>
<path d="M223.348 40.3401L227.237 30.2324H228.186L224.282 40.3401H223.348Z" fill="#AEC9EB"/>
<path d="M235.536 36.4656L229.066 39.7838V38.8215L234.559 36.088V36.06L229.066 33.3265V32.3643L235.536 35.6824V36.4634V36.4656Z" fill="#AEC9EB"/>
<path d="M48.811 215.295H44.518V212.659C44.1944 212.555 43.8816 212.426 43.5796 212.277L41.7071 214.15L38.6718 211.114L40.5335 209.252C40.3804 208.952 40.2509 208.64 40.1452 208.318H37.4961V204.025H40.1452C40.2509 203.708 40.3782 203.399 40.5271 203.101L38.6395 201.214L41.6747 198.178L43.5645 200.068C43.8557 199.923 44.1578 199.798 44.4706 199.695V197H48.7635V199.695C49.072 199.796 49.3697 199.919 49.6567 200.061L51.5723 198.146L54.6076 201.181L52.7006 203.086C52.8473 203.373 52.9724 203.671 53.0759 203.977H55.7833V208.271H53.104C53.0026 208.583 52.8796 208.885 52.7372 209.179L54.6378 211.082L51.6025 214.117L49.7257 212.24C49.4301 212.393 49.1217 212.523 48.8067 212.631V215.295H48.811ZM45.135 214.678H48.1962V212.176L48.4141 212.109C48.8369 211.981 49.2489 211.807 49.6372 211.591L49.84 211.479L51.6068 213.246L53.7706 211.082L51.9844 209.295L52.0922 209.095C52.2972 208.713 52.4611 208.303 52.5841 207.88L52.6488 207.656H55.1728V204.594H52.6272L52.5603 204.374C52.4352 203.96 52.267 203.559 52.0577 203.179L51.9455 202.976L53.7404 201.181L51.5766 199.017L49.7753 200.819L49.5725 200.709C49.1972 200.504 48.7937 200.34 48.3731 200.215L48.153 200.15V197.615H45.0919V200.15L44.8718 200.215C44.449 200.34 44.0413 200.508 43.6616 200.713L43.4588 200.823L41.6812 199.045L39.5175 201.209L41.2929 202.985L41.1829 203.188C40.9715 203.574 40.801 203.986 40.6738 204.413L40.609 204.635H38.1174V207.697H40.609L40.6738 207.919C40.801 208.35 40.9736 208.767 41.1894 209.157L41.3015 209.36L39.552 211.11L41.7157 213.274L43.4739 211.515L43.6767 211.625C44.065 211.837 44.4835 212.007 44.9193 212.13L45.1415 212.195V214.676L45.135 214.678ZM46.6214 209.669C44.6928 209.669 43.1244 208.1 43.1244 206.171C43.1244 204.243 44.6928 202.674 46.6214 202.674C48.55 202.674 50.1183 204.243 50.1183 206.171C50.1183 208.1 48.55 209.669 46.6214 209.669ZM46.6214 203.289C45.0336 203.289 43.7392 204.581 43.7392 206.171C43.7392 207.761 45.0315 209.054 46.6214 209.054C48.2113 209.054 49.5035 207.761 49.5035 206.171C49.5035 204.581 48.2113 203.289 46.6214 203.289Z" fill="#AEC9EB"/>
<path d="M32.9129 218.592H29.91V216.747C29.6834 216.674 29.4634 216.586 29.2541 216.48L27.9447 217.789L25.8219 215.666L27.1249 214.363C27.0192 214.154 26.9286 213.934 26.8531 213.71H25V210.706H26.8531C26.9264 210.484 27.0171 210.269 27.1206 210.061L25.8003 208.741L27.9231 206.618L29.2455 207.941C29.4483 207.839 29.6597 207.751 29.8798 207.68V205.794H32.8827V207.68C33.0984 207.751 33.3077 207.837 33.5083 207.936L34.848 206.597L36.9707 208.719L35.6375 210.053C35.7389 210.253 35.8274 210.463 35.8986 210.676H37.7926V213.679H35.918C35.8468 213.897 35.7605 214.111 35.6613 214.314L36.9923 215.645L34.8695 217.768L33.5558 216.454C33.3487 216.56 33.1329 216.652 32.9129 216.726V218.59V218.592ZM30.3393 218.163H32.4814V216.413L32.6346 216.368C32.9301 216.279 33.2192 216.156 33.4889 216.005L33.6313 215.925L34.8674 217.162L36.3818 215.647L35.1327 214.398L35.2082 214.258C35.3506 213.99 35.4671 213.705 35.5512 213.408L35.5965 213.252H37.3633V211.11H35.5814L35.5361 210.957C35.4477 210.668 35.3312 210.385 35.1845 210.12L35.1068 209.977L36.3624 208.722L34.848 207.207L33.586 208.469L33.4436 208.394C33.1804 208.251 32.8978 208.135 32.6044 208.048L32.4491 208.003V206.23H30.3069V208.003L30.1516 208.048C29.856 208.135 29.5713 208.253 29.3038 208.398L29.1614 208.476L27.9166 207.231L26.4022 208.745L27.6448 209.988L27.5672 210.13C27.4183 210.4 27.2997 210.689 27.2112 210.989L27.1659 211.144H25.4228V213.287H27.1659L27.2112 213.442C27.2997 213.744 27.4205 214.035 27.5715 214.307L27.6491 214.45L26.4238 215.675L27.9382 217.19L29.1679 215.96L29.3102 216.035C29.5821 216.182 29.8754 216.303 30.1796 216.389L30.3349 216.435V218.169L30.3393 218.163ZM31.3812 214.657C30.0329 214.657 28.9349 213.559 28.9349 212.21C28.9349 210.862 30.0329 209.764 31.3812 209.764C32.7295 209.764 33.8276 210.862 33.8276 212.21C33.8276 213.559 32.7295 214.657 31.3812 214.657ZM31.3812 210.193C30.2702 210.193 29.3642 211.097 29.3642 212.21C29.3642 213.323 30.2681 214.227 31.3812 214.227C32.4944 214.227 33.3961 213.323 33.3961 212.21C33.3961 211.097 32.4922 210.193 31.3812 210.193Z" fill="#AEC9EB"/>
<path d="M271.732 50.6339C270.466 50.6339 269.434 49.6048 269.434 48.3384V36.2242C267.342 35.3094 266 33.2728 266 30.9773C266 29.1521 266.843 27.4779 268.317 26.3819L268.804 26.0173L268.835 31.6159L271.704 33.1757L274.657 31.7518L274.627 26L275.121 26.3646C276.586 27.4433 277.459 29.1672 277.459 30.9773C277.459 33.2728 276.118 35.3094 274.025 36.2242V48.3384C274.025 49.6048 272.996 50.6339 271.73 50.6339H271.732ZM268.196 27.2858C267.184 28.2481 266.617 29.562 266.617 30.9751C266.617 33.0873 267.888 34.9535 269.857 35.7302L270.051 35.8078V48.3362C270.051 49.2618 270.804 50.0169 271.732 50.0169C272.659 50.0169 273.412 49.2639 273.412 48.3362V35.8078L273.607 35.7302C275.574 34.9535 276.847 33.0873 276.847 30.9751C276.847 29.5533 276.273 28.233 275.253 27.2707L275.278 32.1358L271.689 33.8661L268.222 31.9805L268.198 27.2837L268.196 27.2858Z" fill="#AEC9EB"/>
<g style="mix-blend-mode:multiply">
<path d="M92.6853 297.102C92.3617 297.072 92.0877 296.826 92.036 296.489C76.0958 193.809 45.9026 160.923 35.9813 150.118L35.1421 149.201C34.8725 148.904 34.8941 148.444 35.1896 148.174C35.4873 147.905 35.9468 147.926 36.2165 148.222L37.0513 149.134C47.046 160.021 77.4614 193.151 93.4705 296.267C93.5331 296.664 93.2613 297.035 92.8644 297.095C92.8039 297.104 92.7435 297.106 92.6831 297.102H92.6853Z" fill="#DEDEDE"/>
</g>
<g style="mix-blend-mode:multiply">
<path d="M67.5677 304.681C67.3822 304.78 67.1492 304.744 67.0004 304.582C21.9328 255.014 -5.99533 248.056 -15.1745 245.772L-15.9512 245.577C-16.2014 245.513 -16.3546 245.258 -16.2898 245.008C-16.2251 244.758 -15.9706 244.604 -15.7203 244.669L-14.948 244.863C-5.70194 247.167 22.4332 254.177 67.6929 303.954C67.8676 304.146 67.8525 304.442 67.6605 304.616C67.6303 304.642 67.5979 304.666 67.5656 304.683L67.5677 304.681Z" fill="#DEDEDE"/>
</g>
<g style="mix-blend-mode:multiply">
<path d="M382.924 310.566C383.129 310.676 383.39 310.638 383.554 310.456C433.592 255.424 464.601 247.698 474.789 245.159L475.652 244.943C475.931 244.872 476.099 244.589 476.028 244.311C475.957 244.032 475.674 243.864 475.396 243.935L474.537 244.151C464.271 246.708 433.033 254.492 382.784 309.757C382.59 309.971 382.607 310.299 382.818 310.493C382.851 310.523 382.887 310.547 382.924 310.568V310.566Z" fill="#DEDEDE"/>
</g>
<g opacity="0.5">
<path d="M328.727 64.1221H159.806C155.057 64.1221 151.207 67.9723 151.207 72.7217V298.084C151.207 302.833 155.057 306.683 159.806 306.683H328.727C333.476 306.683 337.326 302.833 337.326 298.084V72.7217C337.326 67.9723 333.476 64.1221 328.727 64.1221Z" fill="#C3D0E2" style="mix-blend-mode:screen"/>
<path d="M328.727 64.1221H159.806C155.057 64.1221 151.207 67.9723 151.207 72.7217V298.084C151.207 302.833 155.057 306.683 159.806 306.683H328.727C333.476 306.683 337.326 302.833 337.326 298.084V72.7217C337.326 67.9723 333.476 64.1221 328.727 64.1221Z" stroke="#F8FAFC" stroke-width="0.78" stroke-miterlimit="10" style="mix-blend-mode:screen"/>
</g>
<path style="mix-blend-mode:screen" opacity="0.4" d="M160.713 67.8672H327.818C330.998 67.8672 333.58 70.4497 333.58 73.6298V297.175C333.58 300.355 330.998 302.938 327.818 302.938H160.715C157.535 302.938 154.953 300.355 154.953 297.175V73.6298C154.953 70.4497 157.535 67.8672 160.715 67.8672H160.713Z" fill="url(#paint0_linear_2019_15150)" stroke="#F8FAFC" stroke-width="0.78" stroke-miterlimit="10"/>
<rect style="mix-blend-mode:screen" opacity="0.4" x="158.602" y="84.6289" width="171.288" height="201.723" fill="url(#paint1_linear_2019_15150)" stroke="#F8FAFC" stroke-width="0.78" stroke-miterlimit="10"/>
<path d="M322.508 78.7779C323.948 78.7779 325.114 77.611 325.114 76.1716C325.114 74.7323 323.948 73.5654 322.508 73.5654C321.069 73.5654 319.902 74.7323 319.902 76.1716C319.902 77.611 321.069 78.7779 322.508 78.7779Z" fill="#D6E8FF"/>
<path d="M309.399 78.7779C310.838 78.7779 312.005 77.611 312.005 76.1716C312.005 74.7323 310.838 73.5654 309.399 73.5654C307.96 73.5654 306.793 74.7323 306.793 76.1716C306.793 77.611 307.96 78.7779 309.399 78.7779Z" fill="#D6E8FF"/>
<path d="M296.29 78.7779C297.729 78.7779 298.896 77.611 298.896 76.1716C298.896 74.7323 297.729 73.5654 296.29 73.5654C294.85 73.5654 293.684 74.7323 293.684 76.1716C293.684 77.611 294.85 78.7779 296.29 78.7779Z" fill="#D6E8FF"/>
<path style="mix-blend-mode:screen" opacity="0.4" d="M258.348 113.14H93.8906V143.685H258.348V113.14Z" fill="url(#paint2_linear_2019_15150)" stroke="#F8FAFC" stroke-width="0.78" stroke-miterlimit="10"/>
<path style="mix-blend-mode:screen" opacity="0.4" d="M258.351 113.14H229.277V143.685H258.351V113.14Z" fill="url(#paint3_linear_2019_15150)" stroke="#F8FAFC" stroke-width="0.78" stroke-miterlimit="10"/>
<path d="M222.129 121.559H100.547V133.895H222.129V121.559Z" fill="white"/>
<g style="mix-blend-mode:multiply">
<path d="M226.357 178.116H194.604C192.221 178.116 190.289 180.048 190.289 182.431V214.187C190.289 216.57 192.221 218.502 194.604 218.502H226.357C228.739 218.502 230.671 216.57 230.671 214.187V182.431C230.671 180.048 228.739 178.116 226.357 178.116Z" fill="#B2CDFF"/>
</g>
<path style="mix-blend-mode:screen" opacity="0.4" d="M223.587 175.022H191.834C189.451 175.022 187.52 176.954 187.52 179.337V211.093C187.52 213.476 189.451 215.408 191.834 215.408H223.587C225.97 215.408 227.902 213.476 227.902 211.093V179.337C227.902 176.954 225.97 175.022 223.587 175.022Z" fill="url(#paint4_linear_2019_15150)" stroke="#F8FAFC" stroke-width="0.78" stroke-miterlimit="10"/>
<g style="mix-blend-mode:multiply">
<path d="M214.996 225.341H190.489C189.298 225.341 188.332 226.307 188.332 227.498V228.883C188.332 230.075 189.298 231.041 190.489 231.041H214.996C216.187 231.041 217.153 230.075 217.153 228.883V227.498C217.153 226.307 216.187 225.341 214.996 225.341Z" fill="#8BB1F9"/>
</g>
<g style="mix-blend-mode:multiply">
<path d="M226.883 238.452H190.489C189.298 238.452 188.332 239.418 188.332 240.61V241.995C188.332 243.186 189.298 244.152 190.489 244.152H226.883C228.074 244.152 229.04 243.186 229.04 241.995V240.61C229.04 239.418 228.074 238.452 226.883 238.452Z" fill="#8BB1F9"/>
</g>
<g style="mix-blend-mode:multiply">
<path d="M226.883 251.561H190.489C189.298 251.561 188.332 252.526 188.332 253.718V255.103C188.332 256.295 189.298 257.261 190.489 257.261H226.883C228.074 257.261 229.04 256.295 229.04 255.103V253.718C229.04 252.526 228.074 251.561 226.883 251.561Z" fill="#8BB1F9"/>
</g>
<g style="mix-blend-mode:multiply">
<path d="M289.4 178.116H257.647C255.264 178.116 253.332 180.048 253.332 182.431V214.187C253.332 216.57 255.264 218.502 257.647 218.502H289.4C291.782 218.502 293.714 216.57 293.714 214.187V182.431C293.714 180.048 291.782 178.116 289.4 178.116Z" fill="#B2CDFF"/>
</g>
<path style="mix-blend-mode:screen" opacity="0.4" d="M286.63 175.022H254.877C252.494 175.022 250.562 176.954 250.562 179.337V211.093C250.562 213.476 252.494 215.408 254.877 215.408H286.63C289.013 215.408 290.945 213.476 290.945 211.093V179.337C290.945 176.954 289.013 175.022 286.63 175.022Z" fill="url(#paint5_linear_2019_15150)" stroke="#F8FAFC" stroke-width="0.78" stroke-miterlimit="10"/>
<g style="mix-blend-mode:multiply">
<path d="M278.043 225.341H253.536C252.345 225.341 251.379 226.307 251.379 227.498V228.883C251.379 230.075 252.345 231.041 253.536 231.041H278.043C279.234 231.041 280.2 230.075 280.2 228.883V227.498C280.2 226.307 279.234 225.341 278.043 225.341Z" fill="#8BB1F9"/>
</g>
<g style="mix-blend-mode:multiply">
<path d="M289.929 238.452H253.536C252.345 238.452 251.379 239.418 251.379 240.61V241.995C251.379 243.186 252.345 244.152 253.536 244.152H289.929C291.121 244.152 292.087 243.186 292.087 241.995V240.61C292.087 239.418 291.121 238.452 289.929 238.452Z" fill="#8BB1F9"/>
</g>
<g style="mix-blend-mode:multiply">
<path d="M289.929 251.561H253.536C252.345 251.561 251.379 252.526 251.379 253.718V255.103C251.379 256.295 252.345 257.261 253.536 257.261H289.929C291.121 257.261 292.087 256.295 292.087 255.103V253.718C292.087 252.526 291.121 251.561 289.929 251.561Z" fill="#8BB1F9"/>
</g>
<path style="mix-blend-mode:screen" opacity="0.4" d="M334.979 308.483C365.209 308.483 389.715 283.974 389.715 253.741C389.715 223.509 365.209 199 334.979 199C304.749 199 280.242 223.509 280.242 253.741C280.242 283.974 304.749 308.483 334.979 308.483Z" fill="url(#paint6_linear_2019_15150)" stroke="#F8FAFC" stroke-width="0.78" stroke-miterlimit="10"/>
<g style="mix-blend-mode:screen">
<path style="mix-blend-mode:screen" opacity="0.4" d="M334.979 301.659C308.559 301.659 287.066 280.164 287.066 253.741C287.066 227.319 308.559 205.824 334.979 205.824C361.4 205.824 382.893 227.319 382.893 253.741C382.893 280.164 361.4 301.659 334.979 301.659Z" fill="url(#paint7_linear_2019_15150)" stroke="#F8FAFC" stroke-width="0.78" stroke-miterlimit="10"/>
</g>
<g style="mix-blend-mode:multiply">
<path d="M308.735 244.1C312.646 233.61 322.748 226.137 334.6 226.137C340.097 226.137 345.214 227.751 349.518 230.521L354.644 222.493C348.86 218.775 341.985 216.609 334.6 216.609C318.686 216.609 305.115 226.626 299.836 240.7L308.735 244.1Z" fill="#8BB1F9"/>
</g>
<g style="mix-blend-mode:multiply">
<path d="M335.34 281.324C335.094 281.331 334.848 281.344 334.6 281.344C321.249 281.344 310.113 271.864 307.554 259.267L298.23 261.232C301.695 278.147 316.662 290.869 334.6 290.869C334.984 290.869 335.364 290.852 335.745 290.841L335.34 281.324Z" fill="#8BB1F9"/>
</g>
<g style="mix-blend-mode:multiply">
<path d="M364.417 231.619L356.759 237.285C360.176 241.88 362.199 247.574 362.199 253.742C362.199 263.219 357.421 271.58 350.145 276.55L355.641 284.328C365.355 277.631 371.726 266.432 371.726 253.742C371.726 245.453 369.008 237.798 364.417 231.619Z" fill="#8BB1F9"/>
</g>
<g style="mix-blend-mode:screen">
<path d="M345.058 224.395C344.726 224.395 344.387 224.346 344.053 224.242C341.125 223.338 338.073 222.881 334.979 222.881C333.096 222.881 331.566 221.353 331.566 219.468C331.566 217.582 333.094 216.055 334.979 216.055C338.752 216.055 342.482 216.613 346.063 217.718C347.865 218.273 348.874 220.184 348.318 221.983C347.867 223.448 346.516 224.391 345.058 224.391V224.395Z" fill="#38475C"/>
</g>
<g style="mix-blend-mode:screen">
<path d="M369.245 257.152C367.361 257.152 365.832 255.625 365.832 253.739C365.832 242.978 360.08 232.835 350.819 227.269C349.204 226.298 348.681 224.201 349.652 222.587C350.293 221.522 351.421 220.933 352.58 220.933C353.177 220.933 353.783 221.09 354.334 221.42C365.633 228.212 372.655 240.598 372.655 253.739C372.655 255.622 371.128 257.152 369.242 257.152H369.245Z" fill="#38475C"/>
</g>
<path d="M323.282 253.063H317.746V263.322H323.282V253.063Z" fill="#FA6A85"/>
<path d="M336.391 245.573H330.855V263.323H336.391V245.573Z" fill="#FA6A85"/>
<path d="M349.497 239.222H343.961V263.323H349.497V239.222Z" fill="#FA6A85"/>
<path style="mix-blend-mode:screen" opacity="0.4" d="M31.6647 307H466.335C468.357 307 470 307.756 470 308.686V313H28V308.686C28 307.756 29.6426 307 31.6647 307Z" fill="#C3D0E2" stroke="#F8FAFC" stroke-width="0.78" stroke-miterlimit="10"/>
<path d="M178.065 233.659L168.781 247.138L174.012 250.741L183.295 237.262L178.065 233.659Z" fill="#73A0F9"/>
<path d="M172.464 225.646L169.277 230.272L189.895 244.475L193.081 239.849L172.464 225.646Z" fill="#5587EB"/>
<path d="M74.5623 233.649L69.332 237.252L78.6154 250.73L83.8457 247.127L74.5623 233.649Z" fill="#73A0F9"/>
<path d="M80.1642 225.639L59.5469 239.842L62.7335 244.468L83.3508 230.266L80.1642 225.639Z" fill="#5587EB"/>
<path style="mix-blend-mode:screen" opacity="0.4" d="M126.578 229.124C87.458 229.124 55.7461 260.839 55.7461 299.962C55.7461 302.271 55.8604 304.551 56.0762 306.801H197.082C197.298 304.551 197.412 302.268 197.412 299.962C197.412 260.839 165.7 229.124 126.58 229.124H126.578Z" fill="#C3D0E2" stroke="#F8FAFC" stroke-width="0.78" stroke-miterlimit="10"/>
<path style="mix-blend-mode:screen" opacity="0.4" d="M126.576 234.988C90.6942 234.988 61.6055 264.08 61.6055 299.965C61.6055 302.275 61.7284 304.556 61.9636 306.804H191.189C191.424 304.556 191.547 302.275 191.547 299.965C191.547 264.08 162.458 234.988 126.576 234.988Z" fill="#C3D0E2" stroke="#F8FAFC" stroke-width="0.78" stroke-miterlimit="10"/>
<path style="mix-blend-mode:screen" opacity="0.4" d="M171.522 299.964C171.522 275.14 151.401 255.018 126.579 255.018C101.758 255.018 81.6367 275.14 81.6367 299.964C81.6367 302.29 81.8136 304.574 82.1545 306.803H171.004C171.345 304.572 171.522 302.29 171.522 299.964Z" fill="url(#paint8_linear_2019_15150)" stroke="#F8FAFC" stroke-width="0.78" stroke-miterlimit="10"/>
<path d="M136.836 299.965C136.836 294.299 132.243 289.706 126.578 289.706C120.913 289.706 116.32 294.299 116.32 299.965C116.32 302.597 117.319 304.987 118.948 306.804H134.211C135.839 304.987 136.838 302.595 136.838 299.965H136.836Z" fill="#5587EB"/>
<path d="M151.934 273.099L125.522 299.513C125.089 299.946 125.089 300.648 125.522 301.081L126.027 301.586C126.46 302.019 127.162 302.019 127.595 301.586L154.007 275.172C154.44 274.739 154.44 274.037 154.007 273.604L153.502 273.099C153.069 272.666 152.367 272.666 151.934 273.099Z" fill="#3165CC"/>
<path d="M126.966 236.576H126.194C125.53 236.576 124.992 237.114 124.992 237.778V246.977C124.992 247.641 125.53 248.179 126.194 248.179H126.966C127.63 248.179 128.168 247.641 128.168 246.977V237.778C128.168 237.114 127.63 236.576 126.966 236.576Z" fill="#3165CC"/>
<path d="M169.698 255.189L163.193 261.694C162.724 262.164 162.724 262.924 163.193 263.394L163.74 263.94C164.209 264.409 164.97 264.409 165.439 263.94L171.943 257.435C172.412 256.966 172.413 256.205 171.943 255.735L171.397 255.189C170.928 254.72 170.167 254.72 169.698 255.189Z" fill="#3165CC"/>
<path d="M189.002 299.107H179.803C179.14 299.107 178.602 299.645 178.602 300.309V301.082C178.602 301.745 179.14 302.283 179.803 302.283H189.002C189.665 302.283 190.203 301.745 190.203 301.082V300.309C190.203 299.645 189.665 299.107 189.002 299.107Z" fill="#3165CC"/>
<path d="M81.6184 254.833L81.0723 255.379C80.6031 255.848 80.6031 256.609 81.0723 257.078L87.5767 263.583C88.046 264.053 88.8068 264.053 89.2761 263.583L89.8222 263.037C90.2914 262.568 90.2914 261.807 89.8222 261.338L83.3177 254.833C82.8485 254.363 82.0877 254.363 81.6184 254.833Z" fill="#3165CC"/>
<path d="M72.8612 298.62H63.6625C62.9989 298.62 62.4609 299.158 62.4609 299.822V300.594C62.4609 301.258 62.9989 301.796 63.6625 301.796H72.8612C73.5248 301.796 74.0628 301.258 74.0628 300.594V299.822C74.0628 299.158 73.5248 298.62 72.8612 298.62Z" fill="#3165CC"/>
<path style="mix-blend-mode:screen" opacity="0.4" d="M385.997 55.3486C393.381 64.947 404.122 68.6464 415.456 71.3687C418.115 72.0075 421.027 72.2964 423.603 73.1676C424.023 73.6512 424.453 74.1249 424.824 74.6484C425.063 82.4715 424.877 90.3415 424.864 98.1702C424.855 103.565 425.231 109.222 424.686 114.586C423.585 125.438 417.397 135.703 410.02 143.551C409.015 144.619 407.985 145.662 406.93 146.681C403.031 150.071 396.186 155.647 391.642 157.757C390.097 158.456 387.911 159.64 386.215 159.718C386.248 156.606 385.772 153.2 386.216 150.143C380.75 147.455 375.234 143.833 370.93 139.466C371.116 139.203 371.09 139.295 371.158 139.044C371.293 138.543 371.399 138.288 371.716 137.872C372.258 137.808 372.862 138.268 373.327 138.534C377.182 141.959 381.171 144.865 385.701 147.348C385.888 147.503 385.898 147.568 386.12 147.589C386.746 147.647 387.634 147.067 388.183 146.777C392.742 144.37 396.933 140.882 400.609 137.285C406.895 131.136 412.539 122.498 413.687 113.648C414.226 109.5 413.96 105.099 413.959 100.911C413.955 94.6793 413.984 88.4472 414.047 82.2155C404.345 79.8698 393.782 77.6534 385.859 71.2017C385.652 70.2236 385.754 69.0273 385.745 68.0192L385.817 67.8468C386.555 64.6303 384.967 58.1517 385.997 55.3486Z" fill="url(#paint9_linear_2019_15150)" stroke="#F8FAFC" stroke-width="0.78" stroke-miterlimit="10"/>
<path d="M385.817 67.8467C385.898 67.8854 385.98 67.9227 386.06 67.9625C388.074 68.9593 389.657 71.0183 391.68 72.1301C399.19 76.2587 408.143 78.4922 416.565 79.8558L416.555 100.447C416.56 103.99 416.743 107.638 416.467 111.169C415.595 122.325 410.407 130.874 402.649 138.635C398.891 142.395 391.196 148.559 386.216 150.143C380.75 147.455 375.234 143.833 370.93 139.466C371.116 139.203 371.09 139.295 371.158 139.044C371.293 138.543 371.399 138.288 371.716 137.872C372.258 137.808 372.862 138.268 373.327 138.534C377.182 141.959 381.171 144.864 385.701 147.348C385.888 147.503 385.898 147.568 386.12 147.589C386.746 147.647 387.634 147.067 388.183 146.777C392.742 144.37 396.933 140.882 400.609 137.285C406.895 131.136 412.539 122.498 413.687 113.648C414.226 109.5 413.96 105.099 413.959 100.911C413.955 94.6792 413.984 88.4471 414.047 82.2154C404.345 79.8697 393.782 77.6532 385.859 71.2016C385.652 70.2234 385.754 69.0272 385.745 68.0191L385.817 67.8467Z" fill="url(#paint10_linear_2019_15150)"/>
<path style="mix-blend-mode:screen" opacity="0.4" d="M369.523 67.9851C373.756 66.3874 377.928 63.8269 381.158 60.6513C382.114 59.7119 383.037 58.6943 383.82 57.6047C384.139 57.1616 385.14 55.259 385.494 55.0756C385.591 55.0256 385.706 55.0252 385.812 55L385.996 55.3488C384.966 58.1518 386.554 64.6305 385.816 67.847L385.744 68.0194C385.753 69.0275 385.651 70.2238 385.858 71.2019C393.781 77.6536 404.344 79.87 414.046 82.2157C413.983 88.4474 413.954 94.6795 413.959 100.912C413.959 105.099 414.225 109.5 413.686 113.648C412.538 122.499 406.894 131.136 400.609 137.285C396.932 140.882 392.742 144.37 388.182 146.778C387.633 147.068 386.745 147.648 386.119 147.589C385.897 147.568 385.887 147.503 385.7 147.349C381.17 144.865 377.181 141.959 373.326 138.534C372.861 138.268 372.257 137.808 371.716 137.873C371.398 138.289 371.292 138.543 371.158 139.044C371.09 139.296 371.115 139.204 370.929 139.466C375.233 143.834 380.749 147.455 386.215 150.144C385.771 153.2 386.247 156.606 386.214 159.718C384.237 159.23 382.57 158.188 380.656 157.615C379.556 156.607 377.887 155.828 376.617 154.992C374.9 153.862 373.262 152.614 371.562 151.458C368.94 148.998 366.137 146.787 363.579 144.239L363.116 143.519C360.827 142.386 354.597 133.642 353.175 131.112C352.03 129.073 351.155 126.912 350.266 124.754C349.071 121.36 348.941 117.876 349.053 114.318C349.449 110.291 349.114 106.167 349.087 102.127C349.036 95.4674 349.053 88.8087 349.136 82.1503C349.145 80.3032 348.676 76.3693 349.428 74.7435C349.676 74.2073 350.182 73.6255 350.709 73.3559C352.517 72.4321 357.187 71.6965 359.377 71.1208C362.816 70.2172 366.159 69.1324 369.523 67.9851Z" fill="url(#paint11_linear_2019_15150)" stroke="#F8FAFC" stroke-width="0.78" stroke-miterlimit="10"/>
<path d="M402.549 114.634C403.144 114.766 403.373 114.82 403.715 115.369C403.921 115.699 403.972 115.825 403.982 116.201C403.748 116.63 403.45 116.808 402.996 116.955C400.74 117.684 392.248 117.071 389.198 117.199C383.979 116.805 377.688 117.097 372.324 117.083C371.014 117.079 369.67 117.223 368.366 117.145C367.929 117.118 367.548 117.039 367.197 116.765C366.983 116.597 366.916 116.39 366.9 116.119C366.882 115.83 367.04 115.418 367.223 115.21C367.639 114.739 368.239 114.601 368.846 114.57C371.188 114.453 373.994 114.682 376.405 114.684C385.099 114.687 393.862 114.918 402.549 114.634Z" fill="#FEFEFE"/>
<path d="M385.739 96.0567L396.91 96.0136C398.718 96.0074 400.644 95.8566 402.434 96.0516C402.981 96.1115 403.358 96.1893 403.811 96.506C404.057 96.9038 404.18 97.1028 404.106 97.6025C404.017 98.1997 403.668 98.5255 403.191 98.8386C400.247 98.5891 397.149 98.7714 394.19 98.7699L376.902 98.7648C374.27 98.7662 371.217 99.1187 368.645 98.6665C367.867 98.5299 367.124 98.2914 366.668 97.6109C366.678 97.3147 366.68 97.2194 366.904 97.0057C367.489 96.4479 368.391 96.212 369.171 96.1192C370.931 95.911 372.858 96.0903 374.639 96.0947C378.339 96.1177 382.039 96.1049 385.739 96.0567Z" fill="#FEFEFE"/>
<path d="M356.625 80.0885C356.737 79.8924 356.872 79.8219 357.053 79.6922C362.946 79.0848 373.179 76.0593 378.394 73.2256C381.065 71.7741 383.421 69.9624 385.744 68.0195C385.753 69.0277 385.651 70.2239 385.858 71.2021L385.757 71.2178C383.804 71.9541 381.209 74.6582 378.99 75.8022C373.043 78.8678 365.697 80.513 359.213 82.081C359.108 88.3252 359.068 94.5697 359.094 100.815C359.093 104.713 358.929 108.729 359.309 112.612C360.206 121.749 364.742 129.574 370.999 136.118C371.765 136.919 372.61 137.693 373.327 138.534C372.862 138.269 372.257 137.808 371.716 137.873C371.398 138.289 371.292 138.543 371.158 139.044C371.09 139.296 371.116 139.204 370.929 139.466L370.665 139.239C367.632 136.586 365.102 133.288 362.989 129.876C356.77 119.835 356.647 113.374 356.673 102.105C356.69 94.8185 357.041 87.3587 356.625 80.0885Z" fill="#2E5EDB"/>
<path style="mix-blend-mode:screen" opacity="0.4" d="M369.523 67.9851C373.756 66.3874 377.928 63.8269 381.158 60.6513C382.114 59.7119 383.037 58.6943 383.82 57.6047C384.139 57.1616 385.14 55.259 385.494 55.0756C385.591 55.0256 385.706 55.0252 385.812 55L385.996 55.3488C384.966 58.1518 386.554 64.6305 385.816 67.847L385.744 68.0194C383.421 69.9622 381.065 71.7739 378.394 73.2255C373.179 76.0592 362.946 79.0847 357.053 79.6921C356.871 79.8218 356.737 79.8923 356.625 80.0884C357.041 87.3586 356.69 94.8183 356.673 102.105C356.646 113.374 356.769 119.835 362.989 129.876C365.102 133.288 367.632 136.586 370.665 139.239L370.929 139.466C375.233 143.834 380.749 147.455 386.215 150.144C385.771 153.2 386.247 156.606 386.214 159.718C384.237 159.23 382.57 158.188 380.656 157.615C379.556 156.607 377.887 155.828 376.617 154.992C374.9 153.862 373.262 152.614 371.562 151.458C368.94 148.998 366.137 146.787 363.579 144.239L363.116 143.519C360.827 142.386 354.597 133.642 353.175 131.112C352.03 129.073 351.155 126.912 350.266 124.754C349.071 121.36 348.941 117.876 349.053 114.318C349.449 110.291 349.114 106.167 349.087 102.127C349.036 95.4674 349.053 88.8087 349.136 82.1503C349.145 80.3032 348.676 76.3693 349.428 74.7435C349.676 74.2073 350.182 73.6255 350.709 73.3559C352.517 72.4321 357.187 71.6965 359.377 71.1208C362.816 70.2172 366.159 69.1324 369.523 67.9851Z" fill="url(#paint12_linear_2019_15150)" stroke="#F8FAFC" stroke-width="0.78" stroke-miterlimit="10"/>
<path style="mix-blend-mode:screen" opacity="0.4" d="M354.741 80.8838C355.222 80.4601 355.696 79.9298 356.35 79.8271L356.625 80.0887C357.041 87.3589 356.69 94.8186 356.673 102.106C356.647 113.374 356.77 119.835 362.989 129.876C365.103 133.288 367.632 136.586 370.665 139.239L370.929 139.466C375.233 143.834 380.749 147.455 386.216 150.144C385.772 153.201 386.248 156.606 386.214 159.718C384.238 159.23 382.57 158.189 380.656 157.616C379.556 156.607 377.887 155.828 376.618 154.992C374.901 153.862 373.262 152.614 371.562 151.458C368.941 148.999 366.137 146.787 363.579 144.239L363.117 143.519L363.36 143.342C364.117 143.185 366.897 143.362 367.665 143.568C367.781 143.6 367.897 143.636 368.013 143.67L368.201 143.545C367.381 142.317 366.182 141.337 365.192 140.242C364.364 139.315 363.584 138.349 362.852 137.346C362.119 136.342 361.439 135.305 360.809 134.233C358.117 129.654 355.89 123.997 354.977 118.767C354.163 114.1 354.5 109.463 354.516 104.759L354.741 80.8838Z" fill="url(#paint13_linear_2019_15150)" stroke="#F8FAFC" stroke-width="0.78" stroke-miterlimit="10"/>
<path style="mix-blend-mode:screen" opacity="0.4" d="M385.859 71.2021C393.782 77.6538 404.345 79.8702 414.046 82.2159C413.983 88.4476 413.954 94.6798 413.959 100.912C413.959 105.1 414.225 109.5 413.687 113.649C412.539 122.499 406.894 131.136 400.609 137.285C396.933 140.883 392.742 144.37 388.183 146.778C387.633 147.068 386.746 147.648 386.12 147.589C385.898 147.568 385.888 147.503 385.7 147.349C386.025 144.219 385.769 140.815 385.777 137.651L385.795 117.237C387.091 117.254 388.372 117.246 389.666 117.176C392.715 117.047 401.208 117.66 403.464 116.931C403.918 116.784 404.216 116.607 404.45 116.177C404.44 115.802 404.389 115.676 404.183 115.346C403.841 114.797 403.612 114.742 403.016 114.611C400.979 114.389 398.833 114.499 396.785 114.494C393.086 114.473 389.388 114.486 385.69 114.534L385.588 107.494C382.198 107.495 369.668 108.019 367.325 106.964C367.033 106.611 367.014 106.521 367.004 106.04C366.998 105.724 367.084 105.351 367.341 105.143C367.578 104.951 367.816 104.869 368.116 104.83C369.96 104.589 372.135 104.807 374.013 104.814L385.696 104.792C385.745 102.84 385.697 100.892 385.655 98.9405L396.899 98.969C398.969 98.9716 401.137 99.1038 403.189 98.8386C403.666 98.5256 404.015 98.1998 404.104 97.6026C404.179 97.1029 404.056 96.9038 403.809 96.5061C403.357 96.1894 402.98 96.1116 402.432 96.0517C400.642 95.8566 398.716 96.0075 396.908 96.0137L385.737 96.0568C385.77 87.7814 385.898 79.4918 385.757 71.2179L385.859 71.2021Z" fill="url(#paint14_linear_2019_15150)" stroke="#F8FAFC" stroke-width="0.78" stroke-miterlimit="10"/>
<path d="M385.696 104.792L397.39 104.796C399.289 104.798 401.397 104.624 403.273 104.857C403.589 104.896 403.894 105.06 404.121 105.281C404.343 105.496 404.398 105.729 404.477 106.014C404.311 106.566 404.14 106.887 403.601 107.151C402.013 107.93 388.171 107.495 385.588 107.494C382.198 107.495 369.668 108.019 367.325 106.964C367.033 106.612 367.014 106.521 367.004 106.04C366.998 105.724 367.084 105.351 367.341 105.143C367.578 104.951 367.816 104.869 368.116 104.83C369.96 104.589 372.135 104.807 374.013 104.814L385.696 104.792Z" fill="#FEFEFE"/>
</g>
<defs>
<linearGradient id="paint0_linear_2019_15150" x1="244.266" y1="302.938" x2="244.266" y2="67.8672" gradientUnits="userSpaceOnUse">
<stop stop-color="#67D4D0" stop-opacity="0.2"/>
<stop offset="1" stop-color="#9FFEED" stop-opacity="0.6"/>
</linearGradient>
<linearGradient id="paint1_linear_2019_15150" x1="244.245" y1="286.352" x2="244.245" y2="84.6289" gradientUnits="userSpaceOnUse">
<stop stop-color="#67D4D0" stop-opacity="0.2"/>
<stop offset="1" stop-color="#9FFEED" stop-opacity="0.6"/>
</linearGradient>
<linearGradient id="paint2_linear_2019_15150" x1="176.119" y1="143.685" x2="176.119" y2="113.14" gradientUnits="userSpaceOnUse">
<stop stop-color="#67D4D0" stop-opacity="0.2"/>
<stop offset="1" stop-color="#9FFEED" stop-opacity="0.6"/>
</linearGradient>
<linearGradient id="paint3_linear_2019_15150" x1="243.814" y1="143.685" x2="243.814" y2="113.14" gradientUnits="userSpaceOnUse">
<stop stop-color="#67D4D0" stop-opacity="0.2"/>
<stop offset="1" stop-color="#9FFEED" stop-opacity="0.6"/>
</linearGradient>
<linearGradient id="paint4_linear_2019_15150" x1="207.711" y1="215.408" x2="207.711" y2="175.022" gradientUnits="userSpaceOnUse">
<stop stop-color="#67D4D0" stop-opacity="0.2"/>
<stop offset="1" stop-color="#9FFEED" stop-opacity="0.6"/>
</linearGradient>
<linearGradient id="paint5_linear_2019_15150" x1="270.754" y1="215.408" x2="270.754" y2="175.022" gradientUnits="userSpaceOnUse">
<stop stop-color="#67D4D0" stop-opacity="0.2"/>
<stop offset="1" stop-color="#9FFEED" stop-opacity="0.6"/>
</linearGradient>
<linearGradient id="paint6_linear_2019_15150" x1="334.979" y1="308.483" x2="334.979" y2="199" gradientUnits="userSpaceOnUse">
<stop stop-color="#67D4D0" stop-opacity="0.2"/>
<stop offset="1" stop-color="#9FFEED" stop-opacity="0.6"/>
</linearGradient>
<linearGradient id="paint7_linear_2019_15150" x1="334.979" y1="301.659" x2="334.979" y2="205.824" gradientUnits="userSpaceOnUse">
<stop stop-color="#67D4D0" stop-opacity="0.2"/>
<stop offset="1" stop-color="#9FFEED" stop-opacity="0.6"/>
</linearGradient>
<linearGradient id="paint8_linear_2019_15150" x1="126.579" y1="306.803" x2="126.579" y2="255.018" gradientUnits="userSpaceOnUse">
<stop stop-color="#67D4D0" stop-opacity="0.2"/>
<stop offset="1" stop-color="#9FFEED" stop-opacity="0.6"/>
</linearGradient>
<linearGradient id="paint9_linear_2019_15150" x1="397.956" y1="159.718" x2="397.956" y2="55.3486" gradientUnits="userSpaceOnUse">
<stop stop-color="#67D4D0" stop-opacity="0.2"/>
<stop offset="1" stop-color="#9FFEED" stop-opacity="0.6"/>
</linearGradient>
<linearGradient id="paint10_linear_2019_15150" x1="413.045" y1="125.626" x2="369.17" y2="89.6899" gradientUnits="userSpaceOnUse">
<stop stop-color="#02267D"/>
<stop offset="1" stop-color="#0E3EA7"/>
</linearGradient>
<linearGradient id="paint11_linear_2019_15150" x1="381.523" y1="159.718" x2="381.523" y2="55" gradientUnits="userSpaceOnUse">
<stop stop-color="#67D4D0" stop-opacity="0.2"/>
<stop offset="1" stop-color="#9FFEED" stop-opacity="0.6"/>
</linearGradient>
<linearGradient id="paint12_linear_2019_15150" x1="367.608" y1="159.718" x2="367.608" y2="55" gradientUnits="userSpaceOnUse">
<stop stop-color="#67D4D0" stop-opacity="0.2"/>
<stop offset="1" stop-color="#9FFEED" stop-opacity="0.6"/>
</linearGradient>
<linearGradient id="paint13_linear_2019_15150" x1="370.325" y1="159.718" x2="370.325" y2="79.8271" gradientUnits="userSpaceOnUse">
<stop stop-color="#67D4D0" stop-opacity="0.2"/>
<stop offset="1" stop-color="#9FFEED" stop-opacity="0.6"/>
</linearGradient>
<linearGradient id="paint14_linear_2019_15150" x1="390.525" y1="147.593" x2="390.525" y2="71.2021" gradientUnits="userSpaceOnUse">
<stop stop-color="#67D4D0" stop-opacity="0.2"/>
<stop offset="1" stop-color="#9FFEED" stop-opacity="0.6"/>
</linearGradient>
<clipPath id="clip0_2019_15150">
<rect width="466" height="320" fill="white"/>
</clipPath>
</defs>
</svg>
