<svg width="32" height="32" viewBox="0 0 32 32" fill="none" xmlns="http://www.w3.org/2000/svg">
<g clip-path="url(#clip0_2086_9467)">
<path d="M14.5 12.0002C14.69 12.0002 14.87 12.0552 15.02 12.1452L14.575 12.8752L14.415 12.7702C14.185 12.6202 13.88 12.6852 13.725 12.9102L13.28 13.5802C13.125 13.8102 13.19 14.1252 13.425 14.2752L14.295 14.8402L13.575 16.0452L13.5 16.0002H3H2C1.45 16.0002 1 15.5502 1 15.0002V13.0002C1 12.4502 1.45 12.0002 2 12.0002H3.525C4.625 13.2302 6.22 14.0002 8 14.0002C9.785 14.0002 11.385 13.2252 12.485 11.9902L12.5 12.0002H14.5Z" fill="#FCD770"/>
<path d="M3 16H13.5L13.575 16.045L13.23 16.615C13.1 16.835 13.155 17.115 13.36 17.27L13.75 17.56L14.94 25H9C8.725 25 8.5 25.225 8.5 25.5V26.5C8.5 26.775 8.725 27 9 27H12L11.5 29H9C8.725 29 8.5 29.225 8.5 29.5V30.5C8.5 30.775 8.725 31 9 31H3.315C2.675 31 2.095 30.74 1.68 30.32C1.26 29.905 1 29.325 1 28.685C1 28.56 1.01 28.44 1.03 28.32L1.72 24L2.2 21L2.68 18L3 16Z" fill="#FFEAA7"/>
<path d="M3.525 12C2.575 10.94 2 9.54 2 8C2 4.685 4.685 2 8 2C11.315 2 14 4.685 14 8C14 9.535 13.425 10.93 12.485 11.99C11.385 13.225 9.785 14 8 14C6.22 14 4.625 13.23 3.525 12Z" fill="#FF826E"/>
<path d="M17.9003 17.1699L19.9853 18.5199L18.7853 20.5249C18.6353 20.7799 18.2953 20.8449 18.0553 20.6649L16.8603 19.7699C16.6553 19.6149 16.6003 19.3349 16.7303 19.1149L17.9003 17.1699Z" fill="#AAB2BD"/>
<path d="M13.7503 17.5598L13.3603 17.2698C13.1553 17.1148 13.1003 16.8348 13.2303 16.6148L13.5753 16.0448L14.2953 14.8398L16.3853 16.1898L15.2853 18.0248C15.1353 18.2798 14.7953 18.3448 14.5553 18.1648L13.7503 17.5598Z" fill="#AAB2BD"/>
<path d="M14.5745 12.8754L21.7895 17.5404L22.0745 17.7254C22.3095 17.8754 22.3745 18.1904 22.2195 18.4204L21.7745 19.0904C21.6195 19.3154 21.3145 19.3804 21.0845 19.2304L19.9845 18.5204L17.8995 17.1704L16.3845 16.1904L14.2945 14.8404L13.4245 14.2754C13.1895 14.1254 13.1245 13.8104 13.2795 13.5804L13.7245 12.9104C13.8795 12.6854 14.1845 12.6204 14.4145 12.7704L14.5745 12.8754Z" fill="#CCD1D9"/>
<path d="M27.0592 8.23399C27.2992 8.37899 27.3742 8.69399 27.2242 8.93399L26.3492 10.319C25.9442 10.114 25.4842 9.99899 24.9992 9.99899C23.3442 9.99899 21.9992 11.344 21.9992 12.999C21.9992 13.959 22.4542 14.819 23.1592 15.369L21.7892 17.539L14.5742 12.874L15.0192 12.144L19.7392 4.42399C19.8842 4.18899 20.1892 4.11399 20.4242 4.25399L21.8092 5.08399L25.5742 7.34399L27.0592 8.23399Z" fill="#AAB2BD"/>
<path d="M27.7646 6.14511C27.6146 6.34511 27.3346 6.40511 27.1146 6.27511L26.3396 5.82511V5.82011L22.8046 3.76011L21.9846 3.28511C21.7246 3.13011 21.6546 2.79011 21.8346 2.55011L22.7346 1.35511C22.8846 1.15511 23.1646 1.09511 23.3846 1.22511L28.5146 4.21511C28.7746 4.37011 28.8446 4.71011 28.6646 4.95011L27.7646 6.14511Z" fill="#969FAA"/>
<path d="M26.3425 5.81977V5.82477L25.5775 7.34477L21.8125 5.08477L22.8075 3.75977L26.3425 5.81977Z" fill="#CCD1D9"/>
<path d="M17 27L17.5 29H11.5L12 27H17Z" fill="#AAB2BD"/>
<path d="M20.5 29.5V30.5C20.5 30.775 20.275 31 20 31H9.5H9C8.725 31 8.5 30.775 8.5 30.5V29.5C8.5 29.225 8.725 29 9 29H11.5H17.5H20C20.275 29 20.5 29.225 20.5 29.5Z" fill="#969FAA"/>
<path d="M20.5 26V26.5C20.5 26.775 20.275 27 20 27H17H12H9C8.725 27 8.5 26.775 8.5 26.5V25.5C8.5 25.225 8.725 25 9 25H14.94H20C20.275 25 20.5 25.225 20.5 25.5V26Z" fill="#969FAA"/>
<path d="M27.87 12.125C28.85 12.925 29.635 13.93 30.17 15.055C30.71 16.18 31 17.43 31 18.715C31 24.395 26.395 29 20.715 29H20H17.5L17 27H20C20.275 27 20.5 26.775 20.5 26.5V26H20.735C24.75 26 28 22.75 28 18.735V18.62C28 17.435 27.585 16.285 26.84 15.375L26.835 15.37C27.545 14.825 28 13.965 28 13C28 12.695 27.955 12.405 27.87 12.125Z" fill="#CCD1D9"/>
<path d="M28 13C28 13.965 27.545 14.825 26.835 15.37C26.33 15.765 25.69 16 25 16C24.305 16 23.665 15.765 23.16 15.37C22.455 14.82 22 13.96 22 13C22 11.345 23.345 10 25 10C25.485 10 25.945 10.115 26.35 10.32C27.075 10.685 27.63 11.34 27.87 12.125C27.955 12.405 28 12.695 28 13Z" fill="#FCD770"/>
<path d="M25 14C25.5523 14 26 13.5523 26 13C26 12.4477 25.5523 12 25 12C24.4477 12 24 12.4477 24 13C24 13.5523 24.4477 14 25 14Z" fill="#CCD1D9"/>
<path d="M11.8714 5.83502L11.1284 5.16602L7.02238 9.72802L5.39038 7.68802L4.60938 8.31302L6.97738 11.273L11.8714 5.83502Z" fill="black"/>
<path d="M6.5 17.5H7.5V18.5H6.5V17.5Z" fill="black"/>
<path d="M25 11.5C24.173 11.5 23.5 12.173 23.5 13C23.5 13.827 24.173 14.5 25 14.5C25.827 14.5 26.5 13.827 26.5 13C26.5 12.173 25.827 11.5 25 11.5ZM25 13.5C24.724 13.5 24.5 13.2755 24.5 13C24.5 12.7245 24.724 12.5 25 12.5C25.276 12.5 25.5 12.7245 25.5 13C25.5 13.2755 25.276 13.5 25 13.5Z" fill="black"/>
<path d="M31.5 18.7172C31.5 16.0492 30.331 13.5532 28.297 11.8367C28.057 11.1587 27.615 10.5767 27.0415 10.1632L27.6505 9.19916C27.795 8.96966 27.84 8.69816 27.777 8.43366C27.714 8.17016 27.5515 7.94766 27.319 7.80816L26.2315 7.15566L26.5475 6.52316L26.863 6.70716C27.0205 6.79916 27.194 6.84316 27.366 6.84316C27.6715 6.84316 27.9715 6.70316 28.167 6.44316L29.063 5.24866C29.234 5.02066 29.3 4.72966 29.2435 4.45066C29.187 4.17116 29.0135 3.92816 28.767 3.78466L23.6365 0.792661C23.1975 0.536661 22.6375 0.650161 22.333 1.05616L21.437 2.25066C21.266 2.47866 21.2 2.76966 21.2565 3.04866C21.313 3.32816 21.4865 3.57116 21.733 3.71466L22.0675 3.91016L21.681 4.42566L20.6825 3.82666C20.213 3.54516 19.6 3.69616 19.3145 4.16266L14.8085 11.5357C14.7075 11.5147 14.6045 11.5002 14.5 11.5002H13.4685C14.118 10.4887 14.5 9.28916 14.5 8.00016C14.5 4.41616 11.584 1.50016 8 1.50016C4.416 1.50016 1.5 4.41616 1.5 8.00016C1.5 9.28916 1.882 10.4887 2.5315 11.5002H2C1.173 11.5002 0.5 12.1732 0.5 13.0002V15.0002C0.5 15.8272 1.173 16.5002 2 16.5002H2.4135L0.5355 28.2387C0.512 28.3857 0.5 28.5352 0.5 28.6842C0.5 30.2372 1.763 31.5002 3.316 31.5002H9H9.5H20C20.5515 31.5002 21 31.0517 21 30.5002V29.5002C21 29.4952 20.9985 29.4907 20.9985 29.4857C26.8135 29.3347 31.5 24.5677 31.5 18.7172ZM27.5 13.0002C27.5 14.3787 26.3785 15.5002 25 15.5002C23.6215 15.5002 22.5 14.3787 22.5 13.0002C22.5 11.6217 23.6215 10.5002 25 10.5002C26.3785 10.5002 27.5 11.6217 27.5 13.0002ZM20.9985 25.4867C20.9915 24.9417 20.5465 24.5002 20 24.5002H15.366L14.4315 18.6592C14.566 18.7232 14.708 18.7677 14.8565 18.7677C14.9205 18.7677 14.9845 18.7617 15.0485 18.7492C15.326 18.6947 15.5685 18.5247 15.7135 18.2822L16.548 16.8917L17.221 17.3272L16.3035 18.8567C16.039 19.2977 16.1495 19.8632 16.5615 20.1712L17.757 21.0682C17.9315 21.1987 18.1425 21.2682 18.3575 21.2682C18.4215 21.2682 18.4855 21.2622 18.5495 21.2497C18.827 21.1952 19.0695 21.0252 19.2145 20.7827L20.1505 19.2227L20.815 19.6527C20.9815 19.7602 21.169 19.8117 21.355 19.8117C21.6795 19.8117 21.9985 19.6552 22.19 19.3672L22.6355 18.6997C22.7855 18.4752 22.8375 18.2057 22.7825 17.9417C22.7385 17.7297 22.628 17.5442 22.4695 17.4032L23.3145 16.0657C23.814 16.3417 24.389 16.5002 25 16.5002C25.623 16.5002 26.2075 16.3347 26.715 16.0477C27.223 16.8057 27.5 17.7037 27.5 18.6212V18.7357C27.5 22.3772 24.6065 25.3472 20.9985 25.4867ZM16.61 27.5002L16.86 28.5002H12.14L12.39 27.5002H16.61ZM9 26.5002V25.5002H20L20.0005 26.5002H9ZM14.142 13.1877L21.8025 18.1447L21.357 18.8127L13.697 13.8557L14.142 13.1877ZM19.31 18.6787L18.3565 20.2677L17.1605 19.3707L18.061 17.8702L19.31 18.6787ZM14.459 15.5397L15.708 16.3477L14.8565 17.7677L13.6605 16.8707L14.459 15.5397ZM23.133 1.65666L28.2635 4.64916L27.3675 5.84416L22.237 2.85116L23.133 1.65666ZM22.937 4.41716L25.682 6.01816L25.3715 6.63916L22.5435 4.94216L22.937 4.41716ZM20.168 4.68416L26.804 8.66566L26.1515 9.69866C25.7905 9.57216 25.404 9.50016 25 9.50016C23.0705 9.50016 21.5 11.0702 21.5 13.0002C21.5 13.9582 21.8875 14.8267 22.513 15.4592L21.637 16.8462L15.258 12.7182L20.168 4.68416ZM8 2.50016C11.0325 2.50016 13.5 4.96766 13.5 8.00016C13.5 11.0327 11.0325 13.5002 8 13.5002C4.9675 13.5002 2.5 11.0327 2.5 8.00016C2.5 4.96766 4.9675 2.50016 8 2.50016ZM1.5 15.0002V13.0002C1.5 12.7247 1.724 12.5002 2 12.5002H3.3205C4.504 13.7302 6.1625 14.5002 8 14.5002C9.8375 14.5002 11.496 13.7302 12.6795 12.5002H13.42C13.381 12.5412 13.343 12.5847 13.3105 12.6332L12.865 13.3007C12.715 13.5252 12.663 13.7947 12.718 14.0587C12.7725 14.3227 12.9275 14.5487 13.154 14.6947L13.619 14.9957L13.3165 15.5002H2C1.724 15.5002 1.5 15.2757 1.5 15.0002ZM3.316 30.5002C2.3145 30.5002 1.5 29.6857 1.5 28.6842C1.5 28.5882 1.508 28.4927 1.523 28.3972L2.1465 24.5002H6V23.5002H2.3065L2.6265 21.5002H7.5V20.5002H2.7865L3.1065 18.5002H5.5V17.5002H3.2665L3.4265 16.5002H12.7345C12.568 16.9142 12.693 17.3952 13.0615 17.6707L13.289 17.8412L14.3535 24.5002H9C8.4485 24.5002 8 24.9487 8 25.5002V26.5002C8 27.0517 8.4485 27.5002 9 27.5002H11.36L11.11 28.5002H9C8.4485 28.5002 8 28.9487 8 29.5002V30.5002H3.316ZM9.5 30.5002H9V29.5002H20L20.0005 30.5002H9.5ZM20.717 28.5002H20H17.89L17.64 27.5002H20C20.5515 27.5002 21 27.0517 21 26.5002V26.4867C25.1585 26.3457 28.5 22.9282 28.5 18.7362V18.6217C28.5 17.4832 28.1505 16.3687 27.509 15.4352C28.0315 14.8967 28.3825 14.1922 28.4745 13.4082C29.7675 14.8627 30.5 16.7342 30.5 18.7172C30.5 24.1117 26.1115 28.5002 20.717 28.5002Z" fill="black"/>
</g>
<defs>
<clipPath id="clip0_2086_9467">
<rect width="32" height="32" fill="white"/>
</clipPath>
</defs>
</svg>
