<svg width="54" height="54" viewBox="0 0 54 54" fill="none" xmlns="http://www.w3.org/2000/svg">
<g clip-path="url(#clip0_2074_2963)">
<path d="M13.8984 6.4502H47.5238V40.2628H13.8984V6.4502Z" fill="#FFF4CA"/>
<path d="M47.5238 6.51562V40.2632H13.8984V40.0765L47.5238 6.51562Z" fill="#FFE1BA"/>
<path d="M42.5719 23.165L39.4017 23.1753L39.3794 16.9349L23.2358 33.1083L22.0552 31.9345L20.9902 30.8757L37.1643 14.6706L30.8981 14.6809L30.8927 11.5173L42.5306 11.4971V11.4983L42.5719 23.165Z" fill="#7985EB"/>
<path d="M42.534 11.498L42.5753 23.1647L39.405 23.175L39.3827 16.9346L23.2392 33.108L22.0586 31.9343L42.534 11.498Z" fill="#4B5BE6"/>
<path d="M7.36523 14.8857H10.5351V19.3134H7.36523V14.8857Z" fill="#FF7A53"/>
<path d="M7.36523 7.36328H10.5351V11.7901H7.36523V7.36328Z" fill="#FF7A53"/>
<path d="M7.36523 -0.105469H10.5351V4.32175H7.36523V-0.105469Z" fill="#FF7A53"/>
<path d="M7.36523 22.3398H10.5351V26.7675H7.36523V22.3398Z" fill="#FF7A53"/>
<path d="M50.9902 14.8857H54.1601V19.3134H50.9902V14.8857Z" fill="#FF4F19"/>
<path d="M50.9902 7.36328H54.1601V11.7901H50.9902V7.36328Z" fill="#FF4F19"/>
<path d="M50.9902 -0.105469H54.1601V4.32216H50.9902V-0.105469Z" fill="#FF7A53"/>
<path d="M50.9902 22.3398H54.1601V26.7675H50.9902V22.3398Z" fill="#FF4F19"/>
<path d="M50.9902 29.7939H54.1601V34.2212H50.9902V29.7939Z" fill="#FF4F19"/>
<path d="M50.9902 37.2471H54.1601V41.6743H50.9902V37.2471Z" fill="#FF4F19"/>
<path d="M28.5039 -0.105469H32.9398V3.05859H28.5039V-0.105469Z" fill="#FF7A53"/>
<path d="M20.9648 -0.105469H25.4007V3.05859H20.9648V-0.105469Z" fill="#FF7A53"/>
<path d="M13.4824 -0.105469H17.9183V3.05859H13.4824V-0.105469Z" fill="#FF7A53"/>
<path d="M35.9707 -0.105469H40.4066V3.05859H35.9707V-0.105469Z" fill="#FF7A53"/>
<path d="M43.4395 -0.105469H47.8757V3.05859H43.4395V-0.105469Z" fill="#FF7A53"/>
<path d="M27.4707 43.7432H31.9066V46.9072H27.4707V43.7432Z" fill="#FF4F19"/>
<path d="M34.9434 43.7432H39.3792V46.9072H34.9434V43.7432Z" fill="#FF4F19"/>
<path d="M42.4102 43.7432H46.8465V46.9072H42.4102V43.7432Z" fill="#FF4F19"/>
<path d="M49.9727 43.7432H54.1596V46.9072H49.9727V43.7432Z" fill="#FF4F19"/>
<path d="M0.0546875 29.5127H24.4842V53.8945H0.0546875V29.5127Z" fill="#00E8F2"/>
<path d="M24.4842 29.5127V53.8945H0.0546875L24.4842 29.5127Z" fill="#00CEF5"/>
<path d="M54.1601 -0.105469V4.32216H50.9902V3.05859L54.1601 -0.105469Z" fill="#FF4F19"/>
</g>
<defs>
<clipPath id="clip0_2074_2963">
<rect width="54" height="54" fill="white"/>
</clipPath>
</defs>
</svg>
