<svg width="54" height="54" viewBox="0 0 54 54" fill="none" xmlns="http://www.w3.org/2000/svg">
<g clip-path="url(#clip0_2074_9857)">
<path d="M40.9623 27.9312C40.4484 27.9312 40.0312 27.5141 40.0312 27.0002C40.0312 24.9463 41.7015 23.276 43.7554 23.276H49.3416C49.8546 23.276 50.2726 22.858 50.2726 22.345V17.6898C50.2726 17.1759 50.6897 16.7588 51.2037 16.7588C51.7176 16.7588 52.1347 17.1759 52.1347 17.6898V22.345C52.1347 23.8849 50.8815 25.1381 49.3416 25.1381H43.7554C42.7285 25.1381 41.8933 25.9732 41.8933 27.0002C41.8933 27.5141 41.4762 27.9312 40.9623 27.9312Z" fill="#9EEBF9"/>
<path d="M14.8939 17.6902H10.2387C5.61796 17.6902 1.85938 13.9307 1.85938 9.31092C1.85938 8.79699 2.27648 8.37988 2.79041 8.37988C3.30434 8.37988 3.72144 8.79699 3.72144 9.31092C3.72144 12.9047 6.64489 15.8282 10.2387 15.8282H14.8939C15.4078 15.8282 15.8249 16.2453 15.8249 16.7592C15.8249 17.2731 15.4078 17.6902 14.8939 17.6902Z" fill="#9EEBF9"/>
<path d="M21.4106 49.3448H13.9623C13.4484 49.3448 13.0312 48.9277 13.0312 48.4137C13.0312 47.8998 13.4484 47.4827 13.9623 47.4827H21.4106C23.9774 47.4827 26.0657 45.3944 26.0657 42.8275C26.0657 42.3136 26.4828 41.8965 26.9968 41.8965C27.5107 41.8965 27.9278 42.3136 27.9278 42.8275C27.9278 46.4213 25.0044 49.3448 21.4106 49.3448Z" fill="#9EEBF9"/>
<path d="M14.8937 38.1726H5.58338C5.06945 38.1726 4.65234 37.7555 4.65234 37.2416C4.65234 36.7277 5.06945 36.3105 5.58338 36.3105H14.8937C15.4077 36.3105 15.8248 36.7277 15.8248 37.2416C15.8248 37.7555 15.4077 38.1726 14.8937 38.1726Z" fill="#9EEBF9"/>
<path d="M26.9965 6.51748C26.4826 6.51748 26.0655 6.10037 26.0655 5.58644C26.0655 4.55951 25.2303 3.72437 24.2034 3.72437H19.5482C19.0343 3.72437 18.6172 3.30727 18.6172 2.79334C18.6172 2.27941 19.0343 1.8623 19.5482 1.8623H24.2034C26.2573 1.8623 27.9275 3.53258 27.9275 5.58644C27.9275 6.10037 27.5104 6.51748 26.9965 6.51748Z" fill="#9EEBF9"/>
<path d="M26.9974 12.1035C26.4835 12.1035 26.0664 11.6864 26.0664 11.1725V5.58631C26.0664 5.07238 26.4835 4.65527 26.9974 4.65527C27.5114 4.65527 27.9285 5.07238 27.9285 5.58631V11.1725C27.9285 11.6864 27.5114 12.1035 26.9974 12.1035Z" fill="#9EEBF9"/>
<path d="M34.4467 13.9656C33.9327 13.9656 33.5156 13.5485 33.5156 13.0346C33.5156 10.9807 35.1859 9.31045 37.2398 9.31045H40.0329C40.5459 9.31045 40.9639 8.89241 40.9639 8.37941V5.58631C40.9639 5.07238 41.381 4.65527 41.8949 4.65527C42.4089 4.65527 42.826 5.07238 42.826 5.58631V8.37941C42.826 9.91934 41.5728 11.1725 40.0329 11.1725H37.2398C36.2128 11.1725 35.3777 12.0077 35.3777 13.0346C35.3777 13.5485 34.9606 13.9656 34.4467 13.9656Z" fill="#9EEBF9"/>
<path d="M51.2038 39.1033C50.6899 39.1033 50.2728 38.6862 50.2728 38.1723V35.3792C50.2728 34.8662 49.8547 34.4481 49.3417 34.4481H40.4736C38.538 34.4481 37.2383 32.952 37.2383 30.724C37.2383 30.2101 37.6554 29.793 38.1693 29.793C38.6832 29.793 39.1004 30.2101 39.1004 30.724C39.1004 31.2845 39.2344 32.5861 40.4736 32.5861H49.3417C50.8817 32.5861 52.1348 33.8392 52.1348 35.3792V38.1723C52.1348 38.6862 51.7177 39.1033 51.2038 39.1033Z" fill="#9EEBF9"/>
<path d="M39.1018 46.5524C38.5879 46.5524 38.1708 46.1353 38.1708 45.6214C38.1708 45.1084 37.7528 44.6903 37.2398 44.6903C35.1859 44.6903 33.5156 43.0201 33.5156 40.9662C33.5156 40.4523 33.9327 40.0352 34.4467 40.0352C34.9606 40.0352 35.3777 40.4523 35.3777 40.9662C35.3777 41.9931 36.2128 42.8283 37.2398 42.8283C38.7797 42.8283 40.0329 44.0814 40.0329 45.6214C40.0329 46.1353 39.6158 46.5524 39.1018 46.5524Z" fill="#9EEBF9"/>
<path d="M2.7931 9.31082C4.33569 9.31082 5.58621 8.0603 5.58621 6.51771C5.58621 4.97512 4.33569 3.72461 2.7931 3.72461C1.25051 3.72461 0 4.97512 0 6.51771C0 8.0603 1.25051 9.31082 2.7931 9.31082Z" fill="#5469E0"/>
<path d="M16.7579 5.58621C18.3005 5.58621 19.5511 4.33569 19.5511 2.7931C19.5511 1.25051 18.3005 0 16.7579 0C15.2154 0 13.9648 1.25051 13.9648 2.7931C13.9648 4.33569 15.2154 5.58621 16.7579 5.58621Z" fill="#5469E0"/>
<path d="M51.2072 17.6897C52.7498 17.6897 54.0003 16.4392 54.0003 14.8966C54.0003 13.354 52.7498 12.1035 51.2072 12.1035C49.6646 12.1035 48.4141 13.354 48.4141 14.8966C48.4141 16.4392 49.6646 17.6897 51.2072 17.6897Z" fill="#5469E0"/>
<path d="M51.2072 43.7591C52.7498 43.7591 54.0003 42.5085 54.0003 40.966C54.0003 39.4234 52.7498 38.1729 51.2072 38.1729C49.6646 38.1729 48.4141 39.4234 48.4141 40.966C48.4141 42.5085 49.6646 43.7591 51.2072 43.7591Z" fill="#5469E0"/>
<path d="M11.172 51.2073C12.7146 51.2073 13.9651 49.9568 13.9651 48.4142C13.9651 46.8716 12.7146 45.6211 11.172 45.6211C9.62942 45.6211 8.37891 46.8716 8.37891 48.4142C8.37891 49.9568 9.62942 51.2073 11.172 51.2073Z" fill="#5469E0"/>
<path d="M2.7931 40.0344C4.33569 40.0344 5.58621 38.7839 5.58621 37.2413C5.58621 35.6988 4.33569 34.4482 2.7931 34.4482C1.25051 34.4482 0 35.6988 0 37.2413C0 38.7839 1.25051 40.0344 2.7931 40.0344Z" fill="#5469E0"/>
<path d="M41.8947 5.58621C43.4373 5.58621 44.6878 4.33569 44.6878 2.7931C44.6878 1.25051 43.4373 0 41.8947 0C40.3521 0 39.1016 1.25051 39.1016 2.7931C39.1016 4.33569 40.3521 5.58621 41.8947 5.58621Z" fill="#5469E0"/>
<path d="M26.9995 42.828C35.7408 42.828 42.827 35.7418 42.827 27.0004C42.827 18.2591 35.7408 11.1729 26.9995 11.1729C18.2581 11.1729 11.1719 18.2591 11.1719 27.0004C11.1719 35.7418 18.2581 42.828 26.9995 42.828Z" fill="#5469E0"/>
<path d="M39.1029 49.3446C38.589 49.3446 38.1719 48.9275 38.1719 48.4136V45.6205C38.1719 45.1066 38.589 44.6895 39.1029 44.6895C39.6168 44.6895 40.0339 45.1066 40.0339 45.6205V48.4136C40.0339 48.9275 39.6168 49.3446 39.1029 49.3446Z" fill="#9EEBF9"/>
<path d="M19.5508 25.1377H34.4473V36.3101H19.5508V25.1377Z" fill="#9EEBF9"/>
<path d="M24.207 28.8623H29.7932V32.5864H24.207V28.8623Z" fill="white"/>
<path d="M27.0003 15.8271C23.9148 15.8271 21.4141 18.3279 21.4141 21.4134V25.1375H25.1382V21.4134C25.1382 20.3846 25.9724 19.5513 27.0003 19.5513C28.0281 19.5513 28.8623 20.3846 28.8623 21.4134V25.1375H32.5865V21.4134C32.5865 18.3279 30.0857 15.8271 27.0003 15.8271Z" fill="white"/>
<path d="M39.1056 54.0003C40.6482 54.0003 41.8987 52.7498 41.8987 51.2072C41.8987 49.6646 40.6482 48.4141 39.1056 48.4141C37.563 48.4141 36.3125 49.6646 36.3125 51.2072C36.3125 52.7498 37.563 54.0003 39.1056 54.0003Z" fill="#5469E0"/>
</g>
<defs>
<clipPath id="clip0_2074_9857">
<rect width="54" height="54" fill="white"/>
</clipPath>
</defs>
</svg>
