<svg width="46" height="30" viewBox="0 0 46 30" fill="none" xmlns="http://www.w3.org/2000/svg">
<path d="M4.42969 1.90723H6.26105V3.06738H4.42969V1.90723Z" fill="#1A638A"/>
<path d="M10.8945 1.90723H22.2134V3.06738H10.8945V1.90723Z" fill="#1A638A"/>
<path d="M7.65625 1.90723H9.4874V3.06738H7.65625V1.90723Z" fill="#1A638A"/>
<path d="M2.3125 6.32324H4.14365V7.4834H2.3125V6.32324Z" fill="#177CA0"/>
<path d="M5.55469 6.32324H16.8736V7.4834H5.55469V6.32324Z" fill="#177CA0"/>
<path d="M7.03906 13.9688H8.87021V15.1289H7.03906V13.9688Z" fill="#1A638A"/>
<path d="M13.5039 13.9688H24.823V15.1289H13.5039V13.9688Z" fill="#1A638A"/>
<path d="M10.2656 13.9688H12.0968V15.1289H10.2656V13.9688Z" fill="#1A638A"/>
<path d="M0.222656 17.8047H2.0538V18.9648H0.222656V17.8047Z" fill="#177CA0"/>
<path d="M6.6875 17.8047H18.0066V18.9648H6.6875V17.8047Z" fill="#177CA0"/>
<path d="M3.44922 17.8047H5.28037V18.9648H3.44922V17.8047Z" fill="#177CA0"/>
<path d="M1.11719 28.167H2.94834V29.3271H1.11719V28.167Z" fill="#1A638A"/>
<path d="M7.58203 28.167H18.9009V29.3271H7.58203V28.167Z" fill="#1A638A"/>
<path d="M4.34375 28.167H6.17511V29.3271H4.34375V28.167Z" fill="#1A638A"/>
<path d="M45.5225 16.1327L38.4387 9.99512V13.4414H31.0625V18.824H38.4387V22.2702L45.5225 16.1327Z" fill="#F79C20"/>
<path d="M28.0333 23.1903L20.9494 17.0527V20.499H12.6719V25.8816H20.9494V29.3279L28.0333 23.1903Z" fill="#FFD04C"/>
<path d="M36.9641 8.70519L26.9291 0.0107422V4.89274H14.9336V6.323H16.8736V8.64332H14.9336V12.5177H26.9291V17.3996L36.9641 8.70519Z" fill="#D93332"/>
</svg>
