<svg width="32" height="32" viewBox="0 0 32 32" fill="none" xmlns="http://www.w3.org/2000/svg">
<path d="M19.6906 28.7336H6.63813C5.02875 28.7336 3.71875 27.4242 3.71875 25.8148V5.94609C3.71875 4.33672 5.02813 3.02734 6.63813 3.02734H10.3706V3.65234H6.63813C5.37313 3.65234 4.34375 4.68172 4.34375 5.94609V25.8148C4.34375 27.0798 5.37313 28.1086 6.63813 28.1086H19.6906V28.7336ZM24.1094 21.5611H23.4844V5.94609C23.4844 4.68109 22.455 3.65234 21.19 3.65234H17.4575V3.02734H21.19C22.7994 3.02734 24.1094 4.33672 24.1094 5.94609V21.5611Z" fill="#1A3B70"/>
<path d="M18.6081 27.3448H6.63938C5.79563 27.3448 5.10938 26.6585 5.10938 25.8148V5.94602C5.10938 5.10227 5.79563 4.41602 6.63938 4.41602H10.3719V5.04102H6.63938C6.14063 5.04102 5.73438 5.44664 5.73438 5.94602V25.8148C5.73438 26.3135 6.14 26.7198 6.63938 26.7198H18.6081V27.3448ZM22.7213 21.6798H22.0963V5.94602C22.0963 5.44727 21.6906 5.04102 21.1919 5.04102H17.4594V4.41602H21.1919C22.0356 4.41602 22.7213 5.10227 22.7213 5.94602V21.6798Z" fill="#1A3B70"/>
<path d="M16.6127 5.70937H11.2158C10.5645 5.70937 10.0352 5.17937 10.0352 4.52875V3.53875C10.0352 2.8875 10.5652 2.35812 11.2158 2.35812H11.9558C12.1058 1.4125 12.927 0.6875 13.9145 0.6875C14.9014 0.6875 15.7227 1.4125 15.8727 2.35812H16.6127C17.2639 2.35812 17.7933 2.88812 17.7933 3.53875V4.52812C17.7933 5.17937 17.2639 5.70937 16.6127 5.70937ZM11.2158 2.98312C10.9095 2.98312 10.6602 3.2325 10.6602 3.53875V4.52812C10.6602 4.83437 10.9095 5.08375 11.2158 5.08375H16.6127C16.9189 5.08375 17.1683 4.83437 17.1683 4.52812V3.53875C17.1683 3.2325 16.9189 2.98312 16.6127 2.98312H15.5845C15.412 2.98312 15.272 2.84312 15.272 2.67062C15.272 1.92188 14.6627 1.3125 13.9139 1.3125C13.1652 1.3125 12.5558 1.92188 12.5558 2.67062C12.5558 2.84312 12.4158 2.98312 12.2433 2.98312H11.2158Z" fill="#1A3B70"/>
<path fill-rule="evenodd" clip-rule="evenodd" d="M13.9163 2.07227C14.1719 2.07227 14.3794 2.27977 14.3794 2.53539C14.3794 2.79102 14.1719 2.99852 13.9163 2.99852C13.6606 2.99852 13.4531 2.79102 13.4531 2.53539C13.4525 2.27977 13.66 2.07227 13.9163 2.07227Z" fill="#1A3B70"/>
<path d="M9.43781 12.2191H7.83656C7.34531 12.2191 6.94531 11.8191 6.94531 11.3278V9.72719C6.94531 9.23594 7.34531 8.83594 7.83656 8.83594H9.43781C9.47844 8.83594 9.52031 8.83906 9.56094 8.84469C9.73219 8.86844 9.85156 9.02594 9.82781 9.19719C9.80406 9.36781 9.64594 9.48719 9.47531 9.46406C9.46281 9.46219 9.45031 9.46156 9.43781 9.46156H7.83656C7.68969 9.46156 7.57031 9.58094 7.57031 9.72781V11.3284C7.57031 11.4753 7.68969 11.5947 7.83656 11.5947H9.43781C9.58094 11.5947 9.70094 11.4778 9.70406 11.3347C9.70844 11.1622 9.85156 11.0247 10.0241 11.0297C10.1966 11.0334 10.3334 11.1772 10.3291 11.3497C10.3178 11.8284 9.91781 12.2191 9.43781 12.2191Z" fill="#1A3B70"/>
<path d="M17.8175 11.6475H12.7812C12.6088 11.6475 12.4688 11.5075 12.4688 11.335C12.4688 11.1625 12.6088 11.0225 12.7812 11.0225H17.8175C17.99 11.0225 18.13 11.1625 18.13 11.335C18.13 11.5075 17.99 11.6475 17.8175 11.6475ZM20.5688 10.0312H12.7812C12.6088 10.0312 12.4688 9.89125 12.4688 9.71875C12.4688 9.54625 12.6088 9.40625 12.7812 9.40625H20.5688C20.7413 9.40625 20.8813 9.54625 20.8813 9.71875C20.8813 9.89125 20.7413 10.0312 20.5688 10.0312Z" fill="#1A3B70"/>
<path d="M8.77548 11.2907C8.75861 11.2907 8.7411 11.2894 8.72423 11.2863C8.6411 11.2725 8.56673 11.2257 8.51861 11.1557L7.83298 10.165C7.73486 10.0232 7.76986 9.82817 7.91173 9.73005C8.05361 9.63192 8.24798 9.66692 8.34673 9.8088L8.84923 10.5344L10.628 9.2213C10.7667 9.1188 10.9624 9.14817 11.0649 9.28692C11.1674 9.42567 11.138 9.6213 10.9992 9.7238L8.96111 11.2288C8.90736 11.2694 8.84173 11.2907 8.77548 11.2907Z" fill="#F88125"/>
<path d="M17.8175 17.335H12.7812C12.6088 17.335 12.4688 17.195 12.4688 17.0225C12.4688 16.85 12.6088 16.71 12.7812 16.71H17.8175C17.99 16.71 18.13 16.85 18.13 17.0225C18.13 17.195 17.99 17.335 17.8175 17.335ZM20.5688 15.7188H12.7812C12.6088 15.7188 12.4688 15.5788 12.4688 15.4062C12.4688 15.2338 12.6088 15.0938 12.7812 15.0938H20.5688C20.7413 15.0938 20.8813 15.2338 20.8813 15.4062C20.8813 15.5788 20.7413 15.7188 20.5688 15.7188Z" fill="#1A3B70"/>
<path d="M8.77548 16.9782C8.75861 16.9782 8.7411 16.9769 8.72423 16.9738C8.6411 16.96 8.56673 16.9132 8.51861 16.8432L7.83298 15.8525C7.73486 15.7107 7.76986 15.5157 7.91173 15.4175C8.05361 15.3194 8.24798 15.355 8.34673 15.4963L8.84923 16.2219L10.628 14.9088C10.7667 14.8063 10.9624 14.8357 11.0649 14.9744C11.1674 15.1132 11.138 15.3088 10.9992 15.4113L8.96111 16.9163C8.90736 16.9569 8.84173 16.9782 8.77548 16.9782Z" fill="#F88125"/>
<path d="M8.77548 22.6657C8.75861 22.6657 8.7411 22.6644 8.72423 22.6613C8.6411 22.6475 8.56673 22.6007 8.51861 22.5307L7.83298 21.54C7.73486 21.3982 7.76986 21.2032 7.91173 21.105C8.05361 21.0069 8.24798 21.0425 8.34673 21.1838L8.84923 21.9094L10.628 20.5963C10.7667 20.4938 10.9624 20.5232 11.0649 20.6619C11.1674 20.8007 11.138 20.9963 10.9992 21.0988L8.96111 22.6038C8.90736 22.6444 8.84173 22.6657 8.77548 22.6657Z" fill="#F88125"/>
<path d="M9.43781 17.9066H7.83656C7.34531 17.9066 6.94531 17.5066 6.94531 17.0153V15.4147C6.94531 14.9234 7.34531 14.5234 7.83656 14.5234H9.43781C9.47906 14.5234 9.52031 14.5266 9.56094 14.5322C9.73219 14.5559 9.85156 14.7134 9.82781 14.8847C9.80406 15.0553 9.64594 15.1747 9.47531 15.1516C9.46281 15.1497 9.45031 15.1491 9.43781 15.1491H7.83656C7.68969 15.1491 7.57031 15.2684 7.57031 15.4153V17.0159C7.57031 17.1628 7.68969 17.2822 7.83656 17.2822H9.43781C9.58094 17.2822 9.70094 17.1653 9.70406 17.0222C9.70844 16.8497 9.85156 16.7134 10.0241 16.7172C10.1966 16.7209 10.3334 16.8647 10.3291 17.0372C10.3178 17.5159 9.91781 17.9066 9.43781 17.9066Z" fill="#1A3B70"/>
<path d="M9.43781 23.5941H7.83656C7.34531 23.5941 6.94531 23.1941 6.94531 22.7028V21.1022C6.94531 20.6109 7.34531 20.2109 7.83656 20.2109H9.43781C9.47906 20.2109 9.52031 20.2141 9.56094 20.2197C9.73219 20.2434 9.85156 20.4009 9.82781 20.5722C9.80406 20.7428 9.64594 20.8628 9.47531 20.8391C9.46281 20.8372 9.45031 20.8366 9.43781 20.8366H7.83656C7.68969 20.8366 7.57031 20.9559 7.57031 21.1028V22.7034C7.57031 22.8503 7.68969 22.9697 7.83656 22.9697H9.43781C9.58094 22.9697 9.70094 22.8528 9.70406 22.7097C9.70844 22.5372 9.85156 22.4009 10.0241 22.4047C10.1966 22.4084 10.3334 22.5522 10.3291 22.7247C10.3178 23.2041 9.91781 23.5941 9.43781 23.5941Z" fill="#1A3B70"/>
<path d="M17.8175 23.0219H12.7812C12.6088 23.0219 12.4688 22.8819 12.4688 22.7094C12.4688 22.5369 12.6088 22.3969 12.7812 22.3969H17.8175C17.99 22.3969 18.13 22.5369 18.13 22.7094C18.13 22.8819 17.99 23.0219 17.8175 23.0219ZM20.5688 21.4062H12.7812C12.6088 21.4062 12.4688 21.2663 12.4688 21.0938C12.4688 20.9213 12.6088 20.7812 12.7812 20.7812H20.5688C20.7413 20.7812 20.8813 20.9213 20.8813 21.0938C20.8813 21.2663 20.7413 21.4062 20.5688 21.4062Z" fill="#1A3B70"/>
<path d="M23.2277 31.3122C23.0521 31.3122 22.8765 31.3028 22.7021 31.2847C22.3046 31.2434 22.0008 30.9365 21.964 30.5384L21.9002 29.8534C21.8927 29.7709 21.8327 29.7378 21.8071 29.7272C21.7821 29.7165 21.7158 29.6984 21.6527 29.7522L21.1271 30.1953C20.8215 30.4534 20.3896 30.459 20.0777 30.2097C19.7933 29.9828 19.5327 29.724 19.3033 29.4415C19.0515 29.1309 19.0533 28.6997 19.309 28.3915L19.7483 27.8622C19.8015 27.7984 19.7827 27.7328 19.7721 27.7072C19.7615 27.6822 19.7277 27.6222 19.6452 27.6153L18.9596 27.5572C18.5608 27.5234 18.2515 27.2222 18.2071 26.8247C18.1671 26.4628 18.1652 26.0965 18.2027 25.7347C18.244 25.3372 18.5508 25.0334 18.949 24.9965L19.634 24.9328C19.7165 24.9253 19.7496 24.8653 19.7602 24.8403C19.7708 24.8147 19.789 24.749 19.7352 24.6859L19.2921 24.1603C19.0346 23.8547 19.0283 23.4234 19.2777 23.1109C19.5046 22.8265 19.7633 22.5659 20.0458 22.3365C20.3565 22.0847 20.7883 22.0865 21.0958 22.3422L21.6252 22.7815C21.689 22.8347 21.7546 22.8159 21.7802 22.8053C21.8052 22.7947 21.8652 22.7609 21.8721 22.6784L21.9302 21.9928C21.964 21.594 22.2652 21.2847 22.6627 21.2403C23.0246 21.2003 23.3915 21.1984 23.7527 21.2359C24.1502 21.2772 24.454 21.584 24.4908 21.9822L24.5546 22.6672C24.5621 22.7497 24.6221 22.7828 24.6477 22.7934C24.6727 22.804 24.739 22.8222 24.8021 22.7684L25.3277 22.3253C25.6333 22.0672 26.0646 22.0615 26.3771 22.3109C26.6615 22.5378 26.9221 22.7965 27.1515 23.079C27.4033 23.3897 27.4015 23.8209 27.1458 24.129L26.7065 24.6584C26.6533 24.7222 26.6721 24.7878 26.6827 24.8134C26.6933 24.8384 26.7271 24.8984 26.8096 24.9053L27.4952 24.9634C27.894 24.9972 28.2033 25.2984 28.2477 25.6959C28.2877 26.0572 28.2896 26.424 28.2521 26.7859C28.2108 27.1834 27.904 27.4872 27.5058 27.524L26.8208 27.5878C26.7377 27.5953 26.7052 27.6553 26.6946 27.6809C26.684 27.7065 26.6658 27.7722 26.7196 27.8353L27.1627 28.3609C27.4202 28.6665 27.4265 29.0978 27.1771 29.4103C26.9502 29.6947 26.6915 29.9553 26.409 30.1847C26.0983 30.4365 25.6671 30.434 25.359 30.179L24.8296 29.7397C24.7658 29.6865 24.7002 29.7053 24.6746 29.7159C24.649 29.7265 24.5896 29.7603 24.5827 29.8428L24.5246 30.5284C24.4908 30.9272 24.1896 31.2365 23.7915 31.2809C23.6046 31.3015 23.4158 31.3122 23.2277 31.3122ZM21.7496 29.0909C21.8483 29.0909 21.9483 29.1103 22.044 29.149C22.3121 29.259 22.4952 29.5065 22.5221 29.7959L22.5858 30.4809C22.5952 30.5797 22.6677 30.6534 22.7665 30.6634C23.0833 30.6965 23.4052 30.6953 23.7227 30.6597C23.8215 30.6484 23.8933 30.5747 23.9021 30.4759L23.9602 29.7903C23.9846 29.5009 24.1658 29.2515 24.4333 29.1397C24.7002 29.0278 25.0052 29.0734 25.229 29.259L25.7583 29.6984C25.8346 29.7615 25.9377 29.7622 26.0152 29.6997C26.2627 29.4984 26.4896 29.2703 26.689 29.0203C26.7508 28.9428 26.7496 28.8397 26.6852 28.7634L26.2421 28.2378C26.0546 28.0159 26.0071 27.7115 26.1165 27.4434C26.2258 27.1753 26.474 26.9922 26.7633 26.9653L27.4483 26.9015C27.5471 26.8922 27.6208 26.8197 27.6308 26.7209C27.664 26.4034 27.6627 26.0815 27.6271 25.7647C27.6158 25.6659 27.5421 25.594 27.4433 25.5853L26.7577 25.5272C26.4683 25.5028 26.219 25.3215 26.1071 25.054C25.9952 24.7865 26.0408 24.4822 26.2265 24.2584L26.6658 23.729C26.7296 23.6528 26.7296 23.5497 26.6671 23.4722C26.4658 23.2247 26.2377 22.9978 25.9877 22.7984C25.9102 22.7365 25.8071 22.7378 25.7308 22.8022L25.2052 23.2453C24.9833 23.4328 24.679 23.4809 24.4108 23.3709C24.1427 23.2609 23.9596 23.0134 23.9327 22.724L23.869 22.039C23.8596 21.9403 23.7871 21.8665 23.6883 21.8565C23.3715 21.8234 23.0496 21.8247 22.7321 21.8603C22.6333 21.8715 22.5615 21.9453 22.5527 22.044L22.4946 22.7297C22.4702 23.019 22.289 23.2684 22.0215 23.3803C21.7546 23.4922 21.4496 23.4465 21.2258 23.2609L20.6965 22.8215C20.6202 22.7578 20.5171 22.7578 20.4396 22.8203C20.1921 23.0215 19.9652 23.2497 19.7658 23.4997C19.704 23.5772 19.7052 23.6803 19.7696 23.7565L20.2127 24.2822C20.4002 24.504 20.4477 24.8084 20.3383 25.0765C20.2283 25.3447 19.9808 25.5278 19.6915 25.5547L19.0065 25.6184C18.9077 25.6278 18.834 25.7003 18.824 25.799C18.7908 26.1159 18.7921 26.4378 18.8277 26.7553C18.839 26.854 18.9127 26.9259 19.0115 26.9347L19.6971 26.9928C19.9865 27.0172 20.2358 27.1984 20.3477 27.4659C20.4596 27.7334 20.414 28.0378 20.2283 28.2615L19.789 28.7909C19.7252 28.8672 19.7252 28.9703 19.7877 29.0478C19.989 29.2959 20.2171 29.5222 20.4671 29.7215C20.5446 29.7834 20.6477 29.7822 20.724 29.7184L21.2496 29.2753C21.3921 29.154 21.5696 29.0909 21.7496 29.0909Z" fill="#F88125"/>
<path d="M23.2266 28.293C22.1066 28.293 21.1953 27.3817 21.1953 26.2617C21.1953 25.1417 22.1066 24.2305 23.2266 24.2305C24.3466 24.2305 25.2578 25.1417 25.2578 26.2617C25.2578 27.3817 24.3466 28.293 23.2266 28.293ZM23.2266 24.8555C22.4509 24.8555 21.8203 25.4861 21.8203 26.2617C21.8203 27.0373 22.4509 27.668 23.2266 27.668C24.0022 27.668 24.6328 27.0373 24.6328 26.2617C24.6328 25.4861 24.0016 24.8555 23.2266 24.8555Z" fill="#F88125"/>
</svg>
