<svg width="250" height="150" viewBox="0 0 250 150" fill="none" xmlns="http://www.w3.org/2000/svg">
<path d="M21.5965 34.9052C23.4603 25.5013 32.5887 19.3901 41.987 21.255C44.4277 21.7394 46.6389 22.7216 48.555 24.0651H69.7703L72.6428 20.1344L68.5981 14.0856L59.9183 16.2088C57.3579 13.7295 54.3505 11.6806 50.9872 10.2005L49.6244 1.41599L42.4897 0L37.8799 7.59807C34.2063 7.68246 30.6456 8.42842 27.333 9.74315L20.1206 4.46568L14.0755 8.51281L16.2244 17.3024C13.8461 19.839 11.8794 22.7976 10.4592 26.092L1.41514 27.4962L0 34.6352L7.96122 39.4705C8.09278 42.9252 8.80794 46.2753 10.0274 49.4044L4.46469 57.0176L8.5094 63.0664L17.7694 60.7998C20.1679 63.0259 22.9408 64.8807 26.0123 66.2612L27.4814 75.7343L29.7483 76.1849V53.1848C23.6155 49.5326 20.1257 42.3092 21.5948 34.9052H21.5965Z" fill="#C8D1E9"/>
<path d="M27.6523 110.352C27.8058 110.509 27.9239 110.781 27.9441 111.083L28.4957 110.32L27.9475 109.51C27.9576 109.743 27.9121 109.984 27.762 110.193C27.7333 110.234 27.6945 110.289 27.6523 110.352Z" fill="#C8D1E9"/>
<path d="M248.009 91.9597L250.001 86.0105L243.543 80.8596C243.823 77.9686 243.622 75.0995 242.981 72.3502L248.635 66.3842L245.839 60.7691L237.766 61.6805C235.946 59.4291 233.745 57.4612 231.218 55.8866L231.004 47.8565L225.058 45.8633L220.14 52.0369C218.482 51.8513 216.831 51.831 215.203 51.9559V63.5201C217.411 63.2163 219.717 63.3885 221.972 64.1446C229.803 66.769 234.025 75.2497 231.402 83.0857C229.081 90.0155 222.184 94.1132 215.203 93.1529V104.702C218.059 104.923 220.889 104.683 223.596 104.008L229.493 109.601L235.104 106.803L234.182 98.6329C236.348 96.8254 238.235 94.655 239.753 92.1791L248.009 91.9597Z" fill="#B8C2E1"/>
<path d="M219.72 59.5275V40.3838H29.75V139.95C29.75 145.283 34.0696 149.606 39.3996 149.606H210.07C215.4 149.606 219.72 145.283 219.72 139.95V59.5275ZM172.094 96.1778H184.972V97.9398H172.094V96.1778ZM172.094 108.365H184.972V110.127H172.094V108.365ZM172.094 123.158H184.972V124.92H172.094V123.158ZM41.2094 53.5108H74.9114V55.6187H41.2094V53.5108ZM41.2094 57.909H74.9114V60.0169H41.2094V57.909ZM41.2094 62.3088H58.0613V64.4168H41.2094V62.3088ZM41.2094 66.8319H74.9114V68.9399H41.2094V66.8319ZM41.2094 71.2318H74.9114V73.3397H41.2094V71.2318ZM41.2094 75.6316H58.0613V77.7396H41.2094V75.6316ZM41.2094 83.7343H74.9114V85.8423H41.2094V83.7343ZM41.2094 88.1342H74.9114V90.2421H41.2094V88.1342ZM41.2094 92.534H58.0613V94.642H41.2094V92.534ZM41.2094 97.0571H74.9114V99.1651H41.2094V97.0571ZM41.2094 101.457H74.9114V103.565H41.2094V101.457ZM41.2094 105.857H58.0613V107.965H41.2094V105.857ZM75.2487 137.981H46.7401C43.6855 137.981 41.2094 135.503 41.2094 132.447C41.2094 129.39 43.6855 126.913 46.7401 126.913C46.9746 126.913 47.1989 126.953 47.4249 126.982C47.3423 126.732 47.2866 126.472 47.2866 126.195C47.2866 124.818 48.4015 123.703 49.7779 123.703C50.0343 123.703 50.2771 123.753 50.5099 123.824C50.6668 119.364 54.3202 115.794 58.8169 115.794C62.9594 115.794 66.3834 118.825 67.0227 122.79C67.7109 122.481 68.4699 122.302 69.2727 122.302C72.3274 122.302 74.8034 124.779 74.8034 127.836C74.8034 128.685 74.5977 129.48 74.2553 130.199C74.5757 130.114 74.9046 130.057 75.2504 130.057C77.4364 130.057 79.2108 131.831 79.2108 134.02C79.2108 136.209 77.4381 137.982 75.2504 137.982L75.2487 137.981ZM89.4558 99.1651H81.6514V97.0571H89.4558V99.1651ZM89.4558 94.642H81.6514V92.534H89.4558V94.642ZM89.4558 90.2421H81.6514V88.1342H89.4558V90.2421ZM89.4558 68.9415H81.6514V66.8336H89.4558V68.9415ZM89.4558 64.4168H81.6514V62.3088H89.4558V64.4168ZM89.4558 60.0186H81.6514V57.9107H89.4558V60.0186ZM99.0295 137.15H90.935V127.988H99.0295V137.15ZM99.0295 124.92H90.935V115.757H99.0295V124.92ZM121.778 136.111H101.921V135.1H121.778V136.111ZM121.778 133.09H101.921V132.079H121.778V133.09ZM121.778 130.069H101.921V129.058H121.778V130.069ZM121.778 123.882H101.921V122.871H121.778V123.882ZM121.778 120.859H101.921V119.848H121.778V120.859ZM121.778 117.84H101.921V116.829H121.778V117.84ZM109.372 107.123V83.3951H114.753V107.123H109.372ZM123.043 107.123H117.662V91.5704H123.043V107.123ZM137.173 137.15H129.08V127.988H137.173V137.15ZM125.951 107.123V74.6224H131.331V107.123H125.951ZM137.173 124.92H129.08V115.757H137.173V124.92ZM139.622 107.123H134.241V83.3951H139.622V107.123ZM159.921 136.111H140.064V135.1H159.921V136.111ZM159.921 133.09H140.064V132.079H159.921V133.09ZM159.921 130.069H140.064V129.058H159.921V130.069ZM159.921 123.882H140.064V122.871H159.921V123.882ZM159.921 120.859H140.064V119.848H159.921V120.859ZM159.921 117.84H140.064V116.829H159.921V117.84ZM142.529 107.123V88.3941H147.91V107.123H142.529ZM150.82 107.123V95.2597H156.2V107.123H150.82ZM159.921 68.4589H154.54V65.3703L143.68 61.362V62.4641H138.299V61.2422L125.379 65.4733V68.4572H119.999V65.426L108.075 61.2962V62.4641H102.695V57.0803H108.075V60.1114L119.999 64.2413V63.0734H125.379V64.2953L138.299 60.0642V57.0803H143.68V60.1688L154.54 64.1771V63.0751H159.921V68.4589ZM184.97 137.106H172.092V135.344H184.97V137.106ZM197.848 133.081H172.092V131.319H197.848V133.081ZM197.848 129.058H172.092V127.296H197.848V129.058ZM197.848 120.894H172.092V119.132H197.848V120.894ZM197.848 116.871H172.092V115.109H197.848V116.871ZM197.848 106.103H172.092V104.341H197.848V106.103ZM197.848 102.078H172.092V100.316H197.848V102.078ZM197.848 93.9163H172.092V92.1543H197.848V93.9163ZM197.848 89.8911H172.092V88.1291H197.848V89.8911ZM201.883 79.2889C201.809 79.3564 201.734 79.4256 201.658 79.4931C201.328 79.7868 200.985 80.0652 200.635 80.3336C200.565 80.3859 200.496 80.4382 200.425 80.4905C200.058 80.7623 199.68 81.0205 199.29 81.2635C199.235 81.299 199.177 81.3327 199.12 81.3665C198.71 81.6162 198.293 81.8508 197.863 82.0685C197.83 82.0854 197.793 82.1023 197.759 82.1192C197.303 82.3453 196.841 82.5529 196.366 82.7403C194.355 83.5284 192.174 83.9773 189.884 83.9773C180.06 83.9773 172.096 76.0097 172.096 66.1788C172.096 56.3478 180.059 48.3802 189.884 48.3802C191.199 48.3802 192.476 48.5337 193.709 48.8038C193.709 48.8038 193.714 48.8038 193.717 48.8038C194.104 48.8882 194.483 48.9877 194.859 49.0974C195.107 49.17 195.35 49.2493 195.593 49.332C195.822 49.4097 196.048 49.4941 196.274 49.5818C196.63 49.7185 196.98 49.867 197.324 50.0257C197.548 50.1286 197.771 50.2333 197.988 50.3463C198.212 50.4611 198.435 50.5792 198.654 50.7041C198.924 50.8577 199.189 51.0214 199.451 51.1885C199.719 51.3607 199.98 51.5396 200.237 51.7235C200.429 51.8619 200.618 52.002 200.803 52.1471C201.002 52.3024 201.203 52.4577 201.395 52.6231C201.68 52.8661 201.959 53.1193 202.229 53.3792C202.406 53.5496 202.576 53.7268 202.746 53.904C202.917 54.0829 203.082 54.2669 203.244 54.4525C203.483 54.7243 203.713 55.0044 203.935 55.2913C204.091 55.4905 204.242 55.6913 204.388 55.8972C204.531 56.0998 204.671 56.3023 204.806 56.5099C204.983 56.7816 205.15 57.0601 205.31 57.3419C205.462 57.6069 205.604 57.8752 205.742 58.1486C205.852 58.363 205.956 58.5807 206.056 58.8001C206.157 59.0212 206.26 59.2406 206.351 59.4667C206.374 59.5258 206.391 59.5899 206.415 59.649C206.579 60.0608 206.725 60.481 206.86 60.9063C206.894 61.0161 206.926 61.1274 206.958 61.2405C207.098 61.7198 207.226 62.2042 207.324 62.7004C207.343 62.7898 207.349 62.881 207.365 62.9704C207.451 63.443 207.53 63.9189 207.579 64.4033C207.638 64.9872 207.668 65.5796 207.668 66.1788C207.668 66.7779 207.638 67.3399 207.58 67.9103C207.533 68.3897 207.459 68.8605 207.371 69.3263C207.356 69.4124 207.349 69.5002 207.332 69.5846C207.28 69.8512 207.213 70.1128 207.149 70.3744C207.093 70.6056 207.036 70.8368 206.972 71.0647C206.892 71.3415 206.808 71.6132 206.717 71.8849C206.649 72.0824 206.577 72.2748 206.503 72.4688C206.293 73.0224 206.056 73.5608 205.796 74.0874C205.791 74.0992 205.784 74.111 205.779 74.1228C205.73 74.2224 205.686 74.3253 205.634 74.4232C205.411 74.8468 205.168 75.257 204.914 75.6603C204.877 75.7177 204.845 75.7785 204.808 75.8358C204.566 76.2088 204.305 76.5683 204.037 76.9227C203.978 77.0004 203.92 77.0814 203.86 77.159C203.591 77.4999 203.31 77.8256 203.02 78.1446C202.947 78.2239 202.878 78.3033 202.805 78.3809C202.509 78.6965 202.198 78.9969 201.879 79.2889H201.883ZM208.964 129.058H202.999V127.296H208.964V129.058ZM208.964 124.92H202.999V123.158H208.964V124.92ZM208.964 120.894H202.999V119.132H208.964V120.894ZM208.964 102.078H202.999V100.316H208.964V102.078ZM208.964 97.9398H202.999V96.1778H208.964V97.9398ZM208.964 93.9163H202.999V92.1543H208.964V93.9163Z" fill="#E6EEF7"/>
<path d="M211.055 24.1172C211.136 24.1256 211.217 24.1391 211.298 24.1493C211.217 24.1391 211.137 24.1256 211.055 24.1172Z" fill="#E6EEF7"/>
<path d="M219.164 30.5049C219.194 30.5926 219.226 30.6804 219.255 30.7682C219.226 30.6787 219.194 30.5926 219.164 30.5049Z" fill="#E6EEF7"/>
<path d="M213.129 24.5664C213.129 24.5664 213.138 24.5683 213.142 24.5701C213.138 24.5701 213.133 24.5683 213.129 24.5664Z" fill="#E6EEF7"/>
<path d="M212.062 24.2793C212.123 24.2928 212.182 24.3063 212.241 24.3198C212.182 24.3063 212.122 24.2928 212.062 24.2793Z" fill="#E6EEF7"/>
<path d="M217.555 27.6396C217.585 27.6768 217.614 27.7139 217.644 27.751C217.615 27.7139 217.585 27.6768 217.555 27.6396Z" fill="#E6EEF7"/>
<path d="M39.3983 24.0632H210.069C210.082 24.0632 210.094 24.0632 210.106 24.0632C210.092 24.0632 210.08 24.0615 210.069 24.0615H39.3983V24.0632Z" fill="#E6EEF7"/>
<path d="M213.128 24.5657C212.838 24.4695 212.543 24.3868 212.243 24.3176C212.184 24.3041 212.123 24.2906 212.064 24.2771C211.813 24.2248 211.557 24.1826 211.298 24.1488C211.217 24.1387 211.138 24.1252 211.056 24.1168C210.743 24.0847 210.428 24.0661 210.109 24.0645C210.098 24.0645 210.084 24.0645 210.072 24.0645H39.4018C35.0299 24.0645 31.3377 26.9724 30.152 30.9621C30.0727 31.2288 30.0052 31.4988 29.9496 31.7739C29.8214 32.4017 29.7539 33.0532 29.7539 33.7198V40.3846H219.722V33.7198C219.722 33.0532 219.654 32.4017 219.526 31.7739C219.455 31.4313 219.363 31.0988 219.256 30.7697C219.228 30.6803 219.196 30.5942 219.165 30.5064C219.072 30.2415 218.968 29.9816 218.852 29.7284C218.825 29.6677 218.799 29.6052 218.77 29.5444C218.619 29.2272 218.45 28.9217 218.266 28.6247C218.251 28.601 218.234 28.5774 218.219 28.5538C218.042 28.2753 217.851 28.0103 217.649 27.7521C217.62 27.715 217.59 27.6778 217.559 27.6407C216.628 26.4948 215.444 25.5631 214.087 24.9404C213.781 24.8003 213.464 24.6805 213.144 24.5725C213.14 24.5725 213.135 24.5708 213.132 24.5691L213.128 24.5657ZM187.462 36.2413C185.126 36.2413 183.233 34.3477 183.233 32.0102C183.233 29.6727 185.126 27.7791 187.462 27.7791C189.798 27.7791 191.691 29.6727 191.691 32.0102C191.691 34.3477 189.798 36.2413 187.462 36.2413ZM198.385 36.2413C196.049 36.2413 194.157 34.3477 194.157 32.0102C194.157 29.6727 196.049 27.7791 198.385 27.7791C200.721 27.7791 202.614 29.6727 202.614 32.0102C202.614 34.3477 200.721 36.2413 198.385 36.2413ZM209.31 36.2413C206.975 36.2413 205.081 34.3477 205.081 32.0102C205.081 29.6727 206.975 27.7791 209.31 27.7791C211.644 27.7791 213.538 29.6727 213.538 32.0102C213.538 34.3477 211.646 36.2413 209.31 36.2413Z" fill="#889EC8"/>
<path d="M187.459 36.2415C189.794 36.2415 191.688 34.3472 191.688 32.0104C191.688 29.6736 189.794 27.7793 187.459 27.7793C185.124 27.7793 183.23 29.6736 183.23 32.0104C183.23 34.3472 185.124 36.2415 187.459 36.2415Z" fill="#E6EEF7"/>
<path d="M199.355 36.1419C201.628 35.6051 203.036 33.3263 202.499 31.052C201.963 28.7778 199.685 27.3692 197.412 27.906C195.139 28.4428 193.732 30.7216 194.268 32.9959C194.805 35.2702 197.082 36.6787 199.355 36.1419Z" fill="#E6EEF7"/>
<path d="M209.311 36.2415C211.646 36.2415 213.539 34.3472 213.539 32.0104C213.539 29.6736 211.646 27.7793 209.311 27.7793C206.975 27.7793 205.082 29.6736 205.082 32.0104C205.082 34.3472 206.975 36.2415 209.311 36.2415Z" fill="#E6EEF7"/>
<path d="M74.9129 53.5107H41.2109V55.6187H74.9129V53.5107Z" fill="#494F83"/>
<path d="M74.9129 57.9082H41.2109V60.0162H74.9129V57.9082Z" fill="#494F83"/>
<path d="M58.0628 62.3086H41.2109V64.4165H58.0628V62.3086Z" fill="#494F83"/>
<path d="M74.9129 66.832H41.2109V68.94H74.9129V66.832Z" fill="#494F83"/>
<path d="M74.9129 71.2314H41.2109V73.3394H74.9129V71.2314Z" fill="#494F83"/>
<path d="M58.0628 75.6309H41.2109V77.7388H58.0628V75.6309Z" fill="#494F83"/>
<path d="M89.4567 57.9082H81.6523V60.0162H89.4567V57.9082Z" fill="#494F83"/>
<path d="M89.4567 66.832H81.6523V68.94H89.4567V66.832Z" fill="#494F83"/>
<path d="M89.4567 62.3086H81.6523V64.4165H89.4567V62.3086Z" fill="#494F83"/>
<path d="M74.9129 83.7344H41.2109V85.8423H74.9129V83.7344Z" fill="#494F83"/>
<path d="M74.9129 88.1338H41.2109V90.2417H74.9129V88.1338Z" fill="#494F83"/>
<path d="M58.0628 92.5332H41.2109V94.6412H58.0628V92.5332Z" fill="#494F83"/>
<path d="M74.9129 97.0566H41.2109V99.1646H74.9129V97.0566Z" fill="#494F83"/>
<path d="M74.9129 101.456H41.2109V103.564H74.9129V101.456Z" fill="#494F83"/>
<path d="M58.0628 105.856H41.2109V107.964H58.0628V105.856Z" fill="#494F83"/>
<path d="M89.4567 88.1338H81.6523V90.2417H89.4567V88.1338Z" fill="#494F83"/>
<path d="M89.4567 97.0566H81.6523V99.1646H89.4567V97.0566Z" fill="#494F83"/>
<path d="M89.4567 92.5332H81.6523V94.6412H89.4567V92.5332Z" fill="#494F83"/>
<path d="M197.85 88.1289H172.094V89.8909H197.85V88.1289Z" fill="#494F83"/>
<path d="M197.85 92.1523H172.094V93.9143H197.85V92.1523Z" fill="#494F83"/>
<path d="M184.972 96.1768H172.094V97.9387H184.972V96.1768Z" fill="#494F83"/>
<path d="M197.85 100.315H172.094V102.077H197.85V100.315Z" fill="#494F83"/>
<path d="M197.85 104.34H172.094V106.102H197.85V104.34Z" fill="#494F83"/>
<path d="M184.972 108.364H172.094V110.126H184.972V108.364Z" fill="#494F83"/>
<path d="M208.964 92.1523H203V93.9143H208.964V92.1523Z" fill="#494F83"/>
<path d="M208.964 100.315H203V102.077H208.964V100.315Z" fill="#494F83"/>
<path d="M208.964 96.1768H203V97.9387H208.964V96.1768Z" fill="#494F83"/>
<path d="M197.85 115.108H172.094V116.87H197.85V115.108Z" fill="#494F83"/>
<path d="M197.85 119.132H172.094V120.894H197.85V119.132Z" fill="#494F83"/>
<path d="M184.972 123.157H172.094V124.919H184.972V123.157Z" fill="#494F83"/>
<path d="M197.85 127.296H172.094V129.058H197.85V127.296Z" fill="#494F83"/>
<path d="M197.85 131.319H172.094V133.081H197.85V131.319Z" fill="#494F83"/>
<path d="M184.972 135.345H172.094V137.107H184.972V135.345Z" fill="#494F83"/>
<path d="M208.964 119.132H203V120.894H208.964V119.132Z" fill="#494F83"/>
<path d="M208.964 127.296H203V129.058H208.964V127.296Z" fill="#494F83"/>
<path d="M208.964 123.157H203V124.919H208.964V123.157Z" fill="#494F83"/>
<path d="M143.68 60.1699V61.3614L154.54 65.3698V64.1782L143.68 60.1699Z" fill="#494F83"/>
<path d="M108.078 60.1123V61.2954L120.001 65.4269V64.2421L108.078 60.1123Z" fill="#494F83"/>
<path d="M125.379 64.2965V65.4745L138.299 61.2418V60.0654L125.379 64.2965Z" fill="#494F83"/>
<path d="M108.076 57.082H102.695V62.4658H108.076V61.2962V60.1132V57.082Z" fill="#E88451"/>
<path d="M143.681 57.082H138.301V60.0659V61.2422V62.4658H143.681V61.3621V60.1705V57.082Z" fill="#5775B8"/>
<path d="M125.379 63.0742H120V64.2421V65.4269V68.458H125.379V65.4741V64.2961V63.0742Z" fill="#C63D55"/>
<path d="M154.539 64.178V65.3695V68.458H159.92V63.0742H154.539V64.178Z" fill="#312863"/>
<path d="M114.752 83.3945H109.371V107.122H114.752V83.3945Z" fill="#E88451"/>
<path d="M123.041 91.5703H117.66V107.123H123.041V91.5703Z" fill="#889EC8"/>
<path d="M156.201 95.2578H150.82V107.121H156.201V95.2578Z" fill="#B7BED6"/>
<path d="M139.623 83.3945H134.242V107.122H139.623V83.3945Z" fill="#F7AE59"/>
<path d="M147.912 88.3936H142.531V107.122H147.912V88.3936Z" fill="#B7BED6"/>
<path d="M131.334 74.6221H125.953V107.122H131.334V74.6221Z" fill="#494F83"/>
<path d="M193.707 48.8035C192.474 48.5318 191.196 48.3799 189.882 48.3799C180.058 48.3799 172.094 56.3492 172.094 66.1785C172.094 76.0077 180.057 83.9771 189.882 83.9771C192.172 83.9771 194.353 83.5281 196.364 82.74L189.882 66.1785L193.707 48.8035Z" fill="#B7BED6"/>
<path d="M206.957 61.2402C207.097 61.7195 207.224 62.2056 207.323 62.7001C207.225 62.2039 207.097 61.7195 206.957 61.2402Z" fill="#B7BED6"/>
<path d="M206.414 59.6504C206.578 60.0622 206.726 60.4807 206.859 60.9077C206.726 60.4824 206.578 60.0622 206.414 59.6504Z" fill="#B7BED6"/>
<path d="M207.58 67.9082C207.533 68.3875 207.455 68.8567 207.371 69.3242C207.459 68.8584 207.533 68.3875 207.58 67.9082Z" fill="#B7BED6"/>
<path d="M206.35 59.4674C206.257 59.2412 206.156 59.0218 206.055 58.8007C205.954 58.5813 205.849 58.3636 205.741 58.1493C205.603 57.8759 205.461 57.6075 205.309 57.3425C205.147 57.0607 204.98 56.7822 204.805 56.5105C204.67 56.3029 204.53 56.0987 204.387 55.8979C204.242 55.692 204.088 55.4911 203.935 55.292C203.712 55.0051 203.483 54.7266 203.243 54.4532C203.08 54.2675 202.916 54.0836 202.746 53.9047C202.575 53.7258 202.405 53.5503 202.228 53.3798C201.958 53.1199 201.681 52.8667 201.395 52.6237C201.202 52.46 201.002 52.3047 200.803 52.1478C200.617 52.0026 200.428 51.8609 200.236 51.7242C199.978 51.5385 199.716 51.3596 199.45 51.1892C199.188 51.0221 198.924 50.8584 198.654 50.7048C198.434 50.5799 198.212 50.4618 197.987 50.347C197.768 50.2356 197.545 50.1293 197.323 50.0263C196.979 49.8677 196.63 49.7192 196.274 49.5825C196.048 49.4947 195.822 49.4103 195.592 49.3327C195.349 49.25 195.107 49.1707 194.859 49.0981C194.482 48.9884 194.103 48.8888 193.717 48.8044C193.713 48.8044 193.712 48.8044 193.708 48.8027L189.883 66.1777L206.353 59.4674H206.35Z" fill="#5775B8"/>
<path d="M189.879 66.1788L207.333 69.5846C207.35 69.5002 207.356 69.4108 207.372 69.3264C207.456 68.8589 207.532 68.3897 207.581 67.9104C207.638 67.3417 207.669 66.7645 207.669 66.1788C207.669 65.5932 207.638 64.9873 207.579 64.4033C207.532 63.919 207.451 63.443 207.365 62.9705C207.348 62.881 207.341 62.7899 207.324 62.7005C207.225 62.206 207.098 61.7199 206.958 61.2406C206.926 61.1292 206.894 61.0178 206.861 60.9064C206.727 60.4794 206.579 60.0609 206.415 59.6491C206.392 59.59 206.375 59.5259 206.351 59.4668L189.881 66.1771L189.879 66.1788Z" fill="#889EC8"/>
<path d="M189.879 66.1777L205.634 74.4222C205.687 74.3243 205.729 74.2214 205.779 74.1218C205.784 74.11 205.791 74.0982 205.796 74.0863C206.056 73.5598 206.292 73.0214 206.503 72.4678C206.577 72.2737 206.65 72.0813 206.717 71.8839C206.808 71.6139 206.894 71.3404 206.972 71.0637C207.038 70.8358 207.093 70.6046 207.149 70.3734C207.213 70.1101 207.281 69.8502 207.333 69.5835L189.879 66.1777Z" fill="#312863"/>
<path d="M203.864 77.158C203.925 77.0803 203.98 76.9993 204.041 76.9217C204.309 76.5673 204.571 76.2078 204.812 75.8348C204.849 75.7774 204.881 75.7167 204.918 75.6593C205.173 75.2559 205.416 74.8458 205.638 74.4222L189.883 66.1777L196.365 82.7392C196.84 82.5519 197.304 82.3443 197.758 82.1182C197.793 82.1013 197.829 82.0844 197.863 82.0675C198.293 81.8515 198.711 81.6152 199.119 81.3654C199.177 81.3317 199.232 81.2979 199.29 81.2625C199.679 81.0195 200.057 80.7612 200.425 80.4895C200.494 80.4372 200.565 80.3866 200.634 80.3326C200.986 80.0642 201.327 79.7857 201.658 79.4921C201.734 79.4246 201.808 79.3571 201.882 79.2879C202.201 78.9959 202.511 78.6938 202.808 78.3799C202.881 78.3022 202.951 78.2229 203.022 78.1436C203.312 77.8246 203.596 77.4989 203.862 77.158H203.864Z" fill="#C63D55"/>
<path d="M75.248 130.057C74.9022 130.057 74.5733 130.116 74.2529 130.199C74.5936 129.48 74.801 128.685 74.801 127.836C74.801 124.779 72.325 122.302 69.2703 122.302C68.4675 122.302 67.7101 122.481 67.0203 122.79C66.3827 118.825 62.957 115.794 58.8145 115.794C54.3194 115.794 50.666 119.363 50.5075 123.824C50.2747 123.752 50.0319 123.703 49.7755 123.703C48.3991 123.703 47.2842 124.82 47.2842 126.195C47.2842 126.472 47.3399 126.734 47.4225 126.982C47.1948 126.953 46.9722 126.913 46.7377 126.913C43.6831 126.913 41.207 129.39 41.207 132.447C41.207 135.503 43.6831 137.981 46.7377 137.981H75.2463C77.4323 137.981 79.2067 136.207 79.2067 134.018C79.2067 131.829 77.434 130.055 75.2463 130.055L75.248 130.057Z" fill="#889EC8"/>
<path d="M99.032 115.757H90.9375V124.919H99.032V115.757Z" fill="#5775B8"/>
<path d="M121.779 116.826H101.922V117.837H121.779V116.826Z" fill="#889EC8"/>
<path d="M121.779 119.848H101.922V120.859H121.779V119.848Z" fill="#889EC8"/>
<path d="M121.779 122.868H101.922V123.879H121.779V122.868Z" fill="#889EC8"/>
<path d="M99.032 127.988H90.9375V137.151H99.032V127.988Z" fill="#494F83"/>
<path d="M121.779 129.058H101.922V130.069H121.779V129.058Z" fill="#889EC8"/>
<path d="M121.779 132.078H101.922V133.089H121.779V132.078Z" fill="#889EC8"/>
<path d="M121.779 135.1H101.922V136.111H121.779V135.1Z" fill="#889EC8"/>
<path d="M137.171 115.757H129.078V124.919H137.171V115.757Z" fill="#5775B8"/>
<path d="M159.92 116.826H140.062V117.837H159.92V116.826Z" fill="#889EC8"/>
<path d="M159.92 119.848H140.062V120.859H159.92V119.848Z" fill="#889EC8"/>
<path d="M159.92 122.868H140.062V123.879H159.92V122.868Z" fill="#889EC8"/>
<path d="M137.171 127.988H129.078V137.151H137.171V127.988Z" fill="#494F83"/>
<path d="M159.92 129.058H140.062V130.069H159.92V129.058Z" fill="#889EC8"/>
<path d="M159.92 132.078H140.062V133.089H159.92V132.078Z" fill="#889EC8"/>
<path d="M159.92 135.1H140.062V136.111H159.92V135.1Z" fill="#889EC8"/>
<path d="M187.022 11.4519H187.934V7.62927H191.755V6.71622H187.934V2.89355H187.022V6.71622H183.203V7.62927H187.022V11.4519Z" fill="white"/>
<path d="M123.941 17.8513H124.852V14.0287H128.673V13.1156H124.852V9.29297H123.941V13.1156H120.121V14.0287H123.941V17.8513Z" fill="white"/>
<path d="M16.9727 23.7947H17.8835V19.972H21.7039V19.059H17.8835V15.2363H16.9727V19.059H13.1523V19.972H16.9727V23.7947Z" fill="white"/>
<path d="M22.1609 114.016V110.194H25.9813V109.281H22.1609V105.458H21.2501V109.281H17.4297V110.194H21.2501V114.016H22.1609Z" fill="white"/>
<path d="M26.571 74.0779V70.2552H30.3931V69.3422H26.571V65.5195H25.6602V69.3422H21.8398V70.2552H25.6602V74.0779H26.571Z" fill="white"/>
<path d="M197.993 149.961V146.138H201.815V145.225H197.993V141.402H197.082V145.225H193.262V146.138H197.082V149.961H197.993Z" fill="white"/>
<path d="M228.618 126.647V122.825H232.438V121.912H228.618V118.089H227.705V121.912H223.887V122.825H227.705V126.647H228.618Z" fill="white"/>
</svg>
