<svg width="70" height="70" viewBox="0 0 70 70" fill="none" xmlns="http://www.w3.org/2000/svg">
<path d="M61.2503 70.0003C63.6666 70.0003 65.6254 68.0415 65.6254 65.6252V18.458C65.6254 17.9295 65.1969 17.501 64.6684 17.501H61.2501L56.875 65.6223V65.628C56.8751 68.0438 58.8343 70.0019 61.2503 70.0003Z" fill="#FAC600"/>
<path d="M60.2932 65.6277H9.70508C9.17652 65.6277 8.74805 65.1993 8.74805 64.6707V0.957031C8.74805 0.428477 9.17652 0 9.70508 0H60.2932C60.8218 0 61.2502 0.428477 61.2502 0.957031V64.6707C61.2502 65.1993 60.8218 65.6277 60.2932 65.6277Z" fill="#E9F1FF"/>
<path d="M59.6093 27.2024C59.6093 25.167 57.9534 23.511 55.9179 23.511H23.0062L19.7125 20.2173C19.0152 19.5199 18.0881 19.1357 17.102 19.1357H8.74805V64.6707C8.74805 65.1993 9.17652 65.6278 9.70508 65.6278H59.6095C59.6095 65.6259 59.6093 65.6239 59.6093 65.622V27.2024Z" fill="#D7E4F7"/>
<path d="M15.584 64.6707V0.957031C15.584 0.428477 16.0125 0 16.541 0H9.70508C9.17652 0 8.74805 0.428477 8.74805 0.957031V64.6707C8.74805 65.1993 9.17652 65.6277 9.70508 65.6277H16.541C16.0125 65.6277 15.584 65.1993 15.584 64.6707Z" fill="#D7E4F7"/>
<path d="M29.6668 21.8758H14.0801C13.5515 21.8758 13.123 21.4473 13.123 20.9188V5.33203C13.123 4.80348 13.5515 4.375 14.0801 4.375H29.6667C30.1953 4.375 30.6237 4.80348 30.6237 5.33203V20.9187C30.6239 21.4473 30.1954 21.8758 29.6668 21.8758Z" fill="#77D4F5"/>
<path d="M61.2504 69.997H8.74791C6.33168 69.997 4.37305 68.0384 4.37305 65.6222V22.8271C4.37305 22.2986 4.80152 21.8701 5.33008 21.8701H17.1021C17.356 21.8701 17.5994 21.971 17.7789 22.1504L21.5935 25.965C21.773 26.1445 22.0163 26.2453 22.2702 26.2453H55.9182C56.4468 26.2453 56.8752 26.6737 56.8752 27.2023V65.6219C56.8752 68.0383 58.834 69.997 61.2504 69.997Z" fill="#FFE07D"/>
<path d="M11.209 65.6222V22.8271C11.209 22.2986 11.6375 21.8701 12.166 21.8701H5.33008C4.80152 21.8701 4.37305 22.2986 4.37305 22.8271V65.6222C4.37305 68.0384 6.33168 69.997 8.74791 69.997H15.5838C13.1676 69.997 11.209 68.0384 11.209 65.6222Z" fill="#FFD064"/>
<path d="M21.8732 13.5354C23.0814 13.5354 24.0608 12.556 24.0608 11.3478C24.0608 10.1396 23.0814 9.16016 21.8732 9.16016C20.665 9.16016 19.6855 10.1396 19.6855 11.3478C19.6855 12.556 20.665 13.5354 21.8732 13.5354Z" fill="#FED2A4"/>
<path d="M21.7363 11.3477C21.7363 10.51 22.2072 9.78236 22.8986 9.41486C22.5927 9.2523 22.2437 9.16016 21.8732 9.16016C20.665 9.16016 19.6855 10.1396 19.6855 11.3478C19.6855 12.556 20.665 13.5354 21.8732 13.5354C22.2437 13.5354 22.5927 13.4433 22.8986 13.2807C22.2072 12.9129 21.7363 12.1853 21.7363 11.3477Z" fill="#FFBD86"/>
<path d="M25.4976 17.5011H18.2488C17.8341 17.5011 17.498 17.1649 17.498 16.7504C17.498 14.7487 19.1208 13.126 21.1225 13.126H22.624C24.6257 13.126 26.2485 14.7487 26.2485 16.7504C26.2483 17.1651 25.9123 17.5011 25.4976 17.5011Z" fill="#FF5576"/>
<path d="M20.2326 16.7504C20.2326 14.9588 21.5325 13.4709 23.2405 13.1782C23.0402 13.1439 22.8342 13.126 22.624 13.126H21.1225C19.1208 13.126 17.498 14.7487 17.498 16.7504C17.498 17.1651 17.8341 17.5011 18.2488 17.5011H20.9831C20.5686 17.5011 20.2326 17.1651 20.2326 16.7504Z" fill="#EF0766"/>
<path d="M34.9998 9.80621C34.4164 9.80621 33.9434 9.3333 33.9434 8.74978C33.9434 8.16641 34.4163 7.69336 34.9998 7.69336C35.5832 7.69336 36.0562 8.16627 36.0562 8.74978C36.0562 9.3333 35.5832 9.80621 34.9998 9.80621Z" fill="#596C76"/>
<path d="M34.9998 14.1812C34.4164 14.1812 33.9434 13.7083 33.9434 13.1248C33.9434 12.5414 34.4163 12.0684 34.9998 12.0684C35.5832 12.0684 36.0562 12.5413 36.0562 13.1248C36.0562 13.7082 35.5832 14.1812 34.9998 14.1812Z" fill="#596C76"/>
<path d="M34.9998 18.5562C34.4164 18.5562 33.9434 18.0833 33.9434 17.4998C33.9434 16.9164 34.4163 16.4434 34.9998 16.4434C35.5832 16.4434 36.0562 16.9163 36.0562 17.4998C36.0562 18.0833 35.5832 18.5562 34.9998 18.5562Z" fill="#596C76"/>
<path d="M56.8755 9.80621H39.3748C38.7914 9.80621 38.3184 9.3333 38.3184 8.74978C38.3184 8.16627 38.7913 7.69336 39.3748 7.69336H56.8755C57.4589 7.69336 57.9319 8.16627 57.9319 8.74978C57.9319 9.3333 57.459 9.80621 56.8755 9.80621Z" fill="#596C76"/>
<path d="M56.8755 14.1812H39.3748C38.7914 14.1812 38.3184 13.7083 38.3184 13.1248C38.3184 12.5413 38.7913 12.0684 39.3748 12.0684H56.8755C57.4589 12.0684 57.9319 12.5413 57.9319 13.1248C57.9319 13.7083 57.459 14.1812 56.8755 14.1812Z" fill="#596C76"/>
<path d="M56.8755 18.5552H39.3748C38.7914 18.5552 38.3184 18.0823 38.3184 17.4988C38.3184 16.9154 38.7913 16.4424 39.3748 16.4424H56.8755C57.4589 16.4424 57.9319 16.9153 57.9319 17.4988C57.9319 18.0823 57.459 18.5552 56.8755 18.5552Z" fill="#596C76"/>
<path d="M39.3913 45.1758H34.9827V39.3754C34.9827 38.1784 34.0088 37.2045 32.8119 37.2045C31.6149 37.2045 30.6411 38.1784 30.6411 39.3754V45.1758H26.2324V39.3754C26.2324 35.7474 29.1839 32.7959 32.8119 32.7959C36.4398 32.7959 39.3913 35.7474 39.3913 39.3754V45.1758Z" fill="#E9F1FF"/>
<path d="M34.1813 32.9392C33.7399 32.8455 33.2807 32.7959 32.8119 32.7959C29.1839 32.7959 26.2324 35.7474 26.2324 39.3754V45.1758H28.9668V39.3754C28.9668 36.2161 31.2073 33.5703 34.1813 32.9392Z" fill="#D7E4F7"/>
<path d="M35.5465 37.2041C35.0286 37.2041 34.5532 37.3863 34.1797 37.6901C34.6694 38.0885 34.9829 38.6958 34.9829 39.3749V45.1753H37.7173V39.3749C37.7173 38.1781 36.7434 37.2041 35.5465 37.2041Z" fill="#D7E4F7"/>
<path d="M41.6981 59.0715H23.9238C23.3953 59.0715 22.9668 58.643 22.9668 58.1145V44.707C22.9668 44.1785 23.3953 43.75 23.9238 43.75H41.6981C42.2266 43.75 42.6551 44.1785 42.6551 44.707V58.1145C42.6551 58.643 42.2266 59.0715 41.6981 59.0715Z" fill="#82D65F"/>
<path d="M27.0684 58.1145V44.707C27.0684 44.1785 27.4968 43.75 28.0254 43.75H23.9238C23.3953 43.75 22.9668 44.1785 22.9668 44.707V58.1145C22.9668 58.643 23.3953 59.0715 23.9238 59.0715H28.0254C27.4968 59.0715 27.0684 58.643 27.0684 58.1145Z" fill="#77BF51"/>
<path d="M34.9983 49.9777C34.9983 48.7695 34.0189 47.79 32.8107 47.79C31.6025 47.79 30.623 48.7695 30.623 49.9777C30.623 50.8025 31.08 51.5203 31.7543 51.893V54.3528C31.7543 54.9362 32.2272 55.4092 32.8107 55.4092C33.3941 55.4092 33.8671 54.9363 33.8671 54.3528V51.893C34.5414 51.5203 34.9983 50.8026 34.9983 49.9777Z" fill="#3E4F55"/>
</svg>
