<svg width="367" height="330" viewBox="0 0 367 330" fill="none" xmlns="http://www.w3.org/2000/svg">
<path d="M172.176 84.3262C210.037 26.7055 260.53 -12.7952 296.845 21.0126C375.22 93.9771 300.411 269.915 219.566 312.536C71.3369 390.683 -76.0215 180.298 94.3544 146.485C122.418 137.519 151.578 110.745 172.176 84.3262Z" fill="#E1EDF9"/>
<path d="M237.593 246.97C289.643 271.9 342.411 306.295 355.725 234.125C380.824 98.0782 218.386 -15.0542 109.134 33.3323C42.2055 62.9741 5.50921 112.772 10.0972 199.175C18.6096 290.353 98.7122 281.207 146.245 256.523C175.887 241.13 207.344 232.482 237.593 246.97Z" fill="#C4DCF7"/>
<path d="M358 321H10V325H358V321Z" fill="#6699CC"/>
<path d="M245.607 77.089V181.724C245.607 186.527 241.714 190.42 236.911 190.42H82.1046C77.3018 190.42 73.4082 186.527 73.4082 181.724V77.089C73.4082 72.2861 77.3017 68.3926 82.1046 68.3926H236.911C241.714 68.3926 245.607 72.2861 245.607 77.089Z" fill="#9999FF"/>
<path d="M79.2051 167.232V77.0882C79.2051 75.4873 80.5029 74.1895 82.1039 74.1895H236.91C238.511 74.1895 239.809 75.4873 239.809 77.0882V167.232C239.809 168.833 238.511 170.13 236.91 170.13H82.1039C80.5029 170.13 79.2051 168.833 79.2051 167.232Z" fill="#ECEDFF"/>
<path d="M162.581 183.344C164.279 181.646 164.279 178.893 162.581 177.195C160.883 175.497 158.13 175.497 156.432 177.195C154.734 178.893 154.734 181.646 156.432 183.344C158.13 185.042 160.883 185.042 162.581 183.344Z" fill="#6E6EEA"/>
<path d="M180.667 182.319C181.799 181.187 181.799 179.352 180.667 178.22C179.535 177.088 177.699 177.088 176.567 178.22C175.435 179.352 175.435 181.187 176.567 182.319C177.699 183.451 179.535 183.451 180.667 182.319Z" fill="#6E6EEA"/>
<path d="M142.444 182.319C143.576 181.187 143.576 179.352 142.444 178.22C141.312 177.088 139.477 177.088 138.345 178.22C137.213 179.352 137.213 181.187 138.345 182.319C139.477 183.451 141.312 183.451 142.444 182.319Z" fill="#6E6EEA"/>
<path d="M145.795 81.4355H118.832V148.226H145.795V81.4355Z" fill="#B4C3FA"/>
<path d="M127.435 112.839C127.435 112.839 119.178 101 121.068 98.8113C122.959 96.6226 126.993 105.35 127.435 104.681C129.227 101.97 128.007 92.8532 127.905 88.91C127.84 86.438 130.772 85.4472 131.478 87.8709C131.301 84.8255 135.16 84.8909 134.985 87.8709C135.16 86.0683 137.913 86.5527 138.038 88.4555C138.085 89.1727 138.147 91.3284 138.147 91.3284C138.716 89.8494 141.298 90.079 141.296 92.4418C141.286 100.968 140.795 108.334 137.501 113.388L139.138 140.453C138.911 145.61 126.066 145.043 126.294 139.887L127.435 112.839Z" fill="#CCCEFD"/>
<path d="M136.259 138.765C136.259 139.821 135.414 140.667 134.358 140.667C133.597 140.667 132.921 140.202 132.625 139.568C132.328 140.202 131.652 140.667 130.892 140.667C129.835 140.667 128.947 139.821 128.947 138.765C128.947 137.708 129.835 136.82 130.892 136.82C131.652 136.82 132.328 137.285 132.625 137.962C132.921 137.285 133.597 136.82 134.358 136.82C135.414 136.82 136.259 137.708 136.259 138.765Z" fill="#B4C3FA"/>
<path d="M136.259 115.737C136.259 116.794 135.414 117.639 134.358 117.639C133.597 117.639 132.921 117.174 132.625 116.54C132.328 117.174 131.652 117.639 130.892 117.639C129.835 117.639 128.947 116.794 128.947 115.737C128.947 114.681 129.835 113.793 130.892 113.793C131.652 113.793 132.328 114.258 132.625 114.934C132.921 114.258 133.597 113.793 134.358 113.793C135.414 113.793 136.259 114.681 136.259 115.737Z" fill="#B4C3FA"/>
<path d="M133.977 116.219H131.061V138.24H133.977V116.219Z" fill="#B4C3FA"/>
<path d="M127.899 110.754L124.568 104.508L122.064 100.232L122.428 100.018L124.935 104.302L128.27 110.555L127.899 110.754Z" fill="#B4C3FA"/>
<path d="M130.884 110.489L130.463 110.447C130.83 106.369 130.956 102.262 130.849 97.8911L131.27 97.8828C131.379 102.271 131.253 106.394 130.884 110.489Z" fill="#B4C3FA"/>
<path d="M132.809 110.705L132.396 110.606C133.325 106.689 133.639 102.507 133.329 98.1815L133.75 98.1484C134.064 102.52 133.746 106.742 132.809 110.705Z" fill="#B4C3FA"/>
<path d="M134.872 110.932L134.459 110.841C135.251 107.341 135.992 103.522 136.048 99.3164L136.469 99.3247C136.416 103.568 135.668 107.411 134.872 110.932Z" fill="#B4C3FA"/>
<path d="M136.699 111.286L136.307 111.129C137.485 108.128 138.29 104.649 138.697 100.781L139.118 100.823C138.705 104.727 137.892 108.248 136.699 111.286Z" fill="#B4C3FA"/>
<path d="M130.678 95.5588L129.689 88.2941L130.106 88.2363L131.095 95.501L130.678 95.5588Z" fill="#B4C3FA"/>
<path d="M133.242 95.2338L132.922 87.6142L133.343 87.5977L133.663 95.2173L133.242 95.2338Z" fill="#B4C3FA"/>
<path d="M136.712 89.5371H136.291V95.5304H136.712V89.5371Z" fill="#B4C3FA"/>
<path d="M139.909 92.2773H139.488V97.8868H139.909V92.2773Z" fill="#B4C3FA"/>
<path d="M130.384 88.254C130.384 88.5499 130.173 88.7612 129.878 88.7612C129.624 88.7612 129.412 88.5499 129.412 88.254C129.412 88.0004 129.624 87.7891 129.878 87.7891C130.173 87.7891 130.384 88.0004 130.384 88.254Z" fill="#B4C3FA"/>
<path d="M131.372 95.3711C131.372 95.667 131.161 95.8783 130.866 95.8783C130.612 95.8783 130.4 95.6671 130.4 95.3711C130.4 95.1176 130.612 94.9062 130.866 94.9062C131.161 94.9062 131.372 95.1176 131.372 95.3711Z" fill="#B4C3FA"/>
<path d="M133.939 95.0626C133.939 95.3584 133.728 95.5698 133.432 95.5698C133.178 95.5698 132.967 95.3584 132.967 95.0626C132.967 94.809 133.178 94.5977 133.432 94.5977C133.728 94.5977 133.939 94.809 133.939 95.0626Z" fill="#B4C3FA"/>
<path d="M133.617 87.586C133.617 87.8819 133.406 88.0932 133.11 88.0932C132.856 88.0932 132.645 87.8819 132.645 87.586C132.645 87.3324 132.856 87.1211 133.11 87.1211C133.406 87.1211 133.617 87.3324 133.617 87.586Z" fill="#B4C3FA"/>
<path d="M136.988 89.5157C136.988 89.8116 136.777 90.0229 136.481 90.0229C136.227 90.0229 136.016 89.8116 136.016 89.5157C136.016 89.2621 136.227 89.0508 136.481 89.0508C136.777 89.0508 136.988 89.2621 136.988 89.5157Z" fill="#B4C3FA"/>
<path d="M136.988 95.5098C136.988 95.8057 136.777 96.017 136.481 96.017C136.227 96.017 136.016 95.8057 136.016 95.5098C136.016 95.2562 136.227 95.0449 136.481 95.0449C136.777 95.0449 136.988 95.2562 136.988 95.5098Z" fill="#B4C3FA"/>
<path d="M140.185 97.8653C140.185 98.1612 139.974 98.3725 139.678 98.3725C139.424 98.3725 139.213 98.1612 139.213 97.8653C139.213 97.6117 139.424 97.4004 139.678 97.4004C139.974 97.4004 140.185 97.6117 140.185 97.8653Z" fill="#B4C3FA"/>
<path d="M140.185 92.2579C140.185 92.5538 139.974 92.7651 139.678 92.7651C139.424 92.7651 139.213 92.5538 139.213 92.2579C139.213 92.0043 139.424 91.793 139.678 91.793C139.974 91.793 140.185 92.0043 140.185 92.2579Z" fill="#B4C3FA"/>
<path d="M122.742 100.12C122.742 100.374 122.53 100.628 122.234 100.628C121.981 100.628 121.77 100.374 121.77 100.12C121.77 99.8669 121.981 99.6133 122.234 99.6133C122.53 99.6133 122.742 99.8669 122.742 100.12Z" fill="#B4C3FA"/>
<path d="M125.165 104.41C125.165 104.663 124.954 104.917 124.658 104.917C124.405 104.917 124.193 104.663 124.193 104.41C124.193 104.156 124.405 103.902 124.658 103.902C124.954 103.902 125.165 104.156 125.165 104.41Z" fill="#B4C3FA"/>
<path d="M128.57 110.376C128.57 110.63 128.358 110.884 128.063 110.884C127.809 110.884 127.598 110.63 127.598 110.376C127.598 110.123 127.809 109.869 128.063 109.869C128.358 109.869 128.57 110.123 128.57 110.376Z" fill="#B4C3FA"/>
<path d="M132.827 110.653C132.827 110.856 132.658 111.058 132.422 111.058C132.22 111.058 132.051 110.856 132.051 110.653C132.051 110.451 132.22 110.248 132.422 110.248C132.658 110.248 132.827 110.451 132.827 110.653Z" fill="#B4C3FA"/>
<path d="M133.38 110.653C133.38 110.856 133.211 111.058 132.975 111.058C132.773 111.058 132.604 110.856 132.604 110.653C132.604 110.451 132.773 110.248 132.975 110.248C133.211 110.248 133.38 110.451 133.38 110.653Z" fill="#B4C3FA"/>
<path d="M130.874 110.653C130.874 110.856 130.705 111.058 130.469 111.058C130.267 111.058 130.098 110.856 130.098 110.653C130.098 110.451 130.267 110.248 130.469 110.248C130.705 110.248 130.874 110.451 130.874 110.653Z" fill="#B4C3FA"/>
<path d="M131.427 110.653C131.427 110.856 131.258 111.058 131.022 111.058C130.819 111.058 130.65 110.856 130.65 110.653C130.65 110.451 130.819 110.248 131.022 110.248C131.258 110.248 131.427 110.451 131.427 110.653Z" fill="#B4C3FA"/>
<path d="M131.206 97.8876C131.206 98.0902 131.037 98.2928 130.801 98.2928C130.599 98.2928 130.43 98.0902 130.43 97.8876C130.43 97.685 130.599 97.4824 130.801 97.4824C131.037 97.4824 131.206 97.685 131.206 97.8876Z" fill="#B4C3FA"/>
<path d="M131.759 97.8876C131.759 98.0902 131.59 98.2928 131.354 98.2928C131.151 98.2928 130.982 98.0902 130.982 97.8876C130.982 97.685 131.151 97.4824 131.354 97.4824C131.59 97.4824 131.759 97.685 131.759 97.8876Z" fill="#B4C3FA"/>
<path d="M133.698 98.1474C133.698 98.3499 133.529 98.5526 133.293 98.5526C133.091 98.5526 132.922 98.35 132.922 98.1474C132.922 97.9447 133.091 97.7422 133.293 97.7422C133.529 97.7422 133.698 97.9448 133.698 98.1474Z" fill="#B4C3FA"/>
<path d="M134.251 98.1474C134.251 98.3499 134.082 98.5526 133.846 98.5526C133.644 98.5526 133.475 98.35 133.475 98.1474C133.475 97.9447 133.644 97.7422 133.846 97.7422C134.082 97.7422 134.251 97.9448 134.251 98.1474Z" fill="#B4C3FA"/>
<path d="M136.404 99.3154C136.404 99.518 136.235 99.7205 135.998 99.7205C135.796 99.7205 135.627 99.518 135.627 99.3154C135.627 99.1128 135.796 98.9102 135.998 98.9102C136.235 98.9102 136.404 99.1127 136.404 99.3154Z" fill="#B4C3FA"/>
<path d="M136.956 99.3154C136.956 99.518 136.787 99.7205 136.551 99.7205C136.349 99.7205 136.18 99.518 136.18 99.3154C136.18 99.1128 136.349 98.9102 136.551 98.9102C136.787 98.9102 136.956 99.1127 136.956 99.3154Z" fill="#B4C3FA"/>
<path d="M138.96 100.78C138.96 100.983 138.791 101.185 138.555 101.185C138.353 101.185 138.184 100.983 138.184 100.78C138.184 100.578 138.353 100.375 138.555 100.375C138.791 100.375 138.96 100.578 138.96 100.78Z" fill="#B4C3FA"/>
<path d="M139.513 100.78C139.513 100.983 139.344 101.185 139.108 101.185C138.905 101.185 138.736 100.983 138.736 100.78C138.736 100.578 138.905 100.375 139.108 100.375C139.344 100.375 139.513 100.578 139.513 100.78Z" fill="#B4C3FA"/>
<path d="M134.776 110.974C134.776 111.175 134.608 111.376 134.374 111.376C134.173 111.376 134.006 111.175 134.006 110.974C134.006 110.773 134.173 110.572 134.374 110.572C134.608 110.572 134.776 110.773 134.776 110.974Z" fill="#B4C3FA"/>
<path d="M135.323 110.974C135.323 111.175 135.155 111.376 134.921 111.376C134.72 111.376 134.553 111.175 134.553 110.974C134.553 110.773 134.72 110.572 134.921 110.572C135.155 110.572 135.323 110.773 135.323 110.974Z" fill="#B4C3FA"/>
<path d="M136.616 111.376C136.616 111.577 136.448 111.778 136.214 111.778C136.013 111.778 135.846 111.577 135.846 111.376C135.846 111.175 136.013 110.975 136.214 110.975C136.448 110.975 136.616 111.175 136.616 111.376Z" fill="#B4C3FA"/>
<path d="M137.164 111.376C137.164 111.577 136.997 111.778 136.763 111.778C136.562 111.778 136.395 111.577 136.395 111.376C136.395 111.175 136.562 110.975 136.763 110.975C136.997 110.975 137.164 111.175 137.164 111.376Z" fill="#B4C3FA"/>
<path d="M113.416 81.4355H86.4531V148.226H113.416V81.4355Z" fill="#B4C3FA"/>
<path d="M93.7831 112.839C93.7831 112.839 85.5257 101 87.416 98.8113C89.3062 96.6226 93.341 105.35 93.7831 104.681C95.5742 101.97 94.3549 92.8532 94.2523 88.91C94.1879 86.438 97.12 85.4472 97.8253 87.8709C97.6486 84.8255 101.508 84.8909 101.333 87.8709C101.508 86.0683 104.261 86.5527 104.386 88.4555C104.433 89.1727 104.494 91.3284 104.494 91.3284C105.063 89.8494 107.646 90.079 107.643 92.4418C107.634 100.968 107.142 108.334 103.849 113.388L105.486 140.453C105.259 145.61 92.4139 145.043 92.6414 139.887L93.7831 112.839Z" fill="#ECEDFF"/>
<path d="M102.607 138.765C102.607 139.821 101.762 140.667 100.705 140.667C99.9442 140.667 99.2683 140.202 98.9721 139.568C98.676 140.202 98.0001 140.667 97.2396 140.667C96.1829 140.667 95.2949 139.821 95.2949 138.765C95.2949 137.708 96.1829 136.82 97.2396 136.82C98.0001 136.82 98.676 137.285 98.9721 137.962C99.2683 137.285 99.9442 136.82 100.705 136.82C101.762 136.82 102.607 137.708 102.607 138.765Z" fill="white"/>
<path d="M102.607 115.737C102.607 116.794 101.762 117.639 100.705 117.639C99.9442 117.639 99.2683 117.174 98.9721 116.54C98.676 117.174 98.0001 117.639 97.2396 117.639C96.1829 117.639 95.2949 116.794 95.2949 115.737C95.2949 114.681 96.1829 113.793 97.2396 113.793C98.0001 113.793 98.676 114.258 98.9721 114.934C99.2683 114.258 99.9442 113.793 100.705 113.793C101.762 113.793 102.607 114.681 102.607 115.737Z" fill="white"/>
<path d="M100.325 116.219H97.4082V138.24H100.325V116.219Z" fill="white"/>
<path d="M94.2465 110.754L90.9155 104.508L88.4121 100.232L88.7753 100.018L91.2829 104.302L94.618 110.555L94.2465 110.754Z" fill="white"/>
<path d="M97.2316 110.489L96.8105 110.447C97.1779 106.369 97.3038 102.262 97.1965 97.8911L97.6175 97.8828C97.7269 102.271 97.601 106.394 97.2316 110.489Z" fill="white"/>
<path d="M99.1569 110.705L98.7441 110.606C99.6729 106.689 99.9866 102.507 99.677 98.1815L100.098 98.1484C100.412 102.52 100.094 106.742 99.1569 110.705Z" fill="white"/>
<path d="M101.219 110.932L100.807 110.841C101.599 107.341 102.34 103.522 102.396 99.3164L102.817 99.3247C102.763 103.568 102.016 107.411 101.219 110.932Z" fill="white"/>
<path d="M103.046 111.286L102.654 111.129C103.833 108.128 104.638 104.649 105.044 100.781L105.465 100.823C105.053 104.727 104.239 108.248 103.046 111.286Z" fill="white"/>
<path d="M97.0257 95.5588L96.0371 88.2941L96.454 88.2363L97.4426 95.501L97.0257 95.5588Z" fill="white"/>
<path d="M99.5894 95.2338L99.2695 87.6142L99.6906 87.5977L100.01 95.2173L99.5894 95.2338Z" fill="white"/>
<path d="M103.06 89.5371H102.639V95.5304H103.06V89.5371Z" fill="white"/>
<path d="M106.257 92.2773H105.836V97.8868H106.257V92.2773Z" fill="white"/>
<path d="M96.7319 88.254C96.7319 88.5499 96.5208 88.7612 96.2252 88.7612C95.9713 88.7612 95.7598 88.5499 95.7598 88.254C95.7598 88.0004 95.9713 87.7891 96.2252 87.7891C96.5208 87.7891 96.7319 88.0004 96.7319 88.254Z" fill="white"/>
<path d="M97.7201 95.3711C97.7201 95.667 97.5091 95.8783 97.2134 95.8783C96.9596 95.8783 96.748 95.6671 96.748 95.3711C96.748 95.1176 96.9596 94.9062 97.2134 94.9062C97.5091 94.9062 97.7201 95.1176 97.7201 95.3711Z" fill="white"/>
<path d="M100.287 95.0626C100.287 95.3584 100.076 95.5698 99.7799 95.5698C99.526 95.5698 99.3145 95.3584 99.3145 95.0626C99.3145 94.809 99.526 94.5977 99.7799 94.5977C100.076 94.5977 100.287 94.809 100.287 95.0626Z" fill="white"/>
<path d="M99.9643 87.586C99.9643 87.8819 99.7533 88.0932 99.4576 88.0932C99.2038 88.0932 98.9922 87.8819 98.9922 87.586C98.9922 87.3324 99.2037 87.1211 99.4576 87.1211C99.7533 87.1211 99.9643 87.3324 99.9643 87.586Z" fill="white"/>
<path d="M103.335 89.5157C103.335 89.8116 103.124 90.0229 102.829 90.0229C102.575 90.0229 102.363 89.8116 102.363 89.5157C102.363 89.2621 102.575 89.0508 102.829 89.0508C103.124 89.0508 103.335 89.2621 103.335 89.5157Z" fill="white"/>
<path d="M103.335 95.5098C103.335 95.8057 103.124 96.017 102.829 96.017C102.575 96.017 102.363 95.8057 102.363 95.5098C102.363 95.2562 102.575 95.0449 102.829 95.0449C103.124 95.0449 103.335 95.2562 103.335 95.5098Z" fill="white"/>
<path d="M106.533 97.8653C106.533 98.1612 106.322 98.3725 106.026 98.3725C105.772 98.3725 105.561 98.1612 105.561 97.8653C105.561 97.6117 105.772 97.4004 106.026 97.4004C106.322 97.4004 106.533 97.6117 106.533 97.8653Z" fill="white"/>
<path d="M106.533 92.2579C106.533 92.5538 106.322 92.7651 106.026 92.7651C105.772 92.7651 105.561 92.5538 105.561 92.2579C105.561 92.0043 105.772 91.793 106.026 91.793C106.322 91.793 106.533 92.0043 106.533 92.2579Z" fill="white"/>
<path d="M89.0893 100.12C89.0893 100.374 88.8778 100.628 88.5821 100.628C88.3288 100.628 88.1172 100.374 88.1172 100.12C88.1172 99.8669 88.3287 99.6133 88.5821 99.6133C88.8777 99.6133 89.0893 99.8669 89.0893 100.12Z" fill="white"/>
<path d="M91.5131 104.41C91.5131 104.663 91.3016 104.917 91.0059 104.917C90.7526 104.917 90.541 104.663 90.541 104.41C90.541 104.156 90.7525 103.902 91.0059 103.902C91.3016 103.902 91.5131 104.156 91.5131 104.41Z" fill="white"/>
<path d="M94.9174 110.376C94.9174 110.63 94.7059 110.884 94.4102 110.884C94.1569 110.884 93.9453 110.63 93.9453 110.376C93.9453 110.123 94.1568 109.869 94.4102 109.869C94.7059 109.869 94.9174 110.123 94.9174 110.376Z" fill="white"/>
<path d="M99.175 110.653C99.175 110.856 99.006 111.058 98.7698 111.058C98.5674 111.058 98.3984 110.856 98.3984 110.653C98.3984 110.451 98.5674 110.248 98.7698 110.248C99.006 110.248 99.175 110.451 99.175 110.653Z" fill="white"/>
<path d="M99.7277 110.653C99.7277 110.856 99.5587 111.058 99.3226 111.058C99.1202 111.058 98.9512 110.856 98.9512 110.653C98.9512 110.451 99.1202 110.248 99.3226 110.248C99.5587 110.248 99.7277 110.451 99.7277 110.653Z" fill="white"/>
<path d="M97.2219 110.653C97.2219 110.856 97.0529 111.058 96.8167 111.058C96.6143 111.058 96.4453 110.856 96.4453 110.653C96.4453 110.451 96.6143 110.248 96.8167 110.248C97.0529 110.248 97.2219 110.451 97.2219 110.653Z" fill="white"/>
<path d="M97.7746 110.653C97.7746 110.856 97.6056 111.058 97.3694 111.058C97.167 111.058 96.998 110.856 96.998 110.653C96.998 110.451 97.167 110.248 97.3694 110.248C97.6057 110.248 97.7746 110.451 97.7746 110.653Z" fill="white"/>
<path d="M97.5539 97.8876C97.5539 98.0902 97.3849 98.2928 97.1487 98.2928C96.9463 98.2928 96.7773 98.0902 96.7773 97.8876C96.7773 97.685 96.9463 97.4824 97.1487 97.4824C97.3849 97.4824 97.5539 97.685 97.5539 97.8876Z" fill="white"/>
<path d="M98.1066 97.8876C98.1066 98.0902 97.9376 98.2928 97.7015 98.2928C97.4991 98.2928 97.3301 98.0902 97.3301 97.8876C97.3301 97.685 97.4991 97.4824 97.7015 97.4824C97.9376 97.4824 98.1066 97.685 98.1066 97.8876Z" fill="white"/>
<path d="M100.046 98.1474C100.046 98.3499 99.8771 98.5526 99.6409 98.5526C99.4385 98.5526 99.2695 98.35 99.2695 98.1474C99.2695 97.9447 99.4385 97.7422 99.6409 97.7422C99.8771 97.7422 100.046 97.9448 100.046 98.1474Z" fill="white"/>
<path d="M100.599 98.1474C100.599 98.3499 100.43 98.5526 100.194 98.5526C99.9913 98.5526 99.8223 98.35 99.8223 98.1474C99.8223 97.9447 99.9913 97.7422 100.194 97.7422C100.43 97.7422 100.599 97.9448 100.599 98.1474Z" fill="white"/>
<path d="M102.751 99.3154C102.751 99.518 102.582 99.7205 102.346 99.7205C102.144 99.7205 101.975 99.518 101.975 99.3154C101.975 99.1128 102.144 98.9102 102.346 98.9102C102.582 98.9102 102.751 99.1127 102.751 99.3154Z" fill="white"/>
<path d="M103.304 99.3154C103.304 99.518 103.135 99.7205 102.899 99.7205C102.696 99.7205 102.527 99.518 102.527 99.3154C102.527 99.1128 102.696 98.9102 102.899 98.9102C103.135 98.9102 103.304 99.1127 103.304 99.3154Z" fill="white"/>
<path d="M105.308 100.78C105.308 100.983 105.139 101.185 104.903 101.185C104.7 101.185 104.531 100.983 104.531 100.78C104.531 100.578 104.7 100.375 104.903 100.375C105.139 100.375 105.308 100.578 105.308 100.78Z" fill="white"/>
<path d="M105.861 100.78C105.861 100.983 105.692 101.185 105.455 101.185C105.253 101.185 105.084 100.983 105.084 100.78C105.084 100.578 105.253 100.375 105.455 100.375C105.692 100.375 105.861 100.578 105.861 100.78Z" fill="white"/>
<path d="M101.123 110.974C101.123 111.175 100.956 111.376 100.722 111.376C100.521 111.376 100.354 111.175 100.354 110.974C100.354 110.773 100.521 110.572 100.722 110.572C100.956 110.572 101.123 110.773 101.123 110.974Z" fill="white"/>
<path d="M101.67 110.974C101.67 111.175 101.503 111.376 101.269 111.376C101.068 111.376 100.9 111.175 100.9 110.974C100.9 110.773 101.068 110.572 101.269 110.572C101.503 110.572 101.67 110.773 101.67 110.974Z" fill="white"/>
<path d="M102.963 111.376C102.963 111.577 102.796 111.778 102.562 111.778C102.361 111.778 102.193 111.577 102.193 111.376C102.193 111.175 102.361 110.975 102.562 110.975C102.796 110.975 102.963 111.175 102.963 111.376Z" fill="white"/>
<path d="M103.512 111.376C103.512 111.577 103.345 111.778 103.11 111.778C102.91 111.778 102.742 111.577 102.742 111.376C102.742 111.175 102.91 110.975 103.11 110.975C103.345 110.975 103.512 111.175 103.512 111.376Z" fill="white"/>
<path d="M178.174 81.4355H151.211V148.226H178.174V81.4355Z" fill="white"/>
<path d="M161.086 112.839C161.086 112.839 152.828 101 154.719 98.8113C156.609 96.6226 160.644 105.35 161.086 104.681C162.877 101.97 161.658 92.8532 161.555 88.91C161.491 86.438 164.423 85.4472 165.128 87.8709C164.951 84.8255 168.81 84.8909 168.635 87.8709C168.81 86.0683 171.563 86.5527 171.688 88.4555C171.735 89.1727 171.797 91.3284 171.797 91.3284C172.366 89.8494 174.949 90.079 174.946 92.4418C174.937 100.968 174.445 108.334 171.152 113.388L172.789 140.453C172.561 145.61 159.717 145.043 159.944 139.887L161.086 112.839Z" fill="#FF8FBC"/>
<path d="M172.452 90.5957C172.368 93.5043 171.948 96.1334 171.109 98.3708C171.585 96.1613 171.837 93.8399 171.809 91.3229C171.92 90.9873 172.172 90.7355 172.452 90.5957Z" fill="#FF3162"/>
<path d="M169.151 86.959C169.151 90.399 168.955 93.5874 168.172 96.2165C168.647 93.4197 168.787 90.6508 168.647 87.8819C168.703 87.4344 168.871 87.1268 169.151 86.959Z" fill="#FF3162"/>
<path d="M165.348 95.8253C165.656 93.1683 165.572 90.5113 165.125 87.8823C165.097 87.4069 165.18 86.9875 165.32 86.6797C165.796 89.7843 166.103 92.6089 165.348 95.8253Z" fill="#FF3162"/>
<path d="M231.387 89.7656H220.945V92.5219H231.387V89.7656Z" fill="white"/>
<path d="M230.275 92.5215V123.242C230.275 125.543 228.434 127.385 226.134 127.385C223.898 127.385 222.057 125.543 222.057 123.242V92.5215H230.275Z" fill="white"/>
<path d="M230.275 111.131V123.243C230.275 125.544 228.434 127.385 226.134 127.385C223.898 127.385 222.057 125.544 222.057 123.243V111.131H230.275Z" fill="#FF3162"/>
<path d="M218.684 89.7656H208.242V92.5219H218.684V89.7656Z" fill="white"/>
<path d="M217.574 92.5215V123.242C217.574 125.543 215.733 127.385 213.433 127.385C211.197 127.385 209.355 125.543 209.355 123.242V92.5215H217.574Z" fill="white"/>
<path d="M217.574 101.328V123.243C217.574 125.544 215.733 127.385 213.433 127.385C211.197 127.385 209.355 125.544 209.355 123.243V101.328H217.574Z" fill="#FF3162"/>
<path d="M205.983 89.7656H195.541V92.5219H205.983V89.7656Z" fill="white"/>
<path d="M204.873 92.5215V123.242C204.873 125.543 203.032 127.385 200.731 127.385C198.495 127.385 196.654 125.543 196.654 123.242V92.5215H204.873Z" fill="white"/>
<path d="M204.873 108.281V123.242C204.873 125.543 203.032 127.385 200.731 127.385C198.495 127.385 196.654 125.543 196.654 123.242V108.281H204.873Z" fill="#FF3162"/>
<path d="M234.055 92.5215H192.873V94.0609H234.055V92.5215Z" fill="#1A4FA1"/>
<path d="M234.058 139.043H192.873V142.028H234.058V139.043Z" fill="#1A4FA1"/>
<path d="M234.058 145.965H192.873V148.95H234.058V145.965Z" fill="#1A4FA1"/>
<path d="M234.058 152.887H192.873V155.872H234.058V152.887Z" fill="#1A4FA1"/>
<path d="M113.032 156.82H87.8184V159.356H113.032V156.82Z" fill="#1A4FA1"/>
<path d="M113.032 162.699H87.8184V165.234H113.032V162.699Z" fill="#1A4FA1"/>
<path d="M144.921 156.82H119.707V159.356H144.921V156.82Z" fill="#1A4FA1"/>
<path d="M144.921 162.699H119.707V165.234H144.921V162.699Z" fill="#1A4FA1"/>
<path d="M177.3 156.82H152.086V159.356H177.3V156.82Z" fill="#1A4FA1"/>
<path d="M177.3 162.699H152.086V165.234H177.3V162.699Z" fill="#1A4FA1"/>
<path d="M62.3087 289.677C62.9368 275.294 61.8657 260.838 59.1248 246.705C57.8027 239.889 56.0865 233.081 56.0513 226.138C55.9971 215.419 59.9348 205.131 63.8152 195.139C64.4752 204.579 69.1964 213.216 72.15 222.206C76.4224 235.211 77.2283 249.336 74.4627 262.742C72.5084 272.216 68.788 281.682 70.1782 291.254L62.3087 289.677Z" fill="#93A9E5"/>
<path d="M66.5522 271.047C67.2665 265.655 67.5664 260.235 67.5883 254.831C67.5799 249.426 67.3302 244.018 66.565 238.676C65.8174 233.33 64.7 227.982 63.8717 222.622C63.0655 217.238 62.8257 211.67 63.8562 206.312C63.3625 211.736 63.9856 217.145 64.9729 222.451C66.0317 227.791 67.13 233.089 67.9992 238.487C69.3013 249.337 69.0516 260.436 66.5522 271.047Z" fill="#B4C3FA"/>
<path d="M76.2441 287.166C78.2631 282.171 80.2918 277.145 81.4208 271.878C85.8919 251.018 75.8589 228.939 80.9856 208.23C68.4622 223.798 63.2779 244.965 67.0396 264.587C68.6039 272.747 71.6529 280.781 71.1891 289.076L76.2441 287.166Z" fill="white"/>
<path d="M77.5957 286.438C78.1751 271.68 87.0318 257.52 100.048 250.541C94.9601 264.394 88.6425 277.616 79.2371 288.988L77.5957 286.438Z" fill="white"/>
<path d="M59.597 286.438C59.0176 271.68 50.1609 257.52 37.1445 250.541C42.2326 264.394 48.5502 277.616 57.9556 288.988L59.597 286.438Z" fill="white"/>
<path d="M72.6052 288.339C71.519 283.701 72.1429 278.805 73.4905 274.236C74.8382 269.668 76.8872 265.343 78.7156 260.944C86.5551 242.083 90.3799 221.565 89.8624 201.146C85.2164 207.484 82.1027 213.87 79.3644 221.235C75.2871 232.203 71.1805 243.286 69.6591 254.887C68.1366 266.497 69.2494 278.272 70.3636 289.928L72.6052 288.339Z" fill="#B4C3FA"/>
<path d="M65.304 287.846C59.7341 281.989 56.6997 274.234 53.7962 266.69C49.7571 256.197 45.7154 245.695 42.3126 234.978C38.3222 222.411 35.2297 208.757 39.2137 196.188C45.5799 201.078 49.3948 208.894 50.9724 216.765C52.5499 224.636 52.8687 232.758 55.0542 240.483C57.328 248.519 61.5417 255.847 64.8055 263.535C68.0693 271.223 70.4126 279.723 68.6596 287.889L65.304 287.846Z" fill="#B4C3FA"/>
<path d="M71.5399 271.569C71.1736 266.19 70.8871 260.604 72.668 255.318C74.3632 250.054 77.3811 245.441 79.6005 240.548C84.2464 230.807 86.9842 220.222 88.0981 209.428C87.9467 220.306 85.2344 231.135 80.6472 241.041C78.2935 245.982 75.3258 250.555 73.5089 255.603C71.639 260.639 71.5923 266.162 71.5399 271.569Z" fill="#93A9E5"/>
<path d="M79.0977 284.895C81.5815 274.204 87.2388 264.16 95.1112 256.51C88.4376 265.221 83.0957 274.674 79.0977 284.895Z" fill="#CCCEFD"/>
<path d="M40.9668 254.521C48.8901 262.165 54.4138 272.287 56.7505 283.03C53.6917 272.485 48.3427 262.668 40.9668 254.521Z" fill="#CCCEFD"/>
<path d="M85.7456 284.449L81.4996 320.913H56.0467L51.8008 284.449H85.7456Z" fill="#FF9201"/>
<path d="M52.3242 288.412L52.5322 289.99H85.0162L85.2241 288.412H52.3242Z" fill="#FF6903"/>
<path d="M318.15 193.449H274.744V219.91H318.15V193.449Z" fill="#21327C"/>
<path d="M272.73 199.475C272.73 198.493 273.526 197.697 274.508 197.697H318.384C319.366 197.697 320.162 198.493 320.162 199.475C320.162 200.456 319.366 201.252 318.384 201.252H274.508C273.526 201.252 272.73 200.456 272.73 199.475Z" fill="#4378FB"/>
<path d="M272.73 206.682C272.73 205.7 273.526 204.904 274.508 204.904H318.384C319.366 204.904 320.162 205.7 320.162 206.682C320.162 207.663 319.366 208.459 318.384 208.459H274.508C273.526 208.459 272.73 207.663 272.73 206.682Z" fill="#4378FB"/>
<path d="M272.73 213.887C272.73 212.905 273.526 212.109 274.508 212.109H318.384C319.366 212.109 320.162 212.905 320.162 213.887C320.162 214.868 319.366 215.664 318.384 215.664H274.508C273.526 215.664 272.73 214.869 272.73 213.887Z" fill="#4378FB"/>
<path d="M289.758 258.199H281.801V279.404H289.758V258.199Z" fill="#21327C"/>
<path d="M278.746 282.509C278.746 290.308 281.973 317.62 285.89 317.62C289.885 317.62 293.112 290.308 293.112 282.509C293.112 274.71 289.885 268.41 285.89 268.41C281.973 268.41 278.746 274.71 278.746 282.509Z" fill="#4378FB"/>
<path d="M272.799 320.914H283.903C285.603 320.914 287.193 319.823 287.598 318.172C287.931 316.816 287.49 315.531 286.64 314.681C285.968 314.024 285.051 313.611 284.043 313.611H278.359C275.007 313.611 272.182 315.87 271.324 318.949C271.05 319.933 271.778 320.914 272.799 320.914Z" fill="#21327C"/>
<path d="M275.418 233.41L278.268 258.64C278.686 262.336 281.813 265.13 285.533 265.13H285.536C289.256 265.13 292.383 262.336 292.801 258.64L295.651 233.41H275.418Z" fill="#4378FB"/>
<path d="M294.772 241.192L295.651 233.41H275.418L276.297 241.192H294.772Z" fill="#305FCE"/>
<path d="M312.838 258.199H304.881V279.404H312.838V258.199Z" fill="#21327C"/>
<path d="M301.826 282.509C301.826 290.308 305.053 317.62 308.97 317.62C312.965 317.62 316.192 290.308 316.192 282.509C316.192 274.71 312.965 268.41 308.97 268.41C305.053 268.41 301.826 274.71 301.826 282.509Z" fill="#4378FB"/>
<path d="M295.879 320.914H306.984C308.683 320.914 310.273 319.823 310.678 318.172C311.011 316.816 310.57 315.531 309.72 314.681C309.048 314.024 308.131 313.611 307.123 313.611H301.44C298.087 313.611 295.262 315.87 294.404 318.949C294.13 319.933 294.858 320.914 295.879 320.914Z" fill="#21327C"/>
<path d="M298.498 233.41L301.348 258.64C301.766 262.336 304.893 265.13 308.613 265.13H308.616C312.336 265.13 315.463 262.336 315.881 258.64L318.731 233.41H298.498Z" fill="#4378FB"/>
<path d="M317.852 241.192L318.731 233.41H298.498L299.378 241.192H317.852Z" fill="#305FCE"/>
<path d="M262.886 191.644L279.695 162.283C281.18 159.691 280.221 156.384 277.58 154.988C274.97 153.609 271.737 154.636 270.401 157.268L254.977 187.67C257.585 189.05 260.224 190.369 262.886 191.644Z" fill="#73A2FF"/>
<path d="M255.033 195.14C256.282 192.538 257.573 189.957 258.926 187.408L227.049 171.234L223.77 177.241L255.033 195.14Z" fill="#73A2FF"/>
<path d="M234.806 175.923C235.138 175.336 235.004 174.595 234.487 174.16L226.219 167.22C225.639 166.732 224.773 166.808 224.285 167.389L224.092 167.619C223.703 168.082 223.664 168.74 223.991 169.248C224.725 170.389 226.132 172.54 225.554 173.206C224.247 174.709 214.48 169.962 211.244 168.65C210.692 168.426 210.062 168.584 209.679 169.04C209.236 169.568 209.248 170.338 209.714 170.846C212.16 173.509 219.379 181.328 220.567 182.108C221.756 182.889 228.355 182.367 230.579 182.165C231.037 182.124 231.443 181.861 231.67 181.46L234.806 175.923Z" fill="#1A4FA1"/>
<path d="M252.115 184.502C249.113 188.078 249.58 193.433 253.157 196.435C256.733 199.437 262.057 198.943 265.059 195.367C268.061 191.791 267.598 186.493 264.022 183.491C260.446 180.49 255.117 180.925 252.115 184.502Z" fill="#1A4FA1"/>
<path d="M270.109 150.464C267.107 154.041 267.575 159.396 271.151 162.398C274.727 165.4 280.051 164.906 283.053 161.33C286.055 157.754 285.592 152.456 282.016 149.454C278.44 146.452 273.111 146.888 270.109 150.464Z" fill="#1A4FA1"/>
<path d="M322.675 173.754V189.734C322.675 192.59 320.359 194.905 317.503 194.905H275.41C272.554 194.905 270.238 192.59 270.238 189.734V163.877C270.238 158.008 272.617 152.682 276.47 148.829C280.323 144.977 285.623 142.598 291.518 142.598C308.713 142.598 322.675 156.56 322.675 173.754Z" fill="#4378FB"/>
<path d="M275.41 218.459H317.503C320.359 218.459 322.675 220.774 322.675 223.63V230.56C322.675 234.073 319.827 236.92 316.314 236.92H276.573C273.083 236.92 270.238 234.076 270.238 230.56V223.63C270.238 220.774 272.554 218.459 275.41 218.459Z" fill="#4378FB"/>
<path d="M285.033 128.352V148.618L298.552 143.434V128.352H285.033Z" fill="#1A4FA1"/>
<path d="M271.348 116.371V134.205C271.348 137.189 273.767 139.609 276.752 139.609H283.093C295.874 139.609 306.236 129.247 306.236 116.466V116.371C306.236 108.53 299.879 102.174 292.038 102.174H285.545C277.704 102.174 271.348 108.53 271.348 116.371Z" fill="#305FCE"/>
<path d="M271.346 116.37V134.193C271.346 135.306 271.674 136.317 272.255 137.177L277.918 132.601C281.028 130.098 282.823 126.331 282.823 122.362C282.823 115.081 288.714 109.19 295.995 109.19H304.262C301.809 104.994 297.259 102.162 292.026 102.162H285.553C277.691 102.162 271.346 108.533 271.346 116.37Z" fill="#4378FB"/>
<path d="M291.15 123.562C291.15 126.14 292.996 128.239 295.271 128.239C297.547 128.239 299.392 126.14 299.392 123.562C299.392 120.983 297.547 118.885 295.271 118.885C292.996 118.885 291.15 120.983 291.15 123.562Z" fill="#FFEB33"/>
<path d="M277.884 170.581C279.039 170.581 279.983 169.648 279.983 168.493C279.983 167.337 279.039 166.404 277.884 166.404C276.739 166.404 275.795 167.337 275.795 168.493C275.795 169.648 276.739 170.581 277.884 170.581Z" fill="#1A4FA1"/>
<path d="M277.884 164.564C279.039 164.564 279.983 163.631 279.983 162.475C279.983 161.32 279.039 160.387 277.884 160.387C276.739 160.387 275.795 161.32 275.795 162.475C275.795 163.631 276.739 164.564 277.884 164.564Z" fill="#1A4FA1"/>
<path d="M277.895 188.98C278.805 188.98 279.543 188.242 279.543 187.332V175.302C279.543 174.393 278.805 173.654 277.895 173.654C276.973 173.654 276.234 174.393 276.234 175.302V187.332C276.234 188.242 276.973 188.98 277.895 188.98Z" fill="#ECEDFF"/>
<path d="M307.091 195.815L312.879 162.481C313.39 159.539 311.361 156.758 308.402 156.346C305.479 155.939 302.79 158.008 302.432 160.938L298.301 194.777C301.223 195.185 304.154 195.525 307.091 195.815Z" fill="#73A2FF"/>
<path d="M302.81 201.624C301.999 198.854 301.234 196.072 300.535 193.271L266.018 202.56L267.595 209.219L302.81 201.624Z" fill="#73A2FF"/>
<path d="M274.919 200.861C274.774 200.201 274.179 199.74 273.504 199.763L262.715 200.13C261.958 200.156 261.364 200.791 261.39 201.549L261.4 201.85C261.421 202.453 261.832 202.969 262.414 203.128C263.723 203.486 266.208 204.145 266.223 205.026C266.257 207.018 255.82 210.019 252.536 211.207C251.976 211.409 251.613 211.948 251.634 212.543C251.657 213.232 252.181 213.796 252.867 213.862C256.467 214.207 267.063 215.194 268.468 214.98C269.874 214.766 274.432 209.965 275.95 208.328C276.263 207.991 276.39 207.524 276.29 207.074L274.919 200.861Z" fill="#1A4FA1"/>
<path d="M294.53 192.776C292.928 197.161 295.194 202.036 299.579 203.638C303.965 205.241 308.801 202.961 310.403 198.575C312.006 194.19 309.764 189.368 305.379 187.765C300.993 186.163 296.133 188.39 294.53 192.776Z" fill="#1A4FA1"/>
<path d="M299.162 154.639C297.258 159.851 299.951 165.644 305.162 167.548C310.373 169.452 316.12 166.742 318.025 161.531C319.929 156.32 317.265 150.589 312.054 148.685C306.842 146.781 301.066 149.428 299.162 154.639Z" fill="#1A4FA1"/>
<path d="M217.608 207.662H139.539V314.93H217.608V207.662Z" fill="#57B7E6"/>
<path d="M211.633 231.192V320.879H133.562V213.611H194.051L211.633 231.192Z" fill="white"/>
<path d="M211.632 231.192H194.051V213.611L211.632 231.192Z" fill="#BDDBF3"/>
<path d="M150.125 224.025H146.48V238.04H150.125V224.025Z" fill="#FD4E4C"/>
<path d="M155.309 229.211H141.295V232.855H155.309V229.211Z" fill="#FD4E4C"/>
<path d="M188.058 225.646H161.475V228.031H188.058V225.646Z" fill="#1A4FA1"/>
<path d="M188.058 231.033H161.475V233.418H188.058V231.033Z" fill="#1A4FA1"/>
<path d="M188.058 244.754H146.479V247.138H188.058V244.754Z" fill="#57B7E6"/>
<path d="M188.058 250.141H146.479V252.525H188.058V250.141Z" fill="#57B7E6"/>
<path d="M204.624 248.649C204.624 251.969 201.92 254.674 198.6 254.674C195.219 254.674 192.576 251.969 192.576 248.649C192.576 245.33 195.219 242.625 198.6 242.625C201.92 242.625 204.624 245.33 204.624 248.649Z" fill="#57B7E6"/>
<path d="M197.469 251.373C197.274 251.373 197.076 251.301 196.926 251.151L195.278 249.506C194.978 249.206 194.978 248.719 195.278 248.419C195.575 248.125 196.061 248.107 196.364 248.413L197.469 249.518L200.837 246.15C201.137 245.844 201.623 245.862 201.923 246.156C202.223 246.456 202.223 246.942 201.923 247.242L198.012 251.15C197.862 251.301 197.664 251.373 197.469 251.373Z" fill="#37102E"/>
<path d="M188.058 263.35H146.479V265.734H188.058V263.35Z" fill="#57B7E6"/>
<path d="M188.058 268.736H146.479V271.121H188.058V268.736Z" fill="#57B7E6"/>
<path d="M204.624 267.245C204.624 270.564 201.92 273.269 198.6 273.269C195.219 273.269 192.576 270.564 192.576 267.245C192.576 263.925 195.219 261.221 198.6 261.221C201.92 261.221 204.624 263.926 204.624 267.245Z" fill="#57B7E6"/>
<path d="M197.469 269.968C197.274 269.968 197.076 269.896 196.926 269.746L195.278 268.101C194.978 267.801 194.978 267.315 195.278 267.015C195.575 266.721 196.061 266.703 196.364 267.009L197.469 268.113L200.837 264.746C201.137 264.439 201.623 264.457 201.923 264.752C202.223 265.052 202.223 265.538 201.923 265.838L198.012 269.746C197.862 269.896 197.664 269.968 197.469 269.968Z" fill="#37102E"/>
<path d="M188.058 281.943H146.479V284.328H188.058V281.943Z" fill="#57B7E6"/>
<path d="M188.058 287.332H146.479V289.717H188.058V287.332Z" fill="#57B7E6"/>
<path d="M204.624 285.841C204.624 289.16 201.92 291.865 198.6 291.865C195.219 291.865 192.576 289.16 192.576 285.841C192.576 282.521 195.219 279.816 198.6 279.816C201.92 279.816 204.624 282.521 204.624 285.841Z" fill="#57B7E6"/>
<path d="M197.469 288.564C197.274 288.564 197.076 288.492 196.926 288.342L195.278 286.697C194.978 286.397 194.978 285.911 195.278 285.611C195.575 285.316 196.061 285.298 196.364 285.604L197.469 286.709L200.837 283.341C201.137 283.035 201.623 283.053 201.923 283.347C202.223 283.648 202.223 284.134 201.923 284.434L198.012 288.342C197.862 288.492 197.664 288.564 197.469 288.564Z" fill="#37102E"/>
<path d="M188.058 300.539H146.479V302.924H188.058V300.539Z" fill="#57B7E6"/>
<path d="M188.058 305.928H146.479V308.312H188.058V305.928Z" fill="#57B7E6"/>
<path d="M204.624 304.437C204.624 307.756 201.92 310.461 198.6 310.461C195.219 310.461 192.576 307.756 192.576 304.437C192.576 301.117 195.219 298.412 198.6 298.412C201.92 298.412 204.624 301.117 204.624 304.437Z" fill="#57B7E6"/>
<path d="M197.469 307.16C197.274 307.16 197.076 307.088 196.926 306.938L195.278 305.293C194.978 304.993 194.978 304.506 195.278 304.206C195.575 303.912 196.061 303.894 196.364 304.2L197.469 305.305L200.837 301.937C201.137 301.631 201.623 301.649 201.923 301.943C202.223 302.243 202.223 302.729 201.923 303.03L198.012 306.938C197.862 307.088 197.664 307.16 197.469 307.16Z" fill="#37102E"/>
<path d="M255.346 288.424C255.346 300.024 245.956 309.415 234.355 309.415C222.755 309.415 213.365 300.024 213.365 288.424C213.365 276.863 222.755 267.473 234.355 267.473C245.956 267.473 255.346 276.863 255.346 288.424Z" fill="#B4C3FA"/>
<path d="M236.566 276.014V300.872C236.566 302.095 235.58 303.081 234.356 303.081C233.133 303.081 232.146 302.095 232.146 300.872V276.014C232.146 274.791 233.133 273.805 234.356 273.805C235.58 273.805 236.566 274.791 236.566 276.014Z" fill="#9999FF"/>
<path d="M211.773 276.779C209.556 274.562 206.653 273.416 203.75 273.417C200.807 273.378 197.903 274.525 195.687 276.741C191.254 281.173 191.216 288.395 195.686 292.866L208.249 305.428L224.336 289.341L211.773 276.779Z" fill="#FF3162"/>
<path d="M236.898 301.904L224.335 289.342L208.248 305.429L220.811 317.991C223.026 320.207 225.97 321.316 228.873 321.316C231.815 321.354 234.72 320.208 236.936 317.992C241.369 313.559 241.368 306.375 236.898 301.904Z" fill="#44165F"/>
</svg>
