<svg width="317" height="358" viewBox="0 0 317 358" fill="none" xmlns="http://www.w3.org/2000/svg">
<path d="M99.7985 163.017L97.9668 161.078L145.341 116.423L193.287 126.802L239.085 74.6284L279.027 76.8795L310.135 34.0137L312.296 35.5786L280.332 79.6236L240.234 77.3636L194.258 129.741L146.15 119.327L99.7985 163.017Z" fill="url(#paint0_linear_36_48321)"/>
<path d="M200.731 126.765C201.563 130.603 199.123 134.388 195.281 135.219C191.439 136.05 187.651 133.612 186.819 129.774C185.987 125.936 188.427 122.152 192.269 121.321C196.11 120.49 199.899 122.927 200.731 126.765Z" fill="white"/>
<path d="M195.562 136.526C191.007 137.512 186.499 134.611 185.513 130.061C184.526 125.511 187.43 121.007 191.984 120.022C196.539 119.037 201.047 121.937 202.033 126.488C203.019 131.038 200.116 135.541 195.562 136.526ZM192.549 122.628C189.433 123.302 187.446 126.383 188.121 129.497C188.796 132.61 191.88 134.594 194.996 133.92C198.113 133.246 200.099 130.165 199.425 127.052C198.75 123.939 195.666 121.954 192.549 122.628Z" fill="url(#paint1_linear_36_48321)"/>
<path d="M246.606 74.9389C247.438 78.7767 244.998 82.5614 241.156 83.3925C237.314 84.2237 233.526 81.7859 232.694 77.9483C231.862 74.1105 234.302 70.3257 238.144 69.4946C241.986 68.6635 245.774 71.1009 246.606 74.9389Z" fill="white"/>
<path d="M241.435 84.6979C236.88 85.6832 232.372 82.7829 231.386 78.233C230.399 73.6827 233.303 69.1793 237.858 68.1942C242.412 67.2089 246.92 70.1092 247.906 74.6595C248.893 79.2094 245.989 83.7126 241.435 84.6979ZM238.422 70.7998C235.306 71.4739 233.319 74.5551 233.994 77.6685C234.669 80.7819 237.754 82.7662 240.87 82.0919C243.986 81.4179 245.973 78.3366 245.298 75.2234C244.623 72.1098 241.539 70.1258 238.422 70.7998Z" fill="url(#paint2_linear_36_48321)"/>
<path d="M286.256 76.5287C287.088 80.3665 284.648 84.1513 280.807 84.9824C276.965 85.8133 273.176 83.3759 272.344 79.5381C271.513 75.7001 273.952 71.9156 277.794 71.0844C281.636 70.2533 285.425 72.6909 286.256 76.5287Z" fill="white"/>
<path d="M281.087 86.2839C276.532 87.2693 272.024 84.3691 271.038 79.8188C270.052 75.2685 272.955 70.7653 277.51 69.7802C282.065 68.7947 286.573 71.695 287.559 76.2453C288.545 80.7954 285.642 85.2986 281.087 86.2839ZM278.075 72.3858C274.959 73.06 272.972 76.1411 273.647 79.2547C274.322 82.3679 277.406 84.3524 280.522 83.6781C283.639 83.0041 285.625 79.923 284.951 76.8096C284.276 73.696 281.191 71.7118 278.075 72.3858Z" fill="url(#paint3_linear_36_48321)"/>
<path d="M152.669 117.027C153.5 120.865 151.06 124.649 147.219 125.481C143.377 126.311 139.588 123.874 138.756 120.036C137.925 116.198 140.365 112.414 144.206 111.582C148.048 110.751 151.837 113.189 152.669 117.027Z" fill="white"/>
<path d="M147.497 126.788C142.943 127.773 138.435 124.873 137.448 120.323C136.462 115.773 139.365 111.269 143.92 110.284C148.475 109.299 152.983 112.199 153.969 116.749C154.955 121.299 152.052 125.803 147.497 126.788ZM144.485 112.89C141.368 113.564 139.382 116.645 140.057 119.759C140.731 122.872 143.816 124.856 146.932 124.182C150.049 123.508 152.035 120.427 151.36 117.313C150.686 114.2 147.601 112.216 144.485 112.89Z" fill="url(#paint4_linear_36_48321)"/>
<g opacity="0.18">
<path d="M166.061 139.357H136.924V144.962H166.061V139.357Z" fill="url(#paint5_linear_36_48321)"/>
</g>
<path opacity="0.18" d="M192.783 95.7148H163.646V101.32H192.783V95.7148Z" fill="url(#paint6_linear_36_48321)"/>
<g opacity="0.18">
<path d="M248.434 127.525H219.297V133.13H248.434V127.525Z" fill="url(#paint7_linear_36_48321)"/>
</g>
<path opacity="0.18" d="M274.568 48.8086H245.432V54.4136H274.568V48.8086Z" fill="url(#paint8_linear_36_48321)"/>
<g opacity="0.18">
<path d="M316.889 95.7148H287.752V101.32H316.889V95.7148Z" fill="url(#paint9_linear_36_48321)"/>
</g>
<path d="M141.163 19.521L147.014 10.4439L130.78 0L124.928 9.07714L121.657 6.97272L117.581 13.296L114.189 11.1137L30.6994 140.632L34.0916 142.814L27.0898 153.675L49.8665 168.328L56.8684 157.466L60.2607 159.649L143.75 30.1308L140.358 27.9485L144.434 21.6255L141.163 19.521Z" fill="url(#paint10_linear_36_48321)"/>
<path d="M101.176 210.145L100.661 210.228C111.752 199.986 118.578 188.411 121.03 175.581C127.902 139.639 96.1553 107.294 94.8538 105.984L86.4692 118.992C86.7305 119.256 111.545 144.548 106.155 172.743C102.788 190.351 87.7028 205.446 61.3088 217.651L51.9423 212.751L53.7434 209.315L18.0803 190.657L16.1777 194.285L34.6399 203.944L25.9584 220.504L61.2009 238.943L55.7428 255.495H28.294V276.719H142.822V255.495H101.176V210.145Z" fill="url(#paint11_linear_36_48321)"/>
<path d="M26.8076 27.5381C16.5922 25.9593 6.90253 31.2807 2.48792 40.0306C1.41905 42.1489 0.659444 44.4681 0.276468 46.9401C-0.882659 54.4275 1.67616 61.6332 6.58056 66.6813C9.97942 70.1795 14.5045 72.6418 19.6993 73.4442C20.2156 73.5244 20.7328 73.5869 21.2462 73.6321C23.5747 73.8355 25.8617 73.6859 28.052 73.2233C37.24 71.2873 44.7101 63.8613 46.2312 54.0418C48.1935 41.3647 39.4976 29.4991 26.8076 27.5381ZM40.4799 53.1532C39.3402 60.5156 33.7395 66.0824 26.8513 67.5347C25.2095 67.8807 23.4942 67.9934 21.7485 67.84C21.3632 67.8061 20.9756 67.7598 20.5882 67.6998C16.6936 67.0981 13.3013 65.2517 10.7534 62.6293C7.07573 58.8444 5.15681 53.4424 6.02669 47.8291C6.31344 45.9759 6.88328 44.237 7.68387 42.6486C10.9927 36.0888 18.2582 32.0982 25.9176 33.2817C35.4321 34.7521 41.9513 43.6485 40.4799 53.1532Z" fill="#40D5E6"/>
<path d="M10.7536 62.6279L6.58048 66.6799C1.67628 61.6321 -0.882544 54.4261 0.27639 46.9388C0.659366 44.4665 1.41896 42.1476 2.48783 40.0293L7.68398 42.6472C6.88319 44.2358 6.31355 45.9746 6.0268 47.8278C5.15712 53.441 7.07584 58.8432 10.7536 62.6279Z" fill="#1A598C"/>
<path d="M21.748 67.8398L21.2457 73.6317C20.7323 73.5867 20.2152 73.524 19.6988 73.4438C14.504 72.6414 9.97894 70.1794 6.58008 66.6809L10.7532 62.6289C13.3008 65.2513 16.6931 67.0977 20.5879 67.6995C20.9753 67.7596 21.3627 67.806 21.748 67.8398Z" fill="#2273B5"/>
<path d="M28.0539 73.2256C25.8636 73.6881 23.5765 73.8375 21.248 73.6343L21.7504 67.8424C23.4961 67.9958 25.2112 67.8832 26.8532 67.5371L28.0539 73.2256Z" fill="#3788CC"/>
<path d="M32.7235 84.7617H4.21875V88.3448H32.7235V84.7617Z" fill="#3788CC"/>
<path d="M37.2359 92.375H4.21875V95.9581H37.2359V92.375Z" fill="#3788CC"/>
<path d="M225.873 296.411H77.8034C72.6879 296.411 68.541 292.269 68.541 287.158V153.269C68.541 148.158 72.6879 144.016 77.8034 144.016H225.873C230.988 144.016 235.135 148.158 235.135 153.269V287.158C235.135 292.269 230.988 296.411 225.873 296.411Z" fill="#F5F5F5"/>
<path d="M130.282 190.179C133.657 180.749 130.611 170.584 123.401 164.458C121.683 162.997 119.729 161.767 117.568 160.829C117.091 160.623 116.603 160.43 116.107 160.253C111.118 158.47 105.925 158.48 101.231 159.948C94.4577 162.066 88.7246 167.222 86.1502 174.412C85.3003 176.787 84.8579 179.206 84.7859 181.596C84.4889 191.467 90.5142 200.833 100.324 204.338C112.511 208.692 125.923 202.353 130.282 190.179ZM102.299 198.822C94.9434 196.194 90.4255 189.171 90.6491 181.771C90.7037 179.979 91.0353 178.165 91.6725 176.385C93.6018 170.994 97.9004 167.129 102.979 165.541C106.498 164.44 110.392 164.433 114.132 165.769C114.504 165.902 114.869 166.047 115.227 166.202C116.847 166.904 118.313 167.827 119.601 168.922C125.006 173.515 127.29 181.136 124.759 188.206C121.491 197.334 111.436 202.087 102.299 198.822Z" fill="#78C3FF"/>
<path d="M102.98 165.54L101.232 159.947C94.4589 162.066 88.7258 167.222 86.1514 174.412C85.3015 176.786 84.8591 179.205 84.7871 181.595L90.6501 181.77C90.7047 179.978 91.0363 178.164 91.6735 176.385C93.6029 170.993 97.9014 167.128 102.98 165.54Z" fill="#1173C2"/>
<path d="M115.227 166.202L117.568 160.829C117.091 160.623 116.603 160.43 116.107 160.253C111.118 158.47 105.925 158.48 101.23 159.948L102.979 165.541C106.497 164.44 110.391 164.433 114.131 165.769C114.504 165.902 114.869 166.047 115.227 166.202Z" fill="#1487E3"/>
<path d="M123.401 164.459C121.683 162.998 119.728 161.768 117.567 160.83L115.227 166.203C116.847 166.905 118.313 167.828 119.601 168.923L123.401 164.459Z" fill="#4AAFFF"/>
<path d="M204.871 237.703H196.738V265.531H204.871V237.703Z" fill="#4AAFFF"/>
<path d="M192.777 245.508H184.645V265.531H192.777V245.508Z" fill="#4AAFFF"/>
<path d="M216.6 224.805H208.467V265.531H216.6V224.805Z" fill="#4AAFFF"/>
<path d="M215.287 204.461L215.143 203.582L193.681 207.093L186.723 221.907L163.583 223.477L156.088 234.522L138.397 234.084L138.375 234.974L156.552 235.424L164.077 224.336L187.307 222.76L194.289 207.896L215.287 204.461Z" fill="#4AAFFF"/>
<path d="M188.829 167.378H212.418C213.751 167.378 214.831 166.299 214.831 164.967V164.506C214.831 163.175 213.751 162.096 212.418 162.096H188.829C187.497 162.096 186.416 163.175 186.416 164.506V164.967C186.416 166.299 187.497 167.378 188.829 167.378Z" fill="#1487E3"/>
<path d="M188.829 176.593H212.418C213.751 176.593 214.831 175.513 214.831 174.182V173.721C214.831 172.39 213.751 171.311 212.418 171.311H188.829C187.497 171.311 186.416 172.39 186.416 173.721V174.182C186.416 175.513 187.497 176.593 188.829 176.593Z" fill="#4AAFFF"/>
<path d="M188.829 185.808H212.418C213.751 185.808 214.831 184.728 214.831 183.397V182.936C214.831 181.605 213.751 180.525 212.418 180.525H188.829C187.497 180.525 186.416 181.605 186.416 182.936V183.397C186.416 184.728 187.497 185.808 188.829 185.808Z" fill="#4AAFFF"/>
<path d="M147.194 171.945H133.965V171.438H146.984L153.948 164.48H162.478V164.988H154.158L147.194 171.945Z" fill="#4AAFFF"/>
<path d="M159.73 195.03H142.707L137.191 189.519L137.55 189.16L142.918 194.522H159.73V195.03Z" fill="#4AAFFF"/>
<path d="M172.852 167.838H155.207V170.001H172.852V167.838Z" fill="#1487E3"/>
<path d="M164.029 189.893H149.824V192.056H164.029V189.893Z" fill="#1487E3"/>
<path d="M12.082 217.689C16.1395 215.75 20.1775 228.653 20.1775 228.653C27.0735 237.757 36.7112 225.646 35.7688 239.255C34.1197 263.067 63.2058 246.743 49.7871 271.604C36.3683 296.465 61.6354 285.661 53.2964 305.707C44.9575 325.753 55.7659 349.662 43.2187 339.837C43.2187 339.837 32.1708 315.634 20.7771 308.147C9.38352 300.658 27.6031 291.773 24.0382 281.603C18.8603 266.83 6.38495 267.411 15.3801 251.535C24.3752 235.66 -1.71027 224.278 12.082 217.689Z" fill="url(#paint12_linear_36_48321)"/>
<path d="M47.1898 330.728C41.7512 326.907 35.3859 300.278 35.0062 284.418C34.8116 276.294 32.4077 272.909 30.2867 269.923C28.2593 267.069 26.5086 264.603 27.5284 258.943C29.4775 248.125 24.3529 243.456 24.3008 243.41L24.8939 242.734C25.1222 242.934 30.4592 247.75 28.4134 259.102C27.4606 264.391 29.0314 266.603 31.0202 269.403C33.1071 272.341 35.704 275.998 35.9051 284.397C36.3127 301.418 42.8203 326.559 47.7069 329.993L47.1898 330.728Z" fill="white"/>
<path d="M49.2246 332.703C48.5229 332.704 47.7602 332.623 46.9248 332.454C44.8286 332.031 43.4544 330.926 42.8397 329.17C41.3734 324.982 44.7703 318.177 47.5276 314.897C47.5732 314.842 52.1881 309.208 51.6958 301.399C51.6133 300.09 51.4774 298.878 51.3575 297.809C51.0107 294.719 50.7603 292.486 52.089 290.995C53.2599 289.68 55.5206 289.111 59.6479 289.092C66.8861 289.058 69.7481 286.064 72.0476 283.658C73.0243 282.636 73.9467 281.672 75.0674 281.06C78.6746 279.093 82.4954 278.804 84.1524 280.373C84.9393 281.118 85.6038 282.578 84.3001 285.3C83.1089 287.788 81.5635 289.363 80.3218 290.629C78.6513 292.332 77.5477 293.457 78.1221 295.699C78.257 296.226 78.4127 296.757 78.5686 297.291C79.6844 301.103 80.9492 305.425 74.4175 308.357C73.0312 308.979 71.7684 309.475 70.6541 309.912C66.0944 311.699 63.3421 312.778 60.2352 319.33C59.6338 320.598 59.1029 321.8 58.5894 322.963C56.1403 328.509 54.2866 332.703 49.2246 332.703ZM75.4986 281.849C74.5006 282.393 73.6654 283.267 72.6983 284.279C70.2811 286.807 67.2727 289.954 59.6523 289.99C55.8576 290.008 53.7321 290.502 52.7612 291.592C51.6991 292.784 51.9312 294.85 52.2518 297.709C52.3729 298.788 52.5101 300.011 52.594 301.342C53.1096 309.521 48.4177 315.235 48.2177 315.474C45.4886 318.721 42.3972 325.183 43.6892 328.874C44.1916 330.309 45.3404 331.217 47.1036 331.573C53.2549 332.815 54.9534 328.971 57.7671 322.6C58.2828 321.432 58.8163 320.224 59.4229 318.945C62.6826 312.071 65.7231 310.879 70.3262 309.075C71.4308 308.642 72.6831 308.151 74.0493 307.537C79.8667 304.926 78.8169 301.339 77.7059 297.543C77.5469 296.999 77.3885 296.458 77.2511 295.922C76.551 293.189 77.9318 291.782 79.6798 290C80.9373 288.718 82.3622 287.265 83.4892 284.912C84.0798 283.679 84.5671 282.003 83.5338 281.025C82.1747 279.738 78.7199 280.092 75.4986 281.849Z" fill="url(#paint13_linear_36_48321)"/>
<path d="M47.0251 337.891L46.127 337.844C46.1712 337.001 47.3044 317.129 55.2912 311.313C64.0537 304.932 66.8163 298.075 68.1321 293.473C69.6826 288.049 77.5737 286.6 77.9089 286.541L78.0654 287.426C77.9888 287.44 70.3926 288.838 68.9971 293.719C67.645 298.45 64.8077 305.495 55.8212 312.039C48.1767 317.605 47.0357 337.689 47.0251 337.891Z" fill="url(#paint14_linear_36_48321)"/>
<path d="M65.2846 237.741C59.6077 235.797 60.7871 246.727 58.3886 254.814C55.9899 262.902 31.7035 258.343 41.8977 278.594C52.092 298.845 29.0049 285.367 35.9012 303.039C42.7972 320.711 36.5008 339.611 43.9966 334.804C51.4923 329.996 48.2078 307.742 56.0033 305.098C63.7991 302.454 65.0712 299.37 57.3526 292.181C49.634 284.992 77.5778 277.855 70.6817 263.34C63.7855 248.824 71.8433 239.988 65.2846 237.741Z" fill="url(#paint15_linear_36_48321)"/>
<path d="M47.4775 333.958C46.7635 330.934 40.6668 304.309 46.3555 301.091C51.3696 298.255 51.246 287.222 50.4637 276.805C49.7713 267.582 61.6272 263.272 62.1321 263.094L62.4329 263.94C62.3157 263.982 50.7197 268.201 51.3605 276.738C52.1638 287.436 52.2498 298.789 46.7985 301.873C42.4788 304.317 46.4557 325.714 48.3529 333.752L47.4775 333.958Z" fill="white"/>
<path d="M60.3795 324.479L52.2745 355.197H34.1617L26.0566 324.479H60.3795Z" fill="url(#paint16_linear_36_48321)"/>
<path d="M60.3793 324.479C60.3793 324.479 42.5365 327.825 42.5365 355.197H34.1617L26.0566 324.479H60.3793Z" fill="url(#paint17_linear_36_48321)"/>
<path d="M200.176 286.344H128.346V289.375H200.176V286.344Z" fill="#E8E8E8"/>
<path d="M205.96 293.418H128.346V296.45H205.96V293.418Z" fill="#E8E8E8"/>
<path d="M178.707 300.49H128.346V303.522H178.707V300.49Z" fill="#E8E8E8"/>
<path d="M165.747 286.344H128.346V289.375H165.747V286.344Z" fill="#4AAFFF"/>
<path d="M168.759 293.418H128.346V296.45H168.759V293.418Z" fill="#4AAFFF"/>
<path d="M154.568 300.49H128.346V303.522H154.568V300.49Z" fill="#4AAFFF"/>
<path d="M139.697 273.535H111.721V275.194H139.697V273.535Z" fill="#E2D2CA"/>
<path d="M115.47 354.965H117.922L117.922 279.516H115.47L115.47 354.965Z" fill="#706865"/>
<path d="M154.764 273.068H135.318V275.438H154.764V273.068Z" fill="#CCBDB7"/>
<path d="M148.723 252.852H141.359V275.195H148.723V252.852Z" fill="#998E89"/>
<path d="M209.427 275.223H101.684V279.513H209.427V275.223Z" fill="#B59074"/>
<path d="M81.0048 249.257C81.0048 249.257 79.8264 265.766 83.0554 267.741C85.0782 268.979 93.143 273.154 92.9038 273.937C92.6646 274.719 88.35 280.902 88.35 280.902C88.35 280.902 72.8584 270.711 72.3592 267.5C71.8711 264.362 73.1215 243.327 75.2507 242.358C76.8456 241.633 77.6875 242.233 79.6973 243.723C82.5182 245.816 81.0048 249.257 81.0048 249.257Z" fill="#F5F5F5"/>
<path d="M100.064 344.662C100.064 344.662 99.5825 348.002 99.5223 348.504C99.4621 349.005 94.1633 348.208 94.1633 348.208L93.7344 344.231C93.7344 344.231 99.4018 344.19 100.064 344.662Z" fill="#424773"/>
<path d="M99.5824 348.078C99.5824 348.078 101.261 350.091 102.885 350.968C104.509 351.845 107.06 352.193 108.021 353.101C108.714 353.756 110.545 356.579 103.801 356.522C97.0577 356.465 93.8061 356.92 93.0836 355.838C92.3611 354.756 94.1292 347.852 94.1292 347.852C94.1292 347.852 95.7259 348.426 99.5824 348.078Z" fill="#292C47"/>
<path d="M134.011 344.693C134.011 344.693 133.53 348.033 133.469 348.535C133.409 349.037 128.111 348.239 128.111 348.239L127.682 344.263C127.682 344.263 133.349 344.222 134.011 344.693Z" fill="#424773"/>
<path d="M133.53 348.111C133.53 348.111 135.209 350.124 136.832 351.001C138.456 351.878 144.431 352.599 145.392 353.507C146.085 354.163 147.237 356.802 137.749 356.555C131.007 356.38 127.753 356.953 127.031 355.871C126.308 354.789 128.076 347.885 128.076 347.885C128.076 347.885 129.581 348.498 133.53 348.111Z" fill="#292C47"/>
<path d="M82.9757 286.963C82.9757 286.963 102.24 290.219 106.591 290.901C110.942 291.584 134.533 297.449 137.483 299.236C139.832 300.658 136.252 334.821 135.415 347.855H126.123L125.45 308.757C114.299 309.036 106.342 306.151 98.2219 307.383C90.1021 308.615 83.3325 310.366 78.1729 303.452C78.1729 303.452 77.9814 288.473 82.9757 286.963Z" fill="#292C47"/>
<path d="M101.963 347.885L92.9073 347.326L92.0247 308.755C87.2244 308.875 85.5788 308.571 81.6942 308.101L74.3828 291.123C80.7902 292.403 101.32 297.576 104.058 299.234C106.406 300.657 102.799 334.85 101.963 347.885Z" fill="#292C47"/>
<path d="M91.8426 214.822C91.8426 214.822 98.9046 212.872 101.599 218.349C104.293 223.825 103.072 234.207 99.5123 235.184C95.9534 236.161 90.8355 235.036 89.3579 231.627C87.8803 228.219 86.7019 223.375 87.0554 220.239C87.4089 217.102 89.9674 215.571 91.8426 214.822Z" fill="#EEA886"/>
<path d="M97.6663 234.093C97.6663 234.093 97.5887 238.258 98.0483 239.145C98.5078 240.033 88.2148 239.811 88.2148 239.811C88.2148 239.811 89.837 234.809 88.9167 230.548C88.006 226.331 97.6663 234.093 97.6663 234.093Z" fill="#EEA886"/>
<path d="M88.3605 228.974C88.3605 228.974 88.9107 230.091 91.5752 229.911C94.2395 229.731 97.7534 226.52 98.8844 226.233C100.015 225.946 100.083 225.303 100.083 225.303L100.681 226.366L101.84 226.542C101.84 226.542 101.053 223.324 102.769 222.19C104.485 221.057 101.996 211.931 93.3082 214.132C93.3082 214.132 86.6779 215.345 86.589 219.044C86.5001 222.743 87.0734 227.015 88.3605 228.974Z" fill="#3A3F47"/>
<path d="M98.5912 239.039C98.5912 239.039 98.5624 237.343 97.7928 237.18C97.023 237.017 89.7018 236.011 88.7569 236.382L88.3516 238.623C88.3516 238.623 90.1719 239.742 98.5912 239.039Z" fill="#E2D2CA"/>
<path d="M100.71 224.543C100.512 223.153 98.9298 221.556 98.0235 223.722C97.1173 225.887 98.6353 229.041 99.652 228.872C100.669 228.703 100.978 226.43 100.71 224.543Z" fill="#EEA886"/>
<path d="M129.255 259.082C129.251 259.08 129.247 259.08 129.242 259.081C129.296 259.104 129.303 259.106 129.255 259.082Z" fill="#323657"/>
<path d="M89.7847 215.818C89.7847 215.818 81.1747 215.413 88.2821 228.84L89.7847 215.818Z" fill="#3A3F47"/>
<path d="M70.5977 352.46L71.2381 354.26L98.3014 345.883L97.0045 342.238L70.5977 352.46Z" fill="#918783"/>
<path d="M99.2304 315.205H96.1543V344.599H99.2304V315.205Z" fill="#918783"/>
<path d="M106.766 313.643H88.623V315.375H106.766V313.643Z" fill="#5E5854"/>
<path d="M125.024 352.46L124.384 354.26L97.3203 345.883L98.5095 342.01L125.024 352.46Z" fill="#918783"/>
<path d="M105.956 354.068V356.161L97.3203 345.883L98.5095 342.01L105.956 354.068Z" fill="#918783"/>
<path d="M127.554 354.962C127.554 356.358 126.422 357.489 125.025 357.489C123.628 357.489 122.496 356.358 122.496 354.962C122.496 353.567 123.628 352.436 125.025 352.436C126.422 352.436 127.554 353.567 127.554 354.962Z" fill="#BFB2AC"/>
<path d="M106.172 354.962C106.172 356.358 105.039 357.489 103.642 357.489C102.246 357.489 101.113 356.358 101.113 354.962C101.113 353.567 102.246 352.436 103.642 352.436C105.039 352.436 106.172 353.567 106.172 354.962Z" fill="#BFB2AC"/>
<path d="M73.1289 354.962C73.1289 356.358 71.9965 357.489 70.5995 357.489C69.2027 357.489 68.0703 356.358 68.0703 354.962C68.0703 353.567 69.2027 352.436 70.5995 352.436C71.9967 352.436 73.1289 353.567 73.1289 354.962Z" fill="#BFB2AC"/>
<path d="M116.344 313.645H79.2814C77.6471 313.645 76.3223 312.321 76.3223 310.689V310.04C76.3223 308.408 77.6471 307.084 79.2814 307.084H116.344C117.979 307.084 119.303 308.408 119.303 310.04V310.689C119.303 312.321 117.979 313.645 116.344 313.645Z" fill="#E2D2CA"/>
<path d="M195.643 279.516H193.191V354.965H195.643V279.516Z" fill="#706865"/>
<path d="M173.883 263.614H116.2C114.57 263.614 113.248 262.294 113.248 260.666V221.752C113.248 220.123 114.57 218.803 116.2 218.803H173.883C175.513 218.803 176.835 220.123 176.835 221.752V260.666C176.835 262.294 175.513 263.614 173.883 263.614Z" fill="#B8ABA5"/>
<path d="M174.344 221.227H115.738V256.594H174.344V221.227Z" fill="#F5F7FF"/>
<path d="M171.74 259.928C171.74 260.934 170.682 261.749 169.378 261.749C168.073 261.749 167.016 260.934 167.016 259.928C167.016 258.923 168.073 258.107 169.378 258.107C170.682 258.107 171.74 258.923 171.74 259.928Z" fill="#918681"/>
<path d="M158.205 275.281V274.483C158.205 274.483 157.083 269.523 149.145 269.523C141.207 269.523 141.367 275.281 141.367 275.281H158.205Z" fill="#998E89"/>
<path d="M141.272 270.262C141.272 270.262 142.996 270.128 143.628 269.747C144.26 269.366 148.04 266.827 148.928 267.233C149.816 267.64 155.724 269.448 155.519 270.311C155.314 271.174 154.767 271.091 154.35 270.939C153.933 270.786 149.643 269.886 149.264 270.038C149.264 270.038 153.479 271.573 153.495 272.694C153.512 273.815 152.614 274.088 152.214 274.512C151.814 274.935 151.334 275.988 150.248 276.069C149.162 276.149 143.863 274.307 142.772 274.223C141.681 274.139 139.662 274.291 139.525 274.113C139.388 273.936 141.272 270.262 141.272 270.262Z" fill="#EEA886"/>
<path d="M109.878 241.395C104.38 240.43 98.5926 239.044 98.5926 239.044L88.3526 238.627C88.3526 238.627 78.9547 240.694 75.2537 242.364C74.9024 242.522 74.9009 250.739 73.9375 252.894L77.0059 259.361C77.0059 259.361 78.7786 272.172 79.1465 277.87C79.3153 280.485 78.6691 303.147 78.6691 303.147C78.6691 303.147 79.589 303.601 86.5776 304.371C93.5662 305.14 111.028 304.093 111.138 303.268C111.248 302.443 107.756 272.563 107.602 271.015C107.364 268.641 108.288 257.667 108.288 257.667C109.605 259.433 112.962 267.413 116.461 271.209C118.519 273.443 128.71 274.812 130.631 274.876C134.813 275.015 142.441 275.847 142.664 275.441C142.842 275.197 143.329 268.676 142.851 268.517C142.432 268.378 128.267 267.563 124.638 265.64C123.31 264.936 119.341 256.29 119.341 256.29C119.341 256.29 112.912 242.757 109.878 241.395Z" fill="#DBDFF0"/>
<path d="M90.2401 302.489H71.9629C68.8249 302.489 66.2812 299.948 66.2812 296.813V267.154C66.2812 264.019 68.8249 261.479 71.9629 261.479H90.2401C93.378 261.479 95.9218 264.02 95.9218 267.154V296.813C95.9218 299.948 93.378 302.489 90.2401 302.489Z" fill="#E2D2CA"/>
<path d="M90.6686 312.01C86.2994 312.01 82.7549 310.544 80.1329 307.653C74.2078 301.117 75.2724 289.629 75.3207 289.143C75.4108 288.238 76.2197 287.576 77.1244 287.666C78.0304 287.756 78.6921 288.562 78.603 289.467C78.5903 289.598 77.6463 300.011 82.5842 305.447C84.5812 307.646 87.2259 308.715 90.6688 308.715C91.5795 308.715 92.3179 309.453 92.3179 310.363C92.3179 311.272 91.5793 312.01 90.6686 312.01Z" fill="#E2D2CA"/>
<path d="M136.639 225.911H120.318C120.084 225.911 119.895 225.722 119.895 225.489V224.466C119.895 224.232 120.084 224.043 120.318 224.043H136.639C136.872 224.043 137.062 224.232 137.062 224.466V225.489C137.062 225.722 136.872 225.911 136.639 225.911Z" fill="#DFE1E8"/>
<path d="M136.639 229.919H120.318C120.084 229.919 119.895 229.73 119.895 229.497V228.474C119.895 228.24 120.084 228.051 120.318 228.051H136.639C136.872 228.051 137.062 228.24 137.062 228.474V229.497C137.062 229.73 136.872 229.919 136.639 229.919Z" fill="#DFE1E8"/>
<path d="M135.639 253.774H121.318C120.532 253.774 119.895 253.137 119.895 252.352V234.066C119.895 233.281 120.532 232.645 121.318 232.645H135.639C136.425 232.645 137.062 233.281 137.062 234.066V252.352C137.062 253.137 136.425 253.774 135.639 253.774Z" fill="#DFE1E8"/>
<path d="M168.846 253.776H142.78C141.536 253.776 140.527 252.769 140.527 251.526V226.293C140.527 225.05 141.536 224.043 142.78 224.043H168.846C170.091 224.043 171.099 225.05 171.099 226.293V251.526C171.099 252.769 170.091 253.776 168.846 253.776Z" fill="#DFE1E8"/>
<path d="M219.98 292.571C219.98 292.571 229.248 289.953 240.567 292.571L235.136 264.777C235.136 264.777 221.576 279.139 219.98 292.571Z" fill="#B3B7C4"/>
<path d="M190.615 244.656C190.615 244.656 188.535 246.145 187.92 245.958C187.305 245.771 186.271 246.072 185.687 246.011C185.102 245.949 183.574 245.219 182.961 245.375C182.71 245.439 181.319 246.429 180.795 246.504C180.272 246.579 179.195 246.603 179.267 247.048C179.339 247.493 180.307 247.733 180.307 247.733C180.307 247.733 179.834 247.83 179.775 248.242C179.661 249.044 180.081 249.324 180.081 249.324C180.081 249.324 179.659 249.733 179.696 250.077C179.778 250.836 180.193 251.096 180.193 251.096C180.193 251.096 180.012 251.495 180.182 251.986C180.399 252.613 181.06 252.707 181.06 252.707C181.06 252.707 181.149 253.557 181.618 253.671C182.086 253.786 182.493 253.62 182.88 253.61C183.268 253.6 186.598 252.45 188.579 250.721C190.561 248.992 192.852 247.98 192.852 247.98L190.615 244.656Z" fill="#EEA987"/>
<path d="M233.279 187.79C233.279 187.79 236.386 185.8 239.187 189.339C241.988 192.878 240.98 196.28 240.395 199.458C239.814 202.608 236.99 209.819 238.19 212.995C239.39 216.171 237.857 217.825 237.857 217.825C237.857 217.825 228.224 220.289 229.347 205.815C230.47 191.342 233.279 187.79 233.279 187.79Z" fill="#FCCCA2"/>
<path d="M229.152 215.125C229.152 215.125 225.484 214.623 223.022 216.466C220.56 218.31 218.876 221.763 218.124 222.846C217.372 223.93 208.582 233.622 208.145 233.798C207.707 233.973 202.235 236.989 198.55 239.426C194.865 241.863 189.059 244.797 189.059 244.797L192.208 248.656C192.208 248.656 207.725 243.106 210.952 240.106C214.4 236.902 230.342 220.999 230.342 220.999C230.342 220.999 234.349 217.765 229.152 215.125Z" fill="#DBDFF0"/>
<path d="M202.465 349.932C202.465 349.932 198.497 355.267 199.042 356.113C199.586 356.959 203.758 357.079 206.297 356.113C208.837 355.147 208.898 348.893 210.046 346.207C210.528 345.082 209.498 341.762 208.051 341.521C206.604 341.28 205.03 341.987 205.03 341.987C205.03 341.987 206.531 345.772 202.465 349.932Z" fill="#1D3B54"/>
<path d="M205.006 341.944C205.006 341.944 204.171 344.216 203.866 346.386C203.613 348.186 201.04 352.006 201.16 352.489C201.281 352.972 204.547 353.41 205.877 352.164C207.207 350.919 208.063 347.295 208.356 345.128C208.629 343.11 208.973 342.113 208.973 342.113C208.973 342.113 206.276 340.616 205.006 341.944Z" fill="#EEA886"/>
<path d="M210.153 345.738V351.325H209.428V347.007L210.153 345.738Z" fill="#1D3B54"/>
<path d="M236.999 350.02C236.999 350.02 233.175 355.266 233.719 356.112C234.263 356.958 238.436 357.079 240.975 356.112C243.515 355.146 243.575 348.892 244.724 346.206C245.205 345.081 244.175 341.761 242.728 341.52C241.281 341.279 239.584 342.038 239.584 342.038C239.584 342.038 241.065 345.86 236.999 350.02Z" fill="#1D3B54"/>
<path d="M239.583 342.037C239.583 342.037 239.281 344.513 238.797 346.265C238.313 348.016 235.713 352.003 235.834 352.487C235.955 352.97 239.22 353.407 240.551 352.162C241.881 350.916 242.909 347.309 243.03 345.126C243.151 342.942 242.727 341.518 242.727 341.518C242.727 341.518 240.853 340.707 239.583 342.037Z" fill="#EEA886"/>
<path d="M244.829 345.738V351.325H244.104V347.007L244.829 345.738Z" fill="#1D3B54"/>
<path d="M220.472 255.173C220.472 255.173 217.067 270.995 216.285 274.979C215.503 278.962 213.314 298.255 213.08 301.536C212.845 304.816 209.527 317.177 209.684 318.349C209.84 319.521 204.578 342.77 204.578 342.77C204.578 342.77 209.994 344.241 210.906 343.25C211.68 342.408 219.461 321.148 219.461 315.29C219.461 307.192 225.576 296.882 226.349 295.071C233.534 278.241 231.999 272.835 232.937 271.741C233.875 270.648 233.957 272.417 234.504 274.838C235.051 277.259 236.223 298.193 236.927 300.848C237.631 303.504 237.084 312.486 237.476 317.017C237.866 321.547 238.316 341.845 238.316 341.845C238.316 341.845 242.239 342.747 244.103 341.878C244.641 341.628 245.997 319.267 246.075 313.877C246.153 308.487 246.237 301.055 246.388 298.724C247.836 276.39 249.973 273.22 245.789 257.394C237.763 227.036 220.472 255.173 220.472 255.173Z" fill="#3B3B40"/>
<path d="M229.284 213.018C229.284 213.018 225.731 214.694 224.497 214.941C223.263 215.187 218.476 221.399 217.637 223.667C216.798 225.935 217.637 229.337 219.364 233.331C221.092 237.324 219.463 238.656 220.253 242.65C221.042 246.643 220.293 256.004 220.145 258.222C219.997 260.441 238.305 263.259 245.343 256.176C245.343 256.176 241.524 249.01 240.931 248.024C240.339 247.038 240.833 241.663 241.376 240.283C241.919 238.902 245.532 227.162 245.532 227.162C245.532 227.162 248.488 218.146 245.818 216.075C243.498 214.275 237.176 213.634 236.041 213.239C234.906 212.845 231.603 212.673 229.284 213.018Z" fill="#E8734D"/>
<path d="M228.149 220.93L225.99 218.404L227.865 211.754C227.865 211.754 228.495 215.457 228.149 220.93Z" fill="#D6C5BE"/>
<path d="M227.59 208.921C227.59 208.921 228.299 215.434 228.151 217.554C228.151 217.554 231.843 221.25 236.043 213.239C236.043 213.239 234.276 209.937 235.606 205.437C236.936 200.938 227.59 208.921 227.59 208.921Z" fill="#EEA886"/>
<path d="M228.152 217.553V220.93L232.402 217.758L228.152 217.553Z" fill="#EEA886"/>
<path d="M228.152 220.931L229.917 218.749L235.86 212.832L237.783 214.682L228.152 220.931Z" fill="#D6C5BE"/>
<path d="M225.99 218.406L223.27 219.157L227.865 211.756L225.99 218.406Z" fill="#FAE6DE"/>
<path d="M229.914 218.751L232.399 222.005L237.476 213.345L235.709 212.441L229.914 218.751Z" fill="#FAE6DE"/>
<path d="M227.736 210.354L227.857 211.643C227.857 211.643 230.793 212.208 234.633 207.529C234.633 207.529 231.911 210.846 227.736 210.354Z" fill="#A77860"/>
<path d="M228.48 210.449C227.324 210.407 224.096 210.03 222.504 202.603C220.559 193.529 224.857 188.822 228.537 187.951C232.217 187.078 235.612 188.356 237.496 193.099C237.496 193.099 238.874 196.797 236.638 203.384C234.403 209.971 229.718 210.495 228.48 210.449Z" fill="#EEA987"/>
<path d="M231.434 193.835C231.434 193.835 226.492 194.142 221.898 201.037C221.898 201.037 219.748 192.741 225.368 188.955C230.989 185.169 234.925 188.424 236.296 190.075C236.296 190.075 238.263 190.526 238.325 194.254C238.387 197.982 240.896 203.607 235.39 206.275C235.39 206.275 235.915 202.02 235.43 201.047C234.945 200.074 233.263 200.731 231.434 193.835Z" fill="#FCCCA2"/>
<path d="M235.156 199.395C235.405 198.75 236.084 198.49 236.458 199.182C236.832 199.873 236.387 202.556 235.389 202.85C234.392 203.143 234.651 200.702 235.156 199.395Z" fill="#EEA987"/>
<path d="M237.477 213.344C237.477 213.344 231.895 220.014 231.31 234.039C230.724 248.063 235.707 292.853 235.396 298.318L249.873 291.319C249.873 291.319 249.789 268.719 244.942 254.501C239.255 237.818 245.723 232.729 246.314 222.467C246.314 222.467 246.045 214.954 241.853 214.272C237.917 213.631 237.477 213.344 237.477 213.344Z" fill="#DBDFF0"/>
<path d="M226.258 214.344C226.258 214.344 223.987 214.608 223.27 215.455C222.553 216.303 218.066 221.469 217.738 222.99C217.411 224.512 216.365 225.646 218.518 232.732C220.445 239.076 219.96 246.184 219.561 249.03C219.163 251.875 212.231 290.332 212.611 291.318C212.991 292.305 215.877 294.657 215.877 294.657C215.877 294.657 222.085 256.713 222.02 250.377C221.954 244.04 219.47 225.172 226.258 214.344Z" fill="#DBDFF0"/>
<path d="M178.771 234.368L183.612 259.265L199.609 256.162L195.393 231.143L178.771 234.368Z" fill="#616161"/>
<path d="M179.971 235.579L184.27 257.692L198.477 254.935L194.733 232.715L179.971 235.579Z" fill="#E0CEC7"/>
<path d="M184.478 235.276L184.176 233.724L189.919 232.609L190.446 234.118L184.478 235.276Z" fill="#616161"/>
<path d="M180.572 247.53C180.572 247.53 183.437 246.596 184.285 247.133C185.134 247.67 184.118 248.063 184.118 248.063C184.118 248.063 185.117 247.658 185.511 248.404C185.906 249.15 184.693 249.549 184.693 249.549C184.693 249.549 185.529 249.44 185.634 250.316C185.739 251.193 184.662 251.298 184.662 251.298C184.662 251.298 185.912 251.791 185.123 252.589C183.792 253.936 181.661 253.728 181.661 253.728C181.661 253.728 180.993 253.648 180.951 252.797C180.951 252.797 179.688 252.534 180.11 251.116C180.11 251.116 178.993 250.102 179.973 249.328C179.973 249.328 178.94 248.037 180.572 247.53Z" fill="#DB9C7C"/>
<path d="M249.915 261.824C249.915 261.824 250.492 264.518 249.313 266.339C248.862 267.035 249.296 272.301 249.336 272.958C249.37 273.509 249.867 273.98 250.072 273.866C250.277 273.752 250.321 270.838 250.631 269.898C250.892 269.109 251.123 268.812 251.266 269.064C251.408 269.316 250.924 273.547 250.647 274.947C250.371 276.348 250.717 279.3 251.445 278.823C252.173 278.347 254.606 271.793 254.426 269.604C254.245 267.416 253.417 264.682 253.417 264.682L249.915 261.824Z" fill="#EEA886"/>
<path d="M238.33 213.739C238.33 213.739 244.111 213.384 247.011 216.754C249.91 220.125 249.752 224.128 250.49 225.865C251.228 227.604 252.915 235.082 253.284 236.293C253.653 237.505 254.013 244.313 254.54 249.79C255.068 255.267 254.961 265.495 254.961 265.495L249.43 264.493C249.43 264.493 249.207 254.744 249.067 249.091C248.926 243.438 244.322 233.45 242.583 229.078C240.842 224.707 233.916 216.482 238.33 213.739Z" fill="#DBDFF0"/>
<path d="M109.458 70.4332L108.758 69.9808L137.352 25.834L138.052 26.2862L109.458 70.4332Z" fill="url(#paint18_linear_36_48321)"/>
<path d="M152.385 46.233H172.363V44.834H152.385V46.233Z" fill="url(#paint19_linear_36_48321)"/>
<path d="M152.385 53.3528H172.363V47.4707H152.385V53.3528Z" fill="url(#paint20_linear_36_48321)"/>
<path d="M143 56.2091H154.786V55.3301H143V56.2091Z" fill="url(#paint21_linear_36_48321)"/>
<path d="M143 58.9723H154.786V56.5918H143V58.9723Z" fill="url(#paint22_linear_36_48321)"/>
<path d="M175.645 37.293H176.524V53.7733H175.645V37.293Z" fill="url(#paint23_linear_36_48321)"/>
<defs>
<linearGradient id="paint0_linear_36_48321" x1="331.421" y1="26.4001" x2="144.434" y2="139.567" gradientUnits="userSpaceOnUse">
<stop stop-color="#40D5E6"/>
<stop offset="1" stop-color="#5577FF"/>
</linearGradient>
<linearGradient id="paint1_linear_36_48321" x1="200.38" y1="123.01" x2="187.176" y2="133.551" gradientUnits="userSpaceOnUse">
<stop stop-color="#4F90F8"/>
<stop offset="1" stop-color="#5577FF"/>
</linearGradient>
<linearGradient id="paint2_linear_36_48321" x1="246.879" y1="72.0772" x2="232.421" y2="80.8276" gradientUnits="userSpaceOnUse">
<stop stop-color="#49ACF1"/>
<stop offset="1" stop-color="#5577FF"/>
</linearGradient>
<linearGradient id="paint3_linear_36_48321" x1="286.532" y1="73.6632" x2="272.073" y2="82.4136" gradientUnits="userSpaceOnUse">
<stop stop-color="#48B3EF"/>
<stop offset="1" stop-color="#5577FF"/>
</linearGradient>
<linearGradient id="paint4_linear_36_48321" x1="152.942" y1="114.167" x2="138.483" y2="122.918" gradientUnits="userSpaceOnUse">
<stop stop-color="#40D5E6"/>
<stop offset="1" stop-color="#5577FF"/>
</linearGradient>
<linearGradient id="paint5_linear_36_48321" x1="136.924" y1="142.16" x2="166.061" y2="142.16" gradientUnits="userSpaceOnUse">
<stop stop-color="#D5E4FF"/>
<stop offset="1" stop-color="#EDFFFE"/>
</linearGradient>
<linearGradient id="paint6_linear_36_48321" x1="163.647" y1="98.5174" x2="192.784" y2="98.5174" gradientUnits="userSpaceOnUse">
<stop stop-color="#D5E4FF"/>
<stop offset="1" stop-color="#EDFFFE"/>
</linearGradient>
<linearGradient id="paint7_linear_36_48321" x1="219.297" y1="130.328" x2="248.434" y2="130.328" gradientUnits="userSpaceOnUse">
<stop stop-color="#40D5E6"/>
<stop offset="1" stop-color="#5577FF"/>
</linearGradient>
<linearGradient id="paint8_linear_36_48321" x1="271.911" y1="44.4173" x2="248.102" y2="58.8264" gradientUnits="userSpaceOnUse">
<stop stop-color="#40D5E6"/>
<stop offset="1" stop-color="#5577FF"/>
</linearGradient>
<linearGradient id="paint9_linear_36_48321" x1="287.752" y1="98.5174" x2="316.889" y2="98.5174" gradientUnits="userSpaceOnUse">
<stop stop-color="#40D5E6"/>
<stop offset="1" stop-color="#5577FF"/>
</linearGradient>
<linearGradient id="paint10_linear_36_48321" x1="120.764" y1="9.7543" x2="15.5711" y2="247.431" gradientUnits="userSpaceOnUse">
<stop stop-color="#40D5E6"/>
<stop offset="1" stop-color="#5577FF"/>
</linearGradient>
<linearGradient id="paint11_linear_36_48321" x1="169.96" y1="31.5294" x2="64.7658" y2="269.207" gradientUnits="userSpaceOnUse">
<stop stop-color="#40D5E6"/>
<stop offset="1" stop-color="#5577FF"/>
</linearGradient>
<linearGradient id="paint12_linear_36_48321" x1="7.97077" y1="279.803" x2="55.0251" y2="279.803" gradientUnits="userSpaceOnUse">
<stop stop-color="#40D5E6"/>
<stop offset="1" stop-color="#5577FF"/>
</linearGradient>
<linearGradient id="paint13_linear_36_48321" x1="42.4865" y1="306.034" x2="85.0385" y2="306.034" gradientUnits="userSpaceOnUse">
<stop stop-color="#40D5E6"/>
<stop offset="1" stop-color="#5577FF"/>
</linearGradient>
<linearGradient id="paint14_linear_36_48321" x1="46.1269" y1="312.216" x2="78.0652" y2="312.216" gradientUnits="userSpaceOnUse">
<stop stop-color="#40D5E6"/>
<stop offset="1" stop-color="#5577FF"/>
</linearGradient>
<linearGradient id="paint15_linear_36_48321" x1="34.5917" y1="286.538" x2="71.7867" y2="286.538" gradientUnits="userSpaceOnUse">
<stop stop-color="#40D5E6"/>
<stop offset="1" stop-color="#5577FF"/>
</linearGradient>
<linearGradient id="paint16_linear_36_48321" x1="26.0567" y1="339.838" x2="60.3795" y2="339.838" gradientUnits="userSpaceOnUse">
<stop stop-color="#FF9340"/>
<stop offset="1" stop-color="#FFCE45"/>
</linearGradient>
<linearGradient id="paint17_linear_36_48321" x1="26.0565" y1="339.838" x2="60.3793" y2="339.838" gradientUnits="userSpaceOnUse">
<stop stop-color="#C97332"/>
<stop offset="1" stop-color="#FFCE45"/>
</linearGradient>
<linearGradient id="paint18_linear_36_48321" x1="108.758" y1="48.1336" x2="138.052" y2="48.1336" gradientUnits="userSpaceOnUse">
<stop stop-color="#253380"/>
<stop offset="1" stop-color="#2D899E"/>
</linearGradient>
<linearGradient id="paint19_linear_36_48321" x1="171.214" y1="23.6922" x2="153.074" y2="68.6031" gradientUnits="userSpaceOnUse">
<stop stop-color="#40D5E6"/>
<stop offset="1" stop-color="#5577FF"/>
</linearGradient>
<linearGradient id="paint20_linear_36_48321" x1="172.911" y1="24.377" x2="154.771" y2="69.289" gradientUnits="userSpaceOnUse">
<stop stop-color="#40D5E6"/>
<stop offset="1" stop-color="#5577FF"/>
</linearGradient>
<linearGradient id="paint21_linear_36_48321" x1="163.188" y1="20.4488" x2="145.048" y2="65.3617" gradientUnits="userSpaceOnUse">
<stop stop-color="#40D5E6"/>
<stop offset="1" stop-color="#5577FF"/>
</linearGradient>
<linearGradient id="paint22_linear_36_48321" x1="163.888" y1="20.7317" x2="145.748" y2="65.6425" gradientUnits="userSpaceOnUse">
<stop stop-color="#40D5E6"/>
<stop offset="1" stop-color="#5577FF"/>
</linearGradient>
<linearGradient id="paint23_linear_36_48321" x1="182.998" y1="28.4508" x2="164.858" y2="73.3626" gradientUnits="userSpaceOnUse">
<stop stop-color="#40D5E6"/>
<stop offset="1" stop-color="#5577FF"/>
</linearGradient>
</defs>
</svg>
