<svg width="54" height="54" viewBox="0 0 54 54" fill="none" xmlns="http://www.w3.org/2000/svg">
<g id="productivity 1">
<g id="Group">
<path id="Vector" d="M27.7344 49.0022L27.7283 47.7794C28.1196 47.7794 28.5232 47.7671 28.9145 47.7427L28.9878 48.9655C28.5722 48.9839 28.1502 49.0022 27.7344 49.0022ZM26.4749 48.9717C26.0592 48.9472 25.6373 48.9166 25.2215 48.8678L25.356 47.6511C25.7473 47.6939 26.1448 47.7244 26.5361 47.749L26.4749 48.9717ZM30.2413 48.8493L30.1007 47.6327C30.492 47.5898 30.8895 47.5288 31.2747 47.4615L31.4826 48.666C31.0729 48.7393 30.651 48.8005 30.2413 48.8493ZM23.9803 48.6904C23.5706 48.6231 23.1549 48.5375 22.7451 48.4458L23.0203 47.2536C23.4055 47.3392 23.7968 47.4187 24.1819 47.4859L23.9803 48.6904ZM32.7115 48.4152L32.4302 47.223C32.8154 47.1313 33.2006 47.0335 33.5797 46.9173L33.9283 48.0912C33.5247 48.2135 33.1211 48.3236 32.7115 48.4152ZM21.5286 48.1279C21.1249 48.0117 20.7276 47.8834 20.3302 47.7428L20.7399 46.5871C21.1129 46.7216 21.4919 46.844 21.871 46.954L21.5286 48.1279ZM35.1205 47.7061L34.7047 46.5566C35.0778 46.4221 35.4446 46.2753 35.8114 46.1224L36.2884 47.2475C35.9092 47.4124 35.5118 47.5654 35.1205 47.7061ZM19.1624 47.2903C18.7772 47.1314 18.392 46.954 18.019 46.7707L18.5571 45.6701C18.9117 45.8413 19.2724 46.0064 19.6393 46.1593L19.1624 47.2903ZM37.4316 46.7216L36.8874 45.6272C37.242 45.4498 37.5906 45.2665 37.933 45.0708L38.5383 46.1347C38.1776 46.3426 37.8047 46.5382 37.4316 46.7216ZM16.9061 46.1835C16.5454 45.9818 16.1785 45.7616 15.83 45.5354L16.4903 44.5083C16.8204 44.7222 17.1629 44.924 17.5054 45.1197L16.9061 46.1835ZM39.6145 45.4865L38.9481 44.4593C39.2782 44.2453 39.6084 44.0191 39.9264 43.7867L40.6479 44.7712C40.3115 45.0158 39.963 45.2602 39.6145 45.4865ZM14.7845 44.8324C14.4481 44.5878 14.1119 44.331 13.7879 44.068L14.5582 43.1203C14.864 43.371 15.1819 43.6095 15.4998 43.8418L14.7845 44.8324ZM41.6384 44.0007L40.8619 43.0592C41.1676 42.8085 41.4672 42.5456 41.7546 42.2828L42.5861 43.1816C42.2742 43.4627 41.9562 43.7379 41.6384 44.0007ZM12.8402 43.2486C12.5344 42.9674 12.2288 42.6739 11.9352 42.3743L12.8096 41.5183C13.0847 41.7996 13.3721 42.0747 13.6656 42.3437L12.8402 43.2486ZM43.4787 42.301L42.5982 41.451C42.8734 41.1698 43.1424 40.8702 43.3992 40.5767L44.3224 41.3776C44.0534 41.6896 43.7721 42.0014 43.4787 42.301ZM11.0854 41.4511C10.8102 41.1393 10.5412 40.8092 10.2845 40.4852L11.2504 39.7331C11.4889 40.0449 11.7456 40.3506 12.0024 40.6502L11.0854 41.4511ZM45.1235 40.3994L44.1513 39.6535C44.3897 39.3417 44.6283 39.0177 44.8484 38.6936L45.8573 39.3845C45.6247 39.7268 45.374 40.0693 45.1235 40.3994ZM9.54459 39.47C9.30613 39.1276 9.0799 38.773 8.85978 38.4184L9.9054 37.7825C10.1072 38.1189 10.3273 38.4551 10.5474 38.7791L9.54459 39.47ZM46.5358 38.3206L45.4902 37.6909C45.6919 37.3545 45.8876 37.0061 46.071 36.6576L47.1532 37.2263C46.9577 37.5991 46.7498 37.9659 46.5358 38.3206ZM8.24216 37.3239C8.04652 36.9571 7.85699 36.5781 7.68581 36.1989L8.79861 35.6853C8.96367 36.0399 9.14107 36.4006 9.32437 36.7491L8.24216 37.3239ZM47.7036 36.1011L46.5908 35.5936C46.7559 35.2329 46.9088 34.866 47.0494 34.4992L48.1867 34.9394C48.046 35.3307 47.8809 35.722 47.7036 36.1011ZM7.19064 35.0495C7.03771 34.6643 6.89712 34.2607 6.76265 33.8694L7.92428 33.4904C8.04662 33.8634 8.18109 34.2424 8.32791 34.6093L7.19064 35.0495ZM48.6147 33.7533L47.453 33.3803C47.5754 33.0072 47.6854 32.6221 47.7832 32.2369L48.9694 32.5426C48.8591 32.9523 48.743 33.3558 48.6147 33.7533ZM6.41407 32.6589C6.31019 32.2552 6.21231 31.8457 6.12667 31.4361L7.325 31.1915C7.40442 31.5766 7.49618 31.9679 7.59395 32.3471L6.41407 32.6589ZM49.2505 31.3198L48.0522 31.0814C48.1316 30.6962 48.199 30.3049 48.254 29.9136L49.4646 30.0848C49.4034 30.4943 49.33 30.9102 49.2505 31.3198ZM5.90666 30.2009C5.84549 29.7913 5.79666 29.3694 5.75985 28.9536L6.97654 28.8436C7.01324 29.2349 7.05595 29.6324 7.11713 30.0237L5.90666 30.2009ZM49.599 28.8313L48.3823 28.7334C48.4129 28.3421 48.4374 27.9446 48.4435 27.5472L49.6663 27.5778C49.6541 27.9937 49.6358 28.4155 49.599 28.8313ZM5.68655 27.7002C5.68043 27.4617 5.67432 27.2171 5.67432 26.9786C5.67432 26.8012 5.67432 26.6241 5.68043 26.4467L6.90324 26.4772C6.89712 26.6423 6.89712 26.8136 6.89712 26.9786C6.89712 27.2049 6.90324 27.4372 6.90935 27.6635L5.68655 27.7002ZM48.4373 26.3611C48.425 25.9698 48.4006 25.5662 48.364 25.1749L48.3579 25.1321L49.5745 25.0221L49.5807 25.0649C49.6174 25.4807 49.6418 25.9025 49.654 26.3183L48.4373 26.3611ZM6.96441 25.2911L5.74772 25.1934C5.78443 24.7776 5.82714 24.3557 5.88831 23.9461L7.09899 24.1173C7.03771 24.5025 6.99499 24.8937 6.96441 25.2911ZM48.2233 23.9582C48.1682 23.5669 48.0949 23.1757 48.0154 22.7904L49.2137 22.5458C49.2994 22.9554 49.3727 23.3712 49.4338 23.7809L48.2233 23.9582ZM7.29452 22.9433L6.09619 22.7048C6.17561 22.2952 6.27359 21.8794 6.37748 21.4759L7.56368 21.7817C7.45958 22.1667 7.36783 22.552 7.29452 22.9433ZM47.7463 21.6348C47.6425 21.2557 47.5324 20.8704 47.41 20.4975L48.5716 20.1184C48.7 20.5158 48.8223 20.9194 48.9262 21.323L47.7463 21.6348ZM7.88757 20.6443L6.72594 20.2714C6.8543 19.874 6.99489 19.4765 7.14782 19.0852L8.2912 19.5254C8.14439 19.8923 8.00992 20.2651 7.88757 20.6443ZM47.0066 19.3848C46.8598 19.018 46.7071 18.6511 46.5419 18.2965L47.6547 17.7828C47.8321 18.1619 47.9972 18.5472 48.1499 18.9385L47.0066 19.3848ZM8.74356 18.4248L7.63076 17.9173C7.80193 17.5383 7.99146 17.1591 8.18099 16.7862L9.2632 17.3548C9.08601 17.7095 8.90862 18.0702 8.74356 18.4248ZM46.016 17.2326C45.8326 16.884 45.6309 16.5417 45.4291 16.2055L46.4747 15.5696C46.6887 15.9242 46.9027 16.2911 47.0984 16.6579L46.016 17.2326ZM9.85034 16.3276L8.80473 15.6978C9.01872 15.3432 9.24495 14.9825 9.48342 14.6401L10.4923 15.331C10.2661 15.6489 10.052 15.9852 9.85034 16.3276ZM44.781 15.2087C44.5548 14.8847 44.3224 14.5606 44.0778 14.2548L45.0438 13.5028C45.3006 13.8329 45.5513 14.1693 45.7837 14.5178L44.781 15.2087ZM11.1831 14.3649L10.211 13.619C10.4617 13.2889 10.7307 12.9587 11.006 12.6469L11.9354 13.4479C11.6723 13.7414 11.4216 14.0532 11.1831 14.3649ZM43.3257 13.3378C43.0689 13.0442 42.7938 12.7508 42.5187 12.4695L43.393 11.6136C43.6866 11.9131 43.9738 12.2188 44.243 12.5368L43.3257 13.3378ZM12.7302 12.5674L11.8497 11.7174C12.1371 11.4179 12.4429 11.1243 12.7485 10.837L13.58 11.7358C13.2926 12.0049 13.0052 12.28 12.7302 12.5674ZM41.6689 11.6441C41.3754 11.3812 41.0758 11.1184 40.7701 10.8677L41.5405 9.91995C41.8645 10.1829 42.1825 10.458 42.4943 10.7393L41.6689 11.6441ZM14.4726 10.9593L13.6961 10.0178C14.0201 9.75489 14.3504 9.49206 14.6867 9.24748L15.4082 10.2319C15.0901 10.4641 14.7784 10.7086 14.4726 10.9593ZM39.8284 10.1522C39.5104 9.91984 39.1803 9.69973 38.844 9.48573L39.5043 8.45246C39.8529 8.67869 40.2075 8.91715 40.5437 9.15562L39.8284 10.1522ZM16.3864 9.55302L15.72 8.52586C16.0686 8.29963 16.4293 8.07952 16.79 7.87164L17.3952 8.9355C17.0529 9.13727 16.7166 9.33903 16.3864 9.55302ZM37.823 8.87444C37.4806 8.67879 37.126 8.49538 36.7714 8.32421L37.3095 7.22364C37.6825 7.40705 38.0616 7.6027 38.4223 7.80446L37.823 8.87444ZM18.4408 8.38517L17.8965 7.29072C18.2696 7.10731 18.6548 6.93002 19.0338 6.76496L19.5107 7.88999C19.1561 8.04282 18.7893 8.20798 18.4408 8.38517ZM35.6952 7.82882C35.3284 7.67589 34.9553 7.5353 34.5885 7.40083L34.9982 6.24521C35.3894 6.3858 35.787 6.53873 36.1721 6.69767L35.6952 7.82882ZM20.6175 7.45589L20.2018 6.30638C20.5931 6.16579 20.9967 6.03122 21.394 5.9151L21.7426 7.08907C21.3696 7.19907 20.9905 7.32131 20.6175 7.45589ZM33.4512 7.04002C33.0722 6.93002 32.6869 6.83214 32.3018 6.74049L32.5769 5.54828C32.9866 5.64003 33.3963 5.75004 33.7936 5.86626L33.4512 7.04002ZM22.892 6.78331L22.6107 5.5911C23.0143 5.49322 23.4301 5.4137 23.8396 5.3404L24.0536 6.54495C23.6684 6.61214 23.2771 6.69156 22.892 6.78331ZM31.1401 6.51426C30.7488 6.44697 30.3575 6.39192 29.9662 6.3492L30.1006 5.13252C30.5164 5.17534 30.9321 5.23641 31.3419 5.30369L31.1401 6.51426ZM25.2277 6.36745L25.0871 5.15077C25.3072 5.1263 25.5273 5.10183 25.7413 5.08348C25.9369 5.06513 26.1387 5.05289 26.3344 5.04066L26.4077 6.26346C26.2182 6.27569 26.0287 6.28793 25.8452 6.30628C25.6434 6.32474 25.4355 6.34298 25.2277 6.36745ZM28.7861 6.25144C28.4254 6.23308 28.0584 6.22085 27.6977 6.22085H27.6L27.5938 4.99805H27.6977C28.0768 4.99805 28.4681 5.01028 28.8472 5.02863L28.7861 6.25144Z" fill="#122436"/>
<path id="Vector_2" d="M11.8924 22.0266L10.7246 21.6598C10.7858 21.4581 10.853 21.2562 10.9264 21.0605L12.0759 21.4702C12.0145 21.6538 11.9533 21.8433 11.8924 22.0266Z" fill="#122436"/>
<path id="Vector_3" d="M12.51 20.3811L11.3911 19.8919C11.5562 19.5128 11.7397 19.1337 11.9353 18.7608L13.0175 19.3294C12.834 19.6779 12.6629 20.0265 12.51 20.3811ZM13.5922 18.3206L12.5528 17.6786C12.773 17.3241 13.0053 16.9755 13.2499 16.6393L14.2405 17.3545C14.0141 17.6663 13.794 17.9904 13.5922 18.3206ZM40.4827 16.5353C40.2381 16.2357 39.9752 15.9421 39.7124 15.6609L40.5989 14.8233C40.8863 15.1228 41.1615 15.4408 41.4243 15.7648L40.4827 16.5353ZM14.9556 16.4252L14.0141 15.6426C14.277 15.3246 14.5583 15.0067 14.8456 14.7071L15.7261 15.5508C15.4631 15.8382 15.2002 16.1316 14.9556 16.4252ZM38.8808 14.8354C38.5934 14.5725 38.2999 14.3158 37.9942 14.0772L38.7585 13.1234C39.0825 13.3802 39.4005 13.6553 39.7063 13.9365L38.8808 14.8354ZM16.5637 14.7438L15.7443 13.8388C16.0501 13.5576 16.3741 13.2886 16.6982 13.0318L17.4564 13.9918C17.1508 14.2301 16.851 14.4808 16.5637 14.7438ZM37.0648 13.3803C36.7468 13.1602 36.4167 12.9462 36.0804 12.7505L36.704 11.6989C37.0586 11.9129 37.4193 12.1391 37.7617 12.3715L37.0648 13.3803ZM18.398 13.3007L17.7132 12.2918C18.0557 12.0595 18.4164 11.8333 18.771 11.6254L19.3824 12.6831C19.0522 12.8728 18.7159 13.0868 18.398 13.3007ZM35.0532 12.1941C34.7046 12.0229 34.35 11.8577 33.9893 11.711L34.4601 10.5799C34.8453 10.7388 35.2245 10.9162 35.5973 11.0995L35.0532 12.1941ZM20.4157 12.1329L19.8776 11.0323C20.2507 10.8489 20.6359 10.6777 21.021 10.5248L21.4796 11.656C21.1189 11.8028 20.7642 11.9617 20.4157 12.1329ZM32.901 11.3014C32.5342 11.179 32.1551 11.069 31.7821 10.9713L32.0878 9.78506C32.4915 9.88895 32.8949 10.0052 33.2924 10.1396L32.901 11.3014ZM22.574 11.2586L22.201 10.0969C22.5984 9.96858 23.0019 9.85235 23.4056 9.75447L23.6991 10.9407C23.3199 11.0324 22.9409 11.1424 22.574 11.2586ZM30.6448 10.7267C30.2658 10.6594 29.8745 10.5983 29.4892 10.5616L29.6237 9.34494C30.0394 9.38776 30.4552 9.44883 30.8649 9.52234L30.6448 10.7267ZM24.8363 10.7022L24.6285 9.49766C25.0381 9.42436 25.4539 9.3693 25.8697 9.32648L25.9921 10.5432C25.6067 10.5861 25.2215 10.635 24.8363 10.7022ZM28.3276 10.4699C27.9424 10.4576 27.545 10.4515 27.1598 10.4638L27.1231 9.24095C27.5389 9.22871 27.9607 9.22871 28.3765 9.24707L28.3276 10.4699Z" fill="#122436"/>
<path id="Vector_4" d="M41.522 17.954C41.412 17.789 41.3019 17.6239 41.1919 17.4649L42.1885 16.7617C42.3108 16.9329 42.4269 17.1103 42.5431 17.2875L41.522 17.954Z" fill="#122436"/>
<path id="Vector_5" d="M41.5223 17.9546C38.1717 12.837 32.3082 9.98773 26.2183 10.5258C24.861 10.6482 23.528 10.9295 22.2563 11.3696L21.8589 10.214C23.2285 9.74315 24.6592 9.43751 26.1144 9.30905C32.6505 8.73435 38.9483 11.7915 42.5495 17.282L41.5223 17.9546Z" fill="#122436"/>
<path id="Vector_6" d="M44.7443 31.9443L43.5703 31.6019C43.6254 31.4124 43.6742 31.2228 43.7231 31.0332L44.9093 31.3327C44.8544 31.5346 44.7993 31.7426 44.7443 31.9443Z" fill="#122436"/>
<path id="Vector_7" d="M27.7468 44.7658L27.7407 43.543C28.132 43.543 28.5295 43.5247 28.9208 43.4941L29.0126 44.7108C28.5906 44.7475 28.1627 44.7658 27.7468 44.7658ZM26.4751 44.7291C26.0532 44.6986 25.6314 44.6558 25.2156 44.6008L25.3868 43.3901C25.7719 43.4452 26.1693 43.4819 26.5607 43.5125L26.4751 44.7291ZM30.2721 44.5763L30.0947 43.3656C30.486 43.3106 30.8711 43.2373 31.2563 43.1516L31.5192 44.3439C31.1097 44.4356 30.6878 44.5151 30.2721 44.5763ZM23.9622 44.3807C23.5526 44.295 23.1368 44.1911 22.7333 44.0688L23.0757 42.8948C23.4548 43.0048 23.8401 43.1027 24.2191 43.1822L23.9622 44.3807ZM32.7484 44.0321L32.3998 42.8581C32.7728 42.7481 33.1519 42.6197 33.5187 42.4791L33.9528 43.6225C33.5554 43.7753 33.1519 43.9099 32.7484 44.0321ZM21.5287 43.6714C21.1313 43.5246 20.7399 43.3656 20.3548 43.1884L20.8623 42.0756C21.2169 42.2345 21.5899 42.3874 21.9567 42.5219L21.5287 43.6714ZM35.1207 43.1333L34.607 42.0205C34.9616 41.8554 35.3163 41.678 35.6587 41.4885L36.2518 42.5585C35.8789 42.7665 35.4997 42.9621 35.1207 43.1333ZM19.2175 42.6258C18.8445 42.424 18.4776 42.21 18.123 41.9838L18.7834 40.9505C19.1135 41.1645 19.456 41.3602 19.7984 41.5498L19.2175 42.6258ZM37.34 41.9105L36.6736 40.8833C37.0037 40.6693 37.3278 40.4431 37.6396 40.2046L38.3794 41.183C38.0371 41.4397 37.6886 41.6842 37.34 41.9105ZM39.3578 40.3819L38.5568 39.4648C38.8504 39.208 39.1438 38.9328 39.4189 38.6577L40.2872 39.5198C39.9876 39.8133 39.6758 40.1068 39.3578 40.3819ZM41.1431 38.5843L40.2137 37.7894C40.4706 37.4899 40.7151 37.1841 40.9536 36.8661L41.9381 37.5938C41.6874 37.93 41.4183 38.2663 41.1431 38.5843ZM42.6533 36.5483L41.6201 35.8879C41.8341 35.5578 42.0297 35.2154 42.2193 34.8729L43.2954 35.4537C43.0997 35.8269 42.8797 36.1937 42.6533 36.5483ZM43.864 34.3227L42.7512 33.8151C42.9102 33.4606 43.0631 33.0875 43.1976 32.7207L44.3471 33.1426C44.2004 33.5401 44.0353 33.9374 43.864 34.3227Z" fill="#122436"/>
<path id="Vector_8" d="M17.0771 41.2609C16.9059 41.1386 16.7407 41.0041 16.5757 40.8757L17.34 39.9219C17.4929 40.0442 17.6519 40.1665 17.8047 40.2826L17.0771 41.2609Z" fill="#122436"/>
<path id="Vector_9" d="M25.2153 23.4507L20.4768 18.7122L16.7837 22.4052L15.9155 21.5431L20.4768 16.9819L25.2153 21.7204L35.6095 11.3262L36.4716 12.1883L25.2153 23.4507Z" fill="#122436"/>
<path id="Vector_10" d="M7.0745 32.1144L6.2124 31.2462L7.0745 30.3841L7.9366 31.2462L7.0745 32.1144ZM8.97599 30.2128L8.11389 29.3507L8.97599 28.4886L9.83809 29.3507L8.97599 30.2128ZM10.8776 28.3113L10.0155 27.4492L10.8776 26.5871L11.7397 27.4492L10.8776 28.3113ZM12.7791 26.4037L11.917 25.5416L12.7791 24.6795L13.6412 25.5416L12.7791 26.4037ZM14.6868 24.5022L13.8247 23.6401L14.6868 22.778L15.5489 23.6401L14.6868 24.5022ZM16.5883 22.6006L15.7262 21.7385L16.5883 20.8764L17.4504 21.7385L16.5883 22.6006ZM26.096 22.5639L25.2339 21.7018L26.096 20.8397L26.9581 21.7018L26.096 22.5639ZM24.1945 22.4294L23.3324 21.5673L24.1945 20.7052L25.0566 21.5673L24.1945 22.4294ZM18.4899 20.6991L17.6278 19.837L18.4899 18.9749L19.352 19.837L18.4899 20.6991ZM27.9976 20.6624L27.1355 19.8003L27.9976 18.9382L28.8597 19.8003L27.9976 20.6624ZM22.2929 20.5279L21.4308 19.6658L22.2929 18.8037L23.155 19.6658L22.2929 20.5279ZM20.3914 18.7976L19.5293 17.9355L20.4831 16.9817L21.2596 17.7581L20.8255 18.1922L20.9111 18.2779L20.3914 18.7976ZM29.9051 18.7608L29.043 17.8987L29.9051 17.0366L30.7672 17.8987L29.9051 18.7608ZM31.8067 16.8593L30.9446 15.9972L31.8067 15.1351L32.6688 15.9972L31.8067 16.8593ZM33.7082 14.9578L32.8461 14.0957L33.7082 13.2336L34.5703 14.0957L33.7082 14.9578ZM35.6097 13.0562L34.7476 12.1941L35.6097 11.332L36.4718 12.1941L35.6097 13.0562Z" fill="#122436"/>
</g>
<path id="Vector_11" d="M51.2128 22.7041C51.2128 24.0064 50.0328 24.8196 48.9262 24.6301C48.5531 24.5689 48.1924 24.3916 47.8806 24.0798L44.2425 20.4418L26.4013 38.2893L20.8373 32.7253L12.0022 41.5604C10.278 39.7077 8.87165 37.5372 7.88721 35.1404L20.8373 22.1904L26.4013 27.7544L38.9783 15.1773L35.3402 11.5393C34.1113 10.3104 34.9795 8.20703 36.7221 8.20703H37.9022L49.2625 8.21315C50.3386 8.21315 51.2129 9.08748 51.2129 10.1636L51.2128 22.7041Z" fill="#FFCD35"/>
<g id="Group_2">
<path id="Vector_12" d="M27.6242 28.9772L40.2012 16.4001L36.5632 12.7621C35.3342 11.5332 36.2025 9.42983 37.945 9.42983H39.1251L50.4854 9.43595C50.7055 9.43595 50.9134 9.47265 51.1092 9.53984C50.8462 8.7695 50.1186 8.21304 49.2626 8.21304L37.9022 8.20703H36.7221C34.9857 8.20703 34.1112 10.3104 35.3403 11.5393L38.9783 15.1773L26.4014 27.7542L27.6242 28.9772Z" fill="white"/>
<path id="Vector_13" d="M9.11011 36.3565L22.0602 23.4064L20.8374 22.1836L7.88721 35.1335C8.87165 37.5303 10.2779 39.701 12.0022 41.5535L12.0939 41.4618C10.8833 39.9272 9.87434 38.209 9.11011 36.3565Z" fill="white"/>
</g>
<g id="Group_3">
<path id="Vector_14" d="M11.99 42.4406L11.5559 41.976C9.75216 40.0377 8.32749 37.8122 7.3248 35.3726L7.17188 34.9936L20.8433 21.3221L26.4073 26.8861L38.1162 15.1772L34.9124 11.9734C34.1665 11.2275 33.9524 10.1574 34.3561 9.17921C34.7597 8.20088 35.6645 7.5957 36.7223 7.5957H49.2566C50.6689 7.5957 51.8184 8.7452 51.8184 10.1575V22.6917C51.8184 23.4621 51.5004 24.1531 50.9196 24.6422C50.3388 25.1313 49.5561 25.3453 48.8162 25.223C48.2966 25.1373 47.8257 24.8866 47.4405 24.5015L44.2367 21.2977L26.4013 39.1573L20.8373 33.5933L11.99 42.4406ZM8.60878 35.2808C9.45875 37.2497 10.6081 39.0594 12.0206 40.6735L20.8312 31.8629L26.3952 37.4268L44.2366 19.5856L48.3026 23.6516C48.5105 23.8595 48.7489 23.9817 49.0179 24.0307C49.4031 24.0979 49.8188 23.9817 50.1246 23.7188C50.4241 23.4681 50.5892 23.1074 50.5892 22.7038V10.1696C50.5892 9.4297 49.9899 8.83053 49.2501 8.83053H36.716C36.0557 8.83053 35.6461 9.25852 35.4809 9.65593C35.3157 10.0533 35.3035 10.6465 35.7683 11.1173L39.8343 15.1833L26.4013 28.6223L20.8373 23.0583L8.60878 35.2808Z" fill="#122436"/>
<path id="Vector_15" d="M27.6729 49.001C24.7013 49.001 21.8215 48.4202 19.1067 47.2707C16.4898 46.164 14.1359 44.5743 12.1182 42.5567C10.1006 40.5389 8.51083 38.1849 7.40415 35.5619C6.25464 32.8471 5.67383 29.9673 5.67383 27.002H6.89663C6.89663 38.4601 16.2148 47.7782 27.6729 47.7782C39.131 47.7782 48.4491 38.4601 48.4491 27.002H49.6719C49.6719 29.9735 49.0911 32.8533 47.9416 35.5619C46.8349 38.1788 45.2452 40.5327 43.2276 42.5567C41.2099 44.5744 38.8558 46.1641 36.2328 47.2707C33.5243 48.4141 30.6445 49.001 27.6729 49.001Z" fill="#122436"/>
</g>
<path id="Vector_16" d="M44.3159 41.9403C46.207 41.9403 47.7401 40.4072 47.7401 38.516C47.7401 36.6249 46.207 35.0918 44.3159 35.0918C42.4247 35.0918 40.8916 36.6249 40.8916 38.516C40.8916 40.4072 42.4247 41.9403 44.3159 41.9403Z" fill="white"/>
<path id="Vector_17" d="M51.0542 37.3301L53.0903 35.5937C53.4022 35.3307 53.4755 34.8784 53.2737 34.5237L52.2527 32.7505C52.0509 32.396 51.6229 32.2369 51.2377 32.3775L48.7124 33.2702C48.1071 32.7627 47.4161 32.3592 46.658 32.084L46.1688 29.4487C46.0955 29.0451 45.747 28.7578 45.3373 28.7578H43.289C42.8794 28.7578 42.5308 29.0513 42.4575 29.4487L41.9683 32.084C41.2101 32.3591 40.5193 32.7627 39.9139 33.2702L37.3887 32.3775C37.0035 32.243 36.5755 32.3958 36.3737 32.7505L35.3526 34.5237C35.1508 34.8783 35.2243 35.3246 35.536 35.5937L37.5721 37.3301C37.5048 37.7153 37.4682 38.1127 37.4682 38.5163C37.4682 38.9199 37.5049 39.3172 37.5721 39.7025L35.536 41.4389C35.2242 41.7019 35.1508 42.1542 35.3526 42.5089L36.3737 44.282C36.5754 44.6366 37.0034 44.7957 37.3887 44.6551L39.9139 43.7624C40.5192 44.2699 41.2102 44.6733 41.9683 44.9486L42.4575 47.5838C42.5308 47.9875 42.8794 48.2748 43.289 48.2748H45.3373C45.747 48.2748 46.0955 47.9813 46.1688 47.5838L46.658 44.9486C47.4162 44.6734 48.107 44.2699 48.7124 43.7624L51.2377 44.6551C51.6228 44.7896 52.0508 44.6367 52.2527 44.282L53.2737 42.5089C53.4755 42.1543 53.4021 41.708 53.0903 41.4389L51.0542 39.7025C51.1215 39.3173 51.1581 38.9199 51.1581 38.5163C51.1581 38.1128 51.1214 37.7154 51.0542 37.3301ZM47.7342 38.5163C47.7342 40.4056 46.1995 41.9403 44.3102 41.9403C42.4208 41.9403 40.8861 40.4057 40.8861 38.5163C40.8861 36.6269 42.4208 35.0923 44.3102 35.0923C46.2055 35.0985 47.7342 36.6269 47.7342 38.5163Z" fill="#A082EC"/>
<g id="Group_4">
<path id="Vector_18" d="M44.3101 43.8786C44.2184 43.8786 44.1267 43.8786 44.0349 43.8725L44.0961 42.6497C44.1694 42.6558 44.2429 42.6558 44.3101 42.6558C44.5975 42.6558 44.8788 42.6252 45.1539 42.5702L45.4046 43.7685C45.05 43.8419 44.677 43.8786 44.3101 43.8786ZM42.6776 43.6218C42.2373 43.4812 41.8216 43.2855 41.4303 43.0349L42.0906 42.0016C42.3902 42.1911 42.7143 42.344 43.0506 42.454L42.6776 43.6218ZM46.7069 43.316L46.1627 42.2216C46.4807 42.0626 46.7741 41.8609 47.0431 41.6284L47.8502 42.5456C47.5018 42.8513 47.1166 43.1082 46.7069 43.316ZM40.3787 42.1543C40.0668 41.818 39.7979 41.439 39.5837 41.0354L40.6598 40.4607C40.8249 40.7726 41.0329 41.066 41.2774 41.3289L40.3787 42.1543ZM48.7552 41.5123L47.7402 40.8275C47.9419 40.534 48.1009 40.2161 48.2171 39.8798L49.3727 40.2834C49.226 40.7175 49.0181 41.1333 48.7552 41.5123ZM39.0947 39.7454C39.0029 39.348 38.9541 38.9322 38.9541 38.5165C38.9541 38.4675 38.9541 38.4247 38.9541 38.3759L40.1769 38.4065C40.1769 38.4432 40.1769 38.4798 40.1769 38.5165C40.1769 38.8345 40.2136 39.1585 40.2869 39.4642L39.0947 39.7454ZM49.654 38.9383L48.4373 38.8465C48.4434 38.7365 48.4495 38.6325 48.4495 38.5225C48.4495 38.2779 48.4251 38.0273 48.3822 37.7826L49.5868 37.5686C49.6419 37.8805 49.6724 38.2045 49.6724 38.5225C49.6723 38.657 49.6662 38.7976 49.654 38.9383ZM40.342 37.3608L39.168 37.0183C39.2963 36.5781 39.4799 36.1501 39.7182 35.7588L40.7638 36.3885C40.5804 36.6944 40.4398 37.0184 40.342 37.3608ZM48.0643 36.7677C47.9113 36.4437 47.7218 36.1441 47.4956 35.8689L48.4371 35.0863C48.7306 35.4409 48.9813 35.8322 49.177 36.248L48.0643 36.7677ZM41.4242 35.557L40.5682 34.6827C40.8983 34.3587 41.2713 34.0834 41.6688 33.8573L42.274 34.9212C41.9684 35.0924 41.681 35.3063 41.4242 35.557ZM46.713 35.1474C46.4256 34.9395 46.1077 34.7744 45.7775 34.646L46.2116 33.5026C46.6396 33.6677 47.0492 33.8817 47.4223 34.1507L46.713 35.1474ZM43.2585 34.5176L42.9466 33.3376C43.3868 33.2213 43.8515 33.1602 44.3101 33.1602C44.4935 33.1602 44.6832 33.1724 44.8665 33.1907L44.7381 34.4074C44.2489 34.3525 43.7414 34.3893 43.2585 34.5176Z" fill="white"/>
<path id="Vector_19" d="M38.0553 44.4226L37.395 44.6549C37.0098 44.7894 36.5818 44.6366 36.38 44.2819L35.3589 42.5088C35.1572 42.1542 35.2306 41.7078 35.5423 41.4388L36.0743 40.9863C36.4595 42.2888 37.1442 43.4627 38.0553 44.4226Z" fill="white"/>
<path id="Vector_20" d="M44.3161 47.1249C45.0009 47.1249 45.6613 47.0455 46.2971 46.8926L46.1688 47.5835C46.0955 47.9871 45.7469 48.2744 45.3373 48.2744H43.289C42.8793 48.2744 42.5308 47.9809 42.4575 47.5835L42.3291 46.8926C42.9649 47.0454 43.6313 47.1249 44.3161 47.1249Z" fill="white"/>
<path id="Vector_21" d="M52.5582 40.9863L53.0901 41.4388C53.402 41.7017 53.4753 42.1541 53.2736 42.5088L52.2525 44.2819C52.0508 44.6365 51.6228 44.7955 51.2375 44.6549L50.5771 44.4226C51.4821 43.4626 52.173 42.2887 52.5582 40.9863Z" fill="white"/>
<path id="Vector_22" d="M36.068 36.0457L35.536 35.5932C35.2241 35.3303 35.1509 34.8779 35.3526 34.5233L36.3737 32.7501C36.5754 32.3955 37.0034 32.2365 37.3887 32.3771L38.049 32.6094C37.144 33.5755 36.4593 34.7434 36.068 36.0457Z" fill="white"/>
<path id="Vector_23" d="M50.5713 32.6088L51.2316 32.3765C51.6168 32.242 52.0448 32.3948 52.2467 32.7495L53.2677 34.5227C53.4695 34.8773 53.3961 35.3236 53.0843 35.5926L52.5523 36.0451C52.1732 34.7427 51.4823 33.5748 50.5713 32.6088Z" fill="white"/>
<path id="Vector_24" d="M44.316 29.9132C43.6312 29.9132 42.9708 29.9926 42.335 30.1455L42.4633 29.4546C42.5366 29.051 42.8852 28.7637 43.2948 28.7637H45.3431C45.7528 28.7637 46.1013 29.0572 46.1746 29.4546L46.303 30.1455C45.6611 29.9926 44.9947 29.9132 44.316 29.9132Z" fill="white"/>
</g>
<path id="Vector_25" d="M45.337 48.8858H43.2887C42.5855 48.8858 41.9803 48.3844 41.8518 47.6936L41.4238 45.3946C40.843 45.15 40.2988 44.8383 39.7974 44.4531L37.5901 45.2357C36.9298 45.468 36.1899 45.199 35.8415 44.5876L34.8204 42.8144C34.4719 42.203 34.6003 41.4326 35.1384 40.9741L36.9177 39.4578C36.881 39.1459 36.8565 38.828 36.8565 38.5163C36.8565 38.2044 36.8749 37.8865 36.9177 37.5747L35.1385 36.0582C34.6065 35.5996 34.4721 34.8293 34.8205 34.2179L35.8416 32.4447C36.1901 31.8333 36.9299 31.5643 37.5902 31.7966L39.7975 32.5792C40.2989 32.194 40.8491 31.8822 41.4239 31.6377L41.8519 29.3387C41.9803 28.6478 42.5857 28.1465 43.2888 28.1465H45.3371C46.0403 28.1465 46.6456 28.6479 46.774 29.3387L47.202 31.6377C47.7828 31.8823 48.327 32.194 48.8284 32.5792L51.0357 31.7966C51.696 31.5643 52.4359 31.8333 52.7844 32.4447L53.8054 34.2179C54.154 34.8293 54.0255 35.5997 53.4874 36.0582L51.7082 37.5745C51.7449 37.8864 51.7693 38.2043 51.7693 38.516C51.7693 38.8279 51.751 39.1458 51.7082 39.4576L53.4874 40.9739C54.0194 41.4325 54.1539 42.2028 53.8054 42.8142L52.7844 44.5873C52.4358 45.1987 51.696 45.4678 51.0357 45.2354L48.8284 44.4529C48.327 44.838 47.7768 45.1499 47.202 45.3944L46.774 47.6934C46.6456 48.3844 46.0402 48.8858 45.337 48.8858ZM40.0422 43.0712L40.3111 43.2975C40.8675 43.7683 41.4973 44.129 42.182 44.3797L42.5121 44.502L43.0625 47.4796C43.0808 47.5896 43.1787 47.6753 43.2948 47.6753H45.3431C45.4594 47.6753 45.5571 47.5958 45.5755 47.4796L46.1257 44.502L46.4558 44.3797C47.1345 44.129 47.7643 43.7683 48.3267 43.2975L48.5957 43.0712L51.451 44.0801C51.5549 44.1168 51.6773 44.074 51.7323 43.9763L52.7534 42.2031C52.8084 42.1054 52.7901 41.9769 52.7045 41.9036L50.3994 39.9347L50.4606 39.5922C50.5217 39.2377 50.5523 38.8707 50.5523 38.51C50.5523 38.1493 50.5217 37.7824 50.4606 37.4278L50.3994 37.0854L52.7045 35.1165C52.7902 35.0432 52.8145 34.9208 52.7534 34.8169L51.7323 33.0438C51.6773 32.946 51.5549 32.9032 51.451 32.9399L48.5834 33.9671L48.3145 33.7409C47.7582 33.27 47.1283 32.9093 46.4436 32.6586L46.1135 32.5363L45.5632 29.5587C45.5449 29.4487 45.447 29.3631 45.3309 29.3631H43.2826C43.1664 29.3631 43.0686 29.4425 43.0502 29.5587L42.5 32.5363L42.1699 32.6586C41.4912 32.9093 40.8615 33.27 40.299 33.7409L40.03 33.9671L37.1747 32.9582C37.0647 32.9215 36.9485 32.9643 36.8934 33.0621L35.8724 34.8352C35.8173 34.9331 35.8357 35.0614 35.9213 35.1347L38.2264 37.1036L38.1653 37.4461C38.1041 37.8007 38.0735 38.1676 38.0735 38.5283C38.0735 38.889 38.1041 39.2559 38.1653 39.6105L38.2264 39.9529L35.9213 41.9218C35.8357 41.9951 35.8113 42.1175 35.8724 42.2214L36.8934 43.9945C36.9485 44.0924 37.0708 44.1351 37.1747 44.0984L40.0422 43.0712ZM44.316 42.5515C42.0904 42.5515 40.2805 40.7417 40.2805 38.516C40.2805 36.2903 42.0904 34.4806 44.316 34.4806C46.5416 34.4806 48.3514 36.2903 48.3514 38.516C48.3514 40.7416 46.5355 42.5515 44.316 42.5515ZM44.316 35.7096C42.7691 35.7096 41.5034 36.9691 41.5034 38.5222C41.5034 40.0752 42.7629 41.3347 44.316 41.3347C45.8629 41.3347 47.1285 40.0752 47.1285 38.5222C47.1285 36.9691 45.8629 35.7096 44.316 35.7096Z" fill="#122436"/>
<path id="Vector_26" d="M9.95394 47.8591C15.1137 47.8591 19.2966 43.6762 19.2966 38.5164C19.2966 33.3567 15.1137 29.1738 9.95394 29.1738C4.79416 29.1738 0.611328 33.3567 0.611328 38.5164C0.611328 43.6762 4.79416 47.8591 9.95394 47.8591Z" fill="white"/>
<path id="Vector_27" d="M9.95424 46.5374C14.3845 46.5374 17.9759 42.946 17.9759 38.5158C17.9759 34.0855 14.3845 30.4941 9.95424 30.4941C5.52402 30.4941 1.93262 34.0855 1.93262 38.5158C1.93262 42.946 5.52402 46.5374 9.95424 46.5374Z" fill="#A082EC"/>
<path id="Vector_28" d="M9.95402 48.4764C4.46332 48.4764 0 44.0068 0 38.5224C0 33.0379 4.46955 28.5684 9.95402 28.5684C15.4447 28.5684 19.908 33.0379 19.908 38.5224C19.908 44.0068 15.4385 48.4764 9.95402 48.4764ZM9.95402 29.7852C5.1359 29.7852 1.2228 33.7044 1.2228 38.5164C1.2228 43.3284 5.14201 47.2476 9.95402 47.2476C14.766 47.2476 18.6852 43.3345 18.6852 38.5164C18.6852 33.6982 14.7659 29.7852 9.95402 29.7852Z" fill="#122436"/>
<g id="Group_5">
<path id="Vector_29" d="M9.95426 33.3441C10.4608 33.3441 10.8714 32.9335 10.8714 32.4269C10.8714 31.9204 10.4608 31.5098 9.95426 31.5098C9.44773 31.5098 9.03711 31.9204 9.03711 32.4269C9.03711 32.9335 9.44773 33.3441 9.95426 33.3441Z" fill="white"/>
<path id="Vector_30" d="M9.95426 45.5296C10.4608 45.5296 10.8714 45.119 10.8714 44.6125C10.8714 44.1059 10.4608 43.6953 9.95426 43.6953C9.44773 43.6953 9.03711 44.1059 9.03711 44.6125C9.03711 45.119 9.44773 45.5296 9.95426 45.5296Z" fill="white"/>
<path id="Vector_31" d="M16.0441 39.4339C16.5506 39.4339 16.9613 39.0233 16.9613 38.5168C16.9613 38.0102 16.5506 37.5996 16.0441 37.5996C15.5376 37.5996 15.127 38.0102 15.127 38.5168C15.127 39.0233 15.5376 39.4339 16.0441 39.4339Z" fill="white"/>
<path id="Vector_32" d="M3.85807 39.4339C4.3646 39.4339 4.77523 39.0233 4.77523 38.5168C4.77523 38.0102 4.3646 37.5996 3.85807 37.5996C3.35154 37.5996 2.94092 38.0102 2.94092 38.5168C2.94092 39.0233 3.35154 39.4339 3.85807 39.4339Z" fill="white"/>
</g>
<g id="Group_6">
<path id="Vector_33" d="M9.95411 37.7268L9.16531 38.5156L5.99809 35.3484C5.77798 35.1283 5.77798 34.7797 5.99809 34.5596C6.21821 34.3395 6.56678 34.3395 6.78689 34.5596L9.95411 37.7268Z" fill="#122436"/>
<path id="Vector_34" d="M10.5103 39.0779V37.959H13.2005C13.5063 37.959 13.7569 38.2097 13.7569 38.5153C13.7569 38.8211 13.5062 39.0717 13.2005 39.0717H10.5103V39.0779Z" fill="#122436"/>
</g>
<path id="Vector_35" d="M9.95409 39.4638C10.4775 39.4638 10.9018 39.0395 10.9018 38.5161C10.9018 37.9927 10.4775 37.5684 9.95409 37.5684C9.43067 37.5684 9.00635 37.9927 9.00635 38.5161C9.00635 39.0395 9.43067 39.4638 9.95409 39.4638Z" fill="white"/>
<g id="Group_7">
<path id="Vector_36" d="M9.95416 40.0753C9.09818 40.0753 8.39502 39.3783 8.39502 38.5162C8.39502 37.6602 9.09206 36.957 9.95416 36.957C10.8163 36.957 11.5133 37.6541 11.5133 38.5162C11.5071 39.3783 10.8101 40.0753 9.95416 40.0753ZM9.95416 38.186C9.77075 38.186 9.61782 38.3388 9.61782 38.5223C9.61782 38.7057 9.77075 38.8586 9.95416 38.8586C10.1376 38.8586 10.2905 38.7058 10.2905 38.5223C10.2905 38.3389 10.1376 38.186 9.95416 38.186Z" fill="#122436"/>
<path id="Vector_37" d="M9.95444 39.8728C10.704 39.8728 11.3117 39.2651 11.3117 38.5155C11.3117 37.7659 10.704 37.1582 9.95444 37.1582C9.20484 37.1582 8.59717 37.7659 8.59717 38.5155C8.59717 39.2651 9.20484 39.8728 9.95444 39.8728Z" fill="#122436"/>
</g>
</g>
</svg>
