<svg width="44" height="44" viewBox="0 0 44 44" fill="none" xmlns="http://www.w3.org/2000/svg">
<g clip-path="url(#clip0_1708_36977)">
<path d="M22.5999 39.9275L22.5949 38.9311C22.9138 38.9311 23.2426 38.9211 23.5615 38.9012L23.6212 39.8976C23.2825 39.9126 22.9387 39.9275 22.5999 39.9275ZM21.5736 39.9026C21.2349 39.8827 20.8911 39.8578 20.5524 39.818L20.6619 38.8266C20.9808 38.8615 21.3047 38.8863 21.6235 38.9064L21.5736 39.9026ZM24.6426 39.8029L24.528 38.8116C24.8468 38.7767 25.1707 38.7269 25.4846 38.6721L25.654 39.6536C25.3202 39.7133 24.9763 39.7632 24.6426 39.8029ZM19.541 39.6734C19.2072 39.6186 18.8684 39.5488 18.5346 39.4742L18.7588 38.5027C19.0726 38.5725 19.3914 38.6372 19.7053 38.692L19.541 39.6734ZM26.6553 39.4492L26.4261 38.4778C26.7399 38.403 27.0538 38.3234 27.3627 38.2287L27.6468 39.1852C27.3179 39.2848 26.9891 39.3745 26.6553 39.4492ZM17.5433 39.2151C17.2144 39.1204 16.8907 39.0158 16.5669 38.9013L16.9006 37.9597C17.2046 38.0692 17.5134 38.1689 17.8223 38.2586L17.5433 39.2151ZM28.6182 38.8714L28.2794 37.9348C28.5834 37.8252 28.8823 37.7056 29.1812 37.581L29.5698 38.4977C29.2608 38.6321 28.937 38.7567 28.6182 38.8714ZM15.6153 38.5326C15.3014 38.4031 14.9876 38.2586 14.6836 38.1092L15.1221 37.2125C15.411 37.3519 15.7049 37.4865 16.0039 37.611L15.6153 38.5326ZM30.5013 38.0692L30.0579 37.1775C30.3468 37.0329 30.6308 36.8836 30.9099 36.7242L31.4031 37.591C31.1092 37.7604 30.8053 37.9198 30.5013 38.0692ZM13.7768 37.6308C13.4829 37.4664 13.1839 37.287 12.9 37.1027L13.438 36.2658C13.707 36.4401 13.9861 36.6045 14.2651 36.7639L13.7768 37.6308ZM32.28 37.0628L31.7369 36.2259C32.0059 36.0515 32.275 35.8672 32.5341 35.6779L33.122 36.48C32.8479 36.6793 32.5639 36.8785 32.28 37.0628ZM12.0481 36.5299C11.774 36.3306 11.5001 36.1213 11.2361 35.9071L11.8638 35.1348C12.1129 35.3391 12.3719 35.5334 12.6309 35.7227L12.0481 36.5299ZM33.929 35.8522L33.2964 35.0851C33.5455 34.8808 33.7896 34.6666 34.0237 34.4524L34.7013 35.1848C34.4471 35.4139 34.188 35.6381 33.929 35.8522ZM10.4638 35.2394C10.2147 35.0102 9.96566 34.7711 9.7265 34.527L10.4389 33.8295C10.6631 34.0587 10.8973 34.2828 11.1364 34.5021L10.4638 35.2394ZM35.4285 34.4673L34.7111 33.7747C34.9354 33.5455 35.1546 33.3014 35.3638 33.0623L36.116 33.7149C35.8968 33.9691 35.6676 34.2231 35.4285 34.4673ZM9.03401 33.7748C8.8098 33.5207 8.59058 33.2517 8.38141 32.9877L9.16851 32.3749C9.36281 32.629 9.57198 32.878 9.78124 33.1222L9.03401 33.7748ZM36.7687 32.9178L35.9767 32.3101C36.1709 32.056 36.3653 31.792 36.5446 31.5279L37.3667 32.0908C37.1772 32.3698 36.9729 32.6488 36.7687 32.9178ZM7.77856 32.1605C7.58425 31.8815 7.39992 31.5926 7.22057 31.3037L8.07255 30.7855C8.23695 31.0596 8.4163 31.3336 8.59565 31.5976L7.77856 32.1605ZM37.9195 31.224L37.0675 30.7109C37.2319 30.4368 37.3914 30.1529 37.5408 29.8689L38.4226 30.3323C38.2633 30.6361 38.0939 30.935 37.9195 31.224ZM6.71732 30.4119C6.5579 30.113 6.40347 29.8041 6.264 29.4952L7.17072 29.0767C7.30521 29.3656 7.44976 29.6595 7.59912 29.9435L6.71732 30.4119ZM38.8711 29.4155L37.9644 29.002C38.0989 28.7081 38.2235 28.4091 38.338 28.1102L39.2647 28.4689C39.1501 28.7878 39.0156 29.1066 38.8711 29.4155ZM5.86052 28.5586C5.73591 28.2448 5.62136 27.9159 5.51179 27.5971L6.4583 27.2882C6.55799 27.5922 6.66756 27.901 6.78718 28.1999L5.86052 28.5586ZM39.6134 27.5025L38.6669 27.1985C38.7666 26.8946 38.8562 26.5807 38.9359 26.2669L39.9024 26.516C39.8126 26.8498 39.718 27.1786 39.6134 27.5025ZM5.22776 26.6107C5.14312 26.2818 5.06337 25.9481 4.99359 25.6143L5.97001 25.4151C6.03472 25.7289 6.10948 26.0477 6.18915 26.3567L5.22776 26.6107ZM40.1316 25.5196L39.1551 25.3253C39.2198 25.0115 39.2748 24.6927 39.3195 24.3738L40.306 24.5133C40.2561 24.847 40.1963 25.1859 40.1316 25.5196ZM4.81432 24.6079C4.76448 24.2742 4.72469 23.9304 4.6947 23.5916L5.68607 23.502C5.71597 23.8208 5.75078 24.1447 5.80062 24.4636L4.81432 24.6079ZM40.4155 23.492L39.4241 23.4122C39.449 23.0934 39.469 22.7695 39.474 22.4457L40.4703 22.4706C40.4604 22.8094 40.4455 23.1532 40.4155 23.492ZM4.63497 22.5703C4.62998 22.376 4.625 22.1767 4.625 21.9824C4.625 21.8378 4.625 21.6935 4.62998 21.5489L5.62634 21.5738C5.62136 21.7083 5.62136 21.8479 5.62136 21.9824C5.62136 22.1667 5.62634 22.356 5.63133 22.5404L4.63497 22.5703ZM39.4689 21.4792C39.4589 21.1604 39.439 20.8315 39.4092 20.5127L39.4042 20.4778L40.3956 20.3882L40.4005 20.423C40.4304 20.7618 40.4504 21.1056 40.4603 21.4443L39.4689 21.4792ZM5.67619 20.6074L4.68481 20.5277C4.71472 20.189 4.74952 19.8452 4.79937 19.5114L5.78584 19.6509C5.73591 19.9647 5.70111 20.2836 5.67619 20.6074ZM39.2945 19.5213C39.2497 19.2025 39.1899 18.8837 39.1251 18.5697L40.1016 18.3704C40.1713 18.7042 40.2311 19.043 40.2809 19.3768L39.2945 19.5213ZM5.94517 18.6943L4.96875 18.5C5.03346 18.1662 5.1133 17.8275 5.19794 17.4987L6.16448 17.7478C6.07966 18.0616 6.0049 18.3755 5.94517 18.6943ZM38.9059 17.6281C38.8213 17.3192 38.7316 17.0053 38.6319 16.7014L39.5784 16.3926C39.683 16.7164 39.7826 17.0452 39.8673 17.3741L38.9059 17.6281ZM6.42839 16.8211L5.48188 16.5172C5.58647 16.1934 5.70102 15.8695 5.82563 15.5507L6.75728 15.9094C6.63765 16.2083 6.52808 16.5121 6.42839 16.8211ZM38.3032 15.7948C38.1835 15.4959 38.0591 15.1969 37.9245 14.908L38.8312 14.4895C38.9758 14.7984 39.1103 15.1123 39.2347 15.4311L38.3032 15.7948ZM7.12586 15.0126L6.21914 14.5991C6.35861 14.2902 6.51304 13.9813 6.66747 13.6774L7.54928 14.1408C7.4049 14.4298 7.26035 14.7237 7.12586 15.0126ZM37.496 14.0412C37.3466 13.7571 37.1822 13.4782 37.0178 13.2042L37.8698 12.6861C38.0441 12.975 38.2185 13.274 38.3779 13.5729L37.496 14.0412ZM8.02769 13.3037L7.17571 12.7906C7.35007 12.5017 7.53441 12.2078 7.72871 11.9287L8.55079 12.4917C8.36645 12.7507 8.192 13.0248 8.02769 13.3037ZM36.4897 12.392C36.3054 12.128 36.116 11.8639 35.9168 11.6148L36.7039 11.0021C36.9131 11.2711 37.1174 11.5451 37.3067 11.8291L36.4897 12.392ZM9.11368 11.7045L8.32159 11.0968C8.52587 10.8278 8.74501 10.5587 8.9693 10.3047L9.72658 10.9573C9.51226 11.1965 9.30798 11.4505 9.11368 11.7045ZM35.3039 10.8676C35.0947 10.6284 34.8705 10.3893 34.6463 10.1602L35.3588 9.46269C35.5979 9.70675 35.832 9.95588 36.0513 10.215L35.3039 10.8676ZM10.3742 10.2399L9.6568 9.54733C9.89098 9.30327 10.1401 9.06402 10.3892 8.82993L11.0667 9.56229C10.8325 9.78151 10.5983 10.0057 10.3742 10.2399ZM33.954 9.48761C33.7148 9.27337 33.4706 9.05921 33.2216 8.85494L33.8493 8.0827C34.1133 8.29695 34.3724 8.52116 34.6265 8.75035L33.954 9.48761ZM11.794 8.92962L11.1613 8.16245C11.4253 7.94821 11.6944 7.73406 11.9684 7.53477L12.5563 8.33691C12.2971 8.52605 12.0431 8.72534 11.794 8.92962ZM32.4543 8.27194C32.1952 8.08262 31.9262 7.90327 31.6521 7.7289L32.1902 6.88697C32.4742 7.07131 32.7631 7.26561 33.0371 7.45992L32.4543 8.27194ZM13.3534 7.78373L12.8104 6.94678C13.0944 6.76245 13.3883 6.5831 13.6822 6.41371L14.1754 7.28056C13.8964 7.44496 13.6224 7.60936 13.3534 7.78373ZM30.8202 7.23081C30.5412 7.07139 30.2523 6.92195 29.9634 6.78247L30.4018 5.88572C30.7058 6.03516 31.0146 6.19457 31.3085 6.35897L30.8202 7.23081ZM15.0273 6.83214L14.5838 5.94037C14.8878 5.79093 15.2017 5.64647 15.5105 5.51197L15.8991 6.42867C15.6102 6.55319 15.3113 6.68777 15.0273 6.83214ZM29.0865 6.37882C28.7876 6.25421 28.4836 6.13966 28.1847 6.03009L28.5185 5.08847C28.8373 5.20303 29.1612 5.32764 29.4751 5.45715L29.0865 6.37882ZM16.8009 6.07495L16.4622 5.13832C16.781 5.02376 17.1099 4.91411 17.4336 4.81949L17.7176 5.77606C17.4138 5.86569 17.1048 5.96529 16.8009 6.07495ZM27.2581 5.7361C26.9492 5.64647 26.6353 5.56672 26.3214 5.49204L26.5456 4.5206C26.8794 4.59537 27.2133 4.685 27.537 4.7797L27.2581 5.7361ZM18.6542 5.52693L18.425 4.55549C18.7539 4.47574 19.0926 4.41094 19.4263 4.35122L19.6007 5.33271C19.2869 5.38745 18.968 5.45216 18.6542 5.52693ZM25.3749 5.3077C25.0561 5.25287 24.7373 5.20801 24.4183 5.17321L24.5279 4.18184C24.8667 4.21673 25.2054 4.26648 25.5393 4.32131L25.3749 5.3077ZM20.5574 5.18808L20.4428 4.1967C20.6221 4.17677 20.8015 4.15683 20.9759 4.14187C21.1353 4.12692 21.2997 4.11695 21.4592 4.10698L21.5189 5.10334C21.3645 5.11331 21.21 5.12328 21.0605 5.13823C20.8961 5.15327 20.7267 5.16814 20.5574 5.18808ZM23.4568 5.09354C23.1629 5.07859 22.8639 5.06862 22.57 5.06862H22.4903L22.4854 4.07227H22.57C22.8789 4.07227 23.1977 4.08223 23.5066 4.09719L23.4568 5.09354Z" fill="#122436"/>
<path d="M9.68978 17.9473L8.73828 17.6485C8.78812 17.4841 8.84287 17.3196 8.90268 17.1602L9.83931 17.4939C9.7893 17.6436 9.73945 17.798 9.68978 17.9473Z" fill="#122436"/>
<path d="M10.193 16.6075L9.28125 16.2089C9.41574 15.9001 9.56527 15.5911 9.72469 15.2873L10.6065 15.7506C10.457 16.0346 10.3175 16.3186 10.193 16.6075ZM11.0748 14.9286L10.2278 14.4055C10.4072 14.1166 10.5965 13.8326 10.7958 13.5586L11.6029 14.1415C11.4185 14.3955 11.2392 14.6596 11.0748 14.9286ZM32.9855 13.4739C32.7862 13.2298 32.572 12.9906 32.3578 12.7615L33.0802 12.079C33.3144 12.323 33.5386 12.5821 33.7528 12.8461L32.9855 13.4739ZM12.1857 13.3842L11.4185 12.7465C11.6328 12.4874 11.8619 12.2284 12.096 11.9843L12.8134 12.6718C12.5992 12.9059 12.385 13.145 12.1857 13.3842ZM31.6802 12.0888C31.446 11.8746 31.207 11.6654 30.9578 11.471L31.5806 10.6938C31.8446 10.9031 32.1037 11.1273 32.3528 11.3564L31.6802 12.0888ZM13.496 12.0142L12.8283 11.2768C13.0774 11.0476 13.3414 10.8285 13.6055 10.6192L14.2233 11.4014C13.9743 11.5957 13.7301 11.7999 13.496 12.0142ZM30.2006 10.9032C29.9414 10.7238 29.6725 10.5495 29.3984 10.39L29.9066 9.53316C30.1955 9.70752 30.4894 9.89186 30.7684 10.0812L30.2006 10.9032ZM14.9906 10.8384L14.4326 10.0163C14.7116 9.82697 15.0055 9.64264 15.2945 9.47326L15.7926 10.3351C15.5237 10.4896 15.2496 10.664 14.9906 10.8384ZM28.5615 9.93663C28.2774 9.79715 27.9885 9.66258 27.6946 9.54304L28.0782 8.62136C28.3921 8.75087 28.701 8.89541 29.0048 9.04477L28.5615 9.93663ZM16.6347 9.88679L16.1962 8.99003C16.5002 8.84059 16.814 8.70111 17.1278 8.5765L17.5015 9.49818C17.2076 9.6178 16.9186 9.74731 16.6347 9.88679ZM26.8078 9.20926C26.5089 9.10957 26.2001 9.01994 25.8961 8.94027L26.1453 7.97374C26.4741 8.05838 26.8028 8.15309 27.1267 8.26266L26.8078 9.20926ZM18.3933 9.17437L18.0893 8.22785C18.4131 8.12327 18.7419 8.02856 19.0708 7.94881L19.31 8.91535C19.001 8.99012 18.6922 9.07975 18.3933 9.17437ZM24.9695 8.74098C24.6606 8.68616 24.3418 8.6364 24.0278 8.60649L24.1374 7.61512C24.4762 7.65001 24.8149 7.69977 25.1488 7.75967L24.9695 8.74098ZM20.2366 8.72105L20.0672 7.73956C20.401 7.67983 20.7398 7.63497 21.0786 7.60008L21.1783 8.59145C20.8643 8.62643 20.5505 8.6663 20.2366 8.72105ZM23.0813 8.53173C22.7675 8.52176 22.4437 8.51677 22.1298 8.52674L22.0999 7.53039C22.4387 7.52042 22.7824 7.52042 23.1212 7.53537L23.0813 8.53173Z" fill="#122436"/>
<path d="M33.8354 14.6278C33.7458 14.4933 33.656 14.3588 33.5664 14.2292L34.3784 13.6562C34.4781 13.7957 34.5727 13.9403 34.6673 14.0846L33.8354 14.6278Z" fill="#122436"/>
<path d="M33.8346 14.6299C31.1044 10.46 26.3267 8.13837 21.3646 8.57682C20.2587 8.67651 19.1725 8.90571 18.1363 9.26432L17.8125 8.32271C18.9285 7.93908 20.0942 7.69004 21.28 7.58536C26.6057 7.11709 31.7372 9.60807 34.6715 14.0819L33.8346 14.6299Z" fill="#122436"/>
<path d="M36.4605 26.0276L35.5039 25.7485C35.5488 25.5941 35.5886 25.4397 35.6284 25.2852L36.595 25.5292C36.5502 25.6937 36.5053 25.8632 36.4605 26.0276Z" fill="#122436"/>
<path d="M22.6111 36.4747L22.6062 35.4784C22.925 35.4784 23.2489 35.4634 23.5677 35.4385L23.6425 36.4299C23.2986 36.4598 22.95 36.4747 22.6111 36.4747ZM21.5749 36.4448C21.2312 36.4199 20.8874 36.3851 20.5486 36.3402L20.6881 35.3537C21.002 35.3986 21.3258 35.4285 21.6447 35.4534L21.5749 36.4448ZM24.6687 36.3203L24.5242 35.3338C24.843 35.289 25.1569 35.2292 25.4707 35.1594L25.6849 36.1309C25.3513 36.2056 25.0075 36.2704 24.6687 36.3203ZM19.5274 36.1609C19.1936 36.0911 18.8548 36.0064 18.526 35.9068L18.8051 34.9502C19.1139 35.0398 19.4279 35.1196 19.7367 35.1844L19.5274 36.1609ZM26.6865 35.8768L26.4024 34.9203C26.7064 34.8306 27.0153 34.726 27.3141 34.6114L27.6679 35.5431C27.3441 35.6676 27.0153 35.7772 26.6865 35.8768ZM17.5445 35.5829C17.2207 35.4633 16.9018 35.3338 16.588 35.1894L17.0015 34.2826C17.2904 34.4121 17.5944 34.5367 17.8933 34.6463L17.5445 35.5829ZM28.6195 35.1445L28.2009 34.2378C28.4899 34.1033 28.7789 33.9587 29.0578 33.8043L29.5411 34.6761C29.2373 34.8456 28.9283 35.005 28.6195 35.1445ZM15.6613 34.731C15.3573 34.5666 15.0585 34.3922 14.7695 34.2079L15.3076 33.3659C15.5766 33.5403 15.8556 33.6997 16.1346 33.8542L15.6613 34.731ZM30.4278 34.1481L29.8848 33.3112C30.1538 33.1368 30.4179 32.9525 30.6719 32.7582L31.2747 33.5553C30.9958 33.7645 30.7119 33.9637 30.4278 34.1481ZM32.0719 32.9026L31.4193 32.1553C31.6585 31.9461 31.8975 31.7219 32.1217 31.4977L32.8292 32.2002C32.5851 32.4393 32.331 32.6784 32.0719 32.9026ZM33.5266 31.4379L32.7694 30.7902C32.9786 30.5462 33.1779 30.297 33.3722 30.0379L34.1744 30.6308C33.9701 30.9048 33.7509 31.1788 33.5266 31.4379ZM34.7572 29.7789L33.9153 29.2409C34.0896 28.9719 34.249 28.6928 34.4035 28.4138L35.2804 28.887C35.1209 29.1911 34.9416 29.49 34.7572 29.7789ZM35.7437 27.9655L34.8369 27.5519C34.9664 27.263 35.091 26.959 35.2006 26.6602L36.1372 27.0039C36.0177 27.3278 35.8832 27.6515 35.7437 27.9655Z" fill="#122436"/>
<path d="M13.9164 33.6204C13.7769 33.5207 13.6423 33.4111 13.5078 33.3065L14.1306 32.5293C14.2552 32.629 14.3847 32.7286 14.5092 32.8232L13.9164 33.6204Z" fill="#122436"/>
<path d="M20.5464 19.1078L16.6854 15.2468L13.6762 18.2559L12.9688 17.5534L16.6854 13.8369L20.5464 17.6979L29.0157 9.22852L29.7181 9.93097L20.5464 19.1078Z" fill="#122436"/>
<path d="M5.76495 26.1682L5.0625 25.4607L5.76495 24.7583L6.4674 25.4607L5.76495 26.1682ZM7.31432 24.6187L6.61186 23.9163L7.31432 23.2138L8.01677 23.9163L7.31432 24.6187ZM8.86377 23.0693L8.16131 22.3669L8.86377 21.6644L9.56622 22.3669L8.86377 23.0693ZM10.4131 21.515L9.71068 20.8125L10.4131 20.1101L11.1156 20.8125L10.4131 21.515ZM11.9676 19.9656L11.2651 19.2632L11.9676 18.5607L12.67 19.2632L11.9676 19.9656ZM13.5169 18.4162L12.8145 17.7137L13.5169 17.0113L14.2194 17.7137L13.5169 18.4162ZM21.2639 18.3863L20.5615 17.6838L21.2639 16.9814L21.9664 17.6838L21.2639 18.3863ZM19.7146 18.2767L19.0121 17.5743L19.7146 16.8718L20.417 17.5743L19.7146 18.2767ZM15.0664 16.8668L14.3639 16.1644L15.0664 15.4619L15.7688 16.1644L15.0664 16.8668ZM22.8134 16.8369L22.1109 16.1345L22.8134 15.432L23.5158 16.1345L22.8134 16.8369ZM18.1651 16.7273L17.4627 16.0249L18.1651 15.3224L18.8676 16.0249L18.1651 16.7273ZM16.6157 15.3175L15.9133 14.615L16.6905 13.8378L17.3232 14.4705L16.9695 14.8242L17.0392 14.8939L16.6157 15.3175ZM24.3676 15.2875L23.6652 14.585L24.3676 13.8826L25.0701 14.585L24.3676 15.2875ZM25.9171 13.7381L25.2146 13.0356L25.9171 12.3332L26.6195 13.0356L25.9171 13.7381ZM27.4665 12.1887L26.764 11.4863L27.4665 10.7838L28.1689 11.4863L27.4665 12.1887ZM29.0158 10.6393L28.3134 9.93683L29.0158 9.23438L29.7183 9.93683L29.0158 10.6393Z" fill="#122436"/>
<path d="M41.7281 18.4999C41.7281 19.5611 40.7666 20.2237 39.8649 20.0692C39.561 20.0194 39.2671 19.8749 39.013 19.6209L36.0486 16.6566L21.5113 31.199L16.9777 26.6654L9.77871 33.8643C8.37381 32.3547 7.22792 30.5862 6.42578 28.6332L16.9777 18.0813L21.5113 22.615L31.7592 12.367L28.7949 9.40269C27.7936 8.40135 28.501 6.6875 29.9209 6.6875H30.8824L40.139 6.69248C41.0158 6.69248 41.7282 7.40491 41.7282 8.28172L41.7281 18.4999Z" fill="#FFCD35"/>
<path d="M22.5081 23.6113L32.756 13.3634L29.7917 10.399C28.7904 9.39771 29.4978 7.68386 30.9176 7.68386H31.8792L41.1358 7.68884C41.3151 7.68884 41.4845 7.71875 41.644 7.77349C41.4298 7.1458 40.8369 6.6924 40.1394 6.6924L30.8828 6.6875H29.9212C28.5063 6.6875 27.7938 8.40135 28.7953 9.40269L31.7596 12.367L21.5117 22.6148L22.5081 23.6113Z" fill="white"/>
<path d="M7.42222 29.6244L17.9741 19.0725L16.9778 18.0762L6.42578 28.628C7.22792 30.5809 8.37372 32.3496 9.77871 33.8591L9.85348 33.7843C8.867 32.5339 8.04493 31.1339 7.42222 29.6244Z" fill="white"/>
<path d="M9.76963 34.5816L9.41591 34.203C7.94621 32.6237 6.78537 30.8103 5.96836 28.8225L5.84375 28.5137L16.9835 17.3739L21.5171 21.9076L31.0577 12.367L28.4472 9.75645C27.8394 9.14871 27.665 8.27679 27.9938 7.47972C28.3227 6.68256 29.06 6.18945 29.9218 6.18945H40.135C41.2858 6.18945 42.2224 7.12608 42.2224 8.27687V18.4899C42.2224 19.1176 41.9633 19.6807 41.49 20.0792C41.0168 20.4777 40.379 20.6521 39.7762 20.5524C39.3528 20.4826 38.9691 20.2784 38.6552 19.9645L36.0447 17.354L21.5122 31.9063L16.9786 27.3727L9.76963 34.5816ZM7.01456 28.7477C7.70713 30.3519 8.64367 31.8265 9.79455 33.1417L16.9736 25.9627L21.5072 30.4963L36.0446 15.959L39.3577 19.272C39.5271 19.4414 39.7214 19.541 39.9405 19.5809C40.2543 19.6357 40.5931 19.541 40.8422 19.3268C41.0863 19.1225 41.2208 18.8286 41.2208 18.4997V8.28667C41.2208 7.68382 40.7325 7.19561 40.1297 7.19561H29.9168C29.3787 7.19561 29.0449 7.54434 28.9104 7.86815C28.7758 8.19196 28.7658 8.67528 29.1445 9.0589L32.4576 12.372L21.5122 23.3223L16.9786 18.7886L7.01456 28.7477Z" fill="#122436"/>
<path d="M22.5502 39.9271C20.1289 39.9271 17.7823 39.4538 15.5703 38.5172C13.438 37.6155 11.52 36.3201 9.87594 34.6762C8.23196 33.0321 6.93663 31.114 6.03489 28.9767C5.09826 26.7647 4.625 24.4182 4.625 22.002H5.62136C5.62136 31.3382 13.2139 38.9307 22.5502 38.9307C31.8864 38.9307 39.479 31.3382 39.479 22.002H40.4753C40.4753 24.4232 40.002 26.7698 39.0654 28.9767C38.1637 31.109 36.8683 33.027 35.2244 34.6762C33.5803 36.3202 31.6622 37.6156 29.5249 38.5172C27.318 39.4489 24.9714 39.9271 22.5502 39.9271Z" fill="#122436"/>
<path d="M36.1104 34.174C37.6514 34.174 38.9006 32.9248 38.9006 31.3839C38.9006 29.8429 37.6514 28.5938 36.1104 28.5938C34.5695 28.5938 33.3203 29.8429 33.3203 31.3839C33.3203 32.9248 34.5695 34.174 36.1104 34.174Z" fill="white"/>
<path d="M41.6007 30.4184L43.2597 29.0035C43.5139 28.7893 43.5736 28.4207 43.4092 28.1317L42.5772 26.6869C42.4128 26.398 42.0641 26.2684 41.7502 26.383L39.6926 27.1103C39.1994 26.6968 38.6363 26.3681 38.0186 26.1438L37.62 23.9966C37.5603 23.6677 37.2763 23.4336 36.9425 23.4336H35.2735C34.9397 23.4336 34.6557 23.6728 34.596 23.9966L34.1974 26.1438C33.5796 26.368 33.0167 26.6968 32.5234 27.1103L30.4658 26.383C30.152 26.2734 29.8033 26.3979 29.6388 26.6869L28.8068 28.1317C28.6424 28.4206 28.7022 28.7843 28.9563 29.0035L30.6153 30.4184C30.5604 30.7323 30.5306 31.0561 30.5306 31.3849C30.5306 31.7138 30.5605 32.0376 30.6153 32.3515L28.9563 33.7664C28.7021 33.9806 28.6424 34.3492 28.8068 34.6382L29.6388 36.083C29.8032 36.3719 30.1519 36.5015 30.4658 36.3869L32.5234 35.6596C33.0166 36.0731 33.5797 36.4018 34.1974 36.6261L34.596 38.7733C34.6557 39.1022 34.9397 39.3363 35.2735 39.3363H36.9425C37.2763 39.3363 37.5603 39.0971 37.62 38.7733L38.0186 36.6261C38.6364 36.4019 39.1993 36.0731 39.6926 35.6596L41.7502 36.3869C42.064 36.4965 42.4128 36.372 42.5772 36.083L43.4092 34.6382C43.5736 34.3493 43.5138 33.9856 43.2597 33.7664L41.6007 32.3515C41.6556 32.0376 41.6854 31.7138 41.6854 31.3849C41.6854 31.0562 41.6555 30.7323 41.6007 30.4184ZM38.8955 31.3849C38.8955 32.9243 37.645 34.1749 36.1056 34.1749C34.5661 34.1749 33.3156 32.9244 33.3156 31.3849C33.3156 29.8455 34.5661 28.595 36.1056 28.595C37.6499 28.6001 38.8955 29.8455 38.8955 31.3849Z" fill="#A082EC"/>
<path d="M36.1063 35.7531C36.0316 35.7531 35.9569 35.7531 35.8821 35.7481L35.932 34.7517C35.9917 34.7567 36.0516 34.7567 36.1063 34.7567C36.3405 34.7567 36.5697 34.7318 36.7938 34.6869L36.9981 35.6634C36.7092 35.7232 36.4053 35.7531 36.1063 35.7531ZM34.7761 35.5438C34.4174 35.4293 34.0787 35.2698 33.7598 35.0656L34.2979 34.2237C34.5419 34.3781 34.806 34.5027 35.0801 34.5923L34.7761 35.5438ZM38.0593 35.2947L37.6158 34.4029C37.8749 34.2734 38.114 34.109 38.3332 33.9196L38.9908 34.6669C38.707 34.9161 38.3931 35.1253 38.0593 35.2947ZM32.9029 34.3481C32.6488 34.074 32.4297 33.7653 32.2552 33.4364L33.1321 32.9681C33.2665 33.2222 33.436 33.4613 33.6352 33.6755L32.9029 34.3481ZM39.7283 33.825L38.9012 33.267C39.0656 33.0278 39.1951 32.7688 39.2898 32.4948L40.2314 32.8237C40.1119 33.1774 39.9425 33.5161 39.7283 33.825ZM31.8567 32.3853C31.782 32.0615 31.7422 31.7227 31.7422 31.3839C31.7422 31.3441 31.7422 31.3092 31.7422 31.2694L32.7385 31.2943C32.7385 31.3242 32.7385 31.354 32.7385 31.3839C32.7385 31.643 32.7685 31.907 32.8282 32.1562L31.8567 32.3853ZM40.4606 31.7276L39.4692 31.6528C39.4742 31.5632 39.4792 31.4785 39.4792 31.3888C39.4792 31.1896 39.4593 30.9854 39.4244 30.786L40.4059 30.6116C40.4507 30.8657 40.4757 31.1297 40.4757 31.3888C40.4756 31.4984 40.4706 31.613 40.4606 31.7276ZM32.873 30.4422L31.9165 30.1632C32.0211 29.8045 32.1706 29.4558 32.3648 29.1369L33.2168 29.6501C33.0673 29.8993 32.9528 30.1633 32.873 30.4422ZM39.1653 29.959C39.0407 29.695 38.8862 29.4509 38.7019 29.2267L39.4691 28.589C39.7082 28.8779 39.9125 29.1968 40.0719 29.5355L39.1653 29.959ZM33.7548 28.9725L33.0574 28.2601C33.3264 27.9961 33.6303 27.7718 33.9541 27.5876L34.4473 28.4544C34.1983 28.594 33.9641 28.7683 33.7548 28.9725ZM38.0643 28.6388C37.8301 28.4694 37.5711 28.3348 37.302 28.2302L37.6557 27.2986C38.0044 27.4331 38.3382 27.6074 38.6422 27.8267L38.0643 28.6388ZM35.2495 28.1256L34.9953 27.1641C35.354 27.0694 35.7327 27.0195 36.1063 27.0195C36.2558 27.0195 36.4103 27.0295 36.5597 27.0445L36.4551 28.0358C36.0565 27.9911 35.643 28.021 35.2495 28.1256Z" fill="white"/>
<path d="M31.0078 36.1964L30.4697 36.3857C30.1559 36.4953 29.8071 36.3708 29.6427 36.0818L28.8107 34.637C28.6463 34.3481 28.7061 33.9844 28.9601 33.7652L29.3936 33.3965C29.7074 34.4577 30.2654 35.4143 31.0078 36.1964Z" fill="white"/>
<path d="M36.1112 38.3983C36.6692 38.3983 37.2073 38.3336 37.7254 38.209L37.6208 38.772C37.5611 39.1008 37.2771 39.3349 36.9433 39.3349H35.2743C34.9405 39.3349 34.6565 39.0958 34.5968 38.772L34.4922 38.209C35.0102 38.3335 35.5533 38.3983 36.1112 38.3983Z" fill="white"/>
<path d="M42.8251 33.3965L43.2586 33.7652C43.5127 33.9794 43.5724 34.348 43.408 34.637L42.5761 36.0818C42.4117 36.3707 42.0629 36.5003 41.749 36.3857L41.2109 36.1964C41.9483 35.4142 42.5113 34.4576 42.8251 33.3965Z" fill="white"/>
<path d="M29.3897 29.3706L28.9563 29.0019C28.7021 28.7877 28.6424 28.4191 28.8068 28.1301L29.6388 26.6853C29.8032 26.3964 30.1519 26.2668 30.4658 26.3813L31.0039 26.5706C30.2665 27.3578 29.7085 28.3094 29.3897 29.3706Z" fill="white"/>
<path d="M41.207 26.5725L41.7451 26.3832C42.0589 26.2736 42.4077 26.3981 42.5721 26.6871L43.4041 28.1319C43.5685 28.4208 43.5087 28.7845 43.2547 29.0037L42.8212 29.3724C42.5123 28.3112 41.9494 27.3596 41.207 26.5725Z" fill="white"/>
<path d="M36.1103 24.3741C35.5523 24.3741 35.0142 24.4388 34.4961 24.5635L34.6007 24.0005C34.6604 23.6716 34.9444 23.4375 35.2782 23.4375H36.9472C37.281 23.4375 37.565 23.6767 37.6247 24.0005L37.7293 24.5635C37.2063 24.4388 36.6633 24.3741 36.1103 24.3741Z" fill="white"/>
<path d="M36.9424 39.8323H35.2734C34.7004 39.8323 34.2072 39.4238 34.1026 38.8609L33.7538 36.9876C33.2806 36.7883 32.8371 36.5343 32.4286 36.2205L30.6301 36.8581C30.092 37.0474 29.4892 36.8282 29.2052 36.33L28.3733 34.8852C28.0893 34.3871 28.1939 33.7593 28.6324 33.3857L30.0822 32.1502C30.0522 31.8961 30.0323 31.6371 30.0323 31.383C30.0323 31.1289 30.0473 30.8699 30.0822 30.6159L28.6325 29.3802C28.199 29.0065 28.0894 28.3788 28.3734 27.8807L29.2053 26.4359C29.4894 25.9377 30.0921 25.7185 30.6302 25.9078L32.4287 26.5455C32.8372 26.2316 33.2855 25.9775 33.7539 25.7783L34.1026 23.905C34.2072 23.3421 34.7005 22.9336 35.2735 22.9336H36.9424C37.5154 22.9336 38.0086 23.3421 38.1133 23.905L38.462 25.7783C38.9352 25.9776 39.3787 26.2316 39.7872 26.5455L41.5857 25.9078C42.1238 25.7185 42.7266 25.9377 43.0106 26.4359L43.8425 27.8807C44.1265 28.3788 44.0219 29.0066 43.5834 29.3802L42.1337 30.6157C42.1636 30.8698 42.1835 31.1288 42.1835 31.3829C42.1835 31.637 42.1685 31.896 42.1337 32.15L43.5834 33.3856C44.0169 33.7592 44.1265 34.3869 43.8425 34.8851L43.0106 36.3299C42.7265 36.828 42.1238 37.0473 41.5857 36.8579L39.7872 36.2203C39.3787 36.5341 38.9303 36.7882 38.462 36.9874L38.1133 38.8607C38.0086 39.4238 37.5153 39.8323 36.9424 39.8323ZM32.628 35.0945L32.8472 35.2788C33.3005 35.6625 33.8137 35.9564 34.3716 36.1606L34.6406 36.2603L35.089 38.6865C35.104 38.7761 35.1837 38.8459 35.2784 38.8459H36.9473C37.042 38.8459 37.1217 38.7812 37.1367 38.6865L37.585 36.2603L37.854 36.1606C38.407 35.9564 38.9201 35.6625 39.3784 35.2788L39.5976 35.0945L41.9241 35.9166C42.0088 35.9465 42.1085 35.9116 42.1533 35.8319L42.9853 34.3871C43.0302 34.3075 43.0152 34.2028 42.9455 34.1431L41.0673 32.5388L41.1171 32.2598C41.1669 31.9708 41.1919 31.6719 41.1919 31.378C41.1919 31.0841 41.1669 30.7851 41.1171 30.4962L41.0673 30.2171L42.9455 28.6128C43.0153 28.5531 43.0351 28.4534 42.9853 28.3688L42.1533 26.924C42.1085 26.8443 42.0088 26.8095 41.9241 26.8394L39.5876 27.6763L39.3685 27.492C38.9151 27.1083 38.4019 26.8144 37.844 26.6102L37.575 26.5105L37.1267 24.0843C37.1117 23.9947 37.032 23.9249 36.9374 23.9249H35.2684C35.1737 23.9249 35.094 23.9896 35.0791 24.0843L34.6307 26.5105L34.3617 26.6102C33.8087 26.8144 33.2956 27.1083 32.8373 27.492L32.6182 27.6763L30.2916 26.8542C30.2019 26.8243 30.1072 26.8592 30.0624 26.9389L29.2304 28.3837C29.1856 28.4634 29.2005 28.568 29.2703 28.6277L31.1485 30.232L31.0987 30.511C31.0489 30.8 31.0239 31.0989 31.0239 31.3928C31.0239 31.6867 31.0489 31.9857 31.0987 32.2746L31.1485 32.5537L29.2703 34.158C29.2005 34.2177 29.1807 34.3174 29.2304 34.402L30.0624 35.8468C30.1072 35.9265 30.2069 35.9614 30.2916 35.9314L32.628 35.0945ZM36.1104 34.671C34.2969 34.671 32.8223 33.1964 32.8223 31.3829C32.8223 29.5693 34.2969 28.0947 36.1104 28.0947C37.9238 28.0947 39.3985 29.5693 39.3985 31.3829C39.3985 33.1963 37.9189 34.671 36.1104 34.671ZM36.1104 29.0962C34.85 29.0962 33.8187 30.1224 33.8187 31.3879C33.8187 32.6533 34.845 33.6795 36.1104 33.6795C37.3708 33.6795 38.4021 32.6533 38.4021 31.3879C38.4021 30.1224 37.3708 29.0962 36.1104 29.0962Z" fill="#122436"/>
<path d="M8.1125 38.9945C12.3168 38.9945 15.725 35.5863 15.725 31.382C15.725 27.1778 12.3168 23.7695 8.1125 23.7695C3.90823 23.7695 0.5 27.1778 0.5 31.382C0.5 35.5863 3.90823 38.9945 8.1125 38.9945Z" fill="white"/>
<path d="M8.11035 37.9199C11.7202 37.9199 14.6465 34.9936 14.6465 31.3838C14.6465 27.774 11.7202 24.8477 8.11035 24.8477C4.50055 24.8477 1.57422 27.774 1.57422 31.3838C1.57422 34.9936 4.50055 37.9199 8.11035 37.9199Z" fill="#A082EC"/>
<path d="M8.11068 39.4987C3.63678 39.4987 0 35.8569 0 31.388C0 26.9192 3.64185 23.2773 8.11068 23.2773C12.5846 23.2773 16.2214 26.9192 16.2214 31.388C16.2214 35.8569 12.5795 39.4987 8.11068 39.4987ZM8.11068 24.2688C4.1848 24.2688 0.996357 27.4622 0.996357 31.3831C0.996357 35.304 4.18979 38.4974 8.11068 38.4974C12.0316 38.4974 15.225 35.309 15.225 31.3831C15.225 27.4572 12.0315 24.2688 8.11068 24.2688Z" fill="#122436"/>
<path d="M8.11059 27.1704C8.52332 27.1704 8.8579 26.8358 8.8579 26.4231C8.8579 26.0104 8.52332 25.6758 8.11059 25.6758C7.69786 25.6758 7.36328 26.0104 7.36328 26.4231C7.36328 26.8358 7.69786 27.1704 8.11059 27.1704Z" fill="white"/>
<path d="M8.11059 37.1001C8.52332 37.1001 8.8579 36.7655 8.8579 36.3528C8.8579 35.9401 8.52332 35.6055 8.11059 35.6055C7.69786 35.6055 7.36328 35.9401 7.36328 36.3528C7.36328 36.7655 7.69786 37.1001 8.11059 37.1001Z" fill="white"/>
<path d="M13.0715 32.1313C13.4843 32.1313 13.8188 31.7968 13.8188 31.384C13.8188 30.9713 13.4843 30.6367 13.0715 30.6367C12.6588 30.6367 12.3242 30.9713 12.3242 31.384C12.3242 31.7968 12.6588 32.1313 13.0715 32.1313Z" fill="white"/>
<path d="M3.14184 32.1313C3.55457 32.1313 3.88915 31.7968 3.88915 31.384C3.88915 30.9713 3.55457 30.6367 3.14184 30.6367C2.72911 30.6367 2.39453 30.9713 2.39453 31.384C2.39453 31.7968 2.72911 32.1313 3.14184 32.1313Z" fill="white"/>
<path d="M8.11184 30.7406L7.46912 31.3833L4.88842 28.8026C4.70907 28.6233 4.70907 28.3393 4.88842 28.1599C5.06777 27.9806 5.35179 27.9806 5.53115 28.1599L8.11184 30.7406Z" fill="#122436"/>
<path d="M8.56641 31.8414V30.9297H10.7585C11.0076 30.9297 11.2118 31.134 11.2118 31.383C11.2118 31.6321 11.0075 31.8363 10.7585 31.8363H8.56641V31.8414Z" fill="#122436"/>
<path d="M8.11208 32.1558C8.53857 32.1558 8.88431 31.8101 8.88431 31.3836C8.88431 30.9571 8.53857 30.6113 8.11208 30.6113C7.68558 30.6113 7.33984 30.9571 7.33984 31.3836C7.33984 31.8101 7.68558 32.1558 8.11208 32.1558Z" fill="white"/>
<path d="M8.11026 32.6541C7.41279 32.6541 6.83984 32.0861 6.83984 31.3837C6.83984 30.6862 7.4078 30.1133 8.11026 30.1133C8.81271 30.1133 9.38067 30.6812 9.38067 31.3837C9.3756 32.0861 8.80772 32.6541 8.11026 32.6541ZM8.11026 31.1146C7.96081 31.1146 7.8362 31.2391 7.8362 31.3887C7.8362 31.5381 7.96081 31.6627 8.11026 31.6627C8.2597 31.6627 8.38431 31.5382 8.38431 31.3887C8.38431 31.2392 8.2597 31.1146 8.11026 31.1146Z" fill="#122436"/>
<path d="M8.10983 32.4892C8.72062 32.4892 9.21576 31.9941 9.21576 31.3833C9.21576 30.7725 8.72062 30.2773 8.10983 30.2773C7.49905 30.2773 7.00391 30.7725 7.00391 31.3833C7.00391 31.9941 7.49905 32.4892 8.10983 32.4892Z" fill="#122436"/>
</g>
<defs>
<clipPath id="clip0_1708_36977">
<rect width="44" height="44" fill="white"/>
</clipPath>
</defs>
</svg>
