<svg width="460" height="367" viewBox="0 0 460 367" fill="none" xmlns="http://www.w3.org/2000/svg">
<g clip-path="url(#clip0_48_15426)">
<path d="M178.675 188.757C170.42 186.643 165.443 178.245 167.56 170.001C169.677 161.756 178.086 156.786 186.341 158.901C194.597 161.015 199.573 169.412 197.456 177.657C195.339 185.901 186.931 190.871 178.675 188.757Z" fill="#C3D0E2"/>
<path d="M223.401 66.0177C213.705 66.0177 205.845 58.1682 205.845 48.4854C205.845 38.8026 213.705 30.9531 223.401 30.9531C233.096 30.9531 240.956 38.8026 240.956 48.4854C240.956 58.1682 233.096 66.0177 223.401 66.0177Z" fill="#C3D0E2"/>
<path d="M69.2954 147.514C52.2299 147.514 38.3955 133.698 38.3955 116.654C38.3955 99.6112 52.2299 85.7949 69.2954 85.7949C86.3609 85.7949 100.195 99.6112 100.195 116.654C100.195 133.698 86.3609 147.514 69.2954 147.514Z" fill="#C3D0E2"/>
<path d="M351.658 149.215C349.17 138.691 355.695 128.146 366.233 125.661C376.77 123.176 387.33 129.693 389.818 140.216C392.306 150.74 385.781 161.286 375.243 163.771C364.706 166.256 354.146 159.739 351.658 149.215Z" fill="#C3D0E2"/>
<path d="M335.373 175.108C333.031 175.108 331.132 173.212 331.132 170.874C331.132 168.535 333.031 166.639 335.373 166.639C337.715 166.639 339.613 168.535 339.613 170.874C339.613 173.212 337.715 175.108 335.373 175.108Z" fill="#C3D0E2"/>
<path d="M205.845 86.5344C205.845 88.9976 207.845 90.9947 210.311 90.9947C212.778 90.9947 214.777 88.9976 214.777 86.5344C214.777 84.0713 212.778 82.0742 210.311 82.0742C207.845 82.0742 205.845 84.0705 205.845 86.5344Z" fill="#C3D0E2"/>
<path d="M148.985 195.901C145.673 192.593 145.673 187.231 148.985 183.924C152.296 180.616 157.666 180.616 160.977 183.924C164.289 187.231 164.289 192.593 160.977 195.9C157.666 199.208 152.296 199.208 148.985 195.901Z" fill="#C3D0E2"/>
<path d="M435.791 337.318C435.791 337.318 421.034 251.873 384.186 244.656C347.337 237.439 364.228 287.362 339.904 284.535C315.58 281.709 370.791 184.837 327.358 186.743C295.707 188.131 281.678 268.451 245.06 260.211C208.441 251.971 181.976 213.304 127.227 218.475C72.478 223.647 123.903 298.55 88.0251 301.874C52.1473 305.199 51.211 270.252 31.1565 276.296C11.102 282.34 26.0372 337.318 26.0372 337.318H435.791Z" fill="#C3D0E2"/>
<path d="M426.015 250.031C408.565 255.377 389.453 253.039 373.225 244.952C356.997 236.865 343.302 222.735 337.81 205.252C332.432 188.134 334.884 164.693 352.622 155.568C360.941 151.288 370.186 153.298 376.557 159.963C382.698 166.386 385.221 175.49 382.963 184.096C378.077 202.728 355.021 215.738 336.448 211.586C326.233 209.303 319.654 201.162 315.829 191.874C311.231 180.707 309.782 168.47 308.341 156.576C305.614 134.059 302.207 108.62 282.137 94.5101C277.268 91.0873 271.877 88.463 266.353 86.278C260.331 83.8958 253.936 81.7268 247.38 81.8208C236.697 81.9744 226.92 89.4302 223.754 99.6144C220.655 109.585 224.979 120.9 233.364 126.938C237.94 130.234 243.917 132.022 249.526 130.812C254.794 129.675 258.65 125.781 260.162 120.688C262.956 111.278 259.216 101.01 255.205 92.5466C250.698 83.0356 244.632 74.222 237.099 66.8464C221.351 51.4289 198.919 43.3351 177.016 48.0314C166.462 50.2943 155.579 55.6866 149.091 64.5697C145.452 69.5517 143.838 75.3864 144.438 81.5381C145.082 88.1398 147.697 94.4757 150.36 100.488C155.311 111.663 161.725 121.987 169.093 131.724C176.113 141.002 183.677 150.006 189.091 160.364C199.012 179.344 200.025 203.787 185.312 220.658C178.664 228.28 169.624 233.179 159.539 234.259C153.195 234.939 146.797 234.32 140.499 233.488C135.183 232.785 129.873 231.941 124.678 230.595C114.547 227.969 105.111 223.197 98.5927 214.806C92.097 206.443 88.5658 195.691 87.6264 185.224C86.6869 174.758 88.9957 163.635 96.9533 156.243C100.297 153.136 104.471 150.822 109.004 150.068C114.093 149.222 119.212 150.484 123.746 152.813C139.345 160.827 146.352 179.588 144.03 196.331C141.43 215.081 126.803 229.244 109.344 235.203C89.8816 241.845 68.913 237.786 51.6546 227.197C42.9313 221.845 35.201 214.991 28.5929 207.198C28.2762 206.825 28.8147 206.282 29.1337 206.658C42.89 222.881 62.1764 235.506 83.7494 237.517C103.141 239.324 124.148 231.48 135.657 215.361C146.085 200.756 146.456 179.905 136.303 165.023C130.733 156.859 120.855 149.677 110.528 150.633C99.2873 151.673 91.2785 161.743 89.0408 172.164C86.6196 183.443 89.2084 196.137 94.2574 206.379C99.3202 216.647 107.687 223.939 118.421 227.865C123.286 229.644 128.361 230.795 133.461 231.669C139.482 232.702 145.605 233.556 151.717 233.75C163.276 234.117 174.002 230.821 182.367 222.662C199.557 205.894 198.643 179.494 187.795 159.559C182.372 149.591 175.039 140.86 168.228 131.838C161.161 122.48 154.982 112.569 150.147 101.872C145.669 91.9652 140.836 80.2416 145.388 69.5074C149.2 60.5167 157.912 54.2221 166.658 50.5014C185.343 42.552 207.462 45.3887 224.512 55.9624C240.871 66.1076 253.559 83.0249 259.598 101.23C262.06 108.652 263.443 118.195 258.986 125.171C253.853 133.203 243.015 133.366 235.339 129.099C227.701 124.852 222.546 116.5 222.01 107.807C221.475 99.1399 225.977 90.852 232.943 85.8371C241.923 79.3729 252.652 80.5556 262.582 84.0501C272.773 87.6371 282.913 92.594 290.338 100.629C305.337 116.861 307.013 140.188 309.653 160.998C311.134 172.673 312.891 184.985 318.372 195.567C320.89 200.428 324.353 204.919 329.073 207.817C333.981 210.832 339.818 211.836 345.511 211.477C356.11 210.808 366.6 205.784 373.941 198.151C380.867 190.95 385.073 180.678 382.037 170.776C379.293 161.822 371.082 153.563 361.183 153.96C350.433 154.39 341.991 163.981 338.513 173.446C331.744 191.86 338.712 212.913 351.196 227.153C363.416 241.09 381.213 250.037 399.65 251.839C408.453 252.7 417.351 251.886 425.812 249.294C426.283 249.15 426.485 249.887 426.015 250.031Z" fill="white"/>
<path d="M131.997 55.9701C127.353 61.3066 124.111 67.8113 122.601 74.7164C122.171 76.6775 121.888 78.6655 121.747 80.6672C121.712 81.1546 120.947 81.1584 120.982 80.6672C121.491 73.4573 123.841 66.4056 127.765 60.3302C128.876 58.6105 130.112 56.9732 131.456 55.4292C131.78 55.0579 132.318 55.6003 131.997 55.9701Z" fill="white"/>
<path d="M188.975 79.8904C188.345 85.8618 187.396 92.2603 183.093 96.8092C182.044 97.9177 180.82 98.8559 179.458 99.5466C179.019 99.7689 178.632 99.1096 179.071 98.8865C184.203 96.2835 186.513 90.6269 187.489 85.2682C187.813 83.4881 188.02 81.6896 188.21 79.8904C188.261 79.406 189.026 79.4014 188.975 79.8904Z" fill="white"/>
<path d="M80.6521 103.371C82.485 112.637 84.318 121.904 86.1517 131.17C86.6688 133.782 87.1852 136.395 87.7016 139.007C87.7964 139.487 87.0589 139.693 86.9641 139.21C85.1311 129.943 83.2974 120.677 81.4645 111.41C80.9474 108.798 80.431 106.186 79.9146 103.574C79.8197 103.094 80.5572 102.889 80.6521 103.371Z" fill="white"/>
<path d="M72.819 159.475C63.1104 159.738 53.4025 160.001 43.6939 160.264C40.9652 160.338 38.2372 160.412 35.5084 160.486C35.0157 160.499 35.0165 159.735 35.5084 159.722C45.217 159.459 54.9249 159.196 64.6335 158.933C67.3623 158.859 70.0902 158.785 72.819 158.711C73.3116 158.698 73.3116 159.462 72.819 159.475Z" fill="white"/>
<path d="M411.113 109.324C404.538 109.113 397.962 108.901 391.387 108.691C384.78 108.478 378.172 108.267 371.565 108.054C367.849 107.935 364.131 107.816 360.415 107.696C359.924 107.68 359.922 106.916 360.415 106.932C366.99 107.143 373.566 107.354 380.141 107.565C386.749 107.778 393.356 107.989 399.963 108.202C403.68 108.321 407.396 108.44 411.113 108.56C411.604 108.576 411.607 109.34 411.113 109.324Z" fill="white"/>
<path d="M334.747 47.5941C325.458 47.5941 316.171 47.5941 306.882 47.5941C297.657 47.5941 288.432 47.5941 279.208 47.5941C273.991 47.5941 268.774 47.5941 263.558 47.5941C263.066 47.5941 263.064 46.8301 263.558 46.8301C272.846 46.8301 282.134 46.8301 291.423 46.8301C300.648 46.8301 309.872 46.8301 319.097 46.8301C324.313 46.8301 329.53 46.8301 334.747 46.8301C335.239 46.8301 335.24 47.5941 334.747 47.5941Z" fill="white"/>
<path d="M384.456 26.9457C389.041 31.1447 391.739 37.2269 391.946 43.4214C392.005 45.1786 391.851 46.9373 391.501 48.6594C391.403 49.1407 390.666 48.9367 390.764 48.4562C391.955 42.5871 390.606 36.3261 387.269 31.3701C386.309 29.946 385.182 28.6449 383.915 27.4851C383.551 27.1528 384.094 26.6142 384.456 26.9457Z" fill="white"/>
<path d="M430.03 218.645C421.43 218.645 412.829 218.645 404.229 218.645C395.692 218.645 387.156 218.645 378.619 218.645C373.777 218.645 368.936 218.645 364.094 218.645C363.601 218.645 363.601 217.881 364.094 217.881C372.694 217.881 381.294 217.881 389.895 217.881C398.432 217.881 406.969 217.881 415.505 217.881C420.347 217.881 425.189 217.881 430.03 217.881C430.522 217.881 430.523 218.645 430.03 218.645Z" fill="white"/>
<path d="M193.958 310.853L204.691 337.105H263.741C263.741 334.591 263.619 273.746 263.558 244.981C263.542 236.02 263.527 230.167 263.527 230.167C263.527 230.167 259.786 228.349 254.867 227.027C247.523 225.056 237.54 224.193 233.44 232.154C226.593 245.447 220.794 303.993 220.794 303.993L193.958 310.853Z" fill="#FFC400"/>
<path d="M231.506 300.446C225.919 302.172 220.331 303.898 214.744 305.625" stroke="#2F302B" stroke-width="2" stroke-miterlimit="10" stroke-linecap="round"/>
<path d="M249.643 293.439L245.138 332.744L253.488 333.807L249.643 293.439Z" fill="#2F302B"/>
<path d="M249.046 288.407L254.83 337.104H339.905C339.905 337.104 339.875 336.929 339.829 336.585C338.651 329.036 324.919 241.192 323.963 240.55C323.259 240.084 310.46 233.315 302.765 229.258C299.414 227.493 297.035 226.24 297.035 226.24L263.528 230.167L257.989 237.127L247.004 250.925C247.004 250.925 234.527 271.011 249.046 288.407Z" fill="#FFC400"/>
<path d="M319.373 260.865L322.701 298.985L292.936 309.685L306.495 325.286L324.679 337.105H339.905L319.373 260.865Z" fill="#2F302B"/>
<path d="M246.372 251.723C242.94 257.474 240.889 264.145 241.169 270.836C241.449 277.526 244.183 284.2 249.134 288.715" stroke="#2F302B" stroke-width="2" stroke-miterlimit="10" stroke-linecap="round"/>
<path d="M249.048 288.088C250.528 303.328 252.009 318.568 253.489 333.809" stroke="#2F302B" stroke-width="2" stroke-miterlimit="10" stroke-linecap="round"/>
<path d="M319.372 261.079C319.372 261.736 328.83 303.036 328.83 303.036L292.936 309.685L295.631 337.105C295.631 337.105 345.206 337.319 348.083 337.319C378.53 337.319 361.57 292.556 357.217 275.175C352.864 257.802 348.083 221.527 331.337 220.878C321.675 220.503 311.745 222.413 305.075 224.109C300.179 225.339 297.034 226.455 297.034 226.455C297.034 226.455 298.618 228.869 300.951 232.414C307.347 242.193 319.372 260.606 319.372 261.079Z" fill="#FFC400"/>
<path d="M292.935 309.685L334.355 301.875" stroke="#2F302B" stroke-width="2" stroke-miterlimit="10" stroke-linecap="round"/>
<mask id="mask0_48_15426" style="mask-type:luminance" maskUnits="userSpaceOnUse" x="193" y="220" width="173" height="118">
<path d="M220.794 303.993C220.794 303.993 226.593 245.448 233.44 232.154C237.54 224.193 247.524 225.057 254.868 227.028C259.787 228.349 263.527 230.168 263.527 230.168L297.034 226.241C297.034 226.241 297.119 226.286 297.279 226.37C298.095 226.091 300.963 225.142 305.075 224.109C311.745 222.413 321.675 220.503 331.337 220.878C348.083 221.527 352.864 257.802 357.217 275.175C361.57 292.556 378.53 337.319 348.083 337.319C345.206 337.319 295.631 337.105 295.631 337.105H263.742H254.829H204.691L193.958 310.854L220.794 303.993Z" fill="white"/>
</mask>
<g mask="url(#mask0_48_15426)">
<path d="M202.087 242.741L202.178 242.626L202.299 242.529C202.391 242.484 202.484 242.457 202.574 242.45C202.796 242.431 202.998 242.522 203.142 242.704L203.24 242.755L203.418 242.974C203.477 243.185 203.433 243.417 203.299 243.612C203.163 243.807 202.952 243.936 202.734 243.955C202.493 243.975 202.266 243.866 202.127 243.661L202.087 243.343C202.031 243.235 201.976 243.076 202.018 242.884L202.087 242.741Z" fill="white"/>
<path d="M193.963 277.9L194.188 277.881L194.457 277.972L194.641 278.138L194.757 278.397C194.76 278.713 194.626 278.923 194.499 279.129L194.265 279.391L193.989 279.484L193.644 279.416C193.434 279.234 193.234 278.918 193.504 278.396L193.524 278.4L193.562 278.235L193.715 278.037L193.963 277.9Z" fill="white"/>
<path d="M239.901 269.046C240.122 269.027 240.426 269.09 240.617 269.507L240.677 269.847L240.578 270.13L240.282 270.365L240.248 270.368C239.947 270.394 239.709 270.256 239.586 269.995L239.456 269.657L239.508 269.351L239.901 269.046Z" fill="white"/>
<path d="M193.86 282.311L193.777 282.309C193.362 282.249 193.151 281.966 192.965 281.719L192.9 281.382L192.988 281.112L193.253 280.854L193.339 280.654L193.468 280.505L193.654 280.393C193.734 280.374 193.805 280.363 193.868 280.358C193.885 280.356 193.903 280.354 193.919 280.354C194.019 280.259 194.158 280.199 194.35 280.183C194.359 280.182 194.367 280.181 194.376 280.18L194.507 280.232C194.611 280.174 194.752 280.115 194.905 280.102C195.135 280.082 195.335 280.173 195.456 280.351L195.501 280.602C195.592 280.723 195.705 280.928 195.648 281.193L195.52 281.397L195.35 281.53L195.119 281.605C195.018 281.602 194.896 281.6 194.781 281.609C194.779 281.609 194.778 281.609 194.776 281.61L194.764 281.746L194.544 281.987L194.416 282.006C194.351 282.084 194.222 282.214 193.942 282.303L193.86 282.311Z" fill="white"/>
<path d="M221.072 252.945L221.262 252.871C221.617 252.84 221.848 253.026 221.945 253.209C221.949 253.218 221.955 253.227 221.959 253.237L221.994 253.259C222.151 253.411 222.227 253.625 222.218 253.899L222.13 254.121L221.988 254.282L221.766 254.399L221.719 254.405C221.516 254.422 221.331 254.356 221.204 254.227C221.151 254.175 221.109 254.117 221.077 254.051C220.821 253.899 220.706 253.631 220.763 253.304L220.892 253.088L221.072 252.945Z" fill="white"/>
<path d="M226.876 314.506L226.992 314.453L227.128 314.431C227.44 314.404 227.678 314.554 227.825 314.877L227.914 315.135L227.9 315.384L227.771 315.637C227.648 315.737 227.497 315.8 227.344 315.813C227.061 315.837 226.787 315.696 226.647 315.455C226.503 315.211 226.519 314.908 226.686 314.666L226.876 314.506Z" fill="white"/>
<path d="M222.328 236.961C222.383 236.902 222.456 236.848 222.552 236.813L222.786 236.811L223.068 236.918C223.539 237.134 223.541 237.533 223.5 237.751L223.381 237.957L223.217 238.095L222.946 238.213C222.845 238.259 222.705 238.323 222.532 238.338C222.383 238.351 222.232 238.323 222.095 238.258L221.909 237.839L221.932 237.757L221.877 237.759C221.853 237.665 221.788 237.416 221.956 237.181C222.048 237.061 222.179 236.983 222.328 236.961Z" fill="white"/>
<path d="M230.684 297.348L230.969 297.407L231.173 297.556L231.19 297.58C231.653 297.795 231.697 298.164 231.651 298.437L231.434 298.708L231.053 298.847L230.94 298.86C230.793 298.873 230.662 298.85 230.551 298.795C230.442 298.789 230.334 298.753 230.24 298.69L230.111 298.535L230.038 298.365L230.014 298.164C230.049 297.973 230.139 297.468 230.684 297.348Z" fill="white"/>
<path d="M232.996 305.411C233.019 305.329 233.061 305.191 233.19 305.07C233.28 304.988 233.378 304.949 233.478 304.921C233.578 304.765 233.744 304.683 233.894 304.67L234.041 304.678L234.228 304.752L234.339 304.84L234.483 304.998C234.575 305.068 234.767 305.213 234.822 305.528C234.865 305.79 234.798 306.052 234.631 306.267C234.452 306.497 234.171 306.649 233.88 306.675C233.507 306.707 233.011 306.526 232.841 305.909L232.874 305.643L232.996 305.411Z" fill="white"/>
<path d="M229.883 281.007L229.816 281.009L229.568 280.911L229.406 280.757L229.297 280.531L229.284 280.383L229.353 280.142L229.517 279.924C229.55 279.891 229.637 279.803 229.78 279.756L230.136 279.834L230.277 279.959L230.311 279.918C230.63 280.104 230.648 280.358 230.63 280.496C230.615 280.605 230.541 280.869 230.183 280.969L230.098 280.952C230.039 280.977 229.968 281 229.883 281.007Z" fill="white"/>
<path d="M208.393 262.74C208.383 262.741 208.374 262.741 208.365 262.742C208.216 262.755 208.082 262.737 207.972 262.69C207.828 262.632 207.734 262.535 207.683 262.451H207.682C207.386 262.476 207.116 262.3 207.038 262.031L207.088 261.731L207.174 261.608C207.194 261.495 207.235 261.404 207.277 261.33L207.25 261.245L207.321 260.954L207.654 260.676L207.734 261.02L207.787 260.617L208.171 260.492L208.528 260.594C208.658 260.611 208.899 260.643 209.107 260.896L209.169 261.012C209.205 261.099 209.242 261.193 209.261 261.295C209.352 261.448 209.373 261.611 209.358 261.705L209.419 262.077L209.293 262.372C209.245 262.722 209.006 262.867 208.798 262.885C208.68 262.896 208.532 262.874 208.393 262.74Z" fill="white"/>
<path d="M229.351 256.179C229.227 256.19 229.105 256.175 228.956 256.157L228.772 256.078L228.63 255.962L228.519 255.797C228.388 255.391 228.509 255.061 228.9 254.804L229.128 254.695L229.347 254.678L229.584 254.743C229.695 254.824 229.756 254.925 229.798 255.017L229.892 255.083L230.041 255.374C230.037 255.924 229.682 256.151 229.351 256.179Z" fill="white"/>
<path d="M205.405 280.711L205.465 280.627C205.518 280.479 205.613 280.367 205.754 280.301L205.794 280.233L205.904 280.083L206.031 279.981L206.274 279.899C206.472 279.882 206.616 279.92 206.722 279.973L206.761 279.963L206.986 279.996L207.21 280.122C207.831 280.879 207.204 281.613 206.998 281.854L206.616 281.961L206.565 281.944C206.518 281.961 206.452 281.977 206.355 281.986C206.336 281.987 206.316 281.989 206.296 281.99L206.114 281.957C205.967 281.903 205.88 281.802 205.836 281.729L205.564 281.522C205.488 281.426 205.33 281.224 205.353 280.874L205.405 280.711Z" fill="white"/>
<path d="M202.501 221.918L202.641 221.799C202.721 221.55 202.889 221.386 203.197 221.301L203.494 221.275L203.715 221.33L203.888 221.44L203.799 221.58L203.915 221.45L204.09 221.599L204.214 221.885C204.215 221.819 204.174 221.731 204.145 221.706C204.246 221.781 204.556 222.011 204.471 222.566L204.425 222.686C204.246 223.007 204.018 223.235 203.728 223.385L203.495 223.418L203.296 223.379C203.26 223.386 203.217 223.393 203.169 223.399L202.896 223.315L202.708 223.153L202.585 222.898C202.582 222.806 202.559 222.749 202.508 222.628C202.461 222.517 202.417 222.405 202.385 222.271L202.501 221.918Z" fill="white"/>
<path d="M213.405 329.229L213.584 329.057C213.689 328.985 213.853 328.895 214.037 328.879C214.201 328.866 214.35 328.911 214.469 329.012C214.683 329.193 214.701 329.455 214.707 329.541L214.623 329.797L214.468 329.976L214.23 330.099L213.859 330.132L213.6 330.05L213.416 329.896L213.285 329.581L213.323 329.39L213.405 329.229Z" fill="white"/>
<path d="M211.225 300.268L211.497 300.361L211.676 300.526L211.789 300.781C211.788 300.74 211.769 300.689 211.772 300.689C211.843 300.778 212.011 300.988 211.954 301.439L211.876 301.605C211.757 301.767 211.588 301.866 211.4 301.882C211.153 301.903 210.977 301.779 210.896 301.708L210.88 301.671L210.639 301.581L210.411 301.216C210.431 300.998 210.494 300.33 211.225 300.268Z" fill="white"/>
<path d="M202.415 308.143L202.688 308.096L202.924 308.151L203.147 308.312C203.479 308.86 203.399 309.226 203.272 309.435L203.141 309.486L203.142 309.522C203.059 309.648 202.884 309.913 202.54 309.943L202.454 309.944L202.185 309.82L202.051 309.664C201.885 309.59 201.758 309.425 201.706 309.175L201.723 308.996C201.859 308.543 202.184 308.292 202.415 308.143Z" fill="white"/>
<path d="M206.21 286.877C206.242 286.839 206.282 286.797 206.333 286.76L206.451 286.757C206.544 286.689 206.656 286.647 206.775 286.637L207.033 286.667L207.172 286.754L207.277 286.859L207.382 287.052C207.449 287.222 207.573 287.541 207.414 287.847C207.322 288.022 207.16 288.146 206.957 288.194L206.777 288.191L206.616 288.145L206.434 288.053C206.273 287.966 205.972 287.804 205.927 287.464C205.896 287.258 205.972 287.049 206.139 286.89L206.21 286.877Z" fill="white"/>
<path d="M222.023 292.318L222.183 292.177L222.381 292.091L222.593 292.069C222.73 292.057 223.053 292.029 223.374 292.349L223.466 292.559C223.557 293.127 223.33 293.405 223.124 293.539L222.877 293.591L222.654 293.556L222.465 293.478C221.904 293.264 221.852 292.841 221.908 292.524L222.023 292.318Z" fill="white"/>
<path d="M213.233 271.061L213.302 271.013C213.379 270.892 213.502 270.805 213.653 270.767L213.821 270.764L213.973 270.798L214.124 270.873C214.17 270.912 214.21 270.953 214.247 270.997L214.33 271.011L214.548 271.165L214.699 271.441C214.721 271.95 214.428 272.158 214.148 272.182C214.139 272.182 214.131 272.182 214.122 272.183C214.028 272.263 213.909 272.314 213.773 272.325L213.65 272.325L213.329 272.099L213.192 271.78C213.055 271.583 213.029 271.387 213.115 271.203L213.233 271.061Z" fill="white"/>
<path d="M212.686 252.267C212.594 252.182 212.379 251.982 212.434 251.675C212.465 251.483 212.596 251.32 212.787 251.238L213.109 251.26L213.344 251.401L213.27 251.523L213.389 251.393C213.492 251.453 213.766 251.611 213.779 251.949C213.784 252.073 213.751 252.31 213.475 252.504L213.122 252.536L212.86 252.416L212.686 252.267Z" fill="white"/>
<path d="M242.002 237.301L242.306 237.065L242.677 237.033L242.993 237.175L243.173 237.421C243.223 237.48 243.375 237.66 243.352 237.958L243.271 238.156L243.145 238.308L242.954 238.426L242.833 238.446C242.625 238.463 242.48 238.388 242.491 238.387C242.491 238.387 242.492 238.387 242.493 238.388L242.315 238.328L242.084 238.174L241.925 237.863L241.963 237.844L241.9 237.59L242.002 237.301Z" fill="white"/>
<path d="M244.243 298.284C244.39 298.012 244.609 297.937 244.766 297.922L244.971 297.966L245.139 298.059L245.326 298.225C245.422 298.295 245.585 298.412 245.69 298.623L245.684 298.951L245.551 299.193L245.277 299.374L245.121 299.391C244.238 299.467 244.047 298.978 244.011 298.68L244.116 298.384L244.243 298.284Z" fill="white"/>
<path d="M198.901 322.3C199.103 322.282 199.302 322.343 199.445 322.465L199.586 322.67L199.628 322.8C199.66 323.068 199.601 323.531 198.836 323.635L198.68 323.525L198.586 323.584L198.402 323.468L198.254 323.279C198.18 323.048 198.21 322.808 198.335 322.622C198.456 322.44 198.667 322.32 198.901 322.3Z" fill="white"/>
<path d="M193.998 297.612L194.115 297.464L194.244 297.362C194.303 297.321 194.427 297.238 194.621 297.221C194.672 297.217 194.73 297.217 194.864 297.239L195.005 297.294C195.247 297.44 195.385 297.676 195.387 297.942C195.387 298.245 195.2 298.544 194.898 298.724L194.599 298.753L194.353 298.667L194.131 298.457C194.055 298.359 193.897 298.154 193.923 297.806L193.998 297.612Z" fill="white"/>
<path d="M302.016 255.518L302.154 255.468L302.309 255.449C302.41 255.458 302.503 255.485 302.584 255.525C302.783 255.625 302.907 255.81 302.934 256.04L302.99 256.134L303.026 256.414C302.965 256.624 302.807 256.799 302.589 256.894C302.371 256.989 302.123 256.988 301.928 256.89C301.711 256.781 301.577 256.568 301.566 256.322L301.7 256.03C301.708 255.909 301.745 255.745 301.882 255.604L302.016 255.518Z" fill="white"/>
<path d="M283.959 268.48L283.819 268.466L283.677 268.42C283.307 268.205 283.114 267.85 283.12 267.394L283.286 267.099L283.526 266.949L283.936 266.963L284.2 267.098L284.19 267.168L284.406 267.201L284.62 267.427L284.688 267.811C284.601 268.012 284.456 268.349 284.105 268.465L283.959 268.48Z" fill="white"/>
<path d="M276.606 281.169L276.806 281.27L276.987 281.489L277.056 281.727L277.019 282.007C276.855 282.279 276.631 282.387 276.414 282.496L276.077 282.596L275.793 282.529L275.536 282.291C275.453 282.026 275.45 281.651 275.953 281.35L275.968 281.363L276.087 281.243L276.321 281.154L276.606 281.169Z" fill="white"/>
<path d="M320.349 297.742C320.548 297.842 320.773 298.054 320.717 298.509L320.588 298.831L320.356 299.019L319.98 299.064L319.949 299.05C319.679 298.914 319.55 298.672 319.583 298.384L319.649 298.028L319.855 297.795L320.349 297.742Z" fill="white"/>
<path d="M248.073 277.833C248.054 277.697 248.069 277.486 248.244 277.26L248.481 277.125L248.724 277.095L248.845 277.138L249.095 277.176L249.295 277.29L249.459 277.493C249.512 277.664 249.552 277.985 249.214 278.233L249.2 278.222L249.064 278.363L248.798 278.45L248.484 278.403C248.358 278.316 248.121 278.15 248.073 277.833Z" fill="white"/>
<path d="M274.196 284.87L274.127 284.825C273.805 284.557 273.773 284.205 273.746 283.896L273.868 283.576L274.085 283.393L274.446 283.313L274.624 283.187L274.812 283.129L275.029 283.131C275.107 283.156 275.173 283.185 275.23 283.213C275.245 283.221 275.26 283.229 275.275 283.237C275.41 283.209 275.56 283.231 275.732 283.318C275.74 283.322 275.748 283.326 275.755 283.33L275.84 283.442C275.959 283.447 276.11 283.471 276.246 283.54C276.452 283.644 276.575 283.826 276.584 284.041L276.491 284.277C276.504 284.427 276.492 284.661 276.304 284.857L276.087 284.963L275.873 284.987L275.638 284.93C275.553 284.875 275.45 284.808 275.348 284.757C275.346 284.756 275.345 284.755 275.344 284.754L275.262 284.864L274.948 284.954L274.829 284.903C274.733 284.936 274.554 284.978 274.27 284.906L274.196 284.87Z" fill="white"/>
<path d="M312.8 274.164L313.001 274.199C313.32 274.359 313.418 274.639 313.404 274.845C313.404 274.855 313.403 274.866 313.401 274.877L313.42 274.914C313.474 275.125 313.426 275.348 313.274 275.576L313.082 275.719L312.878 275.781L312.627 275.764L312.584 275.745C312.402 275.653 312.279 275.5 312.239 275.324C312.221 275.252 312.216 275.179 312.223 275.106C312.086 274.842 312.128 274.554 312.349 274.307L312.574 274.191L312.8 274.164Z" fill="white"/>
<path d="M285.349 329.588L285.475 329.604L285.604 329.656C285.883 329.796 286.007 330.048 285.961 330.401L285.902 330.667L285.759 330.872L285.516 331.019C285.359 331.04 285.197 331.014 285.06 330.945C284.806 330.816 284.647 330.553 284.655 330.274C284.661 329.991 284.833 329.741 285.103 329.623L285.349 329.588Z" fill="white"/>
<path d="M322.279 261.221C322.356 261.2 322.447 261.192 322.547 261.213L322.747 261.334L322.931 261.574C323.218 262.004 323.01 262.345 322.86 262.51L322.65 262.622L322.437 262.654L322.145 262.613C322.034 262.598 321.882 262.58 321.727 262.502C321.593 262.434 321.479 262.331 321.397 262.204L321.459 261.75L321.522 261.693L321.474 261.666C321.503 261.574 321.58 261.327 321.846 261.216C321.988 261.16 322.14 261.162 322.279 261.221Z" fill="white"/>
<path d="M297.616 316.986L297.827 317.187L297.922 317.421L297.924 317.45C298.205 317.876 298.047 318.213 297.865 318.422L297.539 318.538L297.142 318.456L297.039 318.408C296.907 318.342 296.807 318.255 296.741 318.148C296.652 318.086 296.579 317.999 296.533 317.896L296.504 317.696L296.531 317.513L296.618 317.329C296.747 317.186 297.09 316.803 297.616 316.986Z" fill="white"/>
<path d="M295.341 325.06C295.405 325.003 295.513 324.906 295.685 324.872C295.806 324.849 295.91 324.867 296.01 324.896C296.177 324.817 296.361 324.834 296.496 324.902L296.616 324.985L296.736 325.147L296.784 325.279L296.822 325.49C296.864 325.598 296.951 325.822 296.833 326.119C296.732 326.364 296.537 326.551 296.281 326.648C296.008 326.748 295.688 326.731 295.427 326.599C295.093 326.431 294.766 326.016 294.946 325.403L295.114 325.194L295.341 325.06Z" fill="white"/>
<path d="M305.533 302.662L305.475 302.627L305.315 302.413L305.258 302.198L305.284 301.949L305.351 301.816L305.537 301.647L305.791 301.549C305.836 301.538 305.957 301.509 306.103 301.544L306.365 301.797L306.419 301.977L306.471 301.96C306.644 302.286 306.526 302.512 306.438 302.62C306.367 302.704 306.166 302.89 305.808 302.788L305.744 302.729C305.68 302.717 305.609 302.7 305.533 302.662Z" fill="white"/>
<path d="M296.858 275.844C296.85 275.839 296.841 275.836 296.833 275.831C296.699 275.764 296.595 275.679 296.526 275.581C296.434 275.457 296.405 275.324 296.406 275.226L296.405 275.225C296.141 275.091 296.004 274.8 296.079 274.53L296.278 274.301L296.416 274.241C296.493 274.156 296.576 274.1 296.65 274.059L296.672 273.972L296.886 273.762L297.316 273.701L297.203 274.036L297.46 273.722L297.853 273.817L298.104 274.091C298.205 274.174 298.394 274.327 298.436 274.652L298.428 274.784C298.413 274.875 298.396 274.975 298.357 275.072C298.354 275.25 298.286 275.399 298.224 275.472L298.081 275.819L297.818 276.004C297.593 276.278 297.313 276.276 297.127 276.182C297.02 276.127 296.905 276.031 296.858 275.844Z" fill="white"/>
<path d="M318.143 281.26C318.032 281.204 317.935 281.128 317.818 281.034L317.703 280.87L317.644 280.697L317.636 280.498C317.738 280.084 318.016 279.867 318.482 279.853L318.733 279.88L318.929 279.98L319.095 280.16C319.148 280.288 319.147 280.405 319.134 280.506L319.179 280.611L319.152 280.937C318.86 281.403 318.44 281.409 318.143 281.26Z" fill="white"/>
<path d="M284.862 289.565L284.958 289.525C285.08 289.428 285.221 289.382 285.376 289.4L285.445 289.363L285.619 289.293L285.78 289.273L286.03 289.331C286.207 289.42 286.31 289.528 286.372 289.628L286.411 289.641L286.585 289.786L286.709 290.011C286.84 290.981 285.919 291.277 285.617 291.374L285.236 291.264L285.201 291.223C285.152 291.212 285.087 291.192 285 291.148C284.983 291.14 284.965 291.13 284.948 291.121L284.81 290.997C284.714 290.874 284.692 290.742 284.693 290.658L284.57 290.339C284.556 290.217 284.529 289.963 284.731 289.677L284.862 289.565Z" fill="white"/>
<path d="M313.322 238.019L313.504 237.991C313.703 237.822 313.931 237.77 314.239 237.859L314.506 237.993L314.665 238.155L314.755 238.34L314.605 238.413L314.773 238.363L314.843 238.58L314.798 238.89C314.834 238.834 314.845 238.738 314.833 238.701C314.88 238.819 315.023 239.177 314.658 239.604L314.556 239.682C314.235 239.861 313.921 239.936 313.596 239.91L313.381 239.817L313.232 239.679C313.197 239.666 313.157 239.65 313.114 239.629L312.925 239.415L312.85 239.179L312.88 238.897C312.925 238.818 312.937 238.757 312.957 238.627C312.975 238.508 312.997 238.389 313.04 238.259L313.322 238.019Z" fill="white"/>
<path d="M266.141 335.044L266.384 334.992C266.511 334.985 266.698 334.995 266.863 335.078C267.01 335.152 267.112 335.269 267.16 335.417C267.246 335.684 267.124 335.916 267.085 335.993L266.878 336.166L266.652 336.238L266.385 336.217L266.053 336.05L265.876 335.844L265.801 335.617L265.855 335.281L265.988 335.137L266.141 335.044Z" fill="white"/>
<path d="M279.524 309.259L279.706 309.481L279.772 309.716L279.734 309.992C279.755 309.957 279.765 309.903 279.768 309.905C279.781 310.019 279.814 310.285 279.528 310.638L279.374 310.739C279.187 310.815 278.991 310.81 278.824 310.725C278.602 310.613 278.518 310.414 278.486 310.311L278.492 310.272L278.334 310.069L278.333 309.639C278.466 309.464 278.87 308.929 279.524 309.259Z" fill="white"/>
<path d="M267.886 311.338L268.142 311.44L268.314 311.611L268.419 311.866C268.413 312.506 268.153 312.775 267.935 312.887L267.796 312.862L267.778 312.893C267.64 312.957 267.352 313.09 267.044 312.935L266.97 312.89L266.807 312.644L266.775 312.442C266.673 312.291 266.65 312.084 266.739 311.844L266.848 311.701C267.202 311.386 267.609 311.343 267.886 311.338Z" fill="white"/>
<path d="M282.303 295.233C282.349 295.217 282.406 295.202 282.469 295.197L282.572 295.257C282.686 295.248 282.804 295.271 282.911 295.325L283.114 295.487L283.187 295.633L283.221 295.778L283.209 295.998C283.176 296.178 283.114 296.514 282.817 296.691C282.647 296.791 282.445 296.812 282.246 296.746L282.095 296.649L281.982 296.526L281.875 296.352C281.783 296.193 281.613 295.898 281.753 295.584C281.835 295.393 282.01 295.255 282.236 295.207L282.303 295.233Z" fill="white"/>
<path d="M292.894 308.162L293.104 308.127L293.317 308.157L293.509 308.25C293.632 308.312 293.921 308.458 294.026 308.898L293.993 309.124C293.772 309.655 293.433 309.773 293.187 309.778L292.949 309.694L292.778 309.547L292.658 309.381C292.294 308.905 292.473 308.518 292.687 308.276L292.894 308.162Z" fill="white"/>
<path d="M296.599 285.464L296.683 285.459C296.812 285.397 296.962 285.387 297.111 285.433L297.255 285.518L297.367 285.627L297.456 285.77C297.474 285.828 297.487 285.884 297.495 285.941L297.557 285.996L297.663 286.242L297.646 286.555C297.396 287 297.039 287.023 296.787 286.896C296.779 286.893 296.772 286.888 296.765 286.884C296.642 286.903 296.515 286.883 296.393 286.822L296.29 286.757L296.135 286.397L296.187 286.053C296.175 285.813 296.255 285.634 296.425 285.521L296.599 285.464Z" fill="white"/>
<path d="M306.021 269.186C305.988 269.064 305.91 268.782 306.118 268.55C306.245 268.403 306.443 268.333 306.648 268.365L306.91 268.553L307.035 268.795L306.908 268.86L307.077 268.812C307.134 268.918 307.284 269.196 307.117 269.49C307.056 269.598 306.903 269.783 306.566 269.803L306.249 269.645L306.089 269.405L306.021 269.186Z" fill="white"/>
<path d="M338.839 271.835L339.221 271.795L339.554 271.962L339.748 272.248L339.772 272.552C339.783 272.628 339.818 272.861 339.641 273.103L339.468 273.229L339.281 273.291H339.056L338.943 273.246C338.756 273.152 338.673 273.011 338.682 273.016C338.682 273.016 338.683 273.016 338.683 273.017L338.563 272.873L338.448 272.621L338.475 272.274L338.518 272.278L338.598 272.029L338.839 271.835Z" fill="white"/>
<path d="M308.661 324.897C308.929 324.743 309.154 324.794 309.297 324.864L309.449 325.009L309.542 325.176L309.613 325.416C309.658 325.526 309.735 325.711 309.714 325.945L309.536 326.222L309.295 326.358L308.966 326.368L308.824 326.3C308.034 325.902 308.128 325.385 308.254 325.112L308.5 324.914L308.661 324.897Z" fill="white"/>
<path d="M227.913 236.117C227.862 236.091 227.81 236.059 227.756 236.025L227.61 235.841L227.542 235.643V235.413C227.635 235.142 227.812 235.021 227.946 234.966C228.134 234.888 228.338 234.901 228.649 235.058C228.659 235.063 228.671 235.069 228.681 235.075L228.82 235.235L228.893 235.406L228.918 235.602C228.866 235.919 228.692 236.07 228.554 236.141C228.421 236.21 228.2 236.261 227.913 236.117Z" fill="white"/>
<path d="M244.104 256.724L244.34 256.754L244.475 256.822L244.644 257.006L244.743 257.261C244.755 257.308 244.784 257.433 244.744 257.587L244.501 257.838L244.216 257.922L243.944 257.891C243.846 257.837 243.616 257.708 243.557 257.421C243.522 257.241 243.569 257.056 243.691 256.9L243.894 256.772L244.104 256.724Z" fill="white"/>
<path d="M249.961 247.94C250.255 247.84 250.561 247.976 250.649 248.019C251.111 248.251 251.171 248.671 251.031 248.962L250.981 249.005C250.908 249.231 250.7 249.387 250.354 249.418L250.144 249.361C250.027 249.303 249.934 249.226 249.904 249.175L249.717 249.002L249.604 248.625C249.601 248.542 249.597 248.46 249.609 248.371L249.686 248.193L249.8 248.053L249.961 247.94Z" fill="white"/>
<path d="M233.883 268.623L234.03 268.607L234.188 268.627C234.246 268.649 234.299 268.671 234.347 268.695C234.733 268.889 234.833 269.183 234.858 269.342C234.903 269.639 234.782 269.95 234.513 270.221L234.327 270.32L234.138 270.354L233.841 270.322C233.732 270.316 233.583 270.307 233.405 270.23L233.25 270.102L233.147 269.949L233.087 269.757C233.077 269.137 233.374 268.9 233.735 268.675L233.883 268.623Z" fill="white"/>
<path d="M237.996 259.542C238.056 259.572 238.118 259.607 238.18 259.645L238.334 259.847L238.397 260.067L238.373 260.325L238.205 260.656L238.044 260.815L237.86 260.904L237.589 260.924C237.464 260.901 237.293 260.87 237.127 260.786C236.919 260.68 236.772 260.516 236.688 260.193L236.713 259.972C236.831 259.65 237.037 259.512 237.189 259.452C237.545 259.315 237.885 259.486 237.996 259.542Z" fill="white"/>
<path d="M217.629 303.586L217.857 303.76L218.015 304.059C218.04 304.129 218.092 304.273 218.056 304.463L217.847 304.722L217.593 304.831L217.39 304.844L217.326 304.494L217.365 304.846L217.024 304.679L216.864 304.417L216.888 304C217.121 303.54 217.453 303.543 217.629 303.586Z" fill="white"/>
<path d="M233.798 293.9L233.98 294.083L234.071 294.291L234.083 294.544C233.977 294.864 233.784 295.001 233.647 295.057C233.535 295.105 233.305 295.165 233.023 295.022L232.886 294.939L232.744 294.727L232.694 294.504L232.733 294.249C232.961 293.854 233.38 293.717 233.798 293.9Z" fill="white"/>
<path d="M260.861 234.459L260.968 234.633L260.919 234.423L261.142 234.353L261.453 234.403C261.815 234.658 261.949 235.065 261.813 235.488L261.656 235.684L261.462 235.799L261.207 235.84L261.022 235.777C260.866 235.698 260.758 235.57 260.711 235.411C260.532 235.262 260.448 235.019 260.509 234.79L260.666 234.579L260.861 234.459Z" fill="white"/>
<path d="M237.019 273.909L237.211 273.88L237.422 273.914L237.622 274.015L237.805 274.24L237.87 274.484L237.807 274.806C237.572 275.271 237.238 275.266 237.059 275.22L236.862 275.089L236.717 274.894C236.512 274.592 236.554 274.257 236.828 274L237.019 273.909Z" fill="white"/>
<path d="M257.448 321.537C257.629 321.628 257.766 321.784 257.824 321.962L257.836 322.211L257.803 322.343C257.69 322.587 257.394 322.95 256.69 322.637L256.615 322.461L256.504 322.463L256.409 322.267L256.383 322.029C256.441 321.794 256.593 321.605 256.798 321.513C256.995 321.423 257.238 321.431 257.448 321.537Z" fill="white"/>
<path d="M251.397 231.63C251.498 231.682 251.597 231.757 251.693 231.853L251.79 232.048L251.819 232.242L251.786 232.454L251.685 232.652L251.506 232.818L251.302 232.903L250.951 232.87C250.908 232.848 250.868 232.822 250.832 232.793C250.783 232.783 250.734 232.765 250.687 232.741L250.556 232.656L250.435 232.467L250.385 232.273L250.4 232.05C250.497 231.817 250.643 231.661 250.84 231.586C251.013 231.521 251.211 231.536 251.397 231.63Z" fill="white"/>
<path d="M239.229 239.286L239.467 239.527L239.514 239.722C239.667 239.991 239.615 240.215 239.544 240.354L239.418 240.493L239.274 240.585L239.1 240.641C238.972 240.647 238.848 240.622 238.741 240.568C238.43 240.412 238.3 240.037 238.437 239.7C238.568 239.367 238.908 239.189 239.229 239.286Z" fill="white"/>
<path d="M220.564 249.785L220.548 249.438L220.716 249.105L220.921 248.928L221.148 248.853L221.487 248.908L221.592 248.988L221.675 249.081L221.745 249.197C221.824 249.42 221.79 249.668 221.655 249.856C221.514 250.061 221.271 250.191 221.022 250.195L220.717 250.029L220.564 249.785Z" fill="white"/>
<path d="M214.343 291.288L214.418 291.245L214.411 291.2C214.645 290.915 214.908 290.906 215.093 290.948L215.116 290.942L215.251 290.951L215.393 290.991C215.499 291.047 215.822 291.217 215.923 291.589C215.993 291.855 215.928 292.142 215.725 292.465L215.48 292.626L215.253 292.661C215.012 292.78 214.807 292.717 214.703 292.664C214.628 292.627 214.559 292.573 214.496 292.504C214.491 292.5 214.488 292.495 214.484 292.49C214.451 292.48 214.419 292.468 214.387 292.452C214.271 292.393 214.011 292.208 214.1 291.749L214.217 291.578L214.343 291.288Z" fill="white"/>
<path d="M204.445 278.27C204.579 278.206 204.739 278.19 204.918 278.239C205.091 278.18 205.279 278.193 205.448 278.278C205.762 278.436 205.93 278.809 206.047 279.096L206.077 279.272L206.064 279.443C205.94 279.817 205.732 280.066 205.445 280.185C205.255 280.263 204.943 280.313 204.536 280.107C204.462 280.071 204.387 280.025 204.308 279.972L204.174 279.805L204.104 279.621L204.09 279.42C204.092 279.391 204.08 279.311 204.071 279.257C204.036 279.05 203.941 278.504 204.445 278.27Z" fill="white"/>
<path d="M239.773 301.506C239.575 301.407 239.43 301.262 239.337 301.077L239.301 300.916L239.303 300.763L239.35 300.591C239.718 299.885 240.203 300.033 240.395 300.129L240.556 300.232L240.692 300.471L240.721 300.714L240.666 300.925C240.664 300.997 240.659 301.148 240.567 301.322L240.385 301.486L240.181 301.567L239.939 301.574C239.878 301.555 239.823 301.531 239.773 301.506Z" fill="white"/>
<path d="M223.365 282.896L223.513 282.915L223.671 282.974L223.682 283.006L223.722 283C223.986 283.134 224.087 283.311 224.12 283.456C224.192 283.566 224.214 283.672 224.217 283.753L224.179 283.926L224.089 284.105L223.963 284.178L223.973 284.187C223.81 284.49 223.586 284.627 223.244 284.578L223.13 284.537C222.774 284.358 222.567 284.025 222.59 283.668C222.616 283.325 222.85 283.035 223.203 282.914L223.365 282.896Z" fill="white"/>
<path d="M223.694 262.689C223.899 262.472 224.139 262.46 224.313 262.524C224.419 262.508 224.555 262.508 224.694 262.58C224.845 262.655 224.953 262.789 224.999 262.955L225.009 263.1L224.99 263.23L224.934 263.452C224.929 263.558 224.921 263.719 224.838 263.905L224.667 264.08L224.46 264.183L224.29 264.243L224.101 264.257L223.896 264.211C223.405 263.927 223.196 263.474 223.321 262.967L223.547 262.719L223.694 262.689Z" fill="white"/>
<path d="M222.598 274.52L222.745 275.014L222.681 275.124L222.691 275.153L222.556 275.42L222.48 275.452L222.431 275.551L221.954 275.707C221.611 275.535 221.479 275.153 221.646 274.822C221.728 274.661 221.874 274.536 222.05 274.476C222.23 274.418 222.425 274.433 222.598 274.52Z" fill="white"/>
<path d="M255.162 298.76L255.128 298.447L255.146 298.399L255.134 298.38C255.128 298.279 255.113 298.045 255.279 297.815C255.355 297.706 255.502 297.569 255.657 297.57L255.915 297.451L256.223 297.456C256.416 297.553 256.5 297.679 256.539 297.738L256.533 297.742L256.627 297.883L256.624 297.886L256.677 297.929L256.785 298.139L256.809 298.402C256.728 298.673 256.533 298.886 256.265 298.997C255.988 299.117 255.668 299.118 255.429 298.997C255.318 298.942 255.227 298.86 255.162 298.76Z" fill="white"/>
<path d="M266.76 271.236L266.9 271.239C266.926 271.22 266.955 271.2 266.987 271.181L267.155 271.133L267.322 271.129L267.498 271.169C267.552 271.197 267.596 271.225 267.634 271.252L267.66 271.251L267.895 271.336L268.103 271.536C268.168 271.699 268.149 271.845 268.129 271.956L268.156 272.111L267.947 272.544C267.782 272.773 267.611 272.857 267.46 272.872C267.438 272.888 267.416 272.903 267.393 272.916C267.214 273.018 267.012 273.026 266.837 272.938C266.664 272.851 266.553 272.682 266.53 272.48L266.478 272.351L266.446 272.13C266.425 272.055 266.41 271.993 266.402 271.938L266.353 271.836C266.323 271.673 266.367 271.506 266.475 271.369L266.76 271.236Z" fill="white"/>
<path d="M258.539 288.015L258.545 288.025L258.646 287.952L258.877 287.898L259.117 287.936C259.302 287.864 259.51 287.87 259.681 287.957C259.825 288.029 259.926 288.148 259.973 288.293L259.983 288.301L260.127 288.583C260.128 288.627 260.124 288.669 260.117 288.711C260.181 288.852 260.207 289.015 260.188 289.18L260.027 289.439L259.943 289.493C259.916 289.572 259.881 289.655 259.836 289.76L259.7 289.954L259.531 290.074L259.193 290.139C258.995 290.138 258.696 290.138 258.354 289.966L258.226 289.894L258.09 289.736L258.011 289.557L257.99 289.34C258.001 289.288 258.014 289.24 258.029 289.196C257.978 289.114 257.953 289.036 257.937 288.985L257.948 288.98L257.916 288.922L257.871 288.719L257.898 288.49C258.065 288.145 258.363 288.063 258.539 288.015Z" fill="white"/>
<path d="M246.646 314.916L246.91 314.853C246.994 314.867 247.073 314.892 247.147 314.93C247.493 315.104 247.646 315.492 247.502 315.833C247.364 316.16 247.009 316.314 246.659 316.197L246.47 316.049L246.357 315.869L246.302 315.564C246.297 315.486 246.294 315.396 246.307 315.299L246.45 315.058L246.646 314.916Z" fill="white"/>
<path d="M278.908 257.523L278.993 257.603L279.038 257.527C279.077 257.544 279.201 257.571 279.225 257.574L279.499 257.685L279.675 257.872L279.77 258.209C279.776 258.335 279.789 258.563 279.641 258.823L279.64 258.837C279.608 258.915 279.491 259.138 279.192 259.159L279.115 259.215L278.893 259.282C278.734 259.276 278.607 259.246 278.491 259.188C278.41 259.148 278.35 259.099 278.298 259.057C278.263 259.029 278.222 258.997 278.145 258.958L277.987 258.799L277.897 258.617L277.865 258.397C277.92 258.095 278.138 257.678 278.486 257.474L278.908 257.523Z" fill="white"/>
<path d="M264.555 264.074C264.652 264.036 264.757 264.026 264.872 264.049C264.972 264.017 265.073 264.011 265.172 264.03C265.282 264.049 265.391 264.085 265.497 264.138C265.871 264.327 266.108 264.672 266.203 264.932L266.222 265.102L266.199 265.259L266.136 265.417C265.746 265.958 265.034 266.088 264.321 265.745L264.2 265.651L264.111 265.544L264.042 265.411C264.013 265.303 264.008 265.196 264.03 265.092C263.978 264.968 263.97 264.822 264.016 264.68L264.177 264.517C264.219 264.393 264.305 264.177 264.555 264.074Z" fill="white"/>
<path d="M287.726 242.08C287.659 242.064 287.59 242.048 287.51 242.009C287.43 241.968 287.374 241.919 287.262 241.822L287.144 241.624L287.102 241.419L287.132 241.187L287.299 240.857L287.505 240.68L287.731 240.605L288.002 240.625L288.269 240.76L288.395 240.867L288.485 240.989L288.548 241.137C288.593 241.394 288.53 241.647 288.362 241.889L288.195 242.019L288.014 242.086L287.726 242.08Z" fill="white"/>
<path d="M274.495 274.902L274.736 274.803L274.724 274.775C274.796 274.714 274.948 274.589 275.173 274.594C275.329 274.597 275.471 274.633 275.604 274.7C275.678 274.737 275.75 274.785 275.832 274.848C275.865 274.873 275.902 274.902 275.954 274.931L276.111 275.116L276.185 275.315L276.189 275.549C276.079 275.88 275.857 276.01 275.74 276.072L275.447 276.182L275.179 276.155L275.078 276.092C274.975 276.1 274.783 276.103 274.568 275.995L274.421 275.905L274.282 275.696L274.233 275.478L274.284 275.199L274.35 275.206L274.495 274.902Z" fill="white"/>
<path d="M234.123 309.416C234.174 309.362 234.297 309.234 234.492 309.197C234.574 309.18 234.658 309.179 234.747 309.197C234.889 309.144 235.038 309.151 235.176 309.219C235.268 309.266 235.351 309.34 235.423 309.439L235.493 309.59L235.533 309.722C235.593 309.883 235.719 310.216 235.472 310.616L235.321 310.751L235.154 310.829L234.957 310.86C234.769 310.835 234.553 310.796 234.365 310.702C234.046 310.541 233.86 310.245 233.838 309.869L233.978 309.568L234.105 309.471L234.123 309.416Z" fill="white"/>
<path d="M269.787 235.381C269.65 235.471 269.473 235.497 269.299 235.444L269.068 235.226L269.041 235.152C268.856 234.976 268.814 234.795 268.811 234.675C268.808 234.517 268.87 234.36 268.931 234.313C269.159 233.923 269.601 233.794 270.007 233.998C270.138 234.064 270.258 234.162 270.354 234.28L270.424 234.418L270.459 234.557L270.464 234.71C270.418 234.944 270.269 235.321 269.787 235.381Z" fill="white"/>
<path d="M273.102 227.778L273.043 227.836L272.858 227.925L272.643 227.955C272.563 227.94 272.484 227.914 272.409 227.876C272.061 227.701 271.838 227.291 271.901 226.944C271.948 226.682 272.154 226.486 272.413 226.456L272.481 226.493L272.624 226.435L272.93 226.454C273.138 226.569 273.424 226.765 273.513 227.117L273.509 227.304L273.459 227.469L273.36 227.629C273.285 227.698 273.198 227.748 273.102 227.778Z" fill="white"/>
<path d="M266.264 297.959L266.442 297.894L266.605 297.874C266.676 297.871 266.825 297.865 266.999 297.953C267.045 297.976 267.094 298.006 267.197 298.097L267.288 298.217C267.417 298.468 267.411 298.741 267.273 298.968C267.113 299.227 266.797 299.383 266.445 299.377L266.175 299.245L266.011 299.042L265.932 298.747C265.919 298.624 265.893 298.368 266.097 298.084L266.264 297.959Z" fill="white"/>
<path d="M252.467 265.865L252.614 265.873L252.757 265.91C252.919 265.992 253.099 266.173 253.015 266.653C252.816 267.152 252.602 267.234 252.531 267.262L252.389 267.285L252.241 267.278L252.097 267.241C251.961 267.172 251.745 266.995 251.818 266.581C251.819 266.576 251.973 266.025 252.321 265.889L252.467 265.865Z" fill="white"/>
<path d="M259.086 276.006L258.934 275.655L259.136 275.511L259.353 275.453L259.605 275.479L260.003 275.68L260.129 275.786L260.219 275.908L260.283 276.06C260.31 276.218 260.315 276.595 259.798 276.833C259.503 277.233 259.182 277.131 259.056 277.068C258.971 277.025 258.9 276.962 258.848 276.884L258.81 276.871L258.626 276.702L258.512 276.439C258.514 276.046 258.73 275.85 258.847 275.745L259.086 276.006Z" fill="white"/>
<path d="M249.463 268.177L249.465 268.177C249.601 268.176 249.747 268.215 249.903 268.293L250.063 268.377L250.211 268.527L250.308 268.713L250.347 268.859C250.358 269.067 250.376 269.416 250.007 269.887L249.845 269.993C249.766 270.024 249.692 270.035 249.623 270.035L249.383 270.132L249.22 270.123L249.08 270.087C249.005 270.048 248.944 269.998 248.887 269.937L248.749 269.962C248.396 269.727 248.254 269.497 248.246 269.161L248.17 268.967L248.157 268.776L248.205 268.573C248.459 268.143 249.035 267.961 249.463 268.177Z" fill="white"/>
<path d="M247.846 288.449C248.084 288.569 248.204 288.846 248.131 289.105C248.057 289.365 247.771 289.632 247.318 289.601L247.015 289.383L246.899 289.102L246.96 288.735C247.36 288.276 247.713 288.382 247.846 288.449Z" fill="white"/>
<path d="M246.274 280.233L246.612 280.195C246.734 280.207 246.915 280.236 247.076 280.318C247.326 280.444 247.462 280.667 247.436 280.914L247.339 281.083C247.328 281.314 247.233 281.496 247.052 281.624L246.912 281.683L246.661 281.715C246.565 281.728 246.365 281.757 246.134 281.641L246.098 281.621L245.916 281.38L245.864 281.136L245.896 280.906C245.889 280.84 245.877 280.728 245.903 280.595L246.065 280.362L246.274 280.233Z" fill="white"/>
<path d="M268.154 245.61L267.955 245.571L267.86 245.509C267.788 245.506 267.666 245.494 267.527 245.424C267.429 245.375 267.337 245.303 267.242 245.206L267.147 245.013L267.117 244.819L267.147 244.552C267.146 244.43 267.145 244.227 267.286 244.014C267.359 243.908 267.459 243.837 267.594 243.803C267.734 243.639 267.981 243.547 268.255 243.663L268.423 243.809C268.501 243.824 268.578 243.851 268.653 243.888C268.771 243.948 269.048 244.121 269.073 244.439L269.05 244.592L269 244.725L268.934 244.873C268.871 245.057 268.755 245.397 268.377 245.58L268.154 245.61Z" fill="white"/>
<path d="M248.638 280.972L248.889 280.866L249.13 280.865L249.318 280.946C249.397 280.947 249.543 280.949 249.722 281.028L249.895 281.191L249.991 281.381L250.012 281.704C250.013 281.98 249.921 282.137 249.736 282.348L249.574 282.453L249.405 282.505L249.097 282.498C248.966 282.486 248.801 282.472 248.638 282.389C248.388 282.263 248.237 282.023 248.221 281.73L248.372 281.423L248.466 281.358L248.434 281.332C248.472 281.229 248.523 281.09 248.638 280.972Z" fill="white"/>
<path d="M356.311 282.932L356.385 283.143L356.363 283.426L356.246 283.644L356.024 283.82C355.718 283.901 355.481 283.823 355.25 283.751L354.938 283.589L354.781 283.344L354.761 282.994C354.886 282.746 355.144 282.475 355.717 282.607L355.718 282.628L355.888 282.623L356.118 282.722L356.311 282.932Z" fill="white"/>
<path d="M338.128 260.721C338.209 260.61 338.366 260.468 338.65 260.428L338.915 260.496L339.11 260.643L339.167 260.758L339.32 260.959L339.384 261.18L339.359 261.439C339.279 261.598 339.084 261.856 338.668 261.8L338.665 261.782L338.47 261.789L338.219 261.667L338.025 261.416C337.997 261.264 337.943 260.981 338.128 260.721Z" fill="white"/>
<path d="M352.004 283.917L351.985 283.837C351.94 283.421 352.163 283.146 352.358 282.905L352.669 282.76L352.952 282.779L353.267 282.971L353.483 283.005L353.659 283.094L353.814 283.246C353.851 283.317 353.88 283.385 353.9 283.444C353.906 283.46 353.912 283.476 353.916 283.492C354.033 283.567 354.125 283.686 354.189 283.868C354.192 283.877 354.194 283.884 354.197 283.893L354.179 284.032C354.261 284.118 354.353 284.24 354.404 284.385C354.479 284.602 354.44 284.818 354.297 284.979L354.065 285.084C353.97 285.202 353.798 285.361 353.528 285.371L353.298 285.298L353.128 285.166L352.998 284.962C352.976 284.864 352.949 284.744 352.911 284.635C352.91 284.634 352.91 284.632 352.909 284.631L352.774 284.653L352.486 284.499L352.436 284.38C352.344 284.336 352.187 284.243 352.031 283.994L352.004 283.917Z" fill="white"/>
<path d="M328.883 323.801L328.963 323.9L329.019 324.026C329.121 324.322 329.035 324.589 328.757 324.811L328.529 324.961L328.284 325.008L328.007 324.946C327.879 324.852 327.781 324.72 327.731 324.576C327.638 324.308 327.708 324.007 327.907 323.813C328.109 323.614 328.406 323.554 328.682 323.657L328.883 323.801Z" fill="white"/>
<path d="M346.473 323.263L346.485 323.554L346.39 323.787L346.371 323.81C346.277 324.311 345.928 324.444 345.652 324.467L345.337 324.323L345.108 323.988L345.069 323.882C345.02 323.743 345.009 323.611 345.036 323.489C345.015 323.383 345.023 323.269 345.061 323.163L345.179 322.999L345.326 322.887L345.516 322.814C345.71 322.803 346.222 322.765 346.473 323.263Z" fill="white"/>
<path d="M339.216 327.486C339.302 327.489 339.446 327.495 339.594 327.59C339.696 327.657 339.758 327.742 339.81 327.833C339.986 327.891 340.107 328.031 340.156 328.173L340.185 328.316L340.158 328.516L340.1 328.645L339.981 328.823C339.936 328.93 339.843 329.15 339.55 329.282C339.307 329.388 339.036 329.387 338.785 329.278C338.518 329.161 338.301 328.927 338.206 328.651C338.082 328.298 338.137 327.773 338.693 327.457L338.96 327.424L339.216 327.486Z" fill="white"/>
<path d="M362.136 318.467L362.118 318.402L362.152 318.137L362.261 317.943L362.453 317.781L362.594 317.732L362.845 317.739L363.096 317.845C363.136 317.869 363.243 317.932 363.324 318.059L363.336 318.422L363.249 318.59L363.297 318.613C363.194 318.968 362.953 319.048 362.814 319.064C362.705 319.076 362.431 319.07 362.245 318.748L362.24 318.661C362.202 318.61 362.163 318.547 362.136 318.467Z" fill="white"/>
<path d="M356.399 294.7L356.496 294.738C356.652 294.754 356.785 294.818 356.883 294.939L356.958 294.96L357.132 295.029L357.261 295.127L357.401 295.342C357.466 295.529 357.465 295.678 357.44 295.793L357.458 295.829L357.482 296.055L357.415 296.303C356.834 297.091 355.966 296.664 355.682 296.524L355.484 296.181L355.488 296.127C355.461 296.085 355.428 296.026 355.395 295.933C355.389 295.916 355.382 295.897 355.377 295.877L355.364 295.693C355.38 295.537 355.457 295.428 355.516 295.368L355.65 295.053C355.725 294.956 355.882 294.754 356.227 294.689L356.399 294.7Z" fill="white"/>
<path d="M311.279 314.386L311.49 314.516C311.587 314.6 311.714 314.736 311.774 314.911C311.828 315.066 311.821 315.221 311.752 315.361C311.628 315.613 311.379 315.695 311.297 315.722L311.027 315.704L310.816 315.598L310.637 315.397L310.515 315.046L310.531 314.775L310.636 314.559L310.908 314.354L311.104 314.344L311.279 314.386Z" fill="white"/>
<path d="M338.851 305.147L338.827 305.433L338.711 305.647L338.491 305.819C338.531 305.809 338.575 305.777 338.576 305.78C338.507 305.871 338.344 306.084 337.893 306.141L337.712 306.106C337.526 306.03 337.389 305.891 337.327 305.714C337.245 305.48 337.323 305.278 337.371 305.182L337.403 305.158L337.432 304.902L337.729 304.592C337.946 304.559 338.61 304.455 338.851 305.147Z" fill="white"/>
<path d="M329.039 298.558L329.153 298.81L329.157 299.053L329.055 299.308C328.606 299.764 328.231 299.776 327.996 299.706L327.914 299.591L327.879 299.601C327.736 299.552 327.436 299.448 327.323 299.121L327.301 299.038L327.354 298.748L327.473 298.58C327.504 298.401 327.632 298.237 327.863 298.125L328.04 298.098C328.514 298.117 328.837 298.369 329.039 298.558Z" fill="white"/>
<path d="M350.612 296.998C350.657 297.018 350.707 297.048 350.756 297.087L350.788 297.202C350.876 297.274 350.945 297.374 350.985 297.486L351.019 297.744L350.969 297.899L350.892 298.027L350.731 298.176C350.582 298.283 350.303 298.481 349.967 298.402C349.774 298.356 349.614 298.23 349.518 298.045L349.476 297.87L349.481 297.704L349.525 297.504C349.57 297.326 349.653 296.996 349.972 296.868C350.164 296.787 350.386 296.81 350.582 296.931L350.612 296.998Z" fill="white"/>
<path d="M349.225 313.642L349.4 313.763L349.532 313.933L349.606 314.134C349.651 314.264 349.757 314.569 349.527 314.958L349.345 315.099C348.816 315.326 348.49 315.176 348.31 315.008L348.198 314.782L348.177 314.558L348.207 314.356C348.276 313.761 348.674 313.606 348.996 313.582L349.225 313.642Z" fill="white"/>
<path d="M348.902 336.618C349.201 336.693 349.328 336.886 349.381 337.036L349.39 337.245L349.341 337.43L349.226 337.652C349.182 337.762 349.108 337.949 348.93 338.102L348.609 338.177L348.342 338.108L348.098 337.886L348.043 337.739C347.753 336.904 348.18 336.599 348.46 336.49L348.774 336.519L348.902 336.618Z" fill="white"/>
<path d="M349.973 242.794L350.122 242.979L350.172 243.121L350.166 243.37L350.059 243.623C350.035 243.664 349.97 243.775 349.833 243.858L349.483 243.869L349.221 243.731L349.047 243.52C349.014 243.413 348.937 243.161 349.096 242.914C349.196 242.76 349.359 242.66 349.555 242.633L349.79 242.682L349.973 242.794Z" fill="white"/>
<path d="M360.298 240.548C360.578 240.68 360.705 240.991 360.738 241.084C360.907 241.571 360.659 241.915 360.356 242.026L360.29 242.023C360.08 242.135 359.821 242.103 359.552 241.884L359.44 241.698C359.397 241.575 359.384 241.455 359.398 241.398L359.384 241.143L359.566 240.794C359.621 240.731 359.676 240.67 359.745 240.615L359.925 240.539L360.105 240.518L360.298 240.548Z" fill="white"/>
<path d="M334.343 244.248L334.459 244.339L334.56 244.463C334.587 244.519 334.609 244.571 334.626 244.621C334.768 245.03 334.635 245.31 334.543 245.441C334.37 245.686 334.065 245.825 333.684 245.833L333.481 245.773L333.322 245.668L333.13 245.438C333.056 245.358 332.955 245.248 332.88 245.069L332.857 244.87L332.89 244.688L332.979 244.508C333.404 244.055 333.782 244.092 334.198 244.18L334.343 244.248Z" fill="white"/>
<path d="M343.621 240.577C343.643 240.64 343.663 240.708 343.681 240.779L343.65 241.032L343.543 241.234L343.346 241.403L342.994 241.525L342.768 241.526L342.573 241.463L342.365 241.29C342.291 241.187 342.19 241.045 342.128 240.87C342.052 240.649 342.061 240.43 342.226 240.139L342.399 239.998C342.707 239.848 342.952 239.892 343.102 239.955C343.455 240.101 343.58 240.46 343.621 240.577Z" fill="white"/>
<path d="M298.318 258.088L298.361 258.372L298.266 258.695C298.237 258.763 298.173 258.903 298.015 259.013L297.685 259.055L297.426 258.957L297.271 258.825L297.469 258.53L297.252 258.811L297.123 258.454L297.19 258.155L297.498 257.872C297.985 257.702 298.221 257.935 298.318 258.088Z" fill="white"/>
<path d="M316.682 262.356L316.686 262.613L316.606 262.825L316.438 263.016C316.139 263.172 315.905 263.136 315.767 263.081C315.653 263.038 315.446 262.921 315.343 262.623L315.302 262.469L315.348 262.217L315.468 262.022L315.673 261.866C316.113 261.741 316.509 261.933 316.682 262.356Z" fill="white"/>
<path d="M332.916 250.225L333.073 250.338L333.202 250.509L333.275 250.721L333.25 251.009L333.127 251.229L332.857 251.417C332.364 251.589 332.129 251.352 332.031 251.197L331.981 250.965L332.012 250.724C332.076 250.364 332.339 250.152 332.715 250.158L332.916 250.225Z" fill="white"/>
<path d="M314.435 298.64C314.502 298.831 314.493 299.038 314.409 299.208L314.245 299.394L314.129 299.467C313.878 299.564 313.413 299.62 313.124 298.905L313.192 298.727L313.111 298.651L313.179 298.445L313.327 298.255C313.532 298.126 313.773 298.096 313.984 298.172C314.189 298.244 314.358 298.418 314.435 298.64Z" fill="white"/>
<path d="M358.61 226.874L358.614 227.213L358.512 227.385C358.434 227.685 358.242 227.809 358.093 227.861L357.907 227.873L357.739 227.839L357.575 227.759C357.479 227.675 357.408 227.57 357.368 227.457C357.254 227.129 357.422 226.77 357.754 226.622C358.079 226.475 358.447 226.584 358.61 226.874Z" fill="white"/>
<path d="M337.886 221.462L338.116 221.2L338.469 221.078L338.739 221.094L338.955 221.198L339.161 221.472L339.18 221.603L339.174 221.728L339.144 221.86C339.045 222.076 338.848 222.23 338.621 222.271C338.376 222.321 338.112 222.246 337.93 222.075L337.826 221.744L337.886 221.462Z" fill="white"/>
<path d="M304.518 246.968L304.602 246.989L304.629 246.952C304.996 246.91 305.191 247.085 305.294 247.245L305.315 247.257L305.405 247.357L305.477 247.484C305.516 247.598 305.63 247.945 305.442 248.282C305.307 248.522 305.061 248.684 304.69 248.775L304.401 248.72L304.214 248.588C303.957 248.506 303.855 248.318 303.816 248.208C303.788 248.13 303.776 248.042 303.779 247.949C303.779 247.943 303.779 247.936 303.78 247.93C303.763 247.9 303.749 247.87 303.737 247.836C303.694 247.713 303.637 247.399 304.02 247.132L304.224 247.09L304.518 246.968Z" fill="white"/>
<path d="M306.469 230.737C306.61 230.785 306.736 230.885 306.83 231.044C306.995 231.122 307.121 231.261 307.184 231.441C307.3 231.772 307.16 232.158 307.045 232.445L306.944 232.591L306.816 232.705C306.466 232.888 306.144 232.922 305.855 232.808C305.664 232.732 305.405 232.551 305.255 232.121C305.228 232.044 305.205 231.958 305.185 231.865L305.206 231.652L305.283 231.471L305.413 231.316C305.435 231.298 305.481 231.232 305.513 231.186C305.631 231.014 305.943 230.555 306.469 230.737Z" fill="white"/>
<path d="M315.679 271.97C315.607 271.762 315.603 271.557 315.666 271.36L315.751 271.219L315.859 271.11L316.014 271.019C316.77 270.766 317.015 271.21 317.086 271.413L317.13 271.598L317.061 271.866L316.913 272.06L316.727 272.173C316.674 272.223 316.565 272.329 316.379 272.39L316.133 272.381L315.93 272.298L315.751 272.135C315.722 272.078 315.698 272.023 315.679 271.97Z" fill="white"/>
<path d="M316.846 247.2L316.94 247.316L317.012 247.468L316.998 247.499L317.031 247.522C317.129 247.801 317.077 247.999 316.999 248.126C316.976 248.255 316.917 248.347 316.863 248.407L316.716 248.505L316.526 248.571L316.384 248.536L316.384 248.549C316.056 248.654 315.801 248.597 315.589 248.324L315.534 248.215C315.404 247.839 315.486 247.457 315.752 247.215C316.009 246.986 316.379 246.941 316.717 247.099L316.846 247.2Z" fill="white"/>
<path d="M331.151 232.908C331.449 232.894 331.631 233.052 331.71 233.22C331.798 233.281 331.895 233.377 331.946 233.524C332.001 233.683 331.986 233.855 331.904 234.006L331.81 234.116L331.706 234.197L331.511 234.319C331.434 234.391 331.316 234.501 331.127 234.578L330.882 234.585L330.662 234.515L330.498 234.439L330.352 234.319L330.237 234.144C330.081 233.599 330.246 233.128 330.689 232.85L331.024 232.828L331.151 232.908Z" fill="white"/>
<path d="M322.127 240.648L321.888 241.106L321.765 241.14L321.752 241.168L321.47 241.266L321.393 241.236L321.289 241.272L320.838 241.054C320.712 240.692 320.882 240.326 321.233 240.203C321.402 240.145 321.595 240.155 321.764 240.235C321.933 240.319 322.063 240.465 322.127 240.648Z" fill="white"/>
<path d="M328.652 280.684L328.844 280.436L328.89 280.413L328.896 280.392C328.961 280.316 329.114 280.136 329.394 280.087C329.524 280.062 329.725 280.065 329.836 280.173L330.104 280.267L330.322 280.485C330.393 280.689 330.366 280.836 330.353 280.906L330.345 280.904L330.315 281.071H330.311L330.319 281.138L330.251 281.363L330.085 281.569C329.837 281.708 329.55 281.724 329.28 281.619C328.997 281.513 328.766 281.291 328.679 281.039C328.637 280.924 328.629 280.801 328.652 280.684Z" fill="white"/>
<path d="M356.151 268.958L356.25 269.057C356.282 269.061 356.316 269.067 356.352 269.075L356.506 269.157L356.629 269.27L356.728 269.422C356.746 269.48 356.759 269.531 356.768 269.576L356.788 269.593L356.898 269.818L356.908 270.106C356.842 270.269 356.727 270.36 356.634 270.425L356.546 270.556L356.094 270.722C355.817 270.772 355.634 270.714 355.515 270.62C355.488 270.616 355.462 270.611 355.436 270.604C355.237 270.553 355.085 270.419 355.021 270.234C354.957 270.051 354.994 269.853 355.119 269.692L355.172 269.563L355.302 269.381C355.339 269.313 355.372 269.258 355.405 269.213L355.441 269.106C355.533 268.968 355.68 268.878 355.853 268.855L356.151 268.958Z" fill="white"/>
<path d="M338.559 275.307L338.557 275.318L338.68 275.336L338.884 275.457L339.03 275.652C339.213 275.729 339.358 275.878 339.421 276.058C339.474 276.21 339.463 276.366 339.396 276.503L339.398 276.516L339.305 276.818C339.276 276.85 339.243 276.878 339.209 276.903C339.156 277.048 339.061 277.184 338.934 277.29L338.638 277.364L338.54 277.344C338.465 277.381 338.382 277.417 338.277 277.461L338.044 277.506L337.838 277.475L337.551 277.287C337.41 277.15 337.194 276.941 337.068 276.581L337.027 276.441L337.039 276.233L337.107 276.05L337.242 275.878C337.287 275.849 337.329 275.823 337.371 275.802C337.391 275.707 337.428 275.634 337.452 275.587L337.462 275.59L337.48 275.527L337.589 275.35L337.768 275.203C338.128 275.07 338.4 275.219 338.559 275.307Z" fill="white"/>
<path d="M311.282 286.381L311.516 286.52C311.567 286.588 311.606 286.661 311.633 286.739C311.76 287.104 311.6 287.489 311.259 287.634C310.933 287.773 310.571 287.637 310.4 287.31L310.368 287.073L310.413 286.865L310.585 286.608C310.636 286.549 310.696 286.482 310.773 286.421L311.043 286.348L311.282 286.381Z" fill="white"/>
<path d="M359.553 262.278C359.649 262.318 359.732 262.383 359.799 262.48C359.892 262.527 359.969 262.592 360.027 262.675C360.093 262.765 360.147 262.867 360.186 262.978C360.323 263.374 360.253 263.786 360.141 264.039L360.035 264.174L359.91 264.272L359.754 264.341C359.097 264.46 358.495 264.058 358.221 263.316L358.2 263.165L358.21 263.026L358.253 262.883C358.308 262.785 358.379 262.705 358.468 262.645C358.516 262.52 358.612 262.411 358.744 262.34L358.973 262.333C359.089 262.273 359.302 262.178 359.553 262.278Z" fill="white"/>
<path d="M359.157 276.963L359.4 277.059L359.411 277.03C359.505 277.038 359.701 277.052 359.859 277.211C359.969 277.323 360.046 277.446 360.095 277.588C360.123 277.666 360.141 277.75 360.156 277.853C360.162 277.893 360.169 277.941 360.186 277.998L360.169 278.24L360.084 278.434L359.925 278.605C359.615 278.767 359.364 278.706 359.238 278.67L358.95 278.544L358.776 278.34L358.747 278.223C358.668 278.158 358.528 278.027 358.449 277.799L358.406 277.633L358.452 277.385L358.569 277.194L358.799 277.029L358.843 277.08L359.157 276.963Z" fill="white"/>
<path d="M306.114 273.73C306.189 273.727 306.365 273.72 306.531 273.828C306.602 273.873 306.663 273.932 306.714 274.006C306.854 274.067 306.956 274.175 307.007 274.32C307.04 274.417 307.049 274.528 307.031 274.65L306.978 274.807L306.914 274.929C306.846 275.087 306.705 275.414 306.248 275.53L306.045 275.522L305.871 275.463L305.708 275.347C305.591 275.2 305.462 275.021 305.393 274.823C305.276 274.487 305.348 274.144 305.595 273.86L305.905 273.74L306.064 273.759L306.114 273.73Z" fill="white"/>
<path d="M337.189 287.818L337.361 287.895L337.492 287.994C337.546 288.041 337.658 288.141 337.722 288.325C337.739 288.373 337.752 288.429 337.764 288.565L337.745 288.714C337.663 288.984 337.468 289.177 337.211 289.243C336.917 289.318 336.58 289.21 336.331 288.963L336.229 288.681L336.253 288.422L336.402 288.155C336.479 288.057 336.639 287.855 336.983 287.793L337.189 287.818Z" fill="white"/>
<path d="M349.617 255.171L349.718 255.279L349.794 255.404C349.854 255.576 349.857 255.831 349.462 256.117C348.972 256.337 348.76 256.248 348.691 256.219L348.572 256.136L348.47 256.029L348.392 255.903C348.343 255.759 348.311 255.482 348.652 255.235C348.656 255.232 349.15 254.944 349.494 255.087L349.617 255.171Z" fill="white"/>
<path d="M347.315 267.055L347.45 266.698L347.695 266.734L347.892 266.843L348.055 267.037L348.202 267.458L348.218 267.621L348.198 267.772L348.139 267.926C348.048 268.058 347.789 268.333 347.251 268.145C346.76 268.227 346.6 267.931 346.554 267.798C346.522 267.708 346.516 267.613 346.533 267.521L346.515 267.485L346.5 267.235L346.601 266.967C346.877 266.686 347.168 266.695 347.325 266.701L347.315 267.055Z" fill="white"/>
<path d="M345.849 254.746L345.85 254.748C345.949 254.842 346.026 254.971 346.083 255.136L346.139 255.307L346.142 255.517L346.082 255.718L346.009 255.85C345.872 256.007 345.641 256.27 345.048 256.353L344.858 256.317C344.78 256.284 344.719 256.241 344.669 256.193L344.429 256.096L344.318 255.977L344.243 255.853C344.215 255.774 344.207 255.696 344.208 255.612L344.092 255.534C344.002 255.12 344.06 254.856 344.288 254.609L344.369 254.416L344.492 254.27L344.669 254.157C345.152 254.024 345.692 254.294 345.849 254.746Z" fill="white"/>
<path d="M330.573 268.191C330.661 268.443 330.554 268.724 330.32 268.86C330.086 268.996 329.696 268.989 329.392 268.653L329.325 268.284L329.438 268.002L329.737 267.781C330.344 267.73 330.524 268.051 330.573 268.191Z" fill="white"/>
<path d="M335.164 261.197L335.433 261.404C335.513 261.497 335.622 261.644 335.681 261.815C335.773 262.079 335.715 262.333 335.525 262.493L335.338 262.548C335.169 262.707 334.974 262.771 334.755 262.737L334.614 262.683L334.411 262.532C334.332 262.474 334.168 262.356 334.084 262.112L334.071 262.073L334.109 261.773L334.243 261.562L334.425 261.419C334.466 261.367 334.536 261.278 334.647 261.201L334.924 261.146L335.164 261.197Z" fill="white"/>
<path d="M336.347 263.369L336.602 263.468L336.776 263.633L336.855 263.822C336.91 263.878 337.014 263.981 337.088 264.161L337.099 264.399L337.037 264.602L336.826 264.849C336.636 265.048 336.459 265.097 336.18 265.12L335.99 265.083L335.833 265.003L335.618 264.784C335.531 264.685 335.423 264.56 335.362 264.387C335.27 264.123 335.328 263.845 335.522 263.624L335.844 263.508L335.956 263.527L335.952 263.486C336.049 263.439 336.183 263.374 336.347 263.369Z" fill="white"/>
</g>
<path d="M292.936 309.686C292.936 309.686 273.284 314.574 268.076 317.27C262.869 319.967 251.269 336.147 251.269 336.147H304.307L292.936 309.686Z" fill="#FF98B6"/>
<path d="M269.13 321.67C267.301 322.574 265.643 323.822 264.268 325.328C263.213 326.483 262.325 327.784 261.251 328.922C260.009 330.237 258.538 331.312 257.075 332.378" stroke="#2F302B" stroke-width="2" stroke-miterlimit="10" stroke-linecap="round"/>
<path d="M285.858 327.321C284.82 327.614 283.783 327.908 282.746 328.201C278.647 329.361 274.51 330.536 270.756 332.549" stroke="#2F302B" stroke-width="2" stroke-miterlimit="10" stroke-linecap="round"/>
<path d="M278.477 322.668C272.536 325.101 267.164 328.909 262.903 333.708" stroke="#2F302B" stroke-width="2" stroke-miterlimit="10" stroke-linecap="round"/>
<path d="M282.192 199.518L299.326 233.573L265.394 237.432L258.93 211.764L282.192 199.518Z" fill="#FF98B6"/>
<path d="M258.93 211.765L263.526 230.013C263.526 230.013 271.762 221.138 272.973 214.487L270.164 206.096L258.93 211.765Z" fill="#2F302B"/>
<path d="M254.867 227.026C255.533 231.014 256.642 234.345 257.988 237.126C259.61 240.48 261.584 243.039 263.557 244.98C268.262 249.602 272.975 250.725 272.975 250.725C288.466 246.447 296.713 238.379 300.951 232.198C301.662 231.159 302.266 230.166 302.764 229.257C304.462 226.193 305.282 224.198 305.32 224.045C300.424 225.275 297.034 226.239 297.034 226.239L263.527 230.166C263.527 230.166 259.786 228.348 254.867 227.026Z" fill="#FF98B6"/>
<path d="M238.135 154.346C238.135 154.346 224.239 155.396 221.552 164.958C218.864 174.521 228.271 184.419 228.775 184.419C229.279 184.419 238.135 154.346 238.135 154.346Z" fill="#2F302B"/>
<path d="M224.481 185.442C225.078 190.66 225.851 195.687 226.891 200.317C227.648 203.716 228.551 206.895 229.637 209.76C233.202 219.195 238.718 225.307 247.477 224.917C262.525 224.26 271.95 216.002 278.735 209.064C285.513 202.127 300.568 183.295 290.141 164.302C279.722 145.301 260.207 149.595 249.627 150.916C233.562 152.926 222.003 163.805 224.481 185.442Z" fill="#FF98B6"/>
<path d="M226.891 200.316C227.648 203.716 228.551 206.894 229.637 209.759C231.756 208.14 232.912 205.871 232.369 203.854C231.81 201.783 229.599 200.523 226.891 200.316Z" fill="#FF7BA7"/>
<path d="M247.149 200.271C247.96 203.266 251.898 204.959 256.141 203.813C260.383 202.667 263.325 199.117 262.514 196.122C261.703 193.128 257.447 191.823 253.204 192.968C248.963 194.114 246.339 197.277 247.149 200.271Z" fill="#FF7BA7"/>
<path d="M245.986 203.229C246.016 204.56 245.563 205.899 244.727 206.937C243.891 207.975 242.68 208.706 241.371 208.963" stroke="#2F302B" stroke-width="2" stroke-miterlimit="10" stroke-linecap="round"/>
<path d="M238.574 191.409C238.574 191.409 237.869 182.596 244.531 182.574C249.958 182.557 252.186 187.248 252.186 187.248C252.186 187.248 251.508 194.157 245.373 194.626C240.171 195.022 238.574 191.409 238.574 191.409Z" fill="white"/>
<mask id="mask1_48_15426" style="mask-type:luminance" maskUnits="userSpaceOnUse" x="241" y="185" width="15" height="14">
<path d="M242.058 189.508C242.058 189.508 247.8 182.779 252.526 187.468C256.376 191.288 254.63 196.178 254.63 196.178C254.63 196.178 249.258 200.585 244.589 196.584C240.63 193.191 242.058 189.508 242.058 189.508Z" fill="white"/>
</mask>
<g mask="url(#mask1_48_15426)">
<path d="M237.947 199.315C235.37 196.741 235.37 192.568 237.947 189.994C240.525 187.42 244.703 187.42 247.281 189.994C249.858 192.568 249.858 196.741 247.281 199.315C244.703 201.889 240.525 201.889 237.947 199.315Z" fill="#2F302B"/>
</g>
<path d="M238.575 191.409C238.575 191.409 237.87 182.596 244.532 182.574C249.959 182.557 252.187 187.248 252.187 187.248" stroke="#2F302B" stroke-width="2" stroke-miterlimit="10" stroke-linecap="round"/>
<path d="M251.674 185.827C252.595 185.893 253.552 185.822 254.383 185.419C255.215 185.016 255.901 184.235 256.006 183.318" stroke="#2F302B" stroke-width="2" stroke-miterlimit="10" stroke-linecap="round"/>
<path d="M250.252 184.584C251.794 184.109 252.868 182.753 253.842 181.469" stroke="#2F302B" stroke-width="2" stroke-miterlimit="10" stroke-linecap="round"/>
<path d="M233.382 193.08C233.382 193.08 230.831 184.919 224.544 187.118C221.962 188.021 224.145 199.518 228.285 198.607C233.38 197.484 233.382 193.08 233.382 193.08Z" fill="white"/>
<mask id="mask2_48_15426" style="mask-type:luminance" maskUnits="userSpaceOnUse" x="226" y="189" width="9" height="13">
<path d="M231.97 189.795C229.429 188.783 223.514 198.885 227.235 200.913C231.814 203.408 234.713 200.088 234.713 200.088" fill="white"/>
</mask>
<g mask="url(#mask2_48_15426)">
<path d="M220.348 203.343C217.599 200.953 217.312 196.789 219.706 194.044C222.1 191.299 226.269 191.011 229.018 193.402C231.766 195.793 232.053 199.956 229.659 202.701C227.265 205.446 223.096 205.734 220.348 203.343Z" fill="#2F302B"/>
</g>
<path d="M233.382 193.08C233.382 193.08 230.831 184.919 224.544 187.118C221.693 188.615 220.042 187.118 220.042 187.118" stroke="#2F302B" stroke-width="2" stroke-miterlimit="10" stroke-linecap="round"/>
<path d="M224.803 186.949C223.967 186.956 223.114 186.779 222.402 186.342C221.69 185.905 221.129 185.19 220.975 184.369" stroke="#2F302B" stroke-width="2" stroke-miterlimit="10" stroke-linecap="round"/>
<path d="M229.087 181.848C228.032 181.397 226.816 181.413 225.713 181.73C224.61 182.046 223.607 182.645 222.687 183.33" stroke="#2F302B" stroke-width="2" stroke-miterlimit="10" stroke-linecap="round"/>
<path d="M251.261 179.426C247.447 177.461 242.693 177.435 238.858 179.356" stroke="#2F302B" stroke-width="2" stroke-miterlimit="10" stroke-linecap="round"/>
<path d="M233.362 192.996C234.212 195.066 234.872 197.213 235.327 199.404C234.381 199.003 233.157 199.462 232.711 200.386C232.204 201.434 232.688 202.709 233.418 203.616C234.487 204.946 236.089 205.835 237.784 206.039" stroke="#2F302B" stroke-width="2" stroke-miterlimit="10" stroke-linecap="round"/>
<path d="M235.735 155.597C235.735 155.597 240.366 184.42 270.939 187.249L283.951 203.012C283.951 203.012 309.615 176.023 287.085 159.671C287.085 159.671 271.589 132.319 235.735 155.597Z" fill="#2F302B"/>
<path d="M235.563 155.934C233.322 160.688 235.367 166.461 238.665 170.555C243.122 176.088 250.403 179.803 257.367 178.371" stroke="#2F302B" stroke-width="2" stroke-miterlimit="10" stroke-linecap="round"/>
<path d="M285.888 162.779C291.599 163.954 296.953 168.773 298.326 173.301C299.831 178.268 298.617 183.833 295.708 188.132C292.799 192.431 288.337 195.531 283.503 197.435" stroke="#2F302B" stroke-width="2" stroke-miterlimit="10" stroke-linecap="round"/>
<path d="M277.581 156.184C273.526 146.228 278.32 134.875 288.289 130.825C298.257 126.775 309.626 131.563 313.681 141.519C317.736 151.474 312.942 162.828 302.973 166.878C293.005 170.927 281.636 166.14 277.581 156.184Z" fill="#2F302B"/>
<path d="M268.883 200.941C262.907 208.416 253.698 213.219 244.14 213.842" stroke="#2F302B" stroke-width="2" stroke-miterlimit="10" stroke-linecap="round"/>
<path d="M251.989 212.616C251.746 210.278 250.072 208.536 246.374 208.92C242.676 209.305 239.875 211.511 240.118 213.849C240.362 216.187 243.557 217.771 247.255 217.386C250.954 217.002 252.232 214.954 251.989 212.616Z" fill="#2F302B"/>
<path d="M271.413 210.503C262.093 209.003 255.754 200.241 257.256 190.932C258.758 181.624 267.532 175.294 276.853 176.794C286.173 178.294 292.512 187.056 291.01 196.365C289.508 205.673 280.734 212.003 271.413 210.503Z" fill="#2F302B"/>
<path d="M267.044 205.718C260.369 199.051 260.369 188.242 267.044 181.575C273.72 174.908 284.543 174.908 291.219 181.575C297.894 188.242 297.894 199.051 291.219 205.718C284.543 212.385 273.72 212.385 267.044 205.718Z" fill="#8C70F2"/>
<path d="M281.537 179.133C281.537 179.133 275.181 148.853 256.113 146.872C251.006 146.728 246.387 149.836 246.387 149.836C246.387 149.836 263.042 150.027 269.761 182.573L281.537 179.133Z" fill="#8C70F2"/>
<path d="M269.37 203.396C263.978 198.011 263.978 189.282 269.37 183.897C274.761 178.513 283.503 178.513 288.894 183.897C294.286 189.282 294.286 198.011 288.894 203.396C283.503 208.78 274.761 208.78 269.37 203.396Z" stroke="#2F302B" stroke-width="2" stroke-miterlimit="10" stroke-linecap="round"/>
<path d="M299.908 332.713H192.259V337.104H304.306C304.306 334.679 302.337 332.713 299.908 332.713Z" fill="#2F302B"/>
<path d="M61.08 244.656H186.7C189.712 244.656 192.337 246.707 193.062 249.628L214.778 337.105H75.6525L54.7183 252.778C53.6932 248.65 56.8205 244.656 61.08 244.656Z" fill="#2F302B"/>
<path d="M54.6874 244.656H180.307C183.32 244.656 185.945 246.707 186.67 249.628L208.386 337.105H69.2592L48.3257 252.778C47.3006 248.65 50.4287 244.656 54.6874 244.656Z" fill="#8C70F2"/>
<path d="M118.177 290.884C119.584 295.819 124.733 299.823 129.675 299.823C132.184 299.823 134.181 298.799 135.382 297.141C135.389 297.133 135.389 297.126 135.389 297.126C136.552 295.514 136.957 293.313 136.33 290.884C135.06 285.941 129.912 281.938 124.832 281.938C122.308 281.938 120.296 282.931 119.087 284.535C117.871 286.155 117.473 288.401 118.177 290.884Z" fill="#FFE5ED"/>
<path d="M118.176 290.884C119.584 295.819 124.732 299.823 129.674 299.823C132.183 299.823 134.18 298.799 135.381 297.141C135.389 297.134 135.389 297.126 135.389 297.126C135.236 297.317 125.291 289.356 119.087 284.535C117.87 286.155 117.473 288.401 118.176 290.884Z" fill="#2F302B"/>
<path d="M208.386 337.104C208.386 337.104 180.931 318.634 144.069 318.634C107.206 318.634 93.9365 304.977 81.5458 292.18C68.6502 278.861 54.1642 276.297 54.1642 276.297L69.2599 337.105C73.0857 337.104 208.386 337.104 208.386 337.104Z" fill="#2F302B"/>
<path d="M391.358 291.572C391.366 291.572 391.366 291.572 391.366 291.572C391.381 291.579 391.389 291.579 391.389 291.579C391.381 291.564 391.358 291.533 391.327 291.487C390.494 290.212 381.841 277.254 374.161 275.925C372.914 275.711 371.69 275.803 370.535 276.299C362.036 279.921 390.203 291.113 391.358 291.572Z" fill="#2F302B"/>
<path d="M391.374 291.586C399.093 287.224 407.416 274.32 403.79 270.202L403.782 270.194C403.308 269.66 402.634 269.278 401.732 269.079C393.86 267.345 391.374 291.586 391.374 291.586Z" fill="#2F302B"/>
<path d="M391.378 293.442C390.288 282.96 386.029 272.827 379.3 264.709" stroke="#2F302B" stroke-width="2" stroke-miterlimit="10" stroke-linecap="round"/>
<path d="M380.318 266.092C380.318 266.092 380.81 248.777 375.709 249.896C372.592 250.58 373.752 255.354 373.752 255.354C373.752 255.354 371.062 248.161 367.721 251.112C365.71 252.888 370.983 257.378 370.983 257.378C370.983 257.378 365.629 255.6 365.629 259.291C365.629 262.982 380.318 266.092 380.318 266.092Z" fill="#FF98B6"/>
<path d="M377.626 266.099C378.583 266.174 379.507 266.174 380.319 266.093L380.314 266.088C380.233 266.019 379.475 265.362 378.379 264.53C377.219 263.643 375.68 262.565 374.194 261.786C371.805 260.537 369.533 260.056 369.116 262.406C368.795 264.23 373.542 265.799 377.626 266.099Z" fill="#2F302B"/>
<path d="M377.904 260.6C378.241 261.54 378.62 262.463 378.978 263.28C379.641 264.785 380.229 265.918 380.309 266.077C380.315 266.083 380.315 266.083 380.315 266.088L380.32 266.093C380.32 266.093 382.079 261.118 381.667 257.637C381.464 255.86 380.699 254.478 378.845 254.338C376.226 254.141 376.792 257.446 377.904 260.6Z" fill="#2F302B"/>
<path d="M380.32 266.094C380.32 266.094 376.905 255.951 373.714 258.235C370.521 260.521 380.32 266.094 380.32 266.094Z" fill="#2F302B"/>
<path d="M411.23 295.012L373.303 290.881L375.996 337.105H411.23V295.012Z" fill="#8C70F2"/>
<path d="M411.23 295.012L373.303 290.881L375.996 337.105H411.23V295.012Z" fill="#8C70F2"/>
<path d="M411.23 307.646L375.996 337.105H411.23V307.646Z" fill="#2F302B"/>
<mask id="mask3_48_15426" style="mask-type:luminance" maskUnits="userSpaceOnUse" x="373" y="290" width="39" height="48">
<path d="M411.23 295.012L373.303 290.881L375.996 337.105H411.23V295.012Z" fill="white"/>
</mask>
<g mask="url(#mask3_48_15426)">
<path d="M417.027 327.436C416.363 325.078 414.598 323.131 412.498 321.864C408.116 319.22 402.58 319.391 397.576 320.471C392.572 321.551 387.736 323.451 382.649 324.02C375.886 324.776 368.874 323.056 363.232 319.258" stroke="#FFE5ED" stroke-miterlimit="10"/>
<path d="M415.458 326.66H365.295" stroke="#FFE5ED" stroke-miterlimit="10"/>
<path d="M414.305 313.994H363.203" stroke="#FFE5ED" stroke-miterlimit="10"/>
</g>
<path d="M340.095 318.884L342.52 326.982C343.584 330.52 346.215 333.201 349.536 334.363C350.721 334.783 351.991 335.004 353.315 335.004H358.149V330.42H353.315C351.762 330.42 350.323 329.901 349.184 328.992C348.128 328.182 347.332 327.028 346.919 325.668L344.494 317.57C343.882 315.53 344.265 313.383 345.535 311.68C346.17 310.824 346.98 310.152 347.898 309.685C348.809 309.235 349.826 308.99 350.89 308.99H352.603V304.406H350.89C349.75 304.406 348.64 304.574 347.585 304.895C345.32 305.583 343.316 306.981 341.855 308.944C339.705 311.825 339.063 315.446 340.095 318.884Z" fill="white"/>
<path d="M353.315 330.421C351.762 330.421 350.323 329.901 349.184 328.992C349.306 330.925 349.428 332.743 349.536 334.363C350.721 334.783 351.991 335.005 353.315 335.005H358.149V330.421H353.315Z" fill="#2F302B"/>
<path d="M347.585 304.895C347.677 306.209 347.784 307.844 347.899 309.685C348.809 309.235 349.827 308.99 350.89 308.99H352.604V304.406H350.89C349.75 304.406 348.641 304.574 347.585 304.895Z" fill="#2F302B"/>
<path d="M385.338 337.105V301.875H350.032L355.068 337.105H385.338Z" fill="white"/>
<path d="M385.338 319.707L355.068 337.105H385.338V319.707Z" fill="#2F302B"/>
<path d="M367.684 301.875L368.938 316.729H371.725L372.137 323.774L364.117 324.732L364.028 316.849L367.476 316.927L366.653 301.875H367.684Z" fill="#FF98B6"/>
<path d="M113.095 166.641L134.911 220.655L116.546 203.931L41.1382 200.61L113.095 166.641Z" fill="#2F302B"/>
<path d="M134.911 220.655L113.095 166.641H23.2594L41.1382 200.61L117.016 201.481L134.911 220.655Z" fill="white"/>
<path d="M89.5858 184.21C89.5858 186.399 91.3629 188.173 93.5546 188.173C95.7464 188.173 97.5234 186.399 97.5234 184.21C97.5234 182.021 95.7464 180.246 93.5546 180.246C91.3629 180.246 89.5858 182.021 89.5858 184.21Z" fill="#2F302B"/>
<path d="M70.167 184.21C70.167 186.399 71.9441 188.173 74.1359 188.173C76.3276 188.173 78.1047 186.399 78.1047 184.21C78.1047 182.021 76.3276 180.246 74.1359 180.246C71.9441 180.247 70.167 182.021 70.167 184.21Z" fill="#2F302B"/>
<path d="M50.749 184.21C50.749 186.399 52.5261 188.173 54.7178 188.173C56.9096 188.173 58.6866 186.399 58.6866 184.21C58.6866 182.021 56.9096 180.246 54.7178 180.246C52.5253 180.247 50.749 182.021 50.749 184.21Z" fill="#2F302B"/>
<path d="M356.803 210.3L362.646 173.934L431.138 170.209V211.868L356.803 210.3Z" fill="white"/>
<path d="M376.204 196.394V198.456H369.505V196.394H376.204ZM370.29 191.167V204H367.646V191.167H370.29ZM378.09 191.167V204H375.455V191.167H378.09ZM389.002 201.938V204H382.171V201.938H389.002ZM383.035 191.167V204H380.39V191.167H383.035ZM388.111 196.394V198.403H382.171V196.394H388.111ZM388.993 191.167V193.239H382.171V191.167H388.993ZM398.794 201.938V204H392.333V201.938H398.794ZM393.188 191.167V204H390.544V191.167H393.188ZM405.307 199.426H402.037V197.363H405.307C405.813 197.363 406.224 197.281 406.541 197.117C406.858 196.946 407.091 196.711 407.237 196.412C407.384 196.112 407.458 195.774 407.458 195.398C407.458 195.016 407.384 194.66 407.237 194.331C407.091 194.002 406.858 193.738 406.541 193.538C406.224 193.338 405.813 193.239 405.307 193.239H402.954V204H400.31V191.167H405.307C406.312 191.167 407.173 191.349 407.89 191.714C408.612 192.072 409.165 192.569 409.547 193.203C409.929 193.838 410.12 194.564 410.12 195.38C410.12 196.209 409.929 196.926 409.547 197.531C409.165 198.136 408.612 198.603 407.89 198.932C407.173 199.261 406.312 199.426 405.307 199.426Z" fill="#2F302B"/>
<path d="M362.646 173.934L352.314 212.323L431.138 211.868L356.803 210.299L362.646 173.934Z" fill="#2F302B"/>
<path d="M179.872 78.623C179.872 86.286 176.404 93.1352 170.943 97.6871C166.621 101.303 161.052 103.478 154.979 103.478C148.812 103.478 143.171 101.239 138.818 97.5252C133.476 92.9687 130.086 86.1928 130.086 78.6223C130.086 64.8886 141.232 53.7617 154.979 53.7617C168.725 53.7625 179.872 64.8894 179.872 78.623Z" fill="#2F302B"/>
<path d="M180.819 77.4609C180.819 85.1239 177.351 91.9731 171.89 96.525C167.568 100.141 161.999 102.316 155.926 102.316C149.759 102.316 144.118 100.077 139.765 96.3631C134.423 91.8066 131.033 85.0306 131.033 77.4602C131.033 63.7265 142.179 52.5996 155.926 52.5996C169.673 52.6004 180.819 63.728 180.819 77.4609Z" fill="#FFC400"/>
<path d="M171.894 96.5214C167.571 100.143 162.002 102.312 155.928 102.312C149.762 102.312 144.117 100.074 139.764 96.3609C141.431 89.7676 144.889 83.5563 149.265 80.3016C151.277 78.7966 153.488 77.918 155.806 77.918C157.504 77.918 159.149 78.3916 160.694 79.2397C165.881 82.0588 170.035 89.0571 171.894 96.5214Z" fill="#8C70F2"/>
<path d="M160.694 79.2397C159.156 80.974 156.907 82.0741 154.413 82.0741C152.47 82.0741 150.68 81.4094 149.265 80.3016C151.277 78.7966 153.487 77.918 155.805 77.918C157.504 77.918 159.148 78.3916 160.694 79.2397Z" fill="#2F302B"/>
<path d="M163.638 75.6181C165.242 71.2927 163.032 66.4877 158.701 64.8857C154.37 63.2837 149.558 65.4914 147.954 69.8167C146.35 74.1421 148.561 78.9471 152.892 80.5491C157.223 82.1511 162.034 79.9434 163.638 75.6181Z" fill="white"/>
<path d="M92.5905 108.264L88.6982 141.293H221.286L225.886 105.002L92.5905 108.264Z" fill="#8C70F2"/>
<path d="M107.96 112.479L110.496 120.274H118.703L112.063 125.091L114.599 132.886L107.96 128.069L101.32 132.886L103.856 125.091L97.2168 120.274H105.424L107.96 112.479Z" fill="#FFC400"/>
<path d="M132.515 112.479L135.052 120.274H143.259L136.62 125.091L139.156 132.886L132.515 128.069L125.876 132.886L128.413 125.091L121.773 120.274H129.979L132.515 112.479Z" fill="#FFC400"/>
<path d="M157.072 112.479L159.608 120.274H167.815L161.175 125.091L163.711 132.886L157.072 128.069L150.432 132.886L152.968 125.091L146.329 120.274H154.536L157.072 112.479Z" fill="#FFC400"/>
<path d="M181.628 112.479L184.164 120.274H192.371L185.732 125.091L188.268 132.886L181.628 128.069L174.989 132.886L177.525 125.091L170.886 120.274H179.092L181.628 112.479Z" fill="#FFC400"/>
<path d="M206.184 112.479L208.721 120.274H216.927L210.288 125.091L212.824 132.886L206.184 128.069L199.545 132.886L202.081 125.091L195.441 120.274H203.648L206.184 112.479Z" fill="white"/>
<path d="M404.635 112.295H317.456L327.358 143.25H408.146L404.635 112.295Z" fill="#8C70F2"/>
<path d="M400.028 130.578V135.578L331.133 136.148V132.435L400.028 130.578Z" fill="white"/>
<path d="M400.028 120.324V125.937H343.613V121.886L400.028 120.324Z" fill="white"/>
<path d="M404.635 112.295L411.431 146.494L327.359 143.25H408.146L404.635 112.295Z" fill="#2F302B"/>
<path d="M394.363 54.6689L386.712 97.5454H279.242V51.0957L394.363 54.6689Z" fill="white"/>
<path d="M290.531 61.6172V66.6176L380.451 69.0448V65.331L290.531 61.6172Z" fill="#2F302B"/>
<path d="M290.531 83.0098V88.0094L374.07 88.5801V84.8663L290.531 83.0098Z" fill="#2F302B"/>
<path d="M290.531 72.7578V78.3709H358.939V74.3194L290.531 72.7578Z" fill="#2F302B"/>
<path d="M279.242 51.0957L276.666 100.839L386.713 97.5454H279.242V51.0957Z" fill="#2F302B"/>
<path d="M290.665 58.8439C297.917 51.6015 297.917 39.8594 290.665 32.6171C283.413 25.3747 271.656 25.3747 264.404 32.6171C257.152 39.8594 257.152 51.6015 264.404 58.8439C271.656 66.0862 283.413 66.0862 290.665 58.8439Z" fill="#2F302B"/>
<path d="M281.434 63.0065C291.557 61.3657 298.432 51.8396 296.789 41.7294C295.146 31.6192 285.608 24.7535 275.484 26.3943C265.361 28.0351 258.486 37.5612 260.129 47.6713C261.772 57.7815 271.311 64.6473 281.434 63.0065Z" fill="#FFC400"/>
<path d="M275.11 48.2963C275.071 47.6164 275.13 47.0144 275.287 46.4895C275.442 45.9661 275.717 45.4886 276.109 45.0593C276.502 44.6299 277.024 44.2204 277.677 43.8331C278.282 43.4747 278.759 43.1439 279.11 42.8421C279.459 42.5396 279.706 42.221 279.847 41.8856C279.99 41.5502 280.06 41.1652 280.06 40.7305V40.7022C280.06 40.2491 279.947 39.8473 279.72 39.4981C279.492 39.1474 279.178 38.877 278.776 38.6829C278.374 38.4889 277.903 38.3919 277.364 38.3919C276.825 38.3919 276.352 38.5003 275.946 38.7181C275.539 38.9358 275.217 39.233 274.981 39.6112C274.745 39.9886 274.612 40.418 274.584 40.9001L274.57 41.0131H270.711L270.725 40.8848C270.763 39.7709 271.054 38.7792 271.598 37.9105C272.142 37.0411 272.919 36.3543 273.932 35.8485C274.944 35.3427 276.173 35.0898 277.62 35.0898C278.972 35.0898 280.152 35.3236 281.159 35.7912C282.166 36.258 282.952 36.9005 283.514 37.718C284.076 38.5355 284.358 39.4859 284.358 40.5731V40.6006C284.358 41.6595 284.102 42.5725 283.592 43.3426C283.081 44.1134 282.324 44.7903 281.322 45.3756C280.698 45.7438 280.211 46.0815 279.861 46.3886C279.511 46.6958 279.265 47.0166 279.124 47.352C278.981 47.6874 278.911 48.0763 278.911 48.5202V49.1008H275.137L275.11 48.2963ZM275.442 55.2457C274.993 54.8163 274.768 54.2899 274.768 53.6665C274.768 53.0431 274.993 52.5159 275.442 52.0865C275.892 51.6572 276.438 51.4417 277.081 51.4417C277.734 51.4417 278.284 51.6572 278.733 52.0865C279.183 52.5159 279.407 53.0431 279.407 53.6665C279.407 54.2899 279.182 54.8156 278.733 55.2457C278.284 55.6766 277.734 55.8905 277.081 55.8905C276.438 55.8905 275.892 55.6758 275.442 55.2457Z" fill="#2F302B"/>
<path d="M276.032 47.5053C275.994 46.8254 276.053 46.2233 276.209 45.6985C276.365 45.1751 276.639 44.6976 277.033 44.2683C277.424 43.8389 277.947 43.4294 278.6 43.042C279.205 42.6837 279.683 42.3529 280.033 42.0511C280.382 41.7486 280.629 41.43 280.77 41.0946C280.913 40.7592 280.983 40.3742 280.983 39.9394V39.9112C280.983 39.4581 280.87 39.0563 280.643 38.7071C280.415 38.3572 280.101 38.086 279.699 37.8919C279.297 37.6979 278.826 37.6008 278.288 37.6008C277.749 37.6008 277.276 37.7093 276.87 37.9271C276.463 38.1448 276.141 38.442 275.905 38.8202C275.669 39.1976 275.536 39.627 275.508 40.1091L275.493 40.2221H271.635L271.649 40.0938C271.687 38.9799 271.978 37.9882 272.522 37.1195C273.066 36.2501 273.843 35.5633 274.855 35.0575C275.867 34.5517 277.097 34.2988 278.544 34.2988C279.897 34.2988 281.076 34.5326 282.084 35.0002C283.091 35.467 283.875 36.1095 284.439 36.927C285.001 37.7445 285.282 38.6949 285.282 39.7821V39.8096C285.282 40.8685 285.027 41.7814 284.517 42.5516C284.006 43.3224 283.249 43.9993 282.247 44.5846C281.623 44.9528 281.135 45.2905 280.786 45.5976C280.435 45.9048 280.19 46.2256 280.048 46.561C279.906 46.8964 279.836 47.2853 279.836 47.7299V48.3106H276.062L276.032 47.5053ZM276.365 54.4547C275.916 54.0253 275.692 53.4989 275.692 52.8755C275.692 52.2521 275.916 51.7249 276.365 51.2955C276.815 50.8662 277.361 50.6507 278.004 50.6507C278.657 50.6507 279.207 50.8662 279.656 51.2955C280.106 51.7249 280.33 52.2521 280.33 52.8755C280.33 53.4989 280.106 54.0245 279.656 54.4547C279.207 54.8856 278.657 55.0995 278.004 55.0995C277.361 55.0995 276.815 54.8856 276.365 54.4547Z" fill="white"/>
</g>
<defs>
<clipPath id="clip0_48_15426">
<rect width="459" height="367" fill="white" transform="matrix(-1 0 0 1 459.5 0)"/>
</clipPath>
</defs>
</svg>
