<svg width="450" height="259" viewBox="0 0 450 259" fill="none" xmlns="http://www.w3.org/2000/svg">
<g clip-path="url(#clip0_48_16781)">
<path d="M88.8626 85.4354C88.9308 85.0651 89.1521 84.7373 89.47 84.5293C91.0342 83.5075 96.2752 79.9181 96.4683 77.5892C96.4683 77.5892 90.1914 78.7375 88.4341 83.1448C88.296 83.4917 88.2261 83.8595 88.2103 84.2289L88.1221 86.3057C88.1171 86.4322 87.9457 86.4729 87.8899 86.3606L86.6743 83.8969C86.6394 83.8254 86.6111 83.7513 86.5903 83.6731C86.3182 82.6489 84.1241 74.9467 79.5646 74.1562C79.5646 74.1562 79.7817 79.2666 85.4263 84.4802C85.5544 84.5983 85.6609 84.7381 85.7383 84.8954L87.6511 88.7652C87.6869 88.8376 87.5987 88.9116 87.5347 88.8634C87.0171 88.474 85.8473 87.6253 84.9537 87.2234C84.6674 87.0945 84.4395 86.8706 84.3014 86.5894C83.788 85.5494 81.9733 83.1381 76.2705 83.55C76.2705 83.55 78.3281 87.7925 84.0467 87.889C84.0467 87.889 87.0945 87.9248 89.1779 93.8173L90.7214 97.2329C90.7655 97.331 90.654 97.43 90.5624 97.3743L87.9648 95.7943C87.7169 95.6437 87.5139 95.4331 87.3658 95.1835C86.7667 94.1776 84.63 91.5342 79.4764 93.4837C79.4764 93.4837 82.3336 96.4873 87.6154 96.5248C87.6154 96.5248 92.6583 99.8222 92.8547 101.346C93.0511 102.868 95.1636 102.704 92.5069 104.815C92.5069 104.815 90.5192 107.84 97.5957 106.024C97.5957 106.024 101.02 106.036 96.6521 109.039C96.6521 109.039 91.6333 114.126 96.0131 114.734C96.0131 114.734 96.0131 114.734 96.014 114.734C96.524 114.805 97.1588 114.816 97.9468 114.75C97.9468 114.75 107.102 114.336 105.017 117.048C105.017 117.048 100.967 121.741 106.443 121.505C106.443 121.505 109.934 121.63 110.701 123.436L110.699 123.438C110.699 123.438 110.7 123.438 110.701 123.437C110.703 123.442 110.705 123.446 110.708 123.451C110.783 123.634 110.892 123.802 111.016 123.955L113.869 127.518L117.63 132.15C117.773 132.327 117.737 132.592 117.549 132.732C117.44 132.813 117.379 132.931 117.368 133.053C117.357 133.177 117.398 133.304 117.495 133.397L121.796 137.554C121.984 137.735 122.157 137.929 122.317 138.134L126.414 143.403C126.493 143.505 126.486 143.643 126.413 143.741L126.306 143.83C126.224 143.869 126.201 143.976 126.262 144.041L126.269 144.049C126.967 143.331 127.669 142.616 128.373 141.904C128.233 141.915 128.094 141.854 128.013 141.729L124.63 136.435C124.611 136.405 124.585 136.385 124.555 136.37V136.369L124.553 136.37C124.489 136.339 124.409 136.34 124.345 136.388C124.246 136.462 124.108 136.444 124.036 136.346L120.151 131.044L120.126 131.009C120.137 130.991 120.145 130.978 120.145 130.978L120.118 130.998L116.346 125.848C116.356 125.828 116.363 125.815 116.363 125.815L116.337 125.835L116.078 125.481L112.75 120.938C112.408 120.472 111.929 120.126 111.376 119.945C110.757 119.743 109.931 119.508 109.326 119.464C108.77 119.423 108.222 119.319 107.696 119.15C107.632 119.129 107.597 119.061 107.617 118.995L108.518 116.059L108.562 115.915C108.677 115.542 108.684 115.147 108.582 114.776C108.382 114.052 107.866 112.963 106.553 112.689L103.396 112.426L103.397 112.42L103.392 112.425L99.4378 112.096C99.2531 112.081 99.075 112.016 98.9361 111.896C98.9253 111.887 98.9144 111.875 98.9045 111.865C98.9045 111.863 98.907 111.862 98.907 111.862L98.9045 111.864C98.6049 111.574 98.4435 110.946 99.8946 109.697C99.8946 109.697 100.727 109.204 101.592 108.265C102.335 107.458 103.101 106.321 103.386 104.882C103.478 104.414 103.408 103.935 103.198 103.517C102.971 103.069 102.599 102.486 102.048 102.054C101.369 101.52 100.419 101.212 99.1316 101.663L96.2686 102.907C96.0081 103.02 95.7094 102.961 95.5197 102.76C94.4389 101.613 91.0816 97.7005 92.2099 94.4314C92.3829 93.9288 92.7149 93.4928 93.1418 93.1717C94.6053 92.0692 98.882 88.6462 99.6708 85.7241C99.6708 85.7241 93.324 87.5163 91.1765 94.2691C91.1257 94.4289 90.9061 94.4463 90.842 94.2957C90.2213 92.8455 88.3575 88.1711 88.8609 85.432L88.8626 85.4354Z" fill="#5792D8"/>
<path d="M127.444 166.449C127.321 166.265 127.111 166.185 126.907 166.212H126.905C126.791 166.228 126.68 166.276 126.586 166.362C126.326 166.602 125.924 166.578 125.709 166.31L119.787 158.952C119.753 158.91 119.71 158.882 119.663 158.864C119.561 158.826 119.44 158.845 119.351 158.926C119.214 159.053 119.003 159.047 118.881 158.914L112.203 151.621L112.161 151.574C112.175 151.542 112.183 151.524 112.183 151.524L112.146 151.558L105.661 144.476C105.676 144.442 105.681 144.424 105.681 144.424L105.645 144.458L105.199 143.972L99.4786 137.724C98.8912 137.083 98.1165 136.642 97.257 136.46C96.296 136.257 95.0188 136.038 94.1019 136.069C93.2607 136.097 92.422 136.028 91.6042 135.859C91.5035 135.839 91.4402 135.742 91.4602 135.641L92.3896 130.896C92.5019 130.321 92.4503 129.731 92.2382 129.194C91.823 128.145 90.8753 126.603 88.8593 126.402L84.0767 126.513C84.0775 126.508 84.0775 126.505 84.0775 126.505L84.0717 126.514L78.0819 126.652C77.8015 126.659 77.5236 126.59 77.2964 126.432C77.2789 126.42 77.2606 126.407 77.2432 126.393C77.2432 126.392 77.2448 126.39 77.2457 126.388L77.2415 126.393C76.7464 126.006 76.4045 125.093 78.3847 122.999C78.3847 122.999 79.5571 122.132 80.7061 120.593V120.592C81.6937 119.27 82.6639 117.452 82.8628 115.26C82.9268 114.548 82.7454 113.843 82.3619 113.254C81.4441 111.842 79.3341 109.545 75.961 111.135L71.859 113.445C71.4855 113.656 71.0287 113.617 70.7108 113.346C70.4837 113.152 70.1958 112.899 69.8671 112.595C67.5882 110.477 63.3889 105.868 64.4148 101.447C64.5953 100.67 65.0247 99.967 65.6138 99.4195C67.6373 97.5416 73.514 91.7547 74.2328 87.2692C74.2328 87.2692 64.9872 90.9526 62.8372 101.369C62.7865 101.615 62.4603 101.677 62.3397 101.461C61.1765 99.397 57.6337 92.7207 57.9532 88.553C57.9964 87.9898 58.2777 87.4656 58.722 87.1053C60.9077 85.3314 68.2072 79.1418 68.1273 75.6381C68.1273 75.6381 58.8842 78.3489 56.9464 85.2049C56.7941 85.7441 56.7484 86.304 56.7833 86.8573L56.9814 89.97C56.993 90.1597 56.7426 90.2479 56.6419 90.089L54.4237 86.6069C54.3596 86.5062 54.3055 86.3997 54.2622 86.2874C53.6906 84.803 49.171 73.6612 42.1977 73.2069C42.1977 73.2069 43.3367 80.7968 52.6439 87.6769C52.8544 87.8325 53.0367 88.0247 53.1781 88.246L56.666 93.715C56.7317 93.8173 56.6111 93.9422 56.5071 93.8806C55.6676 93.3814 53.7755 92.3014 52.3702 91.8438C51.9201 91.6973 51.5423 91.3994 51.2894 91.0017C50.3533 89.5315 47.244 86.2233 38.7456 87.7451C38.7456 87.7451 42.5105 93.7475 51.1146 92.9812C51.1146 92.9812 55.6967 92.5502 59.7637 101.009L62.6251 105.859C62.7074 105.998 62.5552 106.164 62.4087 106.096L58.256 104.151C57.86 103.967 57.5213 103.684 57.2593 103.336C56.2001 101.931 52.5707 98.3278 45.1414 102.055C45.1414 102.055 49.9099 106.082 57.8475 105.297C57.8475 105.297 65.9457 109.415 66.4824 111.655C66.7661 112.839 67.7771 113.235 68.1298 113.872C68.446 114.441 68.2363 115.202 66.5124 116.887C66.5124 116.887 65.4557 118.927 67.5557 119.302C68.6856 119.503 70.7291 119.223 74.3468 117.881C74.3468 117.881 79.4905 117.353 73.41 122.53C73.41 122.53 70.6892 125.923 70.4246 128.448C70.4221 128.438 70.4188 128.429 70.4163 128.419C69.8572 126.627 68.1773 127.772 68.1773 127.772C65.4324 131.352 65.6004 128.542 63.5703 128.318C61.9345 128.136 58.6904 123.802 57.4914 122.126C57.2027 121.721 57.0329 121.472 57.0329 121.472C56.8565 114.455 52.7937 110.731 52.7937 110.731C50.3242 117.625 53.8912 120.401 55.2432 121.172C55.5785 121.364 55.8639 121.629 56.0703 121.954L56.6286 122.836L58.2336 125.368C58.3101 125.488 58.1803 125.64 58.0489 125.583L54.942 124.247L53.4693 123.614C45.5824 120.986 45.4609 116.938 45.4609 116.938C45.1955 109.342 39.5035 106.71 39.5035 106.71C39.0925 114.296 42.3425 116.65 43.7386 117.307C44.1164 117.485 44.4201 117.782 44.5981 118.159C45.1539 119.336 46.3104 120.87 46.8413 121.548C46.9079 121.632 46.8105 121.751 46.714 121.706L41.5204 119.257C41.3107 119.158 41.121 119.02 40.9613 118.853C33.8914 111.477 27.0887 111.312 27.0887 111.312C28.2494 117.351 38.5467 120.081 39.9154 120.418C40.0186 120.443 40.1184 120.478 40.2141 120.524L43.5206 122.08C43.6712 122.151 43.6205 122.38 43.4524 122.39L40.6925 122.557C40.2016 122.586 39.7132 122.687 39.2556 122.88C33.4355 125.32 32.0593 133.687 32.0593 133.687C35.1511 133.374 39.7997 126.324 41.1219 124.223C41.3906 123.795 41.8216 123.493 42.3125 123.393C45.5774 122.732 50.9699 124.578 53.4369 125.531C53.7131 125.638 53.9536 125.734 54.1491 125.813C54.3513 125.896 54.333 126.187 54.1216 126.259C52.9851 126.642 51.9575 127.115 51.0289 127.646C48.9988 129.461 47.041 131.3 45.1764 133.158C43.514 135.642 42.9598 137.748 42.9598 137.748C46.828 136.631 51.2786 130.867 52.7097 128.896C53.1273 128.321 53.699 127.869 54.3629 127.627C58.6845 126.051 63.9688 130.417 65.5206 131.826C65.7935 132.073 65.8775 132.468 65.7336 132.817L64.1485 136.651C63.5794 138.372 64.0104 139.628 64.7368 140.516C65.3267 141.239 66.1097 141.719 66.7112 142.009C67.272 142.279 67.9118 142.36 68.5309 142.227C70.4388 141.814 71.9323 140.768 72.9881 139.762C74.217 138.589 74.8527 137.472 74.8527 137.472C76.4785 135.514 77.3197 135.712 77.7124 136.103L77.7099 136.107C77.7099 136.107 77.7124 136.105 77.7141 136.104C77.7274 136.118 77.7416 136.132 77.754 136.147C77.9171 136.328 78.0086 136.563 78.0328 136.808L78.5653 142.054L78.5586 142.06C78.5586 142.06 78.5636 142.058 78.5661 142.058L78.9904 146.246C79.3873 147.985 80.8467 148.644 81.8161 148.892C82.3111 149.018 82.8361 148.999 83.3304 148.838L83.5201 148.776L87.4032 147.509C87.4906 147.48 87.5821 147.525 87.6112 147.61C87.8492 148.306 88.0014 149.031 88.0688 149.768C88.142 150.572 88.474 151.663 88.7569 152.481C89.0107 153.211 89.4825 153.839 90.1115 154.282L90.9535 154.875L96.2336 158.595L96.7104 158.931L96.6846 158.967C96.6846 158.967 96.6996 158.959 96.7279 158.944L103.668 163.833L103.641 163.868C103.641 163.868 103.656 163.86 103.684 163.843L103.729 163.875L110.875 168.91C111.006 169.002 111.034 169.185 110.937 169.319C110.848 169.445 110.879 169.618 111.007 169.697L118.13 174.064C118.388 174.223 118.453 174.572 118.27 174.825C118.205 174.915 118.175 175.019 118.174 175.119V175.121C118.171 175.301 118.266 175.477 118.44 175.564L119.504 176.097C120.525 175.041 121.542 173.981 122.557 172.918L121.162 171.68C121.074 171.602 120.933 171.635 120.882 171.744L120.767 171.888C120.638 171.987 120.454 172.001 120.317 171.898L113.211 166.581C112.933 166.374 112.672 166.147 112.427 165.904L106.795 160.287C106.668 160.162 106.498 160.11 106.334 160.128C106.172 160.146 106.016 160.229 105.91 160.375C105.728 160.628 105.377 160.684 105.138 160.498L98.887 155.61L94.0795 151.905C93.8715 151.745 93.6476 151.604 93.4022 151.508C93.3955 151.506 93.3897 151.503 93.3839 151.5C93.3839 151.498 93.3847 151.498 93.3847 151.496L93.3822 151.499C90.961 150.524 90.7114 145.888 90.7114 145.888C90.8936 138.607 84.7498 144.1 84.7498 144.1C81.192 146.935 81.5232 134.762 81.5232 134.762C81.5914 133.714 81.5614 132.87 81.4549 132.194C81.3227 131.353 81.0705 130.774 80.7352 130.403C84.4528 130.208 88.8892 130.48 87.2451 133.148C87.2451 133.148 81.9101 140.793 90.0957 139.57C90.0957 139.57 95.3592 139.2 96.7977 141.774L96.7944 141.777C96.7944 141.777 96.7977 141.775 96.7986 141.775C96.8027 141.782 96.8069 141.788 96.8111 141.794C96.9533 142.056 97.1439 142.287 97.3536 142.497L102.205 147.359L108.591 153.671C108.835 153.911 108.821 154.313 108.561 154.552C108.411 154.69 108.339 154.877 108.341 155.06C108.343 155.154 108.365 155.246 108.405 155.331C108.446 155.415 108.506 155.491 108.586 155.554L115.708 161.071C116.017 161.311 116.309 161.573 116.582 161.853L123.572 169.062C123.708 169.202 123.718 169.409 123.624 169.567L123.479 169.716C123.361 169.788 123.345 169.951 123.445 170.039L124.461 170.924C125.632 169.697 126.804 168.47 127.982 167.248L127.444 166.449ZM73.8959 133.179C70.0053 139.054 69.9071 134.505 69.9071 134.505C70.413 132.377 70.6027 130.866 70.5935 129.803C70.933 130.561 71.7625 131.077 73.3575 131.128C74.1347 131.153 75.0907 131.068 76.263 130.844C76.263 130.844 76.5026 130.808 76.9103 130.756C75.302 131.743 73.8959 133.179 73.8959 133.179Z" fill="#5792D8"/>
<path d="M362.908 22.906C362.804 22.5441 362.551 22.2396 362.214 22.0648C360.557 21.202 354.988 18.1459 354.566 15.8487C354.566 15.8487 360.925 16.3728 363.109 20.5855C363.28 20.9166 363.386 21.276 363.438 21.6421L363.731 23.6998C363.748 23.8254 363.923 23.8487 363.967 23.7322L364.934 21.1604C364.962 21.0855 364.982 21.009 364.996 20.9299C365.165 19.884 366.59 12.003 371.049 10.7674C371.049 10.7674 371.337 15.8745 366.233 21.6188C366.117 21.7486 366.025 21.8992 365.963 22.0623L364.441 26.1019C364.413 26.1776 364.508 26.2425 364.567 26.1884C365.044 25.7499 366.125 24.7897 366.974 24.3022C367.246 24.1458 367.451 23.9003 367.561 23.6066C367.969 22.5208 369.538 19.9431 375.253 19.7909C375.253 19.7909 373.624 24.2156 367.942 24.8746C367.942 24.8746 364.912 25.2108 363.42 31.2797L362.22 34.8308C362.186 34.9323 362.306 35.0205 362.392 34.9564L364.822 33.1276C365.053 32.9537 365.235 32.7232 365.358 32.4611C365.854 31.4011 367.721 28.5606 373.041 29.9925C373.041 29.9925 370.494 33.2632 365.242 33.8207C365.242 33.8207 360.548 37.599 360.503 39.1341C360.458 40.6692 358.34 40.7133 361.191 42.553C361.191 42.553 363.467 45.3669 356.246 44.257C356.246 44.257 352.84 44.6064 357.481 47.1649C357.481 47.1649 362.977 51.732 358.679 52.7687H358.68C358.68 52.7687 358.68 52.7687 358.679 52.7687C358.179 52.8894 357.547 52.9626 356.757 52.9751C356.757 52.9751 347.606 53.4651 349.948 55.9588C349.948 55.9588 354.44 60.2296 348.968 60.5341C348.968 60.5341 345.506 61.0018 344.92 62.8755L344.923 62.8772C344.923 62.8772 344.921 62.8772 344.919 62.8772C344.918 62.8822 344.916 62.8863 344.914 62.8913C344.857 63.081 344.765 63.2574 344.657 63.423L342.169 67.2495L338.882 72.2301C338.756 72.4198 338.82 72.6803 339.02 72.8009C339.137 72.8708 339.208 72.9831 339.231 73.1029C339.255 73.2252 339.226 73.3559 339.14 73.4582L335.268 78.0186C335.1 78.2166 334.946 78.4271 334.808 78.6468L331.25 84.2939C331.181 84.4029 331.202 84.5401 331.285 84.63L331.399 84.7074C331.484 84.739 331.517 84.843 331.464 84.9137L331.457 84.9229C330.691 84.2772 329.923 83.6349 329.152 82.9959C329.292 82.9925 329.425 82.9185 329.492 82.7862L332.337 77.1849C332.353 77.1533 332.378 77.1308 332.406 77.1134V77.1117H332.408C332.469 77.0751 332.549 77.0693 332.617 77.11C332.723 77.1741 332.859 77.1416 332.92 77.0385L336.264 71.3789L336.285 71.3432C336.273 71.3257 336.264 71.314 336.264 71.314L336.293 71.3315L339.539 65.8351C339.527 65.8168 339.519 65.8035 339.519 65.8035L339.548 65.8209L339.771 65.4432L342.635 60.5949C342.93 60.0965 343.372 59.7046 343.904 59.4708C344.5 59.2087 345.299 58.8942 345.897 58.7902C346.446 58.6953 346.98 58.5373 347.488 58.3168C347.55 58.2901 347.578 58.2186 347.551 58.1545L346.365 55.3214L346.307 55.1833C346.157 54.823 346.11 54.4311 346.175 54.0526C346.302 53.3112 346.708 52.178 347.989 51.7753L351.104 51.2028L351.102 51.197L351.107 51.202L355.009 50.4848C355.192 50.4515 355.362 50.3683 355.489 50.236C355.499 50.2252 355.508 50.2135 355.518 50.2027C355.517 50.2019 355.515 50.1994 355.515 50.1994L355.519 50.2019C355.788 49.8832 355.887 49.2417 354.32 48.1426C354.32 48.1426 353.443 47.7341 352.489 46.8845C351.67 46.1548 350.795 45.099 350.37 43.6945C350.232 43.2385 350.254 42.7543 350.423 42.3183C350.605 41.8499 350.917 41.2333 351.423 40.7483C352.047 40.15 352.962 39.7506 354.287 40.0726L357.259 41.0278C357.53 41.1152 357.821 41.0278 357.99 40.8082C358.952 39.5601 361.907 35.3358 360.463 32.1941C360.24 31.7115 359.868 31.3104 359.411 31.0325C357.846 30.0799 353.253 27.0945 352.18 24.2639C352.18 24.2639 358.672 25.4221 361.474 31.9303C361.541 32.0842 361.761 32.0801 361.81 31.9237C362.285 30.4193 363.679 25.5843 362.908 22.9077V22.906Z" fill="#5792D8"/>
<path d="M332.041 108.174C333.333 109.274 334.62 110.379 335.907 111.486L336.83 110.505C336.922 110.408 336.889 110.247 336.765 110.187L336.606 110.053C336.497 109.905 336.487 109.698 336.608 109.546L342.853 101.683C343.097 101.377 343.362 101.087 343.646 100.818L350.189 94.6263C350.263 94.5564 350.315 94.4741 350.348 94.3867C350.38 94.2985 350.392 94.2045 350.385 94.1113C350.369 93.9291 350.279 93.7494 350.116 93.627C349.834 93.4149 349.781 93.0163 350 92.7534L355.733 85.8433L360.082 80.5274C360.27 80.2969 360.436 80.0482 360.552 79.7744C360.556 79.7678 360.559 79.7611 360.563 79.7544C360.563 79.7544 360.566 79.7544 360.567 79.7553L360.564 79.752C361.742 77.0495 367.017 76.8989 367.017 76.8989C375.283 77.3091 369.221 70.2268 369.221 70.2268C367.322 67.734 371.71 67.0259 375.429 66.8537C375.131 67.2564 374.938 67.8571 374.889 68.7075C374.849 69.3906 374.903 70.2334 375.073 71.2693C375.073 71.2693 376.603 83.3505 372.783 80.8802C372.783 80.8802 366.127 76.0194 367.027 83.2473C367.027 83.2473 367.235 87.8851 364.922 89.0941L364.919 89.0908C364.919 89.0908 364.92 89.0932 364.92 89.0949C364.914 89.0982 364.909 89.1016 364.902 89.1049C364.668 89.2247 364.459 89.3861 364.268 89.5667L359.849 93.7277L354.109 99.2075C353.89 99.4164 353.535 99.3956 353.329 99.1618C353.209 99.0261 353.045 98.9587 352.883 98.9579C352.717 98.9562 352.553 99.0236 352.44 99.1618L347.389 105.306C347.168 105.573 346.931 105.823 346.676 106.057L340.128 112.048C340.001 112.165 339.817 112.17 339.678 112.082L339.55 111.951C339.489 111.847 339.345 111.829 339.265 111.915L337.999 113.285C339.114 114.242 340.23 115.197 341.351 116.147L342.357 115.512C342.522 115.408 342.599 115.224 342.579 115.045L342.578 115.043C342.566 114.943 342.526 114.843 342.453 114.759C342.246 114.525 342.276 114.173 342.518 113.989L349.175 108.941C349.295 108.849 349.309 108.674 349.208 108.558C349.099 108.434 349.109 108.249 349.229 108.144L355.845 102.43L355.886 102.394C355.916 102.408 355.931 102.415 355.931 102.415L355.901 102.382L362.326 96.8329C362.356 96.8462 362.371 96.852 362.371 96.852L362.342 96.8187L362.783 96.4377L367.671 92.2151L368.451 91.5428C369.033 91.0394 369.441 90.3679 369.622 89.6166C369.822 88.7746 370.045 87.6563 370.039 86.8484C370.034 86.1079 370.114 85.3724 370.282 84.6552C370.303 84.5678 370.39 84.5137 370.48 84.5345L374.468 85.4131L374.663 85.4556C375.171 85.5679 375.695 85.5346 376.176 85.3599C377.116 85.0179 378.503 84.2183 378.727 82.4486L378.737 78.2393L378.744 78.2401L378.737 78.2351L378.75 72.9625C378.75 72.7162 378.817 72.4733 378.962 72.2769C378.973 72.2619 378.985 72.2461 378.998 72.2312C379 72.2312 379.001 72.2328 379.002 72.2328L379 72.2295C379.352 71.8018 380.169 71.5214 381.98 73.3095C381.98 73.3095 382.723 74.3587 384.061 75.4045C385.211 76.3015 386.8 77.1959 388.739 77.4189C389.369 77.4905 389.998 77.3474 390.529 77.0229C391.099 76.6742 391.831 76.1201 392.347 75.343C392.983 74.387 393.287 73.0948 392.552 71.4382L390.597 67.7789C390.419 67.4461 390.463 67.0442 390.711 66.7721C392.116 65.2171 396.944 60.3513 401.401 61.4945C402.085 61.6701 402.699 62.0636 403.171 62.5945C404.79 64.415 409.787 69.7117 413.746 70.4431C413.746 70.4431 412.987 68.4021 411.087 66.0932C409.049 64.4283 406.92 62.7908 404.72 61.185C403.744 60.7473 402.675 60.3788 401.506 60.1083C401.289 60.0576 401.242 59.7697 401.435 59.6682C401.621 59.5692 401.852 59.4502 402.115 59.3171C404.477 58.1248 409.661 55.7576 412.975 56.0929C413.474 56.1437 413.932 56.4016 414.241 56.801C415.764 58.7621 421.085 65.3194 424.193 65.3261C424.193 65.3261 421.999 57.1355 415.966 55.28C415.492 55.1336 414.996 55.0812 414.504 55.1003L411.741 55.206C411.573 55.2126 411.5 54.9896 411.643 54.9048L414.78 53.031C414.871 52.9761 414.966 52.9312 415.067 52.8954C416.396 52.4253 426.374 48.6936 426.934 42.5698C426.934 42.5698 420.181 43.4052 413.872 51.441C413.73 51.6232 413.554 51.7796 413.355 51.8986L408.428 54.8474C408.336 54.9023 408.227 54.7933 408.286 54.7034C408.748 53.9762 409.747 52.3354 410.184 51.109C410.323 50.7163 410.596 50.391 410.955 50.1763C412.28 49.385 415.282 46.7225 414.125 39.2133C414.125 39.2133 408.72 42.3934 409.204 49.9791C409.204 49.9791 409.482 54.0195 401.892 57.4109L400.49 58.1863L397.529 59.8221C397.404 59.8912 397.26 59.7539 397.324 59.6266L398.672 56.9483L399.141 56.0164C399.314 55.6719 399.572 55.3799 399.887 55.1569C401.157 54.2558 404.433 51.1423 401.296 44.5251C401.296 44.5251 397.62 48.6312 398.136 55.6311C398.136 55.6311 397.992 55.8966 397.744 56.3267C396.716 58.1131 393.915 62.7459 392.305 63.0879C390.306 63.5105 390.751 66.2912 387.666 62.9988C387.666 62.9988 385.881 62.0254 385.502 63.8633C385.5 63.8725 385.498 63.8825 385.496 63.8925C384.984 61.4063 381.943 58.2978 381.943 58.2978C375.381 53.7449 380.552 53.7632 380.552 53.7632C384.285 54.7425 386.346 54.8199 387.451 54.5079C389.503 53.928 388.251 52.0026 388.251 52.0026C386.369 50.495 386.086 49.7586 386.344 49.1612C386.633 48.4931 387.6 47.9997 387.765 46.7932C388.079 44.5109 395.731 39.6152 395.731 39.6152C403.707 39.6136 408.056 35.1372 408.056 35.1372C400.296 32.1602 397.039 36.1023 396.124 37.6058C395.898 37.9786 395.588 38.2923 395.212 38.5153L391.271 40.8591C391.132 40.9415 390.964 40.7909 391.033 40.6445L393.402 35.5366C396.616 26.7186 401.218 26.6961 401.218 26.6961C409.856 26.6113 413.012 20.267 413.012 20.267C404.404 19.5897 401.636 23.1883 400.85 24.7442C400.638 25.1652 400.291 25.4988 399.857 25.6886C398.503 26.2826 396.727 27.5432 395.941 28.1231C395.843 28.1947 395.711 28.0823 395.766 27.9742L398.698 22.1882C398.817 21.9544 398.979 21.7447 399.173 21.5691C407.757 13.8054 408.143 6.14062 408.143 6.14062C401.248 7.27969 397.849 18.8126 397.426 20.346C397.394 20.4617 397.35 20.5732 397.297 20.6797L395.432 24.3631C395.348 24.5312 395.09 24.4679 395.083 24.2782L394.973 21.1614C394.953 20.6073 394.852 20.0548 394.648 19.5331C392.044 12.9018 382.578 11.1146 382.578 11.1146C382.844 14.6091 390.718 20.049 393.068 21.5991C393.545 21.9136 393.877 22.4078 393.976 22.9636C394.704 27.0797 391.836 34.0722 390.882 36.2413C390.783 36.4676 390.453 36.4385 390.378 36.198C387.212 26.0447 377.648 23.2898 377.648 23.2898C378.806 27.6829 385.224 32.8624 387.423 34.5315C388.063 35.0182 388.56 35.6755 388.816 36.431C390.273 40.7293 386.548 45.7299 384.489 48.0621C384.192 48.3974 383.93 48.6778 383.723 48.8933C383.434 49.1945 382.983 49.2777 382.59 49.1046L378.28 47.2101C374.766 45.9603 372.893 48.4531 372.119 49.9491C371.795 50.5732 371.684 51.2921 371.818 51.9951C372.232 54.1576 373.377 55.8708 374.49 57.0889L374.491 57.0897C375.786 58.5083 377.038 59.2555 377.038 59.2555C379.214 61.1434 378.965 62.0861 378.51 62.5196L378.505 62.5163C378.505 62.5163 378.507 62.5196 378.509 62.5213C378.493 62.5371 378.475 62.5512 378.46 62.5653C378.249 62.7442 377.98 62.8399 377.7 62.8616L371.726 63.3142L371.719 63.3059C371.719 63.3059 371.719 63.3092 371.721 63.3142L366.951 63.6753C364.965 64.0738 364.174 65.7013 363.863 66.7863C363.705 67.3413 363.712 67.9337 363.88 68.4953L365.272 73.1248C365.302 73.2238 365.249 73.3261 365.15 73.3569C364.353 73.6057 363.525 73.7571 362.685 73.812C361.77 73.8719 360.52 74.2156 359.584 74.5118C358.747 74.7772 358.019 75.2922 357.498 75.9886L352.421 82.7698L352.025 83.2973L351.985 83.2673C351.985 83.2673 351.992 83.2848 352.01 83.3172L346.255 91.0044L346.215 90.9745C346.215 90.9745 346.224 90.9911 346.242 91.0219L346.205 91.0727L340.278 98.9879C340.169 99.1326 339.96 99.1593 339.811 99.0469C339.715 98.9746 339.593 98.9679 339.495 99.0162C339.45 99.0378 339.41 99.0702 339.38 99.1152L334.212 107.021C334.025 107.309 333.627 107.371 333.344 107.159C333.242 107.084 333.127 107.046 333.012 107.042H333.01C332.805 107.035 332.603 107.136 332.499 107.33L332.043 108.179L332.041 108.174ZM379.268 66.8271C379.679 66.8387 379.922 66.8512 379.922 66.8512C381.111 66.9585 382.07 66.9485 382.841 66.847C384.424 66.639 385.198 66.0441 385.461 65.2562C385.557 66.3154 385.895 67.7997 386.608 69.8673C386.608 69.8673 386.958 74.4036 382.508 68.9413C382.508 68.9413 380.967 67.6499 379.269 66.8262L379.268 66.8271Z" fill="#5792D8"/>
<path d="M387.018 122.465C369.496 139.538 348.899 139.122 343.86 153.904C337.278 173.209 369.86 181.392 381.172 214.225C383.518 221.032 393.121 248.906 371.887 256.601C358.162 261.576 343.885 253.363 303.108 246.326C245.169 236.329 175.097 235.772 144.08 235.526C122.452 235.354 116.555 229.988 101.5 230.939C84.9773 231.983 74.1142 236.077 61.0886 229.82C53.9539 226.393 49.7147 221.563 45.8623 217.173C41.772 212.512 30.973 199.846 29.2823 180.228C26.9609 153.294 43.6807 135.009 45.1127 133.583C46.9706 131.731 48.9217 129.898 50.9452 128.09C51.7348 127.384 52.5344 126.682 53.3448 125.983C53.8407 125.554 54.3416 125.127 54.845 124.702C55.4016 124.231 55.9616 123.763 56.5257 123.296C56.812 123.06 57.0982 122.824 57.3852 122.589C60.8207 119.776 64.3835 117.03 67.9871 114.363C68.5637 113.937 69.1403 113.513 69.7185 113.09C77.7752 107.205 85.9666 101.728 93.3318 96.8024C113.758 83.1436 152.724 57.7082 221.519 42.2572C266.418 32.1729 326.552 18.6672 367.158 35.2023C410.032 52.6619 413.669 96.4995 387.017 122.466L387.018 122.465Z" fill="#ACCBEA"/>
<path d="M432.931 121.893H397.582C391.938 121.893 387.362 126.468 387.362 132.113V142.149C387.362 147.793 391.938 152.369 397.582 152.369H398.383C398.872 152.369 399.146 152.933 398.843 153.318L393.763 159.752L406.102 153.179C407.101 152.647 408.215 152.369 409.346 152.369H432.931C438.575 152.369 443.151 147.793 443.151 142.149V132.113C443.151 126.468 438.575 121.893 432.931 121.893Z" fill="#57D2D8"/>
<path d="M405.994 138.285C406.408 136.53 405.321 134.772 403.566 134.358C401.811 133.943 400.053 135.03 399.639 136.785C399.224 138.54 400.311 140.299 402.066 140.713C403.821 141.127 405.58 140.04 405.994 138.285Z" fill="white"/>
<path d="M416.506 140.561C418.171 139.871 418.962 137.961 418.272 136.295C417.582 134.629 415.673 133.838 414.007 134.528C412.341 135.218 411.55 137.128 412.24 138.794C412.93 140.46 414.84 141.251 416.506 140.561Z" fill="white"/>
<path d="M430.842 138.285C431.256 136.53 430.169 134.772 428.414 134.358C426.659 133.943 424.901 135.03 424.486 136.785C424.072 138.54 425.159 140.299 426.914 140.713C428.669 141.127 430.427 140.04 430.842 138.285Z" fill="white"/>
<path d="M78.9056 2.77232H133.15C141.812 2.77232 148.833 9.79389 148.833 18.4554V33.8565C148.833 42.518 141.812 49.5396 133.15 49.5396H131.921C131.17 49.5396 130.75 50.4065 131.216 50.9956L139.011 60.8694L120.076 50.7818C118.544 49.9656 116.834 49.5387 115.098 49.5387H78.9056C70.2441 49.5387 63.2225 42.5172 63.2225 33.8556V18.4546C63.2225 9.79306 70.2441 2.77148 78.9056 2.77148V2.77232Z" fill="#57D2D8"/>
<path d="M125.897 31.7299C128.628 31.2866 130.482 28.7132 130.039 25.9822C129.596 23.2512 127.023 21.3966 124.291 21.8399C121.56 22.2832 119.706 24.8565 120.149 27.5876C120.592 30.3186 123.166 32.1732 125.897 31.7299Z" fill="white"/>
<path d="M106.519 31.7844C109.273 31.512 111.284 29.0592 111.012 26.3058C110.739 23.5525 108.286 21.5413 105.533 21.8137C102.78 22.0861 100.768 24.5389 101.041 27.2923C101.313 30.0456 103.766 32.0568 106.519 31.7844Z" fill="white"/>
<path d="M87.5754 31.7598C90.3215 31.4216 92.2734 28.9214 91.9353 26.1754C91.5971 23.4293 89.0969 21.4773 86.3509 21.8155C83.6048 22.1536 81.6528 24.6538 81.991 27.3999C82.3291 30.1459 84.8294 32.0979 87.5754 31.7598Z" fill="white"/>
<path d="M37.9936 218.242C36.1007 218.242 34.2211 217.995 32.4056 217.509C30.8414 217.09 29.9136 215.482 30.333 213.918C30.7523 212.354 32.3598 211.426 33.9241 211.845C35.2445 212.199 36.6141 212.379 37.9944 212.379H38.016C38.016 212.379 38.021 212.379 38.0235 212.379C39.6394 212.379 40.9515 213.687 40.9548 215.303C40.959 216.923 39.6493 218.238 38.0302 218.242H37.9936ZM47.349 215.726C46.3389 215.726 45.3563 215.204 44.8113 214.268C43.9976 212.868 44.4727 211.073 45.8722 210.26C47.0595 209.57 48.1544 208.725 49.1271 207.749C50.2703 206.603 52.1266 206.6 53.2731 207.744C54.4197 208.887 54.4222 210.743 53.279 211.89C51.9469 213.226 50.4459 214.382 48.8192 215.328C48.3558 215.598 47.8482 215.726 47.3482 215.726H47.349ZM24.8033 212.772C24.0528 212.772 23.3031 212.485 22.7307 211.913C21.3961 210.579 20.2412 209.077 19.2968 207.449C18.4848 206.049 18.9615 204.254 20.3627 203.442C21.7638 202.63 23.5577 203.107 24.3698 204.508C25.0587 205.696 25.9016 206.792 26.8759 207.766C28.0208 208.911 28.0216 210.767 26.8759 211.912C26.3034 212.484 25.5529 212.771 24.8024 212.771L24.8033 212.772ZM56.033 204.385C55.7826 204.385 55.5288 204.353 55.275 204.286C53.7108 203.868 52.7806 202.261 53.1983 200.697C53.5494 199.382 53.7266 198.019 53.7266 196.645V196.623C53.7266 195.004 55.0396 193.691 56.6587 193.691C58.2779 193.691 59.5908 195.004 59.5908 196.623V196.645C59.5908 198.529 59.3462 200.401 58.8644 202.209C58.515 203.52 57.3293 204.385 56.0338 204.385H56.033ZM19.3276 199.58C17.7085 199.58 16.3955 198.272 16.3955 196.652V196.645C16.3955 194.755 16.6418 192.877 17.1269 191.065C17.5454 189.501 19.1529 188.572 20.7171 188.991C22.2814 189.41 23.2099 191.017 22.7914 192.581C22.4386 193.9 22.2597 195.267 22.2597 196.646C22.2597 198.265 20.9468 199.581 19.3276 199.581V199.58ZM54.1484 190.231C53.1375 190.231 52.1549 189.708 51.6107 188.771C50.921 187.584 50.0773 186.488 49.1021 185.516C47.9564 184.372 47.9548 182.515 49.098 181.37C50.242 180.224 52.0983 180.221 53.244 181.365C54.5794 182.698 55.736 184.199 56.6812 185.827C57.4941 187.227 57.019 189.021 55.6187 189.835C55.1552 190.103 54.6485 190.232 54.1493 190.232L54.1484 190.231ZM24.7933 186.392C24.0436 186.392 23.2939 186.105 22.7215 185.534C21.5758 184.39 21.5749 182.534 22.719 181.388C24.0528 180.053 25.5538 178.898 27.1812 177.952C28.5816 177.139 30.3754 177.616 31.1883 179.017C32.0012 180.417 31.5245 182.211 30.1242 183.024C28.9368 183.713 27.841 184.556 26.8676 185.531C26.2951 186.105 25.5438 186.391 24.7933 186.391V186.392ZM42.8103 181.541C42.5598 181.541 42.3052 181.508 42.0514 181.441C40.7351 181.089 39.3698 180.911 37.9936 180.911H37.9794C36.3603 180.911 35.0473 179.598 35.0473 177.979C35.0473 176.36 36.3603 175.047 37.9794 175.047H37.9936C39.8806 175.047 41.7552 175.292 43.5657 175.776C45.13 176.193 46.0594 177.801 45.6417 179.365C45.2914 180.676 44.1066 181.541 42.8111 181.541H42.8103Z" fill="#5792D8"/>
<path d="M37.9935 215.079C27.8294 215.079 19.5605 206.81 19.5605 196.646C19.5605 186.482 27.8294 178.213 37.9935 178.213C48.1577 178.213 56.4265 186.482 56.4265 196.646C56.4265 206.81 48.1577 215.079 37.9935 215.079ZM37.9935 183.715C30.8638 183.715 25.0628 189.516 25.0628 196.646C25.0628 203.776 30.8638 209.577 37.9935 209.577C45.1233 209.577 50.9243 203.776 50.9243 196.646C50.9243 189.516 45.1233 183.715 37.9935 183.715Z" fill="#5792D8"/>
<path d="M19.6594 225.661C18.5287 225.661 17.4054 225.514 16.3213 225.224C15.3869 224.973 14.8328 224.013 15.0832 223.079C15.3336 222.144 16.2938 221.59 17.2282 221.841C18.017 222.052 18.8349 222.159 19.6594 222.159H19.6727C19.6727 222.159 19.6761 222.159 19.6769 222.159C20.642 222.159 21.4258 222.941 21.4283 223.907C21.4308 224.874 20.6487 225.66 19.681 225.662H19.6594V225.661ZM25.2482 224.159C24.645 224.159 24.0576 223.847 23.7322 223.288C23.2463 222.451 23.5301 221.38 24.3663 220.893C25.0752 220.481 25.73 219.976 26.3107 219.394C26.9938 218.709 28.1029 218.707 28.7877 219.39C29.4725 220.073 29.4741 221.183 28.791 221.867C27.9948 222.665 27.0987 223.357 26.1269 223.922C25.8498 224.083 25.5469 224.16 25.2482 224.16V224.159ZM11.78 222.393C11.3315 222.393 10.8839 222.223 10.5419 221.881C9.74483 221.084 9.05507 220.187 8.49095 219.214C8.00587 218.377 8.29043 217.305 9.12746 216.82C9.96449 216.335 11.0362 216.62 11.5212 217.457C11.9323 218.166 12.4365 218.821 13.0189 219.403C13.7028 220.087 13.7028 221.196 13.0189 221.88C12.6769 222.222 12.2285 222.393 11.78 222.393ZM30.436 217.383C30.2862 217.383 30.1348 217.364 29.9834 217.324C29.049 217.074 28.4932 216.115 28.7428 215.18C28.9525 214.395 29.0581 213.58 29.0581 212.76V212.747C29.0581 211.779 29.8419 210.995 30.8096 210.995C31.7772 210.995 32.561 211.779 32.561 212.747V212.76C32.561 213.886 32.4146 215.004 32.1267 216.084C31.9178 216.867 31.2098 217.384 30.436 217.384V217.383ZM8.50925 214.513C7.54159 214.513 6.75781 213.731 6.75781 212.764V212.76C6.75781 211.631 6.90508 210.509 7.19463 209.427C7.44508 208.492 8.40525 207.937 9.33963 208.188C10.274 208.438 10.829 209.398 10.5785 210.333C10.368 211.121 10.2607 211.937 10.2607 212.761C10.2607 213.728 9.47692 214.515 8.50925 214.515V214.513ZM29.3102 208.928C28.7062 208.928 28.1196 208.616 27.7943 208.056C27.3824 207.347 26.8782 206.693 26.2958 206.111C25.611 205.428 25.6102 204.319 26.2933 203.634C26.9764 202.949 28.0855 202.948 28.7702 203.632C29.5682 204.428 30.2588 205.325 30.8237 206.297C31.3096 207.133 31.0251 208.205 30.1889 208.69C29.9118 208.851 29.6098 208.927 29.3111 208.927L29.3102 208.928ZM11.7742 206.634C11.3265 206.634 10.8781 206.464 10.5361 206.122C9.85217 205.438 9.85133 204.33 10.5344 203.645C11.3307 202.848 12.2276 202.157 13.2003 201.593C14.0365 201.107 15.109 201.393 15.5941 202.229C16.08 203.065 15.7946 204.137 14.9584 204.623C14.2487 205.034 13.5947 205.539 13.0131 206.12C12.6711 206.463 12.2226 206.634 11.7742 206.634V206.634ZM22.5366 203.737C22.3868 203.737 22.2346 203.718 22.0831 203.677C21.2969 203.467 20.4806 203.36 19.6586 203.36H19.6503C18.6826 203.36 17.8988 202.577 17.8988 201.609C17.8988 200.641 18.6826 199.857 19.6503 199.857H19.6586C20.786 199.857 21.9059 200.004 22.9867 200.293C23.9211 200.542 24.4761 201.502 24.2265 202.437C24.0176 203.22 23.3096 203.736 22.5358 203.736L22.5366 203.737Z" fill="#57D2D8"/>
<path d="M19.6594 223.772C13.5872 223.772 8.6474 218.832 8.6474 212.76C8.6474 206.688 13.5872 201.748 19.6594 201.748C25.7317 201.748 30.6715 206.688 30.6715 212.76C30.6715 218.832 25.7317 223.772 19.6594 223.772ZM19.6594 205.035C15.4002 205.035 11.9348 208.501 11.9348 212.76C11.9348 217.019 15.4002 220.484 19.6594 220.484C23.9186 220.484 27.3841 217.019 27.3841 212.76C27.3841 208.501 23.9186 205.035 19.6594 205.035Z" fill="#57D2D8"/>
<path d="M290.602 6H261.434C256.776 6 253 9.77579 253 14.4335V22.7157C253 27.3734 256.776 31.1492 261.434 31.1492H262.094C262.499 31.1492 262.724 31.6152 262.474 31.9322L258.282 37.2414L268.464 31.8173C269.288 31.378 270.207 31.1492 271.141 31.1492H290.603C295.261 31.1492 299.037 27.3734 299.037 22.7157V14.4335C299.037 9.77579 295.261 6 290.603 6L290.602 6Z" fill="#5792D8"/>
<path d="M265.765 20.1188C267.253 20.1188 268.46 18.9125 268.46 17.4246C268.46 15.9367 267.253 14.7305 265.765 14.7305C264.278 14.7305 263.071 15.9367 263.071 17.4246C263.071 18.9125 264.278 20.1188 265.765 20.1188Z" fill="white"/>
<path d="M276.017 20.1188C277.505 20.1188 278.712 18.9125 278.712 17.4246C278.712 15.9367 277.505 14.7305 276.017 14.7305C274.529 14.7305 273.323 15.9367 273.323 17.4246C273.323 18.9125 274.529 20.1188 276.017 20.1188Z" fill="white"/>
<path d="M286.271 20.1188C287.759 20.1188 288.965 18.9125 288.965 17.4246C288.965 15.9367 287.759 14.7305 286.271 14.7305C284.783 14.7305 283.577 15.9367 283.577 17.4246C283.577 18.9125 284.783 20.1188 286.271 20.1188Z" fill="white"/>
<path d="M277.584 51H321.109C328.059 51 333.692 56.6337 333.692 63.5838V75.9412C333.692 82.8912 328.059 88.525 321.109 88.525H320.123C319.519 88.525 319.182 89.2205 319.556 89.694L325.81 97.6167L310.617 89.5226C309.388 88.8678 308.016 88.525 306.624 88.525H277.584C270.634 88.525 265 82.8912 265 75.9412V63.5838C265 56.6337 270.634 51 277.584 51Z" fill="#5792D8"/>
<path d="M271.833 61.3372C271.248 61.3372 270.774 60.8638 270.773 60.2789C270.773 59.6931 271.246 59.218 271.831 59.2172L305.689 59.1756H305.691C306.276 59.1756 306.75 59.649 306.751 60.234C306.751 60.8197 306.277 61.2948 305.693 61.2948L271.834 61.3364H271.833V61.3372Z" fill="white"/>
<path d="M325.032 61.3368H312.707C312.122 61.3368 311.647 60.8626 311.647 60.2768C311.647 59.6911 312.122 59.2168 312.707 59.2168H325.032C325.618 59.2168 326.092 59.6911 326.092 60.2768C326.092 60.8626 325.618 61.3368 325.032 61.3368Z" fill="white"/>
<path d="M325.563 71.978H271.339C271.046 71.978 270.809 71.7409 270.809 71.448C270.809 71.1551 271.046 70.918 271.339 70.918H325.563C325.855 70.918 326.093 71.1551 326.093 71.448C326.093 71.7409 325.855 71.978 325.563 71.978Z" fill="white"/>
<path d="M325.562 75.8938H271.338C271.046 75.8938 270.808 75.6566 270.808 75.3637C270.808 75.0709 271.046 74.8337 271.338 74.8337H325.562C325.855 74.8337 326.092 75.0709 326.092 75.3637C326.092 75.6566 325.855 75.8938 325.562 75.8938Z" fill="white"/>
<path d="M319.417 79.812H271.338C271.045 79.812 270.808 79.5748 270.808 79.282C270.808 78.9891 271.045 78.752 271.338 78.752H319.417C319.71 78.752 319.947 78.9891 319.947 79.282C319.947 79.5748 319.71 79.812 319.417 79.812Z" fill="white"/>
<path d="M146.802 243.583H151.436C155.191 235.339 157.826 225.316 158.911 214.304C159.258 210.785 159.446 207.166 159.463 203.471C159.464 203.335 159.465 203.199 159.464 203.062C159.464 203.025 159.464 202.988 159.464 202.952V202.947C159.464 202.381 159.46 201.822 159.452 201.272C159.451 201.163 159.449 201.054 159.446 200.945V200.927C159.444 200.8 159.441 200.673 159.439 200.547C159.437 200.468 159.436 200.388 159.434 200.309C159.431 200.182 159.428 200.055 159.424 199.93C159.421 199.841 159.419 199.753 159.416 199.666C159.414 199.567 159.411 199.469 159.407 199.371C159.404 199.263 159.401 199.155 159.396 199.048C159.392 198.925 159.387 198.802 159.382 198.681C159.372 198.403 159.36 198.128 159.347 197.855C159.335 197.607 159.322 197.359 159.307 197.114C159.29 196.808 159.272 196.506 159.252 196.205C159.245 196.099 159.238 195.993 159.23 195.888C159.223 195.779 159.215 195.671 159.207 195.564C159.199 195.461 159.191 195.357 159.183 195.255C159.177 195.166 159.169 195.077 159.162 194.988C159.159 194.961 159.157 194.932 159.155 194.905C159.148 194.815 159.14 194.725 159.133 194.636C159.124 194.537 159.115 194.439 159.107 194.341C159.096 194.223 159.085 194.106 159.074 193.989C159.064 193.871 159.052 193.754 159.04 193.638C159.027 193.509 159.015 193.38 159.001 193.252C158.989 193.133 158.976 193.014 158.963 192.896C158.951 192.784 158.938 192.673 158.926 192.561C158.918 192.494 158.911 192.428 158.902 192.361C158.895 192.296 158.887 192.232 158.88 192.168C158.866 192.049 158.851 191.931 158.837 191.813C158.822 191.696 158.807 191.578 158.792 191.461C158.78 191.366 158.767 191.272 158.754 191.178C158.745 191.114 158.737 191.051 158.728 190.988C158.708 190.845 158.688 190.702 158.668 190.562C158.655 190.473 158.642 190.385 158.629 190.298C158.629 190.295 158.629 190.293 158.629 190.291C158.613 190.187 158.598 190.085 158.581 189.982C158.566 189.88 158.549 189.78 158.534 189.679C158.425 189.002 158.308 188.343 158.182 187.702C158.168 187.635 158.156 187.57 158.143 187.504C158.126 187.42 158.108 187.335 158.091 187.251C158.073 187.162 158.055 187.074 158.036 186.986C158.017 186.893 157.997 186.802 157.977 186.71C157.975 186.7 157.972 186.689 157.97 186.679C157.953 186.596 157.935 186.514 157.916 186.432C157.914 186.421 157.911 186.411 157.909 186.4C157.89 186.319 157.872 186.238 157.854 186.157C157.825 186.029 157.795 185.901 157.764 185.773C157.749 185.709 157.733 185.644 157.717 185.58C157.65 185.301 157.58 185.025 157.509 184.753C157.483 184.657 157.458 184.56 157.432 184.465C157.324 184.063 157.211 183.668 157.094 183.282C157.078 183.231 157.063 183.18 157.048 183.129C157.032 183.077 157.016 183.026 157 182.975C156.979 182.909 156.959 182.842 156.938 182.775C156.912 182.696 156.887 182.615 156.861 182.536C156.86 182.53 156.858 182.524 156.855 182.518C156.831 182.443 156.807 182.369 156.782 182.295C156.69 182.017 156.596 181.743 156.498 181.473C156.468 181.388 156.437 181.302 156.405 181.217C156.35 181.068 156.295 180.919 156.238 180.773C156.216 180.717 156.196 180.661 156.174 180.605C156.162 180.575 156.15 180.543 156.137 180.512C156.112 180.446 156.085 180.379 156.058 180.313C156.033 180.251 156.008 180.189 155.983 180.125C155.955 180.059 155.928 179.992 155.9 179.926C155.874 179.862 155.847 179.797 155.82 179.733C155.794 179.673 155.769 179.613 155.743 179.553C155.685 179.418 155.627 179.284 155.567 179.152C155.542 179.097 155.518 179.043 155.493 178.989C155.46 178.917 155.428 178.846 155.394 178.776C155.389 178.762 155.382 178.749 155.375 178.736C155.316 178.608 155.255 178.481 155.195 178.356C155.161 178.287 155.127 178.217 155.093 178.148C155.064 178.089 155.034 178.029 155.004 177.97C154.963 177.888 154.921 177.806 154.879 177.725C154.849 177.665 154.817 177.605 154.785 177.545C154.784 177.543 154.783 177.539 154.781 177.537C154.759 177.494 154.735 177.45 154.713 177.408C154.69 177.365 154.666 177.321 154.643 177.277C154.542 177.091 154.44 176.907 154.336 176.726C154.306 176.672 154.275 176.619 154.245 176.567C154.208 176.504 154.17 176.44 154.134 176.378C153.911 176.001 153.68 175.636 153.444 175.282C153.419 175.245 153.393 175.207 153.368 175.17C153.292 175.057 153.214 174.944 153.136 174.833C153.105 174.787 153.072 174.742 153.041 174.697C153.031 174.684 153.022 174.671 153.013 174.659C152.984 174.617 152.954 174.576 152.924 174.536C152.87 174.461 152.816 174.388 152.761 174.314C152.729 174.271 152.698 174.23 152.666 174.187C152.422 173.864 152.173 173.552 151.916 173.25C151.88 173.206 151.842 173.163 151.805 173.119C151.787 173.098 151.771 173.079 151.753 173.059C151.736 173.039 151.718 173.019 151.702 172.999C151.674 172.967 151.646 172.935 151.617 172.902C151.594 172.877 151.571 172.851 151.549 172.826C151.536 172.812 151.524 172.798 151.511 172.784C151.468 172.736 151.425 172.689 151.381 172.64C151.378 172.638 151.376 172.635 151.373 172.632C151.327 172.581 151.279 172.531 151.233 172.481C151.194 172.439 151.155 172.398 151.116 172.357C151.058 172.296 150.999 172.234 150.94 172.174C150.901 172.133 150.861 172.093 150.821 172.053C150.607 171.837 150.39 171.629 150.17 171.425C150.125 171.383 150.079 171.342 150.034 171.301C149.973 171.245 149.911 171.19 149.849 171.135C149.807 171.099 149.766 171.062 149.724 171.026C149.682 170.99 149.64 170.954 149.598 170.917C149.535 170.864 149.473 170.811 149.41 170.758C149.356 170.714 149.304 170.67 149.251 170.627C149.198 170.584 149.145 170.54 149.092 170.498C149.038 170.455 148.984 170.413 148.931 170.371C148.877 170.329 148.824 170.287 148.77 170.246C148.716 170.204 148.662 170.163 148.607 170.122C148.498 170.039 148.389 169.959 148.279 169.88C148.224 169.84 148.168 169.801 148.113 169.761C148.003 169.682 147.891 169.606 147.779 169.53C144.836 167.536 141.448 166.347 137.743 165.65C133.774 164.904 129.441 164.723 124.905 164.723C120.088 164.723 115.501 164.927 111.334 165.795C106.308 166.843 101.895 168.856 98.4288 172.644C93.3958 178.143 90.3589 187.382 90.3447 202.834C90.3447 202.872 90.3447 202.91 90.3447 202.947C90.3447 203.504 90.3481 204.059 90.3564 204.612V204.616C90.3564 204.621 90.3564 204.626 90.3564 204.631C90.403 207.924 90.5869 211.155 90.8972 214.304C91.9822 225.316 94.6173 235.338 98.3731 243.583H146.803H146.802Z" fill="#E6E6E6"/>
<g style="mix-blend-mode:multiply" opacity="0.8">
<path d="M159.465 202.946V202.951C159.465 202.988 159.465 203.025 159.465 203.061C159.465 203.198 159.465 203.334 159.464 203.47C159.447 207.165 159.259 210.784 158.912 214.303C157.827 225.315 155.192 235.337 151.436 243.582H146.803C150.933 235.519 153.927 225.472 155.312 214.303C155.868 209.823 156.166 205.164 156.174 200.379C156.174 200.307 156.174 200.237 156.174 200.165C156.174 199.78 156.172 199.399 156.168 199.021C156.167 198.949 156.167 198.876 156.166 198.804C156.026 186.98 154.054 178.916 150.742 173.429C150.717 173.389 150.693 173.349 150.668 173.309C150.621 173.231 150.573 173.153 150.524 173.076C149.687 171.743 148.77 170.567 147.778 169.529C147.89 169.605 148.001 169.682 148.112 169.761C148.167 169.8 148.223 169.839 148.278 169.879C148.388 169.958 148.497 170.039 148.606 170.121C148.66 170.162 148.714 170.203 148.769 170.245C148.823 170.286 148.876 170.328 148.93 170.37C148.984 170.412 149.038 170.455 149.091 170.497C149.144 170.539 149.197 170.583 149.251 170.626C149.304 170.669 149.356 170.713 149.41 170.757C149.472 170.81 149.534 170.862 149.598 170.915C149.64 170.951 149.682 170.988 149.724 171.024C149.766 171.061 149.807 171.097 149.849 171.133C149.911 171.188 149.973 171.244 150.034 171.299C150.079 171.341 150.125 171.381 150.17 171.423C150.39 171.627 150.607 171.836 150.821 172.051C150.86 172.091 150.9 172.131 150.94 172.172C150.999 172.233 151.058 172.294 151.116 172.356C151.155 172.397 151.194 172.438 151.233 172.479C151.279 172.529 151.327 172.58 151.373 172.63C151.376 172.634 151.378 172.636 151.381 172.639C151.425 172.686 151.468 172.734 151.511 172.783C151.525 172.797 151.536 172.81 151.549 172.824C151.571 172.85 151.594 172.875 151.617 172.901C151.646 172.932 151.674 172.965 151.702 172.997C151.719 173.017 151.737 173.037 151.754 173.057C151.772 173.077 151.788 173.096 151.806 173.117C151.843 173.16 151.881 173.204 151.917 173.249C152.174 173.551 152.423 173.863 152.667 174.185C152.699 174.227 152.73 174.269 152.762 174.312C152.817 174.386 152.871 174.459 152.925 174.534C152.955 174.575 152.985 174.616 153.014 174.657C153.023 174.67 153.032 174.683 153.041 174.695C153.073 174.74 153.105 174.786 153.137 174.831C153.215 174.943 153.293 175.054 153.369 175.168C153.394 175.205 153.42 175.243 153.445 175.28C153.681 175.634 153.911 175.999 154.135 176.376C154.172 176.439 154.209 176.501 154.245 176.565C154.276 176.617 154.307 176.671 154.337 176.724C154.441 176.905 154.543 177.089 154.644 177.276C154.667 177.319 154.69 177.363 154.714 177.406C154.737 177.449 154.76 177.493 154.782 177.535C154.784 177.538 154.785 177.541 154.786 177.544C154.818 177.603 154.849 177.663 154.88 177.723C154.923 177.804 154.964 177.886 155.005 177.969C155.035 178.028 155.065 178.088 155.094 178.147C155.128 178.215 155.162 178.285 155.196 178.354C155.257 178.48 155.317 178.606 155.376 178.734C155.383 178.747 155.389 178.761 155.395 178.774C155.428 178.845 155.461 178.916 155.493 178.987C155.518 179.041 155.543 179.095 155.567 179.15C155.627 179.282 155.686 179.416 155.744 179.551C155.77 179.611 155.795 179.671 155.82 179.732C155.848 179.795 155.874 179.86 155.901 179.924C155.929 179.991 155.956 180.056 155.983 180.124C156.009 180.186 156.034 180.248 156.059 180.312C156.086 180.377 156.112 180.444 156.138 180.511C156.151 180.541 156.163 180.573 156.175 180.604C156.196 180.659 156.218 180.715 156.239 180.771C156.295 180.918 156.351 181.066 156.406 181.215C156.438 181.3 156.469 181.386 156.499 181.472C156.596 181.741 156.691 182.016 156.783 182.294C156.808 182.368 156.832 182.443 156.856 182.517C156.858 182.522 156.86 182.528 156.862 182.534C156.888 182.613 156.914 182.694 156.939 182.774C156.96 182.84 156.981 182.907 157.001 182.973C157.017 183.025 157.033 183.077 157.048 183.127C157.064 183.178 157.079 183.229 157.095 183.28C157.212 183.666 157.325 184.061 157.433 184.464C157.459 184.559 157.484 184.655 157.509 184.751C157.581 185.024 157.65 185.299 157.718 185.578C157.734 185.643 157.749 185.707 157.765 185.772C157.796 185.899 157.825 186.026 157.855 186.155C157.873 186.236 157.892 186.317 157.91 186.398C157.912 186.409 157.915 186.42 157.917 186.43C157.935 186.513 157.954 186.595 157.971 186.678C157.974 186.688 157.976 186.698 157.978 186.708C157.998 186.8 158.017 186.892 158.037 186.984C158.056 187.072 158.074 187.16 158.092 187.249C158.109 187.333 158.127 187.417 158.143 187.502C158.157 187.568 158.17 187.634 158.183 187.7C158.309 188.341 158.425 189 158.534 189.677C158.55 189.778 158.566 189.878 158.582 189.98C158.598 190.083 158.614 190.185 158.629 190.29C158.629 190.291 158.629 190.294 158.63 190.296C158.643 190.384 158.656 190.472 158.668 190.56C158.689 190.701 158.709 190.843 158.728 190.986C158.737 191.049 158.746 191.112 158.755 191.176C158.768 191.27 158.781 191.365 158.792 191.459C158.807 191.576 158.823 191.693 158.837 191.811C158.852 191.929 158.866 192.048 158.881 192.167C158.888 192.231 158.896 192.295 158.903 192.36C158.911 192.426 158.919 192.492 158.926 192.559C158.94 192.67 158.952 192.781 158.964 192.894C158.977 193.012 158.99 193.131 159.002 193.25C159.015 193.378 159.029 193.507 159.041 193.636C159.053 193.752 159.064 193.87 159.075 193.987C159.086 194.104 159.097 194.221 159.108 194.339C159.117 194.437 159.125 194.535 159.134 194.634C159.141 194.724 159.149 194.813 159.156 194.903C159.159 194.931 159.161 194.958 159.163 194.986C159.169 195.075 159.177 195.164 159.184 195.253C159.192 195.356 159.2 195.459 159.208 195.562C159.215 195.669 159.223 195.778 159.231 195.886C159.238 195.991 159.246 196.098 159.253 196.204C159.273 196.503 159.292 196.806 159.308 197.112C159.322 197.358 159.335 197.605 159.347 197.854C159.361 198.126 159.373 198.401 159.383 198.678C159.388 198.8 159.393 198.923 159.397 199.046C159.401 199.153 159.405 199.261 159.408 199.369C159.411 199.467 159.415 199.565 159.417 199.663C159.42 199.751 159.422 199.839 159.425 199.928C159.428 200.053 159.431 200.18 159.435 200.307C159.436 200.386 159.438 200.465 159.44 200.545C159.443 200.672 159.446 200.798 159.447 200.925V200.943C159.45 201.052 159.451 201.161 159.453 201.271C159.461 201.821 159.465 202.379 159.465 202.946V202.946Z" fill="#E6E6E6"/>
</g>
<path d="M131.29 158.883H117.312V163.402H131.29V158.883Z" fill="black"/>
<path d="M158.431 136.766C158.431 153.96 143.189 159.36 124.387 159.36C105.586 159.36 90.3438 153.961 90.3438 136.766C90.3438 119.571 105.586 105.633 124.387 105.633C143.189 105.633 158.431 119.572 158.431 136.766Z" fill="#E6E6E6"/>
<path d="M153.089 138.515C153.089 153.012 140.239 157.563 124.388 157.563C108.537 157.563 95.6865 153.011 95.6865 138.515C95.6865 124.019 108.537 112.268 124.388 112.268C140.239 112.268 153.089 124.019 153.089 138.515Z" fill="#1A1A1A"/>
<path d="M124.387 145.651C127.902 145.651 130.773 142.898 130.964 139.431C130.975 139.232 130.815 139.064 130.614 139.064H118.16C117.96 139.064 117.799 139.232 117.81 139.431C118.001 142.898 120.872 145.651 124.387 145.651H124.387Z" fill="#57D2D8"/>
<path d="M117.312 130.231C114.2 127.504 109.474 127.815 106.746 130.928" stroke="#57D2D8" stroke-width="40" stroke-miterlimit="10" stroke-linecap="round"/>
<path d="M141.847 130.231C138.735 127.504 134.009 127.815 131.281 130.928" stroke="#57D2D8" stroke-width="40" stroke-miterlimit="10" stroke-linecap="round"/>
<path d="M91.4981 143.808L89.9954 143.06C88.1849 142.16 87.04 140.313 87.04 138.291V131.793C87.04 129.981 87.9619 128.292 89.4871 127.312L91.355 126.112C92.3534 125.47 93.6656 126.187 93.6656 127.373V142.465C93.6656 143.578 92.4949 144.303 91.4981 143.808Z" fill="#1A1A1A"/>
<path d="M157.295 143.808L158.798 143.06C160.609 142.16 161.753 140.313 161.753 138.291V131.793C161.753 129.981 160.832 128.292 159.306 127.312L157.438 126.112C156.44 125.47 155.128 126.187 155.128 127.373V142.465C155.128 143.578 156.299 144.303 157.295 143.808Z" fill="#1A1A1A"/>
<path d="M90.5891 130.201C89.4143 123.723 91.863 117.146 95.8609 112.059C100.019 106.744 105.79 102.769 112.112 100.461C115.126 99.3668 118.286 98.6596 121.483 98.3925C132.013 97.5405 142.775 101.628 150.246 109.057C153.727 112.533 156.519 116.819 157.79 121.597C158.619 124.68 158.727 128.061 158.013 131.129C157.982 131.373 157.641 131.348 157.642 131.108C158.068 123.838 154.595 117.184 149.443 112.243C142.146 105.263 131.871 101.328 121.764 102.076C109.978 102.988 97.6723 110.341 92.7965 121.348C92.4945 122.038 92.2308 122.76 91.997 123.476C91.4611 125.162 91.1316 126.914 91.0118 128.68C90.9777 129.185 90.9611 129.691 90.9594 130.198C90.9594 130.3 90.8762 130.382 90.7747 130.382C90.684 130.382 90.6091 130.316 90.5941 130.23L90.5891 130.201Z" fill="#1A1A1A"/>
<path d="M91.7003 126.074C91.5655 131.515 91.2693 136.957 91.7078 142.388C91.7469 142.846 91.7977 143.311 91.8434 143.77C91.7902 143.592 91.7411 143.413 91.6895 143.234C91.598 142.886 91.5056 142.502 91.4349 142.148C91.2868 141.43 91.1678 140.668 91.0846 139.943C90.5912 135.327 90.825 130.63 91.7003 126.075V126.074Z" fill="white"/>
<path d="M156.668 126.073C157.543 130.628 157.777 135.326 157.283 139.941C157.2 140.666 157.08 141.429 156.933 142.146C156.862 142.499 156.77 142.884 156.678 143.232C156.627 143.411 156.578 143.59 156.524 143.768C156.571 143.31 156.621 142.845 156.66 142.386C157.099 136.955 156.801 131.513 156.668 126.072V126.073Z" fill="white"/>
<path d="M75.0443 173.106C64.7586 162.678 59.5892 151.1 63.4964 147.246C67.4045 143.392 78.9099 148.721 89.1956 159.148C99.4813 169.575 101.939 178.404 98.031 182.259C94.1229 186.113 85.3291 183.534 75.0443 173.106Z" fill="#E6E6E6"/>
<g style="mix-blend-mode:multiply" opacity="0.8">
<path d="M96.6467 183.256C92.088 184.463 84.6678 181.187 76.2476 172.65C65.9619 162.222 60.7925 150.644 64.6997 146.79C64.9502 146.543 65.2331 146.333 65.5443 146.16C64.7305 146.352 64.0399 146.71 63.4958 147.246C59.5877 151.101 64.758 162.679 75.0436 173.106C84.2527 182.442 92.2652 185.486 96.6467 183.255V183.256Z" fill="#E6E6E6"/>
</g>
<path d="M152.822 172.643C150.635 173.209 149.414 174.179 148.691 175.138C144.855 180.23 149.797 192.022 160.907 204.625C158.375 202.694 154.814 199.515 151.755 194.745C150.803 193.261 142.705 180.631 147.274 175.1C148.048 174.163 149.578 172.955 152.822 172.643Z" fill="#CCCCCC"/>
<path d="M155.313 197.866C163.903 209.729 174.471 216.736 178.917 213.517C183.363 210.298 180.003 198.071 171.413 186.207C162.823 174.344 154.52 170.465 150.075 173.684C145.629 176.904 146.723 186.002 155.314 197.865L155.313 197.866Z" fill="#E6E6E6"/>
<g style="mix-blend-mode:multiply" opacity="0.8">
<path d="M171.413 186.208C165.769 178.414 160.249 174.066 155.865 172.914C159.772 174.806 164.322 178.881 168.956 185.282C177.546 197.145 180.905 209.372 176.46 212.591C175.257 213.462 173.604 213.584 171.664 213.063C174.667 214.489 177.231 214.738 178.916 213.518C183.362 210.298 180.002 198.072 171.412 186.208H171.413Z" fill="#E6E6E6"/>
</g>
<path d="M112.207 163.42H136.394C137.138 163.42 137.742 164.024 137.742 164.768V165.795H110.859V164.768C110.859 164.024 111.463 163.42 112.207 163.42Z" fill="black"/>
<path d="M131.46 205.645C135.355 201.75 135.355 195.434 131.46 191.538C127.564 187.643 121.248 187.643 117.352 191.538C113.457 195.434 113.457 201.75 117.352 205.645C121.248 209.541 127.564 209.541 131.46 205.645Z" fill="#57D2D8"/>
<path d="M99.5129 179.719C98.5935 181.783 97.4362 182.828 96.3712 183.382C90.7166 186.328 79.901 179.509 69.3008 166.475C70.7876 169.29 73.3362 173.326 77.5371 177.13C78.8443 178.314 89.967 188.382 96.1756 184.786C97.2273 184.177 98.6709 182.867 99.5129 179.719Z" fill="#CCCCCC"/>
<g style="mix-blend-mode:multiply" opacity="0.8">
<path d="M128.463 105.854C143.724 108.932 155.14 121.374 155.14 136.255C155.14 153.449 139.898 158.849 121.096 158.849C117.706 158.849 114.431 158.674 111.34 158.285C115.358 159.033 119.765 159.359 124.387 159.359C143.189 159.359 158.431 153.96 158.431 136.765C158.431 120.833 145.344 107.696 128.463 105.854Z" fill="#E6E6E6"/>
</g>
<path d="M400.315 234.659C400.551 233.495 400.315 231.967 400.313 230.77C400.312 229.392 400.31 228.015 400.308 226.637C400.304 223.882 400.3 221.128 400.296 218.373C400.294 215.618 400.293 212.863 400.296 210.108C400.3 207.783 400.327 205.55 398.593 203.874C397.163 202.492 395.004 201.434 393.078 201.434L369.382 225.176V234.443L400.314 234.659H400.315Z" fill="#5792D8"/>
<path d="M349.141 216.254V236.633L393.976 236.708L391.416 199.217L349.141 216.254Z" fill="#E6E6E6"/>
<path d="M450 253.124H0L39.1325 229.822H406.772L450 253.124Z" fill="#0A2B4A"/>
<path d="M449.977 253.139H0.0214844V258.007H449.977V253.139Z" fill="#5792D8"/>
<path d="M226.354 135H195.826C190.951 135 187 138.951 187 143.826V152.494C187 157.368 190.951 161.32 195.826 161.32H196.518C196.94 161.32 197.177 161.807 196.915 162.139L192.527 167.697L203.183 162.02C204.045 161.56 205.008 161.32 205.985 161.32H226.353C231.228 161.32 235.179 157.369 235.179 152.494V143.826C235.179 138.952 231.228 135 226.353 135H226.354Z" fill="#57D2D8"/>
<path d="M200.36 151.337C201.917 151.337 203.18 150.074 203.18 148.517C203.18 146.96 201.917 145.697 200.36 145.697C198.803 145.697 197.54 146.96 197.54 148.517C197.54 150.074 198.803 151.337 200.36 151.337Z" fill="white"/>
<path d="M211.089 151.337C212.647 151.337 213.909 150.074 213.909 148.517C213.909 146.96 212.647 145.697 211.089 145.697C209.532 145.697 208.27 146.96 208.27 148.517C208.27 150.074 209.532 151.337 211.089 151.337Z" fill="white"/>
<path d="M221.82 151.337C223.377 151.337 224.64 150.074 224.64 148.517C224.64 146.96 223.377 145.697 221.82 145.697C220.262 145.697 219 146.96 219 148.517C219 150.074 220.262 151.337 221.82 151.337Z" fill="white"/>
<path d="M316.912 231.012L338.694 231.049C339.44 231.051 340.046 230.514 340.046 229.852V226.66C340.046 226.66 313.073 219.091 313.473 220.279C313.874 221.467 316.911 231.012 316.911 231.012H316.912Z" fill="#0B2B4A"/>
<path d="M285.105 193.785L303.709 169.17C305.257 167.124 307.238 165.445 309.511 164.255L330.887 153.065L360.752 152.133L384.626 163.146C387.189 164.328 389.315 166.283 390.71 168.736C393.436 173.533 396.954 182.853 396.682 198.774C396.625 202.073 395.89 205.327 394.533 208.335C392.328 213.224 388.6 221.099 385.268 226.257C383.798 228.532 381.336 229.974 378.632 230.135L351.147 231.766H285.106V193.786L285.105 193.785Z" fill="#E6E6E6"/>
<path d="M356.393 139.368C356.229 141.948 355.483 146.878 357.144 149.026C357.364 149.312 357.651 149.537 357.934 149.76C358.43 150.15 358.925 150.539 359.421 150.929C360.782 151.998 362.259 152.78 363.76 153.628L353.462 171.845L342.56 177.48L338.724 174.465C336.031 172.348 334.384 169.158 334.263 165.735C334.17 163.104 333.74 159.483 332.493 154.987L356.393 139.367V139.368Z" fill="#FFBF9F"/>
<path d="M332.493 154.988C332.873 156.394 333.226 157.933 333.515 159.594C333.912 161.88 334.122 164.001 334.215 165.904C337.101 165.368 342.088 163.986 346.729 160.043C354.223 153.676 355.709 144.97 356.075 142.617C356.286 141.262 356.362 140.129 356.392 139.367L332.492 154.987L332.493 154.988Z" fill="#E8A689"/>
<path d="M327.086 118.856C326.334 121.932 326.777 123.587 326.848 128.004C326.884 130.258 326.824 133.315 326.421 137.004C326.234 138.71 326.347 140.436 326.78 142.096C327.986 146.724 329.691 151.585 332.762 155.324C334.012 156.847 335.914 158.657 337.91 159.078C340.057 159.533 342.334 158.802 344.262 157.899C347.324 156.462 349.565 153.836 351.449 151.105C353.475 148.167 355.229 145.189 355.841 141.618L356.077 140.242C357.455 135.011 358.113 130.548 358.454 127.252C359.239 119.648 358.452 117.098 357.979 115.846C357.434 114.408 356.148 111.069 352.751 108.718C348.87 106.032 344.697 106.329 342.295 106.499C340.129 106.653 335.241 107.001 331.365 110.777C328.335 113.728 327.473 117.282 327.087 118.856H327.086Z" fill="#FFBF9F"/>
<path d="M360.352 134.6C361.192 131.593 360.78 128.849 359.431 128.473C358.083 128.096 356.31 130.229 355.47 133.237C354.63 136.245 355.042 138.989 356.39 139.365C357.738 139.742 359.512 137.608 360.352 134.6Z" fill="#FFBF9F"/>
<path d="M340.098 132.347C341.291 132.95 342.809 132.565 344.066 132.432C344.525 132.384 348.576 132.179 348.586 132.207C348.394 131.675 347.779 131.328 347.295 131.097C346.067 130.511 344.664 130.45 343.329 130.544C342.569 130.597 340.051 130.666 339.777 131.594C339.668 131.964 339.809 132.201 340.098 132.347Z" fill="#0A2B4A"/>
<path d="M332.914 132.347C331.895 132.95 330.598 132.565 329.523 132.432C329.132 132.384 325.669 132.179 325.661 132.207C325.825 131.675 326.351 131.327 326.764 131.097C327.813 130.511 329.012 130.45 330.153 130.544C330.802 130.597 332.955 130.666 333.189 131.594C333.282 131.964 333.162 132.201 332.914 132.347Z" fill="#0A2B4A"/>
<path d="M342.61 138.181C343.223 138.181 343.719 137.578 343.719 136.835C343.719 136.091 343.223 135.488 342.61 135.488C341.998 135.488 341.501 136.091 341.501 136.835C341.501 137.578 341.998 138.181 342.61 138.181Z" fill="#0A2B4A"/>
<path d="M331.046 138.181C331.658 138.181 332.155 137.578 332.155 136.835C332.155 136.091 331.658 135.488 331.046 135.488C330.433 135.488 329.937 136.091 329.937 136.835C329.937 137.578 330.433 138.181 331.046 138.181Z" fill="#0A2B4A"/>
<path d="M335.78 144.44C335.318 144.44 334.881 144.24 334.578 143.887C334.266 143.524 334.135 143.045 334.219 142.574L335.276 136.68C335.299 136.551 335.422 136.465 335.552 136.488C335.681 136.511 335.768 136.635 335.744 136.764L334.688 142.658C334.629 142.988 334.72 143.323 334.939 143.578C335.158 143.833 335.481 143.972 335.811 143.964L338.773 143.886C338.904 143.882 339.013 143.986 339.017 144.117C339.02 144.249 338.917 144.358 338.785 144.361L335.823 144.439C335.809 144.439 335.795 144.439 335.781 144.439L335.78 144.44Z" fill="#0A2B4A"/>
<path d="M338.25 150.453C337.882 150.453 337.504 150.43 337.114 150.378C334.408 150.018 332.59 148.491 331.747 147.614C331.656 147.519 331.659 147.368 331.754 147.277C331.848 147.187 331.998 147.189 332.09 147.284C332.889 148.118 334.614 149.566 337.178 149.906C341.204 150.439 344.052 147.813 344.582 147.281C344.674 147.188 344.825 147.188 344.918 147.281C345.011 147.373 345.011 147.524 344.918 147.617C344.411 148.125 341.892 150.453 338.251 150.453H338.25Z" fill="#0A2B4A"/>
<path d="M341.992 141.921C340.138 141.921 338.596 140.451 338.522 138.583L338.449 136.718C338.396 135.356 339.46 134.205 340.822 134.152L346.084 133.945C346.696 133.921 347.281 134.137 347.731 134.553C348.181 134.969 348.441 135.534 348.465 136.147L348.539 138.011C348.618 140.024 347.043 141.726 345.031 141.805L342.13 141.919C342.084 141.92 342.038 141.921 341.993 141.921H341.992ZM346.175 134.419C346.151 134.419 346.126 134.419 346.101 134.42L340.84 134.627C339.74 134.67 338.88 135.599 338.923 136.699L338.997 138.565C339.062 140.217 340.461 141.512 342.11 141.444L345.011 141.33C346.762 141.26 348.131 139.78 348.063 138.029L347.989 136.165C347.97 135.68 347.764 135.231 347.407 134.901C347.068 134.588 346.633 134.418 346.175 134.418V134.419Z" fill="#E6E6E6"/>
<path d="M330.68 141.979C330.579 141.979 330.477 141.975 330.375 141.966L327.482 141.727C325.573 141.569 324.149 139.887 324.307 137.977L324.461 136.117C324.573 134.759 325.77 133.747 327.128 133.858L332.375 134.293C332.986 134.344 333.54 134.629 333.935 135.096C334.331 135.564 334.521 136.157 334.47 136.768L334.316 138.626C334.158 140.532 332.557 141.979 330.678 141.979H330.68ZM326.923 134.326C325.896 134.326 325.022 135.116 324.935 136.157L324.781 138.017C324.645 139.665 325.874 141.117 327.522 141.253L330.415 141.493C332.161 141.639 333.701 140.335 333.845 138.587L333.999 136.729C334.039 136.244 333.889 135.774 333.575 135.403C333.261 135.033 332.822 134.807 332.338 134.767L327.09 134.331C327.034 134.326 326.979 134.325 326.924 134.325L326.923 134.326Z" fill="#E6E6E6"/>
<path d="M333.977 135.805C333.876 135.805 333.783 135.741 333.751 135.64C333.711 135.515 333.78 135.381 333.905 135.341C334.009 135.308 336.477 134.535 338.848 135.261C338.974 135.3 339.045 135.433 339.006 135.558C338.967 135.684 338.834 135.754 338.709 135.716C336.483 135.034 334.073 135.786 334.048 135.794C334.024 135.801 334 135.805 333.976 135.805H333.977Z" fill="#E6E6E6"/>
<path d="M348.936 135.429H348.126C347.994 135.429 347.888 135.322 347.888 135.191C347.888 135.059 347.994 134.953 348.126 134.953H348.936C349.285 134.953 349.626 134.833 349.898 134.615L358.223 127.937C358.326 127.855 358.475 127.871 358.557 127.974C358.639 128.076 358.623 128.226 358.52 128.307L350.195 134.986C349.839 135.272 349.391 135.429 348.935 135.429H348.936Z" fill="#E6E6E6"/>
<path d="M324.756 136.026H323.826C323.657 136.026 323.505 135.925 323.439 135.769C323.373 135.613 323.406 135.433 323.524 135.312L326.202 132.55C326.293 132.456 326.444 132.454 326.538 132.545C326.632 132.637 326.634 132.788 326.543 132.882L323.954 135.551H324.755C324.886 135.551 324.993 135.657 324.993 135.789C324.993 135.92 324.886 136.027 324.755 136.027L324.756 136.026Z" fill="#E6E6E6"/>
<path d="M326.679 121.523C328.204 120.15 329.532 119.763 330.413 119.647C331.815 119.462 332.588 119.896 335.64 120.597C337.749 121.082 338.804 121.325 339.759 121.389C342.731 121.591 346.195 120.928 347.046 120.755C347.781 120.607 348.479 120.439 349.422 120.597C349.895 120.676 351.095 120.948 352.432 122.182C355.459 124.972 355.584 129.356 356.075 129.31C356.6 129.261 358.085 124.112 355.6 120.439C353.059 116.685 347.714 116.462 340.551 116.162C334.521 115.91 330.723 117.076 328.194 118.221C327.522 118.526 326.98 118.81 326.61 119.013L326.678 121.523H326.679Z" fill="#E8A689"/>
<path d="M336.749 120.123C334.029 119.454 331.596 118.355 328.828 119.489C326.713 120.357 326.125 121.823 325.185 121.548C323.333 121.007 321.965 114.544 324.71 110.459C327.149 106.828 331.958 106.395 337.858 105.865C343.155 105.389 347.29 105.017 351.799 107.449C353.344 108.283 359.371 111.839 360.67 119.014C361.467 123.412 360.094 126.999 359.403 128.519C358.932 128.497 358.561 128.583 358.294 128.677C356.553 129.293 356.079 131.424 356.032 131.657C355.706 124.759 353.62 121.978 351.641 120.756C347.823 118.396 344.862 122.119 336.75 120.122L336.749 120.123Z" fill="#0A2B4A"/>
<path d="M324.216 115.717C324.216 115.717 326.026 108.308 335.586 108.275C335.586 108.275 324.356 106.084 324.216 115.717Z" fill="#E6E6E6"/>
<path d="M356.947 137.705C356.887 137.705 356.825 137.682 356.779 137.635C356.687 137.542 356.687 137.391 356.779 137.299C358.005 136.077 358.517 135.091 358.304 134.367C358.213 134.06 358.008 133.851 357.792 133.629C357.531 133.363 357.237 133.06 357.186 132.581C357.11 131.858 357.622 131.092 358.709 130.305C358.814 130.228 358.963 130.252 359.041 130.358C359.118 130.465 359.094 130.613 358.987 130.69C358.049 131.371 357.601 131.99 357.659 132.532C357.692 132.847 357.896 133.055 358.131 133.298C358.368 133.539 358.635 133.813 358.76 134.233C359.031 135.15 358.493 136.263 357.115 137.637C357.069 137.683 357.008 137.706 356.947 137.706V137.705Z" fill="#0A2B4A"/>
<path d="M363.759 153.627C363.759 153.627 355.015 169.777 345.139 174.827C343.561 175.634 341.643 175.429 340.285 174.288C339.84 173.914 339.397 173.497 338.968 173.032C336.255 170.1 335.382 166.711 333.898 160.676C333.5 159.054 333.11 157.265 332.762 155.323C332.137 154.57 331.513 153.817 330.888 153.064L329.341 153.874C329.341 153.874 330.988 168.641 336.87 175.405C339.23 178.119 343.046 179.019 346.376 177.66C351.103 175.732 359.371 170.211 365.816 154.468L363.758 153.626L363.759 153.627Z" fill="#57D2D8"/>
<path d="M312.86 177.48C311.798 186.928 310.49 198.039 309.61 207.416C309.169 212.407 308.658 217.409 308.711 222.425C308.758 223.419 308.761 224.445 309.105 225.39C308.712 224.46 308.664 223.426 308.585 222.431C308.303 215.398 309.071 208.367 309.731 201.376C310.574 193.386 311.599 185.416 312.86 177.481L312.86 177.48Z" fill="#57D2D8"/>
<path d="M312.116 184.377C311.82 183.39 311.629 182.391 311.431 181.388C311.249 180.506 311.061 179.268 310.77 178.42C311.874 179.792 312.226 182.646 312.116 184.377Z" fill="#57D2D8"/>
<path d="M374.452 177.48C372.646 184.035 370.915 190.626 369.632 197.303C369.158 199.802 368.752 202.317 368.57 204.854C368.529 205.727 368.267 206.616 367.786 207.354C367.314 208.1 366.631 208.708 365.862 209.113C364.38 209.934 362.921 210.814 361.595 211.872C360.936 212.404 360.31 212.984 359.799 213.667C360.27 212.954 360.871 212.335 361.514 211.775C362.8 210.649 364.239 209.71 365.714 208.852C366.439 208.445 367.053 207.866 367.476 207.161C367.902 206.456 368.124 205.656 368.154 204.83C368.296 202.269 368.697 199.731 369.165 197.215C370.469 190.523 372.293 183.944 374.452 177.48Z" fill="#57D2D8"/>
<path d="M372.265 185.534C372.766 183.406 374.396 181.04 376.67 180.637C374.655 181.707 373.425 183.643 372.265 185.534Z" fill="#57D2D8"/>
<path d="M347.084 216.919C348.955 216.512 350.902 216.18 352.777 215.797C354.238 215.476 355.716 215.194 357.106 214.615C354.794 216.253 349.92 216.918 347.085 216.918L347.084 216.919Z" fill="#57D2D8"/>
<path d="M344.827 217.951C344.827 217.951 338.237 220.115 333.34 220.007C333.236 220.005 333.134 219.998 333.031 219.989L325.03 219.262C324.659 219.228 324.286 219.22 323.914 219.239L318.521 219.509C318.295 219.52 318.114 219.699 318.102 219.925C318.06 220.729 318.126 222.501 319.455 222.809C319.696 222.864 319.865 223.082 319.864 223.329C319.857 224.335 319.989 226.635 321.297 227.178C321.538 227.278 321.662 227.54 321.578 227.786C321.326 228.509 321.045 229.828 322.064 230.374C322.486 230.601 322.992 230.619 323.444 230.459C324.04 230.249 325.184 229.952 325.959 230.404C326.378 230.649 326.835 230.816 327.319 230.848C329.596 230.997 335.331 231.203 337.082 229.67C337.44 229.356 337.921 229.219 338.396 229.261C340.167 229.415 343.988 229.844 345.611 230.79L347.085 230.304L347.285 222.062L344.828 217.951H344.827Z" fill="#FFBF9F"/>
<path d="M344.51 217.568C345.012 219.041 347.7 227.467 344.897 231.464C344.797 231.607 344.892 231.805 345.062 231.805H346.788C347.119 231.805 347.413 231.593 347.528 231.272C348.153 229.531 349.786 223.741 346.767 217.158C346.699 217.01 346.541 216.929 346.385 216.96L344.659 217.301C344.54 217.324 344.469 217.45 344.51 217.568Z" fill="#57D2D8"/>
<path d="M320.051 223.018C320.712 221.86 321.979 221.068 323.305 220.909C323.599 220.874 324.004 220.875 324.301 220.885C325.283 220.909 326.264 220.945 327.245 221.048C326.591 221.111 325.937 221.142 325.284 221.162C324.65 221.197 323.974 221.156 323.342 221.223C322.063 221.376 320.899 222.044 320.051 223.018Z" fill="#A84320"/>
<path d="M321.938 227.448C322.972 225.604 325.128 223.034 327.427 223.063C327.78 223.078 328.128 223.166 328.432 223.329C325.925 222.573 323.387 225.749 321.938 227.448V227.448Z" fill="#A84320"/>
<path d="M331.889 228.313C332.781 226.96 334.284 225.821 335.958 225.803C336.195 225.806 336.431 225.837 336.658 225.894C336.423 225.899 336.194 225.906 335.967 225.941C334.362 226.179 333.04 227.226 331.889 228.313Z" fill="#E8A689"/>
<path d="M271.801 239.611L336.819 243.662L336.948 241.581L271.562 237.512L271.801 239.611Z" fill="#5792D8"/>
<path d="M271.611 237.661L336.973 241.879L333.525 199.68C333.46 198.885 332.808 198.267 332.011 198.244L268.245 196.421C267.286 196.393 266.528 197.228 266.648 198.179L271.612 237.661H271.611Z" fill="#5792D8"/>
<path d="M336.819 243.661L347.054 232.793C347.457 232.366 347.682 231.8 347.682 231.213V230.227L336.949 241.581L336.819 243.661Z" fill="#5792D8"/>
<path d="M347.682 230.227C347.682 230.247 336.016 230.227 336.016 230.227L336.949 241.581L347.682 230.227Z" fill="#5792D8"/>
<path d="M339.726 234.111H336.334L336.609 237.51L339.82 234.343C339.906 234.258 339.846 234.112 339.725 234.112L339.726 234.111Z" fill="#ACCBEA"/>
<path d="M305.797 223.225C308.061 220.961 308.061 217.289 305.797 215.025C303.532 212.76 299.861 212.76 297.596 215.025C295.332 217.289 295.332 220.961 297.596 223.225C299.861 225.49 303.532 225.49 305.797 223.225Z" fill="#ACCBEA"/>
<path d="M194.028 240.609L127.508 244.754L127.375 242.625L194.273 238.461L194.028 240.609Z" fill="#5792D8"/>
<path d="M194.223 238.616L127.351 242.931L130.879 199.755C130.945 198.943 131.613 198.309 132.428 198.286L197.668 196.421C198.649 196.392 199.424 197.246 199.301 198.219L194.223 238.615L194.223 238.616Z" fill="#5792D8"/>
<path d="M127.508 244.754L117.037 233.636C116.625 233.198 116.396 232.62 116.396 232.018V231.01L127.376 242.627L127.508 244.755V244.754Z" fill="#5792D8"/>
<path d="M116.395 231.008C116.395 231.029 128.33 231.008 128.33 231.008L127.375 242.625L116.395 231.008Z" fill="#5792D8"/>
<path d="M124.532 234.984H128.003L127.721 238.461L124.435 235.221C124.347 235.134 124.408 234.984 124.532 234.984H124.532Z" fill="#ACCBEA"/>
<path d="M167.637 223.843C169.954 221.527 169.954 217.77 167.637 215.454C165.321 213.137 161.564 213.137 159.248 215.454C156.931 217.77 156.931 221.527 159.248 223.843C161.564 226.16 165.321 226.16 167.637 223.843Z" fill="#ACCBEA"/>
<path d="M166.001 73.4257V94.1746C166.001 99.7079 170.503 104.193 176.058 104.193H179.082L176.818 113L189.803 104.193H220.511C226.066 104.193 230.568 99.7079 230.568 94.1746V73.4257C230.568 67.8924 226.066 63.4063 220.511 63.4063H176.057C170.503 63.4063 166 67.8918 166 73.4257H166.001Z" fill="white"/>
<path d="M225.453 85.6144C225.701 85.6144 225.902 85.4398 225.902 85.2249V81.7645C225.902 81.549 225.701 81.375 225.453 81.375C225.205 81.375 225.004 81.5496 225.004 81.7645V85.2249C225.004 85.4404 225.205 85.6144 225.453 85.6144Z" fill="#7A4EED"/>
<path d="M206.568 90.6965C206.816 90.6965 207.017 90.5219 207.017 90.307V76.6845C207.017 76.4689 206.817 76.2949 206.568 76.2949C206.321 76.2949 206.119 76.4696 206.119 76.6845V90.307C206.119 90.5225 206.32 90.6965 206.568 90.6965Z" fill="#7A4EED"/>
<path d="M204.471 88.5484C204.718 88.5484 204.92 88.3738 204.92 88.1589V78.8309C204.92 78.6154 204.719 78.4414 204.471 78.4414C204.223 78.4414 204.021 78.616 204.021 78.8309V88.1589C204.021 88.3744 204.222 88.5484 204.471 88.5484Z" fill="#7A4EED"/>
<path d="M196.077 88.3548C196.325 88.3548 196.526 88.1801 196.526 87.9653V79.0262C196.526 78.8106 196.325 78.6367 196.077 78.6367C195.829 78.6367 195.628 78.8113 195.628 79.0262V87.9653C195.628 88.1808 195.829 88.3548 196.077 88.3548Z" fill="#7A4EED"/>
<path d="M189.782 88.3548C190.03 88.3548 190.231 88.1801 190.231 87.9653V79.0262C190.231 78.8106 190.031 78.6367 189.782 78.6367C189.535 78.6367 189.333 78.8113 189.333 79.0262V87.9653C189.333 88.1808 189.534 88.3548 189.782 88.3548Z" fill="#7A4EED"/>
<path d="M208.667 88.5484C208.914 88.5484 209.116 88.3738 209.116 88.1589V78.8309C209.116 78.6154 208.915 78.4414 208.667 78.4414C208.419 78.4414 208.218 78.616 208.218 78.8309V88.1589C208.218 88.3744 208.419 88.5484 208.667 88.5484Z" fill="#7A4EED"/>
<path d="M202.372 87.5179C202.62 87.5179 202.821 87.3433 202.821 87.1284V79.8624C202.821 79.6468 202.62 79.4728 202.372 79.4728C202.124 79.4728 201.923 79.6475 201.923 79.8624V87.1284C201.923 87.3439 202.124 87.5179 202.372 87.5179Z" fill="#7A4EED"/>
<path d="M210.765 87.5179C211.012 87.5179 211.214 87.3433 211.214 87.1284V79.8624C211.214 79.6468 211.013 79.4728 210.765 79.4728C210.517 79.4728 210.316 79.6475 210.316 79.8624V87.1284C210.316 87.3439 210.516 87.5179 210.765 87.5179Z" fill="#7A4EED"/>
<path d="M214.962 87.5179C215.209 87.5179 215.411 87.3433 215.411 87.1284V79.8624C215.411 79.6468 215.21 79.4728 214.962 79.4728C214.714 79.4728 214.513 79.6475 214.513 79.8624V87.1284C214.513 87.3439 214.713 87.5179 214.962 87.5179Z" fill="#7A4EED"/>
<path d="M219.158 87.5179C219.406 87.5179 219.607 87.3433 219.607 87.1284V79.8624C219.607 79.6468 219.406 79.4728 219.158 79.4728C218.91 79.4728 218.709 79.6475 218.709 79.8624V87.1284C218.709 87.3439 218.91 87.5179 219.158 87.5179Z" fill="#7A4EED"/>
<path d="M217.06 88.3548C217.307 88.3548 217.509 88.1801 217.509 87.9653V79.0262C217.509 78.8106 217.308 78.6367 217.06 78.6367C216.812 78.6367 216.611 78.8113 216.611 79.0262V87.9653C216.611 88.1808 216.811 88.3548 217.06 88.3548Z" fill="#7A4EED"/>
<path d="M223.354 88.3548C223.602 88.3548 223.803 88.1801 223.803 87.9653V79.0262C223.803 78.8106 223.603 78.6367 223.354 78.6367C223.107 78.6367 222.905 78.8113 222.905 79.0262V87.9653C222.905 88.1808 223.106 88.3548 223.354 88.3548Z" fill="#7A4EED"/>
<path d="M198.176 87.5342C198.423 87.5342 198.625 87.3595 198.625 87.1447V79.8468C198.625 79.6313 198.424 79.4573 198.176 79.4573C197.928 79.4573 197.727 79.6319 197.727 79.8468V87.1447C197.727 87.3602 197.927 87.5342 198.176 87.5342Z" fill="#7A4EED"/>
<path d="M193.979 87.5342C194.227 87.5342 194.428 87.3595 194.428 87.1447V79.8468C194.428 79.6313 194.228 79.4573 193.979 79.4573C193.732 79.4573 193.53 79.6319 193.53 79.8468V87.1447C193.53 87.3602 193.731 87.5342 193.979 87.5342Z" fill="#7A4EED"/>
<path d="M200.273 86.0844C200.521 86.0844 200.722 85.9098 200.722 85.6949V81.2977C200.722 81.0822 200.522 80.9082 200.273 80.9082C200.026 80.9082 199.824 81.0828 199.824 81.2977V85.6949C199.824 85.9104 200.025 86.0844 200.273 86.0844Z" fill="#7A4EED"/>
<path d="M212.863 86.0844C213.111 86.0844 213.312 85.9098 213.312 85.6949V81.2977C213.312 81.0822 213.111 80.9082 212.863 80.9082C212.615 80.9082 212.414 81.0828 212.414 81.2977V85.6949C212.414 85.9104 212.615 86.0844 212.863 86.0844Z" fill="#7A4EED"/>
<path d="M221.256 85.6144C221.503 85.6144 221.705 85.4398 221.705 85.2249V81.7645C221.705 81.549 221.504 81.375 221.256 81.375C221.008 81.375 220.807 81.5496 220.807 81.7645V85.2249C220.807 85.4404 221.007 85.6144 221.256 85.6144Z" fill="#7A4EED"/>
<path d="M191.881 85.6144C192.128 85.6144 192.33 85.4398 192.33 85.2249V81.7645C192.33 81.549 192.129 81.375 191.881 81.375C191.633 81.375 191.432 81.5496 191.432 81.7645V85.2249C191.432 85.4404 191.632 85.6144 191.881 85.6144Z" fill="#7A4EED"/>
<path d="M187.684 85.6144C187.932 85.6144 188.133 85.4398 188.133 85.2249V81.7645C188.133 81.549 187.933 81.375 187.684 81.375C187.437 81.375 187.235 81.5496 187.235 81.7645V85.2249C187.235 85.4404 187.436 85.6144 187.684 85.6144Z" fill="#7A4EED"/>
<path d="M177.872 90.6732C181.851 90.6732 185.076 87.4602 185.076 83.4968C185.076 79.5333 181.851 76.3203 177.872 76.3203C173.893 76.3203 170.668 79.5333 170.668 83.4968C170.668 87.4602 173.893 90.6732 177.872 90.6732Z" fill="#7A4EED"/>
<path d="M177.87 84.3154C177.02 84.3154 176.328 83.6266 176.326 82.7806L176.32 80.6343C176.32 80.224 176.48 79.8377 176.771 79.5456C177.062 79.2541 177.449 79.0924 177.861 79.0918C178.712 79.0918 179.408 79.78 179.41 80.6265L179.415 82.7729C179.417 83.6214 178.726 84.3128 177.875 84.3154H177.87Z" fill="white"/>
<path d="M180.86 81.4335C180.682 81.4335 180.538 81.5783 180.538 81.7555L180.541 82.8819C180.545 84.3485 179.35 85.545 177.877 85.5483C176.405 85.5522 175.204 84.3615 175.201 82.8949L175.198 81.7685C175.198 81.5913 175.053 81.4478 174.875 81.4485C174.697 81.4485 174.553 81.5932 174.554 81.7705L174.556 82.8969C174.561 84.6095 175.879 86.0177 177.557 86.1754L177.561 87.8413L176.506 87.8439C176.328 87.8439 176.184 87.9887 176.184 88.1659C176.185 88.3432 176.33 88.4866 176.508 88.486L179.262 88.4788C179.44 88.4788 179.584 88.3341 179.584 88.1568C179.583 87.9796 179.438 87.8361 179.26 87.8368L178.205 87.8394L178.201 86.1735C179.878 86.0073 181.19 84.592 181.186 82.88L181.183 81.7536C181.183 81.5764 181.038 81.4329 180.86 81.4335Z" fill="white"/>
<path d="M226.969 73.0144C230.299 73.0144 232.999 70.3249 232.999 67.0072C232.999 63.6895 230.299 61 226.969 61C223.638 61 220.938 63.6895 220.938 67.0072C220.938 70.3249 223.638 73.0144 226.969 73.0144Z" fill="#F8203D"/>
<path d="M230.664 62.2604C231.478 63.2576 231.966 64.5288 231.966 65.9136C231.966 69.1155 229.36 71.7111 226.146 71.7111C224.159 71.7111 222.405 70.7184 221.355 69.2044C222.236 71.4351 224.418 73.014 226.969 73.014C230.3 73.014 233 70.3243 233 67.0068C233 65.0761 232.085 63.3589 230.664 62.2598V62.2604Z" fill="#DE1D37"/>
<path d="M225.373 64.5992C224.481 65.2646 223.439 65.3808 223.047 64.8588C222.655 64.3369 223.06 63.3747 223.953 62.7093C224.845 62.0438 225.887 61.9276 226.279 62.4496C226.671 62.9716 226.266 63.9337 225.373 64.5992Z" fill="#FF5970"/>
<path d="M226.84 65.1589H226.825L225.992 65.6068L225.867 65.1147L226.914 64.5564H227.467V69.3288H226.84V65.1582V65.1589Z" fill="white"/>
</g>
<defs>
<clipPath id="clip0_48_16781">
<rect width="450" height="258.126" fill="white"/>
</clipPath>
</defs>
</svg>
