<svg width="54" height="54" viewBox="0 0 54 54" fill="none" xmlns="http://www.w3.org/2000/svg">
<g id="reduction 1" clip-path="url(#clip0_1217_13752)">
<g id="Group">
<g id="Group_2">
<g id="Group_3">
<path id="Vector" fill-rule="evenodd" clip-rule="evenodd" d="M22.6282 22.7891H26.8392C27.3466 22.7891 27.7604 23.2028 27.7604 23.7102V45.919C27.7604 46.4263 27.3466 46.8401 26.8392 46.8401H22.6282C22.1209 46.8401 21.707 46.4263 21.707 45.919V23.7102C21.707 23.2028 22.1208 22.7891 22.6282 22.7891Z" fill="#6CF5C2"/>
<path id="Vector_2" fill-rule="evenodd" clip-rule="evenodd" d="M22.6282 22.7891H24.4706C23.9632 22.7891 23.5495 23.2028 23.5495 23.7102V45.9189C23.5495 46.4263 23.9632 46.8401 24.4706 46.8401H22.6282C22.1209 46.8401 21.707 46.4263 21.707 45.9189V23.7102C21.707 23.2028 22.1208 22.7891 22.6282 22.7891Z" fill="#00E499"/>
<path id="Vector_3" fill-rule="evenodd" clip-rule="evenodd" d="M33.8684 29.1426H38.0796C38.587 29.1426 39.0007 29.5564 39.0007 30.0638V45.9191C39.0007 46.4265 38.587 46.8402 38.0796 46.8402C36.6759 46.8402 35.2722 46.8402 33.8684 46.8402C33.361 46.8402 32.9473 46.4264 32.9473 45.9191C32.9473 40.3072 32.9473 35.6757 32.9473 30.0638C32.9472 29.5564 33.361 29.1426 33.8684 29.1426Z" fill="#FFE177"/>
<path id="Vector_4" fill-rule="evenodd" clip-rule="evenodd" d="M33.8684 29.1426H35.7108C35.2033 29.1426 34.7896 29.5564 34.7896 30.0637V45.919C34.7896 46.4264 35.2033 46.8401 35.7108 46.8401H33.8684C33.361 46.8401 32.9473 46.4263 32.9473 45.919C32.9473 40.3071 32.9473 35.6756 32.9473 30.0637C32.9472 29.5563 33.361 29.1426 33.8684 29.1426Z" fill="#FFD064"/>
<path id="Vector_5" fill-rule="evenodd" clip-rule="evenodd" d="M49.3197 35.2266H45.1087C44.6014 35.2266 44.1875 35.6403 44.1875 36.1477V45.9185C44.1875 46.4259 44.6013 46.8396 45.1087 46.8396H49.3197C49.827 46.8396 50.2409 46.4259 50.2409 45.9185V36.1476C50.2409 35.6403 49.827 35.2266 49.3197 35.2266Z" fill="#FE646F"/>
<path id="Vector_6" fill-rule="evenodd" clip-rule="evenodd" d="M46.9511 35.2266H45.1087C44.6014 35.2266 44.1875 35.6403 44.1875 36.1477V45.9185C44.1875 46.4259 44.6013 46.8396 45.1087 46.8396H46.9511C46.4438 46.8396 46.0299 46.4259 46.0299 45.9185V36.1476C46.0299 35.6403 46.4438 35.2266 46.9511 35.2266Z" fill="#FD4755"/>
<path id="Vector_7" fill-rule="evenodd" clip-rule="evenodd" d="M52.2415 46.1836H8.46646C7.96 46.1836 7.54688 46.5967 7.54688 47.1032V47.5459C7.54688 48.0525 7.96 48.4655 8.46646 48.4655H52.2414C52.7479 48.4655 53.1609 48.0524 53.1609 47.5459V47.1032C53.1611 46.5967 52.7479 46.1836 52.2415 46.1836Z" fill="#A79BA7"/>
<path id="Vector_8" fill-rule="evenodd" clip-rule="evenodd" d="M7.54688 47.3242V47.5456C7.54688 48.0522 7.96 48.4652 8.46646 48.4652H52.2414C52.7479 48.4652 53.1609 48.0521 53.1609 47.5456V47.3242H7.54688Z" fill="#837683"/>
</g>
<g id="Group_4">
<path id="Vector_9" fill-rule="evenodd" clip-rule="evenodd" d="M43.4395 23.3511C39.147 23.2203 34.5652 21.917 30.2954 19.3672C23.9515 15.5787 19.7035 9.87921 18.2734 4.11914C20.4206 7.91021 23.4723 11.2156 28.1238 13.9932C32.3419 16.5121 38.9416 18.4768 43.7586 18.6077L43.9376 15.9465C43.9448 15.8376 44.0096 15.7483 44.1108 15.7073C44.2119 15.6664 44.3205 15.6856 44.4015 15.7587L50.3496 21.1284C50.4148 21.1871 50.4465 21.2649 50.4409 21.3525C50.4353 21.4401 50.3942 21.5132 50.3221 21.5632L43.7032 26.1656C43.6134 26.228 43.5027 26.2332 43.4074 26.1792C43.3121 26.1253 43.2596 26.0277 43.2669 25.9185L43.4395 23.3511Z" fill="#FFE177"/>
<path id="Vector_10" fill-rule="evenodd" clip-rule="evenodd" d="M43.4395 23.3511C39.147 23.2203 34.5652 21.917 30.2954 19.3672C23.9515 15.5787 19.7035 9.87921 18.2734 4.11914C18.3054 4.17567 18.3376 4.23189 18.3699 4.2881L18.3722 4.292L18.3744 4.29591L18.3747 4.29643L18.3767 4.29991L18.3789 4.30382L18.4174 4.37047C20.2052 9.52695 24.9367 14.9143 29.9264 17.8939C34.916 20.8735 39.1473 21.7695 43.4399 21.9003L43.4395 23.3511ZM49.5273 20.3862L43.3501 24.6815L43.2669 25.9187C43.2595 26.028 43.312 26.1254 43.4074 26.1794C43.5026 26.2334 43.6133 26.2282 43.7032 26.1658L50.322 21.5635C50.3941 21.5134 50.4353 21.4403 50.4408 21.3527C50.4464 21.2651 50.4147 21.1875 50.3495 21.1286L49.5273 20.3862Z" fill="#FFD064"/>
</g>
<g id="Group_5">
<path id="Vector_11" fill-rule="evenodd" clip-rule="evenodd" d="M15.9031 20.9599L17.1284 24.6196C20.3224 28.0447 22.6494 30.9465 24.1093 33.5097C28.7759 41.7035 22.1373 50.0257 13.2466 49.876C4.35586 50.0258 -2.28266 41.7036 2.38381 33.5097C3.84371 30.9465 6.17077 28.0448 9.36468 24.6196L10.5942 20.9639L7.60145 17.9712C6.87098 17.2408 6.87098 16.0454 7.60145 15.3149C8.22277 14.6936 9.20637 14.5885 9.9456 15.0632C10.2202 15.2394 10.5357 15.2676 10.837 15.1428C11.1383 15.0179 11.3415 14.7751 11.4111 14.4563C11.5951 13.6131 12.3501 12.9767 13.2466 12.9766C14.1268 12.9766 14.8945 13.597 15.0822 14.4563C15.1519 14.7751 15.3549 15.0179 15.6562 15.1428C15.9576 15.2677 16.273 15.2395 16.5475 15.0632C17.2738 14.597 18.2578 14.681 18.8918 15.3148V15.3149C19.6223 16.0454 19.6223 17.2408 18.8918 17.9712L15.9031 20.9599Z" fill="#BFABF2"/>
<path id="Vector_12" fill-rule="evenodd" clip-rule="evenodd" d="M15.9027 20.9599L17.128 24.6196C20.322 28.0447 22.649 30.9464 24.1089 33.5097C28.7755 41.7035 22.1369 50.0257 13.2462 49.876C13.072 49.8789 12.8992 49.8774 12.7269 49.874C21.3537 49.6989 27.6456 41.5432 23.0705 33.5099C21.6106 30.9466 19.2835 28.0449 16.0896 24.6197L14.8643 20.96L17.8529 17.9714C18.5834 17.2409 18.5834 16.0455 17.8529 15.315V15.3149C17.6204 15.0824 17.3406 14.9239 17.0437 14.8395C17.6791 14.6585 18.3934 14.817 18.8913 15.3149V15.315C19.6217 16.0455 19.6217 17.2409 18.8913 17.9714L15.9027 20.9599ZM8.41211 14.8397C8.91931 14.6956 9.48061 14.7648 9.94541 15.0632L9.94921 15.0655C9.90217 15.0948 9.85186 15.1206 9.7985 15.1427C9.49707 15.2674 9.18171 15.2394 8.90707 15.0631C8.75098 14.9631 8.58413 14.8888 8.41211 14.8397ZM12.7266 13.0502C13.3761 13.2385 13.894 13.7716 14.0434 14.4563C14.113 14.7751 14.316 15.0179 14.6174 15.1428C14.9175 15.2671 15.2314 15.2396 15.505 15.0655C15.2867 14.9294 15.139 14.7186 15.0818 14.4563C14.8942 13.5969 14.1264 12.9766 13.2462 12.9766C13.0662 12.9766 12.8918 13.0023 12.7266 13.0502Z" fill="#F5B829"/>
<path id="Vector_13" fill-rule="evenodd" clip-rule="evenodd" d="M9.16968 24.6205H17.3243C18.3297 24.6205 19.1522 23.7979 19.1522 22.7927C19.1522 21.7873 18.3297 20.9648 17.3243 20.9648H9.16968C8.16424 20.9648 7.3418 21.7873 7.3418 22.7926C7.3418 23.7981 8.16424 24.6205 9.16968 24.6205Z" fill="#837683"/>
<path id="Vector_14" fill-rule="evenodd" clip-rule="evenodd" d="M16.2852 24.6205H17.3236C18.329 24.6205 19.1515 23.7978 19.1515 22.7927C19.1515 21.7873 18.3289 20.9648 17.3236 20.9648H16.2852C17.2906 20.9648 18.113 21.7873 18.113 22.7927C18.113 23.7978 17.2906 24.6205 16.2852 24.6205Z" fill="#685E68"/>
</g>
</g>
<path id="Vector_15" fill-rule="evenodd" clip-rule="evenodd" d="M17.2024 39.4871C17.3019 40.3086 17.0815 41.0605 16.5625 41.6605C15.9992 42.3113 15.0911 42.7586 14.0532 42.9159V43.5319C14.0532 43.9977 13.6755 44.3754 13.2099 44.3754C12.7436 44.3754 12.366 43.9977 12.366 43.5319V42.9029C10.7926 42.6248 9.58058 41.5908 9.21788 40.1374C9.10492 39.6852 9.38009 39.2273 9.83286 39.1144C10.2852 39.0029 10.743 39.2771 10.8559 39.7294C11.1395 40.8698 12.272 41.2788 13.2035 41.2892C13.212 41.2902 13.2204 41.2902 13.2289 41.2902C13.2592 41.2902 13.2891 41.2892 13.3184 41.2892C14.1464 41.2693 14.9181 40.9813 15.2863 40.5563C15.4928 40.317 15.5705 40.0413 15.5267 39.6896C15.4575 39.1114 15.1157 38.4038 13.0821 38.0704C10.242 37.6032 9.57963 36.1364 9.52395 34.9875C9.44685 33.3972 10.5519 32.0672 12.2731 31.6761C12.3039 31.6697 12.3343 31.6632 12.3661 31.6567V31.0148C12.3661 30.5486 12.7438 30.1709 13.21 30.1709C13.6757 30.1709 14.0533 30.5486 14.0533 31.0148V31.6492C15.2097 31.8711 16.3263 32.5776 16.899 33.9425C17.0791 34.3719 16.8781 34.866 16.4477 35.0467C16.0183 35.2268 15.5236 35.0243 15.3435 34.5954C14.9445 33.645 14.0881 33.2578 13.2591 33.2548C13.1063 33.2538 12.8183 33.2832 12.6466 33.322C11.9216 33.4857 11.1647 33.9888 11.209 34.9053C11.2244 35.2218 11.2658 36.0613 13.3551 36.4051C14.2318 36.5483 16.8987 36.9862 17.2024 39.4871ZM52.314 47.6458H22.3075C22.5354 47.4563 22.7558 47.2568 22.9698 47.0512H52.3141V47.6458H52.314ZM13.2297 49.057C13.2392 49.057 13.4058 49.0596 13.4794 49.0596C17.7079 49.0596 21.5362 47.014 23.5076 43.6857C25.287 40.6848 25.2392 37.2276 23.3733 33.9521C22.0393 31.6105 19.933 28.9146 16.7585 25.4893H9.73014C6.55563 28.9146 4.44837 31.6105 3.11535 33.9521C1.24939 37.2276 1.20214 40.6848 2.98003 43.6857C4.98721 47.0722 8.9156 49.1266 13.2297 49.057ZM9.16693 21.8325H17.3218C17.8641 21.8325 18.306 22.2743 18.306 22.8177C18.306 23.3596 17.8641 23.8019 17.3218 23.8019H9.16693C8.62504 23.8019 8.1827 23.3596 8.1827 22.8167C8.1827 22.2743 8.62504 21.8325 9.16693 21.8325ZM7.89509 16.6685C7.89509 16.3904 8.00161 16.1306 8.19557 15.9366C8.53739 15.5953 9.08024 15.537 9.48724 15.7987C9.99381 16.1231 10.6024 16.1773 11.1571 15.947C11.7129 15.7171 12.1051 15.2489 12.2329 14.6612C12.3364 14.189 12.7613 13.8452 13.2445 13.8452C13.7271 13.8452 14.1525 14.189 14.2556 14.6612C14.3834 15.2489 14.7755 15.7171 15.3304 15.947C15.8862 16.1773 16.4947 16.1231 17.0013 15.7987C17.4083 15.5369 17.9511 15.5952 18.2929 15.9366C18.6959 16.3406 18.6959 16.9964 18.2929 17.3994L15.5468 20.1451H10.9407L8.19567 17.3995C8.00161 17.2055 7.89509 16.9462 7.89509 16.6685ZM22.5627 23.673H26.9186V45.3635H24.4262C24.6138 45.0988 24.7929 44.828 24.96 44.5464C27.03 41.0519 26.9866 36.8872 24.8396 33.1175C24.235 32.0551 23.4832 30.9292 22.5626 29.7086V23.673H22.5627ZM33.7831 30.0157H38.139V45.3635H33.7831V30.0157ZM45.0051 36.0906H49.3609V45.3635H45.0051V36.0906ZM53.1579 45.3635H51.0487V35.2472C51.0487 34.781 50.671 34.4033 50.2048 34.4033H44.1613C43.6955 34.4033 43.3178 34.781 43.3178 35.2472V45.3635H39.8268V29.1723C39.8268 28.706 39.4491 28.3284 38.9829 28.3284H32.9398C32.4746 28.3284 32.0959 28.7061 32.0959 29.1723V45.3635H28.6059V22.829C28.6059 22.3628 28.2282 21.9852 27.762 21.9852H21.7189C21.2526 21.9852 20.875 22.3629 20.875 22.829V27.5939C20.2147 26.8062 19.4913 25.9782 18.6971 25.106C19.4733 24.6378 19.9933 23.7869 19.9933 22.8177C19.9933 21.5339 19.0832 20.4592 17.8756 20.2038L19.4858 18.5936C20.5471 17.5314 20.5471 15.8053 19.4858 14.7439C18.5876 13.8453 17.1596 13.691 16.0888 14.3782C16.0466 14.4055 16.0227 14.4075 15.9768 14.3886C15.9306 14.3692 15.9146 14.3503 15.9042 14.302C15.633 13.0595 14.5144 12.1579 13.2447 12.1579C11.9744 12.1579 10.8558 13.0595 10.5846 14.302C10.5742 14.3503 10.5583 14.3692 10.512 14.3886C10.4651 14.4075 10.4413 14.4055 10.399 14.3782C9.32925 13.691 7.9012 13.8452 7.00303 14.7439C6.49003 15.2564 6.2079 15.94 6.2079 16.6685C6.2079 17.3965 6.49003 18.0806 7.00303 18.5936L8.61322 20.2038C7.40455 20.4591 6.49552 21.5339 6.49552 22.8166C6.49552 23.7869 7.01548 24.6377 7.79067 25.106C4.91116 28.2746 2.94523 30.8406 1.64807 33.1175C-0.498012 36.8872 -0.541254 41.0519 1.5291 44.5464C3.80501 48.3862 8.18618 50.7467 13.0093 50.7467H13.4794C15.6966 50.7467 17.8209 50.2457 19.6907 49.3337H53.1579C53.6242 49.3337 54.0018 48.956 54.0018 48.4898V46.2074C54.0018 45.7421 53.6241 45.3635 53.1579 45.3635ZM27.6072 14.6141C25.4293 13.3129 23.5256 11.8521 21.8716 10.2065C23.9684 13.4423 26.9723 16.3133 30.6264 18.4958C34.6061 20.8717 38.9734 22.1962 43.2565 22.3271C43.4854 22.3346 43.7014 22.4346 43.8556 22.6032C44.0094 22.7734 44.0874 22.9989 44.0726 23.2277L43.9845 24.5443L49.0732 20.8358L44.4925 16.9781L44.3891 18.5231C44.3587 18.9744 43.9726 19.3202 43.5242 19.3098C38.6351 19.1769 31.9416 17.2014 27.6072 14.6141ZM29.7617 19.9436C23.4748 16.1899 18.9871 10.4871 17.4516 4.29924C17.3491 3.89024 17.5666 3.46826 17.9576 3.31206C18.3493 3.15586 18.796 3.31301 19.004 3.68025C21.2103 7.57531 24.3077 10.6782 28.473 13.1651C32.3521 15.4823 38.2196 17.2805 42.7609 17.5841L42.9212 15.2027C42.942 14.8852 43.1405 14.6066 43.4327 14.4832C43.7258 14.3589 44.0636 14.4096 44.306 14.6141L50.983 20.2387C51.1816 20.4064 51.291 20.6558 51.2825 20.9139C51.273 21.1732 51.1457 21.4136 50.9357 21.5668L43.5178 26.972C43.3704 27.0794 43.1963 27.1332 43.0202 27.1332C42.8809 27.1332 42.7406 27.0994 42.6132 27.0292C42.3261 26.871 42.1575 26.5611 42.1789 26.2336L42.3316 23.9725C38.0454 23.6909 33.7179 22.3071 29.7617 19.9436Z" fill="black"/>
</g>
</g>
<defs>
<clipPath id="clip0_1217_13752">
<rect width="54" height="54" fill="white"/>
</clipPath>
</defs>
</svg>
