<svg width="44" height="44" viewBox="0 0 44 44" fill="none" xmlns="http://www.w3.org/2000/svg">
<path fill-rule="evenodd" clip-rule="evenodd" d="M25.2331 6.09966C26.927 6.47691 28.5115 7.14404 29.9317 8.04674C33.2474 6.2489 32.2745 6.87054 35.2308 9.56906C35.5627 9.90117 35.6399 10.3882 35.4266 10.8065C35.2696 11.087 34.6448 12.3609 34.5034 12.6184C35.4061 14.0386 36.0732 15.6233 36.4505 17.3171C40.0586 18.3914 38.94 18.1273 39.1201 22.1402C39.12 22.6098 38.8302 23.0086 38.3836 23.1538C38.075 23.2409 36.7319 23.7 36.4505 23.7819C36.0731 25.4758 35.4062 27.0604 34.5034 28.4806C34.6309 28.7335 35.2846 30.0119 35.4266 30.2925C35.6399 30.7109 35.5627 31.1979 35.2307 31.53C32.2705 34.2326 33.2476 34.8483 29.9317 33.0523C28.5113 33.955 26.9269 34.6221 25.233 34.9994C24.1587 38.6075 24.4228 37.4888 20.4099 37.669C19.9403 37.6689 19.5415 37.3791 19.3963 36.9325C19.3093 36.6239 18.85 35.2807 18.7682 34.9994C17.0744 34.622 15.4897 33.9551 14.0696 33.0523C10.7539 34.85 11.7268 34.2285 8.77056 31.53C8.43862 31.1979 8.36145 30.7109 8.57467 30.2925C8.73167 30.0121 9.35647 28.7381 9.49788 28.4806C8.59518 27.0603 7.92805 25.4758 7.55079 23.7819C7.28257 23.6935 5.91593 23.2516 5.6177 23.1538C5.1711 23.0087 4.88131 22.6098 4.88131 22.1402C5.06119 18.1217 3.94394 18.3928 7.55079 17.3172C7.92822 15.6234 8.59509 14.0387 9.49788 12.6185C7.70013 9.30277 8.32167 10.2758 11.0202 7.31951C11.3523 6.98758 11.8393 6.9104 12.2577 7.12362C12.5382 7.28062 13.8122 7.90542 14.0697 8.04683C15.49 7.14413 17.0744 6.477 18.7683 6.09974C18.8567 5.83152 19.2986 4.46479 19.3964 4.16665C19.5416 3.72005 19.9404 3.43026 20.41 3.43026C24.4285 3.60996 24.1574 2.49271 25.2331 6.09966ZM22.0007 9.02566C6.85251 9.28438 6.8548 31.817 22.0012 32.0735C37.1488 31.8148 37.1464 9.28218 22.0007 9.02566Z" fill="#A082EC"/>
<path fill-rule="evenodd" clip-rule="evenodd" d="M31.3222 33.1767L35.2704 38.2258C28.6564 38.2258 15.3468 38.2258 8.73438 38.2258L12.6826 33.1767C13.2478 32.4538 14.0295 32.0703 14.9378 32.0703H29.067C29.9753 32.0703 30.757 32.4538 31.3222 33.1767Z" fill="#FFBF31"/>
<path fill-rule="evenodd" clip-rule="evenodd" d="M5.81445 37.1562H38.1847C40.1351 37.2465 39.9142 39.1587 39.8907 40.5683H4.10848C4.08674 39.1568 3.86093 37.2486 5.81445 37.1562Z" fill="#19CFBA"/>
<path fill-rule="evenodd" clip-rule="evenodd" d="M21.5742 21.9823L23.715 19.1406L39.2405 30.8364C39.5455 31.0662 39.607 31.5037 39.3773 31.8087L38.072 33.5414C37.8423 33.8464 37.4048 33.9079 37.0998 33.6782L21.5742 21.9823Z" fill="#FFBF31"/>
<path fill-rule="evenodd" clip-rule="evenodd" d="M16.7422 23.2422L23.6122 14.1241L28.0754 17.4869L21.2055 26.605L16.7422 23.2422Z" fill="#19CFBA"/>
<path fill-rule="evenodd" clip-rule="evenodd" d="M15.3219 22.4618C15.6588 22.079 16.1499 21.0059 16.8042 21.5193C16.8042 21.5192 22.8261 26.0557 22.8261 26.0557C23.0971 26.2598 23.1518 26.6485 22.9476 26.9196C22.3447 27.8232 21.5613 28.7977 20.4091 28.0107C20.4092 28.0108 15.5919 24.3817 15.5919 24.3817C14.9889 23.9274 14.8675 23.0649 15.3219 22.4618Z" fill="#A082EC"/>
<path fill-rule="evenodd" clip-rule="evenodd" d="M22.4576 12.9904C22.1826 13.4199 21.2868 14.188 21.9607 14.6753C21.9606 14.6753 27.9825 19.2118 27.9825 19.2118C28.2535 19.4159 28.6422 19.3612 28.8464 19.0902C29.5486 18.2614 30.2691 17.2397 29.1947 16.3492C29.1948 16.3492 24.3775 12.7203 24.3775 12.7203C23.7744 12.266 22.912 12.3873 22.4576 12.9904Z" fill="#A082EC"/>
<path fill-rule="evenodd" clip-rule="evenodd" d="M39.3116 39.989H4.68991C4.67011 39.0764 4.54146 37.7776 5.81561 37.7376C5.81552 37.7376 38.1857 37.7376 38.1857 37.7376C39.4516 37.7793 39.3381 39.0693 39.3116 39.989ZM13.1382 33.5354C13.5963 32.9494 14.2014 32.652 14.9361 32.652C15.2618 32.6537 21.7673 32.6509 22.1039 32.652H29.0652C29.7999 32.652 30.4048 32.9494 30.8632 33.5354L33.2414 36.5767H10.7598L13.1382 33.5354ZM11.4305 33.3689C11.5042 33.4424 11.5931 33.4894 11.6875 33.5061C13.1356 31.3134 14.4565 31.4461 16.8295 31.4916C5.37543 26.3518 9.24567 8.25049 22.0014 8.44514C30.5686 8.26184 36.6866 17.7238 33.0665 25.4588L34.7971 26.7625C35.2785 25.773 35.6445 24.7308 35.8843 23.6552C35.9289 23.455 36.0762 23.293 36.2713 23.2298C39.4677 22.2115 38.3452 22.9367 38.5401 18.9582C38.54 18.7409 38.4112 18.564 38.2044 18.4966L36.2714 17.8687C36.0762 17.8054 35.9289 17.6434 35.8842 17.4433C35.5267 15.8379 34.8974 14.3197 34.0138 12.9294C33.5193 12.2546 35.4391 10.5893 34.8204 9.97934L32.5711 7.72979C32.4171 7.5757 32.2011 7.54174 32.0072 7.64038L30.1952 8.56342C30.0123 8.65696 29.7938 8.64631 29.6205 8.5364C28.2301 7.65253 26.7116 7.02324 25.107 6.6657C24.2855 6.54487 24.4535 3.99472 23.5913 4.01021H20.41C20.1925 4.01021 20.0156 4.13869 19.9483 4.34531C19.733 4.73788 19.462 6.62064 18.8944 6.66561C17.29 7.02306 15.7714 7.65235 14.3808 8.53623C14.2076 8.64605 13.9892 8.65679 13.8061 8.56324C10.823 7.01691 12.1214 7.31681 9.1809 9.97916C9.02717 10.1328 8.99302 10.3488 9.09176 10.5429L10.0151 12.3549C10.1082 12.5373 10.0978 12.7561 9.9876 12.9293C9.10426 14.3191 8.47506 15.8374 8.11725 17.4432C7.99739 18.2633 5.44566 18.0972 5.46158 18.9582V22.1397C5.46158 22.3575 5.59015 22.5344 5.79704 22.6014C6.19357 22.8159 8.0714 23.0896 8.11725 23.6552C8.4747 25.2597 9.10399 26.7784 9.9876 28.1688C10.0978 28.3424 10.1082 28.5607 10.0151 28.7436C8.46687 31.7305 8.7695 30.4271 11.4305 33.3689ZM38.9333 31.3743C38.96 31.2699 25.8426 21.5129 25.8067 21.4429L24.3642 23.3578C24.5361 23.3447 37.4175 33.4637 37.6067 33.1916C37.607 33.1915 38.9123 31.4586 38.9123 31.4586C38.9352 31.4284 38.9363 31.3962 38.9333 31.3743ZM22.3103 14.2129C22.2198 14.2022 22.929 13.36 22.9217 13.3407C23.1696 12.9982 23.6948 12.9221 24.029 13.1853C24.1985 13.4122 29.4706 17.0106 29.1523 17.3353C29.2745 17.7938 28.5911 18.3994 28.3836 18.7424C28.3269 18.8293 22.36 14.2071 22.3103 14.2129ZM22.4788 26.5196C22.4939 26.5299 22.4974 26.5562 22.4861 26.5709C22.206 26.8628 21.824 27.6883 21.346 27.6977C21.1418 28.1072 16.1896 24.004 15.9431 23.9184C15.172 23.3407 16.0234 22.5017 16.4059 21.9904C16.4613 21.9018 22.4298 26.5262 22.4788 26.5196ZM21.9336 24.6555L18.3989 21.993L22.8557 16.0766L26.3902 18.7395L21.9336 24.6555ZM21.8995 31.4916C7.58916 31.1131 7.68112 9.85341 22.0012 9.60543C29.6395 9.44931 35.1594 17.7642 32.1127 24.7407L26.5048 20.5162L27.3172 19.4378C28.4972 20.484 29.2327 19.6691 29.9288 18.6194C30.5757 17.7962 30.3937 16.4995 29.5445 15.8867L24.7272 12.258C23.9044 11.6106 22.6066 11.7932 21.9946 12.6425C21.1816 13.6123 20.5862 14.5108 21.9286 15.3784L17.4718 21.2944C16.273 20.2477 15.5676 21.0592 14.8601 22.1127C14.2134 22.9354 14.3951 24.2331 15.2445 24.8454L20.0618 28.4745C20.8885 29.1225 22.1813 28.938 22.7944 28.09C23.6051 27.1345 24.1978 26.2036 22.8604 25.3541L23.6659 24.2849L29.4043 28.6076C27.3594 30.4957 24.702 31.5187 21.8995 31.4916ZM32.571 33.3689L33.926 32.0139L30.3453 29.3166C29.4021 30.2163 28.3397 30.9462 27.1932 31.4917C29.5641 31.4437 30.8722 31.3248 32.3139 33.5067C32.4084 33.4894 32.4974 33.4424 32.571 33.3689ZM38.1857 36.5767H34.715L33.0515 34.4496C33.3104 34.3395 34.6302 32.9265 34.8619 32.7191C37.6699 34.8792 37.6858 35.2266 39.8393 32.1567C40.2617 31.6198 40.1426 30.7718 39.5881 30.3722L35.7418 27.4743C36.2626 26.4424 36.6651 25.355 36.941 24.2323C37.9908 23.871 39.7757 23.6136 39.7004 22.1396C39.7005 22.1397 39.7005 18.9582 39.7005 18.9582C39.7005 18.2322 39.2542 17.6177 38.5631 17.3929L36.9411 16.866C36.5706 15.3566 35.9757 13.9211 35.1693 12.5899C35.6566 11.5918 36.7366 10.1479 35.6411 9.15803C35.6412 9.15803 33.3917 6.90893 33.3917 6.90893C32.8779 6.39501 32.1275 6.27638 31.4805 6.60594L29.9599 7.38096C28.6286 6.57435 27.1932 5.97947 25.6841 5.60899L25.1571 3.98689C24.9324 3.29565 24.318 2.84931 23.5915 2.84931H20.4102C18.9229 2.78604 18.6857 4.54991 18.3177 5.60899C16.8089 5.97947 15.3733 6.57435 14.0418 7.38096L12.5215 6.60594C11.8741 6.27638 11.1239 6.3951 10.61 6.90893L8.36057 9.15847C7.26585 10.1438 8.34578 11.5971 8.8326 12.5899C8.02643 13.9206 7.43146 15.356 7.06072 16.866L5.43853 17.3929C4.74764 17.6172 4.30122 18.2322 4.30122 18.9582V22.1396C4.23794 23.6271 6.00164 23.864 7.06046 24.2323C7.43102 25.7414 8.0259 27.1768 8.83242 28.508C8.34499 29.5056 7.26532 30.9508 8.36048 31.9398C8.55769 32.1111 10.7627 34.4164 10.9501 34.4496L9.28659 36.5767C5.75586 36.6603 3.12404 35.7104 3.52954 40.569C3.52946 40.8897 3.78932 41.1494 4.10964 41.1494H39.8918C40.2124 41.1494 40.4722 40.8897 40.4722 40.5689V38.863C40.4721 37.6026 39.4465 36.5767 38.1857 36.5767Z" fill="#1E2F3F"/>
</svg>
