<svg width="54" height="54" viewBox="0 0 54 54" fill="none" xmlns="http://www.w3.org/2000/svg">
<g id="customer-engagement 1" clip-path="url(#clip0_1217_13702)">
<g id="Group">
<path id="Vector" fill-rule="evenodd" clip-rule="evenodd" d="M27.0002 2.47266C33.773 2.47266 39.9046 5.2179 44.3429 9.65634C48.7813 14.0948 51.5266 20.2264 51.5266 26.9991C51.5266 33.7719 48.7814 39.9034 44.3429 44.342C39.9045 48.7804 33.7729 51.5256 27.0002 51.5256C20.2275 51.5256 14.0958 48.7804 9.65732 44.342C5.21888 39.9035 2.47363 33.7719 2.47363 26.9991C2.47363 20.2263 5.21888 14.0948 9.65732 9.65634C14.0958 5.2179 20.2274 2.47266 27.0002 2.47266ZM43.1499 10.8495C39.0169 6.71651 33.3071 4.16016 27.0002 4.16016C20.6933 4.16016 14.9835 6.71651 10.8505 10.8495C6.71748 14.9825 4.16113 20.6924 4.16113 26.9992C4.16113 33.3061 6.71748 39.0159 10.8505 43.1489C14.9835 47.2819 20.6933 49.8382 27.0002 49.8382C33.3071 49.8382 39.0169 47.2819 43.1499 43.1489C47.2829 39.0159 49.8392 33.3061 49.8392 26.9992C49.8392 20.6923 47.2828 14.9824 43.1499 10.8495Z" fill="#B4D2D7"/>
<g id="Group_2">
<path id="Vector_2" d="M9.00545 17.05C13.4548 17.05 17.0617 13.4431 17.0617 8.99373C17.0617 4.5444 13.4548 0.9375 9.00545 0.9375C4.55612 0.9375 0.949219 4.5444 0.949219 8.99373C0.949219 13.4431 4.55612 17.05 9.00545 17.05Z" fill="#465759"/>
<path id="Vector_3" fill-rule="evenodd" clip-rule="evenodd" d="M9.00571 17.05C6.47499 17.05 4.21722 15.8827 2.74023 14.0577C4.12398 15.1774 5.88552 15.8486 7.80421 15.8486C12.2535 15.8486 15.8604 12.2417 15.8604 7.79239C15.8604 5.8738 15.1893 4.11216 14.0696 2.72852C15.8946 4.2055 17.0618 6.46316 17.0618 8.99389C17.0619 13.4431 13.4551 17.05 9.00571 17.05Z" fill="#3A484A"/>
<path id="Vector_4" d="M9.00542 11.6944C10.7925 11.6944 12.2413 10.2457 12.2413 8.45854C12.2413 6.67141 10.7925 5.22266 9.00542 5.22266C7.21829 5.22266 5.76953 6.67141 5.76953 8.45854C5.76953 10.2457 7.21829 11.6944 9.00542 11.6944Z" fill="#FFD6BD"/>
<path id="Vector_5" fill-rule="evenodd" clip-rule="evenodd" d="M6.55176 10.5663C7.14512 11.256 8.02431 11.6927 9.00549 11.6927C10.7926 11.6927 12.2414 10.244 12.2414 8.45683C12.2414 7.30912 11.6438 6.30105 10.7428 5.72656C11.2301 6.29304 11.5249 7.03005 11.5249 7.83594C11.5249 9.62311 10.0761 11.0718 8.28904 11.0718C7.64969 11.0718 7.05368 10.8863 6.55176 10.5663Z" fill="#F9C6AA"/>
<path id="Vector_6" fill-rule="evenodd" clip-rule="evenodd" d="M14.2477 15.1104C12.8386 16.3192 11.0072 17.0499 9.00513 17.0499C7.00301 17.0499 5.17176 16.3193 3.7627 15.1105C4.78532 13.2636 6.75537 12.0059 9.00523 12.0059C11.255 12.0059 13.2251 13.2636 14.2477 15.1104Z" fill="#FFBF31"/>
<path id="Vector_7" fill-rule="evenodd" clip-rule="evenodd" d="M14.2477 15.1104C12.8386 16.3192 11.0072 17.0499 9.00513 17.0499C7.00301 17.0499 5.17176 16.3193 3.7627 15.1106C3.81163 15.0222 3.86279 14.9352 3.91605 14.8495C5.06871 15.486 6.39382 15.8485 7.80373 15.8485C9.89022 15.8485 11.7915 15.0553 13.2224 13.7539C13.6247 14.1542 13.9709 14.6106 14.2477 15.1104Z" fill="#FFBF31"/>
<path id="Vector_8" fill-rule="evenodd" clip-rule="evenodd" d="M14.2484 15.1104C13.9366 15.3779 13.6042 15.6217 13.2538 15.8396C12.4617 13.8019 10.5825 12.2958 8.33789 12.0436C8.55737 12.0189 8.78023 12.0059 9.00604 12.0059C11.2557 12.0059 13.2258 13.2636 14.2484 15.1104Z" fill="#FFBF31"/>
<path id="Vector_9" fill-rule="evenodd" clip-rule="evenodd" d="M14.2474 15.1104C13.9357 15.3779 13.6032 15.6218 13.2529 15.8397C13.0489 15.3147 12.7725 14.8254 12.4365 14.3833C12.7115 14.1897 12.974 13.9795 13.2222 13.7539C13.6244 14.1542 13.9707 14.6106 14.2474 15.1104Z" fill="#FFBF31"/>
</g>
<g id="Group_3">
<path id="Vector_10" d="M45.0054 17.05C49.4548 17.05 53.0617 13.4431 53.0617 8.99373C53.0617 4.5444 49.4548 0.9375 45.0054 0.9375C40.5561 0.9375 36.9492 4.5444 36.9492 8.99373C36.9492 13.4431 40.5561 17.05 45.0054 17.05Z" fill="#465759"/>
<path id="Vector_11" fill-rule="evenodd" clip-rule="evenodd" d="M45.0057 17.05C42.475 17.05 40.2172 15.8827 38.7402 14.0577C40.124 15.1774 41.8855 15.8486 43.8042 15.8486C48.2535 15.8486 51.8604 12.2417 51.8604 7.79239C51.8604 5.8738 51.1893 4.11216 50.0696 2.72852C51.8946 4.2055 53.0618 6.46316 53.0618 8.99389C53.0619 13.4431 49.4551 17.05 45.0057 17.05Z" fill="#3A484A"/>
<path id="Vector_12" d="M45.0054 11.6944C46.7925 11.6944 48.2413 10.2457 48.2413 8.45854C48.2413 6.67141 46.7925 5.22266 45.0054 5.22266C43.2183 5.22266 41.7695 6.67141 41.7695 8.45854C41.7695 10.2457 43.2183 11.6944 45.0054 11.6944Z" fill="#FFD6BD"/>
<path id="Vector_13" fill-rule="evenodd" clip-rule="evenodd" d="M42.5518 10.5663C43.1451 11.256 44.0243 11.6927 45.0055 11.6927C46.7926 11.6927 48.2414 10.244 48.2414 8.45683C48.2414 7.30912 47.6438 6.30105 46.7428 5.72656C47.2301 6.29304 47.5249 7.03005 47.5249 7.83594C47.5249 9.62311 46.0761 11.0718 44.289 11.0718C43.6497 11.0718 43.0537 10.8863 42.5518 10.5663Z" fill="#F9C6AA"/>
<path id="Vector_14" fill-rule="evenodd" clip-rule="evenodd" d="M50.2477 15.1104C48.8386 16.3192 47.0072 17.0499 45.0051 17.0499C43.003 17.0499 41.1718 16.3193 39.7627 15.1105C40.7853 13.2636 42.7554 12.0059 45.0052 12.0059C47.255 12.0059 49.2251 13.2636 50.2477 15.1104Z" fill="#FFBF31"/>
<path id="Vector_15" fill-rule="evenodd" clip-rule="evenodd" d="M50.2477 15.1104C48.8386 16.3192 47.0072 17.0499 45.0051 17.0499C43.003 17.0499 41.1718 16.3193 39.7627 15.1106C39.8116 15.0222 39.8628 14.9352 39.916 14.8495C41.0687 15.486 42.3938 15.8485 43.8037 15.8485C45.8902 15.8485 47.7915 15.0553 49.2224 13.7539C49.6247 14.1542 49.9709 14.6106 50.2477 15.1104Z" fill="#FFBF31"/>
<path id="Vector_16" fill-rule="evenodd" clip-rule="evenodd" d="M50.2484 15.1104C49.9366 15.3779 49.6042 15.6217 49.2538 15.8396C48.4617 13.8019 46.5825 12.2958 44.3379 12.0436C44.5574 12.0189 44.7802 12.0059 45.006 12.0059C47.2557 12.0059 49.2258 13.2636 50.2484 15.1104Z" fill="#FFBF31"/>
<path id="Vector_17" fill-rule="evenodd" clip-rule="evenodd" d="M50.2474 15.1104C49.9357 15.3779 49.6032 15.6218 49.2529 15.8397C49.0489 15.3147 48.7725 14.8254 48.4365 14.3833C48.7115 14.1897 48.974 13.9795 49.2222 13.7539C49.6244 14.1542 49.9707 14.6106 50.2474 15.1104Z" fill="#FFBF31"/>
</g>
<g id="Group_4">
<path id="Vector_18" d="M45.0054 53.05C49.4548 53.05 53.0617 49.4431 53.0617 44.9937C53.0617 40.5444 49.4548 36.9375 45.0054 36.9375C40.5561 36.9375 36.9492 40.5444 36.9492 44.9937C36.9492 49.4431 40.5561 53.05 45.0054 53.05Z" fill="#465759"/>
<path id="Vector_19" fill-rule="evenodd" clip-rule="evenodd" d="M45.0057 53.05C42.475 53.05 40.2172 51.8827 38.7402 50.0577C40.124 51.1774 41.8855 51.8486 43.8042 51.8486C48.2535 51.8486 51.8604 48.2417 51.8604 43.7924C51.8604 41.8738 51.1893 40.1122 50.0696 38.7285C51.8946 40.2055 53.0618 42.4632 53.0618 44.9939C53.0619 49.4431 49.4551 53.05 45.0057 53.05Z" fill="#3A484A"/>
<path id="Vector_20" d="M45.0054 47.6944C46.7925 47.6944 48.2413 46.2457 48.2413 44.4585C48.2413 42.6714 46.7925 41.2227 45.0054 41.2227C43.2183 41.2227 41.7695 42.6714 41.7695 44.4585C41.7695 46.2457 43.2183 47.6944 45.0054 47.6944Z" fill="#FFD6BD"/>
<path id="Vector_21" fill-rule="evenodd" clip-rule="evenodd" d="M42.5518 46.5663C43.1451 47.256 44.0243 47.6927 45.0055 47.6927C46.7926 47.6927 48.2414 46.244 48.2414 44.4568C48.2414 43.3091 47.6438 42.3011 46.7428 41.7266C47.2301 42.293 47.5249 43.0301 47.5249 43.8359C47.5249 45.6231 46.0761 47.0718 44.289 47.0718C43.6497 47.0718 43.0537 46.8863 42.5518 46.5663Z" fill="#F9C6AA"/>
<path id="Vector_22" fill-rule="evenodd" clip-rule="evenodd" d="M50.2477 51.1104C48.8386 52.3192 47.0072 53.0499 45.0051 53.0499C43.003 53.0499 41.1718 52.3193 39.7627 51.1105C40.7853 49.2636 42.7554 48.0059 45.0052 48.0059C47.255 48.0059 49.2251 49.2636 50.2477 51.1104Z" fill="#FFBF31"/>
<path id="Vector_23" fill-rule="evenodd" clip-rule="evenodd" d="M50.2477 51.1104C48.8386 52.3192 47.0072 53.0499 45.0051 53.0499C43.003 53.0499 41.1718 52.3193 39.7627 51.1106C39.8116 51.0222 39.8628 50.9352 39.916 50.8495C41.0687 51.486 42.3938 51.8485 43.8037 51.8485C45.8902 51.8485 47.7915 51.0553 49.2224 49.7539C49.6247 50.1542 49.9709 50.6106 50.2477 51.1104Z" fill="#FFBF31"/>
<path id="Vector_24" fill-rule="evenodd" clip-rule="evenodd" d="M50.2484 51.1104C49.9366 51.3779 49.6042 51.6217 49.2538 51.8396C48.4617 49.8019 46.5825 48.2958 44.3379 48.0436C44.5574 48.0189 44.7802 48.0059 45.006 48.0059C47.2557 48.0059 49.2258 49.2636 50.2484 51.1104Z" fill="#FFBF31"/>
<path id="Vector_25" fill-rule="evenodd" clip-rule="evenodd" d="M50.2474 51.1104C49.9357 51.3779 49.6032 51.6218 49.2529 51.8397C49.0489 51.3147 48.7725 50.8254 48.4365 50.3833C48.7115 50.1897 48.974 49.9795 49.2222 49.7539C49.6244 50.1542 49.9707 50.6106 50.2474 51.1104Z" fill="#FFBF31"/>
</g>
<g id="Group_5">
<path id="Vector_26" d="M9.00545 53.05C13.4548 53.05 17.0617 49.4431 17.0617 44.9937C17.0617 40.5444 13.4548 36.9375 9.00545 36.9375C4.55612 36.9375 0.949219 40.5444 0.949219 44.9937C0.949219 49.4431 4.55612 53.05 9.00545 53.05Z" fill="#465759"/>
<path id="Vector_27" fill-rule="evenodd" clip-rule="evenodd" d="M9.00571 53.05C6.47499 53.05 4.21722 51.8827 2.74023 50.0577C4.12398 51.1774 5.88552 51.8486 7.80421 51.8486C12.2535 51.8486 15.8604 48.2417 15.8604 43.7924C15.8604 41.8738 15.1893 40.1122 14.0696 38.7285C15.8946 40.2055 17.0618 42.4632 17.0618 44.9939C17.0619 49.4431 13.4551 53.05 9.00571 53.05Z" fill="#3A484A"/>
<path id="Vector_28" d="M9.00542 47.6944C10.7925 47.6944 12.2413 46.2457 12.2413 44.4585C12.2413 42.6714 10.7925 41.2227 9.00542 41.2227C7.21829 41.2227 5.76953 42.6714 5.76953 44.4585C5.76953 46.2457 7.21829 47.6944 9.00542 47.6944Z" fill="#FFD6BD"/>
<path id="Vector_29" fill-rule="evenodd" clip-rule="evenodd" d="M6.55176 46.5663C7.14512 47.256 8.02431 47.6927 9.00549 47.6927C10.7926 47.6927 12.2414 46.244 12.2414 44.4568C12.2414 43.3091 11.6438 42.3011 10.7428 41.7266C11.2301 42.293 11.5249 43.0301 11.5249 43.8359C11.5249 45.6231 10.0761 47.0718 8.28904 47.0718C7.64969 47.0718 7.05368 46.8863 6.55176 46.5663Z" fill="#F9C6AA"/>
<path id="Vector_30" fill-rule="evenodd" clip-rule="evenodd" d="M14.2477 51.1104C12.8386 52.3192 11.0072 53.0499 9.00513 53.0499C7.00301 53.0499 5.17176 52.3193 3.7627 51.1105C4.78532 49.2636 6.75537 48.0059 9.00523 48.0059C11.255 48.0059 13.2251 49.2636 14.2477 51.1104Z" fill="#FFBF31"/>
<path id="Vector_31" fill-rule="evenodd" clip-rule="evenodd" d="M14.2477 51.1104C12.8386 52.3192 11.0072 53.0499 9.00513 53.0499C7.00301 53.0499 5.17176 52.3193 3.7627 51.1106C3.81163 51.0222 3.86279 50.9352 3.91605 50.8495C5.06871 51.486 6.39382 51.8485 7.80373 51.8485C9.89022 51.8485 11.7915 51.0553 13.2224 49.7539C13.6247 50.1542 13.9709 50.6106 14.2477 51.1104Z" fill="#FFBF31"/>
<path id="Vector_32" fill-rule="evenodd" clip-rule="evenodd" d="M14.2484 51.1104C13.9366 51.3779 13.6042 51.6217 13.2538 51.8396C12.4617 49.8019 10.5825 48.2958 8.33789 48.0436C8.55737 48.0189 8.78023 48.0059 9.00604 48.0059C11.2557 48.0059 13.2258 49.2636 14.2484 51.1104Z" fill="#FFBF31"/>
<path id="Vector_33" fill-rule="evenodd" clip-rule="evenodd" d="M14.2474 51.1104C13.9357 51.3779 13.6032 51.6218 13.2529 51.8397C13.0489 51.3147 12.7725 50.8254 12.4365 50.3833C12.7115 50.1897 12.974 49.9795 13.2222 49.7539C13.6244 50.1542 13.9707 50.6106 14.2474 51.1104Z" fill="#FFBF31"/>
</g>
<g id="Group_6">
<path id="Vector_34" fill-rule="evenodd" clip-rule="evenodd" d="M37.9419 33.4692C39.9506 32.7737 40.871 29.9413 39.6547 28.1979C39.143 27.4644 39.1428 26.5355 39.6546 25.802C40.8711 24.0586 39.9507 21.2262 37.9419 20.5306C37.0968 20.238 36.5506 19.4866 36.5335 18.5924C36.4929 16.467 34.0835 14.7163 32.0494 15.3344C31.1938 15.5944 30.3103 15.3075 29.7709 14.5941C28.4888 12.8983 25.5105 12.8983 24.2282 14.594C23.6888 15.3074 22.8053 15.5945 21.9496 15.3345C19.9157 14.7163 17.5061 16.4668 17.4654 18.5923C17.4483 19.4865 16.9023 20.238 16.0572 20.5306C14.0483 21.2259 13.1279 24.0585 14.3443 25.8019C14.856 26.5354 14.8561 27.4643 14.3444 28.1978C13.1279 29.9411 14.0482 32.7736 16.057 33.4692C16.9021 33.7618 17.4482 34.5132 17.4653 35.4074C17.5059 37.5328 19.9154 39.2835 21.9493 38.6654C22.805 38.4053 23.6885 38.6923 24.2279 39.4057C25.5101 41.1014 28.4884 41.1014 29.7706 39.4058C30.31 38.6924 31.1935 38.4053 32.0491 38.6654C34.0831 39.2836 36.4926 37.533 36.5332 35.4076C36.5506 34.5133 37.0966 33.7618 37.9419 33.4692Z" fill="#A082EC"/>
<path id="Vector_35" fill-rule="evenodd" clip-rule="evenodd" d="M37.9421 33.4684C39.9508 32.7729 40.8711 29.9406 39.6549 28.1971C39.1431 27.4636 39.143 26.5347 39.6548 25.8012C40.766 24.2085 40.0938 21.7072 38.4378 20.7563C39.0214 21.8901 39.0618 23.3298 38.3314 24.3768C37.8195 25.1102 37.8196 26.0392 38.3314 26.7726C39.5477 28.5161 38.6274 31.3485 36.6185 32.0439C35.7733 32.3365 35.2273 33.088 35.2102 33.9822C35.1695 36.1076 32.7601 37.8582 30.7261 37.2401C29.8704 36.98 28.9869 37.2671 28.4476 37.9804C27.1654 39.6761 24.187 39.6761 22.9049 37.9803C22.3655 37.2669 21.4819 36.9801 20.6262 37.2401C19.6822 37.5269 18.6573 37.3033 17.8259 36.769C18.5782 38.203 20.3761 39.1427 21.9497 38.6645C22.8054 38.4044 23.6889 38.6914 24.2283 39.4048C25.5105 41.1005 28.4888 41.1005 29.771 39.4049C30.3103 38.6915 31.1938 38.4044 32.0495 38.6646C34.0835 39.2828 36.493 37.5321 36.5336 35.4067C36.5508 34.5125 37.0968 33.761 37.9421 33.4684ZM36.6035 19.1001C36.561 18.9377 36.5371 18.7674 36.5337 18.5916C36.512 17.4526 35.8099 16.4216 34.8501 15.8047C35.0703 16.2242 35.2011 16.686 35.2103 17.1671C35.2273 18.056 35.767 18.8038 36.6035 19.1001ZM14.2383 31.8175C14.6265 32.5716 15.255 33.1906 16.0574 33.4684L16.0725 33.4738C15.8988 32.8103 15.4129 32.279 14.7339 32.0439C14.5604 31.9838 14.395 31.9074 14.2383 31.8175Z" fill="#A082EC"/>
<path id="Vector_36" d="M26.9996 34.6808C31.2412 34.6808 34.6798 31.2422 34.6798 27.0005C34.6798 22.7589 31.2412 19.3203 26.9996 19.3203C22.7579 19.3203 19.3193 22.7589 19.3193 27.0005C19.3193 31.2422 22.7579 34.6808 26.9996 34.6808Z" fill="#EFF4F7"/>
<path id="Vector_37" fill-rule="evenodd" clip-rule="evenodd" d="M22.4125 33.161C20.5352 31.7608 19.3193 29.5227 19.3193 27.0005C19.3193 22.7589 22.7579 19.3203 26.9996 19.3203C29.5216 19.3203 31.7598 20.5361 33.16 22.4134C31.88 21.4587 30.2924 20.8935 28.5728 20.8935C24.3312 20.8935 20.8926 24.3321 20.8926 28.5737C20.8926 30.2934 21.4578 31.881 22.4125 33.161Z" fill="#E2E3E3"/>
<path id="Vector_38" fill-rule="evenodd" clip-rule="evenodd" d="M29.4559 23.7138C29.9911 23.1756 30.8612 23.1732 31.3995 23.7085C31.9377 24.2437 31.9401 25.1138 31.4048 25.652L26.8144 30.2856C26.2827 30.8202 25.4207 30.826 24.8817 30.3015L22.6104 28.0878C22.0663 27.5586 22.0543 26.6884 22.5835 26.1443C23.1128 25.6001 23.983 25.5881 24.5271 26.1174L25.823 27.3807L29.4559 23.7138Z" fill="#A082EC"/>
<path id="Vector_39" fill-rule="evenodd" clip-rule="evenodd" d="M31.6438 24.0371C31.9198 24.5555 31.8406 25.2138 31.4048 25.652L26.8144 30.2856C26.2827 30.8202 25.4206 30.826 24.8817 30.3015L22.6104 28.0878C22.1617 27.6514 22.0749 26.9831 22.3551 26.4569C22.4204 26.5795 22.5054 26.6943 22.6104 26.7964L24.8817 29.0101C25.4206 29.5346 26.2827 29.5287 26.8144 28.9941L31.4048 24.3606C31.5023 24.2624 31.5819 24.1532 31.6438 24.0371Z" fill="#A082EC"/>
</g>
</g>
</g>
<defs>
<clipPath id="clip0_1217_13702">
<rect width="54" height="54" fill="white"/>
</clipPath>
</defs>
</svg>
