<svg width="54" height="54" viewBox="0 0 54 54" fill="none" xmlns="http://www.w3.org/2000/svg">
<g id="regulations 1">
<g id="Group">
<path id="Vector" fill-rule="evenodd" clip-rule="evenodd" d="M30.9668 7.48656C33.0457 7.94956 34.9903 8.76831 36.7334 9.87617C40.8026 7.66973 39.6085 8.43264 43.2367 11.7445C43.6441 12.1521 43.7388 12.7497 43.4771 13.2632C43.2844 13.6074 42.5176 15.1709 42.3441 15.4869C43.4519 17.2298 44.2706 19.1746 44.7337 21.2534C49.1618 22.5719 47.7889 22.2478 48.01 27.1727C48.0098 27.749 47.6542 28.2384 47.1061 28.4166C46.7273 28.5236 45.0789 29.087 44.7337 29.1875C44.2705 31.2663 43.452 33.2111 42.3441 34.9541C42.5005 35.2645 43.3028 36.8334 43.4771 37.1778C43.7388 37.6912 43.6441 38.2889 43.2366 38.6965C39.6037 42.0134 40.8028 42.769 36.7332 40.5648C34.9901 41.6727 33.0456 42.4914 30.9667 42.9544C29.6482 47.3825 29.9723 46.0096 25.0474 46.2307C24.4711 46.2306 23.9817 45.8749 23.8035 45.3268C23.6967 44.9481 23.133 43.2997 23.0327 42.9544C20.9539 42.4912 19.009 41.6728 17.2661 40.5648C13.1969 42.7711 14.391 42.0083 10.7628 38.6965C10.3554 38.2889 10.2607 37.6912 10.5224 37.1778C10.7151 36.8336 11.4819 35.2701 11.6554 34.9541C10.5476 33.211 9.72881 31.2664 9.26582 29.1875C8.93663 29.079 7.25939 28.5367 6.89338 28.4166C6.34528 28.2385 5.98964 27.749 5.98964 27.1727C6.21039 22.2409 4.83922 22.5736 9.26582 21.2535C9.72903 19.1748 10.5475 17.2299 11.6554 15.487C9.44909 11.4177 10.2119 12.6118 13.5237 8.98366C13.9313 8.57628 14.529 8.48157 15.0425 8.74325C15.3867 8.93592 16.9502 9.70272 17.2662 9.87628C19.0094 8.76841 20.9539 7.94967 23.0328 7.48667C23.1412 7.15749 23.6836 5.48014 23.8036 5.11423C23.9818 4.56613 24.4712 4.21049 25.0475 4.21049C29.9794 4.43103 29.6466 3.05986 30.9668 7.48656ZM26.9997 11.0776C8.40884 11.3951 8.41165 39.0487 27.0004 39.3635C45.5906 39.046 45.5877 11.3924 26.9997 11.0776Z" fill="#A082EC"/>
<path id="Vector_2" fill-rule="evenodd" clip-rule="evenodd" d="M38.4382 40.7191L43.2838 46.9158C35.1666 46.9158 18.832 46.9158 10.7168 46.9158L15.5623 40.7191C16.256 39.832 17.2154 39.3613 18.33 39.3613H35.6705C36.7852 39.3613 37.7446 39.832 38.4382 40.7191Z" fill="#FFBF31"/>
<path id="Vector_3" fill-rule="evenodd" clip-rule="evenodd" d="M7.13706 45.6035H46.8642C49.2579 45.7143 48.9867 48.0611 48.9579 49.791H5.04338C5.0167 48.0587 4.73957 45.7169 7.13706 45.6035Z" fill="#19CFBA"/>
<path id="Vector_4" fill-rule="evenodd" clip-rule="evenodd" d="M26.4746 26.9778L29.1019 23.4902L48.1559 37.8442C48.5303 38.1262 48.6058 38.663 48.3239 39.0374L46.7219 41.1639C46.4399 41.5382 45.9031 41.6137 45.5287 41.3318L26.4746 26.9778Z" fill="#FFBF31"/>
<path id="Vector_5" fill-rule="evenodd" clip-rule="evenodd" d="M20.5439 28.5273L28.9753 17.3369L34.4529 21.464L26.0216 32.6544L20.5439 28.5273Z" fill="#19CFBA"/>
<path id="Vector_6" fill-rule="evenodd" clip-rule="evenodd" d="M18.8053 27.5683C19.2188 27.0985 19.8215 25.7816 20.6245 26.4116C20.6245 26.4115 28.015 31.979 28.015 31.979C28.3476 32.2296 28.4147 32.7066 28.1641 33.0393C27.4242 34.1482 26.4628 35.3442 25.0487 34.3784C25.0488 34.3785 19.1366 29.9247 19.1366 29.9247C18.3966 29.367 18.2477 28.3085 18.8053 27.5683Z" fill="#A082EC"/>
<path id="Vector_7" fill-rule="evenodd" clip-rule="evenodd" d="M27.562 15.9444C27.2245 16.4714 26.125 17.4142 26.9521 18.0122C26.952 18.0122 34.3425 23.5797 34.3425 23.5797C34.6751 23.8302 35.1522 23.7631 35.4028 23.4305C36.2645 22.4133 37.1488 21.1594 35.8302 20.0665C35.8303 20.0665 29.9182 15.6128 29.9182 15.6128C29.1781 15.0553 28.1196 15.2042 27.562 15.9444Z" fill="#A082EC"/>
<path id="Vector_8" fill-rule="evenodd" clip-rule="evenodd" d="M48.2452 49.0787H5.755C5.7307 47.9586 5.57281 46.3646 7.13654 46.3156C7.13643 46.3156 46.8635 46.3156 46.8635 46.3156C48.4171 46.3668 48.2777 47.95 48.2452 49.0787ZM16.1233 41.1584C16.6856 40.4392 17.4282 40.0742 18.3299 40.0742C18.7296 40.0762 26.7136 40.0728 27.1267 40.0742H35.6701C36.5718 40.0742 37.3142 40.4392 37.8768 41.1584L40.7955 44.8909H13.2044L16.1233 41.1584ZM14.0276 40.9539C14.118 41.0442 14.2271 41.1019 14.3429 41.1224C16.1202 38.4314 17.7413 38.5942 20.6536 38.6501C6.59632 32.3421 11.3462 10.1268 27.0009 10.3657C37.5152 10.1408 45.0237 21.7531 40.5808 31.2461L42.7047 32.8462C43.2956 31.6317 43.7448 30.3527 44.0391 29.0326C44.0937 28.787 44.2745 28.5881 44.5139 28.5105C48.4368 27.2608 47.0592 28.1509 47.2984 23.2682C47.2983 23.0014 47.1403 22.7843 46.8864 22.7016L44.5141 21.931C44.2745 21.8534 44.0937 21.6545 44.0388 21.409C43.6001 19.4387 42.8278 17.5754 41.7434 15.8691C41.1366 15.041 43.4927 12.9972 42.7333 12.2486L39.9729 9.48781C39.7839 9.2987 39.5187 9.25701 39.2808 9.37808L37.057 10.5109C36.8324 10.6257 36.5643 10.6126 36.3516 10.4777C34.6452 9.39298 32.7816 8.62067 30.8123 8.18187C29.8041 8.03359 30.0103 4.90385 28.9522 4.92286H25.0478C24.7809 4.92286 24.5637 5.08054 24.4812 5.33413C24.217 5.81591 23.8844 8.12657 23.1878 8.18176C21.2188 8.62046 19.355 9.39277 17.6484 10.4775C17.4357 10.6123 17.1678 10.6255 16.943 10.5107C13.282 8.6129 14.8755 8.98096 11.2667 12.2484C11.078 12.437 11.0361 12.702 11.1573 12.9402L12.2904 15.1641C12.4047 15.388 12.3919 15.6564 12.2567 15.869C11.1726 17.5747 10.4004 19.4381 9.96128 21.4088C9.81418 22.4153 6.68251 22.2115 6.70205 23.2682V27.1727C6.70205 27.44 6.85984 27.6571 7.11375 27.7394C7.6004 28.0026 9.90501 28.3385 9.96128 29.0326C10.4 31.0017 11.1723 32.8657 12.2567 34.572C12.3919 34.7851 12.4047 35.053 12.2904 35.2774C10.3904 38.9432 10.7618 37.3436 14.0276 40.9539ZM47.781 38.5061C47.8138 38.3779 31.7152 26.4034 31.6711 26.3176L29.9007 28.6676C30.1117 28.6515 45.9206 41.0704 46.1528 40.7364C46.1533 40.7363 47.7552 38.6096 47.7552 38.6096C47.7833 38.5724 47.7846 38.533 47.781 38.5061ZM27.3801 17.4444C27.2689 17.4312 28.1393 16.3976 28.1303 16.3739C28.4346 15.9536 29.0792 15.8602 29.4893 16.1832C29.6974 16.4617 36.1677 20.8779 35.7771 21.2763C35.927 21.8391 35.0882 22.5823 34.8336 23.0033C34.764 23.11 27.441 17.4373 27.3801 17.4444ZM27.5868 32.5481C27.6053 32.5607 27.6097 32.5929 27.5957 32.6109C27.2521 32.9693 26.7831 33.9823 26.1966 33.9939C25.9459 34.4965 19.8682 29.4607 19.5657 29.3556C18.6194 28.6467 19.6643 27.617 20.1337 26.9894C20.2017 26.8808 27.5267 32.5561 27.5868 32.5481ZM26.9177 30.2602L22.5797 26.9927L28.0493 19.7316L32.3872 22.9997L26.9177 30.2602ZM26.8758 38.6501C9.31317 38.1855 9.42603 12.0941 27.0007 11.7897C36.3749 11.5981 43.1494 21.8027 39.4103 30.3649L32.5279 25.1802L33.5248 23.8567C34.973 25.1407 35.8757 24.1406 36.7301 22.8523C37.524 21.842 37.3005 20.2507 36.2583 19.4985L30.3462 15.0452C29.3364 14.2506 27.7437 14.4747 26.9926 15.517C25.9947 16.7073 25.2641 17.81 26.9116 18.8747L21.4419 26.1353C19.9706 24.8507 19.1049 25.8466 18.2366 27.1395C17.4429 28.1492 17.6659 29.7419 18.7084 30.4933L24.6206 34.9472C25.6351 35.7425 27.2217 35.516 27.9742 34.4753C28.9691 33.3027 29.6966 32.1602 28.0552 31.1176L29.0437 29.8054L36.0863 35.1106C33.5767 37.4278 30.3153 38.6832 26.8758 38.6501ZM39.9728 40.9539L41.6356 39.2911L37.2412 35.9807C36.0836 37.0849 34.7798 37.9807 33.3727 38.6502C36.2824 38.5912 37.8878 38.4453 39.6572 41.1231C39.7732 41.1019 39.8824 41.0442 39.9728 40.9539ZM46.8635 44.8909H42.604L40.5624 42.2803C40.8802 42.1452 42.4998 40.411 42.7842 40.1565C46.2305 42.8075 46.2499 43.2339 48.8929 39.4662C49.4113 38.8073 49.2652 37.7666 48.5846 37.2762L43.8641 33.7197C44.5034 32.4532 44.9972 31.1188 45.3359 29.7409C46.6243 29.2975 48.8148 28.9816 48.7225 27.1726C48.7226 27.1727 48.7226 23.2682 48.7226 23.2682C48.7226 22.3771 48.1748 21.623 47.3267 21.3471L45.336 20.7005C44.8812 18.848 44.1512 17.0863 43.1616 15.4524C43.7596 14.2275 45.085 12.4555 43.7405 11.2406C43.7407 11.2406 40.98 8.48038 40.98 8.48038C40.3493 7.84966 39.4284 7.70408 38.6343 8.10854L36.7682 9.05969C35.1344 8.06977 33.3727 7.33969 31.5206 6.88501L30.8739 4.89424C30.598 4.0459 29.8441 3.49813 28.9524 3.49813H25.0481C23.2227 3.42047 22.9316 5.58523 22.48 6.88501C20.6283 7.33969 18.8664 8.06977 17.2324 9.05969L15.3665 8.10854C14.572 7.70408 13.6513 7.84977 13.0206 8.48038L10.2599 11.2412C8.91638 12.4505 10.2418 14.2341 10.8392 15.4524C9.84982 17.0856 9.11963 18.8473 8.66463 20.7005L6.67376 21.3471C5.82585 21.6224 5.27797 22.3771 5.27797 23.2682V27.1726C5.20031 28.9981 7.36485 29.2889 8.66431 29.7409C9.11909 31.5929 9.84917 33.3546 10.839 34.9883C10.2408 36.2126 8.91573 37.9863 10.2598 39.2001C10.5018 39.4103 13.208 42.2396 13.4379 42.2803L11.3964 44.8909C7.06321 44.9935 3.83325 43.8277 4.33091 49.7905C4.33081 50.184 4.64973 50.5028 5.04285 50.5028H48.9574C49.3508 50.5028 49.6696 50.184 49.6696 49.7904V47.6968C49.6695 46.1499 48.4108 44.8909 46.8635 44.8909Z" fill="#1E2F3F"/>
</g>
</g>
</svg>
