<svg width="400" height="318" viewBox="0 0 400 318" fill="none" xmlns="http://www.w3.org/2000/svg">
<path opacity="0.4" d="M386.166 224.37C393.807 216.729 393.807 204.341 386.166 196.7C378.525 189.059 366.136 189.059 358.495 196.7C350.854 204.341 350.854 216.729 358.495 224.37C366.136 232.011 378.525 232.011 386.166 224.37Z" fill="#E5E5FF"/>
<path opacity="0.4" d="M71.4702 95.0676C83.1271 83.4107 83.1271 64.5112 71.4702 52.8543C59.8134 41.1975 40.9139 41.1975 29.257 52.8543C17.6001 64.5112 17.6001 83.4107 29.257 95.0676C40.9139 106.724 59.8134 106.724 71.4702 95.0676Z" fill="#E5E5FF"/>
<path opacity="0.4" d="M153.613 45.2673C162.207 45.2673 169.174 38.3007 169.174 29.7069C169.174 21.1131 162.207 14.1465 153.613 14.1465C145.019 14.1465 138.053 21.1131 138.053 29.7069C138.053 38.3007 145.019 45.2673 153.613 45.2673Z" fill="#E5E5FF"/>
<path d="M131.335 37.3991C130.373 37.3991 129.401 37.3232 128.447 37.1736L128.539 36.5877C129.463 36.7326 130.404 36.8059 131.336 36.8059L131.445 36.8057L131.448 37.3986L131.335 37.3991ZM134.446 37.1368L134.347 36.5522C135.3 36.3904 136.25 36.1492 137.171 35.8352L137.363 36.3963C136.411 36.7208 135.43 36.9698 134.446 37.1368ZM125.522 36.4701C124.57 36.1587 123.636 35.768 122.746 35.3089L123.018 34.7819C123.88 35.2266 124.784 35.6049 125.706 35.9063L125.522 36.4701ZM140.124 35.2029L139.846 34.6792C140.705 34.2238 141.531 33.6961 142.301 33.111L142.66 33.5832C141.864 34.1877 141.011 34.7325 140.124 35.2029ZM120.191 33.7205C119.386 33.1247 118.623 32.4597 117.924 31.7434L118.349 31.3293C119.025 32.0226 119.763 32.6667 120.544 33.2435L120.191 33.7205ZM144.901 31.576L144.471 31.1675C145.138 30.4653 145.753 29.7025 146.3 28.9004L146.79 29.2343C146.225 30.063 145.59 30.8507 144.901 31.576ZM116.004 29.4267C115.431 28.6079 114.919 27.7347 114.483 26.831L115.017 26.5732C115.439 27.4484 115.935 28.2937 116.49 29.0866L116.004 29.4267ZM148.28 26.6209L147.743 26.3692C148.155 25.4903 148.499 24.5722 148.765 23.6403L149.335 23.803C149.061 24.7654 148.705 25.7134 148.28 26.6209ZM113.394 24.0264C113.106 23.0644 112.895 22.0744 112.766 21.0838L113.354 21.0072C113.479 21.9663 113.684 22.925 113.963 23.8566L113.394 24.0264ZM149.927 20.853L149.338 20.7835C149.42 20.0848 149.462 19.3744 149.462 18.6724C149.462 18.4063 149.456 18.1369 149.444 17.8715L150.037 17.8451C150.049 18.1191 150.055 18.3975 150.055 18.6724C150.055 19.3979 150.012 20.1315 149.927 20.853ZM113.212 18.0961L112.619 18.0768C112.652 17.0769 112.766 16.0708 112.959 15.0868L113.541 15.2011C113.354 16.1538 113.243 17.1277 113.212 18.0961ZM149.079 14.9812C148.881 14.0361 148.604 13.0954 148.255 12.1859L148.809 11.9736C149.169 12.9126 149.455 13.8836 149.66 14.8596L149.079 14.9812ZM114.33 12.396L113.774 12.1904C114.121 11.2512 114.547 10.333 115.039 9.46119L115.556 9.75268C115.079 10.5973 114.666 11.4864 114.33 12.396ZM148.201 12.0476C147.845 11.1416 147.416 10.2605 146.924 9.42893L147.434 9.12725C147.942 9.98582 148.386 10.8954 148.753 11.8308L148.201 12.0476ZM117.187 7.33894L116.724 6.96847C117.35 6.18555 118.044 5.44865 118.786 4.77839L119.184 5.21834C118.465 5.86773 117.793 6.58116 117.187 7.33894ZM145.243 7.04982C144.622 6.30675 143.935 5.60803 143.201 4.97334L143.589 4.52485C144.347 5.1804 145.057 5.90189 145.698 6.66963L145.243 7.04982ZM121.497 3.44783L121.176 2.94928C122.015 2.40852 122.907 1.93038 123.827 1.5286L124.065 2.07197C123.173 2.46117 122.309 2.92414 121.497 3.44783ZM140.851 3.25144C140.026 2.74294 139.153 2.29705 138.256 1.92635L138.483 1.37823C139.409 1.76103 140.31 2.22162 141.163 2.7465L140.851 3.25144ZM126.819 1.12042L126.671 0.546219C127.643 0.295049 128.64 0.121672 129.636 0.030834L129.69 0.621161C128.726 0.709391 127.76 0.877314 126.819 1.12042ZM135.483 1.03124C134.539 0.808057 133.57 0.660058 132.603 0.591514L132.645 0C133.644 0.0709156 134.644 0.223659 135.62 0.454194L135.483 1.03124Z" fill="#9192FF"/>
<path d="M318.134 244.618L318.124 244.025C319.106 244.008 320.098 243.967 321.071 243.905L321.109 244.497C320.126 244.56 319.125 244.6 318.134 244.618ZM315.156 244.6C314.169 244.572 313.168 244.52 312.184 244.445L312.228 243.854C313.204 243.928 314.195 243.979 315.174 244.008L315.156 244.6ZM324.075 244.238L324.009 243.648C324.983 243.54 325.967 243.407 326.932 243.254L327.025 243.84C326.051 243.994 325.058 244.128 324.075 244.238ZM309.22 244.151C308.242 244.031 307.251 243.886 306.274 243.719L306.375 243.134C307.342 243.3 308.323 243.444 309.293 243.563L309.22 244.151ZM329.954 243.303L329.833 242.723C330.794 242.522 331.761 242.297 332.706 242.054L332.854 242.628C331.9 242.874 330.924 243.101 329.954 243.303ZM303.353 243.148C302.387 242.935 301.414 242.697 300.461 242.439L300.615 241.866C301.56 242.122 302.524 242.358 303.48 242.569L303.353 243.148ZM335.719 241.816L335.544 241.25C336.481 240.961 337.421 240.645 338.34 240.313L338.543 240.87C337.614 241.206 336.665 241.525 335.719 241.816ZM297.606 241.593C296.666 241.29 295.717 240.96 294.787 240.611L294.996 240.056C295.917 240.401 296.856 240.729 297.787 241.029L297.606 241.593ZM341.31 239.794L341.082 239.246C341.982 238.872 342.887 238.47 343.772 238.052L344.026 238.588C343.132 239.01 342.218 239.416 341.31 239.794ZM292.019 239.496C291.109 239.104 290.197 238.686 289.308 238.252L289.568 237.719C290.448 238.149 291.352 238.564 292.253 238.951L292.019 239.496ZM346.682 237.254L346.403 236.731C347.266 236.272 348.129 235.787 348.971 235.287L349.273 235.797C348.424 236.301 347.553 236.791 346.682 237.254ZM286.66 236.881C285.794 236.406 284.926 235.904 284.08 235.387L284.389 234.881C285.227 235.393 286.087 235.891 286.944 236.361L286.66 236.881ZM351.794 234.218L351.468 233.723C352.287 233.183 353.101 232.618 353.889 232.044L354.239 232.523C353.443 233.103 352.621 233.673 351.794 234.218ZM281.574 233.773C280.757 233.22 279.941 232.638 279.147 232.044L279.502 231.57C280.288 232.158 281.098 232.734 281.906 233.282L281.574 233.773ZM356.602 230.714L356.231 230.252C356.993 229.639 357.752 229 358.486 228.352L358.878 228.796C358.137 229.451 357.371 230.096 356.602 230.714ZM276.804 230.203C276.04 229.574 275.282 228.919 274.551 228.255L274.949 227.816C275.674 228.473 276.425 229.122 277.181 229.746L276.804 230.203ZM361.063 226.774L360.65 226.349C361.352 225.667 362.048 224.959 362.719 224.246L363.151 224.651C362.475 225.372 361.772 226.086 361.063 226.774ZM272.391 226.205C271.689 225.506 270.996 224.783 270.331 224.056L270.768 223.655C271.427 224.376 272.114 225.092 272.809 225.785L272.391 226.205ZM365.138 222.432L364.687 222.047C365.324 221.301 365.952 220.531 366.55 219.759L367.019 220.123C366.414 220.902 365.781 221.679 365.138 222.432ZM268.373 221.814C267.74 221.053 267.118 220.269 266.524 219.483L266.996 219.125C267.585 219.904 268.202 220.681 268.829 221.434L268.373 221.814ZM368.79 217.727L368.305 217.386C368.87 216.583 369.422 215.757 369.947 214.932L370.447 215.25C369.918 216.083 369.36 216.916 368.79 217.727ZM264.786 217.068C264.228 216.254 263.682 215.415 263.163 214.575L263.668 214.263C264.182 215.096 264.723 215.926 265.275 216.733L264.786 217.068ZM371.986 212.697L371.472 212.403C371.957 211.553 372.429 210.679 372.876 209.804L373.404 210.074C372.953 210.957 372.476 211.839 371.986 212.697ZM261.66 212.009C261.181 211.146 260.716 210.26 260.28 209.376L260.811 209.114C261.244 209.989 261.704 210.866 262.178 211.721L261.66 212.009ZM374.696 207.385L374.156 207.141C374.561 206.245 374.949 205.329 375.308 204.42L375.86 204.638C375.496 205.556 375.105 206.48 374.696 207.385ZM259.025 206.682C258.63 205.778 258.251 204.853 257.9 203.933L258.454 203.722C258.802 204.632 259.177 205.548 259.568 206.445L259.025 206.682ZM376.891 201.838L376.331 201.646C376.647 200.721 376.946 199.774 377.218 198.833L377.788 198.998C377.512 199.948 377.211 200.904 376.891 201.838ZM256.903 201.128C256.594 200.186 256.304 199.227 256.041 198.277L256.613 198.119C256.873 199.06 257.16 200.01 257.467 200.942L256.903 201.128ZM378.548 196.119L377.971 195.981C378.198 195.031 378.406 194.061 378.588 193.097L379.171 193.207C378.987 194.18 378.777 195.16 378.548 196.119ZM255.316 195.389C255.098 194.429 254.9 193.447 254.727 192.47L255.311 192.366C255.483 193.334 255.679 194.307 255.894 195.258L255.316 195.389ZM379.656 190.27L379.069 190.187C379.205 189.221 379.32 188.235 379.411 187.257L380.001 187.312C379.91 188.299 379.793 189.294 379.656 190.27ZM254.277 189.527C254.151 188.55 254.047 187.554 253.966 186.566L254.557 186.518C254.637 187.497 254.74 188.484 254.865 189.452L254.277 189.527ZM380.209 184.342L379.616 184.315C379.661 183.341 379.684 182.349 379.684 181.366H380.277C380.277 182.358 380.254 183.359 380.209 184.342ZM253.794 183.594C253.769 182.858 253.756 182.108 253.756 181.366C253.756 181.116 253.757 180.866 253.76 180.616L254.353 180.623C254.35 180.871 254.349 181.118 254.349 181.366C254.349 182.102 254.362 182.844 254.387 183.574L253.794 183.594ZM379.668 179.909C379.646 178.929 379.6 177.937 379.532 176.962L380.124 176.921C380.192 177.905 380.238 178.906 380.261 179.896L379.668 179.909ZM254.456 177.676L253.864 177.641C253.921 176.652 254.003 175.653 254.106 174.674L254.696 174.736C254.593 175.706 254.512 176.695 254.456 177.676ZM379.259 174.026C379.146 173.055 379.008 172.073 378.849 171.105L379.434 171.009C379.595 171.986 379.734 172.978 379.848 173.957L379.259 174.026ZM255.073 171.811L254.487 171.721C254.636 170.743 254.811 169.757 255.006 168.79L255.588 168.907C255.394 169.865 255.221 170.842 255.073 171.811ZM378.3 168.207C378.096 167.251 377.866 166.286 377.616 165.338L378.189 165.187C378.442 166.144 378.674 167.119 378.88 168.083L378.3 168.207ZM256.239 166.03L255.664 165.886C255.905 164.927 256.173 163.961 256.459 163.016L257.026 163.188C256.743 164.124 256.478 165.08 256.239 166.03ZM376.796 162.505C376.502 161.571 376.181 160.632 375.843 159.714L376.399 159.509C376.74 160.435 377.064 161.383 377.362 162.326L376.796 162.505ZM257.95 160.378L257.391 160.18C257.723 159.246 258.081 158.308 258.457 157.392L259.005 157.617C258.633 158.524 258.278 159.453 257.95 160.378ZM374.761 156.977C374.382 156.08 373.975 155.177 373.551 154.294L374.086 154.038C374.514 154.929 374.925 155.84 375.307 156.746L374.761 156.977ZM260.191 154.91L259.653 154.659C260.07 153.765 260.516 152.866 260.977 151.987L261.502 152.262C261.045 153.133 260.604 154.024 260.191 154.91ZM372.216 151.67C371.753 150.812 371.263 149.951 370.757 149.111L371.266 148.806C371.776 149.654 372.271 150.523 372.738 151.389L372.216 151.67ZM262.937 149.681L262.426 149.381C262.927 148.529 263.455 147.676 263.995 146.846L264.492 147.17C263.956 147.992 263.433 148.837 262.937 149.681ZM369.179 146.623C368.637 145.81 368.068 144.998 367.487 144.21L367.964 143.859C368.55 144.654 369.125 145.473 369.673 146.294L369.179 146.623ZM266.163 144.737L265.682 144.39C266.26 143.589 266.865 142.79 267.481 142.015L267.946 142.384C267.335 143.152 266.735 143.943 266.163 144.737ZM365.682 141.88C365.065 141.12 364.422 140.365 363.769 139.635L364.212 139.24C364.87 139.977 365.519 140.739 366.142 141.505L365.682 141.88ZM269.836 140.118L269.39 139.728C270.042 138.983 270.719 138.245 271.403 137.533L271.831 137.944C271.153 138.649 270.482 139.381 269.836 140.118ZM361.754 137.482C361.067 136.782 360.356 136.09 359.639 135.425L360.043 134.991C360.766 135.661 361.484 136.36 362.177 137.067L361.754 137.482ZM273.924 135.866L273.516 135.435C274.234 134.755 274.977 134.084 275.725 133.439L276.112 133.888C275.371 134.527 274.635 135.192 273.924 135.866ZM357.43 133.469C356.684 132.838 355.911 132.216 355.132 131.618L355.493 131.148C356.279 131.751 357.06 132.38 357.813 133.016L357.43 133.469ZM278.389 132.016L278.023 131.549C278.8 130.94 279.602 130.341 280.407 129.769L280.751 130.252C279.953 130.819 279.159 131.412 278.389 132.016ZM352.748 129.876C351.943 129.316 351.114 128.768 350.285 128.248L350.6 127.746C351.437 128.271 352.274 128.824 353.087 129.39L352.748 129.876ZM283.192 128.601L282.872 128.102C283.703 127.569 284.557 127.048 285.411 126.554L285.708 127.068C284.862 127.557 284.015 128.073 283.192 128.601ZM347.747 126.738C346.894 126.256 346.017 125.789 345.141 125.348L345.407 124.819C346.292 125.263 347.177 125.735 348.039 126.221L347.747 126.738ZM288.292 125.655L288.019 125.128C288.895 124.675 289.794 124.237 290.692 123.826L290.938 124.365C290.049 124.773 289.159 125.207 288.292 125.655ZM342.471 124.083C341.575 123.685 340.657 123.302 339.743 122.946L339.957 122.393C340.88 122.753 341.807 123.139 342.711 123.542L342.471 124.083ZM293.642 123.203L293.42 122.653C294.339 122.283 295.277 121.932 296.209 121.607L296.404 122.167C295.481 122.488 294.552 122.837 293.642 123.203ZM336.963 121.939C336.034 121.628 335.086 121.335 334.145 121.068L334.307 120.497C335.257 120.767 336.214 121.063 337.151 121.377L336.963 121.939ZM299.212 121.264L299.043 120.695C299.99 120.416 300.956 120.154 301.918 119.919L302.059 120.495C301.107 120.728 300.149 120.987 299.212 121.264ZM331.289 120.331C330.336 120.109 329.364 119.907 328.401 119.73L328.508 119.147C329.48 119.325 330.461 119.529 331.423 119.754L331.289 120.331ZM304.94 119.861L304.826 119.279C305.796 119.09 306.784 118.921 307.761 118.778L307.847 119.365C306.879 119.506 305.901 119.674 304.94 119.861ZM325.489 119.266C324.519 119.135 323.533 119.025 322.557 118.94L322.609 118.35C323.594 118.436 324.589 118.547 325.568 118.679L325.489 119.266ZM310.774 119.006L310.716 118.415C311.697 118.318 312.696 118.243 313.685 118.192L313.715 118.784C312.736 118.835 311.746 118.909 310.774 119.006ZM319.614 118.751C318.753 118.716 317.879 118.698 317.017 118.698C316.898 118.698 316.782 118.699 316.665 118.699L316.661 118.106C316.78 118.106 316.9 118.106 317.017 118.105C317.887 118.105 318.769 118.124 319.638 118.159L319.614 118.751Z" fill="#9192FF"/>
<path d="M60.3656 175.259C59.3706 175.253 58.3676 175.212 57.3845 175.137L57.4298 174.545C58.3989 174.62 59.388 174.66 60.3691 174.666L60.3656 175.259ZM63.3488 175.171L63.3104 174.579C64.2845 174.516 65.2692 174.417 66.2371 174.284L66.3175 174.872C65.3358 175.006 64.3371 175.107 63.3488 175.171ZM54.4193 174.803C53.437 174.657 52.4498 174.473 51.4852 174.257L51.6147 173.679C52.5656 173.892 53.5385 174.072 54.5066 174.217L54.4193 174.803ZM69.2576 174.36L69.1349 173.78C70.09 173.579 71.0504 173.339 71.9893 173.069L72.1532 173.639C71.2007 173.913 70.2264 174.156 69.2576 174.36ZM48.5981 173.502C47.6477 173.216 46.6959 172.892 45.7691 172.538L45.9804 171.984C46.894 172.333 47.8323 172.652 48.7689 172.934L48.5981 173.502ZM74.9899 172.71L74.7852 172.153C75.7 171.817 76.6148 171.442 77.5044 171.04L77.7487 171.58C76.846 171.988 75.9179 172.369 74.9899 172.71ZM43.0178 171.373C42.1199 170.954 41.225 170.496 40.3581 170.013L40.647 169.495C41.5016 169.972 42.3834 170.423 43.2685 170.836L43.0178 171.373ZM80.4195 170.255L80.1373 169.734C80.9944 169.27 81.8469 168.767 82.6706 168.241L82.9898 168.741C82.154 169.275 81.2893 169.784 80.4195 170.255ZM37.8035 168.466C36.975 167.923 36.1551 167.343 35.3668 166.741L35.7266 166.27C36.504 166.863 37.3123 167.435 38.1289 167.971L37.8035 168.466ZM85.4451 167.047L85.0912 166.571C85.8748 165.988 86.6473 165.369 87.3871 164.732L87.7741 165.182C87.0237 165.828 86.2401 166.455 85.4451 167.047ZM33.0597 164.846C32.3176 164.191 31.5888 163.5 30.8939 162.793L31.3167 162.377C32.0019 163.075 32.7203 163.756 33.452 164.402L33.0597 164.846ZM89.9644 163.155L89.5466 162.734C90.2396 162.045 90.9165 161.323 91.5585 160.587L92.0053 160.976C91.3543 161.723 90.6674 162.456 89.9644 163.155ZM28.8798 160.59C28.2372 159.835 27.6142 159.048 27.0281 158.25L27.506 157.899C28.0838 158.685 28.6978 159.461 29.3313 160.206L28.8798 160.59ZM93.8864 158.658L93.413 158.301C94.0014 157.521 94.569 156.709 95.0995 155.889L95.5974 156.211C95.059 157.043 94.4834 157.866 93.8864 158.658ZM25.3487 155.785C24.8207 154.947 24.3165 154.08 23.85 153.206L24.3729 152.927C24.8326 153.788 25.3299 154.643 25.8503 155.469L25.3487 155.785ZM97.1288 153.647L96.6094 153.362C97.0807 152.504 97.5263 151.62 97.934 150.732L98.4727 150.98C98.0593 151.88 97.6072 152.778 97.1288 153.647ZM22.5405 150.527C22.138 149.623 21.7635 148.692 21.4274 147.762L21.9853 147.56C22.3164 148.477 22.6854 149.394 23.0822 150.286L22.5405 150.527ZM99.6215 148.222L99.0663 148.014C99.409 147.099 99.7226 146.16 99.9982 145.223L100.567 145.391C100.287 146.341 99.9692 147.293 99.6215 148.222ZM20.5155 144.92C20.247 143.966 20.0101 142.99 19.8111 142.02L20.3919 141.901C20.5878 142.857 20.8215 143.819 21.0861 144.76L20.5155 144.92ZM101.305 142.499L100.726 142.373C100.933 141.42 101.109 140.446 101.247 139.478L101.834 139.562C101.694 140.543 101.516 141.532 101.305 142.499ZM19.3175 139.077C19.189 138.096 19.0941 137.097 19.0358 136.107L19.6278 136.072C19.6854 137.048 19.7788 138.033 19.9055 139L19.3175 139.077ZM102.151 136.595L101.559 136.553C101.628 135.581 101.663 134.592 101.663 133.613H102.256C102.256 134.605 102.22 135.609 102.151 136.595ZM19.5578 133.13L18.9648 133.123C18.9762 132.131 19.0234 131.128 19.1045 130.143L19.6954 130.191C19.6154 131.163 19.5692 132.151 19.5578 133.13ZM101.616 131.638C101.57 130.66 101.488 129.674 101.373 128.707L101.961 128.637C102.078 129.618 102.161 130.618 102.208 131.61L101.616 131.638ZM20.0421 127.27L19.456 127.179C19.6081 126.199 19.7976 125.213 20.0191 124.249L20.5969 124.382C20.3787 125.332 20.192 126.304 20.0421 127.27ZM100.92 125.8C100.735 124.841 100.513 123.877 100.26 122.934L100.833 122.78C101.09 123.737 101.315 124.716 101.502 125.688L100.92 125.8ZM21.3589 121.54L20.7921 121.366C21.0835 120.417 21.4135 119.468 21.7723 118.543L22.3249 118.758C21.9713 119.669 21.6461 120.605 21.3589 121.54ZM99.3948 120.122C99.0744 119.201 98.7162 118.28 98.3304 117.384L98.8749 117.149C99.2665 118.058 99.6298 118.993 99.955 119.927L99.3948 120.122ZM23.4897 116.052L22.9539 115.799C23.3782 114.903 23.8409 114.011 24.3293 113.147L24.8456 113.439C24.3642 114.291 23.9078 115.17 23.4897 116.052ZM97.071 114.728C96.6213 113.861 96.1344 113 95.6237 112.169L96.1291 111.858C96.6469 112.702 97.1409 113.576 97.597 114.455L97.071 114.728ZM26.3851 110.93L25.8911 110.602C26.4392 109.777 27.0246 108.96 27.6308 108.175L28.1002 108.538C27.5027 109.311 26.9254 110.116 26.3851 110.93ZM93.9971 109.719C93.4279 108.926 92.8229 108.143 92.1989 107.391L92.655 107.012C93.288 107.774 93.9018 108.569 94.4789 109.374L93.9971 109.719ZM29.9812 106.274L29.5391 105.879C30.1992 105.14 30.8943 104.416 31.6054 103.725L32.0183 104.151C31.3175 104.831 30.632 105.546 29.9812 106.274ZM90.2391 105.197C89.5627 104.492 88.8523 103.802 88.1278 103.147L88.5255 102.707C89.2605 103.372 89.9811 104.071 90.667 104.787L90.2391 105.197ZM34.2013 102.178L33.8197 101.725C34.5774 101.087 35.3682 100.469 36.1703 99.8865L36.5187 100.366C35.728 100.941 34.9484 101.55 34.2013 102.178ZM85.8755 101.253C85.1052 100.651 84.304 100.069 83.4936 99.5239L83.8244 99.032C84.6465 99.5851 85.4595 100.175 86.2408 100.786L85.8755 101.253ZM38.9588 98.7255L38.6457 98.222C39.4867 97.699 40.3572 97.1998 41.2333 96.7387L41.5096 97.2633C40.6461 97.718 39.7877 98.2099 38.9588 98.7255ZM80.9937 97.9696C80.1454 97.4834 79.2688 97.0219 78.3884 96.5983L78.6455 96.0639C79.5389 96.4939 80.4281 96.9619 81.2885 97.4552L80.9937 97.9696ZM44.1577 95.9883L43.9198 95.4451C44.8263 95.0484 45.7586 94.6793 46.6917 94.3487L46.8897 94.9077C45.9702 95.2334 45.0509 95.5969 44.1577 95.9883ZM75.6902 95.4179C74.7811 95.0586 73.8469 94.7277 72.9134 94.435L73.0908 93.8691C74.0378 94.1663 74.9856 94.5017 75.908 94.8662L75.6902 95.4179ZM49.696 94.0254L49.5387 93.4538C50.4929 93.1913 51.4701 92.9603 52.443 92.7665L52.5585 93.348C51.5998 93.5387 50.6366 93.7666 49.696 94.0254ZM70.0768 93.6564C69.1266 93.432 68.1556 93.2396 67.1913 93.0841L67.2854 92.4987C68.2638 92.6564 69.2488 92.8516 70.2127 93.0791L70.0768 93.6564ZM55.4624 92.8787L55.3887 92.2905C56.3696 92.1678 57.3698 92.0789 58.3607 92.026L58.3923 92.618C57.4154 92.6702 56.4296 92.7579 55.4624 92.8787ZM64.2724 92.7205C63.3011 92.6346 62.3128 92.5824 61.3349 92.5656L61.3451 91.9727C62.3372 91.99 63.3395 92.0429 64.3248 92.1299L64.2724 92.7205Z" fill="#9192FF"/>
<path d="M227.37 33.7764C221.853 33.7764 217.364 29.2881 217.364 23.7711C217.364 18.2542 221.853 13.7656 227.37 13.7656C232.887 13.7656 237.375 18.2539 237.375 23.7711C237.375 29.2881 232.886 33.7764 227.37 33.7764ZM227.37 14.2103C222.098 14.2103 217.809 18.4992 217.809 23.7711C217.809 29.0428 222.098 33.3317 227.37 33.3317C232.642 33.3317 236.931 29.0428 236.931 23.7711C236.93 18.4992 232.641 14.2103 227.37 14.2103Z" fill="#9192FF"/>
<path d="M331.468 69.6835V249.979C331.468 253.732 328.426 256.774 324.678 256.774H62.6701C58.9168 256.774 55.875 253.732 55.875 249.979V69.6835C55.875 65.9302 58.9168 62.8884 62.6701 62.8884H324.678C328.426 62.8884 331.468 65.9302 331.468 69.6835Z" fill="white"/>
<path d="M324.68 257.072H62.6716C58.7613 257.072 55.5801 253.891 55.5801 249.98V69.6851C55.5801 65.7748 58.7613 62.5935 62.6716 62.5935H324.68C328.587 62.5935 331.766 65.7748 331.766 69.6851V249.98C331.766 253.891 328.587 257.072 324.68 257.072ZM62.6716 63.1864C59.0884 63.1864 56.173 66.1018 56.173 69.6851V249.98C56.173 253.564 59.0884 256.479 62.6716 256.479H324.68C328.26 256.479 331.173 253.564 331.173 249.98V69.6851C331.173 66.1018 328.26 63.1864 324.68 63.1864H62.6716Z" fill="#9192FF"/>
<path d="M331.468 69.6835V80.3802H55.875V69.6835C55.875 65.9302 58.9168 62.8884 62.6701 62.8884H324.678C328.426 62.8884 331.468 65.9302 331.468 69.6835Z" fill="white"/>
<path d="M331.766 80.6782H55.5801V69.6851C55.5801 65.7748 58.7613 62.5935 62.6716 62.5935H324.68C328.587 62.5935 331.766 65.7748 331.766 69.6851V80.6782ZM56.173 80.0852H331.173V69.6851C331.173 66.1018 328.26 63.1864 324.68 63.1864H62.6716C59.0884 63.1864 56.173 66.1018 56.173 69.6851V80.0852Z" fill="#9192FF"/>
<path d="M71.1769 74.8008C72.9234 74.8008 74.3392 73.385 74.3392 71.6386C74.3392 69.8921 72.9234 68.4763 71.1769 68.4763C69.4304 68.4763 68.0146 69.8921 68.0146 71.6386C68.0146 73.385 69.4304 74.8008 71.1769 74.8008Z" fill="#3335CF"/>
<path d="M83.2338 68.4761C81.4901 68.4761 80.0713 69.8946 80.0713 71.6383C80.0713 73.382 81.4898 74.8008 83.2338 74.8008C84.9777 74.8008 86.3963 73.3823 86.3963 71.6383C86.3963 69.8946 84.9775 68.4761 83.2338 68.4761Z" fill="#3335CF"/>
<path d="M95.2895 74.8006C93.5457 74.8006 92.1272 73.382 92.1272 71.6383C92.1272 69.8946 93.5457 68.4761 95.2895 68.4761C97.0332 68.4761 98.4517 69.8946 98.4517 71.6383C98.452 73.382 97.0334 74.8006 95.2895 74.8006ZM95.2895 69.069C93.8726 69.069 92.7201 70.2217 92.7201 71.6383C92.7201 73.055 93.8728 74.2077 95.2895 74.2077C96.7061 74.2077 97.8588 73.055 97.8588 71.6383C97.859 70.2217 96.7064 69.069 95.2895 69.069Z" fill="#9192FF"/>
<path d="M173.1 75.1602H114.325C112.384 75.1602 110.805 73.5808 110.805 71.6395C110.805 69.6983 112.384 68.1189 114.325 68.1189H173.101C175.042 68.1189 176.621 69.6983 176.621 71.6395C176.621 73.5808 175.042 75.1602 173.1 75.1602ZM114.325 68.7118C112.711 68.7118 111.398 70.0253 111.398 71.6395C111.398 73.2538 112.711 74.5672 114.325 74.5672H173.101C174.715 74.5672 176.028 73.2538 176.028 71.6395C176.028 70.0253 174.715 68.7118 173.101 68.7118H114.325Z" fill="#9192FF"/>
<path d="M247.84 164.289C247.84 192.679 224.828 215.697 196.438 215.697C168.048 215.697 145.03 192.679 145.03 164.289C145.03 137.654 165.291 115.751 191.238 113.142L192.952 130.011C175.567 131.761 161.994 146.442 161.994 164.289C161.994 183.317 177.417 198.739 196.438 198.739C215.46 198.739 230.876 183.317 230.876 164.289C230.876 160.969 230.408 157.761 229.53 154.725L245.83 150.017C247.141 154.547 247.84 159.338 247.84 164.289Z" fill="#9192FF"/>
<path d="M196.438 205.798C219.361 205.798 237.944 187.216 237.944 164.293C237.944 141.37 219.361 122.787 196.438 122.787C173.515 122.787 154.933 141.37 154.933 164.293C154.933 187.216 173.515 205.798 196.438 205.798Z" fill="white"/>
<path opacity="0.5" d="M196.438 205.798C219.361 205.798 237.944 187.216 237.944 164.293C237.944 141.37 219.361 122.787 196.438 122.787C173.515 122.787 154.933 141.37 154.933 164.293C154.933 187.216 173.515 205.798 196.438 205.798Z" fill="#D1D1FF"/>
<path d="M196.435 193.687C212.671 193.687 225.833 180.522 225.833 164.281C225.833 148.04 212.671 134.875 196.435 134.875C180.198 134.875 167.036 148.04 167.036 164.281C167.036 180.522 180.198 193.687 196.435 193.687Z" fill="white"/>
<path d="M199.789 178.738V183.208H194.11V178.939C190.084 178.698 186.178 177.609 183.762 176.12L186.821 169.192C189.48 170.763 193.022 171.769 196.123 171.769C198.822 171.769 199.789 171.205 199.789 170.238C199.789 166.694 184.204 169.554 184.204 159.04C184.204 154.488 187.506 150.662 194.11 149.736V145.345H199.789V149.655C202.766 149.937 205.668 150.703 207.964 151.992L205.104 158.88C202.324 157.469 199.707 156.786 197.251 156.786C194.471 156.786 193.586 157.591 193.586 158.557C193.586 161.941 209.17 159.121 209.17 169.513C209.17 173.864 206.029 177.65 199.789 178.738Z" fill="#9192FF"/>
<path d="M379.431 27.7241H267.6V96.1046H379.431V27.7241Z" fill="white"/>
<path d="M379.729 96.4026H267.305V27.4292H379.729V96.4026ZM267.898 95.8097H379.137V28.0221H267.898V95.8097Z" fill="#9192FF"/>
<path d="M288.117 74.3394H281.681V86.1593H288.117V74.3394Z" fill="#D1D1FF"/>
<path d="M300.988 68.937H294.552V86.1581H300.988V68.937Z" fill="#D1D1FF"/>
<path d="M313.864 73.3472H307.428V86.153H313.864V73.3472Z" fill="#D1D1FF"/>
<path d="M326.734 64.3433H320.298V86.1599H326.734V64.3433Z" fill="#D1D1FF"/>
<path d="M339.61 58.5718H333.174V86.1518H339.61V58.5718Z" fill="#D1D1FF"/>
<path d="M352.481 50.3472H346.045V86.1591H352.481V50.3472Z" fill="#D1D1FF"/>
<path d="M365.357 37.6675H358.921V86.1562H365.357V37.6675Z" fill="#D1D1FF"/>
<path d="M286.796 43.4253H281.681V49.2171H286.796V43.4253Z" fill="#D1D1FF"/>
<path d="M329.344 46.1089H294.702V47.5934H329.344V46.1089Z" fill="#D1D1FF"/>
<path d="M278.805 130.771L271.722 111.207C263.72 114.104 258.002 121.769 258.002 130.771C258.002 142.26 267.316 151.574 278.805 151.574C290.294 151.574 299.608 142.26 299.608 130.771C299.608 127.314 298.76 124.057 297.268 121.188L278.805 130.771Z" fill="#EBEBFF"/>
<path d="M300.035 113.778C296.568 107.113 289.604 102.558 281.572 102.558C279.085 102.558 276.7 102.996 274.489 103.797L281.572 123.362L300.035 113.778Z" fill="#9192FF"/>
<path d="M308.249 197.441H259.035V244.283H308.249V197.441Z" fill="#EBEBFF"/>
<path d="M294.317 209.896H266.745V211.874H294.317V209.896Z" fill="white"/>
<path d="M294.317 215.826H266.745V217.804H294.317V215.826Z" fill="white"/>
<path d="M120.397 107.908H77.6016V180.247H120.397V107.908Z" fill="#EBEBFF"/>
<path d="M112.189 118.386H84.123V144.08H112.189V118.386Z" fill="white"/>
<path d="M84.333 118.174L83.9326 118.611L111.999 144.307L112.4 143.87L84.333 118.174Z" fill="#EBEBFF"/>
<path d="M111.978 118.175L83.915 143.871L84.3155 144.308L112.378 118.612L111.978 118.175Z" fill="#EBEBFF"/>
<path d="M98.1696 137.453H0.28418V201.948H98.1696V137.453Z" fill="white"/>
<path d="M98.4515 202.235H0V137.174H98.4515V202.235ZM0.566141 201.669H97.8854V137.74H0.566141V201.669Z" fill="#9192FF"/>
<path d="M10.5967 186.381L16.9215 174.522L29.9661 186.777L38.6624 161.478L54.8696 179.266L65.5425 174.918L84.9118 149.619" fill="white"/>
<path d="M30.0991 187.303L17.0025 175L10.8601 186.517L10.3369 186.238L16.8438 174.038L29.8366 186.243L38.5466 160.905L54.9512 178.91L65.3577 174.67L84.6783 149.435L85.1491 149.796L65.7308 175.158L54.7915 179.615L54.6523 179.462L38.7821 162.044L30.0991 187.303Z" fill="#9192FF"/>
<path d="M16.9704 176.095C17.871 176.095 18.601 175.365 18.601 174.464C18.601 173.564 17.871 172.834 16.9704 172.834C16.0699 172.834 15.3398 173.564 15.3398 174.464C15.3398 175.365 16.0699 176.095 16.9704 176.095Z" fill="#9192FF"/>
<path d="M29.8659 188.105C30.7665 188.105 31.4965 187.375 31.4965 186.474C31.4965 185.574 30.7665 184.844 29.8659 184.844C28.9654 184.844 28.2354 185.574 28.2354 186.474C28.2354 187.375 28.9654 188.105 29.8659 188.105Z" fill="#9192FF"/>
<path d="M38.7634 163.198C39.6639 163.198 40.394 162.468 40.394 161.568C40.394 160.667 39.6639 159.937 38.7634 159.937C37.8629 159.937 37.1328 160.667 37.1328 161.568C37.1328 162.468 37.8629 163.198 38.7634 163.198Z" fill="#9192FF"/>
<path d="M69.9775 147.74H28.4717V148.333H69.9775V147.74Z" fill="#9192FF"/>
<path d="M233.02 293.339C231.265 281.84 233.677 269.751 239.709 259.805C245.742 249.86 255.348 242.135 266.356 238.377C260.122 242.74 256.317 249.792 253.663 256.923C251.008 264.054 249.266 271.538 245.99 278.405C242.714 285.273 237.549 291.689 230.388 294.258L233.02 293.339Z" fill="#9192FF"/>
<path d="M231.294 293.434C231.045 280.144 228.464 266.902 223.703 254.492C222.013 250.086 219.986 245.686 216.69 242.309C213.394 238.93 208.601 236.705 203.954 237.53C209.741 241.861 212.739 248.986 214.427 256.015C216.115 263.043 216.765 270.336 219.142 277.162C221.519 283.989 226.066 290.568 232.87 293.008L231.294 293.434Z" fill="#9192FF"/>
<path d="M230.389 294.305C227.08 285.395 223.484 276.261 216.831 269.474C210.178 262.687 199.637 258.803 190.924 262.598C197.98 264.199 204.446 268.284 208.921 273.969C212.203 278.139 214.41 283.082 217.785 287.176C221.16 291.27 226.309 294.568 231.524 293.591L230.389 294.305Z" fill="#D1D1FF"/>
<path d="M229.33 293.697C227.974 283.919 226.618 273.984 228.047 264.216C229.475 254.448 234.094 244.696 242.369 239.314C237.789 243.806 236.259 250.61 236.257 257.025C236.255 263.441 237.554 269.797 237.664 276.212C237.774 282.626 236.5 289.44 232.161 294.166L229.33 293.697Z" fill="#D1D1FF"/>
<path d="M233.912 292.275C237.083 284.194 240.464 275.805 246.923 270.004C251.07 266.28 256.352 263.837 261.876 263.09C258.004 266.18 255.578 270.708 253.567 275.236C251.556 279.763 249.82 284.479 246.908 288.487C243.996 292.495 239.62 295.793 234.671 296.004L233.912 292.275Z" fill="#D1D1FF"/>
<path d="M250.015 316.858H214.395L208.903 289.457H255.507L250.015 316.858Z" fill="white"/>
<path d="M250.257 317.156H214.151L208.541 289.162H255.868L250.257 317.156ZM214.637 316.563H249.771L255.144 289.755H209.264L214.637 316.563Z" fill="#9192FF"/>
<path d="M313.785 300.383V316.86H292.416L302.199 308.878L302.714 298.838L313.785 300.383Z" fill="#D1D1FF"/>
<path d="M302.414 308.658L302.006 309.088L306.085 312.968L306.494 312.539L302.414 308.658Z" fill="#1B1B43"/>
<path d="M311.713 304.752H304.4V305.345H311.713V304.752Z" fill="#1B1B43"/>
<path d="M338.757 301.164L339.53 316.868H318.161L327.172 309.145V299.619L338.757 301.164Z" fill="#D1D1FF"/>
<path d="M327.367 308.892L326.975 309.336L330.293 312.267L330.685 311.823L327.367 308.892Z" fill="#1B1B43"/>
<path d="M336.814 305.057H329.6V305.65H336.814V305.057Z" fill="#1B1B43"/>
<path d="M315.937 205.677C316.304 238.509 319.026 270.819 324.229 302.577H342.235C338.489 278.289 336.796 248.796 338.89 209.692L325.887 199.043L315.937 205.677Z" fill="#FE5B52"/>
<path d="M301.701 210.018L293.553 246.252C291.595 254.959 291.459 263.977 293.154 272.739L298.877 302.337H316.883L311.434 263.482L324.465 204.252L301.701 210.018Z" fill="#FE5B52"/>
<path d="M317.148 244.744C317.102 243.998 316.077 227.333 315.97 225.222L311.265 223.51L311.467 222.953L316.554 224.803V225.011C316.556 225.376 317.33 238.054 317.74 244.708L317.148 244.744Z" fill="#BE443D"/>
<path d="M356.132 128.209L357.095 125.912C357.095 125.912 353.612 118.574 354.724 117.611C355.836 116.647 357.614 119.389 357.614 119.389C357.614 119.389 357.095 110.495 358.8 110.421C360.238 110.358 360.134 112.941 360.283 116.795C360.283 116.795 361.172 115.609 362.808 116.835C363.544 115.609 365.1 116.425 365.545 117.166C366.064 116.573 368.213 116.721 367.917 119.241C367.541 122.437 366.063 128.358 366.063 128.358L361.32 132.286L356.132 128.209Z" fill="#FFBC96"/>
<path d="M318.032 158.892L325.245 158.835C337.897 157.706 347.779 147.428 347.779 147.428L356.129 128.207L366.06 128.355L360.231 150.945C359.394 154.189 357.59 157.103 355.059 159.298L334.338 177.273L318.032 158.892Z" fill="#3335CF"/>
<path d="M298.267 175.253L301.7 210.02L338.889 209.692L337.604 167.791L318.037 158.896L304.498 164.628L298.267 175.253Z" fill="#3335CF"/>
<path d="M275.235 178.619C274.627 178.08 273.864 177.752 273.054 177.684C268.944 177.342 256.092 176.35 256.217 177.346C256.365 178.532 266.148 182.979 266.148 182.979C268.241 185.334 270.333 187.688 272.425 190.043L278.174 181.228L275.235 178.619Z" fill="#FFBC96"/>
<path d="M303.265 162.236C300.615 162.699 298.339 164.382 297.119 166.779L286.16 188.319L278.174 181.232L272.425 190.047C273.124 190.834 273.824 191.621 274.523 192.408C277.628 195.902 281.248 200.597 286.096 201.615C288.566 202.133 290.866 201.107 292.636 199.408C293.934 198.162 295.094 196.623 296.02 195.08L300.39 187.875L314.324 160.303L303.265 162.236Z" fill="#3335CF"/>
<path d="M298.546 175.243L297.956 175.301L300.037 196.695L300.627 196.638L298.546 175.243Z" fill="#D1D1FF"/>
<path d="M337.825 174.162L334.341 177.275L338.047 183.427L337.825 174.162Z" fill="#1B1B43"/>
<path d="M361.569 121.213C360.171 121.213 360.062 119.381 360.062 116.791H360.506C360.507 119.839 360.755 120.769 361.569 120.769C361.732 120.769 361.871 120.704 361.996 120.57C362.392 120.145 362.546 119.152 362.593 118.261C362.562 117.616 362.578 117.055 362.587 116.822L363.031 116.815C363.035 116.87 363.075 117.469 363.041 118.207C363.103 119.415 363.306 120.608 363.709 120.729C363.934 120.796 364.129 120.768 364.305 120.641C364.785 120.295 365.054 119.317 365.194 118.443C365.207 118.068 365.248 117.632 365.327 117.127L365.769 117.169C365.767 117.219 365.749 117.725 365.656 118.364C365.624 119.288 365.729 120.184 366.103 120.341C366.38 120.458 366.609 120.457 366.802 120.339C367.311 120.028 367.496 118.98 367.524 118.603L367.967 118.636C367.962 118.701 367.839 120.226 367.034 120.718C366.714 120.914 366.343 120.925 365.93 120.751C365.827 120.708 365.499 120.518 365.316 119.824C365.141 120.321 364.899 120.761 364.565 121.001C364.273 121.211 363.942 121.263 363.581 121.155C363.19 121.037 362.948 120.538 362.8 119.914C362.69 120.302 362.537 120.642 362.321 120.874C362.11 121.099 361.858 121.213 361.569 121.213Z" fill="#D28572"/>
<path d="M314.9 167.332C311.739 167.587 308.976 165.233 308.721 162.078L308.656 161.278L307.755 150.095L314.722 149.538L319.192 149.176L320.153 161.153C320.408 164.314 318.054 167.077 314.9 167.332Z" fill="#FFBC96"/>
<path d="M316.951 153.314C314.781 157.139 311.674 159.89 308.656 161.283L307.755 150.101L314.722 149.543L316.951 153.314Z" fill="#1B1B43"/>
<path d="M319.222 141.6L317.84 153.263C317.84 153.263 313.393 157.515 306.871 157.313C304.493 157.242 303.094 154.989 302.276 152.125C301.938 150.927 301.701 149.629 301.535 148.33C300.989 144.037 301.238 139.821 301.238 139.821L311.318 136.465L319.222 141.6Z" fill="#FFBC96"/>
<path d="M317.689 146.396C316.64 142.654 314.754 140.772 312.205 140.368C304.101 144.765 298.84 142.146 295.01 137.255C304.398 139.083 308.499 125.742 317.492 134.636C324.163 136.662 324.04 143.036 320.26 148.224L317.689 146.396Z" fill="#1B1B43"/>
<path d="M321.851 147.84C322.195 146.079 321.236 144.41 319.709 144.112C318.183 143.814 316.667 144.999 316.323 146.76C315.979 148.52 316.937 150.189 318.464 150.487C319.991 150.786 321.507 149.6 321.851 147.84Z" fill="#FFBC96"/>
<path d="M320.148 146.081C319.682 146.16 319.383 146.511 319.157 146.911C318.935 147.318 318.791 147.769 318.703 148.257L318.53 148.267C318.456 148.007 318.455 147.729 318.5 147.463C318.544 147.195 318.635 146.934 318.771 146.694C318.909 146.456 319.091 146.232 319.334 146.073C319.571 145.914 319.886 145.831 320.161 145.908L320.148 146.081Z" fill="#1B1B43"/>
<path d="M303.659 146.862C303.659 147.367 303.416 147.776 303.116 147.776C302.815 147.776 302.572 147.366 302.572 146.862C302.572 146.357 302.815 145.948 303.116 145.948C303.416 145.948 303.659 146.357 303.659 146.862Z" fill="#1B1B43"/>
<path d="M308.15 146.491C308.15 147.038 307.886 147.481 307.561 147.481C307.236 147.481 306.972 147.038 306.972 146.491C306.972 145.944 307.236 145.5 307.561 145.5C307.886 145.5 308.15 145.944 308.15 146.491Z" fill="#1B1B43"/>
<path d="M304.891 147.603C304.893 147.779 304.823 147.95 304.738 148.099C304.649 148.246 304.542 148.372 304.436 148.488C304.226 148.718 304.03 148.928 303.985 149.146C303.926 149.37 304.013 149.59 304.185 149.812C304.358 150.029 304.591 150.226 304.816 150.445L304.72 150.59C304.43 150.467 304.144 150.314 303.896 150.074C303.773 149.954 303.662 149.806 303.59 149.625C303.52 149.443 303.504 149.235 303.554 149.044C303.603 148.852 303.703 148.684 303.818 148.554C303.932 148.423 304.054 148.314 304.171 148.216C304.403 148.015 304.623 147.842 304.719 147.576L304.891 147.603Z" fill="#1B1B43"/>
<path d="M305.321 152.54C305.947 152.401 306.527 152.202 307.046 151.879C307.306 151.72 307.551 151.536 307.786 151.333C308.021 151.13 308.246 150.91 308.48 150.686L308.621 150.788C308.33 151.382 307.862 151.905 307.276 152.258C306.692 152.611 305.994 152.78 305.331 152.713L305.321 152.54Z" fill="#1B1B43"/>
<path d="M306.85 144.035C306.723 144.704 308.825 144.919 309.204 144.986C309.515 145.04 309.959 145.076 310.025 144.604C310.106 144.017 309.469 143.956 309.109 143.878C308.764 143.803 306.97 143.402 306.85 144.035Z" fill="#1B1B43"/>
<path d="M303.923 144.443C303.912 145.09 302.24 145.155 301.934 145.193C301.683 145.224 301.331 145.228 301.358 144.773C301.391 144.209 301.897 144.193 302.19 144.142C302.471 144.094 303.933 143.832 303.923 144.443Z" fill="#1B1B43"/>
<path opacity="0.2" d="M311.773 150.635C312.96 150.635 313.923 149.673 313.923 148.486C313.923 147.299 312.96 146.336 311.773 146.336C310.586 146.336 309.624 147.299 309.624 148.486C309.624 149.673 310.586 150.635 311.773 150.635Z" fill="#FE5B52"/>
<path opacity="0.2" d="M303.142 150.41C303.142 151.115 302.804 151.738 302.276 152.123C301.938 150.925 301.701 149.627 301.535 148.328C302.46 148.571 303.142 149.413 303.142 150.41Z" fill="#FE5B52"/>
<path d="M149.936 219.672H108.688V222.449H149.936V219.672Z" fill="#9192FF"/>
<path d="M149.935 219.667H115.1L128.293 187.5H163.128L149.935 219.667Z" fill="white"/>
<path d="M150.132 219.965H114.656L128.092 187.205H163.568L150.132 219.965ZM115.54 219.372H149.735L162.685 187.798H128.49L115.54 219.372Z" fill="#9192FF"/>
<path d="M146.927 216.969H119.551L129.919 191.689H157.295L146.927 216.969Z" fill="#EBEBFF"/>
<path d="M136.07 223.338H135.477V317.017H136.07V223.338Z" fill="#1B1B43"/>
<path d="M169.043 222.449H102.502V227.742H169.043V222.449Z" fill="#D1D1FF"/>
<path d="M48.8058 262.689H48.2129V317.018H48.8058V262.689Z" fill="#1B1B43"/>
<path d="M64.7816 265.206H32.2363C32.9272 261.902 35.8402 259.535 39.2157 259.535H57.8022C61.1777 259.535 64.0907 261.902 64.7816 265.206Z" fill="#D1D1FF"/>
<path d="M56.955 316.858H40.0586C40.0586 314.804 41.724 313.139 43.7785 313.139H53.2354C55.2896 313.138 56.955 314.804 56.955 316.858Z" fill="#D1D1FF"/>
<path d="M73.6212 182.076C74.4537 183.273 75.6469 184.967 75.779 186.448C75.9707 188.601 72.5259 187.092 72.4854 187.278C72.4851 187.277 73.6212 182.076 73.6212 182.076Z" fill="#D28572"/>
<path d="M68.3628 184.609H57.4707V200.572H68.3628V184.609Z" fill="#FFBC96"/>
<path d="M68.3608 187.348V198.744C64.9286 196.588 61.9618 193.385 59.3975 189.689L68.3608 187.348Z" fill="#1B1B43"/>
<path d="M74.4838 183.044C74.1446 188.558 72.0231 194.796 66.2331 193.257C61.6853 192.048 56.6797 188.219 56.6797 182.694C56.6797 177.17 60.5032 172.691 65.2199 172.691C68.1678 172.691 71.8793 174.122 73.6262 176.885C74.6742 178.543 74.6318 180.64 74.4838 183.044Z" fill="#FFBC96"/>
<path d="M64.8428 181.445C66.3847 177.356 69.9144 176.954 69.9144 176.954C69.9144 176.954 78.0865 185.037 77.5804 176.685C77.1781 170.048 70.6916 170.676 70.6916 170.676C67.5227 166.55 62.4405 168.164 60.5869 170.556C58.7334 172.948 59.3911 171.573 55.0264 173.127C50.6616 174.681 52.9935 181.318 52.2163 181.797C46.4166 181.797 47.4929 187.536 47.4929 187.536L61.2226 192.015L64.5298 182.987L64.8428 181.445Z" fill="#1B1B43"/>
<path d="M66.2744 181.911C67.1232 183.381 66.8939 185.103 65.7616 185.756C64.6296 186.41 63.0237 185.748 62.1746 184.277C61.3257 182.807 61.5551 181.085 62.6873 180.432C63.8196 179.778 65.4255 180.44 66.2744 181.911Z" fill="#FFBC96"/>
<path d="M64.5212 183.679C64.3281 183.306 64.1659 182.944 63.9057 182.69C63.7784 182.563 63.6304 182.459 63.4622 182.368C63.294 182.277 63.1069 182.201 62.915 182.11L62.9445 181.956C63.1622 181.944 63.383 181.969 63.5998 182.042C63.8161 182.113 64.0262 182.239 64.1913 182.41C64.3566 182.58 64.4764 182.785 64.5508 182.996C64.627 183.207 64.6675 183.424 64.6737 183.641L64.5212 183.679Z" fill="#1B1B43"/>
<path d="M59.3907 173.804C61.9363 173.683 63.894 171.35 63.7634 168.592C63.6328 165.834 61.4634 163.696 58.9178 163.817C56.3722 163.937 54.4145 166.271 54.545 169.029C54.6756 171.786 56.8451 173.924 59.3907 173.804Z" fill="#1B1B43"/>
<path opacity="0.2" d="M69.7442 188.246C70.8904 188.246 71.8195 187.317 71.8195 186.171C71.8195 185.025 70.8904 184.096 69.7442 184.096C68.5981 184.096 67.6689 185.025 67.6689 186.171C67.6689 187.317 68.5981 188.246 69.7442 188.246Z" fill="#FE5B52"/>
<path d="M77.8983 239.832L43.0156 235.385L49.5913 200.716C50.0538 198.291 51.6666 196.233 53.9139 195.213C55.7876 194.36 57.9281 194.306 59.8492 195.059L71.7376 200.342C74.0264 201.356 75.6036 203.509 75.8882 205.993L76.5583 217.318L77.3231 230.155L77.8983 239.832Z" fill="#FFA121"/>
<path d="M109.816 214.929L119.049 212.215C119.714 212.019 120.429 212.127 121.007 212.51C123.534 214.188 130.261 218.935 128.563 220.876C127.715 221.845 119.995 219.573 119.995 219.573L108.816 222.693L109.816 214.929Z" fill="#FFBC96"/>
<path d="M77.3232 230.153C74.4178 226.453 72.6923 221.568 72.1172 215.52L76.5583 217.316L77.3232 230.153Z" fill="#1B1B43"/>
<path d="M70.6825 199.906L72.0724 200.505C74.9337 201.739 77.498 203.57 79.5925 205.877L91.0401 218.485L109.817 214.927L112.287 225.007L88.6946 232.381C86.8316 232.712 84.9283 232.07 83.648 230.677L66.6309 212.16L70.6825 199.906Z" fill="#FFA121"/>
<path d="M90.822 218.684C90.7662 218.623 85.181 212.542 80.3438 207.118C75.5619 201.756 68.2713 199.15 68.1982 199.124L68.3949 198.564C68.4693 198.591 75.9003 201.245 80.7864 206.723C85.6207 212.144 91.2029 218.222 91.2586 218.282L90.822 218.684Z" fill="#1B1B43"/>
<path d="M68.0256 214.117L67.5996 214.529L83.431 230.87L83.857 230.458L68.0256 214.117Z" fill="#1B1B43"/>
<path d="M76.6325 292.266L69.1074 306.924L88.1176 316.683L83.0591 305.115L87.1864 295.947L76.6325 292.266Z" fill="#D1D1FF"/>
<path d="M82.9812 304.828L77.5801 306.418L77.7475 306.987L83.1487 305.397L82.9812 304.828Z" fill="#1B1B43"/>
<path d="M88.4706 301.902L71.2493 295.476L83.0424 258.78C85.0698 253.347 91.3146 250.659 96.9905 252.776C102.667 254.894 105.624 261.016 103.597 266.449L88.4706 301.902Z" fill="#26289C"/>
<path d="M105.175 299.427L106.856 316.869H128.225L118.441 308.888L116.144 298.834L105.175 299.427Z" fill="#D1D1FF"/>
<path d="M118.298 308.612L113.233 311.404L113.52 311.924L118.584 309.131L118.298 308.612Z" fill="#1B1B43"/>
<path d="M120.592 301.501L101.914 304.466L89.1245 266.856L86.7943 259.996L55.0305 260.251C47.174 260.429 40.9244 253.699 41.6953 245.872L43.0175 235.389L74.4433 239.344L95.0954 241.615C103.693 243.097 106.332 248.303 108.122 254.991L120.592 301.501Z" fill="#3335CF"/>
<path d="M89.1249 266.856L86.7947 259.996L91.0935 259.847C91.4908 262.433 90.465 265.32 89.1249 266.856Z" fill="#1B1B43"/>
<path d="M372.588 316.572H12.6738V317.165H372.588V316.572Z" fill="#1B1B43"/>
</svg>
