<svg width="450" height="302" viewBox="0 0 450 302" fill="none" xmlns="http://www.w3.org/2000/svg">
<path d="M42.5613 288.754C42.5613 288.754 -22.936 241.799 17.6078 182.247C58.1516 122.696 41.0878 32.358 88.7923 9.97366C136.498 -12.4107 190.583 55.0265 256.682 44.6334C322.781 34.2402 385.804 2.54588 412.646 44.6334C433.499 77.3295 381.128 125.819 409.908 177.421C438.689 229.022 413.906 287.84 413.906 287.84L42.5613 288.754Z" fill="#C3D0E2"/>
<path d="M63.5147 279.654C63.5147 279.654 16.0738 282.776 38.081 291.969C60.0881 301.163 193.412 297.908 260.611 301.132C327.811 304.356 464.516 286.769 412.132 281.536C359.748 276.304 63.5147 279.654 63.5147 279.654Z" fill="#5B83B2"/>
<path d="M55.5615 279.442H83.7886C83.7886 279.442 156.142 181.34 102.585 175.288C22.3858 166.225 55.5615 279.442 55.5615 279.442Z" fill="#FEC008"/>
<path d="M55.5611 279.443C55.5611 279.443 43.6886 215.37 18.6262 214.753C-6.43549 214.135 11.1079 257.034 45.5682 279.443H55.5611Z" fill="#FEC008"/>
<path d="M70.9649 279.442C70.9649 279.442 65.7362 235.139 94.2743 190.836" stroke="url(#paint0_linear_48_16058)" stroke-width="3.1929" stroke-miterlimit="10"/>
<path d="M51.6031 279.442C51.6031 279.442 27.5412 224.422 14.7588 221.979" stroke="url(#paint1_linear_48_16058)" stroke-width="3.1929" stroke-miterlimit="10"/>
<path d="M347.49 282.708H384.511C384.511 282.708 479.408 154.039 409.164 146.101C303.978 134.215 347.49 282.708 347.49 282.708Z" fill="#3DDB86"/>
<path d="M367.693 282.708C367.693 282.708 360.836 224.601 398.266 166.494" stroke="#14723A" stroke-width="4.5072" stroke-miterlimit="10"/>
<path d="M347.49 282.709C347.49 282.709 331.918 198.672 299.047 197.862C266.177 197.053 289.186 253.317 334.384 282.709H347.49Z" fill="#1D964E"/>
<path d="M342.3 282.709C342.3 282.709 310.742 210.547 293.976 207.342" stroke="#14723A" stroke-width="4.5072" stroke-miterlimit="10"/>
<path d="M381.129 282.708C381.129 282.708 400.986 223.609 424.103 223.039C447.219 222.47 431.038 262.038 399.252 282.708H381.129Z" fill="#1D964E"/>
<path d="M389.508 282.708C389.508 282.708 413.642 243.733 421.642 238.078" stroke="#14723A" stroke-width="3.1697" stroke-miterlimit="10"/>
<path d="M444.806 0H299.146V136.6H444.806V0Z" fill="#F2F2F2"/>
<path d="M444.806 0H299.146V12.4046H444.806V0Z" fill="#474777"/>
<path d="M435.354 3.04297L441.673 9.36137" stroke="#F2F2F2" stroke-width="1.6569" stroke-miterlimit="10" stroke-linecap="round"/>
<path d="M441.673 3.04297L435.354 9.36137" stroke="#F2F2F2" stroke-width="1.6569" stroke-miterlimit="10" stroke-linecap="round"/>
<path d="M402.789 36.5334H359.921V42.0088H402.789V36.5334Z" fill="#6A88DB"/>
<path d="M426.078 26.7073H359.921V32.1827H426.078V26.7073Z" fill="#6A88DB"/>
<path d="M426.077 46.4866H374.69V51.9619H426.077V46.4866Z" fill="#AEC2FB"/>
<path d="M426.077 57.012H374.69V62.4873H426.077V57.012Z" fill="#AEC2FB"/>
<path d="M426.078 67.5393H338.248V73.0147H426.078V67.5393Z" fill="#AEC2FB"/>
<path d="M368.274 47.4217V51.7772H363.405V47.4217H368.274ZM369.129 46.5669H362.55V52.6321H369.129V46.5669Z" fill="#AEC2FB"/>
<path d="M369.704 46.7817L365.826 50.6596L363.804 48.637" stroke="#39B54A" stroke-width="1.9794" stroke-miterlimit="10" stroke-linecap="round" stroke-linejoin="round"/>
<path d="M368.274 57.4175V61.773H363.405V57.4175H368.274ZM369.129 56.5626H362.55V62.6278H369.129V56.5626Z" fill="#AEC2FB"/>
<path d="M367.934 57.4298L363.744 61.62" stroke="#A5162E" stroke-width="1.9024" stroke-miterlimit="10" stroke-linecap="round"/>
<path d="M363.514 57.1993L368.166 61.8507" stroke="#A5162E" stroke-width="1.9024" stroke-miterlimit="10" stroke-linecap="round"/>
<path d="M350.975 23.76H310.393V61.9125H350.975V23.76Z" fill="#6A88DB"/>
<path d="M346.083 53.1872V61.9159H315.283V54.3176C315.283 49.0889 318.544 44.6212 323.142 42.844C325.06 44.795 327.734 46.0015 330.686 46.0015C333.762 46.0015 336.534 44.692 338.468 42.594C342.893 44.078 346.083 48.2577 346.083 53.1872Z" fill="#AEC2FB"/>
<path d="M339.38 37.4678C340.521 32.6642 337.552 27.8451 332.748 26.7041C327.945 25.5631 323.126 28.5321 321.985 33.3357C320.844 38.1393 323.813 42.9584 328.616 44.0995C333.42 45.2405 338.239 42.2714 339.38 37.4678Z" fill="#AEC2FB"/>
<path d="M377.937 113.039C377.937 113.501 377.928 113.958 377.903 114.412H366.09C366.123 113.958 366.139 113.501 366.139 113.039C366.139 108.232 364.36 103.837 361.42 100.481L369.774 92.127C374.839 97.6286 377.937 104.972 377.937 113.039Z" fill="#31C972"/>
<path d="M328.001 113.041C328.001 113.503 328.017 113.96 328.051 114.414H316.237C316.213 113.96 316.204 113.503 316.204 113.041C316.204 104.766 319.464 97.2481 324.77 91.7012L333.116 100.047C329.938 103.452 328.001 108.022 328.001 113.041Z" fill="#DD510B"/>
<path d="M347.487 82.1781V93.9751C347.35 93.9712 347.213 93.9712 347.071 93.9712C341.561 93.9712 336.596 96.308 333.116 100.046L324.77 91.7006C330.388 85.8336 338.301 82.1741 347.071 82.1741C347.208 82.1735 347.35 82.1735 347.487 82.1781Z" fill="#E28E07"/>
<path d="M369.774 92.128L361.42 100.482C358.01 96.5898 353.041 94.0949 347.485 93.9748V82.1777C356.297 82.2939 364.218 86.1029 369.774 92.128Z" fill="#FEC008"/>
<path d="M347.173 115.119C348.866 115.119 350.239 113.746 350.239 112.053C350.239 110.359 348.866 108.986 347.173 108.986C345.479 108.986 344.106 110.359 344.106 112.053C344.106 113.746 345.479 115.119 347.173 115.119Z" fill="#1D0D90"/>
<path d="M380.884 113.041H313.461V115.12H380.884V113.041Z" fill="#6A88DB"/>
<path d="M347.333 112.053L322.397 95.7539L349.02 110.649L347.333 112.053Z" fill="#1D0D90"/>
<path d="M426.078 124.352H310.393V129.827H426.078V124.352Z" fill="#AEC2FB"/>
<path d="M423.074 85.1038V113.004H395.174V85.1038H423.074ZM425.248 82.9297H393V115.178H425.248V82.9297Z" fill="#AEC2FB"/>
<path d="M417.789 107.628C422.577 102.84 422.577 95.0777 417.789 90.2898C413.001 85.5019 405.238 85.5019 400.45 90.2898C395.663 95.0777 395.663 102.84 400.45 107.628C405.238 112.416 413.001 112.416 417.789 107.628Z" fill="#A5162E"/>
<path d="M416.411 106.25C420.437 102.223 420.437 95.6949 416.411 91.6685C412.384 87.642 405.856 87.642 401.83 91.6685C397.803 95.6949 397.803 102.223 401.83 106.25C405.856 110.276 412.384 110.276 416.411 106.25Z" fill="#E21742"/>
<path d="M404.852 92.6016L403.1 94.3538L413.498 104.752L415.25 103L404.852 92.6016Z" fill="#F5FAFF"/>
<path d="M415.256 94.3555L413.504 92.6034L403.105 103.002L404.858 104.754L415.256 94.3555Z" fill="#F5FAFF"/>
<path d="M356.235 273.784H88.0225V119.121C88.0225 113.174 92.8432 108.354 98.7903 108.354H345.468C351.415 108.354 356.235 113.174 356.235 119.121V273.784Z" fill="#393963"/>
<path d="M386.583 273.781V282.408C386.583 282.635 386.569 282.863 386.525 283.083H57.7387C57.6947 282.863 57.6796 282.635 57.6796 282.408V273.781H386.583Z" fill="#999999"/>
<path d="M386.525 283.084C386.209 285.301 384.3 286.997 381.995 286.997H62.2682C59.9557 286.997 58.0544 285.301 57.7382 283.084H386.525Z" fill="#CBCACF"/>
<path d="M245.439 279.045H198.82C197.637 279.045 196.679 278.086 196.679 276.903V273.783H247.58V276.903C247.58 278.086 246.621 279.045 245.439 279.045Z" fill="#CCCCCC"/>
<path d="M356.235 265.953H88.0224V273.784H356.235V265.953Z" fill="#545356"/>
<path d="M345.468 120.1H98.791V265.952H345.468V120.1Z" fill="#C5CCE9"/>
<path d="M315.561 238.533L214.258 238.573C206.827 238.575 200.801 232.554 200.798 225.124L200.77 154.686C200.768 147.256 206.789 141.229 214.219 141.227L315.523 141.188C322.953 141.185 328.979 147.206 328.982 154.637L329.01 225.074C329.013 232.505 322.991 238.531 315.561 238.533Z" fill="#6A88DB"/>
<mask id="mask0_48_16058" style="mask-type:luminance" maskUnits="userSpaceOnUse" x="200" y="141" width="130" height="98">
<path d="M315.561 238.533L214.258 238.573C206.827 238.575 200.801 232.554 200.798 225.124L200.77 154.686C200.768 147.256 206.789 141.229 214.219 141.227L315.523 141.188C322.953 141.185 328.979 147.206 328.982 154.637L329.01 225.074C329.013 232.505 322.991 238.531 315.561 238.533Z" fill="white"/>
</mask>
<g mask="url(#mask0_48_16058)">
<path d="M211.648 96.6914V283.072" stroke="#D2E3FF" stroke-width="0.5595" stroke-miterlimit="10"/>
<path d="M226.985 96.6914V283.072" stroke="#D2E3FF" stroke-width="0.5595" stroke-miterlimit="10"/>
<path d="M242.323 96.6914V283.072" stroke="#D2E3FF" stroke-width="0.5595" stroke-miterlimit="10"/>
<path d="M257.66 96.6914V283.072" stroke="#D2E3FF" stroke-width="0.5595" stroke-miterlimit="10"/>
<path d="M272.997 96.6914V283.072" stroke="#D2E3FF" stroke-width="0.5595" stroke-miterlimit="10"/>
<path d="M288.335 96.6914V283.072" stroke="#D2E3FF" stroke-width="0.5595" stroke-miterlimit="10"/>
<path d="M303.673 96.6914V283.072" stroke="#D2E3FF" stroke-width="0.5595" stroke-miterlimit="10"/>
<path d="M319.01 96.6914V283.072" stroke="#D2E3FF" stroke-width="0.5595" stroke-miterlimit="10"/>
<path d="M124.256 154.524H400.874" stroke="#D2E3FF" stroke-width="0.5595" stroke-miterlimit="10"/>
<path d="M124.256 169.859H400.874" stroke="#D2E3FF" stroke-width="0.5595" stroke-miterlimit="10"/>
<path d="M124.256 185.197H400.874" stroke="#D2E3FF" stroke-width="0.5595" stroke-miterlimit="10"/>
<path d="M124.256 200.535H400.874" stroke="#D2E3FF" stroke-width="0.5595" stroke-miterlimit="10"/>
<path d="M124.256 215.871H400.874" stroke="#D2E3FF" stroke-width="0.5595" stroke-miterlimit="10"/>
<path d="M124.256 231.211H400.874" stroke="#D2E3FF" stroke-width="0.5595" stroke-miterlimit="10"/>
</g>
<path d="M209.107 224.328C209.107 224.328 216.627 227.195 219.591 217.399C222.555 207.604 230.275 216.208 235.908 201.367C241.542 186.525 249.555 186.522 253.416 192.753C257.276 198.984 263.215 206.303 269.144 189.879C275.074 173.454 277.445 165.44 283.974 164.547C290.503 163.654 294.666 184.725 302.975 183.237C311.285 181.75 309.201 166.56 320.182 164.506" stroke="#C5CCE9" stroke-width="3.6191" stroke-miterlimit="10"/>
<path d="M211.459 223.957C211.459 225.161 210.484 226.136 209.28 226.136C208.076 226.136 207.101 225.16 207.101 223.957C207.101 222.753 208.076 221.777 209.28 221.777C210.484 221.777 211.459 222.753 211.459 223.957Z" fill="#C5CCE9"/>
<path d="M320.182 166.685C321.386 166.685 322.362 165.709 322.362 164.506C322.362 163.302 321.386 162.326 320.182 162.326C318.979 162.326 318.003 163.302 318.003 164.506C318.003 165.709 318.979 166.685 320.182 166.685Z" fill="#C5CCE9"/>
<path d="M322.716 255.831H148.476C144.928 255.831 142.052 252.954 142.052 249.407C142.052 245.859 144.928 242.983 148.476 242.983H322.716C326.264 242.983 329.14 245.859 329.14 249.407C329.14 252.954 326.264 255.831 322.716 255.831Z" stroke="#95A0C1" stroke-width="2.2381" stroke-miterlimit="10"/>
<path d="M294.428 135.373L299.2 150.79L302.688 147.12L308.378 152.809L313.027 148.404L306.726 142.714L310.58 138.983L294.428 135.373Z" fill="#95A0C1"/>
<path d="M292.104 135.373L296.876 150.79L300.363 147.12L306.053 152.809L310.702 148.404L304.401 142.714L308.255 138.983L292.104 135.373Z" fill="#F2F2F2"/>
<path d="M242.119 47.2893H35.6826V240.887H242.119V47.2893Z" fill="#F2F2F2"/>
<path d="M242.119 47.2893H35.6826V64.8694H242.119V47.2893Z" fill="#474777"/>
<path d="M228.723 51.6018L237.677 60.5562" stroke="#F2F2F2" stroke-width="2.3482" stroke-miterlimit="10" stroke-linecap="round"/>
<path d="M237.677 51.6018L228.723 60.5562" stroke="#F2F2F2" stroke-width="2.3482" stroke-miterlimit="10" stroke-linecap="round"/>
<path d="M182.571 99.0686H121.815V106.829H182.571V99.0686Z" fill="#6A88DB"/>
<path d="M215.578 85.1409H121.815V92.9013H215.578V85.1409Z" fill="#6A88DB"/>
<path d="M215.578 113.172H141.884V120.933H215.578V113.172Z" fill="#AEC2FB"/>
<path d="M215.578 128.09H141.884V135.85H215.578V128.09Z" fill="#AEC2FB"/>
<path d="M215.579 143.008H91.1006V150.768H215.579V143.008Z" fill="#AEC2FB"/>
<path d="M135.162 113.8V120.301H127.893V113.8H135.162ZM136.438 112.524H126.617V121.577H136.438V112.524Z" fill="#AEC2FB"/>
<path d="M137.295 112.844L131.506 118.633L128.487 115.614" stroke="#39B54A" stroke-width="2.9547" stroke-miterlimit="10" stroke-linecap="round" stroke-linejoin="round"/>
<path d="M135.161 128.719V135.22H127.892V128.719H135.161ZM136.437 127.444H126.616V136.497H136.437V127.444Z" fill="#AEC2FB"/>
<path d="M137.295 127.762L131.506 133.55L128.487 130.531" stroke="#39B54A" stroke-width="2.9547" stroke-miterlimit="10" stroke-linecap="round" stroke-linejoin="round"/>
<path d="M109.138 80.9631H51.623V135.035H109.138V80.9631Z" fill="#6A88DB"/>
<path d="M102.205 122.666V135.036H58.5528V124.268C58.5528 116.858 63.1746 110.526 69.6912 108.007C72.4105 110.772 76.1998 112.482 80.3828 112.482C84.7429 112.482 88.6713 110.626 91.4136 107.653C97.6834 109.756 102.205 115.679 102.205 122.666Z" fill="#AEC2FB"/>
<path d="M89.3374 106.405C94.2854 101.457 94.2854 93.4344 89.3374 88.4864C84.3894 83.5384 76.3671 83.5384 71.4191 88.4864C66.4711 93.4344 66.4711 101.457 71.4191 106.405C76.3671 111.353 84.3894 111.353 89.3374 106.405Z" fill="#AEC2FB"/>
<path d="M147.348 207.493C147.348 208.147 147.336 208.796 147.301 209.438H130.558C130.605 208.796 130.629 208.147 130.629 207.493C130.629 200.681 128.106 194.452 123.939 189.695L135.779 177.856C142.958 185.653 147.348 196.06 147.348 207.493Z" fill="#31C972"/>
<path d="M76.5748 207.493C76.5748 208.147 76.5984 208.795 76.6457 209.437H59.9027C59.8672 208.795 59.8554 208.147 59.8554 207.493C59.8554 195.765 64.476 185.11 71.9956 177.248L83.8235 189.076C79.3211 193.903 76.5748 200.38 76.5748 207.493Z" fill="#DD510B"/>
<path d="M104.191 163.752V180.472C103.997 180.466 103.802 180.466 103.602 180.466C95.7936 180.466 88.7568 183.777 83.824 189.076L71.9961 177.248C79.9579 168.932 91.173 163.746 103.602 163.746C103.796 163.746 103.996 163.746 104.191 163.752Z" fill="#E28E07"/>
<path d="M135.779 177.855L123.94 189.694C119.107 184.178 112.065 180.642 104.191 180.472V163.752C116.679 163.918 127.906 169.315 135.779 177.855Z" fill="#FEC008"/>
<path d="M103.747 210.441C106.147 210.441 108.093 208.495 108.093 206.095C108.093 203.694 106.147 201.748 103.747 201.748C101.346 201.748 99.4005 203.694 99.4005 206.095C99.4005 208.495 101.346 210.441 103.747 210.441Z" fill="#1D0D90"/>
<path d="M151.525 207.494H55.9687V210.441H151.525V207.494Z" fill="#6A88DB"/>
<path d="M103.747 204.416L141.924 186.387L104.192 207.494L103.747 204.416Z" fill="#1D0D90"/>
<path d="M215.578 223.526H51.623V231.286H215.578V223.526Z" fill="#AEC2FB"/>
<path d="M211.319 167.904V207.445H171.778V167.904H211.319ZM214.4 164.823H168.696V210.526H214.4V164.823Z" fill="#AEC2FB"/>
<path d="M191.549 204.913C201.145 204.913 208.925 197.133 208.925 187.536C208.925 177.94 201.145 170.16 191.549 170.16C181.952 170.16 174.173 177.94 174.173 187.536C174.173 197.133 181.952 204.913 191.549 204.913Z" fill="#1D964E"/>
<path d="M191.549 202.15C199.62 202.15 206.162 195.607 206.162 187.537C206.162 179.466 199.62 172.924 191.549 172.924C183.479 172.924 176.936 179.466 176.936 187.537C176.936 195.607 183.479 202.15 191.549 202.15Z" fill="#3DDB86"/>
<path d="M182.849 183.821L190.587 187.63L201.934 178.85L190.35 193.756L182.849 183.821Z" fill="#F5FAFF"/>
<path d="M308.221 295.069H245.101C244.366 295.069 243.771 294.474 243.771 293.739V281.01C243.771 280.275 244.366 279.68 245.101 279.68H308.221C308.955 279.68 309.551 280.275 309.551 281.01V293.739C309.552 294.474 308.956 295.069 308.221 295.069Z" fill="#FE9C03"/>
<g opacity="0.76">
<path d="M252.187 281.078H249.328V293.673H252.187V281.078Z" fill="#FACD5D"/>
<path d="M260.822 281.078H257.963V293.673H260.822V281.078Z" fill="#FACD5D"/>
<path d="M269.457 281.078H266.597V293.673H269.457V281.078Z" fill="#FACD5D"/>
<path d="M278.091 281.078H275.231V293.673H278.091V281.078Z" fill="#FACD5D"/>
<path d="M286.724 281.078H283.865V293.673H286.724V281.078Z" fill="#FACD5D"/>
<path d="M295.359 281.078H292.5V293.673H295.359V281.078Z" fill="#FACD5D"/>
<path d="M303.993 281.078H301.134V293.673H303.993V281.078Z" fill="#FACD5D"/>
</g>
<path opacity="0.49" d="M309.552 281.078H273.192V293.599H309.552V281.078Z" fill="#BC700C"/>
<path opacity="0.5" d="M264.89 281.078H246.71V293.599H264.89V281.078Z" fill="#FFE6B3"/>
<path opacity="0.2" d="M264.89 281.078H246.71V293.599H264.89V281.078Z" fill="#FFE6B3"/>
<path opacity="0.72" d="M243.771 293.759C243.771 294.482 244.357 295.069 245.081 295.069H308.242C308.965 295.069 309.552 294.482 309.552 293.759V293.672H243.771V293.759Z" fill="#BC700C"/>
<path d="M308.242 279.682H245.081C244.357 279.682 243.771 280.268 243.771 280.992V281.079H309.551V280.992C309.552 280.268 308.965 279.682 308.242 279.682Z" fill="#FCCC54"/>
<path d="M379.165 295.069H316.044C315.31 295.069 314.714 294.474 314.714 293.739V281.01C314.714 280.275 315.31 279.68 316.044 279.68H379.164C379.899 279.68 380.495 280.275 380.495 281.01V293.739C380.495 294.474 379.899 295.069 379.165 295.069Z" fill="#FE9C03"/>
<g opacity="0.76">
<path d="M323.131 281.078H320.271V293.673H323.131V281.078Z" fill="#FACD5D"/>
<path d="M331.765 281.078H328.906V293.673H331.765V281.078Z" fill="#FACD5D"/>
<path d="M340.399 281.078H337.54V293.673H340.399V281.078Z" fill="#FACD5D"/>
<path d="M349.034 281.078H346.175V293.673H349.034V281.078Z" fill="#FACD5D"/>
<path d="M357.668 281.078H354.809V293.673H357.668V281.078Z" fill="#FACD5D"/>
<path d="M366.302 281.078H363.443V293.673H366.302V281.078Z" fill="#FACD5D"/>
<path d="M374.936 281.078H372.077V293.673H374.936V281.078Z" fill="#FACD5D"/>
</g>
<path opacity="0.49" d="M380.495 281.078H344.136V293.599H380.495V281.078Z" fill="#BC700C"/>
<path opacity="0.5" d="M335.832 281.078H317.652V293.599H335.832V281.078Z" fill="#FFE6B3"/>
<path opacity="0.2" d="M335.832 281.078H317.652V293.599H335.832V281.078Z" fill="#FFE6B3"/>
<path opacity="0.72" d="M314.715 293.759C314.715 294.482 315.301 295.069 316.025 295.069H379.186C379.91 295.069 380.496 294.482 380.496 293.759V293.672H314.715V293.759Z" fill="#BC700C"/>
<path d="M379.185 279.682H316.024C315.3 279.682 314.714 280.268 314.714 280.992V281.079H380.495V280.992C380.495 280.268 379.909 279.682 379.185 279.682Z" fill="#FCCC54"/>
<path d="M397.4 279.679H334.281C333.546 279.679 332.95 279.083 332.95 278.348V265.62C332.95 264.885 333.546 264.289 334.281 264.289H397.4C398.135 264.289 398.731 264.885 398.731 265.62V278.348C398.731 279.083 398.135 279.679 397.4 279.679Z" fill="#FE9C03"/>
<g opacity="0.76">
<path d="M341.366 265.686H338.507V278.28H341.366V265.686Z" fill="#FACD5D"/>
<path d="M350.001 265.686H347.142V278.28H350.001V265.686Z" fill="#FACD5D"/>
<path d="M358.635 265.686H355.776V278.28H358.635V265.686Z" fill="#FACD5D"/>
<path d="M367.269 265.686H364.41V278.28H367.269V265.686Z" fill="#FACD5D"/>
<path d="M375.903 265.686H373.044V278.28H375.903V265.686Z" fill="#FACD5D"/>
<path d="M384.538 265.686H381.679V278.28H384.538V265.686Z" fill="#FACD5D"/>
<path d="M393.172 265.686H390.312V278.28H393.172V265.686Z" fill="#FACD5D"/>
</g>
<path opacity="0.49" d="M398.731 265.688H362.371V278.208H398.731V265.688Z" fill="#BC700C"/>
<path opacity="0.5" d="M354.069 265.688H335.89V278.208H354.069V265.688Z" fill="#FFE6B3"/>
<path opacity="0.2" d="M354.069 265.688H335.89V278.208H354.069V265.688Z" fill="#FFE6B3"/>
<path opacity="0.72" d="M332.95 278.367C332.95 279.091 333.537 279.677 334.26 279.677H397.421C398.145 279.677 398.731 279.09 398.731 278.367V278.279H332.95V278.367Z" fill="#BC700C"/>
<path d="M397.42 264.289H334.259C333.536 264.289 332.949 264.876 332.949 265.599V265.686H398.73V265.599C398.731 264.876 398.144 264.289 397.42 264.289Z" fill="#FCCC54"/>
<path d="M381.56 264.483H318.44C317.705 264.483 317.109 263.888 317.109 263.153V250.424C317.109 249.689 317.705 249.094 318.44 249.094H381.56C382.294 249.094 382.89 249.689 382.89 250.424V263.153C382.891 263.888 382.295 264.483 381.56 264.483Z" fill="#FE9C03"/>
<g opacity="0.76">
<path d="M325.526 250.492H322.667V263.087H325.526V250.492Z" fill="#FACD5D"/>
<path d="M334.16 250.492H331.301V263.087H334.16V250.492Z" fill="#FACD5D"/>
<path d="M342.795 250.492H339.936V263.087H342.795V250.492Z" fill="#FACD5D"/>
<path d="M351.429 250.492H348.57V263.087H351.429V250.492Z" fill="#FACD5D"/>
<path d="M360.062 250.492H357.203V263.087H360.062V250.492Z" fill="#FACD5D"/>
<path d="M368.698 250.492H365.839V263.087H368.698V250.492Z" fill="#FACD5D"/>
<path d="M377.332 250.492H374.473V263.087H377.332V250.492Z" fill="#FACD5D"/>
</g>
<path opacity="0.49" d="M382.891 250.492H346.531V263.013H382.891V250.492Z" fill="#BC700C"/>
<path opacity="0.5" d="M338.229 250.492H320.049V263.013H338.229V250.492Z" fill="#FFE6B3"/>
<path opacity="0.2" d="M338.229 250.492H320.049V263.013H338.229V250.492Z" fill="#FFE6B3"/>
<path opacity="0.72" d="M317.109 263.173C317.109 263.897 317.696 264.483 318.42 264.483H381.581C382.304 264.483 382.891 263.897 382.891 263.173V263.086H317.109V263.173Z" fill="#BC700C"/>
<path d="M381.581 249.096H318.42C317.696 249.096 317.109 249.682 317.109 250.406V250.493H382.89V250.406C382.891 249.682 382.304 249.096 381.581 249.096Z" fill="#FCCC54"/>
<path d="M353.586 193.427C352.85 193.369 352.116 193.34 351.387 193.34C344.919 193.34 338.728 195.615 333.754 199.857C328.22 204.578 324.853 211.173 324.278 218.425C323.702 225.679 325.986 232.721 330.706 238.257C335.428 243.791 342.023 247.158 349.276 247.733C356.542 248.305 363.572 246.024 369.107 241.304C374.642 236.583 378.009 229.988 378.584 222.735C379.771 207.762 368.558 194.617 353.586 193.427Z" fill="#FCCC54"/>
<path d="M353.642 192.708C338.248 191.487 324.779 202.976 323.558 218.37C322.336 233.764 333.826 247.232 349.219 248.454C364.613 249.675 378.083 238.186 379.303 222.793C380.525 207.398 369.036 193.93 353.642 192.708ZM378.584 222.736C378.008 229.988 374.642 236.583 369.107 241.304C363.571 246.025 356.542 248.306 349.275 247.734C342.023 247.159 335.428 243.792 330.706 238.258C325.986 232.722 323.702 225.68 324.277 218.426C324.853 211.173 328.22 204.579 333.754 199.858C338.729 195.615 344.919 193.341 351.387 193.341C352.116 193.341 352.849 193.37 353.586 193.428C368.557 194.617 379.771 207.763 378.584 222.736Z" fill="url(#paint2_linear_48_16058)"/>
<path d="M353.642 192.71C346.201 192.115 338.969 194.462 333.287 199.309C327.605 204.155 324.15 210.924 323.56 218.369C322.967 225.813 325.311 233.042 330.158 238.725C335.004 244.407 341.774 247.863 349.22 248.452C349.975 248.513 350.727 248.543 351.476 248.543C358.114 248.543 364.47 246.209 369.574 241.852C375.256 237.006 378.712 230.238 379.302 222.792C380.522 207.424 369.011 193.929 353.642 192.71ZM377.9 222.682C377.339 229.752 374.056 236.18 368.662 240.782C363.265 245.384 356.413 247.607 349.33 247.05C342.26 246.489 335.832 243.208 331.228 237.813C326.627 232.417 324.401 225.552 324.962 218.481C325.523 211.411 328.804 204.983 334.2 200.38C339.048 196.245 345.083 194.027 351.388 194.027C352.099 194.027 352.814 194.056 353.531 194.113C368.126 195.272 379.057 208.087 377.9 222.682Z" fill="#DDA526"/>
<path opacity="0.3" d="M375.11 222.459C374.072 235.537 362.63 245.298 349.552 244.26C336.475 243.222 326.714 231.78 327.752 218.702C328.79 205.625 340.232 195.865 353.31 196.902C366.387 197.939 376.147 209.382 375.11 222.459Z" fill="#BC700C"/>
<g opacity="0.4">
<path d="M349.795 209.228V205.24H353.356V209.121C356.882 209.336 360.265 210.439 362.224 211.971L360.265 216.316C358.485 214.998 355.92 214.037 353.356 213.787V219.735C357.309 220.697 361.725 222.014 361.725 227.108C361.725 230.882 358.983 234.123 353.356 234.764V238.717H349.795V234.835C347.123 234.621 344.524 233.91 342.565 232.663L344.346 228.282C346.162 229.315 348.014 229.921 349.795 230.134V224.08C345.841 223.154 341.497 221.836 341.497 216.815C341.497 213.11 344.203 209.905 349.795 209.228ZM353.356 224.97V230.027C355.244 229.6 355.991 228.567 355.991 227.392C355.991 226.145 354.923 225.469 353.356 224.97ZM347.23 216.387C347.23 217.634 348.263 218.31 349.795 218.844V213.93C348.014 214.321 347.23 215.248 347.23 216.387Z" fill="#493107"/>
</g>
<path d="M349.306 208.58V204.592H352.868V208.473C356.394 208.688 359.777 209.791 361.736 211.322L359.777 215.667C357.996 214.35 355.432 213.388 352.868 213.139V219.087C356.821 220.048 361.237 221.366 361.237 226.459C361.237 230.233 358.494 233.474 352.868 234.115V238.069H349.306V234.187C346.635 233.973 344.036 233.261 342.077 232.015L343.858 227.634C345.674 228.666 347.526 229.272 349.306 229.486V223.431C345.353 222.505 341.009 221.187 341.009 216.166C341.009 212.462 343.715 209.257 349.306 208.58ZM352.868 224.321V229.379C354.756 228.952 355.503 227.919 355.503 226.743C355.503 225.496 354.435 224.82 352.868 224.321ZM346.742 215.739C346.742 216.985 347.775 217.662 349.306 218.196V213.281C347.525 213.673 346.742 214.599 346.742 215.739Z" fill="#D29E26"/>
<mask id="mask1_48_16058" style="mask-type:luminance" maskUnits="userSpaceOnUse" x="327" y="196" width="49" height="49">
<path d="M375.11 222.459C374.072 235.537 362.63 245.298 349.552 244.26C336.475 243.222 326.714 231.78 327.752 218.702C328.79 205.625 340.232 195.865 353.31 196.902C366.387 197.939 376.147 209.382 375.11 222.459Z" fill="white"/>
</mask>
<g mask="url(#mask1_48_16058)">
<g opacity="0.2">
<path d="M381.501 201.614L377.523 196.951L322.057 244.266L326.035 248.93L381.501 201.614Z" fill="#FFE6B3"/>
<path d="M373.361 196.9L366.224 188.533L310.758 235.848L317.895 244.215L373.361 196.9Z" fill="#FFE6B3"/>
<path d="M385.27 206.9L383.281 204.568L327.815 251.876L329.804 254.208L385.27 206.9Z" fill="#FFE6B3"/>
</g>
</g>
<path opacity="0.3" d="M328.511 219.461C329.549 206.384 340.992 196.624 354.069 197.662C359.664 198.106 364.641 200.464 368.436 204.03C364.559 200.042 359.29 197.376 353.31 196.902C340.232 195.864 328.789 205.625 327.752 218.702C327.158 226.185 330.11 233.122 335.185 237.892C330.583 233.16 327.948 226.559 328.511 219.461Z" fill="#BC700C"/>
<path opacity="0.3" d="M367.746 203.332C372.431 208.073 375.118 214.735 374.549 221.9C373.511 234.978 362.069 244.738 348.992 243.701C343.363 243.254 338.358 240.872 334.555 237.271C338.419 241.183 343.64 243.791 349.551 244.26C362.629 245.297 374.072 235.537 375.109 222.46C375.701 215.011 372.78 208.1 367.746 203.332Z" fill="#BC700C"/>
<path d="M263.878 6.16612C263.878 7.17118 263.064 7.98665 262.058 7.98665C261.053 7.98665 260.237 7.17184 260.237 6.16612C260.237 5.16105 261.052 4.34558 262.058 4.34558C263.064 4.34558 263.878 5.16039 263.878 6.16612Z" fill="#DCE7F9"/>
<path d="M142.052 44.6566C143.057 44.6566 143.873 43.8415 143.873 42.836C143.873 41.8306 143.057 41.0155 142.052 41.0155C141.047 41.0155 140.231 41.8306 140.231 42.836C140.231 43.8415 141.047 44.6566 142.052 44.6566Z" fill="#DCE7F9"/>
<path d="M447.539 66.3692C447.539 67.3743 446.725 68.1898 445.719 68.1898C444.714 68.1898 443.898 67.375 443.898 66.3692C443.898 65.3642 444.713 64.5487 445.719 64.5487C446.725 64.5487 447.539 65.3642 447.539 66.3692Z" fill="#DCE7F9"/>
<path d="M448.18 166.643C449.185 166.643 450 165.828 450 164.822C450 163.817 449.185 163.002 448.18 163.002C447.174 163.002 446.359 163.817 446.359 164.822C446.359 165.828 447.174 166.643 448.18 166.643Z" fill="#DCE7F9"/>
<path d="M9.88596 256.899C10.8914 256.899 11.7065 256.084 11.7065 255.078C11.7065 254.073 10.8914 253.258 9.88596 253.258C8.88051 253.258 8.06543 254.073 8.06543 255.078C8.06543 256.084 8.88051 256.899 9.88596 256.899Z" fill="#DCE7F9"/>
<path d="M8.62935 115.738C8.62935 116.743 7.81454 117.559 6.80882 117.559C5.80375 117.559 4.98828 116.744 4.98828 115.738C4.98828 114.733 5.80309 113.918 6.80882 113.918C7.81454 113.919 8.62935 114.733 8.62935 115.738Z" fill="#DCE7F9"/>
<path d="M28.9448 3.67588C28.9448 4.68095 28.13 5.49642 27.1242 5.49642C26.1185 5.49642 25.3037 4.6816 25.3037 3.67588C25.3037 2.67081 26.1185 1.85535 27.1242 1.85535C28.13 1.85535 28.9448 2.67016 28.9448 3.67588Z" fill="#DCE7F9"/>
<path d="M327.973 295.407C328.978 295.407 329.793 294.591 329.793 293.586C329.793 292.581 328.978 291.766 327.973 291.766C326.967 291.766 326.152 292.581 326.152 293.586C326.152 294.591 326.967 295.407 327.973 295.407Z" fill="#DCE7F9"/>
<path d="M415.277 2.36824V3.43103H413.348V5.35982H412.285V3.43103H410.356V2.36824H412.285V0.439453H413.348V2.36824H415.277Z" fill="#DCE7F9"/>
<path d="M136.268 2.36824V3.43103H134.339V5.35982H133.276V3.43103H131.347V2.36824H133.276V0.439453H134.339V2.36824H136.268Z" fill="#DCE7F9"/>
<path d="M279.123 64.3389V65.4017H277.194V67.3305H276.131V65.4017H274.202V64.3389H276.131V62.4102H277.194V64.3389H279.123Z" fill="#DCE7F9"/>
<path d="M197.449 38.21V39.2728H195.521V41.2016H194.458V39.2728H192.529V38.21H194.458V36.2812H195.521V38.21H197.449Z" fill="#DCE7F9"/>
<path d="M90.5561 274.501V275.564H88.6273V277.493H87.5645V275.564H85.6357V274.501H87.5645V272.572H88.6273V274.501H90.5561Z" fill="#DCE7F9"/>
<path d="M13.7424 177.39V178.453H11.8137V180.381H10.7509V178.453H8.82208V177.39H10.7509V175.461H11.8137V177.39H13.7424Z" fill="#DCE7F9"/>
<path d="M424.324 274.501V275.564H422.395V277.493H421.332V275.564H419.403V274.501H421.332V272.572H422.395V274.501H424.324Z" fill="#DCE7F9"/>
<path d="M448.18 126.759V127.822H446.251V129.75H445.189V127.822H443.26V126.759H445.189V124.83H446.251V126.759H448.18Z" fill="#DCE7F9"/>
<path d="M4.92036 63.4237V64.4865H2.99158V66.4146H1.92878V64.4865H0V63.4237H1.92878V61.4943H2.99158V63.4237H4.92036Z" fill="#DCE7F9"/>
<defs>
<linearGradient id="paint0_linear_48_16058" x1="95.1552" y1="234.917" x2="69.5417" y2="234.917" gradientUnits="userSpaceOnUse">
<stop stop-color="#F2D851"/>
<stop offset="1" stop-color="#D29E26"/>
</linearGradient>
<linearGradient id="paint1_linear_48_16058" x1="52.5626" y1="250.406" x2="14.5618" y2="250.406" gradientUnits="userSpaceOnUse">
<stop stop-color="#F2D851"/>
<stop offset="1" stop-color="#D29E26"/>
</linearGradient>
<linearGradient id="paint2_linear_48_16058" x1="323.558" y1="218.369" x2="379.304" y2="222.793" gradientUnits="userSpaceOnUse">
<stop stop-color="#FCCC54"/>
<stop offset="0.9996" stop-color="#FE9C03"/>
</linearGradient>
</defs>
</svg>
