<svg width="44" height="44" viewBox="0 0 44 44" fill="none" xmlns="http://www.w3.org/2000/svg">
<g clip-path="url(#clip0_1708_36979)">
<path fill-rule="evenodd" clip-rule="evenodd" d="M22.0002 2.01562C27.5188 2.01562 32.5149 4.25249 36.1314 7.869C39.7478 11.4855 41.9847 16.4817 41.9847 22.0001C41.9847 27.5187 39.7479 32.5148 36.1314 36.1314C32.5148 39.7479 27.5187 41.9847 22.0002 41.9847C16.4817 41.9847 11.4855 39.7479 7.869 36.1314C4.25249 32.5148 2.01562 27.5187 2.01562 22.0001C2.01562 16.4816 4.25249 11.4855 7.869 7.869C11.4855 4.25249 16.4817 2.01562 22.0002 2.01562ZM35.1592 8.84121C31.7916 5.47358 27.1392 3.39062 22.0002 3.39062C16.8612 3.39062 12.2088 5.47358 8.84121 8.84121C5.47358 12.2088 3.39062 16.8613 3.39062 22.0002C3.39062 27.1392 5.47358 31.7916 8.84121 35.1592C12.2088 38.5269 16.8612 40.6098 22.0002 40.6098C27.1392 40.6098 31.7916 38.5269 35.1592 35.1592C38.5269 31.7916 40.6098 27.1392 40.6098 22.0002C40.6098 16.8612 38.5268 12.2088 35.1592 8.84121Z" fill="#B4D2D7"/>
<path d="M7.33777 13.8923C10.9632 13.8923 13.9021 10.9534 13.9021 7.32801C13.9021 3.70263 10.9632 0.763672 7.33777 0.763672C3.71239 0.763672 0.773438 3.70263 0.773438 7.32801C0.773438 10.9534 3.71239 13.8923 7.33777 13.8923Z" fill="#465759"/>
<path fill-rule="evenodd" clip-rule="evenodd" d="M7.33958 13.892C5.27751 13.892 3.43784 12.9409 2.23438 11.4538C3.36187 12.3662 4.7972 12.9131 6.36058 12.9131C9.98594 12.9131 12.9249 9.97413 12.9249 6.34877C12.9249 4.78548 12.3781 3.35007 11.4657 2.22266C12.9528 3.42612 13.9038 5.2657 13.9038 7.32777C13.9039 10.953 10.965 13.892 7.33958 13.892Z" fill="#3A484A"/>
<path d="M7.33587 9.5272C8.79205 9.5272 9.97252 8.34674 9.97252 6.89055C9.97252 5.43437 8.79205 4.25391 7.33587 4.25391C5.87969 4.25391 4.69922 5.43437 4.69922 6.89055C4.69922 8.34674 5.87969 9.5272 7.33587 9.5272Z" fill="#FFD6BD"/>
<path fill-rule="evenodd" clip-rule="evenodd" d="M5.33984 8.61147C5.82333 9.17341 6.5397 9.52928 7.33918 9.52928C8.7953 9.52928 9.97583 8.34884 9.97583 6.89263C9.97583 5.95746 9.48891 5.13607 8.75474 4.66797C9.15186 5.12954 9.39205 5.73007 9.39205 6.38672C9.39205 7.84293 8.21153 9.02337 6.75541 9.02337C6.23445 9.02337 5.74882 8.8722 5.33984 8.61147Z" fill="#F9C6AA"/>
<path fill-rule="evenodd" clip-rule="evenodd" d="M11.6097 12.3109C10.4616 13.2958 8.96937 13.8912 7.33802 13.8912C5.70666 13.8912 4.21453 13.2959 3.06641 12.311C3.89966 10.8061 5.50488 9.78125 7.3381 9.78125C9.17123 9.78125 10.7765 10.8061 11.6097 12.3109Z" fill="#FFBF31"/>
<path fill-rule="evenodd" clip-rule="evenodd" d="M11.6097 12.3124C10.4616 13.2973 8.96937 13.8927 7.33802 13.8927C5.70666 13.8927 4.21453 13.2974 3.06641 12.3124C3.10628 12.2404 3.14796 12.1695 3.19136 12.0998C4.13057 12.6184 5.21029 12.9138 6.3591 12.9138C8.0592 12.9138 9.6084 12.2674 10.7743 11.207C11.1021 11.5332 11.3842 11.9051 11.6097 12.3124Z" fill="#FFBF31"/>
<path fill-rule="evenodd" clip-rule="evenodd" d="M11.6089 12.3109C11.3549 12.5288 11.084 12.7275 10.7985 12.9051C10.1531 11.2447 8.62189 10.0175 6.79297 9.81202C6.9718 9.79191 7.15339 9.78125 7.33738 9.78125C9.17043 9.78125 10.7757 10.8061 11.6089 12.3109Z" fill="#FFBF31"/>
<path fill-rule="evenodd" clip-rule="evenodd" d="M11.6084 12.3124C11.3543 12.5303 11.0835 12.729 10.798 12.9065C10.6318 12.4788 10.4066 12.0801 10.1328 11.7199C10.3569 11.5621 10.5708 11.3909 10.773 11.207C11.1007 11.5332 11.3829 11.9051 11.6084 12.3124Z" fill="#FFBF31"/>
<path d="M36.6698 13.8923C40.2952 13.8923 43.2341 10.9534 43.2341 7.32801C43.2341 3.70263 40.2952 0.763672 36.6698 0.763672C33.0444 0.763672 30.1055 3.70263 30.1055 7.32801C30.1055 10.9534 33.0444 13.8923 36.6698 13.8923Z" fill="#465759"/>
<path fill-rule="evenodd" clip-rule="evenodd" d="M36.6716 13.892C34.6095 13.892 32.7699 12.9409 31.5664 11.4538C32.6939 12.3662 34.1292 12.9131 35.6926 12.9131C39.318 12.9131 42.2569 9.97413 42.2569 6.34877C42.2569 4.78548 41.7101 3.35007 40.7977 2.22266C42.2848 3.42612 43.2359 5.2657 43.2359 7.32777C43.2359 10.953 40.2971 13.892 36.6716 13.892Z" fill="#3A484A"/>
<path d="M36.6679 9.5272C38.1241 9.5272 39.3045 8.34674 39.3045 6.89055C39.3045 5.43437 38.1241 4.25391 36.6679 4.25391C35.2117 4.25391 34.0312 5.43437 34.0312 6.89055C34.0312 8.34674 35.2117 9.5272 36.6679 9.5272Z" fill="#FFD6BD"/>
<path fill-rule="evenodd" clip-rule="evenodd" d="M34.6719 8.61147C35.1554 9.17341 35.8717 9.52928 36.6712 9.52928C38.1273 9.52928 39.3079 8.34884 39.3079 6.89263C39.3079 5.95746 38.8209 5.13607 38.0868 4.66797C38.4839 5.12954 38.7241 5.73007 38.7241 6.38672C38.7241 7.84293 37.5436 9.02337 36.0874 9.02337C35.5665 9.02337 35.0809 8.8722 34.6719 8.61147Z" fill="#F9C6AA"/>
<path fill-rule="evenodd" clip-rule="evenodd" d="M40.9417 12.3109C39.7936 13.2958 38.3014 13.8912 36.67 13.8912C35.0387 13.8912 33.5466 13.2959 32.3984 12.311C33.2317 10.8061 34.8369 9.78125 36.6701 9.78125C38.5033 9.78125 40.1086 10.8061 40.9417 12.3109Z" fill="#FFBF31"/>
<path fill-rule="evenodd" clip-rule="evenodd" d="M40.9417 12.3124C39.7936 13.2973 38.3014 13.8927 36.67 13.8927C35.0387 13.8927 33.5466 13.2974 32.3984 12.3124C32.4383 12.2404 32.48 12.1695 32.5234 12.0998C33.4626 12.6184 34.5423 12.9138 35.6911 12.9138C37.3912 12.9138 38.9404 12.2674 40.1063 11.207C40.4341 11.5332 40.7162 11.9051 40.9417 12.3124Z" fill="#FFBF31"/>
<path fill-rule="evenodd" clip-rule="evenodd" d="M40.9409 12.3109C40.6869 12.5288 40.416 12.7275 40.1305 12.9051C39.4852 11.2447 37.9539 10.0175 36.125 9.81202C36.3038 9.79191 36.4854 9.78125 36.6694 9.78125C38.5025 9.78125 40.1078 10.8061 40.9409 12.3109Z" fill="#FFBF31"/>
<path fill-rule="evenodd" clip-rule="evenodd" d="M40.9404 12.3124C40.6864 12.5303 40.4155 12.729 40.13 12.9065C39.9638 12.4788 39.7386 12.0801 39.4648 11.7199C39.6889 11.5621 39.9028 11.3909 40.105 11.207C40.4328 11.5332 40.7149 11.9051 40.9404 12.3124Z" fill="#FFBF31"/>
<path d="M36.6698 43.2263C40.2952 43.2263 43.2341 40.2874 43.2341 36.662C43.2341 33.0366 40.2952 30.0977 36.6698 30.0977C33.0444 30.0977 30.1055 33.0366 30.1055 36.662C30.1055 40.2874 33.0444 43.2263 36.6698 43.2263Z" fill="#465759"/>
<path fill-rule="evenodd" clip-rule="evenodd" d="M36.6716 43.226C34.6095 43.226 32.7699 42.2749 31.5664 40.7878C32.6939 41.7002 34.1292 42.2471 35.6926 42.2471C39.318 42.2471 42.2569 39.3081 42.2569 35.6828C42.2569 34.1195 41.7101 32.6841 40.7977 31.5566C42.2848 32.7601 43.2359 34.5997 43.2359 36.6618C43.2359 40.287 40.2971 43.226 36.6716 43.226Z" fill="#3A484A"/>
<path d="M36.6679 38.8631C38.1241 38.8631 39.3045 37.6827 39.3045 36.2265C39.3045 34.7703 38.1241 33.5898 36.6679 33.5898C35.2117 33.5898 34.0312 34.7703 34.0312 36.2265C34.0312 37.6827 35.2117 38.8631 36.6679 38.8631Z" fill="#FFD6BD"/>
<path fill-rule="evenodd" clip-rule="evenodd" d="M34.6719 37.9435C35.1554 38.5054 35.8717 38.8613 36.6712 38.8613C38.1273 38.8613 39.3079 37.6809 39.3079 36.2247C39.3079 35.2895 38.8209 34.4681 38.0868 34C38.4839 34.4616 38.7241 35.0621 38.7241 35.7188C38.7241 37.175 37.5436 38.3554 36.0874 38.3554C35.5665 38.3554 35.0809 38.2042 34.6719 37.9435Z" fill="#F9C6AA"/>
<path fill-rule="evenodd" clip-rule="evenodd" d="M40.9417 41.6468C39.7936 42.6318 38.3014 43.2271 36.67 43.2271C35.0387 43.2271 33.5466 42.6319 32.3984 41.6469C33.2317 40.142 34.8369 39.1172 36.6701 39.1172C38.5033 39.1172 40.1086 40.142 40.9417 41.6468Z" fill="#FFBF31"/>
<path fill-rule="evenodd" clip-rule="evenodd" d="M40.9417 41.6463C39.7936 42.6313 38.3014 43.2266 36.67 43.2266C35.0387 43.2266 33.5466 42.6314 32.3984 41.6464C32.4383 41.5744 32.48 41.5035 32.5234 41.4337C33.4626 41.9524 34.5423 42.2477 35.6911 42.2477C37.3912 42.2477 38.9404 41.6014 40.1063 40.541C40.4341 40.8671 40.7162 41.2391 40.9417 41.6463Z" fill="#FFBF31"/>
<path fill-rule="evenodd" clip-rule="evenodd" d="M40.9409 41.6468C40.6869 41.8648 40.416 42.0635 40.1305 42.241C39.4852 40.5806 37.9539 39.3534 36.125 39.148C36.3038 39.1278 36.4854 39.1172 36.6694 39.1172C38.5025 39.1172 40.1078 40.142 40.9409 41.6468Z" fill="#FFBF31"/>
<path fill-rule="evenodd" clip-rule="evenodd" d="M40.9404 41.6463C40.6864 41.8643 40.4155 42.063 40.13 42.2405C39.9638 41.8128 39.7386 41.4141 39.4648 41.0539C39.6889 40.8961 39.9028 40.7248 40.105 40.541C40.4328 40.8671 40.7149 41.2391 40.9404 41.6463Z" fill="#FFBF31"/>
<path d="M7.33777 43.2263C10.9632 43.2263 13.9021 40.2874 13.9021 36.662C13.9021 33.0366 10.9632 30.0977 7.33777 30.0977C3.71239 30.0977 0.773438 33.0366 0.773438 36.662C0.773438 40.2874 3.71239 43.2263 7.33777 43.2263Z" fill="#465759"/>
<path fill-rule="evenodd" clip-rule="evenodd" d="M7.33958 43.226C5.27751 43.226 3.43784 42.2749 2.23438 40.7878C3.36187 41.7002 4.7972 42.2471 6.36058 42.2471C9.98594 42.2471 12.9249 39.3081 12.9249 35.6828C12.9249 34.1195 12.3781 32.6841 11.4657 31.5566C12.9528 32.7601 13.9038 34.5997 13.9038 36.6618C13.9039 40.287 10.965 43.226 7.33958 43.226Z" fill="#3A484A"/>
<path d="M7.33587 38.8631C8.79205 38.8631 9.97252 37.6827 9.97252 36.2265C9.97252 34.7703 8.79205 33.5898 7.33587 33.5898C5.87969 33.5898 4.69922 34.7703 4.69922 36.2265C4.69922 37.6827 5.87969 38.8631 7.33587 38.8631Z" fill="#FFD6BD"/>
<path fill-rule="evenodd" clip-rule="evenodd" d="M5.33984 37.9435C5.82333 38.5054 6.5397 38.8613 7.33918 38.8613C8.7953 38.8613 9.97583 37.6809 9.97583 36.2247C9.97583 35.2895 9.48891 34.4681 8.75474 34C9.15186 34.4616 9.39205 35.0621 9.39205 35.7188C9.39205 37.175 8.21153 38.3554 6.75541 38.3554C6.23445 38.3554 5.74882 38.2042 5.33984 37.9435Z" fill="#F9C6AA"/>
<path fill-rule="evenodd" clip-rule="evenodd" d="M11.6097 41.6468C10.4616 42.6318 8.96937 43.2271 7.33802 43.2271C5.70666 43.2271 4.21453 42.6319 3.06641 41.6469C3.89966 40.142 5.50488 39.1172 7.3381 39.1172C9.17123 39.1172 10.7765 40.142 11.6097 41.6468Z" fill="#FFBF31"/>
<path fill-rule="evenodd" clip-rule="evenodd" d="M11.6097 41.6463C10.4616 42.6313 8.96937 43.2266 7.33802 43.2266C5.70666 43.2266 4.21453 42.6314 3.06641 41.6464C3.10628 41.5744 3.14796 41.5035 3.19136 41.4337C4.13057 41.9524 5.21029 42.2477 6.3591 42.2477C8.0592 42.2477 9.6084 41.6014 10.7743 40.541C11.1021 40.8671 11.3842 41.2391 11.6097 41.6463Z" fill="#FFBF31"/>
<path fill-rule="evenodd" clip-rule="evenodd" d="M11.6089 41.6468C11.3549 41.8648 11.084 42.0635 10.7985 42.241C10.1531 40.5806 8.62189 39.3534 6.79297 39.148C6.9718 39.1278 7.15339 39.1172 7.33738 39.1172C9.17043 39.1172 10.7757 40.142 11.6089 41.6468Z" fill="#FFBF31"/>
<path fill-rule="evenodd" clip-rule="evenodd" d="M11.6084 41.6463C11.3543 41.8643 11.0835 42.063 10.798 42.2405C10.6318 41.8128 10.4066 41.4141 10.1328 41.0539C10.3569 40.8961 10.5708 40.7248 10.773 40.541C11.1007 40.8671 11.3829 41.2391 11.6084 41.6463Z" fill="#FFBF31"/>
<path fill-rule="evenodd" clip-rule="evenodd" d="M30.9151 27.2715C32.5519 26.7048 33.3018 24.3969 32.3107 22.9763C31.8938 22.3787 31.8937 21.6218 32.3106 21.0242C33.3018 19.6036 32.5519 17.2957 30.9151 16.7289C30.2265 16.4905 29.7815 15.8782 29.7676 15.1496C29.7345 13.4178 27.7712 11.9914 26.1139 12.495C25.4166 12.7069 24.6967 12.473 24.2573 11.8918C23.2126 10.5101 20.7858 10.5101 19.741 11.8917C19.3015 12.473 18.5816 12.707 17.8844 12.495C16.2271 11.9914 14.2638 13.4177 14.2306 15.1496C14.2167 15.8781 13.7718 16.4905 13.0831 16.7289C11.4463 17.2955 10.6963 19.6035 11.6874 21.0241C12.1044 21.6217 12.1045 22.3786 11.6875 22.9762C10.6963 24.3968 11.4462 26.7047 13.083 27.2715C13.7716 27.5099 14.2166 28.1222 14.2305 28.8507C14.2636 30.5826 16.2268 32.009 17.8841 31.5054C18.5813 31.2935 19.3012 31.5274 19.7407 32.1086C20.7855 33.4903 23.2123 33.4903 24.257 32.1087C24.6966 31.5274 25.4164 31.2935 26.1136 31.5054C27.7709 32.0091 29.7342 30.5827 29.7673 28.8509C29.7815 28.1223 30.2264 27.5099 30.9151 27.2715Z" fill="#A082EC"/>
<path fill-rule="evenodd" clip-rule="evenodd" d="M30.9158 27.2715C32.5525 26.7049 33.3024 24.397 32.3114 22.9764C31.8944 22.3788 31.8943 21.6218 32.3113 21.0242C33.2167 19.7265 32.6691 17.6884 31.3197 16.9136C31.7952 17.8374 31.8282 19.0105 31.233 19.8636C30.8159 20.4612 30.816 21.2181 31.233 21.8157C32.2241 23.2364 31.4742 25.5442 29.8373 26.1109C29.1486 26.3493 28.7037 26.9616 28.6898 27.6902C28.6566 29.422 26.6934 30.8484 25.0361 30.3448C24.3389 30.1328 23.619 30.3668 23.1795 30.948C22.1347 32.3297 19.708 32.3297 18.6632 30.948C18.2237 30.3667 17.5038 30.1329 16.8065 30.3448C16.0373 30.5785 15.2023 30.3963 14.5248 29.961C15.1378 31.1294 16.6028 31.8951 17.885 31.5054C18.5822 31.2935 19.3021 31.5273 19.7416 32.1086C20.7863 33.4903 23.2131 33.4903 24.2578 32.1087C24.6973 31.5274 25.4171 31.2935 26.1144 31.5055C27.7717 32.0092 29.7351 30.5827 29.7681 28.8509C29.7822 28.1223 30.2271 27.5099 30.9158 27.2715ZM29.825 15.564C29.7904 15.4318 29.771 15.293 29.7682 15.1497C29.7505 14.2217 29.1784 13.3816 28.3964 12.8789C28.5758 13.2208 28.6824 13.597 28.6899 13.989C28.7037 14.7133 29.1435 15.3226 29.825 15.564ZM11.6016 25.9264C11.9179 26.5408 12.43 27.0452 13.0838 27.2715L13.0961 27.2759C12.9546 26.7353 12.5586 26.3024 12.0054 26.1109C11.864 26.0619 11.7293 25.9997 11.6016 25.9264Z" fill="#A082EC"/>
<path d="M22.0002 28.2581C25.4563 28.2581 28.2581 25.4563 28.2581 22.0002C28.2581 18.544 25.4563 15.7422 22.0002 15.7422C18.544 15.7422 15.7422 18.544 15.7422 22.0002C15.7422 25.4563 18.544 28.2581 22.0002 28.2581Z" fill="#EFF4F7"/>
<path fill-rule="evenodd" clip-rule="evenodd" d="M18.2626 27.0198C16.7329 25.8789 15.7422 24.0553 15.7422 22.0002C15.7422 18.544 18.544 15.7422 22.0002 15.7422C24.0552 15.7422 25.8789 16.7328 27.0198 18.2625C25.9768 17.4846 24.6832 17.024 23.2821 17.024C19.8259 17.024 17.0241 19.8259 17.0241 23.282C17.0241 24.6832 17.4847 25.9768 18.2626 27.0198Z" fill="#E2E3E3"/>
<path fill-rule="evenodd" clip-rule="evenodd" d="M23.9988 19.3224C24.435 18.8838 25.144 18.8819 25.5825 19.318C26.021 19.7541 26.023 20.4631 25.5869 20.9017L21.8465 24.6772C21.4133 25.1128 20.711 25.1175 20.2717 24.6901L18.4211 22.8864C17.9777 22.4552 17.9679 21.7461 18.3992 21.3027C18.8304 20.8594 19.5395 20.8496 19.9828 21.2808L21.0387 22.3102L23.9988 19.3224Z" fill="#A082EC"/>
<path fill-rule="evenodd" clip-rule="evenodd" d="M25.7816 19.5859C26.0065 20.0083 25.942 20.5447 25.5869 20.9018L21.8465 24.6773C21.4133 25.1129 20.7109 25.1176 20.2717 24.6903L18.4211 22.8865C18.0554 22.5309 17.9847 21.9863 18.213 21.5576C18.2662 21.6575 18.3355 21.751 18.4211 21.8342L20.2717 23.638C20.7109 24.0653 21.4133 24.0605 21.8465 23.625L25.5869 19.8495C25.6663 19.7695 25.7312 19.6806 25.7816 19.5859Z" fill="#A082EC"/>
</g>
<defs>
<clipPath id="clip0_1708_36979">
<rect width="44" height="44" fill="white"/>
</clipPath>
</defs>
</svg>
