<svg width="450" height="300" viewBox="0 0 450 300" fill="none" xmlns="http://www.w3.org/2000/svg">
<path d="M404.24 203.868H295.793C293.854 203.868 292.276 202.29 292.276 200.351V42.3863C292.276 40.4471 293.854 38.8691 295.793 38.8691H404.24C406.18 38.8691 407.758 40.4465 407.758 42.3863V200.35C407.758 202.29 406.18 203.868 404.24 203.868ZM295.793 39.0191C293.936 39.0191 292.426 40.5299 292.426 42.3863V200.35C292.426 202.207 293.936 203.717 295.793 203.717H404.24C406.097 203.717 407.608 202.207 407.608 200.35V42.3863C407.608 40.5299 406.097 39.0191 404.24 39.0191H295.793Z" fill="#E0E0E0"/>
<path d="M279.184 203.868H170.736C168.797 203.868 167.219 202.29 167.219 200.351V42.3863C167.219 40.4471 168.796 38.8691 170.736 38.8691H279.184C281.123 38.8691 282.701 40.4465 282.701 42.3863V200.35C282.701 202.29 281.123 203.868 279.184 203.868ZM170.736 39.0191C168.88 39.0191 167.369 40.5299 167.369 42.3863V200.35C167.369 202.207 168.88 203.717 170.736 203.717H279.184C281.041 203.717 282.551 202.207 282.551 200.35V42.3863C282.551 40.5299 281.041 39.0191 279.184 39.0191H170.736Z" fill="#E0E0E0"/>
<path d="M154.207 203.868H45.7596C43.8204 203.868 42.2424 202.29 42.2424 200.351V42.3863C42.2424 40.4471 43.8198 38.8691 45.7596 38.8691H154.207C156.146 38.8691 157.724 40.4465 157.724 42.3863V200.35C157.725 202.29 156.147 203.868 154.207 203.868ZM45.7596 39.0191C43.9032 39.0191 42.3924 40.5299 42.3924 42.3863V200.35C42.3924 202.207 43.9032 203.717 45.7596 203.717H154.207C156.064 203.717 157.574 202.207 157.574 200.35V42.3863C157.574 40.5299 156.064 39.0191 154.207 39.0191H45.7596Z" fill="#E0E0E0"/>
<path d="M450 240.51H0V240.582H450V240.51Z" fill="#E0E0E0"/>
<path d="M425.613 258.135H392.176V258.387H425.613V258.135Z" fill="#EBEBEB"/>
<path d="M305.803 260.875H297.026V261.128H305.803V260.875Z" fill="#EBEBEB"/>
<path d="M67.9911 250.457H24.3867V250.71H67.9911V250.457Z" fill="#EBEBEB"/>
<path d="M83.3731 250.457H76.9795V250.71H83.3731V250.457Z" fill="#EBEBEB"/>
<path d="M198.719 254.719H104.151V254.971H198.719V254.719Z" fill="#EBEBEB"/>
<path d="M375.519 233.669C377.056 231.774 380.026 230.51 383.288 229.901C383.032 230.834 383.224 231.695 383.776 231.906C384.391 232.142 385.216 231.482 385.618 230.431C385.732 230.135 385.795 229.841 385.82 229.563C389.109 229.296 392.397 229.674 394.591 230.727C394.591 230.727 392.443 232.664 390.009 237.756C389.935 237.753 389.86 237.751 389.784 237.752C388.209 237.768 386.939 238.529 386.949 239.451C386.955 240.125 387.644 240.696 388.628 240.951C388.5 241.277 388.372 241.609 388.245 241.953C385.927 248.228 379.742 243.692 379.797 239.397C379.797 239.397 372.074 237.914 375.519 233.669Z" fill="#E6E6E6"/>
<path d="M367.899 225.569C366.005 223.525 362.524 222.305 358.76 221.856C359.121 222.901 358.967 223.896 358.354 224.178C357.67 224.493 356.68 223.801 356.143 222.634C355.991 222.304 355.897 221.974 355.848 221.66C352.08 221.601 348.359 222.278 345.936 223.643C345.936 223.643 348.53 225.691 351.685 231.314C351.771 231.305 351.856 231.297 351.942 231.292C353.739 231.193 355.243 231.965 355.302 233.017C355.344 233.785 354.602 234.489 353.499 234.852C353.67 235.214 353.84 235.583 354.01 235.966C357.123 242.946 363.835 237.312 363.45 232.42C363.45 232.42 372.144 230.152 367.899 225.569Z" fill="#E6E6E6"/>
<path d="M363.3 224.037C364.104 220.111 367.476 216.016 371.767 212.658C372.102 214.212 373.033 215.32 373.998 215.211C375.073 215.088 375.775 213.5 375.565 211.663C375.506 211.145 375.376 210.669 375.202 210.246C379.792 207.364 384.871 205.423 388.868 205.295C388.868 205.295 387.204 209.746 387.517 219.012C387.406 219.065 387.295 219.118 387.184 219.177C384.901 220.394 383.628 222.465 384.34 223.801C384.86 224.778 386.298 225.09 387.924 224.715C387.985 225.287 388.05 225.867 388.126 226.465C389.502 237.367 377.05 235.444 373.877 229.143C373.877 229.143 361.497 232.834 363.3 224.037Z" fill="#EBEBEB"/>
<path d="M372.048 248.949C369.963 237.361 373.08 224.931 380.383 215.697L380.736 215.976C373.511 225.11 370.429 237.406 372.491 248.869L372.048 248.949Z" fill="#E0E0E0"/>
<path d="M371.708 245C371.685 245 371.662 244.996 371.64 244.989C371.572 244.968 371.518 244.915 371.496 244.848C370.025 240.537 365.058 231.251 356.785 226.956C356.674 226.898 356.631 226.762 356.689 226.652C356.747 226.541 356.882 226.5 356.992 226.556C365.213 230.824 370.214 239.934 371.821 244.416C373.447 243.24 382.743 236.533 387.402 233.548C387.507 233.482 387.646 233.51 387.713 233.616C387.78 233.72 387.75 233.859 387.645 233.926C382.565 237.182 371.948 244.881 371.841 244.958C371.801 244.985 371.755 245 371.708 245Z" fill="#E0E0E0"/>
<path d="M385.061 252.592H358.86L358.87 247.793H385.034L385.061 252.592Z" fill="#E0E0E0"/>
<path d="M360.757 251.027L364.851 268.058H379.926L383.577 251.027H360.757Z" fill="#E0E0E0"/>
<path d="M362.651 246.958H360.32C360.237 246.958 360.17 246.891 360.17 246.808C360.17 246.725 360.237 246.658 360.32 246.658H362.651C362.734 246.658 362.801 246.725 362.801 246.808C362.801 246.891 362.734 246.958 362.651 246.958Z" fill="#E0E0E0"/>
<path d="M370.101 246.958H363.722C363.639 246.958 363.572 246.891 363.572 246.808C363.572 246.725 363.639 246.658 363.722 246.658H370.101C370.184 246.658 370.251 246.725 370.251 246.808C370.251 246.891 370.184 246.958 370.101 246.958Z" fill="#E0E0E0"/>
<path d="M312.446 51.0117H311.366V135.234H312.446V51.0117Z" fill="#E0E0E0"/>
<path d="M379.677 51.0117H378.597V135.234H379.677V51.0117Z" fill="#E0E0E0"/>
<path d="M383.907 56.3093H307.137L305.517 52.5293H385.527L383.907 56.3093Z" fill="#F0F0F0"/>
<path d="M383.907 61.4989H307.137L305.517 57.7189H385.527L383.907 61.4989Z" fill="#F0F0F0"/>
<path d="M383.907 66.6882H307.137L305.517 62.9082H385.527L383.907 66.6882Z" fill="#F0F0F0"/>
<path d="M383.907 71.8796H307.137L305.517 68.0996H385.527L383.907 71.8796Z" fill="#F0F0F0"/>
<path d="M383.907 77.0689H307.137L305.517 73.2889H385.527L383.907 77.0689Z" fill="#F0F0F0"/>
<path d="M383.907 82.2585H307.137L305.517 78.4785H385.527L383.907 82.2585Z" fill="#F0F0F0"/>
<path d="M383.907 87.448H307.137L305.517 83.668H385.527L383.907 87.448Z" fill="#F0F0F0"/>
<path d="M383.907 92.6394H307.137L305.517 88.8594H385.527L383.907 92.6394Z" fill="#F0F0F0"/>
<path d="M383.907 97.823H307.137L305.517 94.043H385.527L383.907 97.823Z" fill="#F0F0F0"/>
<path d="M383.907 103.012H307.137L305.517 99.2324H385.527L383.907 103.012Z" fill="#F0F0F0"/>
<path d="M383.907 108.204H307.137L305.517 104.424H385.527L383.907 108.204Z" fill="#F0F0F0"/>
<path d="M383.907 113.393H307.137L305.517 109.613H385.527L383.907 113.393Z" fill="#F0F0F0"/>
<path d="M383.907 118.583H307.137L305.517 114.803H385.527L383.907 118.583Z" fill="#F0F0F0"/>
<path d="M383.907 123.772H307.137L305.517 119.992H385.527L383.907 123.772Z" fill="#F0F0F0"/>
<path d="M383.907 128.964H307.137L305.517 125.184H385.527L383.907 128.964Z" fill="#F0F0F0"/>
<path d="M383.907 134.153H307.137L305.517 130.373H385.527L383.907 134.153Z" fill="#F0F0F0"/>
<path d="M385.527 134.152H305.517V136.312H385.527V134.152Z" fill="#E0E0E0"/>
<path d="M388.317 47.7949H302.727V52.8349H388.317V47.7949Z" fill="#E0E0E0"/>
<path d="M303.602 98.5306C303.122 98.5306 302.732 98.1412 302.732 97.6606V68.2606C302.732 67.78 303.122 67.3906 303.602 67.3906C304.083 67.3906 304.472 67.78 304.472 68.2606V97.6606C304.472 98.1412 304.082 98.5306 303.602 98.5306Z" fill="#E0E0E0"/>
<path d="M303.921 51.8262H303.291V69.2862H303.921V51.8262Z" fill="#E0E0E0"/>
<path d="M286.662 131.224L260.847 136.303C259.705 136.527 258.597 135.784 258.372 134.642L251.615 100.298C251.391 99.156 252.134 98.0484 253.276 97.824L279.091 92.745C280.233 92.5206 281.34 93.264 281.565 94.4058L288.323 128.75C288.547 129.891 287.804 130.999 286.662 131.224Z" fill="#E6E6E6"/>
<path d="M276.724 104.569L259.946 107.87C259.369 107.984 258.809 107.608 258.696 107.031L258.604 106.565C258.491 105.988 258.866 105.428 259.443 105.315L276.22 102.014C276.797 101.901 277.357 102.277 277.471 102.853L277.562 103.319C277.676 103.896 277.3 104.456 276.724 104.569Z" fill="#F0F0F0"/>
<path d="M278.01 111.107L261.233 114.409C260.655 114.522 260.096 114.146 259.982 113.569L259.89 113.103C259.777 112.526 260.153 111.967 260.73 111.853L277.507 108.551C278.084 108.438 278.644 108.814 278.757 109.391L278.849 109.857C278.963 110.434 278.587 110.994 278.01 111.107Z" fill="#F0F0F0"/>
<path d="M279.296 117.645L262.519 120.946C261.941 121.059 261.382 120.684 261.268 120.106L261.176 119.64C261.063 119.063 261.439 118.503 262.016 118.39L278.793 115.089C279.37 114.975 279.93 115.351 280.043 115.928L280.135 116.394C280.249 116.971 279.873 117.531 279.296 117.645Z" fill="#F0F0F0"/>
<path d="M271.658 125.938L263.806 127.483C263.229 127.596 262.669 127.22 262.555 126.643L262.464 126.177C262.35 125.6 262.726 125.04 263.302 124.927L271.155 123.382C271.732 123.268 272.292 123.644 272.405 124.221L272.497 124.687C272.611 125.264 272.235 125.824 271.658 125.938Z" fill="#F0F0F0"/>
<path d="M98.349 72.6615L74.9856 79.2165C72.8496 79.8159 70.6314 78.5703 70.0326 76.4337L60.9924 44.2131C60.393 42.0771 61.6386 39.8595 63.7752 39.2601L87.1386 32.7051C89.2752 32.1057 91.4928 33.3513 92.0922 35.4879L101.132 67.7085C101.731 69.8445 100.486 72.0621 98.349 72.6615Z" fill="#E6E6E6"/>
<path d="M87.1113 44.9633L70.1739 49.7153C69.4413 49.9211 68.6805 49.4933 68.4747 48.7607C68.2689 48.0281 68.6967 47.2673 69.4293 47.0615L86.3667 42.3095C87.0993 42.1037 87.8601 42.5309 88.0653 43.2641C88.2717 43.9973 87.8445 44.7581 87.1113 44.9633Z" fill="#F0F0F0"/>
<path d="M89.0169 51.7517L72.0795 56.5037C71.3469 56.7089 70.5861 56.2817 70.3809 55.5491C70.1751 54.8165 70.6029 54.0557 71.3355 53.8505L88.2729 49.0985C89.0055 48.8927 89.7663 49.3205 89.9721 50.0531C90.1767 50.7857 89.7495 51.5459 89.0169 51.7517Z" fill="#F0F0F0"/>
<path d="M90.921 58.5387L73.9836 63.2907C73.251 63.4965 72.4902 63.0693 72.2844 62.3361C72.0786 61.6035 72.5064 60.8427 73.239 60.6375L90.1764 55.8855C90.909 55.6797 91.6698 56.1075 91.875 56.8401C92.0808 57.5727 91.6536 58.3335 90.921 58.5387Z" fill="#F0F0F0"/>
<path d="M83.5576 67.9267L75.8878 70.0783C75.1552 70.2841 74.3944 69.8563 74.1886 69.1237C73.9828 68.3911 74.41 67.6303 75.1432 67.4245L82.813 65.2723C83.5456 65.0665 84.3064 65.4943 84.5122 66.2269C84.718 66.9601 84.2902 67.7209 83.5576 67.9267Z" fill="#F0F0F0"/>
<path d="M416.206 132.185L401.222 128.627C400.09 128.358 399.389 127.223 399.658 126.09L404.506 105.671C404.774 104.539 405.91 103.839 407.042 104.108L422.026 107.666C423.158 107.934 423.859 109.07 423.59 110.202L418.742 130.622C418.474 131.753 417.338 132.453 416.206 132.185Z" fill="#E6E6E6"/>
<path d="M418.077 114.09L407.683 111.622C407.234 111.515 406.955 111.064 407.062 110.614C407.169 110.165 407.62 109.887 408.069 109.993L418.463 112.461C418.913 112.568 419.191 113.019 419.084 113.469C418.977 113.919 418.526 114.196 418.077 114.09Z" fill="#F0F0F0"/>
<path d="M417.088 118.255L406.694 115.788C406.244 115.681 405.966 115.23 406.073 114.78C406.18 114.331 406.631 114.053 407.08 114.159L417.474 116.627C417.923 116.734 418.202 117.185 418.095 117.635C417.989 118.084 417.538 118.362 417.088 118.255Z" fill="#F0F0F0"/>
<path d="M416.099 122.421L405.705 119.954C405.256 119.847 404.978 119.396 405.084 118.946C405.191 118.497 405.642 118.219 406.092 118.325L416.486 120.793C416.935 120.899 417.213 121.351 417.107 121.8C417 122.25 416.549 122.528 416.099 122.421Z" fill="#F0F0F0"/>
<path d="M409.424 125.235L404.717 124.118C404.268 124.011 403.989 123.56 404.096 123.11C404.203 122.661 404.654 122.383 405.104 122.489L409.81 123.607C410.259 123.713 410.538 124.165 410.431 124.614C410.324 125.064 409.873 125.342 409.424 125.235Z" fill="#F0F0F0"/>
<path d="M45.2976 180.576L34.0716 185.336C33 185.79 31.7634 185.289 31.3092 184.218L24.7254 168.69C24.2712 167.619 24.7716 166.382 25.8426 165.927L37.0692 161.168C38.1408 160.713 39.3774 161.214 39.8316 162.285L46.4154 177.813C46.8696 178.884 46.3692 180.121 45.2976 180.576Z" fill="#E6E6E6"/>
<path d="M37.9083 167.319L29.6811 170.807C29.3253 170.958 28.9143 170.792 28.7637 170.436C28.6131 170.08 28.7793 169.669 29.1351 169.519L37.3623 166.03C37.7181 165.88 38.1291 166.045 38.2797 166.402C38.4303 166.757 38.2641 167.168 37.9083 167.319Z" fill="#F0F0F0"/>
<path d="M39.3057 170.616L31.0785 174.104C30.7227 174.255 30.3117 174.089 30.1611 173.733C30.0105 173.377 30.1767 172.966 30.5325 172.815L38.7597 169.327C39.1155 169.176 39.5265 169.342 39.6777 169.698C39.8277 170.054 39.6615 170.465 39.3057 170.616Z" fill="#F0F0F0"/>
<path d="M40.7042 173.913L32.477 177.401C32.1212 177.552 31.7102 177.385 31.5596 177.03C31.409 176.674 31.5752 176.263 31.931 176.112L40.1582 172.624C40.514 172.473 40.925 172.639 41.0762 172.995C41.2262 173.351 41.06 173.762 40.7042 173.913Z" fill="#F0F0F0"/>
<path d="M37.6002 179.119L33.8748 180.698C33.519 180.85 33.108 180.683 32.9574 180.327C32.8062 179.971 32.9724 179.56 33.3288 179.409L37.0542 177.829C37.41 177.678 37.821 177.844 37.9716 178.201C38.1222 178.557 37.9566 178.967 37.6002 179.119Z" fill="#F0F0F0"/>
<path d="M429.05 269.034C429.05 271.067 337.693 272.716 225 272.716C112.306 272.716 20.9492 271.068 20.9492 269.034C20.9492 267 112.306 265.352 225 265.352C337.693 265.352 429.05 267 429.05 269.034Z" fill="#F5F5F5"/>
<path d="M236.438 268.039H83.8595C81.3983 268.039 79.4033 266.044 79.4033 263.583V47.4289C79.4033 44.9677 81.3983 42.9727 83.8595 42.9727H236.438C238.899 42.9727 240.894 44.9677 240.894 47.4289V263.584C240.894 266.044 238.899 268.039 236.438 268.039Z" fill="#407BFF"/>
<path opacity="0.3" d="M235.027 65.418H85.2686V259.622H235.027V65.418Z" fill="black"/>
<path d="M235.299 51.2363H85.54V253.687H235.299V51.2363Z" fill="white"/>
<path d="M218.073 70.4805H102.766V76.7091H218.073V70.4805Z" fill="#E0E0E0"/>
<path d="M217.802 235.467H102.494V241.695H217.802V235.467Z" fill="#E0E0E0"/>
<path d="M190.866 148.9H107.238V149.5H190.866V148.9Z" fill="#263238"/>
<path d="M190.866 157.688H107.238V158.288H190.866V157.688Z" fill="#263238"/>
<path d="M217.365 161.731H201.547V145.912H217.365V161.731ZM202.148 161.131H216.766V146.512H202.148V161.131Z" fill="#263238"/>
<path d="M211.413 159.863L203.083 153.661L205.248 150.754L210.833 154.913L218.507 145.758L221.284 148.085L211.413 159.863Z" fill="#407BFF"/>
<path d="M190.866 121.104H107.238V121.704H190.866V121.104Z" fill="#263238"/>
<path d="M190.866 129.889H107.238V130.489H190.866V129.889Z" fill="#263238"/>
<path d="M217.365 133.932H201.547V118.113H217.365V133.932ZM202.147 133.332H216.766V118.713H202.147V133.332Z" fill="#263238"/>
<path d="M211.413 132.064L203.083 125.862L205.248 122.955L210.833 127.114L218.507 117.959L221.284 120.287L211.413 132.064Z" fill="#407BFF"/>
<path d="M190.866 93.3066H107.238V93.9066H190.866V93.3066Z" fill="#263238"/>
<path d="M190.866 102.092H107.238V102.692H190.866V102.092Z" fill="#263238"/>
<path d="M217.365 106.135H201.547V90.3163H217.365V106.135ZM202.147 105.535H216.766V90.9163H202.147V105.535Z" fill="#263238"/>
<path d="M211.413 104.267L203.083 98.0647L205.248 95.1583L210.833 99.3169L218.507 90.1621L221.284 92.4895L211.413 104.267Z" fill="#407BFF"/>
<path d="M190.866 176.223H107.238V176.823H190.866V176.223Z" fill="#263238"/>
<path d="M190.866 185.01H107.238V185.61H190.866V185.01Z" fill="#263238"/>
<path d="M217.365 189.05H201.547V173.232H217.365V189.05ZM202.147 188.45H216.766V173.832H202.147V188.45Z" fill="#263238"/>
<path d="M190.866 203.543H107.238V204.143H190.866V203.543Z" fill="#263238"/>
<path d="M190.866 212.328H107.238V212.928H190.866V212.328Z" fill="#263238"/>
<path d="M217.365 216.371H201.547V200.553H217.365V216.371ZM202.147 215.771H216.766V201.153H202.147V215.771Z" fill="#263238"/>
<path d="M185.762 39.0781H134.534V58.3993H185.762V39.0781Z" fill="#263238"/>
<path d="M176.368 41.029H146.411L143.07 26.3164H180.467L176.368 41.029Z" fill="#263238"/>
<path opacity="0.3" d="M177.411 26.3164C177.376 26.4076 173.421 38.9116 173.518 38.9116C173.616 38.9116 176.918 38.9116 176.918 38.9116L180.517 26.3164H177.411Z" fill="black"/>
<path opacity="0.3" d="M182.455 39.0781C182.455 39.0781 182.208 58.3993 182.455 58.3993C182.702 58.3993 185.763 58.3993 185.763 58.3993V39.0781H182.455Z" fill="black"/>
<path d="M384.623 72.8242H368.801C364.744 72.8242 361.455 76.1128 361.455 80.1706V89.0362C361.455 93.0934 364.744 96.3826 368.801 96.3826H372.4L372.975 100.479L377.342 96.3826H384.623C388.681 96.3826 391.969 93.0934 391.969 89.0362V80.1706C391.969 76.1134 388.681 72.8242 384.623 72.8242Z" fill="#407BFF"/>
<path d="M381.349 84.6314C381.349 85.6754 382.195 86.5226 383.24 86.5226C384.285 86.5226 385.131 85.676 385.131 84.6314C385.131 83.5868 384.284 82.7402 383.24 82.7402C382.195 82.7402 381.349 83.5868 381.349 84.6314Z" fill="white"/>
<path d="M374.906 84.6314C374.906 85.6754 375.753 86.5226 376.797 86.5226C377.842 86.5226 378.689 85.676 378.689 84.6314C378.689 83.5868 377.842 82.7402 376.797 82.7402C375.753 82.7402 374.906 83.5868 374.906 84.6314Z" fill="white"/>
<path d="M368.294 84.6314C368.294 85.6754 369.141 86.5226 370.185 86.5226C371.23 86.5226 372.076 85.676 372.076 84.6314C372.076 83.5868 371.23 82.7402 370.185 82.7402C369.141 82.7402 368.294 83.5868 368.294 84.6314Z" fill="white"/>
<path d="M385.031 71.418C381.686 71.418 378.341 71.418 374.996 71.418C374.706 71.418 374.706 71.868 374.996 71.868C378.341 71.868 381.686 71.868 385.031 71.868C385.321 71.868 385.322 71.418 385.031 71.418Z" fill="#407BFF"/>
<path d="M373.738 71.418C373.457 71.418 373.177 71.418 372.897 71.418C372.779 71.418 372.667 71.5218 372.672 71.643C372.677 71.7648 372.771 71.868 372.897 71.868C373.177 71.868 373.457 71.868 373.738 71.868C373.855 71.868 373.968 71.7642 373.963 71.643C373.957 71.5212 373.864 71.418 373.738 71.418Z" fill="#407BFF"/>
<path d="M39.3196 73.5098H54.5836C58.498 73.5098 61.6708 76.6826 61.6708 80.597V89.15C61.6708 93.0638 58.4974 96.2372 54.5836 96.2372H51.112L50.5576 100.189L46.345 96.2372H39.3196C35.4058 96.2372 32.2324 93.0638 32.2324 89.15V80.597C32.2324 76.6826 35.4052 73.5098 39.3196 73.5098Z" fill="#407BFF"/>
<path d="M42.4787 84.9008C42.4787 85.9082 41.6621 86.7248 40.6541 86.7248C39.6467 86.7248 38.8301 85.9082 38.8301 84.9008C38.8301 83.8928 39.6467 83.0762 40.6541 83.0762C41.6621 83.0762 42.4787 83.8928 42.4787 84.9008Z" fill="white"/>
<path d="M48.6945 84.9008C48.6945 85.9082 47.8779 86.7248 46.8705 86.7248C45.8631 86.7248 45.0459 85.9082 45.0459 84.9008C45.0459 83.8928 45.8625 83.0762 46.8705 83.0762C47.8773 83.0762 48.6945 83.8928 48.6945 84.9008Z" fill="white"/>
<path d="M55.0733 84.9008C55.0733 85.9082 54.2567 86.7248 53.2487 86.7248C52.2413 86.7248 51.4247 85.9082 51.4247 84.9008C51.4247 83.8928 52.2413 83.0762 53.2487 83.0762C54.2567 83.0762 55.0733 83.8928 55.0733 84.9008Z" fill="white"/>
<path d="M38.9251 72.5945C42.1525 72.5945 45.3793 72.5945 48.6067 72.5945C48.8965 72.5945 48.8965 72.1445 48.6067 72.1445C45.3793 72.1445 42.1525 72.1445 38.9251 72.1445C38.6359 72.1445 38.6353 72.5945 38.9251 72.5945Z" fill="#407BFF"/>
<path d="M49.8219 72.5945C50.0925 72.5945 50.3625 72.5945 50.6331 72.5945C50.7507 72.5945 50.8635 72.4907 50.8581 72.3695C50.8527 72.2477 50.7591 72.1445 50.6331 72.1445C50.3625 72.1445 50.0925 72.1445 49.8219 72.1445C49.7043 72.1445 49.5915 72.2483 49.5969 72.3695C49.6023 72.4919 49.6959 72.5945 49.8219 72.5945Z" fill="#407BFF"/>
<path d="M283.205 67.1079C290.608 61.6307 292.168 51.1893 286.691 43.7864C281.214 36.3834 270.772 34.8223 263.37 40.2995C255.967 45.7767 254.406 56.2181 259.884 63.621C265.361 71.024 275.802 72.5851 283.205 67.1079Z" fill="#407BFF"/>
<path opacity="0.3" d="M283.205 67.1079C290.608 61.6307 292.168 51.1893 286.691 43.7864C281.214 36.3834 270.772 34.8223 263.37 40.2995C255.967 45.7767 254.406 56.2181 259.884 63.621C265.361 71.024 275.802 72.5851 283.205 67.1079Z" fill="black"/>
<path d="M284.013 64.755C277.405 71.169 266.849 71.0124 260.435 64.4046C254.021 57.7968 254.178 47.241 260.786 40.827C267.394 34.413 277.949 34.5696 284.363 41.1774C290.777 47.7846 290.621 58.341 284.013 64.755Z" fill="#407BFF"/>
<path d="M283.488 61.0872C288.077 54.9654 286.834 46.2829 280.712 41.6942C274.591 37.1055 265.908 38.3483 261.319 44.4702C256.731 50.592 257.973 59.2746 264.095 63.8632C270.217 68.4519 278.9 67.2091 283.488 61.0872Z" fill="white"/>
<path d="M265.751 62.6201L267.591 59.8937C267.645 59.9303 267.699 59.9657 267.754 60.0011L265.981 62.7713C265.903 62.7221 265.827 62.6711 265.751 62.6201ZM262.078 58.6445C262.032 58.5647 261.988 58.4837 261.945 58.4021L264.846 56.8535C264.876 56.9105 264.907 56.9675 264.939 57.0233L262.078 58.6445ZM271.078 64.5851L271.44 61.3163L271.644 61.3373L271.344 64.6121C271.255 64.6037 271.167 64.5947 271.078 64.5851ZM260.538 53.1803C260.535 53.0891 260.533 52.9985 260.532 52.9073L263.821 52.8749L263.825 53.0735L260.538 53.1803ZM276.706 63.8477L275.509 60.7847L275.695 60.7103L277.006 63.7265L276.928 63.7589C276.874 63.7811 276.79 63.8147 276.706 63.8477ZM261.716 47.6297C261.756 47.5469 261.796 47.4653 261.838 47.3837L264.767 48.8795C264.737 48.9371 264.708 48.9959 264.68 49.0547L261.716 47.6297ZM278.892 58.3985C278.932 58.3517 278.972 58.3043 279.012 58.2563L281.551 60.3461C281.491 60.4193 281.43 60.4907 281.368 60.5621L278.892 58.3985ZM267.292 45.8993L265.341 43.2521L265.554 43.0979L267.459 45.7787L267.292 45.8993ZM280.75 54.7475L280.794 54.5519L284.011 55.2395C283.992 55.3277 283.972 55.4153 283.951 55.5029L280.75 54.7475ZM271.083 44.3141L270.575 41.0651C270.662 41.0513 270.75 41.0387 270.838 41.0273L271.287 44.2847L271.083 44.3141ZM280.704 50.6447C280.688 50.5829 280.672 50.5217 280.654 50.4599L283.816 49.5563C283.842 49.6457 283.866 49.7357 283.89 49.8251L280.704 50.6447ZM275.17 44.6747L276.232 41.5619C276.321 41.5925 276.409 41.6237 276.498 41.6567L275.347 44.7377C275.289 44.7155 275.229 44.6945 275.17 44.6747ZM278.758 47.0327L278.625 46.8887L281.012 44.6255C281.075 44.6915 281.137 44.7587 281.198 44.8259L278.758 47.0327Z" fill="black"/>
<path d="M272.219 53.6293C272.206 53.6293 272.192 53.6287 272.178 53.6269C272.087 53.6143 272.007 53.5603 271.96 53.4805L268.654 47.7931C268.571 47.6497 268.619 47.4661 268.763 47.3827C268.905 47.2993 269.09 47.3473 269.174 47.4913L272.286 52.8469L277.36 47.9107C277.478 47.7955 277.669 47.7979 277.784 47.9167C277.899 48.0355 277.898 48.2257 277.778 48.3409L272.429 53.5447C272.372 53.5993 272.297 53.6293 272.219 53.6293Z" fill="black"/>
<path d="M273.184 53.5873C272.807 54.0169 272.154 54.0595 271.724 53.6833C271.295 53.3065 271.252 52.6531 271.628 52.2235C272.005 51.7939 272.659 51.7513 273.088 52.1275C273.518 52.5043 273.561 53.1577 273.184 53.5873Z" fill="black"/>
<path opacity="0.3" d="M263.155 43.8736C268.644 38.545 277.414 38.6752 282.743 44.1646C284.052 45.5134 285.028 47.0614 285.679 48.7066C285.061 46.6456 283.962 44.6956 282.36 43.0456C277.032 37.5562 268.261 37.426 262.772 42.7546C258.631 46.774 257.544 52.75 259.544 57.8002C258.108 53.0068 259.316 47.6002 263.155 43.8736Z" fill="black"/>
<path d="M41.8773 261.386C41.8773 261.133 39.2331 235.678 45.0741 214.025L45.8211 214.22C40.0251 235.738 42.6243 261.058 42.6243 261.312L41.8773 261.386Z" fill="#263238"/>
<path d="M48.2106 219.516C48.2106 219.516 40.1664 234.454 41.7726 252.058C41.7726 252.058 45.1182 230.428 48.2106 219.516Z" fill="#407BFF"/>
<path d="M32.2197 212.121C32.2197 212.121 43.9611 228.635 41.9295 249.72C41.9145 249.742 37.3509 223.228 32.2197 212.121Z" fill="#407BFF"/>
<path d="M41.8773 254.815C41.8773 254.815 44.4165 233.013 30.9279 226.717C30.8901 226.717 38.0829 232.035 41.8773 254.815Z" fill="#407BFF"/>
<path d="M43.2593 214.362L43.0127 214.407C42.6593 214.472 42.4253 214.809 42.4889 215.163C42.4931 215.185 42.4979 215.207 42.5045 215.229L42.8033 216.312C42.8981 216.659 43.2551 216.863 43.6013 216.768C43.7087 216.738 43.8065 216.682 43.8863 216.604L44.2895 216.216C44.5529 215.966 44.9687 215.977 45.2189 216.24C45.2795 216.304 45.3269 216.38 45.3575 216.462L45.9029 217.956C46.0241 218.294 46.3961 218.469 46.7339 218.348C46.7747 218.333 46.8143 218.315 46.8515 218.292L48.1061 217.545C48.4139 217.361 48.5141 216.962 48.3299 216.654C48.3047 216.612 48.2747 216.573 48.2405 216.537L48.0389 216.328C47.7911 216.063 47.8055 215.647 48.0707 215.399C48.1859 215.291 48.3365 215.229 48.4943 215.223H49.5851C49.9439 215.214 50.2277 214.917 50.2193 214.558C50.2187 214.53 50.2163 214.503 50.2121 214.476L50.0927 213.542C50.0477 213.186 49.7225 212.934 49.3661 212.979C49.2941 212.988 49.2239 213.01 49.1585 213.042L49.0835 213.079C48.7541 213.231 48.3635 213.087 48.2111 212.757C48.1337 212.59 48.1307 212.397 48.2021 212.227L48.5603 211.406C48.7031 211.077 48.5525 210.694 48.2231 210.551C48.1661 210.526 48.1061 210.509 48.0449 210.502L46.8869 210.345C46.5323 210.291 46.2011 210.536 46.1471 210.891C46.1429 210.918 46.1405 210.945 46.1399 210.973C46.1225 211.335 45.8147 211.616 45.4523 211.598C45.2297 211.587 45.0269 211.464 44.9153 211.272L44.7659 211.003C44.5853 210.688 44.1839 210.579 43.8689 210.759C43.8263 210.784 43.7861 210.813 43.7501 210.846L42.8909 211.653C42.6269 211.902 42.6149 212.318 42.8639 212.582C42.8723 212.591 42.8813 212.6 42.8909 212.609L43.5779 213.244C43.8413 213.494 43.8515 213.91 43.6013 214.173C43.5113 214.269 43.3907 214.335 43.2593 214.362Z" fill="#407BFF"/>
<path opacity="0.7" d="M43.2593 214.362L43.0127 214.407C42.6593 214.472 42.4253 214.809 42.4889 215.163C42.4931 215.185 42.4979 215.207 42.5045 215.229L42.8033 216.312C42.8981 216.659 43.2551 216.863 43.6013 216.768C43.7087 216.738 43.8065 216.682 43.8863 216.604L44.2895 216.216C44.5529 215.966 44.9687 215.977 45.2189 216.24C45.2795 216.304 45.3269 216.38 45.3575 216.462L45.9029 217.956C46.0241 218.294 46.3961 218.469 46.7339 218.348C46.7747 218.333 46.8143 218.315 46.8515 218.292L48.1061 217.545C48.4139 217.361 48.5141 216.962 48.3299 216.654C48.3047 216.612 48.2747 216.573 48.2405 216.537L48.0389 216.328C47.7911 216.063 47.8055 215.647 48.0707 215.399C48.1859 215.291 48.3365 215.229 48.4943 215.223H49.5851C49.9439 215.214 50.2277 214.917 50.2193 214.558C50.2187 214.53 50.2163 214.503 50.2121 214.476L50.0927 213.542C50.0477 213.186 49.7225 212.934 49.3661 212.979C49.2941 212.988 49.2239 213.01 49.1585 213.042L49.0835 213.079C48.7541 213.231 48.3635 213.087 48.2111 212.757C48.1337 212.59 48.1307 212.397 48.2021 212.227L48.5603 211.406C48.7031 211.077 48.5525 210.694 48.2231 210.551C48.1661 210.526 48.1061 210.509 48.0449 210.502L46.8869 210.345C46.5323 210.291 46.2011 210.536 46.1471 210.891C46.1429 210.918 46.1405 210.945 46.1399 210.973C46.1225 211.335 45.8147 211.616 45.4523 211.598C45.2297 211.587 45.0269 211.464 44.9153 211.272L44.7659 211.003C44.5853 210.688 44.1839 210.579 43.8689 210.759C43.8263 210.784 43.7861 210.813 43.7501 210.846L42.8909 211.653C42.6269 211.902 42.6149 212.318 42.8639 212.582C42.8723 212.591 42.8813 212.6 42.8909 212.609L43.5779 213.244C43.8413 213.494 43.8515 213.91 43.6013 214.173C43.5113 214.269 43.3907 214.335 43.2593 214.362Z" fill="white"/>
<path d="M44.3343 249.206L45.2757 241.924H37.0593L37.9929 249.206C34.0647 250.559 31.4259 254.253 31.4199 258.408C31.4931 260.659 32.0373 262.87 33.0183 264.898C33.9687 266.892 35.9865 268.155 38.1945 268.14H44.1699C46.3767 268.158 48.3933 266.893 49.3383 264.898C50.3247 262.872 50.8719 260.66 50.9439 258.408C50.9445 254.24 48.2847 250.537 44.3343 249.206Z" fill="#407BFF"/>
<path opacity="0.7" d="M44.3343 249.206L45.2757 241.924H37.0593L37.9929 249.206C34.0647 250.559 31.4259 254.253 31.4199 258.408C31.4931 260.659 32.0373 262.87 33.0183 264.898C33.9687 266.892 35.9865 268.155 38.1945 268.14H44.1699C46.3767 268.158 48.3933 266.893 49.3383 264.898C50.3247 262.872 50.8719 260.66 50.9439 258.408C50.9445 254.24 48.2847 250.537 44.3343 249.206Z" fill="white"/>
<path d="M359.202 186.187L354.896 185.906C354.896 185.906 351.877 163.779 351.589 162.897C351.192 161.29 348.776 148.952 347.821 145.803L348.283 145.731C347.77 144.11 348.206 142.359 349.878 141.81C351.551 141.261 353.845 142.163 354.364 143.77C355.44 147.038 357.491 159.453 357.799 160.943C357.802 160.978 357.802 161.013 357.799 161.048C358.779 167.523 359.202 186.187 359.202 186.187Z" fill="#B97964"/>
<path d="M359.202 186.188C359.202 188.2 357.408 189.239 356.114 189.377H349.283L348.885 189.279C348.766 189.246 348.695 189.12 348.728 188.998C348.739 188.955 348.762 188.916 348.795 188.886L350.026 187.88C351.384 186.763 353.23 186.397 354.896 185.92L359.202 186.188Z" fill="#B97964"/>
<path d="M350.459 135.013C349.837 135.318 349.369 135.409 348.923 135.869C344.36 140.575 348.351 152.735 348.351 152.735L356.944 151.925C356.944 151.925 357.796 141.561 356.822 138.326C355.791 134.935 353.804 132.784 350.459 135.013Z" fill="#407BFF"/>
<path opacity="0.2" d="M357.034 150.69L352.552 145.518L356.944 151.924L357.034 150.69Z" fill="black"/>
<path d="M379.318 253.768L380.078 261.732L386.068 262.388L386.676 253.823L379.318 253.768Z" fill="#E4897B"/>
<path d="M378.781 260.355C378.768 260.041 379.042 259.791 379.35 259.803L381.171 259.873C381.631 259.88 382.101 260.736 382.368 261.118C383.518 262.768 384.408 262.163 385.704 260.645C386.517 260.56 386.722 261.512 386.785 261.768L388.23 267.427C388.356 267.9 388.081 268.387 387.618 268.516C387.535 268.539 387.45 268.549 387.364 268.546C384.895 268.512 383.727 268.496 380.653 268.453L371.253 268.323C368.691 268.287 368.195 265.646 369.253 265.417C374.014 264.414 377.394 263.036 378.88 261.649C379.088 261.465 378.804 260.932 378.781 260.355Z" fill="#407BFF"/>
<path d="M379.614 263.518C379.563 263.518 379.513 263.492 379.485 263.446C379.138 262.865 378.538 262.458 377.879 262.358C377.797 262.346 377.742 262.27 377.754 262.187C377.766 262.106 377.84 262.051 377.925 262.062C378.67 262.175 379.35 262.635 379.743 263.291C379.785 263.362 379.762 263.454 379.691 263.497C379.667 263.512 379.641 263.518 379.614 263.518Z" fill="white"/>
<path d="M378.264 264.302C378.213 264.302 378.163 264.276 378.135 264.229C377.788 263.65 377.188 263.243 376.53 263.142C376.447 263.129 376.392 263.053 376.404 262.971C376.417 262.888 376.495 262.833 376.575 262.845C377.321 262.96 378 263.42 378.393 264.075C378.435 264.146 378.412 264.238 378.341 264.281C378.317 264.295 378.291 264.302 378.264 264.302Z" fill="white"/>
<path d="M376.604 265.093C376.553 265.093 376.503 265.067 376.475 265.021C376.128 264.44 375.527 264.034 374.869 263.933C374.787 263.921 374.732 263.844 374.744 263.762C374.756 263.68 374.836 263.624 374.915 263.636C375.66 263.75 376.339 264.211 376.732 264.866C376.774 264.937 376.751 265.029 376.681 265.072C376.657 265.087 376.63 265.093 376.604 265.093Z" fill="white"/>
<path d="M351.691 144.128C353.934 148.095 358.74 153.408 371.556 161.583L387.359 149.167C382.047 142.691 379.297 138.997 372.812 125.019C372.196 123.638 370.431 122.002 368.986 121.637C367.791 121.354 366.534 121.548 365.475 122.179C364.302 122.878 363.027 123.682 361.783 124.571C358.95 126.479 356.256 128.593 353.722 130.897C351.953 132.563 350.184 134.471 348.922 135.869C348.922 135.869 348.922 136.091 349.024 136.608C349.47 139.256 350.372 141.802 351.691 144.128Z" fill="#407BFF"/>
<path d="M341.969 106.792C339.248 109.747 339.034 113.09 339.584 115.339C340.67 118.292 342.202 120.196 343.683 122.962L347.647 103.16C345.866 103.991 344.939 103.808 341.969 106.792Z" fill="#263238"/>
<path d="M345.619 104.238C348.416 102 351.879 102.99 353.941 103.761C356.279 104.966 357.986 107.135 358.632 109.721C359.179 112.152 359.844 115.1 358.674 116.722C358.024 117.655 357.021 118.272 355.91 118.423L341.533 110.226C342.377 107.916 343.783 105.855 345.619 104.238Z" fill="#263238"/>
<path d="M358.753 137.227C360.059 137.547 360.168 135 360.948 133.879C363.122 128.269 361.418 124.818 361.418 124.818C359.344 124.164 358.829 123.319 357.649 120.444C357.611 120.363 357.567 120.285 357.517 120.21C357.298 119.866 356.98 119.601 356.607 119.449C355.597 119.006 354.427 119.482 353.993 120.511C353.992 120.513 353.993 120.513 353.992 120.514L351.694 123.147C351.711 123.191 351.728 123.235 351.747 123.285C352.622 124.709 353.346 125.785 353.875 126.658C353.919 126.774 354.006 126.873 354.064 126.978C354.108 127.094 354.187 127.203 354.25 127.305C354.921 128.536 353.971 130.245 353.425 131.178C353.115 131.776 354.335 136.159 358.753 137.227Z" fill="#B97964"/>
<path opacity="0.2" d="M350.607 123.528C350.613 123.477 350.612 123.424 350.603 123.373L353.607 121.626C354.366 120.806 355.628 120.756 356.428 121.513C356.716 121.788 356.918 122.142 357.009 122.533L354.152 127.153C354.152 127.153 352.04 123.927 352.011 123.927C351.983 123.927 350.607 123.528 350.607 123.528Z" fill="black"/>
<path d="M357.014 110.866C358.156 116.518 358.762 118.874 356.813 122.571C353.875 128.125 346.948 128.525 344.174 123.382C341.716 118.742 340.237 110.303 344.889 106.446C349.541 102.588 355.865 105.209 357.014 110.866Z" fill="#B97964"/>
<path d="M360.557 115.08C360.269 116.43 359.445 117.495 358.56 118.062C357.23 118.915 355.741 116.814 355.772 115.182C355.8 113.714 356.946 112.362 358.445 112.177C359.921 111.994 360.887 113.536 360.557 115.08Z" fill="#B97964"/>
<path opacity="0.2" d="M357.408 115.963C357.34 115.963 357.279 115.917 357.262 115.849C357.123 115.273 357.215 114.649 357.516 114.136C357.819 113.623 358.318 113.242 358.886 113.09C358.966 113.071 359.048 113.116 359.07 113.197C359.091 113.276 359.044 113.359 358.963 113.38C358.471 113.512 358.037 113.843 357.775 114.289C357.513 114.734 357.432 115.277 357.554 115.778C357.573 115.858 357.524 115.94 357.443 115.959C357.431 115.961 357.419 115.963 357.408 115.963Z" fill="black"/>
<path d="M350.327 115.05C350.484 115.644 350.322 116.229 349.965 116.357C349.608 116.485 349.191 116.108 349.034 115.514C348.876 114.92 349.038 114.335 349.395 114.207C349.752 114.079 350.169 114.456 350.327 115.05Z" fill="#263238"/>
<path d="M344.932 116.845C345.083 117.421 344.917 117.991 344.562 118.119C344.206 118.247 343.794 117.884 343.643 117.308C343.492 116.732 343.657 116.161 344.013 116.033C344.369 115.906 344.781 116.269 344.932 116.845Z" fill="#263238"/>
<path d="M350.824 112.63C350.757 112.662 350.68 112.665 350.61 112.633C349.52 112.128 348.659 112.723 348.649 112.73C348.521 112.819 348.354 112.786 348.277 112.652C348.199 112.518 348.241 112.336 348.369 112.244C348.414 112.213 349.493 111.464 350.847 112.092C350.982 112.154 351.038 112.326 350.974 112.476C350.941 112.547 350.887 112.601 350.824 112.63Z" fill="#263238"/>
<path d="M342.245 114.681C342.184 114.681 342.125 114.655 342.082 114.603C341.993 114.494 342.004 114.315 342.106 114.202C343.13 113.072 344.227 113.3 344.273 113.311C344.404 113.341 344.48 113.488 344.443 113.642C344.407 113.796 344.27 113.896 344.14 113.868C344.098 113.858 343.244 113.695 342.43 114.594C342.377 114.652 342.31 114.682 342.245 114.681Z" fill="#263238"/>
<path d="M346.314 116.084C346.314 116.084 346.112 118.44 345.554 120.054C345.456 120.336 345.665 120.63 345.957 120.64C346.712 120.664 347.429 120.171 347.429 120.171L346.314 116.084Z" fill="#A24E3F"/>
<path d="M349.608 114.162L348.259 114.284C348.259 114.284 349.244 114.999 349.608 114.162Z" fill="#263238"/>
<path d="M344.147 116.004L342.798 116.126C342.798 116.126 343.782 116.842 344.147 116.004Z" fill="#263238"/>
<path d="M348.14 121.626C348.718 122.037 349.574 122.941 349.574 122.941C349.67 122.877 349.766 122.811 349.858 122.742C351.134 121.827 351.434 120.979 351.379 120.315C351.347 119.952 351.205 119.644 351.059 119.413C350.893 119.145 350.714 118.992 350.714 118.992C350.318 119.884 349.192 120.828 348.57 121.308C348.311 121.511 348.14 121.626 348.14 121.626Z" fill="#263238"/>
<path d="M348.57 121.307L349.004 121.684C350.203 120.82 350.936 120.049 351.059 119.413C350.894 119.145 350.714 118.992 350.714 118.992C350.318 119.883 349.192 120.828 348.57 121.307Z" fill="white"/>
<path d="M349.857 122.741C351.133 121.826 351.433 120.978 351.378 120.314C350.955 120.643 350.48 121.086 350.156 121.612C349.906 122.014 349.844 122.403 349.857 122.741Z" fill="#DE5753"/>
<path d="M355.401 112.705C355.401 112.705 351.402 109.81 350.596 106.695C350.596 106.695 338.674 106.916 341.956 116.577C341.956 116.577 337.57 108.6 346.525 104.937C355.481 101.274 360.157 113.067 356.919 118.367C356.892 118.326 357.881 114.525 355.401 112.705Z" fill="#263238"/>
<path d="M363.607 102.823C363.967 105.433 362.172 107.872 359.596 108.269C357.021 108.667 354.64 106.873 354.28 104.261C353.942 101.807 355.512 99.4751 357.895 98.8931C360.557 98.3759 363.108 100.13 363.607 102.823Z" fill="#263238"/>
<path d="M342.586 107.193C341.633 108.677 341.166 110.424 341.254 112.182C341.53 113.405 343.373 113.888 343.373 113.888L344.78 110.731L345.308 113.074C348.514 111.906 350.017 109.674 350.568 106.847L347.986 103.979C347.986 103.979 343.461 105.969 342.586 107.193Z" fill="#263238"/>
<path d="M359.025 106.77C359.607 108.027 360.656 109.05 361.916 109.591C361.347 109.782 360.719 109.782 360.153 109.59C360.285 110.064 360.497 110.513 360.778 110.912C359.194 110.115 358.013 108.551 357.662 106.787L359.025 106.77Z" fill="#263238"/>
<path d="M369.935 160.805L386.417 148.004Z" fill="#407BFF"/>
<path d="M417.376 245.588L422.723 251.445L427.946 248.371L423.328 241.189L417.376 245.588Z" fill="#E4897B"/>
<path d="M420.872 251.155C420.675 250.913 420.744 250.545 420.996 250.364L422.484 249.291C422.854 249.012 423.736 249.401 424.176 249.54C426.073 250.137 426.419 249.106 426.545 247.098C427.14 246.527 427.87 247.156 428.072 247.321L432.591 250.922C432.972 251.22 433.045 251.777 432.753 252.165C432.7 252.234 432.639 252.296 432.57 252.347C430.587 253.848 429.649 254.56 427.182 256.429L419.637 262.147C417.58 263.705 415.613 261.914 416.318 261.077C419.502 257.331 421.368 254.144 421.722 252.121C421.777 251.847 421.233 251.599 420.872 251.155Z" fill="#407BFF"/>
<path d="M421.279 253.321C421.227 253.321 421.176 253.294 421.148 253.244C421.108 253.172 421.133 253.081 421.206 253.04C421.866 252.67 422.68 252.614 423.384 252.892C423.461 252.923 423.498 253.01 423.468 253.087C423.438 253.164 423.351 253.201 423.274 253.171C422.654 252.926 421.936 252.974 421.353 253.302C421.329 253.315 421.304 253.321 421.279 253.321Z" fill="white"/>
<path d="M420.673 254.781C420.621 254.781 420.57 254.753 420.543 254.704C420.502 254.632 420.528 254.541 420.6 254.5C421.261 254.128 422.075 254.073 422.778 254.351C422.856 254.382 422.893 254.469 422.863 254.545C422.832 254.623 422.746 254.659 422.668 254.63C422.049 254.385 421.33 254.435 420.747 254.761C420.724 254.774 420.699 254.781 420.673 254.781Z" fill="white"/>
<path d="M419.825 256.438C419.772 256.438 419.721 256.411 419.694 256.361C419.654 256.289 419.679 256.198 419.751 256.157C420.411 255.787 421.226 255.731 421.93 256.009C422.006 256.039 422.045 256.126 422.014 256.203C421.983 256.28 421.897 256.318 421.82 256.288C421.2 256.043 420.48 256.091 419.898 256.419C419.875 256.432 419.85 256.438 419.825 256.438Z" fill="white"/>
<path d="M371.557 161.583C371.557 161.583 376.331 222.52 376.369 222.859L379.355 258.526H387.109C387.109 258.526 387.161 256.472 387.565 253.766C391.103 230.052 387.475 222.388 387.475 222.388C387.475 222.388 390.59 176.606 391.679 173.155C391.787 172.796 388.077 146.56 371.557 161.583Z" fill="#263238"/>
<path d="M371.438 161.507L371.653 161.864C374.848 166.187 380.903 170.792 384.067 174.742L385.168 177.233C385.168 177.233 409.636 160.12 394.662 152.76C394.04 152.454 388.026 149.258 388.026 149.258C384.059 148.285 371.438 161.507 371.438 161.507Z" fill="#263238"/>
<path d="M404.02 178.74C404.116 186.641 405.014 207.143 406.084 214.966C406.084 214.966 412.229 219.803 415.388 224.665L424.975 243.523L418.849 247.574L399.147 228.131C394.708 223.628 393.097 220.54 391.681 216.58C388.214 206.909 387.538 195.146 386.014 185.704C385.309 181.325 382.214 167.099 383.29 162.832C384.739 157.055 386.352 147.605 392.997 151.886C399.514 154.897 403.366 156.77 404.02 178.74Z" fill="#263238"/>
<path opacity="0.2" d="M388.73 204.844L383.064 167.934L376.603 165.779L381.647 170.481L388.73 204.844Z" fill="black"/>
<path opacity="0.2" d="M357.465 145.917C357.465 145.917 368.199 151.143 371.614 149.208C375.029 147.274 374.402 140.74 374.34 139.472C374.28 138.225 374.115 136.872 374.115 136.872L374.922 136.773L373.235 126.832C373.235 126.832 370.502 144.933 369.935 144.933C369.368 144.933 357.465 145.917 357.465 145.917Z" fill="black"/>
<path d="M372.576 130.591C373.435 134.29 373.249 141.237 373.134 144.001C373.098 145.302 372.599 146.544 371.73 147.497C370.666 148.627 369.524 149.208 365.963 148.209C362.92 147.355 349.452 143.787 349.452 143.787L350.31 140.318C350.31 140.318 357.277 141.209 366.332 142.242C366.224 137.773 366.393 131.696 366.764 130.239C367.386 127.846 371.487 125.906 372.576 130.591Z" fill="#B97964"/>
<path d="M366.188 122.358C364.265 123.796 364.028 136.393 364.028 136.393H373.452C373.452 136.393 373.846 127.618 373.013 125.494C371.719 122.064 368.341 120.744 366.188 122.358Z" fill="#407BFF"/>
<path d="M351.694 140.338L348.308 138.647C347.932 138.462 347.525 138.35 347.108 138.317L345.049 138.169C344.225 138.114 343.513 138.749 343.458 139.59C343.458 139.594 343.457 139.6 343.457 139.605L343.355 141.459C343.33 142.194 343.825 142.843 344.53 142.998L346.627 143.46C346.627 143.46 350.251 144.937 351.335 143.101L351.694 140.338Z" fill="#B97964"/>
<path d="M344.246 140.212C344.185 139.839 342.972 139.627 342.236 139.515C341.501 139.404 339.51 139.326 339.092 138.974C338.675 138.622 338.744 137.88 339.161 137.887C339.579 137.894 340.906 137.875 341.952 137.971C342.998 138.067 345.013 138.077 345.448 138.19C345.883 138.304 344.246 140.212 344.246 140.212Z" fill="#B97964"/>
<path d="M279.991 162.313L290.509 168.121L301.649 152.502L306.067 160.485C306.067 160.485 295.417 176.453 291.423 176.681C287.428 176.909 276.957 165.788 276.957 165.788L279.991 162.313Z" fill="#E4897B"/>
<path d="M280.533 162.797C280.533 162.797 281.239 160.831 280.485 159.277C279.73 157.723 279.541 156.282 278.9 155.166C278.259 154.049 277.929 155.755 277.936 156.698C277.944 157.641 277.944 158.71 277.234 158.601C276.525 158.493 271.699 154.648 270.698 154.609C269.698 154.57 270.284 155.436 270.284 155.436C270.284 155.436 269.086 154.534 268.6 154.911C268.473 155.009 268.338 155.442 268.819 155.938C269.902 157.056 272.295 159.284 272.295 159.284C272.16 159.153 269.01 156.614 268.489 156.295C267.807 155.879 267.274 156.03 267.045 156.433C266.72 157.006 270.518 160.288 270.581 160.538C270.581 160.538 268.458 158.575 267.651 158.847C266.845 159.117 268.114 160.426 269.452 161.367C270.679 162.229 272.86 164.242 274.192 164.998C275.834 165.93 277.146 166.186 278.577 165.146C280.009 164.105 280.533 162.797 280.533 162.797Z" fill="#E4897B"/>
<path opacity="0.3" d="M273.183 158.04C273.146 158.04 273.109 158.027 273.08 157.998C272.216 157.174 271.305 156.381 270.371 155.64C270.306 155.589 270.296 155.495 270.347 155.429C270.399 155.364 270.494 155.355 270.558 155.405C271.498 156.151 272.417 156.95 273.287 157.781C273.347 157.838 273.349 157.933 273.292 157.994C273.262 158.024 273.222 158.04 273.183 158.04Z" fill="black"/>
<path opacity="0.3" d="M271.38 161.478C271.36 161.478 271.34 161.474 271.32 161.466C271.244 161.433 271.209 161.345 271.242 161.269C271.862 159.822 272.931 158.549 274.251 157.687C274.319 157.641 274.413 157.661 274.458 157.73C274.504 157.799 274.484 157.892 274.415 157.938C273.144 158.768 272.115 159.993 271.518 161.387C271.493 161.444 271.437 161.478 271.38 161.478Z" fill="black"/>
<path opacity="0.3" d="M277.797 162.974C277.762 162.974 277.728 162.962 277.699 162.938C277.196 162.508 276.843 161.886 276.731 161.232C276.618 160.578 276.744 159.875 277.074 159.3C277.116 159.227 277.207 159.204 277.279 159.245C277.351 159.286 277.375 159.378 277.335 159.45C277.038 159.964 276.925 160.595 277.026 161.181C277.127 161.768 277.443 162.324 277.894 162.711C277.957 162.764 277.964 162.859 277.91 162.922C277.881 162.957 277.839 162.974 277.797 162.974Z" fill="black"/>
<path d="M317.001 143.446C317.113 144.506 317.064 145.44 316.708 145.915C316.339 146.403 315.711 146.736 315.029 146.965C315.635 148.128 317.161 149.066 317.161 149.066H321.437C321.437 149.066 323.371 149.496 324.105 149.081C324.711 148.739 325.351 148.417 325.928 148.028C326.22 147.831 326.495 147.596 326.767 147.353C325.867 146.828 325.044 146.114 324.756 145.177C324.01 142.757 324.812 134.5 324.812 134.5L315.787 138.21C315.787 138.21 315.857 138.413 315.962 138.755C316.248 139.708 316.826 141.744 317.001 143.446Z" fill="#E4897B"/>
<path d="M311.583 120.93C311.83 120.615 311.148 113.545 323.32 117.063C332.359 119.676 328.944 126.761 328.944 126.761L318.608 119.295L311.583 120.93Z" fill="#263238"/>
<path opacity="0.2" d="M323.315 138.69C323.315 138.69 321.376 142.721 316.919 142.582C316.745 140.88 316.166 138.844 315.88 137.888C316.215 137.762 316.431 137.686 316.431 137.686L323.315 138.69Z" fill="black"/>
<path d="M311.821 119.48C311.821 119.48 309.193 126.912 312.693 130.633C316.193 134.353 318.917 120.105 318.917 120.105L311.821 119.48Z" fill="#263238"/>
<path d="M323.324 138.972C320.572 141.048 317.455 141.555 314.833 140.138C313.146 139.23 311.766 137.677 311.104 135.697C311.014 135.439 310.942 135.168 310.878 134.892C309.773 129.833 310.701 121.53 316.233 119.409C320.167 117.869 324.615 119.811 326.154 123.752C326.599 124.87 326.763 126.08 326.65 127.282C326.212 132.867 326.539 136.545 323.324 138.972Z" fill="#E4897B"/>
<path d="M319.077 128.734C319.107 129.317 318.75 129.79 318.359 129.781C317.968 129.773 317.675 129.286 317.683 128.701C317.691 128.115 318.02 127.644 318.401 127.652C318.782 127.662 319.085 128.139 319.077 128.734Z" fill="#263238"/>
<path d="M313.47 128.735C313.499 129.319 313.133 129.792 312.752 129.783C312.371 129.775 312.068 129.288 312.075 128.703C312.083 128.118 312.413 127.646 312.794 127.654C313.175 127.663 313.479 128.178 313.47 128.735Z" fill="#263238"/>
<path d="M314.599 128.834C314.029 130.218 313.27 131.516 312.344 132.692C312.969 133.158 313.768 133.323 314.527 133.144L314.599 128.834Z" fill="#DE5753"/>
<path d="M311.098 126.338C311.185 126.389 311.292 126.389 311.378 126.339C311.955 125.976 312.668 125.907 313.303 126.152C313.435 126.216 313.595 126.162 313.66 126.03C313.725 125.898 313.671 125.739 313.539 125.674L313.537 125.673C312.742 125.343 311.836 125.42 311.107 125.878C310.979 125.95 310.933 126.111 311.005 126.24C311.006 126.242 311.007 126.244 311.008 126.246C311.033 126.281 311.064 126.312 311.098 126.338Z" fill="#263238"/>
<path d="M319.18 126.639C319.234 126.639 319.286 126.621 319.33 126.589C319.43 126.481 319.422 126.313 319.314 126.213C319.312 126.212 319.31 126.211 319.309 126.209C318.677 125.62 317.797 125.377 316.952 125.556C316.81 125.595 316.727 125.741 316.765 125.883V125.883C316.807 126.023 316.951 126.105 317.093 126.07C317.764 125.948 318.454 126.151 318.952 126.616C319.022 126.657 319.105 126.666 319.18 126.639Z" fill="#263238"/>
<path d="M322.68 120.215L322.213 122.657C322.992 123.143 323.417 124.087 322.979 125.032C322.044 127.051 323.002 130.343 324.506 131.732C324.506 131.732 324.616 130.838 325.359 131.102C326.102 131.366 325.386 135.128 324.598 137.441C324.598 137.441 326.32 136.29 327.913 131.468C329.387 127.009 329.787 123.237 328.973 121.418L322.68 120.215Z" fill="#263238"/>
<path d="M329.006 131.923C328.36 133.177 327.242 134.125 325.899 134.557C324.116 135.116 323.166 133.533 323.608 131.818C324.015 130.297 325.425 128.121 327.242 128.328C329.059 128.535 329.78 130.373 329.006 131.923Z" fill="#E4897B"/>
<path d="M311.821 119.481C311.51 120.064 312.499 122.209 314.752 123.24C317.006 124.272 314.608 121.987 314.608 121.987C314.608 121.987 319.139 123.543 319.261 122.961C319.384 122.38 317.985 121.536 317.985 121.536C317.985 121.536 321.757 123.31 324.815 122.554C327.873 121.798 322.3 116.737 318.746 116.839C315.193 116.941 312.761 117.718 311.821 119.481Z" fill="#263238"/>
<path opacity="0.1" d="M324.952 132.245L324.656 132.191C324.836 131.205 325.466 130.322 326.341 129.831C326.854 129.543 327.344 129.53 327.652 129.798L327.455 130.024C327.211 129.811 326.795 129.919 326.488 130.092C325.69 130.54 325.115 131.345 324.952 132.245Z" fill="black"/>
<path d="M316.424 135.134C316.878 135.143 317.33 135.049 317.728 134.828C318.205 134.563 318.569 134.136 318.845 133.673C318.994 133.424 318.605 133.197 318.457 133.445C318.218 133.845 317.912 134.21 317.501 134.439C317.166 134.625 316.802 134.692 316.424 134.684C316.135 134.678 316.135 135.128 316.424 135.134Z" fill="#263238"/>
<path d="M339 268.257H341.358L337 217.311H334.642L339 268.257Z" fill="#407BFF"/>
<path opacity="0.6" d="M339 268.257H341.358L337 217.311H334.642L339 268.257Z" fill="white"/>
<path d="M314.881 268.257H312.523L316.882 217.311H319.239L314.881 268.257Z" fill="#407BFF"/>
<path opacity="0.6" d="M314.881 268.257H312.523L316.882 217.311H319.239L314.881 268.257Z" fill="white"/>
<path d="M328.959 217.318H280.73C282.759 212.295 286.448 209.217 290.436 209.217H325.714L328.959 217.318Z" fill="#263238"/>
<path d="M306.786 268.257H309.144L304.785 217.311H302.428L306.786 268.257Z" fill="#407BFF"/>
<path opacity="0.6" d="M306.786 268.257H309.144L304.785 217.311H302.428L306.786 268.257Z" fill="white"/>
<path d="M282.668 268.257H280.31L284.669 217.311H287.026L282.668 268.257Z" fill="#407BFF"/>
<path opacity="0.6" d="M282.668 268.257H280.31L284.669 217.311H287.026L282.668 268.257Z" fill="white"/>
<path d="M340.133 217.318H313.625C315.933 212.295 320.126 209.217 324.663 209.217H334.044C338.581 209.217 340.816 211.833 340.133 217.318Z" fill="#263238"/>
<path opacity="0.5" d="M340.133 217.318H313.625C315.933 212.295 320.126 209.217 324.663 209.217H334.044C338.581 209.217 340.816 211.833 340.133 217.318Z" fill="black"/>
<path d="M273.5 249.676L271.567 262L267.12 261.395L265.752 248.924L273.5 249.676Z" fill="#E4897B"/>
<path d="M264.788 258.56C264.718 257.804 264.772 257.173 265.657 257.127L266.91 257.062C267.383 257.062 267.722 257.352 268.101 257.595C270.973 259.427 272.151 257.061 273.266 257.062C274.697 257.061 273.776 261.259 273.844 261.48L275.409 266.352C275.545 266.759 275.27 267.637 274.794 267.754C274.71 267.775 274.622 267.784 274.534 267.783C271.992 267.783 270.789 267.783 267.626 267.783H257.951C255.314 267.783 255.283 264.821 256.37 264.61C261.255 263.686 263.182 262.22 264.792 261.148C264.792 261.148 264.896 259.722 264.788 258.56Z" fill="#263238"/>
<path opacity="0.4" d="M257.95 267.783H267.625C270.789 267.783 271.992 267.783 274.533 267.783C274.621 267.784 274.709 267.774 274.794 267.754C275.117 267.674 275.343 267.245 275.415 266.849L275.408 266.479H255.833C256.093 267.167 256.749 267.783 257.95 267.783Z" fill="white"/>
<path d="M262.194 262.948C262.396 263.119 262.583 263.307 262.751 263.511C262.771 263.535 262.79 263.56 262.81 263.584C262.795 263.566 262.803 263.576 262.813 263.589C262.823 263.602 262.834 263.616 262.844 263.631C262.883 263.684 262.921 263.737 262.958 263.793C263.031 263.902 263.098 264.015 263.161 264.13C263.216 264.234 263.369 264.276 263.468 264.211C263.574 264.143 263.609 264.014 263.549 263.903C263.288 263.419 262.931 262.985 262.511 262.63C262.421 262.555 262.28 262.536 262.193 262.63C262.117 262.714 262.098 262.867 262.194 262.948Z" fill="#407BFF"/>
<path d="M263.719 262.098C263.905 262.26 264.078 262.436 264.236 262.625C264.255 262.648 264.274 262.671 264.292 262.694C264.301 262.704 264.309 262.715 264.317 262.725C264.328 262.739 264.344 262.76 264.324 262.734C264.36 262.781 264.395 262.829 264.429 262.877C264.501 262.979 264.568 263.084 264.631 263.19C264.691 263.292 264.837 263.337 264.939 263.271C265.041 263.205 265.084 263.072 265.02 262.964C264.758 262.521 264.424 262.12 264.037 261.781C263.948 261.704 263.805 261.687 263.719 261.781C263.641 261.865 263.625 262.016 263.719 262.098Z" fill="#407BFF"/>
<path d="M264.848 261.396C264.937 261.44 265.022 261.491 265.103 261.548C265.124 261.562 265.143 261.576 265.163 261.591C265.185 261.608 265.123 261.56 265.154 261.585C265.164 261.593 265.175 261.602 265.185 261.61C265.223 261.641 265.259 261.674 265.294 261.708C265.329 261.741 265.362 261.777 265.394 261.813C265.409 261.829 265.423 261.846 265.437 261.863C265.445 261.873 265.453 261.884 265.461 261.893C265.455 261.885 265.449 261.876 265.442 261.869C265.448 261.876 265.453 261.882 265.458 261.89C265.515 261.966 265.565 262.047 265.609 262.132C265.664 262.236 265.818 262.277 265.917 262.212C266.023 262.144 266.056 262.016 265.997 261.905C265.796 261.519 265.461 261.202 265.074 261.008C264.969 260.955 264.826 260.976 264.767 261.088C264.714 261.19 264.736 261.339 264.848 261.396Z" fill="#407BFF"/>
<path d="M264.962 259.88C265.075 259.881 265.188 259.887 265.301 259.898C265.325 259.901 265.349 259.904 265.373 259.906C265.422 259.911 265.364 259.904 265.409 259.911C265.465 259.919 265.52 259.928 265.576 259.939C265.789 259.98 265.997 260.04 266.199 260.117C266.309 260.159 266.45 260.07 266.476 259.959C266.505 259.831 266.437 259.728 266.318 259.683C265.886 259.518 265.424 259.435 264.962 259.43C264.845 259.428 264.732 259.534 264.737 259.655C264.743 259.778 264.836 259.878 264.962 259.88Z" fill="#407BFF"/>
<g opacity="0.3">
<path d="M269.632 260.027C269.658 260.463 269.825 260.94 270.246 261.142C270.507 261.267 270.817 261.262 271.111 261.254C271.991 261.231 272.87 261.207 273.751 261.184L273.761 261.16C273.901 260.014 274.273 257.215 273.182 257.217C272.324 257.215 271.422 258.822 269.627 258.353C269.641 258.961 269.615 259.735 269.632 260.027Z" fill="black"/>
</g>
<path d="M302.298 191.188C302.298 191.188 282.998 193.85 271.904 198.644C268.053 200.309 265.776 203.72 265.277 207.414C262.818 227.438 264.809 251.767 264.809 251.767L274.08 253.027C274.08 253.027 279.016 230.228 278.906 214.124C289.026 211.268 315.312 213.126 318.408 204.742C319.92 200.396 320.321 195.74 319.572 191.199L302.298 191.188Z" fill="#407BFF"/>
<path opacity="0.3" d="M298.512 195.182C298.512 195.182 284.243 208.503 284.889 213.047C282.868 213.256 280.866 213.616 278.899 214.124C278.904 215.688 278.969 217.596 278.796 219.152C272.776 210.177 273.346 201.553 298.512 195.182Z" fill="black"/>
<path d="M302.306 248.074L304.424 260.368L300.019 261.22L294.726 249.845L302.306 248.074Z" fill="#E4897B"/>
<path d="M297.02 258.91C296.774 258.191 296.678 257.566 297.527 257.313L298.73 256.955C299.19 256.844 299.587 257.046 300.013 257.192C303.235 258.298 303.823 255.721 304.907 255.46C306.298 255.122 306.39 259.42 306.508 259.618L309.175 263.985C309.403 264.349 309.342 265.267 308.907 265.492C308.83 265.532 308.747 265.562 308.661 265.582C306.191 266.18 305.022 266.462 301.947 267.207L292.544 269.483C289.98 270.104 289.254 267.232 290.26 266.771C294.791 264.724 296.319 262.846 297.631 261.425C297.632 261.425 297.398 260.014 297.02 258.91Z" fill="#263238"/>
<path opacity="0.4" d="M292.544 269.483L301.948 267.206C305.023 266.462 306.192 266.179 308.662 265.581C308.748 265.561 308.831 265.531 308.908 265.491C309.203 265.339 309.322 264.868 309.299 264.466L309.206 264.107L290.18 268.713C290.594 269.322 291.377 269.765 292.544 269.483Z" fill="white"/>
<path d="M295.536 263.787C295.772 263.906 295.998 264.044 296.209 264.203C296.212 264.206 296.245 264.231 296.229 264.218C296.211 264.204 296.258 264.242 296.257 264.24C296.282 264.261 296.307 264.281 296.332 264.302C296.381 264.343 296.429 264.385 296.476 264.429C296.573 264.518 296.665 264.611 296.753 264.709C296.832 264.797 296.992 264.795 297.071 264.709C297.157 264.615 297.155 264.485 297.071 264.391C296.703 263.982 296.254 263.645 295.762 263.399C295.657 263.346 295.514 263.367 295.455 263.479C295.401 263.582 295.423 263.732 295.536 263.787Z" fill="#407BFF"/>
<path d="M296.818 262.604C297.036 262.718 297.246 262.847 297.444 262.994C297.455 263.002 297.466 263.01 297.477 263.018C297.48 263.021 297.513 263.046 297.495 263.032C297.474 263.016 297.517 263.05 297.521 263.053C297.531 263.061 297.542 263.07 297.553 263.078C297.601 263.117 297.648 263.157 297.695 263.197C297.787 263.278 297.876 263.363 297.962 263.451C298.044 263.536 298.199 263.54 298.28 263.451C298.363 263.36 298.367 263.223 298.28 263.133C297.921 262.765 297.501 262.454 297.045 262.216C296.941 262.161 296.796 262.186 296.738 262.297C296.682 262.4 296.706 262.546 296.818 262.604Z" fill="#407BFF"/>
<path d="M297.751 261.653C297.847 261.676 297.941 261.704 298.033 261.74C298.04 261.743 298.056 261.753 298.063 261.752C298.045 261.754 298.028 261.737 298.062 261.752C298.084 261.763 298.106 261.773 298.128 261.784C298.172 261.805 298.214 261.828 298.256 261.853C298.295 261.875 298.334 261.9 298.372 261.926C298.391 261.94 298.411 261.953 298.43 261.968C298.472 261.999 298.405 261.947 298.429 261.966C298.436 261.973 298.445 261.98 298.453 261.986C298.528 262.049 298.598 262.117 298.663 262.19C298.74 262.279 298.903 262.276 298.981 262.19C299.068 262.096 299.063 261.967 298.981 261.872C298.694 261.544 298.293 261.317 297.871 261.219C297.756 261.193 297.622 261.254 297.594 261.376C297.568 261.491 297.628 261.625 297.751 261.653Z" fill="#407BFF"/>
<path d="M297.507 260.15C297.728 260.099 297.892 260.075 298.117 260.065C298.333 260.054 298.55 260.063 298.764 260.091C298.881 260.106 298.994 259.977 298.989 259.866C298.983 259.732 298.89 259.657 298.764 259.641C298.305 259.583 297.838 259.612 297.387 259.716C297.272 259.742 297.194 259.88 297.23 259.993C297.269 260.113 297.384 260.178 297.507 260.15Z" fill="#407BFF"/>
<g opacity="0.3">
<path d="M302.073 259.196C302.2 259.613 302.475 260.038 302.932 260.135C303.215 260.195 303.514 260.118 303.799 260.041C304.648 259.811 305.498 259.582 306.348 259.352L306.353 259.327C306.218 258.179 305.922 255.372 304.862 255.63C304.028 255.831 303.529 257.605 301.674 257.571C301.831 258.158 301.987 258.916 302.073 259.196Z" fill="black"/>
</g>
<path d="M314.801 191.225C314.801 191.225 278.604 197.485 279.916 208.301C281.806 223.907 295.123 255.794 295.123 255.794L306.046 251.88C306.046 251.88 299.043 223.509 296.646 212.123C305.948 212.123 325.149 213.128 328.246 204.743C329.754 200.474 330.058 195.872 329.126 191.441L314.801 191.225Z" fill="#407BFF"/>
<path d="M308.962 145.755C312.175 148.099 312.575 154.691 302.646 168.87L294.764 160.536C296.806 156.929 298.58 155.164 301.613 150.873C305.739 144.853 308.962 145.755 308.962 145.755Z" fill="#263238"/>
<path opacity="0.3" d="M301.403 191.632C301.403 191.632 307.628 199.604 317.595 200.859C327.562 202.114 329.455 199.65 329.455 199.65C329.455 199.65 329.5 195.766 329.655 195.964C329.809 196.162 302.428 190.484 302.428 190.484L301.403 191.632Z" fill="black"/>
<path d="M308.867 145.629C311.423 145.445 321.65 144.304 332.067 146.413L331.059 183.307C331.059 183.307 331.576 196.878 331.059 198.111C320.12 202.583 306.463 196.073 299.544 191.607C299.617 191.785 301.45 186.901 301.45 186.901C302.726 175.139 304.765 156.802 306.696 146.219C306.747 145.957 308.612 145.647 308.867 145.629Z" fill="#263238"/>
<path opacity="0.2" d="M330.922 168.823L330.348 168.898L328.279 158.754L329.237 170.14L331.059 170.437L330.922 168.823Z" fill="black"/>
<path opacity="0.2" d="M303.727 167.297L305.362 154.607L301.649 167.815L302.647 168.87L303.727 167.297Z" fill="black"/>
<path d="M301.999 163.044C301.989 165.575 303.749 167.567 306.007 167.573L306.029 167.957C306.012 168.435 306.379 168.841 306.857 168.873L314.655 168.904C315.148 168.903 315.547 168.503 315.548 168.01L315.588 157.894C315.544 157.548 315.239 157.295 314.891 157.316L306.755 157.29C306.409 157.256 306.095 157.493 306.035 157.836V158.546C303.776 158.534 302.009 160.513 301.999 163.044ZM303.447 163.049C303.458 161.355 304.636 159.88 306.03 159.881L306.004 166.238C304.602 166.23 303.436 164.742 303.447 163.049Z" fill="#407BFF"/>
<path d="M330.703 165.41L331.059 172.217L318.132 164.826L314.563 169.07C314.563 169.07 330.514 183.514 335.534 183.672C342.864 183.903 339.186 163.988 339.186 163.988L330.703 165.41Z" fill="#E4897B"/>
<path d="M332.067 146.41C332.067 146.41 336.17 147.169 337.157 152.31C338.066 157.043 340.618 167.567 340.618 167.567L330.348 168.897L328.28 156.586L332.067 146.41Z" fill="#263238"/>
<path d="M315.318 161.059C315.318 161.059 309.996 158.661 309.72 159.02C309.445 159.379 308.909 160.692 309.285 161.614C309.285 161.614 308.498 162.714 309.27 163.686L309.837 164.234C309.837 164.234 308.475 164.663 309.512 166.259C310.55 167.854 313.25 168.999 314.774 169.391C316.299 169.782 318.782 168.509 318.732 168.242C318.683 167.974 317.871 162.072 317.459 160.592C317.046 159.11 315.752 158.213 315.585 158.209L315.318 161.059Z" fill="#E4897B"/>
<path d="M255.442 267.827H225.238V192.949H226.438V266.639H254.242V192.949H255.442V267.827Z" fill="#263238"/>
<path d="M367.093 189.379H214.305V192.949H367.093V189.379Z" fill="#407BFF"/>
<path opacity="0.2" d="M367.093 189.379H214.305V192.949H367.093V189.379Z" fill="black"/>
<path opacity="0.2" d="M367.094 189.379H321.517V192.949H367.094V189.379Z" fill="black"/>
<path d="M364.877 268.609H334.673V192.949H335.873V267.409H363.677V192.949H364.877V268.609Z" fill="#263238"/>
<path d="M253.239 189.542H274.135C274.496 189.539 274.786 189.303 274.783 189.014C274.782 188.959 274.771 188.905 274.75 188.853L265.454 167.541C265.219 166.933 264.519 166.517 263.725 166.514H242.816C242.463 166.514 242.176 166.744 242.176 167.028C242.176 167.087 242.189 167.147 242.214 167.202L251.51 188.514C251.748 189.121 252.446 189.536 253.239 189.542Z" fill="#263238"/>
<path opacity="0.7" d="M242.816 166.514H263.725C264.519 166.517 265.219 166.932 265.454 167.541L274.75 188.853C274.771 188.905 274.782 188.959 274.783 189.014C274.786 189.303 274.496 189.539 274.135 189.542H253.239C252.446 189.536 251.748 189.12 251.51 188.514L242.214 167.202C242.189 167.147 242.176 167.087 242.176 167.028C242.176 166.744 242.463 166.514 242.816 166.514Z" fill="white"/>
<path d="M255.766 178.503C256.218 179.526 257.133 180.228 257.815 180.085C258.498 179.942 258.68 179.01 258.241 177.984C257.803 176.959 256.877 176.272 256.195 176.415C255.513 176.559 255.309 177.453 255.766 178.503Z" fill="white"/>
<path opacity="0.3" d="M263.602 166.514H263.726C264.52 166.517 265.22 166.932 265.454 167.541L274.75 188.853C274.771 188.905 274.783 188.959 274.783 189.014C274.786 189.303 274.496 189.539 274.136 189.542H273.467L263.602 166.514Z" fill="black"/>
<path d="M294.592 189.541H272.838V188.074H293.125C293.935 188.075 294.592 188.731 294.592 189.541Z" fill="#263238"/>
<path opacity="0.7" d="M294.592 189.541H272.838V188.074H293.125C293.935 188.075 294.592 188.731 294.592 189.541Z" fill="white"/>
<path d="M83.2558 124.721C83.2558 124.721 91.3468 143.882 92.3812 143.981C93.4156 144.08 106.641 138.925 106.641 138.925L108.699 141.25C108.699 141.25 101.772 150.512 90.8062 153.453C88.8364 153.982 86.3494 151.75 83.9782 148.699C83.5132 148.106 83.0602 147.479 82.6066 146.834C80.167 143.217 77.9788 139.437 76.0576 135.52L83.2558 124.721Z" fill="#407BFF"/>
<path opacity="0.6" d="M83.2558 124.721C83.2558 124.721 91.3468 143.882 92.3812 143.981C93.4156 144.08 106.641 138.925 106.641 138.925L108.699 141.25C108.699 141.25 101.772 150.512 90.8062 153.453C88.8364 153.982 86.3494 151.75 83.9782 148.699C83.5132 148.106 83.0602 147.479 82.6066 146.834C80.167 143.217 77.9788 139.437 76.0576 135.52L83.2558 124.721Z" fill="white"/>
<path opacity="0.2" d="M84.8277 129.727C85.3389 131.986 86.5353 135.377 87.4803 137.783C87.7863 138.562 87.9201 139.406 87.7785 140.231C87.3705 142.606 85.3185 143.366 84.6357 145.26C84.2535 146.369 84.0327 147.528 83.9793 148.7C83.5143 148.108 83.0613 147.48 82.6077 146.835L81.5967 142.837L84.8277 129.727Z" fill="black"/>
<path d="M62.0795 264.648L67.0151 264.427L68.8451 251.588L61.3253 251.843L62.0795 264.648Z" fill="#B97964"/>
<path d="M67.6169 262.174H65.8613C65.4641 262.174 65.0969 262.375 64.8617 262.695C63.8495 264.078 63.0887 263.555 61.9871 262.255C61.2869 262.174 61.0985 262.977 61.0415 263.193L59.7293 267.967C59.6153 268.366 59.8463 268.782 60.2447 268.896C60.3155 268.916 60.3893 268.926 60.4625 268.924C62.5943 268.924 63.6029 268.924 66.2567 268.924H74.3717C76.5839 268.924 77.0423 266.695 76.1309 266.489C72.0335 265.584 69.1319 264.378 67.8653 263.186C67.6307 262.976 67.8719 262.82 67.6169 262.174Z" fill="#263238"/>
<path d="M71.0527 263.771C71.2375 263.639 71.3479 263.426 71.3509 263.198C71.3665 263.076 71.3107 262.956 71.2075 262.889C70.6573 262.499 68.4625 263.525 68.2159 263.645C68.1883 263.655 68.1667 263.676 68.1571 263.704C68.1391 263.754 68.1649 263.81 68.2159 263.829C68.7553 263.957 69.3067 264.027 69.8605 264.041C70.2763 264.08 70.6939 263.986 71.0527 263.771ZM71.0695 263.055C71.1139 263.082 71.1373 263.135 71.1271 263.187C71.1181 263.351 71.0389 263.504 70.9093 263.605C70.4107 263.978 69.2071 263.817 68.5597 263.697C69.4711 263.295 70.7659 262.843 71.0695 263.055Z" fill="#407BFF"/>
<path d="M68.2901 263.851C68.9489 263.576 70.3301 262.492 70.2557 261.919C70.2443 261.799 70.1585 261.656 69.8603 261.616C68.6567 261.478 68.1413 263.639 68.1413 263.731C68.1293 263.768 68.1407 263.808 68.1701 263.834C68.1923 263.84 68.2163 263.84 68.2391 263.834L68.2901 263.851ZM69.8201 261.793C70.0439 261.816 70.0439 261.896 70.0439 261.925C70.1069 262.275 69.1037 263.174 68.3873 263.553C68.5361 263.049 68.9777 261.788 69.7397 261.788L69.8201 261.793Z" fill="#407BFF"/>
<path d="M66.9712 264.877C66.9436 264.877 66.916 264.869 66.8914 264.854C66.8212 264.81 66.8002 264.718 66.8446 264.647C67.1944 264.091 67.792 263.707 68.4424 263.618C68.5264 263.608 68.6002 263.665 68.611 263.747C68.6224 263.83 68.5648 263.905 68.4826 263.916C67.9192 263.992 67.402 264.326 67.0984 264.806C67.0696 264.853 67.021 264.877 66.9712 264.877Z" fill="#407BFF"/>
<path d="M68.062 265.7C68.0344 265.7 68.0068 265.692 67.9822 265.677C67.912 265.632 67.891 265.54 67.9354 265.47C68.2852 264.914 68.8828 264.53 69.5332 264.44C69.6124 264.432 69.6904 264.486 69.7018 264.569C69.7132 264.651 69.6556 264.727 69.5734 264.738C69.01 264.815 68.4922 265.148 68.1892 265.629C68.1604 265.675 68.1118 265.7 68.062 265.7Z" fill="#407BFF"/>
<path d="M69.4194 266.389C69.3918 266.389 69.3642 266.381 69.3396 266.366C69.2694 266.322 69.2484 266.229 69.2928 266.159C69.6426 265.604 70.2396 265.219 70.89 265.13C70.971 265.121 71.0478 265.176 71.0586 265.258C71.07 265.34 71.0124 265.417 70.9302 265.427C70.3668 265.504 69.849 265.838 69.546 266.318C69.5178 266.365 69.4692 266.389 69.4194 266.389Z" fill="#407BFF"/>
<path opacity="0.3" d="M67.8475 258.588L67.6123 260.239L61.8139 260.137L61.7227 258.588H67.8475Z" fill="black"/>
<path d="M82.6461 263.378L88.0035 262.699L89.1837 250.596L81.8349 250.391L82.6461 263.378Z" fill="#B97964"/>
<path d="M88.275 261.687H86.5194C86.1222 261.687 85.7544 261.888 85.5198 262.209C84.5076 263.591 83.7468 263.069 82.6452 261.769C81.945 261.687 81.7566 262.491 81.6996 262.707L80.3874 267.48C80.2734 267.879 80.5044 268.295 80.9028 268.409C80.9736 268.429 81.0474 268.439 81.1206 268.437C83.2524 268.437 84.261 268.437 86.9148 268.437H95.0298C97.242 268.437 97.7004 266.208 96.789 266.002C92.6916 265.097 89.79 263.891 88.5234 262.699C88.2894 262.49 88.5306 262.334 88.275 261.687Z" fill="#263238"/>
<path d="M92.0849 263.045C92.2697 262.912 92.3801 262.699 92.3831 262.472C92.3987 262.349 92.3429 262.229 92.2397 262.162C91.6895 261.772 89.4947 262.798 89.2481 262.919C89.2205 262.928 89.1989 262.95 89.1893 262.977C89.1713 263.028 89.1971 263.084 89.2481 263.102C89.7875 263.23 90.3389 263.301 90.8927 263.314C91.3091 263.354 91.7267 263.259 92.0849 263.045ZM92.1023 262.328C92.1473 262.356 92.1701 262.409 92.1599 262.46C92.1509 262.625 92.0711 262.777 91.9421 262.878C91.4435 263.251 90.2399 263.09 89.5925 262.97C90.5033 262.569 91.7987 262.116 92.1023 262.328Z" fill="#407BFF"/>
<path d="M89.3224 263.126C89.9812 262.851 91.3624 261.768 91.288 261.195C91.2766 261.074 91.1908 260.931 90.8926 260.891C89.689 260.754 89.1736 262.914 89.1736 263.005C89.1616 263.043 89.173 263.083 89.2024 263.109C89.2246 263.115 89.2486 263.115 89.2714 263.109L89.3224 263.126ZM90.8524 261.069C91.0762 261.091 91.0762 261.172 91.0762 261.201C91.1392 261.55 90.1366 262.45 89.4202 262.828C89.569 262.324 90.0106 261.063 90.7726 261.063L90.8524 261.069Z" fill="#407BFF"/>
<path d="M88.0032 264.153C87.9756 264.153 87.948 264.145 87.9234 264.13C87.8532 264.086 87.8322 263.994 87.8766 263.923C88.2264 263.367 88.824 262.983 89.4744 262.894C89.5542 262.884 89.6322 262.94 89.643 263.022C89.6544 263.104 89.5968 263.181 89.5146 263.191C88.9512 263.268 88.4334 263.602 88.1304 264.082C88.1016 264.129 88.053 264.153 88.0032 264.153Z" fill="#407BFF"/>
<path d="M89.0942 264.975C89.0666 264.975 89.039 264.967 89.0144 264.952C88.9442 264.908 88.9232 264.815 88.9676 264.745C89.3174 264.189 89.9144 263.805 90.5654 263.715C90.6434 263.708 90.7226 263.762 90.734 263.844C90.7454 263.926 90.6878 264.002 90.6056 264.013C90.0416 264.09 89.5244 264.423 89.2214 264.904C89.1926 264.95 89.144 264.975 89.0942 264.975Z" fill="#407BFF"/>
<path d="M90.4516 265.664C90.424 265.664 90.3964 265.657 90.3718 265.642C90.3016 265.597 90.2806 265.505 90.325 265.435C90.6748 264.879 91.2718 264.494 91.9228 264.405C92.0026 264.397 92.0806 264.451 92.0914 264.533C92.1028 264.616 92.0452 264.692 91.963 264.703C91.3996 264.779 90.8818 265.113 90.5788 265.594C90.5506 265.64 90.5014 265.664 90.4516 265.664Z" fill="#407BFF"/>
<path opacity="0.3" d="M88.4748 257.861L88.3134 259.518L82.4023 259.48L82.3015 257.861H88.4748Z" fill="black"/>
<path d="M56.9489 141.76C60.0671 136.893 55.7279 132.069 55.8269 126.394C55.9253 120.718 58.3595 115.094 58.6631 109.424C58.8089 106.697 59.1869 103.936 60.3431 101.429C61.4993 98.9226 63.6365 96.2616 66.3221 95.2344L79.8671 101.023C81.9857 110.891 81.8843 117.232 81.6119 123.352C81.3377 129.496 80.8847 135.414 79.4735 142.424C79.2959 143.308 79.0913 144.224 78.5087 144.936C77.7209 145.9 76.4045 146.303 75.1709 146.656C72.0293 147.553 68.8649 148.453 65.6033 148.784C62.3423 149.115 61.7435 148.768 58.8029 147.412C57.8099 146.954 56.2925 146.014 56.1557 144.977C56.0393 144.099 56.4617 142.52 56.9489 141.76Z" fill="#263238"/>
<path d="M71.2844 161.977L85.0454 162.033C85.0454 162.033 89.8532 186.238 89.5712 213.377C90.1328 229.309 89.6822 258.606 89.6822 258.606H80.7332C80.7332 258.606 75.0314 234.812 77.3144 215.96C76.484 212.71 75.3746 207.081 74.7224 204.208C72.8954 196.464 71.5214 188.62 70.6058 180.716C69.0332 165.901 71.2844 161.977 71.2844 161.977Z" fill="#263238"/>
<path opacity="0.2" d="M72.5033 171.484C72.5033 171.484 77.4647 193.768 74.7221 204.21C72.8951 196.465 71.5211 188.622 70.6055 180.717L72.5033 171.484Z" fill="black"/>
<path d="M59.7171 155.639C58.5159 161.016 53.8095 167.584 52.8573 174.462C51.2313 186.21 58.2939 200.823 60.1425 214.607C57.3519 234.993 61.6299 259.714 61.0635 259.179L70.0479 259.188C70.3203 257.364 72.1629 229.743 73.0773 213.377C73.8525 199.054 75.0915 163.031 75.0915 163.031L59.7171 155.639Z" fill="#263238"/>
<path d="M84.0016 143.764C83.3104 148.512 84.337 158.655 86.3284 165.651C87.0364 168.138 66.9052 167.805 55.6084 164.074L59.3812 152.385C59.3698 151.42 57.5032 144.502 57.4564 143.485C57.2272 138.552 56.6776 133.639 55.8118 128.777C55.7746 128.566 55.7482 128.353 55.7332 128.14C55.5484 125.499 55.48 123.456 57.7786 122.461C58.3924 122.195 60.6622 121.707 61.3672 121.658C62.332 121.588 63.4594 121.439 64.5052 121.41C65.551 121.381 65.5798 121.243 66.5446 121.243C69.1822 121.192 72.6748 121.569 75.2956 121.867L75.877 121.943C76.8592 122.071 77.8588 122.233 78.823 122.396C78.823 122.396 81.2668 122.747 82.6612 123.916C84.0556 125.085 87.2398 137.165 86.683 140.316C86.2006 143.055 84.0016 143.764 84.0016 143.764Z" fill="#407BFF"/>
<path opacity="0.6" d="M84.0016 143.764C83.3104 148.512 84.337 158.655 86.3284 165.651C87.0364 168.138 66.9052 167.805 55.6084 164.074L59.3812 152.385C59.3698 151.42 57.5032 144.502 57.4564 143.485C57.2272 138.552 56.6776 133.639 55.8118 128.777C55.7746 128.566 55.7482 128.353 55.7332 128.14C55.5484 125.499 55.48 123.456 57.7786 122.461C58.3924 122.195 60.6622 121.707 61.3672 121.658C62.332 121.588 63.4594 121.439 64.5052 121.41C65.551 121.381 65.5798 121.243 66.5446 121.243C69.1822 121.192 72.6748 121.569 75.2956 121.867L75.877 121.943C76.8592 122.071 77.8588 122.233 78.823 122.396C78.823 122.396 81.2668 122.747 82.6612 123.916C84.0556 125.085 87.2398 137.165 86.683 140.316C86.2006 143.055 84.0016 143.764 84.0016 143.764Z" fill="white"/>
<path opacity="0.2" d="M58.1285 156.267L56.9033 160.063C56.9033 160.063 70.6043 157.656 77.4707 151.516C82.3601 147.144 81.5951 145.303 81.5951 145.303L76.0571 145.837L58.1285 156.267Z" fill="black"/>
<path opacity="0.2" d="M61.3428 135.16L61.608 148.314C59.5398 149.63 58.8894 150.435 58.575 148.55L57.4434 143.207L61.3428 135.16Z" fill="black"/>
<path d="M61.3429 135.161C61.3429 135.161 56.1553 148.01 57.0913 148.603C58.0267 149.195 72.9595 145.11 72.9595 145.11L75.8419 148.919C75.3361 151.139 49.0417 164.69 46.9381 152.993C45.6595 145.886 53.6077 126.799 53.6077 126.799C55.6087 123.235 58.3909 121.534 59.4877 122.548C62.3569 125.202 61.3429 135.161 61.3429 135.161Z" fill="#407BFF"/>
<path opacity="0.6" d="M61.3429 135.161C61.3429 135.161 56.1553 148.01 57.0913 148.603C58.0267 149.195 72.9595 145.11 72.9595 145.11L75.8419 148.919C75.3361 151.139 49.0417 164.69 46.9381 152.993C45.6595 145.886 53.6077 126.799 53.6077 126.799C55.6087 123.235 58.3909 121.534 59.4877 122.548C62.3569 125.202 61.3429 135.161 61.3429 135.161Z" fill="white"/>
<path d="M75.8419 148.92C77.6071 149.06 77.6695 146.401 78.5875 146.296C79.1221 146.245 79.6453 146.111 80.1391 145.901C80.1391 145.901 79.5577 147.499 80.1391 147.371C80.7199 147.243 82.5853 147.15 83.0449 145.628C83.5039 144.105 81.8419 140.851 81.4645 140.398C81.0865 139.945 79.0993 140.084 79.0993 140.084C79.0993 140.084 81.2377 139.532 82.4113 139.369C83.5855 139.207 83.8081 137.865 82.1701 138.162C81.4975 138.284 76.1875 138.323 75.6121 138.87C75.0367 139.416 72.9037 144.784 72.9037 144.784C72.1135 145.237 74.1217 149.739 75.8419 148.92Z" fill="#B97964"/>
<g opacity="0.3">
<path d="M79.0785 139.915C78.5337 139.877 77.9865 139.912 77.4513 140.02C77.3709 140.042 77.3229 140.125 77.3451 140.205C77.3643 140.275 77.4309 140.322 77.5035 140.316C78.0099 140.215 78.5277 140.179 79.0437 140.212C79.2357 140.212 79.2705 139.927 79.0785 139.915Z" fill="black"/>
<path d="M81.8157 141.525C81.9843 141.612 82.1583 141.368 81.9903 141.281C80.9967 140.752 79.9503 141.049 78.9453 141.385C78.7653 141.444 78.8931 141.717 79.0731 141.658C79.9563 141.363 80.9325 141.078 81.8157 141.525Z" fill="black"/>
<path d="M82.5942 142.839C81.7368 142.327 80.6796 142.282 79.7814 142.717C79.7106 142.762 79.6896 142.855 79.734 142.925C79.77 142.982 79.839 143.009 79.9032 142.99C80.7066 142.598 81.6528 142.633 82.425 143.083C82.5882 143.182 82.7628 142.938 82.5942 142.839Z" fill="black"/>
<path d="M81.1671 145.067C81.2433 144.911 81.3057 144.747 81.3477 144.575C81.3885 144.389 81.1095 144.285 81.0627 144.471C80.9391 145.043 80.5833 145.537 80.0805 145.837C79.9119 145.93 80.0397 146.203 80.2023 146.11H80.1849C80.5005 145.932 80.7633 145.683 80.9679 145.393C80.9883 145.394 81.0051 145.403 81.0273 145.395C81.3399 145.285 81.6873 145.378 81.9045 145.628C82.0323 145.773 82.2591 145.581 82.1313 145.436C81.8883 145.155 81.5259 145.027 81.1671 145.067Z" fill="black"/>
</g>
<path d="M90.6409 149.177C90.0331 148.942 89.7085 148.167 89.9161 147.444L95.3269 125.649C95.6365 124.62 96.4585 123.925 97.3771 123.916L111.557 124.212C111.712 124.196 111.867 124.217 112.014 124.274C112.622 124.509 112.946 125.285 112.738 126.007L107.322 147.802C107.012 148.831 106.19 149.526 105.272 149.535L91.0915 149.239C90.9385 149.254 90.7855 149.233 90.6409 149.177Z" fill="#263238"/>
<path d="M109.222 135.688C108.943 135.664 107.757 136.251 107.2 135.862C106.642 135.473 107.165 135.153 107.165 135.153C108.188 134.903 109.309 133.625 109.931 133.991C110.553 134.357 111.582 134.816 111.43 135.397C111.259 135.935 111.054 136.461 110.814 136.972C110.976 137.232 110.998 137.554 110.872 137.833C110.745 138.154 110.462 138.388 110.123 138.454C110.318 138.651 110.419 138.922 110.402 139.198C110.356 139.64 109.194 140.221 109.194 140.221C109.194 140.221 109.42 140.913 109.153 141.18C108.699 141.553 108.096 141.691 107.526 141.552C106.846 141.39 106.381 141.157 106.427 140.472C106.473 139.786 107.7 139.786 107.7 139.786C107.7 139.786 105.399 139.089 105.886 138.652C106.374 138.217 108.211 138.269 108.211 138.269C108.211 138.269 105.096 137.653 105.59 137.014C106.084 136.375 109.187 136.549 109.187 136.549C109.187 136.549 109.501 135.711 109.222 135.688Z" fill="#B97964"/>
<path d="M108.727 123.37L100.917 123.234L100.242 124.96L108.184 125.116L108.727 123.37Z" fill="#263238"/>
<path d="M103.607 123.501V122.103H107.345L106.494 123.714L103.607 123.501Z" fill="#263238"/>
<path d="M73.3112 98.4386C73.3112 98.4386 77.651 106.258 77.8562 108.691C79.517 110.106 80.6978 107.238 80.636 103.395C80.585 100.249 78.9446 96.854 76.2254 95.6312C72.407 93.914 73.3112 98.4386 73.3112 98.4386Z" fill="#263238"/>
<path d="M72.4949 121.045C71.7677 120.319 71.9417 119.446 72.0791 118.39C72.1751 117.577 72.4373 116.733 72.7493 115.911L71.6645 114.732L66.0239 109.438C66.2933 113.1 66.7415 119.39 63.9473 121.484L75.7391 128.98L74.6489 121.805C74.6489 121.805 73.5617 121.643 72.4949 121.045Z" fill="#B97964"/>
<path opacity="0.2" d="M72.0463 118.704C70.5175 117.87 68.8195 116.388 68.9527 114.62C69.0133 113.876 69.1477 113.168 69.3091 112.711L72.4951 116.625C72.2689 117.283 72.1933 117.715 72.0463 118.704Z" fill="black"/>
<path d="M64.2698 103.601C64.985 109.174 65.1692 111.541 68.1608 114.368C72.6608 118.621 79.2836 116.896 80.2322 111.311C81.086 106.286 79.7732 98.0173 74.1992 95.8663C68.7074 93.7477 63.5546 98.0287 64.2698 103.601Z" fill="#B97964"/>
<path d="M71.8526 105.565C71.8568 106.09 72.1586 106.536 72.5258 106.56C72.893 106.585 73.187 106.18 73.1822 105.656C73.178 105.132 72.8762 104.686 72.5096 104.661C72.1424 104.636 71.8484 105.041 71.8526 105.565Z" fill="#263238"/>
<path d="M77.1734 105.158C77.1488 105.665 77.4236 106.115 77.7878 106.161C78.152 106.208 78.467 105.834 78.4916 105.326C78.5162 104.819 78.2414 104.369 77.8772 104.322C77.513 104.276 77.198 104.649 77.1734 105.158Z" fill="#263238"/>
<path d="M70.365 103.766C70.4364 103.771 70.5078 103.746 70.5606 103.693C71.385 102.856 72.3672 103.091 72.3786 103.094C72.5244 103.129 72.666 103.041 72.6918 102.893C72.7176 102.745 72.6192 102.595 72.4716 102.558C72.42 102.546 71.187 102.249 70.1646 103.288C70.0626 103.392 70.0686 103.567 70.1778 103.678C70.2306 103.732 70.2978 103.761 70.365 103.766Z" fill="#263238"/>
<path d="M79.0292 102.62C79.094 102.599 79.1492 102.554 79.1798 102.491C79.244 102.361 79.181 102.199 79.0406 102.131C77.6294 101.45 76.5296 102.041 76.4834 102.067C76.3526 102.139 76.3142 102.302 76.3976 102.43C76.4804 102.557 76.6532 102.603 76.784 102.532C76.8266 102.508 77.687 102.062 78.809 102.604C78.8816 102.639 78.9614 102.643 79.0292 102.62Z" fill="#263238"/>
<path d="M62.7437 108.22C63.4457 109.343 64.5449 110.024 65.5379 110.235C67.0313 110.552 67.7093 108.145 67.1501 106.68C66.6467 105.362 65.1605 104.531 63.7307 104.874C62.3219 105.213 61.9409 106.937 62.7437 108.22Z" fill="#B97964"/>
<path d="M75.5811 104.725C75.5811 104.725 76.5314 106.786 77.5658 108.055C77.7464 108.276 77.6523 108.613 77.3871 108.721C76.7061 109 75.8895 108.8 75.8895 108.8L75.5811 104.725Z" fill="#C15854"/>
<path d="M72.3984 104.643L73.6956 104.4C73.6956 104.4 72.9486 105.323 72.3984 104.643Z" fill="#263238"/>
<path d="M77.6885 104.329L78.9977 104.164C78.3605 104.862 77.8529 104.559 77.6885 104.329Z" fill="#263238"/>
<path d="M62.7599 100.548C62.0015 101.644 63.5117 104.827 63.5117 104.827C63.5117 104.827 66.1937 104.03 66.3401 108.07C67.3295 108.233 68.4395 104.461 68.2781 100.67C68.0795 98.5273 64.0991 98.6137 62.7599 100.548Z" fill="#263238"/>
<path opacity="0.2" d="M65.2024 108.86C65.191 108.86 65.179 108.858 65.1676 108.855C64.258 108.639 63.841 108.159 63.6514 107.793C63.4648 107.435 63.4216 107.029 63.5386 106.734C63.724 106.268 64.2952 105.912 64.8532 106.126C64.9306 106.155 64.969 106.242 64.9396 106.32C64.9102 106.397 64.825 106.436 64.7458 106.406C64.3606 106.257 63.9472 106.519 63.8176 106.844C63.7534 107.006 63.7414 107.315 63.9178 107.654C64.0786 107.964 64.4386 108.372 65.2372 108.563C65.3182 108.582 65.368 108.662 65.3488 108.743C65.332 108.813 65.2708 108.86 65.2024 108.86Z" fill="black"/>
<path d="M76.4032 110.628C75.9832 111.244 75.469 112.446 75.469 112.446C75.352 112.419 75.2344 112.392 75.1192 112.359C73.5382 111.953 72.9388 111.242 72.754 110.578C72.6544 110.214 72.6832 109.86 72.7426 109.582C72.8086 109.258 72.9292 109.043 72.9292 109.043C73.639 109.759 75.0832 110.25 75.8656 110.481C76.1932 110.581 76.4032 110.628 76.4032 110.628Z" fill="#263238"/>
<path d="M75.8658 110.481L75.5766 111.01C74.0886 110.624 73.0926 110.152 72.7422 109.582C72.8082 109.258 72.9288 109.043 72.9288 109.043C73.6392 109.759 75.0834 110.251 75.8658 110.481Z" fill="white"/>
<path d="M75.1191 112.359C73.5381 111.953 72.9387 111.242 72.7539 110.578C73.2873 110.737 73.9125 110.989 74.4201 111.377C74.8089 111.671 75.0105 112.025 75.1191 112.359Z" fill="#DC5753"/>
<path d="M78.5691 97.4397C77.3865 94.9809 72.5673 92.6961 67.0269 95.0703C62.0211 97.2081 60.5751 104.496 64.1931 104.77C67.8111 105.044 72.0771 101.504 72.0771 101.504L78.5691 97.4397Z" fill="#263238"/>
</svg>
