<svg width="54" height="54" viewBox="0 0 54 54" fill="none" xmlns="http://www.w3.org/2000/svg">
<g id="scalable 1" clip-path="url(#clip0_1217_7187)">
<g id="Group">
<g id="Group_2">
<path id="Vector" d="M27 44.7188C23.625 44.7188 21.0938 43.0312 21.0938 43.0312L21.6591 40.7717C19.2898 40.2823 17.7188 39.6562 17.7188 39.6562H11.8125C11.8125 36.1943 15.7579 33.5213 18.2528 32.1773L18.6832 26.1562H0.84375V53.1562H27.8438V44.6799C27.5687 44.7027 27.2886 44.7188 27 44.7188Z" fill="#CFC0F5"/>
</g>
<g id="Group_3">
<path id="Vector_2" d="M26.1562 0.84375V9.47025C26.4195 9.35044 26.7055 9.28125 27 9.28125C27.54 9.28125 28.0581 9.49556 28.4403 9.87778C32.4093 13.8468 34.814 19.1126 35.2139 24.7109L35.4375 27.8438H53.1562V0.84375H26.1562Z" fill="#CFC0F5"/>
</g>
<g id="Group_4">
<path id="Vector_3" d="M27.8438 28.6875H26.1562C25.6905 28.6875 25.3125 28.3095 25.3125 27.8438H23.625C23.625 29.2393 24.7607 30.375 26.1562 30.375V32.0625H27.8438V30.375C29.2393 30.375 30.375 29.2393 30.375 27.8438C30.375 26.4482 29.2393 25.3125 27.8438 25.3125H26.1562C25.6905 25.3125 25.3125 24.9345 25.3125 24.4688C25.3125 24.003 25.6905 23.625 26.1562 23.625H27.8438C28.3095 23.625 28.6875 24.003 28.6875 24.4688H30.375C30.375 23.0732 29.2393 21.9375 27.8438 21.9375V20.25H26.1562V21.9375C24.7607 21.9375 23.625 23.0732 23.625 24.4688C23.625 25.8643 24.7607 27 26.1562 27H27.8438C28.3095 27 28.6875 27.378 28.6875 27.8438C28.6875 28.3095 28.3095 28.6875 27.8438 28.6875Z" fill="black"/>
<path id="Vector_4" d="M51.4686 48.0946V50.2765L42.7839 41.5918L41.5908 42.7849L50.2755 51.4696H48.0936V53.1571H53.1561V48.0946H51.4686Z" fill="#602EDF"/>
<path id="Vector_5" d="M44.1221 40.2536L51.4686 47.6001V42.1883H49.7811V43.5265L45.3151 39.0605L44.1221 40.2536Z" fill="#602EDF"/>
<path id="Vector_6" d="M39.0596 45.3161L43.5255 49.7821H41.3436V51.4696H47.5992L40.2526 44.123L39.0596 45.3161Z" fill="#602EDF"/>
<path id="Vector_7" d="M2.53125 3.72431L11.216 12.409L12.409 11.216L3.72431 2.53125H5.90625V0.84375H0.84375V5.90625H2.53125V3.72431Z" fill="#602EDF"/>
<path id="Vector_8" d="M4.21875 10.474L8.68472 14.94L9.87778 13.7469L2.53125 6.40039V11.8122H4.21875V10.474Z" fill="#602EDF"/>
<path id="Vector_9" d="M14.94 8.68472L10.474 4.21875H12.656V2.53125H6.40039L13.7469 9.87778L14.94 8.68472Z" fill="#602EDF"/>
<path id="Vector_10" d="M36.4373 40.4993H43.0312V39.6555C43.0312 35.9287 39.1492 33.1207 36.5555 31.6602L36.0543 24.6503C35.6408 18.8504 33.1484 13.3921 29.0368 9.28054C27.9492 8.19295 26.0508 8.19295 24.9632 9.28054C20.8516 13.3921 18.3592 18.8504 17.9457 24.6503L17.4445 31.6602C14.8508 33.1207 10.9688 35.9287 10.9688 39.6555V40.4993H17.5627C17.9516 40.6453 19.0586 41.0376 20.6297 41.4097L20.1302 43.4035L20.6255 43.7334C20.7377 43.8076 23.4107 45.5618 27 45.5618C30.5893 45.5618 33.2623 43.8076 33.3745 43.7325L33.8698 43.4026L33.3703 41.4089C34.9405 41.0376 36.0484 40.6453 36.4373 40.4993ZM41.2493 38.8118H37.0676L36.7031 33.7113C38.5948 34.9027 40.7725 36.6906 41.2493 38.8118ZM26.1562 10.4736C26.6077 10.0239 27.3923 10.0239 27.8438 10.4736C28.7812 11.411 29.6249 12.4252 30.375 13.4993H23.625C24.3751 12.4252 25.2188 11.411 26.1562 10.4736ZM22.5551 15.1868H31.4457C33.1163 18.1003 34.1297 21.3715 34.3727 24.7701L35.1591 35.7819C33.7027 36.2611 30.58 37.1243 27 37.1243C23.42 37.1243 20.2972 36.2611 18.8418 35.7819L19.6282 24.7701C19.8712 21.3715 20.8837 18.1003 22.5551 15.1868ZM17.2977 33.7113L16.9332 38.8118H12.7516C13.2275 36.6906 15.4052 34.9027 17.2977 33.7113ZM18.7178 37.5133C20.4027 38.0355 23.4951 38.8118 27 38.8118C30.5049 38.8118 33.5973 38.0355 35.2823 37.5133L35.3945 39.0784C34.1027 39.5163 30.7825 40.4993 27 40.4993C23.2276 40.4993 19.9007 39.5155 18.6064 39.0776L18.7178 37.5133ZM31.9334 42.6188C31.0846 43.066 29.241 43.8743 27 43.8743C24.7733 43.8743 22.9205 43.0643 22.0666 42.6171L22.2826 41.7523C23.6798 42.0012 25.2872 42.1868 27 42.1868C28.7128 42.1868 30.3202 42.0012 31.7166 41.7523L31.9334 42.6188Z" fill="black"/>
<path id="Vector_11" d="M48.0938 7.59375H49.7812V4.21875H43.0312V5.90625H48.0938V7.59375Z" fill="black"/>
<path id="Vector_12" d="M48.0938 16.0312H49.7812V17.7188H48.0938V16.0312Z" fill="black"/>
<path id="Vector_13" d="M48.0938 12.6562H49.7812V14.3438H48.0938V12.6562Z" fill="black"/>
<path id="Vector_14" d="M48.0938 9.28125H49.7812V10.9688H48.0938V9.28125Z" fill="black"/>
<path id="Vector_15" d="M5.90625 46.4062H4.21875V49.7812H10.9688V48.0938H5.90625V46.4062Z" fill="black"/>
<path id="Vector_16" d="M4.21875 36.2812H5.90625V37.9688H4.21875V36.2812Z" fill="black"/>
<path id="Vector_17" d="M4.21875 39.6562H5.90625V41.3438H4.21875V39.6562Z" fill="black"/>
<path id="Vector_18" d="M4.21875 43.0312H5.90625V44.7188H4.21875V43.0312Z" fill="black"/>
</g>
</g>
</g>
<defs>
<clipPath id="clip0_1217_7187">
<rect width="54" height="54" fill="white"/>
</clipPath>
</defs>
</svg>
