<svg width="400" height="314" viewBox="0 0 400 314" fill="none" xmlns="http://www.w3.org/2000/svg">
<g clip-path="url(#clip0_48_17467)">
<path d="M49.8161 220.835C31.717 215.223 6.37343 192.57 1.31802 162.595C-2.31026 141.079 2.01345 124.988 8.73182 113.172C20.3726 92.7201 42.8679 84.5928 66.4336 80.257C96.5 74.7238 110.027 57.0057 129.941 35.236C152.188 10.9084 211.704 -15.0097 245.901 10.5274C268.16 27.1449 261.393 55.7539 276.928 69.5958C292.548 83.5164 312.891 78.0981 322.052 105.661C329.194 127.134 316.247 164.306 276.118 193.52C239.152 220.436 112.978 240.415 49.8161 220.835Z" fill="#E6F4FF"/>
<path d="M226.605 299.884C322.368 299.884 400 294.353 400 287.53C400 280.707 322.368 275.176 226.605 275.176C130.841 275.176 53.209 280.707 53.209 287.53C53.209 294.353 130.841 299.884 226.605 299.884Z" fill="#D3E1EF"/>
<path d="M257.953 180.562H383.449C386.521 180.562 389.019 183.06 389.019 186.132V271.566C389.019 274.638 386.521 277.135 383.449 277.135H257.953C254.881 277.135 252.384 274.638 252.384 271.566V186.132C252.384 183.06 254.881 180.562 257.953 180.562Z" fill="#9CBFF7"/>
<path d="M52.9366 289.603L80.4027 287.529L80.0822 291.333L60.7979 291.944L52.9366 289.603Z" fill="#373844"/>
<path d="M384.87 190.588V267.115C384.87 270.356 382.245 272.981 379.004 272.981H370.151V189.681H259.918C258.551 189.681 257.438 188.575 257.438 187.202C257.438 185.835 258.545 184.723 259.918 184.723H378.998C382.239 184.723 384.864 187.347 384.864 190.588H384.87Z" fill="#597DCA"/>
<path d="M343.774 164.162C332.236 161.054 320.365 167.893 317.263 179.431C314.155 190.969 320.988 202.839 332.532 205.942C344.07 209.05 355.94 202.217 359.043 190.673C362.151 179.135 355.311 167.264 343.774 164.162ZM354.967 189.578C353.757 194.071 350.873 197.82 346.839 200.142C342.812 202.464 338.119 203.081 333.626 201.872C324.356 199.374 318.841 189.802 321.339 180.531C322.548 176.038 325.433 172.289 329.466 169.967C333.354 167.73 337.859 167.077 342.207 168.123C342.365 168.159 342.522 168.201 342.679 168.244C351.798 170.699 357.277 179.999 355.088 189.118C355.051 189.27 355.015 189.427 354.973 189.578H354.967Z" fill="#FF9E7E"/>
<path d="M355.081 189.119C355.045 189.27 355.009 189.427 354.966 189.578C353.757 194.071 350.873 197.821 346.839 200.143C342.812 202.465 338.119 203.082 333.626 201.872C324.356 199.375 318.841 189.802 321.338 180.532C322.548 176.039 325.432 172.29 329.466 169.968C333.354 167.73 337.859 167.077 342.213 168.123C342.37 168.159 342.528 168.202 342.685 168.244C351.804 170.699 357.283 180 355.093 189.125L355.081 189.119Z" fill="#FF6B57"/>
<path d="M333.971 197.748L334.739 194.561C332.919 194.089 331.159 193.067 330.246 192.015L331.51 190.086C332.465 191.114 333.959 192.112 335.725 192.535C337.962 193.073 339.788 192.142 340.224 190.346C340.641 188.61 339.667 187.244 337.563 185.738C334.648 183.7 333.01 181.777 333.669 179.032C334.298 176.413 336.638 174.871 339.649 175.095L340.417 171.908L342.37 172.38L341.633 175.44C343.507 175.96 344.68 176.77 345.467 177.526L344.179 179.419C343.61 178.881 342.479 177.877 340.46 177.393C338.029 176.812 336.765 178.04 336.462 179.304C336.069 180.943 337.037 182.043 339.51 183.839C342.443 185.944 343.689 187.981 343.011 190.787C342.413 193.279 340.115 195.196 336.741 194.954L335.954 198.231L333.965 197.754L333.971 197.748Z" fill="#FF9E7E"/>
<path d="M296.854 150.483C283.81 153.18 275.423 165.94 278.114 178.989C280.811 192.033 293.57 200.426 306.62 197.729C319.664 195.032 328.057 182.273 325.36 169.223C322.663 156.18 309.904 147.792 296.854 150.483ZM320.752 170.173C321.798 175.252 320.813 180.435 317.959 184.77C315.11 189.106 310.75 192.069 305.665 193.121C295.185 195.286 284.887 188.52 282.722 178.034C281.676 172.954 282.661 167.772 285.51 163.436C288.255 159.257 292.421 156.349 297.271 155.206C297.447 155.164 297.622 155.127 297.797 155.091C308.108 152.956 318.231 159.469 320.625 169.653C320.668 169.822 320.704 169.997 320.74 170.173H320.752Z" fill="#FF9E7E"/>
<path d="M320.637 169.653C320.68 169.822 320.716 169.997 320.752 170.173C321.798 175.252 320.813 180.435 317.959 184.77C315.11 189.106 310.75 192.069 305.665 193.122C295.185 195.286 284.887 188.52 282.722 178.034C281.676 172.954 282.661 167.772 285.51 163.436C288.255 159.258 292.421 156.349 297.271 155.206C297.447 155.164 297.622 155.127 297.797 155.091C308.108 152.956 318.231 159.469 320.625 169.653H320.637Z" fill="#FF6B57"/>
<path d="M303.941 188.839L303.106 185.284C301.056 185.731 298.795 185.592 297.356 184.999L297.646 182.442C299.109 182.986 301.099 183.228 303.07 182.762C305.568 182.175 306.922 180.331 306.451 178.323C305.997 176.388 304.34 175.512 301.486 175.07C297.561 174.508 294.961 173.407 294.241 170.347C293.552 167.427 295.112 164.717 298.226 163.429L297.392 159.874L299.575 159.36L300.379 162.776C302.508 162.347 304.086 162.571 305.247 162.933L304.915 165.467C304.074 165.219 302.447 164.784 300.198 165.316C297.489 165.951 296.848 167.814 297.18 169.223C297.61 171.055 299.127 171.66 302.49 172.21C306.463 172.833 308.724 174.236 309.462 177.368C310.115 180.15 308.791 183.21 305.308 184.661L306.166 188.325L303.947 188.845L303.941 188.839Z" fill="#FF9E7E"/>
<path d="M306.717 198.171L306.536 197.282C312.728 196 318.049 192.39 321.52 187.105C324.991 181.819 326.201 175.5 324.919 169.308C324.81 168.776 324.683 168.256 324.544 167.754L325.421 167.512C325.566 168.038 325.699 168.576 325.814 169.127C327.144 175.555 325.892 182.116 322.282 187.607C318.678 193.091 313.151 196.847 306.723 198.171H306.717Z" fill="#373844"/>
<path d="M374.717 189.777H257.784C254.802 189.777 252.384 192.195 252.384 195.177V279.729C252.384 282.711 254.802 285.129 257.784 285.129H374.717C377.7 285.129 380.118 282.711 380.118 279.729V195.177C380.118 192.195 377.7 189.777 374.717 189.777Z" fill="#9CBFF7"/>
<path d="M370.296 280.171H365.471V279.566H370.26L370.296 280.171ZM361.873 280.171H357.083V279.566H361.873V280.171ZM353.485 280.171H348.696V279.566H353.485V280.171ZM345.104 280.171H340.315V279.566H345.104V280.171ZM336.717 280.171H331.927V279.566H336.717V280.171ZM328.329 280.171H323.54V279.566H328.329V280.171ZM319.942 280.171H315.152V279.566H319.942V280.171ZM311.56 280.171H306.771V279.566H311.56V280.171ZM303.173 280.171H298.384V279.566H303.173V280.171ZM294.786 280.171H289.996V279.566H294.786V280.171ZM286.398 280.171H281.609V279.566H286.398V280.171ZM278.017 280.171H273.228V279.566H278.017V280.171ZM269.63 280.171H267.652C266.642 280.171 265.669 279.874 264.834 279.312L265.173 278.81C265.911 279.306 266.769 279.566 267.658 279.566H269.636V280.171H269.63ZM373.755 278.768L373.338 278.332C374.233 277.48 374.723 276.331 374.723 275.097V274.172H375.328V275.097C375.328 276.5 374.771 277.806 373.755 278.768ZM262.706 276.246C262.621 275.871 262.573 275.484 262.579 275.097V271.396H263.183V275.097C263.183 275.436 263.22 275.774 263.298 276.107L262.712 276.246H262.706ZM375.334 270.574H374.729V265.784H375.334V270.574ZM263.183 267.798H262.579V263.009H263.183V267.798ZM375.334 262.186H374.729V257.397H375.334V262.186ZM263.183 259.411H262.579V254.621H263.183V259.411ZM375.334 253.805H374.729V249.016H375.334V253.805ZM263.183 251.029H262.579V246.24H263.183V251.029ZM375.334 245.418H374.729V240.628H375.334V245.418ZM263.183 242.642H262.579V237.853H263.183V242.642ZM375.334 237.03H374.729V232.241H375.334V237.03ZM263.183 234.255H262.579V229.465H263.183V234.255ZM375.334 228.649H374.729V223.86H375.334V228.649ZM263.183 225.867H262.579V221.078H263.183V225.867ZM375.334 220.261H374.729V215.472H375.334V220.261ZM263.183 217.486H262.579V212.697H263.183V217.486ZM375.334 211.874H374.729V207.085H375.334V211.874ZM263.183 209.098H262.579V204.309H263.183V209.098ZM375.334 203.487H374.729V199.804C374.729 199.453 374.687 199.109 374.608 198.776L375.194 198.637C375.285 199.018 375.328 199.411 375.328 199.804V203.487H375.334ZM263.183 200.711H262.579V199.804C262.579 198.395 263.141 197.083 264.169 196.115L264.586 196.557C263.685 197.409 263.189 198.564 263.189 199.804V200.711H263.183ZM372.727 196.079C371.996 195.595 371.143 195.335 370.26 195.335H368.264V194.73H370.26C371.264 194.73 372.231 195.021 373.066 195.577L372.733 196.079H372.727ZM364.666 195.335H359.877V194.73H364.666V195.335ZM356.285 195.335H351.496V194.73H356.285V195.335ZM347.898 195.335H343.108V194.73H347.898V195.335ZM339.51 195.335H334.721V194.73H339.51V195.335ZM331.123 195.335H326.334V194.73H331.123V195.335ZM322.742 195.335H317.952V194.73H322.742V195.335ZM314.354 195.335H309.565V194.73H314.354V195.335ZM305.967 195.335H301.178V194.73H305.967V195.335ZM297.579 195.335H292.79V194.73H297.579V195.335ZM289.198 195.335H284.409V194.73H289.198V195.335ZM280.811 195.335H276.021V194.73H280.811V195.335ZM272.423 195.335H267.652L267.634 194.73H272.423V195.335Z" fill="#FEFEFE"/>
<path d="M388.861 217.873V244.819C388.861 248.205 386.122 250.945 382.735 250.945H359.424C351.974 250.945 345.933 244.904 345.933 237.454C345.933 233.729 347.444 230.354 349.881 227.911C352.324 225.468 355.699 223.956 359.424 223.956H382.735C382.905 223.956 383.074 223.963 383.25 223.981C386.4 223.721 388.861 221.084 388.861 217.873Z" fill="#597DCA"/>
<path d="M358.191 243.742C361.667 243.742 364.486 240.924 364.486 237.447C364.486 233.971 361.667 231.152 358.191 231.152C354.714 231.152 351.896 233.971 351.896 237.447C351.896 240.924 354.714 243.742 358.191 243.742Z" fill="white"/>
<path d="M41.6038 19.7851V45.4008C41.6038 48.8719 44.5669 51.6898 48.2254 51.6898H70.3398L82.1438 64.4191V51.6898H85.5241C89.1826 51.6898 92.1457 48.8779 92.1457 45.4008V19.7851C92.1457 16.3141 89.1826 13.4961 85.5241 13.4961H48.2314C44.5729 13.4961 41.6098 16.308 41.6098 19.7851H41.6038Z" fill="#9CBFF7"/>
<path d="M56.5285 46.7611V51.6835H45.5651C42.7229 51.6835 40.4189 46.6583 40.4189 43.9613V41.875H51.3824C54.2246 41.875 56.5285 44.0641 56.5285 46.7611Z" fill="#709CE8"/>
<path d="M54.4418 46.7611V66.6683C54.4418 69.3653 52.1439 71.5544 49.3017 71.5544H34.3895L27.8707 78.5872L25.216 81.4414V71.5544H20.3178C17.4756 71.5544 15.1777 69.3653 15.1777 66.6683V46.7611C15.1777 44.0641 17.4756 41.875 20.3178 41.875H49.3017C52.1439 41.875 54.4418 44.0641 54.4418 46.7611Z" fill="#FEFEFE"/>
<path d="M28.5293 57.0904C28.5293 58.4207 27.453 59.4971 26.1226 59.4971C24.7922 59.4971 23.7158 58.4207 23.7158 57.0904C23.7158 55.76 24.7922 54.6836 26.1226 54.6836C27.453 54.6836 28.5293 55.76 28.5293 57.0904Z" fill="#9CBFF7"/>
<path d="M37.2188 57.0904C37.2188 58.4207 36.1424 59.4971 34.812 59.4971C33.4817 59.4971 32.4053 58.4207 32.4053 57.0904C32.4053 55.76 33.4817 54.6836 34.812 54.6836C36.1424 54.6836 37.2188 55.76 37.2188 57.0904Z" fill="#9CBFF7"/>
<path d="M45.9148 57.0904C45.9148 58.4207 44.8384 59.4971 43.5081 59.4971C42.1777 59.4971 41.1013 58.4207 41.1013 57.0904C41.1013 55.76 42.1777 54.6836 43.5081 54.6836C44.8384 54.6836 45.9148 55.76 45.9148 57.0904Z" fill="#9CBFF7"/>
<path d="M75.6011 29.4002H74.1196V25.524C74.1196 22.0529 71.1384 19.2168 67.4738 19.2168H66.7542C63.0896 19.2168 60.1205 22.0529 60.1205 25.524V29.4002H58.6268C57.7077 29.4002 56.9639 30.1137 56.9639 30.9966V42.8067C56.9639 43.6835 57.7077 44.3971 58.6268 44.3971H75.5951C76.5203 44.3971 77.2762 43.6896 77.2762 42.8067V30.9966C77.2762 30.1198 76.5203 29.4002 75.5951 29.4002H75.6011ZM68.786 40.6237H65.4601L66.2886 37.1042C65.6294 36.8079 65.1759 36.179 65.1759 35.4352C65.1759 34.4133 66.0467 33.5908 67.117 33.5908C68.1874 33.5908 69.0642 34.4133 69.0642 35.4352C69.0642 36.173 68.6167 36.8079 67.9576 37.0982L68.78 40.6237H68.786ZM71.7552 29.4002H62.4789V25.524C62.4789 23.2805 64.4018 21.4603 66.7602 21.4603H67.4798C69.8382 21.4603 71.7612 23.2805 71.7612 25.524V29.4002H71.7552Z" fill="#FEFEFE"/>
<path d="M42.0577 38.0779H41.1506V19.7914C41.1506 16.0724 44.3254 13.0488 48.2258 13.0488H85.5185V13.9559H48.2258C44.8273 13.9559 42.0577 16.5743 42.0577 19.7914V38.0779Z" fill="#373844"/>
<path d="M82.5917 65.5743L70.1407 52.1376H58.766V51.2305H70.5398L81.6907 63.2583V51.2305H85.5246C88.9231 51.2305 91.6927 48.6121 91.6927 45.395V19.7854H92.5997V45.395C92.5997 49.114 89.425 52.1376 85.5246 52.1376H82.5978V65.5743H82.5917Z" fill="#373844"/>
<path d="M24.7629 82.5971V72.0085H20.3182C17.2342 72.0085 14.7246 69.6139 14.7246 66.6689V46.7617C14.7246 43.8168 17.2342 41.4221 20.3182 41.4221H49.3021C52.3862 41.4221 54.8957 43.8168 54.8957 46.7617V66.6689C54.8957 69.6139 52.3862 72.0085 49.3021 72.0085H34.5834L24.7568 82.5971H24.7629ZM20.3243 42.3352C17.7421 42.3352 15.6377 44.3247 15.6377 46.7678V66.675C15.6377 69.118 17.7421 71.1075 20.3243 71.1075H25.676V80.2931L34.1964 71.1075H49.3082C51.8903 71.1075 53.9947 69.118 53.9947 66.675V46.7678C53.9947 44.3247 51.8903 42.3352 49.3082 42.3352H20.3243Z" fill="#373844"/>
<path d="M272.066 285.34L106.84 285.135C102.081 285.135 98.4589 281.246 98.7552 276.463L113.16 41.8584C113.456 37.0751 117.568 33.2049 122.345 33.2109L288.248 33.4165C293.026 33.4226 296.654 37.3049 296.345 42.0881L281.24 276.693C280.931 281.476 276.825 285.346 272.06 285.34H272.066Z" fill="#373844"/>
<path d="M266.412 285.34L101.186 285.135C96.4274 285.135 92.8051 281.246 93.0954 276.463L107.482 41.8584C107.778 37.0751 111.89 33.2049 116.667 33.2109L282.57 33.4165C287.348 33.4226 290.976 37.3049 290.667 42.0881L275.586 276.693C275.278 281.476 271.171 285.346 266.406 285.34H266.412Z" fill="#FEFEFE"/>
<path d="M262.439 264.642L107.893 264.449L121.408 44.877L276.505 45.0705L262.439 264.642Z" fill="#D9E9FD"/>
<path d="M104.869 91.9293L103.962 91.8749L107.028 41.8348C107.336 36.8278 111.654 32.7581 116.655 32.7581H116.667L282.57 32.9637C285.007 32.9637 287.233 33.9191 288.847 35.6425C290.468 37.372 291.272 39.6699 291.115 42.119L290.208 42.0586C290.347 39.8695 289.627 37.8074 288.182 36.2654C286.743 34.7234 284.747 33.8768 282.564 33.8707L116.661 33.6651H116.649C112.114 33.6651 108.201 37.3539 107.923 41.8892L104.857 91.9293H104.869Z" fill="#373844"/>
<path d="M266.424 285.795H266.412L101.186 285.583C98.7676 285.583 96.5483 284.634 94.9337 282.916C93.307 281.187 92.4906 278.883 92.6418 276.434L94.2443 250.201L95.1514 250.256L93.5489 276.488C93.4158 278.683 94.1415 280.752 95.5928 282.3C97.032 283.83 99.0155 284.676 101.18 284.682L266.406 284.894H266.418C270.936 284.894 274.842 281.205 275.132 276.67L276.039 276.73C275.719 281.737 271.407 285.807 266.418 285.807L266.424 285.795Z" fill="#373844"/>
<path d="M214.727 24.9209V24.7758C215.296 15.959 207.604 9.00481 198.2 10.819C191.403 12.1312 186.294 18.0997 185.87 24.8483V24.8846L166.937 24.8604C164.572 24.8604 162.534 26.7471 162.389 29.0753L161.222 47.8153C161.077 50.1435 162.873 52.0363 165.237 52.0423L231.931 52.127C234.296 52.127 236.334 50.2403 236.479 47.9121L237.67 29.172C237.815 26.8439 236.019 24.9511 233.655 24.9451L214.727 24.9209ZM201.163 26.4629C198.098 27.1281 195.612 24.5339 196.465 21.5526C196.894 20.0469 198.2 18.8314 199.748 18.4988C202.82 17.8336 205.306 20.44 204.447 23.4212C204.018 24.9209 202.712 26.1303 201.169 26.4629H201.163Z" fill="#373844"/>
<path d="M200.172 27.1467C198.902 27.1467 197.717 26.6569 196.87 25.7498C195.812 24.619 195.455 22.9983 195.903 21.4261C196.399 19.6906 197.874 18.3179 199.652 17.9308C201.309 17.568 202.948 18.0518 204.03 19.2128C205.088 20.3497 205.451 21.9703 204.998 23.5486C204.502 25.2781 203.026 26.6448 201.249 27.0318C200.886 27.1104 200.523 27.1467 200.166 27.1467H200.172ZM200.656 18.977C200.384 18.977 200.106 19.0072 199.827 19.0677C198.509 19.3519 197.378 20.4041 197.016 21.6801C196.671 22.8835 196.937 24.0687 197.741 24.9274C198.558 25.8042 199.803 26.167 201.067 25.8949C202.379 25.6107 203.51 24.5646 203.873 23.2947C204.218 22.0913 203.958 20.9 203.147 20.0353C202.506 19.3519 201.611 18.977 200.65 18.977H200.656Z" fill="#373844"/>
<path d="M326.261 8.10936L299.37 2.26782L271.922 8.10936C271.922 8.10936 268.711 37.4017 273.24 52.1749C277.763 66.9238 294.786 74.7186 294.786 74.7186C294.786 74.7186 312.982 66.9238 319.367 52.1749C325.765 37.4017 326.261 8.10936 326.261 8.10936ZM315.419 49.5081C310.139 62.1708 295.173 68.865 295.173 68.865C295.173 68.865 281.204 62.1708 277.527 49.5081C273.845 36.8212 276.548 11.6711 276.548 11.6711L299.103 6.652L321.176 11.6711C321.176 11.6711 320.704 36.8212 315.413 49.5081H315.419Z" fill="#9CBFF7"/>
<path d="M285.225 69.1859C279.438 64.8199 275.411 59.5891 273.252 53.6387L274.105 53.3303C276.203 59.1114 280.128 64.2031 285.77 68.4603L285.225 69.1859Z" fill="#373844"/>
<path d="M315.388 50.0104C310.097 62.8243 295.13 69.5971 295.13 69.5971C295.13 69.5971 281.754 63.1085 277.745 50.8207C277.66 50.5546 277.575 50.2825 277.497 50.0164C273.82 37.1844 276.547 11.732 276.547 11.732L296.467 7.25107L299.109 6.65845L321.181 11.738C321.181 11.738 320.691 37.1844 315.388 50.0225V50.0104Z" fill="#D9E9FD"/>
<path d="M282.202 36.2524C281.894 41.8218 281.658 46.9074 281.537 49.6831C281.434 49.3989 281.337 49.1147 281.247 48.8183C280.164 45.3352 279.632 40.8482 279.408 36.2463H282.202V36.2524Z" fill="white"/>
<path d="M282.383 33.0062H279.256C279.129 23.3549 280.121 14.3387 280.121 14.3387L284.094 13.5042C283.483 16.3765 282.873 24.7518 282.383 33.0062Z" fill="white"/>
<path d="M319.621 52.4772L318.787 52.1204C323.334 41.5137 324.907 23.3542 325.433 13.4731L326.34 13.5215C325.808 23.463 324.223 41.7435 319.621 52.4772Z" fill="#373844"/>
<path d="M271.148 45.4443C268.94 29.8608 271.287 7.9762 271.311 7.75246L271.347 7.42591L271.674 7.29892L299.224 1.39087L299.321 1.41506L320.988 6.16206L320.795 7.04494L299.218 2.32213L272.182 8.12134C271.897 10.903 269.999 30.8586 272.043 45.3173L271.148 45.4443Z" fill="#373844"/>
<path d="M295.747 50.3908L284.07 32.2131L287.481 29.9091L296.019 43.2007L314.651 16.3635L317.892 18.4921L295.747 50.3908Z" fill="#597DCA"/>
<path d="M152.901 168.254L154.552 141.175C154.661 139.421 153.331 138 151.583 138H91.8193C90.0717 138 88.572 139.421 88.4631 141.175L86.8425 168.254C86.7397 170.008 88.0701 171.429 89.8177 171.429H149.545C151.293 171.429 152.793 170.008 152.901 168.254Z" fill="#9CBFF7"/>
<path d="M105.824 154.714L105.098 144.555C102.673 144.875 100.303 146.048 98.4767 148.038C96.6988 149.979 95.7434 152.362 95.6104 154.732L105.818 154.708L105.824 154.714Z" fill="#FF6B57"/>
<path d="M105.994 164.929C106.254 164.911 106.52 164.88 106.774 164.838C106.943 164.814 107.106 164.784 107.27 164.747L105.83 154.709H105.818L95.6107 154.733C95.6107 154.733 95.6107 154.745 95.6107 154.751C95.6107 154.782 95.6107 154.806 95.6107 154.836C95.6107 154.921 95.6047 155.005 95.5986 155.09C95.5986 155.108 95.5986 155.12 95.5986 155.138C95.5986 155.253 95.5986 155.368 95.5986 155.483C95.5986 155.743 95.6168 156.003 95.641 156.263C95.647 156.348 95.6591 156.432 95.6712 156.517C95.6773 156.602 95.6893 156.686 95.7014 156.771C95.7256 156.94 95.7559 157.104 95.7861 157.273C95.8042 157.358 95.8224 157.436 95.8405 157.521C96.7295 161.433 99.9465 164.354 103.944 164.874C104.022 164.886 104.113 164.892 104.192 164.904C104.361 164.923 104.53 164.935 104.7 164.941C104.784 164.941 104.869 164.947 104.954 164.953C105.038 164.953 105.123 164.953 105.214 164.953C105.474 164.953 105.734 164.947 105.994 164.923V164.929Z" fill="#FEFEFE"/>
<path d="M107.27 164.752C107.3 164.746 107.336 164.74 107.373 164.734C107.421 164.722 107.463 164.716 107.512 164.704C107.536 164.704 107.56 164.692 107.584 164.686C107.639 164.673 107.693 164.661 107.742 164.649C107.796 164.637 107.85 164.619 107.899 164.607C107.947 164.595 107.996 164.583 108.038 164.571C108.123 164.546 108.201 164.522 108.286 164.498C108.37 164.474 108.449 164.45 108.528 164.42C108.624 164.389 108.721 164.353 108.824 164.317C111.557 163.301 113.807 161.196 115.04 158.59C115.04 158.59 115.04 158.584 115.04 158.578C115.131 158.391 115.21 158.203 115.288 158.016C115.325 157.919 115.367 157.822 115.397 157.725C115.458 157.568 115.512 157.405 115.567 157.242C115.591 157.163 115.621 157.078 115.639 157C115.663 156.915 115.687 156.836 115.712 156.752C115.736 156.667 115.754 156.588 115.772 156.504C115.79 156.419 115.808 156.334 115.827 156.256C115.845 156.171 115.863 156.087 115.881 156.002C115.899 155.917 115.911 155.833 115.923 155.748C115.941 155.621 115.96 155.494 115.978 155.361C115.978 155.319 115.99 155.276 115.996 155.234C115.996 155.222 115.996 155.204 115.996 155.192C115.996 155.155 116.002 155.119 116.008 155.083C116.008 155.046 116.014 155.01 116.02 154.974C116.026 154.889 116.032 154.799 116.038 154.714C116.038 154.696 116.038 154.684 116.038 154.665C116.038 154.623 116.038 154.575 116.038 154.526C116.038 154.412 116.05 154.303 116.05 154.188C116.05 154.103 116.05 154.012 116.05 153.928C116.05 153.668 116.032 153.408 116.008 153.148C115.996 152.972 115.972 152.809 115.948 152.64C115.923 152.47 115.893 152.307 115.863 152.138C115.845 152.053 115.827 151.974 115.808 151.89C115.784 151.787 115.76 151.684 115.736 151.581C114.998 148.757 113.027 146.484 110.445 145.311L105.812 154.684V154.702L107.252 164.74L107.27 164.752Z" fill="#FEFEFE"/>
<path d="M105.824 154.714L105.836 154.696L110.469 145.323C109.979 145.093 109.465 144.918 108.939 144.785C108.86 144.767 108.787 144.749 108.709 144.73C108.624 144.712 108.54 144.688 108.461 144.676C108.382 144.664 108.292 144.64 108.207 144.628C108.183 144.628 108.159 144.616 108.128 144.616L108.032 144.597C107.965 144.585 107.899 144.573 107.826 144.567C107.723 144.549 107.62 144.543 107.524 144.531C107.451 144.525 107.372 144.513 107.3 144.507C107.088 144.489 106.883 144.477 106.671 144.47C106.617 144.47 106.568 144.47 106.514 144.47C106.453 144.47 106.393 144.47 106.326 144.47C106.302 144.47 106.284 144.47 106.266 144.47C106.205 144.47 106.145 144.47 106.09 144.47C106.054 144.47 106.012 144.47 105.976 144.47H105.933C105.842 144.477 105.752 144.483 105.661 144.489H105.649C105.558 144.495 105.468 144.507 105.383 144.513C105.359 144.513 105.341 144.513 105.316 144.519C105.304 144.519 105.298 144.519 105.286 144.519C105.274 144.519 105.268 144.519 105.256 144.519C105.22 144.519 105.183 144.519 105.141 144.531H105.123C105.123 144.531 105.105 144.531 105.093 144.531L105.818 154.69L105.824 154.714Z" fill="#FF6B57"/>
<path d="M135.546 154.721L125.332 154.66C125.169 157.091 125.871 159.534 127.485 161.506C129.057 163.422 131.234 164.553 133.563 164.868L135.552 154.727L135.546 154.721Z" fill="#FEFEFE"/>
<path d="M145.711 155.337C145.741 155.077 145.765 154.811 145.777 154.551C145.784 154.381 145.79 154.218 145.79 154.049L135.552 154.708V154.72L133.562 164.861C133.562 164.861 133.574 164.861 133.58 164.861C133.611 164.861 133.635 164.873 133.665 164.873C133.75 164.885 133.834 164.891 133.919 164.903C133.937 164.903 133.949 164.903 133.967 164.903C134.082 164.916 134.197 164.928 134.312 164.934C134.572 164.952 134.832 164.958 135.092 164.952C135.177 164.952 135.262 164.952 135.352 164.946C135.437 164.946 135.522 164.94 135.606 164.934C135.776 164.922 135.945 164.903 136.12 164.885C136.205 164.873 136.29 164.861 136.374 164.855C140.426 164.275 143.957 161.299 145.263 157.369C145.288 157.29 145.318 157.205 145.342 157.121C145.39 156.957 145.439 156.788 145.481 156.619C145.505 156.534 145.523 156.45 145.542 156.365C145.56 156.28 145.578 156.196 145.596 156.105C145.65 155.845 145.693 155.585 145.723 155.325L145.711 155.337Z" fill="#FEFEFE"/>
<path d="M145.784 154.056C145.784 154.025 145.784 153.989 145.784 153.953C145.784 153.905 145.784 153.862 145.784 153.814C145.784 153.79 145.784 153.765 145.784 153.735C145.784 153.681 145.784 153.626 145.778 153.572C145.778 153.518 145.778 153.463 145.766 153.409C145.766 153.36 145.766 153.312 145.754 153.264C145.748 153.179 145.742 153.1 145.73 153.016C145.718 152.931 145.712 152.846 145.7 152.768C145.688 152.665 145.669 152.568 145.657 152.465C145.192 149.672 143.547 147.277 141.201 145.85C141.201 145.85 141.195 145.85 141.195 145.844C141.025 145.741 140.856 145.644 140.681 145.553C140.596 145.505 140.505 145.463 140.414 145.42C140.269 145.348 140.118 145.281 139.967 145.221C139.894 145.191 139.816 145.154 139.743 145.13C139.665 145.1 139.592 145.07 139.513 145.039C139.435 145.009 139.356 144.985 139.278 144.961C139.199 144.937 139.12 144.912 139.042 144.888C138.963 144.864 138.878 144.84 138.8 144.816C138.721 144.792 138.643 144.773 138.558 144.755C138.437 144.725 138.31 144.695 138.189 144.671C138.147 144.665 138.11 144.652 138.068 144.646C138.056 144.646 138.038 144.646 138.026 144.64C137.99 144.634 137.953 144.628 137.923 144.622C137.887 144.616 137.857 144.61 137.82 144.604C137.736 144.592 137.651 144.574 137.566 144.568C137.548 144.568 137.536 144.568 137.518 144.562C137.476 144.556 137.427 144.55 137.385 144.544C137.276 144.531 137.161 144.519 137.052 144.507C136.968 144.501 136.877 144.495 136.792 144.489C136.532 144.471 136.272 144.465 136.012 144.471C135.837 144.471 135.667 144.483 135.498 144.489C135.329 144.501 135.159 144.519 134.984 144.538C134.899 144.55 134.815 144.562 134.73 144.568C134.621 144.58 134.518 144.598 134.41 144.616C131.465 145.136 128.822 146.914 127.153 149.393L135.534 154.715H135.553L145.79 154.056H145.784Z" fill="#FEFEFE"/>
<path d="M135.546 154.72L135.528 154.708L127.147 149.387H127.141C126.826 149.852 126.548 150.354 126.312 150.862C126.276 150.935 126.246 151.007 126.209 151.086C126.173 151.165 126.137 151.249 126.107 151.328C126.076 151.406 126.04 151.491 126.01 151.576C126.004 151.6 125.992 151.624 125.98 151.648C125.968 151.679 125.955 151.715 125.943 151.745C125.919 151.812 125.895 151.878 125.871 151.945C125.834 152.041 125.804 152.144 125.774 152.241C125.75 152.314 125.732 152.386 125.707 152.465C125.647 152.67 125.599 152.876 125.55 153.088C125.538 153.142 125.526 153.19 125.52 153.245C125.508 153.305 125.496 153.366 125.484 153.432C125.484 153.45 125.478 153.475 125.472 153.493C125.46 153.553 125.447 153.608 125.441 153.668C125.435 153.704 125.429 153.747 125.423 153.783V153.825C125.405 153.916 125.393 154.007 125.381 154.097V154.11C125.369 154.2 125.357 154.291 125.351 154.376C125.351 154.4 125.351 154.418 125.351 154.442C125.351 154.454 125.351 154.46 125.351 154.472C125.351 154.484 125.351 154.49 125.351 154.503C125.351 154.539 125.339 154.575 125.339 154.617V154.636C125.339 154.636 125.339 154.654 125.339 154.666L135.552 154.726L135.546 154.72Z" fill="#FF6B57"/>
<path d="M150.241 211.787L151.892 184.708C152 182.955 150.67 181.533 148.922 181.533H89.2009C87.4533 181.533 85.9536 182.955 85.8508 184.708L84.2302 211.787C84.1274 213.541 85.4578 214.962 87.1993 214.962H146.885C148.632 214.962 150.132 213.541 150.241 211.787Z" fill="#9CBFF7"/>
<path d="M141.364 209.701H92.9385L94.2144 188.391L95.1215 188.445L93.9 208.794H141.364V209.701Z" fill="#373844"/>
<path d="M104.06 208.763H99.3428L99.7842 201.362H104.507L104.06 208.763Z" fill="#FF6B57"/>
<path d="M111.667 208.764H106.95L107.773 195.121H112.495L111.667 208.764Z" fill="#FEFEFE"/>
<path d="M119.28 208.762H114.558L115.193 198.246H119.915L119.28 208.762Z" fill="#FF6B57"/>
<path d="M126.888 208.763H122.165L123.338 189.467H128.055L126.888 208.763Z" fill="#FEFEFE"/>
<path d="M134.495 208.763H129.778L131.236 184.756H135.952L134.495 208.763Z" fill="#FEFEFE"/>
<path d="M278.634 120.975H83.5233C79.6653 120.975 76.7203 117.836 76.9501 113.972L79.1815 76.4616C79.4113 72.5914 82.7311 69.459 86.5892 69.459H281.863C285.728 69.459 288.66 72.5975 288.419 76.4616L286.054 113.972C285.812 117.842 282.486 120.975 278.628 120.975H278.634Z" fill="#FEFEFE"/>
<path d="M278.634 121.429H83.5229C81.5334 121.429 79.7132 120.655 78.3828 119.246C77.0464 117.831 76.3812 115.944 76.4961 113.942L78.7275 76.4319C78.9694 72.332 82.5009 69 86.5888 69H281.863C283.852 69 285.679 69.774 287.003 71.183C288.333 72.598 288.999 74.4848 288.872 76.4864L286.507 113.997C286.247 118.091 282.716 121.429 278.628 121.429H278.634ZM86.5949 69.9071C82.9726 69.9071 79.8523 72.8581 79.6346 76.4864L77.4032 113.997C77.3004 115.744 77.8809 117.389 79.042 118.623C80.197 119.844 81.7874 120.522 83.5229 120.522H278.634C282.25 120.522 285.382 117.571 285.612 113.942L287.977 76.4319C288.085 74.6843 287.511 73.0395 286.356 71.8059C285.207 70.5783 283.617 69.9071 281.881 69.9071H86.5949Z" fill="#373844"/>
<path d="M116.401 108.849L89.2859 108.831C88.4393 108.831 87.8104 107.881 87.8769 106.708L89.3947 81.6186C89.4673 80.4455 90.2111 79.4961 91.0577 79.4961L118.185 79.5142C119.032 79.5142 119.661 80.4636 119.594 81.6368L118.064 106.726C117.992 107.9 117.248 108.849 116.401 108.849Z" fill="#9CBFF7"/>
<path d="M102.934 102.772L95.9555 96.5798C93.2222 93.5562 94.0991 90.2242 96.0583 88.404C97.9692 86.6262 101.229 85.9912 103.956 88.7003C107.064 86.0335 110.233 86.735 111.902 88.5613C113.613 90.4359 114.006 93.7981 110.831 96.7491L110.807 96.7733L102.934 102.778V102.772Z" fill="#FF6B57"/>
<path d="M101.18 99.4882L99.8439 94.7895H92.8896L92.9259 94.1667H100.328L101.235 97.3717L103.684 89.9941L104.978 94.1667H114L113.964 94.7895H104.506L103.654 92.032L101.18 99.4882Z" fill="white"/>
<path d="M122.721 108.528C122.563 111.153 120.308 113.281 117.689 113.281C115.071 113.281 113.075 111.153 113.233 108.528C113.39 105.904 115.645 103.775 118.264 103.775C120.882 103.775 122.878 105.904 122.721 108.528Z" fill="#597DCA"/>
<path d="M117.369 110.821L115.271 108.384L115.96 107.791L117.357 109.418L120.018 106.213L120.713 106.793L117.369 110.821Z" fill="#FEFEFE"/>
<path d="M155.937 108.849L128.822 108.831C127.975 108.831 127.346 107.881 127.419 106.708L128.949 81.6186C129.021 80.4455 129.765 79.4961 130.612 79.4961L157.739 79.5142C158.586 79.5142 159.215 80.4636 159.142 81.6368L157.6 106.726C157.527 107.9 156.784 108.849 155.937 108.849Z" fill="#9CBFF7"/>
<path d="M162.238 108.528C162.081 111.153 159.825 113.281 157.207 113.281C154.588 113.281 152.593 111.153 152.75 108.528C152.907 105.904 155.163 103.775 157.781 103.775C160.4 103.775 162.395 105.904 162.238 108.528Z" fill="#597DCA"/>
<path d="M156.892 110.821L154.794 108.384L155.483 107.791L156.88 109.418L159.541 106.213L160.236 106.793L156.892 110.821Z" fill="#FEFEFE"/>
<path d="M148.233 92.3892L147.145 92.486L146.903 88.5916C146.86 87.9385 146.613 87.3398 146.213 86.8803C146.026 86.6686 145.808 86.4872 145.566 86.336C145.506 86.2997 145.445 86.2634 145.379 86.2332L145.681 85.4531C146.026 85.5196 146.34 85.6466 146.625 85.822C146.867 85.9732 147.084 86.1546 147.272 86.3662C147.671 86.8258 147.925 87.4245 147.961 88.0776L148.227 92.3892H148.233Z" fill="#FF6B57"/>
<path d="M147.144 92.4852L143.745 92.7936L142.887 92.6605L145.378 86.2324C145.445 86.2627 145.505 86.2989 145.566 86.3352C145.807 86.4864 146.025 86.6678 146.213 86.8795C146.612 87.3391 146.866 87.9377 146.902 88.5908L147.144 92.4852Z" fill="white"/>
<path d="M152.447 97.269L145.294 97.015L138.878 96.7853L133.302 96.5857C132.341 96.5857 131.47 96.108 130.986 95.3098L130.279 94.1547L129.74 93.2719C129.674 93.163 129.644 93.0481 129.644 92.9272C129.656 92.4615 130.2 92.1592 130.593 92.389L132.208 93.3202C132.909 93.7194 133.731 93.8705 134.56 93.7435L149.23 91.4638C149.883 91.3489 151.359 91.2037 152.556 92.6006C152.665 92.7276 152.774 92.8667 152.877 93.0239C153.233 93.2053 153.542 93.3868 153.802 93.5621C156.838 95.594 154.001 97.2751 152.453 97.2751L152.447 97.269Z" fill="white"/>
<path d="M145.633 96.7491L139.725 101.284C137.808 102.826 135.637 103.389 134.337 102.675L134.881 101.968C136.139 102.065 137.747 101.454 139.205 100.287L144.75 96.0234L145.452 96.0537C145.808 96.0658 145.935 96.5193 145.639 96.743L145.633 96.7491Z" fill="#FF6B57"/>
<path d="M144.744 96.0299L139.199 100.293C137.741 101.466 136.133 102.071 134.875 101.974L135.062 101.732L139.477 95.9996C139.555 95.8908 139.689 95.8303 139.816 95.8364L144.647 96.0238H144.744V96.0299Z" fill="white"/>
<path d="M128.688 94.8936L130.787 93.9079C130.823 93.8898 130.859 93.8958 130.89 93.9079L132.184 94.7183C132.268 94.7727 132.232 94.8997 132.135 94.9178L130.14 95.2625C129.487 95.3895 128.9 95.2444 128.688 94.8876V94.8936Z" fill="white"/>
<path d="M147.428 94.4456C147.41 94.7238 147.168 94.9597 146.884 94.9597H146.636C146.346 94.9597 146.14 94.6875 146.158 94.4456C146.176 94.1614 146.418 93.9316 146.697 93.9316H146.944C147.229 93.9316 147.44 94.1614 147.422 94.4456H147.428Z" fill="#44312F"/>
<path d="M145.62 94.4456C145.602 94.7238 145.36 94.9597 145.082 94.9597H144.834C144.544 94.9597 144.338 94.6875 144.357 94.4456C144.375 94.1614 144.617 93.9316 144.895 93.9316H145.143C145.427 93.9316 145.639 94.1614 145.62 94.4456Z" fill="#44312F"/>
<path d="M143.813 94.4456C143.795 94.7238 143.553 94.9597 143.275 94.9597H143.027C142.736 94.9597 142.531 94.6875 142.549 94.4456C142.567 94.1614 142.809 93.9316 143.087 93.9316H143.335C143.619 93.9316 143.831 94.1614 143.813 94.4456Z" fill="#44312F"/>
<path d="M142.004 94.4456C141.986 94.7238 141.744 94.9597 141.466 94.9597H141.212C140.921 94.9597 140.722 94.6875 140.734 94.4456C140.752 94.1614 140.994 93.9316 141.272 93.9316H141.526C141.804 93.9316 142.022 94.1614 142.004 94.4456Z" fill="#44312F"/>
<path d="M140.197 94.4456C140.178 94.7238 139.937 94.9597 139.658 94.9597H139.411C139.114 94.9597 138.915 94.6875 138.933 94.4456C138.951 94.1614 139.193 93.9316 139.471 93.9316H139.719C139.997 93.9316 140.215 94.1614 140.197 94.4456Z" fill="#44312F"/>
<path d="M153.796 93.5572C152.732 95.0085 150.652 95.075 149.793 94.4401C149.225 94.0228 149.582 93.279 150.47 93.3032C151.293 93.3214 152.212 92.8074 152.551 92.5957C152.66 92.7227 152.768 92.8618 152.871 93.019C153.228 93.2004 153.536 93.3818 153.796 93.5572Z" fill="#44312F"/>
<path d="M195.462 108.849L168.346 108.831C167.5 108.831 166.871 107.881 166.943 106.708L168.491 81.6186C168.564 80.4455 169.308 79.4961 170.154 79.4961L197.282 79.5142C198.128 79.5142 198.757 80.4636 198.685 81.6368L197.124 106.726C197.052 107.9 196.308 108.849 195.455 108.849H195.462Z" fill="#9CBFF7"/>
<path d="M201.781 108.528C201.617 111.153 199.362 113.281 196.743 113.281C194.125 113.281 192.13 111.153 192.293 108.528C192.456 105.904 194.712 103.775 197.33 103.775C199.948 103.775 201.944 105.904 201.781 108.528Z" fill="#597DCA"/>
<path d="M196.429 110.821L194.33 108.384L195.02 107.791L196.417 109.418L199.077 106.213L199.779 106.793L196.429 110.821Z" fill="#FEFEFE"/>
<path d="M170.378 96.7483L170.577 93.4466L169.978 92.2492C169.821 91.9408 170.081 91.5659 170.444 91.5599L173.637 91.5357L176.8 88.6633C177.138 88.3549 177.58 88.1855 178.033 88.1855H183.82C184.183 88.1855 184.528 88.2944 184.812 88.506L185.374 88.9172L189.91 92.2613L193.423 92.866C194.131 92.987 194.681 93.4949 194.838 94.1662L195.165 96.7483H170.378Z" fill="#FF6B57"/>
<path d="M189.909 92.2677H177.289C176.963 92.1044 176.817 91.6932 177.035 91.3425L178.305 89.2865C178.444 89.0627 178.692 88.9297 178.952 88.9297H185.374L189.909 92.2738V92.2677Z" fill="#44312F"/>
<path d="M182.617 92.2679H181.861L182.067 88.9238H182.823L182.617 92.2679Z" fill="white"/>
<path d="M182.32 97.1045H181.564L181.788 93.4883H182.544L182.32 97.1045Z" fill="#44312F"/>
<path d="M195.274 97.8069H170.015L169.815 96.918C169.743 96.6035 169.997 96.2891 170.323 96.2891H195.207C195.546 96.2891 195.757 96.6217 195.63 96.9422L195.28 97.8069H195.274Z" fill="#44312F"/>
<path d="M177.683 97.5158C177.592 98.9792 176.341 100.164 174.877 100.164C173.414 100.164 172.307 98.9792 172.398 97.5158C172.488 96.0524 173.74 94.8672 175.204 94.8672C176.667 94.8672 177.774 96.0524 177.683 97.5158Z" fill="#44312F"/>
<path d="M176.691 97.5161C176.637 98.4292 175.851 99.167 174.944 99.167C174.037 99.167 173.341 98.4292 173.396 97.5161C173.45 96.603 174.236 95.8652 175.143 95.8652C176.05 95.8652 176.746 96.603 176.691 97.5161Z" fill="white"/>
<path d="M192.963 97.467C192.873 98.9304 191.615 100.116 190.157 100.116C188.7 100.116 187.587 98.9304 187.678 97.467C187.769 96.0036 189.027 94.8184 190.484 94.8184C191.941 94.8184 193.054 96.0036 192.963 97.467Z" fill="#44312F"/>
<path d="M191.966 97.4673C191.911 98.3804 191.125 99.1181 190.218 99.1181C189.311 99.1181 188.616 98.3804 188.67 97.4673C188.724 96.5542 189.511 95.8164 190.418 95.8164C191.325 95.8164 192.02 96.5542 191.966 97.4673Z" fill="white"/>
<path d="M235.034 108.849L207.918 108.831C207.072 108.831 206.443 107.881 206.515 106.708L208.076 81.6186C208.148 80.4455 208.892 79.4961 209.745 79.4961L236.872 79.5142C237.719 79.5142 238.348 80.4636 238.275 81.6368L236.703 106.726C236.63 107.9 235.88 108.849 235.034 108.849Z" fill="#9CBFF7"/>
<path d="M241.269 108.534C241.106 111.159 238.85 113.287 236.232 113.287C233.613 113.287 231.618 111.159 231.781 108.534C231.944 105.91 234.2 103.781 236.818 103.781C239.436 103.781 241.432 105.91 241.269 108.534Z" fill="#597DCA"/>
<path d="M235.917 110.821L233.818 108.384L234.508 107.791L235.905 109.418L238.571 106.213L239.267 106.793L235.917 110.821Z" fill="#FEFEFE"/>
<path d="M228.491 89.2692H226.423L226.592 86.5117H228.66L228.491 89.2692Z" fill="#FF6B57"/>
<path d="M229.258 85.761H226.09L226.138 84.9023H229.313L229.258 85.761Z" fill="#FF6B57"/>
<path d="M228.95 86.6015H226.296L226.344 85.7852H228.999L228.95 86.6015Z" fill="#9CBFF7"/>
<path d="M213.875 91.7891L213.99 89.854L222.927 86.002L231.327 89.854L231.206 91.7891H213.875Z" fill="#FF6B57"/>
<path d="M214.655 101.35H219.807L219.711 102.97H214.552L214.655 101.35Z" fill="#44312F"/>
<path d="M229.344 101.35L229.241 102.97H224.089L224.185 101.35H229.344Z" fill="#44312F"/>
<path d="M222.831 87.5996L215.302 90.7744L214.649 101.351H229.338L229.991 90.7744L222.825 87.5996H222.831ZM219.039 96.9727H216.064L216.306 93.036H219.281L219.039 96.9727ZM228.467 96.9727H225.498L225.74 93.036H228.709L228.467 96.9727Z" fill="white"/>
<path d="M224.186 101.35L224.089 102.97H219.711L219.807 101.35H224.186Z" fill="#44312F"/>
<path d="M224.675 93.4824L224.186 101.35H219.807L220.297 93.4824H224.675Z" fill="#FF6B57"/>
<path d="M221.294 97.8555H220.46L220.478 97.541H221.312L221.294 97.8555Z" fill="white"/>
<path d="M274.546 108.849L247.431 108.831C246.585 108.831 245.956 107.881 246.028 106.708L247.606 81.6186C247.679 80.4455 248.429 79.4961 249.275 79.4961L276.403 79.5142C277.25 79.5142 277.878 80.4636 277.806 81.6368L276.215 106.726C276.143 107.9 275.393 108.849 274.546 108.849Z" fill="#9CBFF7"/>
<path d="M280.817 108.535C280.654 111.159 278.392 113.288 275.774 113.288C273.156 113.288 271.16 111.159 271.329 108.535C271.493 105.91 273.754 103.781 276.373 103.781C278.991 103.781 280.987 105.91 280.817 108.535Z" fill="#597DCA"/>
<path d="M275.466 110.827L273.367 108.384L274.057 107.791L275.453 109.418L278.12 106.219L278.816 106.8L275.466 110.827Z" fill="#FEFEFE"/>
<path d="M268.929 97.8984H265.464V98.5032H268.929V97.8984Z" fill="#D1E1FB"/>
<path d="M272.514 96.1195L272.17 98.1574C272.103 98.5444 271.807 98.8528 271.438 98.9193C270.555 99.0826 269.678 99.3305 268.934 99.8929L267.435 101.024C266.25 101.919 264.895 102.523 263.48 102.796C262.639 102.959 261.726 103.092 261.007 103.092C256.629 103.092 253.272 100.02 253.514 96.2344C253.75 92.4489 257.487 89.377 261.865 89.377C263.806 89.377 265.548 89.9817 266.86 90.9855C266.86 90.9855 266.951 91.046 267.09 91.1609C267.513 91.4934 268.426 92.2191 268.928 92.8057C269.866 93.9002 270.446 94.8617 271.91 95.0915C272.333 95.2306 272.581 95.6539 272.502 96.1256L272.514 96.1195Z" fill="#FF6B57"/>
<path d="M271.486 90.0428L269.6 92.4979C269.6 92.4979 269.557 92.4435 269.539 92.4193C269.025 91.8207 268.106 91.0829 267.616 90.6959C267.465 90.581 267.374 90.5145 267.374 90.5145C267.326 90.4782 267.284 90.4419 267.235 90.4056C268.015 89.8977 269.394 89.2264 271.166 89.2506C271.553 89.2506 271.74 89.7163 271.492 90.0368L271.486 90.0428Z" fill="#FF6B57"/>
<path d="M258.328 103.437L258.056 104.296C257.904 104.768 257.475 105.1 257.009 105.1H255.534C254.706 105.1 254.137 104.284 254.373 103.425L254.905 101.557C255.83 102.415 257.003 103.068 258.328 103.437Z" fill="#FF6B57"/>
<path d="M266.189 105.089H264.72C264.248 105.089 263.861 104.768 263.77 104.29L263.583 103.468C264.871 103.22 266.135 102.718 267.26 101.986L267.556 103.432C267.689 104.284 267.024 105.095 266.189 105.095V105.089Z" fill="#FF6B57"/>
<path d="M269.382 95.6237C269.363 95.9502 269.091 96.2102 268.783 96.2102C268.475 96.2102 268.239 95.9502 268.257 95.6237C268.275 95.2971 268.547 95.0371 268.856 95.0371C269.164 95.0371 269.4 95.2971 269.382 95.6237Z" fill="#FEFEFE"/>
<path d="M260.457 90.8957L260.402 90.4179C261.479 90.2305 262.604 90.2305 263.662 90.4179L263.547 90.8957C262.543 90.7203 261.473 90.7203 260.457 90.8957Z" fill="#FEFEFE"/>
<path d="M255.449 93.8399C255.371 93.8036 254.04 93.2231 253.321 92.0137C253.103 92.0258 252.873 92.0137 252.644 91.9835C251.416 91.8141 251.174 90.508 251.216 89.8367H251.7C251.7 89.8972 251.622 91.3485 252.734 91.4997C252.855 91.5178 252.97 91.5239 253.079 91.5299C252.891 91.0582 252.807 90.508 252.897 89.8791C253.133 88.2463 254.125 88.0347 254.421 88.0044C255.111 87.9379 255.722 88.3975 255.867 89.0687C256.006 89.7279 255.734 90.5624 255.189 91.1489C254.827 91.536 254.379 91.796 253.871 91.923C254.548 92.8966 255.643 93.3803 255.661 93.3864L255.443 93.8339L255.449 93.8399ZM254.53 88.4882C254.53 88.4882 254.476 88.4882 254.446 88.4882C253.907 88.5366 253.508 89.0748 253.387 89.9214C253.297 90.5261 253.412 91.0461 253.623 91.4936C254.204 91.3908 254.603 91.1006 254.851 90.8284C255.359 90.2842 255.492 89.619 255.401 89.1957C255.31 88.7785 254.947 88.4822 254.53 88.4822V88.4882Z" fill="#FF6B57"/>
<path d="M264.622 85.5317C264.544 86.7895 263.461 87.8115 262.204 87.8115C260.946 87.8115 259.99 86.7895 260.069 85.5317C260.148 84.2739 261.23 83.252 262.488 83.252C263.746 83.252 264.701 84.2739 264.622 85.5317Z" fill="#FF9E7E"/>
<path d="M262.101 87.2245L262.125 86.8072C261.883 86.8072 261.641 86.7286 261.502 86.6258L261.617 86.3476C261.762 86.4444 261.968 86.523 262.203 86.523C262.494 86.523 262.705 86.3537 262.717 86.1178C262.73 85.8881 262.578 85.749 262.282 85.628C261.871 85.4648 261.623 85.2773 261.641 84.9145C261.659 84.5698 261.919 84.3097 262.306 84.2493L262.33 83.832H262.584L262.56 84.2311C262.808 84.2372 262.971 84.3037 263.086 84.3763L262.965 84.6484C262.881 84.6 262.717 84.5093 262.451 84.5093C262.131 84.5093 262.004 84.7028 261.992 84.8661C261.98 85.0838 262.125 85.1866 262.476 85.3378C262.893 85.5071 263.092 85.7248 263.068 86.0937C263.05 86.4202 262.802 86.7286 262.373 86.8012L262.349 87.2305H262.089L262.101 87.2245Z" fill="#FF6B57"/>
<path d="M294.357 289.654C294.357 291.111 283.666 292.296 270.477 292.296C257.288 292.296 246.597 291.111 246.597 289.654C246.597 289.623 246.597 289.605 246.609 289.575V282.439H294.345V289.563C294.357 289.599 294.363 289.623 294.363 289.66L294.357 289.654Z" fill="#FF6B57"/>
<path d="M294.357 282.506C294.357 283.963 283.666 285.148 270.477 285.148C257.288 285.148 246.597 283.969 246.597 282.506C246.597 281.042 257.288 279.863 270.477 279.863C283.666 279.863 294.357 281.042 294.357 282.506Z" fill="#FF9E7E"/>
<path d="M299.999 281.042C299.999 282.5 289.307 283.685 276.118 283.685C262.93 283.685 252.238 282.5 252.238 281.042C252.238 281.012 252.238 280.994 252.25 280.964V273.828H299.986V280.952C299.999 280.988 300.005 281.012 300.005 281.048L299.999 281.042Z" fill="#FF6B57"/>
<path d="M299.999 273.895C299.999 275.352 289.307 276.537 276.118 276.537C262.93 276.537 252.238 275.358 252.238 273.895C252.238 272.431 262.93 271.252 276.118 271.252C289.307 271.252 299.999 272.431 299.999 273.895Z" fill="#FF9E7E"/>
<path d="M294.357 272.431C294.357 273.888 283.666 275.074 270.477 275.074C257.288 275.074 246.597 273.888 246.597 272.431C246.597 272.401 246.597 272.383 246.609 272.352V265.217H294.345V272.34C294.357 272.376 294.363 272.401 294.363 272.437L294.357 272.431Z" fill="#FF6B57"/>
<path d="M270.477 267.92C283.665 267.92 294.357 266.737 294.357 265.277C294.357 263.818 283.665 262.635 270.477 262.635C257.288 262.635 246.597 263.818 246.597 265.277C246.597 266.737 257.288 267.92 270.477 267.92Z" fill="#FF9E7E"/>
<path d="M302.823 263.82C302.823 265.277 292.132 266.462 278.943 266.462C265.754 266.462 255.063 265.277 255.063 263.82C255.063 263.79 255.063 263.771 255.075 263.741V256.606H302.811V263.729C302.823 263.765 302.829 263.79 302.829 263.826L302.823 263.82Z" fill="#FF6B57"/>
<path d="M278.943 259.309C292.131 259.309 302.823 258.126 302.823 256.666C302.823 255.207 292.131 254.023 278.943 254.023C265.754 254.023 255.063 255.207 255.063 256.666C255.063 258.126 265.754 259.309 278.943 259.309Z" fill="#FF9E7E"/>
<path d="M278.943 258.444C289.687 258.444 298.397 257.648 298.397 256.667C298.397 255.685 289.687 254.889 278.943 254.889C268.199 254.889 259.489 255.685 259.489 256.667C259.489 257.648 268.199 258.444 278.943 258.444Z" fill="#FF6B57"/>
<path d="M304.275 245.103C291.382 248.454 283.648 261.624 286.998 274.523C290.348 287.415 303.519 295.156 316.417 291.799C329.31 288.449 337.05 275.279 333.694 262.38C330.344 249.488 317.173 241.753 304.275 245.103ZM329.134 263.559C330.441 268.578 329.709 273.803 327.078 278.278C324.454 282.747 320.245 285.934 315.226 287.24C304.867 289.931 294.242 283.696 291.551 273.332C290.245 268.312 290.971 263.088 293.601 258.613C296.135 254.301 300.144 251.181 304.934 249.796C305.109 249.748 305.278 249.699 305.454 249.657C315.643 247.002 326.081 253.001 328.989 263.045C329.038 263.215 329.086 263.384 329.134 263.553V263.559Z" fill="#FF9E7E"/>
<path d="M328.996 263.052C329.044 263.222 329.092 263.391 329.141 263.56C330.447 268.579 329.715 273.804 327.085 278.279C324.46 282.748 320.252 285.935 315.232 287.241C304.874 289.932 294.249 283.697 291.558 273.332C290.252 268.313 290.977 263.089 293.608 258.614C296.142 254.302 300.151 251.182 304.94 249.797C305.116 249.749 305.285 249.7 305.46 249.658C315.65 247.003 326.087 253.002 328.996 263.052Z" fill="#FF6B57"/>
<path d="M313.291 283.056L312.275 279.548C310.249 280.099 307.981 280.074 306.518 279.554L306.681 276.984C308.175 277.456 310.17 277.595 312.117 277.033C314.585 276.319 315.842 274.414 315.268 272.431C314.718 270.52 313.018 269.728 310.146 269.431C306.197 269.069 303.549 268.101 302.672 265.078C301.837 262.193 303.252 259.411 306.3 257.966L305.284 254.459L307.437 253.836L308.411 257.204C310.515 256.672 312.099 256.817 313.279 257.113L313.073 259.659C312.22 259.454 310.575 259.103 308.356 259.744C305.683 260.518 305.133 262.411 305.538 263.796C306.058 265.604 307.606 266.136 310.993 266.511C314.996 266.934 317.324 268.222 318.219 271.312C319.011 274.058 317.844 277.184 314.44 278.805L315.486 282.421L313.297 283.056H313.291Z" fill="#FF9E7E"/>
<path d="M286.556 274.632C284.065 265.041 287.536 254.949 295.397 248.926L295.948 249.645C288.371 255.445 285.027 265.168 287.427 274.402L286.55 274.632H286.556Z" fill="#373844"/>
<path d="M296.389 288.68C291.533 285.336 288.044 280.347 286.557 274.632L287.433 274.402C288.867 279.905 292.229 284.713 296.903 287.93L296.389 288.674V288.68Z" fill="#373844"/>
<path d="M48.8363 313.532C74.9497 313.532 96.1188 310.684 96.1188 307.17C96.1188 303.657 74.9497 300.809 48.8363 300.809C22.7228 300.809 1.55371 303.657 1.55371 307.17C1.55371 310.684 22.7228 313.532 48.8363 313.532Z" fill="#D3E1EF"/>
<path d="M93.876 165.103C94.7407 165.049 95.6176 164.946 96.5125 164.783C97.1112 164.674 98.7923 164.372 99.264 163.985C99.6994 163.628 101.81 161.384 102.245 161.874C102.699 162.388 100.927 163.628 101.356 163.973C101.622 164.184 105.136 161.808 105.408 162.594C105.589 163.108 103.261 164.257 103.455 164.487C103.63 164.698 106.2 162.691 106.508 163.434C106.829 164.215 103.376 165.309 103.545 165.66C103.63 165.835 107.095 163.882 107.325 164.499C107.633 165.321 104.313 166.252 104.422 166.639C104.477 166.827 105.589 166.295 106.291 166.059C106.684 165.926 106.847 166.222 106.66 166.428C104.67 168.532 99.6389 168.974 99.2095 169.216C97.6554 170.092 96.1376 170.842 94.65 171.471L93.8881 165.116L93.876 165.103Z" fill="#EDA38F"/>
<path d="M57.2542 105.117C64.0935 106.157 66.5124 109.919 67.6372 112.531C68.7619 115.144 68.901 117.992 69.0461 120.786C69.1913 123.579 69.3727 126.434 70.564 129.022C71.592 131.253 73.3457 133.206 74.0592 135.528C75.0026 138.57 73.9201 142.041 71.3561 144.218C65.2123 141.721 59.1107 139.731 52.9668 137.24C55.0772 127.589 57.2482 105.111 57.2482 105.111L57.2542 105.117Z" fill="#373844"/>
<path d="M30.5565 145.246C28.7967 131.537 40.8366 130.376 43.4369 122.254C44.8579 117.822 45.1119 104.506 56.0935 105.008C66.0532 105.461 66.5248 117.126 66.5248 117.126L63.9427 113.081L52.9369 113.147C52.7857 116.824 51.5098 119.098 51.5098 119.098L57.3816 126.856L50.0282 143.395L30.5625 145.246H30.5565Z" fill="#373844"/>
<path d="M98.5686 171.847C98.5686 171.847 95.5693 166.604 95.5693 162.154L83.9708 164.089L76.8292 145.312L65.3154 162.571C65.3154 162.571 69.5242 177.12 79.4295 178.62C87.8894 179.902 98.5686 171.853 98.5686 171.853V171.847Z" fill="white"/>
<path d="M92.722 165.816L90.5713 166.738L90.7954 167.261L92.9461 166.338L92.722 165.816Z" fill="#5379F6"/>
<path d="M91.5269 164.95L89.9531 166.682L90.3738 167.064L91.9476 165.332L91.5269 164.95Z" fill="#5379F6"/>
<path d="M79.1336 151.486C79.1336 151.486 78.8494 149.533 77.7791 146.896C75.584 141.478 70.069 133.163 56.9104 132.825C20.549 131.881 24.1228 164.76 24.1228 164.76C24.1228 164.76 28.0051 167.783 38.769 170.964L72.4153 161.137C76.9325 157.279 79.1276 151.492 79.1276 151.492L79.1336 151.486Z" fill="white"/>
<path d="M49.8164 134.549C51.2072 130.727 51.7999 126.445 51.6305 121.723L59.3467 126.778L60.3445 136.042C60.3445 136.042 55.9059 140.638 49.8164 134.549Z" fill="#EDA38F"/>
<path d="M42.5538 291.945L12.6084 291.866L33.7129 285.928L42.5538 291.945Z" fill="#373844"/>
<path d="M61.5116 296.146L62.467 286.84H72.8197L70.5702 295.874C70.5702 295.874 69.3729 298.904 65.8897 298.795C62.5396 298.686 61.5116 296.146 61.5116 296.146Z" fill="#EDA38F"/>
<path d="M17.8029 296.146L18.7583 286.84H29.111L26.5047 296.213C26.5047 296.213 25.5432 298.384 22.181 298.789C18.8611 299.194 17.8029 296.14 17.8029 296.14V296.146Z" fill="#EDA38F"/>
<path d="M14.6221 305.931L17.3493 295.814C20.7055 298.735 27.2243 295.638 27.2243 295.638C27.2243 295.638 27.1638 297.253 30.6349 298.36C33.0598 299.128 40.1773 300.343 40.9815 305.925H14.6221V305.931Z" fill="#373844"/>
<path d="M29.5646 297.96C28.5608 299.175 27.1034 299.617 27.0309 299.641L26.8857 299.145C26.8857 299.145 28.1677 298.752 29.0809 297.73C29.232 297.809 29.3893 297.887 29.5646 297.966V297.96Z" fill="white"/>
<path d="M32.0134 298.752C31.0156 300.173 29.3587 300.675 29.2801 300.7L29.1289 300.204C29.1289 300.204 30.556 299.768 31.4812 298.607C31.6445 298.65 31.8259 298.698 32.0134 298.752Z" fill="white"/>
<path d="M58.5361 305.931L61.2634 295.814C64.6195 298.735 71.1384 295.639 71.1384 295.639C71.1384 295.639 71.0779 297.253 74.549 298.36C76.9739 299.128 84.0913 300.343 84.8956 305.925H58.5361V305.931Z" fill="#373844"/>
<path d="M73.4787 297.96C72.4749 299.176 71.0175 299.617 70.9449 299.641L70.7998 299.145C70.7998 299.145 72.0818 298.752 72.9949 297.73C73.1461 297.809 73.3033 297.888 73.4787 297.966V297.96Z" fill="white"/>
<path d="M75.9275 298.753C74.9297 300.174 73.2728 300.676 73.1941 300.7L73.043 300.204C73.043 300.204 74.4701 299.768 75.3953 298.607C75.5586 298.65 75.74 298.698 75.9275 298.753Z" fill="white"/>
<path d="M53.7287 283.2C53.3719 286.411 53.4385 286.435 52.9365 289.604C52.9365 289.604 55.9178 293.389 61.4146 292.277C66.6877 291.206 71.3259 286.822 80.0761 291.333C80.0761 291.333 80.3664 290.1 80.6989 285.383C80.711 285.189 80.7292 284.99 80.7473 284.784C82.0293 266.226 83.8435 218.616 72.8498 177.502L49.0361 181.765C49.0361 181.765 59.2014 233.22 53.7952 282.504C53.771 282.734 53.7469 282.958 53.7227 283.194L53.7287 283.2Z" fill="#FF6B57"/>
<path d="M12.2881 291.878C12.2881 291.878 18.4078 293.123 29.0628 290.215C34.989 288.6 39.5546 290.184 42.5177 291.944C42.5177 291.944 64.0032 226.889 61.8625 179.389L39.9296 179.588C34.7955 190.775 34.5536 200.862 34.2029 204.853C31.4394 236.522 19.206 271.559 14.4832 285.57C14.4227 285.758 14.3562 285.945 14.2957 286.127C13.05 289.791 12.2881 291.878 12.2881 291.878Z" fill="#FF6B57"/>
<path d="M54.8904 243.536L54.3643 243.439C57.8414 226.532 59.8974 211.105 60.49 197.578V197.463L64.8984 194.191L65.2249 194.591L61.0161 197.717C60.4174 211.244 58.3554 226.658 54.8843 243.542L54.8904 243.536Z" fill="#373844"/>
<path d="M53.7295 282.91C54.8543 283.878 57.8476 286.043 61.881 286.043C62.1108 286.043 62.3406 286.043 62.5765 286.025C64.1003 285.928 65.6847 285.535 67.3658 285.117C71.1936 284.168 75.4629 283.104 80.7118 285.093C80.7239 284.9 80.7421 284.7 80.7602 284.495C75.4327 282.523 71.1029 283.6 67.2328 284.561C65.5819 284.972 64.0157 285.359 62.5462 285.45C57.9564 285.734 54.558 282.892 53.8081 282.215C53.7839 282.445 53.7597 282.668 53.7355 282.904L53.7295 282.91Z" fill="#373844"/>
<path d="M14.3566 286.12C14.9734 286.15 15.6991 286.168 16.5094 286.168C20.0107 286.168 25.1508 285.811 30.9077 284.245C35.6123 282.963 40.063 283.532 44.1388 285.945L44.4291 285.449C40.2142 282.963 35.6123 282.371 30.7504 283.695C23.8446 285.582 17.8458 285.703 14.538 285.57C14.4776 285.757 14.4111 285.945 14.3506 286.126L14.3566 286.12Z" fill="#373844"/>
<path d="M81.631 167.105C82.1692 165.484 84.0982 164.348 84.1163 164.336L83.8321 163.846C83.7475 163.894 81.7035 165.104 81.0928 166.924L81.631 167.105Z" fill="#373844"/>
<path d="M35.7688 158.996L29.5342 192.056C29.5342 192.056 40.2255 194.106 56.4016 190C68.5805 186.904 77.7722 181.903 77.7722 181.903L69.9532 150.125L60.8342 134.016C60.8342 134.016 56.1174 139.264 50.0219 133.139L34.7468 141.593L35.7627 158.996H35.7688Z" fill="white"/>
<path d="M35.8 136.65L35.2451 136.773L35.857 139.524L36.4118 139.401L35.8 136.65Z" fill="white"/>
<path d="M34.4363 137.362L34.04 137.77L36.0606 139.734L36.4568 139.326L34.4363 137.362Z" fill="white"/>
<path d="M79.5818 149.04L76.8066 149.529L76.9053 150.089L79.6805 149.6L79.5818 149.04Z" fill="white"/>
<path d="M78.4527 147.68L76.1309 149.277L76.453 149.746L78.7748 148.149L78.4527 147.68Z" fill="white"/>
<path d="M36.0738 158.321L29.2588 191.998L29.8159 192.111L36.6309 158.434L36.0738 158.321Z" fill="#373844"/>
<path d="M65.3942 113.577C66.7185 118.04 66.5069 131.495 60.5323 131.241C54.2917 130.975 51.764 123.325 51.764 123.325C51.764 123.325 48.6557 124.28 48.0752 121.487C47.5491 118.965 50.5424 117.985 51.51 119.086C51.51 119.086 50.5424 112.906 54.1163 110.868C57.6901 108.824 63.961 108.739 65.4003 113.571L65.3942 113.577Z" fill="#EDA38F"/>
<path d="M51.5098 119.086C51.5098 119.086 59.238 118.584 62.1286 113.172C62.1286 113.172 63.852 117.29 66.2769 118.547C66.2769 118.547 68.5325 110.184 61.1671 108.189C53.7956 106.199 49.6654 113.196 50.0827 115.893C50.3487 117.616 51.5158 119.086 51.5158 119.086H51.5098Z" fill="#373844"/>
<path d="M26.5457 175.631L23.797 176.252L23.9223 176.806L26.671 176.185L26.5457 175.631Z" fill="white"/>
<path d="M27.0232 175.948L24.7804 177.654L25.1245 178.107L27.3674 176.401L27.0232 175.948Z" fill="white"/>
<path d="M49.7501 193.036C49.5264 193.683 47.5732 192.746 47.4825 193.29C47.428 193.623 51.2196 195.528 50.6693 196.15C50.3125 196.556 48.1718 195.092 48.063 195.37C47.9662 195.63 50.9777 196.888 50.4758 197.517C49.9497 198.176 47.3071 195.703 47.0834 196.017C46.9745 196.175 50.367 198.243 49.9437 198.745C49.3752 199.416 46.9443 196.979 46.6601 197.263C46.521 197.402 47.5369 198.11 48.0811 198.612C48.3835 198.89 48.2142 199.18 47.9421 199.107C45.1362 198.4 42.288 194.227 41.8647 193.973C14.5014 177.38 28.4038 149.358 28.4038 149.358L44.0658 153.518C44.0658 153.518 32.6488 175.3 44.4045 189.462C44.7915 189.934 45.8739 191.246 46.4424 191.47C46.9685 191.676 49.9558 192.419 49.7441 193.036H49.7501Z" fill="#EDA38F"/>
<path d="M37.0999 191.924C37.0999 191.924 40.0267 188.616 44.3323 187.056C44.3323 187.056 36.7008 174.333 43.274 157.413L46.2795 148.615L27.4124 147.314C27.4124 147.314 14.9976 174.2 37.0999 191.918V191.924Z" fill="white"/>
<path d="M37.3237 192.123L36.8701 191.724C36.9911 191.585 39.8937 188.338 44.2234 186.771L44.429 187.34C40.2505 188.852 37.3478 192.093 37.3237 192.123Z" fill="#373844"/>
<path d="M37.4454 152.146L37.2344 152.674L39.4074 153.543L39.6184 153.015L37.4454 152.146Z" fill="#5379F6"/>
<path d="M38.6088 151.233L38.1973 151.625L39.8114 153.319L40.223 152.927L38.6088 151.233Z" fill="#5379F6"/>
<path d="M41.8351 138.948L39.6844 139.871L39.9086 140.393L42.0592 139.471L41.8351 138.948Z" fill="#5379F6"/>
<path d="M40.6476 138.066L39.0741 139.799L39.4949 140.181L41.0684 138.448L40.6476 138.066Z" fill="#5379F6"/>
<path d="M32.1831 147.949L30.0322 148.871L30.2562 149.394L32.4071 148.471L32.1831 147.949Z" fill="#5379F6"/>
<path d="M31.01 147.057L29.4365 148.789L29.8573 149.171L31.4308 147.439L31.01 147.057Z" fill="#5379F6"/>
<path d="M49.0374 188.929L46.8867 189.852L47.1108 190.374L49.2615 189.451L49.0374 188.929Z" fill="#5379F6"/>
<path d="M47.8596 188.043L46.2861 189.775L46.7069 190.157L48.2804 188.425L47.8596 188.043Z" fill="#5379F6"/>
<path d="M66.1292 181.22L63.9785 182.143L64.2026 182.665L66.3533 181.742L66.1292 181.22Z" fill="#5379F6"/>
<path d="M64.9436 180.338L63.3701 182.07L63.7909 182.452L65.3644 180.72L64.9436 180.338Z" fill="#5379F6"/>
<path d="M48.7725 178.453L48.5614 178.98L50.7343 179.85L50.9454 179.322L48.7725 178.453Z" fill="#5379F6"/>
<path d="M49.9458 177.53L49.5341 177.922L51.1473 179.617L51.5591 179.225L49.9458 177.53Z" fill="#5379F6"/>
<path d="M35.5832 181.634L35.3721 182.162L37.5449 183.031L37.756 182.503L35.5832 181.634Z" fill="#5379F6"/>
<path d="M36.7467 180.733L36.335 181.125L37.9482 182.82L38.36 182.428L36.7467 180.733Z" fill="#5379F6"/>
<path d="M64.3355 168.894L62.1848 169.816L62.4089 170.339L64.5596 169.416L64.3355 168.894Z" fill="#5379F6"/>
<path d="M63.1509 168.008L61.5774 169.74L61.9982 170.122L63.5717 168.39L63.1509 168.008Z" fill="#5379F6"/>
<path d="M40.5464 168.195L38.3997 167.337L38.6174 166.811L40.625 167.615L40.7822 167.675L40.758 167.754L40.5464 168.195Z" fill="#5379F6"/>
<path d="M40.7403 166.912C40.698 167.148 40.6617 167.384 40.6254 167.614L39.3616 166.29L39.7788 165.896L40.7403 166.906V166.912Z" fill="#5379F6"/>
<path d="M40.7825 167.674L40.7583 167.752L40.6252 167.613L40.7825 167.674Z" fill="#5379F6"/>
<path d="M41.7858 184.916C41.6649 184.662 38.8167 178.639 40.2499 168.153C40.2741 167.96 40.2982 167.766 40.3285 167.573C40.3587 167.367 40.395 167.155 40.4313 166.944L40.4434 166.859C40.9513 163.751 41.81 160.54 42.9892 157.311L43.5576 157.516C42.3906 160.709 41.544 163.89 41.036 166.956L41.0239 167.04C40.9876 167.246 40.9574 167.452 40.9271 167.657C40.8969 167.845 40.8727 168.038 40.8485 168.226C39.4396 178.542 42.2998 184.589 42.3301 184.65L41.7858 184.916Z" fill="#373844"/>
<path d="M76.1653 165.175L74.0146 166.098L74.2388 166.62L76.3894 165.697L76.1653 165.175Z" fill="#5379F6"/>
<path d="M74.9703 164.313L73.3965 166.045L73.8172 166.427L75.391 164.695L74.9703 164.313Z" fill="#5379F6"/>
<path d="M84.1364 173.011L83.9248 173.539L86.0969 174.41L86.3085 173.882L84.1364 173.011Z" fill="#5379F6"/>
<path d="M85.3051 172.122L84.8936 172.514L86.5077 174.208L86.9193 173.816L85.3051 172.122Z" fill="#5379F6"/>
<path d="M73.7204 151.929L73.509 152.457L75.6815 153.327L75.8928 152.799L73.7204 151.929Z" fill="#5379F6"/>
<path d="M74.8793 151.043L74.468 151.436L76.0834 153.129L76.4947 152.737L74.8793 151.043Z" fill="#5379F6"/>
<path d="M50.2708 148.616L48.1201 149.539L48.3442 150.061L50.4949 149.139L50.2708 148.616Z" fill="#5379F6"/>
<path d="M47.5127 149.472L47.9299 149.853L49.5083 148.123L49.085 147.742L47.5127 149.472Z" fill="#5379F6"/>
<path d="M65.3548 156.732L63.2041 157.654L63.4282 158.177L65.5789 157.254L65.3548 156.732Z" fill="#5379F6"/>
<path d="M64.1656 155.866L62.5918 157.598L63.0125 157.98L64.5863 156.248L64.1656 155.866Z" fill="#5379F6"/>
<path d="M60.7164 145.871L60.5049 146.398L62.677 147.269L62.8886 146.742L60.7164 145.871Z" fill="#5379F6"/>
<path d="M61.878 144.98L61.4667 145.373L63.082 147.066L63.4933 146.674L61.878 144.98Z" fill="#5379F6"/>
<path d="M69.2452 138.437L67.0945 139.359L67.3186 139.882L69.4693 138.959L69.2452 138.437Z" fill="#5379F6"/>
<path d="M68.056 137.577L66.4822 139.309L66.9029 139.691L68.4767 137.959L68.056 137.577Z" fill="#5379F6"/>
<path d="M52.3738 139.924L52.1621 140.451L54.3341 141.323L54.5457 140.795L52.3738 139.924Z" fill="#5379F6"/>
<path d="M53.541 139.012L53.1298 139.404L54.7454 141.097L55.1566 140.705L53.541 139.012Z" fill="#5379F6"/>
<path d="M50.275 162.447L50.0635 162.975L52.2356 163.846L52.4472 163.318L50.275 162.447Z" fill="#5379F6"/>
<path d="M51.4331 161.557L51.0215 161.949L52.6357 163.644L53.0472 163.252L51.4331 161.557Z" fill="#5379F6"/>
<path d="M31.6458 174.525L29.4951 175.447L29.7192 175.97L31.8699 175.047L31.6458 174.525Z" fill="#5379F6"/>
<path d="M30.4527 173.657L28.8789 175.389L29.2996 175.771L30.8734 174.039L30.4527 173.657Z" fill="#5379F6"/>
<path d="M26.9939 163.678L26.7822 164.205L28.9542 165.076L29.1658 164.549L26.9939 163.678Z" fill="#5379F6"/>
<path d="M28.1574 162.772L27.7461 163.164L29.3614 164.857L29.7727 164.465L28.1574 162.772Z" fill="#5379F6"/>
<path d="M35.5374 156.236L33.3867 157.158L33.6108 157.681L35.7615 156.758L35.5374 156.236Z" fill="#5379F6"/>
<path d="M34.3385 155.364L32.7646 157.096L33.1853 157.478L34.7591 155.746L34.3385 155.364Z" fill="#5379F6"/>
<path d="M72.777 156.326L72.2217 156.447L77.7923 181.89L78.3475 181.768L72.777 156.326Z" fill="#373844"/>
<path d="M80.4269 156.42C80.4148 156.384 79.2295 152.568 77.5907 148.172C74.1741 139.022 68.26 134.064 60.0117 133.435L60.0601 132.83C68.5624 133.477 74.6579 138.569 78.1652 147.96C79.81 152.368 81.0013 156.202 81.0134 156.239L80.4329 156.42H80.4269Z" fill="#373844"/>
<path d="M29.7221 135.352L29.1416 135.188C29.2021 134.971 30.6957 129.873 37.3173 126.698C41.9797 124.461 43.0803 119.659 43.8785 116.158C44.0901 115.239 44.2715 114.441 44.4953 113.781C46.4606 107.928 50.7601 105.098 56.9342 105.588L56.8859 106.192C51.0201 105.727 46.9383 108.418 45.0698 113.981C44.8581 114.616 44.6767 115.396 44.4711 116.303C43.6426 119.931 42.5058 124.896 37.5834 127.254C31.2218 130.302 29.7403 135.315 29.7282 135.364L29.7221 135.352Z" fill="#373844"/>
<path d="M76.5696 136.416L75.9648 136.392C76.116 132.927 74.5498 131.1 73.1711 129.486C72.7054 128.942 72.264 128.428 71.9012 127.871C69.7061 124.545 69.2404 122.399 68.6538 119.683C68.5148 119.042 68.3696 118.365 68.1882 117.639C66.7671 111.822 63.0119 109.27 62.9756 109.246L63.3082 108.744C63.4715 108.853 67.2932 111.435 68.7748 117.5C68.9562 118.238 69.1013 118.915 69.2404 119.562C69.8149 122.217 70.2684 124.309 72.4031 127.545C72.7478 128.071 73.1771 128.567 73.6306 129.099C75.082 130.798 76.7328 132.721 76.5696 136.422V136.416Z" fill="#373844"/>
<path d="M54.4611 119.515C52.7196 119.515 51.4255 118.995 51.3408 118.964L51.5706 118.402C51.5706 118.402 54.5035 119.569 57.3698 118.323C59.3351 117.471 60.8409 115.705 61.8447 113.068L62.4071 113.286C61.3428 116.08 59.7282 117.967 57.6057 118.886C56.5051 119.363 55.4166 119.515 54.4611 119.515Z" fill="#373844"/>
<g opacity="0.77">
<path d="M303.862 159.028C305.979 159.869 307.521 161.314 308.658 163.201C309.426 161.139 310.671 159.421 312.6 158.206C310.484 157.365 308.936 155.92 307.799 154.033C307.031 156.095 305.791 157.813 303.862 159.028Z" fill="#FEFEFE"/>
<path d="M311.929 170.385C313.162 170.875 314.057 171.715 314.716 172.81C315.164 171.613 315.89 170.615 317.008 169.907C315.775 169.418 314.88 168.577 314.221 167.482C313.773 168.68 313.053 169.678 311.935 170.385H311.929Z" fill="#FEFEFE"/>
</g>
<g opacity="0.77">
<path d="M314.585 254.052C316.701 254.892 318.244 256.337 319.38 258.224C320.148 256.162 321.394 254.445 323.323 253.229C321.207 252.389 319.659 250.943 318.522 249.057C317.754 251.119 316.514 252.836 314.585 254.052Z" fill="#FEFEFE"/>
<path d="M295.851 275.307C297.084 275.797 297.979 276.637 298.638 277.732C299.086 276.534 299.811 275.537 300.93 274.829C299.697 274.339 298.802 273.499 298.142 272.404C297.695 273.602 296.975 274.599 295.857 275.307H295.851Z" fill="#FEFEFE"/>
</g>
<path d="M349.355 172.162C350.347 173.045 350.897 174.139 351.139 175.397C351.968 174.423 352.996 173.734 354.29 173.456C353.298 172.573 352.748 171.479 352.506 170.221C351.678 171.194 350.656 171.884 349.362 172.162H349.355Z" fill="#FEFEFE"/>
<path d="M245.599 150.209H166.127L166.393 146H245.901L245.599 150.209Z" fill="white"/>
<path d="M209.231 159.267H165.553L165.819 155.059H209.515L209.231 159.267Z" fill="#9CBFF7"/>
<path d="M190.696 224.25H161.446L161.712 220.047H190.981L190.696 224.25Z" fill="white"/>
<path d="M204.2 233.314H160.872L161.138 229.105H204.484L204.2 233.314Z" fill="#9CBFF7"/>
<path d="M253.992 212.7H162.021L164.997 165.635H257.439L253.992 212.7Z" fill="white"/>
<path d="M239.806 224.25H197.349L197.633 220.047H240.108L239.806 224.25Z" fill="#9CBFF7"/>
</g>
<defs>
<clipPath id="clip0_48_17467">
<rect width="400" height="313.532" fill="white"/>
</clipPath>
</defs>
</svg>
