<svg width="44" height="44" viewBox="0 0 44 44" fill="none" xmlns="http://www.w3.org/2000/svg">
<path fill-rule="evenodd" clip-rule="evenodd" d="M14.157 14.6902L16.0642 15.7893C16.161 15.8451 16.2815 15.8329 16.3645 15.758C17.2517 14.9578 18.277 14.3633 19.4138 13.9958C19.5188 13.9619 19.5899 13.8602 19.5899 13.7503V11.5537H24.4082V13.7494C24.4082 13.8616 24.4817 13.9606 24.5882 13.9949C25.725 14.362 26.7505 14.9571 27.6375 15.7573C27.7205 15.8321 27.8407 15.8454 27.9377 15.7894L29.8408 14.6901L32.2521 18.8637L30.3489 19.9622C30.2522 20.018 30.2027 20.1316 30.2252 20.2406C30.4712 21.4339 30.471 22.5675 30.2252 23.7607C30.2027 23.8701 30.2518 23.9828 30.3489 24.0388L32.252 25.1368L29.8407 29.31L27.9376 28.2112C27.8407 28.1553 27.7205 28.168 27.6375 28.2429C26.7505 29.0435 25.7252 29.6389 24.588 30.0057C24.4816 30.04 24.408 30.1392 24.408 30.2512V32.4469H19.5897V30.2512C19.5897 30.1415 19.5185 30.0396 19.4136 30.0057C18.2782 29.6383 17.2487 29.0443 16.3641 28.2428C16.2811 28.1677 16.1569 28.1555 16.0602 28.2113L14.157 29.3102L11.75 25.1369L13.6517 24.0397C13.7469 23.9836 13.7964 23.8704 13.7731 23.7623C13.5303 22.6348 13.5298 21.3657 13.7731 20.2384C13.7962 20.1316 13.7483 20.0173 13.6531 19.9623L11.75 18.8639L14.157 14.6902ZM15.4631 22.0004C15.4631 25.5878 18.4383 28.4354 22.0011 28.4354C25.5644 28.4354 28.535 25.5874 28.535 22.0004C28.535 18.4134 25.5646 15.5652 22.0011 15.5652C18.438 15.5652 15.4631 18.4129 15.4631 22.0004Z" fill="#602EDF"/>
<path fill-rule="evenodd" clip-rule="evenodd" d="M25.9074 19.6167C26.0771 19.7853 26.0771 20.0564 25.9074 20.2242L21.1014 25.0334C20.9343 25.2001 20.6609 25.2029 20.4911 25.0334L18.086 22.6288C17.9203 22.461 17.9203 22.1886 18.086 22.0213C18.2557 21.8535 18.5266 21.8535 18.6963 22.0213L20.7942 24.1224L25.3011 19.6167C25.4668 19.4489 25.7417 19.4489 25.9074 19.6167ZM24.234 30.2505C24.234 30.0642 24.3552 29.8981 24.5331 29.8414C25.6447 29.4821 26.6471 28.9013 27.5202 28.1147C27.6576 27.9894 27.8598 27.968 28.0214 28.0618L29.7757 29.0747L32.0149 25.1992L30.2607 24.1871C30.099 24.0929 30.0182 23.9078 30.0545 23.7255C30.298 22.5494 30.2982 21.4512 30.0545 20.2748C30.0182 20.0929 30.099 19.9061 30.2607 19.8128L32.0149 18.8003L29.7757 14.9243L28.0214 15.9377C27.8598 16.0314 27.6576 16.0096 27.5202 15.8843C26.6471 15.0982 25.6447 14.5169 24.5331 14.1579C24.3553 14.1005 24.234 13.9353 24.234 13.7489V11.725H19.7595V13.7497C19.7595 13.936 19.6382 14.1014 19.4644 14.1588C18.3528 14.5169 17.3504 15.0982 16.4773 15.8852C16.3398 16.0097 16.1377 16.0315 15.9761 15.9378L14.2178 14.9244L11.9826 18.8004L13.7368 19.8129C13.8945 19.9054 13.9793 20.0922 13.9389 20.2741C13.7028 21.3729 13.703 22.625 13.9389 23.7256C13.9793 23.9079 13.8945 24.0942 13.7368 24.1872L11.9826 25.1993L14.2178 29.0748L15.972 28.0618C16.1337 27.9681 16.3398 27.9895 16.4773 28.1148C17.3463 28.9014 18.3528 29.4822 19.4644 29.8415C19.6381 29.8981 19.7595 30.0642 19.7595 30.2506V32.2744H24.234V30.2505ZM25.095 32.704V30.5573C26.1055 30.1923 27.0312 29.6559 27.8598 28.9599L29.7191 30.0338C29.9253 30.1527 30.188 30.0819 30.3052 29.8766L32.973 25.2565C33.0904 25.0524 33.027 24.7904 32.8154 24.6695L30.956 23.5956C31.1446 22.53 31.1445 21.4696 30.956 20.4036L32.8154 19.3296C33.0215 19.2108 33.0942 18.9481 32.973 18.7423L30.3052 14.1227C30.188 13.917 29.9252 13.8467 29.7191 13.9654L27.8597 15.0395C27.0351 14.3435 26.1054 13.8075 25.0949 13.4421V11.2953C25.0949 11.0581 24.9009 10.8657 24.6664 10.8657H19.3309C19.0924 10.8657 18.9024 11.0581 18.9024 11.2953V13.4429C17.8919 13.8075 16.9622 14.3435 16.1376 15.0403L14.2783 13.9655C14.0721 13.8467 13.8094 13.917 13.6882 14.1228L11.0204 18.7424C10.9059 18.9416 10.9732 19.2106 11.1781 19.3297L13.0415 20.4037C12.8524 21.4267 12.8527 22.5716 13.0415 23.5957L11.1781 24.6696C10.9737 24.7886 10.9058 25.0574 11.0204 25.2566L13.6882 29.8767C13.8094 30.082 14.0721 30.1527 14.2783 30.0339L16.1376 28.96C16.9622 29.656 17.8878 30.1924 18.9024 30.5574V32.7041C18.9024 32.9414 19.0924 33.1338 19.3309 33.1338H24.6664C24.9009 33.1337 25.095 32.9413 25.095 32.704ZM21.9987 27.7473C25.2243 27.7473 27.8476 25.1693 27.8476 21.9999C27.8476 18.8305 25.2243 16.2521 21.9987 16.2521C18.7732 16.2521 16.1499 18.8305 16.1499 21.9999C16.1499 25.1693 18.7732 27.7473 21.9987 27.7473ZM21.9987 15.3928C18.3003 15.3928 15.2889 18.3568 15.2889 21.9999C15.2889 25.6426 18.3003 28.6067 21.9987 28.6067C25.6972 28.6067 28.7045 25.6426 28.7045 21.9999C28.7045 18.3568 25.6972 15.3928 21.9987 15.3928ZM24.1168 40.5941C33.9996 39.5242 41.4491 31.2105 41.4491 21.2569C41.4491 18.5915 40.8993 15.9513 39.8524 13.5228V16.1971C39.8524 16.5216 39.493 16.7358 39.2057 16.5693L36.7159 15.1304C37.5162 17.0609 37.9365 19.1535 37.9365 21.2569C37.9365 29.2114 32.079 35.928 24.2219 37.0403C23.9682 37.0763 23.7328 36.877 23.7328 36.6151V35.8698L18.5266 38.8754L23.7328 41.8803V41.021C23.7328 40.8019 23.8985 40.6172 24.1168 40.5941ZM2.5443 21.257C2.5443 31.1471 10.115 39.4563 19.7594 40.5796L17.4554 39.2473C17.1649 39.0801 17.1652 38.6701 17.4554 38.5032L19.9453 37.0638C12.0343 36.05 6.06095 29.2934 6.06095 21.257C6.06095 19.1947 6.44904 17.1871 7.21294 15.2897C7.31228 15.0484 7.6006 14.9485 7.8273 15.0791L8.47407 15.453V9.44245L3.26789 12.4478L4.01159 12.8751C4.20152 12.985 4.27834 13.2203 4.18948 13.4208C3.09808 15.8948 2.5443 18.5314 2.5443 21.257ZM24.3796 34.7538C24.5129 34.8311 24.5938 34.9728 24.5938 35.1256V36.1123C31.7441 34.8714 37.0756 28.5702 37.0756 21.257C37.0756 18.8682 36.5057 16.4954 35.4224 14.3839L32.7103 12.82C32.4252 12.6549 32.4252 12.2394 32.7103 12.0754L33.5671 11.5831C30.6892 8.14127 26.5016 6.17691 21.9987 6.17691C16.8532 6.17691 12.1321 8.75246 9.33499 13.0698V16.1971C9.33499 16.5318 8.97251 16.7329 8.68831 16.5694L7.83143 16.0742C7.22514 17.7311 6.91791 19.472 6.91791 21.257C6.91791 29.3293 13.1993 35.92 21.2429 36.3168L23.947 34.7537C24.0804 34.677 24.2461 34.677 24.3796 34.7538ZM21.9987 1.80415C28.1669 1.80415 34.0278 4.77587 37.6859 9.75449C37.8153 9.93075 38.0578 9.98128 38.2478 9.87214L38.9915 9.44245V15.453L33.7853 12.4478L34.432 12.0755C34.6522 11.9474 34.7188 11.65 34.5533 11.4389C28.0835 3.18371 15.6301 3.3249 9.33491 11.5779V8.6984C9.33491 8.36144 8.97079 8.16353 8.68823 8.32612L6.37616 9.66245C10.0383 4.71082 15.7538 1.80415 21.9987 1.80415ZM39.8525 11.5633V8.69832C39.8525 8.37485 39.4952 8.15966 39.2058 8.32604L38.1468 8.93722C31.9244 0.796792 20.665 -1.41533 11.8815 3.64003C8.94295 5.33128 6.45703 7.7512 4.68259 10.6405L2.19677 12.0754C1.91042 12.2405 1.91274 12.6563 2.19677 12.82L3.25173 13.4283C2.21292 15.9093 1.6875 18.5407 1.6875 21.257C1.6875 26.6086 3.74897 31.6588 7.49593 35.4789C11.2106 39.2664 16.1662 41.4231 21.4612 41.5606L23.947 42.9967C24.2337 43.1605 24.5938 42.9587 24.5938 42.6245V41.4034C34.6942 40.1142 42.3101 31.4824 42.3101 21.257C42.3101 17.8705 41.4613 14.5213 39.8525 11.5633Z" fill="#0A456D"/>
</svg>
