<svg width="44" height="44" viewBox="0 0 44 44" fill="none" xmlns="http://www.w3.org/2000/svg">
<path fill-rule="evenodd" clip-rule="evenodd" d="M5.34282 2.44629L29.9716 2.5177C27.7802 2.5177 26.0037 5.02811 26.0037 6.48552C26.0037 7.94294 26.155 7.81566 26.4932 8.3997H1.90695C1.56879 7.81566 1.375 7.13753 1.375 6.41411C1.375 4.2227 3.15141 2.44629 5.34282 2.44629Z" fill="#D1D1D6"/>
<path fill-rule="evenodd" clip-rule="evenodd" d="M33.8879 34.6417C33.8879 37.2762 36.0235 39.4119 38.6581 39.4119L14.0294 39.3354C11.7666 39.3283 10.1139 36.9845 10.1139 34.6417C10.1139 25.4036 10.1139 16.4486 10.1139 7.21642C10.1139 4.58192 7.97825 2.44629 5.34375 2.44629L29.9725 2.52277C32.2352 2.52982 33.888 4.87368 33.888 7.21651V34.6417H33.8879Z" fill="#ECEFF1"/>
<path fill-rule="evenodd" clip-rule="evenodd" d="M33.8881 34.6417C33.8881 37.2762 36.0237 39.412 38.6583 39.412L37.633 39.4088C35.0754 39.3214 33.0287 37.2207 33.0287 34.6418V7.21651C33.0287 4.87377 31.3759 2.52982 29.1132 2.52277L5.50961 2.44947C5.45452 2.44758 5.39935 2.44629 5.34375 2.44629L29.9725 2.52277C32.2352 2.52982 33.888 4.87368 33.888 7.21651L33.8881 34.6417Z" fill="#D1D1D6"/>
<path fill-rule="evenodd" clip-rule="evenodd" d="M38.66 39.4124L14.0312 39.341C16.2227 39.341 17.9991 36.8306 17.9991 35.3732C17.9991 33.9157 17.8478 34.043 17.5096 33.459H42.0959C42.4341 34.043 42.6278 34.7211 42.6278 35.4446C42.6278 37.636 40.8514 39.4124 38.66 39.4124Z" fill="#D1D1D6"/>
<path fill-rule="evenodd" clip-rule="evenodd" d="M34.0974 16.6043L35.1645 19.4147C35.1966 19.4992 35.2713 19.5535 35.3615 19.5579L38.3641 19.7043C38.5683 19.7142 38.6519 19.9715 38.4926 20.0996L36.1494 21.9829C36.079 22.0395 36.0504 22.1273 36.0742 22.2145L36.8628 25.1154C36.9164 25.3127 36.6976 25.4717 36.5265 25.3597L34.0112 23.7132C33.9356 23.6637 33.8433 23.6637 33.7678 23.7132L31.2526 25.3597C31.0815 25.4717 30.8627 25.3127 30.9163 25.1154L31.7049 22.2144C31.7286 22.1272 31.7001 22.0395 31.6296 21.9828L29.2865 20.0995C29.1271 19.9715 29.2107 19.7142 29.4149 19.7042L32.4176 19.5578C32.5078 19.5535 32.5825 19.4991 32.6146 19.4147L33.6817 16.6042C33.7539 16.4142 34.0253 16.4142 34.0974 16.6043ZM34.0974 5.85931L35.1645 8.66981C35.1966 8.75429 35.2713 8.80852 35.3615 8.81298L38.3641 8.95934C38.5683 8.96931 38.6519 9.22652 38.4926 9.35465L36.1494 11.238C36.079 11.2945 36.0504 11.3823 36.0742 11.4696L36.8628 14.3705C36.9164 14.5678 36.6976 14.7268 36.5265 14.6148L34.0112 12.9682C33.9356 12.9187 33.8433 12.9187 33.7678 12.9682L31.2526 14.6148C31.0815 14.7268 30.8627 14.5678 30.9163 14.3705L31.7049 11.4695C31.7286 11.3823 31.7001 11.2945 31.6296 11.2379L29.2865 9.35456C29.1271 9.22652 29.2107 8.96922 29.4149 8.95925L32.4176 8.8129C32.5078 8.80852 32.5825 8.7542 32.6146 8.66973L33.6817 5.85923C33.7539 5.66931 34.0253 5.66931 34.0974 5.85931Z" fill="#FFE177"/>
<path fill-rule="evenodd" clip-rule="evenodd" d="M34.0993 16.6042L35.1664 19.4147C35.1984 19.4992 35.2731 19.5534 35.3634 19.5579L38.366 19.7043C38.5702 19.7142 38.6538 19.9714 38.4945 20.0996L36.1513 21.9829C36.0809 22.0394 36.0523 22.1273 36.076 22.2145L36.8647 25.1154C36.9183 25.3127 36.6995 25.4717 36.5284 25.3597L36.428 25.294C36.46 25.2449 36.4732 25.1824 36.455 25.1154L35.6664 22.2145C35.6427 22.1274 35.6712 22.0395 35.7417 21.9829L38.0848 20.0996C38.2442 19.9715 38.1606 19.7142 37.9564 19.7043L34.9537 19.5579C34.8635 19.5535 34.7888 19.4992 34.7567 19.4147L33.6896 16.6042L33.6866 16.5969C33.7629 16.4142 34.0281 16.4167 34.0993 16.6042ZM33.6866 23.7676L33.6035 23.7132C33.5279 23.6637 33.4356 23.6637 33.3601 23.7132L30.9453 25.2939C31.0077 25.3894 31.1415 25.4336 31.2545 25.3596L33.6866 23.7676ZM34.0993 5.85931L35.1664 8.66981C35.1984 8.75428 35.2731 8.80851 35.3634 8.81298L38.366 8.95933C38.5702 8.9693 38.6538 9.22651 38.4945 9.35464L36.1513 11.238C36.0809 11.2945 36.0523 11.3823 36.076 11.4696L36.8647 14.3705C36.9183 14.5678 36.6995 14.7268 36.5284 14.6148L36.428 14.549C36.46 14.5 36.4732 14.4375 36.455 14.3706L35.6664 11.4696C35.6427 11.3825 35.6712 11.2947 35.7417 11.238L38.0848 9.35473C38.2442 9.22668 38.1606 8.96938 37.9564 8.95941L34.9537 8.81306C34.8635 8.80868 34.7888 8.75437 34.7567 8.66989L33.6896 5.85939L33.6866 5.852C33.7629 5.6693 34.0281 5.67179 34.0993 5.85931ZM33.6866 13.0227L33.6035 12.9683C33.5279 12.9188 33.4356 12.9188 33.3601 12.9683L30.9453 14.549C31.0077 14.6445 31.1415 14.6888 31.2545 14.6148L33.6866 13.0227Z" fill="#FFD064"/>
<path fill-rule="evenodd" clip-rule="evenodd" d="M10.1105 9.54102L3.01562 12.5817V18.6032C3.01562 22.756 6.04724 26.3285 10.1105 27.0369C14.1738 26.3285 17.2055 22.756 17.2055 18.6032V12.5817L10.1105 9.54102Z" fill="#BFABF2"/>
<path fill-rule="evenodd" clip-rule="evenodd" d="M10.1094 9.54102L9.67969 9.72518L16.3449 12.5817V18.6032C16.3449 22.6082 13.5251 26.0731 9.67969 26.95C9.82157 26.9824 9.96474 27.0116 10.1094 27.0368C14.1727 26.3284 17.2043 22.7559 17.2043 18.6031V12.5817L10.1094 9.54102Z" fill="#60B7FF"/>
<path fill-rule="evenodd" clip-rule="evenodd" d="M8.03398 30.9459V24.1607C8.03398 23.3761 8.67576 22.7344 9.46037 22.7344C10.2449 22.7344 10.8867 23.3765 10.8867 24.1607V29.7302C11.0279 29.0761 11.6125 28.5825 12.3073 28.5825C13.0953 28.5825 13.7446 29.2194 13.7596 30.0073C13.9748 29.5693 14.4257 29.2663 14.9442 29.2663C15.6695 29.2663 16.2627 29.8595 16.2627 30.5846V30.7986C16.4982 30.4841 16.8737 30.2795 17.2943 30.2795C18.003 30.2795 18.5823 30.859 18.5823 31.5673C18.5823 34.8244 18.5824 35.3014 18.5824 37.5414C18.5824 38.1539 18.445 38.6789 18.1448 39.2127C18.0485 39.3841 17.9971 39.5813 17.9971 39.7929V41.0929C17.9971 41.3468 17.7901 41.5537 17.5363 41.5537H9.34263C9.08877 41.5537 8.88184 41.3468 8.88184 41.0929V39.7929C8.88184 39.3618 8.66897 38.9916 8.29652 38.7746L6.84898 37.9314C6.03034 37.4544 5.43866 36.7261 5.35487 35.7823L5.13281 33.2823C5.13281 31.8637 6.12367 30.9458 7.54164 30.9458H8.03398V30.9459Z" fill="#F6DCCD"/>
<path fill-rule="evenodd" clip-rule="evenodd" d="M16.6778 30.4366C16.8607 30.3366 17.0701 30.2795 17.2921 30.2795C18.0008 30.2795 18.5802 30.859 18.5802 31.5673C18.5802 34.8244 18.5803 35.3014 18.5803 37.5414C18.5803 38.1539 18.4429 38.6789 18.1427 39.2127C18.0465 39.3841 17.9951 39.5813 17.9951 39.7929V41.0929C17.9951 41.3467 17.788 41.5537 17.5343 41.5537H16.3054C16.5591 41.5537 16.7662 41.3467 16.7662 41.0929V39.7929C16.7662 39.5812 16.8175 39.384 16.9138 39.2127C17.214 38.6789 17.3514 38.1539 17.3514 37.5414C17.3514 35.3014 17.3513 34.8244 17.3513 31.5673C17.3512 31.0811 17.0782 30.6557 16.6778 30.4366ZM13.7574 30.0073C13.7424 29.2193 13.0931 28.5825 12.3052 28.5825C12.0858 28.5825 11.8774 28.6318 11.6905 28.7197C12.1761 28.9483 12.5177 29.4384 12.5285 30.0073V30.93C12.5285 31.2693 12.8037 31.5444 13.1429 31.5444C13.4823 31.5444 13.7574 31.2693 13.7574 30.93C13.7574 30.6223 13.7574 30.3148 13.7574 30.0073ZM14.3274 29.4192C14.7453 29.641 15.0315 30.0809 15.0315 30.5846V31.2355C15.0315 31.5749 15.3066 31.8499 15.646 31.8499C15.9853 31.8499 16.2604 31.5749 16.2604 31.2355C16.2604 31.0185 16.2604 30.8015 16.2604 30.5846C16.2604 29.8595 15.6673 29.2663 14.942 29.2663C14.7204 29.2663 14.5112 29.3217 14.3274 29.4192ZM8.84375 22.8745C9.03006 22.7847 9.23855 22.7344 9.45829 22.7344C10.2428 22.7344 10.8846 23.3766 10.8846 24.1607V30.9459C10.8846 31.2852 10.6095 31.5603 10.2701 31.5603C9.93077 31.5603 9.65569 31.2852 9.65569 30.9459C9.65569 28.6842 9.65569 26.4224 9.65569 24.1607C9.65569 23.5961 9.32294 23.1051 8.84375 22.8745Z" fill="#F1CBBC"/>
<path fill-rule="evenodd" clip-rule="evenodd" d="M8.88281 39.793H17.9982V41.093C17.9982 41.3468 17.7912 41.5538 17.5373 41.5538H9.34361C9.08984 41.5538 8.88281 41.3468 8.88281 41.093V39.793Z" fill="#ECEFF1"/>
<path fill-rule="evenodd" clip-rule="evenodd" d="M16.7653 39.793H17.9942V41.093L17.994 41.1049L17.9936 41.1167L17.9928 41.1284L17.9918 41.14L17.9904 41.1515L17.9888 41.1629L17.9869 41.1742C17.9862 41.178 17.9855 41.1818 17.9848 41.1855L17.9823 41.1967L17.9795 41.2078L17.9765 41.2188L17.9732 41.2296L17.9697 41.2403L17.9659 41.251L17.9619 41.2615C17.9605 41.2649 17.9592 41.2684 17.9576 41.2719C17.9547 41.2787 17.9516 41.2855 17.9484 41.2922L17.9434 41.3023L17.9382 41.3122L17.9328 41.3219C17.9291 41.3283 17.9252 41.3347 17.9213 41.3409L17.9152 41.3502L17.9088 41.3593L17.9023 41.3682L17.8955 41.377C17.8909 41.3827 17.8862 41.3885 17.8814 41.3941C17.8766 41.3997 17.8716 41.4052 17.8665 41.4104L17.8588 41.4183L17.8509 41.426C17.8455 41.4312 17.84 41.4361 17.8345 41.4409C17.829 41.4457 17.8233 41.4504 17.8174 41.455L17.8087 41.4618L17.7997 41.4683L17.7906 41.4747L17.7814 41.4808C17.7751 41.4848 17.7688 41.4887 17.7624 41.4924L17.7526 41.4978L17.7429 41.503L17.7329 41.508C17.7262 41.5113 17.7194 41.5143 17.7124 41.5172L17.702 41.5215L17.6915 41.5255L17.6809 41.5293L17.6701 41.5328L17.6593 41.536L17.6483 41.539L17.6372 41.5417L17.6261 41.5442L17.6148 41.5464L17.6035 41.5482L17.592 41.5499L17.5805 41.5512L17.5689 41.5522L17.5572 41.553L17.5455 41.5534L17.5336 41.5536H16.3047C16.5585 41.5536 16.7655 41.3465 16.7655 41.0928V39.793H16.7653Z" fill="#D1D1D6"/>
<path fill-rule="evenodd" clip-rule="evenodd" d="M14.2612 8.89787C14.2612 8.51769 14.569 8.21029 14.9488 8.21029H26.2659C26.6448 8.21029 26.9534 8.51769 26.9534 8.89787C26.9534 9.27763 26.6448 9.58503 26.2659 9.58503H14.9488C14.5691 9.58503 14.2612 9.27763 14.2612 8.89787ZM38.6591 38.7249L19.117 38.6683C19.2197 38.3108 19.2715 37.9403 19.2715 37.5423V34.1462H41.6701C41.8456 34.5543 41.9375 34.9959 41.9375 35.4445C41.9374 37.2536 40.4661 38.7249 38.6591 38.7249ZM17.3112 40.8672H9.57103V39.7939C9.57103 39.1217 9.22445 38.5195 8.64368 38.181L7.19658 37.3381C6.70923 37.0542 6.11385 36.5438 6.04072 35.7224L5.82141 33.254C5.82218 33.1938 5.82545 33.1347 5.83189 33.076C5.83189 33.0675 5.83352 33.0599 5.8343 33.0502C5.8404 33.0004 5.84641 32.9515 5.8557 32.9042C5.8557 32.9009 5.85647 32.8993 5.85733 32.8964C5.99483 32.1822 6.5279 31.7328 7.34766 31.6479V33.9896C7.34766 34.3694 7.65505 34.6772 8.03516 34.6772C8.41491 34.6772 8.72231 34.3694 8.72231 33.9896V24.161C8.72231 23.7537 9.05437 23.4229 9.46163 23.4229C9.86889 23.4229 10.2005 23.7537 10.2005 24.161V29.7305C10.2005 30.082 10.4654 30.3768 10.8152 30.4148C11.1647 30.4516 11.4854 30.2195 11.5602 29.8757C11.6359 29.5251 11.9505 29.2706 12.3088 29.2706C12.7222 29.2706 13.0655 29.6068 13.0736 30.0213C13.0793 30.338 13.3021 30.6097 13.6115 30.6785C13.9208 30.7481 14.238 30.596 14.3779 30.3113C14.4846 30.0941 14.7071 29.9538 14.9453 29.9538C15.2931 29.9538 15.5758 30.2377 15.5758 30.5847V30.7986C15.5758 31.0951 15.7659 31.3583 16.0466 31.451C16.3268 31.5456 16.6362 31.4486 16.8142 31.2111C16.9303 31.0566 17.1054 30.9672 17.2954 30.9672C17.6263 30.9672 17.8964 31.237 17.8964 31.5678V33.4586V37.5422C17.8964 38.0348 17.788 38.4465 17.5465 38.8768C17.5114 38.9396 17.4794 39.0058 17.4519 39.0738C17.4406 39.0985 17.4305 39.1236 17.4224 39.1502C17.3496 39.3536 17.3107 39.5712 17.3107 39.7936L17.3112 40.8672ZM3.7058 18.6044C3.7058 21.2984 5.10555 23.7957 7.34774 25.2343V24.161C7.34774 22.9958 8.29615 22.0478 9.46172 22.0478C10.6269 22.0478 11.5757 22.9958 11.5757 24.161V25.9089C13.6209 25.0855 15.2055 23.4483 15.9861 21.4443C15.9937 21.4197 16.0031 21.3946 16.0136 21.3703C16.3416 20.5036 16.5208 19.5693 16.5208 18.6043V13.0365L10.1132 10.2899L3.70571 13.0365L3.7058 18.6044ZM2.32994 7.71254C2.15437 7.30528 2.06259 6.86279 2.06259 6.41428C2.06259 4.60598 3.53392 3.13465 5.34256 3.13387H5.37006C7.60908 3.14926 9.4258 4.97491 9.4258 7.21668V7.71254H2.32994ZM29.9697 3.21027L8.97359 3.14599C10.0943 4.14536 10.8005 5.60011 10.8005 7.21668V9.0884L17.479 11.9511C17.693 12.0421 17.8426 12.2354 17.8831 12.459H29.0512C29.4309 12.459 29.7387 12.7668 29.7387 13.1466C29.7387 13.5264 29.4309 13.8341 29.0512 13.8341H17.8955V16.7077H29.0512C29.4309 16.7077 29.7387 17.0155 29.7387 17.3953C29.7387 17.775 29.4309 18.0829 29.0512 18.0829H17.8955V18.6046C17.8955 19.4122 17.7884 20.2013 17.5882 20.9565H26.5453C26.9251 20.9565 27.2328 21.2642 27.2328 21.644C27.2328 22.0237 26.925 22.3315 26.5453 22.3315H17.1053C16.628 23.4086 15.949 24.3836 15.1101 25.2055H29.0512C29.4309 25.2055 29.7387 25.5141 29.7387 25.893C29.7387 26.2727 29.4309 26.5801 29.0512 26.5801H14.9488C14.5852 26.5801 14.2888 26.2982 14.2641 25.9407C13.4665 26.5539 12.5614 27.0416 11.5758 27.3729V28.0277C11.8063 27.9415 12.0534 27.8959 12.309 27.8959C13.0204 27.8959 13.6574 28.2518 14.048 28.795C14.3223 28.6566 14.63 28.5795 14.9455 28.5795C15.6319 28.5795 16.2397 28.9265 16.6012 29.4551H29.0512C29.4309 29.4551 29.7387 29.7628 29.7387 30.1427C29.7387 30.5216 29.4309 30.8302 29.0512 30.8302H19.1271C19.2198 31.0579 19.2715 31.307 19.2715 31.5683V32.7715H33.1995V24.9052L31.6267 25.9349C31.4738 26.0352 31.3003 26.0849 31.1285 26.0849C30.9412 26.0849 30.7544 26.0267 30.5938 25.9098C30.2852 25.6858 30.1506 25.3032 30.2501 24.9355L30.9591 22.3281L28.8536 20.6359C28.5563 20.3969 28.4402 20.0078 28.558 19.645C28.6757 19.2822 28.9981 19.0364 29.3786 19.0178L32.0782 18.886L33.0364 16.3606C33.076 16.2582 33.1318 16.166 33.1997 16.0872V14.1605L31.6269 15.1898C31.474 15.2905 31.3005 15.3403 31.1286 15.3403C30.9414 15.3403 30.7545 15.2821 30.594 15.1651C30.2854 14.9407 30.1507 14.5585 30.2503 14.1904L30.9592 11.583L28.8538 9.89045C28.5565 9.65223 28.4404 9.26277 28.5581 8.90037C28.6759 8.53762 28.9982 8.2921 29.3788 8.27311L32.0784 8.14163L32.9685 5.79545C32.5359 4.4794 31.4721 3.21552 29.9697 3.21027ZM34.5192 8.91403C34.6474 9.25254 34.9644 9.48182 35.3256 9.50004L37.1044 9.58701L35.7163 10.7025C35.4336 10.9294 35.3135 11.3015 35.4081 11.6501L35.8753 13.3689L34.3853 12.3935C34.2623 12.3129 34.1248 12.2665 33.9849 12.2519C33.953 12.2467 33.9202 12.2439 33.887 12.2439C33.8534 12.2439 33.8216 12.2467 33.7888 12.2519C33.6489 12.2665 33.5114 12.313 33.3884 12.3935L31.8981 13.3689L32.366 11.6501C32.4602 11.3007 32.3402 10.9294 32.0582 10.7025L30.6694 9.58701L32.4485 9.50004C32.8101 9.48182 33.1263 9.25254 33.2554 8.91403L33.8871 7.24934L34.5192 8.91403ZM35.3256 20.2448L37.1044 20.3318L35.7163 21.4472C35.4348 21.6737 35.3135 22.0462 35.4081 22.3949L35.8753 24.1137L34.3853 23.1386C34.2623 23.0577 34.1257 23.012 33.9857 22.9966C33.953 22.9921 33.9202 22.9889 33.887 22.9889C33.8534 22.9889 33.8207 22.9921 33.788 22.9966C33.648 23.012 33.5113 23.0577 33.3884 23.1386L31.898 24.1137L32.366 22.3949C32.4601 22.0462 32.3401 21.6738 32.0581 21.4472L30.6693 20.3318L32.4485 20.2448C32.81 20.2266 33.1262 19.9973 33.2553 19.6588L33.887 17.9941L34.5192 19.6588C34.6474 19.9973 34.9644 20.2267 35.3256 20.2448ZM42.6876 33.1141C42.5647 32.9018 42.3378 32.7711 42.0931 32.7711H34.5742V24.9052L36.1479 25.9357C36.467 26.1436 36.8723 26.1343 37.1809 25.9098C37.4895 25.6858 37.6234 25.3032 37.5238 24.9355L36.8149 22.3281L38.9212 20.6359C39.2177 20.3969 39.3337 20.0078 39.216 19.645C39.0984 19.2822 38.776 19.0364 38.3954 19.0178L35.6965 18.886L34.7376 16.3606C34.6987 16.2582 34.6434 16.166 34.5742 16.0872V14.1605L36.1479 15.1898C36.467 15.3989 36.8723 15.3892 37.1809 15.1651C37.4895 14.9407 37.6234 14.5585 37.5238 14.1904L36.8149 11.583L38.9212 9.89123C39.2177 9.65223 39.3337 9.26277 39.216 8.90037C39.0984 8.53762 38.776 8.2921 38.3954 8.27311L35.6965 8.14163L34.7376 5.61592C34.6373 5.35184 34.4282 5.1577 34.1722 5.07434C33.4264 3.12013 31.7977 1.84129 29.9733 1.83519L5.37771 1.75956C5.36594 1.75879 5.35468 1.75879 5.34248 1.75879C2.77561 1.7587 0.6875 3.84724 0.6875 6.41428C0.6875 7.23327 0.903031 8.03927 1.31235 8.74465C1.43533 8.957 1.6622 9.08762 1.90687 9.08762H9.4258L2.74768 11.951C2.49494 12.0593 2.33071 12.3077 2.33071 12.5827V18.6044C2.33071 22.0571 4.28656 25.2343 7.34774 26.8198V30.2636C5.94963 30.3332 4.90617 31.1529 4.56603 32.38C4.55873 32.4023 4.55391 32.4258 4.54867 32.4479C4.54257 32.4718 4.5357 32.4961 4.53045 32.5199C4.52117 32.5596 4.51344 32.6 4.50579 32.6413C4.50381 32.6489 4.50218 32.6567 4.50055 32.6643C4.48353 32.7626 4.46978 32.8629 4.46007 32.9653V32.9669C4.45603 33.0143 4.4532 33.0615 4.45079 33.1089C4.45079 33.1141 4.45002 33.119 4.45002 33.1235C4.44838 33.1761 4.44641 33.2294 4.44641 33.2832C4.44641 33.3031 4.44718 33.3237 4.44924 33.3435L4.67173 35.8433C4.76876 36.9418 5.42034 37.8946 6.50461 38.5264L7.95171 39.3696C8.11345 39.4638 8.19595 39.6066 8.19595 39.7939V41.5548C8.19595 41.9338 8.50377 42.2423 8.88345 42.2423H17.9987C18.3784 42.2423 18.6862 41.9337 18.6862 41.5548V40.0422L38.6574 40.1001C41.224 40.1001 43.3125 38.0115 43.3125 35.4446C43.3125 34.6255 43.097 33.8194 42.6876 33.1141Z" fill="#242222"/>
<path d="M7.23524 18.8622L9.00306 20.63C9.13738 20.7639 9.31329 20.831 9.48963 20.8309C9.65472 20.8309 9.81972 20.7719 9.95112 20.6534L14.2446 16.7566C14.5265 16.5015 14.5471 16.0667 14.2916 15.7856C14.0368 15.5037 13.6016 15.483 13.3205 15.7383L9.51189 19.195L8.20753 17.8903C7.93898 17.6213 7.50336 17.6213 7.23524 17.8903C6.96711 18.1584 6.96711 18.5941 7.23524 18.8622Z" fill="#242222"/>
</svg>
