<svg width="496" height="368" viewBox="0 0 496 368" fill="none" xmlns="http://www.w3.org/2000/svg">
<path d="M401.389 82.791H348.938V116.375H401.389V82.791Z" fill="#E8E7EC"/>
<path d="M375.163 95.6816L348.938 116.375H401.389L375.163 95.6816Z" fill="#AEAFB6"/>
<path d="M375.163 103.543L401.389 82.8496H348.938L375.163 103.543Z" fill="#602EDF"/>
<path d="M340.18 116.375H263.07" stroke="#602EDF" stroke-width="2" stroke-miterlimit="10" stroke-linecap="round" stroke-linejoin="round"/>
<path d="M348.932 99.5821H246.281" stroke="#602EDF" stroke-width="2" stroke-miterlimit="10" stroke-linecap="round" stroke-linejoin="round"/>
<path d="M328.709 82.656L228.906 82.207" stroke="#602EDF" stroke-width="2" stroke-miterlimit="10" stroke-linecap="round" stroke-linejoin="round"/>
<path d="M187.45 53.1973L159.852 109.83H234.7L262.298 53.1973H187.45ZM232.538 107.236H164.543L189.612 55.7916H257.607L232.538 107.236Z" fill="#EDEDED"/>
<path d="M234.699 109.83H125.555V116.353H234.699V109.83Z" fill="#443963"/>
<path d="M264.694 55.534L234.703 116.353V109.83L262.302 53.1973L264.694 55.534Z" fill="#AEAFB6"/>
<path d="M257.61 55.791L232.541 107.235H164.547L189.616 55.791H257.61Z" fill="#00BAD9"/>
<path d="M211.306 84.773C209.171 87.5099 206.267 88.8089 204.18 87.7316C201.631 86.4161 201.264 82.0555 203.361 77.992C204.672 75.452 206.634 73.6295 208.545 72.9414" stroke="#602EDF" stroke-width="2" stroke-miterlimit="10" stroke-linecap="round" stroke-linejoin="round"/>
<path d="M212.625 73.6465C214.097 75.1368 214.366 78.0522 213.322 81.0568" stroke="#602EDF" stroke-width="2" stroke-miterlimit="10" stroke-linecap="round" stroke-linejoin="round"/>
<path d="M200.825 94.2363C196.023 91.7579 195.332 83.5427 199.284 75.8877C200.613 73.3127 202.297 71.1287 204.132 69.459" stroke="#602EDF" stroke-width="2" stroke-miterlimit="10" stroke-linecap="round" stroke-linejoin="round"/>
<path d="M215.138 66.5137C219.94 68.992 220.631 77.2073 216.68 84.8623C215.199 87.7335 213.274 90.1171 211.195 91.8457" stroke="#602EDF" stroke-width="2" stroke-miterlimit="10" stroke-linecap="round" stroke-linejoin="round"/>
<path d="M197.715 100.269C190.822 96.7117 189.831 84.9215 195.501 73.9335C198.048 68.9988 201.506 65.065 205.166 62.5508" stroke="#602EDF" stroke-width="2" stroke-miterlimit="10" stroke-linecap="round" stroke-linejoin="round"/>
<path d="M224.046 70.6133C224.51 75.4293 223.349 81.2269 220.464 86.8166C218.009 91.5728 214.709 95.3989 211.195 97.9205" stroke="#602EDF" stroke-width="2" stroke-miterlimit="10" stroke-linecap="round" stroke-linejoin="round"/>
<path d="M260.863 367H190.32V116.35H251.663C256.744 116.35 260.863 120.468 260.863 125.549V367Z" fill="#443963"/>
<path d="M190.326 179.012H97.5938V125.549C97.5938 120.468 101.712 116.35 106.793 116.35H190.326V179.012Z" fill="#EDEDED"/>
<path d="M190.326 179.012H97.5938L97.7409 174.596" fill="#120239"/>
<path d="M155.996 137.303H131.93V143.485H155.996V137.303Z" fill="#602EDF"/>
<path d="M162.065 155.186H116.141V158.056H162.065V155.186Z" fill="#443963"/>
<path d="M171.777 155.186H162.062V158.056H171.777V155.186Z" fill="#AEAFB6"/>
<path d="M153.529 304.338H60.7969V250.875C60.7969 245.794 64.9155 241.676 69.9965 241.676H153.529V304.338Z" fill="#EDEDED"/>
<path d="M190.327 304.338H60.7969V299.922L190.327 304.338Z" fill="#120239"/>
<path d="M119.191 262.631H95.125V268.813H119.191V262.631Z" fill="#602EDF"/>
<path d="M125.268 280.515H79.3435V283.386H125.268V280.515Z" fill="#443963"/>
<path d="M134.98 280.515H125.265V283.386H134.98V280.515Z" fill="#AEAFB6"/>
<path d="M190.328 241.676H153.383V304.338H190.328V241.676Z" fill="#AEAFB6"/>
<path d="M190.329 241.676L184.414 304.338H190.329V241.676Z" fill="#120239"/>
<path d="M190.321 179.012H171.922V241.674H190.321V179.012Z" fill="#AEAFB6"/>
<path d="M171.92 241.676H79.1875V188.213C79.1875 183.132 83.3062 179.014 88.3871 179.014H171.92V241.676Z" fill="#EDEDED"/>
<path d="M137.582 199.967H113.516V206.149H137.582V199.967Z" fill="#602EDF"/>
<path d="M143.659 217.85H97.7344V220.72H143.659V217.85Z" fill="#443963"/>
<path d="M153.371 217.85H143.656V220.72H153.371V217.85Z" fill="#AEAFB6"/>
<path d="M190.319 241.676H79.1875V237.26L190.319 241.676Z" fill="#120239"/>
<path d="M190.322 179.012L184.406 241.675H190.322V179.012Z" fill="#120239"/>
<path d="M135.123 367H42.3906V313.538C42.3906 308.457 46.5093 304.338 51.5902 304.338H135.123V367Z" fill="#EDEDED"/>
<path d="M100.793 325.291H76.7266V331.473H100.793V325.291Z" fill="#602EDF"/>
<path d="M106.862 343.174H60.9375V346.044H106.862V343.174Z" fill="#443963"/>
<path d="M116.574 343.174H106.859V346.044H116.574V343.174Z" fill="#AEAFB6"/>
<path d="M190.321 304.338H134.977V367.001H190.321V304.338Z" fill="#AEAFB6"/>
<path d="M190.322 304.338L184.406 367H190.322V304.338Z" fill="#120239"/>
<path d="M4.42188 367L36.6573 283.383L81.257 302.883L183.704 217.85L100.723 240.648L26.7217 140.394L119.314 178.393L141.312 62.9706L207.991 80.3762" stroke="#443963" stroke-miterlimit="10" stroke-linecap="round" stroke-linejoin="round"/>
<path d="M185.794 217.848C185.794 219.008 184.854 219.948 183.694 219.948C182.534 219.948 181.594 219.008 181.594 217.848C181.594 216.688 182.534 215.748 183.694 215.748C184.854 215.748 185.794 216.689 185.794 217.848Z" fill="#602EDF"/>
<path d="M143.279 62.5572C143.279 63.7172 142.338 64.6574 141.178 64.6574C140.018 64.6574 139.078 63.7172 139.078 62.5572C139.078 61.3971 140.018 60.4569 141.178 60.4569C142.338 60.4569 143.279 61.3971 143.279 62.5572Z" fill="#602EDF"/>
<path d="M38.7474 283.381C38.7474 284.541 37.8072 285.482 36.6471 285.482C35.4871 285.482 34.5469 284.541 34.5469 283.381C34.5469 282.221 35.4871 281.281 36.6471 281.281C37.8072 281.281 38.7474 282.221 38.7474 283.381Z" fill="#602EDF"/>
<path d="M0 367C0 364.561 1.977 362.584 4.41581 362.584C6.85463 362.584 8.83163 364.561 8.83163 367H0Z" fill="#602EDF"/>
<path d="M76.7188 304.338C76.7188 301.899 78.6957 299.922 81.1346 299.922C83.5734 299.922 85.5504 301.899 85.5504 304.338H76.7188Z" fill="#602EDF"/>
<path d="M96.4766 241.673C96.4766 239.235 98.4536 237.258 100.892 237.258C103.331 237.258 105.308 239.235 105.308 241.673H96.4766Z" fill="#602EDF"/>
<path d="M114.781 179.011C114.781 176.573 116.758 174.596 119.197 174.596C121.636 174.596 123.613 176.573 123.613 179.011H114.781Z" fill="#602EDF"/>
<path d="M28.7005 140.467C28.7005 141.627 27.7603 142.568 26.6003 142.568C25.4402 142.568 24.5 141.627 24.5 140.467C24.5 139.307 25.4402 138.367 26.6003 138.367C27.7603 138.366 28.7005 139.307 28.7005 140.467Z" fill="#602EDF"/>
<path d="M491.402 367L460.932 271.951L383.196 302.13L454.603 181.537L385.692 239.468L316.83 150.074L260.859 179.013" stroke="#443963" stroke-miterlimit="10" stroke-linecap="round" stroke-linejoin="round"/>
<path d="M486.984 367C486.984 364.561 488.961 362.584 491.4 362.584C493.839 362.584 495.816 364.561 495.816 367H486.984Z" fill="#602EDF"/>
<path d="M378.781 304.338C378.781 301.899 380.758 299.922 383.197 299.922C385.636 299.922 387.613 301.899 387.613 304.338H378.781Z" fill="#602EDF"/>
<path d="M381.281 241.678C381.281 239.239 383.258 237.262 385.697 237.262C388.136 237.262 390.113 239.239 390.113 241.678H381.281Z" fill="#602EDF"/>
<path d="M318.849 150.075C318.849 151.235 317.909 152.175 316.749 152.175C315.589 152.175 314.648 151.235 314.648 150.075C314.648 148.915 315.589 147.975 316.749 147.975C317.909 147.975 318.849 148.915 318.849 150.075Z" fill="#602EDF"/>
<path d="M456.427 182.032C456.427 183.192 455.487 184.132 454.327 184.132C453.167 184.132 452.227 183.192 452.227 182.032C452.227 180.872 453.167 179.932 454.327 179.932C455.487 179.932 456.427 180.873 456.427 182.032Z" fill="#602EDF"/>
<path d="M462.997 271.895C462.997 273.055 462.057 273.995 460.897 273.995C459.737 273.995 458.797 273.055 458.797 271.895C458.797 270.735 459.737 269.795 460.897 269.795C462.057 269.795 462.997 270.735 462.997 271.895Z" fill="#602EDF"/>
<path d="M331.406 241.676H424.138V188.213C424.138 183.132 420.02 179.014 414.939 179.014H331.406V241.676Z" fill="#EDEDED"/>
<path d="M365.739 206.15H389.805V199.968H365.739V206.15Z" fill="#602EDF"/>
<path d="M359.669 220.725H405.594V217.854H359.669V220.725Z" fill="#443963"/>
<path d="M349.949 220.725H359.664V217.854H349.949V220.725Z" fill="#AEAFB6"/>
<path d="M331.406 241.677H424.138V238.625L331.406 241.677Z" fill="#120239"/>
<path d="M368.203 367H460.935V313.537C460.935 308.457 456.817 304.338 451.736 304.338H368.203V367Z" fill="#EDEDED"/>
<path d="M402.535 331.475H426.602V325.292H402.535V331.475Z" fill="#602EDF"/>
<path d="M396.466 346.051H442.391V343.18H396.466V346.051Z" fill="#443963"/>
<path d="M386.746 346.051H396.461V343.18H386.746V346.051Z" fill="#AEAFB6"/>
<path d="M368.205 304.338H331.406V367H368.205V304.338Z" fill="#AEAFB6"/>
<path d="M331.406 304.338L337.322 367H331.406V304.338Z" fill="#120239"/>
<path d="M331.402 179.012H260.859V366.999H331.402V179.012Z" fill="#443963"/>
<path d="M281.43 179.012H260.859V367L281.43 179.012Z" fill="#120239"/>
<path d="M349.798 241.676H331.398V304.338H349.798V241.676Z" fill="#AEAFB6"/>
<path d="M349.797 304.338H442.529V250.875C442.529 245.794 438.41 241.676 433.329 241.676H349.797V304.338Z" fill="#EDEDED"/>
<path d="M384.129 268.812H408.195V262.63H384.129V268.812Z" fill="#602EDF"/>
<path d="M378.06 283.389H423.984V280.518H378.06V283.389Z" fill="#443963"/>
<path d="M368.34 283.389H378.055V280.518H368.34V283.389Z" fill="#AEAFB6"/>
<path d="M331.398 241.676L337.314 304.338H331.398V241.676Z" fill="#120239"/>
<path d="M331.398 304.339H442.53V302.131L331.398 304.339Z" fill="#120239"/>
<path d="M444.46 150.99C419.612 140.595 411.369 163.042 411.369 163.042L405.279 156.289L395.812 145.792C395.812 145.792 404.065 123.336 428.903 133.732L440.863 147.007C440.872 147.016 440.881 147.016 440.881 147.016L444.46 150.99Z" fill="#602EDF"/>
<path d="M444.462 150.99C419.614 140.594 411.371 163.041 411.371 163.041L405.281 156.289C418.621 137.586 440.185 146.712 440.865 147.006C440.875 147.016 440.884 147.015 440.884 147.015L444.462 150.99Z" fill="#602EDF"/>
<path d="M403.021 153.783C403.021 153.783 417.985 139.527 433.294 143.087C433.294 143.087 415.587 137.391 401.336 151.913L403.021 153.783Z" fill="#602EDF"/>
<path d="M432.642 190.528L425.779 191.917L413.875 194.336C422.596 181.751 415.255 171.595 415.255 171.595L425.798 169.396L428.999 168.725C438.438 175.735 432.642 190.528 432.642 190.528Z" fill="#602EDF"/>
<path d="M432.644 190.528L425.781 191.917C426.011 191.494 432.801 178.154 425.781 169.405L425.8 169.396L429.001 168.725C438.44 175.735 432.644 190.528 432.644 190.528Z" fill="#602EDF"/>
<path d="M424.134 169.742C424.134 169.742 429.013 175.542 426.575 184.649C426.575 184.649 426.467 172.357 422.422 170.099L424.134 169.742Z" fill="#602EDF"/>
<path d="M472.312 139.524C462.92 155.624 448.504 161.98 448.504 161.98L439.893 158.494L438.706 158.015L436.324 157.049H436.314L433.297 155.826C433.297 155.826 447.713 149.478 457.115 133.379L469.083 138.218L472.312 139.524Z" fill="#602EDF"/>
<path d="M472.31 139.523C462.917 155.622 448.501 161.979 448.501 161.979L439.891 158.493C439.891 158.493 461.822 152.145 469.081 138.217L472.31 139.523Z" fill="#602EDF"/>
<path d="M465.252 141.264C459.539 148.964 438.711 158.016 438.711 158.016L436.328 157.05C441.36 156.747 465.252 141.264 465.252 141.264Z" fill="#602EDF"/>
<path d="M467.273 215.644C452.204 218.376 450.217 230.75 450.217 230.75L438.469 223.059C436.749 211.431 451.312 205.064 451.312 205.064L464.817 214.016L467.273 215.644Z" fill="#602EDF"/>
<path d="M455.668 207.954C455.668 207.954 445.619 209.46 439.906 219.286C439.906 219.286 441.354 210.33 451.311 205.066L455.668 207.954Z" fill="#602EDF"/>
<path d="M467.274 215.643C452.205 218.375 450.218 230.748 450.218 230.748L447.789 226.13C456.244 212.883 464.818 214.014 464.818 214.014L467.274 215.643Z" fill="#602EDF"/>
<path d="M463.684 213.267C463.684 213.267 453.51 214.968 447.781 222.371C447.781 222.371 454.375 212.233 461.406 211.758L463.684 213.267Z" fill="#602EDF"/>
<path d="M480.823 239.709L473.528 241.19L462.047 243.518C470.768 230.933 463.436 220.777 463.436 220.777L474.503 218.467L477.18 217.906C486.619 224.916 480.823 239.709 480.823 239.709Z" fill="#602EDF"/>
<path d="M480.827 239.709L473.531 241.19C473.531 241.19 480.33 227.529 474.506 218.467L477.184 217.906C486.622 224.916 480.827 239.709 480.827 239.709Z" fill="#602EDF"/>
<path d="M472.763 218.832C472.763 218.832 476.895 223.924 474.522 235.35C474.522 235.35 474.323 221.106 470.586 219.286L472.763 218.832Z" fill="#602EDF"/>
<path d="M110.705 79.4163L101.459 81.2931L91.9375 83.225C100.659 70.6399 93.3174 60.4836 93.3174 60.4836L105.295 57.9813L107.062 57.6133C116.5 64.6234 110.705 79.4163 110.705 79.4163Z" fill="#602EDF"/>
<path d="M110.707 79.4164L101.461 81.2931C101.461 81.2931 111.535 71.5967 105.297 57.9813L107.063 57.6133C116.502 64.6234 110.707 79.4164 110.707 79.4164Z" fill="#602EDF"/>
<path d="M100.139 81.5627C100.139 81.5627 107.159 71.5231 104.013 62.9629C104.013 62.9629 103.46 77.3318 97.375 82.1238L100.139 81.5627Z" fill="#602EDF"/>
<path d="M108.742 91.4221C99.3401 107.521 84.9335 113.878 84.9335 113.878L79.4965 111.68C79.4873 111.68 79.4873 111.68 79.4873 111.68L69.7266 107.724C69.7266 107.724 84.1423 101.367 93.5443 85.2676L106.203 90.3918L108.742 91.4221Z" fill="#602EDF"/>
<path d="M108.746 91.4229C99.3436 107.522 84.937 113.879 84.937 113.879L79.5 111.68C80.0612 111.368 102.14 99.0126 106.206 90.3926L108.746 91.4229Z" fill="#602EDF"/>
<path d="M76.599 110.508C76.599 110.508 98.2402 100.354 102.199 92.0742C102.199 92.0742 91.7351 103.869 73.8594 109.397L76.599 110.508Z" fill="#602EDF"/>
<path d="M78.6411 98.9395C78.3468 99.0591 78.0524 99.1879 77.7672 99.3167C53.9586 109.675 63.7654 130.862 63.7654 130.862L55.7433 130.448L40.564 129.666C40.564 129.666 30.518 107.955 55.4397 97.7344L74.5933 98.7279L78.2732 98.9211L78.6411 98.9395Z" fill="#602EDF"/>
<path d="M74.5924 98.7285C52.3937 107.128 55.7424 130.449 55.7424 130.449L63.7644 130.863C63.7644 130.863 53.9577 109.676 77.7662 99.3173L78.2722 98.9217L74.5924 98.7285Z" fill="#602EDF"/>
<path d="M53.219 130.317C53.219 130.317 49.2742 109.297 64.3432 102.135C64.3432 102.135 49.4067 104.891 48.4297 130.07L53.219 130.317Z" fill="#602EDF"/>
<path d="M278.281 268.811L250.682 366.999H176.055L203.654 268.811H278.281Z" fill="#602EDF"/>
<path d="M282.94 273.005L256.52 366.999H250.688L278.286 268.811L282.94 273.005Z" fill="#602EDF"/>
<path d="M269.878 276.887L246.82 358.921H184.469L207.528 276.887H269.878Z" fill="#443963"/>
<path d="M269.876 276.887L242.218 358.921H179.867L207.526 276.887H269.876Z" fill="#06A8D3"/>
<path d="M269.874 276.887L237.616 358.921H175.266L207.524 276.887H269.874Z" fill="#00BAD9"/>
<path d="M211.031 282.707H260.636" stroke="#443963" stroke-miterlimit="10" stroke-linecap="round" stroke-linejoin="round"/>
<path d="M209.266 287.344H258.87" stroke="#443963" stroke-miterlimit="10" stroke-linecap="round" stroke-linejoin="round"/>
<path d="M207.5 291.98H257.105" stroke="#443963" stroke-miterlimit="10" stroke-linecap="round" stroke-linejoin="round"/>
<path d="M205.734 296.617H255.339" stroke="#443963" stroke-miterlimit="10" stroke-linecap="round" stroke-linejoin="round"/>
<path d="M203.969 301.254H253.573" stroke="#443963" stroke-miterlimit="10" stroke-linecap="round" stroke-linejoin="round"/>
<path d="M202.203 305.891H251.807" stroke="#443963" stroke-miterlimit="10" stroke-linecap="round" stroke-linejoin="round"/>
<path d="M200.438 310.527H250.042" stroke="#443963" stroke-miterlimit="10" stroke-linecap="round" stroke-linejoin="round"/>
<path d="M198.672 315.164H248.276" stroke="#443963" stroke-miterlimit="10" stroke-linecap="round" stroke-linejoin="round"/>
<path d="M196.906 319.801H246.511" stroke="#443963" stroke-miterlimit="10" stroke-linecap="round" stroke-linejoin="round"/>
<path d="M195.141 324.438H244.745" stroke="#443963" stroke-miterlimit="10" stroke-linecap="round" stroke-linejoin="round"/>
<path d="M193.375 329.074H242.979" stroke="#443963" stroke-miterlimit="10" stroke-linecap="round" stroke-linejoin="round"/>
<path d="M191.609 333.711H241.214" stroke="#443963" stroke-miterlimit="10" stroke-linecap="round" stroke-linejoin="round"/>
<path d="M189.836 338.346H239.44" stroke="#443963" stroke-miterlimit="10" stroke-linecap="round" stroke-linejoin="round"/>
<path d="M188.078 342.982H237.682" stroke="#443963" stroke-miterlimit="10" stroke-linecap="round" stroke-linejoin="round"/>
<path d="M186.305 347.619H235.909" stroke="#443963" stroke-miterlimit="10" stroke-linecap="round" stroke-linejoin="round"/>
<path d="M184.531 352.256H234.136" stroke="#443963" stroke-miterlimit="10" stroke-linecap="round" stroke-linejoin="round"/>
<path d="M156.094 23.3872C156.094 35.1894 164.826 44.9318 176.178 46.5289L194.003 59.3549L183.028 46.5289H182.878C194.19 44.8775 202.868 35.1489 202.868 23.3872C202.868 10.4655 192.403 0 179.481 0C166.559 0 156.094 10.4655 156.094 23.3872Z" fill="#602EDF"/>
<path d="M190.116 12.5117H168.844V33.784H190.116V12.5117Z" fill="#120239"/>
<path d="M185.533 12.5117H173.422V19.0904H185.533V12.5117Z" fill="#443963"/>
<path d="M176.879 13.5254H174.625V18.0746H176.879V13.5254Z" fill="#120239"/>
<path d="M182.453 25.576C182.453 27.4095 180.966 28.8961 179.133 28.8961C177.299 28.8961 175.812 27.4095 175.812 25.576C175.812 23.7425 177.299 22.2559 179.133 22.2559C180.966 22.2559 182.453 23.7416 182.453 25.576Z" fill="#443963"/>
<path d="M180.097 25.4763L179.047 24.6074L178.178 25.658L179.229 26.5269L180.097 25.4763Z" fill="#120239"/>
<path d="M181.882 24.703L180.148 23.2695L179.28 24.3201L181.013 25.7536L181.882 24.703Z" fill="#120239"/>
</svg>
