<svg width="498" height="367" viewBox="0 0 498 367" fill="none" xmlns="http://www.w3.org/2000/svg">
<path d="M412.386 353.167H55.3281C59.9548 301.65 138.115 260.66 233.857 260.66C329.599 260.66 407.759 301.65 412.386 353.167Z" fill="#D6E6F2"/>
<path d="M213.822 107.879C241.856 107.879 264.582 85.1529 264.582 57.1191C264.582 29.0853 241.856 6.35938 213.822 6.35938C185.788 6.35938 163.062 29.0853 163.062 57.1191C163.062 85.1529 185.788 107.879 213.822 107.879Z" fill="#D7D9FF"/>
<path d="M315.659 155.431H208.641C204.529 155.431 201.195 152.097 201.195 147.986V63.8908C201.195 59.7786 204.529 56.4453 208.641 56.4453H315.659C319.771 56.4453 323.104 59.779 323.104 63.8908V147.986C323.104 152.097 319.77 155.431 315.659 155.431Z" stroke="#7E81FF" stroke-width="2" stroke-miterlimit="10"/>
<path d="M251.994 73.7793C233.833 73.7793 219.109 88.5021 219.109 106.664C219.109 116.977 223.858 126.18 231.287 132.209L251.994 106.664V73.7793Z" fill="#59DEEB"/>
<path d="M284.877 106.664C284.877 88.5025 270.154 73.7793 251.992 73.7793V106.664L259.015 138.794C273.802 135.577 284.877 122.415 284.877 106.664Z" fill="#7E81FF"/>
<path d="M231.289 132.209C236.942 136.797 244.147 139.549 251.996 139.549C254.407 139.549 256.756 139.287 259.019 138.795L251.996 106.664L231.289 132.209Z" fill="#FFD9A6"/>
<path d="M252 73.7793V106.664L278.507 126.125" stroke="#1F245C" stroke-width="2" stroke-miterlimit="10"/>
<path d="M296.206 82.0625H271.445V86.9178H296.206V82.0625Z" stroke="#1F245C" stroke-width="2" stroke-miterlimit="10"/>
<path d="M304.3 115.24H279.539V120.096H304.3V115.24Z" stroke="#1F245C" stroke-width="2" stroke-miterlimit="10"/>
<path d="M290.547 92.4199H306.407" stroke="#1F245C" stroke-width="2" stroke-miterlimit="10"/>
<path d="M290.547 95.6562H306.407" stroke="#1F245C" stroke-width="2" stroke-miterlimit="10"/>
<path d="M290.547 98.8926H306.407" stroke="#1F245C" stroke-width="2" stroke-miterlimit="10"/>
<path d="M290.547 126.125H306.407" stroke="#1F245C" stroke-width="2" stroke-miterlimit="10"/>
<path d="M290.547 129.361H306.407" stroke="#1F245C" stroke-width="2" stroke-miterlimit="10"/>
<path d="M290.547 132.6H306.407" stroke="#1F245C" stroke-width="2" stroke-miterlimit="10"/>
<path d="M194.275 214.744H172.578V218.999H194.275V214.744Z" stroke="#1F245C" stroke-width="2" stroke-miterlimit="10"/>
<path d="M190.691 209.661H176.162C174.182 209.661 172.578 208.056 172.578 206.077V197.162C172.578 195.182 174.183 193.578 176.162 193.578H190.691C192.671 193.578 194.275 195.183 194.275 197.162V206.077C194.275 208.056 192.67 209.661 190.691 209.661Z" fill="#7E81FF"/>
<path d="M172.578 223.227H186.476" stroke="#1F245C" stroke-width="2" stroke-miterlimit="10"/>
<path d="M172.578 226.063H186.476" stroke="#1F245C" stroke-width="2" stroke-miterlimit="10"/>
<path d="M172.578 228.898H186.476" stroke="#1F245C" stroke-width="2" stroke-miterlimit="10"/>
<path d="M203.788 247.1H46.8793C42.7952 247.1 39.4844 243.789 39.4844 239.705V147.452C39.4844 143.367 42.7952 140.057 46.8793 140.057H203.788C207.872 140.057 211.182 143.367 211.182 147.452V239.705C211.182 243.789 207.872 247.1 203.788 247.1Z" stroke="#7E81FF" stroke-width="2" stroke-miterlimit="10"/>
<path d="M160.047 140.057V247.1" stroke="#7E81FF" stroke-width="2" stroke-miterlimit="10"/>
<path d="M139.992 140.057V247.1" stroke="#7E81FF" stroke-width="2" stroke-miterlimit="10"/>
<path d="M119.938 140.057V247.1" stroke="#7E81FF" stroke-width="2" stroke-miterlimit="10"/>
<path d="M99.8906 140.057V247.1" stroke="#7E81FF" stroke-width="2" stroke-miterlimit="10"/>
<path d="M79.8438 140.057V247.1" stroke="#7E81FF" stroke-width="2" stroke-miterlimit="10"/>
<path d="M59.7891 140.057V247.1" stroke="#7E81FF" stroke-width="2" stroke-miterlimit="10"/>
<path d="M39.4844 206.998L57.6329 195C58.9311 194.142 60.6212 194.164 61.896 195.057L75.3021 204.445C77.2141 205.784 79.8704 205.092 80.8867 202.991L95.7331 172.288C97.2257 169.201 101.725 169.527 102.758 172.797L116.984 217.842C118.027 221.145 122.589 221.432 124.038 218.286L137.229 189.654C138.452 186.999 142.094 186.67 143.772 189.063L160.037 212.252" stroke="#7E81FF" stroke-width="2" stroke-miterlimit="10"/>
<path d="M91.5271 186.619C91.5271 188.204 90.2423 189.488 88.658 189.488C87.0738 189.488 85.7891 188.203 85.7891 186.619C85.7891 185.035 87.0738 183.75 88.658 183.75C90.2423 183.75 91.5271 185.035 91.5271 186.619Z" fill="#59DEEB"/>
<path d="M84.6514 182.467L80.4078 178.123H49.9291C48.251 178.123 46.8906 176.763 46.8906 175.085V162.021C46.8906 160.343 48.251 158.982 49.9291 158.982H83.7765C85.4546 158.982 86.815 160.343 86.815 162.021V178.123V181.585C86.8154 182.716 85.4421 183.276 84.6514 182.467Z" fill="#FFD9A6"/>
<path d="M35.9531 234.824H42.7273" stroke="#1F245C" stroke-width="2" stroke-miterlimit="10"/>
<path d="M35.9531 220.842H42.7273" stroke="#1F245C" stroke-width="2" stroke-miterlimit="10"/>
<path d="M35.9531 206.857H42.7273" stroke="#1F245C" stroke-width="2" stroke-miterlimit="10"/>
<path d="M35.9531 192.875H42.7273" stroke="#1F245C" stroke-width="2" stroke-miterlimit="10"/>
<path d="M35.9531 178.893H42.7273" stroke="#1F245C" stroke-width="2" stroke-miterlimit="10"/>
<path d="M35.9531 164.908H42.7273" stroke="#1F245C" stroke-width="2" stroke-miterlimit="10"/>
<path d="M35.9531 150.926H42.7273" stroke="#1F245C" stroke-width="2" stroke-miterlimit="10"/>
<path d="M131.473 207.277C134.366 207.277 136.711 204.932 136.711 202.039C136.711 199.146 134.366 196.801 131.473 196.801C128.58 196.801 126.234 199.146 126.234 202.039C126.234 204.932 128.58 207.277 131.473 207.277Z" stroke="#1F245C" stroke-width="2" stroke-miterlimit="10"/>
<path d="M211.192 147.758H160.047" stroke="#7E81FF" stroke-width="2" stroke-miterlimit="10"/>
<path d="M252.132 285.566H211.323C206.14 285.566 201.938 281.364 201.938 276.181V245.28C201.938 240.097 206.14 235.895 211.323 235.895H252.132C257.315 235.895 261.517 240.097 261.517 245.28V276.181C261.517 281.364 257.316 285.566 252.132 285.566Z" stroke="#7E81FF" stroke-width="2" stroke-miterlimit="10"/>
<path d="M217.004 244.937C217.004 244.009 216.251 243.256 215.322 243.256C214.394 243.256 213.641 244.009 213.641 244.937C213.641 245.866 214.394 246.619 215.322 246.619C216.251 246.619 217.004 245.866 217.004 244.937Z" fill="#FFA33E"/>
<path d="M227.808 244.937C227.808 244.009 227.055 243.256 226.127 243.256C225.198 243.256 224.445 244.009 224.445 244.937C224.445 245.866 225.198 246.619 226.127 246.619C227.056 246.619 227.808 245.866 227.808 244.937Z" stroke="#7E81FF" stroke-width="2" stroke-miterlimit="10"/>
<path d="M238.613 244.937C238.613 244.009 237.861 243.256 236.932 243.256C236.003 243.256 235.25 244.009 235.25 244.937C235.25 245.866 236.003 246.619 236.932 246.619C237.86 246.619 238.613 245.866 238.613 244.937Z" fill="#59DEEB"/>
<path d="M249.418 244.937C249.418 244.009 248.665 243.256 247.736 243.256C246.808 243.256 246.055 244.009 246.055 244.937C246.055 245.866 246.807 246.619 247.736 246.619C248.665 246.619 249.418 245.866 249.418 244.937Z" stroke="#7E81FF" stroke-width="2" stroke-miterlimit="10"/>
<path d="M217.004 255.271C217.004 254.343 216.251 253.59 215.322 253.59C214.394 253.59 213.641 254.342 213.641 255.271C213.641 256.2 214.394 256.953 215.322 256.953C216.251 256.953 217.004 256.2 217.004 255.271Z" stroke="#7E81FF" stroke-width="2" stroke-miterlimit="10"/>
<path d="M227.808 255.271C227.808 254.343 227.055 253.59 226.127 253.59C225.198 253.59 224.445 254.342 224.445 255.271C224.445 256.2 225.198 256.953 226.127 256.953C227.056 256.953 227.808 256.2 227.808 255.271Z" stroke="#7E81FF" stroke-width="2" stroke-miterlimit="10"/>
<path d="M238.613 255.271C238.613 254.343 237.861 253.59 236.932 253.59C236.003 253.59 235.25 254.342 235.25 255.271C235.25 256.2 236.003 256.953 236.932 256.953C237.86 256.953 238.613 256.2 238.613 255.271Z" fill="#7E81FF"/>
<path d="M249.418 255.271C249.418 254.343 248.665 253.59 247.736 253.59C246.808 253.59 246.055 254.342 246.055 255.271C246.055 256.2 246.807 256.953 247.736 256.953C248.665 256.953 249.418 256.2 249.418 255.271Z" fill="#FFA33E"/>
<path d="M217.004 265.607C217.004 264.679 216.251 263.926 215.322 263.926C214.394 263.926 213.641 264.679 213.641 265.607C213.641 266.536 214.394 267.289 215.322 267.289C216.251 267.289 217.004 266.536 217.004 265.607Z" stroke="#7E81FF" stroke-width="2" stroke-miterlimit="10"/>
<path d="M227.808 265.607C227.808 264.679 227.055 263.926 226.127 263.926C225.198 263.926 224.445 264.679 224.445 265.607C224.445 266.536 225.198 267.289 226.127 267.289C227.056 267.289 227.808 266.536 227.808 265.607Z" stroke="#7E81FF" stroke-width="2" stroke-miterlimit="10"/>
<path d="M238.613 265.607C238.613 264.679 237.861 263.926 236.932 263.926C236.003 263.926 235.25 264.679 235.25 265.607C235.25 266.536 236.003 267.289 236.932 267.289C237.86 267.289 238.613 266.536 238.613 265.607Z" stroke="#7E81FF" stroke-width="2" stroke-miterlimit="10"/>
<path d="M249.418 265.607C249.418 264.679 248.665 263.926 247.736 263.926C246.808 263.926 246.055 264.679 246.055 265.607C246.055 266.536 246.807 267.289 247.736 267.289C248.665 267.289 249.418 266.536 249.418 265.607Z" stroke="#7E81FF" stroke-width="2" stroke-miterlimit="10"/>
<path d="M217.004 275.943C217.004 275.015 216.251 274.262 215.322 274.262C214.394 274.262 213.641 275.014 213.641 275.943C213.641 276.872 214.394 277.625 215.322 277.625C216.251 277.624 217.004 276.872 217.004 275.943Z" fill="#59DEEB"/>
<path d="M227.808 275.943C227.808 275.015 227.055 274.262 226.127 274.262C225.198 274.262 224.445 275.014 224.445 275.943C224.445 276.872 225.198 277.625 226.127 277.625C227.056 277.624 227.808 276.872 227.808 275.943Z" stroke="#7E81FF" stroke-width="2" stroke-miterlimit="10"/>
<path d="M236.932 277.625C237.86 277.625 238.613 276.872 238.613 275.943C238.613 275.015 237.86 274.262 236.932 274.262C236.003 274.262 235.25 275.015 235.25 275.943C235.25 276.872 236.003 277.625 236.932 277.625Z" fill="#FFA33E"/>
<path d="M247.736 277.625C248.665 277.625 249.418 276.872 249.418 275.943C249.418 275.015 248.665 274.262 247.736 274.262C246.808 274.262 246.055 275.015 246.055 275.943C246.055 276.872 246.808 277.625 247.736 277.625Z" stroke="#7E81FF" stroke-width="2" stroke-miterlimit="10"/>
<path d="M406.168 153.191H372.25V169.283H406.168V153.191Z" fill="#59DEEB"/>
<path d="M372.253 217.16H343.109V233.252H372.253V217.16Z" fill="#59DEEB"/>
<path d="M435.316 233.252H406.172V249.343H435.316V233.252Z" fill="#FFA33E"/>
<path d="M406.168 185.375H372.25V217.558H406.168V185.375Z" fill="#FFD9A6"/>
<path d="M429.091 266.833H349.333C345.896 266.833 343.109 264.046 343.109 260.609V136.348C343.109 132.911 345.896 130.125 349.333 130.125H429.091C432.528 130.125 435.315 132.911 435.315 136.348V260.609C435.315 264.046 432.528 266.833 429.091 266.833Z" stroke="#7E81FF" stroke-width="2" stroke-miterlimit="10"/>
<path d="M372.258 130.125V266.833" stroke="#7E81FF" stroke-width="2" stroke-miterlimit="10"/>
<path d="M406.172 130.125V266.833" stroke="#7E81FF" stroke-width="2" stroke-miterlimit="10"/>
<path d="M343.109 153.191H435.315" stroke="#7E81FF" stroke-width="2" stroke-miterlimit="10"/>
<path d="M343.109 169.283H435.315" stroke="#7E81FF" stroke-width="2" stroke-miterlimit="10"/>
<path d="M343.109 185.375H435.315" stroke="#7E81FF" stroke-width="2" stroke-miterlimit="10"/>
<path d="M343.109 201.465H435.315" stroke="#7E81FF" stroke-width="2" stroke-miterlimit="10"/>
<path d="M343.109 217.557H435.315" stroke="#7E81FF" stroke-width="2" stroke-miterlimit="10"/>
<path d="M343.109 233.648H435.315" stroke="#7E81FF" stroke-width="2" stroke-miterlimit="10"/>
<path d="M343.109 249.74H435.315" stroke="#7E81FF" stroke-width="2" stroke-miterlimit="10"/>
<path d="M438.902 243.647C447.352 241.652 452.585 233.184 450.59 224.733C448.594 216.283 440.126 211.05 431.676 213.045C423.225 215.041 417.993 223.509 419.988 231.959C421.983 240.41 430.451 245.642 438.902 243.647Z" fill="#7E81FF"/>
<path d="M428.719 230.278L431.821 233.2C432.55 233.887 433.718 233.77 434.297 232.952L441.917 222.166" stroke="white" stroke-width="2" stroke-miterlimit="10"/>
<path d="M435.313 241.426C442.511 241.426 448.346 235.591 448.346 228.394C448.346 221.196 442.511 215.361 435.313 215.361C428.116 215.361 422.281 221.196 422.281 228.394C422.281 235.591 428.116 241.426 435.313 241.426Z" stroke="#1F245C" stroke-width="2" stroke-miterlimit="10"/>
<path d="M59.7834 296.76L54.7812 291.758L49.7791 296.76L54.7812 301.762L59.7834 296.76Z" fill="#FFA33E"/>
<path d="M427.283 312.442L422.281 307.439L417.279 312.442L422.281 317.444L427.283 312.442Z" fill="#7E81FF"/>
<path d="M175.705 108.668L170.703 103.666L165.701 108.668L170.703 113.67L175.705 108.668Z" fill="#59DEEB"/>
<path d="M394.213 36.2404L389.211 31.2383L384.209 36.2404L389.211 41.2425L394.213 36.2404Z" fill="#FFA33E"/>
<path d="M409.006 295.268C410.577 293.696 410.577 291.148 409.006 289.576C407.434 288.005 404.886 288.005 403.314 289.576C401.743 291.148 401.743 293.696 403.314 295.268C404.886 296.839 407.434 296.839 409.006 295.268Z" stroke="#7E81FF" stroke-width="2" stroke-miterlimit="10"/>
<path d="M69.6933 277.107C71.265 275.536 71.265 272.988 69.6933 271.416C68.1217 269.844 65.5736 269.844 64.0019 271.416C62.4303 272.988 62.4303 275.536 64.0019 277.107C65.5736 278.679 68.1217 278.679 69.6933 277.107Z" stroke="#7E81FF" stroke-width="2" stroke-miterlimit="10"/>
<path d="M281.469 165.301V231.658" stroke="#7E81FF" stroke-width="2" stroke-miterlimit="10"/>
<path d="M314.646 198.479H248.289" stroke="#7E81FF" stroke-width="2" stroke-miterlimit="10"/>
<path d="M304.929 175.018L258.008 221.939" stroke="#7E81FF" stroke-width="2" stroke-miterlimit="10"/>
<path d="M304.929 221.939L258.008 175.018" stroke="#7E81FF" stroke-width="2" stroke-miterlimit="10"/>
<path d="M402.149 91.7121V79.6594H395.168C394.623 77.5897 393.8 75.6337 392.747 73.8281L397.688 68.8881L389.165 60.3658L384.225 65.3062C382.42 64.2532 380.463 63.4306 378.394 62.8855V55.9043H366.341V62.8855C364.272 63.431 362.316 64.2537 360.51 65.3062L355.57 60.3658L347.047 68.8881L351.988 73.8281C350.935 75.6337 350.113 77.5897 349.567 79.6594H342.586V91.7121H349.567C350.113 93.7818 350.935 95.7374 351.988 97.5434L347.047 102.483L355.57 111.006L360.51 106.066C362.315 107.119 364.271 107.941 366.341 108.487V115.468H378.394V108.487C380.463 107.941 382.419 107.119 384.225 106.066L389.165 111.006L397.688 102.483L392.747 97.5434C393.8 95.7374 394.623 93.7818 395.168 91.7121H402.149ZM372.367 98.2615C365.422 98.2615 359.792 92.6311 359.792 85.6858C359.792 78.7404 365.422 73.1101 372.367 73.1101C379.313 73.1101 384.943 78.7404 384.943 85.6858C384.943 92.6311 379.313 98.2615 372.367 98.2615Z" stroke="#7E81FF" stroke-width="2" stroke-miterlimit="10"/>
<path d="M211.849 346.599L203.961 321.261L257.51 310.037L281.563 259.468C285.144 251.941 291.639 246.204 299.548 243.576L308.153 240.716C307.1 245.906 308.439 250.685 316.261 251.647C331.361 253.508 341.462 242.66 344.641 238.648L364.69 248.981C373.212 253.375 378.149 262.569 377.1 272.098L372.583 354.882H279.491L280.477 341.137L280.112 341.912L211.849 346.599Z" fill="#FFA33E"/>
<path d="M188.299 354.883H280.453V345.506H188.299V354.883Z" fill="#7E81FF"/>
<path d="M111.229 354.883H215.901L191.031 277.99H86.3594L111.229 354.883Z" fill="#7E81FF"/>
<path d="M215.314 353.067L191.031 277.99" stroke="#1F245C" stroke-width="2" stroke-miterlimit="10"/>
<path d="M148.384 325.323C152.038 324.197 153.894 319.694 152.53 315.265C151.166 310.837 147.098 308.159 143.444 309.284C139.79 310.41 137.934 314.913 139.298 319.341C140.663 323.77 144.731 326.448 148.384 325.323Z" stroke="#1F245C" stroke-width="2" stroke-miterlimit="10"/>
<path d="M279.07 343.748C273.497 349.343 264.732 351.509 257.194 349.155L248.009 349L241.451 352.604C239.736 353.656 237.663 353.951 235.723 353.418L231.727 352.32L222.43 346.886L249.222 331.949L276.339 330.281L279.07 343.748Z" fill="#A07252"/>
<path d="M231.727 352.319L244.642 344.148L250.749 343.275" stroke="#1F245C" stroke-width="2" stroke-miterlimit="10"/>
<path d="M227.5 350.193L240.416 342.022L246.119 340.328" stroke="#1F245C" stroke-width="2" stroke-miterlimit="10"/>
<path d="M224.812 348.208L237.728 340.037L243.061 337.547" stroke="#1F245C" stroke-width="2" stroke-miterlimit="10"/>
<path d="M372.584 281.486L342.569 345.505L274.305 350.194L267.602 328.662L319.966 313.63L341.609 273.018L372.584 281.486Z" fill="#FFA33E"/>
<path d="M372.093 282.535L349.544 330.629C345.84 338.529 338.25 343.894 329.567 344.75L274.305 350.196" stroke="#1F245C" stroke-width="2" stroke-miterlimit="10"/>
<path d="M341.609 273.018L319.966 313.63L267.602 328.662" stroke="#1F245C" stroke-width="2" stroke-miterlimit="10"/>
<path d="M301.654 255.754L289.254 285.439C287.426 289.814 286.777 294.591 287.369 299.295L290.109 321.035" stroke="#1F245C" stroke-width="2" stroke-miterlimit="10"/>
<path d="M266.291 308.496L246 312.45" stroke="#1F245C" stroke-width="2" stroke-miterlimit="10"/>
<path d="M358.945 228.357C361.856 226.234 364.624 223.781 366.402 220.647C368.18 217.514 368.853 213.594 367.484 210.262C366.22 207.188 363.361 204.829 362.731 201.566C361.999 197.767 364.456 193.485 362.493 190.152C360.408 186.615 355.019 186.951 351.933 184.244C349.244 181.886 348.498 177.386 345.128 176.187C341.965 175.063 338.648 177.664 335.293 177.541C330.442 177.362 326.767 171.619 321.976 172.404C317.361 173.16 315.487 179.434 310.983 180.693C308.652 181.345 305.866 180.553 303.946 182.026C301.596 183.827 302.304 187.517 301.209 190.268C299.516 194.526 293.461 196.525 293.248 201.102C293.1 204.262 296.002 206.937 295.938 210.1C295.903 211.863 294.943 213.464 294.524 215.177C293.354 219.951 296.485 224.717 300.049 228.103C305.985 233.741 313.65 237.461 321.697 238.882C330.21 240.385 337.76 238.707 345.686 235.611C350.391 233.774 354.862 231.333 358.945 228.357Z" fill="#1F245C"/>
<path d="M308.157 240.718L317.272 237.688L319.945 227.512L325.006 208.242H338.162V234.36V235.309L344.645 238.65C341.466 242.662 331.365 253.51 316.265 251.648C308.443 250.687 307.104 245.907 308.157 240.718Z" fill="#A07252"/>
<path d="M306.942 214.917C306.984 216.996 307.436 219.048 308.273 220.954L309.092 222.819L311.573 228.476C313.015 231.762 316.685 233.454 320.121 232.412L326.379 230.512C331.215 229.044 335.154 225.514 337.145 220.87L338.44 217.846L340.727 212.504L341.272 203.894L341.421 201.556C341.915 193.739 336.706 186.698 329.084 184.883L327.217 184.441C321.916 183.181 316.34 184.685 312.397 188.439H312.394C309.335 191.355 307.546 195.353 307.409 199.578L306.945 214.063C306.936 214.349 306.936 214.634 306.942 214.917Z" fill="#A07252"/>
<path d="M333.78 212.185C334.128 216.603 340.648 219.693 345.066 219.346C349.483 218.998 352.783 215.135 352.435 210.717C352.088 206.299 348.224 202.999 343.806 203.347C339.388 203.695 333.432 207.767 333.78 212.185Z" fill="#A07252"/>
<path d="M334.65 224.973C334.65 224.973 332.636 228.611 326.377 230.51L320.117 232.41" stroke="#1F245C" stroke-width="2" stroke-miterlimit="10"/>
<path d="M321.062 211.556C321.062 212.082 321.488 212.507 322.013 212.507C322.539 212.507 322.965 212.082 322.965 211.556C322.965 211.031 322.539 210.605 322.013 210.605C321.488 210.605 321.062 211.031 321.062 211.556Z" fill="#1F245C"/>
<path d="M308.18 211.215C308.18 211.74 308.605 212.166 309.131 212.166C309.656 212.166 310.082 211.74 310.082 211.215C310.082 210.689 309.656 210.264 309.131 210.264C308.605 210.264 308.18 210.689 308.18 211.215Z" fill="#1F245C"/>
<path d="M327.976 222.53C330.474 222.53 332.499 220.505 332.499 218.007C332.499 215.509 330.474 213.484 327.976 213.484C325.478 213.484 323.453 215.509 323.453 218.007C323.453 220.505 325.478 222.53 327.976 222.53Z" fill="#7A563D"/>
<path d="M306.938 214.916C306.98 216.994 307.431 219.047 308.269 220.953L309.087 222.818C310.065 221.989 310.682 220.752 310.682 219.372C310.682 217.137 309.065 215.283 306.938 214.916Z" fill="#7A563D"/>
<path d="M312.468 216.78L314.486 214.973L315.514 211.741C315.608 211.445 316.035 211.472 316.092 211.777L317.079 217.12C317.142 217.459 316.902 217.78 316.559 217.816L313.098 218.18C312.324 218.261 311.893 217.307 312.468 216.78Z" fill="#7A563D"/>
<path d="M324.479 217.096C324.479 217.096 321.902 223.095 315.125 221.317" stroke="#1F245C" stroke-width="2" stroke-miterlimit="10"/>
<path d="M342.586 219.078C342.586 217.983 343.473 217.096 344.568 217.096C345.662 217.096 346.55 217.983 346.55 219.078C346.55 220.172 345.662 221.06 344.568 221.06C343.473 221.06 342.586 220.173 342.586 219.078Z" fill="white"/>
<path d="M326.435 205.884C324.211 205.003 321.768 204.68 319.391 204.954" stroke="#1F245C" stroke-width="2" stroke-miterlimit="10"/>
<path d="M312.129 204.982C310.171 205.083 308.233 205.561 306.453 206.385" stroke="#1F245C" stroke-width="2" stroke-miterlimit="10"/>
<path d="M304.173 194.077C306.018 195.688 308.472 196.583 310.92 196.539C313.369 196.494 315.816 195.641 317.601 193.965C318.531 195.753 320.158 197.168 322.059 197.838C323.959 198.509 326.104 198.557 327.951 197.747C328.425 200.767 329.941 203.649 332.302 205.591C334.663 207.534 337.874 208.47 340.877 207.899C343.88 207.329 346.586 205.192 347.655 202.328C348.939 198.888 349.404 194.927 347.581 191.741C345.757 188.554 342.237 186.408 338.57 186.245C338.015 184.076 335.903 182.387 333.935 181.32C331.966 180.252 329.725 179.798 327.503 179.521C325.65 179.291 323.767 179.175 321.922 179.456C320.077 179.738 318.26 180.44 316.871 181.686C313.315 181.687 309.479 182.89 306.908 185.347C304.336 187.803 301.494 191.739 304.173 194.077Z" fill="#1F245C"/>
<path d="M32.1875 354.883H428.713" stroke="#1F245C" stroke-width="2" stroke-miterlimit="10"/>
<path d="M139.322 117.666H88.5085C87.0068 117.666 85.7891 118.883 85.7891 120.385C85.7891 121.888 87.0068 123.105 88.5085 123.105H139.322C140.824 123.105 142.042 121.888 142.042 120.385C142.042 118.883 140.824 117.666 139.322 117.666Z" fill="#FFD9A6"/>
<path d="M428.718 327.562H394.188C392.686 327.562 391.469 328.78 391.469 330.282C391.469 331.784 392.686 333.001 394.188 333.001H428.718C430.219 333.001 431.437 331.784 431.437 330.282C431.437 328.78 430.22 327.562 428.718 327.562Z" fill="#FFD9A6"/>
<path d="M77.3451 330.839V296.309C77.3451 294.808 76.1278 293.59 74.6257 293.59C73.1235 293.59 71.9062 294.808 71.9062 296.309V330.839C71.9062 332.341 73.124 333.558 74.6257 333.558C76.1274 333.558 77.3451 332.341 77.3451 330.839Z" fill="#FFD9A6"/>
<path d="M416.892 53.5107V18.9812C416.892 17.4795 415.675 16.2617 414.173 16.2617C412.671 16.2617 411.453 17.4795 411.453 18.9812V53.5107C411.453 55.0125 412.67 56.2302 414.173 56.2302C415.675 56.2302 416.892 55.0129 416.892 53.5107Z" fill="#FFD9A6"/>
</svg>
