<svg width="443" height="367" viewBox="0 0 443 367" fill="none" xmlns="http://www.w3.org/2000/svg">
<g clip-path="url(#clip0_79_8752)">
<path d="M395.202 329.727H363.953V329.962H395.202V329.727Z" fill="#EBEBEB"/>
<path d="M283.233 332.289H275.031V332.525H283.233V332.289Z" fill="#EBEBEB"/>
<path d="M363.013 320.967H344.906V321.203H363.013V320.967Z" fill="#EBEBEB"/>
<path d="M60.9924 322.553H20.2422V322.789H60.9924V322.553Z" fill="#EBEBEB"/>
<path d="M75.3655 322.553H69.3906V322.789H75.3655V322.553Z" fill="#EBEBEB"/>
<path d="M183.159 326.535H94.7812V326.771H183.159V326.535Z" fill="#EBEBEB"/>
<path d="M194.36 272.467H12.1821C9.21304 272.467 6.79688 270.051 6.79688 267.082V11.0004C6.79688 8.0314 9.21304 5.61523 12.1821 5.61523H194.36C197.328 5.61523 199.745 8.0314 199.745 11.0004V267.082C199.745 270.051 197.328 272.467 194.36 272.467ZM12.1821 5.85204C9.34229 5.85204 7.03274 8.16159 7.03274 11.0014V267.082C7.03274 269.922 9.34229 272.232 12.1821 272.232H194.36C197.199 272.232 199.509 269.922 199.509 267.082V11.0004C199.509 8.16159 197.199 5.8511 194.36 5.8511L12.1821 5.85204Z" fill="#EBEBEB"/>
<path d="M398.421 272.467H216.244C213.275 272.467 210.859 270.051 210.859 267.082V11.0004C210.859 8.0314 213.276 5.61523 216.244 5.61523H398.421C401.391 5.61523 403.806 8.0314 403.806 11.0004V267.082C403.807 270.051 401.391 272.467 398.421 272.467ZM216.244 5.85204C213.405 5.85204 211.095 8.16159 211.095 11.0014V267.082C211.095 269.922 213.405 272.232 216.244 272.232H398.421C401.261 272.232 403.57 269.922 403.57 267.082V11.0004C403.57 8.16159 401.261 5.8511 398.421 5.8511L216.244 5.85204Z" fill="#EBEBEB"/>
<path d="M442.472 314.541H-29.25V314.777H442.472V314.541Z" fill="#EBEBEB"/>
<path d="M51.7526 124.313V105.939H50.3374V124.313C49.427 124.612 48.7656 125.459 48.7656 126.47V132.288C48.7656 133.547 49.7864 134.568 51.045 134.568C52.3045 134.568 53.3253 133.547 53.3253 132.288V126.47C53.3253 125.459 52.6639 124.612 51.7526 124.313Z" fill="#E0E0E0"/>
<path d="M58.6471 105.939H55.8281V312.797H58.6471V105.939Z" fill="#EBEBEB"/>
<path d="M75.6381 313.647H38.8438C38.8438 311.746 40.3844 310.205 42.2854 310.205H72.1955C74.0974 310.205 75.6381 311.746 75.6381 313.647Z" fill="#E0E0E0"/>
<path d="M55.8281 120.569L58.6471 119.641V105.939H55.8281V120.569Z" fill="#E0E0E0"/>
<path d="M74.1298 63.0234H40.3545L29.9766 107.837H84.5077L74.1298 63.0234Z" fill="#F0F0F0"/>
<path d="M222.323 75.6504V67.6047C221.331 67.6047 221.329 66.0641 222.323 66.0641C225.389 66.0641 228.458 66.0433 231.526 66.0254V77.192C228.458 77.192 225.39 77.192 222.323 77.192C221.331 77.1911 221.33 75.6504 222.323 75.6504Z" fill="#EBEBEB"/>
<path d="M229.47 67.6055H222.32V75.6398H229.47V67.6055Z" fill="#F5F5F5"/>
<path d="M227.969 76.4213H252.754C254.458 76.4213 255.839 74.2749 255.839 71.6276C255.839 68.9803 254.458 66.834 252.754 66.834H227.969V76.4213Z" fill="#FAFAFA"/>
<path d="M227.971 66.065C236.085 66.065 244.213 65.9188 252.326 66.065C257.883 66.165 258.182 76.8184 252.731 77.192C248.931 77.4524 245.022 77.192 241.216 77.192C236.8 77.192 232.386 77.192 227.971 77.192C226.979 77.192 226.978 75.6513 227.971 75.6513C235.662 75.6513 243.353 75.6513 251.043 75.6513C252.824 75.6513 254.096 75.6315 254.784 73.5314C255.38 71.7143 255.192 68.0066 252.756 67.6056C252.494 67.5622 252.184 67.6056 251.921 67.6056C247.727 67.6056 243.535 67.6056 239.341 67.6056C235.55 67.6056 231.76 67.6056 227.971 67.6056C226.979 67.6056 226.978 66.065 227.971 66.065Z" fill="#E6E6E6"/>
<path d="M222.24 64.7847V57.6343C221.358 57.6343 221.357 56.2654 222.24 56.2654C224.965 56.2654 227.692 56.2465 230.418 56.2305V66.1536C227.692 66.1536 224.965 66.1536 222.24 66.1536C221.359 66.1536 221.357 64.7847 222.24 64.7847Z" fill="#EBEBEB"/>
<path d="M228.596 57.6348H222.242V64.7747H228.596V57.6348Z" fill="#F5F5F5"/>
<path d="M227.266 65.4705H249.292C250.807 65.4705 252.034 63.5638 252.034 61.2108C252.034 58.8579 250.807 56.9512 249.292 56.9512H227.266V65.4705Z" fill="#FAFAFA"/>
<path d="M227.255 56.2668C234.467 56.2668 241.69 56.1367 248.9 56.2668C253.839 56.3565 254.105 65.823 249.26 66.1551C245.884 66.3872 242.41 66.1551 239.027 66.1551C235.103 66.1551 231.18 66.1551 227.256 66.1551C226.375 66.1551 226.374 64.7862 227.256 64.7862C234.092 64.7862 240.926 64.7862 247.761 64.7862C249.343 64.7862 250.474 64.7682 251.086 62.9021C251.615 61.2879 251.448 57.9924 249.283 57.6358C249.05 57.5971 248.775 57.6358 248.541 57.6358C244.815 57.6358 241.088 57.6358 237.362 57.6358C233.994 57.6358 230.625 57.6358 227.257 57.6358C226.374 57.6358 226.372 56.2668 227.255 56.2668Z" fill="#E6E6E6"/>
<path d="M222.323 86.586V78.5403C221.331 78.5403 221.329 76.9996 222.323 76.9996C225.389 76.9996 228.458 76.9789 231.526 76.9609V88.1275C228.458 88.1275 225.39 88.1275 222.323 88.1275C221.331 88.1266 221.33 86.586 222.323 86.586Z" fill="#EBEBEB"/>
<path d="M229.47 78.541H222.32V86.5754H229.47V78.541Z" fill="#F5F5F5"/>
<path d="M227.969 87.3578H252.754C254.458 87.3578 255.839 85.2115 255.839 82.5642C255.839 79.9169 254.458 77.7715 252.754 77.7715H227.969V87.3578Z" fill="#FAFAFA"/>
<path d="M227.971 77.0005C236.085 77.0005 244.213 76.8543 252.326 77.0005C257.883 77.1005 258.182 87.7539 252.731 88.1275C248.931 88.3879 245.022 88.1275 241.216 88.1275C236.8 88.1275 232.386 88.1275 227.971 88.1275C226.979 88.1275 226.978 86.5869 227.971 86.5869C235.662 86.5869 243.353 86.5869 251.043 86.5869C252.824 86.5869 254.096 86.5671 254.784 84.467C255.38 82.6499 255.192 78.9421 252.756 78.5412C252.494 78.4978 252.184 78.5412 251.921 78.5412C247.727 78.5412 243.535 78.5412 239.341 78.5412C235.55 78.5412 231.76 78.5412 227.971 78.5412C226.979 78.5412 226.978 77.0005 227.971 77.0005Z" fill="#E6E6E6"/>
<path d="M283.22 86.8809H284.949H335.014V93.5274H284.949H283.22H116.273V86.8809H283.22Z" fill="#F5F5F5"/>
<path d="M322.641 109.688V93.5273H330.72L322.641 109.688Z" fill="#E0E0E0"/>
<path d="M326.68 109.688L334.76 93.5273H330.72L322.641 109.688H326.68Z" fill="#F5F5F5"/>
<path d="M128.393 109.688V93.5274H120.312L128.393 109.688Z" fill="#E0E0E0"/>
<path d="M124.353 109.688L116.273 93.5274H120.313L128.394 109.688H124.353Z" fill="#F5F5F5"/>
<path d="M270.203 70.6945C270.203 80.4025 278.073 88.2727 287.781 88.2727C297.489 88.2727 305.36 80.4035 305.36 70.6945V70.0822C305.36 60.3741 297.489 52.5039 287.781 52.5039C278.073 52.5039 270.203 60.3741 270.203 70.0822V70.6945Z" fill="#E6E6E6"/>
<path d="M270.203 68.1671C270.203 77.8752 278.073 85.7454 287.781 85.7454C297.489 85.7454 305.36 77.8752 305.36 68.1671V67.5548C305.36 57.8468 297.489 49.9766 287.781 49.9766C278.073 49.9766 270.203 57.8468 270.203 67.5548V68.1671Z" fill="#F0F0F0"/>
<path d="M274.047 67.555C274.047 75.1393 280.195 81.2878 287.78 81.2878C295.364 81.2878 301.512 75.1393 301.512 67.555C301.512 59.9706 295.364 53.8222 287.78 53.8222C280.195 53.8222 274.047 59.9706 274.047 67.555Z" fill="#FAFAFA"/>
<path d="M287.78 55.9902C280.561 55.9902 274.655 61.5632 274.102 68.639C274.073 68.2805 274.047 67.921 274.047 67.555C274.047 59.9706 280.195 53.8222 287.78 53.8222C295.364 53.8222 301.512 59.9706 301.512 67.555C301.512 67.921 301.486 68.2805 301.458 68.639C300.904 61.5622 294.998 55.9902 287.78 55.9902Z" fill="#E6E6E6"/>
<path d="M279.109 67.5481C279.521 67.5481 283.955 67.5481 286.329 67.5481C286.329 65.1706 286.329 60.7298 286.329 60.3279C286.329 59.525 286.98 58.875 287.782 58.875C288.584 58.875 289.235 59.526 289.235 60.3279C289.235 60.8713 289.235 68.4576 289.235 69.001C289.235 69.8029 288.584 70.4539 287.782 70.4539C287.25 70.4539 279.64 70.4539 279.109 70.4539C278.307 70.4539 277.656 69.8029 277.656 69.001C277.656 68.1981 278.307 67.5481 279.109 67.5481Z" fill="#E0E0E0"/>
<path d="M279.109 69.0074C278.307 69.0074 277.656 68.3564 277.656 67.5545C277.656 66.7516 278.306 66.1016 279.109 66.1016C279.653 66.1016 287.239 66.1016 287.783 66.1016C288.585 66.1016 289.236 66.7516 289.236 67.5545C289.236 68.3564 288.585 69.0074 287.783 69.0074C287.25 69.0074 279.641 69.0074 279.109 69.0074Z" fill="#F5F5F5"/>
<path d="M286.328 58.8806C286.328 58.0778 286.979 57.4277 287.781 57.4277C288.583 57.4277 289.234 58.0787 289.234 58.8806C289.234 59.4241 289.234 67.0103 289.234 67.5537C289.234 68.3557 288.583 69.0066 287.781 69.0066C286.978 69.0066 286.328 68.3566 286.328 67.5537C286.328 67.0226 286.328 59.4127 286.328 58.8806Z" fill="#EBEBEB"/>
<path d="M177.32 87.1113H187.914V43.1044H177.32V87.1113Z" fill="#E0E0E0"/>
<path d="M182.619 80.9743C184.419 80.9743 185.879 79.5149 185.879 77.7147C185.879 75.9144 184.419 74.4551 182.619 74.4551C180.819 74.4551 179.359 75.9144 179.359 77.7147C179.359 79.5149 180.819 80.9743 182.619 80.9743Z" fill="#FAFAFA"/>
<path opacity="0.6" d="M179.364 68.5469H185.883V47.359H179.364V68.5469Z" fill="#F0F0F0"/>
<path opacity="0.6" d="M179.364 50.3477H185.883V47.3598H179.364V50.3477Z" fill="#FAFAFA"/>
<path d="M169.358 87.1094H177.914V51.566H169.358V87.1094Z" fill="#E6E6E6"/>
<path d="M171.008 79.5218C171.008 80.9757 172.186 82.155 173.64 82.155C175.094 82.155 176.273 80.9766 176.273 79.5218C176.273 78.067 175.095 76.8887 173.64 76.8887C172.185 76.8887 171.008 78.068 171.008 79.5218Z" fill="#FAFAFA"/>
<path opacity="0.6" d="M171.008 72.1152H176.273V55.0021H171.008V72.1152Z" fill="#F0F0F0"/>
<path opacity="0.6" d="M171.008 57.418H176.273V55.0046H171.008V57.418Z" fill="#FAFAFA"/>
<path d="M194.758 87.1113H205.352V43.1044H194.758V87.1113Z" fill="#EBEBEB"/>
<path d="M200.056 80.9743C201.857 80.9743 203.316 79.5149 203.316 77.7147C203.316 75.9144 201.857 74.4551 200.056 74.4551C198.256 74.4551 196.797 75.9144 196.797 77.7147C196.797 79.5149 198.256 80.9743 200.056 80.9743Z" fill="#E0E0E0"/>
<path opacity="0.6" d="M196.801 68.5469H203.32V47.359H196.801V68.5469Z" fill="#FAFAFA"/>
<path opacity="0.6" d="M196.801 50.3477H203.32V47.3598H196.801V50.3477Z" fill="#FAFAFA"/>
<path d="M159.531 87.1113H170.125V43.1044H159.531V87.1113Z" fill="#E0E0E0"/>
<path d="M164.83 80.9743C166.63 80.9743 168.09 79.5149 168.09 77.7147C168.09 75.9144 166.63 74.4551 164.83 74.4551C163.03 74.4551 161.57 75.9144 161.57 77.7147C161.57 79.5149 163.03 80.9743 164.83 80.9743Z" fill="#FAFAFA"/>
<path opacity="0.6" d="M161.575 68.5469H168.094V47.359H161.575V68.5469Z" fill="#F0F0F0"/>
<path opacity="0.6" d="M161.575 50.3477H168.094V47.3598H161.575V50.3477Z" fill="#FAFAFA"/>
<path d="M144.425 86.4418L154.961 87.5488L159.56 43.7839L149.024 42.6768L144.425 86.4418Z" fill="#EBEBEB"/>
<path d="M147.432 77.3039C147.244 79.0946 148.543 80.6984 150.333 80.8862C152.124 81.0748 153.728 79.7757 153.916 77.9851C154.103 76.1944 152.805 74.5906 151.015 74.4028C149.224 74.2151 147.62 75.5142 147.432 77.3039Z" fill="#E0E0E0"/>
<path opacity="0.6" d="M148.392 68.1937L154.875 68.875L157.089 47.8046L150.606 47.1233L148.392 68.1937Z" fill="#F5F5F5"/>
<path opacity="0.6" d="M150.29 50.0922L156.773 50.7734L157.086 47.802L150.602 47.1207L150.29 50.0922Z" fill="#FAFAFA"/>
<path d="M187.147 87.1094H195.703V51.566H187.147V87.1094Z" fill="#E6E6E6"/>
<path d="M188.797 79.5218C188.797 80.9757 189.975 82.155 191.43 82.155C192.884 82.155 194.063 80.9766 194.063 79.5218C194.063 78.067 192.885 76.8887 191.43 76.8887C189.975 76.8887 188.797 78.068 188.797 79.5218Z" fill="#FAFAFA"/>
<path opacity="0.6" d="M188.797 72.1152H194.062V55.0021H188.797V72.1152Z" fill="#F0F0F0"/>
<path opacity="0.6" d="M188.797 57.418H194.062V55.0046H188.797V57.418Z" fill="#FAFAFA"/>
<path d="M202.064 353.521C303.09 353.521 384.988 348.739 384.988 342.839C384.988 336.939 303.09 332.156 202.064 332.156C101.038 332.156 19.1406 336.939 19.1406 342.839C19.1406 348.739 101.038 353.521 202.064 353.521Z" fill="#F5F5F5"/>
<path d="M206.071 213.032H188.391L196.882 186.146H214.562L206.071 213.032Z" fill="#407BFF"/>
<path opacity="0.2" d="M194.406 193.996H212.086L214.565 186.146H196.885L194.406 193.996Z" fill="black"/>
<path d="M220.07 211.324H186.234V215.412H220.07V211.324Z" fill="#407BFF"/>
<path opacity="0.5" d="M220.07 211.324H186.234V215.412H220.07V211.324Z" fill="white"/>
<path opacity="0.6" d="M203.152 211.324H186.234V215.412H203.152V211.324Z" fill="white"/>
<path d="M351.163 180.307L345.001 109.889L248.568 118.391H151.395L53.4728 109.889L51.5859 111.776L57.7466 182.194L155.666 190.697H252.843L349.276 182.194L351.163 180.307Z" fill="#407BFF"/>
<path opacity="0.2" d="M351.166 180.307L345.005 109.889L248.571 118.391H151.399L53.4766 109.889L59.6373 180.307L157.556 188.81H254.734L351.166 180.307Z" fill="white"/>
<path opacity="0.8" d="M342.447 112.982L251.625 120.932L257.293 185.69L348.116 177.74L342.447 112.982Z" fill="white"/>
<path opacity="0.5" d="M268.67 127.494C268.118 127.543 267.631 127.131 267.582 126.576C267.533 126.019 267.942 125.529 268.493 125.48L291.334 123.467C291.886 123.418 292.373 123.83 292.422 124.386C292.471 124.942 292.063 125.433 291.511 125.481L268.67 127.494Z" fill="#263238"/>
<g opacity="0.5">
<path opacity="0.5" d="M268.67 127.494C268.118 127.543 267.631 127.131 267.582 126.576C267.533 126.019 267.942 125.529 268.493 125.48L291.334 123.467C291.886 123.418 292.373 123.83 292.422 124.386C292.471 124.942 292.063 125.433 291.511 125.481L268.67 127.494Z" fill="white"/>
</g>
<path opacity="0.5" d="M305.826 124.219C305.274 124.268 304.787 123.856 304.738 123.3C304.689 122.743 305.098 122.253 305.65 122.205L328.491 120.191C329.042 120.142 329.529 120.555 329.578 121.11C329.627 121.667 329.219 122.158 328.667 122.206L305.826 124.219Z" fill="#263238"/>
<g opacity="0.5">
<path opacity="0.5" d="M305.826 124.219C305.274 124.268 304.787 123.856 304.738 123.3C304.689 122.743 305.098 122.253 305.65 122.205L328.491 120.191C329.042 120.142 329.529 120.555 329.578 121.11C329.627 121.667 329.219 122.158 328.667 122.206L305.826 124.219Z" fill="white"/>
</g>
<path d="M292.92 139.78C293.485 146.224 288.758 151.904 282.363 152.468C275.969 153.032 270.329 148.265 269.764 141.821C269.2 135.378 273.928 129.697 280.322 129.133C286.715 128.57 292.356 133.336 292.92 139.78Z" fill="#407BFF"/>
<g opacity="0.9">
<path d="M276.306 146.854L274.986 146.97C274.645 147 274.345 146.745 274.314 146.402L273.768 140.16C273.738 139.817 273.99 139.514 274.331 139.484L275.651 139.368C275.992 139.338 276.293 139.592 276.323 139.936L276.869 146.177C276.899 146.521 276.647 146.824 276.306 146.854Z" fill="white"/>
<path d="M278.037 138.906C278.887 138.061 281.017 135.687 281.007 133.128C281.002 131.872 282.733 131.34 283.363 132.425C283.834 133.238 283.946 134.797 283.095 137.707L286.356 137.419C287.228 137.343 288.062 137.794 288.48 138.568C288.724 139.02 288.804 139.545 288.706 140.049L287.754 144.976C287.541 146.072 286.552 146.837 285.445 146.76L279.206 146.32C278.689 146.284 278.275 145.874 278.229 145.353L277.739 139.745C277.711 139.432 277.816 139.126 278.037 138.906Z" fill="white"/>
</g>
<path opacity="0.9" d="M330.077 136.504C329.512 130.061 323.873 125.294 317.478 125.858C311.083 126.422 306.357 132.102 306.921 138.546C307.485 144.99 313.125 149.756 319.519 149.193C325.914 148.629 330.641 142.948 330.077 136.504Z" fill="white"/>
<path d="M312.495 132.446L311.175 132.562C310.834 132.592 310.582 132.895 310.612 133.238L311.158 139.48C311.188 139.823 311.489 140.078 311.83 140.048L313.15 139.932C313.491 139.902 313.743 139.599 313.713 139.255L313.167 133.014C313.136 132.67 312.836 132.416 312.495 132.446Z" fill="#407BFF"/>
<path d="M315.576 139.97C316.56 140.654 319.069 142.618 319.503 145.139C319.717 146.376 321.514 146.597 321.945 145.419C322.268 144.536 322.107 142.982 320.765 140.266L324.026 139.979C324.898 139.901 325.641 139.312 325.917 138.476C326.079 137.988 326.067 137.458 325.883 136.977L324.09 132.293C323.69 131.251 322.583 130.671 321.506 130.941L315.439 132.466C314.936 132.592 314.599 133.069 314.645 133.589L315.135 139.197C315.162 139.509 315.319 139.793 315.576 139.97Z" fill="#407BFF"/>
<path d="M278.326 170.209L271.438 170.816L272.14 178.785L279.028 178.178L278.326 170.209Z" fill="#407BFF"/>
<path opacity="0.9" d="M285.365 171.344L278.477 171.951L279.026 178.182L285.914 177.575L285.365 171.344Z" fill="white"/>
<path opacity="0.9" d="M298.435 162.03L291.547 162.637L292.81 176.963L299.698 176.355L298.435 162.03Z" fill="white"/>
<path opacity="0.9" d="M312.06 159.112L305.172 159.719L306.585 175.749L313.473 175.142L312.06 159.112Z" fill="white"/>
<path opacity="0.9" d="M326.146 161.471L319.258 162.078L320.356 174.539L327.245 173.932L326.146 161.471Z" fill="white"/>
<path d="M291.654 163.924L284.766 164.531L285.915 177.57L292.803 176.962L291.654 163.924Z" fill="#407BFF"/>
<path d="M305.021 158.01L298.133 158.617L299.697 176.361L306.585 175.754L305.021 158.01Z" fill="#407BFF"/>
<path d="M319.099 160.209L312.211 160.816L313.474 175.142L320.362 174.535L319.099 160.209Z" fill="#407BFF"/>
<path d="M332.178 151.065L325.289 151.672L327.251 173.928L334.139 173.321L332.178 151.065Z" fill="#407BFF"/>
<path opacity="0.8" d="M56.5703 112.967L62.2357 177.725L154.453 185.731L148.787 120.974L56.5703 112.967Z" fill="white"/>
<path d="M122.435 142.949L72.9442 138.652C70.8592 138.471 69.0223 136.647 68.8412 134.578L68.2176 127.447C68.0364 125.378 69.5799 123.847 71.6649 124.028L121.155 128.326C123.24 128.507 125.077 130.331 125.257 132.4L125.881 139.531C126.063 141.599 124.52 143.13 122.435 142.949Z" fill="white"/>
<path d="M81.1269 132.108C81.3439 134.583 79.4976 136.414 77.0031 136.197C74.5096 135.981 72.3123 133.799 72.0953 131.323C71.8793 128.849 73.7246 127.017 76.2191 127.234C78.7136 127.451 80.9109 129.633 81.1269 132.108Z" fill="#407BFF"/>
<path d="M86.9049 130.093C86.3633 130.046 85.8869 129.572 85.8397 129.034C85.7925 128.496 86.1935 128.099 86.735 128.146L117.067 130.78C117.608 130.827 118.086 131.3 118.132 131.837C118.179 132.375 117.778 132.772 117.237 132.725L86.9049 130.093Z" fill="#263238"/>
<path d="M87.522 137.11C86.9805 137.063 86.5041 136.589 86.4569 136.052C86.4097 135.514 86.8107 135.117 87.3522 135.164L105.118 136.706C105.66 136.754 106.136 137.227 106.183 137.765C106.231 138.303 105.83 138.7 105.288 138.653L87.522 137.11Z" fill="#263238"/>
<path d="M87.2095 133.602C86.668 133.554 86.1916 133.081 86.1444 132.544C86.0972 132.006 86.4982 131.609 87.0397 131.656L112.767 133.89C113.309 133.937 113.786 134.411 113.833 134.948C113.88 135.486 113.479 135.883 112.937 135.836L87.2095 133.602Z" fill="#263238"/>
<g opacity="0.5">
<path d="M86.9049 130.093C86.3633 130.046 85.8869 129.572 85.8397 129.034C85.7925 128.496 86.1935 128.099 86.735 128.146L117.067 130.78C117.608 130.827 118.086 131.3 118.132 131.837C118.179 132.375 117.778 132.772 117.237 132.725L86.9049 130.093Z" fill="white"/>
<path d="M87.522 137.11C86.9805 137.063 86.5041 136.589 86.4569 136.052C86.4097 135.514 86.8107 135.117 87.3522 135.164L105.118 136.706C105.66 136.754 106.136 137.227 106.183 137.765C106.231 138.303 105.83 138.7 105.288 138.653L87.522 137.11Z" fill="white"/>
<path d="M87.2095 133.602C86.668 133.554 86.1916 133.081 86.1444 132.544C86.0972 132.006 86.4982 131.609 87.0397 131.656L112.767 133.89C113.309 133.937 113.786 134.411 113.833 134.948C113.88 135.486 113.479 135.883 112.937 135.836L87.2095 133.602Z" fill="white"/>
</g>
<path d="M125.022 121.562L119.236 121.121C118.441 121.061 117.858 121.653 117.937 122.443L118.41 127.257C118.488 128.045 119.192 128.735 119.987 128.797L121.661 128.93L122.482 130.105C122.761 130.503 123.319 130.543 123.518 130.178L124.107 129.096L125.772 129.228C126.569 129.292 127.154 128.699 127.076 127.907L126.603 123.103C126.525 122.312 125.817 121.622 125.022 121.562Z" fill="#407BFF"/>
<g opacity="0.9">
<path d="M120.567 125.473C120.069 124.985 119.826 124.478 119.787 124.04C119.722 123.292 120.181 122.837 120.943 122.903C121.653 122.964 121.924 123.312 122.382 123.821C122.756 123.384 122.971 123.078 123.681 123.141C124.443 123.207 124.99 123.749 125.055 124.497C125.093 124.936 124.937 125.409 124.517 125.816L122.712 127.596L120.567 125.473Z" fill="white"/>
</g>
<path d="M135.958 161.268L86.4677 156.97C84.3827 156.789 82.5458 154.965 82.3646 152.896L81.741 145.765C81.5599 143.696 83.1033 142.166 85.1884 142.347L134.679 146.644C136.764 146.825 138.601 148.649 138.781 150.718L139.404 157.849C139.585 159.917 138.042 161.449 135.958 161.268Z" fill="white"/>
<path d="M94.6503 150.426C94.8664 152.901 93.021 154.732 90.5266 154.515C88.0321 154.298 85.8357 152.117 85.6188 149.642C85.4027 147.167 87.2481 145.336 89.7426 145.553C92.2361 145.77 94.4334 147.952 94.6503 150.426Z" fill="#407BFF"/>
<path d="M100.428 148.411C99.8868 148.364 99.4094 147.89 99.3631 147.353C99.316 146.815 99.7169 146.418 100.258 146.465L130.59 149.098C131.132 149.145 131.609 149.619 131.655 150.156C131.703 150.694 131.302 151.091 130.76 151.044L100.428 148.411Z" fill="#263238"/>
<path d="M101.038 155.429C100.496 155.381 100.019 154.908 99.9725 154.37C99.9253 153.832 100.326 153.435 100.868 153.482L118.633 155.025C119.174 155.072 119.652 155.546 119.698 156.083C119.745 156.62 119.344 157.018 118.803 156.971L101.038 155.429Z" fill="#263238"/>
<path d="M100.733 151.919C100.191 151.872 99.715 151.398 99.6678 150.86C99.6207 150.323 100.022 149.925 100.563 149.973L126.291 152.207C126.832 152.254 127.309 152.727 127.356 153.264C127.403 153.802 127.002 154.199 126.461 154.152L100.733 151.919Z" fill="#263238"/>
<g opacity="0.5">
<path d="M100.428 148.411C99.8868 148.364 99.4094 147.89 99.3631 147.353C99.316 146.815 99.7169 146.418 100.258 146.465L130.59 149.098C131.132 149.145 131.609 149.619 131.655 150.156C131.703 150.694 131.302 151.091 130.76 151.044L100.428 148.411Z" fill="white"/>
<path d="M101.038 155.429C100.496 155.381 100.019 154.908 99.9725 154.37C99.9253 153.832 100.326 153.435 100.868 153.482L118.633 155.025C119.174 155.072 119.652 155.546 119.698 156.083C119.745 156.62 119.344 157.018 118.803 156.971L101.038 155.429Z" fill="white"/>
<path d="M100.733 151.919C100.191 151.872 99.715 151.398 99.6678 150.86C99.6207 150.323 100.022 149.925 100.563 149.973L126.291 152.207C126.832 152.254 127.309 152.727 127.356 153.264C127.403 153.802 127.002 154.199 126.461 154.152L100.733 151.919Z" fill="white"/>
</g>
<path d="M138.538 139.88L132.751 139.44C131.956 139.379 131.374 139.971 131.452 140.762L131.926 145.575C132.003 146.364 132.708 147.053 133.502 147.116L135.177 147.249L135.998 148.423C136.276 148.821 136.835 148.861 137.034 148.496L137.622 147.415L139.288 147.547C140.085 147.61 140.67 147.018 140.592 146.225L140.119 141.421C140.041 140.63 139.333 139.941 138.538 139.88Z" fill="#407BFF"/>
<g opacity="0.9">
<path d="M134.09 143.789C133.592 143.302 133.349 142.795 133.311 142.356C133.246 141.608 133.704 141.153 134.467 141.219C135.177 141.281 135.448 141.629 135.905 142.137C136.28 141.7 136.494 141.395 137.204 141.457C137.967 141.523 138.513 142.066 138.578 142.814C138.617 143.251 138.46 143.725 138.04 144.132L136.235 145.912L134.09 143.789Z" fill="white"/>
</g>
<path d="M129.489 179.014L79.9989 174.718C77.9139 174.537 76.077 172.713 75.8959 170.644L75.2723 163.513C75.0911 161.444 76.6346 159.913 78.7196 160.095L128.21 164.391C130.295 164.572 132.132 166.396 132.312 168.465L132.936 175.596C133.118 177.665 131.574 179.196 129.489 179.014Z" fill="white"/>
<path d="M88.1816 168.172C88.3986 170.646 86.5523 172.477 84.0578 172.261C81.5633 172.044 79.3661 169.863 79.15 167.388C78.934 164.913 80.7793 163.082 83.2738 163.299C85.7683 163.515 87.9656 165.697 88.1816 168.172Z" fill="#407BFF"/>
<path d="M93.9595 166.158C93.418 166.111 92.9406 165.637 92.8944 165.101C92.8472 164.563 93.2482 164.166 93.7897 164.213L124.121 166.846C124.663 166.893 125.139 167.367 125.187 167.904C125.234 168.441 124.833 168.838 124.291 168.791L93.9595 166.158Z" fill="#263238"/>
<path d="M94.5689 173.176C94.0274 173.129 93.5509 172.655 93.5038 172.118C93.4566 171.58 93.8576 171.183 94.3991 171.23L118.819 173.35C119.361 173.397 119.837 173.871 119.884 174.408C119.932 174.946 119.531 175.343 118.989 175.296L94.5689 173.176Z" fill="#263238"/>
<path d="M94.272 169.666C93.7305 169.619 93.2531 169.145 93.2069 168.608C93.1597 168.071 93.5607 167.673 94.1022 167.721L116.027 169.624C116.568 169.672 117.045 170.145 117.092 170.682C117.139 171.22 116.738 171.617 116.197 171.57L94.272 169.666Z" fill="#263238"/>
<g opacity="0.5">
<path d="M93.9595 166.158C93.418 166.111 92.9406 165.637 92.8944 165.101C92.8472 164.563 93.2482 164.166 93.7897 164.213L124.121 166.846C124.663 166.893 125.139 167.367 125.187 167.904C125.234 168.441 124.833 168.838 124.291 168.791L93.9595 166.158Z" fill="white"/>
<path d="M94.5689 173.176C94.0274 173.129 93.5509 172.655 93.5038 172.118C93.4566 171.58 93.8576 171.183 94.3991 171.23L118.819 173.35C119.361 173.397 119.837 173.871 119.884 174.408C119.932 174.946 119.531 175.343 118.989 175.296L94.5689 173.176Z" fill="white"/>
<path d="M94.272 169.666C93.7305 169.619 93.2531 169.145 93.2069 168.608C93.1597 168.071 93.5607 167.673 94.1022 167.721L116.027 169.624C116.568 169.672 117.045 170.145 117.092 170.682C117.139 171.22 116.738 171.617 116.197 171.57L94.272 169.666Z" fill="white"/>
</g>
<path d="M132.241 159.529L126.455 159.088C125.659 159.028 125.077 159.619 125.155 160.41L125.629 165.223C125.706 166.012 126.411 166.702 127.206 166.764L128.88 166.897L129.701 168.072C129.979 168.47 130.538 168.509 130.737 168.144L131.326 167.063L132.991 167.195C133.788 167.258 134.373 166.666 134.295 165.873L133.822 161.069C133.744 160.28 133.036 159.589 132.241 159.529Z" fill="#407BFF"/>
<path opacity="0.9" d="M127.827 164.928C127.591 164.907 127.383 164.7 127.362 164.466L127.22 162.846C127.2 162.611 127.375 162.439 127.611 162.459C127.847 162.479 128.055 162.686 128.076 162.92L128.218 164.54C128.238 164.775 128.064 164.947 127.827 164.928Z" fill="white"/>
<path opacity="0.9" d="M128.633 162.465C128.918 162.239 129.632 161.591 129.63 160.76C129.629 160.353 130.21 160.279 130.42 160.668C130.577 160.959 130.614 161.472 130.327 162.368L131.42 162.463C131.711 162.489 131.991 162.683 132.13 162.958C132.211 163.12 132.239 163.294 132.206 163.453L131.884 164.998C131.812 165.342 131.48 165.533 131.11 165.444L129.022 164.942C128.848 164.9 128.71 164.742 128.695 164.571L128.533 162.721C128.523 162.617 128.558 162.523 128.633 162.465Z" fill="white"/>
<path opacity="0.8" d="M154.469 121.221L160.134 185.979H251.651L245.986 121.221H154.469Z" fill="white"/>
<g opacity="0.2">
<path d="M157.275 185.678C156.885 185.678 156.54 185.361 156.506 184.97L154.721 164.581C154.688 164.19 154.976 163.873 155.367 163.873C155.757 163.873 156.102 164.19 156.137 164.581L157.921 184.97C157.956 185.361 157.666 185.678 157.275 185.678Z" fill="black"/>
</g>
<g opacity="0.2">
<path d="M155.163 161.514C154.773 161.514 154.429 161.197 154.394 160.806L151.862 131.874C151.828 131.483 152.117 131.166 152.508 131.166C152.898 131.166 153.243 131.483 153.278 131.874L155.809 160.806C155.844 161.197 155.555 161.514 155.163 161.514Z" fill="black"/>
</g>
<g opacity="0.2">
<path d="M152.316 128.965C151.925 128.965 151.581 128.648 151.546 128.258L151.018 122.231C150.984 121.84 151.273 121.523 151.664 121.523C152.054 121.523 152.399 121.84 152.434 122.231L152.961 128.258C152.996 128.648 152.706 128.965 152.316 128.965Z" fill="black"/>
</g>
<g opacity="0.2">
<path d="M254.454 185.678C254.063 185.678 253.719 185.361 253.684 184.971L251.089 155.303C251.055 154.913 251.343 154.596 251.734 154.596C252.125 154.596 252.469 154.913 252.504 155.303L255.099 184.971C255.133 185.361 254.845 185.678 254.454 185.678Z" fill="black"/>
</g>
<g opacity="0.2">
<path d="M251.56 152.551C251.169 152.551 250.825 152.234 250.79 151.843L248.768 128.729C248.734 128.338 249.023 128.021 249.414 128.021C249.804 128.021 250.149 128.338 250.184 128.729L252.205 151.843C252.239 152.235 251.951 152.551 251.56 152.551Z" fill="black"/>
</g>
<g opacity="0.2">
<path d="M249.17 125.244C248.779 125.244 248.435 124.927 248.4 124.537L248.198 122.231C248.164 121.84 248.453 121.523 248.843 121.523C249.234 121.523 249.578 121.84 249.613 122.231L249.815 124.537C249.849 124.927 249.56 125.244 249.17 125.244Z" fill="black"/>
</g>
<path d="M235.316 149.731C235.269 149.193 235.666 148.758 236.204 148.758C236.742 148.758 237.215 149.194 237.263 149.731L238.382 162.526C238.429 163.064 238.032 163.499 237.494 163.499C236.957 163.499 236.482 163.063 236.436 162.526L235.316 149.731Z" fill="#407BFF"/>
<path d="M161.359 126.666C160.821 126.666 160.348 126.23 160.301 125.693C160.253 125.156 160.652 124.721 161.188 124.721H183.419C183.957 124.721 184.43 125.157 184.476 125.693C184.524 126.231 184.126 126.666 183.589 126.666H161.359Z" fill="#263238"/>
<path d="M161.975 133.684C161.439 133.684 160.964 133.248 160.918 132.711C160.871 132.173 161.268 131.738 161.806 131.738H180.262C180.799 131.738 181.274 132.174 181.32 132.711C181.367 133.249 180.969 133.684 180.432 133.684H161.975Z" fill="#263238"/>
<path d="M161.672 130.174C161.134 130.174 160.66 129.738 160.613 129.201C160.566 128.663 160.964 128.229 161.501 128.229H176.184C176.722 128.229 177.195 128.664 177.242 129.201C177.29 129.739 176.891 130.174 176.355 130.174H161.672Z" fill="#263238"/>
<g opacity="0.5">
<path d="M161.359 126.666C160.821 126.666 160.348 126.23 160.301 125.693C160.253 125.156 160.652 124.721 161.188 124.721H183.419C183.957 124.721 184.43 125.157 184.476 125.693C184.524 126.231 184.126 126.666 183.589 126.666H161.359Z" fill="white"/>
<path d="M161.975 133.684C161.439 133.684 160.964 133.248 160.918 132.711C160.871 132.173 161.268 131.738 161.806 131.738H180.262C180.799 131.738 181.274 132.174 181.32 132.711C181.367 133.249 180.969 133.684 180.432 133.684H161.975Z" fill="white"/>
<path d="M161.672 130.174C161.134 130.174 160.66 129.738 160.613 129.201C160.566 128.663 160.964 128.229 161.501 128.229H176.184C176.722 128.229 177.195 128.664 177.242 129.201C177.29 129.739 176.891 130.174 176.355 130.174H161.672Z" fill="white"/>
</g>
<path d="M240.628 141.756C240.871 144.536 238.815 146.791 236.033 146.791C233.252 146.791 230.801 144.537 230.559 141.756C230.315 138.976 232.372 136.721 235.153 136.721C237.934 136.722 240.385 138.976 240.628 141.756Z" fill="#407BFF"/>
<path d="M233.112 144.159C232.805 144.159 232.535 143.91 232.508 143.603L232.322 141.483C232.296 141.177 232.522 140.928 232.829 140.928C233.136 140.928 233.406 141.177 233.433 141.483L233.619 143.603C233.646 143.911 233.419 144.159 233.112 144.159Z" fill="white"/>
<path d="M234.156 140.82C234.526 140.49 235.453 139.554 235.45 138.458C235.448 137.921 236.201 137.758 236.474 138.246C236.679 138.612 236.727 139.284 236.356 140.497H237.774C238.154 140.497 238.516 140.722 238.697 141.07C238.803 141.273 238.838 141.5 238.795 141.713L238.379 143.787C238.287 144.248 237.856 144.539 237.374 144.463L234.661 144.04C234.436 144.005 234.256 143.813 234.236 143.589L234.025 141.168C234.014 141.033 234.06 140.906 234.156 140.82Z" fill="white"/>
<path d="M243.144 170.498C242.9 167.718 240.449 165.463 237.669 165.463C234.889 165.463 232.831 167.717 233.074 170.498C233.318 173.278 235.769 175.533 238.549 175.533C241.329 175.533 243.387 173.278 243.144 170.498Z" fill="#407BFF"/>
<path d="M235.212 168.096C234.905 168.096 234.678 168.345 234.705 168.651L234.891 170.771C234.919 171.078 235.188 171.327 235.495 171.327C235.802 171.327 236.029 171.078 236.002 170.771L235.816 168.651C235.789 168.345 235.519 168.096 235.212 168.096Z" fill="white"/>
<path d="M236.834 171.434C237.262 171.764 238.352 172.7 238.541 173.795C238.633 174.333 239.415 174.495 239.602 174.008C239.743 173.641 239.673 172.97 239.09 171.756H240.508C240.887 171.756 241.21 171.532 241.331 171.184C241.402 170.981 241.396 170.754 241.317 170.541L240.538 168.468C240.365 168.006 239.884 167.716 239.416 167.791L236.777 168.215C236.558 168.25 236.412 168.441 236.431 168.666L236.643 171.086C236.655 171.221 236.723 171.348 236.834 171.434Z" fill="white"/>
<path d="M222.762 174.973C232.275 165.035 231.194 148.561 220.347 138.179C209.501 127.796 192.996 127.436 183.483 137.374C173.97 147.313 175.051 163.786 185.897 174.168C196.744 184.551 213.249 184.911 222.762 174.973Z" fill="#407BFF"/>
<path opacity="0.6" d="M219.915 137.767C214.794 133.057 208.034 130.145 200.848 130.145C186.475 130.145 175.843 141.796 177.101 156.168H203.124L219.915 137.767Z" fill="white"/>
<path opacity="0.2" d="M183.109 137.767L203.121 156.168L200.844 130.145C193.658 130.145 187.407 133.058 183.109 137.767Z" fill="black"/>
<path d="M183.109 137.767L203.121 156.168L200.844 130.145C193.658 130.145 187.407 133.058 183.109 137.767Z" fill="#407BFF"/>
<path opacity="0.3" d="M183.109 137.767L203.121 156.168L200.844 130.145C193.658 130.145 187.407 133.058 183.109 137.767Z" fill="black"/>
<path opacity="0.3" d="M205.396 182.191C219.769 182.191 230.4 170.539 229.143 156.168H203.12L186.328 174.569C191.449 179.279 198.21 182.191 205.396 182.191Z" fill="white"/>
<path d="M222.425 177.744C222.731 181.237 220.147 184.07 216.653 184.07C213.16 184.07 210.08 181.237 209.775 177.744C209.469 174.25 212.053 171.418 215.547 171.418C219.039 171.418 222.119 174.25 222.425 177.744Z" fill="#263238"/>
<path d="M213.902 178.796C213.325 178.274 213.044 177.701 212.999 177.19C212.923 176.316 213.454 175.734 214.337 175.734C215.16 175.734 215.475 176.116 216.004 176.667C216.438 176.116 216.685 175.734 217.508 175.734C218.391 175.734 219.024 176.316 219.101 177.19C219.145 177.701 218.965 178.274 218.478 178.796L216.389 181.074L213.902 178.796Z" fill="#407BFF"/>
<path d="M186.738 146.046C187.043 149.54 184.459 152.372 180.966 152.372C177.472 152.372 174.393 149.54 174.087 146.046C173.781 142.553 176.365 139.721 179.859 139.721C183.353 139.721 186.432 142.553 186.738 146.046Z" fill="#263238"/>
<path d="M184.391 146.047C184.583 148.247 182.956 150.031 180.755 150.031C178.555 150.031 176.615 148.247 176.422 146.047C176.229 143.847 177.857 142.062 180.058 142.062C182.259 142.063 184.199 143.847 184.391 146.047Z" fill="#407BFF"/>
<path opacity="0.5" d="M184.391 146.047C184.583 148.247 182.956 150.031 180.755 150.031C178.555 150.031 176.615 148.247 176.422 146.047C176.229 143.847 177.857 142.062 180.058 142.062C182.259 142.063 184.199 143.847 184.391 146.047Z" fill="white"/>
<path d="M181.872 146.891C181.127 147.638 179.979 147.64 179.102 146.891C178.752 146.592 178.308 147.076 178.66 147.375C179.837 148.379 181.398 148.379 182.4 147.375C182.698 147.076 182.171 146.592 181.872 146.891Z" fill="#407BFF"/>
<path d="M179.346 144.75C179.384 145.183 179.264 145.535 179.078 145.535C178.891 145.535 178.709 145.184 178.671 144.75C178.633 144.316 178.754 143.965 178.94 143.965C179.127 143.965 179.309 144.316 179.346 144.75Z" fill="#407BFF"/>
<path d="M181.925 144.75C181.962 145.183 181.843 145.535 181.656 145.535C181.469 145.535 181.287 145.184 181.249 144.75C181.211 144.316 181.332 143.965 181.518 143.965C181.705 143.965 181.887 144.316 181.925 144.75Z" fill="#407BFF"/>
<path d="M225.363 140.295C225.668 143.788 223.084 146.62 219.591 146.62C216.097 146.62 213.018 143.788 212.712 140.295C212.406 136.801 214.99 133.969 218.484 133.969C221.978 133.969 225.057 136.801 225.363 140.295Z" fill="#263238"/>
<path d="M223.023 140.295C223.215 142.495 221.588 144.279 219.387 144.279C217.187 144.279 215.246 142.495 215.055 140.295C214.862 138.095 216.49 136.311 218.691 136.311C220.89 136.311 222.83 138.095 223.023 140.295Z" fill="#407BFF"/>
<path opacity="0.5" d="M223.023 140.295C223.215 142.495 221.588 144.279 219.387 144.279C217.187 144.279 215.246 142.495 215.055 140.295C214.862 138.095 216.49 136.311 218.691 136.311C220.89 136.311 222.83 138.095 223.023 140.295Z" fill="white"/>
<path d="M217.827 142.285C218.572 141.537 219.72 141.535 220.598 142.285C220.948 142.583 221.391 142.1 221.039 141.801C219.862 140.796 218.301 140.796 217.299 141.801C217.001 142.1 217.529 142.583 217.827 142.285Z" fill="#407BFF"/>
<path d="M217.971 138.998C218.009 139.432 217.888 139.783 217.703 139.783C217.516 139.783 217.334 139.432 217.296 138.998C217.258 138.565 217.379 138.213 217.565 138.213C217.752 138.213 217.934 138.564 217.971 138.998Z" fill="#407BFF"/>
<path d="M220.55 138.998C220.587 139.432 220.467 139.783 220.281 139.783C220.094 139.783 219.912 139.432 219.874 138.998C219.836 138.565 219.956 138.213 220.143 138.213C220.33 138.213 220.512 138.564 220.55 138.998Z" fill="#407BFF"/>
<path d="M187.261 165.463C187.567 168.956 184.983 171.788 181.489 171.788C177.996 171.788 174.916 168.956 174.61 165.463C174.305 161.969 176.889 159.137 180.382 159.137C183.875 159.138 186.955 161.969 187.261 165.463Z" fill="#263238"/>
<path d="M184.921 165.463C185.114 167.663 183.486 169.447 181.285 169.447C179.085 169.447 177.144 167.663 176.953 165.463C176.76 163.263 178.388 161.479 180.589 161.479C182.789 161.479 184.729 163.263 184.921 165.463Z" fill="#407BFF"/>
<path opacity="0.5" d="M184.921 165.463C185.114 167.663 183.486 169.447 181.285 169.447C179.085 169.447 177.144 167.663 176.953 165.463C176.76 163.263 178.388 161.479 180.589 161.479C182.789 161.479 184.729 163.263 184.921 165.463Z" fill="white"/>
<path d="M179.074 166.725C180.262 167.816 182.032 167.816 183.028 166.725L182.97 166.059H179.016L179.074 166.725Z" fill="#407BFF"/>
<path d="M180.415 164.268C179.836 163.809 179.178 163.809 178.68 164.268C178.447 164.482 178.844 164.844 179.076 164.631C179.371 164.359 179.742 164.359 180.084 164.631C180.353 164.843 180.686 164.482 180.415 164.268Z" fill="#407BFF"/>
<path d="M182.993 164.268C182.414 163.809 181.757 163.809 181.258 164.268C181.025 164.482 181.422 164.844 181.654 164.631C181.949 164.359 182.32 164.359 182.662 164.631C182.931 164.843 183.264 164.482 182.993 164.268Z" fill="#407BFF"/>
<path d="M252.728 210.654H223.469V215.41H281.987V213.455L252.728 210.654Z" fill="#407BFF"/>
<path opacity="0.6" d="M252.728 210.654H223.469V215.41H281.987V213.455L252.728 210.654Z" fill="white"/>
<path opacity="0.6" d="M252.728 215.41H223.469V210.654L252.728 213.455V215.41Z" fill="white"/>
<g opacity="0.5">
<path d="M346.467 158.976L342.442 112.967L336.994 113.447L313.656 180.762L339.71 178.464L346.467 158.976Z" fill="white"/>
</g>
<g opacity="0.5">
<path d="M222.57 185.979L245.022 121.221H219.765L197.312 185.979H222.57Z" fill="white"/>
</g>
<path opacity="0.5" d="M131.207 183.713L149.631 130.569L148.792 120.974L128.317 119.195L106.688 181.583L131.207 183.713Z" fill="white"/>
<path d="M298.862 224.714H114.126C113.227 224.714 112.5 223.987 112.5 223.089V219.078H300.487V223.089C300.487 223.987 299.76 224.714 298.862 224.714Z" fill="#407BFF"/>
<path opacity="0.2" d="M298.862 224.714H114.126C113.227 224.714 112.5 223.987 112.5 223.089V219.078H300.487V223.089C300.487 223.987 299.76 224.714 298.862 224.714Z" fill="black"/>
<path opacity="0.3" d="M197.599 224.714H114.126C113.227 224.714 112.5 223.987 112.5 223.089V219.078H197.599V224.714Z" fill="white"/>
<path d="M304.311 220.129H108.667C107.609 220.129 106.75 219.271 106.75 218.212V217.329C106.75 216.271 107.609 215.412 108.667 215.412H304.311C305.37 215.412 306.228 216.271 306.228 217.329V218.212C306.228 219.271 305.37 220.129 304.311 220.129Z" fill="#407BFF"/>
<path opacity="0.4" d="M197.594 220.129H108.667C107.609 220.129 106.75 219.271 106.75 218.212V217.329C106.75 216.271 107.609 215.412 108.667 215.412H197.594V220.129Z" fill="white"/>
<path d="M187.671 338.139H122.422C118.51 338.139 115.328 334.957 115.328 331.044V231.819C115.328 227.908 118.51 224.727 122.422 224.727H187.671C191.583 224.727 194.766 227.909 194.766 231.819V331.044C194.766 334.956 191.584 338.139 187.671 338.139ZM122.422 228.5C120.592 228.5 119.102 229.989 119.102 231.819V331.044C119.102 332.875 120.592 334.365 122.422 334.365H187.671C189.503 334.365 190.992 332.876 190.992 331.044V231.819C190.992 229.989 189.503 228.5 187.671 228.5H122.422Z" fill="#263238"/>
<g opacity="0.4">
<path opacity="0.2" d="M187.671 338.139H122.422C118.51 338.139 115.328 334.957 115.328 331.044V231.819C115.328 227.908 118.51 224.727 122.422 224.727H187.671C191.583 224.727 194.766 227.909 194.766 231.819V331.044C194.766 334.956 191.584 338.139 187.671 338.139ZM122.422 228.5C120.592 228.5 119.102 229.989 119.102 231.819V331.044C119.102 332.875 120.592 334.365 122.422 334.365H187.671C189.503 334.365 190.992 332.876 190.992 331.044V231.819C190.992 229.989 189.503 228.5 187.671 228.5H122.422Z" fill="white"/>
</g>
<path opacity="0.2" d="M187.674 224.727H122.424C118.755 224.727 115.728 227.528 115.367 231.103H119.187C119.516 229.617 120.841 228.5 122.424 228.5H187.674C189.258 228.5 190.582 229.616 190.912 231.103H194.732C194.371 227.527 191.344 224.727 187.674 224.727Z" fill="black"/>
<path d="M289.234 338.139H223.984C220.073 338.139 216.891 334.957 216.891 331.044V231.819C216.891 227.908 220.073 224.727 223.984 224.727H289.234C293.145 224.727 296.329 227.909 296.329 231.819V331.044C296.329 334.956 293.146 338.139 289.234 338.139ZM223.984 228.5C222.154 228.5 220.664 229.989 220.664 231.819V331.044C220.664 332.875 222.154 334.365 223.984 334.365H289.234C291.065 334.365 292.555 332.876 292.555 331.044V231.819C292.555 229.989 291.065 228.5 289.234 228.5H223.984Z" fill="#263238"/>
<path opacity="0.1" d="M289.234 338.139H223.984C220.073 338.139 216.891 334.957 216.891 331.044V231.819C216.891 227.908 220.073 224.727 223.984 224.727H289.234C293.145 224.727 296.329 227.909 296.329 231.819V331.044C296.329 334.956 293.146 338.139 289.234 338.139ZM223.984 228.5C222.154 228.5 220.664 229.989 220.664 231.819V331.044C220.664 332.875 222.154 334.365 223.984 334.365H289.234C291.065 334.365 292.555 332.876 292.555 331.044V231.819C292.555 229.989 291.065 228.5 289.234 228.5H223.984Z" fill="white"/>
<path opacity="0.2" d="M289.236 224.727H223.987C220.318 224.727 217.29 227.528 216.93 231.103H220.75C221.079 229.617 222.403 228.5 223.987 228.5H289.236C290.82 228.5 292.145 229.616 292.474 231.103H296.294C295.934 227.527 292.906 224.727 289.236 224.727Z" fill="black"/>
<path d="M171.904 248.039H98.931C94.5421 248.039 90.9844 251.597 90.9844 255.986V330.558C90.9844 334.947 94.5421 338.505 98.931 338.505H171.904C176.293 338.505 179.85 334.947 179.85 330.558V255.986C179.85 251.597 176.293 248.039 171.904 248.039Z" fill="#407BFF"/>
<path opacity="0.4" d="M171.904 248.039H98.931C94.5421 248.039 90.9844 251.597 90.9844 255.986V330.558C90.9844 334.947 94.5421 338.505 98.931 338.505H171.904C176.293 338.505 179.85 334.947 179.85 330.558V255.986C179.85 251.597 176.293 248.039 171.904 248.039Z" fill="white"/>
<path opacity="0.1" d="M90.9844 330.494V330.557C90.9844 334.946 94.5421 338.504 98.931 338.504H171.904C176.293 338.504 179.85 334.946 179.85 330.557V330.494H90.9844Z" fill="black"/>
<path d="M171.903 338.505H151.673C147.284 338.505 143.727 334.947 143.727 330.558V255.986C143.727 251.597 147.284 248.039 151.673 248.039H171.903C176.292 248.039 179.85 251.597 179.85 255.986V330.558C179.85 334.947 176.292 338.505 171.903 338.505Z" fill="#407BFF"/>
<path opacity="0.3" d="M171.9 334.26C173.941 334.26 175.601 332.6 175.601 330.559V255.986C175.601 253.946 173.941 252.285 171.9 252.285H151.67C149.629 252.285 147.969 253.946 147.969 255.986V330.559C147.969 332.6 149.629 334.26 151.67 334.26H171.9Z" fill="white"/>
<path opacity="0.7" d="M172.874 258.184H150.703V264.08H172.874V258.184Z" fill="white"/>
<path opacity="0.7" d="M172.874 265.26H150.703V271.156H172.874V265.26Z" fill="white"/>
<path d="M161.79 297.893C164.341 297.893 166.408 295.825 166.408 293.274C166.408 290.724 164.341 288.656 161.79 288.656C159.239 288.656 157.172 290.724 157.172 293.274C157.172 295.825 159.239 297.893 161.79 297.893Z" fill="#407BFF"/>
<g opacity="0.9">
<path d="M162.861 292.361C163.746 293.321 163.151 294.947 161.787 294.953C160.42 294.959 159.834 293.315 160.714 292.361C161.154 291.884 160.441 291.167 159.999 291.647C158.531 293.239 159.516 295.964 161.786 295.964C164.058 295.964 165.042 293.239 163.574 291.647C163.134 291.168 162.419 291.884 162.861 292.361Z" fill="white"/>
<path d="M161.281 290.582C161.281 291.349 161.281 292.117 161.281 292.884C161.281 293.534 162.292 293.535 162.292 292.884C162.292 292.117 162.292 291.349 162.292 290.582C162.292 289.932 161.281 289.931 161.281 290.582Z" fill="white"/>
</g>
<path d="M153.04 308.342C153.822 308.342 154.455 307.708 154.455 306.927C154.455 306.145 153.822 305.512 153.04 305.512C152.259 305.512 151.625 306.145 151.625 306.927C151.625 307.708 152.259 308.342 153.04 308.342Z" fill="#407BFF"/>
<path d="M158.868 308.342C159.65 308.342 160.283 307.708 160.283 306.927C160.283 306.145 159.65 305.512 158.868 305.512C158.087 305.512 157.453 306.145 157.453 306.927C157.453 307.708 158.087 308.342 158.868 308.342Z" fill="#407BFF"/>
<path d="M164.704 308.342C165.486 308.342 166.119 307.708 166.119 306.927C166.119 306.145 165.486 305.512 164.704 305.512C163.923 305.512 163.289 306.145 163.289 306.927C163.289 307.708 163.923 308.342 164.704 308.342Z" fill="#407BFF"/>
<path d="M170.525 308.342C171.306 308.342 171.94 307.708 171.94 306.927C171.94 306.145 171.306 305.512 170.525 305.512C169.743 305.512 169.109 306.145 169.109 306.927C169.109 307.708 169.743 308.342 170.525 308.342Z" fill="#407BFF"/>
<path d="M155.962 313.375C156.744 313.375 157.377 312.742 157.377 311.96C157.377 311.179 156.744 310.545 155.962 310.545C155.18 310.545 154.547 311.179 154.547 311.96C154.547 312.742 155.18 313.375 155.962 313.375Z" fill="#407BFF"/>
<path d="M161.79 313.375C162.572 313.375 163.205 312.742 163.205 311.96C163.205 311.179 162.572 310.545 161.79 310.545C161.009 310.545 160.375 311.179 160.375 311.96C160.375 312.742 161.009 313.375 161.79 313.375Z" fill="#407BFF"/>
<path d="M167.618 313.375C168.4 313.375 169.033 312.742 169.033 311.96C169.033 311.179 168.4 310.545 167.618 310.545C166.837 310.545 166.203 311.179 166.203 311.96C166.203 312.742 166.837 313.375 167.618 313.375Z" fill="#407BFF"/>
<path d="M153.04 318.948C153.822 318.948 154.455 318.314 154.455 317.532C154.455 316.751 153.822 316.117 153.04 316.117C152.259 316.117 151.625 316.751 151.625 317.532C151.625 318.314 152.259 318.948 153.04 318.948Z" fill="#407BFF"/>
<path d="M158.868 318.948C159.65 318.948 160.283 318.314 160.283 317.532C160.283 316.751 159.65 316.117 158.868 316.117C158.087 316.117 157.453 316.751 157.453 317.532C157.453 318.314 158.087 318.948 158.868 318.948Z" fill="#407BFF"/>
<path d="M164.696 318.948C165.478 318.948 166.112 318.314 166.112 317.532C166.112 316.751 165.478 316.117 164.696 316.117C163.915 316.117 163.281 316.751 163.281 317.532C163.281 318.314 163.915 318.948 164.696 318.948Z" fill="#407BFF"/>
<path d="M170.525 318.948C171.306 318.948 171.94 318.314 171.94 317.532C171.94 316.751 171.306 316.117 170.525 316.117C169.743 316.117 169.109 316.751 169.109 317.532C169.109 318.314 169.743 318.948 170.525 318.948Z" fill="#407BFF"/>
<path d="M155.962 323.979C156.744 323.979 157.377 323.345 157.377 322.564C157.377 321.782 156.744 321.148 155.962 321.148C155.18 321.148 154.547 321.782 154.547 322.564C154.547 323.345 155.18 323.979 155.962 323.979Z" fill="#407BFF"/>
<path d="M161.79 323.979C162.572 323.979 163.205 323.345 163.205 322.564C163.205 321.782 162.572 321.148 161.79 321.148C161.009 321.148 160.375 321.782 160.375 322.564C160.375 323.345 161.009 323.979 161.79 323.979Z" fill="#407BFF"/>
<path d="M167.618 323.979C168.4 323.979 169.033 323.345 169.033 322.564C169.033 321.782 168.4 321.148 167.618 321.148C166.837 321.148 166.203 321.782 166.203 322.564C166.203 323.345 166.837 323.979 167.618 323.979Z" fill="#407BFF"/>
<path d="M153.04 329.553C153.822 329.553 154.455 328.919 154.455 328.138C154.455 327.356 153.822 326.723 153.04 326.723C152.259 326.723 151.625 327.356 151.625 328.138C151.625 328.919 152.259 329.553 153.04 329.553Z" fill="#407BFF"/>
<path d="M158.868 329.553C159.65 329.553 160.283 328.919 160.283 328.138C160.283 327.356 159.65 326.723 158.868 326.723C158.087 326.723 157.453 327.356 157.453 328.138C157.453 328.919 158.087 329.553 158.868 329.553Z" fill="#407BFF"/>
<path d="M164.704 329.553C165.486 329.553 166.119 328.919 166.119 328.138C166.119 327.356 165.486 326.723 164.704 326.723C163.923 326.723 163.289 327.356 163.289 328.138C163.289 328.919 163.923 329.553 164.704 329.553Z" fill="#407BFF"/>
<path d="M170.525 329.553C171.306 329.553 171.94 328.919 171.94 328.138C171.94 327.356 171.306 326.723 170.525 326.723C169.743 326.723 169.109 327.356 169.109 328.138C169.109 328.919 169.743 329.553 170.525 329.553Z" fill="#407BFF"/>
<path d="M282.212 206.266L276.513 203.697L268.523 207.03V211.007C268.523 211.007 280.927 210.593 280.924 210.613C280.924 210.613 294.914 215.271 300.081 214.555C305.248 213.838 321.702 190.907 321.702 190.907L313.435 183.67L297.697 206.099L282.212 206.266Z" fill="#FCC1BB"/>
<path opacity="0.1" d="M282.212 206.268L276.513 203.699L268.523 207.031V211.009C268.523 211.009 280.927 210.595 280.924 210.615C280.924 210.615 281.274 210.732 281.883 210.924L285.886 206.229L282.212 206.268Z" fill="black"/>
<path d="M307.867 190.189C307.867 190.189 313.59 180.013 317.247 176.789C319.467 174.831 322.56 174.222 324.649 174.045C325.962 173.934 327.086 174.976 327.096 176.293C327.126 180.315 326.078 189.066 317.804 198.072L307.867 190.189Z" fill="#263238"/>
<path d="M307.876 188.273C307.876 188.273 314.844 191.552 318.925 198.001L316.699 199.721C316.699 199.721 312.161 193.997 306.484 190.71L307.876 188.273Z" fill="#407BFF"/>
<path d="M293.886 151.535L291.062 155.973C291.062 155.973 292.534 157.059 294.594 156.32L293.886 151.535Z" fill="#EB827E"/>
<path d="M293.408 154.344C291.675 154.344 290.266 152.836 290.266 150.983C290.266 149.13 291.676 147.621 293.408 147.621C295.141 147.621 296.551 149.129 296.551 150.983C296.551 152.836 295.141 154.344 293.408 154.344ZM293.408 148.33C292.066 148.33 290.973 149.52 290.973 150.984C290.973 152.447 292.066 153.637 293.408 153.637C294.751 153.637 295.843 152.447 295.843 150.984C295.843 149.52 294.751 148.33 293.408 148.33Z" fill="#407BFF"/>
<path d="M292.187 150.918C292.182 151.491 292.472 151.96 292.848 151.965C293.223 151.97 293.557 151.486 293.548 150.929C293.538 150.373 293.263 149.888 292.886 149.889C292.51 149.889 292.2 150.346 292.187 150.918Z" fill="#1A2E35"/>
<path d="M314.294 147.341C314.546 154.953 314.817 158.176 311.364 162.423C305.896 166.931 296.748 167.462 294.228 160.071C291.956 153.422 291.926 142.117 299.053 138.36C304.135 135.684 310.423 137.634 313.099 142.715C313.85 144.143 314.259 145.727 314.294 147.341Z" fill="#FCC1BB"/>
<path opacity="0.2" d="M303.593 165.664L303.538 165.291C303.417 164.467 302.601 163.935 301.798 164.156L298.703 165.004C300.191 165.627 301.872 165.828 303.593 165.664Z" fill="#1A2E35"/>
<path d="M294.248 148.324C294.148 148.335 294.048 148.297 293.982 148.22C293.51 147.627 292.781 147.296 292.023 147.334C291.861 147.354 291.712 147.24 291.689 147.078C291.671 146.913 291.787 146.764 291.951 146.742C292.909 146.674 293.839 147.08 294.44 147.83C294.548 147.957 294.533 148.147 294.407 148.254L294.406 148.255C294.36 148.291 294.306 148.315 294.248 148.324Z" fill="#1A2E35"/>
<path d="M303.312 163.74L304.981 175.048L314.423 173.093L311.399 161.52L303.312 163.74Z" fill="#FCC1BB"/>
<path d="M293.847 141.168C297.059 147.286 299.285 141.69 298.696 146.622C298.105 151.552 299.877 153.15 299.877 153.15L306.345 162.797C306.688 163.307 307.344 163.475 307.907 163.229C309.585 162.493 310.674 162.654 311.272 162.898C311.692 163.069 312.163 163.019 312.503 162.718C313.964 161.425 317.43 157.721 318.494 150.928C320.58 137.618 310.352 135.589 310.352 135.589C304.669 134.408 306.125 128.384 302.747 128.385C300.171 128.386 300.93 132.625 300.93 132.625C300.93 132.625 298.171 130.558 296.572 131.262C294.506 132.171 296.338 136.411 296.338 136.411C296.338 136.411 290.697 135.17 293.847 141.168Z" fill="#1A2E35"/>
<path d="M300.5 149.566H291.062L291.517 148.623H300.5V149.566Z" fill="#407BFF"/>
<path d="M298.568 150.733C298.294 152.265 298.642 153.843 299.536 155.117C300.733 156.799 302.64 156.049 303.401 154.253C304.092 152.626 304.287 149.805 302.554 148.754C300.822 147.702 298.923 148.863 298.568 150.733Z" fill="#FFC3BD"/>
<path d="M300.758 170.911C300.758 170.911 306.82 165.181 313.18 165.644C317.504 165.958 318.841 171.383 318.841 171.383L300.758 170.911Z" fill="#263238"/>
<path opacity="0.2" d="M300.758 170.911C300.758 170.911 306.82 165.181 313.18 165.644C317.504 165.958 318.841 171.383 318.841 171.383L300.758 170.911Z" fill="white"/>
<path d="M304.85 240.255L291.564 175.387C291.032 172.79 292.788 170.405 295.394 170.188C303.728 169.492 320.532 168.821 326.152 173.978C339.249 186.003 340.288 241.199 340.288 241.199L304.85 240.255Z" fill="#263238"/>
<path opacity="0.5" d="M295.334 174.373C295.334 174.373 293.22 175.183 291.812 176.586L296.183 197.925C300.087 189.179 299.819 174.373 299.819 174.373H295.334Z" fill="black"/>
<path d="M255.726 205.457L250.089 202.639L242.188 206.295V210.658C242.188 210.658 254.455 210.204 254.452 210.226C254.452 210.226 268.29 215.337 273.399 214.55C278.51 213.764 294.785 188.605 294.785 188.605L286.608 180.664L271.041 205.272L255.726 205.457Z" fill="#FCC1BB"/>
<path d="M281.109 187.817C281.109 187.817 286.77 176.653 290.386 173.115C294.002 169.577 299.967 170.053 299.967 170.053C299.967 170.053 302.09 182.999 290.936 196.465L281.109 187.817Z" fill="#263238"/>
<path d="M281.11 185.715C281.11 185.715 288.002 189.312 292.038 196.388L289.837 198.275C289.837 198.275 285.348 191.995 279.734 188.389L281.11 185.715Z" fill="#263238"/>
<path opacity="0.2" d="M281.11 185.715C281.11 185.715 288.002 189.312 292.038 196.388L289.837 198.275C289.837 198.275 285.348 191.995 279.734 188.389L281.11 185.715Z" fill="white"/>
<path d="M301.031 311.073L304.264 326.737L310.642 325.794L309.109 310.543L301.031 311.073Z" fill="#FCC1BB"/>
<path opacity="0.2" d="M310.119 320.591L309.109 310.543L301.031 311.073L303.052 320.865L310.119 320.591Z" fill="black"/>
<path d="M338.876 239.785C338.876 239.785 342.115 256.767 331.029 256.767C319.944 256.767 305.199 260.391 305.199 260.391C305.199 260.391 309.445 264.423 310.388 315.813L301.19 316.204C301.19 316.204 285.911 258.202 288.925 251.828C293.171 242.851 315.154 239.785 315.154 239.785H338.876Z" fill="#407BFF"/>
<path opacity="0.2" d="M338.876 239.785C338.876 239.785 342.115 256.767 331.029 256.767C319.944 256.767 305.199 260.391 305.199 260.391C305.199 260.391 309.445 264.423 310.388 315.813L301.19 316.204C301.19 316.204 285.911 258.202 288.925 251.828C293.171 242.851 315.154 239.785 315.154 239.785H338.876Z" fill="black"/>
<path d="M299.234 313.453L311.741 313.139L311.342 318.328L300.849 318.777L299.234 313.453Z" fill="#407BFF"/>
<path opacity="0.5" d="M299.234 313.453L311.741 313.139L311.342 318.328L300.849 318.777L299.234 313.453Z" fill="white"/>
<path d="M301.395 327.723C300.569 327.822 299.698 327.774 299.382 327.451C299.215 327.26 299.187 326.986 299.312 326.765C299.401 326.569 299.563 326.416 299.763 326.338C300.835 325.899 303.312 326.945 303.421 326.991C303.482 327.018 303.521 327.079 303.516 327.146C303.511 327.212 303.467 327.269 303.404 327.291C302.749 327.493 302.076 327.638 301.395 327.723ZM300.184 326.558C300.082 326.568 299.982 326.593 299.887 326.633C299.759 326.671 299.655 326.766 299.605 326.89C299.512 327.1 299.565 327.19 299.616 327.238C299.976 327.633 301.653 327.442 302.87 327.141C302.019 326.778 301.107 326.581 300.184 326.558Z" fill="#407BFF"/>
<path d="M303.379 327.291C303.358 327.3 303.335 327.301 303.313 327.293C302.476 327.037 300.707 325.788 300.759 325.023C300.753 324.841 300.863 324.605 301.291 324.51C301.603 324.438 301.932 324.498 302.2 324.673C303.129 325.268 303.521 327.038 303.54 327.12C303.552 327.176 303.531 327.234 303.486 327.271C303.453 327.291 303.416 327.298 303.379 327.291ZM301.432 324.796L301.34 324.799C301.06 324.856 301.055 324.973 301.049 325.015C301.062 325.471 302.244 326.472 303.126 326.859C302.957 326.116 302.564 325.441 302 324.929C301.832 324.817 301.631 324.771 301.432 324.796Z" fill="#407BFF"/>
<path d="M303.973 326.28L311.224 325.411C311.498 325.377 311.757 325.539 311.849 325.798L313.868 331.54C314.051 332.048 313.787 332.608 313.279 332.791C313.214 332.815 313.146 332.831 313.078 332.84C310.459 333.108 308.117 333.244 304.864 333.639C301.024 334.102 302.053 334.444 297.545 335.05C294.829 335.412 293.96 332.38 295.095 332.089C300.294 330.791 300.652 329.131 302.462 326.997C302.86 326.58 303.397 326.326 303.973 326.28Z" fill="#407BFF"/>
<path d="M282.375 315.27L288.389 329.873L294.246 328.704L290.218 313.078L282.375 315.27Z" fill="#FCC1BB"/>
<path opacity="0.2" d="M292.906 323.502L290.218 313.078L282.375 315.27L286.286 324.763L292.906 323.502Z" fill="black"/>
<path d="M338.878 239.785C338.878 239.785 345.727 257.498 323.088 256.767C314.418 256.487 276.868 265.258 276.868 265.258C276.868 265.258 283.64 268.796 292.131 316.204L282.519 318.386C282.519 318.386 255.273 264.556 258.288 258.182C262.533 249.205 307.212 239.785 307.212 239.785H338.878Z" fill="#407BFF"/>
<path d="M281.344 317.777L292.743 315.34L293.923 320.057L282.995 322.573L281.344 317.777Z" fill="#407BFF"/>
<path opacity="0.5" d="M281.344 317.777L292.743 315.34L293.923 320.057L282.995 322.573L281.344 317.777Z" fill="white"/>
<path d="M284.77 330.54C283.944 330.64 283.073 330.591 282.757 330.269C282.59 330.078 282.562 329.804 282.687 329.583C282.776 329.387 282.938 329.234 283.138 329.156C284.21 328.718 286.687 329.763 286.796 329.809C286.857 329.836 286.896 329.897 286.892 329.964C286.887 330.03 286.843 330.087 286.78 330.108C286.124 330.31 285.451 330.456 284.77 330.54ZM283.559 329.374C283.457 329.385 283.357 329.41 283.262 329.45C283.134 329.488 283.03 329.583 282.98 329.707C282.887 329.917 282.94 330.007 282.991 330.056C283.351 330.451 285.028 330.26 286.245 329.959C285.395 329.596 284.483 329.398 283.559 329.374Z" fill="#407BFF"/>
<path d="M286.762 330.11C286.741 330.118 286.717 330.119 286.696 330.112C285.859 329.855 284.09 328.606 284.142 327.842C284.136 327.659 284.246 327.425 284.674 327.328C284.986 327.257 285.314 327.316 285.582 327.492C286.512 328.085 286.904 329.856 286.923 329.938C286.934 329.995 286.914 330.052 286.869 330.089C286.837 330.11 286.798 330.117 286.762 330.11ZM284.814 327.615L284.723 327.618C284.443 327.676 284.438 327.793 284.431 327.834C284.445 328.29 285.627 329.291 286.509 329.678C286.34 328.935 285.947 328.26 285.382 327.748C285.215 327.636 285.013 327.589 284.814 327.615Z" fill="#407BFF"/>
<path d="M287.348 329.098L294.599 328.227C294.873 328.194 295.132 328.355 295.224 328.614L297.243 334.356C297.426 334.865 297.162 335.424 296.654 335.607C296.589 335.631 296.521 335.647 296.453 335.656C293.834 335.924 291.492 336.06 288.239 336.455C284.399 336.918 285.428 337.26 280.92 337.866C278.204 338.228 277.335 335.196 278.47 334.905C283.669 333.607 284.027 331.948 285.837 329.814C286.235 329.399 286.773 329.144 287.348 329.098Z" fill="#407BFF"/>
<path d="M359.59 319.953C353.824 319.005 345.271 317.664 341.463 317.383C340.627 317.321 339.577 317.275 338.423 317.244V287.664H331.18V317.244C330.025 317.275 328.976 317.32 328.14 317.383C324.331 317.663 315.779 319.005 310.013 319.953C306.691 320.5 304.258 323.372 304.258 326.738V328.232H311.283L312.226 326.13C312.226 326.13 325.43 323.843 329.879 323.515C332.334 323.334 337.271 323.334 339.727 323.515C344.176 323.842 357.378 326.13 357.378 326.13L358.322 328.232H365.347V326.738C365.346 323.372 362.913 320.5 359.59 319.953Z" fill="#263238"/>
<path opacity="0.1" d="M359.59 319.953C353.824 319.005 345.271 317.664 341.463 317.383C340.627 317.321 339.577 317.275 338.423 317.244V287.664H331.18V317.244C330.025 317.275 328.976 317.32 328.14 317.383C324.331 317.663 315.779 319.005 310.013 319.953C306.691 320.5 304.258 323.372 304.258 326.738V328.232H311.283L312.226 326.13C312.226 326.13 325.43 323.843 329.879 323.515C332.334 323.334 337.271 323.334 339.727 323.515C344.176 323.842 357.378 326.13 357.378 326.13L358.322 328.232H365.347V326.738C365.346 323.372 362.913 320.5 359.59 319.953Z" fill="white"/>
<path d="M337.249 291.911H332.349C330.491 291.911 328.984 290.406 328.984 288.547V263.545H340.613V288.547C340.613 290.405 339.107 291.911 337.249 291.911Z" fill="#263238"/>
<path opacity="0.2" d="M340.613 263.543H328.984V270.446H340.613V263.543Z" fill="black"/>
<path d="M362.406 338.141C365.142 338.141 367.359 335.923 367.359 333.187C367.359 330.452 365.142 328.234 362.406 328.234C359.671 328.234 357.453 330.452 357.453 333.187C357.453 335.923 359.671 338.141 362.406 338.141Z" fill="#263238"/>
<path d="M307.203 338.141C309.939 338.141 312.156 335.923 312.156 333.187C312.156 330.452 309.939 328.234 307.203 328.234C304.468 328.234 302.25 330.452 302.25 333.187C302.25 335.923 304.468 338.141 307.203 338.141Z" fill="#263238"/>
<path d="M374.125 257.656C367.187 255.888 360.058 254.914 352.909 254.735C345.541 254.55 317.964 254.707 311.416 254.704C303.445 254.702 295.473 255.684 287.738 257.656C282.877 258.896 284.375 265.913 288.767 265.994C289.154 266.001 372.518 265.976 372.824 265.99C377.417 266.198 379.093 258.924 374.125 257.656Z" fill="#407BFF"/>
<path opacity="0.3" d="M374.125 257.656C367.187 255.888 360.058 254.914 352.909 254.735C345.541 254.55 317.964 254.707 311.416 254.704C303.445 254.702 295.473 255.684 287.738 257.656C282.877 258.896 284.375 265.913 288.767 265.994C289.154 266.001 372.518 265.976 372.824 265.99C377.417 266.198 379.093 258.924 374.125 257.656Z" fill="black"/>
<path d="M289.996 265.844C303.999 262.273 318.832 262.273 332.836 265.844C338.133 267.195 340.393 259.008 335.093 257.656C319.625 253.711 303.207 253.711 287.739 257.656C282.447 259.006 284.689 267.197 289.996 265.844Z" fill="#407BFF"/>
<g opacity="0.4">
<path d="M289.996 265.844C303.999 262.273 318.832 262.273 332.836 265.844C338.133 267.195 340.393 259.008 335.093 257.656C319.625 253.711 303.207 253.711 287.739 257.656C282.447 259.006 284.689 267.197 289.996 265.844Z" fill="white"/>
</g>
<path d="M351.836 196.898C350.959 196.881 350.078 197.273 349.491 198.249C338.259 216.926 334.27 239.378 338.144 260.799C338.387 262.142 339.307 262.767 340.327 262.837C342.027 262.953 372.292 262.846 373.39 262.844C375.041 262.84 376.855 261.438 376.467 259.295C372.866 239.389 376.831 218.42 387.243 201.106C388.537 198.954 386.629 196.935 384.7 196.898C383.822 196.881 353.765 196.935 351.836 196.898Z" fill="#407BFF"/>
<path opacity="0.2" d="M351.836 196.898C350.959 196.881 350.078 197.273 349.491 198.249C338.259 216.926 334.27 239.378 338.144 260.799C338.387 262.142 339.307 262.767 340.327 262.837C342.027 262.953 372.292 262.846 373.39 262.844C375.041 262.84 376.855 261.438 376.467 259.295C372.866 239.389 376.831 218.42 387.243 201.106C388.537 198.954 386.629 196.935 384.7 196.898C383.822 196.881 353.765 196.935 351.836 196.898Z" fill="black"/>
<path d="M343.603 259.296C340.002 239.39 343.967 218.421 354.379 201.107C356.261 197.977 351.369 195.128 349.491 198.25C338.259 216.927 334.27 239.38 338.144 260.8C338.792 264.38 344.248 262.863 343.603 259.296Z" fill="#407BFF"/>
<g opacity="0.4">
<path d="M343.603 259.296C340.002 239.39 343.967 218.421 354.379 201.107C356.261 197.977 351.369 195.128 349.491 198.25C338.259 216.927 334.27 239.38 338.144 260.8C338.792 264.38 344.248 262.863 343.603 259.296Z" fill="white"/>
</g>
<path d="M306.529 234.681C316.251 243.573 325.973 252.465 335.694 261.356C337.707 263.197 340.717 260.203 338.696 258.354C328.975 249.462 319.253 240.57 309.531 231.678C307.518 229.837 304.507 232.832 306.529 234.681Z" fill="#263238"/>
<g opacity="0.5">
<path d="M306.529 234.681C316.251 243.573 325.973 252.465 335.694 261.356C337.707 263.197 340.717 260.203 338.696 258.354C328.975 249.462 319.253 240.57 309.531 231.678C307.518 229.837 304.507 232.832 306.529 234.681Z" fill="white"/>
</g>
<path opacity="0.2" d="M309.531 231.678C307.518 229.837 304.508 232.831 306.529 234.68C308.388 236.381 310.249 238.082 312.108 239.783H318.393C315.438 237.081 312.484 234.379 309.531 231.678Z" fill="black"/>
<path d="M291.327 236.01C306.239 236.01 316.433 236.01 331.345 236.01C334.987 236.01 334.993 230.35 331.345 230.35C316.433 230.35 306.239 230.35 291.327 230.35C287.686 230.35 287.679 236.01 291.327 236.01Z" fill="#407BFF"/>
<g opacity="0.3">
<path d="M291.327 236.01C306.239 236.01 316.433 236.01 331.345 236.01C334.987 236.01 334.993 230.35 331.345 230.35C316.433 230.35 306.239 230.35 291.327 230.35C287.686 230.35 287.679 236.01 291.327 236.01Z" fill="white"/>
</g>
</g>
<defs>
<clipPath id="clip0_79_8752">
<rect width="442.476" height="367" fill="white"/>
</clipPath>
</defs>
</svg>
