<svg width="44" height="44" viewBox="0 0 44 44" fill="none" xmlns="http://www.w3.org/2000/svg">
<path fill-rule="evenodd" clip-rule="evenodd" d="M11.7947 20.5052C8.75866 28.3372 12.6747 37.0932 20.4627 40.1292C28.2947 43.1652 37.0507 39.2492 40.0867 31.4612C43.1227 23.6292 39.2067 14.8732 31.4187 11.8372C23.5867 8.80117 14.7867 12.6732 11.7947 20.5052Z" fill="#E6DEE8"/>
<path fill-rule="evenodd" clip-rule="evenodd" d="M15.2239 21.8239C14.0799 24.7719 14.2559 27.9399 15.4439 30.6239C16.6319 33.3079 18.8319 35.5519 21.8239 36.6959C24.7719 37.8399 27.9399 37.6639 30.6239 36.4759C33.3079 35.2879 35.5519 33.0879 36.6959 30.0959C37.8399 27.1479 37.6639 23.9799 36.4759 21.2959C35.2879 18.6119 33.0879 16.3679 30.0959 15.2239C27.1479 14.0799 23.9799 14.2559 21.2959 15.4439C18.6119 16.6759 16.3679 18.8759 15.2239 21.8239Z" fill="#9ACBFA"/>
<path fill-rule="evenodd" clip-rule="evenodd" d="M31.3703 11.8362C32.4703 12.2762 33.4823 12.8042 34.4063 13.4202L35.9463 9.3722L29.6103 6.9082L28.0703 10.9562C29.1703 11.1322 30.3143 11.3962 31.3703 11.8362Z" fill="#8585A5"/>
<path fill-rule="evenodd" clip-rule="evenodd" d="M29.6555 6.90847L35.9915 9.37247L37.2675 9.85647C38.1915 10.2085 39.2915 9.76848 39.6435 8.80047C39.9955 7.83247 39.5555 6.77648 38.5875 6.42448L29.6995 2.99247C28.7755 2.64047 27.6755 3.08047 27.3235 4.04847C26.9715 5.01647 27.4115 6.07247 28.3795 6.42448L29.6555 6.90847Z" fill="#E6DEE8"/>
<path fill-rule="evenodd" clip-rule="evenodd" d="M28.2031 14.7393C32.7351 18.8313 34.4951 25.4313 32.1631 31.4593C31.2831 33.7473 29.9191 35.6833 28.2031 37.2233C29.0391 37.0473 29.8311 36.7833 30.5791 36.4753C33.2631 35.2873 35.5071 33.0873 36.6511 30.0953C37.7951 27.1473 37.6191 23.9793 36.4311 21.2953C35.2431 18.6113 33.0431 16.3673 30.0511 15.2233C29.4351 15.0473 28.8191 14.8273 28.2031 14.7393Z" fill="#91C1ED"/>
<path fill-rule="evenodd" clip-rule="evenodd" d="M21.9531 40.6117C29.3451 42.6357 37.2211 38.7637 40.0371 31.4157C42.6331 24.6837 40.1251 17.2477 34.4051 13.3757C33.4811 12.7597 32.4691 12.2317 31.3691 11.7917C30.2691 11.3517 29.1691 11.0877 28.0691 10.9117C26.0011 10.6037 23.9331 10.7357 21.9531 11.2637C22.4811 11.3957 22.9651 11.5717 23.4491 11.7477C25.2531 12.4517 26.8371 13.4197 28.1571 14.6517C28.7731 14.7837 29.3891 14.9597 30.0051 15.1797C32.9531 16.3237 35.1971 18.5677 36.3851 21.2517C37.5731 23.9357 37.7491 27.0597 36.6051 30.0517C35.4611 32.9997 33.2171 35.2437 30.5331 36.4317C29.7851 36.7837 28.9931 37.0037 28.1571 37.1797C26.4411 38.8517 24.2851 39.9957 21.9531 40.6117Z" fill="#D9D2DB"/>
<path d="M24.0661 22.2642C23.9781 22.0442 23.7141 21.8682 23.4501 21.8682C23.1861 21.8682 22.9661 22.0002 22.8781 22.2642L19.8861 29.1722C19.7541 29.5242 19.8861 29.8762 20.2381 30.0522C20.5901 30.1842 20.9421 30.0522 21.1181 29.7002L21.7781 28.2042H25.2101L25.8701 29.7002C25.9581 29.9642 26.2221 30.0962 26.4861 30.0962C26.5741 30.0962 26.6621 30.0962 26.7501 30.0522C27.1021 29.9202 27.2341 29.5242 27.1021 29.1722L24.0661 22.2642ZM22.3061 26.8402L23.4501 24.1562L24.6381 26.8402H22.3061Z" fill="black"/>
<path d="M29.785 21.8682C29.433 21.8682 29.125 22.1762 29.125 22.5282V29.4362C29.125 29.7882 29.433 30.0962 29.785 30.0962C30.137 30.0962 30.445 29.7882 30.445 29.4362V22.5282C30.445 22.1322 30.137 21.8682 29.785 21.8682Z" fill="black"/>
<path d="M5.62588 12.7604H7.47388C7.82588 12.7604 8.13388 12.4524 8.13388 12.1004C8.13388 11.7484 7.86988 11.4404 7.47388 11.4404H5.58187C5.22987 11.4404 4.92188 11.7484 4.92188 12.1004C4.92188 12.4524 5.22988 12.7604 5.62588 12.7604Z" fill="black"/>
<path d="M7.12619 23.8045C7.12619 23.4525 6.81819 23.1445 6.46619 23.1445H2.90219C2.55019 23.1445 2.24219 23.4525 2.24219 23.8045C2.24219 24.1565 2.55019 24.4645 2.90219 24.4645H6.46619C6.86219 24.4645 7.12619 24.1565 7.12619 23.8045Z" fill="black"/>
<path d="M5.93481 34.8477H4.04281C3.69081 34.8477 3.38281 35.1557 3.38281 35.5077C3.38281 35.8597 3.69081 36.1677 4.04281 36.1677H5.93481C6.28681 36.1677 6.59481 35.8597 6.59481 35.5077C6.59481 35.1557 6.28681 34.8477 5.93481 34.8477Z" fill="black"/>
<path d="M35.2421 13.1561L36.3861 10.2081L37.0461 10.4721C37.3541 10.6041 37.6621 10.6481 37.9261 10.6481C38.9381 10.6481 39.8621 10.0321 40.2581 9.06412C40.4781 8.44812 40.4781 7.74412 40.2141 7.17212C39.9501 6.55612 39.4661 6.07212 38.8501 5.85212L29.9621 2.37612C28.6861 1.89212 27.2341 2.50812 26.7061 3.82812C26.2221 5.10412 26.8381 6.55612 28.1581 7.04012L28.8181 7.30412L27.6741 10.2521C24.9901 9.94412 22.2181 10.3401 19.6661 11.4401H11.3941C11.0421 11.4401 10.7341 11.7481 10.7341 12.1001C10.7341 12.4521 11.0421 12.7601 11.3941 12.7601H17.2021C16.1021 13.5081 15.0901 14.3441 14.2101 15.3561H9.06212C8.71012 15.3561 8.40212 15.6641 8.40212 16.0161C8.40212 16.3681 8.71012 16.6761 9.06212 16.6761H13.1541C12.5821 17.4681 12.0541 18.3481 11.6141 19.2721H3.73812C3.38612 19.2721 3.07812 19.5801 3.07812 19.9321C3.07812 20.2841 3.38612 20.5921 3.73812 20.5921H11.0421C10.2941 22.7041 9.98612 24.9041 10.1181 27.0601H6.07012C5.71812 27.0601 5.41012 27.3681 5.41012 27.7201C5.41012 28.0721 5.71812 28.3801 6.07012 28.3801H10.2501C10.3821 29.2601 10.6021 30.0961 10.8661 30.9761H8.22612C7.87412 30.9761 7.56613 31.2841 7.56613 31.6361C7.56613 31.9881 7.87412 32.2961 8.22612 32.2961H11.3501C11.3501 32.3401 11.3941 32.3841 11.3941 32.4281C11.7901 33.3081 12.2301 34.1001 12.7581 34.8921H9.76612C9.41412 34.8921 9.10612 35.2001 9.10612 35.5521C9.10612 35.9041 9.41412 36.2121 9.76612 36.2121H13.7261C15.4421 38.2361 17.5981 39.8201 20.1501 40.7881C21.9981 41.4921 23.9341 41.8441 25.8701 41.8441C28.0261 41.8441 30.2261 41.4041 32.2941 40.4801C36.1661 38.7641 39.1141 35.6401 40.6541 31.7241C43.3381 24.8161 40.8741 17.2921 35.2421 13.1561ZM27.9381 4.26812C28.1581 3.65212 28.8621 3.34412 29.4781 3.60812L38.3221 7.04012C38.6301 7.17212 38.8501 7.39212 38.9821 7.65612C39.1141 7.96412 39.1141 8.27212 39.0261 8.58012C38.8061 9.19612 38.1021 9.50412 37.4861 9.24012L28.5981 5.80812C28.0261 5.54412 27.7181 4.88412 27.9381 4.26812ZM30.0061 7.74412L35.1101 9.72412L34.0541 12.4081C33.2621 11.9241 32.4701 11.5281 31.5901 11.1761C30.7101 10.8241 29.8301 10.6041 28.9501 10.4281L30.0061 7.74412ZM39.4661 31.1961C36.5621 38.6761 28.1581 42.3721 20.6781 39.5121C17.0701 38.1041 14.2101 35.3761 12.6261 31.8561C11.0421 28.2921 10.9541 24.3761 12.3621 20.7681C12.9781 19.1841 13.8581 17.7321 14.9141 16.5001C14.9141 16.5001 14.9141 16.5001 14.9581 16.4561C16.3221 14.8721 18.0381 13.5961 20.0181 12.7161C21.9101 11.8801 23.9341 11.4401 25.9141 11.4401C27.6741 11.4401 29.4341 11.7481 31.1501 12.4081C38.6301 15.3121 42.3261 23.7161 39.4661 31.1961Z" fill="black"/>
<path d="M30.3155 14.6524C24.0675 12.2324 17.0275 15.3564 14.6075 21.6044C13.4195 24.6404 13.5075 27.9404 14.8275 30.8884C16.1475 33.8364 18.5235 36.1244 21.5595 37.3124C22.9675 37.8404 24.4635 38.1484 25.9155 38.1484C27.5875 38.1484 29.2595 37.7964 30.8435 37.0924C33.7915 35.7724 36.0795 33.3964 37.2675 30.3604C39.6435 24.1124 36.5195 17.0724 30.3155 14.6524ZM30.8875 35.5524L30.4035 34.4084C30.2715 34.0564 29.8755 33.9244 29.5235 34.0564C29.1715 34.1884 29.0395 34.5844 29.1715 34.9364L29.6555 36.0804C27.3675 36.9164 24.9475 37.0044 22.6155 36.2564L23.4515 34.0564C23.5835 33.7044 23.4075 33.3524 23.0555 33.2204C22.7035 33.0884 22.3515 33.2644 22.2195 33.6164L21.3835 35.8164C19.1395 34.7604 17.3795 33.0444 16.2795 30.9764L17.4235 30.4924C17.7755 30.3604 17.9075 29.9644 17.7755 29.6124C17.6435 29.2604 17.2475 29.1284 16.8955 29.2604L15.7515 29.7444C14.9155 27.5444 14.8275 25.0804 15.5755 22.7044L17.7755 23.5404C17.8635 23.5844 17.9515 23.5844 17.9955 23.5844C18.2595 23.5844 18.5235 23.4084 18.6115 23.1444C18.7435 22.7924 18.5675 22.4404 18.2155 22.3084L16.0155 21.4724C17.0715 19.2284 18.7875 17.4684 20.8555 16.3684L21.3395 17.5124C21.4275 17.7764 21.6915 17.9084 21.9555 17.9084C22.0435 17.9084 22.1315 17.9084 22.2195 17.8644C22.5715 17.7324 22.7035 17.3364 22.5715 16.9844L22.1755 15.8404C23.3635 15.4004 24.6395 15.1364 25.9595 15.1364C27.0595 15.1364 28.1595 15.3124 29.2155 15.6644L28.3795 17.8644C28.2475 18.2164 28.4235 18.5684 28.7755 18.7004C28.8635 18.7444 28.9515 18.7444 28.9955 18.7444C29.2595 18.7444 29.5235 18.5684 29.6115 18.3044L30.4475 16.1044C32.6915 17.1604 34.4515 18.8764 35.5515 20.9444L34.4075 21.4284C34.0555 21.5604 33.9235 21.9564 34.0555 22.3084C34.1435 22.5724 34.4075 22.7044 34.6715 22.7044C34.7595 22.7044 34.8475 22.7044 34.9355 22.6604L36.0795 22.1764C36.9155 24.3764 37.0035 26.8404 36.2555 29.2164L34.0555 28.3804C33.7035 28.2484 33.3515 28.4244 33.2195 28.7764C33.0875 29.1284 33.2635 29.4804 33.6155 29.6124L35.8155 30.4484C34.7595 32.6924 33.0435 34.4524 30.8875 35.5524Z" fill="black"/>
</svg>
