<svg width="548" height="482" viewBox="0 0 548 482" fill="none" xmlns="http://www.w3.org/2000/svg">
<path opacity="0.3" d="M512.439 452.475C512.439 460.379 402.727 466.787 267.391 466.787C132.055 466.787 22.3438 460.379 22.3438 452.475C22.3438 444.57 132.055 438.162 267.391 438.162C402.727 438.162 512.439 444.57 512.439 452.475Z" fill="#F1F0F7"/>
<path d="M443.811 344.568L406.131 379.799C415.723 375.184 426.994 370.907 436.779 370.274C437.024 370.258 437.205 370.375 437.253 370.551C477.951 354.81 502.318 378.411 502.318 378.411C490.356 379.941 454.568 372.366 454.568 372.366C459.39 376.059 460.38 381.841 460.38 381.841C448.739 382.902 438.829 373.049 436.989 371.098C436.871 371.182 436.729 371.241 436.58 371.25C430.926 371.616 424.751 373.237 418.698 375.435C421.005 375.645 425.734 376.525 430.56 380.132C437.306 385.175 448.959 388.376 448.959 388.376C448.959 388.376 413.155 395.066 417.108 376.021C408.779 379.193 400.802 383.36 394.852 386.769C398.832 387.693 419.992 392.801 429.749 399.194C429.749 399.194 403.355 403.966 394.417 387.019C388.653 390.34 384.899 392.883 384.794 392.954C384.538 393.129 384.215 393.143 384.035 392.997C384.018 392.984 384.002 392.969 383.989 392.953C383.823 392.761 383.915 392.451 384.194 392.261C384.362 392.146 393.794 385.752 405.971 379.877C406.046 357.09 443.811 344.568 443.811 344.568Z" fill="#2F9F71"/>
<path d="M477.836 345.527L430.227 371.145C444.947 342.814 477.836 345.527 477.836 345.527Z" fill="#2F9F71"/>
<path d="M395.556 379.171C395.757 379.421 396.174 379.316 396.273 378.989C396.866 377.031 398.494 371.763 399.752 368.666C401.319 364.809 399.972 357.36 394.195 362.123C388.688 366.663 392.228 375.014 395.556 379.171Z" fill="url(#paint0_linear_79_2738)"/>
<path d="M405.714 366.343C405.432 366.187 405.47 365.763 405.781 365.614C407.638 364.723 412.63 362.294 415.517 360.572C419.112 358.427 426.75 358.562 422.92 364.969C419.269 371.076 410.385 368.939 405.714 366.343Z" fill="url(#paint1_linear_79_2738)"/>
<path d="M405.519 365.618C405.805 365.903 406.32 365.697 406.359 365.275C406.686 361.78 407.502 350.645 404.851 348.573C400.916 345.496 394.843 355.017 405.519 365.618Z" fill="url(#paint2_linear_79_2738)"/>
<path d="M423.005 338.937C422.743 338.861 422.701 338.513 422.933 338.339C424.324 337.296 428.057 334.464 430.16 332.572C432.78 330.214 439.163 328.978 437.093 334.804C435.12 340.357 427.349 340.203 423.005 338.937Z" fill="url(#paint3_linear_79_2738)"/>
<path d="M421.831 338.312C422.117 338.596 422.632 338.39 422.671 337.968C422.999 334.473 423.814 323.338 421.164 321.266C417.228 318.19 411.156 327.711 421.831 338.312Z" fill="url(#paint4_linear_79_2738)"/>
<path d="M426.869 328.617C426.962 329.02 427.489 329.094 427.734 328.731C429.76 325.733 436.314 315.928 434.891 312.844C431.657 305.833 423.414 313.61 426.869 328.617Z" fill="url(#paint5_linear_79_2738)"/>
<path d="M396.155 380.113C395.773 379.967 395.77 379.428 396.155 379.229C399.35 377.582 409.618 372.538 412.614 374.105C417.064 376.431 410.367 385.55 396.155 380.113Z" fill="url(#paint6_linear_79_2738)"/>
<path d="M414.132 353.182C414.387 353.377 414.777 353.183 414.803 352.848C414.954 350.842 415.393 345.436 415.95 342.192C416.644 338.15 413.643 331.329 408.97 337.185C404.516 342.767 409.897 349.956 414.132 353.182Z" fill="url(#paint7_linear_79_2738)"/>
<path d="M414.931 353.952C414.52 353.898 414.396 353.383 414.735 353.106C417.539 350.812 426.608 343.676 429.933 344.499C434.871 345.723 430.26 355.951 414.931 353.952Z" fill="url(#paint8_linear_79_2738)"/>
<path d="M383.978 392.326C384.005 392.389 384.043 392.448 384.092 392.501C384.33 392.753 384.744 392.747 385.016 392.486C385.298 392.216 413.363 365.056 428.346 327.31C428.483 326.965 428.323 326.594 427.988 326.484C427.653 326.374 427.271 326.566 427.134 326.912C412.272 364.353 384.433 391.303 384.154 391.571C383.937 391.778 383.875 392.082 383.978 392.326Z" fill="url(#paint9_linear_79_2738)"/>
<g opacity="0.68">
<path d="M120.93 148.995C121.014 145.113 120.42 141.191 119.105 137.408L127.577 129.897L122.026 120.947L111.584 125.183C108.777 122.277 105.512 119.962 101.976 118.284L102.653 107.029L92.402 104.627L87.9906 115.066C84.1145 115.029 80.2026 115.671 76.4382 117.033L68.8676 108.488L59.9211 114.041L64.2626 124.744C61.4892 127.502 59.276 130.685 57.6596 134.12L46.0108 133.418L43.6094 143.672L54.4849 148.272C54.4785 151.983 55.0931 155.721 56.3655 159.33L47.472 167.215L53.023 176.165L64.0858 171.677C66.7473 174.374 69.8087 176.546 73.1131 178.159L72.3955 190.083L82.6472 192.485L87.2733 181.539C90.9865 181.592 94.7351 181.023 98.3577 179.793L106.182 188.624L115.129 183.072L110.745 172.264C113.571 169.551 115.841 166.406 117.515 162.999L129.039 163.695L131.44 153.44L120.93 148.995ZM96.4806 162.441C88.6751 167.284 78.4218 164.881 73.5786 157.073C68.7351 149.264 71.1365 139.007 78.9416 134.164C86.7471 129.32 97.0007 131.723 101.844 139.532C106.687 147.34 104.285 157.597 96.4806 162.441Z" fill="#9C99F5"/>
<path d="M116.937 151.071C117.022 147.19 116.428 143.267 115.113 139.485L123.585 131.973L118.033 123.023L107.592 127.259C104.784 124.353 101.52 122.038 97.9837 120.36L98.6609 109.105L88.4095 106.703L83.9981 117.142C80.122 117.104 76.2101 117.746 72.4456 119.108L64.8751 110.564L55.9282 116.116L60.2697 126.82C57.4963 129.578 55.2828 132.761 53.6667 136.196L42.018 135.493L39.6172 145.748L50.4924 150.348C50.486 154.058 51.1003 157.797 52.373 161.405L43.4792 169.291L49.0305 178.241L60.0933 173.752C62.7545 176.449 65.8159 178.621 69.1209 180.235L68.4027 192.158L78.6544 194.561L83.2805 183.615C86.994 183.668 90.7423 183.098 94.3646 181.869L102.189 190.7L111.136 185.147L106.752 174.339C109.578 171.626 111.848 168.481 113.522 165.075L125.046 165.77L127.447 155.516L116.937 151.071ZM92.4884 164.517C84.6829 169.361 74.4293 166.958 69.5861 159.149C64.7432 151.34 67.144 141.084 74.9491 136.24C82.7546 131.396 93.0082 133.799 97.8511 141.608C102.694 149.416 100.293 159.673 92.4884 164.517Z" fill="#CACFEF"/>
<path d="M42.0156 135.494L45.479 135.702L46.0137 133.418L42.0156 135.494Z" fill="#9C99F5"/>
<path d="M88.4062 106.703L92.4044 104.627L91.2455 107.368L88.4062 106.703Z" fill="#9C99F5"/>
<path d="M64.875 110.564L68.8728 108.488L65.1065 110.825L64.875 110.564Z" fill="#9C99F5"/>
<path d="M78.6562 194.562L82.6544 192.486L79.8148 191.82L78.6562 194.562Z" fill="#9C99F5"/>
<path d="M125.047 165.77L129.045 163.694L125.582 163.484L125.047 165.77Z" fill="#9C99F5"/>
<path d="M102.188 190.701L106.185 188.625L105.954 188.363L102.188 190.701Z" fill="#9C99F5"/>
</g>
<g opacity="0.68">
<path d="M161.349 70.424C161.408 67.7177 160.994 64.9825 160.077 62.3454L165.984 57.108L162.113 50.8677L154.833 53.8214C152.876 51.7952 150.599 50.1807 148.134 49.011L148.606 41.1635L141.458 39.4883L138.382 46.7666C135.68 46.7412 132.952 47.1885 130.327 48.1382L125.049 42.1806L118.811 46.0519L121.838 53.5152C119.904 55.4382 118.361 57.6574 117.234 60.0524L109.112 59.5628L107.438 66.7127L115.02 69.9201C115.016 72.5072 115.444 75.114 116.332 77.6299L110.131 83.128L114.001 89.3683L121.714 86.2385C123.57 88.1188 125.705 89.6331 128.009 90.758L127.508 99.0722L134.656 100.747L137.882 93.1149C140.471 93.1524 143.084 92.755 145.61 91.8982L151.065 98.0551L157.304 94.1842L154.247 86.6476C156.217 84.7562 157.8 82.5634 158.967 80.1883L167.002 80.6732L168.676 73.523L161.349 70.424ZM144.302 79.7989C138.86 83.1761 131.71 81.5008 128.334 76.0564C124.956 70.6119 126.631 63.4601 132.073 60.083C137.515 56.7055 144.665 58.381 148.041 63.8255C151.418 69.2699 149.744 76.4214 144.302 79.7989Z" fill="#9C99F5"/>
<path d="M158.567 71.8703C158.626 69.164 158.211 66.4291 157.294 63.7921L163.201 58.5546L159.331 52.3141L152.051 55.2684C150.093 53.2418 147.817 51.6273 145.352 50.4576L145.824 42.6105L138.676 40.9355L135.6 48.2139C132.898 48.1878 130.17 48.6355 127.546 49.5852L122.267 43.6276L116.029 47.4988L119.056 54.9622C117.122 56.8851 115.579 59.1043 114.452 61.4997L106.33 61.0098L104.656 68.16L112.238 71.3664C112.234 73.9532 112.662 76.5603 113.549 79.0762L107.348 84.5743L111.219 90.8146L118.932 87.6848C120.788 89.5651 122.923 91.0798 125.227 92.2043L124.726 100.518L131.874 102.193L135.1 94.5612C137.689 94.5984 140.302 94.201 142.828 93.3445L148.284 99.5014L154.521 95.6301L151.465 88.0943C153.435 86.2025 155.018 84.0097 156.185 81.6347L164.22 82.1198L165.894 74.9696L158.567 71.8703ZM141.52 81.2455C136.077 84.6227 128.929 82.9474 125.551 77.503C122.175 72.0586 123.849 64.9071 129.291 61.5296C134.733 58.1524 141.882 59.8277 145.259 65.2721C148.636 70.7162 146.962 77.868 141.52 81.2455Z" fill="#CACFEF"/>
<path d="M106.328 61.0098L108.743 61.1554L109.116 59.5625L106.328 61.0098Z" fill="#9C99F5"/>
<path d="M138.672 40.9359L141.46 39.4883L140.652 41.3994L138.672 40.9359Z" fill="#9C99F5"/>
<path d="M122.266 43.6289L125.053 42.1816L122.427 43.8114L122.266 43.6289Z" fill="#9C99F5"/>
<path d="M131.875 102.194L134.663 100.747L132.683 100.283L131.875 102.194Z" fill="#9C99F5"/>
<path d="M164.219 82.1206L167.006 80.673L164.592 80.5273L164.219 82.1206Z" fill="#9C99F5"/>
<path d="M148.281 99.5028L151.069 98.0556L150.907 97.873L148.281 99.5028Z" fill="#9C99F5"/>
</g>
<path d="M376.732 453.231H129.68C123.583 453.231 118.641 448.288 118.641 442.191V124.743C118.641 118.646 123.583 113.703 129.681 113.703H376.732C382.829 113.703 387.772 118.646 387.772 124.743V442.191C387.771 448.288 382.829 453.231 376.732 453.231Z" fill="#B2D1FF"/>
<path d="M124.043 434.823V131.812C124.043 123.261 129.722 116.043 137.511 113.703H129.681C123.584 113.703 118.641 118.646 118.641 124.743V442.191C118.641 448.288 123.583 453.231 129.68 453.231H138.674C130.295 451.287 124.043 443.793 124.043 434.823Z" fill="#82AADD"/>
<path d="M366.82 427.45H139.584C139.503 427.45 139.438 427.385 139.438 427.304V134.304C139.438 134.224 139.503 134.158 139.584 134.158H366.82C366.901 134.158 366.966 134.224 366.966 134.304V427.304C366.966 427.385 366.901 427.45 366.82 427.45Z" fill="white"/>
<path d="M366.935 147.428H139.469C139.451 147.428 139.438 147.414 139.438 147.398V134.189C139.438 134.172 139.451 134.158 139.469 134.158H366.935C366.952 134.158 366.966 134.172 366.966 134.189V147.398C366.966 147.414 366.952 147.428 366.935 147.428Z" fill="#DBEFFC"/>
<path d="M293.139 108.471H273.266C273.466 108.107 273.59 107.696 273.59 107.251V96.8839C273.59 94.6243 271.758 92.793 269.498 92.793H241.271C239.011 92.793 237.18 94.6243 237.18 96.8839V107.251C237.18 107.696 237.304 108.107 237.504 108.471H217.631C214.84 108.471 212.578 110.733 212.578 113.523V128.791C212.578 133.271 216.21 136.903 220.69 136.903H290.079C294.559 136.903 298.191 133.271 298.191 128.791V113.523C298.192 110.733 295.929 108.471 293.139 108.471Z" fill="#FBAF32"/>
<path opacity="0.1" d="M293.14 108.471H273.266C273.467 108.107 273.59 107.696 273.59 107.251V96.8839C273.59 94.6243 271.759 92.793 269.499 92.793H263.594C266.13 94.4695 268.968 97.1014 269.162 100.588C269.516 106.965 267.035 114.405 269.87 115.468C272.704 116.531 291.837 111.925 291.482 121.137C291.269 126.674 290.672 132.849 290.23 136.896C294.64 136.815 298.192 133.221 298.192 128.792V113.523C298.192 110.733 295.93 108.471 293.14 108.471Z" fill="black"/>
<path d="M199.17 197.166H154.182C152.174 197.166 150.547 198.794 150.547 200.801V245.79C150.547 247.798 152.174 249.425 154.182 249.425H199.171C201.178 249.425 202.806 247.798 202.806 245.79V200.801C202.806 198.794 201.178 197.166 199.17 197.166Z" fill="#D2DDFC"/>
<path d="M197.718 225.766H197.048H196.987L191.001 213.516C191.146 213.409 191.241 213.239 191.241 213.046C191.241 212.723 190.979 212.462 190.657 212.462C190.373 212.462 190.136 212.665 190.084 212.933C189.092 212.855 186.633 212.581 184.172 211.679C180.987 210.512 177.473 212.642 177.473 212.642L176.806 208.551C177.063 208.49 177.254 208.26 177.254 207.984C177.254 207.662 176.993 207.4 176.67 207.4C176.348 207.4 176.086 207.662 176.086 207.984C176.086 208.246 176.259 208.465 176.496 208.539L175.827 212.642C175.827 212.642 172.313 210.512 169.128 211.679C166.7 212.569 164.273 212.848 163.256 212.93C163.202 212.663 162.967 212.462 162.684 212.462C162.361 212.462 162.1 212.723 162.1 213.046C162.1 213.252 162.207 213.432 162.368 213.536L156.05 225.766H155.602C155.486 225.766 155.426 225.904 155.504 225.988C155.504 225.988 155.503 225.988 155.502 225.987C155.503 225.988 155.504 225.989 155.504 225.99C156.221 226.743 156.935 227.349 157.642 227.828C157.843 227.966 158.044 228.092 158.245 228.209C158.745 228.502 159.241 228.733 159.729 228.911C160.12 229.054 160.506 229.162 160.885 229.24C161.075 229.279 161.264 229.31 161.45 229.335C161.544 229.347 161.637 229.357 161.73 229.366C161.915 229.384 162.098 229.395 162.28 229.399C162.552 229.406 162.82 229.398 163.084 229.378C163.26 229.365 163.434 229.347 163.605 229.323C163.691 229.311 163.776 229.298 163.861 229.283C164.284 229.212 164.693 229.11 165.085 228.986C165.32 228.912 165.549 228.83 165.772 228.741C166.143 228.594 166.497 228.429 166.83 228.255C166.897 228.22 166.963 228.184 167.027 228.149C167.158 228.077 167.284 228.005 167.407 227.932C167.654 227.785 167.886 227.636 168.104 227.487C168.213 227.413 168.318 227.339 168.419 227.265C168.773 227.008 169.079 226.76 169.331 226.542C169.547 226.355 169.723 226.19 169.856 226.061C169.883 226.034 169.899 226.002 169.905 225.969C169.923 225.872 169.851 225.766 169.735 225.766H169.065H169.003L163.02 213.522C163.058 213.495 163.091 213.464 163.121 213.429H175.745C175.704 213.441 175.671 213.473 175.671 213.518V213.673C175.671 213.728 175.715 213.773 175.77 213.773H176.107L175.783 233.283C175.721 233.283 175.671 233.333 175.671 233.396V233.602C174.778 233.608 174.057 234.332 174.057 235.225V235.664H170.937C170.267 235.664 169.724 236.207 169.724 236.876V238.129H169.207C168.888 238.129 168.63 238.388 168.63 238.707V239.191H184.738V238.707C184.738 238.388 184.48 238.129 184.161 238.129H183.648V236.876C183.648 236.207 183.105 235.664 182.436 235.664H179.316V235.225C179.316 234.329 178.588 233.601 177.692 233.601H177.649V233.396C177.649 233.334 177.599 233.283 177.537 233.283L177.211 213.773H177.55C177.605 213.773 177.649 213.728 177.649 213.673V213.518C177.649 213.473 177.616 213.441 177.575 213.429H190.219C190.257 213.472 190.3 213.51 190.349 213.54L184.033 225.766H183.584C183.469 225.766 183.409 225.903 183.486 225.988L183.485 225.987C183.486 225.988 183.487 225.989 183.487 225.99C184.101 226.635 184.714 227.172 185.321 227.615C185.726 227.909 186.128 228.162 186.527 228.377C186.727 228.484 186.925 228.582 187.123 228.67C187.32 228.759 187.517 228.839 187.712 228.91C187.907 228.981 188.101 229.044 188.294 229.099C188.969 229.29 189.627 229.383 190.263 229.398C190.354 229.4 190.444 229.401 190.534 229.4C190.624 229.399 190.713 229.397 190.802 229.393C190.98 229.385 191.155 229.372 191.329 229.353C191.589 229.325 191.845 229.286 192.096 229.235C192.429 229.169 192.754 229.084 193.068 228.985C193.381 228.886 193.684 228.773 193.976 228.649C194.194 228.557 194.406 228.459 194.611 228.357C194.747 228.289 194.88 228.219 195.01 228.147C195.205 228.041 195.393 227.931 195.572 227.82C195.692 227.746 195.808 227.672 195.921 227.597C196.033 227.523 196.142 227.448 196.247 227.374C196.352 227.3 196.453 227.227 196.55 227.154C196.842 226.936 197.097 226.727 197.314 226.54C197.53 226.353 197.706 226.189 197.838 226.059C197.866 226.032 197.882 226.001 197.888 225.968C197.906 225.872 197.834 225.766 197.718 225.766ZM168.429 225.766H156.626L162.6 213.621C162.628 213.625 162.655 213.63 162.684 213.63C162.721 213.63 162.758 213.625 162.794 213.618L168.429 225.766ZM190.583 213.623C190.607 213.626 190.631 213.63 190.657 213.63C190.698 213.63 190.738 213.625 190.776 213.617L196.412 225.766H184.609L190.583 213.623Z" fill="white"/>
<path d="M246.27 205.395H215.465C214.798 205.395 214.258 205.935 214.258 206.602V211.962C214.258 212.629 214.798 213.169 215.465 213.169H246.269C246.936 213.169 247.477 212.629 247.477 211.962V206.602C247.477 205.935 246.936 205.395 246.27 205.395Z" fill="#D2DDFC"/>
<path d="M255.52 205.395H296.191C296.857 205.395 297.397 205.935 297.397 206.601V211.962C297.397 212.629 296.857 213.169 296.191 213.169H255.52C254.853 213.169 254.312 212.629 254.312 211.962V206.601C254.312 205.935 254.853 205.395 255.52 205.395Z" fill="#D2DDFC"/>
<path d="M304.028 205.395H326.308C326.975 205.395 327.515 205.935 327.515 206.601V211.962C327.515 212.629 326.975 213.169 326.308 213.169H304.028C303.361 213.169 302.82 212.629 302.82 211.962V206.601C302.82 205.935 303.361 205.395 304.028 205.395Z" fill="#D2DDFC"/>
<path d="M236.286 221.244H215.465C214.798 221.244 214.258 221.785 214.258 222.451V227.812C214.258 228.479 214.798 229.019 215.465 229.019H236.286C236.953 229.019 237.494 228.479 237.494 227.812V222.452C237.494 221.785 236.953 221.244 236.286 221.244Z" fill="#D2DDFC"/>
<path d="M281.937 221.244H245.645C244.978 221.244 244.438 221.785 244.438 222.451V227.812C244.438 228.479 244.978 229.019 245.644 229.019H281.937C282.604 229.019 283.144 228.479 283.144 227.812V222.451C283.144 221.785 282.604 221.244 281.937 221.244Z" fill="#D2DDFC"/>
<path d="M315.741 221.244H289.082C288.416 221.244 287.875 221.785 287.875 222.452V227.812C287.875 228.479 288.416 229.019 289.082 229.019H315.742C316.408 229.019 316.949 228.479 316.949 227.812V222.451C316.948 221.785 316.408 221.244 315.741 221.244Z" fill="#D2DDFC"/>
<path d="M337.882 221.244H326.531C325.901 221.244 325.391 221.755 325.391 222.385V227.878C325.391 228.508 325.901 229.019 326.531 229.019H337.882C338.511 229.019 339.022 228.508 339.022 227.878V222.385C339.022 221.755 338.512 221.244 337.882 221.244Z" fill="#D2DDFC"/>
<path d="M273.52 394.803H314.191C314.857 394.803 315.397 395.343 315.397 396.01V401.37C315.397 402.037 314.857 402.577 314.191 402.577H273.52C272.853 402.577 272.312 402.037 272.312 401.37V396.01C272.313 395.343 272.853 394.803 273.52 394.803Z" fill="#D2DDFC"/>
<path d="M322.035 394.803H344.316C344.983 394.803 345.523 395.343 345.523 396.01V401.37C345.523 402.037 344.982 402.577 344.316 402.577H322.035C321.369 402.577 320.828 402.037 320.828 401.37V396.01C320.828 395.343 321.369 394.803 322.035 394.803Z" fill="#D2DDFC"/>
<path d="M198.247 320.709H152.041C151.216 320.709 150.547 321.378 150.547 322.203V326.99C150.547 327.815 151.216 328.484 152.041 328.484H198.247C199.072 328.484 199.741 327.815 199.741 326.99V322.203C199.741 321.378 199.072 320.709 198.247 320.709Z" fill="#D2DDFC"/>
<path d="M237.893 320.709H208.682C207.857 320.709 207.188 321.378 207.188 322.203V326.99C207.188 327.816 207.857 328.485 208.682 328.485H237.893C238.718 328.485 239.387 327.816 239.387 326.99V322.203C239.387 321.378 238.718 320.709 237.893 320.709Z" fill="#D2DDFC"/>
<path d="M212.289 336.857H152.041C151.216 336.857 150.547 337.526 150.547 338.352V343.138C150.547 343.964 151.216 344.633 152.041 344.633H212.29C213.115 344.633 213.784 343.964 213.784 343.139V338.352C213.784 337.526 213.115 336.857 212.289 336.857Z" fill="#D2DDFC"/>
<path d="M344.197 336.857H242.994C242.264 336.857 241.672 337.449 241.672 338.18V343.31C241.672 344.041 242.264 344.633 242.994 344.633H344.197C344.928 344.633 345.52 344.041 345.52 343.31V338.18C345.52 337.45 344.928 336.857 344.197 336.857Z" fill="#D2DDFC"/>
<path d="M240.326 336.857H222.385C221.56 336.857 220.891 337.526 220.891 338.352V343.138C220.891 343.964 221.56 344.633 222.385 344.633H240.326C241.152 344.633 241.821 343.964 241.821 343.138V338.352C241.82 337.526 241.151 336.857 240.326 336.857Z" fill="#D2DDFC"/>
<path d="M198.247 353.006H152.041C151.216 353.006 150.547 353.675 150.547 354.5V359.286C150.547 360.112 151.216 360.78 152.041 360.78H198.247C199.072 360.78 199.741 360.112 199.741 359.286V354.5C199.741 353.675 199.072 353.006 198.247 353.006Z" fill="#D2DDFC"/>
<path d="M322.389 353.006H282.877C282.112 353.006 281.492 353.626 281.492 354.391V359.395C281.492 360.16 282.113 360.78 282.877 360.78H322.389C323.154 360.78 323.774 360.16 323.774 359.395V354.391C323.775 353.626 323.154 353.006 322.389 353.006Z" fill="#D2DDFC"/>
<path d="M276.241 353.006H208.9C208.075 353.006 207.406 353.675 207.406 354.5V359.286C207.406 360.112 208.075 360.781 208.901 360.781H276.241C277.066 360.781 277.735 360.112 277.735 359.286V354.5C277.735 353.675 277.066 353.006 276.241 353.006Z" fill="#D2DDFC"/>
<path d="M347.297 353.006H332.235C331.449 353.006 330.812 353.643 330.812 354.428V359.359C330.812 360.144 331.449 360.781 332.235 360.781H347.297C348.082 360.781 348.719 360.144 348.719 359.359V354.428C348.719 353.642 348.082 353.006 347.297 353.006Z" fill="#D2DDFC"/>
<path d="M231.431 287.476H152.041C151.216 287.476 150.547 286.807 150.547 285.982V281.195C150.547 280.37 151.216 279.701 152.041 279.701H231.431C232.256 279.701 232.925 280.37 232.925 281.196V285.982C232.925 286.807 232.256 287.476 231.431 287.476Z" fill="#D2DDFC"/>
<path d="M264.977 287.476H244.618C243.793 287.476 243.125 286.808 243.125 285.983V281.194C243.125 280.37 243.793 279.701 244.618 279.701H264.977C265.801 279.701 266.47 280.37 266.47 281.194V285.983C266.47 286.808 265.802 287.476 264.977 287.476Z" fill="#D2DDFC"/>
<path d="M193.462 303.622H152.041C151.216 303.622 150.547 302.953 150.547 302.128V297.342C150.547 296.517 151.216 295.848 152.041 295.848H193.462C194.287 295.848 194.956 296.517 194.956 297.342V302.128C194.956 302.953 194.287 303.622 193.462 303.622Z" fill="#D2DDFC"/>
<path d="M309.384 303.622H267.963C267.138 303.622 266.469 302.953 266.469 302.128V297.342C266.469 296.517 267.138 295.848 267.963 295.848H309.385C310.21 295.848 310.878 296.517 310.878 297.341V302.128C310.878 302.953 310.209 303.622 309.384 303.622Z" fill="#D2DDFC"/>
<path d="M253.437 303.623H205.979C205.153 303.623 204.484 302.954 204.484 302.128V297.342C204.484 296.517 205.153 295.848 205.979 295.848H253.437C254.262 295.848 254.931 296.517 254.931 297.342V302.128C254.931 302.954 254.262 303.623 253.437 303.623Z" fill="#D2DDFC"/>
<path d="M338.233 303.623H320.291C319.466 303.623 318.797 302.954 318.797 302.129V297.342C318.797 296.517 319.466 295.848 320.291 295.848H338.233C339.058 295.848 339.727 296.517 339.727 297.342V302.128C339.727 302.953 339.058 303.623 338.233 303.623Z" fill="#D2DDFC"/>
<path d="M202.048 271.327H152.041C151.216 271.327 150.547 270.658 150.547 269.833V265.047C150.547 264.222 151.216 263.553 152.041 263.553H202.048C202.874 263.553 203.543 264.222 203.543 265.047V269.833C203.543 270.658 202.874 271.327 202.048 271.327Z" fill="#D2DDFC"/>
<path d="M336.618 271.327H218.588C217.763 271.327 217.094 270.658 217.094 269.833V265.047C217.094 264.222 217.763 263.553 218.588 263.553H336.618C337.443 263.553 338.112 264.222 338.112 265.047V269.833C338.112 270.658 337.443 271.327 336.618 271.327Z" fill="#D2DDFC"/>
<path d="M345.517 164.547H150.547V184.178H345.517V164.547Z" fill="#D2DDFC"/>
<path d="M484.078 207.643H517.37V209.978H485.106L469.888 226.616H438.938V224.28H468.86L484.078 207.643Z" fill="#BDBDDB"/>
<path d="M519.22 214.395C522.244 213.904 524.297 211.055 523.807 208.032C523.316 205.008 520.467 202.955 517.443 203.445C514.42 203.936 512.367 206.785 512.857 209.809C513.348 212.832 516.197 214.885 519.22 214.395Z" fill="#BDBDDB"/>
<path d="M520.354 210.97C521.482 209.842 521.482 208.013 520.354 206.885C519.226 205.757 517.397 205.757 516.269 206.885C515.141 208.013 515.141 209.842 516.269 210.97C517.397 212.098 519.226 212.098 520.354 210.97Z" fill="#D2D2EA"/>
<path d="M460.907 244.941H495.225V242.395H461.967L446.28 224.262H414.375V226.807H445.22L460.907 244.941Z" fill="#BDBDDB"/>
<path d="M500.533 247.819C502.893 245.458 502.893 241.631 500.533 239.271C498.172 236.91 494.345 236.91 491.985 239.271C489.624 241.631 489.624 245.458 491.985 247.819C494.345 250.179 498.172 250.179 500.533 247.819Z" fill="#BDBDDB"/>
<path d="M498.491 245.771C499.72 244.541 499.72 242.548 498.491 241.319C497.261 240.089 495.268 240.089 494.039 241.319C492.809 242.548 492.809 244.541 494.039 245.771C495.268 247 497.261 247 498.491 245.771Z" fill="#D2D2EA"/>
<path d="M487.929 235.015C489.358 234.783 490.329 233.436 490.097 232.006C489.865 230.577 488.518 229.606 487.089 229.838C485.659 230.07 484.688 231.417 484.92 232.846C485.152 234.276 486.499 235.247 487.929 235.015Z" fill="#BDBDDB"/>
<path d="M479.843 234.943C481.253 234.61 482.126 233.198 481.793 231.788C481.46 230.379 480.048 229.506 478.638 229.839C477.229 230.172 476.356 231.584 476.689 232.993C477.021 234.403 478.434 235.276 479.843 234.943Z" fill="#BDBDDB"/>
<path d="M472.86 234.288C473.884 233.264 473.884 231.603 472.86 230.579C471.836 229.555 470.175 229.555 469.151 230.579C468.127 231.603 468.127 233.264 469.151 234.288C470.175 235.312 471.836 235.312 472.86 234.288Z" fill="#BDBDDB"/>
<path d="M341.82 436.779H235.899C233.431 436.779 231.43 438.78 231.43 441.249V453.233H346.289V441.249C346.289 438.78 344.288 436.779 341.82 436.779Z" fill="#1C3766"/>
<path d="M337.277 431.717H240.453V436.779H337.277V431.717Z" fill="#6094CC"/>
<path d="M325.362 370.418C323.197 374.883 324.89 380.262 329.223 382.681L452.12 451.279C458.302 454.729 466.112 452.433 469.442 446.186C472.792 439.903 470.297 432.095 463.925 428.919L337.965 366.124C333.301 363.8 327.637 365.729 325.362 370.418Z" fill="#7DA6DA"/>
<path d="M453.921 451.265L465.263 430.65C466.275 428.81 465.604 426.499 463.765 425.487C461.926 424.475 459.615 425.146 458.603 426.985L447.261 447.6C446.249 449.439 446.919 451.75 448.758 452.762C450.598 453.774 452.909 453.104 453.921 451.265Z" fill="#6094CC"/>
<path d="M345.754 336.61L309.462 404.274L273.336 385.161L309.628 317.498L345.754 336.61Z" fill="#1C3766"/>
<path d="M339.714 355.969L322.266 388.499L323.757 389.288C325.739 390.336 328.41 389.203 329.724 386.755L342.417 363.088C343.73 360.641 343.188 357.807 341.206 356.757L339.714 355.969Z" fill="#6094CC"/>
<path d="M340.65 354.239L321.347 390.228C320.042 392.661 317.387 393.788 315.417 392.746L279.651 373.824C277.681 372.782 277.141 369.965 278.447 367.532L297.75 331.543C299.055 329.11 301.71 327.983 303.68 329.025L339.445 347.947C341.415 348.989 341.955 351.806 340.65 354.239Z" fill="#7DA6DA"/>
<path opacity="0.1" d="M339.441 347.947L336.232 346.25L312.203 391.048L312.433 391.17L315.41 392.746C317.38 393.788 320.035 392.66 321.34 390.228L340.643 354.238C341.948 351.806 341.409 348.99 339.441 347.947Z" fill="black"/>
<path d="M310.392 418.459L314.629 410.559C316.777 406.555 315.89 401.918 312.648 400.203L274.715 380.136C271.473 378.42 267.103 380.275 264.956 384.279L260.719 392.18C258.571 396.183 259.459 400.819 262.7 402.534L300.633 422.603C303.875 424.318 308.245 422.463 310.392 418.459Z" fill="#6094CC"/>
<path d="M354.666 337.314L358.903 329.414C361.051 325.41 360.163 320.775 356.922 319.059L318.989 298.991C315.747 297.275 311.377 299.131 309.229 303.135L304.992 311.035C302.844 315.039 303.732 319.675 306.974 321.391L344.907 341.458C348.149 343.174 352.518 341.319 354.666 337.314Z" fill="#6094CC"/>
<path d="M301.507 172.281L301.5 169.723L345.164 169.291L345.171 171.849L301.507 172.281Z" fill="#BDBDDB"/>
<path d="M303.77 176.192C306.623 174.429 307.506 170.687 305.743 167.834C303.98 164.981 300.238 164.097 297.385 165.86C294.532 167.623 293.648 171.366 295.411 174.219C297.174 177.072 300.916 177.956 303.77 176.192Z" fill="#BDBDDB"/>
<path d="M303.732 171.003C303.732 172.75 302.316 174.166 300.569 174.166C298.822 174.166 297.406 172.75 297.406 171.003C297.406 169.256 298.822 167.84 300.569 167.84C302.316 167.84 303.732 169.256 303.732 171.003Z" fill="#D2D2EA"/>
<path d="M321.417 192.302H289.102V189.478H320.418L335.19 169.361H365.232V172.186H336.188L321.417 192.302Z" fill="#BDBDDB"/>
<path d="M294.16 193.316C295.578 189.895 293.953 185.972 290.531 184.555C287.109 183.137 283.187 184.762 281.769 188.184C280.352 191.605 281.977 195.528 285.399 196.945C288.82 198.363 292.743 196.738 294.16 193.316Z" fill="#BDBDDB"/>
<path d="M291.446 190.752C291.446 188.823 289.883 187.26 287.954 187.26C286.025 187.26 284.461 188.823 284.461 190.752C284.461 192.681 286.025 194.245 287.954 194.245C289.883 194.245 291.446 192.681 291.446 190.752Z" fill="#D2D2EA"/>
<path d="M349.326 84.7341C349.973 84.7341 350.496 84.2101 350.496 83.564V65.0255C350.496 64.3794 349.972 63.8555 349.326 63.8555C348.68 63.8555 348.156 64.3794 348.156 65.0255V83.564C348.156 84.2101 348.68 84.7341 349.326 84.7341Z" fill="#E9F0FF"/>
<path d="M349.326 66.2448C350.646 66.2448 351.716 65.1752 351.716 63.8558C351.716 62.5364 350.646 61.4668 349.326 61.4668C348.007 61.4668 346.938 62.5364 346.938 63.8558C346.938 65.1752 348.007 66.2448 349.326 66.2448Z" fill="#003340"/>
<path d="M461.553 84.7341C462.199 84.7341 462.723 84.2101 462.723 83.564V65.0255C462.723 64.3794 462.199 63.8555 461.553 63.8555C460.907 63.8555 460.383 64.3794 460.383 65.0255V83.564C460.383 84.2101 460.907 84.7341 461.553 84.7341Z" fill="#E9F0FF"/>
<path d="M461.553 66.2448C462.872 66.2448 463.942 65.1752 463.942 63.8558C463.942 62.5364 462.872 61.4668 461.553 61.4668C460.234 61.4668 459.164 62.5364 459.164 63.8558C459.164 65.1752 460.234 66.2448 461.553 66.2448Z" fill="#003340"/>
<path d="M459.785 103.845C464.944 103.845 469.126 98.3237 469.126 91.5131C469.126 84.7025 464.944 79.1814 459.785 79.1814C454.627 79.1814 450.445 84.7025 450.445 91.5131C450.445 98.3237 454.627 103.845 459.785 103.845Z" fill="#003340"/>
<path d="M351.09 103.845C356.249 103.845 360.43 98.3237 360.43 91.5131C360.43 84.7025 356.249 79.1814 351.09 79.1814C345.932 79.1814 341.75 84.7025 341.75 91.5131C341.75 98.3237 345.932 103.845 351.09 103.845Z" fill="#003340"/>
<path d="M405.436 133.233C436.428 133.233 461.552 115.364 461.552 93.3214C461.552 71.279 436.428 53.4102 405.436 53.4102C374.444 53.4102 349.32 71.279 349.32 93.3214C349.32 115.364 374.444 133.233 405.436 133.233Z" fill="#DCDCEF"/>
<path d="M365.998 64.9355C358.808 71.6444 354.531 80.0168 354.531 89.1033C354.531 111.146 379.655 129.015 410.647 129.015C426.023 129.015 439.949 124.613 450.085 117.489C439.833 127.054 423.652 133.232 405.436 133.232C374.444 133.232 349.32 115.364 349.32 93.3205C349.32 82.2141 355.704 72.1716 365.998 64.9355Z" fill="#BDBDDB"/>
<path d="M405.441 123.123C428.583 123.123 447.343 112.281 447.343 98.9071C447.343 85.5332 428.583 74.6914 405.441 74.6914C382.299 74.6914 363.539 85.5332 363.539 98.9071C363.539 112.281 382.299 123.123 405.441 123.123Z" fill="#1C3766"/>
<path d="M397.531 54.7113C397.531 56.0009 401.076 57.0463 405.448 57.0463C409.82 57.0463 413.365 56.0009 413.365 54.7113C413.365 53.4217 409.814 53.0879 405.442 53.0879C401.07 53.0876 397.531 53.4217 397.531 54.7113Z" fill="#2A354F"/>
<path d="M425.32 100.711C427.982 100.711 430.14 97.4024 430.14 93.3206C430.14 89.2387 427.982 85.9297 425.32 85.9297C422.658 85.9297 420.5 89.2387 420.5 93.3206C420.5 97.4024 422.658 100.711 425.32 100.711Z" fill="#59FFFF"/>
<path d="M384.828 100.711C387.49 100.711 389.648 97.4024 389.648 93.3206C389.648 89.2387 387.49 85.9297 384.828 85.9297C382.166 85.9297 380.008 89.2387 380.008 93.3206C380.008 97.4024 382.166 100.711 384.828 100.711Z" fill="#59FFFF"/>
<path d="M398.454 114.832H412.424C412.912 114.832 413.307 114.436 413.307 113.948C413.307 113.46 412.912 113.064 412.424 113.064H398.454C397.966 113.064 397.57 113.46 397.57 113.948C397.57 114.436 397.966 114.832 398.454 114.832Z" fill="#59FFFF"/>
<path d="M458.411 183.815C458.411 218.553 434.695 251.73 405.44 251.73C376.185 251.73 352.469 218.553 352.469 183.815C352.469 149.076 376.185 135.943 405.44 135.943C434.695 135.943 458.411 149.076 458.411 183.815Z" fill="#DCDCEF"/>
<path d="M406.511 251.693C435.269 250.892 458.411 218.126 458.411 183.815C458.411 149.076 434.694 135.943 405.44 135.943C392.137 135.943 379.99 138.671 370.688 144.898C373.246 153.816 382.018 171.258 411.196 167.449C448.055 162.635 471.952 194.639 406.511 251.693Z" fill="#BDBDDB"/>
<path d="M399.746 208.851H411.131C417.593 208.851 422.831 203.613 422.831 197.151V181.193H388.047V197.151C388.047 203.612 393.285 208.851 399.746 208.851Z" fill="#003340"/>
<path d="M394.232 193.669H416.641C417.132 193.669 417.53 193.271 417.53 192.78V190.357C417.53 189.866 417.132 189.469 416.641 189.469H394.232C393.741 189.469 393.344 189.866 393.344 190.357V192.78C393.344 193.271 393.741 193.669 394.232 193.669Z" fill="#59FFFF"/>
<path d="M87.7959 248.945C91.6942 248.765 95.4176 247.185 98.4193 244.436C98.4193 244.436 100.542 238.087 96.7698 229.836C93.2527 222.144 95.76 207.419 94.0695 202.402C94.0224 202.281 93.6896 201.023 93.6409 200.902C93.4994 200.548 93.3414 200.204 93.1735 199.865C92.8848 199.279 93.0184 195.686 92.6769 194.946C87.5676 191.358 84.0181 187.926 77.3016 187.4C75.7211 187.277 72.735 185.074 72.0771 186.769C68.4618 186.721 65.0484 188.729 62.9636 192.133C58.618 199.227 60.3308 210.786 55.734 217.617C53.0989 221.532 48.5498 223.619 47.4729 228.697C46.878 231.503 47.533 234.71 48.7373 237.464C49.9417 240.219 51.657 242.609 53.3523 244.965C52.6658 243.046 52.4127 240.94 52.6331 238.979C54.1821 243.132 56.0834 247.723 59.4561 249.464C62.3577 250.962 65.5072 249.856 68.4952 250.903C66.5914 250.334 64.8541 248.474 64.0822 246.179C67.4851 248.125 71.2473 248.792 74.7084 248.064C80.3185 249.376 86.0453 248.467 90.8424 245.504C90.0917 246.964 89.0384 248.154 87.7959 248.945Z" fill="#282633"/>
<path d="M86.106 229.811C86.3438 233.282 80.943 235.808 78.0516 236.006C75.1602 236.204 69.9358 234.405 69.6983 230.934C69.4605 227.463 73.1756 227.826 77.7063 227.516C82.2376 227.206 85.8685 226.339 86.106 229.811Z" fill="#FEB48C"/>
<path d="M79.9442 236.813L76.974 236.911C73.8089 237.128 72.0294 233.032 71.8125 229.866L71.1229 219.795C70.9061 216.63 73.3186 213.863 76.4837 213.646C79.6489 213.43 82.4159 215.842 82.6327 219.007L83.3224 229.078C83.5389 232.243 83.1093 236.596 79.9442 236.813Z" fill="#FCC2B4"/>
<path d="M71.5998 226.761C71.397 223.802 71.1229 219.795 71.1229 219.795C70.9061 216.63 73.3186 213.863 76.4837 213.646C79.6489 213.43 82.4159 215.842 82.6327 219.007C82.6327 219.007 82.7644 220.926 82.9466 223.588C82.9466 223.588 80.836 226.487 77.9571 227.246C74.5859 228.135 71.5998 226.761 71.5998 226.761Z" fill="#FBA896"/>
<path d="M70.6258 425.444C70.6258 425.444 67.7309 425.366 66.5361 429.922C65.3416 434.478 62.4826 444.264 62.3138 445.268C62.1453 446.272 64.3302 451.658 67.0865 452.973C70.7002 454.696 77.4059 447.405 77.2476 444.255C77.0139 439.604 76.7258 432.076 76.5748 428.232C76.4228 424.389 71.9036 425.094 70.6258 425.444Z" fill="#252933"/>
<path d="M77.5055 370.886C74.1229 370.661 69.1929 370.137 65.1375 369.672C63.1549 374.33 60.9388 380.207 60.4819 384.127C59.6934 390.897 66.9101 419.678 68.1106 428.861C67.8178 429.208 67.449 429.87 67.1348 431.135C66.4999 433.692 65.1716 442.813 65.1716 442.813C65.1716 442.813 70.9352 444.636 74.7079 442.813C74.7079 442.813 75.74 432.219 75.7374 429.034C75.7368 428.38 75.4481 427.935 75.0011 427.635C75.1645 419.179 75.6783 392.736 75.7705 390.437C75.8376 388.767 76.7796 378.585 77.5055 370.886Z" fill="#FCC2B4"/>
<path d="M100.187 440.43C99.0569 438.917 90.7453 426.414 90.7453 426.414C90.7453 426.414 84.4907 425.509 83.7795 426.291C83.7795 426.291 81.6995 430.21 82.226 432.932L82.9602 451.73H84.5966L85.2258 436.037C85.9612 440.659 88.1382 450.368 88.6984 451.73H104.08C106.38 451.73 107.856 450.13 106.782 448.224C105.278 445.553 101.308 441.932 100.187 440.43Z" fill="#252933"/>
<path d="M92.1405 427.03C92.7112 416.593 94.5438 383.032 94.6366 380.72C94.6974 379.208 94.691 373.68 94.6732 369.025C91.3936 369.83 86.8086 370.736 82.179 370.948C81.1247 374.778 80.0628 379.162 79.6762 382.479C78.9087 389.066 82.8566 417.78 84.2046 428.01L84.6297 431.957C84.6297 431.957 91.0343 441.893 93.1334 443.858C94.2913 444.942 100.736 443.793 100.952 443.18C101.202 442.466 96.9236 437.453 95.6798 435C94.7845 433.234 93.4952 429.633 92.1405 427.03Z" fill="#FCC2B4"/>
<path d="M104.568 307.566C103.778 304.237 100.184 295.563 95.9752 290.328C95.5365 290.932 95.036 291.337 94.6653 291.442C93.8695 291.666 93.1809 291.874 92.544 292.064C91.2509 292.658 89.6412 293.009 87.8598 293.177C87.4926 293.231 87.1043 293.281 86.6856 293.326C83.3291 293.686 79.944 293.786 76.5684 293.681C73.0554 293.573 67.3233 291.323 63.8987 290.585C63.8898 290.583 63.8825 290.582 63.8736 290.58C61.1473 294.638 57.3949 300.927 55.8627 306.765C52.2751 320.438 58.046 368.82 58.046 368.82C58.046 368.82 75.0629 370.982 80.1036 370.998C89.4613 371.028 99.4284 367.691 99.4284 367.691C99.4284 367.691 105.682 312.256 104.568 307.566Z" fill="#253A55"/>
<path d="M68.2034 370.014C68.7591 370.074 69.319 370.135 69.8792 370.193C70.2534 370.233 70.6273 370.272 70.9997 370.309C74.6964 370.687 78.2287 370.99 80.1036 370.996C80.1214 370.996 80.1395 370.996 80.1573 370.996C80.6425 370.996 81.1296 370.985 81.6164 370.969C82.0872 370.951 82.5581 370.927 83.0283 370.897C83.029 370.897 83.029 370.897 83.0296 370.897C76.3904 370.471 63.3846 368.818 63.3846 368.818C63.3846 368.818 57.6133 320.436 61.2013 306.764C62.5834 301.496 65.7743 295.862 68.3874 291.829C66.73 291.331 65.1572 290.854 63.8987 290.584C63.8898 290.582 63.8825 290.58 63.8736 290.578C63.8733 290.579 63.873 290.579 63.8727 290.58C63.2024 291.578 62.4699 292.712 61.7237 293.94C61.7008 293.978 61.6776 294.016 61.6547 294.054C61.2929 294.651 60.9279 295.27 60.5661 295.907C60.5559 295.925 60.546 295.942 60.5359 295.96C60.1721 296.601 59.8122 297.26 59.4596 297.932C59.4317 297.985 59.4043 298.038 59.3767 298.091C59.0415 298.734 58.715 299.388 58.4009 300.048C58.3761 300.101 58.3503 300.153 58.3252 300.207C58.0003 300.897 57.6887 301.595 57.3978 302.296C57.3812 302.336 57.366 302.376 57.3495 302.416C57.0709 303.093 56.8124 303.772 56.5762 304.45C56.5536 304.514 56.5308 304.579 56.5088 304.644C56.2665 305.353 56.0475 306.059 55.8637 306.76C55.8634 306.761 55.8631 306.762 55.8628 306.764C55.0221 309.968 54.695 315.076 54.6876 321.022C54.6876 321.024 54.6876 321.026 54.6876 321.028C54.6835 324.215 54.7713 327.644 54.9207 331.149C54.9747 332.418 55.0367 333.696 55.1057 334.977C55.108 335.02 55.1105 335.064 55.1131 335.107C55.1582 335.942 55.2062 336.778 55.2568 337.613C55.2847 338.076 55.3134 338.538 55.3426 338.999C56.3203 354.349 58.0461 368.819 58.0461 368.819C58.0461 368.819 62.9077 369.436 68.2034 370.014Z" fill="#1D3249"/>
<path d="M117.139 270.112C116.433 271.892 108.688 276.386 105.605 272.311C100.337 262.788 94.6008 249.591 89.3853 240.158C88.2967 238.19 90.4231 230.688 90.7884 229.836C91.2723 228.708 99.3601 230.208 100.721 232.294C107.795 243.14 112.568 253.895 114.367 258.601C116.097 263.124 117.846 268.333 117.139 270.112Z" fill="#37A6FF"/>
<path d="M62.5073 275.162C61.6158 279.214 62.1671 284.821 61.1786 287.237C60.1905 289.653 60.8556 289.929 63.8967 290.583C67.3216 291.32 73.0534 293.571 76.5664 293.679C79.942 293.784 83.3271 293.684 86.6836 293.324C89.9969 292.968 91.4693 292.342 94.6633 291.44C95.4976 291.205 97.0066 289.512 96.9242 287.237C96.8807 286.026 94.5225 277.386 94.0506 274.171C93.2071 268.428 94.7584 261.118 94.7584 261.118C96.8161 258.491 99.8868 254.104 100.874 250.971C100.026 243.822 95.8019 235.436 95.3173 230.217L84.8783 226.74C84.8783 226.74 82.055 237.096 78.248 237.096C74.4409 237.096 70.2069 226.74 70.2069 226.74C66.0718 229.163 59.7676 230.217 55.6325 232.639C55.1479 237.858 55.684 244.752 55.684 249.592C55.684 254.432 64.2623 267.186 62.5073 275.162Z" fill="#37A6FF"/>
<path d="M93.4179 261.381C93.2049 265.764 91.4813 272.268 92.7579 276.651C93.8217 280.237 88.6396 280.972 87.1055 283.07C89.0205 282.472 91.503 280.59 93.4179 281.188C95.75 281.887 96.4826 288.192 94.78 290.383C90.9501 295.363 76.051 292.781 70.0075 291.319C65.9258 290.332 62.7206 289.269 63.0249 285.842C63.3603 282.064 65.6155 272.113 72.8496 270.121C60.7217 268.327 61.1474 255.777 58.5941 246.813C58.0825 244.737 56.7516 243.046 55.4763 241.328C55.5501 244.284 55.6817 247.191 55.6817 249.592C55.6817 254.432 64.2604 267.185 62.5051 275.162C61.6135 279.213 62.1649 284.82 61.1767 287.236C60.1882 289.653 60.8534 289.929 63.8948 290.583C67.3197 291.32 73.0515 293.571 76.5645 293.679C79.94 293.783 83.3252 293.684 86.6817 293.323C89.995 292.967 91.4673 292.342 94.6614 291.44C95.4957 291.204 97.0046 289.512 96.9223 287.236C96.8781 286.026 94.5205 277.386 94.0487 274.171C93.2052 268.427 94.7565 261.118 94.7565 261.118C96.8142 258.49 99.8849 254.104 100.872 250.971C100.628 248.913 100.104 246.754 99.4703 244.596C98.836 251.02 99.118 257.054 93.4179 261.381Z" fill="#1696E6"/>
<path d="M78.3346 244.265C78.3346 244.47 78.1565 244.637 77.9368 244.637C77.7171 244.637 77.5391 244.47 77.5391 244.265C77.5391 244.059 77.7171 243.893 77.9368 243.893C78.1562 243.893 78.3346 244.059 78.3346 244.265Z" fill="white"/>
<path d="M79.9674 254.566C79.9674 254.771 79.789 254.938 79.5696 254.938C79.3499 254.938 79.1719 254.771 79.1719 254.566C79.1719 254.36 79.3499 254.193 79.5696 254.193C79.789 254.193 79.9674 254.36 79.9674 254.566Z" fill="white"/>
<path d="M80.5611 264.204C80.5611 264.41 80.3831 264.577 80.1634 264.577C79.9437 264.577 79.7656 264.41 79.7656 264.204C79.7656 263.999 79.9437 263.832 80.1634 263.832C80.3831 263.832 80.5611 263.999 80.5611 264.204Z" fill="white"/>
<path d="M80.897 275.195C80.897 275.4 80.7193 275.567 80.4993 275.567C80.2796 275.567 80.1016 275.4 80.1016 275.195C80.1016 274.989 80.2796 274.822 80.4993 274.822C80.7193 274.822 80.897 274.989 80.897 275.195Z" fill="white"/>
<path d="M82.3967 288.693C82.3967 288.898 82.2187 289.065 81.999 289.065C81.7796 289.065 81.6016 288.898 81.6016 288.693C81.6016 288.487 81.7796 288.32 81.999 288.32C82.2187 288.32 82.3967 288.487 82.3967 288.693Z" fill="white"/>
<path d="M78.4519 237.742C78.6214 238.821 78.7915 239.9 78.9619 240.979C79.325 243.277 79.69 245.574 80.0582 247.871C80.4022 250.015 80.7459 252.158 81.108 254.299C81.2053 254.874 81.2988 255.45 81.4129 256.022C81.5188 256.551 81.535 257.089 81.5493 257.626C81.6104 259.923 81.5436 262.225 81.4988 264.522C81.4517 266.936 81.384 269.35 81.3843 271.765C81.3843 272.419 81.3691 273.082 81.44 273.734C81.495 274.238 81.5643 274.742 81.6259 275.246C81.8768 277.295 82.1254 279.344 82.3741 281.393C82.6656 283.795 82.9572 286.197 83.2481 288.599C83.4261 290.067 83.6035 291.535 83.7816 293.003C83.7902 293.074 83.7988 293.145 83.8074 293.217C83.8423 293.505 83.36 293.502 83.3257 293.217C83.1985 292.168 83.0716 291.118 82.9448 290.069C82.6691 287.795 82.3935 285.521 82.1175 283.247C81.8431 280.985 81.5687 278.723 81.2928 276.462C81.1506 275.296 80.9465 274.122 80.9154 272.948C80.8584 270.808 80.9347 268.662 80.9774 266.521C81.0273 264.025 81.0915 261.528 81.0855 259.031C81.0835 258.233 81.087 257.43 81.02 256.634C80.9885 256.264 80.8909 255.845 80.8158 255.418C80.4817 253.523 80.1793 251.623 79.8725 249.724C79.4891 247.348 79.111 244.972 78.7343 242.596C78.4958 241.092 78.2586 239.587 78.0224 238.082C78.0106 238.009 77.9989 237.935 77.9874 237.862C77.9426 237.577 78.4068 237.455 78.4519 237.742Z" fill="white"/>
<path d="M83.4508 226.072C83.4508 226.072 82.0245 235.495 78.7656 237.033C78.7656 237.033 82.8626 237.044 83.109 237.275C83.4823 237.625 86.4277 241.516 86.4277 241.516C86.4277 241.516 87.1237 229.653 87.1237 228.535C87.1234 227.691 85.2996 226.538 83.4508 226.072Z" fill="#ECF4F8"/>
<path d="M71.3622 226.277C71.3622 226.277 75.6378 236.554 79.1425 237.035C79.1425 237.035 74.6147 237.307 74.0863 238.021C73.4638 238.862 71.6515 242.355 71.6515 242.355C71.6515 242.355 67.1094 229.246 67.1094 228.21C67.1094 227.174 71.3622 226.277 71.3622 226.277Z" fill="#ECF4F8"/>
<path d="M44.6353 275.834C45.8435 277.632 51.253 280.739 55.2323 278.107C58.5268 267.419 62.9933 252.126 66.2541 241.541C66.9348 239.332 64.0469 232.192 63.5029 231.354C62.7831 230.246 53.9742 232.507 53.2531 234.946C49.3666 248.091 45.3176 260.145 42.9375 271.636C42.9375 271.636 43.4268 274.036 44.6353 275.834Z" fill="#37A6FF"/>
<path d="M91.3457 209.809C91.3457 209.809 95.9562 204.681 93.5971 199.605C93.5971 199.605 91.3279 198.534 91.3438 201.035C91.3594 203.536 91.3457 209.809 91.3457 209.809Z" fill="#282633"/>
<path d="M79.0149 189.463C85.9737 189.696 93.4462 192.07 92.6034 202.654C92.6034 202.654 90.7491 213.48 90.1733 215.837C89.5976 218.194 83.7853 226.432 78.3713 226.25C72.5619 226.056 66.0746 217.407 65.6718 215.017C65.269 212.627 64.3135 202.066 64.3135 202.066C64.2089 191.448 72.0557 189.23 79.0149 189.463Z" fill="#FCC2B4"/>
<path d="M83.6329 210.431C84.176 211.075 84.6414 211.743 85.1857 212.11C85.3692 212.234 85.4032 212.51 85.2662 212.73C84.7002 213.64 83.2431 214.428 82.3567 214.845C82.2273 214.906 82.144 214.738 82.2546 214.64C83.1922 213.81 83.6208 213.209 83.8084 212.881C83.9019 212.718 83.9194 212.531 83.8599 212.374C83.7232 212.014 83.4529 211.279 83.2819 210.668C83.2224 210.458 83.4984 210.272 83.6329 210.431Z" fill="#FB9988"/>
<path d="M79.7011 205.95C79.7723 205.854 79.51 205.491 78.8983 205.135C78.3009 204.779 77.3067 204.471 76.2276 204.564C75.1071 204.659 74.2096 205.13 73.6716 205.584C73.4007 205.811 73.216 206.024 73.1073 206.197C73.0036 206.364 72.9769 206.478 73.0192 206.524C73.0625 206.572 73.1788 206.54 73.3496 206.461C73.5133 206.382 73.7429 206.269 74.0258 206.131C74.581 205.862 75.3939 205.562 76.2858 205.485C77.2186 205.405 78.0408 205.564 78.6423 205.735C79.242 205.902 79.6238 206.06 79.7011 205.95Z" fill="#342D2B"/>
<path d="M84.9248 205.774C85.0145 205.868 85.3461 205.648 85.8796 205.381C86.4147 205.11 87.1571 204.813 88.0419 204.731C88.8877 204.654 89.6959 204.811 90.2577 204.981C90.5448 205.069 90.7772 205.14 90.9435 205.19C91.1155 205.238 91.2296 205.25 91.2624 205.196C91.2942 205.142 91.2509 205.035 91.1272 204.888C90.9975 204.737 90.7902 204.558 90.5009 204.38C89.9251 204.026 89.0104 203.716 87.9481 203.813C86.9244 203.906 86.0453 204.38 85.5439 204.833C85.0294 205.289 84.8428 205.692 84.9248 205.774Z" fill="#342D2B"/>
<path d="M78.4465 210.102C78.4777 210.975 77.9906 211.701 77.3585 211.724C76.7265 211.746 76.1891 211.057 76.1577 210.183C76.1265 209.31 76.6136 208.584 77.246 208.561C77.8781 208.538 78.4154 209.228 78.4465 210.102Z" fill="#342D2B"/>
<path d="M89.3437 208.692C89.3716 209.478 88.9383 210.131 88.3752 210.151C87.8125 210.171 87.3336 209.55 87.306 208.765C87.278 207.979 87.7117 207.325 88.2741 207.305C88.8369 207.285 89.3157 207.906 89.3437 208.692Z" fill="#342D2B"/>
<path d="M91.1733 191.966C92.461 193.777 93.1337 196.025 93.4434 198.233C93.7108 200.14 93.749 202.07 93.8529 203.994C89.0157 202.39 85.1334 199.913 81.8671 196.101C80.7874 200.101 77.5562 203.231 74.2251 205.894C70.7357 208.684 66.6587 208.42 62.5077 210.195C61.8091 207.056 61.1841 206.101 61.0664 202.896C60.9218 198.951 61.5627 194.892 63.568 191.455C65.5729 188.018 69.0744 185.279 73.1059 184.734C76.8087 184.233 80.8478 185.858 82.7774 188.914C84.997 188.109 87.7831 188.731 89.6306 190.283C90.223 190.78 90.7339 191.348 91.1733 191.966Z" fill="#282633"/>
<path d="M81.9311 193.932C80.6549 201.892 70.3438 208.547 70.3438 208.547C71.6944 207.747 72.9951 206.874 74.2201 205.894C77.5509 203.231 80.7821 200.101 81.8622 196.102C85.1284 199.914 89.0111 202.391 93.8479 203.994C93.8352 203.76 93.8234 203.526 93.8123 203.292C88.0871 201.335 84.4537 199.248 81.9311 193.932Z" fill="#312F3D"/>
<path d="M74.3971 184.646C73.9647 184.649 73.5332 184.677 73.1059 184.735C69.0747 185.28 65.5733 188.018 63.568 191.456C61.5627 194.893 60.9218 198.951 61.0664 202.896C61.1841 206.101 61.7923 209.262 62.4905 212.401C62.4905 212.401 62.5216 204.23 62.7776 200.207C63.376 193.472 67.3261 186.226 74.3971 184.646Z" fill="#312F3D"/>
<path d="M91.1789 191.966C90.7395 191.348 90.2286 190.781 89.6363 190.283C87.7887 188.732 85.0026 188.109 82.783 188.915C81.943 187.585 80.7034 186.526 79.2656 185.795C81.1405 187.312 82.1783 188.488 82.4485 190.792C85.9643 187.971 89.4671 190.471 91.232 192.044C91.2139 192.018 91.197 191.992 91.1789 191.966Z" fill="#312F3D"/>
<path d="M78.7276 189.188C77.9747 196.241 75.2503 201.694 68.625 205.165C75.4404 201 77.5964 195.154 78.7276 189.188Z" fill="#312F3D"/>
<path d="M64.4531 202.901C68.1358 201.933 71.4733 199.619 73.6556 196.422C72.0135 199.809 68.4179 202.392 64.4531 202.901Z" fill="#312F3D"/>
<path d="M67.3415 216.28C65.3642 216.156 63.9109 215.039 63.1288 214.097C62.9523 213.885 62.8105 213.681 62.704 213.5C62.1269 212.516 61.9187 209.076 63.3606 208.256C64.371 207.683 65.1226 208.485 65.4819 209.018C65.4819 209.019 65.4819 209.02 65.4819 209.02C65.6351 209.246 65.7172 209.424 65.7172 209.424L67.3415 216.28Z" fill="#FFDABA"/>
<path d="M67.5724 216.376C65.5951 216.251 63.9145 215.039 63.1323 214.097C63.0643 214.001 63.0049 213.91 62.954 213.822C62.3772 212.837 62.1683 209.398 63.6105 208.579C64.4286 208.114 65.0775 208.552 65.4858 209.019C65.4858 209.02 65.4858 209.021 65.4858 209.021C65.639 209.247 65.721 209.425 65.721 209.425L67.5724 216.376Z" fill="#FCC2B4"/>
<path d="M62.9387 210.997C62.869 211.273 62.9193 211.559 63.0166 211.83C63.4286 212.98 64.6295 213.845 65.7791 214.648C65.4285 214.093 65.2933 213.462 65.3553 212.845C65.377 212.63 65.4215 212.416 65.4211 212.201C65.418 211.335 63.3466 209.364 62.9387 210.997Z" fill="#FBA896"/>
<path d="M66.3549 214.968C66.3549 214.968 66.3323 214.956 66.2897 214.933C66.2484 214.91 66.1813 214.879 66.1053 214.83C65.9508 214.733 65.7384 214.577 65.5368 214.345C65.3362 214.114 65.1524 213.803 65.0621 213.434C64.9804 213.066 64.9909 212.636 65.1896 212.219C65.2106 212.166 65.2405 212.116 65.2704 212.066L65.2926 212.029C65.298 212.02 65.2952 212.026 65.2958 212.024L65.2952 212.025L65.2965 212.025C65.2965 212.025 65.2984 212.027 65.2933 212.019L65.2742 211.986L65.2348 211.92C65.2078 211.878 65.1814 211.835 65.154 211.793C65.0443 211.625 64.9257 211.468 64.8046 211.322C64.6831 211.176 64.5576 211.041 64.4336 210.919C64.3083 210.797 64.1884 210.683 64.0692 210.599C63.9503 210.513 63.8199 210.459 63.6985 210.445C63.577 210.434 63.4623 210.462 63.3853 210.5C63.3077 210.539 63.2651 210.588 63.2476 210.625C63.2289 210.661 63.2305 210.683 63.2286 210.683C63.2286 210.683 63.2225 210.662 63.2314 210.622C63.2387 210.581 63.2689 210.519 63.3465 210.463C63.4231 210.407 63.5436 210.354 63.7045 210.348C63.8654 210.345 64.039 210.395 64.1945 210.477C64.3515 210.56 64.493 210.664 64.6421 210.779C64.7903 210.895 64.94 211.025 65.0844 211.171C65.2294 211.317 65.369 211.478 65.4961 211.653C65.5279 211.696 65.5584 211.741 65.589 211.786L65.6335 211.855L65.6926 211.952L65.7336 212.02C65.7238 212.043 65.7085 212.066 65.6955 212.089L65.6386 212.188C65.6131 212.231 65.5874 212.275 65.5696 212.321C65.3966 212.682 65.3629 213.059 65.4004 213.396C65.4462 213.733 65.5673 214.032 65.713 214.268C65.8595 214.505 66.0258 214.679 66.1498 214.795C66.2118 214.853 66.2678 214.893 66.3018 214.923C66.3358 214.953 66.3549 214.968 66.3549 214.968Z" fill="#FD7D6F"/>
<path d="M79.0427 218.217C78.9817 218.291 79.1642 218.577 79.6026 218.887C79.8201 219.043 80.1046 219.191 80.4369 219.317C80.7713 219.435 81.1548 219.527 81.5643 219.562C81.9741 219.593 82.3674 219.564 82.7165 219.5C83.065 219.43 83.3696 219.329 83.6093 219.21C84.1056 218.969 84.3084 218.726 84.2697 218.638C84.2255 218.538 83.8964 218.628 83.4421 218.707C83.2084 218.753 82.9302 218.79 82.623 218.817C82.315 218.836 81.9776 218.842 81.6244 218.816C81.2715 218.785 80.9395 218.725 80.6388 218.657C80.3402 218.582 80.0712 218.5 79.848 218.418C79.4001 218.258 79.1111 218.131 79.0427 218.217Z" fill="#FB9988"/>
<path d="M137.951 242.873C137.951 242.873 142.968 243.213 144.095 243.089C145.223 242.966 149.914 241.23 150.638 241.63C151.361 242.031 151.034 242.87 149.692 243.503C148.537 244.048 145.627 245.117 144.8 245.427C143.973 245.736 138.702 245.82 137.773 245.369C136.846 244.917 136.146 242.512 137.951 242.873Z" fill="#FCC2B4"/>
<path d="M136.535 239.367C136.535 239.367 142.423 239.541 145.396 239.485C148.37 239.429 151.701 239.68 151.951 240.609C152.202 241.537 149.465 241.321 146.701 241.482C143.937 241.643 137.927 242.156 136.884 241.7C135.842 241.244 135.128 239.264 136.535 239.367Z" fill="#FCC2B4"/>
<path d="M137.103 240.785C137.103 240.785 143.359 241.284 146.587 241.223C149.815 241.162 153.57 241.126 153.842 242.134C154.114 243.142 151.017 243.189 148.016 243.364C145.015 243.539 138.614 243.814 137.482 243.318C136.35 242.823 135.574 240.673 137.103 240.785Z" fill="#FCC2B4"/>
<path d="M128.415 241.743C128.254 243.23 129.286 245.221 131.203 246.096C132.161 246.536 133.895 246.587 135.454 246.542C137.02 246.486 138.434 246.371 138.966 246.196C139.995 245.842 141.565 245.559 141.009 243.693C140.735 242.765 138.041 238.031 136.741 236.994C135.46 235.963 128.494 241 128.415 241.743Z" fill="#FCC2B4"/>
<path d="M135.833 236.886C136.493 236.769 137.171 236.827 137.839 236.886C139.881 237.064 143.69 236.878 143.965 237.422C144.24 237.965 143.383 239.853 141.345 239.618C139.628 239.42 137.383 239.58 134.93 239.911C134.93 239.911 135.173 237.003 135.833 236.886Z" fill="#FCC2B4"/>
<path d="M136.959 243.195C138.123 243.595 142.605 244.426 143.528 244.13C144.06 243.962 144.827 243.237 145.695 242.616C146.555 241.975 147.518 241.445 148.117 241.381C148.608 241.318 149.166 241.576 149.501 241.866C149.838 242.171 149.945 242.503 149.604 242.644C148.878 242.937 147.616 243.853 146.46 244.812C145.281 245.759 144.222 246.756 143.235 246.807C142.415 246.839 141.44 246.887 140.377 246.735C139.123 246.665 136.941 246.567 135.629 245.996C134.864 245.388 136.113 242.91 136.959 243.195Z" fill="#FCC2B4"/>
<path d="M135.739 242.606C135.678 242.605 135.643 242.551 135.635 242.498C135.626 242.444 135.645 242.377 135.722 242.352C137.2 241.88 138.515 240.932 139.425 239.683C139.459 239.636 139.503 239.627 139.533 239.627C139.588 239.628 139.642 239.659 139.664 239.702C139.68 239.733 139.675 239.768 139.649 239.803C138.694 241.114 137.32 242.107 135.781 242.599C135.766 242.604 135.752 242.606 135.739 242.606Z" fill="#BA6549"/>
<path d="M138.314 243.536C138.291 243.528 138.278 243.505 138.282 243.482C138.287 243.456 138.312 243.439 138.338 243.443C138.369 243.449 141.475 244.038 142.561 244.136C143.498 244.221 143.858 243.947 145.048 243.04C145.23 242.901 145.431 242.748 145.657 242.579C147.341 241.317 148.051 241.323 148.942 241.476C149.797 241.623 149.828 242.471 149.829 242.48C149.83 242.506 149.809 242.528 149.783 242.529C149.756 242.529 149.735 242.509 149.734 242.482C149.733 242.451 149.703 241.704 148.926 241.57C148.059 241.421 147.367 241.416 145.715 242.655C145.489 242.824 145.287 242.977 145.105 243.116C143.893 244.04 143.527 244.319 142.552 244.231C141.462 244.132 138.351 243.543 138.32 243.537C138.318 243.536 138.315 243.536 138.314 243.536Z" fill="#BA6549"/>
<path d="M141.382 241.112L141.375 241.238L145.244 241.443L145.251 241.317L141.382 241.112Z" fill="#BA6549"/>
<path d="M115.477 271.643C125.329 258.577 131.822 250.833 133.82 244.607C134.675 241.934 129.811 239.968 127.991 242.043C127.991 242.043 115.36 252.326 107.078 263.753C107.239 264.873 114.166 271.671 115.477 271.643Z" fill="#FCC2B4"/>
<path d="M106.948 263.941C109.025 261.429 112.571 261.169 114.865 263.349C117.161 265.537 117.333 269.34 115.257 271.848C113.177 274.359 109.635 274.629 107.343 272.442C105.05 270.262 104.872 266.453 106.948 263.941Z" fill="#FCC2B4"/>
<path d="M69.2812 274.82L93.7812 271.253L116.386 239.363L92.2169 242.506L69.2812 274.82Z" fill="#E8E7F2"/>
<path d="M72.612 268.644L73.8418 267.942C73.8418 267.942 83.065 269.084 89.9166 260.651C89.9166 260.651 87.9549 260.944 83.2701 263.696L83.5044 263.169C83.5044 263.169 89.7119 260.241 91.3515 258.367C91.3515 258.367 89.1847 258.25 88.5406 258.66C88.0131 258.996 83.9527 260.862 82.4981 261.528C82.176 261.675 81.9818 261.764 81.9818 261.764C81.9818 261.764 81.9277 261.637 82.3255 261.437C83.9508 260.618 88.4331 258.498 88.9504 258.075C89.5946 257.548 90.473 256.494 90.473 256.494C90.473 256.494 90.1217 256.084 86.9595 257.372C83.7972 258.66 79.8738 259.597 79.0538 259.246C79.0538 259.246 79.9908 258.133 80.8108 257.782C81.6307 257.431 82.5089 255.791 82.5089 255.791C82.5089 255.791 76.9456 256.904 75.5988 258.251C74.2519 259.597 70.7969 263.345 70.7969 263.345L72.612 268.644Z" fill="#FCC2B4"/>
<path d="M51.9658 280.114C64.2142 274.125 71.9586 270.823 75.7917 266.952C77.4358 265.289 74.5638 261.994 72.4295 262.848C72.4295 262.848 59.1675 265.72 48.7043 271.084C48.401 271.977 50.9817 279.639 51.9658 280.114Z" fill="#FCC2B4"/>
<path d="M48.5327 271.174C51.0231 270.091 53.7555 271.236 54.6368 273.721C55.5163 276.212 54.2095 279.102 51.7213 280.182C49.2286 281.262 46.4963 280.126 45.6191 277.637C44.7377 275.152 46.0425 272.256 48.5327 271.174Z" fill="#FCC2B4"/>
<defs>
<linearGradient id="paint0_linear_79_2738" x1="391.078" y1="375.369" x2="401.417" y2="363.22" gradientUnits="userSpaceOnUse">
<stop stop-color="#A8F17E"/>
<stop offset="0.2016" stop-color="#A2EE7E"/>
<stop offset="0.4769" stop-color="#90E67C"/>
<stop offset="0.7934" stop-color="#74D87B"/>
<stop offset="1" stop-color="#5DCD79"/>
</linearGradient>
<linearGradient id="paint1_linear_79_2738" x1="410.227" y1="370.194" x2="420.615" y2="357.988" gradientUnits="userSpaceOnUse">
<stop stop-color="#A8F17E"/>
<stop offset="0.2016" stop-color="#A2EE7E"/>
<stop offset="0.4769" stop-color="#90E67C"/>
<stop offset="0.7934" stop-color="#74D87B"/>
<stop offset="1" stop-color="#5DCD79"/>
</linearGradient>
<linearGradient id="paint2_linear_79_2738" x1="400.339" y1="361.212" x2="408.474" y2="351.653" gradientUnits="userSpaceOnUse">
<stop stop-color="#A8F17E"/>
<stop offset="0.2016" stop-color="#A2EE7E"/>
<stop offset="0.4769" stop-color="#90E67C"/>
<stop offset="0.7934" stop-color="#74D87B"/>
<stop offset="1" stop-color="#5DCD79"/>
</linearGradient>
<linearGradient id="paint3_linear_79_2738" x1="426.044" y1="341.561" x2="435.719" y2="330.193" gradientUnits="userSpaceOnUse">
<stop stop-color="#A8F17E"/>
<stop offset="0.2016" stop-color="#A2EE7E"/>
<stop offset="0.4769" stop-color="#90E67C"/>
<stop offset="0.7934" stop-color="#74D87B"/>
<stop offset="1" stop-color="#5DCD79"/>
</linearGradient>
<linearGradient id="paint4_linear_79_2738" x1="416.651" y1="333.905" x2="424.786" y2="324.347" gradientUnits="userSpaceOnUse">
<stop stop-color="#A8F17E"/>
<stop offset="0.2016" stop-color="#A2EE7E"/>
<stop offset="0.4769" stop-color="#90E67C"/>
<stop offset="0.7934" stop-color="#74D87B"/>
<stop offset="1" stop-color="#5DCD79"/>
</linearGradient>
<linearGradient id="paint5_linear_79_2738" x1="423.527" y1="325.892" x2="435.11" y2="312.283" gradientUnits="userSpaceOnUse">
<stop stop-color="#A8F17E"/>
<stop offset="0.2016" stop-color="#A2EE7E"/>
<stop offset="0.4769" stop-color="#90E67C"/>
<stop offset="0.7934" stop-color="#74D87B"/>
<stop offset="1" stop-color="#5DCD79"/>
</linearGradient>
<linearGradient id="paint6_linear_79_2738" x1="400.415" y1="383.774" x2="410.362" y2="372.087" gradientUnits="userSpaceOnUse">
<stop stop-color="#A8F17E"/>
<stop offset="0.2016" stop-color="#A2EE7E"/>
<stop offset="0.4769" stop-color="#90E67C"/>
<stop offset="0.7934" stop-color="#74D87B"/>
<stop offset="1" stop-color="#5DCD79"/>
</linearGradient>
<linearGradient id="paint7_linear_79_2738" x1="408.811" y1="348.689" x2="417.498" y2="338.482" gradientUnits="userSpaceOnUse">
<stop stop-color="#A8F17E"/>
<stop offset="0.2016" stop-color="#A2EE7E"/>
<stop offset="0.4769" stop-color="#90E67C"/>
<stop offset="0.7934" stop-color="#74D87B"/>
<stop offset="1" stop-color="#5DCD79"/>
</linearGradient>
<linearGradient id="paint8_linear_79_2738" x1="418.134" y1="356.776" x2="429.349" y2="343.599" gradientUnits="userSpaceOnUse">
<stop stop-color="#A8F17E"/>
<stop offset="0.2016" stop-color="#A2EE7E"/>
<stop offset="0.4769" stop-color="#90E67C"/>
<stop offset="0.7934" stop-color="#74D87B"/>
<stop offset="1" stop-color="#5DCD79"/>
</linearGradient>
<linearGradient id="paint9_linear_79_2738" x1="380.837" y1="389.735" x2="431.891" y2="329.748" gradientUnits="userSpaceOnUse">
<stop stop-color="#A8F17E"/>
<stop offset="0.2016" stop-color="#A2EE7E"/>
<stop offset="0.4769" stop-color="#90E67C"/>
<stop offset="0.7934" stop-color="#74D87B"/>
<stop offset="1" stop-color="#5DCD79"/>
</linearGradient>
</defs>
</svg>
