<svg width="514" height="367" viewBox="0 0 514 367" fill="none" xmlns="http://www.w3.org/2000/svg">
<g clip-path="url(#clip0_79_6041)">
<path d="M215.492 167.647L215.492 61.9961L68.7951 61.9961L68.7951 167.647L215.492 167.647Z" fill="#8A9EDD"/>
<path d="M210.968 66.5215H73.3203V163.123H210.968V66.5215Z" fill="#DCE7F4"/>
<path d="M194.258 91.8301H148.211V152.34H194.258V91.8301Z" fill="white"/>
<path d="M185.597 109.053C180.092 108.955 180.093 100.774 185.597 100.676C191.102 100.775 191.101 108.955 185.597 109.053ZM185.597 101.349C180.977 101.432 180.978 108.297 185.597 108.38C190.217 108.297 190.216 101.431 185.597 101.349Z" fill="#B1D2EF"/>
<path d="M185.597 120.534C180.092 120.435 180.093 112.254 185.597 112.156C191.102 112.255 191.101 120.436 185.597 120.534ZM185.597 112.83C180.977 112.913 180.978 119.778 185.597 119.86C190.217 119.777 190.216 112.912 185.597 112.83Z" fill="#B1D2EF"/>
<path d="M185.597 132.014C180.092 131.916 180.093 123.735 185.597 123.637C191.102 123.735 191.101 131.916 185.597 132.014ZM185.597 124.31C180.977 124.393 180.978 131.258 185.597 131.341C190.217 131.258 190.216 124.392 185.597 124.31Z" fill="#B1D2EF"/>
<path d="M185.597 143.495C180.092 143.396 180.093 135.215 185.597 135.117C191.102 135.216 191.101 143.397 185.597 143.495ZM185.597 135.791C180.977 135.874 180.978 142.739 185.597 142.821C190.217 142.738 190.216 135.873 185.597 135.791Z" fill="#B1D2EF"/>
<path d="M186.039 106.885C185.638 107.033 183.605 104.629 183.311 104.437C182.692 103.812 183.638 102.864 184.264 103.485L186.038 105.259L190.029 101.268C190.654 100.649 191.603 101.595 190.982 102.221C190.788 102.313 186.251 107.226 186.039 106.885Z" fill="#EB5648"/>
<path d="M186.039 118.303C185.636 118.449 183.606 116.048 183.311 115.855C182.692 115.23 183.638 114.282 184.264 114.903L186.038 116.677L190.029 112.686C190.654 112.067 191.603 113.013 190.982 113.639C190.795 113.727 186.238 118.651 186.039 118.303Z" fill="#EB5648"/>
<path d="M186.039 129.721C185.638 129.869 183.605 127.465 183.311 127.273C182.692 126.648 183.638 125.7 184.264 126.321L186.038 128.095L190.029 124.104C190.654 123.485 191.603 124.43 190.982 125.057C190.788 125.148 186.251 130.062 186.039 129.721Z" fill="#EB5648"/>
<path d="M186.039 141.139C185.638 141.287 183.605 138.883 183.311 138.691C182.692 138.066 183.638 137.118 184.264 137.739L186.038 139.513L190.029 135.522C190.654 134.903 191.603 135.848 190.982 136.475C190.788 136.566 186.251 141.48 186.039 141.139Z" fill="#EB5648"/>
<path d="M177.796 103.931H153.033C152.661 103.931 152.359 103.629 152.359 103.257C152.359 102.885 152.661 102.584 153.033 102.584H177.796C178.668 102.586 178.683 103.927 177.796 103.931Z" fill="#8A9EDD"/>
<path d="M172.8 107.144H153.035C152.159 107.141 152.15 105.801 153.035 105.797H172.799C173.674 105.8 173.685 107.14 172.8 107.144Z" fill="#8A9EDD"/>
<path d="M177.796 126.892H153.033C152.661 126.892 152.359 126.59 152.359 126.218C152.359 125.846 152.661 125.545 153.033 125.545H177.796C178.668 125.547 178.683 126.888 177.796 126.892Z" fill="#8A9EDD"/>
<path d="M172.8 130.105H153.035C152.159 130.102 152.15 128.762 153.035 128.758H172.799C173.674 128.761 173.685 130.101 172.8 130.105Z" fill="#8A9EDD"/>
<path d="M172.8 115.412H153.035C152.159 115.409 152.15 114.068 153.035 114.064H172.799C173.674 114.067 173.685 115.407 172.8 115.412Z" fill="#8A9EDD"/>
<path d="M177.796 118.626H153.033C152.661 118.626 152.359 118.325 152.359 117.953C152.359 117.581 152.661 117.279 153.033 117.279H177.796C178.668 117.281 178.683 118.622 177.796 118.626Z" fill="#8A9EDD"/>
<path d="M172.8 138.372H153.035C152.159 138.37 152.15 137.029 153.035 137.025H172.799C173.674 137.028 173.685 138.368 172.8 138.372Z" fill="#8A9EDD"/>
<path d="M177.796 141.587H153.033C152.661 141.587 152.359 141.286 152.359 140.914C152.359 140.542 152.661 140.24 153.033 140.24H177.796C178.668 140.242 178.683 141.583 177.796 141.587Z" fill="#8A9EDD"/>
<path d="M199.095 75.6722H87.2658C86.7997 75.6722 86.4219 75.2944 86.4219 74.8283C86.4219 74.3622 86.7997 73.9844 87.2658 73.9844H199.095C199.561 73.9844 199.939 74.3622 199.939 74.8283C199.939 75.2944 199.561 75.6722 199.095 75.6722Z" fill="#8A9EDD"/>
<path d="M182.16 81.7054H87.2658C86.7997 81.7054 86.4219 81.3276 86.4219 80.8615C86.4219 80.3954 86.7997 80.0176 87.2658 80.0176H182.16C182.626 80.0176 183.004 80.3954 183.004 80.8615C183.004 81.3276 182.626 81.7054 182.16 81.7054Z" fill="#8A9EDD"/>
<path d="M130.135 91.6914H91.2188V152.339H130.135V91.6914Z" fill="white"/>
<path d="M123.969 145.682H123.587V131.148H120.721V145.682H119.249V133.116H116.383V145.682H114.911V135.085H112.044V145.682H110.573V137.053H107.706V145.682H106.234V139.021H103.368V145.682H101.896V140.989H99.0297V145.682H98.1384V131.148C98.1384 130.743 97.8099 130.414 97.4051 130.414C97.0003 130.414 96.6719 130.743 96.6719 131.148V146.416C96.6719 146.822 97.0003 147.151 97.4051 147.151H123.97C124.374 147.151 124.703 146.822 124.703 146.416C124.703 146.011 124.374 145.682 123.969 145.682Z" fill="#8A9EDD"/>
<path d="M122.033 101.446H99.3302C98.7854 101.446 98.3438 101.004 98.3438 100.458C98.3438 99.9128 98.7854 99.4707 99.3302 99.4707H122.033C122.578 99.4707 123.02 99.9128 123.02 100.458C123.02 101.004 122.578 101.446 122.033 101.446Z" fill="#8A9EDD"/>
<path d="M122.033 107.132H99.3302C98.7854 107.132 98.3438 106.69 98.3438 106.144C98.3438 105.598 98.7854 105.156 99.3302 105.156H122.033C122.578 105.156 123.02 105.598 123.02 106.144C123.02 106.69 122.578 107.132 122.033 107.132Z" fill="#8A9EDD"/>
<path d="M122.033 112.817H99.3302C98.7854 112.817 98.3438 112.375 98.3438 111.83C98.3438 111.284 98.7854 110.842 99.3302 110.842H122.033C122.578 110.842 123.02 111.284 123.02 111.83C123.02 112.375 122.578 112.817 122.033 112.817Z" fill="#8A9EDD"/>
<path d="M122.033 118.372H99.3302C98.7854 118.372 98.3438 117.93 98.3438 117.384C98.3438 116.839 98.7854 116.396 99.3302 116.396H122.033C122.578 116.396 123.02 116.839 123.02 117.384C123.02 117.93 122.578 118.372 122.033 118.372Z" fill="#8A9EDD"/>
<path d="M122.033 124.057H99.3302C98.7854 124.057 98.3438 123.615 98.3438 123.07C98.3438 122.524 98.7854 122.082 99.3302 122.082H122.033C122.578 122.082 123.02 122.524 123.02 123.07C123.02 123.615 122.578 124.057 122.033 124.057Z" fill="#8A9EDD"/>
<path d="M92.6427 91.7139C92.6427 92.4975 92.0074 93.1327 91.2237 93.1327C90.44 93.1327 89.8047 92.4975 89.8047 91.7139C89.8047 90.9302 90.44 90.2949 91.2237 90.2949C92.0072 90.2949 92.6427 90.9302 92.6427 91.7139Z" fill="#EB5648"/>
<path d="M131.526 92.0351C131.707 91.2724 131.235 90.5078 130.472 90.3271C129.71 90.1465 128.945 90.6183 128.765 91.3809C128.584 92.1435 129.056 92.9082 129.818 93.0888C130.581 93.2694 131.346 92.7977 131.526 92.0351Z" fill="#EB5648"/>
<path d="M149.589 92.0331C149.769 91.2705 149.298 90.5058 148.535 90.3252C147.772 90.1445 147.008 90.6163 146.827 91.3789C146.646 92.1415 147.118 92.9062 147.881 93.0868C148.643 93.2675 149.408 92.7957 149.589 92.0331Z" fill="#EB5648"/>
<path d="M195.26 92.7163C195.814 92.1621 195.814 91.2637 195.26 90.7095C194.706 90.1554 193.808 90.1554 193.253 90.7095C192.699 91.2637 192.699 92.1621 193.253 92.7163C193.808 93.2704 194.706 93.2704 195.26 92.7163Z" fill="#EB5648"/>
<path d="M371.211 167.647V61.9961L224.514 61.9961L224.514 167.647L371.211 167.647Z" fill="#8A9EDD"/>
<path d="M366.687 66.5215H229.039V163.123H366.687V66.5215Z" fill="#DCE7F4"/>
<path d="M293.418 116.834C293.418 116.759 293.402 116.684 293.363 116.614L287.885 106.78C288.096 106.541 288.225 106.228 288.225 105.883C288.225 105.134 287.618 104.526 286.868 104.526H273.67C273.16 103.445 272.063 102.695 270.789 102.695C269.514 102.695 268.417 103.445 267.907 104.526H254.709C253.959 104.526 253.352 105.134 253.352 105.883C253.352 106.228 253.481 106.541 253.692 106.78L248.215 116.614C248.176 116.684 248.159 116.759 248.159 116.834H248.102C248.102 120.662 251.06 123.765 254.709 123.765C258.358 123.765 261.316 120.662 261.316 116.834H261.259C261.259 116.759 261.242 116.684 261.203 116.614L255.983 107.241H267.907C268.222 107.91 268.762 108.45 269.431 108.765V133.969H267.515C265.342 133.969 263.58 135.731 263.58 137.904H263.7C262.613 137.904 261.732 138.785 261.732 139.872C261.732 140.959 262.613 141.84 263.7 141.84H277.877C278.964 141.84 279.845 140.959 279.845 139.872C279.845 138.785 278.964 137.904 277.877 137.904H277.997C277.997 135.731 276.235 133.969 274.061 133.969H272.146V108.765C272.815 108.45 273.355 107.91 273.67 107.241H285.594L280.374 116.614C280.335 116.684 280.318 116.759 280.319 116.834H280.261C280.261 120.662 283.219 123.765 286.869 123.765C290.517 123.765 293.476 120.662 293.476 116.834L293.418 116.834ZM249.128 116.834L254.257 107.625V116.834H249.128ZM255.161 116.834V107.625L260.29 116.834H255.161ZM281.287 116.834L286.416 107.626V116.834H281.287ZM287.321 116.834V107.626L292.45 116.834H287.321Z" fill="#8A9EDD"/>
<path d="M310.069 148.723H347.906V97.5746H310.069V148.723Z" fill="white"/>
<path d="M313.468 107.557H343.867V101.419H313.468V107.557Z" fill="#8A9EDD"/>
<path d="M328.99 111.744H313.469V112.813H328.99V111.744Z" fill="#8A9EDD"/>
<path d="M343.864 111.744H333.383V112.813H343.864V111.744Z" fill="#8A9EDD"/>
<path d="M343.868 117.91H313.469V118.979H343.868V117.91Z" fill="#8A9EDD"/>
<path d="M322.199 124.076H313.469V125.145H322.199V124.076Z" fill="#8A9EDD"/>
<path d="M343.866 124.076H325.836V125.145H343.866V124.076Z" fill="#8A9EDD"/>
<path d="M343.868 130.242H313.469V131.311H343.868V130.242Z" fill="#8A9EDD"/>
<path d="M321.29 136.406H313.469V137.475H321.29V136.406Z" fill="#8A9EDD"/>
<path d="M332.745 136.406H323.469V137.475H332.745V136.406Z" fill="#8A9EDD"/>
<path d="M343.866 136.406H335.477V137.475H343.866V136.406Z" fill="#8A9EDD"/>
<path d="M343.868 142.572H313.469V143.641H343.868V142.572Z" fill="#8A9EDD"/>
<path d="M348.221 98.9359C348.983 98.7558 349.456 97.9915 349.276 97.2288C349.095 96.4661 348.331 95.9938 347.568 96.1739C346.806 96.354 346.333 97.1183 346.514 97.881C346.694 98.6437 347.458 99.116 348.221 98.9359Z" fill="#EB5648"/>
<path d="M310.385 98.9378C311.147 98.7577 311.62 97.9934 311.44 97.2308C311.259 96.4681 310.495 95.9958 309.733 96.1759C308.97 96.356 308.498 97.1202 308.678 97.8829C308.858 98.6456 309.622 99.1179 310.385 98.9378Z" fill="#EB5648"/>
<path d="M353.782 82.1172H241.953C241.487 82.1172 241.109 82.495 241.109 82.9613C241.109 83.4274 241.487 83.8052 241.953 83.8052H353.782C354.248 83.8052 354.626 83.4274 354.626 82.9613C354.627 82.495 354.248 82.1172 353.782 82.1172Z" fill="#8A9EDD"/>
<path d="M336.848 76.084H241.953C241.487 76.084 241.109 76.4618 241.109 76.9279C241.109 77.394 241.487 77.7718 241.953 77.7718H336.848C337.314 77.7718 337.692 77.394 337.692 76.9279C337.692 76.4618 337.314 76.084 336.848 76.084Z" fill="#8A9EDD"/>
<path d="M435.181 126.967C446.663 126.967 455.971 117.644 455.971 106.143C455.971 94.6418 446.663 85.3184 435.181 85.3184C423.699 85.3184 414.391 94.6418 414.391 106.143C414.391 117.644 423.699 126.967 435.181 126.967Z" fill="#8A9EDD"/>
<path d="M435.176 123.879C444.955 123.879 452.883 115.938 452.883 106.142C452.883 96.347 444.955 88.4062 435.176 88.4062C425.397 88.4062 417.469 96.347 417.469 106.142C417.469 115.938 425.397 123.879 435.176 123.879Z" fill="#DCE7F4"/>
<path d="M435.181 107.017C434.954 107.017 434.731 106.928 434.564 106.761L428.474 100.662C428.134 100.32 428.134 99.7669 428.474 99.4254C428.815 99.0839 429.368 99.0839 429.709 99.4254L434.308 104.032V93.2845C434.308 92.8017 434.699 92.4102 435.181 92.4102C435.663 92.4102 436.054 92.8016 436.054 93.2845V106.143C436.054 106.496 435.841 106.815 435.515 106.951C435.407 106.995 435.293 107.017 435.181 107.017Z" fill="#8A9EDD"/>
<path d="M196.871 192.639H134.938V254.741H196.871V192.639Z" fill="#395B96"/>
<path d="M196.488 254.312H134.938V257.162H196.488V254.312Z" fill="#4867AA"/>
<path d="M166.803 309.167C168.066 309.167 169.09 308.071 169.09 306.721V261.786C169.09 260.435 168.066 259.34 166.803 259.34C165.54 259.34 164.516 260.435 164.516 261.786V306.721C164.515 308.072 165.54 309.167 166.803 309.167Z" fill="#395B96"/>
<path d="M144.653 318.364C148.869 318.253 144.741 311.131 152.595 310.446H181.678C184.796 310.446 187.333 312.975 187.333 316.084C187.335 319.061 191.902 319.067 191.908 316.084C191.908 310.46 187.319 305.885 181.678 305.885H152.595C145.4 305.003 138.485 317.195 144.653 318.364Z" fill="#395B96"/>
<path d="M162.412 261.785H171.204C173.98 261.722 174.685 259.235 174.436 256.895H159.179C158.93 259.236 159.636 261.722 162.412 261.785Z" fill="#103663"/>
<path d="M161.418 311.543H172.21C174.728 311.504 174.496 308.796 174.442 307.014C174.442 305.785 173.443 304.789 172.21 304.789H161.418C160.185 304.789 159.185 305.785 159.185 307.014C159.136 308.797 158.894 311.502 161.418 311.543Z" fill="#234270"/>
<path d="M185.297 316.085C185.394 321.748 193.844 321.747 193.94 316.085C193.843 310.422 185.393 310.423 185.297 316.085Z" fill="#234270"/>
<path d="M140.328 316.085C140.425 321.748 148.875 321.747 148.971 316.085C148.874 310.422 140.424 310.423 140.328 316.085Z" fill="#234270"/>
<path d="M220.24 180.562C221.336 180.606 220.443 183.484 220.822 184.418C222.257 183.169 223.342 181.496 223.355 181.495C224.257 179.319 225.039 177.098 225.722 174.841C228.322 172.239 225.583 181.081 225.455 181.873C225.466 181.879 225.476 181.884 225.487 181.89C226.886 179.858 228.177 177.745 229.281 175.538C232.55 173.471 227.409 182.395 227.038 183.144C227.042 183.148 227.046 183.153 227.05 183.157C228.689 181.469 230.123 179.579 231.338 177.561C234.806 175.835 228.898 184.39 228.266 185.014C228.27 185.023 228.274 185.031 228.278 185.039C229.759 183.901 231.094 182.573 232.351 181.189C235.751 180.137 229.776 186.549 229.131 187.122C228.634 187.886 226.467 190.182 222.711 192.514C221.54 193.243 218.748 190.582 218.686 189.228C218.627 187.96 219.014 186.271 219.136 185.657C219.153 184.532 218.914 180.771 220.24 180.562Z" fill="#F99370"/>
<path d="M185.588 176.491C191.185 184.446 195.664 201.989 203.848 206.145C207.368 206.651 215.253 194.44 217.403 190.906L218.504 189.099L218.578 188.979C220.16 186.304 224.403 188.057 223.67 191.046C221.302 200.237 217.554 211.751 208.819 216.781C204.347 219.266 198.687 218.004 194.57 215.39C183.683 208.231 179.181 195.436 172.562 185.024C167.068 176.371 179.829 167.973 185.588 176.491Z" fill="#F99370"/>
<path d="M223.472 192.639C223.472 192.639 223.279 194.024 222.794 196.163C221.171 203.344 216.278 219.025 204.462 219.259C198.931 219.368 193.943 217.238 189.83 214.472C182.541 209.57 177.99 202.667 177.99 202.667L177.947 201.178C177.947 201.178 171.098 175.214 177.068 170.326C177.068 170.326 184.326 171.708 190.199 180.008C196.463 188.862 199.848 201.18 203.603 201.572C206.264 201.849 212.459 195.685 215.844 192.068C217.237 190.581 218.153 189.525 218.153 189.525C218.153 189.525 219.873 191.999 223.472 192.639Z" fill="#F4D4BE"/>
<path d="M228.8 320.331L208.977 320.112C209.027 316.935 209.871 310.521 209.242 306.895C209.243 306.895 210.727 295.676 210.727 295.676L219.466 295.772L217.466 310.455C217.228 312.197 218.259 313.858 219.918 314.425C223.561 315.859 227.719 315.235 230.05 318.117C230.655 319.085 229.94 320.343 228.8 320.331Z" fill="#F99370"/>
<path d="M208.394 318.193C208.468 318.866 208.645 319.521 208.975 320.113L228.992 320.334C229.965 320.344 230.68 319.392 230.367 318.467C229.631 316.307 227.027 313.155 217.805 312.57C217.805 312.57 214.656 313.472 209.506 312.479C209.506 312.479 208.092 315.464 208.394 318.193Z" fill="#1D3F70"/>
<path d="M230.353 318.435L208.391 318.193C208.464 318.866 208.642 319.522 208.972 320.114L228.989 320.334C229.976 320.347 230.694 319.364 230.353 318.435Z" fill="#103663"/>
<path d="M165.121 248.997C176.552 249.035 191.35 255.491 198.302 266.554C205.237 277.175 204.644 296.582 204.557 306.134C215.266 309.593 221.634 306.933 221.634 306.933C224.008 278.865 227.383 230.785 190.267 227.517C190.268 227.516 156.565 227.516 156.565 227.516C150.929 239.034 155.969 248.801 165.121 248.997Z" fill="#1D3F70"/>
<path d="M176.326 229.49L161.68 230.435C167.911 234.412 199.479 266.146 201.72 274.019C203.95 236.376 181.342 231.133 176.326 229.49Z" fill="#103663"/>
<path d="M204.542 324.885L184.719 324.667C184.77 321.49 185.614 315.075 184.985 311.45C184.985 311.45 186.469 300.23 186.469 300.23L195.208 300.327L194.245 314.516C194.008 316.258 194.001 318.413 195.66 318.979C199.303 320.414 203.461 319.79 205.792 322.672C206.398 323.64 205.682 324.898 204.542 324.885Z" fill="#F99370"/>
<path d="M184.136 322.747C184.21 323.42 184.388 324.075 184.717 324.668L204.734 324.888C205.707 324.899 206.422 323.946 206.11 323.022C205.373 320.862 202.769 317.71 193.548 317.125C193.548 317.125 190.398 318.027 185.248 317.033C185.248 317.033 183.834 320.019 184.136 322.747Z" fill="#1D3F70"/>
<path d="M206.103 322.988L184.141 322.746C184.214 323.419 184.392 324.074 184.722 324.667L204.739 324.887C205.726 324.899 206.443 323.916 206.103 322.988Z" fill="#103663"/>
<path d="M189.836 214.469V214.471C182.547 209.569 177.996 202.666 177.996 202.666L177.953 201.177L181.755 181.645C181.755 181.645 189.557 195.611 189.836 214.469Z" fill="#E8C0A6"/>
<path d="M149.046 250.857C159.303 257.082 170.974 253.793 178.154 268.328C183.93 280.894 182.048 301.798 180.973 312.013C191.682 315.472 197.44 312.013 197.44 312.013C207.665 251.567 200.132 230.594 138.764 221.248C138.764 221.248 134.081 241.776 149.046 250.857Z" fill="#1D3F70"/>
<path d="M180.969 312.012C191.678 315.471 197.436 312.012 197.436 312.012C197.436 312.012 197.642 310.966 197.956 309.125C197.956 309.125 191.443 311.328 181.362 308.389C181.147 310.655 180.969 312.012 180.969 312.012Z" fill="#103663"/>
<path d="M204.562 306.133C215.272 309.592 221.64 306.932 221.64 306.932C221.64 306.932 221.771 305.859 221.961 303.994C221.961 303.994 216.598 306.426 204.629 303.393C204.605 305.111 204.562 306.133 204.562 306.133Z" fill="#103663"/>
<path d="M173.522 168.546C173.717 167.934 173.889 167.264 174.042 166.56C174.931 162.493 175.193 157.302 175.198 155.344C175.198 154.814 175.181 154.521 175.151 154.551C175.142 154.426 175.129 154.301 175.11 154.179C174.914 152.723 174.129 151.724 173.114 151.161C173.112 151.16 173.112 151.16 173.112 151.16C171.609 150.33 169.603 150.452 168.212 151.454C168.183 151.474 168.156 151.497 168.129 151.518C167.244 152.188 166.629 153.226 166.588 154.617C166.587 154.68 166.583 154.745 166.584 154.809C166.583 154.898 166.586 154.984 166.591 155.072C166.811 154.976 166.416 160.412 165.734 164.288C165.507 165.565 165.25 166.674 164.974 167.358C156.602 168.333 179.119 180.409 173.522 168.546Z" fill="#F99370"/>
<path d="M138.039 229.49C138.286 230.191 150.488 226.672 161.256 228.283C176.864 230.618 183.049 227.515 185.877 227.515C191.312 227.516 186.878 191.53 181.748 181.644C179.627 176.601 175.893 171.39 173.517 168.546C173.532 168.791 173.453 175.175 164.968 167.357C164.451 167.475 160.624 170.218 160.535 171.836C158.759 179.027 131.76 212.404 138.039 229.49Z" fill="#F4D4BE"/>
<path d="M182.947 150.477C182.947 150.477 184.153 146.15 183.693 142.783L180.875 143.258L182.947 150.477Z" fill="#8E4A35"/>
<path d="M179.282 163.092C174.335 165.694 165.791 163.785 163.822 159.756C156.478 144.725 179.653 124.84 182.212 147.037C183.414 153.515 187.605 157.824 179.282 163.092Z" fill="#F99370"/>
<path d="M176.694 150.118C176.912 149.888 176.903 149.525 176.673 149.307C176.443 149.088 176.08 149.097 175.861 149.327C175.643 149.557 175.652 149.921 175.882 150.139C176.112 150.357 176.475 150.348 176.694 150.118Z" fill="#C16256"/>
<path d="M181.553 150.722C181.772 150.492 181.763 150.128 181.533 149.91C181.303 149.691 180.939 149.701 180.721 149.931C180.502 150.161 180.511 150.524 180.741 150.742C180.971 150.961 181.335 150.952 181.553 150.722Z" fill="#C16256"/>
<path d="M178.707 155.06C178.373 155.003 178.05 154.887 177.798 154.715C177.699 154.648 177.673 154.512 177.741 154.414C177.808 154.314 177.946 154.289 178.043 154.357C178.676 154.787 179.768 154.732 179.997 154.457C180.078 154.36 179.961 154.206 179.849 154.093C178.859 153.102 178.733 150.631 178.728 150.526C178.722 150.406 178.815 150.304 178.935 150.299C179.051 150.295 179.156 150.386 179.162 150.506C179.163 150.53 179.285 152.914 180.156 153.786C180.632 154.262 180.437 154.608 180.332 154.735C180.057 155.067 179.362 155.174 178.707 155.06Z" fill="#C16256"/>
<path d="M181.964 145.365C179.394 142.878 173.661 142.856 170.972 142.03C170.972 142.03 170.185 146.747 164.633 148.623C163.001 152.691 161.77 154.312 164.547 160.693L164.546 160.693C164.283 160.396 164.043 160.086 163.823 159.758L163.819 159.757C154.52 142.494 177.975 125.204 181.964 145.365Z" fill="#E57D61"/>
<path d="M186.927 137.087C186.219 133.196 181.683 129.846 176.052 132.72C171.717 134.934 168.076 133.823 167.142 137.235C159.449 138.298 160.591 146.771 160.591 146.771L164.108 147.379C168.923 145.391 170.179 140.736 170.179 140.736L170.178 140.735C171.031 141.035 171.953 141.269 172.821 141.303C175.512 141.407 179.304 142.199 181.815 144.077C184.325 145.954 187.719 141.437 186.927 137.087Z" fill="#8E4A35"/>
<path d="M184.103 157.726L184.103 157.725C184.108 157.639 184.109 157.556 184.11 157.474C181.55 154.84 178.305 155.265 175.192 156.006C171.851 156.803 168.663 157.964 166.644 156.098C166.625 156.081 166.606 156.063 166.587 156.045C164.276 153.604 165.125 150.346 166.039 148.042C166.497 146.89 166.97 145.976 167.074 145.522L167.074 145.52L164.115 147.379L162.709 150.659L162.709 150.66L162.612 150.885L162.604 150.902L162.604 150.905L161.728 152.948C161.727 152.952 161.725 152.956 161.725 152.96L161.724 152.961C160.216 157.78 162.64 161.094 165.903 163.28C168.191 164.812 170.89 165.792 172.936 166.346C173.304 166.486 173.666 166.594 174.021 166.671C178.7 167.699 182.247 163.624 183.557 160.117C183.735 159.644 183.871 159.181 183.963 158.742C184.039 158.385 184.086 158.044 184.103 157.726ZM175.139 157.449C178.046 156.091 182.038 155.558 181.84 159.218C180.306 161.03 177.496 160.95 174.938 160.356C174.002 160.138 173.1 159.852 172.307 159.565C172.644 158.911 173.771 158.089 175.139 157.449Z" fill="#8E4A35"/>
<path d="M159.295 149.368C159.144 151.223 160.231 152.826 161.724 152.949C163.217 153.071 164.55 151.666 164.702 149.811C164.854 147.955 163.767 146.352 162.274 146.23C160.781 146.108 159.447 147.513 159.295 149.368Z" fill="#F99370"/>
<path d="M163.364 148.055C163.316 148.018 162.175 147.14 161.253 147.592C161.017 147.708 160.826 147.902 160.672 148.164C160.671 148.166 160.67 148.168 160.669 148.169C160.381 148.665 160.236 149.412 160.242 150.414C160.243 150.521 160.321 150.609 160.423 150.627C160.435 150.629 160.448 150.63 160.461 150.631C160.581 150.63 160.678 150.532 160.678 150.411C160.672 149.63 160.764 149.024 160.939 148.6C162.08 149.171 162.273 150.71 162.275 150.726C162.286 150.824 162.361 150.9 162.454 150.916C162.474 150.919 162.495 150.92 162.516 150.917C162.635 150.904 162.721 150.797 162.707 150.678C162.698 150.601 162.49 148.903 161.158 148.223C161.244 148.12 161.337 148.035 161.444 147.983C162.118 147.648 163.087 148.39 163.097 148.398C163.191 148.472 163.328 148.454 163.401 148.36C163.475 148.266 163.458 148.129 163.364 148.055Z" fill="#C16256"/>
<path d="M151.788 174.77C139.677 183.268 125.41 201.485 140.224 214.208C149.138 220.442 160.902 220.083 171.255 219.479C172.352 219.392 173.537 219.25 174.632 219.111C176.507 219.045 178.217 218.123 177.969 215.992C177.713 213.851 175.352 213.707 173.706 213.401C168.891 212.465 163.942 211.394 159.297 210.002C155.926 208.828 149.806 207.24 148.036 204.124C146.502 198.125 152.291 191.173 156.553 187.568C165.824 181.577 160.936 168.585 151.788 174.77Z" fill="#F99370"/>
<path d="M171.256 219.479C170.325 219.596 169.4 219.7 168.484 219.79C152.059 221.412 138.146 218.761 134.658 210.463C130.976 201.7 131.146 193.005 139.945 180.764C148.745 168.521 161.668 167.684 161.668 167.684C166.268 171.381 165.971 180.764 162.733 185.055C160.398 188.151 149.084 198.843 152.085 203.306C154.379 206.717 164.378 210.532 168.954 212.137C170.362 212.63 171.256 212.915 171.256 212.915C170.072 216.189 171.256 219.479 171.256 219.479Z" fill="#F4D4BE"/>
<path d="M172.641 214.022C172.641 214.022 185.251 212.374 188.412 219.258H172.841L172.641 214.022Z" fill="#F99370"/>
<path d="M171.257 219.479C170.325 219.595 169.4 219.699 168.484 219.79C166.912 215.616 168.84 212.177 168.84 212.177L168.954 212.137C170.362 212.63 171.257 212.915 171.257 212.915C170.073 216.189 171.257 219.479 171.257 219.479Z" fill="#E8C0A6"/>
<path d="M187.412 218.34C187.477 218.34 187.541 218.313 187.586 218.26C187.669 218.164 187.658 218.019 187.562 217.937C187.448 217.838 184.718 215.529 180.24 215.332C180.118 215.326 180.006 215.425 180 215.552C179.995 215.678 180.093 215.786 180.22 215.791C184.531 215.981 187.236 218.262 187.262 218.285C187.306 218.322 187.359 218.34 187.412 218.34Z" fill="#E57D61"/>
<path d="M186.045 219.488C186.124 219.488 186.201 219.447 186.243 219.375C186.308 219.265 186.272 219.125 186.162 219.06C186.034 218.985 182.984 217.209 180.061 217.367C179.934 217.374 179.837 217.483 179.844 217.609C179.851 217.736 179.962 217.83 180.086 217.826C182.87 217.672 185.899 219.438 185.929 219.456C185.966 219.478 186.006 219.488 186.045 219.488Z" fill="#E57D61"/>
<path d="M170.892 213.146C170.862 213.146 170.831 213.141 170.8 213.131C163.531 210.838 158.481 208.678 155.361 206.531C152.581 204.617 151.279 202.654 151.38 200.528C151.559 196.772 161.005 186.599 161.407 186.168C161.522 186.044 161.716 186.037 161.84 186.153C161.964 186.268 161.97 186.462 161.855 186.586C161.758 186.69 152.161 197.024 151.993 200.557C151.798 204.643 157.656 208.341 170.985 212.547C171.146 212.598 171.235 212.77 171.185 212.931C171.143 213.062 171.022 213.146 170.892 213.146Z" fill="#E8C0A6"/>
<path d="M147.649 219.206C147.633 219.206 147.617 219.205 147.601 219.202C141.105 218.191 138.553 215.669 138.448 215.562C138.329 215.442 138.33 215.248 138.45 215.129C138.571 215.011 138.765 215.012 138.883 215.132C138.916 215.164 141.432 217.621 147.695 218.596C147.863 218.622 147.977 218.779 147.951 218.946C147.928 219.098 147.797 219.206 147.649 219.206Z" fill="#E8C0A6"/>
<path d="M170.551 175.836C170.551 175.836 172.833 177.357 174.002 175.422C175.17 173.488 171.804 172.197 171.804 172.197C171.804 172.197 170.196 174.039 170.551 175.836Z" fill="#234270"/>
<path d="M173.563 175.477C173.563 175.477 178.685 193.329 180.342 205.115C180.342 205.115 179.081 209.081 177.072 211.115C177.072 211.115 173.156 208.185 171.805 206.187C171.805 206.187 170.658 185.939 170.933 175.792L173.563 175.477Z" fill="#234270"/>
<path d="M161.665 167.682C160.966 171.324 169.761 176.208 170.291 176.306L172.002 173.183C173.381 173.794 174.292 176.037 174.292 176.037C178.852 172.934 177.391 170.324 176.499 169.686C175.469 168.948 173.515 168.543 173.517 168.546C173.533 168.792 172.687 174.446 164.968 167.358C163.94 166.64 161.665 167.682 161.665 167.682Z" fill="#E8C0A6"/>
<path d="M223.471 192.638C223.471 192.638 223.278 194.023 222.794 196.161C218.558 195.68 215.844 192.066 215.844 192.066C217.236 190.579 218.152 189.523 218.152 189.523C218.152 189.523 219.873 191.998 223.471 192.638Z" fill="#E8C0A6"/>
<path d="M174.627 149.098C174.565 149.098 174.504 149.07 174.464 149.017C174.395 148.927 174.413 148.799 174.502 148.73C174.568 148.68 176.132 147.508 177.957 147.855C178.068 147.876 178.141 147.984 178.12 148.095C178.099 148.206 177.992 148.279 177.88 148.257C176.237 147.944 174.765 149.045 174.75 149.056C174.713 149.084 174.67 149.098 174.627 149.098Z" fill="#C16256"/>
<path d="M182.347 149.794C182.27 149.794 182.196 149.75 182.161 149.676C181.584 148.456 180.026 148.386 180.01 148.386C179.897 148.382 179.809 148.287 179.813 148.174C179.816 148.061 179.912 147.972 180.024 147.977C180.098 147.979 181.846 148.052 182.532 149.501C182.58 149.604 182.536 149.726 182.434 149.774C182.406 149.787 182.376 149.794 182.347 149.794Z" fill="#C16256"/>
<path d="M178.108 159.082C177.684 159.082 177.336 158.919 177.191 158.61C176.954 158.102 177.372 157.423 178.142 157.063C178.913 156.703 179.702 156.818 179.939 157.326C180.061 157.586 180.016 157.896 179.814 158.198C179.632 158.47 179.339 158.71 178.988 158.873C178.686 159.014 178.381 159.082 178.108 159.082ZM177.562 158.437C177.681 158.689 178.224 158.778 178.815 158.502C179.095 158.371 179.335 158.178 179.473 157.97C179.543 157.867 179.647 157.668 179.569 157.499C179.45 157.247 178.906 157.158 178.316 157.434C177.725 157.71 177.444 158.184 177.562 158.437Z" fill="#C16256"/>
<path d="M103.222 192.641H41.2891V254.743H103.222V192.641Z" fill="#395B96"/>
<path d="M102.84 254.314H41.2891V257.163H102.84V254.314Z" fill="#4867AA"/>
<path d="M73.1623 309.169C74.4255 309.169 75.4497 308.073 75.4497 306.723V261.788C75.4497 260.437 74.4255 259.342 73.1623 259.342C71.8991 259.342 70.875 260.437 70.875 261.788V306.723C70.8748 308.074 71.8991 309.169 73.1623 309.169Z" fill="#395B96"/>
<path d="M51.0119 318.366C55.2284 318.255 51.1 311.133 58.9545 310.448H88.0376C91.1557 310.448 93.6925 312.977 93.6925 316.086C93.6946 319.063 98.2611 319.069 98.2672 316.086C98.2672 310.462 93.6781 305.887 88.0374 305.887H58.9542C51.7589 305.005 44.8439 317.197 51.0119 318.366Z" fill="#395B96"/>
<path d="M68.7638 261.787H77.5552C80.3316 261.724 81.0372 259.237 80.788 256.896H65.5308C65.2818 259.238 65.9878 261.724 68.7638 261.787Z" fill="#234270"/>
<path d="M67.7691 311.545H78.5619C81.0793 311.506 80.8479 308.798 80.7938 307.016C80.794 305.787 79.7946 304.791 78.5619 304.791H67.7691C66.5364 304.791 65.537 305.787 65.537 307.016C65.4877 308.799 65.2454 311.504 67.7691 311.545Z" fill="#234270"/>
<path d="M91.6562 316.087C91.7533 321.75 100.203 321.749 100.299 316.087C100.202 310.424 91.7524 310.425 91.6562 316.087Z" fill="#234270"/>
<path d="M46.6875 316.087C46.7846 321.75 55.2346 321.749 55.3307 316.087C55.2336 310.424 46.7837 310.425 46.6875 316.087Z" fill="#234270"/>
<path d="M128.495 219.477C122.332 221.645 108.12 225.043 96.7465 221.378C77.6691 218.846 83.1851 174.271 83.801 173.793C105.353 181.573 97.4156 213.948 126.633 212.391C127.712 212.333 128.841 212.23 130.024 212.077C130.024 212.077 128.592 216.014 131.576 218.034C131.663 218.191 130.509 218.768 128.495 219.477Z" fill="#1D3F70"/>
<path d="M134.896 320.572L115.328 320.357C115.378 317.229 116.211 310.915 115.591 307.346C115.591 307.346 124.328 306.307 124.328 306.307C124.094 308.021 122.519 313.896 126.129 314.758C129.886 315.655 133.829 315.556 136.13 318.392C136.727 319.346 136.021 320.584 134.896 320.572Z" fill="#F99370"/>
<path d="M114.745 318.466C114.817 319.129 114.993 319.774 115.319 320.357L135.077 320.574C136.038 320.585 136.744 319.647 136.435 318.737C135.708 316.611 133.137 313.508 124.035 312.932C124.035 312.932 120.926 313.82 115.842 312.842C115.842 312.842 114.447 315.78 114.745 318.466Z" fill="#1D3F70"/>
<path d="M136.429 318.705L114.75 318.467C114.822 319.129 114.998 319.774 115.324 320.358L135.082 320.574C136.057 320.587 136.765 319.619 136.429 318.705Z" fill="#395B96"/>
<path d="M100.368 222.041C99.2084 221.863 98.0034 221.644 96.753 221.379C92.0547 220.384 88.8386 217.285 86.6719 213.115L91.9108 187.6C91.9108 187.6 96.0933 192.373 96.2128 200.448C96.3163 207.45 96.0535 210.562 100.368 222.041Z" fill="#163356"/>
<path d="M72.0344 250.348C83.3186 250.386 97.9248 256.741 104.788 267.631C111.633 278.086 111.049 297.191 110.962 306.594C121.533 309.999 127.819 307.381 127.819 307.381C131.802 274.85 132.005 234.88 96.0168 226.143C96.0188 226.141 63.5892 229.202 63.5892 229.202C58.0262 240.541 63.0006 250.156 72.0344 250.348Z" fill="#EB5648"/>
<path d="M82.7344 229.211L93.8376 253.866C99.9885 257.782 105.997 267.518 108.209 275.268C110.41 238.212 87.685 230.828 82.7344 229.211Z" fill="#CE3932"/>
<path d="M110.943 321.937L91.375 321.722C91.4253 318.594 92.2584 312.28 91.6374 308.711C91.638 308.711 100.978 308.803 100.978 308.803C100.743 310.517 99.6395 315.349 102.175 316.123C105.87 317.251 109.876 316.921 112.177 319.758C112.774 320.711 112.068 321.95 110.943 321.937Z" fill="#F99370"/>
<path d="M90.8074 319.832C90.8801 320.494 91.0557 321.139 91.3812 321.723L111.14 321.94C112.1 321.95 112.806 321.012 112.498 320.102C111.771 317.976 109.2 314.873 100.098 314.297C100.098 314.297 96.989 315.185 91.9049 314.207C91.9049 314.207 90.5092 317.146 90.8074 319.832Z" fill="#1D3F70"/>
<path d="M112.484 320.07L90.8047 319.832C90.8774 320.495 91.053 321.139 91.3785 321.723L111.137 321.94C112.111 321.952 112.82 320.984 112.484 320.07Z" fill="#395B96"/>
<path d="M55.345 251.172C65.4692 257.299 77.8079 251.953 84.8953 266.261C90.5964 278.631 88.7387 299.209 87.6777 309.265C98.2489 312.67 103.933 309.265 103.933 309.265C112.767 259.757 109.304 221.322 49.252 226.085C49.252 226.085 40.5727 242.232 55.345 251.172Z" fill="#EB5648"/>
<path d="M87.6797 309.264C98.2509 312.67 103.935 309.264 103.935 309.264C103.935 309.264 104.138 308.235 104.448 306.422C104.448 306.422 98.019 308.591 88.0683 305.697C87.8551 307.929 87.6797 309.264 87.6797 309.264Z" fill="#CE3932"/>
<path d="M110.969 306.596C121.54 310.001 127.825 307.383 127.825 307.383C127.825 307.383 127.956 306.326 128.142 304.491C128.142 304.491 122.849 306.885 111.035 303.898C111.01 305.59 110.969 306.596 110.969 306.596Z" fill="#CE3932"/>
<path d="M77.8135 140.208C77.8135 140.208 73.4262 135.625 66.2772 137.624C59.1282 139.622 61.0455 144.36 58.3016 148.363C55.8412 151.954 56.2284 156.123 58.6831 160.236C60.5348 163.339 55.5036 164.431 56.637 168.841C57.8575 173.59 76.2622 176.532 84.5494 171.585C92.8365 166.637 85.7646 158.816 86.0057 154.53C86.247 150.244 77.8135 140.208 77.8135 140.208Z" fill="#8C4225"/>
<path d="M78.9437 169.047C78.8665 169.894 78.7391 170.804 78.5773 171.577C78.6441 174.648 70.5446 174.214 70.3906 170.92C70.5541 169 71.2511 160.028 70.5444 159.182C69.5447 153.892 78.0589 152.484 78.7898 157.842C79.2366 160.556 79.2507 165.702 78.9437 169.047Z" fill="#F99370"/>
<path d="M78.9439 169.046C73.5914 170.168 70.6094 168.007 70.6094 168.007L70.6824 166.846C70.8044 165.207 70.7958 165.161 70.8382 163.732L79.1484 163.848C79.1607 165.53 79.11 167.358 78.9439 169.046Z" fill="#E57D61"/>
<path d="M76.5 140.107C87.0002 137.328 91.0578 153.949 84.67 161.169L76.5 140.107Z" fill="#8C4225"/>
<path d="M65.5757 153.751C65.5768 157.505 66.1485 161.827 68.6491 164.712L68.6539 164.713C75.6832 173.039 93.261 164.74 86.7009 154.401C84.6367 151.771 84.761 147.719 83.1869 145.181C77.0807 135.481 65.1107 144.107 65.5757 153.751Z" fill="#F99370"/>
<path d="M79.9043 153.741C80.3414 153.159 79.4173 152.486 78.9975 153.081C78.5604 153.663 79.4845 154.336 79.9043 153.741Z" fill="#C16256"/>
<path d="M84.6855 153.708C85.1226 153.126 84.1985 152.453 83.7786 153.048C83.3417 153.63 84.2656 154.303 84.6855 153.708Z" fill="#C16256"/>
<path d="M82.1482 158.242C83.1638 158.393 84.8504 157.963 83.7134 156.855C82.7587 156.121 82.3381 153.828 82.3341 153.805C81.3835 152.814 82.3801 156.44 83.4543 157.192C84.1938 157.827 82.4065 158.039 81.7397 157.676C81.6347 157.623 81.5072 157.665 81.4544 157.769C81.3338 158.136 81.8905 158.171 82.1482 158.242Z" fill="#C16256"/>
<path d="M65.5793 153.752C65.5804 157.505 66.1522 161.828 68.6528 164.713L68.6576 164.713C67.3758 162.467 67.0925 157.858 67.0925 157.858L68.1678 156.001C81.5304 153.944 82.0826 143.567 82.0826 143.567C75.0753 136.49 65.0971 145.165 65.5793 153.752Z" fill="#E57D61"/>
<path d="M80.8765 142.442C80.8765 142.442 80.2805 152.667 68.2477 154.968L64.5298 152.06C61.8065 143.613 70.8547 133.306 80.8765 142.442Z" fill="#8C4225"/>
<path d="M62.9581 155.227C63.1894 159.53 68.4389 159.273 68.2494 154.968C68.018 150.666 62.7684 150.923 62.9581 155.227Z" fill="#F99370"/>
<path d="M64.1345 156.298C64.2723 156.322 64.4 156.199 64.3785 156.06C63.942 153.721 65.0718 152.949 66.4648 153.803C66.6984 153.946 66.92 153.573 66.6802 153.437C65.0579 152.255 63.0529 153.822 64.1345 156.298Z" fill="#C16256"/>
<path d="M66.1374 156.32C67.076 156.385 64.9773 153.157 64.0522 153.961C64.0262 154.075 64.0974 154.189 64.2117 154.215C65.8107 154.645 65.7612 156.204 66.1374 156.32Z" fill="#C16256"/>
<path d="M64.938 157.512C64.831 158.121 65.7898 158.275 65.879 157.663C65.9862 157.055 65.0272 156.9 64.938 157.512Z" fill="#F4D4BE"/>
<path d="M48.9062 226.799C67.5381 232.574 93.574 229.732 96.3704 226.231C99.3563 222.494 97.1341 219.13 95.1231 211.705C93.5415 205.865 96.228 196.382 93.211 190.208C87.6341 178.797 83.6276 173.921 83.6276 173.921C83.6276 173.921 76.5894 175.789 64.8302 172.883C53.9635 179.369 48.9062 226.799 48.9062 226.799Z" fill="#1D3F70"/>
<path d="M81.8127 160.342C81.8013 160.345 81.7894 160.346 81.7773 160.346C79.6182 160.374 78.7897 158.831 78.7554 158.765C78.708 158.674 78.7434 158.562 78.8343 158.515C78.9253 158.468 79.0369 158.503 79.0842 158.594C79.1152 158.652 79.8496 160 81.7727 159.975C81.8751 159.974 81.9591 160.056 81.9604 160.158C81.9613 160.249 81.8978 160.325 81.8127 160.342Z" fill="#C16256"/>
<path d="M77.9341 152.285C77.8756 152.297 77.8124 152.281 77.7666 152.236C77.6935 152.164 77.6923 152.048 77.7636 151.974C77.8062 151.931 78.8266 150.908 80.6062 151.016C80.7084 151.022 80.7862 151.11 80.78 151.212C80.7738 151.314 80.6859 151.392 80.5837 151.386C78.9797 151.288 78.0378 152.224 78.0286 152.234C78.0018 152.261 77.9688 152.278 77.9341 152.285Z" fill="#C16256"/>
<path d="M85.0661 151.875C85.01 151.887 84.9492 151.872 84.9035 151.831C84.2521 151.237 82.9803 151.29 82.9676 151.291C82.8652 151.295 82.7784 151.216 82.7737 151.114C82.7687 151.012 82.8472 150.925 82.9498 150.92C83.0082 150.917 84.3874 150.859 85.1535 151.557C85.2291 151.626 85.2348 151.743 85.1658 151.819C85.1382 151.849 85.1032 151.868 85.0661 151.875Z" fill="#C16256"/>
<path d="M130.028 212.078C130.028 212.078 133.157 208.945 134.948 209.661C136.739 210.378 139.653 212.133 141.295 211.485C142.938 210.838 142.738 216.231 140.947 217.329C139.156 218.426 135.163 218.026 131.581 218.036C131.581 218.036 128.476 216.374 130.028 212.078Z" fill="#F99370"/>
<path d="M141.812 219.372H132.859L131.156 204.709H143.515L141.812 219.372Z" fill="#F9C0C0"/>
<path d="M143.583 206.917H131.092C130.443 206.917 130.021 206.233 130.313 205.653L130.841 204.601C131.035 204.213 131.432 203.969 131.865 203.969H142.81C143.243 203.969 143.64 204.213 143.834 204.601L144.362 205.653C144.654 206.233 144.232 206.917 143.583 206.917Z" fill="#9358E0"/>
<path d="M143.093 204.126H131.578L132.045 203.508C132.452 202.969 133.088 202.652 133.762 202.652H140.908C141.583 202.652 142.219 202.969 142.625 203.508L143.093 204.126Z" fill="#F9C0C0"/>
<path d="M142.19 216.068H132.435C132.237 216.068 132.071 215.919 132.048 215.723L131.44 210.455C131.413 210.224 131.594 210.021 131.827 210.021H142.798C143.03 210.021 143.211 210.224 143.185 210.455L142.577 215.723C142.554 215.919 142.387 216.068 142.19 216.068Z" fill="#9358E0"/>
<path d="M130.816 211.5C131.987 210.434 137.875 209.322 138.038 211.301C138.022 211.694 137.71 212.003 137.33 212.03C135.838 212.192 134.355 212.829 133.012 213.494C132.049 213.97 131.269 214.788 131.269 214.788C129.771 215.747 129.31 212.692 130.816 211.5Z" fill="#F99370"/>
<path d="M128.496 219.476C125.39 217.197 126.603 212.501 126.633 212.39C127.712 212.332 128.841 212.229 130.024 212.076C130.024 212.076 128.592 216.014 131.576 218.033C131.663 218.19 130.509 218.768 128.496 219.476Z" fill="#163356"/>
<path d="M78.3832 219.48C77.4517 219.597 76.5265 219.701 75.6105 219.791C59.1858 221.413 46.6012 222.268 41.2911 215.333C37.0252 209.763 37.1451 197.5 43.8022 187.6C53.0866 173.793 64.8326 172.883 64.8326 172.883C69.4328 176.58 66.1621 183.778 63.2492 189.21C61.4168 192.627 56.2107 198.844 59.2117 203.307C61.5063 206.718 71.5049 210.533 76.0806 212.138C77.4884 212.631 78.383 212.916 78.383 212.916C77.1991 216.19 78.3832 219.48 78.3832 219.48Z" fill="#1D3F70"/>
<path d="M79.7656 214.024C79.7656 214.024 92.3757 212.376 95.5367 219.26H79.966L79.7656 214.024Z" fill="#F99370"/>
<path d="M94.537 218.342C94.6016 218.342 94.6658 218.315 94.7113 218.262C94.7939 218.166 94.783 218.021 94.6871 217.939C94.5729 217.84 91.8428 215.531 87.3647 215.334C87.2434 215.328 87.1309 215.427 87.1252 215.554C87.1197 215.68 87.2179 215.788 87.3447 215.793C91.6562 215.983 94.3606 218.264 94.3874 218.287C94.4307 218.324 94.4841 218.342 94.537 218.342Z" fill="#E57D61"/>
<path d="M93.108 219.259C93.1867 219.259 93.2632 219.219 93.306 219.146C93.3704 219.037 93.3341 218.896 93.2249 218.832C93.0964 218.756 90.0463 216.981 87.1235 217.139C86.9969 217.146 86.8996 217.254 86.9066 217.381C86.9136 217.507 87.0244 217.601 87.1483 217.598C89.9323 217.443 92.9614 219.21 92.9916 219.228C93.0282 219.249 93.0683 219.259 93.108 219.259Z" fill="#E57D61"/>
<path d="M78.5745 171.577C78.5745 171.577 81.9105 171.093 83.8009 173.792C83.8009 173.792 82.8831 176.984 78.6323 178.596C78.6323 178.596 77.8498 176.642 76.5114 175.33C76.5114 175.33 76.0018 177.234 75.8064 179.041C75.8064 179.041 67.6871 179.91 64.8281 172.882C64.8281 172.882 67.9232 170.686 70.3878 170.92C71.5738 173.79 77.2593 174.629 78.5745 171.577Z" fill="#EB5648"/>
<path d="M78.3834 212.916L81.7345 213.876V219.26L78.3834 219.48C78.3834 219.48 75.5338 215.879 78.3834 212.916Z" fill="#F99370"/>
<path d="M78.3818 219.481C77.4504 219.597 76.5252 219.701 75.6091 219.792C74.0375 215.617 75.9646 212.178 75.9646 212.178L76.0794 212.139C77.4873 212.632 78.3818 212.917 78.3818 212.917C77.1977 216.191 78.3818 219.481 78.3818 219.481Z" fill="#163356"/>
<path d="M76.6933 213.084C76.6515 213.084 76.6091 213.076 76.5674 213.061L76.1947 212.925C68.7854 210.224 57.588 206.141 57.9787 199.997C58.2235 196.145 62.0025 190.586 62.1632 190.351C62.2779 190.184 62.5062 190.141 62.6734 190.255C62.8405 190.37 62.8835 190.598 62.769 190.765C62.7308 190.821 58.9434 196.394 58.7114 200.043C58.3556 205.64 69.2423 209.609 76.4463 212.236L76.8192 212.372C77.0097 212.441 77.1077 212.652 77.0381 212.842C76.9838 212.991 76.8431 213.084 76.6933 213.084Z" fill="#163356"/>
<path d="M61.82 221.268C55.5805 221.268 50.5352 220.661 50.4471 220.65C50.246 220.626 50.103 220.442 50.1278 220.241C50.1526 220.04 50.3344 219.898 50.537 219.922C50.6897 219.941 65.9323 221.774 76.1428 219.015C76.3387 218.962 76.54 219.078 76.5929 219.273C76.6457 219.469 76.5301 219.67 76.3343 219.723C71.8894 220.924 66.5165 221.268 61.82 221.268Z" fill="#163356"/>
<path d="M335.241 136.328C335.241 136.328 330.598 133.708 327.247 139.696C323.896 145.684 326.332 146.276 321.432 152.887C316.532 159.497 324.869 167.544 330.19 168.053C335.51 168.561 330.957 175.654 341.278 175.181C351.6 174.707 371.297 143.621 335.241 136.328Z" fill="#8C4225"/>
<path d="M372.058 196.512H309.445V259.124H372.058V196.512Z" fill="#395B96"/>
<path d="M372.062 257.547H309.836V260.419H372.062V257.547Z" fill="#4867AA"/>
<path d="M339.836 308.992C338.559 308.992 337.523 307.963 337.523 306.693V264.459C337.523 263.19 338.559 262.16 339.836 262.16C341.113 262.16 342.148 263.19 342.148 264.459V306.693C342.148 307.963 341.113 308.992 339.836 308.992Z" fill="#395B96"/>
<path d="M362.234 318.268C357.972 318.156 362.145 310.976 354.205 310.285H324.803C321.65 310.285 319.086 312.835 319.086 315.969C319.084 318.971 314.467 318.976 314.461 315.969C314.461 310.299 319.1 305.687 324.803 305.687H354.205C361.479 304.797 368.47 317.089 362.234 318.268Z" fill="#395B96"/>
<path d="M344.281 265.282H335.393C332.587 265.219 331.873 262.711 332.125 260.352H347.549C347.801 262.712 347.088 265.219 344.281 265.282Z" fill="#234270"/>
<path d="M345.292 311.389H334.381C331.836 311.35 332.07 308.619 332.124 306.824C332.124 305.585 333.135 304.58 334.381 304.58H345.292C346.538 304.58 347.549 305.585 347.549 306.824C347.599 308.62 347.844 311.348 345.292 311.389Z" fill="#234270"/>
<path d="M321.144 315.968C321.046 321.677 312.503 321.677 312.406 315.967C312.504 310.258 321.047 310.259 321.144 315.968Z" fill="#234270"/>
<path d="M366.605 315.968C366.507 321.677 357.964 321.677 357.867 315.967C357.965 310.258 366.508 310.259 366.605 315.968Z" fill="#234270"/>
<path d="M336.573 170.639C336.302 171.283 333.581 177.709 333.407 178.125C328.335 184.635 317.817 198.145 312.798 204.589C307.015 187.156 323.222 170.945 336.573 170.639Z" fill="#3A72AA"/>
<path d="M288.94 327.624L310.048 327.392C309.994 324.018 309.096 317.207 309.766 313.357C309.765 313.357 308.185 301.443 308.185 301.443L298.88 301.546L301.01 317.138C301.262 318.987 300.165 320.751 298.398 321.352C294.52 322.876 290.092 322.213 287.61 325.273C286.965 326.301 287.727 327.637 288.94 327.624Z" fill="#F99370"/>
<path d="M310.672 325.353C310.593 326.068 310.404 326.763 310.053 327.392L288.739 327.626C287.703 327.638 286.942 326.626 287.274 325.645C288.059 323.351 290.832 320.004 300.65 319.382C300.65 319.382 304.004 320.34 309.488 319.285C309.488 319.285 310.993 322.455 310.672 325.353Z" fill="#1D3F70"/>
<path d="M287.287 325.61L310.672 325.354C310.594 326.068 310.404 326.764 310.053 327.393L288.739 327.627C287.689 327.64 286.924 326.597 287.287 325.61Z" fill="#395B96"/>
<path d="M262.286 307.8L282.491 313.913C283.452 310.679 284.639 303.911 286.433 300.44C286.432 300.44 288.5 288.601 288.5 288.601L279.594 285.906L276.946 301.419C276.632 303.259 275.056 304.612 273.19 304.656C269.034 304.945 265.008 302.984 261.723 305.159C260.799 305.946 261.125 307.449 262.286 307.8Z" fill="#F99370"/>
<path d="M283.692 312.153C283.402 312.811 283.013 313.418 282.489 313.913L262.087 307.74C261.095 307.44 260.673 306.247 261.285 305.41C262.721 303.458 266.371 301.097 275.924 303.45C275.924 303.45 278.835 305.371 284.383 306.01C284.383 306.01 284.868 309.485 283.692 312.153Z" fill="#1D3F70"/>
<path d="M261.307 305.381L283.691 312.153C283.402 312.812 283.013 313.418 282.489 313.913L262.087 307.741C261.081 307.438 260.665 306.213 261.307 305.381Z" fill="#395B96"/>
<path d="M297.029 314.961C297.029 314.961 303.025 317.234 310.72 314.961C311.598 295.595 307.437 256.619 337.347 257.254C350.848 257.47 368.115 243.08 362.484 228.672C362.484 228.672 328.793 228.672 328.795 228.674C293.618 236.255 294.206 276.885 297.029 314.961Z" fill="#9358E0"/>
<path d="M296.128 279.269C302.767 257.297 307.757 256.118 325.543 259.377C333.854 257.762 340.677 257.259 347.303 255.327L341.241 229.317C309.366 226.816 295.91 249.288 296.128 279.269Z" fill="#7640CC"/>
<path d="M275.562 297.249C275.562 297.249 279.654 303.045 288.57 302.641C290.362 296.129 292.916 280.551 296.529 271.044C303.301 248.19 314.884 255.216 337.351 257.254C365.589 259.114 368.947 234.461 363.515 226.666C300.465 227.031 282.299 214.599 275.562 297.249Z" fill="#9358E0"/>
<path d="M368.484 219.071C368.253 222.345 366.573 227.926 365.682 231.535C365.682 231.535 340.946 226.198 318.82 226.405C318.82 226.405 323.562 215.794 322.907 208.708C322.329 202.461 319.825 198.891 321.83 192.983C324.379 186.277 332.407 177.233 336.565 170.641C336.566 170.636 345.018 170.109 345.02 170.107C352.008 178.739 370.165 189.652 368.484 219.071Z" fill="#3A72AA"/>
<path d="M321.134 194.549C322.445 190.477 327.706 183.24 327.971 183.308C328.075 183.187 328.062 183.004 327.941 182.899C327.264 182.587 322.048 189.498 320.851 194.198C320.81 194.376 320.952 194.552 321.134 194.549Z" fill="#23659B"/>
<path d="M338.366 181.496C338.385 182.787 336.356 182.787 336.375 181.496C336.356 180.205 338.385 180.204 338.366 181.496Z" fill="#F4D4BE"/>
<path d="M337.452 185.203C337.471 186.495 335.442 186.495 335.461 185.203C335.442 183.912 337.471 183.911 337.452 185.203Z" fill="#F4D4BE"/>
<path d="M282.081 217.263H327.174L318.196 184.209H273.375L282.081 217.263Z" fill="#163260"/>
<path d="M327.172 217.1H282.078V219.344H327.172V217.1Z" fill="#234270"/>
<path d="M317.516 184.209H319.129L327.923 217.099H349.323V219.344H326.421V217.336L317.516 184.209Z" fill="#0B274F"/>
<path d="M352.581 186.844C358.194 191.362 370.828 200.916 366.558 208.55C361.116 211.656 351.389 211.523 344.055 212.566C341.941 212.714 341.643 215.907 343.658 216.464C350.57 218.507 357.752 219.787 365.029 219.409C368.319 219.171 371.91 218.44 374.429 216.006C377.785 212.649 379.742 207.595 379.389 202.812C378.367 191.307 369.529 182.484 360.746 176.032C353.374 170.378 345.09 181.368 352.581 186.844Z" fill="#F99370"/>
<path d="M350.356 218.397C349.326 218.137 348.02 217.694 347.052 217.404C347.052 217.404 348.521 214.904 346.36 212.346C379.96 201.849 346.397 193.355 345.023 170.106C369.499 161 412.222 229.847 350.356 218.397Z" fill="#3A72AA"/>
<path d="M332.18 217.098C332.18 217.098 334.524 209.997 344.267 212.557L346.15 217.104L332.18 217.098Z" fill="#F99370"/>
<path d="M332.7 216.96C332.989 216.951 335.316 214.466 338.788 214.105C338.937 214.089 339.046 213.956 339.031 213.807C337.359 212.734 330.973 216.978 332.7 216.96Z" fill="#E57D61"/>
<path d="M335.32 217.056C337.945 216.078 338.176 215.931 340.113 215.561C340.098 215.426 340.051 215.158 340.019 215.025C337.984 215.447 337.984 215.447 335.269 216.512C334.954 216.577 334.999 217.06 335.32 217.056Z" fill="#E57D61"/>
<path d="M331.305 171.522C332.264 173.226 336.247 172.592 334.356 176.169C333.813 177.157 334.975 178.73 336.554 177.848C338.133 176.967 338.385 176.925 338.804 177.051C339.224 177.177 339.266 178.939 340.987 178.771C342.707 178.604 342.162 175.97 343.169 175.251C344.176 174.533 346.458 176.799 348.276 174.784C348.276 174.784 349.49 173.078 347.484 170.826C346.665 169.454 338.028 170.695 336.569 170.638C336.57 170.638 334.339 170.094 331.305 171.522Z" fill="#F4D4BE"/>
<path d="M336.555 168.179L336.57 170.639L338.763 175.23L345.023 170.107C345.023 170.107 344.634 167.238 344.791 166.031L336.555 168.179Z" fill="#F99370"/>
<path d="M336.554 168.179C338.341 168.199 342.008 167.972 344.79 166.03C344.742 165.78 344.696 165.521 344.653 165.26C344.11 162.77 343.956 160.538 343.869 159.103C343.786 156.396 344.075 155.321 342.251 153.689C339.825 151.625 335.706 153.22 335.375 156.444C335.202 157.985 335.768 163.021 336.554 168.179Z" fill="#E57D61"/>
<path d="M330.652 164.887C334.062 167.238 338.614 167.198 341.984 165.761C342.175 165.679 342.37 165.597 342.551 165.506C349.781 161.991 349.652 149.879 345.331 144.279C342.628 140.456 336.824 138.942 332.98 141.872C330.325 144.021 329.791 147.259 329.087 150.692C328.851 151.596 328.297 152.823 327.692 153.704C325.383 157.158 326.264 161.7 330.652 164.887Z" fill="#F99370"/>
<path d="M338.904 147.786C345.409 148.58 345.68 153.663 345.68 153.663L347.604 150.609L340.638 142.292L335.025 140.775C333.773 141.185 332.708 141.944 331.875 142.97C331.875 142.97 332.399 146.991 338.904 147.786Z" fill="#E57D61"/>
<path d="M334.294 152.843C333.85 152.29 334.728 151.605 335.156 152.171C335.6 152.723 334.722 153.408 334.294 152.843Z" fill="#C16256"/>
<path d="M329.638 152.964C329.194 152.412 330.072 151.726 330.499 152.292C330.944 152.844 330.066 153.529 329.638 152.964Z" fill="#C16256"/>
<path d="M331.726 157.346C332.109 157.306 332.994 157.314 332.911 156.814C332.856 156.714 332.73 156.677 332.63 156.732C331.994 157.108 330.245 156.957 330.945 156.316C331.971 155.522 332.821 152.034 331.927 152.982C331.923 153.005 331.588 155.251 330.682 155.997C329.753 156.937 330.848 157.32 331.726 157.346Z" fill="#C16256"/>
<path d="M332.986 141.873C332.835 136.119 344.004 124.233 355.535 137.229C363.943 147.618 383.395 157.135 369.524 166.443C364.004 168.55 369.536 173.119 366.345 176.59C363.153 180.062 357.677 178.422 358.712 185.053C359.746 191.684 355.867 194.001 351.234 194.51C346.602 195.02 338.907 183.729 343.337 178.482C347.768 173.235 342.686 170.673 344.113 164.578C345.539 158.483 348.214 156.909 348.214 156.909L346.155 151.875C344.755 145.309 333.787 148.031 332.986 141.873Z" fill="#8C4225"/>
<path d="M349.323 218.109C348.556 217.881 347.718 217.606 347.051 217.406C347.051 217.406 348.521 214.906 346.359 212.348C346.359 212.348 347.438 211.998 348.971 211.457C348.971 211.457 351.616 214.848 349.323 218.109Z" fill="#23659B"/>
<path d="M348.922 212.065C354.837 209.955 367.762 205.016 358.226 194.841C357.973 194.567 357.543 194.958 357.8 195.234C357.859 195.298 363.612 201.628 359.843 205.257C355.499 209.909 347.259 211.38 348.922 212.065Z" fill="#23659B"/>
<path d="M353.789 219.269C354.127 219.278 354.184 218.752 353.845 218.694C351.401 218.216 349.187 217.433 349.165 217.426C347.53 217.854 351.285 218.741 353.789 219.269Z" fill="#23659B"/>
<path d="M337.011 151.433C337.087 151.433 337.16 151.393 337.2 151.322C337.259 151.218 337.222 151.086 337.118 151.028C337.042 150.985 335.255 149.997 333.426 150.416C333.309 150.442 333.237 150.559 333.263 150.675C333.29 150.792 333.405 150.864 333.523 150.838C335.19 150.456 336.888 151.395 336.905 151.405C336.939 151.424 336.975 151.433 337.011 151.433Z" fill="#C16256"/>
<path d="M329.045 151.09C329.08 151.09 329.115 151.081 329.148 151.063C329.914 150.646 330.943 150.744 330.953 150.745C331.071 150.759 331.178 150.671 331.19 150.551C331.202 150.433 331.115 150.326 330.996 150.314C330.949 150.309 329.823 150.203 328.941 150.683C328.836 150.74 328.797 150.872 328.855 150.977C328.894 151.049 328.968 151.09 329.045 151.09Z" fill="#C16256"/>
<path d="M349.684 155.392C348.791 159.449 343.939 158.458 344.707 154.377C345.6 150.321 350.452 151.311 349.684 155.392Z" fill="#F99370"/>
<path d="M348.372 156.231C348.254 156.21 348.179 156.088 348.214 155.973C348.949 153.785 348.051 152.939 346.565 153.53C346.322 153.632 346.167 153.246 346.414 153.152C348.105 152.447 349.504 153.511 348.604 156.09C348.574 156.19 348.473 156.25 348.372 156.231Z" fill="#C16256"/>
<path d="M346.469 155.961C345.938 155.847 347.061 153.974 348.61 153.844C348.722 153.836 348.819 153.92 348.827 154.032C348.836 154.144 348.751 154.242 348.639 154.25C347.023 154.426 346.916 155.953 346.469 155.961Z" fill="#C16256"/>
<path d="M346.289 157.783C346.289 158.285 346.696 158.692 347.197 158.692C347.699 158.692 348.106 158.285 348.106 157.783C348.106 157.282 347.699 156.875 347.197 156.875C346.696 156.875 346.289 157.282 346.289 157.783Z" fill="#F4D4BE"/>
<path d="M331.797 159.135L335.78 157.314C336.074 159.658 333.44 161.103 331.797 159.135Z" fill="#F9F8F3"/>
<path d="M331.803 159.305C331.623 159.322 331.551 159.052 331.722 158.98C331.829 159.023 335.952 156.828 335.932 157.244C335.971 157.33 335.933 157.431 335.848 157.47C335.769 157.493 331.888 159.304 331.803 159.305Z" fill="#C16256"/>
<path d="M378.651 222.697H60.9062V237.055H378.651V222.697Z" fill="#4867AA"/>
<path d="M402.663 219.359H36.8984V225.18H59.1607V324.984H64.1904V225.18H375.371V324.984H380.401V225.18H402.663V219.359Z" fill="#305489"/>
<path d="M457.312 283.02C453.119 282.978 445.532 282.905 441.294 282.863C440.721 278.717 432.433 208.71 442.02 188.168C446.112 178.275 454.945 179.601 457.999 189.561C459.606 194.114 460.398 199.358 460.905 204.501C462.724 230.693 460.93 248.73 457.312 283.02Z" fill="#3A72AA"/>
<path d="M445.826 283.229H437.709C395.294 214.767 445.046 145.385 445.826 283.229Z" fill="#7689D6"/>
<path d="M483.956 209.189C481.959 234.809 474.475 260.366 462.873 282.862L453.54 283.229C451.843 254.702 453.397 218.135 469.254 193.172C469.256 193.172 469.256 193.17 469.258 193.17C469.787 192.361 470.346 191.57 470.859 190.88H470.861C483.445 173.995 485.059 198.461 483.956 209.189Z" fill="#7689D6"/>
<path d="M465.752 282.863C464.898 291.082 462.681 310.788 461.788 319.27C461.894 320.962 456.739 322.101 450.44 322.139C444.348 322.06 439.396 321.149 439.083 319.361C438.578 314.772 435.541 286.787 435.109 282.863H465.752V282.863Z" fill="#F4A8A8"/>
<path d="M484.157 200.809C481.219 192.858 475.472 189.831 469.25 193.17C469.78 192.361 470.338 191.57 470.852 190.88C476.047 189.1 481.008 191.474 483.978 197.12C483.982 197.193 484.153 200.73 484.157 200.809Z" fill="#3A72AA"/>
<path d="M483.953 209.189L483.752 211.868L483.742 211.986C479.607 202.047 472.018 197.189 464.508 201.668C464.86 200.923 465.219 200.189 465.591 199.464C472.86 196.367 479.719 200.656 483.953 209.189Z" fill="#3A72AA"/>
<path d="M461.346 209.306C469.664 207.474 477.608 212.851 482.538 221.94C482.423 222.702 482.299 223.471 482.172 224.245C477.363 214.455 469.224 208.593 460.75 211.007L461.346 209.306Z" fill="#3A72AA"/>
<path d="M480.508 233.042C480.367 233.709 480.22 234.38 480.069 235.055C474.214 225.204 466.524 219.979 457.617 221.989C457.744 221.443 457.877 220.899 458.013 220.355C466.666 219.38 472.481 221.416 480.508 233.042Z" fill="#3A72AA"/>
<path d="M477.836 244.071C471.39 235.199 464.124 230.76 455.444 233.056C455.354 233.613 455.269 234.17 455.188 234.727C463.841 232.047 470.958 236.71 477.343 245.859L477.836 244.071Z" fill="#3A72AA"/>
<path d="M474.472 255.278L473.949 256.834C467.129 249.7 461.176 246.346 453.711 247.69C453.753 247.169 453.799 246.646 453.844 246.119C461.418 244.938 467.575 248.214 474.472 255.278Z" fill="#3A72AA"/>
<path d="M453.057 259.677C459.452 258.246 464.47 261.237 469.856 267.807L469.226 269.333C463.963 262.729 459.23 259.657 453.016 261.262L453.057 259.677Z" fill="#3A72AA"/>
<path d="M466.367 275.804C466.161 276.26 465.943 276.709 465.727 277.161C461.401 273.978 457.148 272.652 453.036 273.308C453.024 272.816 453.012 272.309 453 271.786C456.222 271.303 460.855 271.785 466.367 275.804Z" fill="#3A72AA"/>
<path d="M441.295 282.861L440.677 283.228H437.708C437.708 283.228 416.602 250.13 421.472 216.532C423.012 205.909 426.475 202.003 430.202 203.904L430.062 204.079C430.062 204.079 419.783 234.383 441.295 282.861Z" fill="#3A72AA"/>
<path d="M448.613 181.494C446.456 204.783 449.228 276.78 449.857 283.067L451.244 282.972C450.704 278.69 447.809 204.312 450.016 181.371L448.613 181.494Z" fill="#8A9EDD"/>
<path d="M457.999 189.56C453.535 198.333 450.946 201.457 448.108 204.597C445.773 202.702 442.292 198.578 439.742 195.537C439.875 194.935 440.012 194.347 440.157 193.775C442.208 196.247 445.738 200.45 448.008 202.572C451.034 198.89 453.547 195.423 457.288 187.764C457.536 188.325 457.773 188.923 457.999 189.56Z" fill="#8A9EDD"/>
<path d="M461.069 206.32C453.789 213.085 450.81 216.853 448.314 220.141C444.514 218.502 440.436 213.887 437.812 210.615C437.826 210.429 437.957 208.595 437.966 208.47C440.108 211.25 444.272 216.284 447.907 218.28C451.101 214.263 454.258 210.559 460.908 204.5C460.964 205.092 461.018 205.707 461.069 206.32Z" fill="#8A9EDD"/>
<path d="M457.313 283.019H443.795C420.271 216.654 471.539 193.463 457.313 283.019Z" fill="#3A72AA"/>
<path d="M457.312 283.021H450.55C458.888 250.751 447.172 224.33 447.172 224.33C456.517 222.882 465.22 241.998 457.312 283.021Z" fill="#8A9EDD"/>
<path d="M465.74 282.863L465.063 289.086H435.776L435.172 283.534C442.443 282.902 458.343 282.754 465.74 282.863Z" fill="#F29999"/>
<path d="M464.88 285.795H435.978C434.738 285.795 433.691 284.833 433.535 283.551C433.35 282.018 434.496 280.664 435.978 280.664H464.88C468.121 280.726 468.112 285.74 464.88 285.795Z" fill="#F4A8A8"/>
<path d="M461.782 319.269C462.287 322.949 439.001 323.021 439.078 319.36C439.078 319.36 460.002 321.363 464.377 295.434L461.782 319.269Z" fill="#F29999"/>
</g>
<defs>
<clipPath id="clip0_79_6041">
<rect width="513.8" height="367" fill="white"/>
</clipPath>
</defs>
</svg>
