<svg width="578" height="367" viewBox="0 0 578 367" fill="none" xmlns="http://www.w3.org/2000/svg">
<path d="M137.4 331.646C137.4 331.646 80.6263 23.5029 199.988 3.33527C366.569 -24.8116 330.425 134.446 330.425 134.446C330.425 134.446 373.985 102.433 415.292 137.006C472.606 184.976 381.162 331.381 381.162 331.381L137.4 331.646Z" fill="#F0F8FF"/>
<path d="M402.422 110.242L378.766 95.5705L379.021 66.6976L402.931 52.4941L426.587 67.1571L426.338 96.0348L402.422 110.242ZM383.657 92.6634L402.475 104.333L421.495 93.032L421.697 70.0626L402.88 58.396L383.859 69.6972L383.657 92.6634Z" fill="#5A7FE5"/>
<path d="M423.403 149.346L399.75 134.678L399.999 105.807L423.914 91.6016L447.57 106.274L447.312 135.141L423.403 149.346ZM404.64 131.772L423.454 143.442L442.472 132.141L442.68 109.18L423.86 97.5098L404.836 108.806L404.64 131.772Z" fill="#5A7FE5"/>
<path d="M380.706 148.912L357.047 134.246L357.305 105.373L381.22 91.1699L404.878 105.839L404.621 134.709L380.706 148.912ZM361.937 131.339L380.757 143.009L399.781 131.708L399.987 108.745L381.167 97.0734L362.145 108.373L361.937 131.339Z" fill="#5A7FE5"/>
<path d="M435.726 60.1183L422.656 67.8906L423.543 69.5377L436.612 61.7653L435.726 60.1183Z" fill="#5A7FE5"/>
<path d="M403.58 38.9922H401.781V57.2196H403.58V38.9922Z" fill="#5A7FE5"/>
<path d="M458.361 100.35L443.484 106.832L444.172 108.577L459.049 102.095L458.361 100.35Z" fill="#5A7FE5"/>
<path d="M442.896 130.596L441.922 132.189L455.522 141.376L456.496 139.783L442.896 130.596Z" fill="#5A7FE5"/>
<path d="M424.317 143.656H422.523V160.267H424.317V143.656Z" fill="#5A7FE5"/>
<path d="M382.111 143.439H380.312V160.481H382.111V143.439Z" fill="#5A7FE5"/>
<path d="M343.101 95.8549L342.234 97.5137L361.3 108.518L362.166 106.859L343.101 95.8549Z" fill="#5A7FE5"/>
<path d="M361.125 130.666L342.297 144.283L343.316 145.841L362.145 132.224L361.125 130.666Z" fill="#5A7FE5"/>
<path d="M137.4 331.647C137.4 331.647 8.50546 200.13 39.7623 148.444C76.0642 88.4171 136.148 148.444 136.148 148.444L137.4 331.647Z" fill="#F0F8FF"/>
<mask id="mask0_79_7434" style="mask-type:luminance" maskUnits="userSpaceOnUse" x="363" y="121" width="215" height="247">
<path d="M577.027 164.487L409.828 121.82L363.065 324.334L530.264 367L577.027 164.487Z" fill="white"/>
</mask>
<g mask="url(#mask0_79_7434)">
<path d="M409.945 327.223C409.945 327.223 437.482 170.543 493.404 169.225C549.326 167.907 511.089 272.484 431.608 334.052L409.945 327.223Z" fill="#20997C"/>
</g>
<mask id="mask1_79_7434" style="mask-type:luminance" maskUnits="userSpaceOnUse" x="363" y="121" width="215" height="247">
<path d="M577.027 164.487L409.828 121.82L363.065 324.334L530.264 367L577.027 164.487Z" fill="white"/>
</mask>
<g mask="url(#mask1_79_7434)">
<path d="M394.458 365.249C425.904 341.72 487.809 204.323 488.427 202.946L487.438 202.584C486.821 203.966 425.036 341.101 393.82 364.459L394.458 365.249Z" fill="#178369"/>
<path d="M459.93 264.684C463.255 265.119 467.502 263.476 472.6 259.773L471.972 258.972C466.156 263.187 461.604 264.61 458.447 263.194C453.237 260.848 453.394 251.468 453.393 251.377L452.314 251.404C452.308 251.817 452.158 261.521 457.948 264.125C458.564 264.408 459.223 264.591 459.93 264.684Z" fill="#178369"/>
<path d="M475.397 233C478.724 233.436 482.97 231.797 488.072 228.097L487.442 227.288C481.619 231.523 477.067 232.94 473.921 231.516C468.709 229.176 468.857 219.789 468.86 219.693L467.784 219.727C467.769 220.147 467.619 229.851 473.414 232.454C474.035 232.731 474.696 232.909 475.397 233Z" fill="#178369"/>
<path d="M484.722 214.716C488.047 215.152 492.298 213.496 497.392 209.801L496.768 208.993C490.951 213.221 486.393 214.638 483.243 213.221C478.031 210.874 478.185 201.488 478.191 201.398L477.112 201.438C477.101 201.844 476.948 211.541 482.741 214.153C483.36 214.434 484.014 214.624 484.722 214.716Z" fill="#178369"/>
<path d="M466.81 250.307C469.589 250.671 473.133 249.297 477.379 246.221L476.75 245.422C471.964 248.892 468.214 250.077 465.638 248.905C461.382 246.993 461.494 239.266 461.497 239.189L460.424 239.223C460.412 239.564 460.285 247.66 465.137 249.836C465.655 250.079 466.216 250.231 466.81 250.307Z" fill="#178369"/>
<path d="M451.863 280.345C455.19 280.781 459.438 279.13 464.533 275.434L463.908 274.622C458.095 278.858 453.545 280.269 450.389 278.852C445.18 276.511 445.326 267.123 445.333 267.027L444.253 267.066C444.239 267.479 444.09 277.177 449.879 279.787C450.498 280.069 451.162 280.254 451.863 280.345Z" fill="#178369"/>
<path d="M443.893 298.968C447.217 299.402 451.469 297.76 456.567 294.065L455.942 293.259C450.122 297.481 445.562 298.902 442.417 297.481C437.204 295.14 437.36 285.76 437.36 285.664L436.284 285.698C436.27 286.096 436.119 295.807 441.913 298.412C442.531 298.693 443.193 298.875 443.893 298.968Z" fill="#178369"/>
<path d="M435.309 312.183C437.713 312.499 440.774 311.314 444.434 308.654L443.802 307.852C439.727 310.821 436.543 311.815 434.365 310.843C430.746 309.217 430.857 302.634 430.856 302.57L429.775 302.61C429.767 302.901 429.658 309.884 433.855 311.773C434.309 311.97 434.797 312.116 435.309 312.183Z" fill="#178369"/>
</g>
<mask id="mask2_79_7434" style="mask-type:luminance" maskUnits="userSpaceOnUse" x="363" y="121" width="215" height="247">
<path d="M577.027 164.487L409.828 121.82L363.065 324.334L530.264 367L577.027 164.487Z" fill="white"/>
</mask>
<g mask="url(#mask2_79_7434)">
<path d="M416.391 330.157C416.391 330.157 466.261 244.914 499.309 257.45C532.357 269.986 487.436 322.155 427.613 339.312L416.391 330.157Z" fill="#178369"/>
<path d="M384.254 358.693C411.668 351.338 488.521 274.587 489.289 273.818L488.704 273.295C487.934 274.069 411.229 350.674 384.016 357.977L384.254 358.693Z" fill="#116851"/>
<path d="M454.297 308.128C456.461 309.35 459.778 309.405 464.193 308.289L463.965 307.568C458.929 308.835 455.46 308.545 453.656 306.7C450.683 303.648 453.148 297.28 453.171 297.216L452.425 296.936C452.318 297.216 449.775 303.811 453.081 307.198C453.433 307.56 453.837 307.868 454.297 308.128Z" fill="#116851"/>
<path d="M472.835 290.756C475 291.977 478.315 292.037 482.733 290.925L482.505 290.197C477.459 291.476 473.992 291.18 472.196 289.333C469.22 286.285 471.682 279.909 471.708 279.844L470.963 279.566C470.847 279.849 468.306 286.442 471.614 289.832C471.972 290.193 472.38 290.499 472.835 290.756Z" fill="#116851"/>
<path d="M483.825 280.843C485.989 282.065 489.312 282.113 493.724 281.001L493.501 280.275C488.46 281.552 484.988 281.253 483.191 279.41C480.217 276.358 482.681 269.982 482.706 269.923L481.958 269.65C481.849 269.925 479.307 276.513 482.612 279.907C482.964 280.272 483.365 280.583 483.825 280.843Z" fill="#116851"/>
<path d="M462.617 300.205C464.426 301.226 467.195 301.271 470.871 300.347L470.641 299.624C466.498 300.669 463.635 300.438 462.169 298.921C459.741 296.432 461.758 291.181 461.779 291.128L461.037 290.854C460.943 291.083 458.821 296.583 461.591 299.418C461.886 299.728 462.232 299.988 462.617 300.205Z" fill="#116851"/>
<path d="M444.842 316.593C447.007 317.816 450.326 317.867 454.738 316.755L454.516 316.025C449.477 317.307 446.011 317.007 444.211 315.164C441.236 312.116 443.696 305.739 443.725 305.675L442.975 305.402C442.863 305.682 440.324 312.27 443.626 315.662C443.979 316.027 444.385 316.337 444.842 316.593Z" fill="#116851"/>
<path d="M434.702 327.112C436.865 328.333 440.186 328.39 444.601 327.28L444.376 326.554C439.336 327.824 435.86 327.529 434.068 325.686C431.091 322.637 433.555 316.267 433.579 316.202L432.834 315.926C432.725 316.194 430.181 322.791 433.488 326.182C433.84 326.546 434.247 326.854 434.702 327.112Z" fill="#116851"/>
<path d="M425.54 333.761C427.105 334.645 429.496 334.685 432.666 333.883L432.437 333.16C428.905 334.058 426.478 333.854 425.234 332.584C423.168 330.467 424.898 325.998 424.914 325.954L424.164 325.682C424.085 325.878 422.256 330.623 424.651 333.08C424.911 333.337 425.208 333.575 425.54 333.761Z" fill="#116851"/>
</g>
<path d="M430.75 338.921C441.478 278.246 486.223 256.775 486.672 256.562L487.615 258.796C487.174 259.002 443.53 280.001 433.034 339.369L430.75 338.921Z" fill="#59B45A"/>
<path d="M482.693 260.158C482.247 260.083 488.963 248.295 493.871 250.751C498.78 253.204 490.731 261.504 482.693 260.158Z" fill="#59B45A"/>
<path d="M474.85 265.236C474.459 265.476 472.536 251.887 477.814 250.51C483.089 249.133 481.877 260.917 474.85 265.236Z" fill="#59B45A"/>
<path d="M464.616 274.049C464.29 274.376 459.439 261.616 464.272 258.999C469.106 256.381 470.508 268.144 464.616 274.049Z" fill="#59B45A"/>
<path d="M455.366 283.804C455.04 284.131 450.189 271.373 455.022 268.755C459.854 266.138 461.257 277.899 455.366 283.804Z" fill="#59B45A"/>
<path d="M448.181 294.766C447.93 295.162 440.517 283.846 444.681 280.17C448.842 276.494 452.684 287.639 448.181 294.766Z" fill="#59B45A"/>
<path d="M441.337 306.694C441.088 307.09 433.673 295.774 437.837 292.098C442 288.422 445.841 299.567 441.337 306.694Z" fill="#59B45A"/>
<path d="M437.276 317.45C437.117 317.894 427.476 308.617 430.747 304.054C434.019 299.488 440.143 309.441 437.276 317.45Z" fill="#59B45A"/>
<path d="M472.936 266.454C472.61 266.781 484.502 272.482 487.218 267.531C489.935 262.58 478.827 260.549 472.936 266.454Z" fill="#59B45A"/>
<path d="M462.289 277.033C461.944 277.34 473.487 283.784 476.483 279.015C479.479 274.246 468.507 271.511 462.289 277.033Z" fill="#59B45A"/>
<path d="M453.866 286.302C453.54 286.629 465.433 292.328 468.148 287.379C470.866 282.428 459.758 280.397 453.866 286.302Z" fill="#59B45A"/>
<path d="M445.489 299.054C445.205 299.422 457.69 303.483 459.785 298.21C461.879 292.935 450.616 292.407 445.489 299.054Z" fill="#59B45A"/>
<path d="M439.754 310.835C439.496 311.223 452.224 314.347 453.959 308.93C455.693 303.515 444.421 303.824 439.754 310.835Z" fill="#59B45A"/>
<path d="M566 336.999C566 343.074 443.102 348 291.5 348C139.898 348 17 343.074 17 336.999C17 330.924 139.898 326 291.5 326C443.102 326 566 330.924 566 336.999Z" fill="#D6E6F2"/>
<path d="M418.298 328.126C415.872 333.808 410.499 337.465 404.575 337.465H153.734L154.042 336.296L234.202 147.357C236.621 141.656 242.002 137.984 247.939 137.984H476.232C487.14 137.984 494.42 149.807 489.954 160.269L418.298 328.126Z" fill="#212156"/>
<path d="M408.378 329.424C406.29 334.315 401.663 337.465 396.561 337.465H144.367L144.674 336.296L230.781 145.758C232.927 141.01 237.481 137.984 242.48 137.984H470.089C479.482 137.984 485.751 148.167 481.905 157.176L408.378 329.424Z" fill="#2F2E6A"/>
<path d="M180.03 322.75H379.765C384.195 322.75 388.061 319.588 389.151 315.074L425.254 165.406C426.806 158.973 422.18 152.725 415.868 152.725H247.66C243.922 152.725 240.517 154.985 238.913 158.536L171.284 308.204C168.232 314.957 172.918 322.75 180.03 322.75Z" fill="#94B8ED"/>
<path d="M176.439 322.752H384.756C386.302 322.752 387.706 321.804 388.35 320.325L458.66 158.604C459.856 155.853 457.945 152.725 455.068 152.725H249.515C247.99 152.725 246.601 153.647 245.947 155.096L172.871 316.816C171.627 319.572 173.537 322.752 176.439 322.752Z" fill="#F0F8FF"/>
<path d="M403.766 337.523H48.4996C43.8658 337.523 40.1094 333.574 40.1094 328.705V321.887C40.1094 317.016 43.8658 313.068 48.4996 313.068H405.231C410.61 313.068 414.6 318.314 413.413 323.83L411.948 330.648C411.086 334.667 407.686 337.523 403.766 337.523Z" fill="#2F2E6A"/>
<path d="M377.027 291.135C377.027 295.896 373.369 299.755 368.842 299.755H188.879C184.345 299.755 180.68 295.896 180.68 291.135V172.5C180.68 167.74 184.347 163.881 188.879 163.881H368.842C373.369 163.881 377.027 167.74 377.027 172.5V291.135Z" fill="#D4E6ED"/>
<path d="M368.842 163.881H188.879C184.345 163.881 180.68 167.74 180.68 172.5V188.502H377.027V172.5C377.027 167.74 373.369 163.881 368.842 163.881Z" fill="#BFD7F5"/>
<path d="M200.566 176.276C200.566 178.626 198.746 180.544 196.491 180.544C194.243 180.544 192.422 178.626 192.422 176.276C192.422 173.899 194.243 171.992 196.491 171.992C198.746 171.994 200.566 173.9 200.566 176.276Z" fill="white"/>
<path d="M210.838 176.276C210.838 178.626 209.012 180.544 206.757 180.544C204.515 180.544 202.688 178.626 202.688 176.276C202.688 173.899 204.515 171.992 206.757 171.992C209.012 171.994 210.838 173.9 210.838 176.276Z" fill="white"/>
<path d="M220.762 176.276C220.762 178.626 218.942 180.544 216.687 180.544C214.445 180.544 212.625 178.626 212.625 176.276C212.625 173.899 214.446 171.992 216.687 171.992C218.942 171.994 220.762 173.9 220.762 176.276Z" fill="white"/>
<path d="M369.105 291.135C369.105 295.896 365.447 299.755 360.92 299.755H180.957C176.423 299.755 172.758 295.896 172.758 291.135V172.5C172.758 167.74 176.423 163.881 180.957 163.881H360.92C365.447 163.881 369.105 167.74 369.105 172.5V291.135Z" fill="white"/>
<path d="M360.92 163.881H180.957C176.423 163.881 172.758 167.74 172.758 172.5V188.502H369.105V172.5C369.105 167.74 365.447 163.881 360.92 163.881Z" fill="#C9E1F9"/>
<path d="M335.332 176.276C335.332 178.626 333.512 180.544 331.257 180.544C329.01 180.544 327.188 178.626 327.188 176.276C327.188 173.899 329.009 171.992 331.257 171.992C333.512 171.994 335.332 173.9 335.332 176.276Z" fill="#969924"/>
<path d="M345.604 176.276C345.604 178.626 343.776 180.544 341.522 180.544C339.281 180.544 337.453 178.626 337.453 176.276C337.453 173.899 339.281 171.992 341.522 171.992C343.776 171.994 345.604 173.9 345.604 176.276Z" fill="#FEC000"/>
<path d="M355.529 176.276C355.529 178.626 353.709 180.544 351.454 180.544C349.213 180.544 347.391 178.626 347.391 176.276C347.391 173.899 349.212 171.992 351.454 171.992C353.709 171.994 355.529 173.9 355.529 176.276Z" fill="#DC4026"/>
<path d="M237.035 205.983H201.064C199.954 205.983 199.047 205.192 199.047 204.225C199.047 203.258 199.954 202.467 201.064 202.467H237.035C238.144 202.467 239.052 203.258 239.052 204.225C239.051 205.192 238.144 205.983 237.035 205.983Z" fill="#B3D0FF"/>
<path d="M266.277 205.983H248.377C247.269 205.983 246.359 205.192 246.359 204.225C246.359 203.258 247.267 202.467 248.377 202.467H266.277C267.387 202.467 268.294 203.258 268.294 204.225C268.294 205.192 267.387 205.983 266.277 205.983Z" fill="#B3D0FF"/>
<path d="M287.789 205.983H277.033C275.923 205.983 275.016 205.192 275.016 204.225C275.016 203.258 275.923 202.467 277.033 202.467H287.789C288.899 202.467 289.806 203.258 289.806 204.225C289.806 205.192 288.899 205.983 287.789 205.983Z" fill="#B3D0FF"/>
<path d="M287.964 212.723H200.897C199.88 212.723 199.047 211.999 199.047 211.111C199.047 210.226 199.879 209.5 200.897 209.5H287.964C288.981 209.5 289.812 210.226 289.812 211.111C289.812 211.999 288.981 212.723 287.964 212.723Z" fill="#B3D0FF"/>
<path d="M228.798 219.758H200.897C199.88 219.758 199.047 219.034 199.047 218.147C199.047 217.261 199.879 216.535 200.897 216.535H228.798C229.815 216.535 230.647 217.26 230.647 218.147C230.647 219.032 229.815 219.758 228.798 219.758Z" fill="#B3D0FF"/>
<path d="M287.959 219.758H239.552C238.535 219.758 237.703 219.034 237.703 218.147C237.703 217.261 238.535 216.535 239.552 216.535H287.959C288.976 216.535 289.808 217.26 289.808 218.147C289.808 219.032 288.976 219.758 287.959 219.758Z" fill="#B3D0FF"/>
<path d="M287.795 227.372H201.064C199.954 227.372 199.047 226.581 199.047 225.614C199.047 224.647 199.954 223.855 201.064 223.855H287.795C288.905 223.855 289.812 224.647 289.812 225.614C289.812 226.581 288.905 227.372 287.795 227.372Z" fill="#B3D0FF"/>
<path d="M335.198 202.467H297.547V227.375H335.198V202.467Z" fill="#B3D0FF"/>
<path d="M256.921 242.026H200.861C199.751 242.026 198.844 241.235 198.844 240.268C198.844 239.301 199.751 238.51 200.861 238.51H256.921C258.031 238.51 258.938 239.301 258.938 240.268C258.938 241.235 258.031 242.026 256.921 242.026Z" fill="#B3D0FF"/>
<path d="M311.668 242.026H293.767C292.658 242.026 291.75 241.235 291.75 240.268C291.75 239.301 292.658 238.51 293.767 238.51H311.668C312.777 238.51 313.685 239.301 313.685 240.268C313.685 241.235 312.777 242.026 311.668 242.026Z" fill="#B3D0FF"/>
<path d="M333.181 242.026H322.425C321.315 242.026 320.406 241.235 320.406 240.268C320.406 239.301 321.314 238.51 322.425 238.51H333.181C334.291 238.51 335.198 239.301 335.198 240.268C335.198 241.235 334.291 242.026 333.181 242.026Z" fill="#B3D0FF"/>
<path d="M333.346 248.766H246.28C245.263 248.766 244.43 248.042 244.43 247.154C244.43 246.267 245.261 245.543 246.28 245.543H333.346C334.363 245.543 335.195 246.267 335.195 247.154C335.195 248.042 334.363 248.766 333.346 248.766Z" fill="#B3D0FF"/>
<path d="M244.465 255.801H200.692C199.675 255.801 198.844 255.077 198.844 254.19C198.844 253.304 199.675 252.578 200.692 252.578H244.465C245.482 252.578 246.313 253.304 246.313 254.19C246.313 255.075 245.482 255.801 244.465 255.801Z" fill="#B3D0FF"/>
<path d="M333.342 255.801H284.935C283.916 255.801 283.086 255.077 283.086 254.19C283.086 253.304 283.918 252.578 284.935 252.578H333.342C334.359 252.578 335.191 253.304 335.191 254.19C335.191 255.075 334.359 255.801 333.342 255.801Z" fill="#B3D0FF"/>
<path d="M333.175 263.415H200.861C199.751 263.415 198.844 262.624 198.844 261.657C198.844 260.69 199.751 259.898 200.861 259.898H333.175C334.285 259.898 335.192 260.69 335.192 261.657C335.192 262.624 334.285 263.415 333.175 263.415Z" fill="#B3D0FF"/>
<path d="M246.268 280.878H203.531C202.538 280.878 201.726 280.435 201.726 279.892C201.726 279.35 202.54 278.906 203.531 278.906H246.268C247.261 278.906 248.073 279.35 248.073 279.892C248.074 280.435 247.261 280.878 246.268 280.878Z" fill="#B3D0FF"/>
<path d="M333.046 280.878H285.781C284.789 280.878 283.977 280.435 283.977 279.892C283.977 279.35 284.789 278.906 285.781 278.906H333.046C334.039 278.906 334.851 279.35 334.851 279.892C334.851 280.435 334.04 280.878 333.046 280.878Z" fill="#B3D0FF"/>
<path d="M332.884 285.543H203.696C202.613 285.543 201.726 285.058 201.726 284.468C201.726 283.876 202.613 283.391 203.696 283.391H332.884C333.968 283.391 334.853 283.876 334.853 284.468C334.853 285.06 333.968 285.543 332.884 285.543Z" fill="#B3D0FF"/>
<path d="M238.068 107.817H326.738C335.798 107.817 343.211 100.024 343.211 90.5003V73.8317C343.211 64.3079 335.798 56.5137 326.738 56.5137H238.068C229.007 56.5137 221.594 64.3063 221.594 73.8317V90.5003C221.594 100.024 229.007 107.817 238.068 107.817Z" fill="#FEB801"/>
<path d="M303.506 105.387V121.548L280.266 105.387H303.506Z" fill="#FEB801"/>
<path d="M300.688 83.0308C300.688 87.3452 304.014 90.8426 308.118 90.8426C312.223 90.8426 315.549 87.3452 315.549 83.0308C315.549 78.7165 312.223 75.2207 308.118 75.2207C304.014 75.2207 300.688 78.7165 300.688 83.0308Z" fill="#E08B03"/>
<path d="M276.086 83.0308C276.086 87.3452 279.413 90.8426 283.515 90.8426C287.618 90.8426 290.946 87.3452 290.946 83.0308C290.946 78.7165 287.619 75.2207 283.515 75.2207C279.411 75.2207 276.086 78.7165 276.086 83.0308Z" fill="#E08B03"/>
<path d="M251.484 83.0309C251.484 87.3452 254.811 90.8426 258.915 90.8426C263.018 90.8426 266.345 87.3452 266.345 83.0309C266.345 78.7165 263.018 75.2207 258.915 75.2207C254.811 75.2191 251.484 78.7165 251.484 83.0309Z" fill="#E08B03"/>
<path d="M198.84 49.873C197.408 49.873 196.234 48.6413 196.234 47.1335V26.1442C196.234 24.638 197.408 23.4062 198.84 23.4062C200.273 23.4062 201.446 24.638 201.446 26.1442V47.1335C201.445 48.6413 200.273 49.873 198.84 49.873Z" fill="#5FB7FF"/>
<path d="M186.25 36.6419C186.25 35.1357 187.422 33.9023 188.856 33.9023H208.822C210.255 33.9023 211.427 35.1357 211.427 36.6419C211.427 38.1481 210.255 39.3814 208.822 39.3814H188.856C187.422 39.3814 186.25 38.1481 186.25 36.6419Z" fill="#5FB7FF"/>
<path d="M509.53 147.64H508.94C507.753 147.64 506.781 146.619 506.781 145.371V124.128C506.781 122.879 507.753 121.859 508.94 121.859H509.531C510.72 121.859 511.69 122.881 511.69 124.128V145.371C511.688 146.619 510.717 147.64 509.53 147.64Z" fill="#5FB7FF"/>
<path d="M20.8984 64.8401C20.8984 67.7232 23.122 70.0607 25.8646 70.0607C28.6072 70.0607 30.8292 67.7232 30.8292 64.8401C30.8292 61.957 28.6056 59.6211 25.8646 59.6211C23.122 59.6195 20.8984 61.957 20.8984 64.8401Z" fill="#FA8FB8"/>
<path d="M418.722 196.405C417.81 193.322 418.192 189.466 421.305 188.025C423.072 187.208 425.241 189.08 426.912 190.964C430.925 195.484 439.957 216.738 434.925 222.058C430.178 227.077 421.601 206.15 418.722 196.405Z" fill="#FBB99D"/>
<path d="M420.256 225.479C420.256 225.479 410.957 230.27 410.211 230.894C405.443 234.889 402.371 235.848 403.415 236.497C405.339 237.694 411.787 234.54 412.761 234.085C413.953 233.523 416.853 231.851 417.796 231.135C418.741 230.418 420.256 225.479 420.256 225.479Z" fill="#FBB99D"/>
<path d="M434.546 222.451C430.058 226.986 412.766 234.124 412.766 234.124V228.799L429.956 214.383C429.956 214.383 439.029 217.914 434.546 222.451Z" fill="#FBB99D"/>
<path d="M381.504 329.245C381.504 329.245 383.04 337.388 382.471 338.714C380.777 342.665 366.955 344.819 362.037 342.724C361.349 342.43 360.559 341.25 361.802 339.528C363.045 337.807 370.635 334.938 369.779 331.585C368.925 328.233 381.504 329.245 381.504 329.245Z" fill="#E8A32B"/>
<path d="M389.894 222.268L410.821 231.836C408.796 241.101 402.916 255.297 399.05 264.099L399.111 264.106L391.407 280.894C390.608 282.633 390.092 284.519 389.883 286.464L385.365 328.368C385.152 330.335 384.118 332.089 382.545 332.992C379.813 334.56 375.086 336.395 369.528 334.815C361.332 332.487 365.18 281.242 366.849 274.917C369.81 263.694 377.747 244.945 377.896 244.458L389.894 222.268Z" fill="#6C4967"/>
<path d="M440.285 325.266C440.285 325.266 445.301 331.637 445.175 333.119C445.049 334.603 429.515 347.97 429.515 347.97C429.515 347.97 427.624 347.482 427.942 345.269C428.26 343.056 433.485 336.318 431.319 333.821C429.152 331.327 440.285 325.266 440.285 325.266Z" fill="#CA8623"/>
<path d="M444.196 331.941C440.767 331.606 426.986 346.052 428.824 347.613C431.543 349.918 441.246 342.255 443.873 337.72C446.802 332.664 444.196 331.941 444.196 331.941Z" fill="#E8A32B"/>
<path d="M400.156 228.52L420.968 223.285C423.263 232.493 426.826 248.894 427.318 258.703L427.374 258.674L428.022 277.567C428.089 279.525 428.466 281.455 429.135 283.269L443.549 322.375C444.226 324.209 444.094 326.309 443.121 327.962C441.432 330.828 438.123 335.018 432.597 336.679C424.448 339.128 405.361 292.222 404.043 285.779C401.706 274.349 400.401 253.615 400.319 253.107L400.156 228.52Z" fill="#6C4967"/>
<path d="M389.881 232.093C388.6 236.115 384.98 246.089 379.466 243.976C378.727 243.694 379.003 242.422 379.751 242.71C384.327 244.463 387.595 235.182 388.674 231.791C388.926 231.005 390.134 231.297 389.881 232.093Z" fill="#5B3C58"/>
<path d="M404.002 247.537C404.172 251.887 403.114 256.322 401.49 260.284C401.126 261.173 399.867 260.458 400.229 259.572C401.749 255.861 402.73 251.665 402.57 247.591C402.534 246.624 403.964 246.569 404.002 247.537Z" fill="#5B3C58"/>
<path d="M398.793 158.725C397.249 162.591 395.502 175.408 403.175 175.912C406.445 176.131 411.422 169.663 412.293 163.446C412.667 160.889 410.493 157.103 406.488 155.148C404.683 154.263 400.543 154.229 398.793 158.725Z" fill="#FBB99D"/>
<path d="M399.096 169.595C399.096 169.595 403.491 175.092 399.096 179.614C394.7 184.135 410.613 181.948 410.613 181.948L408.791 165.654L399.096 169.595Z" fill="#FBB99D"/>
<path d="M432.484 197.899C432.484 197.899 426.797 178.787 418.654 181.359C410.512 183.93 419.602 203.866 419.602 203.866C419.602 203.866 428.966 202.696 432.484 197.899Z" fill="#FEC44F"/>
<path d="M396.798 179.203C405.566 176.99 413.799 178.383 419.698 180.88C430.728 185.55 420.609 204.182 419.542 207.17C413.99 222.738 422.961 221.8 421.199 225.313C418.036 231.62 402.693 232.399 393.042 228.863C389.268 227.481 386.236 224.92 387.171 223.161C393.822 210.648 388.517 204.43 388.844 196.169C389.179 187.706 389.564 181.03 396.798 179.203Z" fill="#FEB801"/>
<path d="M387.226 189.149C389.202 186.678 392.494 184.931 395.33 186.907C396.938 188.029 396.611 190.959 396.006 193.456C394.555 199.448 383.869 217.633 375.77 217.518C369.037 217.424 380.981 196.963 387.226 189.149Z" fill="#FBB99D"/>
<path d="M393.471 202.136C393.471 202.136 405.697 186.781 399.239 180.965C392.781 175.151 381.734 193.964 381.734 193.964C381.734 193.964 387.728 201.614 393.471 202.136Z" fill="#FEB801"/>
<path d="M406.247 150.398C400.411 150.889 398.57 155.548 401.061 160.814C405.016 169.176 394.41 166.103 399.986 175.181C404.408 182.381 400.587 180.892 399.045 189.632C397.277 199.655 416.488 208.493 429.434 196.499C435.781 190.62 442.696 182.478 429.674 169.305C425.646 165.23 422.07 165.655 419.147 158.135C417.41 153.666 414.833 149.674 406.247 150.398Z" fill="#53424D"/>
<path d="M361.266 204.113C361.266 204.113 355.771 197.467 354.31 198.339C352.848 199.21 357.458 202.926 357.458 202.926L361.266 204.113Z" fill="#FBB99D"/>
<path d="M364.775 206.204C364.775 206.204 355.916 200.566 355.015 200.245C349.24 198.185 348.059 197.175 348.103 198.452C348.185 200.8 352.917 204.175 353.805 204.791C354.898 205.542 357.835 206.64 358.918 207.087C360.004 207.533 364.775 206.204 364.775 206.204Z" fill="#FBB99D"/>
<path d="M374.369 217.351C367.075 215.416 353.812 204.255 353.812 204.255L357.643 202.605L378.113 208.973C378.113 208.973 380.404 218.953 374.369 217.351Z" fill="#FBB99D"/>
<path d="M78.8168 177.654C78.8168 187.307 71.3736 195.133 62.1896 195.133C53.0071 195.133 45.5625 187.307 45.5625 177.654V86.5905C45.5625 76.9375 53.0071 69.1113 62.1896 69.1113C71.3721 69.1113 78.8168 76.9359 78.8168 86.5905V177.654Z" fill="#B3D0FF"/>
<path d="M159.311 89.3555H45.5625V283.44H159.311V89.3555Z" fill="#B3D0FF"/>
<path d="M175.936 69.1113H62.1875V93.0332H175.936V69.1113Z" fill="#B3D0FF"/>
<path d="M192.559 86.5905C192.559 76.9374 185.122 69.1113 175.94 69.1113C166.763 69.1113 159.312 76.9359 159.312 86.5905V111.766H192.559V86.5905Z" fill="#94B8ED"/>
<path d="M144.66 262.047H16.9062V298.838H144.66V262.047Z" fill="#94B8ED"/>
<path d="M159.309 281.371C159.309 291.018 151.864 298.842 142.682 298.842C133.505 298.842 126.055 291.018 126.055 281.371V190.307C126.055 180.654 133.505 172.828 142.682 172.828C151.864 172.828 159.309 180.654 159.309 190.307V281.371Z" fill="#B3D0FF"/>
<path d="M16.9068 298.842C26.0893 298.842 33.534 291.018 33.534 281.365V262.051H0.28125V281.365C0.279732 291.018 7.72436 298.842 16.9068 298.842Z" fill="#94B8ED"/>
<path d="M123.277 101.91H144.925C145.592 101.91 146.139 101.174 146.139 100.274C146.139 99.3742 145.592 98.6387 144.925 98.6387H123.277C122.609 98.6387 122.062 99.3742 122.062 100.274C122.064 101.174 122.609 101.91 123.277 101.91Z" fill="#FDFFFF"/>
<path d="M105.675 101.91H116.448C117.116 101.91 117.662 101.174 117.662 100.274C117.662 99.3742 117.116 98.6387 116.448 98.6387H105.675C105.007 98.6387 104.461 99.3742 104.461 100.274C104.461 101.174 105.007 101.91 105.675 101.91Z" fill="#FDFFFF"/>
<path d="M92.7298 101.91H99.2031C99.8709 101.91 100.417 101.174 100.417 100.274C100.417 99.3742 99.8709 98.6387 99.2031 98.6387H92.7298C92.062 98.6387 91.5156 99.3742 91.5156 100.274C91.5156 101.174 92.062 101.91 92.7298 101.91Z" fill="#FDFFFF"/>
<path d="M92.6281 108.176H145.027C145.639 108.176 146.14 107.501 146.14 106.678C146.14 105.855 145.639 105.18 145.027 105.18H92.6281C92.0165 105.18 91.5156 105.855 91.5156 106.678C91.5156 107.503 92.0165 108.176 92.6281 108.176Z" fill="#FDFFFF"/>
<path d="M128.238 114.715H145.03C145.642 114.715 146.143 114.04 146.143 113.217C146.143 112.394 145.642 111.719 145.03 111.719H128.238C127.626 111.719 127.125 112.394 127.125 113.217C127.125 114.042 127.626 114.715 128.238 114.715Z" fill="#FDFFFF"/>
<path d="M92.6281 114.715H121.762C122.373 114.715 122.874 114.04 122.874 113.217C122.874 112.394 122.373 111.719 121.762 111.719H92.6281C92.0165 111.719 91.5156 112.394 91.5156 113.217C91.5156 114.042 92.0165 114.715 92.6281 114.715Z" fill="#FDFFFF"/>
<path d="M92.7298 121.801H144.927C145.595 121.801 146.142 121.065 146.142 120.165C146.142 119.267 145.595 118.531 144.927 118.531H92.7298C92.062 118.531 91.5156 119.267 91.5156 120.165C91.5156 121.065 92.062 121.801 92.7298 121.801Z" fill="#FDFFFF"/>
<path d="M123.277 139.716H144.925C145.592 139.716 146.139 138.981 146.139 138.081C146.139 137.181 145.592 136.445 144.925 136.445H123.277C122.609 136.445 122.062 137.181 122.062 138.081C122.064 138.981 122.609 139.716 123.277 139.716Z" fill="#FDFFFF"/>
<path d="M105.675 139.716H116.448C117.116 139.716 117.662 138.981 117.662 138.081C117.662 137.181 117.116 136.445 116.448 136.445H105.675C105.007 136.445 104.461 137.181 104.461 138.081C104.461 138.981 105.007 139.716 105.675 139.716Z" fill="#FDFFFF"/>
<path d="M92.7298 139.716H99.2031C99.8709 139.716 100.417 138.981 100.417 138.081C100.417 137.181 99.8709 136.445 99.2031 136.445H92.7298C92.062 136.445 91.5156 137.181 91.5156 138.081C91.5156 138.981 92.062 139.716 92.7298 139.716Z" fill="#FDFFFF"/>
<path d="M92.6281 145.983H145.027C145.639 145.983 146.14 145.308 146.14 144.485C146.14 143.661 145.639 142.986 145.027 142.986H92.6281C92.0165 142.986 91.5156 143.661 91.5156 144.485C91.5156 145.309 92.0165 145.983 92.6281 145.983Z" fill="#FDFFFF"/>
<path d="M128.238 152.52H145.03C145.642 152.52 146.143 151.845 146.143 151.022C146.143 150.198 145.642 149.523 145.03 149.523H128.238C127.626 149.523 127.125 150.198 127.125 151.022C127.125 151.845 127.626 152.52 128.238 152.52Z" fill="#FDFFFF"/>
<path d="M92.6281 152.52H121.762C122.373 152.52 122.874 151.845 122.874 151.022C122.874 150.198 122.373 149.523 121.762 149.523H92.6281C92.0165 149.523 91.5156 150.198 91.5156 151.022C91.5156 151.845 92.0165 152.52 92.6281 152.52Z" fill="#FDFFFF"/>
<path d="M92.7298 159.607H144.927C145.595 159.607 146.142 158.872 146.142 157.972C146.142 157.073 145.595 156.338 144.927 156.338H92.7298C92.062 156.338 91.5156 157.073 91.5156 157.972C91.5156 158.87 92.062 159.607 92.7298 159.607Z" fill="#FDFFFF"/>
<path d="M115.755 180.671H143.229C143.868 180.671 144.391 180.258 144.391 179.753C144.391 179.249 143.868 178.836 143.229 178.836H115.755C115.116 178.836 114.594 179.249 114.594 179.753C114.594 180.258 115.116 180.671 115.755 180.671Z" fill="#FDFFFF"/>
<path d="M59.9736 180.671H90.3562C90.9952 180.671 91.5173 180.258 91.5173 179.753C91.5173 179.249 90.9952 178.836 90.3562 178.836H59.9736C59.3346 178.836 58.8125 179.249 58.8125 179.753C58.8125 180.258 59.3346 180.671 59.9736 180.671Z" fill="#FDFFFF"/>
<path d="M60.0783 185.007H143.126C143.823 185.007 144.392 184.557 144.392 184.006C144.392 183.456 143.823 183.006 143.126 183.006H60.0783C59.3817 183.006 58.8125 183.456 58.8125 184.006C58.8125 184.555 59.3817 185.007 60.0783 185.007Z" fill="#FDFFFF"/>
<path d="M108.921 201.392H144.961C145.674 201.392 146.257 200.657 146.257 199.758C146.257 198.859 145.674 198.123 144.961 198.123H108.921C108.208 198.123 107.625 198.859 107.625 199.758C107.625 200.658 108.208 201.392 108.921 201.392Z" fill="#FDFFFF"/>
<path d="M73.7354 201.392H85.2431C85.9565 201.392 86.5408 200.657 86.5408 199.758C86.5408 198.859 85.9565 198.123 85.2431 198.123H73.7354C73.0221 198.123 72.4377 198.859 72.4377 199.758C72.4393 200.658 73.0221 201.392 73.7354 201.392Z" fill="#FDFFFF"/>
<path d="M59.898 201.392H66.8129C67.5263 201.392 68.1106 200.657 68.1106 199.758C68.1106 198.859 67.5263 198.123 66.8129 198.123H59.898C59.1846 198.123 58.6018 198.859 58.6018 199.758C58.6018 200.658 59.1861 201.392 59.898 201.392Z" fill="#FDFFFF"/>
<path d="M59.7902 207.66H115.762C116.417 207.66 116.951 206.987 116.951 206.162C116.951 205.337 116.417 204.664 115.762 204.664H59.7902C59.136 204.664 58.6018 205.339 58.6018 206.162C58.6018 206.986 59.136 207.66 59.7902 207.66Z" fill="#FDFFFF"/>
<path d="M116.931 214.2H145.07C145.723 214.2 146.259 213.525 146.259 212.701C146.259 211.878 145.723 211.203 145.07 211.203H116.931C116.278 211.203 115.742 211.878 115.742 212.701C115.742 213.526 116.278 214.2 116.931 214.2Z" fill="#FDFFFF"/>
<path d="M59.7902 214.2H90.909C91.5631 214.2 92.0974 213.525 92.0974 212.701C92.0974 211.878 91.5631 211.203 90.909 211.203H59.7902C59.136 211.203 58.6018 211.878 58.6018 212.701C58.6018 213.526 59.136 214.2 59.7902 214.2Z" fill="#FDFFFF"/>
<path d="M59.898 221.285H144.957C145.67 221.285 146.253 220.547 146.253 219.649C146.253 218.751 145.67 218.014 144.957 218.014H59.898C59.1846 218.014 58.6018 218.749 58.6018 219.649C58.6018 220.549 59.1861 221.285 59.898 221.285Z" fill="#FDFFFF"/>
<path d="M115.769 237.517H143.244C143.881 237.517 144.405 237.103 144.405 236.599C144.405 236.095 143.883 235.682 143.244 235.682H115.769C115.132 235.682 114.61 236.095 114.61 236.599C114.608 237.103 115.13 237.517 115.769 237.517Z" fill="#FDFFFF"/>
<path d="M59.988 237.517H90.3721C91.0111 237.517 91.5317 237.103 91.5317 236.599C91.5317 236.095 91.0096 235.682 90.3721 235.682H59.988C59.349 235.682 58.8284 236.095 58.8284 236.599C58.8269 237.103 59.349 237.517 59.988 237.517Z" fill="#FDFFFF"/>
<path d="M60.0864 241.856H143.135C143.832 241.856 144.401 241.406 144.401 240.856C144.401 240.305 143.832 239.855 143.135 239.855H60.0864C59.3897 239.855 58.8206 240.305 58.8206 240.856C58.8206 241.406 59.3897 241.856 60.0864 241.856Z" fill="#FDFFFF"/>
<path d="M24.9205 121.224C26.112 122.751 27.3975 124.222 28.7787 125.626C29.1429 125.993 29.3448 126.463 29.3827 127.046C29.4298 127.778 29.023 128.176 28.1609 128.238C27.7906 128.265 27.4248 128.145 27.0636 127.871C26.6993 127.598 26.0103 126.837 24.9964 125.589C23.9825 124.34 23.2889 123.437 22.9095 122.878C22.5331 122.32 22.3251 121.73 22.2841 121.102C22.2629 120.78 22.3585 120.447 22.568 120.107C22.7774 119.77 23.2176 119.256 23.8899 118.567C24.5608 117.88 25.5215 116.965 26.7722 115.824C28.0213 114.684 28.8151 114.001 29.1505 113.784C29.486 113.565 29.7637 113.445 29.9777 113.431C30.3465 113.406 30.6562 113.49 30.9066 113.682C31.157 113.875 31.2921 114.138 31.3133 114.473C31.3346 114.784 31.2875 115.055 31.1737 115.288C31.0599 115.518 30.7882 115.81 30.3572 116.167C28.3704 117.784 26.5582 119.469 24.9205 121.224ZM32.4775 120.68C33.6689 122.207 34.9605 123.676 36.3508 125.079C36.7151 125.446 36.9169 125.916 36.9549 126.499C37.0019 127.231 36.5952 127.63 35.7331 127.692C35.3521 127.719 34.9833 127.6 34.6266 127.325C34.2684 127.051 33.5824 126.291 32.5685 125.042C31.5547 123.793 30.8565 122.889 30.474 122.333C30.0915 121.774 29.8821 121.184 29.8411 120.557C29.8199 120.235 29.917 119.903 30.1325 119.56C30.3465 119.223 30.7897 118.708 31.4621 118.02C32.1345 117.334 33.0937 116.42 34.3443 115.277C35.5934 114.136 36.3872 113.453 36.7242 113.236C37.0596 113.016 37.3358 112.9 37.5513 112.884C37.9202 112.857 38.2298 112.941 38.4787 113.134C38.7291 113.326 38.8642 113.589 38.8855 113.924C38.9082 114.269 38.8506 114.558 38.7109 114.792C38.5698 115.023 38.3057 115.298 37.9141 115.62C35.938 117.238 34.1242 118.923 32.4775 120.68Z" fill="#F44444"/>
<path d="M171.924 241.766C170.834 240.156 169.646 238.599 168.36 237.096C168.02 236.706 167.85 236.215 167.85 235.62C167.85 234.895 168.283 234.533 169.148 234.533C169.528 234.533 169.889 234.682 170.227 234.98C170.566 235.277 171.202 236.082 172.132 237.396C173.064 238.709 173.697 239.66 174.038 240.248C174.377 240.837 174.547 241.445 174.547 242.072C174.547 242.398 174.431 242.721 174.201 243.044C173.97 243.368 173.497 243.85 172.782 244.488C172.067 245.126 171.048 245.968 169.728 247.017C168.407 248.065 167.571 248.687 167.222 248.882C166.873 249.077 166.589 249.174 166.374 249.174C166.003 249.174 165.7 249.069 165.463 248.858C165.226 248.647 165.109 248.374 165.109 248.039C165.109 247.716 165.175 247.446 165.302 247.229C165.43 247.014 165.726 246.742 166.19 246.418C168.262 244.938 170.176 243.387 171.924 241.766ZM179.513 241.766C178.423 240.156 177.235 238.599 175.949 237.096C175.611 236.706 175.441 236.215 175.441 235.62C175.441 234.895 175.872 234.533 176.737 234.533C177.107 234.533 177.464 234.682 177.809 234.98C178.153 235.277 178.791 236.082 179.721 237.396C180.651 238.709 181.286 239.66 181.627 240.248C181.967 240.837 182.136 241.445 182.136 242.072C182.136 242.398 182.02 242.721 181.79 243.044C181.559 243.368 181.085 243.85 180.37 244.488C179.656 245.126 178.639 245.968 177.317 247.017C175.996 248.065 175.16 248.687 174.811 248.882C174.462 249.077 174.178 249.174 173.962 249.174C173.594 249.174 173.29 249.069 173.052 248.858C172.815 248.647 172.698 248.374 172.698 248.039C172.698 247.716 172.762 247.446 172.889 247.229C173.018 247.014 173.308 246.742 173.761 246.418C175.846 244.938 177.765 243.387 179.513 241.766Z" fill="#F44444"/>
</svg>
