<svg width="542" height="367" viewBox="0 0 542 367" fill="none" xmlns="http://www.w3.org/2000/svg">
<path d="M508.787 323.936C508.787 341.61 401.995 343.103 267.888 343.103C133.781 343.103 36.5156 342.397 36.5156 327.271C36.5156 312.147 134.415 310.027 268.523 310.027C402.631 310.027 508.787 308.813 508.787 323.936Z" fill="#E3E5FC"/>
<g opacity="0.8">
<path d="M304.235 54.9302V108.325C304.235 115.255 298.564 120.927 291.654 120.927H175.456C168.548 120.927 162.875 115.256 162.875 108.325V54.9302C162.875 48.0009 168.546 42.3281 175.456 42.3281H291.654C298.564 42.3299 304.235 48.0009 304.235 54.9302Z" fill="#C3C5F2"/>
</g>
<path d="M224.316 111.59H219.562V116.343H224.316V111.59Z" fill="#9C9CE5"/>
<path d="M252.651 113.506H227.164V114.43H252.651V113.506Z" fill="white"/>
<path d="M172.125 51.9512V107.183H295.016V51.9512H172.125ZM294.091 61.0475H283.316V52.8757H294.091V61.0475ZM233.384 79.2385H222.058V71.0666H233.384V79.2385ZM234.309 71.0666H245.637V79.2385H234.309V71.0666ZM221.132 79.2385H209.804V71.0666H221.132V79.2385ZM221.132 80.163V88.3331H209.804V80.163H221.132ZM222.056 80.163H233.383V88.3331H222.056V80.163ZM234.309 80.163H245.637V88.3331H234.309V80.163ZM246.56 80.163H257.888V88.3331H246.56V80.163ZM246.56 79.2385V71.0666H257.888V79.2385H246.56ZM258.812 71.0666H270.14V79.2385H258.812V71.0666ZM258.812 70.1421V61.972H270.14V70.1421H258.812ZM257.888 70.1421H246.56V61.972H257.888V70.1421ZM245.635 70.1421H234.307V61.972H245.635V70.1421ZM233.384 70.1421H222.058V61.972H233.384V70.1421ZM221.132 70.1421H209.804V61.972H221.132V70.1421ZM208.881 70.1421H197.555V61.972H208.881V70.1421ZM208.881 71.0666V79.2385H197.555V71.0666H208.881ZM196.628 79.2385H185.3V71.0666H196.628V79.2385ZM196.628 80.163V88.3331H185.3V80.163H196.628ZM197.553 80.163H208.879V88.3331H197.553V80.163ZM208.881 89.2593V97.4295H197.555V89.2593H208.881ZM209.805 89.2593H221.133V97.4295H209.805V89.2593ZM222.056 89.2593H233.383V97.4295H222.056V89.2593ZM234.309 89.2593H245.637V97.4295H234.309V89.2593ZM246.56 89.2593H257.888V97.4295H246.56V89.2593ZM258.812 89.2593H270.14V97.4295H258.812V89.2593ZM258.812 88.3348V80.1647H270.14V88.3348H258.812ZM271.063 80.163H282.391V88.3331H271.063V80.163ZM271.063 79.2385V71.0666H282.391V79.2385H271.063ZM271.063 70.1421V61.972H282.391V70.1421H271.063ZM271.063 61.0475V52.8757H282.391V61.0475H271.063ZM270.138 61.0475H258.81V52.8757H270.138V61.0475ZM257.888 61.0475H246.56V52.8757H257.888V61.0475ZM245.635 61.0475H234.307V52.8757H245.635V61.0475ZM233.384 61.0475H222.058V52.8757H233.384V61.0475ZM221.132 61.0475H209.804V52.8757H221.132V61.0475ZM208.881 61.0475H197.555V52.8757H208.881V61.0475ZM196.628 61.0475H185.3V52.8757H196.628V61.0475ZM196.628 61.9703V70.1404H185.3V61.9703H196.628ZM184.378 70.1421H173.049V61.972H184.376L184.378 70.1421ZM184.378 71.0666V79.2385H173.049V71.0666H184.378ZM184.378 80.163V88.3331H173.049V80.163H184.378ZM184.378 89.2593V97.4295H173.049V89.2593H184.378ZM185.302 89.2593H196.63V97.4295H185.302V89.2593ZM196.628 98.354V106.258H185.3V98.354H196.628ZM197.553 98.354H208.879V106.258H197.553V98.354ZM209.805 98.354H221.133V106.258H209.805V98.354ZM222.056 98.354H233.383V106.258H222.056V98.354ZM234.309 98.354H245.637V106.258H234.309V98.354ZM246.56 98.354H257.888V106.258H246.56V98.354ZM258.812 98.354H270.14V106.258H258.812V98.354ZM271.063 98.354H282.391V106.258H271.063V98.354ZM271.063 97.4295V89.2593H282.391V97.4295H271.063ZM283.316 89.2593H294.091V97.4295H283.316V89.2593ZM283.316 88.3348V80.1647H294.091V88.3348H283.316ZM283.316 79.2385V71.0666H294.091V79.2385H283.316ZM283.316 70.1421V61.972H294.091V70.1421H283.316ZM184.378 52.8757V61.0475H173.049V52.8757H184.378ZM173.049 98.354H184.376V106.258H173.049V98.354ZM283.316 106.258V98.354H294.091V106.258H283.316Z" fill="white"/>
<path d="M177.921 66.0762H175.969V106.259H177.921V66.0762Z" fill="#9C9CE5"/>
<path d="M181.827 74.5332H179.875V106.259H181.827V74.5332Z" fill="#9C9CE5"/>
<path d="M189.632 84.6152H187.68V106.259H189.632V84.6152Z" fill="#9C9CE5"/>
<path d="M193.538 93.2344H191.586V106.259H193.538V93.2344Z" fill="#9C9CE5"/>
<path d="M251.124 92.2578H249.172V106.258H251.124V92.2578Z" fill="#9C9CE5"/>
<path d="M255.03 74.5332H253.078V106.259H255.03V74.5332Z" fill="#9C9CE5"/>
<path d="M262.843 84.6152H260.891V106.259H262.843V84.6152Z" fill="#9C9CE5"/>
<path d="M266.749 102.016H264.797V106.259H266.749V102.016Z" fill="#9C9CE5"/>
<path d="M238.436 71.4434H236.484V106.259H238.436V71.4434Z" fill="#9C9CE5"/>
<path d="M242.343 64.2852H240.391V106.258H242.343V64.2852Z" fill="#9C9CE5"/>
<path d="M201.343 99.7461H199.391V106.258H201.343V99.7461Z" fill="#9C9CE5"/>
<path d="M205.249 73.8809H203.297V106.257H205.249V73.8809Z" fill="#9C9CE5"/>
<path d="M214.03 93.2344H212.078V106.259H214.03V93.2344Z" fill="#9C9CE5"/>
<path d="M217.936 67.5391H215.984V106.258H217.936V67.5391Z" fill="#9C9CE5"/>
<path d="M226.233 76.9707H224.281V106.257H226.233V76.9707Z" fill="#9C9CE5"/>
<path d="M230.14 84.6152H228.188V106.259H230.14V84.6152Z" fill="#9C9CE5"/>
<path d="M275.53 99.2578H273.578V106.257H275.53V99.2578Z" fill="#9C9CE5"/>
<path d="M279.436 68.8398H277.484V106.258H279.436V68.8398Z" fill="#9C9CE5"/>
<path d="M287.249 65.75H285.297V106.258H287.249V65.75Z" fill="#9C9CE5"/>
<path d="M291.147 56.1543H289.195V106.257H291.147V56.1543Z" fill="#9C9CE5"/>
<path d="M181.011 111.59H176.258V116.343H181.011V111.59Z" fill="#9C9CE5"/>
<path d="M209.341 113.506H183.852V114.43H209.341V113.506Z" fill="white"/>
<path d="M403.907 259.558V320.387C403.907 325.6 399.678 329.83 394.464 329.83H300.644C296.647 329.83 293.344 326.528 293.344 322.502V261.702C293.344 261.297 293.373 260.919 293.431 260.543C294.01 255.879 298.008 252.26 302.788 252.26H396.609C400.634 252.258 403.907 255.561 403.907 259.558Z" fill="#C3C5F2"/>
<path d="M346.403 307.033H304.922V308.267H346.403V307.033Z" fill="white"/>
<path d="M346.403 312.826H304.922V314.06H346.403V312.826Z" fill="white"/>
<path d="M346.403 318.619H304.922V319.853H346.403V318.619Z" fill="white"/>
<path d="M304.297 262.236V299.357H392.945V262.236H304.297ZM391.709 271.387H382.082V263.47H391.709V271.387ZM348.04 280.536H338.339V272.619H348.042L348.04 280.536ZM349.274 272.621H358.976V280.537H349.274V272.621ZM337.105 280.536H327.402V272.619H337.105V280.536ZM337.105 281.769V289.686H327.402V281.769H337.105ZM338.339 281.769H348.042V289.686H338.339V281.769ZM349.274 281.769H358.976V289.686H349.274V281.769ZM360.21 281.769H369.913V289.686H360.21V281.769ZM360.21 280.536V272.619H369.913V280.536H360.21ZM371.147 272.621H380.85V280.537H371.147V272.621ZM371.147 271.387V263.47H380.85V271.387H371.147ZM369.913 271.387H360.21V263.47H369.913V271.387ZM358.976 271.387H349.274V263.47H358.976V271.387ZM348.04 271.387H338.339V263.47H348.042L348.04 271.387ZM337.105 271.387H327.402V263.47H337.105V271.387ZM326.168 271.387H316.466V263.47H326.168V271.387ZM326.168 272.621V280.537H316.466V272.621H326.168ZM315.232 280.536H305.529V272.619H315.232V280.536ZM315.232 281.769V289.686H305.529V281.769H315.232ZM316.466 281.769H326.168V289.686H316.466V281.769ZM326.168 290.92V298.124H316.466V290.92H326.168ZM327.402 290.92H337.105V298.124H327.402V290.92ZM338.339 290.92H348.042V298.124H338.339V290.92ZM349.274 290.92H358.976V298.124H349.274V290.92ZM360.21 290.92H369.913V298.124H360.21V290.92ZM371.147 290.92H380.85V298.124H371.147V290.92ZM371.147 289.686V281.769H380.85V289.686H371.147ZM382.082 281.769H391.709V289.686H382.082V281.769ZM382.082 280.536V272.619H391.709V280.536H382.082ZM315.232 263.47V271.387H305.529V263.47H315.232ZM305.531 290.92H315.233V298.124H305.531V290.92ZM382.082 298.124V290.92H391.709V298.124H382.082Z" fill="white"/>
<path d="M384.971 269.002C382.889 269.463 380.808 269.923 378.727 270.384C379.59 271.373 380.032 271.88 380.362 272.256L370.434 280.105L359.985 271.627C359.758 271.443 359.429 271.445 359.202 271.634L337.834 289.531L327.184 280.68C326.953 280.491 326.623 280.489 326.396 280.678L308.895 295.113C308.633 295.328 308.596 295.718 308.813 295.98C308.934 296.127 309.11 296.204 309.288 296.204C309.427 296.204 309.566 296.158 309.682 296.062L326.787 281.955L337.441 290.809C337.673 290.997 338.005 290.999 338.231 290.807L359.604 272.906L370.041 281.375C370.268 281.559 370.586 281.56 370.812 281.38L381.175 273.189C381.5 273.561 381.937 274.061 382.764 275.007C383.498 273.004 384.235 271.003 384.971 269.002Z" fill="#9C9CE5"/>
<path d="M392.326 307.033H354.156V308.267H392.326V307.033Z" fill="white"/>
<path d="M392.326 312.826H354.156V314.06H392.326V312.826Z" fill="white"/>
<path d="M392.326 318.619H354.156V319.853H392.326V318.619Z" fill="white"/>
<path d="M288.989 212.949V145.824H287.14V212.949H271.163V145.824H269.313V212.949H253.341V145.824H251.491V212.949H235.516V145.824H233.665V212.949H217.693V145.824H215.843V212.949H199.868V145.824H198.017V212.949H182.044V145.824H180.193V212.949H164.218V145.824H162.367V214.799H304.747V212.949H288.989Z" fill="#E6E7FA"/>
<path d="M191.225 198.514C189.646 198.514 188.374 198.276 187.74 198.157C184.727 197.593 183.037 196.478 181.403 195.399C179.893 194.403 178.469 193.461 176.043 193.091C174.177 192.801 171.225 192.65 167.144 194.611L166.609 193.498C170.999 191.389 174.205 191.563 176.232 191.871C178.923 192.283 180.529 193.344 182.083 194.37C183.614 195.38 185.199 196.425 187.96 196.941C188.932 197.124 191.492 197.601 194.232 196.93C198.329 195.931 200.52 192.912 202.841 189.718C205.296 186.336 207.836 182.843 212.802 181.064C215.641 180.045 218.003 180.06 218.996 180.06C225.585 180.083 229.288 183.531 232.556 186.572C235.1 188.94 237.299 190.99 240.385 190.99C244.847 190.966 248.094 186.635 251.528 182.051C255.733 176.443 260.497 170.087 268.578 169.849C269.756 169.812 270.923 169.914 272.026 170.137C278.137 171.377 281.278 176.485 284.313 181.427C287.099 185.96 289.979 190.644 295.157 192.329C297.37 193.049 299.858 193.157 302.543 192.654L302.77 193.868C299.878 194.408 297.186 194.29 294.776 193.5C289.163 191.679 286.164 186.796 283.261 182.072C280.229 177.138 277.366 172.478 271.778 171.345C270.781 171.142 269.687 171.046 268.609 171.079C261.124 171.298 256.748 177.138 252.514 182.787C248.889 187.624 245.465 192.192 240.427 192.219C236.811 192.219 234.335 189.912 231.713 187.47C228.611 184.583 225.097 181.31 218.991 181.289C218.051 181.294 215.854 181.277 213.22 182.219C208.612 183.87 206.186 187.207 203.841 190.436C201.382 193.819 199.061 197.016 194.526 198.124C193.357 198.417 192.229 198.514 191.225 198.514Z" fill="url(#paint0_linear_79_8110)"/>
<path d="M421.46 171.448H323.348C319.925 171.448 317.125 168.647 317.125 165.225V100.118C317.125 96.694 319.926 93.8926 323.348 93.8926H421.46C424.883 93.8926 427.685 96.694 427.685 100.118V165.225C427.683 168.647 424.883 171.448 421.46 171.448Z" fill="#E3E5FC"/>
<path d="M421.717 164.336H323.456C323.269 163.617 322.234 159.346 324.817 155.746C327.209 152.412 331.17 151.793 332.389 151.667C336.04 151.295 337.15 153.109 340.545 152.249C342.295 151.807 343.53 150.886 345.4 149.53C348.071 147.593 348.244 146.672 350.385 145.453C350.64 145.306 352.807 144.098 355.596 143.78C359.846 143.294 361.662 145.234 364.432 145.646C370.274 146.515 371.774 137.448 381.765 132.746C384.306 131.55 392.509 127.69 401.936 129.362C406.015 130.086 408.407 131.505 412.366 130.683C416.71 129.78 419.795 126.83 421.719 124.486C421.717 137.772 421.717 151.054 421.717 164.336Z" fill="#ABA4FC"/>
<path d="M421.717 164.336H323.273C323.273 162.702 323.273 164.177 323.273 162.543C324.352 160.555 326.237 157.87 329.306 156.912C333.009 155.756 335.143 158.141 340.007 158.466C345.809 158.854 346.842 155.731 354.143 154.113C362.326 152.299 363.533 155.665 371.01 154.305C380.052 152.661 379.3 147.552 388.255 145.067C398.169 142.318 402.635 147.598 411.796 144.095C416.554 142.278 419.789 139.157 421.719 136.918C421.717 146.058 421.717 155.196 421.717 164.336Z" fill="url(#paint1_linear_79_8110)"/>
<path d="M421.594 102.303H385.984V104.166H421.594V102.303Z" fill="white"/>
<path d="M421.594 112.23H385.984V114.093H421.594V112.23Z" fill="white"/>
<path d="M346.899 100.395H323.336V102.257H346.899V100.395Z" fill="white"/>
<path d="M346.899 106.609H323.336V108.472H346.899V106.609Z" fill="white"/>
<path d="M346.899 112.824H323.336V114.687H346.899V112.824Z" fill="white"/>
<path d="M383.659 100.395H377.984V106.069H383.659V100.395Z" fill="#ABA4FC"/>
<path d="M383.659 110.326H377.984V116.001H383.659V110.326Z" fill="url(#paint2_linear_79_8110)"/>
<path d="M412.484 86.5075H426.132V27.957H412.484V86.5075Z" fill="url(#paint3_linear_79_8110)"/>
<path d="M388.906 86.5066H402.555V41.0527H388.906V86.5066Z" fill="url(#paint4_linear_79_8110)"/>
<path d="M365.336 86.5076H378.983V48.8359H365.336V86.5076Z" fill="url(#paint5_linear_79_8110)"/>
<path d="M341.805 86.5074H355.452V59.3477H341.805V86.5074Z" fill="url(#paint6_linear_79_8110)"/>
<path d="M318.234 86.5075H331.882V67.4392H318.234V86.5075Z" fill="url(#paint7_linear_79_8110)"/>
<path d="M311.199 329.819H229.283C224.229 329.819 220.094 325.684 220.094 320.63V278.421C220.094 273.367 224.229 269.232 229.283 269.232H311.199C316.253 269.232 320.388 273.367 320.388 278.421V320.63C320.388 325.684 316.253 329.819 311.199 329.819Z" fill="#9C9CE5"/>
<path d="M234.906 276.025H230.984V323.131H234.906V276.025Z" fill="white"/>
<path d="M247.656 276.025H243.734V323.131H247.656V276.025Z" fill="white"/>
<path d="M260.398 276.025H256.477V323.131H260.398V276.025Z" fill="white"/>
<path d="M273.14 276.025H269.219V323.131H273.14V276.025Z" fill="white"/>
<path d="M234.906 308.807H230.984V323.13H234.906V308.807Z" fill="url(#paint8_linear_79_8110)"/>
<path d="M247.656 291.699H243.734V323.132H247.656V291.699Z" fill="url(#paint9_linear_79_8110)"/>
<path d="M260.398 283.055H256.477V323.131H260.398V283.055Z" fill="url(#paint10_linear_79_8110)"/>
<path d="M273.14 295.582H269.219V323.131H273.14V295.582Z" fill="url(#paint11_linear_79_8110)"/>
<path d="M301.639 287.07H283.688V288.807H301.639V287.07Z" fill="white"/>
<path d="M310.55 292.863H283.688V294.6H310.55V292.863Z" fill="white"/>
<path d="M310.55 298.656H283.688V300.393H310.55V298.656Z" fill="white"/>
<path d="M310.55 304.451H283.688V306.188H310.55V304.451Z" fill="white"/>
<path d="M310.55 310.244H283.688V311.981H310.55V310.244Z" fill="white"/>
<path d="M465.107 318.051V329.229C465.107 329.55 464.838 329.821 464.516 329.821H447.784C447.514 329.821 447.265 329.624 447.216 329.353C447.143 329.082 447.265 328.809 447.514 328.687C449.315 327.823 450.92 327.131 452.276 326.563C453.164 326.193 453.95 325.899 454.618 325.653C456.493 324.936 457.776 324.543 458.443 323.285C458.863 322.495 458.814 321.829 458.69 319.386C458.665 319.015 458.641 318.572 458.616 318.054H465.107V318.051Z" fill="#F7B690"/>
<path d="M465.107 326.562V329.228C465.107 329.549 464.838 329.82 464.516 329.82H447.784C447.514 329.82 447.265 329.623 447.216 329.352C447.143 329.081 447.265 328.808 447.514 328.686C449.315 327.823 450.918 327.13 452.276 326.562H465.107Z" fill="#2D2169"/>
<path d="M493.091 317.854V329.229C493.091 329.55 492.822 329.821 492.5 329.821H475.768C475.473 329.821 475.249 329.624 475.176 329.353C475.101 329.082 475.249 328.809 475.496 328.687C477.273 327.824 478.877 327.132 480.233 326.564C481.121 326.193 481.883 325.9 482.573 325.653C484.449 324.937 485.731 324.543 486.424 323.285C486.843 322.495 486.77 321.829 486.645 319.386C486.621 318.967 486.597 318.449 486.572 317.857H493.091V317.854Z" fill="#F7B690"/>
<path d="M493.091 326.562V329.228C493.091 329.549 492.821 329.82 492.5 329.82H475.768C475.471 329.82 475.249 329.623 475.176 329.352C475.101 329.081 475.251 328.808 475.496 328.686C477.273 327.823 478.875 327.13 480.233 326.562H493.091Z" fill="#2D2169"/>
<path d="M433.667 160.265C432.679 161.697 431.668 163.104 430.68 164.535C430.236 164.164 429.742 163.672 429.249 163.104C428.632 162.363 428.558 162.092 428.039 161.426C426.657 159.699 425.942 159.846 424.831 158.563C423.548 157.059 422.709 154.689 423.548 153.579C423.77 153.308 424.238 152.962 424.633 153.036C425.448 153.233 425.275 155.035 426.435 155.676C426.903 155.923 427.374 155.898 427.693 155.849V147.607C429.445 149.532 430.259 151.309 430.705 152.592C431.495 154.935 431.273 156.54 432.555 158.736C432.901 159.327 433.296 159.846 433.667 160.265Z" fill="#F7B690"/>
<path d="M461.652 168.779C460.788 172.851 460.072 177.243 459.357 181.758C454.965 181.758 449.016 180.944 442.996 177.562C435.766 173.515 431.965 167.814 430.336 165.027C430.46 164.854 434.037 159.745 434.21 159.475C436.332 161.622 443.564 168.358 454.644 169.123C457.234 169.298 459.603 169.125 461.652 168.779Z" fill="#582EBF"/>
<path d="M495.043 264.056C494.945 282.392 494.624 300.332 494.08 317.853H485.468C482.581 301.565 479.891 284.662 477.448 267.191C475.03 249.991 473.03 233.235 471.328 216.998C471.328 216.998 490.306 216.998 494.797 217.023C495.043 232.396 495.141 248.09 495.043 264.056Z" fill="#2D2169"/>
<path d="M481.239 216.998C476.18 250.707 471.146 284.367 466.087 318.051H457.302C456.412 301.887 455.846 284.934 455.697 267.265C455.573 249.621 455.907 232.668 456.549 216.504C456.524 216.701 456.536 216.85 456.536 216.972C464.755 216.998 472.997 216.998 481.239 216.998Z" fill="#433082"/>
<path d="M427.175 174.183C426.311 175.491 425.448 176.799 424.583 178.131C421.869 176.651 421.893 176.675 421.769 176.6C416.488 174.404 413.774 176.305 409.407 174.133C407.629 173.245 406.371 172.133 405.656 171.419C409.704 171.419 413.776 171.419 417.797 171.443C417.797 171.394 417.846 171.294 417.846 171.246C417.772 169.814 415.081 168.951 415.28 167.322C415.28 167.224 415.305 166.779 415.626 166.532C416.17 166.186 417.009 166.656 417.748 167.076C418.784 167.717 419.648 168.161 420.338 168.631C421.028 169.051 421.423 169.372 421.942 169.865C422.855 170.728 423.398 171.494 423.522 171.691C424.19 172.579 425.548 173.418 427.175 174.183Z" fill="#F7B690"/>
<path d="M494.79 217.023C490.275 217.023 464.758 216.999 456.54 216.974C456.54 216.85 456.528 216.703 456.553 216.506C456.677 212.902 457.379 196.541 458.637 186.819C455.726 187.56 452.566 187.98 449.162 187.953C436.009 187.805 427.027 180.821 424.312 178.527C424.41 178.403 424.486 178.256 424.583 178.132C425.447 176.798 427.446 173.789 427.57 173.591C430.679 174.874 433.32 175.664 435.17 176.132C445.509 178.798 454.197 177.959 457.454 175.589C457.578 175.465 458.393 174.899 459.405 174.109C459.873 173.738 460.368 173.319 460.86 172.924C461.107 171.517 461.379 170.11 461.65 168.778C463.847 158.242 467.005 150.023 472.952 148.025C473.421 147.877 475.937 147.062 478.751 148.025C484.771 150.123 487.166 158.834 488.819 165.967C491.089 175.764 493.656 188.521 494.569 210.508C494.691 213.247 494.74 215.517 494.79 217.023Z" fill="#733CDF"/>
<path d="M458.325 186.397C458.187 186.397 458.064 186.307 458.026 186.168C457.982 186.004 458.082 185.833 458.244 185.791C462.364 184.697 466.322 183.061 470.015 180.931C473.69 178.809 477.078 176.207 480.088 173.196C480.208 173.075 480.406 173.075 480.527 173.196C480.647 173.316 480.647 173.514 480.527 173.635C477.475 176.682 474.045 179.318 470.324 181.466C466.586 183.622 462.577 185.281 458.405 186.389C458.377 186.396 458.351 186.397 458.325 186.397Z" fill="#5034A5"/>
<path d="M462.7 171.706C462.623 171.706 462.546 171.676 462.485 171.619C462.362 171.498 462.359 171.302 462.478 171.182L473.57 159.803C473.689 159.681 473.886 159.677 474.007 159.796C474.129 159.917 474.133 160.112 474.014 160.233L462.922 171.612C462.86 171.675 462.778 171.706 462.7 171.706Z" fill="#5034A5"/>
<path d="M481.269 132.33C480.627 133.342 479.221 133.761 477.889 133.268C475.47 136.353 473.817 136.921 472.683 136.724C470.857 136.402 470.142 134.132 467.599 133.688C466.439 133.49 465.427 133.761 464.736 134.009C464.712 134.109 464.712 134.231 464.688 134.355C464.761 132.332 464.909 129.445 465.329 126.039C465.6 123.891 465.797 122.41 465.995 121.374C469.598 123.103 474.731 119.08 477.396 121.201C478.532 122.089 479.371 124.261 478.062 129.689C478.925 128.777 480.259 128.677 481.073 129.37C482.01 130.135 481.788 131.54 481.269 132.33Z" fill="#F7B690"/>
<path d="M480.129 144.248C479.98 145.975 479.907 147.382 479.856 148.469C479.239 148.79 477.734 149.456 475.784 149.283C474.204 149.134 473.046 148.542 472.453 148.173L472.527 147.654C475.316 147.359 478.205 146.247 480.129 144.248Z" fill="#F7B690"/>
<path d="M483.442 135.958C482.503 140.154 481.961 142.349 480.135 144.249C478.211 146.248 475.322 147.358 472.535 147.655C469.377 147.976 466.39 147.236 465.156 145.507C464.269 144.298 464.293 142.496 464.342 138.919C464.342 137.068 464.515 135.512 464.688 134.378C464.712 134.23 464.712 134.107 464.737 134.008C465.427 133.761 466.439 133.49 467.599 133.686C470.141 134.13 470.857 136.4 472.683 136.722C473.819 136.919 475.473 136.351 477.889 133.267C479.223 133.76 480.628 133.34 481.269 132.328C481.788 131.538 482.01 130.132 481.072 129.368C480.258 128.678 478.924 128.775 478.061 129.688C479.368 124.26 478.529 122.087 477.395 121.199C474.73 119.078 469.597 123.099 465.993 121.372C465.771 121.248 465.55 121.126 465.328 120.953C463.699 119.744 462.884 117.349 463.575 115.943C465.055 112.982 473.272 114.758 474.384 115.006C477.468 115.672 480.626 116.364 482.552 119.102C483.81 120.853 483.934 122.73 484.181 126.505C484.454 130.85 483.837 134.256 483.442 135.958Z" fill="#2D2169"/>
<path d="M151.227 263.532H153.122C154.139 263.532 154.972 262.7 154.972 261.681V261.038C154.972 260.021 154.139 259.188 153.122 259.188H97.6855C96.6684 259.188 95.8348 260.021 95.8348 261.038V261.681C95.8348 262.7 96.6684 263.532 97.6855 263.532H102.076L93.984 326.785C93.9211 327.28 94.2619 327.74 94.7582 327.816C95.2633 327.895 95.7369 327.551 95.8155 327.046L105.78 263.74C105.789 263.668 105.765 263.602 105.765 263.532H147.54C147.542 263.621 147.515 263.703 147.529 263.794L157.487 327.048C157.566 327.54 158.022 327.885 158.518 327.822C159.025 327.757 159.383 327.294 159.319 326.787L151.227 263.532Z" fill="#9C9CE5"/>
<path d="M146.662 327.426C146.662 327.426 146.657 327.501 146.657 327.574C146.608 327.772 146.318 327.967 145.898 328.116H128.379C128.379 328.116 127.564 328.284 127.021 327.716C126.577 327.223 126.641 326.61 126.668 326.534C128.05 323.03 129.434 319.504 130.841 315.998H137.478C137.01 316.937 136.491 318.022 135.998 319.231C135.257 321.057 135.308 321.452 135.455 321.723C135.825 322.611 136.662 323.249 140.981 324.705C140.981 324.705 143.029 325.325 146.384 327.003C146.409 327.027 146.48 327.055 146.529 327.106C146.606 327.207 146.662 327.303 146.662 327.426Z" fill="#F7B690"/>
<path d="M126.671 326.535C126.658 326.616 126.573 327.234 127.024 327.717C127.562 328.292 128.345 328.126 128.382 328.117C134.22 328.117 140.061 328.117 145.9 328.117C146.319 327.977 146.616 327.76 146.658 327.575C146.676 327.5 146.663 327.427 146.663 327.427C146.655 327.308 146.613 327.194 146.532 327.109C146.482 327.054 146.426 327.025 146.387 327.005C143.03 325.319 140.984 324.707 140.984 324.707C139.615 324.251 138.626 323.877 137.861 323.547H127.847C127.454 324.543 127.064 325.539 126.671 326.535Z" fill="#2D2169"/>
<path d="M203.178 327.718C203.129 327.94 202.93 328.117 202.683 328.117H186.77C186.399 328.141 185.899 328.098 185.48 327.802C184.961 327.456 184.784 326.911 184.735 326.714C184.438 325.826 182.988 321.899 180.891 316.223H187.701C189.008 319.258 189.65 320.787 190.391 321.553C192.192 323.503 193.751 323.155 199.896 325.794C201.203 326.338 202.231 326.829 202.897 327.151C203.096 327.248 203.229 327.472 203.178 327.718Z" fill="#F7B690"/>
<path d="M184.738 326.714C184.8 326.895 184.971 327.449 185.483 327.802C185.911 328.098 186.402 328.14 186.773 328.117C192.077 328.117 197.382 328.117 202.686 328.117C202.926 328.117 203.13 327.951 203.181 327.718C203.232 327.486 203.118 327.248 202.901 327.15C202.257 326.841 201.203 326.35 199.901 325.794C197.075 324.588 195.249 324.01 193.894 323.547H183.594C184.195 325.186 184.6 326.292 184.738 326.714Z" fill="#2D2169"/>
<path d="M123.926 172.6C122.766 173.736 121.261 174.155 121.261 174.155C120.003 174.575 118.917 174.526 118.25 174.452C118.374 175.76 118.496 177.044 118.596 178.351C117.879 178.82 116.301 179.634 114.204 179.659C112.897 179.659 111.86 179.361 111.168 179.091C111.02 177.486 110.922 176.523 110.822 175.858C110.847 175.882 110.92 175.882 110.92 175.882C111.216 175.906 111.464 175.906 111.637 175.882C112.254 176.031 112.649 175.931 112.895 175.782C114.104 175.066 114.104 172.229 112.871 168.675C112.822 168.724 111.71 169.613 110.403 169.194C110.279 169.145 109.342 168.799 108.947 167.811C108.577 166.824 108.923 165.639 109.638 165.195C110.576 164.627 111.586 165.59 112.056 165.195C113.019 164.356 108.898 159.841 110.132 157.719C110.798 156.634 112.378 157.102 116.796 156.412C119.634 155.968 121.633 155.646 122.989 154.98C126.567 161.274 126.247 170.256 123.926 172.6Z" fill="#F7B690"/>
<path d="M124.594 153.601C124.199 154.193 123.682 154.637 122.99 154.983C121.632 155.649 119.635 155.97 116.796 156.414C112.378 157.105 110.8 156.636 110.133 157.721C108.899 159.843 113.02 164.359 112.057 165.198C111.589 165.593 110.577 164.63 109.638 165.198C108.922 165.642 108.577 166.827 108.948 167.814C109.343 168.801 110.281 169.146 110.404 169.196C111.711 169.616 112.822 168.728 112.871 168.677C114.416 172.068 114.219 174.965 112.896 175.785C112.641 175.944 112.024 176.222 110.823 175.858C106.529 175.29 104.308 167 104.186 166.481C103.815 165.074 101.694 156.042 106.826 151.033C107.221 150.663 107.567 150.465 108.085 150.095C109.047 149.429 111.637 147.8 119.016 146.739C122.471 146.247 123.088 146.444 123.556 146.764C125.409 148.024 125.95 151.528 124.594 153.601Z" fill="#2D2169"/>
<path d="M140.218 213.837C137.701 203.103 132.371 180.498 118.675 178.303C118.651 178.327 118.626 178.327 118.602 178.352C117.885 178.82 116.307 179.634 114.21 179.659C112.903 179.659 111.866 179.362 111.174 179.091C108.485 180.003 102.833 182.695 96.344 197.081C94.8393 200.412 83.8084 224.966 91.0872 230.272C92.1725 231.062 93.2595 231.159 96.517 231.111H97.0099C96.8858 233.949 96.8613 236.638 96.912 239.057C96.9609 238.686 97.0099 238.391 97.0606 238.118H132.892C132.868 236.119 132.819 233.825 132.695 231.284C134.916 231.727 137.679 231.852 139.605 230.272C141.132 229.062 143.081 226.053 140.218 213.837Z" fill="#733CDF"/>
<path d="M116.359 224.858C118.09 224.579 119.573 224.367 120.734 224.21C124.197 223.743 125.44 223.689 126.927 223.953C128.542 224.24 129.353 224.71 129.563 224.835C130.422 225.351 130.968 226.038 132.056 227.413C133.846 229.671 133.636 230.174 133.545 230.321C133.444 230.484 133.28 230.547 133.25 230.559C131.981 231.024 129.748 226.492 128.498 226.903C127.86 227.113 128.318 228.336 127.396 229.217C125.882 230.664 122.352 229.568 121.962 229.447C120.758 229.073 120.173 228.619 118.963 228.677C118.093 228.719 117.389 229.002 116.924 229.241C116.737 227.778 116.548 226.317 116.359 224.858Z" fill="#F7B690"/>
<path d="M170.738 203.127C170.3 202.412 169.524 201.979 168.685 201.979H135.162C134.253 201.979 133.423 202.489 133.012 203.3L120.968 227.094C120.795 227.434 120.72 227.807 120.718 228.175H104.367V230.591H156.638C157.547 230.591 158.377 230.08 158.786 229.269L170.831 205.476C171.212 204.729 171.175 203.84 170.738 203.127Z" fill="#E3E5FC"/>
<path d="M115.373 224.263C115.373 224.263 110.351 223.753 106.834 223.365C103.521 223.001 102.404 222.877 101.543 221.919C99.8527 220.039 100.812 216.746 101.656 213.842C103.164 208.657 104.933 203.351 106.913 198.07C106.974 197.909 107.149 197.828 107.312 197.89C107.471 197.951 107.551 198.127 107.493 198.286C105.518 203.552 103.755 208.844 102.25 214.013C101.282 217.339 100.65 220.002 102.002 221.507C102.679 222.258 103.577 222.386 106.903 222.751C110.417 223.136 113.33 223.436 115.406 223.646C115.576 223.664 115.7 223.816 115.683 223.985C115.663 224.146 115.529 224.263 115.373 224.263Z" fill="#5034A5"/>
<path d="M189.007 316.224C182.902 293.926 176.802 271.63 170.718 249.332C171.066 257.389 165.014 270.629 161.328 277.892C167.42 290.668 173.507 303.44 179.606 316.224H189.007Z" fill="#2D2169"/>
<path d="M170.714 249.332C170.663 248.154 170.476 247.086 170.125 246.165C169.917 245.618 169.679 245.124 169.44 244.675C169.424 244.645 169.408 244.612 169.394 244.584C168.601 243.121 167.781 242.242 167.781 242.242C164.228 238.492 159.045 239.306 146.485 238.516C141.057 238.17 136.515 238.121 133.406 238.121H97.0551C97.0062 238.394 96.9573 238.689 96.9066 239.06C96.4382 242.834 95.9943 250.929 101.127 255.84C103.619 258.234 106.63 259.122 110.307 259.517H150.408C143.005 278.346 135.578 297.175 128.175 316.004H139.428C143.178 309.637 159.732 281.032 161.324 277.893C165.01 270.629 171.062 257.389 170.714 249.332Z" fill="#433082"/>
<path d="M198.348 230.592H65.546C64.5272 230.592 63.6953 231.426 63.6953 232.443V233.086C63.6953 234.103 64.5289 234.937 65.546 234.937H81.8775L69.6582 327.096C69.5918 327.594 69.9378 328.055 70.4359 328.132C70.9409 328.209 71.4128 327.863 71.4897 327.356L85.607 234.937H180.027L194.145 327.356C194.221 327.852 194.681 328.2 195.181 328.134C195.688 328.067 196.044 327.601 195.976 327.096L183.757 234.937H198.348C199.365 234.937 200.198 234.103 200.198 233.086V232.443C200.198 231.424 199.365 230.592 198.348 230.592Z" fill="#9C9CE5"/>
<path d="M52.0983 263.707C51.8467 262.233 51.401 261.552 51.048 259.006C50.6985 256.486 50.5115 255.185 51.2228 253.96C52.4671 251.819 55.064 251.424 55.6705 251.332C61.8308 250.397 68.8807 258.032 67.764 265.921C67.3218 269.047 65.7909 270.141 65.95 273.859C66.0548 276.321 66.7451 276.279 66.808 278.525C66.9566 283.799 62.6994 286.071 63.1608 295.104C61.1492 292.885 54.6027 285.489 53.1591 282.868C52.0284 280.814 50.0134 277.062 50.4521 272.504C50.8365 268.562 52.7327 267.422 52.0983 263.707Z" fill="#FF457C"/>
<path d="M39.3757 280.898C37.4411 283.056 38.3167 286.417 38.6732 287.784C41.0779 297.009 56.2298 301.492 59.877 301.022C57.2416 292.275 51.4168 292.195 48.6101 289.22C45.4277 285.849 48.0159 281.228 45.3124 279.577C43.5997 278.53 40.7983 279.311 39.3757 280.898Z" fill="#FF457C"/>
<path d="M63.9369 297.571C62.427 288.23 58.3026 286.832 57.9968 278.597C57.7748 272.617 59.8213 270.769 58.9929 263.51C58.8146 261.944 58.5525 260.38 58.1401 258.844C58.03 258.436 57.469 258.562 57.5843 258.992C57.9863 260.5 58.2467 262.035 58.4214 263.571C59.2358 270.713 57.1998 272.559 57.4235 278.606C57.7346 286.98 61.8939 288.433 63.3794 297.616C64.1082 302.123 63.9526 306.749 62.8936 311.452C62.8586 311.606 62.9792 311.671 63.1313 311.707C63.285 311.744 63.4214 311.734 63.4563 311.578C64.5311 306.805 64.6779 302.151 63.9369 297.571Z" fill="#DB2A6E"/>
<path d="M62.9061 311.388C63.4846 307.045 62.3329 304.483 61.2634 303.097C60.4193 302.003 57.5829 299.389 53.7521 297.211C52.6738 296.598 48.4516 294.639 46.4156 292.828C44.9826 291.554 43.8519 289.906 43.0549 287.931C42.9134 287.578 43.4464 287.362 43.5897 287.716C44.3534 289.609 45.4335 291.184 46.7983 292.398C48.7906 294.17 52.908 296.07 54.037 296.711C57.859 298.884 60.802 301.559 61.7195 302.746C62.8555 304.217 64.0823 306.924 63.4759 311.463C63.4287 311.842 62.8555 311.765 62.9061 311.388Z" fill="#DB2A6E"/>
<path d="M82.7099 273.955C83.1835 272.907 83.6466 272.486 84.4051 270.656C85.1548 268.845 85.5463 267.912 85.2544 266.862C84.7441 265.025 82.8847 264.226 82.4495 264.039C78.0403 262.147 71.3049 266.467 70.6041 272.563C70.3263 274.978 71.2542 276.091 70.4136 278.829C69.8579 280.644 69.3511 280.479 68.8688 282.139C67.7328 286.04 70.4643 288.56 68.3672 295.201C70.2966 293.938 76.6107 289.698 78.1958 288.025C79.4384 286.715 81.6666 284.31 82.2241 280.829C82.7064 277.819 81.5163 276.601 82.7099 273.955Z" fill="#FF457C"/>
<path d="M88.8416 289.236C89.864 291.219 88.5585 293.552 88.0272 294.503C84.4446 300.911 72.2829 301.31 69.6562 300.251C73.3175 294.244 77.6743 295.316 80.3447 293.645C83.3698 291.75 82.3387 287.806 84.6735 287.1C86.1538 286.651 88.0901 287.776 88.8416 289.236Z" fill="#FF457C"/>
<path d="M67.3005 296.888C70.24 290.221 73.5832 289.98 75.4112 283.904C76.7376 279.491 75.572 277.717 77.5992 272.467C78.0361 271.335 78.5359 270.22 79.1406 269.157C79.3014 268.874 79.6946 269.077 79.5251 269.376C78.9326 270.421 78.4416 271.515 78.0116 272.626C76.0176 277.79 77.1763 279.561 75.8358 284.024C73.9781 290.204 70.5965 290.478 67.7059 297.033C66.2869 300.251 65.5057 303.729 65.3816 307.437C65.3781 307.559 65.2767 307.584 65.1544 307.58C65.0321 307.578 64.9325 307.544 64.9377 307.421C65.0653 303.655 65.8587 300.158 67.3005 296.888Z" fill="#DB2A6E"/>
<path d="M65.3894 307.387C65.8019 304.038 67.158 302.354 68.2223 301.529C69.0629 300.877 71.6861 299.481 74.9629 298.602C75.8856 298.353 79.4123 297.714 81.2805 296.76C82.5947 296.088 83.7587 295.08 84.7356 293.762C84.9103 293.526 84.5538 293.263 84.3791 293.498C83.4423 294.76 82.3326 295.725 81.0778 296.365C79.248 297.298 75.8122 297.915 74.8458 298.173C71.576 299.051 68.8637 300.471 67.9497 301.178C66.8172 302.053 65.3772 303.832 64.9473 307.333C64.9123 307.624 65.3545 307.679 65.3894 307.387Z" fill="#DB2A6E"/>
<path d="M74.3813 313.465V320.685C74.3813 324.926 72.9518 328.691 70.8302 330.835H58.0114C55.8671 328.691 54.4375 324.926 54.4375 320.685V313.465C54.5092 310.82 54.5563 308.175 54.6035 305.531H74.2136C74.2625 308.175 74.3341 310.82 74.3813 313.465Z" fill="#CAC3E3"/>
<defs>
<linearGradient id="paint0_linear_79_8110" x1="166.609" y1="184.18" x2="302.769" y2="184.18" gradientUnits="userSpaceOnUse">
<stop stop-color="#6800BA"/>
<stop offset="1" stop-color="#E36CCD"/>
</linearGradient>
<linearGradient id="paint1_linear_79_8110" x1="343.983" y1="132.887" x2="399.838" y2="167.641" gradientUnits="userSpaceOnUse">
<stop stop-color="#6800BA"/>
<stop offset="1" stop-color="#E36CCD"/>
</linearGradient>
<linearGradient id="paint2_linear_79_8110" x1="375.681" y1="108.132" x2="387.85" y2="120.042" gradientUnits="userSpaceOnUse">
<stop stop-color="#6800BA"/>
<stop offset="1" stop-color="#E36CCD"/>
</linearGradient>
<linearGradient id="paint3_linear_79_8110" x1="312.972" y1="57.2316" x2="419.562" y2="57.2316" gradientUnits="userSpaceOnUse">
<stop stop-color="#6800BA"/>
<stop offset="1" stop-color="#E36CCD"/>
</linearGradient>
<linearGradient id="paint4_linear_79_8110" x1="312.967" y1="63.7793" x2="419.558" y2="63.7793" gradientUnits="userSpaceOnUse">
<stop stop-color="#6800BA"/>
<stop offset="1" stop-color="#E36CCD"/>
</linearGradient>
<linearGradient id="paint5_linear_79_8110" x1="312.969" y1="67.6718" x2="419.559" y2="67.6718" gradientUnits="userSpaceOnUse">
<stop stop-color="#6800BA"/>
<stop offset="1" stop-color="#E36CCD"/>
</linearGradient>
<linearGradient id="paint6_linear_79_8110" x1="312.972" y1="72.9275" x2="419.562" y2="72.9275" gradientUnits="userSpaceOnUse">
<stop stop-color="#6800BA"/>
<stop offset="1" stop-color="#E36CCD"/>
</linearGradient>
<linearGradient id="paint7_linear_79_8110" x1="312.973" y1="76.9725" x2="419.562" y2="76.9725" gradientUnits="userSpaceOnUse">
<stop stop-color="#6800BA"/>
<stop offset="1" stop-color="#E36CCD"/>
</linearGradient>
<linearGradient id="paint8_linear_79_8110" x1="216.487" y1="308.666" x2="278.455" y2="336.159" gradientUnits="userSpaceOnUse">
<stop stop-color="#6800BA"/>
<stop offset="1" stop-color="#E36CCD"/>
</linearGradient>
<linearGradient id="paint9_linear_79_8110" x1="223.773" y1="297.689" x2="284.009" y2="324.413" gradientUnits="userSpaceOnUse">
<stop stop-color="#6800BA"/>
<stop offset="1" stop-color="#E36CCD"/>
</linearGradient>
<linearGradient id="paint10_linear_79_8110" x1="229.16" y1="290.103" x2="288.994" y2="316.649" gradientUnits="userSpaceOnUse">
<stop stop-color="#6800BA"/>
<stop offset="1" stop-color="#E36CCD"/>
</linearGradient>
<linearGradient id="paint11_linear_79_8110" x1="229.915" y1="291.049" x2="290.394" y2="317.88" gradientUnits="userSpaceOnUse">
<stop stop-color="#6800BA"/>
<stop offset="1" stop-color="#E36CCD"/>
</linearGradient>
</defs>
</svg>
