<svg width="474" height="367" viewBox="0 0 474 367" fill="none" xmlns="http://www.w3.org/2000/svg">
<path d="M272.562 78.1704C272.562 78.1704 277.512 58.0657 303.421 54.791C303.421 54.791 294.549 84.448 272.562 78.1704Z" fill="#3F9896"/>
<path d="M267.404 86.44C267.404 86.44 246.06 57.8781 270.021 19.8203C270.021 19.8203 299.789 64.0431 267.404 86.44Z" fill="#7FC6A6"/>
<path d="M102.375 367.002C69.178 366.189 38.6949 349.283 21.9863 322.169C8.61385 300.468 -1.80829 269.197 0.263342 225.107C5.5103 113.444 107.14 36.5307 170.654 32.8404C248.134 28.3385 230.585 73.459 315.756 80.8567C355.573 84.3151 405.967 102.742 437.868 159.918C457.463 195.036 473.217 242 435.126 316.001C419.059 347.216 385.509 367.001 348.771 367.001H102.375V367.002Z" fill="#F8FAFC"/>
<path d="M112.752 252.8C111.158 251.817 109.44 251.118 107.668 250.709L106.84 246.279L103.759 246.287L100.678 246.295L99.8731 250.728C98.1027 251.147 96.388 251.854 94.7998 252.845L91.0823 250.298L88.9092 252.482L86.7361 254.666L89.302 258.371C88.3187 259.964 87.6205 261.682 87.2105 263.455L82.7812 264.282L82.789 267.363L82.7968 270.444L87.2303 271.249C87.6492 273.02 88.3559 274.734 89.3472 276.322L86.7999 280.04L88.9839 282.213L91.168 284.386L94.8726 281.82C96.4659 282.804 98.1841 283.502 99.9565 283.912L100.784 288.341L103.865 288.333L106.946 288.325L107.751 283.892C109.522 283.473 111.236 282.766 112.824 281.775L116.542 284.322L118.715 282.138L120.888 279.954L118.322 276.25C119.306 274.656 120.004 272.938 120.414 271.166L124.843 270.338L124.835 267.257L124.827 264.176L120.394 263.371C119.975 261.601 119.269 259.886 118.277 258.298L120.824 254.58L118.64 252.407L116.456 250.234L112.752 252.8ZM112.006 275.463C107.504 279.988 100.185 280.007 95.6598 275.504C91.1345 271.001 91.116 263.683 95.6185 259.158C100.121 254.632 107.44 254.614 111.965 259.116C116.49 263.619 116.509 270.937 112.006 275.463Z" fill="#FECC86"/>
<path d="M23.4926 182.08H90.3644C92.5005 182.08 94.232 183.812 94.232 185.948V218.338C94.232 220.474 92.5005 222.206 90.3644 222.206H84.669L87.264 229.292L77.0149 222.206H23.4926C21.3565 222.206 19.625 220.474 19.625 218.338V185.948C19.625 183.812 21.3565 182.08 23.4926 182.08Z" fill="white"/>
<path d="M26.6311 207.352H88.8418C89.2724 207.352 89.6213 207.003 89.6213 206.573C89.6213 206.142 89.2724 205.793 88.8418 205.793H26.6311C26.2005 205.793 25.8516 206.142 25.8516 206.573C25.8516 207.003 26.2005 207.352 26.6311 207.352Z" fill="#B1E8FC"/>
<path d="M48.4202 189.639H88.8416C89.2722 189.639 89.6211 189.29 89.6211 188.86C89.6211 188.429 89.2722 188.08 88.8416 188.08H48.4202C47.9896 188.08 47.6406 188.429 47.6406 188.86C47.6406 189.29 47.9896 189.639 48.4202 189.639Z" fill="#B1E8FC"/>
<path d="M71.3655 216.204H88.8429C89.2736 216.204 89.6225 215.855 89.6225 215.424C89.6225 214.993 89.2736 214.645 88.8429 214.645H71.3655C70.9349 214.645 70.5859 214.993 70.5859 215.424C70.5861 215.855 70.9349 216.204 71.3655 216.204Z" fill="#B1E8FC"/>
<path d="M26.6311 216.204H65.8979C66.3285 216.204 66.6774 215.855 66.6774 215.424C66.6774 214.993 66.3285 214.645 65.8979 214.645H26.6311C26.2005 214.645 25.8516 214.993 25.8516 215.424C25.8516 215.855 26.2005 216.204 26.6311 216.204Z" fill="#B1E8FC"/>
<path d="M26.1702 189.639H42.3004C42.731 189.639 43.08 189.29 43.08 188.86C43.08 188.429 42.731 188.08 42.3004 188.08H26.1702C25.7396 188.08 25.3906 188.429 25.3906 188.86C25.3906 189.29 25.7394 189.639 26.1702 189.639Z" fill="#B1E8FC"/>
<path d="M63.4358 198.495H88.8435C89.2741 198.495 89.623 198.146 89.623 197.715C89.623 197.284 89.2741 196.936 88.8435 196.936H63.4358C63.0052 196.936 62.6562 197.284 62.6562 197.715C62.6562 198.146 63.0052 198.495 63.4358 198.495Z" fill="#B1E8FC"/>
<path d="M26.1702 198.495H57.7374C58.168 198.495 58.517 198.146 58.517 197.715C58.517 197.285 58.168 196.936 57.7374 196.936H26.1702C25.7396 196.936 25.3906 197.285 25.3906 197.715C25.3906 198.146 25.7394 198.495 26.1702 198.495Z" fill="#B1E8FC"/>
<path d="M32.252 83.9238H89.0204C90.8338 83.9238 92.3037 85.3939 92.3037 87.2071V114.703C92.3037 116.517 90.8338 117.987 89.0204 117.987H84.1856L86.3885 124.002L77.6878 117.987H32.252C30.4387 117.987 28.9688 116.517 28.9688 114.703V87.2071C28.9688 85.3939 30.4389 83.9238 32.252 83.9238Z" fill="#AAC9F8"/>
<path d="M34.9195 105.38H87.7309C88.0965 105.38 88.3926 105.084 88.3926 104.718C88.3926 104.353 88.0965 104.057 87.7309 104.057H34.9195C34.5539 104.057 34.2578 104.353 34.2578 104.718C34.2578 105.084 34.5539 105.38 34.9195 105.38Z" fill="white"/>
<path d="M53.4117 90.3469H87.7257C88.0913 90.3469 88.3874 90.0507 88.3874 89.6851C88.3874 89.3196 88.0913 89.0234 87.7257 89.0234H53.4117C53.0461 89.0234 52.75 89.3198 52.75 89.6851C52.75 90.0507 53.0461 90.3469 53.4117 90.3469Z" fill="white"/>
<path d="M72.8961 112.894H87.7328C88.0984 112.894 88.3945 112.598 88.3945 112.232C88.3945 111.866 88.0984 111.57 87.7328 111.57H72.8961C72.5305 111.57 72.2344 111.866 72.2344 112.232C72.2344 112.598 72.5305 112.894 72.8961 112.894Z" fill="white"/>
<path d="M34.9195 112.894H68.2536C68.6192 112.894 68.9153 112.598 68.9153 112.232C68.9153 111.866 68.6192 111.57 68.2536 111.57H34.9195C34.5539 111.57 34.2578 111.866 34.2578 112.232C34.2578 112.598 34.5539 112.894 34.9195 112.894Z" fill="white"/>
<path d="M34.5289 90.3469H48.2219C48.5875 90.3469 48.8836 90.0507 48.8836 89.6851C48.8836 89.3196 48.5875 89.0234 48.2219 89.0234H34.5289C34.1633 89.0234 33.8672 89.3198 33.8672 89.6851C33.8672 90.0507 34.1633 90.3469 34.5289 90.3469Z" fill="white"/>
<path d="M66.1617 97.8605H87.7306C88.0962 97.8605 88.3923 97.5644 88.3923 97.1988C88.3923 96.8332 88.0962 96.5371 87.7306 96.5371H66.1617C65.7961 96.5371 65.5 96.8332 65.5 97.1988C65.4998 97.5642 65.7961 97.8605 66.1617 97.8605Z" fill="white"/>
<path d="M34.5289 97.8605H61.3267C61.6923 97.8605 61.9884 97.5644 61.9884 97.1988C61.9884 96.8332 61.6921 96.5371 61.3267 96.5371H34.5289C34.1633 96.5371 33.8672 96.8332 33.8672 97.1988C33.8672 97.5642 34.1633 97.8605 34.5289 97.8605Z" fill="white"/>
<path d="M351.784 68.0605H301.546C299.941 68.0605 298.641 69.3614 298.641 70.9661V95.2993C298.641 96.9041 299.942 98.205 301.546 98.205H305.825L303.875 103.528L311.575 98.205H351.784C353.389 98.205 354.69 96.9041 354.69 95.2993V70.9661C354.69 69.3614 353.389 68.0605 351.784 68.0605Z" fill="#AAC9F8"/>
<path d="M349.423 87.0462H302.687C302.364 87.0462 302.102 86.784 302.102 86.4605C302.102 86.137 302.364 85.875 302.687 85.875H349.423C349.747 85.875 350.009 86.137 350.009 86.4605C350.009 86.784 349.747 87.0462 349.423 87.0462Z" fill="white"/>
<path d="M333.054 73.7437H302.687C302.364 73.7437 302.102 73.4815 302.102 73.158C302.102 72.8345 302.364 72.5723 302.687 72.5723H333.054C333.377 72.5723 333.64 72.8345 333.64 73.158C333.64 73.4817 333.377 73.7437 333.054 73.7437Z" fill="white"/>
<path d="M315.817 93.7008H302.687C302.364 93.7008 302.102 93.4387 302.102 93.115C302.102 92.7913 302.364 92.5293 302.687 92.5293H315.817C316.141 92.5293 316.403 92.7913 316.403 93.115C316.403 93.4387 316.141 93.7008 315.817 93.7008Z" fill="white"/>
<path d="M349.429 93.7008H319.929C319.606 93.7008 319.344 93.4387 319.344 93.115C319.344 92.7913 319.606 92.5293 319.929 92.5293H349.429C349.752 92.5293 350.015 92.7913 350.015 93.115C350.015 93.4387 349.752 93.7008 349.429 93.7008Z" fill="white"/>
<path d="M349.774 73.7437H337.656C337.333 73.7437 337.07 73.4815 337.07 73.158C337.07 72.8345 337.332 72.5723 337.656 72.5723H349.774C350.097 72.5723 350.36 72.8345 350.36 73.158C350.36 73.4817 350.097 73.7437 349.774 73.7437Z" fill="white"/>
<path d="M321.775 80.3939H302.687C302.364 80.3939 302.102 80.1319 302.102 79.8084C302.102 79.4849 302.364 79.2227 302.687 79.2227H321.775C322.099 79.2227 322.361 79.4847 322.361 79.8084C322.361 80.1319 322.099 80.3939 321.775 80.3939Z" fill="white"/>
<path d="M349.77 80.3939H326.054C325.731 80.3939 325.469 80.1319 325.469 79.8084C325.469 79.4849 325.731 79.2227 326.054 79.2227H349.77C350.093 79.2227 350.355 79.4847 350.355 79.8084C350.355 80.1319 350.093 80.3939 349.77 80.3939Z" fill="white"/>
<path opacity="0.5" d="M151.983 332.683C180.676 332.683 203.936 331.088 203.936 329.12C203.936 327.152 180.676 325.557 151.983 325.557C123.291 325.557 100.031 327.152 100.031 329.12C100.031 331.088 123.291 332.683 151.983 332.683Z" fill="#FECC86"/>
<path opacity="0.5" d="M315.757 332.683C344.449 332.683 367.709 331.088 367.709 329.12C367.709 327.152 344.449 325.557 315.757 325.557C287.064 325.557 263.805 327.152 263.805 329.12C263.805 331.088 287.064 332.683 315.757 332.683Z" fill="#FECC86"/>
<path d="M188.351 129.57L114.104 121.408C108.873 120.869 104.586 125.099 104.586 130.23V301.219C104.586 306.35 108.873 310.538 114.104 310L188.351 301.879C192.717 301.429 196.222 297.325 196.222 292.705V138.744C196.222 134.124 192.717 130.019 188.351 129.57ZM193 291.516C193 294.035 191.083 296.262 188.709 296.491L113.681 303.74C110.843 304.014 110.659 301.988 110.659 299.213V130.69C110.659 127.593 111.109 125.34 114.272 125.653L188.209 132.967C190.861 133.23 193 135.718 193 138.53L193 291.516Z" fill="#5780BC"/>
<path d="M197.173 136.764C197.171 136.714 197.169 136.663 197.166 136.612C197.072 134.902 195.794 133.415 194.194 133.157C194.147 133.148 194.098 133.141 194.051 133.134C194.035 133.132 194.02 133.129 194.004 133.127L116.521 125.463C116.501 125.461 116.484 125.461 116.465 125.459C116.407 125.456 116.351 125.452 116.293 125.451C114.372 125.372 112.829 126.717 112.716 128.58C112.71 128.636 112.709 128.69 112.707 128.746C112.705 128.765 112.703 128.782 112.703 128.802V300.995C112.703 302.787 114.198 304.092 116.033 303.916L140.732 301.529L140.984 301.505L141.045 301.5L159.369 299.73L159.478 299.719L159.64 299.704L159.797 299.688L177.687 297.96L177.788 297.95L177.999 297.93L194.411 296.344C195.939 296.196 197.175 294.76 197.175 293.133V136.815C197.175 136.798 197.173 136.782 197.173 136.764ZM112.765 137.903V132.703L118.308 133.204C118.469 133.29 118.643 133.344 118.827 133.361C119.012 133.379 119.188 133.354 119.345 133.298L122.216 133.559C122.371 133.642 122.546 133.698 122.731 133.714C122.915 133.732 123.089 133.707 123.247 133.653L126.091 133.91C126.244 133.993 126.419 134.048 126.601 134.065C126.784 134.081 126.957 134.058 127.113 134.002L183.057 139.072V139.173L191.574 139.944V139.844L197.147 140.349V145.071L112.765 137.903Z" fill="#D8ECFE"/>
<path d="M189.44 296.824L189.281 296.839C189.299 296.909 189.319 296.98 189.339 297.048C189.454 297.024 189.513 297.012 189.513 297.012C189.489 296.953 189.465 296.889 189.44 296.824Z" fill="#49263E"/>
<path d="M193.956 133.124L116.577 125.469C114.442 125.258 112.703 126.774 112.703 128.857V137.899L112.763 137.904L197.147 145.072L197.174 145.074V136.866C197.174 134.974 195.736 133.3 193.956 133.124Z" fill="#273359"/>
<path d="M120.089 132.238C120.089 132.74 119.784 133.144 119.343 133.297C119.186 133.353 119.009 133.376 118.824 133.359C118.64 133.343 118.465 133.288 118.305 133.203C117.863 132.971 117.555 132.509 117.555 132.006C117.555 131.321 118.125 130.82 118.824 130.885C119.523 130.95 120.089 131.556 120.089 132.238Z" fill="white"/>
<path d="M123.982 132.597C123.982 133.097 123.679 133.499 123.242 133.652C123.086 133.707 122.911 133.731 122.727 133.714C122.543 133.698 122.367 133.642 122.211 133.558C121.773 133.326 121.469 132.867 121.469 132.366C121.469 131.685 122.032 131.185 122.727 131.25C123.421 131.314 123.982 131.917 123.982 132.597Z" fill="white"/>
<path d="M127.843 132.952C127.843 133.45 127.543 133.851 127.11 134.003C126.955 134.058 126.781 134.081 126.599 134.065C126.416 134.048 126.242 133.994 126.088 133.91C125.653 133.679 125.352 133.222 125.352 132.723C125.352 132.045 125.91 131.547 126.599 131.611C127.287 131.675 127.843 132.275 127.843 132.952Z" fill="white"/>
<path d="M182.609 136.762V139.949L191.162 140.284V139.294L191.608 139.311V137.901L191.162 137.885V137.064L182.609 136.762ZM190.866 140.01L182.9 139.701V137.033L190.866 137.317V140.01Z" fill="white"/>
<path d="M183.375 139.287L184.214 139.319V137.493L183.375 137.463V139.287Z" fill="white"/>
<path d="M184.789 139.341L185.631 139.373V137.544L184.789 137.514V139.341Z" fill="white"/>
<path d="M186.234 139.395L187.079 139.427V137.595L186.234 137.564V139.395Z" fill="white"/>
<path d="M105.591 164.745L103.578 164.634V148.604L105.591 148.75V164.745Z" fill="#5780BC"/>
<path d="M105.591 184.045L103.578 183.975V167.945L105.591 168.05V184.045Z" fill="#5780BC"/>
<path d="M108.766 130.231V301.221C108.766 306.351 113.052 310.067 118.283 309.528L137.052 307.595L137.649 307.533L191.465 301.991L191.551 301.982L192.53 301.88C196.897 301.43 200.402 297.327 200.402 292.707V138.744C200.402 134.126 196.897 130.021 192.53 129.571L118.283 121.923C113.052 121.384 108.766 125.099 108.766 130.231ZM112.709 130.692C112.709 127.594 115.288 125.342 118.451 125.654L192.389 132.969C195.041 133.231 197.178 135.719 197.178 138.531V291.518C197.178 294.037 195.262 296.263 192.889 296.492L191.463 296.63L191.376 296.639L189.75 296.795L189.44 296.825C189.464 296.89 189.488 296.954 189.513 297.013C189.513 297.013 189.453 297.025 189.338 297.049C189.319 296.981 189.299 296.91 189.281 296.84L129.657 302.603L128.568 302.707L120.354 303.501L117.86 303.742C115.022 304.016 112.709 301.989 112.709 299.214V130.692H112.709Z" fill="#5780BC"/>
<path d="M189.579 297.171L189.483 296.82L189.203 296.847L189.245 297.184L189.579 297.171Z" fill="#49263E"/>
<path d="M191.85 296.592L129.656 302.602V308.356L193.004 301.815L191.85 296.592Z" fill="#5780BC"/>
<path d="M82.4113 310.886C82.9461 309.568 83.2512 308.193 83.3335 306.813L86.5463 305.632L86.15 303.325L85.7537 301.019L82.3311 300.978C81.7931 299.705 81.0464 298.51 80.1024 297.446L81.5393 294.338L79.628 292.987L77.7168 291.636L75.267 294.028C73.949 293.493 72.5736 293.188 71.194 293.105L70.013 289.893L67.7063 290.289L65.3996 290.685L65.3583 294.108C64.0854 294.646 62.8906 295.393 61.8265 296.336L58.7191 294.9L57.3681 296.811L56.0172 298.722L58.4085 301.172C57.8739 302.49 57.5685 303.865 57.4862 305.245L54.2734 306.426L54.6695 308.733L55.0656 311.039L58.4885 311.081C59.0264 312.354 59.7732 313.549 60.7169 314.613L59.28 317.72L61.1913 319.071L63.1026 320.422L65.5524 318.031C66.8703 318.565 68.2457 318.871 69.6254 318.953L70.8065 322.166L73.1132 321.769L75.42 321.373L75.4612 317.95C76.7341 317.412 77.9289 316.666 78.9931 315.722L82.1004 317.159L83.4514 315.247L84.8024 313.336L82.4113 310.886ZM65.3417 313.199C61.3816 310.4 60.4404 304.921 63.2396 300.96C66.0388 297 71.5181 296.059 75.4783 298.858C79.4384 301.658 80.3794 307.137 77.5804 311.097C74.7812 315.057 69.3019 315.998 65.3417 313.199Z" fill="#FEEFDC"/>
<path d="M185.114 49.3994C185.566 33.5994 173.125 20.4247 157.327 19.9729C141.528 19.521 128.354 31.963 127.903 47.763C127.678 55.6 130.627 62.79 135.584 68.103L135.583 68.1032C135.583 68.1032 143.975 77.6096 146.61 87.7849C146.61 87.7849 151.559 89.6254 155.329 89.8277C159.104 89.8412 164.151 88.2866 164.151 88.2866C167.362 78.2787 176.284 69.2675 176.284 69.2675L176.283 69.2673C181.535 64.2462 184.89 57.2364 185.114 49.3994Z" fill="#FECC86"/>
<path d="M154.891 104.84C152.436 104.769 150.502 102.722 150.572 100.266L159.465 100.52C159.395 102.976 157.347 104.91 154.891 104.84Z" fill="#4CB7D8"/>
<path d="M154.986 101.614C149.72 101.463 145.572 97.0715 145.723 91.8047L145.904 85.4785L164.976 86.024L164.795 92.3501C164.644 97.6168 160.253 101.764 154.986 101.614Z" fill="#4CB7D8"/>
<g opacity="0.3">
<path d="M185.111 49.3992C185.279 43.5457 183.676 38.0529 180.789 33.4336C171.833 53.8109 158.093 67.2957 138.719 72.1238C141.049 75.3684 144.12 80.242 145.912 85.482L164.971 86.0271V86.0282C168.663 76.9625 176.281 69.2672 176.281 69.2672L176.28 69.267C181.532 64.246 184.887 57.2362 185.111 49.3992Z" fill="#FECC86"/>
</g>
<path d="M160.111 85.9985L159.299 85.7514C159.328 85.6544 162.277 75.9209 164.414 65.9262C168.123 48.5841 166.383 44.8338 165.015 44.1418C163.617 43.4344 162.5 43.5219 161.693 44.4025C161.634 44.4667 161.577 44.5343 161.523 44.605C163.489 45.8415 163.921 47.6669 164.015 48.4037C164.274 50.4369 163.311 52.4315 161.868 52.8503C161.519 52.9515 160.851 52.9888 160.3 52.1012C159.425 50.6917 159.238 47.2251 160.328 44.9481C159.356 44.5177 158.165 44.2693 156.794 44.2302L155.968 44.2066C154.597 44.1675 153.393 44.3472 152.398 44.7212C153.357 47.0568 152.972 50.5072 152.018 51.8643C151.417 52.7185 150.753 52.6438 150.409 52.5222C148.993 52.0217 148.145 49.9753 148.52 47.9603C148.656 47.2302 149.192 45.4324 151.225 44.3104C151.175 44.2367 151.122 44.166 151.067 44.0986C150.312 43.1734 149.201 43.0217 147.765 43.6482C146.36 44.2609 144.408 47.9058 147.12 65.4316C148.683 75.5322 151.07 85.4183 151.094 85.517L150.269 85.7171C150.245 85.6182 147.85 75.7018 146.282 65.5661C144.116 51.5742 144.49 44.1502 147.425 42.8701C149.703 41.8771 151.02 42.6984 151.725 43.5617C151.824 43.683 151.916 43.8115 152.002 43.9471C153.015 43.5499 154.317 43.31 155.992 43.3578L156.818 43.3814C158.493 43.4293 159.78 43.7436 160.768 44.1978C160.861 44.0675 160.961 43.9444 161.067 43.8288C161.819 43.0067 163.182 42.2625 165.399 43.3841C168.256 44.8298 168.205 52.2631 165.244 66.1083C163.098 76.1377 160.141 85.9011 160.111 85.9985ZM151.625 45.0735C150.398 45.7436 149.603 46.7804 149.355 48.1158C149.027 49.8745 149.782 51.4002 150.692 51.7218C150.776 51.7517 151.002 51.832 151.323 51.3758C152.14 50.2138 152.436 47.0913 151.625 45.0735ZM161.08 45.344C160.155 47.312 160.272 50.4463 161.021 51.6529C161.316 52.1267 161.545 52.0594 161.631 52.0345C162.558 51.7655 163.399 50.2855 163.172 48.5111C163.001 47.1637 162.266 46.0831 161.08 45.344Z" fill="#F99247"/>
<path d="M145.76 85.6731C145.55 85.0143 145.454 84.7725 145.244 84.2429L145.129 83.9536C141.796 75.5102 135.488 68.3108 135.425 68.2392L135.405 68.2167C130.213 62.6374 127.474 55.3712 127.692 47.7525C128.146 31.8607 141.444 19.3017 157.334 19.7561C167.09 20.0352 175.97 25.1729 181.088 33.4994L180.726 33.7219C175.684 25.5176 166.934 20.4555 157.322 20.1806C141.666 19.7327 128.564 32.107 128.116 47.7647C127.901 55.2832 130.609 62.453 135.74 67.9538L136.009 68.2417L135.989 68.2453C137.195 69.6733 142.54 76.2403 145.524 83.798L145.638 84.0866C145.852 84.6258 145.95 84.8718 146.164 85.5449L145.76 85.6731Z" fill="#21111D"/>
<path d="M136.904 34.7989L136.5 34.6691C136.523 34.5988 138.839 27.6178 146.031 25.1738L146.167 25.5758C139.183 27.9493 136.926 34.7305 136.904 34.7989Z" fill="#21111D"/>
<path d="M138.138 37.381L137.734 37.2511C137.757 37.1808 140.073 30.1998 147.265 27.7559L147.402 28.1578C140.417 30.5315 138.16 37.3128 138.138 37.381Z" fill="#21111D"/>
<path d="M156.011 101.857L153.932 101.797C149.13 101.66 145.335 97.641 145.472 92.8388L145.689 85.2617L164.973 85.8133L164.961 86.2379L146.101 85.6984L145.897 92.8512C145.766 97.4196 149.376 101.243 153.944 101.373L156.023 101.433C158.21 101.495 160.298 100.709 161.901 99.2201L162.189 99.5312C160.505 101.097 158.31 101.923 156.011 101.857Z" fill="#21111D"/>
<path d="M155.011 105.06C150.877 104.942 150.395 100.915 150.391 100.874L150.813 100.828C150.83 100.983 151.278 104.617 155.161 104.638L155.158 105.063C155.108 105.063 155.059 105.062 155.011 105.06Z" fill="#21111D"/>
<path d="M175.665 65.1544L175.422 64.8063C179.278 62.1129 180.005 57.453 180.012 57.4062L180.432 57.4679C180.425 57.5163 179.675 62.3535 175.665 65.1544Z" fill="#21111D"/>
<path d="M174.884 63.0954L174.641 62.7473C177.451 60.7843 177.983 57.3857 177.988 57.3516L178.408 57.4132C178.387 57.5597 177.848 61.0249 174.884 63.0954Z" fill="#21111D"/>
<path d="M144.922 89.2688L144.929 88.8442C145.091 88.847 161.178 89.0985 166.325 87.3457L166.462 87.7475C161.245 89.5243 145.586 89.2799 144.922 89.2688Z" fill="#21111D"/>
<path d="M144.82 92.8479L144.825 92.4232C145 92.4249 162.462 92.5781 165.774 90.9238L165.963 91.3037C162.56 93.0037 145.543 92.8551 144.82 92.8479Z" fill="#21111D"/>
<path d="M145.578 96.5574L145.587 96.1329C145.744 96.1359 161.409 96.4189 165.665 94.3711L165.849 94.7537C161.502 96.8453 146.226 96.5703 145.578 96.5574Z" fill="#21111D"/>
<path d="M120.733 43.0493C120.715 43.0487 120.697 43.0474 120.679 43.0455L110.58 41.8945C110.231 41.8547 109.98 41.539 110.02 41.1896C110.059 40.8403 110.375 40.5902 110.725 40.629L120.823 41.78C121.173 41.8198 121.424 42.1355 121.384 42.4849C121.346 42.8159 121.06 43.0588 120.733 43.0493Z" fill="#F99247"/>
<path d="M126.432 27.0656C126.309 27.062 126.185 27.0225 126.077 26.944L117.856 20.9665C117.572 20.7596 117.509 20.3612 117.716 20.0768C117.922 19.7925 118.32 19.7293 118.605 19.9362L126.826 25.9137C127.11 26.1206 127.173 26.5188 126.966 26.8034C126.838 26.9802 126.636 27.0713 126.432 27.0656Z" fill="#F99247"/>
<path d="M141.908 15.9275C141.657 15.9203 141.423 15.7635 141.329 15.5135L137.775 5.99067C137.652 5.66128 137.819 5.29444 138.149 5.17132C138.478 5.04819 138.845 5.21551 138.968 5.54532L142.523 15.0681C142.646 15.3975 142.478 15.7644 142.149 15.8875C142.069 15.917 141.988 15.9298 141.908 15.9275Z" fill="#F99247"/>
<path d="M191.962 46.9247C191.629 46.9152 191.357 46.649 191.344 46.3118C191.331 45.9604 191.605 45.6646 191.957 45.6516L202.114 45.2719C202.462 45.2591 202.76 45.5331 202.774 45.8846C202.787 46.2361 202.512 46.5316 202.161 46.5448L192.004 46.9245C191.99 46.9249 191.976 46.9249 191.962 46.9247Z" fill="#F99247"/>
<path d="M187.51 30.55C187.303 30.5441 187.102 30.4372 186.985 30.2475C186.801 29.9482 186.894 29.5557 187.193 29.3711L195.845 24.0362C196.144 23.8516 196.537 23.9449 196.721 24.2439C196.906 24.5432 196.813 24.9357 196.513 25.1203L187.862 30.4553C187.752 30.523 187.63 30.5535 187.51 30.55Z" fill="#F99247"/>
<path d="M174.915 16.8363C174.832 16.834 174.747 16.8148 174.666 16.7773C174.347 16.6296 174.208 16.2512 174.356 15.9319L178.624 6.7071C178.772 6.38803 179.151 6.24954 179.47 6.39666C179.789 6.54441 179.928 6.92283 179.78 7.24211L175.512 16.4669C175.402 16.7054 175.162 16.8434 174.915 16.8363Z" fill="#F99247"/>
<path d="M158.744 11.4284C158.741 11.4284 158.737 11.4282 158.734 11.428C158.383 11.4124 158.11 11.1151 158.126 10.7638L158.573 0.608935C158.588 0.260821 158.88 -0.00962907 159.227 0.000262905C159.23 0.000262905 159.234 0.000473141 159.237 0.000683609C159.588 0.0162582 159.861 0.31344 159.845 0.664921L159.398 10.8198C159.383 11.1679 159.091 11.4383 158.744 11.4284Z" fill="#F99247"/>
<g opacity="0.5">
<path d="M176.105 35.3301C175.059 36.8556 171.622 36.3168 168.428 34.1267C165.234 31.9365 163.492 28.9243 164.538 27.3989C165.584 25.8734 169.021 26.412 172.215 28.6023C175.409 30.7924 177.151 33.8047 176.105 35.3301Z" fill="#F3FFFE"/>
</g>
<path d="M235.903 86.75C226.654 86.75 219.156 94.2479 219.156 103.497C219.156 112.746 226.654 120.244 235.903 120.244C245.152 120.244 252.65 112.746 252.65 103.497C252.65 94.2479 245.152 86.75 235.903 86.75ZM235.903 118.96C227.363 118.96 220.44 112.037 220.44 103.497C220.44 94.9568 227.363 88.0338 235.903 88.0338C244.443 88.0338 251.366 94.957 251.366 103.497C251.366 112.037 244.443 118.96 235.903 118.96Z" fill="#FDBA68"/>
<path d="M237.663 110.479C237.132 111.2 236.055 111.201 235.522 110.482L226.328 98.078C225.414 96.8444 225.673 95.103 226.906 94.1887C228.14 93.2745 229.881 93.5331 230.795 94.7669L236.582 102.575L248.185 86.8377C249.097 85.6017 250.837 85.3384 252.073 86.2499C253.309 87.1612 253.572 88.9018 252.661 90.1377L237.663 110.479Z" fill="white"/>
<path d="M301.516 323.701L314.002 323.87L314.195 310.795L301.759 309.092L301.516 323.701Z" fill="#FE9F73"/>
<path d="M341.132 320.281L353.629 317.795L351.018 304.975L338.242 305.95L341.132 320.281Z" fill="#FE9F73"/>
<path d="M323.294 210.529C322.832 224.031 320.822 276.848 316.574 311.405C316.294 313.682 314.337 315.402 312.009 315.396C309.433 315.39 305.849 315.088 301.877 313.894C299.958 313.317 298.624 311.596 298.591 309.618L296.829 204.474C296.825 204.219 296.842 203.963 296.881 203.711L296.962 203.192C297.408 200.329 300.421 198.604 303.163 199.642L320.342 206.141C322.175 206.835 323.36 208.595 323.294 210.529Z" fill="#102E5B"/>
<path d="M338.938 204.42C338.938 204.42 339.178 231.246 343.028 260.831C345.165 277.255 351.266 294.312 352.255 308.621C352.387 310.518 351.092 312.215 349.209 312.628C346.544 313.213 342.436 313.765 337.633 313.211C336.004 313.023 334.667 311.849 334.294 310.275L320.89 265.004L312.762 219.231L304.055 194.34L338.938 204.42Z" fill="#133671"/>
<path d="M333.802 308.837C333.82 308.837 333.839 308.834 333.857 308.829C333.962 308.799 334.022 308.691 333.991 308.588L321.075 264.967L315.016 230.844C314.997 230.738 314.895 230.669 314.788 230.686C314.681 230.705 314.609 230.805 314.628 230.911L320.691 265.055L320.694 265.066L333.613 308.697C333.638 308.782 333.717 308.837 333.802 308.837Z" fill="black"/>
<path d="M347.293 282.459C347.307 282.459 347.322 282.458 347.337 282.454C347.444 282.43 347.51 282.326 347.485 282.221C346.009 275.922 343.871 263.544 342.728 256.727C342.695 256.53 342.672 256.395 342.65 256.304C342.65 256.304 342.649 256.303 342.649 256.302C342.649 256.214 342.638 256.088 342.623 255.908L339.652 220.484C339.643 220.376 339.547 220.295 339.439 220.306C339.33 220.314 339.249 220.408 339.259 220.516C339.288 220.871 342.23 255.908 342.262 256.335C342.263 256.339 342.263 256.344 342.264 256.348L342.286 256.538L342.296 256.537C342.307 256.604 342.321 256.688 342.338 256.79C343.482 263.612 345.621 275.999 347.1 282.308C347.121 282.398 347.203 282.459 347.293 282.459Z" fill="black"/>
<path d="M298.525 306.236C298.526 306.236 298.527 306.236 298.528 306.236C298.637 306.234 298.724 306.146 298.722 306.038L297.294 220.813C297.292 220.705 297.208 220.616 297.093 220.621C296.984 220.623 296.897 220.712 296.898 220.819L298.327 306.044C298.329 306.151 298.417 306.236 298.525 306.236Z" fill="black"/>
<path d="M314.285 325.443L303.335 325.446L298.894 320.68L290.775 325.45L289.026 325.45C288.424 325.45 287.871 325.852 287.758 326.436C287.605 327.221 288.212 327.907 288.981 327.907L314.442 327.899C314.629 327.899 314.781 327.75 314.781 327.565L314.781 325.93C314.78 325.661 314.559 325.443 314.285 325.443Z" fill="#EF3A4C"/>
<path d="M314.179 325.457L314.178 321.025C314.178 321.025 312.333 318.579 309.525 319.829C309.525 319.829 305.279 322.8 301.534 319.207L292.239 323.275C292.239 323.275 289.69 324.116 289 325.464L314.179 325.457Z" fill="#49263E"/>
<path d="M314.28 321.027H314.094V325.437H314.28V321.027Z" fill="black"/>
<path d="M305.734 321.083C305.378 321.083 305.163 321.053 305.156 321.052L305.184 320.87C305.205 320.873 307.4 321.176 309.487 319.76L309.592 319.911C308.098 320.926 306.547 321.083 305.734 321.083Z" fill="black"/>
<path d="M311.924 324.628L311.82 324.475L313.008 323.686L313.112 323.838L311.924 324.628Z" fill="black"/>
<path d="M311.073 324.403L310.969 324.251L312.156 323.461L312.26 323.613L311.073 324.403Z" fill="black"/>
<path d="M288.114 327.696C287.813 327.445 287.641 327.078 287.641 326.69C287.64 325.962 288.241 325.369 288.98 325.369L314.155 325.361C314.551 325.361 314.873 325.679 314.873 326.069L314.873 327.294H314.687L314.687 326.069C314.687 325.78 314.448 325.545 314.155 325.545L288.98 325.553C288.344 325.553 287.827 326.063 287.827 326.69C287.827 327.024 287.975 327.34 288.234 327.556L288.114 327.696Z" fill="black"/>
<path d="M289.067 325.498L288.898 325.419C288.919 325.376 289.429 324.345 291.332 323.545C293.201 322.758 301.426 319.159 301.508 319.123L301.584 319.291C301.501 319.327 293.276 322.927 291.405 323.714C289.574 324.484 289.072 325.488 289.067 325.498Z" fill="black"/>
<path d="M354.227 318.581L343.705 321.57L338.099 318.201L331.636 324.999L329.955 325.476C329.376 325.641 328.958 326.178 329.013 326.769C329.086 327.565 329.862 328.06 330.601 327.85L355.067 320.9C355.246 320.849 355.35 320.663 355.298 320.486L354.839 318.915C354.764 318.656 354.489 318.507 354.227 318.581Z" fill="#EF3A4C"/>
<path d="M354.14 318.618L352.896 314.36C352.896 314.36 350.436 312.511 348.089 314.478C348.089 314.478 344.842 318.492 340.235 316.06L332.444 322.504C332.444 322.504 330.23 324.007 329.945 325.491L354.14 318.618Z" fill="#49263E"/>
<path d="M344.791 316.715C344.449 316.812 344.235 316.842 344.228 316.843L344.203 316.661C344.225 316.657 346.419 316.35 348.026 314.42L348.17 314.537C347.019 315.919 345.572 316.493 344.791 316.715Z" fill="black"/>
<path d="M329.712 327.892C329.352 327.733 329.084 327.427 328.974 327.054C328.77 326.354 329.181 325.621 329.891 325.42L354.082 318.547C354.462 318.439 354.861 318.657 354.97 319.032L355.314 320.209L355.135 320.26L354.791 319.083C354.71 318.805 354.415 318.644 354.133 318.724L329.942 325.596C329.331 325.77 328.977 326.401 329.154 327.003C329.247 327.324 329.479 327.588 329.788 327.725L329.712 327.892Z" fill="black"/>
<path d="M330.012 325.517L329.828 325.487C329.836 325.44 330.036 324.311 331.64 323.022C333.217 321.756 340.11 316.055 340.179 315.998L340.299 316.139C340.23 316.196 333.335 321.898 331.758 323.165C330.215 324.404 330.014 325.506 330.012 325.517Z" fill="black"/>
<path d="M262.236 182.141C262.308 181.564 262.229 180.865 261.955 180.646L258.087 175.645C257.667 175.307 257.053 175.374 256.715 175.795C256.462 176.11 256.437 176.534 256.617 176.869C256.98 177.543 257.249 178.263 257.502 178.986L258.109 180.722C257.664 180.773 255.459 181.595 253.95 181.658V185.539L253.734 185.505C253.822 186.328 253.91 187.19 253.955 187.964C254.007 188.853 253.76 189.625 254.486 190.084C254.906 190.349 257.108 190.347 257.891 190.288L263.559 190.234C263.414 188.682 263.297 187.801 262.236 182.141Z" fill="#FE9F73"/>
<path d="M311.144 169.239C311.144 169.239 304.857 182.865 302.043 185.541C299.229 188.218 266.338 190.325 266.338 190.325L265.469 180.189L291.934 174.134L298.874 161.01L311.144 169.239Z" fill="#FE9F73"/>
<path d="M296.896 178.199C296.83 178.192 296.764 178.169 296.706 178.127L291.678 174.5C291.503 174.373 291.463 174.129 291.59 173.953C291.716 173.778 291.961 173.739 292.136 173.865L297.164 177.492C297.339 177.619 297.379 177.863 297.253 178.038C297.168 178.155 297.03 178.212 296.896 178.199Z" fill="#F07162"/>
<path d="M252.357 184.901C252.501 185.545 253.047 185.945 253.193 185.912L258.09 184.833C258.64 184.712 259.029 184.191 258.943 183.634C258.85 183.024 258.263 182.629 257.67 182.759L252.648 183.866C252.648 183.866 252.214 184.257 252.357 184.901Z" fill="#FE9F73"/>
<path d="M252.821 186.935C252.953 187.581 253.49 187.992 253.637 187.962L258.554 186.977C259.106 186.867 259.505 186.353 259.43 185.795C259.348 185.183 258.769 184.776 258.174 184.896L253.132 185.906C253.132 185.906 252.69 186.288 252.821 186.935Z" fill="#FE9F73"/>
<path d="M253.434 188.784C253.55 189.387 254.046 189.775 254.183 189.75L258.773 188.886C259.289 188.789 259.666 188.315 259.603 187.794C259.533 187.223 258.998 186.838 258.442 186.943L253.735 187.829C253.735 187.829 253.319 188.18 253.434 188.784Z" fill="#FE9F73"/>
<path d="M253.191 186.094C253.099 186.094 253.017 186.031 252.997 185.938C252.973 185.83 253.042 185.724 253.149 185.701L258.046 184.64C258.506 184.538 258.814 184.111 258.745 183.665C258.708 183.427 258.58 183.221 258.382 183.085C258.184 182.95 257.946 182.903 257.711 182.955L253.234 183.942C253.127 183.964 253.021 183.897 252.997 183.79C252.973 183.683 253.041 183.577 253.149 183.553L257.626 182.566C257.963 182.492 258.321 182.561 258.607 182.757C258.896 182.955 259.085 183.257 259.139 183.605C259.239 184.257 258.796 184.882 258.131 185.029L253.234 186.09C253.219 186.093 253.205 186.094 253.191 186.094Z" fill="#F07162"/>
<path d="M252.356 182.772C252.493 183.386 253.014 183.768 253.153 183.737L257.825 182.708C258.35 182.592 258.721 182.095 258.639 181.563C258.55 180.981 257.99 180.604 257.424 180.729L252.634 181.785C252.634 181.785 252.219 182.157 252.356 182.772Z" fill="#FE9F73"/>
<path d="M253.159 183.909C253.071 183.909 252.993 183.849 252.973 183.76C252.951 183.657 253.016 183.556 253.119 183.534L257.79 182.522C258.229 182.425 258.523 182.017 258.458 181.592C258.423 181.364 258.3 181.168 258.111 181.038C257.922 180.909 257.695 180.865 257.471 180.914L253.199 181.855C253.097 181.877 252.996 181.813 252.973 181.711C252.951 181.609 253.015 181.507 253.118 181.485L257.389 180.543C257.711 180.472 258.052 180.539 258.325 180.725C258.601 180.915 258.782 181.202 258.832 181.535C258.928 182.156 258.506 182.753 257.871 182.893L253.199 183.905C253.186 183.908 253.172 183.909 253.159 183.909Z" fill="#F07162"/>
<path d="M253.77 188.024C253.676 188.024 253.592 187.958 253.575 187.862C253.555 187.754 253.626 187.65 253.734 187.63L258.538 186.736C259.003 186.643 259.289 186.268 259.229 185.824C259.198 185.585 259.072 185.377 258.877 185.237C258.682 185.098 258.446 185.047 258.209 185.094L253.168 186.104C253.06 186.126 252.955 186.056 252.934 185.948C252.912 185.841 252.982 185.736 253.09 185.714L258.131 184.704C258.47 184.636 258.827 184.713 259.109 184.914C259.394 185.118 259.577 185.422 259.624 185.772C259.711 186.422 259.286 186.992 258.614 187.127L253.806 188.021C253.794 188.023 253.782 188.024 253.77 188.024Z" fill="#F07162"/>
<path d="M254.179 189.95C254.085 189.95 254.001 189.884 253.983 189.788C253.963 189.68 254.034 189.576 254.142 189.556L258.732 188.692C259.157 188.612 259.451 188.229 259.401 187.819C259.374 187.6 259.262 187.408 259.084 187.278C258.907 187.148 258.69 187.099 258.474 187.14L253.767 188.026C253.66 188.046 253.555 187.975 253.535 187.867C253.514 187.759 253.585 187.655 253.693 187.635L258.401 186.749C258.721 186.688 259.056 186.764 259.319 186.957C259.586 187.152 259.756 187.442 259.796 187.771C259.871 188.388 259.436 188.964 258.805 189.083L254.215 189.946C254.203 189.949 254.191 189.95 254.179 189.95Z" fill="#F07162"/>
<path d="M259.988 179.408C259.988 179.408 262.547 180.54 263.254 180.496C263.962 180.452 266.876 179.859 266.876 179.859L268.298 190.184C268.298 190.184 266.128 190.441 262.37 190.244C258.612 190.046 259.988 179.408 259.988 179.408Z" fill="#FE9F73"/>
<path d="M318.319 146.808C318.319 146.808 300.706 139.934 296.667 146.152C292.628 152.37 285.955 169.335 286.056 169.773C287.154 174.545 292.932 179.673 296.473 181.56C299.778 183.322 300.813 182.102 302.983 179.442C306.695 174.891 308.316 154.883 308.369 155.041C308.417 155.185 318.319 146.808 318.319 146.808Z" fill="#7FC6A6"/>
<path d="M339.158 147.069C340.458 148.912 342.002 154.143 343.948 159.763C346.527 167.211 349.408 175.173 349.408 175.173C349.408 175.173 349.851 177.42 339.305 178.406L340.01 214.356C340.01 214.356 319.746 221.27 295.93 214.279C295.93 214.279 294.868 150.431 298.148 145.46C301.428 140.489 333.665 139.281 339.158 147.069Z" fill="#7FC6A6"/>
<path d="M311.471 124.42L311.199 134.763C311.199 134.763 310.974 138.084 313.872 138.576L313.213 142.998C312.967 144.642 313.912 146.246 315.483 146.789C316.251 147.055 317.17 147.258 318.219 147.286C321.544 147.373 323.41 144.927 323.72 143.687C324.03 142.447 323.355 136.468 323.355 136.468L323.533 133.544L323.452 122.191L311.471 124.42Z" fill="#FE9F73"/>
<path d="M320.68 135.938C320.68 135.938 320.339 141.498 313.375 141.847L313.861 138.585C313.861 138.585 318.345 139.609 320.68 135.938Z" fill="#F07162"/>
<path d="M319.349 130.058C319.384 130.058 319.419 130.047 319.446 130.021C319.503 129.97 319.507 129.882 319.456 129.826C319.437 129.805 317.583 127.806 315.805 129.163C315.744 129.21 315.732 129.297 315.778 129.358C315.825 129.419 315.912 129.43 315.973 129.384C317.548 128.181 319.182 129.937 319.251 130.013C319.277 130.041 319.313 130.057 319.349 130.058Z" fill="black"/>
<path d="M324.171 128.737L321.165 129.281L320.609 129.827C320.609 129.827 321 124.821 321.589 123.851C322.178 122.88 324.171 128.737 324.171 128.737Z" fill="black"/>
<path d="M313.67 129.089C313.709 129.09 313.748 129.075 313.776 129.044C313.828 128.987 313.824 128.9 313.767 128.848C313.713 128.798 312.421 127.633 311.567 128.328C311.507 128.376 311.498 128.463 311.547 128.523C311.595 128.582 311.682 128.591 311.741 128.543C312.411 127.999 313.569 129.042 313.58 129.053C313.606 129.076 313.638 129.088 313.67 129.089Z" fill="black"/>
<path d="M316.547 130.545C316.541 130.775 316.722 130.966 316.952 130.972C317.181 130.978 317.372 130.797 317.378 130.567C317.384 130.338 317.203 130.147 316.973 130.141C316.744 130.135 316.553 130.316 316.547 130.545Z" fill="black"/>
<path d="M312.133 130.01C312.127 130.24 312.308 130.431 312.538 130.437C312.767 130.443 312.958 130.262 312.964 130.032C312.97 129.802 312.789 129.612 312.56 129.606C312.33 129.6 312.139 129.781 312.133 130.01Z" fill="black"/>
<path d="M319.97 130.49C319.933 131.867 321.021 133.013 322.398 133.049C323.775 133.085 324.921 131.998 324.957 130.62C324.993 129.243 323.906 128.097 322.529 128.061C321.151 128.025 320.006 129.112 319.97 130.49Z" fill="#FE9F73"/>
<path d="M322.859 131.954C323.377 131.968 323.734 131.588 323.858 131.201C324.005 130.745 323.862 130.293 323.494 130.052C322.951 129.694 322.445 129.901 322.184 130.063C322.299 129.783 322.473 129.581 322.703 129.462C323.202 129.205 323.806 129.418 323.812 129.42C323.848 129.433 323.888 129.414 323.901 129.378C323.914 129.342 323.895 129.303 323.859 129.289C323.832 129.28 323.194 129.054 322.641 129.339C322.322 129.503 322.099 129.803 321.981 130.23L321.914 130.47L322.095 130.3C322.121 130.275 322.729 129.714 323.418 130.167C323.8 130.418 323.823 130.858 323.726 131.159C323.626 131.471 323.34 131.828 322.864 131.816C322.859 131.816 322.854 131.815 322.849 131.815C322.812 131.814 322.78 131.844 322.778 131.882C322.777 131.92 322.807 131.952 322.845 131.954C322.849 131.954 322.854 131.954 322.859 131.954Z" fill="#F07162"/>
<path d="M314.991 133.309C315.02 133.31 315.048 133.292 315.058 133.263C315.071 133.227 315.052 133.188 315.016 133.175L313.64 132.679L314.164 129.422C314.17 129.385 314.145 129.349 314.107 129.343C314.069 129.336 314.033 129.363 314.027 129.4L313.484 132.77L314.969 133.305C314.976 133.308 314.984 133.309 314.991 133.309Z" fill="#F07162"/>
<path d="M316.038 134.683C315.995 134.673 313.297 134.539 313.297 134.539C313.297 134.539 313.606 135.665 314.61 135.717C315.612 135.77 316.038 134.683 316.038 134.683Z" fill="#FBFDFC"/>
<path d="M324.165 128.734C324.165 128.734 325.135 123.901 323.695 122.052C322.256 120.203 313.807 116.812 312.749 117.689C311.691 118.567 312.696 119.693 312.696 119.693C312.696 119.693 309.299 118.504 308.444 121.522C307.588 124.54 314.923 126.026 319.356 124.719C319.356 124.719 322.241 125.644 324.165 128.734Z" fill="black"/>
<path d="M306.047 191.428C306.459 191.506 324.346 193.819 336.124 189.892C340.223 188.525 344.042 185.339 345.922 182.768C348.775 178.867 346.911 171.385 344.262 166.031L337.977 172.786C337.274 173.541 336.465 174.19 335.575 174.711C332.299 176.627 324.658 180.927 316.964 181.551L306.047 191.428Z" fill="#FE9F73"/>
<path d="M349.405 175.171C349.405 175.171 349.21 175.491 348.218 176.152C347.052 176.929 344.718 178.087 339.302 178.404C339.302 178.404 333.546 178.504 326.74 175.171C319.935 171.838 334.931 159.246 334.931 159.246L342.083 161.918L345.313 164.571L349.405 175.171Z" fill="#7FC6A6"/>
<path d="M291.028 177.619C291.082 177.619 291.135 177.595 291.172 177.55C291.235 177.471 291.222 177.355 291.143 177.292C287.078 174.041 286.311 170.181 286.241 169.781C287.633 164.201 295.702 146.753 298.012 145.034C300.373 143.277 312.588 141.676 312.711 141.66C312.812 141.647 312.883 141.555 312.87 141.455C312.856 141.354 312.764 141.284 312.664 141.296C312.158 141.362 300.23 142.926 297.793 144.74C295.274 146.614 287.119 164.686 285.876 169.729L285.867 169.763L285.872 169.799C285.879 169.841 286.531 174.073 290.914 177.579C290.948 177.606 290.988 177.619 291.028 177.619Z" fill="black"/>
<path d="M309.382 217.12C301.291 216.235 295.922 214.471 295.868 214.453L295.753 214.415L295.743 214.293C294.475 197.848 296.631 152.785 296.653 152.331C296.658 152.23 296.745 152.148 296.845 152.157C296.946 152.162 297.024 152.248 297.019 152.349C296.997 152.801 294.853 197.619 296.1 214.142C296.919 214.401 302.022 215.946 309.422 216.755C316.855 217.568 328.185 217.781 339.953 214.181C340.05 214.152 340.153 214.206 340.182 214.303C340.212 214.4 340.157 214.502 340.061 214.532C332.369 216.885 324.865 217.617 318.504 217.617C315.083 217.617 311.993 217.405 309.382 217.12Z" fill="black"/>
<path d="M340.045 178.363C343.51 178.363 347.175 177.674 349.528 175.303L349.609 175.221L349.571 175.112L340.061 148.272C340.017 148.125 338.855 144.432 332.844 143.168C326.932 141.924 324.556 141.637 324.533 141.634C324.434 141.623 324.341 141.694 324.329 141.795C324.317 141.895 324.389 141.986 324.49 141.998C324.513 142.001 326.877 142.287 332.769 143.527C338.568 144.747 339.702 148.349 339.712 148.386L349.186 175.125C344.084 180.109 332.41 177.096 331.063 176.726C330.886 172.617 327.998 154.321 327.968 154.135C327.953 154.035 327.857 153.966 327.759 153.983C327.659 153.998 327.59 154.092 327.606 154.192C327.636 154.381 330.587 173.071 330.702 176.872L330.706 177.005L330.833 177.042C331.14 177.133 335.414 178.363 340.045 178.363Z" fill="black"/>
<path d="M328.578 159.432C328.619 159.432 328.66 159.418 328.694 159.39C328.772 159.326 328.784 159.211 328.72 159.132L326.88 156.872C326.816 156.794 326.701 156.782 326.622 156.846C326.544 156.91 326.532 157.025 326.596 157.104L328.436 159.364C328.472 159.408 328.525 159.432 328.578 159.432Z" fill="black"/>
<path d="M331.137 210.24C331.18 210.24 331.224 210.224 331.259 210.193L335.948 205.982C336.024 205.914 336.03 205.798 335.962 205.723C335.895 205.648 335.779 205.641 335.703 205.709L331.014 209.92C330.939 209.987 330.932 210.103 331 210.179C331.036 210.219 331.086 210.24 331.137 210.24Z" fill="black"/>
<path d="M332.379 212.524C332.426 212.524 332.472 212.506 332.508 212.471L335.961 209.048C336.032 208.977 336.033 208.861 335.962 208.789C335.89 208.717 335.774 208.716 335.702 208.788L332.25 212.21C332.178 212.282 332.177 212.398 332.249 212.47C332.284 212.506 332.332 212.524 332.379 212.524Z" fill="black"/>
<path d="M307.381 191.181H300.734C300.061 191.181 299.516 190.554 299.516 189.78V182.426V174.421C299.516 173.647 300.061 173.02 300.734 173.02H307.381C308.054 173.02 308.6 173.647 308.6 174.421V189.78C308.6 190.554 308.054 191.181 307.381 191.181Z" fill="#C2FBFF"/>
<path d="M307.388 191.418C307.255 191.418 307.146 191.31 307.146 191.177C307.146 191.043 307.254 190.936 307.388 190.936C307.927 190.936 308.365 190.415 308.365 189.775V174.416C308.365 173.776 307.927 173.256 307.388 173.256H300.741C300.608 173.256 300.5 173.148 300.5 173.015C300.5 172.881 300.608 172.773 300.741 172.773H307.388C308.193 172.773 308.847 173.51 308.847 174.416V189.775C308.847 190.681 308.193 191.418 307.388 191.418Z" fill="#21111D"/>
<path d="M298.974 183.176C298.185 181.947 299.388 180.852 299.388 180.852C299.339 179.235 299.893 178.648 299.893 178.648C299.893 178.648 303.849 180.791 306.06 182.185C307.455 182.267 308.073 181.707 308.073 181.707L308.096 181.771C308.37 180.604 308.712 179.145 308.747 178.98C308.806 178.7 309.348 178.346 309.86 179.379C310.372 180.412 311.03 182.389 311.03 182.389L319.348 181.245L315.916 192.195C315.916 192.195 307.184 191.604 305.859 191.421C304.535 191.239 300.219 189.21 299.104 187.806C297.988 186.402 298.491 185.463 298.491 185.463C297.743 184.043 298.974 183.176 298.974 183.176Z" fill="#FE9F73"/>
<path d="M301.94 182.968C302.006 182.982 302.077 182.953 302.113 182.891C302.157 182.814 302.13 182.716 302.053 182.672C300.974 182.052 299.509 180.745 299.495 180.732C299.428 180.673 299.327 180.679 299.267 180.745C299.208 180.811 299.214 180.913 299.28 180.972C299.341 181.026 300.785 182.314 301.893 182.95C301.909 182.959 301.924 182.965 301.94 182.968Z" fill="#F07162"/>
<path d="M301.527 184.953C301.601 184.969 301.678 184.93 301.708 184.857C301.742 184.775 301.703 184.681 301.621 184.647C300.222 184.069 299.1 183.06 299.089 183.049C299.023 182.99 298.921 182.995 298.862 183.06C298.802 183.126 298.807 183.228 298.873 183.288C298.92 183.33 300.046 184.344 301.499 184.945C301.508 184.949 301.517 184.951 301.527 184.953Z" fill="#F07162"/>
<path d="M300.696 187.161C300.769 187.177 300.844 187.14 300.876 187.07C300.912 186.989 300.876 186.894 300.795 186.857C299.601 186.323 298.619 185.361 298.61 185.351C298.547 185.289 298.445 185.289 298.382 185.353C298.32 185.416 298.321 185.518 298.384 185.58C298.425 185.621 299.418 186.593 300.664 187.151C300.674 187.156 300.685 187.159 300.696 187.161Z" fill="#F07162"/>
<g opacity="0.3">
<path d="M300.266 175.39C300.266 175.999 300.759 176.492 301.368 176.492C301.977 176.492 302.471 175.999 302.471 175.39C302.471 174.781 301.977 174.287 301.368 174.287C300.759 174.287 300.266 174.781 300.266 175.39Z" fill="white"/>
</g>
<path d="M419.683 140.711H370.375C368.8 140.711 367.523 141.988 367.523 143.563V167.446C367.523 169.021 368.8 170.298 370.375 170.298H374.575L372.661 175.522L380.218 170.298H419.683C421.258 170.298 422.535 169.021 422.535 167.446V143.563C422.535 141.988 421.258 140.711 419.683 140.711Z" fill="white"/>
<path d="M417.368 159.345H371.497C371.179 159.345 370.922 159.088 370.922 158.77C370.922 158.453 371.179 158.195 371.497 158.195H417.368C417.685 158.195 417.943 158.453 417.943 158.77C417.943 159.087 417.685 159.345 417.368 159.345Z" fill="#B1E8FC"/>
<path d="M401.301 146.284H371.497C371.179 146.284 370.922 146.027 370.922 145.71C370.922 145.392 371.179 145.135 371.497 145.135H401.301C401.619 145.135 401.876 145.392 401.876 145.71C401.876 146.027 401.619 146.284 401.301 146.284Z" fill="#B1E8FC"/>
<path d="M384.384 165.872H371.497C371.179 165.872 370.922 165.615 370.922 165.297C370.922 164.98 371.179 164.723 371.497 164.723H384.384C384.701 164.723 384.958 164.98 384.958 165.297C384.958 165.615 384.701 165.872 384.384 165.872Z" fill="#B1E8FC"/>
<path d="M417.372 165.872H388.419C388.101 165.872 387.844 165.615 387.844 165.297C387.844 164.98 388.101 164.723 388.419 164.723H417.372C417.689 164.723 417.947 164.98 417.947 165.297C417.947 165.615 417.689 165.872 417.372 165.872Z" fill="#B1E8FC"/>
<path d="M417.711 146.284H405.817C405.499 146.284 405.242 146.027 405.242 145.71C405.242 145.392 405.499 145.135 405.817 145.135H417.711C418.028 145.135 418.285 145.392 418.285 145.71C418.285 146.027 418.028 146.284 417.711 146.284Z" fill="#B1E8FC"/>
<path d="M390.231 152.812H371.497C371.179 152.812 370.922 152.554 370.922 152.237C370.922 151.919 371.179 151.662 371.497 151.662H390.231C390.549 151.662 390.806 151.919 390.806 152.237C390.806 152.554 390.549 152.812 390.231 152.812Z" fill="#B1E8FC"/>
<path d="M417.71 152.812H394.434C394.117 152.812 393.859 152.554 393.859 152.237C393.859 151.919 394.117 151.662 394.434 151.662H417.71C418.028 151.662 418.285 151.919 418.285 152.237C418.285 152.554 418.028 152.812 417.71 152.812Z" fill="#B1E8FC"/>
<path d="M391.312 221.387V251.302C391.312 254.063 393.551 256.303 396.314 256.303H468.639C471.402 256.303 473.641 254.063 473.641 251.302V221.354C473.641 218.782 471.702 216.666 469.207 216.385H396.314C393.551 216.385 391.312 218.624 391.312 221.387Z" fill="#AAC9F8"/>
<path d="M418.082 254.13C417.98 254.386 405.81 266.404 405.798 265.997C405.787 265.591 405.787 265.589 408.971 251.732L418.082 254.13Z" fill="#AAC9F8"/>
<path d="M416.906 235.808C416.906 239.737 414.633 243.136 411.331 244.763C410.003 245.417 408.508 245.783 406.929 245.783C405.949 245.783 405.002 245.642 404.108 245.378C399.972 244.162 396.953 240.337 396.953 235.808C396.953 230.299 401.42 225.832 406.929 225.832C412.439 225.832 416.906 230.299 416.906 235.808Z" fill="white"/>
<path d="M416.231 235.808C416.231 239.415 414.177 242.542 411.175 244.082C411.13 244.106 411.083 244.13 411.036 244.152C409.8 244.761 408.406 245.103 406.935 245.103C406.054 245.103 405.2 244.98 404.393 244.749C404.364 244.742 404.336 244.733 404.307 244.725C400.453 243.592 397.641 240.028 397.641 235.808C397.641 230.675 401.802 226.514 406.935 226.514C412.07 226.514 416.231 230.675 416.231 235.808Z" fill="#8CD2F9"/>
<path d="M411.171 244.087C411.127 244.111 411.08 244.135 411.033 244.158C409.797 244.766 408.403 245.108 406.932 245.108C406.051 245.108 405.197 244.985 404.39 244.754L404.462 244.271L404.776 242.165C402.905 241.848 403.049 239.704 403.049 239.704L403.222 233.147L403.225 233.026L410.961 231.586L410.983 234.604L410.986 235.187L410.99 235.517L410.991 235.884L411.01 238.443L411.014 238.916L410.898 240.804C410.899 240.805 411.111 242.679 411.171 244.087Z" fill="#FE9F73"/>
<path d="M409.17 240.447C409.17 240.447 408.95 244.037 404.453 244.263L404.767 242.157C404.767 242.157 407.662 242.818 409.17 240.447Z" fill="#F07162"/>
<path d="M411.425 235.796L409.483 236.147L409.125 236.499C409.125 236.499 409.377 233.267 409.757 232.64C410.138 232.014 411.425 235.796 411.425 235.796Z" fill="black"/>
<path d="M408.704 236.938C408.68 237.827 409.382 238.567 410.271 238.59C411.161 238.613 411.9 237.912 411.924 237.022C411.947 236.133 411.245 235.393 410.356 235.37C409.467 235.346 408.727 236.048 408.704 236.938Z" fill="#FE9F73"/>
<path d="M411.414 235.799C411.414 235.799 412.04 232.679 411.111 231.485C410.181 230.291 404.726 228.101 404.043 228.668C403.36 229.235 404.009 229.962 404.009 229.962C404.009 229.962 401.816 229.194 401.263 231.143C400.711 233.091 405.447 234.051 408.309 233.207C408.309 233.207 410.172 233.804 411.414 235.799Z" fill="black"/>
<path d="M421.556 222.445L422.657 224.677L425.119 225.034L423.338 226.771L423.758 229.224L421.556 228.066L419.353 229.224L419.774 226.771L417.992 225.034L420.454 224.677L421.556 222.445Z" fill="white"/>
<path d="M432.275 222.445L433.376 224.677L435.838 225.034L434.056 226.771L434.477 229.224L432.275 228.066L430.072 229.224L430.493 226.771L428.711 225.034L431.173 224.677L432.275 222.445Z" fill="white"/>
<path d="M442.994 222.445L444.095 224.677L446.557 225.034L444.775 226.771L445.196 229.224L442.994 228.066L440.791 229.224L441.212 226.771L439.43 225.034L441.892 224.677L442.994 222.445Z" fill="white"/>
<path d="M453.712 222.445L454.813 224.677L457.276 225.034L455.494 226.771L455.915 229.224L453.712 228.066L451.51 229.224L451.93 226.771L450.148 225.034L452.611 224.677L453.712 222.445Z" fill="white"/>
<path d="M464.431 222.445L465.532 224.677L467.994 225.034L466.213 226.771L466.633 229.224L464.431 228.066L462.228 229.224L462.649 226.771L460.867 225.034L463.33 224.677L464.431 222.445Z" fill="white"/>
<path d="M460.217 232.578H420.211V233.542H460.217V232.578Z" fill="white"/>
<path d="M467.328 236.896H420.211V237.86H467.328V236.896Z" fill="white"/>
<path d="M467.328 241.215H420.211V242.178H467.328V241.215Z" fill="white"/>
<path d="M176.406 218.564L177.429 214.862C177.511 214.884 185.678 217.045 193.943 213.406L195.491 216.921C185.934 221.129 176.791 218.67 176.406 218.564Z" fill="#223749"/>
<path d="M219.369 199.991C218.909 200.557 218.078 200.644 217.512 200.184C216.946 199.725 216.859 198.894 217.319 198.328L220.307 194.645C220.766 194.078 221.597 193.992 222.164 194.451C222.73 194.91 222.816 195.742 222.357 196.308L219.369 199.991Z" fill="#374169"/>
<path d="M218.526 195.4C217.991 196.146 216.954 196.316 216.208 195.782C215.463 195.247 215.292 194.21 215.827 193.464L219.305 188.617C219.839 187.871 220.877 187.701 221.622 188.235C222.367 188.77 222.538 189.807 222.003 190.552L218.526 195.4Z" fill="#374169"/>
<path d="M212.791 193.395C211.989 192.949 211.701 191.938 212.147 191.137L215.049 185.924C215.495 185.122 216.506 184.834 217.308 185.28C218.109 185.726 218.397 186.737 217.951 187.539L215.049 192.752C214.603 193.553 213.592 193.841 212.791 193.395Z" fill="#374169"/>
<path d="M207.447 194.018C206.646 193.572 206.358 192.561 206.804 191.76L209.705 186.546C210.151 185.745 211.163 185.457 211.964 185.903C212.765 186.349 213.053 187.361 212.607 188.162L209.706 193.375C209.259 194.176 208.248 194.464 207.447 194.018Z" fill="#374169"/>
<path d="M204.497 198.573C203.46 198.795 202.44 198.134 202.218 197.097L200.777 190.351C200.556 189.314 201.217 188.293 202.254 188.072C203.291 187.85 204.311 188.512 204.532 189.549L205.974 196.295C206.195 197.332 205.534 198.352 204.497 198.573Z" fill="#374169"/>
<path d="M195.605 219.561C195.605 219.561 191.619 212.498 193.35 209.762C195.081 207.027 202.512 196.578 203.584 194.465C204.655 192.353 211.249 189.772 216.012 193.101C220.775 196.429 221.281 199.264 214.422 207.375C207.563 215.486 196.486 221.303 195.605 219.561Z" fill="#8CD2F9"/>
<path d="M214.537 207.474C218.456 202.84 220 199.878 219.7 197.57C219.491 195.967 218.414 194.593 216.098 192.975C215.862 192.81 215.618 192.658 215.367 192.518C213.239 191.333 210.57 191.033 207.907 191.701C205.786 192.232 203.992 193.316 203.444 194.396C202.918 195.433 200.773 198.6 198.963 201.243C198.339 202.153 197.702 203.079 197.086 203.974C195.441 206.364 193.888 208.621 193.218 209.68C191.463 212.453 195.281 219.304 195.468 219.634C195.577 219.847 195.796 219.974 196.119 220.012C198.797 220.327 208.514 214.597 214.537 207.474ZM214.302 207.276C207.943 214.795 198.471 219.979 196.155 219.707C196.041 219.694 195.948 219.667 195.877 219.628C195.814 219.593 195.768 219.547 195.74 219.492L195.737 219.486C195.697 219.416 191.815 212.471 193.477 209.845C194.145 208.79 195.696 206.536 197.339 204.149C197.955 203.253 198.593 202.327 199.216 201.417C201.144 198.601 203.187 195.582 203.718 194.535C204.221 193.545 205.974 192.502 207.982 191.999C210.874 191.274 213.769 191.722 215.922 193.227C218.16 194.791 219.199 196.101 219.395 197.61C219.683 199.823 218.16 202.714 214.302 207.276Z" fill="#1D1D1B"/>
<path d="M210.525 201.275C208.771 199.004 205.758 197.843 201.57 197.825L201.572 197.518C204.314 197.529 206.567 198.025 208.311 198.996C209.294 199.543 210.115 200.241 210.77 201.089C213.564 204.708 212.285 209.85 212.272 209.902L211.974 209.825C211.987 209.775 213.227 204.774 210.525 201.275Z" fill="#1D1D1B"/>
<path d="M151.721 201.57H141.594V205.4H151.721H152.063H162.19V201.57H152.063H151.721Z" fill="#111E28"/>
<path d="M135.539 247.437C135.539 249.054 136.32 250.394 137.343 250.64H148.347C149.37 250.394 150.151 249.054 150.151 247.437V241.9H135.539V247.437Z" fill="#223749"/>
<path d="M153.633 247.437C153.633 249.054 154.414 250.394 155.437 250.64H166.44C167.463 250.394 168.245 249.054 168.245 247.437V241.9H153.633V247.437Z" fill="#374169"/>
<path d="M171.307 210.66L171.149 209.176C170.584 207.003 168.608 205.4 166.26 205.4H152.058H151.716H137.515C135.167 205.4 133.191 207.003 132.626 209.176L132.467 210.66L129.798 235.553L129.656 236.875V236.881C129.725 239.611 131.96 241.803 134.707 241.803H151.716H152.058H169.068C171.814 241.803 174.05 239.611 174.119 236.881V236.875L173.977 235.553L171.307 210.66Z" fill="#49B3E2"/>
<path d="M138.596 209.794C138.325 208.677 137.144 208.045 136.065 208.44C132.924 209.591 126.818 212.458 122.234 218.511L125.296 220.829C129.28 215.568 134.725 213.038 137.4 212.05C138.314 211.712 138.826 210.74 138.596 209.794Z" fill="#223749"/>
<path d="M111.133 243.84C110.415 243.714 109.731 244.194 109.605 244.913L108.786 249.584C108.66 250.302 109.14 250.986 109.858 251.112C110.576 251.238 111.26 250.758 111.386 250.04L112.205 245.369C112.331 244.651 111.852 243.966 111.133 243.84Z" fill="#374169"/>
<path d="M114.414 247.054C113.503 246.949 112.679 247.603 112.574 248.514L111.894 254.442C111.789 255.353 112.443 256.176 113.354 256.281C114.265 256.385 115.088 255.732 115.193 254.82L115.874 248.893C115.979 247.982 115.325 247.159 114.414 247.054Z" fill="#374169"/>
<path d="M118.559 247.479C117.642 247.479 116.898 248.222 116.898 249.139V255.105C116.898 256.022 117.642 256.766 118.559 256.766C119.476 256.766 120.22 256.022 120.22 255.105V249.139C120.22 248.222 119.476 247.479 118.559 247.479Z" fill="#374169"/>
<path d="M122.926 244.338C122.009 244.338 121.266 245.081 121.266 245.998V251.965C121.266 252.882 122.009 253.625 122.926 253.625C123.843 253.625 124.587 252.882 124.587 251.965V245.998C124.587 245.081 123.843 244.338 122.926 244.338Z" fill="#374169"/>
<path d="M125.99 239.102C125.293 238.303 124.08 238.222 123.281 238.92C122.483 239.618 122.402 240.831 123.099 241.629L127.64 246.823C128.338 247.621 129.551 247.702 130.349 247.004C131.147 246.307 131.229 245.094 130.531 244.295L125.99 239.102Z" fill="#374169"/>
<path d="M120.857 216.255C119.24 215.161 112.391 225.631 110.343 236.054C108.295 246.478 110.115 248.708 115.896 249.3C121.676 249.892 126.183 244.43 126.092 242.063C126.001 239.696 127.412 226.951 127.594 223.719C127.776 220.488 120.857 216.255 120.857 216.255Z" fill="#8CD2F9"/>
<path d="M146.394 250.639H139.703V263.314H146.394V250.639Z" fill="#223749"/>
<path d="M173.378 250.639H166.688V263.314H173.378V250.639Z" fill="#223749"/>
<path d="M161.018 201.57H150.891V205.4H161.018H161.36H171.487V201.57H161.36H161.018Z" fill="#374169"/>
<path d="M144.844 247.437C144.844 249.054 145.625 250.394 146.648 250.64H157.651C158.674 250.394 159.455 249.054 159.455 247.437V241.9H144.844L144.844 247.437Z" fill="#374169"/>
<path d="M151.925 278.542V268.509C151.925 263.701 147.48 260.098 142.787 261.142C140.014 261.759 137.572 263.097 137.109 265.843C135.949 272.739 135.539 287.213 135.539 287.213H159.026C159.026 287.213 159.299 280.658 151.925 278.542Z" fill="#8CD2F9"/>
<path d="M160.031 287.211H134.906V289.259H160.031V287.211Z" fill="#223749"/>
<path d="M162.938 247.437C162.938 249.054 163.719 250.394 164.742 250.64H175.745C176.768 250.394 177.549 249.054 177.549 247.437V241.9H162.938V247.437Z" fill="#374169"/>
<path d="M180.604 210.66L180.446 209.176C179.88 207.003 177.905 205.4 175.556 205.4H161.355H161.013H146.812C144.463 205.4 142.488 207.003 141.923 209.176L141.764 210.66L139.095 235.553L138.953 236.875V236.881C139.022 239.611 141.257 241.803 144.004 241.803H161.013H161.355H178.364C181.111 241.803 183.346 239.611 183.415 236.881V236.875L183.274 235.553L180.604 210.66Z" fill="#8CD2F9"/>
<path d="M178.902 278.542V268.509C178.902 263.701 174.456 260.098 169.763 261.142C166.991 261.759 164.548 263.097 164.086 265.843C162.925 272.739 162.516 287.213 162.516 287.213H186.002C186.002 287.213 186.275 280.658 178.902 278.542Z" fill="#8CD2F9"/>
<path d="M187.016 287.211H161.891V289.259H187.016V287.211Z" fill="#223749"/>
<path d="M185.366 164.945H184.422V178.902H185.366V164.945Z" fill="#111E28"/>
<path d="M189.663 184.391C188.917 184.391 188.312 184.996 188.312 185.742C188.312 186.488 188.917 187.093 189.663 187.093C190.41 187.093 191.014 186.488 191.014 185.742C191.014 184.996 190.41 184.391 189.663 184.391Z" fill="#374169"/>
<path d="M189.669 182.736H187.938V188.744H189.669V182.736Z" fill="#111E28"/>
<path d="M185.473 177.281H181.219V194.28H185.473C186.716 194.28 187.746 193.372 187.935 192.182V179.38C187.746 178.19 186.716 177.281 185.473 177.281Z" fill="#374169"/>
<path d="M187.21 165.292C187.487 164.003 186.668 162.733 185.379 162.455C184.09 162.177 182.82 162.997 182.542 164.286C182.264 165.574 183.084 166.844 184.373 167.122C185.662 167.4 186.932 166.581 187.21 165.292Z" fill="#374169"/>
<path d="M171.291 164.584C169.006 163.193 154.773 163.307 153.268 163.323C151.764 163.307 137.531 163.193 135.246 164.584C132.833 166.053 129.894 183.262 129.58 187.355C129.266 191.432 129.787 202.174 153.138 203.292V203.305C153.182 203.303 153.225 203.301 153.269 203.298C153.313 203.301 153.356 203.303 153.4 203.305V203.292C176.751 202.174 177.271 191.432 176.957 187.355C176.643 183.262 173.704 166.053 171.291 164.584Z" fill="#49B3E2"/>
<path d="M178.438 164.584C176.153 163.193 161.92 163.307 160.416 163.323C158.911 163.307 144.678 163.193 142.393 164.584C139.98 166.053 137.041 183.262 136.727 187.355C136.413 191.432 133.303 202.414 156.654 203.531H162.137C185.487 202.414 184.418 191.432 184.105 187.355C183.79 183.262 180.852 166.053 178.438 164.584Z" fill="#8CD2F9"/>
<path d="M130.815 166.279H130.32V177.311H130.815V166.279Z" fill="#111E28"/>
<path d="M132.469 177.279H129.422C128.218 177.279 127.213 178.133 126.981 179.269C126.966 179.341 126.961 179.415 126.961 179.489V192.069C126.961 192.143 126.966 192.217 126.981 192.289C127.213 193.425 128.217 194.279 129.422 194.279H132.469C133.136 194.279 133.677 193.738 133.677 193.071V178.487C133.677 177.82 133.136 177.279 132.469 177.279Z" fill="#111E28"/>
<path d="M131.757 164.945H130.812V178.902H131.757V164.945Z" fill="#111E28"/>
<path d="M125.992 184.389C125.246 184.389 124.641 184.993 124.641 185.74C124.641 186.486 125.246 187.091 125.992 187.091C126.738 187.091 127.343 186.486 127.343 185.74C127.343 184.993 126.738 184.389 125.992 184.389Z" fill="#374169"/>
<path d="M127.723 182.736H125.992V188.744H127.723V182.736Z" fill="#111E28"/>
<path d="M133.758 177.279H130.711C129.506 177.279 128.502 178.133 128.27 179.269C128.255 179.341 128.25 179.415 128.25 179.489V192.069C128.25 192.143 128.255 192.217 128.27 192.289C128.503 193.425 129.506 194.279 130.711 194.279H133.758C134.425 194.279 134.966 193.738 134.966 193.071V178.487C134.966 177.82 134.425 177.279 133.758 177.279Z" fill="#374169"/>
<path d="M133.357 166.001C134.027 164.866 133.65 163.402 132.515 162.732C131.38 162.061 129.916 162.438 129.245 163.573C128.575 164.709 128.952 166.173 130.087 166.843C131.222 167.513 132.686 167.137 133.357 166.001Z" fill="#374169"/>
<path d="M173.951 169.214C172.246 168.176 161.713 168.251 160.416 168.264C159.119 168.251 148.585 168.176 146.88 169.214C145.063 170.32 142.851 183.275 142.615 186.356C142.379 189.421 142.771 197.491 160.285 198.35V198.364C160.329 198.362 160.371 198.359 160.416 198.357C160.46 198.359 160.502 198.362 160.547 198.364V198.35C178.06 197.491 178.453 189.421 178.217 186.356C177.98 183.275 175.768 170.319 173.951 169.214Z" fill="#374169"/>
<path d="M150.464 186.102C152.006 186.102 153.256 184.852 153.256 183.31C153.256 181.768 152.006 180.518 150.464 180.518C148.922 180.518 147.672 181.768 147.672 183.31C147.672 184.852 148.922 186.102 150.464 186.102Z" fill="white"/>
<path d="M170.355 180.516C168.812 180.516 167.562 181.766 167.562 183.308C167.562 184.85 168.812 186.1 170.355 186.1C171.897 186.1 173.147 184.85 173.147 183.308C173.147 181.766 171.897 180.516 170.355 180.516Z" fill="white"/>
<path d="M155.728 188.412C158.381 193.181 163.372 193 165.863 188.045H155.523L155.728 188.412Z" fill="white"/>
<path d="M169.851 213.644L169.841 213.569C169.525 211.824 168.351 210.605 166.988 210.605H154.4C153.037 210.605 151.863 211.824 151.547 213.569L150.236 231.025L150.234 231.056L150.235 231.095C150.272 233.225 151.562 234.894 153.17 234.894H168.218C169.826 234.894 171.115 233.225 171.153 231.095V231.052L169.92 214.575L169.851 213.644ZM168.218 233.448H153.17C152.39 233.448 151.711 232.371 151.681 231.1L152.91 214.682L152.976 213.791C153.17 212.781 153.765 212.051 154.399 212.051H166.988C167.623 212.051 168.217 212.781 168.412 213.791L169.707 231.099C169.674 232.375 168.997 233.448 168.218 233.448Z" fill="#49B3E2"/>
<path d="M152.08 278.425V268.507C152.08 266.157 151.028 263.965 149.193 262.493C147.373 261.033 145.026 260.485 142.755 260.99C139.32 261.755 137.37 263.378 136.96 265.815C135.81 272.643 135.391 287.062 135.387 287.207L135.383 287.365H159.174L159.181 287.218C159.184 287.151 159.372 280.584 152.08 278.425ZM158.874 287.057H135.699C135.748 285.462 136.182 272.287 137.262 265.866C137.65 263.564 139.52 262.025 142.822 261.29C145.001 260.805 147.254 261.331 149.001 262.733C150.763 264.146 151.773 266.25 151.773 268.507V278.656L151.884 278.688C155.63 279.763 157.33 282.017 158.096 283.72C158.784 285.247 158.867 286.617 158.874 287.057Z" fill="#1D1D1B"/>
<path d="M135.422 287.118L135.667 287.303C141.155 280.07 151.841 278.705 151.949 278.692L151.912 278.387C151.803 278.4 140.99 279.779 135.422 287.118Z" fill="#1D1D1B"/>
<path d="M179.057 278.425V268.507C179.057 266.157 178.005 263.965 176.17 262.493C174.35 261.033 172.003 260.485 169.732 260.99C166.296 261.755 164.347 263.378 163.936 265.815C162.787 272.643 162.368 287.062 162.364 287.207L162.359 287.365H186.151L186.157 287.218C186.16 287.151 186.349 280.584 179.057 278.425ZM185.851 287.057H162.676C162.725 285.462 163.159 272.287 164.239 265.866C164.627 263.564 166.497 262.025 169.799 261.29C171.978 260.805 174.23 261.331 175.978 262.733C177.74 264.146 178.75 266.25 178.75 268.507V278.656L178.861 278.688C182.607 279.763 184.307 282.017 185.073 283.72C185.761 285.247 185.843 286.617 185.851 287.057Z" fill="#1D1D1B"/>
<path d="M162.406 287.118L162.651 287.303C168.14 280.07 178.826 278.705 178.933 278.692L178.896 278.387C178.788 278.4 167.975 279.779 162.406 287.118Z" fill="#1D1D1B"/>
<path d="M177.39 247.042C177.39 250.164 175.862 250.466 175.729 250.486H137.344V250.793H175.748L175.757 250.792C175.836 250.783 177.697 250.53 177.697 247.042V241.9H177.39L177.39 247.042Z" fill="#1D1D1B"/>
<path d="M133.985 241.607L133.984 241.914L178.843 242.067L178.844 241.759L133.985 241.607Z" fill="#1D1D1B"/>
<path d="M141.434 212.29L139.016 234.869L139.321 234.902L141.74 212.322L141.434 212.29Z" fill="#1D1D1B"/>
<path d="M177.399 234.003L175.5 236.643L175.749 236.822L177.649 234.182L177.399 234.003Z" fill="#1D1D1B"/>
<path d="M179.321 235.7L177.422 238.34L177.671 238.519L179.571 235.88L179.321 235.7Z" fill="#1D1D1B"/>
<path d="M120.934 216.127C120.734 215.994 120.481 215.989 120.181 216.113C117.687 217.141 111.984 226.873 110.186 236.026C109.016 241.982 109.107 245.32 110.492 247.191C111.454 248.49 113.063 249.166 115.874 249.454C116.16 249.483 116.447 249.498 116.735 249.498C119.169 249.498 121.648 248.463 123.65 246.584C125.245 245.088 126.285 243.269 126.239 242.059C126.194 240.897 126.528 237.086 126.825 233.896C126.927 232.794 127.034 231.672 127.137 230.587C127.411 227.704 127.67 224.98 127.741 223.73C127.925 220.454 121.257 216.325 120.934 216.127ZM127.434 223.712C127.364 224.957 127.105 227.677 126.831 230.558C126.728 231.643 126.621 232.765 126.519 233.868C126.203 237.266 125.886 240.898 125.932 242.07C125.974 243.179 124.949 244.943 123.44 246.36C121.266 248.4 118.521 249.417 115.905 249.149C113.189 248.871 111.644 248.231 110.739 247.008C109.411 245.214 109.335 241.948 110.487 236.086C112.386 226.422 118.141 217.286 120.298 216.397C120.404 216.354 120.498 216.332 120.579 216.332C120.652 216.332 120.714 216.349 120.765 216.384L120.771 216.388C120.839 216.429 127.609 220.609 127.434 223.712Z" fill="#1D1D1B"/>
<path d="M116.706 239.489C112.643 237.746 111.295 232.773 111.282 232.723L110.984 232.801C110.998 232.852 112.381 237.967 116.583 239.77C117.567 240.193 118.624 240.404 119.749 240.404C121.745 240.404 123.955 239.74 126.356 238.417L126.208 238.148C122.541 240.169 119.344 240.62 116.706 239.489Z" fill="#1D1D1B"/>
<path d="M184.217 187.347C183.915 183.414 180.994 166.005 178.495 164.484C176.187 163.08 162.018 163.189 160.412 163.206C158.804 163.189 144.635 163.08 142.327 164.484C139.828 166.005 136.907 183.414 136.604 187.347C136.581 187.645 136.542 187.987 136.501 188.349C136.223 190.81 135.801 194.531 138.528 197.736C141.5 201.227 147.594 203.217 156.649 203.651H162.137C171.686 203.193 178.238 201.022 181.613 197.197C184.708 193.687 184.395 189.637 184.226 187.462L184.217 187.347ZM181.436 197.04C178.105 200.816 171.608 202.961 162.132 203.414H156.655C147.673 202.985 141.635 201.022 138.708 197.583C136.047 194.456 136.462 190.796 136.736 188.375C136.777 188.011 136.816 187.667 136.84 187.365C137.165 183.14 140.12 166.104 142.45 164.686C144.299 163.56 154.145 163.433 158.493 163.433C159.439 163.433 160.126 163.439 160.412 163.442C162.013 163.425 176.121 163.315 178.372 164.686C180.702 166.104 183.657 183.14 183.982 187.365L183.991 187.479C184.157 189.621 184.465 193.606 181.436 197.04Z" fill="#1D1D1B"/>
<path d="M135.07 178.315C134.94 177.288 133.779 177.166 133.768 177.165L133.762 177.164L130.32 177.195L130.322 177.431L133.751 177.4C133.839 177.41 134.728 177.53 134.835 178.337L134.846 192.479L135.083 192.479L135.071 178.329L135.07 178.315Z" fill="#1D1D1B"/>
<path d="M185.664 177.164L182.516 177.162V177.398H185.628C185.775 177.431 187.385 177.819 187.773 179.196L188 179.132C187.556 177.555 185.741 177.179 185.664 177.164Z" fill="#1D1D1B"/>
<path d="M188.041 179.368L187.805 179.371L187.938 191.349L188.174 191.346L188.041 179.368Z" fill="#1D1D1B"/>
<path d="M170.721 196.405C167.852 197.499 164.33 198.131 160.536 198.231C152.874 198.429 146.47 194.519 146.406 194.48L146.281 194.68C146.344 194.719 152.482 198.474 159.961 198.474C160.153 198.474 160.348 198.472 160.542 198.466C168.358 198.261 174.631 195.874 176.911 192.239L176.711 192.113C175.628 193.839 173.557 195.323 170.721 196.405Z" fill="#1D1D1B"/>
<path d="M148.875 168.587L148.884 168.823C149.043 168.816 164.772 168.198 170.987 168.711L171.006 168.475C164.778 167.961 149.033 168.58 148.875 168.587Z" fill="#1D1D1B"/>
<path d="M112.765 185.299H105.594V270.828H112.765V185.299Z" fill="#5780BC"/>
</svg>
