<svg width="557" height="367" viewBox="0 0 557 367" fill="none" xmlns="http://www.w3.org/2000/svg">
<g clip-path="url(#clip0_79_9176)">
<path d="M542.414 230.085C536.998 215.207 523.387 207.09 510.155 203.699C496.923 200.307 483.117 200.4 470.125 195.877C463.305 193.503 456.402 189.462 452.779 182.134C443.444 163.255 461.25 141.053 461.819 119.075C462.175 105.297 455.387 92.407 446.494 83.7266C437.601 75.0463 426.751 69.8621 416.086 64.807C398.009 56.2378 378.552 47.519 359.568 52.7065C340.284 57.9756 323.955 77.1191 304.197 76.6583C281.988 76.1411 266.359 51.8445 249.411 34.666C231.3 16.3093 207.608 4.47927 183.992 7.45824C160.376 10.4372 137.681 30.343 131.978 58.0337C126.7 83.6629 134.379 115.923 117.792 133.289C108.335 143.19 94.6202 143.545 82.5754 147.724C63.3196 154.405 47.0363 172.5 39.9965 195.038C32.9567 217.577 35.3333 244.012 46.2095 264.161C55.2053 280.825 69.1199 292.597 82.6891 303.949C100.11 318.523 118.043 333.382 138.668 339.515C155.141 344.413 172.451 343.445 189.308 340.894C225.374 335.436 260.843 322.881 297.179 322.693C369.457 322.32 454.786 368.309 515.19 302.895C530.94 285.84 552.492 257.77 542.414 230.085Z" fill="#E3EDFE"/>
<path d="M139.932 88.0824L135.227 87.6804L138.269 84.0691L133.534 79.3348L129.923 82.3768L129.52 77.6719H122.825L122.423 82.3768L118.811 79.3348L114.077 84.0691L117.119 87.6804L112.414 88.0824V94.7773L117.119 95.1802L114.077 98.7915L118.811 103.526L122.423 100.484L122.825 105.189H129.52L129.923 100.484L133.534 103.526L138.269 98.7915L135.227 95.1802L139.932 94.7773V88.0824ZM126.494 97.578C122.841 97.7631 119.841 94.7627 120.026 91.1098C120.184 87.9821 122.725 85.4409 125.853 85.2826C129.506 85.0975 132.506 88.0979 132.321 91.7508C132.162 94.8777 129.621 97.4189 126.494 97.578Z" fill="#C9DBFA"/>
<path d="M123.534 104.42L123.066 98.9391L118.859 102.483L115.124 98.7482L118.668 94.5408L113.188 94.0719V88.7903L118.668 88.3214L115.124 84.1147L118.859 80.3803L123.066 83.9239L123.534 78.4434H128.816L129.285 83.9239L133.492 80.3803L137.227 84.1147L133.683 88.3214L139.164 88.7903V94.0719L133.683 94.5408L137.227 98.7482L133.492 102.483L129.285 98.9391L128.816 104.42H123.534Z" stroke="#A9C3F6" stroke-width="0.6292" stroke-miterlimit="10" stroke-linecap="round" stroke-linejoin="round"/>
<path d="M490.517 191.368L485.813 190.966L488.855 187.354L484.12 182.62L480.509 185.662L480.106 180.957H473.411L473.008 185.662L469.397 182.62L464.663 187.354L467.705 190.966L463 191.368V198.063L467.705 198.466L464.663 202.077L469.397 206.812L473.008 203.77L473.411 208.474H480.106L480.509 203.77L484.12 206.812L488.855 202.077L485.813 198.466L490.517 198.063V191.368ZM477.079 200.863C473.426 201.048 470.426 198.048 470.611 194.395C470.769 191.267 473.31 188.726 476.438 188.568C480.091 188.383 483.091 191.383 482.906 195.036C482.748 198.164 480.207 200.705 477.079 200.863Z" fill="#C9DBFA"/>
<path d="M474.113 207.703L473.644 202.223L469.437 205.767L465.703 202.033L469.246 197.826L463.766 197.357V192.075L469.246 191.607L465.703 187.4L469.437 183.665L473.644 187.209L474.113 181.729H479.395L479.864 187.209L484.071 183.665L487.806 187.4L484.262 191.607L489.743 192.075V197.357L484.262 197.826L487.806 202.033L484.071 205.767L479.864 202.223L479.395 207.704H474.113V207.703Z" stroke="#A9C3F6" stroke-width="0.6292" stroke-miterlimit="10" stroke-linecap="round" stroke-linejoin="round"/>
<path d="M451.213 243.526L443.875 242.898L448.62 237.266L441.236 229.882L435.604 234.627L434.976 227.289H424.534L423.906 234.627L418.274 229.882L410.89 237.266L415.634 242.898L408.297 243.526V253.968L415.634 254.596L410.89 260.229L418.274 267.613L423.906 262.868L424.534 270.205H434.976L435.604 262.868L441.236 267.613L448.62 260.229L443.875 254.596L451.213 253.968V243.526ZM430.254 258.336C424.557 258.624 419.878 253.945 420.166 248.248C420.414 243.37 424.377 239.407 429.255 239.159C434.952 238.871 439.631 243.55 439.343 249.247C439.096 254.125 435.133 258.089 430.254 258.336Z" fill="#C9DBFA"/>
<path d="M425.639 269.004L424.907 260.456L418.345 265.984L412.521 260.159L418.048 253.598L409.5 252.866V244.629L418.048 243.898L412.521 237.336L418.345 231.511L424.907 237.038L425.639 228.49H433.876L434.608 237.038L441.17 231.511L446.994 237.336L441.467 243.898L450.015 244.629V252.866L441.467 253.598L446.994 260.159L441.17 265.984L434.608 260.457L433.876 269.005H425.639V269.004Z" stroke="#A9C3F6" stroke-width="0.9814" stroke-miterlimit="10" stroke-linecap="round" stroke-linejoin="round"/>
<path d="M132.31 161.718L123.464 160.961L129.184 154.17L120.282 145.269L113.492 150.989L112.735 142.143H100.145L99.3884 150.989L92.5981 145.269L83.6963 154.17L89.4166 160.961L80.5703 161.718V174.306L89.4166 175.063L83.6963 181.854L92.5981 190.755L99.3884 185.035L100.145 193.881H112.735L113.492 185.035L120.282 190.755L129.184 181.854L123.464 175.063L132.31 174.306V161.718ZM107.042 179.572C100.174 179.92 94.5318 174.278 94.88 167.409C95.1777 161.528 99.9569 156.75 105.837 156.452C112.706 156.103 118.348 161.745 117.999 168.614C117.701 174.496 112.923 179.274 107.042 179.572Z" fill="#C9DBFA"/>
<path d="M101.472 192.435L100.591 182.129L92.6798 188.793L85.6571 181.77L92.321 173.859L82.0156 172.978V163.047L92.321 162.165L85.6571 154.254L92.6798 147.231L100.591 153.895L101.472 143.59H111.403L112.285 153.895L120.196 147.231L127.219 154.254L120.555 162.165L130.86 163.047V172.978L120.555 173.859L127.219 181.77L120.196 188.793L112.285 182.129L111.403 192.434L101.472 192.435Z" stroke="#A9C3F6" stroke-width="1.1832" stroke-miterlimit="10" stroke-linecap="round" stroke-linejoin="round"/>
<path d="M288.5 347C422.981 347 532 335.583 532 321.5C532 307.417 422.981 296 288.5 296C154.019 296 45 307.417 45 321.5C45 335.583 154.019 347 288.5 347Z" fill="#C9DBFA"/>
<path d="M95.0409 194.91L98.7868 191.254C99.0094 189.573 99.0111 187.813 98.7485 186.021C98.5152 184.431 98.0903 182.925 97.5121 181.526L93.6659 182.386L96.1713 178.895C94.5165 176.228 92.2346 174.14 89.6297 172.895C88.0769 174.305 86.8218 176.095 85.9328 178.129C87.1464 179.881 88.501 181.852 88.501 181.852L85.0023 180.871C84.4412 183.125 84.2952 185.574 84.6638 188.087C84.7331 188.561 84.8253 189.025 84.9272 189.483L91.1972 191.97L86.3055 193.495C87.975 196.985 90.6426 199.712 93.7825 201.213C95.6167 199.548 97.0407 197.353 97.9272 194.849C96.4258 194.89 95.0409 194.91 95.0409 194.91Z" fill="#23B5A7"/>
<path d="M90.4688 181.904C91.9751 187.786 93.4871 193.708 93.9022 199.765C94.3174 205.822 93.5752 212.089 90.7811 217.48" stroke="#149386" stroke-width="0.5064" stroke-miterlimit="10" stroke-linecap="round" stroke-linejoin="round"/>
<path d="M86.8785 201.452L88.5822 196.72C88.07 195.174 87.3335 193.653 86.3541 192.213C85.4855 190.936 84.4864 189.814 83.3993 188.846L80.4356 191.203L81.1369 187.135C78.5875 185.523 75.7396 184.676 72.9659 184.692C72.2148 186.561 71.8812 188.636 71.966 190.767C73.7496 191.771 75.7478 192.908 75.7478 192.908L72.3118 193.527C72.7726 195.711 73.673 197.888 75.0456 199.906C75.3041 200.286 75.5781 200.649 75.8587 201.002L82.3211 200.522L78.7327 203.892C81.6385 206.208 85.0891 207.446 88.4321 207.428C89.3194 205.218 89.6293 202.724 89.3455 200.189C88.0667 200.854 86.8785 201.452 86.8785 201.452Z" fill="#29CBBE"/>
<path d="M77.4766 192.127C81.2452 196.579 85.0368 201.064 87.9361 206.125C90.8354 211.186 92.8229 216.915 92.6679 222.746" stroke="#149386" stroke-width="0.4865" stroke-miterlimit="10" stroke-linecap="round" stroke-linejoin="round"/>
<path d="M99.3191 202.902L97.8234 198.747C98.2736 197.389 98.9203 196.054 99.7799 194.79C100.542 193.669 101.42 192.684 102.374 191.834L104.976 193.903L104.359 190.331C106.597 188.916 109.098 188.172 111.533 188.186C112.192 189.827 112.485 191.649 112.411 193.519C110.845 194.402 109.091 195.399 109.091 195.399L112.108 195.943C111.703 197.861 110.913 199.773 109.708 201.545C109.48 201.879 109.24 202.197 108.993 202.507L103.319 202.086L106.47 205.045C103.918 207.078 100.889 208.165 97.9539 208.149C97.175 206.21 96.9026 204.02 97.1522 201.792C98.276 202.377 99.3191 202.902 99.3191 202.902Z" fill="#29CBBE"/>
<path d="M107.572 194.715C104.263 198.624 100.934 202.562 98.3885 207.006C95.8423 211.449 94.0978 216.479 94.234 221.599" stroke="#149386" stroke-width="0.4272" stroke-miterlimit="10" stroke-linecap="round" stroke-linejoin="round"/>
<path d="M102.792 235.863H85.7286L82.0781 211.5H106.441L102.792 235.863Z" fill="#8DAEF3"/>
<path d="M105.686 216.541H88.5859L104.928 221.598L105.686 216.541Z" fill="#759DEF"/>
<path d="M545.019 97.1211H471.453V149.498H545.019V97.1211Z" fill="#8DAEF3"/>
<path d="M540.938 145.42V101.199L475.528 101.199V145.42H540.938Z" fill="white"/>
<path d="M491.353 103.816H478.25V115.488H491.353V103.816Z" fill="#C9DBFA"/>
<path d="M491.353 117.475H478.25V129.146H491.353V117.475Z" fill="#C9DBFA"/>
<path d="M491.353 131.131H478.25V142.803H491.353V131.131Z" fill="#C9DBFA"/>
<path d="M506.978 103.816H493.875V115.488H506.978V103.816Z" fill="#C9DBFA"/>
<path d="M506.978 117.475H493.875V129.146H506.978V117.475Z" fill="#C9DBFA"/>
<path d="M506.978 131.131H493.875V142.802H506.978V131.131Z" fill="#C9DBFA"/>
<path d="M522.603 103.816H509.5V115.488H522.603V103.816Z" fill="#C9DBFA"/>
<path d="M522.603 117.475H509.5V129.146H522.603V117.475Z" fill="#C9DBFA"/>
<path d="M522.603 131.131H509.5V142.802H522.603V131.131Z" fill="#C9DBFA"/>
<path d="M538.22 103.816H525.117V115.488H538.22V103.816Z" fill="#C9DBFA"/>
<path d="M538.22 117.475H525.117V129.146H538.22V117.475Z" fill="#C9DBFA"/>
<path d="M538.22 131.131H525.117V142.802H538.22V131.131Z" fill="#C9DBFA"/>
<path d="M134.099 234.297H67.5469V316.795H134.099V234.297Z" fill="#748DF2"/>
<path d="M98.9977 240.02H72.5859V254.862H98.9977V240.02Z" fill="#C9DBFA"/>
<path d="M129.052 240.02H102.641V254.862H129.052V240.02Z" fill="#C9DBFA"/>
<path d="M98.9977 258.969H72.5859V273.811H98.9977V258.969Z" fill="#C9DBFA"/>
<path d="M129.052 258.969H102.641V273.811H129.052V258.969Z" fill="#C9DBFA"/>
<path d="M98.9977 277.916H72.5859V292.758H98.9977V277.916Z" fill="#C9DBFA"/>
<path d="M129.052 277.916H102.641V292.758H129.052V277.916Z" fill="#C9DBFA"/>
<path d="M98.9977 296.863H72.5859V311.706H98.9977V296.863Z" fill="#C9DBFA"/>
<path d="M129.052 296.863H102.641V311.706H129.052V296.863Z" fill="#C9DBFA"/>
<path d="M335.111 208.908H317.328V306.685H335.111V208.908Z" fill="#5A6CF0"/>
<path d="M311.087 294.146H342.309C350.672 294.146 357.451 300.926 357.451 309.289H295.945C295.945 300.926 302.724 294.146 311.087 294.146Z" fill="#5A6CF0"/>
<path d="M402.955 213.479H251.047C249.295 213.479 247.875 212.059 247.875 210.307V206.969C247.875 205.217 249.295 203.797 251.047 203.797H402.955C404.707 203.797 406.127 205.217 406.127 206.969V210.307C406.127 212.059 404.707 213.479 402.955 213.479Z" fill="#748DF2"/>
<path d="M206.137 205.715L446.297 205.715V53.9302L206.137 53.9302L206.137 205.715Z" fill="#C9DBFA"/>
<path d="M206.137 209.002L446.297 209.002V205.716L206.137 205.716V209.002Z" fill="#8DAEF3"/>
<path d="M206.137 53.9297L446.297 53.9297V50.6438L206.137 50.6438V53.9297Z" fill="#8DAEF3"/>
<path d="M212.719 60.5276V199.139H439.726V60.5276H212.719Z" fill="white"/>
<path d="M255.113 180.789H259.547V132.962H255.113V180.789Z" fill="#8DAEF3"/>
<path d="M247.136 180.789H251.57V148.585H247.136V180.789Z" fill="#5A6CF0"/>
<path d="M239.152 180.789H243.586V159.903H239.152V180.789Z" fill="#8DAEF3"/>
<path d="M285.464 180.791H289.898V156.877H285.464V180.791Z" fill="#8DAEF3"/>
<path d="M277.488 180.791H281.922V131.81H277.488V180.791Z" fill="#5A6CF0"/>
<path d="M269.503 180.789H273.938V144.889H269.503V180.789Z" fill="#8DAEF3"/>
<path d="M315.816 180.789H320.25V144.889H315.816V180.789Z" fill="#8DAEF3"/>
<path d="M307.839 180.789H312.273V167.717H307.839V180.789Z" fill="#5A6CF0"/>
<path d="M299.855 180.789H304.289V150.789H299.855V180.789Z" fill="#8DAEF3"/>
<path d="M231.336 114.477V180.413H326.218" stroke="#5A6CF0" stroke-width="1.1049" stroke-miterlimit="10"/>
<path d="M389.711 147.183V114.477C398.741 114.477 406.918 118.137 412.838 124.056L389.711 147.183Z" fill="#586DF0"/>
<path d="M420.034 152.115H387.328L410.455 128.988C416.373 134.908 420.034 143.085 420.034 152.115Z" fill="#C7DAFA"/>
<path d="M401.271 181.705L387.328 152.115H420.034C420.034 165.19 412.362 176.473 401.271 181.705Z" fill="#8CAFF3"/>
<path d="M387.331 184.821C369.272 184.821 354.625 170.18 354.625 152.115H387.331L401.274 181.705C397.042 183.705 392.316 184.821 387.331 184.821Z" fill="#586DF0"/>
<path d="M387.331 152.116H354.625C354.625 134.052 369.272 119.41 387.331 119.41V152.116Z" fill="#8CAFF3"/>
<path d="M389.712 69.0312H257.328V76.8027H389.712V69.0312Z" fill="#8CAFF3"/>
<path d="M361.977 83.6602H285.07V91.4316H361.977V83.6602Z" fill="#8CAFF3"/>
<path d="M376.101 110.712C376.116 110.567 373.893 107.609 371.935 108.394C369.976 109.178 363.963 113.872 363.875 123.349C363.788 132.826 382.281 135.271 382.281 135.271L376.101 110.712Z" fill="#4D4D4D"/>
<path d="M370.024 109.754C367.725 110.667 365.893 112.682 365.203 115.057" stroke="#4D4D4D" stroke-width="0.0516" stroke-miterlimit="10"/>
<path d="M375.248 109.916C375.11 109.171 375.211 108.384 375.531 107.697C375.852 107.011 376.391 106.427 377.051 106.055" stroke="#4D4D4D" stroke-width="0.0516" stroke-miterlimit="10"/>
<path d="M375.431 110.263C375.131 109.47 374.823 108.669 374.329 107.98C373.836 107.291 373.13 106.715 372.297 106.559" stroke="#4D4D4D" stroke-width="0.0516" stroke-miterlimit="10"/>
<path d="M372.849 114.325C372.849 114.325 373.464 109.573 379.767 112.191C386.071 114.809 394.654 121.236 395.631 126.928C396.21 129.805 391.147 137.803 386.852 140.005C384.781 141.066 373.098 142.111 371.077 131.014C369.056 119.916 372.849 114.325 372.849 114.325Z" fill="#4D4D4D"/>
<path d="M379.672 112.797C384.355 113.877 388.731 116.256 392.186 119.596" stroke="#4D4D4D" stroke-width="0.0516" stroke-miterlimit="10"/>
<path d="M379.516 112.977C382.638 112.826 385.804 113.885 388.208 115.885" stroke="#4D4D4D" stroke-width="0.0516" stroke-miterlimit="10"/>
<path d="M376.703 114.105C378.733 114.188 380.583 115.258 382.26 116.404C384.529 117.954 386.677 119.716 388.426 121.834C390.175 123.954 391.517 126.451 392.041 129.148" stroke="#B3B3B3" stroke-width="0.1032" stroke-miterlimit="10" stroke-linecap="round" stroke-linejoin="round"/>
<path d="M384.219 121.072C387.275 126.113 388.183 132.41 386.676 138.109" stroke="#B3B3B3" stroke-width="0.1032" stroke-miterlimit="10" stroke-linecap="round" stroke-linejoin="round"/>
<path d="M319.751 309.795C325.423 309.996 329.645 310.223 333.454 310.326L335.306 316.283L327.465 315.476L318.938 312.385L319.751 309.795Z" fill="#FFB89B"/>
<path d="M342.432 316.283L348.925 295.611L338.357 292.293L332.203 313.196L342.432 316.283Z" fill="#FFB89B"/>
<path d="M312.811 312.39L338.008 320.302L340.04 318.481L339.768 320.855L341.033 321.252L342.468 319.174C342.468 319.174 344.852 315.439 343.761 312.556C336.027 313.113 328.182 313.057 319.756 309.795L313.217 310.603C312.822 310.991 312.467 311.932 312.811 312.39Z" fill="#FF9E10"/>
<path d="M346.171 169.66C344.506 172.735 345.649 176.577 348.724 178.243C351.8 179.908 355.642 178.765 357.307 175.689C358.972 172.615 357.829 168.772 354.754 167.106C351.679 165.442 347.837 166.585 346.171 169.66Z" fill="#FFD5CE"/>
<path d="M323.321 151.442C322.35 153.235 323.017 155.477 324.81 156.448C326.604 157.419 328.846 156.752 329.817 154.958C330.788 153.165 330.121 150.923 328.328 149.952C326.534 148.981 324.293 149.648 323.321 151.442Z" fill="#FFD5CE"/>
<path d="M354.758 167.108L328.33 149.953L324.812 156.448L348.729 178.244L354.758 167.108Z" fill="#FFD5CE"/>
<path d="M346.171 169.66C344.506 172.736 345.649 176.578 348.724 178.243C351.8 179.908 355.642 178.765 357.307 175.69C358.972 172.615 357.829 168.772 354.754 167.107C351.679 165.442 347.837 166.586 346.171 169.66Z" fill="#FFD5CE"/>
<path d="M354.941 140.654C353.012 144.216 354.337 148.667 357.898 150.596C361.46 152.524 365.911 151.2 367.84 147.638C369.768 144.077 368.444 139.626 364.882 137.697C361.32 135.768 356.869 137.092 354.941 140.654Z" fill="#FFD5CE"/>
<path d="M367.835 147.638L357.307 175.691L346.172 169.66L354.937 140.654L367.835 147.638Z" fill="#FFD5CE"/>
<path d="M340.023 157.525L348.999 163.195C348.999 163.195 351.248 164.413 351.849 167.135" stroke="#E38C72" stroke-width="0.8582" stroke-miterlimit="10" stroke-linecap="round"/>
<path d="M354.479 140.247C353.989 141.152 353.707 142.114 353.622 143.079L349.953 155.235L361.669 162.455L367.38 147.232C369.31 143.668 367.986 139.219 364.423 137.289C360.858 135.36 356.408 136.683 354.479 140.247Z" fill="#06B4B1"/>
<path d="M363.048 161.062L362.004 164.054L348.953 155.57L349.997 152.578L363.048 161.062Z" fill="#00AAA8"/>
<path d="M395.813 188.559H363.948L361.188 136.812L397.376 138.673L395.813 188.559Z" fill="#09B4B1"/>
<path d="M365.74 256.108L346.969 250.919L358.158 204.402L381.762 211.814L365.74 256.108Z" fill="#17268F"/>
<path d="M382.309 208.331C382.43 201.493 376.984 195.852 370.146 195.732C363.307 195.611 357.666 201.057 357.546 207.895C357.425 214.734 362.871 220.375 369.71 220.495C376.548 220.615 382.189 215.17 382.309 208.331Z" fill="#17268F"/>
<path d="M348.014 257.36C350.605 262.098 356.546 263.838 361.284 261.246C363.422 260.077 364.95 258.224 365.744 256.109C366.71 253.537 366.591 250.575 365.17 247.976C362.579 243.239 356.638 241.498 351.9 244.09C347.162 246.681 345.422 252.622 348.014 257.36Z" fill="#17268F"/>
<path d="M344.263 310.54L333.867 307.558L347.224 249.859L365.918 255.595L344.263 310.54Z" fill="#17268F"/>
<path d="M356.59 262.444C361.99 262.444 366.368 258.066 366.368 252.666C366.368 247.266 361.99 242.889 356.59 242.889C351.19 242.889 346.812 247.266 346.812 252.666C346.812 258.066 351.19 262.444 356.59 262.444Z" fill="#17268F"/>
<path d="M358.547 203.244L363.949 188.561H395.812L400.202 203.214C400.273 204.565 399.479 205.812 398.225 206.318L382.75 212.561C379.543 213.854 375.942 213.754 372.813 212.283L360.35 206.424C359.136 205.854 358.413 204.579 358.547 203.244Z" fill="#17268F"/>
<path d="M362.842 193.295C362.842 193.295 362.924 202.459 360.812 206.089" stroke="#030B48" stroke-width="0.8582" stroke-miterlimit="10" stroke-linecap="round"/>
<path d="M375.754 199.693C375.754 199.693 374.568 213.899 375.754 215.364C376.939 216.83 377.52 217.344 377.52 217.344" stroke="#030B48" stroke-width="0.8582" stroke-miterlimit="10" stroke-linecap="round"/>
<path d="M369.668 139.064C370.277 142.942 373.574 145.763 377.493 145.763C377.913 145.763 378.326 145.728 378.739 145.665C382.575 145.056 385.332 141.794 385.437 138.056L369.591 137.244C369.549 137.839 369.569 138.449 369.668 139.064Z" fill="#00AAA8"/>
<path d="M371.05 138.844C371.612 142.411 374.959 144.845 378.526 144.282C382.092 143.72 384.527 140.373 383.964 136.806C383.401 133.24 380.054 130.805 376.488 131.368C372.921 131.931 370.487 135.278 371.05 138.844Z" fill="#FFD5CE"/>
<path d="M383.968 136.807L382.558 127.875L370.062 129.761L371.053 138.845L383.968 136.807Z" fill="#FFD5CE"/>
<path d="M385.013 123.367C385.013 123.367 388.903 122.563 388.48 126.834C388.058 131.104 383.078 129.882 383.078 129.882L385.013 123.367Z" fill="#FFD5CE"/>
<path d="M385.727 125.059C386.405 124.966 386.99 125.21 387.213 125.657C387.282 125.794 387.332 125.937 387.366 126.084C387.442 126.417 387.429 126.768 387.335 127.098C387.242 127.423 387.067 127.738 386.787 127.96C386.507 128.183 386.114 128.302 385.751 128.225" stroke="#BF736A" stroke-width="0.4291" stroke-miterlimit="10" stroke-linecap="round"/>
<path d="M385.606 126.86C385.36 126.362 386.435 125.526 387.371 126.389" stroke="#BF736A" stroke-width="0.4291" stroke-miterlimit="10" stroke-linecap="round"/>
<path opacity="0.1" d="M370.95 137.93L370.711 135.782C372.453 136.023 379.529 134.815 382.461 130.77C382.461 131.336 376.616 141.786 370.95 137.93Z" fill="black"/>
<path d="M384.107 128.65C384.107 128.65 378.931 135.9 375.042 136.999C371.152 138.098 368.719 135.768 368.719 131.778V121.575C368.719 118.933 370.184 116.471 372.567 115.331C374.59 114.364 377.448 113.882 381.233 115.205C389.942 118.25 384.107 128.65 384.107 128.65Z" fill="#FFD5CE"/>
<path d="M372.865 123.111C372.365 122.612 371.212 122.524 370.625 123.111" stroke="#BF736A" stroke-width="0.6437" stroke-miterlimit="10" stroke-linecap="round"/>
<path d="M378.006 123.111C377.506 122.612 376.353 122.524 375.766 123.111" stroke="#BF736A" stroke-width="0.6437" stroke-miterlimit="10" stroke-linecap="round"/>
<path d="M371.766 132.579C371.766 132.579 372.93 133.326 373.88 132.414" stroke="#B52B60" stroke-width="0.8582" stroke-miterlimit="10" stroke-linecap="round"/>
<path d="M376.516 128.754C376.516 129.576 377.182 130.243 378.004 130.243C378.826 130.243 379.492 129.577 379.492 128.754C379.492 127.932 378.826 127.266 378.004 127.266C377.182 127.265 376.516 127.931 376.516 128.754Z" fill="#EDBFB9"/>
<path d="M368.883 128.754C368.883 129.576 369.549 130.243 370.371 130.243C371.193 130.243 371.86 129.577 371.86 128.754C371.86 127.932 371.193 127.266 370.371 127.266C369.55 127.265 368.883 127.931 368.883 128.754Z" fill="#EDBFB9"/>
<path d="M404.901 181.825C408.304 181.021 410.411 177.611 409.608 174.207C408.804 170.804 405.394 168.696 401.99 169.5C398.587 170.304 396.48 173.714 397.283 177.117C398.087 180.521 401.497 182.628 404.901 181.825Z" fill="#FFD5CE"/>
<path d="M403.543 151.196C406.407 148.332 406.407 143.688 403.543 140.824C400.678 137.959 396.035 137.959 393.17 140.824C390.306 143.688 390.306 148.332 393.17 151.196C396.035 154.06 400.678 154.06 403.543 151.196Z" fill="#FFD5CE"/>
<path d="M405.699 146.008L409.799 175.689H397.135L391.031 146.008H405.699Z" fill="#FFD5CE"/>
<path d="M390.977 146.01C390.977 147.039 391.186 148.018 391.571 148.907L394.133 161.345L407.872 162.115L405.647 146.009C405.647 141.956 402.364 138.674 398.312 138.674C394.259 138.675 390.977 141.957 390.977 146.01Z" fill="#06B4B1"/>
<path d="M408.421 160.232L408.929 163.36L393.414 162.114L392.906 158.986L408.421 160.232Z" fill="#00AAA8"/>
<path d="M393.263 157.125L392.227 152.092" stroke="#00AAA8" stroke-width="0.8582" stroke-miterlimit="10" stroke-linecap="round"/>
<path d="M360.688 155.91L360.842 150.773" stroke="#00AAA8" stroke-width="0.8582" stroke-miterlimit="10" stroke-linecap="round"/>
<path d="M344.992 308.691L334.296 305.707L333.867 307.559L344.263 310.541L344.992 308.691Z" fill="#030B48"/>
<path d="M395.809 188.561H363.944L363.156 190.703L396.35 190.37L395.809 188.561Z" fill="#F983B7"/>
<path d="M387.367 123.726C385.977 123.021 384.866 124.515 383.961 127.637C383.9 125.688 384.436 123.802 385.365 121.959C385.365 121.959 379.794 123.849 375.578 121.192C375.451 121.112 375.059 118.697 374.827 117.609C374.751 118.691 374.808 121.317 374.654 121.293C374.119 121.211 373.619 121.1 373.197 120.949C373.17 118.785 373.177 118.801 373.177 118.801L372.483 120.973C372.483 120.973 369.368 121.946 368.842 121.805C368.393 120.908 368.196 117.458 369.016 115.098C369.835 112.737 374.83 110.301 379.907 111.432C389.474 113.562 387.367 123.726 387.367 123.726Z" fill="#4D4D4D"/>
<path d="M375.492 114.635C375.585 117.112 376.844 119.52 378.825 121.01" stroke="#B3B3B3" stroke-width="0.1032" stroke-miterlimit="10" stroke-linecap="round" stroke-linejoin="round"/>
<path d="M377.992 115.318C378.608 117.73 380.308 119.843 382.532 120.961" stroke="#B3B3B3" stroke-width="0.1032" stroke-miterlimit="10" stroke-linecap="round" stroke-linejoin="round"/>
<path d="M372.258 115.152C371.817 116.99 370.679 118.651 369.125 119.727" stroke="#B3B3B3" stroke-width="0.1032" stroke-miterlimit="10" stroke-linecap="round" stroke-linejoin="round"/>
<path d="M319.669 147.02C319.285 146.767 318.813 147.369 318.322 148.498C317.872 149.53 317.617 150.455 317.997 150.728L318.175 150.858C318.183 150.863 318.191 150.869 318.199 150.875V150.875C318.199 150.875 318.683 151.222 318.933 151.402C322.236 153.767 325.458 155.313 326.406 153.934C327.335 152.581 324.663 150.235 321.27 148.001C321.025 147.839 320.781 147.686 320.542 147.539C320.523 147.525 320.503 147.512 320.484 147.499L319.669 147.02Z" fill="#FFD5CE"/>
<path d="M326.017 149.366C326.204 149.998 327.281 152.598 326.571 152.932L326.48 153.215C325.606 153.453 322.485 150.726 322.672 149.999L323.361 147.626C323.175 146.993 322.817 146.277 323.452 146.131C324.086 145.986 324.64 146.39 324.956 146.978C325.469 147.933 326.017 149.366 326.017 149.366Z" fill="#FFD5CE"/>
<path d="M323.968 145.931C324.672 146.369 324.986 147.607 324.446 148.168L324.425 148.355C323.885 148.917 323.877 148.778 323.146 148.388C321.974 147.761 320.928 145.971 320.928 145.971C320.366 145.081 320.307 143.824 320.649 143.485C320.975 143.128 321.583 142.965 321.87 143.153C321.87 143.153 322.107 144.775 323.968 145.931Z" fill="#FFD5CE"/>
<path d="M318.695 149.243L322.431 150.181C323.095 150.347 323.768 149.944 323.934 149.281C324.1 148.617 323.697 147.944 323.034 147.778L319.298 146.84C318.635 146.674 317.962 147.077 317.795 147.74C317.629 148.404 318.032 149.076 318.695 149.243Z" fill="#FFD5CE"/>
<path d="M313.683 146.856L316.933 148.925C317.511 149.292 318.276 149.122 318.643 148.544C319.01 147.967 318.841 147.202 318.263 146.834L315.013 144.766C314.436 144.399 313.671 144.569 313.303 145.146C312.936 145.723 313.106 146.489 313.683 146.856Z" fill="#FFD5CE"/>
<path d="M316.121 147.905L319.371 149.973C319.948 150.34 320.713 150.171 321.081 149.593C321.448 149.016 321.278 148.251 320.701 147.883L317.451 145.815C316.873 145.448 316.108 145.617 315.741 146.195C315.374 146.772 315.543 147.537 316.121 147.905Z" fill="#FFD5CE"/>
<path d="M320.451 149.964C320.9 150.269 321.025 150.871 320.729 151.307C320.433 151.744 319.681 151.878 319.231 151.572L311.681 146.296C311.231 145.99 311.107 145.389 311.403 144.952C311.699 144.516 312.304 144.41 312.754 144.715L320.451 149.964Z" fill="#FFD5CE"/>
<path d="M319.745 148.965C318.831 148.848 316.958 147.654 316.078 146.898" stroke="#E38C72" stroke-width="0.8582" stroke-miterlimit="10" stroke-linecap="round"/>
<path d="M323.577 149.926C323.223 149.411 322.912 148.89 322.711 148.486" stroke="#E38C72" stroke-width="0.8582" stroke-miterlimit="10" stroke-linecap="round"/>
<path d="M312.812 312.392L338.006 320.303L339.303 319.14L312.999 310.881C312.711 311.333 312.533 312.018 312.812 312.392Z" fill="#DD840E"/>
<path d="M341.917 319.963L339.934 319.34L339.766 320.858L341.028 321.254L341.917 319.963Z" fill="#DD840E"/>
<path d="M410.461 319.16C414.18 314.873 417.007 311.73 419.48 308.83L425.28 311.131L419.726 316.725L411.966 321.42L410.461 319.16Z" fill="#FFB89B"/>
<path d="M429.751 305.588L417.742 287.553L408.523 293.693L420.925 311.609L429.751 305.588Z" fill="#FFB89B"/>
<path d="M408.12 326.194L430.101 311.555L429.96 308.831L431.637 310.533L432.74 309.798L432.024 307.377C432.024 307.377 430.615 303.176 427.686 302.215C423.262 308.583 418.293 314.652 410.462 319.16L406.984 324.756C407.038 325.306 407.548 326.173 408.12 326.194Z" fill="#FF9E10"/>
<path d="M398.895 255.165L379.431 255.838L376.172 208.105H400.911L398.895 255.165Z" fill="#17268F"/>
<path d="M400.233 212.205C402.505 205.753 399.116 198.682 392.665 196.411C386.213 194.139 379.142 197.528 376.871 203.98C374.599 210.432 377.988 217.503 384.439 219.775C390.89 222.046 397.962 218.657 400.233 212.205Z" fill="#17268F"/>
<path d="M382.358 261.669C386.25 265.413 392.439 265.293 396.183 261.401C397.873 259.645 398.776 257.421 398.9 255.164C399.051 252.421 398.051 249.631 395.916 247.577C392.024 243.834 385.835 243.953 382.09 247.845C378.347 251.736 378.467 257.925 382.358 261.669Z" fill="#17268F"/>
<path d="M426.432 300.561L417.582 306.778L381.07 260.146L397.274 249.201L426.432 300.561Z" fill="#17268F"/>
<path d="M394.699 262.649C399.135 259.569 400.234 253.477 397.155 249.041C394.075 244.605 387.983 243.506 383.547 246.586C379.111 249.666 378.012 255.758 381.092 260.194C384.172 264.629 390.264 265.728 394.699 262.649Z" fill="#17268F"/>
<path d="M425.446 298.832L416.406 305.281L417.578 306.778L426.428 300.561L425.446 298.832Z" fill="#030B48"/>
<path d="M408.119 326.192L430.1 311.554L430.009 309.814L407.062 325.096C407.232 325.605 407.654 326.174 408.119 326.192Z" fill="#DD840E"/>
<path d="M432.293 308.295L430.562 309.447L431.637 310.53L432.738 309.797L432.293 308.295Z" fill="#DD840E"/>
<path d="M373.137 126.329C372.805 127.868 371.289 128.846 369.75 128.514C368.211 128.182 367.233 126.665 367.565 125.127C367.897 123.588 369.414 122.61 370.953 122.942C372.492 123.274 373.47 124.791 373.137 126.329Z" stroke="white" stroke-width="0.4291" stroke-miterlimit="10" stroke-linecap="round"/>
<path d="M380.574 126.641C380.256 128.111 378.807 129.046 377.337 128.728C375.866 128.411 374.932 126.961 375.25 125.491C375.567 124.02 377.016 123.086 378.487 123.404C379.957 123.721 380.892 125.17 380.574 126.641Z" stroke="white" stroke-width="0.4291" stroke-miterlimit="10" stroke-linecap="round"/>
<path d="M373.211 125.991C373.211 125.991 373.915 125.266 375.185 126.126" stroke="white" stroke-width="0.4291" stroke-miterlimit="10" stroke-linecap="round"/>
<path opacity="0.24" d="M272.743 156.914C298.653 156.914 319.658 135.909 319.658 109.999C319.658 84.0885 298.653 63.084 272.743 63.084C246.833 63.084 225.828 84.0885 225.828 109.999C225.828 135.909 246.833 156.914 272.743 156.914Z" fill="white"/>
<path d="M272.743 156.914C298.653 156.914 319.658 135.909 319.658 109.999C319.658 84.0885 298.653 63.084 272.743 63.084C246.833 63.084 225.828 84.0885 225.828 109.999C225.828 135.909 246.833 156.914 272.743 156.914Z" stroke="#2B2F3E" stroke-width="11.6423" stroke-miterlimit="10"/>
<path d="M312.789 134.439L336.854 149.126" stroke="#2B2F3E" stroke-width="9.2154" stroke-miterlimit="10"/>
<path d="M412.011 194.996C414.357 191.152 413.143 186.133 409.298 183.788L325.23 132.48L316.734 146.401L400.803 197.709C404.646 200.055 409.664 198.841 412.011 194.996Z" fill="#2B2F3E"/>
<path d="M397.307 174.221C396.496 177.623 398.597 181.038 401.999 181.848C405.4 182.659 408.815 180.558 409.626 177.156C410.436 173.755 408.335 170.34 404.934 169.529C401.532 168.719 398.117 170.82 397.307 174.221Z" fill="#FFD5CE"/>
<path d="M370.508 162.553C370.035 164.537 371.26 166.529 373.245 167.002C375.229 167.475 377.221 166.249 377.694 164.265C378.167 162.281 376.941 160.289 374.957 159.816C372.972 159.344 370.98 160.569 370.508 162.553Z" fill="#FFD5CE"/>
<path d="M404.928 169.529L374.954 159.816L373.242 167.002L401.994 181.848L404.928 169.529Z" fill="#FFD5CE"/>
<path d="M392.383 165.48L402.523 168.628C402.523 168.628 405.01 169.221 406.297 171.694" stroke="#E38C72" stroke-width="0.8582" stroke-miterlimit="10" stroke-linecap="round"/>
<path d="M377.516 223.443L379.906 257.429" stroke="#030B48" stroke-width="0.8582" stroke-miterlimit="10" stroke-linecap="round"/>
<path d="M395.228 194.234C395.228 194.234 394.299 204.466 399.118 207.34" stroke="#030B48" stroke-width="0.8582" stroke-miterlimit="10" stroke-linecap="round"/>
<path d="M372.671 160.725C372.671 160.725 372.347 156.527 372.083 155.641C371.82 154.754 370.047 155.733 370.047 155.733L372.671 160.725Z" fill="#FFD5CE"/>
<path d="M370.742 155.661C370.742 155.661 372.882 160.539 374.173 163.482C375.464 166.425 370.448 164.715 369.551 163.504C369.551 163.504 366.996 161.015 366.565 159.199C366.134 157.382 369.95 153.301 370.742 155.661Z" fill="#FFD5CE"/>
<path d="M370.473 155.135C370.473 155.135 365.54 150.549 364.905 150.021C364.271 149.494 363.701 150.953 364.802 152.082C365.902 153.212 368.34 156.474 369.393 157.725C370.445 158.976 372.018 157.278 370.473 155.135Z" fill="#FFD5CE"/>
<path d="M370.857 158.247C370.857 158.247 366.996 155.425 365.65 155C364.925 154.77 362.395 156.202 361.882 156.427C361.367 156.653 361.44 158.077 363.147 157.564C363.961 157.321 365.716 156.701 365.716 156.701L369.511 160.304C369.511 160.304 372.287 159.877 370.857 158.247Z" fill="#FFD5CE"/>
<path d="M371.74 160.985C371.74 160.985 367.878 158.164 366.533 157.738C365.807 157.508 363.278 158.94 362.764 159.165C362.25 159.391 362.322 160.815 364.03 160.303C364.843 160.059 366.598 159.439 366.598 159.439L370.394 163.042C370.394 163.044 373.17 162.616 371.74 160.985Z" fill="#FFD5CE"/>
<path d="M372.026 162.57C372.026 162.57 368.442 159.951 367.194 159.556C366.521 159.343 364.174 160.672 363.697 160.881C363.22 161.089 363.287 162.412 364.872 161.937C365.626 161.711 367.255 161.136 367.255 161.136L370.754 163.933C370.754 163.933 373.353 164.083 372.026 162.57Z" fill="#FFD5CE"/>
<path d="M369.852 155.379C369.957 155.28 370.356 155.211 370.51 155.38" stroke="#E38C72" stroke-width="0.2396" stroke-miterlimit="10" stroke-linecap="round" stroke-linejoin="round"/>
<path d="M367.627 157.37C367.605 157.226 367.775 156.859 368 156.828" stroke="#E38C72" stroke-width="0.2396" stroke-miterlimit="10" stroke-linecap="round" stroke-linejoin="round"/>
<path d="M367.059 159.064C366.963 158.955 366.908 158.554 367.082 158.406" stroke="#E38C72" stroke-width="0.2396" stroke-miterlimit="10" stroke-linecap="round" stroke-linejoin="round"/>
<path d="M367.564 160.619C367.43 160.566 367.197 160.234 367.285 160.023" stroke="#E38C72" stroke-width="0.2396" stroke-miterlimit="10" stroke-linecap="round" stroke-linejoin="round"/>
<path d="M186.981 268.315H142.753C140.293 268.315 138.297 266.32 138.297 263.86C138.297 261.399 140.292 259.404 142.753 259.404H186.981C189.441 259.404 191.437 261.399 191.437 263.86C191.437 266.32 189.442 268.315 186.981 268.315Z" fill="#748DF2"/>
<path d="M149.14 268.314H144.742V322.172H149.14V268.314Z" fill="#5A6CF0"/>
<path d="M184.992 268.314H180.594V322.172H184.992V268.314Z" fill="#5A6CF0"/>
<path d="M183.377 290.895H145.32V294.566H183.377V290.895Z" fill="#5A6CF0"/>
<path d="M159.29 151.48C161.452 151.48 163.204 149.727 163.204 147.565C163.204 145.403 161.452 143.65 159.29 143.65C157.128 143.65 155.375 145.403 155.375 147.565C155.375 149.727 157.128 151.48 159.29 151.48Z" fill="#17268F"/>
<path d="M155.379 176.133L175.953 174.479C175.953 174.479 186.666 149.188 166.88 147.303C152.494 145.934 145.741 158.262 155.379 176.133Z" fill="#17268F"/>
<path d="M238.283 315.4C232.698 313.695 228.515 312.501 224.775 311.324L220.977 316.499L228.874 318.341L238.205 318.193L238.283 315.4Z" fill="#FFB89B"/>
<path d="M214.055 314.11L214.667 291.826L226.059 292.141L225.039 314.536L214.055 314.11Z" fill="#FFB89B"/>
<path d="M244.17 320.253L217.008 319.503L215.641 317.051L215.11 319.451L213.745 319.413L213.046 316.911C213.046 316.911 211.979 312.48 214.007 310.041C221.344 313.174 228.993 315.75 238.283 315.401L244.373 318.378C244.628 318.888 244.657 319.922 244.17 320.253Z" fill="#3A3735"/>
<path d="M201.724 207.576C203.856 210.474 203.236 214.553 200.337 216.685C197.439 218.817 193.362 218.196 191.229 215.298C189.096 212.4 189.717 208.323 192.615 206.19C195.513 204.057 199.591 204.678 201.724 207.576Z" fill="#FFD5CE"/>
<path d="M222.431 185.773C223.674 187.464 223.312 189.842 221.622 191.086C219.932 192.329 217.554 191.967 216.31 190.277C215.066 188.586 215.428 186.208 217.118 184.964C218.808 183.72 221.187 184.082 222.431 185.773Z" fill="#FFD5CE"/>
<path d="M192.617 206.19L217.12 184.965L221.624 191.086L200.339 216.685L192.617 206.19Z" fill="#FFD5CE"/>
<path d="M201.724 207.578C203.856 210.476 203.236 214.555 200.337 216.686C197.439 218.819 193.362 218.198 191.229 215.3C189.096 212.402 189.717 208.325 192.615 206.192C195.513 204.059 199.591 204.68 201.724 207.578Z" fill="#FFD5CE"/>
<path d="M189.998 185.225C190.823 181.139 188.18 177.159 184.095 176.334C180.009 175.51 176.029 178.153 175.204 182.238C174.38 186.323 177.023 190.303 181.108 191.128C185.193 191.953 189.173 189.31 189.998 185.225Z" fill="#FFD5CE"/>
<path d="M176.531 188.202L191.233 215.299L201.728 207.577L188.687 179.258L176.531 188.202Z" fill="#FFD5CE"/>
<path d="M206.323 194.961L197.409 201.275C197.409 201.275 195.164 202.648 194.695 205.478" stroke="#E38C72" stroke-width="0.883" stroke-miterlimit="10" stroke-linecap="round"/>
<path d="M189.104 178.777C189.731 179.63 190.154 180.569 190.378 181.541L195.838 193.41L184.248 203.184L176.272 188.48C173.801 185.122 175.193 179.642 178.552 177.171C181.91 174.7 186.632 175.417 189.104 178.777Z" fill="#FF9E66"/>
<path d="M183.07 200.698L184.48 203.638L196.853 193.469L195.444 190.529L183.07 200.698Z" fill="#F9844F"/>
<path d="M147.187 229.426H179.972L182.812 176.184L145.578 178.098L147.187 229.426Z" fill="#FF9D66"/>
<path d="M222.706 257.677L222.36 237.641L173.141 236.838L174.46 262.259L222.706 257.677Z" fill="#9D7BEF"/>
<path d="M182.516 240.237C187.651 245.049 187.914 253.112 183.102 258.247C178.29 263.383 170.227 263.644 165.092 258.833C159.957 254.021 159.695 245.958 164.506 240.823C169.318 235.687 177.382 235.425 182.516 240.237Z" fill="#9D7BEF"/>
<path d="M228.516 240.332C232.57 244.131 232.778 250.497 228.979 254.551C227.264 256.382 225.027 257.427 222.714 257.675C219.904 257.976 216.984 257.098 214.76 255.014C210.705 251.215 210.498 244.849 214.297 240.795C218.096 236.741 224.462 236.533 228.516 240.332Z" fill="#9D7BEF"/>
<path d="M214.204 307.912L225.316 308.496L231.661 247.891L211.555 247.205L214.204 307.912Z" fill="#9D7BEF"/>
<path d="M231.655 247.949C231.916 242.4 227.628 237.689 222.078 237.429C216.529 237.168 211.818 241.456 211.558 247.006C211.297 252.556 215.585 257.266 221.135 257.526C226.685 257.787 231.395 253.499 231.655 247.949Z" fill="#9D7BEF"/>
<path d="M185.535 244.533L179.978 229.426H147.193L142.676 244.503C142.603 245.893 143.42 247.176 144.71 247.696L160.633 254.119C163.932 255.45 167.637 255.347 170.856 253.833L183.679 247.806C184.93 247.219 185.673 245.907 185.535 244.533Z" fill="#A97EFA"/>
<path d="M174.084 178.501C173.458 182.491 170.066 185.393 166.033 185.393C165.601 185.393 165.176 185.357 164.751 185.292C160.804 184.665 157.967 181.309 157.859 177.464L174.163 176.629C174.206 177.241 174.185 177.868 174.084 178.501Z" fill="#F9844F"/>
<path d="M172.685 178.042C173.132 174.354 170.505 171.003 166.817 170.556C163.13 170.11 159.778 172.737 159.332 176.425C158.885 180.112 161.513 183.464 165.2 183.91C168.888 184.357 172.239 181.729 172.685 178.042Z" fill="#FFD5CE"/>
<path d="M159.375 176.179L160.825 166.988L173.681 168.929L172.662 178.276L159.375 176.179Z" fill="#FFD5CE"/>
<path d="M158.303 162.351C158.303 162.351 154.301 161.525 154.736 165.918C155.171 170.311 160.294 169.055 160.294 169.055L158.303 162.351Z" fill="#FFD5CE"/>
<path d="M157.565 164.09C156.867 163.995 156.266 164.245 156.035 164.706C155.965 164.847 155.913 164.994 155.879 165.145C155.8 165.488 155.814 165.849 155.911 166.188C156.007 166.523 156.187 166.847 156.475 167.076C156.763 167.305 157.167 167.428 157.541 167.349" stroke="#BF736A" stroke-width="0.4415" stroke-miterlimit="10" stroke-linecap="round"/>
<path d="M157.691 165.945C157.945 165.433 156.838 164.572 155.875 165.461" stroke="#BF736A" stroke-width="0.4415" stroke-miterlimit="10" stroke-linecap="round"/>
<path opacity="0.1" d="M172.765 177.333L173.011 175.122C171.218 175.37 163.938 174.127 160.922 169.965C160.923 170.547 166.937 181.299 172.765 177.333Z" fill="black"/>
<path d="M159.226 167.785C159.226 167.785 164.552 175.244 168.554 176.376C172.555 177.507 175.059 175.109 175.059 171.004V160.507C175.059 157.788 173.551 155.255 171.099 154.082C169.018 153.087 166.077 152.592 162.183 153.953C153.224 157.085 159.226 167.785 159.226 167.785Z" fill="#FFD5CE"/>
<path d="M170.797 162.086C171.311 161.572 172.498 161.482 173.102 162.086" stroke="#BF736A" stroke-width="0.6623" stroke-miterlimit="10" stroke-linecap="round"/>
<path d="M165.516 162.086C166.03 161.572 167.217 161.482 167.821 162.086" stroke="#BF736A" stroke-width="0.6623" stroke-miterlimit="10" stroke-linecap="round"/>
<path d="M167.048 167.893C167.048 168.739 166.362 169.425 165.516 169.425C164.67 169.425 163.984 168.739 163.984 167.893C163.984 167.047 164.67 166.361 165.516 166.361C166.362 166.361 167.048 167.047 167.048 167.893Z" fill="#EDBFB9"/>
<path d="M174.891 167.893C174.891 168.739 174.205 169.425 173.36 169.425C172.514 169.425 171.828 168.739 171.828 167.893C171.828 167.047 172.514 166.361 173.36 166.361C174.205 166.361 174.891 167.047 174.891 167.893Z" fill="#EDBFB9"/>
<path d="M139.312 222.697C142.909 222.697 145.826 219.781 145.826 216.183C145.826 212.585 142.909 209.668 139.312 209.668C135.714 209.668 132.797 212.585 132.797 216.183C132.797 219.781 135.714 222.697 139.312 222.697Z" fill="#FFD5CE"/>
<path d="M171.628 214.693C173.726 214.693 175.427 212.992 175.427 210.893C175.427 208.795 173.726 207.094 171.628 207.094C169.529 207.094 167.828 208.795 167.828 210.893C167.828 212.992 169.529 214.693 171.628 214.693Z" fill="#FFD5CE"/>
<path d="M139.312 209.668L171.628 207.094V214.694L139.312 222.698V209.668Z" fill="#FFD5CE"/>
<path d="M139.312 222.697C142.909 222.697 145.826 219.78 145.826 216.182C145.826 212.584 142.909 209.668 139.312 209.668C135.714 209.668 132.797 212.584 132.797 216.182C132.797 219.78 135.714 222.697 139.312 222.697Z" fill="#FFD5CE"/>
<path d="M145.292 193.152C149.439 192.742 152.468 189.047 152.057 184.9C151.647 180.753 147.952 177.723 143.805 178.134C139.659 178.544 136.63 182.239 137.04 186.386C137.451 190.534 141.145 193.563 145.292 193.152Z" fill="#FFD5CE"/>
<path d="M137.014 185.645L132.797 216.183H145.826L152.106 185.645H137.014Z" fill="#FFD5CE"/>
<path d="M181.11 234.299C181.11 234.299 181.025 243.728 183.198 247.463" stroke="#7E4EDC" stroke-width="0.883" stroke-miterlimit="10" stroke-linecap="round"/>
<path d="M152.166 185.647C152.166 186.705 151.95 187.713 151.553 188.628L148.917 201.425L134.781 202.217L137.071 185.647C137.071 181.477 140.449 178.1 144.618 178.1C148.788 178.1 152.166 181.477 152.166 185.647Z" fill="#FF9E66"/>
<path d="M134.209 200.279L133.688 203.498L149.651 202.216L150.173 198.998L134.209 200.279Z" fill="#F9844F"/>
<path d="M149.812 197.083L150.879 191.904" stroke="#F9844F" stroke-width="0.883" stroke-miterlimit="10" stroke-linecap="round"/>
<path d="M183.331 195.832L183.172 190.547" stroke="#F9844F" stroke-width="0.883" stroke-miterlimit="10" stroke-linecap="round"/>
<path d="M152.845 208.609L141.946 209.342C141.946 209.342 139.315 209.342 137.438 211.511" stroke="#E38C72" stroke-width="0.883" stroke-miterlimit="10" stroke-linecap="round"/>
<path d="M214.109 305.869L225.514 306.551L225.31 308.497L214.198 307.913L214.109 305.869Z" fill="#7E4EDC"/>
<path d="M232.929 315.692C227.111 315.19 222.771 314.896 218.868 314.525L216.234 320.379L224.343 320.532L233.437 318.438L232.929 315.692Z" fill="#FFB89B"/>
<path d="M208.961 319.491L204.906 297.57L216.113 295.498L219.792 317.613L208.961 319.491Z" fill="#FFB89B"/>
<path d="M239.692 319.208L212.973 324.147L211.125 322.034L211.106 324.492L209.764 324.74L208.558 322.44C208.558 322.44 206.589 318.328 208.063 315.52C215.892 317.052 223.911 317.974 232.923 315.692L239.5 317.332C239.855 317.779 240.1 318.784 239.692 319.208Z" fill="#3A3735"/>
<path d="M202.444 262.815L204.223 242.856L155.367 236.84L153.984 262.257L202.444 262.815Z" fill="#A97EFA"/>
<path d="M164.328 241.213C168.924 246.542 168.33 254.587 163.001 259.184C157.672 263.779 149.627 263.186 145.031 257.857C140.435 252.528 141.029 244.482 146.357 239.886C151.686 235.29 159.732 235.884 164.328 241.213Z" fill="#A97EFA"/>
<path d="M210.054 246.185C213.682 250.393 213.213 256.745 209.006 260.373C207.107 262.011 204.771 262.814 202.446 262.816C199.619 262.818 196.809 261.634 194.817 259.326C191.189 255.119 191.657 248.766 195.865 245.138C200.073 241.509 206.426 241.978 210.054 246.185Z" fill="#A97EFA"/>
<path d="M207.807 313.398L218.796 311.649L212.346 251.055L192.539 254.583L207.807 313.398Z" fill="#A97EFA"/>
<path d="M209.656 259.748C213.52 255.756 213.416 249.387 209.424 245.523C205.433 241.659 199.064 241.762 195.2 245.754C191.336 249.746 191.439 256.115 195.431 259.979C199.423 263.843 205.792 263.74 209.656 259.748Z" fill="#A97EFA"/>
<path d="M207.297 311.418L218.593 309.703L218.8 311.649L207.811 313.398L207.297 311.418Z" fill="#7E4EDC"/>
<path d="M147.791 235.264C147.791 235.264 148.748 245.79 143.789 248.748" stroke="#7E4EDC" stroke-width="0.883" stroke-miterlimit="10" stroke-linecap="round"/>
<path d="M147.191 229.426H179.975L180.786 231.63L146.633 231.287L147.191 229.426Z" fill="#7E4EDC"/>
<path d="M163.675 155.935C163.675 155.935 169.017 163.218 176.219 160.197C176.219 160.197 177.575 150.85 163.191 151.963C163.191 151.963 162.489 154.602 163.675 155.935Z" fill="#17268F"/>
<path d="M156.491 161.031C156.491 161.031 156.705 153.689 162.921 152.387C162.921 152.387 170.065 159.56 159.921 165.455C159.921 165.455 156.312 162.471 156.491 161.031Z" fill="#17268F"/>
<path d="M171.66 171.828C171.66 171.828 170.462 172.597 169.484 171.658" stroke="#B52B60" stroke-width="0.883" stroke-miterlimit="10" stroke-linecap="round"/>
<path d="M221.415 178.848C221.779 178.542 223.008 179.816 224.716 182.045C226.278 184.082 227.457 185.852 227.117 186.192L226.96 186.355C226.952 186.362 226.945 186.369 226.937 186.375L226.938 186.376C226.938 186.376 226.504 186.809 226.28 187.032C223.318 189.987 219.776 191.495 217.162 188.634C214.599 185.828 216.626 182.659 219.837 179.978C220.069 179.784 220.305 179.604 220.541 179.435C220.558 179.418 220.576 179.4 220.594 179.385L221.415 178.848Z" fill="#FFD5CE"/>
<path d="M220.013 179.635C219.597 180.01 219.556 180.641 219.92 181.044C220.283 181.447 221.069 181.477 221.484 181.102L228.43 174.656C228.845 174.28 228.887 173.65 228.523 173.247C228.159 172.844 227.528 172.822 227.112 173.197L220.013 179.635Z" fill="#FFD5CE"/>
<path d="M216.573 182.004C216.469 182.674 215.723 185.473 216.493 185.716L216.624 185.993C217.548 186.117 220.36 182.912 220.07 182.196L219.044 179.869C219.149 179.199 219.417 178.419 218.749 178.357C218.082 178.295 217.572 178.782 217.33 179.424C216.938 180.468 216.573 182.004 216.573 182.004Z" fill="#FFD5CE"/>
<path d="M217.267 179.572C217.434 180.408 218.511 181.159 219.247 180.843L219.437 180.89C220.174 180.574 220.043 180.516 219.932 179.671C219.754 178.315 218.409 176.659 218.409 176.659C217.755 175.796 216.567 175.283 216.116 175.489C215.655 175.673 215.276 176.199 215.354 176.544C215.354 176.544 216.828 177.361 217.267 179.572Z" fill="#FFD5CE"/>
<path d="M226.231 180.366L223.318 183.052C222.801 183.53 221.994 183.497 221.517 182.98C221.04 182.463 221.073 181.656 221.59 181.179L224.503 178.492C225.02 178.015 225.827 178.047 226.304 178.564C226.781 179.083 226.748 179.889 226.231 180.366Z" fill="#FFD5CE"/>
<path d="M227.708 182.374L224.795 185.061C224.277 185.538 223.471 185.506 222.994 184.989C222.517 184.472 222.549 183.665 223.066 183.188L225.98 180.502C226.497 180.025 227.303 180.057 227.78 180.574C228.257 181.09 228.225 181.897 227.708 182.374Z" fill="#FFD5CE"/>
<path d="M228.911 184.521L225.998 187.209C225.481 187.686 224.674 187.653 224.197 187.136C223.72 186.619 223.752 185.812 224.27 185.335L227.183 182.648C227.7 182.171 228.506 182.204 228.983 182.721C229.461 183.238 229.429 184.044 228.911 184.521Z" fill="#FFD5CE"/>
<path d="M171.937 163.887C171.381 164.262 171.155 164.916 171.387 165.489C171.655 166.149 172.316 166.875 173.932 166.827C176.862 166.741 177.564 162.641 177.564 162.641C177.564 162.641 174.394 162.23 171.937 163.887Z" stroke="white" stroke-width="0.4763" stroke-miterlimit="10" stroke-linecap="round"/>
<path d="M167.975 163.855C168.553 164.244 168.788 164.924 168.546 165.519C168.268 166.204 167.582 166.958 165.904 166.908C162.862 166.818 162.133 162.56 162.133 162.56C162.133 162.56 165.424 162.135 167.975 163.855Z" stroke="white" stroke-width="0.4946" stroke-miterlimit="10" stroke-linecap="round"/>
<path d="M168.625 164.888C168.625 164.888 169.784 163.413 171.294 164.888" stroke="white" stroke-width="0.4946" stroke-miterlimit="10" stroke-linecap="round"/>
<path d="M172.986 204.294C172.986 204.294 172.442 208.909 171.999 212.664C171.556 216.418 176.062 213.923 176.746 211.492C177.088 210.278 178.927 206.695 178.302 204.584C177.907 203.249 173.256 202.003 172.986 204.294Z" fill="#FFD5CE"/>
<path d="M174.569 205.002C174.569 205.002 177.756 203.021 179.521 202.521C180.474 202.251 184.268 203.75 184.953 204.051C185.638 204.352 185.581 206.158 183.311 205.457C182.231 205.123 179.896 204.284 179.896 204.284L175.062 207.575C175.062 207.575 172.723 207.028 174.569 205.002Z" fill="#FFD5CE"/>
<path d="M173.419 203.487C173.419 203.487 176.438 200.19 177.802 199.668C178.537 199.387 182.035 200.857 182.58 201.059C183.125 201.26 183.138 202.737 181.342 202.312C180.487 202.109 178.636 201.577 178.636 201.577L174.935 205.532C174.935 205.532 172.041 205.259 173.419 203.487Z" fill="#FFD5CE"/>
<path d="M174.255 206.681C174.255 206.681 178.042 204.984 179.725 204.909C180.633 204.868 183.415 207.225 183.993 207.631C184.57 208.037 184.241 209.61 182.284 208.527C181.353 208.012 179.357 206.794 179.357 206.794L174.434 209.206C174.434 209.206 172.264 208.079 174.255 206.681Z" fill="#FFD5CE"/>
<path d="M173.307 207.415C173.307 207.415 177.392 206.815 178.949 206.856C179.789 206.878 182.223 209.229 182.733 209.64C183.242 210.051 182.849 211.478 181.105 210.353C180.274 209.818 178.502 208.567 178.502 208.567L174.473 209.396C174.473 209.396 171.391 208.571 173.307 207.415Z" fill="#FFD5CE"/>
<path d="M178.688 208.082C178.858 207.947 178.978 207.515 178.992 207.396" stroke="#E38C72" stroke-width="0.2596" stroke-miterlimit="10" stroke-linecap="round" stroke-linejoin="round"/>
<path d="M178.163 200.868C178.155 200.651 177.877 200.299 177.789 200.219" stroke="#E38C72" stroke-width="0.2596" stroke-miterlimit="10" stroke-linecap="round" stroke-linejoin="round"/>
<path d="M179.5 206.228C179.634 206.057 179.647 205.609 179.632 205.49" stroke="#E38C72" stroke-width="0.2596" stroke-miterlimit="10" stroke-linecap="round" stroke-linejoin="round"/>
<path d="M179.908 203.717C179.967 203.508 179.809 203.088 179.75 202.984" stroke="#E38C72" stroke-width="0.2596" stroke-miterlimit="10" stroke-linecap="round" stroke-linejoin="round"/>
<path d="M182.722 210.366C182.446 210.326 182.115 210.073 182.095 209.865C182.076 209.656 182.257 209.396 182.257 209.396" stroke="#E38C72" stroke-width="0.2596" stroke-miterlimit="10" stroke-linecap="round" stroke-linejoin="round"/>
<path d="M184.097 208.355C183.819 208.349 183.46 208.138 183.415 207.934C183.37 207.729 183.518 207.449 183.518 207.449" stroke="#E38C72" stroke-width="0.2596" stroke-miterlimit="10" stroke-linecap="round" stroke-linejoin="round"/>
<path d="M185.209 204.742C184.935 204.791 184.541 204.654 184.457 204.462C184.373 204.269 184.465 203.967 184.465 203.967" stroke="#E38C72" stroke-width="0.2596" stroke-miterlimit="10" stroke-linecap="round" stroke-linejoin="round"/>
<path d="M182.694 201.426C182.42 201.474 182.026 201.338 181.942 201.146C181.91 201.074 181.903 200.986 181.907 200.904" stroke="#E38C72" stroke-width="0.2596" stroke-miterlimit="10" stroke-linecap="round" stroke-linejoin="round"/>
<path d="M457.247 43.2846C458.672 41.9079 460.505 41.2188 462.746 41.2188C464.987 41.2188 466.82 41.9079 468.246 43.2846C469.669 44.6612 470.383 46.5672 470.383 49C470.383 51.4662 469.669 53.3877 468.246 54.7635C466.82 56.1402 464.987 56.8285 462.746 56.8285C460.504 56.8285 458.671 56.1402 457.247 54.7635C455.822 53.3868 455.109 51.4654 455.109 49C455.109 46.5672 455.822 44.662 457.247 43.2846ZM460.057 49.0008C460.057 51.5306 460.937 52.7956 462.699 52.7956C463.563 52.7956 464.236 52.4832 464.717 51.8593C465.197 51.2346 465.437 50.2828 465.437 49.0016C465.437 46.5035 464.524 45.2549 462.699 45.2549C460.937 45.2541 460.057 46.5027 460.057 49.0008ZM485.946 41.7962L467.069 75.4183H460.538L479.366 41.7962H485.946ZM478.333 62.4256C479.758 61.0653 481.591 60.3843 483.832 60.3843C486.074 60.3843 487.891 61.0653 489.284 62.4256C490.677 63.7868 491.373 65.7001 491.373 68.1655C491.373 70.6318 490.677 72.5532 489.284 73.9291C487.891 75.3057 486.073 75.9949 483.832 75.9949C481.559 75.9949 479.717 75.3065 478.309 73.9291C476.899 72.5524 476.196 70.6318 476.196 68.1655C476.196 65.7001 476.908 63.7868 478.333 62.4256ZM481.046 68.1655C481.046 70.6954 481.959 71.9595 483.784 71.9595C485.578 71.9595 486.474 70.6946 486.474 68.1655C486.474 65.6675 485.577 64.4189 483.784 64.4189C481.959 64.4189 481.046 65.6675 481.046 68.1655Z" fill="#C9DBFA"/>
<path d="M163.794 41.4747C164.647 40.651 165.744 40.2383 167.086 40.2383C168.427 40.2383 169.525 40.651 170.378 41.4747C171.23 42.2992 171.656 43.4393 171.656 44.8951C171.656 46.3713 171.23 47.5204 170.378 48.3449C169.525 49.1686 168.428 49.5805 167.086 49.5805C165.744 49.5805 164.647 49.1686 163.794 48.3449C162.941 47.5212 162.516 46.3713 162.516 44.8951C162.516 43.4385 162.941 42.2984 163.794 41.4747ZM165.476 44.8951C165.476 46.4088 166.003 47.1664 167.057 47.1664C167.575 47.1664 167.977 46.9797 168.264 46.6061C168.552 46.2326 168.696 45.6625 168.696 44.8959C168.696 43.401 168.149 42.654 167.057 42.654C166.003 42.6531 165.476 43.4002 165.476 44.8951ZM180.97 40.5833L169.673 60.7046H165.764L177.032 40.5833H180.97ZM176.414 52.9291C177.266 52.1144 178.363 51.7074 179.705 51.7074C181.046 51.7074 182.134 52.1144 182.967 52.9291C183.801 53.7439 184.218 54.8889 184.218 56.3643C184.218 57.8404 183.801 58.9895 182.967 59.8132C182.134 60.6378 181.046 61.0496 179.705 61.0496C178.344 61.0496 177.242 60.6378 176.4 59.8132C175.556 58.9895 175.135 57.8396 175.135 56.3643C175.135 54.8889 175.56 53.7439 176.414 52.9291ZM178.037 56.3643C178.037 57.8779 178.584 58.6348 179.676 58.6348C180.749 58.6348 181.286 57.8779 181.286 56.3643C181.286 54.8693 180.749 54.1223 179.676 54.1223C178.584 54.1223 178.037 54.8693 178.037 56.3643Z" fill="#C9DBFA"/>
<path d="M180.948 128.569H171.553C166.686 128.569 162.742 124.624 162.742 119.758V110.363C162.742 105.497 166.687 101.553 171.553 101.553H180.948C185.814 101.553 189.758 105.498 189.758 110.363V119.758C189.758 124.624 185.813 128.569 180.948 128.569Z" fill="#C9DBFA"/>
<path d="M169.578 114.934L174.304 119.661L183.509 110.457" stroke="white" stroke-width="3.1557" stroke-miterlimit="10" stroke-linecap="round" stroke-linejoin="round"/>
<path d="M263.645 300.331C258.302 290.106 257.708 277.519 262.064 266.837C262.545 265.658 263.4 264.304 264.667 264.421C265.757 264.521 266.398 265.667 266.812 266.681C269.792 273.982 270.905 282.035 270.016 289.871C270.663 287.973 271.875 286.327 273.126 284.759C274.378 283.192 276.771 282.285 278.425 283.419C279.701 284.295 280.073 286.086 279.719 287.592C279.363 289.099 278.428 290.392 277.513 291.642C275.505 294.385 273.497 297.129 271.489 299.872C269.03 299.927 266.103 300.275 263.645 300.331Z" fill="#C9DBFA"/>
</g>
<defs>
<clipPath id="clip0_79_9176">
<rect width="557" height="367" fill="white"/>
</clipPath>
</defs>
</svg>
