<svg width="44" height="44" viewBox="0 0 44 44" fill="none" xmlns="http://www.w3.org/2000/svg">
<path d="M28.1875 22.6875H19.25C18.8705 22.6875 18.5625 22.3795 18.5625 22C18.5625 21.6205 18.8705 21.3125 19.25 21.3125H28.1875C28.567 21.3125 28.875 21.6205 28.875 22C28.875 22.3795 28.567 22.6875 28.1875 22.6875Z" fill="#74B7FD"/>
<path d="M20.8285 15.8125H19.25C18.8705 15.8125 18.5625 15.5045 18.5625 15.125C18.5625 14.7455 18.8705 14.4375 19.25 14.4375H20.8285C21.8996 14.4375 22.8027 13.6012 22.8848 12.5331L23.1815 8.6735C23.3186 6.89425 24.8242 5.5 26.609 5.5H28.1875C28.567 5.5 28.875 5.808 28.875 6.1875C28.875 6.567 28.567 6.875 28.1875 6.875H26.609C25.5379 6.875 24.6348 7.71134 24.5527 8.77938L24.256 12.639C24.1189 14.4183 22.6132 15.8125 20.8285 15.8125Z" fill="#74B7FD"/>
<path d="M28.1875 38.5H26.609C24.8242 38.5 23.3186 37.1057 23.1815 35.3262L22.8848 31.4669C22.8027 30.3988 21.8996 29.5625 20.8285 29.5625H19.25C18.8705 29.5625 18.5625 29.2545 18.5625 28.875C18.5625 28.4955 18.8705 28.1875 19.25 28.1875H20.8285C22.6132 28.1875 24.1189 29.5818 24.256 31.3613L24.5527 35.221C24.6348 36.2887 25.5382 37.1253 26.609 37.1253H28.1875C28.567 37.1253 28.875 37.4333 28.875 37.8128C28.875 38.1923 28.567 38.5 28.1875 38.5Z" fill="#74B7FD"/>
<path d="M40.5625 10.6562H30.25C29.1108 10.6562 28.1875 9.73294 28.1875 8.59375V3.78125C28.1875 2.64206 29.1108 1.71875 30.25 1.71875H40.5625C41.7017 1.71875 42.625 2.64206 42.625 3.78125V8.59375C42.625 9.73294 41.7017 10.6562 40.5625 10.6562Z" fill="#00EFC7"/>
<path d="M31.9783 6.875C31.5988 6.875 31.2891 6.567 31.2891 6.1875C31.2891 5.808 31.595 5.5 31.9748 5.5H31.9783C32.3578 5.5 32.6658 5.808 32.6658 6.1875C32.6658 6.567 32.3581 6.875 31.9783 6.875Z" fill="#51528C"/>
<path d="M35.4158 6.875C35.0363 6.875 34.7266 6.567 34.7266 6.1875C34.7266 5.808 35.0325 5.5 35.4123 5.5H35.4158C35.7953 5.5 36.1033 5.808 36.1033 6.1875C36.1033 6.567 35.7956 6.875 35.4158 6.875Z" fill="#51528C"/>
<path d="M38.8533 6.875C38.4738 6.875 38.1641 6.567 38.1641 6.1875C38.1641 5.808 38.47 5.5 38.8498 5.5H38.8533C39.2328 5.5 39.5408 5.808 39.5408 6.1875C39.5408 6.567 39.2331 6.875 38.8533 6.875Z" fill="#51528C"/>
<path d="M40.5625 26.4688H30.25C29.1108 26.4688 28.1875 25.5454 28.1875 24.4062V19.5938C28.1875 18.4546 29.1108 17.5312 30.25 17.5312H40.5625C41.7017 17.5312 42.625 18.4546 42.625 19.5938V24.4062C42.625 25.5454 41.7017 26.4688 40.5625 26.4688Z" fill="#FBC96E"/>
<path d="M31.9783 22.6875C31.5988 22.6875 31.2891 22.3795 31.2891 22C31.2891 21.6205 31.595 21.3125 31.9748 21.3125H31.9783C32.3578 21.3125 32.6658 21.6205 32.6658 22C32.6658 22.3795 32.3581 22.6875 31.9783 22.6875Z" fill="#51528C"/>
<path d="M35.4158 22.6875C35.0363 22.6875 34.7266 22.3795 34.7266 22C34.7266 21.6205 35.0325 21.3125 35.4123 21.3125H35.4158C35.7953 21.3125 36.1033 21.6205 36.1033 22C36.1033 22.3795 35.7956 22.6875 35.4158 22.6875Z" fill="#51528C"/>
<path d="M38.8533 22.6875C38.4738 22.6875 38.1641 22.3795 38.1641 22C38.1641 21.6205 38.47 21.3125 38.8498 21.3125H38.8533C39.2328 21.3125 39.5408 21.6205 39.5408 22C39.5408 22.3795 39.2331 22.6875 38.8533 22.6875Z" fill="#51528C"/>
<path d="M40.5625 42.2812H30.25C29.1108 42.2812 28.1875 41.3579 28.1875 40.2188V35.4062C28.1875 34.2671 29.1108 33.3438 30.25 33.3438H40.5625C41.7017 33.3438 42.625 34.2671 42.625 35.4062V40.2188C42.625 41.3579 41.7017 42.2812 40.5625 42.2812Z" fill="#F86AA5"/>
<path d="M31.9783 38.5C31.5988 38.5 31.2891 38.192 31.2891 37.8125C31.2891 37.433 31.595 37.125 31.9748 37.125H31.9783C32.3578 37.125 32.6658 37.433 32.6658 37.8125C32.6658 38.192 32.3581 38.5 31.9783 38.5Z" fill="#51528C"/>
<path d="M35.4158 38.5C35.0363 38.5 34.7266 38.192 34.7266 37.8125C34.7266 37.433 35.0325 37.125 35.4123 37.125H35.4158C35.7953 37.125 36.1033 37.433 36.1033 37.8125C36.1033 38.192 35.7956 38.5 35.4158 38.5Z" fill="#51528C"/>
<path d="M38.8533 38.5C38.4738 38.5 38.1641 38.192 38.1641 37.8125C38.1641 37.433 38.47 37.125 38.8498 37.125H38.8533C39.2328 37.125 39.5408 37.433 39.5408 37.8125C39.5408 38.192 39.2331 38.5 38.8533 38.5Z" fill="#51528C"/>
<path d="M17.5312 34.375H3.09375C2.14466 34.375 1.375 33.6053 1.375 32.6562V11.3438C1.375 10.3947 2.14466 9.625 3.09375 9.625H17.5312C18.4803 9.625 19.25 10.3947 19.25 11.3438V32.6562C19.25 33.6053 18.4803 34.375 17.5312 34.375Z" fill="#ECEAFD"/>
<path d="M15.8125 18.5625H4.8125C4.433 18.5625 4.125 18.2545 4.125 17.875C4.125 17.4955 4.433 17.1875 4.8125 17.1875H15.8125C16.192 17.1875 16.5 17.4955 16.5 17.875C16.5 18.2545 16.192 18.5625 15.8125 18.5625Z" fill="#51528C"/>
<path d="M15.8125 22H4.8125C4.433 22 4.125 21.692 4.125 21.3125C4.125 20.933 4.433 20.625 4.8125 20.625H15.8125C16.192 20.625 16.5 20.933 16.5 21.3125C16.5 21.692 16.192 22 15.8125 22Z" fill="#51528C"/>
<path d="M15.8125 25.4375H4.8125C4.433 25.4375 4.125 25.1295 4.125 24.75C4.125 24.3705 4.433 24.0625 4.8125 24.0625H15.8125C16.192 24.0625 16.5 24.3705 16.5 24.75C16.5 25.1295 16.192 25.4375 15.8125 25.4375Z" fill="#51528C"/>
<path d="M11.6875 28.875H4.8125C4.433 28.875 4.125 28.567 4.125 28.1875C4.125 27.808 4.433 27.5 4.8125 27.5H11.6875C12.067 27.5 12.375 27.808 12.375 28.1875C12.375 28.567 12.067 28.875 11.6875 28.875Z" fill="#51528C"/>
<path d="M10.3125 14.0938C12.7805 14.0938 14.7812 12.093 14.7812 9.625C14.7812 7.15698 12.7805 5.15625 10.3125 5.15625C7.84448 5.15625 5.84375 7.15698 5.84375 9.625C5.84375 12.093 7.84448 14.0938 10.3125 14.0938Z" fill="#F24087"/>
<path d="M10.3128 12.0313C9.93326 12.0313 9.62526 11.7233 9.62526 11.3438V9.07475L9.61529 9.08025C9.28323 9.26484 8.86488 9.14487 8.68029 8.81316C8.49604 8.48144 8.61566 8.06275 8.94738 7.87816L9.97863 7.30512C10.1914 7.18722 10.4513 7.18997 10.661 7.31372C10.8714 7.43747 11.0003 7.66297 11.0003 7.90634V11.3438C11.0003 11.7233 10.6923 12.0313 10.3128 12.0313Z" fill="white"/>
<path d="M40.5625 1.54688H30.25C29.018 1.54688 28.0156 2.54925 28.0156 3.78125V8.59375C28.0156 9.82575 29.018 10.8281 30.25 10.8281H40.5625C41.7945 10.8281 42.7969 9.82575 42.7969 8.59375V3.78125C42.7969 2.54925 41.7945 1.54688 40.5625 1.54688ZM42.4531 8.59375C42.4531 9.63634 41.6051 10.4844 40.5625 10.4844H30.25C29.2074 10.4844 28.3594 9.63634 28.3594 8.59375V3.78125C28.3594 2.73866 29.2074 1.89062 30.25 1.89062H40.5625C41.6051 1.89062 42.4531 2.73866 42.4531 3.78125V8.59375Z" fill="black"/>
<path d="M40.5625 17.3594H30.25C29.018 17.3594 28.0156 18.3617 28.0156 19.5938V24.4062C28.0156 25.6383 29.018 26.6406 30.25 26.6406H40.5625C41.7945 26.6406 42.7969 25.6383 42.7969 24.4062V19.5938C42.7969 18.3617 41.7945 17.3594 40.5625 17.3594ZM42.4531 24.4062C42.4531 25.4488 41.6051 26.2969 40.5625 26.2969H30.25C29.2074 26.2969 28.3594 25.4488 28.3594 24.4062V19.5938C28.3594 18.5512 29.2074 17.7031 30.25 17.7031H40.5625C41.6051 17.7031 42.4531 18.5512 42.4531 19.5938V24.4062Z" fill="black"/>
<path d="M40.5625 33.1719H30.25C29.018 33.1719 28.0156 34.1742 28.0156 35.4062V40.2188C28.0156 41.4508 29.018 42.4531 30.25 42.4531H40.5625C41.7945 42.4531 42.7969 41.4508 42.7969 40.2188V35.4062C42.7969 34.1742 41.7945 33.1719 40.5625 33.1719ZM42.4531 40.2188C42.4531 41.2613 41.6051 42.1094 40.5625 42.1094H30.25C29.2074 42.1094 28.3594 41.2613 28.3594 40.2188V35.4062C28.3594 34.3637 29.2074 33.5156 30.25 33.5156H40.5625C41.6051 33.5156 42.4531 34.3637 42.4531 35.4062V40.2188Z" fill="black"/>
<path d="M17.5312 9.45312H17.0414C16.9465 9.45312 16.8695 9.53013 16.8695 9.625C16.8695 9.71987 16.9465 9.79688 17.0414 9.79688H17.5312C18.3841 9.79688 19.0781 10.4909 19.0781 11.3438V32.6562C19.0781 33.5091 18.3841 34.2031 17.5312 34.2031H3.09375C2.24091 34.2031 1.54688 33.5091 1.54688 32.6562V11.3438C1.54688 10.4909 2.24091 9.79688 3.09375 9.79688H5.68047C5.77191 12.2757 7.81172 14.2656 10.3125 14.2656C12.8714 14.2656 14.9531 12.1839 14.9531 9.625C14.9531 7.06613 12.8714 4.98438 10.3125 4.98438C7.81172 4.98438 5.77191 6.97434 5.68047 9.45312H3.09375C2.05116 9.45312 1.20312 10.3012 1.20312 11.3438V32.6562C1.20312 33.6988 2.05116 34.5469 3.09375 34.5469H17.5312C18.5738 34.5469 19.4219 33.6988 19.4219 32.6562V11.3438C19.4219 10.3012 18.5738 9.45312 17.5312 9.45312ZM10.3125 5.32812C12.682 5.32812 14.6094 7.25553 14.6094 9.625C14.6094 11.9945 12.682 13.9219 10.3125 13.9219C7.94303 13.9219 6.01562 11.9945 6.01562 9.625C6.01562 7.25553 7.94303 5.32812 10.3125 5.32812Z" fill="black"/>
</svg>
